g pb_Mesh68762
v 54 -25 0
v 50 -25 0
v 50 117 0
v 54 119 0
v 50 119 -52
v 54 -25 -52
v 54 119 -52
v 50 -25 -52
v -26 -25 0
v -26 -25 -48
v -26 119 -48
v -26 119 0
v -26 -25 -52
v -26 119 -52
v 54 119 -52
v 54 -25 -48
v 54 119 -48
v 54 -25 -52
v 54 -25 0
v 54 119 0
v 54 -25 -48
v 50 -25 -52
v 50 -25 -48
v 54 -25 -52
v 54 -25 0
v 50 -25 0
v -22 -25 0
v -22 117 0
v -26 -25 0
v -26 119 0
v -22 119 -52
v -22 -25 -52
v -26 119 -52
v -26 -25 -52
v -22 -25 -48
v -26 -25 -52
v -26 -25 -48
v -22 -25 -52
v -22 -25 0
v -26 -25 0
v -22 133 -52
v 50 133 -52
v -22 119 -48
v -22 117 0
v -22 133 -48
v -22 133 0
v -26 133 0
v -26 133 -48
v -22 133 0
v -26 133 0
v -26 133 -52
v 50 119 -48
v -22 119 -48
v 50 133 -48
v -22 133 -48
v -26 133 -52
v 54 133 -48
v 54 133 0
v 54 133 -52
v 54 133 -52
v 50 117 0
v 50 119 -48
v 50 133 0
v 50 133 -48
v 54 133 0
v 50 133 0
v 50 133 -52
v 54 133 -52
v 54 133 -48
v 50 133 -48
v 54 133 0
v 50 133 0
v -26 133 -52
v -22 133 -52
v -22 133 -48
v -26 133 -48
v -22 133 0
v -26 133 0
v -22 119 -48
v 50 119 -48
v 50 117 0
v -22 117 0
vt 54 -25
vt 50 -25
vt 50 117
vt 54 119
vt -50 119
vt -54 -25
vt -54 119
vt -50 -25
vt 0 -25
vt -48 -25
vt -48 119
vt 0 119
vt -52 -25
vt -52 119
vt 52 119
vt 48 -25
vt 48 119
vt 52 -25
vt -0 -25
vt 0 119
vt 54 -48
vt 50 -52
vt 50 -48
vt 54 -52
vt 54 0
vt 50 0
vt -22 -25
vt -22 117
vt -26 -25
vt -26 119
vt 22 119
vt 22 -25
vt 26 119
vt 26 -25
vt -22 -48
vt -26 -52
vt -26 -48
vt -22 -52
vt -22 0
vt -26 0
vt 22 133
vt -50 133
vt 48 119
vt 0 117
vt 48 133
vt 0 133
vt 0 133
vt -48 133
vt -22 133
vt -26 133
vt 26 133
vt 50 119
vt -22 119
vt 50 133
vt -22 133
vt -52 133
vt 48 133
vt 0 133
vt -54 133
vt 52 133
vt 0 117
vt -48 119
vt 0 133
vt -48 133
vt 54 133
vt 50 133
vt -50 -52
vt -54 -52
vt -54 -48
vt -50 -48
vt -54 0
vt -50 0
vt 26 -52
vt 22 -52
vt 22 -48
vt 26 -48
vt 22 0
vt 26 0
vt 22 -52.912422
vt -50 -52.912422
vt -50 -4.870774
vt 22 -4.870774
vn -0 0 1
vn -0 0 1
vn -0 0 1
vn -0 0 1
vn -0 0 -1
vn -0 0 -1
vn -0 0 -1
vn -0 0 -1
vn -1 0 0
vn -1 0 0
vn -1 0 0
vn -1 0 0
vn -1 0 0
vn -1 0 0
vn 1 0 0
vn 1 0 0
vn 1 0 0
vn 1 0 0
vn 1 0 0
vn 1 0 0
vn -0 -1 0
vn -0 -1 0
vn -0 -1 0
vn -0 -1 0
vn -0 -1 0
vn -0 -1 0
vn -0 0 1
vn -0 0 1
vn -0 0 1
vn -0 0 1
vn -0 0 -1
vn -0 0 -1
vn -0 0 -1
vn -0 0 -1
vn -0 -1 0
vn -0 -1 0
vn -0 -1 0
vn -0 -1 0
vn -0 -1 0
vn -0 -1 0
vn -0 0 -1
vn -0 0 -1
vn 1 0 0
vn 1 0 0
vn 1 0 0
vn 1 0 0
vn -1 0 0
vn -1 0 0
vn -0 0 1
vn -0 0 1
vn -0 0 -1
vn -0 0 1
vn -0 0 1
vn -0 0 1
vn -0 0 1
vn -1 0 0
vn 1 0 0
vn 1 0 0
vn -0 0 -1
vn 1 0 0
vn -1 0 0
vn -1 0 0
vn -1 0 0
vn -1 0 0
vn -0 0 1
vn -0 0 1
vn -0 1 0
vn -0 1 0
vn -0 1 0
vn -0 1 0
vn -0 1 0
vn -0 1 0
vn -0 1 0
vn -0 1 0
vn -0 1 0
vn -0 1 0
vn -0 1 0
vn -0 1 0
vn -0 0.99913305 0.041630544
vn -0 0.99913305 0.041630544
vn -0 0.99913305 0.041630544
vn -0 0.99913305 0.041630544
g pb_Mesh68762_0
f 3/3/3 2/2/2 1/1/1
f 3/3/3 1/1/1 4/4/4
f 7/7/7 6/6/6 5/5/5
f 6/6/6 8/8/8 5/5/5
f 11/11/11 10/10/10 9/9/9
f 11/11/11 9/9/9 12/12/12
f 14/14/14 13/13/13 10/10/10
f 14/14/14 10/10/10 11/11/11
f 17/17/17 16/16/16 15/15/15
f 16/16/16 18/18/18 15/15/15
f 20/20/20 19/19/19 17/17/17
f 19/19/19 16/16/16 17/17/17
f 23/23/23 22/22/22 21/21/21
f 22/22/22 24/24/24 21/21/21
f 26/26/26 23/23/23 25/25/25
f 23/23/23 21/21/21 25/25/25
f 28/28/28 27/27/27 2/2/2
f 28/28/28 2/2/2 3/3/3
f 30/30/30 29/29/29 27/27/27
f 30/30/30 27/27/27 28/28/28
f 5/5/5 8/8/8 31/31/31
f 8/8/8 32/32/32 31/31/31
f 31/31/31 32/32/32 33/33/33
f 32/32/32 34/34/34 33/33/33
f 37/37/37 36/36/36 35/35/35
f 36/36/36 38/38/38 35/35/35
f 35/35/35 38/38/38 23/23/23
f 38/38/38 22/22/22 23/23/23
f 40/40/40 37/37/37 39/39/39
f 37/37/37 35/35/35 39/39/39
f 39/39/39 35/35/35 26/26/26
f 35/35/35 23/23/23 26/26/26
f 41/41/41 5/5/5 31/31/31
f 41/41/41 42/42/42 5/5/5
f 45/45/45 44/44/44 43/43/43
f 45/45/45 46/46/46 44/44/44
f 47/47/47 11/11/11 12/12/12
f 47/47/47 48/48/48 11/11/11
f 49/49/49 30/30/30 28/28/28
f 49/49/49 50/50/50 30/30/30
f 51/51/51 31/31/31 33/33/33
f 51/51/51 41/41/41 31/31/31
f 54/54/54 53/53/53 52/52/52
f 54/54/54 55/55/55 53/53/53
f 48/48/48 14/14/14 11/11/11
f 48/48/48 56/56/56 14/14/14
f 57/57/57 20/20/20 17/17/17
f 57/57/57 58/58/58 20/20/20
f 42/42/42 7/7/7 5/5/5
f 42/42/42 59/59/59 7/7/7
f 60/60/60 17/17/17 15/15/15
f 60/60/60 57/57/57 17/17/17
f 63/63/63 62/62/62 61/61/61
f 63/63/63 64/64/64 62/62/62
f 65/65/65 3/3/3 4/4/4
f 65/65/65 66/66/66 3/3/3
g pb_Mesh68762_1
f 69/69/69 68/68/68 67/67/67
f 69/69/69 67/67/67 70/70/70
f 71/71/71 69/69/69 70/70/70
f 71/71/71 70/70/70 72/72/72
f 75/75/75 74/74/74 73/73/73
f 75/75/75 73/73/73 76/76/76
f 70/70/70 67/67/67 74/74/74
f 70/70/70 74/74/74 75/75/75
f 77/77/77 75/75/75 76/76/76
f 77/77/77 76/76/76 78/78/78
f 81/81/81 80/80/80 79/79/79
f 81/81/81 79/79/79 82/82/82
