g pb_Mesh-72994
v -0.75 -5 0.12499985
v -1 -5 0.12499976
v -0.7500001 5 0.12499997
v -1 5 0.12499976
v -1 -5 0.12499976
v -0.9999999 -5 -0.12500024
v -1 5 0.12499976
v -0.9999999 5 -0.12500024
v -0.9999999 -5 -0.12500024
v -0.7499999 -5 -0.12500015
v -0.9999999 5 -0.12500024
v -0.7499999 5 -0.12500003
v 1.0000001 -5 -0.12499952
v 1 -5 0.12500048
v 1.0000001 5 -0.12499857
v 0.9999999 5 0.12500143
v -0.7500001 5 0.12499997
v -1 5 0.12499976
v -0.7499999 5 -0.12500003
v -0.9999999 5 -0.12500024
v -0.7499999 -5 -0.12500015
v -0.9999999 -5 -0.12500024
v -0.75 -5 0.12499985
v -1 -5 0.12499976
v 0.7500001 -5 -0.12499961
v 0.75 -5 0.12500039
v 1.0000001 -5 -0.12499952
v 1 -5 0.12500048
v 0.7500001 5 -0.12499878
v 0.7500001 -5 -0.12499961
v 1.0000001 5 -0.12499857
v 1.0000001 -5 -0.12499952
v 0.75 -5 0.12500039
v 0.74999994 5 0.12500122
v 1 -5 0.12500048
v 0.9999999 5 0.12500143
v 0.74999994 5 0.12500122
v 0.7500001 5 -0.12499878
v 0.9999999 5 0.12500143
v 1.0000001 5 -0.12499857
v -0.75 -5 0.12499985
v -0.7500001 5 0.12499997
v -0.7499999 -5 -0.12500015
v -0.7499999 5 -0.12500003
v 0.74999994 5 0.12500122
v 0.75 -5 0.12500039
v 0.7500001 5 -0.12499878
v 0.7500001 -5 -0.12499961
v -0.74999994 -5 -1.4901161E-07
v -0.75 5 -2.9802322E-08
v 0.75000006 -5 3.874302E-07
v 0.75 5 1.2218952E-06
vt -0.74999994 -5
vt -0.99999994 -5
vt -0.75000006 5
vt -0.99999994 5
vt -1.9999998 -5
vt -2.2499998 -5
vt -1.9999998 5
vt -2.2499998 5
vt 0.99999994 -5
vt 0.74999994 -5
vt 0.99999994 5
vt 0.74999994 5
vt 2.25 -5
vt 2 -5
vt 2.249999 5
vt 1.999999 5
vt 0.7500001 -2
vt 1 -2.0000002
vt 0.7499999 -2.25
vt 0.9999999 -2.2500002
vt -0.7499999 -2.2500002
vt -0.9999999 -2.2500002
vt -0.75 -2.0000002
vt -1 -2.0000002
vt 0.7500001 -2.2499995
vt 0.75 -1.9999996
vt 1.0000001 -2.2499995
vt 1 -1.9999995
vt -0.75 5
vt -0.75 -5
vt -1 5
vt -1 -5
vt 0.75000006 -5
vt 0.75 5
vt 1 -5
vt 0.99999994 5
vt -0.74999994 -1.9999988
vt -0.7500001 -2.2499988
vt -0.9999999 -1.9999986
vt -1.0000001 -2.2499986
vt 1.9999998 -5
vt 1.9999996 5
vt 2.2499998 -5
vt 2.2499998 5
vt -1.9999993 5
vt -2.0000002 -5
vt -2.2499993 5
vt -2.2500002 -5
vt -0.74999994 -5
vt -0.75 5
vt 0.75000006 -5
vt 0.75 5
vn -3.5762787E-07 -1.1920934E-08 1
vn -5.960467E-07 -5.960467E-09 1
vn -5.960467E-07 -5.960467E-09 1
vn -8.344654E-07 0 1
vn -1 0 -4.7683716E-07
vn -1 0 -4.7683716E-07
vn -1 0 -4.7683716E-07
vn -1 0 -4.7683716E-07
vn 3.5762787E-07 0 -1
vn 5.9604645E-07 5.9604646E-09 -1
vn 5.9604645E-07 5.9604646E-09 -1
vn 8.34465E-07 1.1920929E-08 -1
vn 1 -4.5474736E-14 4.7683716E-07
vn 1 5.960396E-09 7.1525574E-07
vn 1 5.960396E-09 7.1525574E-07
vn 1 1.1920838E-08 9.536743E-07
vn -0 1 0
vn -0 1 0
vn -0 1 0
vn -0 1 0
vn -0 -1 0
vn -0 -1 0
vn -0 -1 0
vn -0 -1 0
vn -0 -1 0
vn -0 -1 0
vn -0 -1 0
vn -0 -1 0
vn 8.34465E-07 8.34465E-08 -1
vn 5.9604645E-07 8.940697E-08 -1
vn 5.9604645E-07 8.940697E-08 -1
vn 3.5762787E-07 9.536743E-08 -1
vn -3.5762787E-07 -8.34465E-08 1
vn -5.9604656E-07 -8.940697E-08 1
vn -5.9604656E-07 -8.940697E-08 1
vn -8.344652E-07 -9.536744E-08 1
vn -0 1 0
vn -0 1 0
vn -0 1 0
vn -0 1 0
vn 1 1.1920923E-08 4.7683716E-07
vn 1 5.9604557E-09 7.1525574E-07
vn 1 5.9604557E-09 7.1525574E-07
vn 1 -1.1368684E-14 9.536743E-07
vn -1 -5.9604046E-09 -7.1525574E-07
vn -1 -2.9801823E-09 -5.9604645E-07
vn -1 -2.9801823E-09 -5.9604645E-07
vn -1 3.9790393E-14 -4.7683716E-07
vn -3.5762787E-07 -1.1920931E-08 1
vn -5.9604645E-07 -4.7683717E-08 1
vn -5.9604645E-07 -4.7683717E-08 1
vn -8.34465E-07 -8.34465E-08 1
g pb_Mesh-72994_0
f 3/3/3 2/2/2 1/1/1
f 3/3/3 4/4/4 2/2/2
f 7/7/7 6/6/6 5/5/5
f 7/7/7 8/8/8 6/6/6
f 11/11/11 10/10/10 9/9/9
f 11/11/11 12/12/12 10/10/10
f 15/15/15 14/14/14 13/13/13
f 15/15/15 16/16/16 14/14/14
f 19/19/19 18/18/18 17/17/17
f 19/19/19 20/20/20 18/18/18
f 23/23/23 22/22/22 21/21/21
f 23/23/23 24/24/24 22/22/22
f 27/27/27 26/26/26 25/25/25
f 27/27/27 28/28/28 26/26/26
f 31/31/31 30/30/30 29/29/29
f 31/31/31 32/32/32 30/30/30
f 35/35/35 34/34/34 33/33/33
f 35/35/35 36/36/36 34/34/34
f 39/39/39 38/38/38 37/37/37
f 39/39/39 40/40/40 38/38/38
f 43/43/43 42/42/42 41/41/41
f 43/43/43 44/44/44 42/42/42
f 47/47/47 46/46/46 45/45/45
f 47/47/47 48/48/48 46/46/46
g pb_Mesh-72994_1
f 51/51/51 50/50/50 49/49/49
f 51/51/51 52/52/52 50/50/50
