g pb_Mesh84878
v -0.99963856 -0.25 7.000308
v -0.9999509 -0.25 0.49976277
v -0.9999509 0.25 0.49976277
v -0.99963856 0.25 7.000308
v 1.0001407 0.25 0.49983406
v 0.9999089 -0.25 6.9994726
v 0.9999089 0.25 6.9994726
v 1.0001407 -0.25 0.49983406
v -0.9999509 -0.25 0.49976277
v -1.0002775 -0.25 -0.5002371
v -1.0002775 0.25 -0.5002371
v -0.9999509 0.25 0.49976277
v -1.0002775 -0.25 -0.5002371
v -1.0004082 -0.25 -6.999698
v -1.0004082 0.25 -6.999698
v -1.0002775 0.25 -0.5002371
v 1.0001762 0.25 -0.50016606
v 1.0001762 -0.25 -0.50016606
v 1.0004077 0.25 -7.0003085
v 1.0004077 -0.25 -7.0003085
v -0.5000906 -0.25 6.999874
v -0.99963856 -0.25 7.000308
v -0.99963856 0.25 7.000308
v -0.5000906 0.25 6.999874
v -1.0004082 0.25 -6.999698
v -0.49959278 -0.25 -7.0000205
v -0.49959278 0.25 -7.0000205
v -1.0004082 -0.25 -6.999698
v -0.9999509 0.25 0.49976277
v -0.4998598 0.25 0.49978065
v -0.5000906 0.25 6.999874
v -0.99963856 0.25 7.000308
v -0.99963856 -0.25 7.000308
v -0.5000906 -0.25 6.999874
v -0.9999509 -0.25 0.49976277
v -0.4998598 -0.25 0.49978065
v -1.0004082 0.25 -6.999698
v -0.49982357 0.25 -0.50021946
v -1.0002775 0.25 -0.5002371
v -0.49959278 0.25 -7.0000205
v -1.0004082 -0.25 -6.999698
v -0.49982357 -0.25 -0.50021946
v -0.49959278 -0.25 -7.0000205
v -1.0002775 -0.25 -0.5002371
v 0.9999089 -0.25 6.9994726
v 0.4999094 -0.25 6.9996824
v 0.4999094 0.25 6.9996824
v 0.9999089 0.25 6.9994726
v 0.4999094 -0.25 6.9996824
v -0.5000906 -0.25 6.999874
v -0.5000906 0.25 6.999874
v 0.4999094 0.25 6.9996824
v 0.5004072 0.25 -7.000155
v 1.0004077 -0.25 -7.0003085
v 1.0004077 0.25 -7.0003085
v 0.5004072 -0.25 -7.000155
v -0.49959278 0.25 -7.0000205
v 0.5004072 -0.25 -7.000155
v 0.5004072 0.25 -7.000155
v -0.49959278 -0.25 -7.0000205
v 0.4999094 0.25 6.9996824
v 0.50014067 0.25 0.49981618
v 0.9999089 0.25 6.9994726
v 1.0001407 0.25 0.49983406
v 0.9999089 -0.25 6.9994726
v 1.0001407 -0.25 0.49983406
v 0.50014067 -0.25 0.49981618
v 0.4999094 -0.25 6.9996824
v 0.5001764 0.25 -0.5001837
v 0.5004072 0.25 -7.000155
v 1.0001762 0.25 -0.50016606
v 1.0004077 0.25 -7.0003085
v 1.0001762 -0.25 -0.50016606
v 1.0004077 -0.25 -7.0003085
v 0.5004072 -0.25 -7.000155
v 0.5001764 -0.25 -0.5001837
v 1.1524141 -9.358935 15.151975
v 1.1946212 -9.632508 14.501301
v 0.48877516 -9.648858 14.462389
v 0.44656807 -9.375285 15.113063
v 0.50014067 -0.25 0.49981618
v 0.5001764 -0.25 -0.5001837
v 1.1524141 -9.358935 15.151975
v 1.1946212 -9.632508 14.501301
v 0.5001764 -0.25 -0.5001837
v -0.49982357 -0.25 -0.50021946
v 1.1946212 -9.632508 14.501301
v 0.48877516 -9.648858 14.462389
v -0.49982357 -0.25 -0.50021946
v -0.4998598 -0.25 0.49978065
v 0.48877516 -9.648858 14.462389
v 0.44656807 -9.375285 15.113063
v -0.4998598 -0.25 0.49978065
v 0.50014067 -0.25 0.49981618
v 0.44656807 -9.375285 15.113063
v 1.1524141 -9.358935 15.151975
vt 7.0001764 -0.25
vt 0.4996312 -0.25
vt 0.4996312 0.25
vt 7.0001764 0.25
vt -0.49979845 0.25
vt -6.999437 -0.25
vt -6.999437 0.25
vt -0.49979845 -0.25
vt 0.4996312 -0.25
vt -0.5003687 -0.25
vt -0.5003687 0.25
vt 0.4996312 0.25
vt -0.5003687 -0.25
vt -6.99983 -0.25
vt -6.99983 0.25
vt -0.5003687 0.25
vt 0.50020164 0.25
vt 0.50020164 -0.25
vt 7.0003443 0.25
vt 7.0003443 -0.25
vt -0.5035436 -0.25
vt -1.0030917 -0.25
vt -1.0030917 0.25
vt -0.5035436 0.25
vt 0.9978761 0.25
vt 0.49706066 -0.25
vt 0.49706066 0.25
vt 0.9978761 -0.25
vt 0.9999509 0.49976277
vt 0.4998598 0.49978065
vt 0.5000906 6.999874
vt 0.99963856 7.000308
vt -0.99963856 7.000308
vt -0.5000906 6.999874
vt -0.9999509 0.49976277
vt -0.4998598 0.49978065
vt 1.0004082 -6.999698
vt 0.49982357 -0.50021946
vt 1.0002775 -0.5002371
vt 0.49959278 -7.0000205
vt -1.0004082 -6.999698
vt -0.49982357 -0.50021946
vt -0.49959278 -7.0000205
vt -1.0002775 -0.5002371
vt 0.99645585 -0.25
vt 0.4964563 -0.25
vt 0.4964563 0.25
vt 0.99645585 0.25
vt 0.4964563 -0.25
vt -0.5035436 -0.25
vt -0.5035436 0.25
vt 0.4964563 0.25
vt -0.50293934 0.25
vt -1.0029398 -0.25
vt -1.0029398 0.25
vt -0.50293934 -0.25
vt 0.49706066 0.25
vt -0.50293934 -0.25
vt -0.50293934 0.25
vt 0.49706066 -0.25
vt -0.4999094 6.9996824
vt -0.50014067 0.49981618
vt -0.9999089 6.9994726
vt -1.0001407 0.49983406
vt 0.9999089 6.9994726
vt 1.0001407 0.49983406
vt 0.50014067 0.49981618
vt 0.4999094 6.9996824
vt -0.5001764 -0.5001837
vt -0.5004072 -7.000155
vt -1.0001762 -0.50016606
vt -1.0004077 -7.0003085
vt 1.0001762 -0.50016606
vt 1.0004077 -7.0003085
vt 0.5004072 -7.000155
vt 0.5001764 -0.5001837
vt 1.152553 10.340294
vt 1.1947641 9.634448
vt 0.4889183 9.592237
vt 0.44670716 10.298083
vt -0.4997983 -0.28511292
vt 0.5002016 -0.28511292
vt -15.151934 -9.41741
vt -14.501258 -9.693298
vt 0.5001708 -0.29149842
vt -0.49982917 -0.29154062
vt 1.1944058 17.402464
vt 0.48855934 17.378134
vt -0.50020134 -0.19631225
vt 0.49979877 -0.19631225
vt 14.462371 -9.647076
vt 15.113047 -9.37059
vt 0.49986535 0.55632776
vt -0.5001351 0.5563696
vt -0.4463601 17.78477
vt -1.1522064 17.809122
vn -1 0 4.804648E-05
vn -1 0 4.804648E-05
vn -1 0 4.804648E-05
vn -1 0 4.804648E-05
vn 1 0 3.565473E-05
vn 1 0 3.565473E-05
vn 1 0 3.565473E-05
vn 1 0 3.565473E-05
vn -0.99999994 0 0.00032663348
vn -0.99999994 0 0.00032663348
vn -0.99999994 0 0.00032663348
vn -0.99999994 0 0.00032663348
vn -1 0 2.0102187E-05
vn -1 0 2.0102187E-05
vn -1 0 2.0102187E-05
vn -1 0 2.0102187E-05
vn 1 0 3.5524365E-05
vn 1 0 3.5524365E-05
vn 1 0 3.5615285E-05
vn 1 0 3.5615285E-05
vn 0.0008686286 0 0.99999964
vn 0.0008686286 0 0.99999964
vn 0.0008686286 0 0.99999964
vn 0.0008686286 0 0.99999964
vn -0.0006436341 0 -0.9999998
vn -0.0006436341 0 -0.9999998
vn -0.0006436341 0 -0.9999998
vn -0.0006436341 0 -0.9999998
vn -0 1 0
vn -0 1 0
vn -0 1 0
vn -0 1 0
vn -0 -1 0
vn -0 -1 0
vn -0 -1 0
vn -0 -1 0
vn -0 1 0
vn -0 1 0
vn -0 1 0
vn -0 1 0
vn -0 -1 0
vn -0 -1 0
vn -0 -1 0
vn -0 -1 0
vn 0.00041961708 0 0.99999994
vn 0.00041961708 0 0.99999994
vn 0.00041961708 0 0.99999994
vn 0.00041961708 0 0.99999994
vn 0.00019168854 0 1
vn 0.00019168854 0 1
vn 0.00019168854 0 1
vn 0.00019168854 0 1
vn -0.00030708284 0 -1
vn -0.00030708284 0 -1
vn -0.00030708284 0 -1
vn -0.00030708284 0 -1
vn -0.00013446808 0 -1
vn -0.00013446808 0 -1
vn -0.00013446808 0 -1
vn -0.00013446808 0 -1
vn -0 1 0
vn -0 1 0
vn -0 1 0
vn -0 1 0
vn -0 -1 0
vn -0 -1 0
vn -0 -1 0
vn -0 -1 0
vn -0 1 0
vn -0 1 0
vn -0 1 0
vn -0 1 0
vn -0 -1 0
vn -0 -1 0
vn -0 -1 0
vn -0 -1 0
vn -1.3674906E-05 -0.9218357 0.3875808
vn -1.3674905E-05 -0.9218357 0.38758084
vn -1.3674906E-05 -0.9218357 0.3875808
vn -1.3674906E-05 -0.9218357 0.3875808
vn 0.9974419 0.071482286 3.5671306E-05
vn 0.99582064 0.08857383 0.010049829
vn 0.99582064 0.08857383 0.010049829
vn 0.99419934 0.10566537 0.020063987
vn 1.8963823E-05 -0.8478307 -0.53026694
vn 0.024496237 -0.84607446 -0.5319333
vn 0.024496237 -0.84607446 -0.5319333
vn 0.04897351 -0.84431815 -0.5335996
vn -0.9945078 -0.104662545 -3.6040587E-05
vn -0.99341047 -0.11388526 -0.0063219597
vn -0.99341047 -0.11388526 -0.0063219597
vn -0.9923132 -0.12310798 -0.012607879
vn -1.8816012E-05 0.8482068 0.52966523
vn -0.02440106 0.847742 0.52928555
vn -0.02440106 0.847742 0.52928555
vn -0.048783302 0.8472772 0.5289059
g pb_Mesh84878_0
f 3/3/3 2/2/2 1/1/1
f 3/3/3 1/1/1 4/4/4
f 7/7/7 6/6/6 5/5/5
f 6/6/6 8/8/8 5/5/5
f 11/11/11 10/10/10 9/9/9
f 11/11/11 9/9/9 12/12/12
f 15/15/15 14/14/14 13/13/13
f 15/15/15 13/13/13 16/16/16
f 5/5/5 8/8/8 17/17/17
f 8/8/8 18/18/18 17/17/17
f 17/17/17 18/18/18 19/19/19
f 18/18/18 20/20/20 19/19/19
f 23/23/23 22/22/22 21/21/21
f 23/23/23 21/21/21 24/24/24
f 27/27/27 26/26/26 25/25/25
f 26/26/26 28/28/28 25/25/25
f 31/31/31 30/30/30 29/29/29
f 32/32/32 31/31/31 29/29/29
f 35/35/35 34/34/34 33/33/33
f 35/35/35 36/36/36 34/34/34
f 39/39/39 38/38/38 37/37/37
f 37/37/37 38/38/38 40/40/40
f 39/39/39 30/30/30 38/38/38
f 29/29/29 30/30/30 39/39/39
f 43/43/43 42/42/42 41/41/41
f 41/41/41 42/42/42 44/44/44
f 44/44/44 36/36/36 35/35/35
f 42/42/42 36/36/36 44/44/44
f 47/47/47 46/46/46 45/45/45
f 47/47/47 45/45/45 48/48/48
f 51/51/51 50/50/50 49/49/49
f 51/51/51 49/49/49 52/52/52
f 55/55/55 54/54/54 53/53/53
f 54/54/54 56/56/56 53/53/53
f 59/59/59 58/58/58 57/57/57
f 58/58/58 60/60/60 57/57/57
f 63/63/63 62/62/62 61/61/61
f 63/63/63 64/64/64 62/62/62
f 61/61/61 30/30/30 31/31/31
f 61/61/61 62/62/62 30/30/30
f 67/67/67 66/66/66 65/65/65
f 68/68/68 67/67/67 65/65/65
f 36/36/36 67/67/67 68/68/68
f 34/34/34 36/36/36 68/68/68
f 69/69/69 40/40/40 38/38/38
f 69/69/69 70/70/70 40/40/40
f 71/71/71 70/70/70 69/69/69
f 71/71/71 72/72/72 70/70/70
f 64/64/64 69/69/69 62/62/62
f 64/64/64 71/71/71 69/69/69
f 62/62/62 38/38/38 30/30/30
f 62/62/62 69/69/69 38/38/38
f 75/75/75 74/74/74 73/73/73
f 76/76/76 75/75/75 73/73/73
f 43/43/43 75/75/75 76/76/76
f 42/42/42 43/43/43 76/76/76
f 76/76/76 73/73/73 66/66/66
f 67/67/67 76/76/76 66/66/66
f 79/79/79 78/78/78 77/77/77
f 80/80/80 79/79/79 77/77/77
f 83/83/83 82/82/82 81/81/81
f 83/83/83 84/84/84 82/82/82
f 87/87/87 86/86/86 85/85/85
f 87/87/87 88/88/88 86/86/86
f 91/91/91 90/90/90 89/89/89
f 91/91/91 92/92/92 90/90/90
f 95/95/95 94/94/94 93/93/93
f 95/95/95 96/96/96 94/94/94
