g pb_Mesh67684
v 1.25 -3.199741E-07 2.0207105
v -2.5 -3.199741E-07 2.0207105
v 1.25 0.25000086 2.1650443
v -2.5 0.25000086 2.1650443
v -2.5 -3.199741E-07 2.0207105
v -2.4999983 -4.276542E-07 -6.254488
v -2.5 0.25000086 2.1650443
v -2.499999 0.24999863 -6.3990455
v -2.4999983 -4.276542E-07 -6.254488
v 1.2500014 -7.9396193E-07 -6.171392
v -2.499999 0.24999863 -6.3990455
v 1.2500026 0.24999826 -6.31595
v 1.2500014 -7.9396193E-07 -6.171392
v 1.25 -3.199741E-07 2.0207105
v 1.2500026 0.24999826 -6.31595
v 1.25 0.25000086 2.1650443
v 1.25 0.25000086 2.1650443
v -2.5 0.25000086 2.1650443
v 1.2500026 0.24999826 -6.31595
v -2.499999 0.24999863 -6.3990455
v 1.2500014 -7.9396193E-07 -6.171392
v -2.4999983 -4.276542E-07 -6.254488
v 1.25 -3.199741E-07 2.0207105
v -2.5 -3.199741E-07 2.0207105
vt 1.25 1.0103317
vt -2.5 1.0103317
vt 1.25 1.299006
vt -2.5 1.299006
vt 2.020711 -6.110631E-07
vt -6.2544875 -7.187432E-07
vt 2.1650448 0.25000057
vt -6.399045 0.24999833
vt 2.6379433 3.1017609
vt -1.112977 3.1017604
vt 2.6411464 3.3905275
vt -1.1097758 3.3905272
vt 6.171392 5.040312E-06
vt -2.0207102 5.5142996E-06
vt 6.31595 0.25000408
vt -2.165044 0.2500067
vt -1.25 2.1650443
vt 2.5 2.1650443
vt -1.2500026 -6.31595
vt 2.499999 -6.3990455
vt 1.2500014 -6.171392
vt -2.4999983 -6.254488
vt 1.25 2.0207105
vt -2.5 2.0207105
vn -0 -0.49998856 0.86603206
vn -0 -0.49998856 0.86603206
vn -0 -0.49998856 0.86603206
vn -0 -0.49998856 0.86603206
vn -1 1.16435615E-07 -2.0167857E-07
vn -1 -1.404494E-06 -1.5651759E-07
vn -1 -1.404494E-06 -1.5651759E-07
vn -1 -2.9254236E-06 -1.11356584E-07
vn 0.019179301 -0.5004803 -0.8655355
vn 0.019179232 -0.500481 -0.8655351
vn 0.019179232 -0.500481 -0.8655351
vn 0.019179165 -0.5004817 -0.86553466
vn 1 -4.6674177E-06 1.7462106E-07
vn 1 -2.422974E-06 2.4192713E-07
vn 1 -2.422974E-06 2.4192713E-07
vn 1 -1.785304E-07 3.0923317E-07
vn -0 1 -3.074761E-07
vn 5.2562168E-08 1 -2.8423494E-07
vn 5.2562168E-08 1 -2.8423494E-07
vn 1.05124336E-07 1 -2.6099377E-07
vn -9.8964165E-08 -1 5.78591E-08
vn -4.9482082E-08 -1 3.5435743E-08
vn -4.9482082E-08 -1 3.5435743E-08
vn -0 -1 1.3012388E-08
g pb_Mesh67684_0
f 3/3/3 2/2/2 1/1/1
f 3/3/3 4/4/4 2/2/2
f 7/7/7 6/6/6 5/5/5
f 7/7/7 8/8/8 6/6/6
f 11/11/11 10/10/10 9/9/9
f 11/11/11 12/12/12 10/10/10
f 15/15/15 14/14/14 13/13/13
f 15/15/15 16/16/16 14/14/14
f 19/19/19 18/18/18 17/17/17
f 19/19/19 20/20/20 18/18/18
f 23/23/23 22/22/22 21/21/21
f 23/23/23 24/24/24 22/22/22
