g pb_Mesh97668
v 2 -10.0000105 9.999993
v -2 -10.0000105 9.999993
v 2 10 10.0000105
v -2 10 10.0000105
v -2 -10.0000105 9.999993
v -2 -10 -2.0000005
v -2 10 10.0000105
v -2 10.000003 -2.000001
v -2 -10 -2.0000005
v 2 -10 -2.0000005
v -2 10.000003 -2.000001
v 2 10.000003 -2.000001
v 2 -10 -2.0000005
v 2 -10.0000105 9.999993
v 2 10.000003 -2.000001
v 2 10 10.0000105
v 2 10 10.0000105
v -2 10 10.0000105
v 2 10.000003 -2.000001
v -2 10.000003 -2.000001
v 2 -10 -2.0000005
v -2 -10 -2.0000005
v 2 -10.0000105 9.999993
v -2 -10.0000105 9.999993
vt 2 -10.000002
vt -2 -10.000002
vt 2 10.000009
vt -2 10.000009
vt 9.999993 -10.0000105
vt -2.0000005 -10
vt 10.0000105 10
vt -2.000001 10.000003
vt 2 -10
vt -2 -10
vt 2 10.000003
vt -2 10.000003
vt 2.0000005 -10
vt -9.999993 -10.0000105
vt 2.000001 10.000003
vt -10.0000105 10
vt -2 10.000009
vt 2 10.000009
vt -2 -2.0000033
vt 2 -2.0000033
vt 2 -1.9999918
vt -2 -1.9999918
vt 2 10.000002
vt -2 10.000002
vn -0 -8.583064E-07 1
vn -0 -8.583064E-07 1
vn -0 -8.583064E-07 1
vn -0 -8.583064E-07 1
vn -1 0 0
vn -1 0 0
vn -1 0 0
vn -1 0 0
vn -0 -2.3841853E-08 -1
vn -0 -2.3841853E-08 -1
vn -0 -2.3841853E-08 -1
vn -0 -2.3841853E-08 -1
vn 1 0 0
vn 1 0 0
vn 1 0 0
vn 1 0 0
vn -0 1 2.3841835E-07
vn -0 1 2.3841835E-07
vn -0 1 2.3841835E-07
vn -0 1 2.3841835E-07
vn -0 -1 -8.742019E-07
vn -0 -1 -8.742019E-07
vn -0 -1 -8.742019E-07
vn -0 -1 -8.742019E-07
g pb_Mesh97668_0
f 3/3/3 2/2/2 1/1/1
f 3/3/3 4/4/4 2/2/2
f 7/7/7 6/6/6 5/5/5
f 7/7/7 8/8/8 6/6/6
f 11/11/11 10/10/10 9/9/9
f 11/11/11 12/12/12 10/10/10
f 15/15/15 14/14/14 13/13/13
f 15/15/15 16/16/16 14/14/14
f 19/19/19 18/18/18 17/17/17
f 19/19/19 20/20/20 18/18/18
f 23/23/23 22/22/22 21/21/21
f 23/23/23 24/24/24 22/22/22
