g pb_Mesh-111100
v -0.74999964 -3 0.24999985
v -0.99999964 -3 0.24999976
v -0.7500017 8 0.2500163
v -1.0000018 8 0.2500161
v -0.99999964 -3 0.24999976
v -0.9999995 -3 -2.3841858E-07
v -1.0000018 8 0.2500161
v -1.0000015 8 1.6093261E-05
v -0.9999995 -3 -2.3841858E-07
v -0.7499995 -3 -1.4901161E-07
v -1.0000015 8 1.6093261E-05
v -0.75000155 8 1.6286976E-05
v 1.0000005 -3 4.7683716E-07
v 1.0000004 -3 0.25000048
v 0.99999845 8 1.7642982E-05
v 0.9999983 8 0.25001764
v -0.7500017 8 0.2500163
v -1.0000018 8 0.2500161
v -0.75000155 8 1.6286976E-05
v -1.0000015 8 1.6093261E-05
v -0.7499995 -3 -1.4901161E-07
v -0.9999995 -3 -2.3841858E-07
v -0.74999964 -3 0.24999985
v -0.99999964 -3 0.24999976
v 0.7500005 -3 3.874302E-07
v 0.75000036 -3 0.2500004
v 1.0000005 -3 4.7683716E-07
v 1.0000004 -3 0.25000048
v 0.74999845 8 1.7449267E-05
v 0.7500005 -3 3.874302E-07
v 0.99999845 8 1.7642982E-05
v 1.0000005 -3 4.7683716E-07
v 0.75000036 -3 0.2500004
v 0.7499983 8 0.25001746
v 1.0000004 -3 0.25000048
v 0.9999983 8 0.25001764
v 0.7499983 8 0.25001746
v 0.74999845 8 1.7449267E-05
v 0.9999983 8 0.25001764
v 0.99999845 8 1.7642982E-05
v -0.74999964 -3 0.24999985
v -0.7500017 8 0.2500163
v -0.7499995 -3 -1.4901161E-07
v -0.75000155 8 1.6286976E-05
v 0.7499983 8 0.25001746
v 0.75000036 -3 0.2500004
v 0.74999845 8 1.7449267E-05
v 0.7500005 -3 3.874302E-07
v -0.7499996 -3 0.12499985
v -0.75000167 8 0.12501629
v 0.7500004 -3 0.12500039
v 0.74999833 8 0.12501745
vt -0.7499996 -2.9999995
vt -0.9999996 -2.9999995
vt -0.7500016 8
vt -1.0000017 8
vt -1.8749998 -2.9999998
vt -2.1249998 -2.9999998
vt -1.8749834 8
vt -2.1249833 8
vt 0.9999995 -3
vt 0.7499995 -3
vt 1.0000015 8
vt 0.75000155 8
vt 2.125 -3.0000002
vt 1.875 -3.0000002
vt 2.1249828 8
vt 1.8749828 8
vt 0.7500017 -1.8749837
vt 1.0000018 -1.8749839
vt 0.75000155 -2.1249838
vt 1.0000015 -2.1249838
vt -0.7499995 -2.1250002
vt -0.9999995 -2.1250002
vt -0.74999964 -1.8750001
vt -0.99999964 -1.8750002
vt 0.7500005 -2.1249995
vt 0.75000036 -1.8749996
vt 1.0000005 -2.1249995
vt 1.0000004 -1.8749995
vt -0.74999845 8
vt -0.7500005 -3
vt -0.99999845 8
vt -1.0000005 -3
vt 0.7500005 -2.9999995
vt 0.7499984 8
vt 1.0000005 -2.9999995
vt 0.9999984 8
vt -0.7499983 -1.8749826
vt -0.74999845 -2.1249826
vt -0.9999983 -1.8749824
vt -0.99999845 -2.1249824
vt 1.8749998 -2.9999998
vt 1.8749833 8
vt 2.1249998 -2.9999998
vt 2.1249833 8
vt -1.8749831 8
vt -1.8750001 -3.0000002
vt -2.124983 8
vt -2.1250002 -3.0000002
vt -0.7499995 -2.9999998
vt -0.7500016 8
vt 0.7500005 -2.9999998
vt 0.7499984 8
vn -3.5762787E-07 -1.4955348E-06 1
vn -5.9604633E-07 -1.4901161E-06 1
vn -5.9604633E-07 -1.4901161E-06 1
vn -8.344648E-07 -1.4846976E-06 1
vn -1 -1.9506905E-07 -4.7683716E-07
vn -1 -1.8965008E-07 -7.1525574E-07
vn -1 -1.8965008E-07 -7.1525574E-07
vn -1 -1.8423111E-07 -9.536743E-07
vn 3.5762787E-07 1.4846981E-06 -1
vn 5.662441E-07 1.4894395E-06 -1
vn 5.662441E-07 1.4894395E-06 -1
vn 7.748604E-07 1.4941809E-06 -1
vn 1 1.842318E-07 4.7683716E-07
vn 1 1.8694091E-07 5.9604645E-07
vn 1 1.8694091E-07 5.9604645E-07
vn 1 1.8965002E-07 7.1525574E-07
vn -0 1 0
vn -0 1 0
vn -0 1 0
vn -0 1 0
vn -0 -1 0
vn -0 -1 0
vn -0 -1 0
vn -0 -1 0
vn -0 -1 0
vn -0 -1 0
vn -0 -1 0
vn -0 -1 0
vn 7.748604E-07 1.5510763E-06 -1
vn 5.662441E-07 1.5558174E-06 -1
vn 5.662441E-07 1.5558174E-06 -1
vn 3.5762787E-07 1.5605586E-06 -1
vn -3.5762787E-07 -1.55243E-06 1
vn -5.364418E-07 -1.5564941E-06 1
vn -5.364418E-07 -1.5564941E-06 1
vn -7.1525574E-07 -1.5605582E-06 1
vn -0 1 0
vn -0 1 0
vn -0 1 0
vn -0 1 0
vn 1 1.8965044E-07 4.7683716E-07
vn 1 1.8694095E-07 5.9604645E-07
vn 1 1.8694095E-07 5.9604645E-07
vn 1 1.8423147E-07 7.1525574E-07
vn -1 -1.8965002E-07 -7.1525574E-07
vn -1 -1.8694091E-07 -5.9604645E-07
vn -1 -1.8694091E-07 -5.9604645E-07
vn -1 -1.842318E-07 -4.7683716E-07
vn -3.5762787E-07 -1.4941802E-06 1
vn -5.662441E-07 -1.5226278E-06 1
vn -5.662441E-07 -1.5226278E-06 1
vn -7.748604E-07 -1.5510756E-06 1
g pb_Mesh-111100_0
f 3/3/3 2/2/2 1/1/1
f 3/3/3 4/4/4 2/2/2
f 7/7/7 6/6/6 5/5/5
f 7/7/7 8/8/8 6/6/6
f 11/11/11 10/10/10 9/9/9
f 11/11/11 12/12/12 10/10/10
f 15/15/15 14/14/14 13/13/13
f 15/15/15 16/16/16 14/14/14
f 19/19/19 18/18/18 17/17/17
f 19/19/19 20/20/20 18/18/18
f 23/23/23 22/22/22 21/21/21
f 23/23/23 24/24/24 22/22/22
f 27/27/27 26/26/26 25/25/25
f 27/27/27 28/28/28 26/26/26
f 31/31/31 30/30/30 29/29/29
f 31/31/31 32/32/32 30/30/30
f 35/35/35 34/34/34 33/33/33
f 35/35/35 36/36/36 34/34/34
f 39/39/39 38/38/38 37/37/37
f 39/39/39 40/40/40 38/38/38
f 43/43/43 42/42/42 41/41/41
f 43/43/43 44/44/44 42/42/42
f 47/47/47 46/46/46 45/45/45
f 47/47/47 48/48/48 46/46/46
g pb_Mesh-111100_1
f 51/51/51 50/50/50 49/49/49
f 51/51/51 52/52/52 50/50/50
