g pb_Mesh68656
v -18 0 12
v -18 0 -4
v -18 3 12
v -18 3 -4
v -2 0 12
v -2 3 12
v 8 0 12
v 8 3 12
v -18 3 -12
v -18 0 -12
v -2 3 12
v -2 3 -4
v -2 6 12
v -2 6 -4
v 8 6 12
v -2 6 12
v -2 3 -4
v 8 3 -4
v -2 6 -4
v 8 6 -4
v -2 3 -4
v -2 3 12
v -2 9 -4
v -2 9 12
v -18 9 12
v -18 9 -4
v -2 3 -12
v -2 11 -12
v -2 11 -4
v -18 11 -4
v -18 11 -12
v -18 11 -20
v -18 3 -20
v -2 3 -20
v -2 11 -20
v -18 0 -20
v -2 0 -12
v -2 0 -20
v -18 11 -36
v -18 3 -36
v -2 3 -36
v -2 11 -36
v -18 0 -36
v -2 0 -36
v -2 17 -36
v -2 20 -20
v -2 26 -36
v -2 26 -20
v -18 17 -36
v -18 20 -20
v -18 26 -36
v -18 26 -20
v -2 23 -42
v -2 28 -44
v -18 28 -44
v -18 23 -42
v -2 30 -44
v -2 30 -36
v -0 32 -44
v -0 30 -36
v -0 32 -36
v -0 30 -44
v -18 30 -44
v -18 30 -36
v -18 32 -44
v -18 32 -36
v -2 30 -36
v -2 32 -36
v -0 30 -36
v -0 32 -36
v -2 32 -44
v -2 30 -44
v -0 32 -44
v -0 30 -44
v -2 30 -44
v -2 30 -36
v -0 30 -44
v -0 30 -36
v -10 0 12
v -10 3 12
v -10 3 -36
v -2 0 -36
v -2 3 -36
v -10 0 -36
v -10 9 12
v -2 9 12
v -10 9 -4
v -2 9 -4
v -10 3 -4
v -2 3 -4
v -10 3 -4
v -10 11 -4
v -2 11 -4
v -10 11 -36
v -2 11 -36
v -2 11 -20
v -10 11 -20
v -10 20 -20
v -2 20 -20
v -10 26 -20
v -2 26 -20
v -10 17 -36
v -2 17 -36
v -10 28 -44
v -2 23 -42
v -2 28 -44
v -10 23 -42
v -10 23 -42
v -2 17 -36
v -2 23 -42
v -10 17 -36
v -2 26 -36
v -10 26 -36
v -10 30 -36
v -10 32 -36
v -10 30 -44
v -2 28 -44
v -10 28 -44
v -10 32 -44
v -10 26 -36
v -10 26 -20
v -10 29 -36
v -10 29 -20
v -18 29 -20
v -18 29 -36
v -10 29 -18
v -10 26 -18
v -18 26 -14
v -18 29 -14
v -18 20 -14
v -10 20 -20
v -10 20 -18
v -18 11 -14
v -10 11 -20
v -10 11 -18
v -13 0 12
v -13 3 12
v -18 0 12
v -18 3 12
v -13 3 -36
v -13 0 -36
v -18 3 -36
v -18 0 -36
v -13 9 12
v -18 9 12
v -13 9 -4
v -13 3 -4
v -18 9 -4
v -18 3 -4
v -13 3 -4
v -13 11 -4
v -18 3 -4
v -18 11 -4
v -13 11 -36
v -18 11 -36
v -10 11 -18
v -13 11 -14
v -13 20 -14
v -10 20 -18
v -13 11 -14
v -18 11 -14
v -18 20 -14
v -13 20 -14
v -13 26 -14
v -10 26 -18
v -18 26 -14
v -13 26 -14
v -13 17 -36
v -18 17 -36
v -13 28 -44
v -13 23 -42
v -18 28 -44
v -18 23 -42
v -13 23 -42
v -13 17 -36
v -18 23 -42
v -18 17 -36
v -13 26 -36
v -13 30 -36
v -18 26 -36
v -18 30 -36
v -13 32 -36
v -18 32 -36
v -13 30 -44
v -13 28 -44
v -18 30 -44
v -18 28 -44
v -13 32 -44
v -18 32 -44
v -18 29 -36
v -13 26 -36
v -13 29 -36
v -18 26 -36
v -10 26 -36
v -10 29 -36
v -13 29 -14
v -10 29 -18
v -18 29 -14
v -13 29 -14
v -10 11 -18
v -13 11 -20
v -13 11 -14
v -10 11 -20
v -18 11 -20
v -18 11 -14
v 8 0 -4
v 8 0 12
v 8 3 -4
v 8 3 12
v -2 0 -4
v -2 0 12
v 8 0 -4
v 8 0 12
v -2 0 -20
v -2 0 -20
v 8 0 -20
v -2 0 -20
v 8 0 -20
v 8 0 -20
v -2 6 12
v -2 6 -4
v 8 6 12
v 8 6 -4
v 8 3 -4
v -2 3 -4
v 8 3 -12
v -2 3 -12
v -2 0 -12
v 8 0 -12
v 8 0 -12
v 8 3 -12
v 8 6 -4
v 8 6 12
v -2 3 -12
v -2 0 -12
v -2 0 -20
v -2 0 -12
v -2 0 -20
v -2 0 -20
v 8 3 -12
v -2 3 -12
v 8 0 -20
v -2 0 -20
v -2 0 -20
v 8 0 -20
v 8 3 -12
v 8 0 -20
v 8 3 -12
v 8 0 -20
v 8 0 -20
v -2 32 -36
v -2 32 -44
v -0 32 -36
v -0 32 -44
v -10 9 -4
v -2 9 -4
v -2 9 12
v -10 9 12
v -10 0 -4
v -10 0 12
v -10 11 -12
v -2 11 -12
v -2 11 -4
v -10 11 -4
v -10 0 -12
v -10 11 -20
v -2 11 -20
v -10 0 -20
v -10 26 -36
v -2 26 -36
v -2 26 -20
v -10 26 -20
v -10 0 -36
v -2 0 -36
v -10 32 -44
v -10 32 -36
v -18 9 -4
v -13 9 -4
v -13 9 12
v -18 9 12
v -13 0 12
v -18 0 -4
v -18 0 12
v -13 0 -4
v -18 11 -12
v -13 11 -12
v -13 11 -4
v -18 11 -4
v -18 0 -12
v -13 0 -12
v -18 11 -20
v -13 11 -20
v -18 0 -20
v -13 0 -20
v -18 29 -36
v -13 29 -36
v -13 29 -20
v -18 29 -20
v -10 29 -36
v -10 29 -20
v -18 0 -36
v -13 0 -36
v -18 32 -44
v -13 32 -44
v -13 32 -36
v -18 32 -36
v -13 29 -14
v -18 29 -14
v -10 29 -18
vt 12 0
vt -4 0
vt 12 3
vt -4 3
vt -2 0
vt -2 3
vt 8 0
vt 8 3
vt -12 3
vt -12 0
vt 12 3
vt -4 3
vt 12 6
vt -4 6
vt 8 6
vt -2 6
vt 2 3
vt -8 3
vt 2 6
vt -8 6
vt 4 3
vt -12 3
vt 4 9
vt -12 9
vt 12 9
vt -4 9
vt 12 3
vt 12 11
vt 4 11
vt -4 11
vt -12 11
vt -20 11
vt -20 3
vt 20 3
vt 20 11
vt -20 0
vt 12 0
vt 20 0
vt -36 11
vt -36 3
vt 36 3
vt 36 11
vt -36 0
vt 36 0
vt 36 17
vt 20 20
vt 36 26
vt 20 26
vt -36 17
vt -20 20
vt -36 26
vt -20 26
vt 42 23
vt 44 28
vt -44 28
vt -42 23
vt 44 30
vt 36 30
vt 44 32
vt 36 30
vt 36 32
vt 44 30
vt -44 30
vt -36 30
vt -44 32
vt -36 32
vt -2 30
vt -2 32
vt 0 30
vt 0 32
vt 2 32
vt 2 30
vt 0 32
vt 0 30
vt -2 -44
vt -2 -36
vt 0 -44
vt 0 -36
vt -10 0
vt -10 3
vt 10 3
vt 2 0
vt 2 3
vt 10 0
vt -10 9
vt -2 9
vt 10 9
vt 2 9
vt 10 3
vt -2 3
vt -10 3
vt -10 11
vt -2 11
vt 10 11
vt 2 11
vt -2 11
vt -10 11
vt -10 20
vt -2 20
vt -10 26
vt -2 26
vt 10 17
vt 2 17
vt 10 42.338535
vt 2 36.95337
vt 2 42.338535
vt 10 36.95337
vt 10 45.96194
vt 2 37.476658
vt 2 45.96194
vt 10 37.476658
vt -2 26
vt -10 26
vt -10 30
vt -10 32
vt 10 30
vt 2 28
vt 10 28
vt 10 32
vt 36 26
vt 20 26
vt 36 29
vt 20 29
vt -20 29
vt -36 29
vt 18 29
vt 18 26
vt -14 26
vt -14 29
vt -14 20
vt 20 20
vt 18 20
vt -14 11
vt 20 11
vt 18 11
vt -13 0
vt -13 3
vt -18 0
vt -18 3
vt 13 3
vt 13 0
vt 18 3
vt 18 0
vt -13 9
vt -18 9
vt 13 9
vt 13 3
vt 18 9
vt 18 3
vt -13 3
vt -13 11
vt -18 3
vt -18 11
vt 13 11
vt 18 11
vt -0.89442724 11
vt -5.3665633 11
vt -5.3665633 20
vt -0.89442724 20
vt -5.3665633 11
vt -9.838699 11
vt -9.838699 20
vt -5.3665633 20
vt -5.3665633 26
vt -0.89442724 26
vt -9.838699 26
vt -5.3665633 26
vt 13 17
vt 18 17
vt 13 42.338535
vt 13 36.95337
vt 18 42.338535
vt 18 36.95337
vt 13 45.96194
vt 13 37.476658
vt 18 45.96194
vt 18 37.476658
vt -13 26
vt -13 30
vt -18 26
vt -18 30
vt -13 32
vt -18 32
vt 13 30
vt 13 28
vt 18 30
vt 18 28
vt 13 32
vt 18 32
vt 18 29
vt 13 26
vt 13 29
vt 18 26
vt 10 26
vt 10 29
vt -5.3665633 29
vt -0.89442724 29
vt -9.838699 29
vt -5.3665633 29
vt -10 -18
vt -13 -20
vt -13 -14
vt -10 -20
vt -18 -20
vt -18 -14
vt 4 0
vt -12 0
vt 4 3
vt -12 3
vt -2 -4
vt -2 12
vt 8 -4
vt 8 12
vt 0 0
vt 0 0
vt 0 0
vt 0 0
vt 0 0
vt 0 0
vt 2 12
vt 2 -4
vt -8 12
vt -8 -4
vt -8 -4
vt 2 -4
vt -8 -12
vt 2 -12
vt -2 -12
vt 8 -12
vt 12 0
vt 12 3
vt 4 6
vt -12 6
vt -12 3
vt -12 0
vt -20 0
vt -12 0
vt -20 0
vt -20 0
vt -8 -10.18258
vt 2 -10.18258
vt -8 -18.726583
vt 2 -18.726583
vt -2 -20
vt 8 -20
vt 12 3
vt 20 0
vt 12 3
vt 20 0
vt 20 0
vt 2 -36
vt 2 -44
vt 0 -36
vt 0 -44
vt 10 -4
vt 2 -4
vt 2 12
vt 10 12
vt -10 -4
vt -10 12
vt 10 -12
vt 2 -12
vt 2 -4
vt 10 -4
vt -10 -12
vt 10 -20
vt 2 -20
vt -10 -20
vt 10 -36
vt 2 -36
vt 2 -20
vt 10 -20
vt -10 -36
vt -2 -36
vt 10 -44
vt 10 -36
vt 18 -4
vt 13 -4
vt 13 12
vt 18 12
vt -13 12
vt -18 -4
vt -18 12
vt -13 -4
vt 18 -12
vt 13 -12
vt 13 -4
vt 18 -4
vt -18 -12
vt -13 -12
vt 18 -20
vt 13 -20
vt -18 -20
vt -13 -20
vt 18 -36
vt 13 -36
vt 13 -20
vt 18 -20
vt 10 -36
vt 10 -20
vt -18 -36
vt -13 -36
vt 18 -44
vt 13 -44
vt 13 -36
vt 18 -36
vt 13 -14
vt 18 -14
vt 10 -18
vn -1 0 0
vn -1 0 0
vn -1 0 0
vn -1 0 0
vn -0 0 1
vn -0 0 1
vn -0 0 1
vn -0 0 1
vn -1 0 0
vn -1 0 0
vn -1 0 0
vn -1 0 0
vn -1 0 0
vn -1 0 0
vn -0 0 1
vn -0 0 1
vn -0 0 -1
vn -0 0 -1
vn -0 0 -1
vn -0 0 -1
vn 1 0 0
vn 1 0 0
vn 1 0 0
vn 1 0 0
vn -1 0 0
vn -1 0 0
vn 1 0 0
vn 1 0 0
vn 1 0 0
vn -1 0 0
vn -1 0 0
vn -1 0 0
vn -1 0 0
vn 1 0 0
vn 1 0 0
vn -1 0 0
vn 1 0 0
vn 1 0 0
vn -1 0 0
vn -1 0 0
vn 1 0 0
vn 1 0 0
vn -1 0 0
vn 1 0 0
vn 1 0 0
vn 1 0 0
vn 1 0 0
vn 1 0 0
vn -1 0 0
vn -1 0 0
vn -1 0 0
vn -1 0 0
vn 1 0 0
vn 1 0 0
vn -1 0 0
vn -1 0 0
vn 1 0 0
vn 1 0 0
vn 1 0 0
vn 1 0 0
vn 1 0 0
vn 1 0 0
vn -1 0 0
vn -1 0 0
vn -1 0 0
vn -1 0 0
vn -0 0 1
vn -0 0 1
vn -0 0 1
vn -0 0 1
vn -0 0 -1
vn -0 0 -1
vn -0 0 -1
vn -0 0 -1
vn -0 -1 0
vn -0 -1 0
vn -0 -1 0
vn -0 -1 0
vn -0 0 1
vn -0 0 1
vn -0 0 -1
vn -0 0 -1
vn -0 0 -1
vn -0 0 -1
vn -0 0 1
vn -0 0 1
vn -0 0 -1
vn -0 0 -1
vn -0 0 -1
vn -0 0 1
vn -0 0 1
vn -0 0 1
vn -0 0 1
vn -0 0 -1
vn -0 0 -1
vn -0 0 1
vn -0 0 1
vn -0 0 1
vn -0 0 1
vn -0 0 1
vn -0 0 1
vn -0 0 -1
vn -0 0 -1
vn -0 -0.37139067 -0.9284767
vn -0 -0.37139067 -0.9284767
vn -0 -0.37139067 -0.9284767
vn -0 -0.37139067 -0.9284767
vn -0 -0.70710677 -0.70710677
vn -0 -0.70710677 -0.70710677
vn -0 -0.70710677 -0.70710677
vn -0 -0.70710677 -0.70710677
vn -0 0 1
vn -0 0 1
vn -0 0 1
vn -0 0 1
vn -0 0 -1
vn -0 0 -1
vn -0 0 -1
vn -0 0 -1
vn 1 0 0
vn 1 0 0
vn 1 0 0
vn 1 0 0
vn -1 0 0
vn -1 0 0
vn 1 0 0
vn 1 0 0
vn -1 0 0
vn -1 0 0
vn -1 0 0
vn 1 0 0
vn 1 0 0
vn -1 0 0
vn 1 0 0
vn 1 0 0
vn -0 0 1
vn -0 0 1
vn -0 0 1
vn -0 0 1
vn -0 0 -1
vn -0 0 -1
vn -0 0 -1
vn -0 0 -1
vn -0 0 1
vn -0 0 1
vn -0 0 -1
vn -0 0 -1
vn -0 0 -1
vn -0 0 -1
vn -0 0 1
vn -0 0 1
vn -0 0 1
vn -0 0 1
vn -0 0 -1
vn -0 0 -1
vn 0.8 0 0.6
vn 0.8 0 0.6
vn 0.8 0 0.6
vn 0.8 0 0.6
vn -0 0 1
vn -0 0 1
vn -0 0 1
vn -0 0 1
vn 0.8 0 0.6
vn 0.8 0 0.6
vn -0 0 1
vn -0 0 1
vn -0 0 -1
vn -0 0 -1
vn -0 -0.37139067 -0.9284767
vn -0 -0.37139067 -0.9284767
vn -0 -0.3713907 -0.9284767
vn -0 -0.3713907 -0.9284767
vn -0 -0.70710677 -0.70710677
vn -0 -0.70710677 -0.70710677
vn -0 -0.70710677 -0.70710677
vn -0 -0.70710677 -0.70710677
vn -0 0 1
vn -0 0 1
vn -0 0 1
vn -0 0 1
vn -0 0 1
vn -0 0 1
vn -0 0 -1
vn -0 0 -1
vn -0 0 -1
vn -0 0 -1
vn -0 0 -1
vn -0 0 -1
vn -0 0 -1
vn -0 0 -1
vn -0 0 -1
vn -0 0 -1
vn -0 0 -1
vn -0 0 -1
vn 0.8 0 0.6
vn 0.8 0 0.6
vn -0 0 1
vn -0 0 1
vn -0 -1 0
vn -0 -1 0
vn -0 -1 0
vn -0 -1 0
vn -0 -1 0
vn -0 -1 0
vn 1 0 0
vn 1 0 0
vn 1 0 0
vn 1 0 0
vn -0 -1 0
vn -0 -1 0
vn -0 -1 0
vn -0 -1 0
vn -0 0 0
vn -0 0 0
vn -0 0 0
vn -0 0 0
vn -0 0 0
vn -0 0 0
vn -0 1 0
vn -0 1 0
vn -0 1 0
vn -0 1 0
vn -0 1 0
vn -0 1 0
vn -0 1 0
vn -0 1 0
vn -0 -1 0
vn -0 -1 0
vn 1 0 0
vn 1 0 0
vn 1 0 0
vn 1 0 0
vn -1 0 0
vn -0.5 0 0
vn -0.5 0 0
vn -0.5 0 0
vn -0 0 0
vn -0.5 0 0
vn -0 0.9363292 -0.35112345
vn -0 0.9363292 -0.35112345
vn -0 0.9363292 -0.35112345
vn -0 0.9363292 -0.35112345
vn -0 -1 0
vn -0 -1 0
vn 0.5 0 0
vn 0.5 0 0
vn 0.5 0 0
vn -0 0 0
vn 0.5 0 0
vn -0 1 0
vn -0 1 0
vn -0 1 0
vn -0 1 0
vn -0 1 0
vn -0 1 0
vn -0 1 0
vn -0 1 0
vn -0 -1 0
vn -0 -1 0
vn -0 1 0
vn -0 1 0
vn -0 1 0
vn -0 1 0
vn -0 -1 0
vn -0 1 0
vn -0 1 0
vn -0 -1 0
vn -0 1 0
vn -0 1 0
vn -0 1 0
vn -0 1 0
vn -0 -1 0
vn -0 -1 0
vn -0 1 0
vn -0 1 0
vn -0 1 0
vn -0 1 0
vn -0 1 0
vn -0 1 0
vn -0 -1 0
vn -0 -1 0
vn -0 -1 0
vn -0 -1 0
vn -0 1 0
vn -0 1 0
vn -0 1 0
vn -0 1 0
vn -0 -1 0
vn -0 -1 0
vn -0 1 0
vn -0 1 0
vn -0 -1 0
vn -0 -1 0
vn -0 1 0
vn -0 1 0
vn -0 1 0
vn -0 1 0
vn -0 1 0
vn -0 1 0
vn -0 -1 0
vn -0 -1 0
vn -0 1 0
vn -0 1 0
vn -0 1 0
vn -0 1 0
vn -0 1 0
vn -0 1 0
vn -0 1 0
g pb_Mesh68656_0
f 3/3/3 2/2/2 1/1/1
f 3/3/3 4/4/4 2/2/2
f 7/7/7 6/6/6 5/5/5
f 7/7/7 8/8/8 6/6/6
f 9/9/9 2/2/2 4/4/4
f 9/9/9 10/10/10 2/2/2
f 13/13/13 12/12/12 11/11/11
f 13/13/13 14/14/14 12/12/12
f 15/15/15 6/6/6 8/8/8
f 15/15/15 16/16/16 6/6/6
f 19/19/19 18/18/18 17/17/17
f 19/19/19 20/20/20 18/18/18
f 23/23/23 22/22/22 21/21/21
f 23/23/23 24/24/24 22/22/22
f 25/25/25 4/4/4 3/3/3
f 25/25/25 26/26/26 4/4/4
f 28/28/28 21/21/21 27/27/27
f 28/28/28 29/29/29 21/21/21
f 30/30/30 9/9/9 4/4/4
f 30/30/30 31/31/31 9/9/9
f 32/32/32 9/9/9 31/31/31
f 32/32/32 33/33/33 9/9/9
f 34/34/34 28/28/28 27/27/27
f 34/34/34 35/35/35 28/28/28
f 33/33/33 10/10/10 9/9/9
f 33/33/33 36/36/36 10/10/10
f 38/38/38 27/27/27 37/37/37
f 38/38/38 34/34/34 27/27/27
f 39/39/39 33/33/33 32/32/32
f 39/39/39 40/40/40 33/33/33
f 41/41/41 35/35/35 34/34/34
f 41/41/41 42/42/42 35/35/35
f 40/40/40 36/36/36 33/33/33
f 40/40/40 43/43/43 36/36/36
f 44/44/44 34/34/34 38/38/38
f 44/44/44 41/41/41 34/34/34
f 46/46/46 35/35/35 45/45/45
f 35/35/35 42/42/42 45/45/45
f 48/48/48 46/46/46 47/47/47
f 46/46/46 45/45/45 47/47/47
f 49/49/49 39/39/39 32/32/32
f 49/49/49 32/32/32 50/50/50
f 51/51/51 49/49/49 50/50/50
f 51/51/51 50/50/50 52/52/52
f 53/53/53 47/47/47 45/45/45
f 53/53/53 54/54/54 47/47/47
f 55/55/55 49/49/49 51/51/51
f 55/55/55 56/56/56 49/49/49
f 58/58/58 47/47/47 57/57/57
f 47/47/47 54/54/54 57/57/57
f 61/61/61 60/60/60 59/59/59
f 60/60/60 62/62/62 59/59/59
f 63/63/63 55/55/55 51/51/51
f 63/63/63 51/51/51 64/64/64
f 65/65/65 63/63/63 64/64/64
f 65/65/65 64/64/64 66/66/66
f 69/69/69 68/68/68 67/67/67
f 69/69/69 70/70/70 68/68/68
f 73/73/73 72/72/72 71/71/71
f 73/73/73 74/74/74 72/72/72
f 77/77/77 76/76/76 75/75/75
f 77/77/77 78/78/78 76/76/76
f 80/80/80 79/79/79 5/5/5
f 80/80/80 5/5/5 6/6/6
f 83/83/83 82/82/82 81/81/81
f 82/82/82 84/84/84 81/81/81
f 85/85/85 80/80/80 6/6/6
f 85/85/85 6/6/6 86/86/86
f 88/88/88 17/17/17 87/87/87
f 17/17/17 89/89/89 87/87/87
f 92/92/92 91/91/91 90/90/90
f 92/92/92 90/90/90 93/93/93
f 95/95/95 83/83/83 94/94/94
f 83/83/83 81/81/81 94/94/94
f 98/98/98 97/97/97 96/96/96
f 98/98/98 96/96/96 99/99/99
f 100/100/100 98/98/98 99/99/99
f 100/100/100 99/99/99 101/101/101
f 103/103/103 95/95/95 102/102/102
f 95/95/95 94/94/94 102/102/102
f 106/106/106 105/105/105 104/104/104
f 105/105/105 107/107/107 104/104/104
f 110/110/110 109/109/109 108/108/108
f 109/109/109 111/111/111 108/108/108
f 114/114/114 113/113/113 112/112/112
f 114/114/114 112/112/112 67/67/67
f 115/115/115 114/114/114 67/67/67
f 115/115/115 67/67/67 68/68/68
f 72/72/72 117/117/117 116/116/116
f 117/117/117 118/118/118 116/116/116
f 71/71/71 72/72/72 119/119/119
f 72/72/72 116/116/116 119/119/119
f 122/122/122 121/121/121 120/120/120
f 122/122/122 123/123/123 121/121/121
f 124/124/124 51/51/51 52/52/52
f 124/124/124 125/125/125 51/51/51
f 126/126/126 121/121/121 123/123/123
f 126/126/126 127/127/127 121/121/121
f 128/128/128 124/124/124 52/52/52
f 128/128/128 129/129/129 124/124/124
f 130/130/130 52/52/52 50/50/50
f 130/130/130 128/128/128 52/52/52
f 127/127/127 131/131/131 121/121/121
f 127/127/127 132/132/132 131/131/131
f 133/133/133 50/50/50 32/32/32
f 133/133/133 130/130/130 50/50/50
f 132/132/132 134/134/134 131/131/131
f 132/132/132 135/135/135 134/134/134
f 137/137/137 136/136/136 79/79/79
f 137/137/137 79/79/79 80/80/80
f 139/139/139 138/138/138 136/136/136
f 139/139/139 136/136/136 137/137/137
f 81/81/81 84/84/84 140/140/140
f 84/84/84 141/141/141 140/140/140
f 140/140/140 141/141/141 142/142/142
f 141/141/141 143/143/143 142/142/142
f 144/144/144 137/137/137 80/80/80
f 144/144/144 80/80/80 85/85/85
f 145/145/145 139/139/139 137/137/137
f 145/145/145 137/137/137 144/144/144
f 87/87/87 89/89/89 146/146/146
f 89/89/89 147/147/147 146/146/146
f 146/146/146 147/147/147 148/148/148
f 147/147/147 149/149/149 148/148/148
f 151/151/151 150/150/150 91/91/91
f 151/151/151 91/91/91 92/92/92
f 153/153/153 152/152/152 150/150/150
f 153/153/153 150/150/150 151/151/151
f 94/94/94 81/81/81 154/154/154
f 81/81/81 140/140/140 154/154/154
f 154/154/154 140/140/140 155/155/155
f 140/140/140 142/142/142 155/155/155
f 158/158/158 157/157/157 156/156/156
f 158/158/158 156/156/156 159/159/159
f 162/162/162 161/161/161 160/160/160
f 162/162/162 160/160/160 163/163/163
f 164/164/164 158/158/158 159/159/159
f 164/164/164 159/159/159 165/165/165
f 166/166/166 162/162/162 163/163/163
f 166/166/166 163/163/163 167/167/167
f 102/102/102 94/94/94 168/168/168
f 94/94/94 154/154/154 168/168/168
f 168/168/168 154/154/154 169/169/169
f 154/154/154 155/155/155 169/169/169
f 104/104/104 107/107/107 170/170/170
f 107/107/107 171/171/171 170/170/170
f 170/170/170 171/171/171 172/172/172
f 171/171/171 173/173/173 172/172/172
f 108/108/108 111/111/111 174/174/174
f 111/111/111 175/175/175 174/174/174
f 174/174/174 175/175/175 176/176/176
f 175/175/175 177/177/177 176/176/176
f 179/179/179 178/178/178 113/113/113
f 179/179/179 113/113/113 114/114/114
f 181/181/181 180/180/180 178/178/178
f 181/181/181 178/178/178 179/179/179
f 182/182/182 179/179/179 114/114/114
f 182/182/182 114/114/114 115/115/115
f 183/183/183 181/181/181 179/179/179
f 183/183/183 179/179/179 182/182/182
f 116/116/116 118/118/118 184/184/184
f 118/118/118 185/185/185 184/184/184
f 184/184/184 185/185/185 186/186/186
f 185/185/185 187/187/187 186/186/186
f 119/119/119 116/116/116 188/188/188
f 116/116/116 184/184/184 188/188/188
f 188/188/188 184/184/184 189/189/189
f 184/184/184 186/186/186 189/189/189
f 192/192/192 191/191/191 190/190/190
f 191/191/191 193/193/193 190/190/190
f 195/195/195 194/194/194 192/192/192
f 194/194/194 191/191/191 192/192/192
f 196/196/196 164/164/164 165/165/165
f 196/196/196 165/165/165 197/197/197
f 198/198/198 166/166/166 167/167/167
f 198/198/198 167/167/167 199/199/199
f 202/202/202 201/201/201 200/200/200
f 201/201/201 203/203/203 200/200/200
f 205/205/205 204/204/204 202/202/202
f 204/204/204 201/201/201 202/202/202
g pb_Mesh68656_1
f 208/208/208 207/207/207 206/206/206
f 208/208/208 209/209/209 207/207/207
f 212/212/212 211/211/211 210/210/210
f 212/212/212 213/213/213 211/211/211
f 216/216/216 215/215/215 214/214/214
f 219/219/219 218/218/218 217/217/217
f 222/222/222 221/221/221 220/220/220
f 222/222/222 223/223/223 221/221/221
f 226/226/226 225/225/225 224/224/224
f 226/226/226 227/227/227 225/225/225
f 228/228/228 212/212/212 210/210/210
f 228/228/228 229/229/229 212/212/212
f 230/230/230 208/208/208 206/206/206
f 230/230/230 231/231/231 208/208/208
f 232/232/232 209/209/209 208/208/208
f 232/232/232 233/233/233 209/209/209
f 236/236/236 235/235/235 234/234/234
f 239/239/239 238/238/238 237/237/237
f 242/242/242 241/241/241 240/240/240
f 242/242/242 243/243/243 241/241/241
f 244/244/244 229/229/229 228/228/228
f 244/244/244 245/245/245 229/229/229
f 247/247/247 246/246/246 230/230/230
f 250/250/250 249/249/249 248/248/248
f 253/253/253 252/252/252 251/251/251
f 253/253/253 254/254/254 252/252/252
f 257/257/257 256/256/256 255/255/255
f 257/257/257 255/255/255 258/258/258
f 260/260/260 259/259/259 211/211/211
f 259/259/259 210/210/210 211/211/211
f 263/263/263 262/262/262 261/261/261
f 263/263/263 261/261/261 264/264/264
f 259/259/259 265/265/265 210/210/210
f 265/265/265 228/228/228 210/210/210
f 262/262/262 267/267/267 266/266/266
f 262/262/262 266/266/266 261/261/261
f 265/265/265 268/268/268 228/228/228
f 268/268/268 244/244/244 228/228/228
f 271/271/271 270/270/270 269/269/269
f 271/271/271 269/269/269 272/272/272
f 268/268/268 273/273/273 244/244/244
f 273/273/273 274/274/274 244/244/244
f 251/251/251 252/252/252 275/275/275
f 251/251/251 275/275/275 276/276/276
f 279/279/279 278/278/278 277/277/277
f 279/279/279 277/277/277 280/280/280
f 258/258/258 255/255/255 278/278/278
f 258/258/258 278/278/278 279/279/279
f 283/283/283 282/282/282 281/281/281
f 282/282/282 284/284/284 281/281/281
f 281/281/281 284/284/284 260/260/260
f 284/284/284 259/259/259 260/260/260
f 287/287/287 286/286/286 285/285/285
f 287/287/287 285/285/285 288/288/288
f 264/264/264 261/261/261 286/286/286
f 264/264/264 286/286/286 287/287/287
f 282/282/282 289/289/289 284/284/284
f 289/289/289 290/290/290 284/284/284
f 284/284/284 290/290/290 259/259/259
f 290/290/290 265/265/265 259/259/259
f 286/286/286 292/292/292 291/291/291
f 286/286/286 291/291/291 285/285/285
f 261/261/261 266/266/266 292/292/292
f 261/261/261 292/292/292 286/286/286
f 289/289/289 293/293/293 290/290/290
f 293/293/293 294/294/294 290/290/290
f 290/290/290 294/294/294 265/265/265
f 294/294/294 268/268/268 265/265/265
f 297/297/297 296/296/296 295/295/295
f 297/297/297 295/295/295 298/298/298
f 300/300/300 299/299/299 296/296/296
f 300/300/300 296/296/296 297/297/297
f 293/293/293 301/301/301 294/294/294
f 301/301/301 302/302/302 294/294/294
f 294/294/294 302/302/302 268/268/268
f 302/302/302 273/273/273 268/268/268
f 305/305/305 304/304/304 303/303/303
f 305/305/305 303/303/303 306/306/306
f 276/276/276 275/275/275 304/304/304
f 276/276/276 304/304/304 305/305/305
f 307/307/307 297/297/297 298/298/298
f 307/307/307 298/298/298 308/308/308
f 309/309/309 300/300/300 297/297/297
f 309/309/309 297/297/297 307/307/307
