g pb_Mesh-172270
v -0.74999964 -3 0.24999985
v -0.99999964 -3 0.24999976
v -0.7499988 5 0.24999918
v -0.9999988 5 0.24999966
v -0.99999964 -3 0.24999976
v -0.9999995 -3 -2.3841858E-07
v -0.9999988 5 0.24999966
v -0.99999934 5 -3.428013E-07
v -0.9999995 -3 -2.3841858E-07
v -0.7499995 -3 -1.4901161E-07
v -0.99999934 5 -3.428013E-07
v -0.74999934 5 -8.270881E-07
v 1.0000005 -3 4.7683716E-07
v 1.0000004 -3 0.25000048
v 1.0000007 5 -4.0239865E-07
v 1.0000012 5 0.2499996
v -0.7499988 5 0.24999918
v -0.9999988 5 0.24999966
v -0.74999934 5 -8.270881E-07
v -0.99999934 5 -3.428013E-07
v -0.7499995 -3 -1.4901161E-07
v -0.9999995 -3 -2.3841858E-07
v -0.74999964 -3 0.24999985
v -0.99999964 -3 0.24999976
v 0.7500005 -3 3.874302E-07
v 0.75000036 -3 0.2500004
v 1.0000005 -3 4.7683716E-07
v 1.0000004 -3 0.25000048
v 0.7500007 5 8.1888174E-08
v 0.7500005 -3 3.874302E-07
v 1.0000007 5 -4.0239865E-07
v 1.0000005 -3 4.7683716E-07
v 0.75000036 -3 0.2500004
v 0.7500012 5 0.2500001
v 1.0000004 -3 0.25000048
v 1.0000012 5 0.2499996
v 0.7500012 5 0.2500001
v 0.7500007 5 8.1888174E-08
v 1.0000012 5 0.2499996
v 1.0000007 5 -4.0239865E-07
v -0.74999964 -3 0.24999985
v -0.7499988 5 0.24999918
v -0.7499995 -3 -1.4901161E-07
v -0.74999934 5 -8.270881E-07
v 0.7500012 5 0.2500001
v 0.75000036 -3 0.2500004
v 0.7500007 5 8.1888174E-08
v 0.7500005 -3 3.874302E-07
v -0.7499996 -3 0.12499985
v -0.74999905 5 0.12499917
v 0.7500004 -3 0.12500039
v 0.75000095 5 0.12500009
vt -0.7499996 -3
vt -0.9999996 -3
vt -0.74999875 5
vt -0.99999875 5
vt -1.8749998 -3
vt -2.1249998 -3
vt -1.8749999 5
vt -2.1249998 5
vt 0.9999995 -3
vt 0.7499995 -3
vt 0.99999934 5
vt 0.74999934 5
vt 2.125 -3
vt 1.875 -3
vt 2.125001 5
vt 1.8750008 5
vt 0.7499988 -1.8750008
vt 0.9999988 -1.8750004
vt 0.74999934 -2.1250007
vt 0.99999934 -2.1250002
vt -0.7499995 -2.1250002
vt -0.9999995 -2.1250002
vt -0.74999964 -1.8750001
vt -0.99999964 -1.8750002
vt 0.7500005 -2.1249995
vt 0.75000036 -1.8749996
vt 1.0000005 -2.1249995
vt 1.0000004 -1.8749995
vt -0.7500007 5
vt -0.7500005 -3
vt -1.0000007 5
vt -1.0000005 -3
vt 0.7500005 -3
vt 0.7500013 5
vt 1.0000005 -3
vt 1.0000013 5
vt -0.7500012 -1.8749999
vt -0.7500007 -2.125
vt -1.0000012 -1.8750004
vt -1.0000007 -2.1250005
vt 1.8749998 -3
vt 1.8750005 5
vt 2.1249998 -3
vt 2.1250005 5
vt -1.8749985 5
vt -1.8749982 -3
vt -2.1249986 5
vt -2.124998 -3
vt -0.7499995 -3
vt -0.749999 5
vt 0.7500005 -3
vt 0.750001 5
vn -3.5762787E-07 8.381907E-08 1
vn 7.748604E-07 4.8428692E-08 1
vn 7.748604E-07 4.8428692E-08 1
vn 1.9073486E-06 1.3038317E-08 1
vn -1 1.0430812E-07 -4.7683716E-07
vn -1 6.332995E-08 8.34465E-07
vn -1 6.332995E-08 8.34465E-07
vn -1 2.235177E-08 2.1457672E-06
vn 3.5762787E-07 -1.3047846E-08 -1
vn -7.897597E-07 -4.8903683E-08 -1
vn -7.897597E-07 -4.8903683E-08 -1
vn -1.9371473E-06 -8.475952E-08 -1
vn 1 -2.9802269E-08 4.7683716E-07
vn 1 -6.70553E-08 -7.1525574E-07
vn 1 -6.70553E-08 -7.1525574E-07
vn 1 -1.0430834E-07 -1.9073486E-06
vn -0 1 0
vn -0 1 0
vn -0 1 0
vn -0 1 0
vn -0 -1 0
vn -0 -1 0
vn -0 -1 0
vn -0 -1 0
vn -0 -1 0
vn -0 -1 0
vn -0 -1 0
vn -0 -1 0
vn -1.9371473E-06 -3.8192695E-08 -1
vn -7.897597E-07 -7.404859E-08 -1
vn -7.897597E-07 -7.404859E-08 -1
vn 3.5762787E-07 -1.0990449E-07 -1
vn -3.5762787E-07 3.725294E-08 1
vn 8.046627E-07 7.35744E-08 1
vn 8.046627E-07 7.35744E-08 1
vn 1.9669533E-06 1.0989586E-07 1
vn -0 1 0
vn -0 1 0
vn -0 1 0
vn -0 1 0
vn 1 -1.04308086E-07 4.7683716E-07
vn 1 -6.3330006E-08 -8.34465E-07
vn 1 -6.3330006E-08 -8.34465E-07
vn 1 -2.2351921E-08 -2.1457672E-06
vn -1 1.043082E-07 1.9073486E-06
vn -1 6.7055254E-08 7.1525574E-07
vn -1 6.7055254E-08 7.1525574E-07
vn -1 2.9802305E-08 -4.7683716E-07
vn -3.5762787E-07 8.475038E-08 1
vn -4.8428774E-07 6.100166E-08 1
vn -4.8428774E-07 6.100166E-08 1
vn -6.109476E-07 3.725294E-08 1
g pb_Mesh-172270_0
f 3/3/3 2/2/2 1/1/1
f 3/3/3 4/4/4 2/2/2
f 7/7/7 6/6/6 5/5/5
f 7/7/7 8/8/8 6/6/6
f 11/11/11 10/10/10 9/9/9
f 11/11/11 12/12/12 10/10/10
f 15/15/15 14/14/14 13/13/13
f 15/15/15 16/16/16 14/14/14
f 19/19/19 18/18/18 17/17/17
f 19/19/19 20/20/20 18/18/18
f 23/23/23 22/22/22 21/21/21
f 23/23/23 24/24/24 22/22/22
f 27/27/27 26/26/26 25/25/25
f 27/27/27 28/28/28 26/26/26
f 31/31/31 30/30/30 29/29/29
f 31/31/31 32/32/32 30/30/30
f 35/35/35 34/34/34 33/33/33
f 35/35/35 36/36/36 34/34/34
f 39/39/39 38/38/38 37/37/37
f 39/39/39 40/40/40 38/38/38
f 43/43/43 42/42/42 41/41/41
f 43/43/43 44/44/44 42/42/42
f 47/47/47 46/46/46 45/45/45
f 47/47/47 48/48/48 46/46/46
g pb_Mesh-172270_1
f 51/51/51 50/50/50 49/49/49
f 51/51/51 52/52/52 50/50/50
