g pb_Mesh-545568
v -0.75000054 -5.5 0.12500039
v -1.0000005 -5.5 0.1250003
v -0.74999946 5.5 0.12500039
v -0.99999964 5.5 0.12500045
v -1.0000005 -5.5 0.1250003
v -1.0000004 -5.5 -0.124999695
v -0.99999964 5.5 0.12500045
v -1.0000005 5.5 -0.12500016
v -1.0000004 -5.5 -0.124999695
v -0.7500004 -5.5 -0.124999605
v -1.0000005 5.5 -0.12500016
v -0.75000036 5.5 -0.12500022
v 0.9999996 -5.5 -0.12499898
v 0.99999946 -5.5 0.12500101
v 1.0000001 5.5 -0.12499888
v 0.99999934 5.5 0.12500086
v -0.74999946 5.5 0.12500039
v -0.99999964 5.5 0.12500045
v -0.75000036 5.5 -0.12500022
v -1.0000005 5.5 -0.12500016
v -0.7500004 -5.5 -0.124999605
v -1.0000004 -5.5 -0.124999695
v -0.75000054 -5.5 0.12500039
v -1.0000005 -5.5 0.1250003
v 0.7499996 -5.5 -0.12499907
v 0.74999946 -5.5 0.12500092
v 0.9999996 -5.5 -0.12499898
v 0.99999946 -5.5 0.12500101
v 0.74999994 5.5 -0.12499883
v 0.7499996 -5.5 -0.12499907
v 1.0000001 5.5 -0.12499888
v 0.9999996 -5.5 -0.12499898
v 0.74999946 -5.5 0.12500092
v 0.7499995 5.5 0.12500009
v 0.99999946 -5.5 0.12500101
v 0.99999934 5.5 0.12500086
v 0.7499995 5.5 0.12500009
v 0.74999994 5.5 -0.12499883
v 0.99999934 5.5 0.12500086
v 1.0000001 5.5 -0.12499888
v -0.75000054 -5.5 0.12500039
v -0.74999946 5.5 0.12500039
v -0.7500004 -5.5 -0.124999605
v -0.75000036 5.5 -0.12500022
v 0.7499995 5.5 0.12500009
v 0.74999946 -5.5 0.12500092
v 0.74999994 5.5 -0.12499883
v 0.7499996 -5.5 -0.12499907
v -0.7500005 -5.5 3.9488077E-07
v -0.7499999 5.5 8.940697E-08
v 0.7499995 -5.5 9.313226E-07
v 0.75000036 5.5 1.4826655E-06
vt -0.7500005 -5.5
vt -1.0000005 -5.5
vt -0.7499994 5.5
vt -0.9999996 5.5
vt -1.9999993 -5.5
vt -2.2499993 -5.5
vt -1.999999 5.5
vt -2.2499998 5.5
vt 1.0000004 -5.5
vt 0.7500005 -5.5
vt 1.0000005 5.5
vt 0.7500004 5.5
vt 2.2499995 -5.5
vt 1.9999995 -5.5
vt 2.2499993 5.5
vt 1.9999996 5.5
vt 0.74999946 -1.9999996
vt 0.99999964 -1.9999995
vt 0.75000036 -2.2500002
vt 1.0000005 -2.2500002
vt -0.7500004 -2.2499995
vt -1.0000004 -2.2499998
vt -0.75000054 -1.9999996
vt -1.0000005 -1.9999998
vt 0.7499996 -2.249999
vt 0.74999946 -1.999999
vt 0.9999996 -2.249999
vt 0.99999946 -1.999999
vt -0.74999994 5.5
vt -0.7499996 -5.5
vt -1.0000001 5.5
vt -0.9999996 -5.5
vt 0.7499995 -5.5
vt 0.7499996 5.5
vt 0.9999995 -5.5
vt 0.9999994 5.5
vt -0.7499995 -1.9999999
vt -0.74999994 -2.2499988
vt -0.99999934 -1.9999992
vt -1.0000001 -2.2499988
vt 1.9999993 -5.5
vt 1.9999993 5.5
vt 2.2499993 -5.5
vt 2.2499998 5.5
vt -2.0000012 5.5
vt -2.0000002 -5.5
vt -2.25 5.5
vt -2.2500002 -5.5
vt -0.7500005 -5.5
vt -0.7499999 5.5
vt 0.7499995 -5.5
vt 0.75000036 5.5
vn -3.5762795E-07 3.4881196E-14 1
vn -5.960477E-08 -6.7732473E-09 1
vn -5.960477E-08 -6.7732473E-09 1
vn 2.3841841E-07 -1.3546529E-08 1
vn -1 7.586046E-08 -4.7683716E-07
vn -1 3.25117E-08 1.4305073E-06
vn -1 3.25117E-08 1.4305073E-06
vn -1 -1.08370655E-08 3.3378517E-06
vn 3.5762795E-07 -4.2671505E-08 -1
vn 5.960475E-08 -4.9444758E-08 -1
vn 5.960475E-08 -4.9444758E-08 -1
vn -2.3841845E-07 -5.6218013E-08 -1
vn 1 -4.8767443E-08 4.7683716E-07
vn 1 -1.8965096E-08 1.7881409E-06
vn 1 -1.8965096E-08 1.7881409E-06
vn 1 1.083725E-08 3.0994447E-06
vn -0 1 0
vn -0 1 0
vn -0 1 0
vn -0 1 0
vn -0 -1 0
vn -0 -1 0
vn -0 -1 0
vn -0 -1 0
vn -0 -1 0
vn -0 -1 0
vn -0 -1 0
vn -0 -1 0
vn -2.0861611E-07 2.1674424E-08 -1
vn 7.450588E-08 1.523982E-08 -1
vn 7.450588E-08 1.523982E-08 -1
vn 3.5762787E-07 8.805214E-09 -1
vn -3.5762787E-07 7.5860456E-08 1
vn -1.7285357E-06 4.4703466E-08 1
vn -1.7285357E-06 4.4703466E-08 1
vn -3.0994436E-06 1.3546476E-08 1
vn -0 1 0
vn -0 1 0
vn -0 1 0
vn -0 1 0
vn 1 -9.753487E-08 4.7683716E-07
vn 1 -5.1476835E-08 -1.5497164E-06
vn 1 -5.1476835E-08 -1.5497164E-06
vn 1 -5.4187974E-09 -3.57627E-06
vn -1 5.4184777E-09 -1.6689373E-06
vn -1 1.8965057E-08 -1.0728872E-06
vn -1 1.8965057E-08 -1.0728872E-06
vn -1 3.2511636E-08 -4.7683716E-07
vn -3.5762787E-07 2.7770366E-08 1
vn -6.432334E-07 -1.11758265E-08 1
vn -6.432334E-07 -1.11758265E-08 1
vn -9.288389E-07 -5.012202E-08 1
g pb_Mesh-545568_0
f 3/3/3 2/2/2 1/1/1
f 3/3/3 4/4/4 2/2/2
f 7/7/7 6/6/6 5/5/5
f 7/7/7 8/8/8 6/6/6
f 11/11/11 10/10/10 9/9/9
f 11/11/11 12/12/12 10/10/10
f 15/15/15 14/14/14 13/13/13
f 15/15/15 16/16/16 14/14/14
f 19/19/19 18/18/18 17/17/17
f 19/19/19 20/20/20 18/18/18
f 23/23/23 22/22/22 21/21/21
f 23/23/23 24/24/24 22/22/22
f 27/27/27 26/26/26 25/25/25
f 27/27/27 28/28/28 26/26/26
f 31/31/31 30/30/30 29/29/29
f 31/31/31 32/32/32 30/30/30
f 35/35/35 34/34/34 33/33/33
f 35/35/35 36/36/36 34/34/34
f 39/39/39 38/38/38 37/37/37
f 39/39/39 40/40/40 38/38/38
f 43/43/43 42/42/42 41/41/41
f 43/43/43 44/44/44 42/42/42
f 47/47/47 46/46/46 45/45/45
f 47/47/47 48/48/48 46/46/46
g pb_Mesh-545568_1
f 51/51/51 50/50/50 49/49/49
f 51/51/51 52/52/52 50/50/50
