g pb_Mesh99084
v -4 2 -4
v -0 2 -4
v -0 2 0
v -4 2 0
v -8 2 -4
v -8 2 0
v -0 0 0
v -4 0 -4
v -4 0 0
v -0 0 -4
v -8 0 -4
v -8 0 0
v -8 0 0
v -8 0 -4
v -8.346275 1 -4.228737
v -8.346275 1 0.22873878
v -8.346275 1 0.22873878
v -8.346275 1 -4.228737
v -8 2 -4
v -8 2 0
v 0.34627533 1 -4.228737
v -0 0 0
v 0.34627533 1 0.22873878
v -0 0 -4
v -0 2 -4
v 0.34627533 1 0.22873878
v -0 2 0
v 0.34627533 1 -4.228737
v -0 0 0
v -4 0 0
v -4 1 0.22873878
v 0.34627533 1 0.22873878
v 0.34627533 1 0.22873878
v -4 1 0.22873878
v -4 2 0
v -0 2 0
v -8 0 0
v -8.346275 1 0.22873878
v -8.346275 1 0.22873878
v -8 2 0
v -8.346275 1 -4.228737
v -4 0 -4
v -4 1 -4.228737
v -8 0 -4
v -8 2 -4
v -4 1 -4.228737
v -4 2 -4
v -8.346275 1 -4.228737
v -0 0 -4
v 0.34627533 1 -4.228737
v 0.34627533 1 -4.228737
v -0 2 -4
vt 4 -4
vt 0 -4
vt 0 0
vt 4 0
vt 8 -4
vt 8 0
vt 0 0
vt -4 -4
vt -4 0
vt 0 -4
vt -8 -4
vt -8 0
vt 0 0
vt -4 0
vt -4.228737 1
vt 0.22873878 1
vt 0.22873878 1
vt -4.228737 1
vt -4 2
vt 0 2
vt 4.228737 1
vt 0 0
vt -0.22873878 1
vt 4 0
vt 4 2
vt -0.22873878 1
vt 0 2
vt 4.228737 1
vt 0 0
vt -4 0
vt -4 1
vt 0.34627533 1
vt 0.34627533 1
vt -4 1
vt -4 2
vt 0 2
vt -8 0
vt -8.346275 1
vt -8.346275 1
vt -8 2
vt 8.346275 1
vt 4 0
vt 4 1
vt 8 0
vt 8 2
vt 4 1
vt 4 2
vt 8.346275 1
vt 0 0
vt -0.34627533 1
vt -0.34627533 1
vt 0 2
vn -0 1 0
vn -0 1 0
vn -0 1 0
vn -0 1 0
vn -0 1 0
vn -0 1 0
vn -0 -1 0
vn -0 -1 0
vn -0 -1 0
vn -0 -1 0
vn -0 -1 0
vn -0 -1 0
vn -0.9449506 -0.32721308 0
vn -0.9449506 -0.32721308 0
vn -0.9449506 -0.32721308 0
vn -0.9449506 -0.32721308 0
vn -0.9449506 0.32721308 0
vn -0.9449506 0.32721308 0
vn -0.9449506 0.32721308 0
vn -0.9449506 0.32721308 0
vn 0.9449506 -0.32721308 0
vn 0.9449506 -0.32721308 0
vn 0.9449506 -0.32721308 0
vn 0.9449506 -0.32721308 0
vn 0.9449506 0.32721308 0
vn 0.9449506 0.32721308 0
vn 0.9449506 0.32721308 0
vn 0.9449506 0.32721308 0
vn -0 -0.22297984 0.97482306
vn -0 -0.22297984 0.97482306
vn -0 -0.22297984 0.97482306
vn -0 -0.22297984 0.97482306
vn -0 0.22297984 0.97482306
vn -0 0.22297984 0.97482306
vn -0 0.22297984 0.97482306
vn -0 0.22297984 0.97482306
vn -0 -0.22297984 0.97482306
vn -0 -0.22297984 0.97482306
vn -0 0.22297984 0.97482306
vn -0 0.22297984 0.97482306
vn -0 -0.22297809 -0.9748235
vn -0 -0.22297809 -0.9748235
vn -0 -0.22297809 -0.9748235
vn -0 -0.22297809 -0.9748235
vn -0 0.22297809 -0.9748235
vn -0 0.22297809 -0.9748235
vn -0 0.22297809 -0.9748235
vn -0 0.22297809 -0.9748235
vn -0 -0.22297809 -0.9748235
vn -0 -0.22297809 -0.9748235
vn -0 0.22297809 -0.9748235
vn -0 0.22297809 -0.9748235
g pb_Mesh99084_0
f 3/3/3 2/2/2 1/1/1
f 3/3/3 1/1/1 4/4/4
f 4/4/4 1/1/1 5/5/5
f 4/4/4 5/5/5 6/6/6
f 9/9/9 8/8/8 7/7/7
f 8/8/8 10/10/10 7/7/7
f 12/12/12 11/11/11 9/9/9
f 11/11/11 8/8/8 9/9/9
f 15/15/15 14/14/14 13/13/13
f 15/15/15 13/13/13 16/16/16
f 19/19/19 18/18/18 17/17/17
f 19/19/19 17/17/17 20/20/20
f 23/23/23 22/22/22 21/21/21
f 22/22/22 24/24/24 21/21/21
f 27/27/27 26/26/26 25/25/25
f 26/26/26 28/28/28 25/25/25
f 31/31/31 30/30/30 29/29/29
f 31/31/31 29/29/29 32/32/32
f 35/35/35 34/34/34 33/33/33
f 35/35/35 33/33/33 36/36/36
f 38/38/38 37/37/37 30/30/30
f 38/38/38 30/30/30 31/31/31
f 40/40/40 39/39/39 34/34/34
f 40/40/40 34/34/34 35/35/35
f 43/43/43 42/42/42 41/41/41
f 42/42/42 44/44/44 41/41/41
f 47/47/47 46/46/46 45/45/45
f 46/46/46 48/48/48 45/45/45
f 50/50/50 49/49/49 43/43/43
f 49/49/49 42/42/42 43/43/43
f 52/52/52 51/51/51 47/47/47
f 51/51/51 46/46/46 47/47/47
