g pb_Mesh-369452
v -0.75000006 -4 0.12499985
v -1.0000001 -4 0.12499976
v -0.75000006 4 0.1249997
v -1.0000001 4 0.1249996
v -1.0000001 -4 0.12499976
v -0.99999994 -4 -0.12500024
v -1.0000001 4 0.1249996
v -1 4 -0.12500042
v -0.99999994 -4 -0.12500024
v -0.74999994 -4 -0.12500015
v -1 4 -0.12500042
v -0.75 4 -0.12500031
v 1 -4 -0.12499952
v 0.99999994 -4 0.12500048
v 1 4 -0.12499958
v 0.99999994 4 0.12500042
v -0.75000006 4 0.1249997
v -1.0000001 4 0.1249996
v -0.75 4 -0.12500031
v -1 4 -0.12500042
v -0.74999994 -4 -0.12500015
v -0.99999994 -4 -0.12500024
v -0.75000006 -4 0.12499985
v -1.0000001 -4 0.12499976
v 0.75000006 -4 -0.12499961
v 0.74999994 -4 0.12500039
v 1 -4 -0.12499952
v 0.99999994 -4 0.12500048
v 0.7500001 4 -0.12499969
v 0.75000006 -4 -0.12499961
v 1 4 -0.12499958
v 1 -4 -0.12499952
v 0.74999994 -4 0.12500039
v 0.75 4 0.12500033
v 0.99999994 -4 0.12500048
v 0.99999994 4 0.12500042
v 0.75 4 0.12500033
v 0.7500001 4 -0.12499969
v 0.99999994 4 0.12500042
v 1 4 -0.12499958
v -0.75000006 -4 0.12499985
v -0.75000006 4 0.1249997
v -0.74999994 -4 -0.12500015
v -0.75 4 -0.12500031
v 0.75 4 0.12500033
v 0.74999994 -4 0.12500039
v 0.7500001 4 -0.12499969
v 0.75000006 -4 -0.12499961
v -0.75 -4 -1.4901161E-07
v -0.75 4 -3.054738E-07
v 0.75 -4 3.874302E-07
v 0.75000006 4 3.1292439E-07
vt -0.75 -4
vt -1.0000001 -4
vt -0.75 4
vt -1.0000001 4
vt -1.9999995 -4
vt -2.2499995 -4
vt -1.9999996 4
vt -2.2499998 4
vt 1 -4
vt 0.75 -4
vt 1 4
vt 0.75000006 4
vt 2.2499998 -4
vt 1.9999998 -4
vt 2.2499998 4
vt 1.9999998 4
vt 0.75000006 -2.0000002
vt 1.0000001 -2.0000005
vt 0.75 -2.2500002
vt 1 -2.2500005
vt -0.74999994 -2.2500002
vt -0.99999994 -2.2500002
vt -0.75000006 -2.0000002
vt -1.0000001 -2.0000002
vt 0.75000006 -2.2499995
vt 0.74999994 -1.9999996
vt 1 -2.2499995
vt 0.99999994 -1.9999995
vt -0.75000006 4
vt -0.75 -4
vt -0.99999994 4
vt -0.99999994 -4
vt 0.75 -4
vt 0.75000006 4
vt 1 -4
vt 1 4
vt -0.75 -1.9999996
vt -0.7500001 -2.2499998
vt -0.99999994 -1.9999995
vt -1 -2.2499995
vt 1.9999998 -4
vt 2 4
vt 2.2499998 -4
vt 2.25 4
vt -2 4
vt -2 -4
vt -2.25 4
vt -2.25 -4
vt -0.75 -4
vt -0.75 4
vt 0.75 -4
vt 0.75000006 4
vn -3.5762778E-07 1.8626451E-08 1
vn -3.874301E-07 1.9557774E-08 1
vn -3.874301E-07 1.9557774E-08 1
vn -4.1723243E-07 2.0489097E-08 1
vn -1 -1.4654944E-14 -7.1525574E-07
vn -1 -3.7253027E-09 -5.9604645E-07
vn -1 -3.7253027E-09 -5.9604645E-07
vn -1 -7.450591E-09 -4.7683716E-07
vn 3.5762787E-07 -2.2351738E-08 -1
vn 3.874302E-07 -2.1420416E-08 -1
vn 3.874302E-07 -2.1420416E-08 -1
vn 4.172325E-07 -2.0489093E-08 -1
vn 1 1.7763568E-15 2.3841858E-07
vn 1 1.7763568E-15 2.3841858E-07
vn 1 1.7763568E-15 2.3841858E-07
vn 1 1.7763568E-15 2.3841858E-07
vn -0 1 0
vn -0 1 0
vn -0 1 0
vn -0 1 0
vn -0 -1 0
vn -0 -1 0
vn -0 -1 0
vn -0 -1 0
vn -0 -1 0
vn -0 -1 0
vn -0 -1 0
vn -0 -1 0
vn 4.172327E-07 -9.313228E-09 -1
vn 3.8743033E-07 -8.381905E-09 -1
vn 3.8743033E-07 -8.381905E-09 -1
vn 3.5762795E-07 -7.450581E-09 -1
vn -3.5762787E-07 7.450583E-09 1
vn -3.5762793E-07 7.450582E-09 1
vn -3.5762793E-07 7.450582E-09 1
vn -3.5762795E-07 7.450581E-09 1
vn -0 1 0
vn -0 1 0
vn -0 1 0
vn -0 1 0
vn 1 8.881784E-15 4.7683716E-07
vn 1 3.725297E-09 3.5762787E-07
vn 1 3.725297E-09 3.5762787E-07
vn 1 7.450585E-09 2.3841858E-07
vn -1 7.450577E-09 -4.7683716E-07
vn -1 7.450577E-09 -4.7683716E-07
vn -1 7.450577E-09 -4.7683716E-07
vn -1 7.450577E-09 -4.7683716E-07
vn -3.5762787E-07 1.9557774E-08 1
vn -3.8494665E-07 1.44355E-08 1
vn -3.8494665E-07 1.44355E-08 1
vn -4.1226545E-07 9.313226E-09 1
g pb_Mesh-369452_0
f 3/3/3 2/2/2 1/1/1
f 3/3/3 4/4/4 2/2/2
f 7/7/7 6/6/6 5/5/5
f 7/7/7 8/8/8 6/6/6
f 11/11/11 10/10/10 9/9/9
f 11/11/11 12/12/12 10/10/10
f 15/15/15 14/14/14 13/13/13
f 15/15/15 16/16/16 14/14/14
f 19/19/19 18/18/18 17/17/17
f 19/19/19 20/20/20 18/18/18
f 23/23/23 22/22/22 21/21/21
f 23/23/23 24/24/24 22/22/22
f 27/27/27 26/26/26 25/25/25
f 27/27/27 28/28/28 26/26/26
f 31/31/31 30/30/30 29/29/29
f 31/31/31 32/32/32 30/30/30
f 35/35/35 34/34/34 33/33/33
f 35/35/35 36/36/36 34/34/34
f 39/39/39 38/38/38 37/37/37
f 39/39/39 40/40/40 38/38/38
f 43/43/43 42/42/42 41/41/41
f 43/43/43 44/44/44 42/42/42
f 47/47/47 46/46/46 45/45/45
f 47/47/47 48/48/48 46/46/46
g pb_Mesh-369452_1
f 51/51/51 50/50/50 49/49/49
f 51/51/51 52/52/52 50/50/50
