g pb_Mesh98456
v 2 0 0
v -0 0 0
v 2 3 0
v -0 3 0
v -0 0 -4
v 2 0 -4
v -0 3 -4
v 2 3 -4
v -0 3 0
v -0 0 0
v -0 3 4
v -0 0 4
v -4 0 0
v -4 3 0
v -4 0 4
v -4 3 4
v -4 0 0
v -4 0 -2
v -4 3 -2
v -4 3 0
v -4 0 -2
v -3 0 -3
v -3 3 -3
v -4 3 -2
v 2 3 -4
v 2 0 -2
v 2 3 -2
v 2 0 -4
v 2 0 0
v 2 3 0
v 2 0 -2
v -0 0 -4
v -0 0 -2
v 2 0 -4
v 2 0 0
v -0 0 0
v -0 0 8
v -4 0 8
v -4 3 8
v -0 3 8
v -4 0 8
v -5 0 7
v -5 3 7
v -4 3 8
v -2 3 -4
v -0 0 -4
v -0 3 -4
v -2 0 -4
v -3 3 -3
v -2 0 -4
v -2 3 -4
v -3 0 -3
v -0 0 4
v -2 0 0
v -2 0 4
v -4 0 0
v -4 0 4
v -4 0 -2
v -2 0 -2
v -3 0 -3
v -2 0 -4
v -0 0 8
v -4 0 8
v -0 3 8
v -0 0 8
v -5 0 7
v -4 0 4
v -4 3 4
v -5 0 7
v -5 3 7
v -0 3 -2
v 2 3 -2
v 2 3 0
v -0 3 0
v -0 3 -4
v 2 3 -4
v -4 3 0
v -2 3 0
v -2 3 4
v -4 3 4
v -0 3 4
v -3 3 -3
v -2 3 -4
v -2 3 -2
v -4 3 -2
v -5 3 7
v -4 3 8
v -0 3 8
vt 2 0
vt 0 0
vt 2 3
vt 0 3
vt 0 0
vt -2 0
vt 0 3
vt -2 3
vt 0 3
vt 0 0
vt -4 3
vt -4 0
vt 0 0
vt 0 3
vt 4 0
vt 4 3
vt 1.5307338 0
vt -0.31702518 0
vt -0.31702518 3
vt 1.5307338 3
vt -0.31702518 0
vt -1.6235881 0
vt -1.6235881 3
vt -0.31702518 3
vt 4 3
vt 2 0
vt 2 3
vt 4 0
vt 0 0
vt 0 3
vt 2 -2
vt 0 -4
vt 0 -2
vt 2 -4
vt 2 0
vt 0 0
vt 0 0
vt -4 0
vt -4 3
vt 0 3
vt 2.828427 0
vt 1.4142135 0
vt 1.4142135 3
vt 2.828427 3
vt 0.31702518 3
vt -1.5307338 0
vt -1.5307338 3
vt 0.31702518 0
vt 1.6235881 3
vt 0.31702518 0
vt 0.31702518 3
vt 1.6235881 0
vt 0 4
vt -2 0
vt -2 4
vt -4 0
vt -4 4
vt -4 -2
vt -2 -2
vt -3 -3
vt -2 -4
vt 0 8
vt -4 8
vt -8 3
vt -8 0
vt -5 7
vt 5.059644 0
vt 5.059644 3
vt 8.221922 0
vt 8.221922 3
vt 0 -2
vt -2 -2
vt -2 0
vt 0 0
vt 0 -4
vt -2 -4
vt 4 0
vt 2 0
vt 2 4
vt 4 4
vt 0 4
vt 3 -3
vt 2 -4
vt 2 -2
vt 4 -2
vt 5 7
vt 4 8
vt 0 8
vn -0 0 1
vn -0 0 1
vn -0 0 1
vn -0 0 1
vn -0 0 -1
vn -0 0 -1
vn -0 0 -1
vn -0 0 -1
vn 1 0 0
vn 1 0 0
vn 1 0 0
vn 1 0 0
vn -1 0 0
vn -1 0 0
vn -1 0 0
vn -1 0 0
vn -1 0 0
vn -1 0 0
vn -1 0 0
vn -1 0 0
vn -0.70710677 0 -0.70710677
vn -0.70710677 0 -0.70710677
vn -0.70710677 0 -0.70710677
vn -0.70710677 0 -0.70710677
vn 1 0 0
vn 1 0 0
vn 1 0 0
vn 1 0 0
vn 1 0 0
vn 1 0 0
vn -0 -1 0
vn -0 -1 0
vn -0 -1 0
vn -0 -1 0
vn -0 -1 0
vn -0 -1 0
vn -0 0 1
vn -0 0 1
vn -0 0 1
vn -0 0 1
vn -0.70710677 0 0.70710677
vn -0.70710677 0 0.70710677
vn -0.70710677 0 0.70710677
vn -0.70710677 0 0.70710677
vn -0 0 -1
vn -0 0 -1
vn -0 0 -1
vn -0 0 -1
vn -0.70710677 0 -0.70710677
vn -0.70710677 0 -0.70710677
vn -0.70710677 0 -0.70710677
vn -0.70710677 0 -0.70710677
vn -0 -1 0
vn -0 -1 0
vn -0 -1 0
vn -0 -1 0
vn -0 -1 0
vn -0 -1 0
vn -0 -1 0
vn -0 -1 0
vn -0 -1 0
vn -0 -1 0
vn -0 -1 0
vn 1 0 0
vn 1 0 0
vn -0 -1 0
vn -0.9486833 0 -0.31622776
vn -0.9486833 0 -0.31622776
vn -0.9486833 0 -0.31622776
vn -0.9486833 0 -0.31622776
vn -0 1 0
vn -0 1 0
vn -0 1 0
vn -0 1 0
vn -0 1 0
vn -0 1 0
vn -0 1 0
vn -0 1 0
vn -0 1 0
vn -0 1 0
vn -0 1 0
vn -0 1 0
vn -0 1 0
vn -0 1 0
vn -0 1 0
vn -0 1 0
vn -0 1 0
vn -0 1 0
g pb_Mesh98456_0
f 3/3/3 2/2/2 1/1/1
f 3/3/3 4/4/4 2/2/2
f 7/7/7 6/6/6 5/5/5
f 7/7/7 8/8/8 6/6/6
f 11/11/11 10/10/10 9/9/9
f 11/11/11 12/12/12 10/10/10
f 15/15/15 14/14/14 13/13/13
f 15/15/15 16/16/16 14/14/14
f 19/19/19 18/18/18 17/17/17
f 19/19/19 17/17/17 20/20/20
f 23/23/23 22/22/22 21/21/21
f 23/23/23 21/21/21 24/24/24
f 27/27/27 26/26/26 25/25/25
f 26/26/26 28/28/28 25/25/25
f 30/30/30 29/29/29 27/27/27
f 29/29/29 26/26/26 27/27/27
f 33/33/33 32/32/32 31/31/31
f 32/32/32 34/34/34 31/31/31
f 36/36/36 33/33/33 35/35/35
f 33/33/33 31/31/31 35/35/35
f 39/39/39 38/38/38 37/37/37
f 39/39/39 37/37/37 40/40/40
f 43/43/43 42/42/42 41/41/41
f 43/43/43 41/41/41 44/44/44
f 47/47/47 46/46/46 45/45/45
f 46/46/46 48/48/48 45/45/45
f 51/51/51 50/50/50 49/49/49
f 50/50/50 52/52/52 49/49/49
f 55/55/55 54/54/54 53/53/53
f 54/54/54 36/36/36 53/53/53
f 57/57/57 56/56/56 55/55/55
f 56/56/56 54/54/54 55/55/55
f 56/56/56 58/58/58 54/54/54
f 58/58/58 59/59/59 54/54/54
f 54/54/54 59/59/59 36/36/36
f 59/59/59 33/33/33 36/36/36
f 58/58/58 60/60/60 59/59/59
f 60/60/60 61/61/61 59/59/59
f 59/59/59 61/61/61 33/33/33
f 61/61/61 32/32/32 33/33/33
f 62/62/62 55/55/55 53/53/53
f 62/62/62 63/63/63 55/55/55
f 64/64/64 12/12/12 11/11/11
f 64/64/64 65/65/65 12/12/12
f 63/63/63 57/57/57 55/55/55
f 63/63/63 66/66/66 57/57/57
f 69/69/69 68/68/68 67/67/67
f 69/69/69 70/70/70 68/68/68
g pb_Mesh98456_1
f 73/73/73 72/72/72 71/71/71
f 73/73/73 71/71/71 74/74/74
f 72/72/72 76/76/76 75/75/75
f 72/72/72 75/75/75 71/71/71
f 79/79/79 78/78/78 77/77/77
f 79/79/79 77/77/77 80/80/80
f 81/81/81 74/74/74 78/78/78
f 81/81/81 78/78/78 79/79/79
f 84/84/84 83/83/83 82/82/82
f 84/84/84 82/82/82 85/85/85
f 71/71/71 75/75/75 83/83/83
f 71/71/71 83/83/83 84/84/84
f 78/78/78 84/84/84 85/85/85
f 78/78/78 85/85/85 77/77/77
f 74/74/74 71/71/71 84/84/84
f 74/74/74 84/84/84 78/78/78
f 86/86/86 79/79/79 80/80/80
f 86/86/86 87/87/87 79/79/79
f 87/87/87 81/81/81 79/79/79
f 87/87/87 88/88/88 81/81/81
