g pb_Mesh-81146
v -0.7499997 -3 0.124999836
v -0.9999997 -3 0.12499975
v -0.7499997 3 0.124999836
v -0.9999997 3 0.12499975
v -0.9999997 -3 0.12499975
v -0.9999996 -3 -0.12500025
v -0.9999997 3 0.12499975
v -0.9999996 3 -0.12500025
v -0.9999996 -3 -0.12500025
v -0.7499996 -3 -0.12500016
v -0.9999996 3 -0.12500025
v -0.7499996 3 -0.12500016
v 1.0000005 -3 -0.12499954
v 1.0000002 -3 0.12500046
v 1.0000005 3 -0.12499954
v 1.0000002 3 0.12500046
v -0.7499997 3 0.124999836
v -0.9999997 3 0.12499975
v -0.7499996 3 -0.12500016
v -0.9999996 3 -0.12500025
v -0.7499996 -3 -0.12500016
v -0.9999996 -3 -0.12500025
v -0.7499997 -3 0.124999836
v -0.9999997 -3 0.12499975
v 0.7500004 -3 -0.12499963
v 0.7500003 -3 0.12500037
v 1.0000005 -3 -0.12499954
v 1.0000002 -3 0.12500046
v 0.7500004 3 -0.12499963
v 0.7500004 -3 -0.12499963
v 1.0000005 3 -0.12499954
v 1.0000005 -3 -0.12499954
v 0.7500003 -3 0.12500037
v 0.7500003 3 0.12500037
v 1.0000002 -3 0.12500046
v 1.0000002 3 0.12500046
v 0.7500003 3 0.12500037
v 0.7500004 3 -0.12499963
v 1.0000002 3 0.12500046
v 1.0000005 3 -0.12499954
v -0.7499997 -3 0.124999836
v -0.7499997 3 0.124999836
v -0.7499996 -3 -0.12500016
v -0.7499996 3 -0.12500016
v 0.7500003 3 0.12500037
v 0.7500003 -3 0.12500037
v 0.7500004 3 -0.12499963
v 0.7500004 -3 -0.12499963
v -0.74999964 -3 -1.6391277E-07
v -0.74999964 3 -1.6391277E-07
v 0.75000036 -3 3.7252903E-07
v 0.75000036 3 3.7252903E-07
vt -0.74999964 -3
vt -0.99999964 -3
vt -0.74999964 3
vt -0.99999964 3
vt -1.9999998 -3
vt -2.2499998 -3
vt -1.9999998 3
vt -2.2499998 3
vt 0.99999964 -3
vt 0.74999964 -3
vt 0.99999964 3
vt 0.74999964 3
vt 2.2500005 -3
vt 2.0000005 -3
vt 2.2500005 3
vt 2.0000005 3
vt 0.7499997 -2.0000002
vt 0.9999997 -2.0000002
vt 0.7499996 -2.2500002
vt 0.9999996 -2.2500002
vt -0.7499996 -2.2500002
vt -0.9999996 -2.2500002
vt -0.7499997 -2.0000002
vt -0.9999997 -2.0000002
vt 0.7500004 -2.2499995
vt 0.7500003 -1.9999996
vt 1.0000005 -2.2499995
vt 1.0000002 -1.9999995
vt -0.75000036 3
vt -0.75000036 -3
vt -1.0000005 3
vt -1.0000005 -3
vt 0.75000036 -3
vt 0.75000036 3
vt 1.0000002 -3
vt 1.0000002 3
vt -0.7500003 -1.9999996
vt -0.7500004 -2.2499995
vt -1.0000002 -1.9999995
vt -1.0000005 -2.2499995
vt 1.9999998 -3
vt 1.9999998 3
vt 2.2499998 -3
vt 2.2499998 3
vt -2 3
vt -2 -3
vt -2.25 3
vt -2.25 -3
vt -0.74999964 -3
vt -0.74999964 3
vt 0.75000036 -3
vt 0.75000036 3
vn -3.5762787E-07 0 1
vn -3.5762787E-07 0 1
vn -3.5762787E-07 0 1
vn -3.5762787E-07 0 1
vn -1 0 -4.7683716E-07
vn -1 0 -4.7683716E-07
vn -1 0 -4.7683716E-07
vn -1 0 -4.7683716E-07
vn 3.5762787E-07 0 -1
vn 3.5762787E-07 0 -1
vn 3.5762787E-07 0 -1
vn 3.5762787E-07 0 -1
vn 1 0 9.536743E-07
vn 1 0 9.536743E-07
vn 1 0 9.536743E-07
vn 1 0 9.536743E-07
vn -0 1 0
vn -0 1 0
vn -0 1 0
vn -0 1 0
vn -0 -1 0
vn -0 -1 0
vn -0 -1 0
vn -0 -1 0
vn -0 -1 0
vn -0 -1 0
vn -0 -1 0
vn -0 -1 0
vn 3.5762778E-07 0 -1
vn 3.5762778E-07 0 -1
vn 3.5762778E-07 0 -1
vn 3.5762778E-07 0 -1
vn -3.5762795E-07 0 1
vn -3.5762795E-07 0 1
vn -3.5762795E-07 0 1
vn -3.5762795E-07 0 1
vn -0 1 0
vn -0 1 0
vn -0 1 0
vn -0 1 0
vn 1 0 4.7683716E-07
vn 1 0 4.7683716E-07
vn 1 0 4.7683716E-07
vn 1 0 4.7683716E-07
vn -1 0 -4.7683716E-07
vn -1 0 -4.7683716E-07
vn -1 0 -4.7683716E-07
vn -1 0 -4.7683716E-07
vn -3.5762787E-07 0 1
vn -3.5762787E-07 0 1
vn -3.5762787E-07 0 1
vn -3.5762787E-07 0 1
g pb_Mesh-81146_0
f 3/3/3 2/2/2 1/1/1
f 3/3/3 4/4/4 2/2/2
f 7/7/7 6/6/6 5/5/5
f 7/7/7 8/8/8 6/6/6
f 11/11/11 10/10/10 9/9/9
f 11/11/11 12/12/12 10/10/10
f 15/15/15 14/14/14 13/13/13
f 15/15/15 16/16/16 14/14/14
f 19/19/19 18/18/18 17/17/17
f 19/19/19 20/20/20 18/18/18
f 23/23/23 22/22/22 21/21/21
f 23/23/23 24/24/24 22/22/22
f 27/27/27 26/26/26 25/25/25
f 27/27/27 28/28/28 26/26/26
f 31/31/31 30/30/30 29/29/29
f 31/31/31 32/32/32 30/30/30
f 35/35/35 34/34/34 33/33/33
f 35/35/35 36/36/36 34/34/34
f 39/39/39 38/38/38 37/37/37
f 39/39/39 40/40/40 38/38/38
f 43/43/43 42/42/42 41/41/41
f 43/43/43 44/44/44 42/42/42
f 47/47/47 46/46/46 45/45/45
f 47/47/47 48/48/48 46/46/46
g pb_Mesh-81146_1
f 51/51/51 50/50/50 49/49/49
f 51/51/51 52/52/52 50/50/50
