g pb_Mesh-109994
v -0.74999964 -3 0.24999985
v -0.99999964 -3 0.24999976
v -0.75000876 5 0.25000092
v -1.0000088 5 0.25000027
v -0.99999964 -3 0.24999976
v -0.9999995 -3 -2.3841858E-07
v -1.0000088 5 0.25000027
v -1.0000005 5 2.7462374E-07
v -0.9999995 -3 -2.3841858E-07
v -0.7499995 -3 -1.4901161E-07
v -1.0000005 5 2.7462374E-07
v -0.7500005 5 9.3027484E-07
v 1.0000005 -3 4.7683716E-07
v 1.0000004 -3 0.25000048
v 0.9999995 5 5.5198325E-06
v 0.99999124 5 0.2500055
v -0.75000876 5 0.25000092
v -1.0000088 5 0.25000027
v -0.7500005 5 9.3027484E-07
v -1.0000005 5 2.7462374E-07
v -0.7499995 -3 -1.4901161E-07
v -0.9999995 -3 -2.3841858E-07
v -0.74999964 -3 0.24999985
v -0.99999964 -3 0.24999976
v 0.7500005 -3 3.874302E-07
v 0.75000036 -3 0.2500004
v 1.0000005 -3 4.7683716E-07
v 1.0000004 -3 0.25000048
v 0.7499995 5 4.8641814E-06
v 0.7500005 -3 3.874302E-07
v 0.9999995 5 5.5198325E-06
v 1.0000005 -3 4.7683716E-07
v 0.75000036 -3 0.2500004
v 0.74999124 5 0.25000486
v 1.0000004 -3 0.25000048
v 0.99999124 5 0.2500055
v 0.74999124 5 0.25000486
v 0.7499995 5 4.8641814E-06
v 0.99999124 5 0.2500055
v 0.9999995 5 5.5198325E-06
v -0.74999964 -3 0.24999985
v -0.75000876 5 0.25000092
v -0.7499995 -3 -1.4901161E-07
v -0.7500005 5 9.3027484E-07
v 0.74999124 5 0.25000486
v 0.75000036 -3 0.2500004
v 0.7499995 5 4.8641814E-06
v 0.7500005 -3 3.874302E-07
v -0.7499996 -3 0.12499985
v -0.75000465 5 0.12500092
v 0.7500004 -3 0.12500039
v 0.7499954 5 0.12500486
vt -0.7499996 -3
vt -0.9999996 -3
vt -0.75000864 5
vt -1.0000087 5
vt -1.8749998 -2.9999988
vt -2.1249998 -2.9999988
vt -1.8749993 5.000001
vt -2.1249993 5.000001
vt 0.9999995 -3
vt 0.7499995 -3
vt 1.0000005 5
vt 0.7500005 5
vt 2.125 -3
vt 1.875 -3
vt 2.124995 5
vt 1.874995 5
vt 0.75000876 -1.874999
vt 1.0000088 -1.8749998
vt 0.7500005 -2.124999
vt 1.0000005 -2.1249998
vt -0.7499995 -2.1250002
vt -0.9999995 -2.1250002
vt -0.74999964 -1.8750001
vt -0.99999964 -1.8750002
vt 0.7500005 -2.1249995
vt 0.75000036 -1.8749996
vt 1.0000005 -2.1249995
vt 1.0000004 -1.8749995
vt -0.7499995 5
vt -0.7500005 -3
vt -0.9999995 5
vt -1.0000005 -3
vt 0.7500005 -2.9999998
vt 0.74999136 5
vt 1.0000005 -2.9999998
vt 0.99999136 5
vt -0.74999124 -1.8749951
vt -0.7499995 -2.1249952
vt -0.99999124 -1.8749945
vt -0.9999995 -2.1249945
vt 1.8749998 -2.999999
vt 1.8749987 5.000001
vt 2.1249998 -2.999999
vt 2.1249988 5.000001
vt -1.87502 4.999999
vt -1.8750244 -3.000001
vt -2.12502 4.999999
vt -2.1250246 -3.000001
vt -0.7499995 -3
vt -0.7500046 5
vt 0.7500005 -3
vt 0.74999547 5
vn -3.5762787E-07 -1.3411086E-07 1
vn -1.4901158E-06 -9.8721905E-08 1
vn -1.4901158E-06 -9.8721905E-08 1
vn -2.6226037E-06 -6.333295E-08 1
vn -1 -1.1473894E-06 -4.7683716E-07
vn -1 -6.3329827E-07 -1.692772E-05
vn -1 -6.3329827E-07 -1.692772E-05
vn -1 -1.19207144E-07 -3.33786E-05
vn 3.5762787E-07 6.413033E-08 -1
vn 1.4901161E-06 9.9520726E-08 -1
vn 1.4901161E-06 9.9520726E-08 -1
vn 2.6226044E-06 1.3491112E-07 -1
vn 1 1.1920899E-07 4.7683716E-07
vn 1 6.2956343E-07 1.680851E-05
vn 1 6.2956343E-07 1.680851E-05
vn 1 1.1399179E-06 3.3140182E-05
vn -0 1 0
vn -0 1 0
vn -0 1 0
vn -0 1 0
vn -0 -1 0
vn -0 -1 0
vn -0 -1 0
vn -0 -1 0
vn -0 -1 0
vn -0 -1 0
vn -0 -1 0
vn -0 -1 0
vn 2.6226044E-06 5.5959424E-07 -1
vn 1.4901161E-06 5.949844E-07 -1
vn 1.4901161E-06 5.949844E-07 -1
vn 3.5762787E-07 6.303745E-07 -1
vn -3.5762787E-07 -5.5879394E-07 1
vn -1.4901161E-06 -5.941855E-07 1
vn -1.4901161E-06 -5.941855E-07 1
vn -2.6226044E-06 -6.295771E-07 1
vn -0 1 0
vn -0 1 0
vn -0 1 0
vn -0 1 0
vn 1 1.1399387E-06 4.7683716E-07
vn 1 6.295718E-07 1.680851E-05
vn 1 6.295718E-07 1.680851E-05
vn 1 1.1920484E-07 3.3140182E-05
vn -1 -1.1399203E-06 -3.3140182E-05
vn -1 -6.295647E-07 -1.680851E-05
vn -1 -6.295647E-07 -1.680851E-05
vn -1 -1.1920902E-07 -4.7683716E-07
vn -3.5762787E-07 -1.3411068E-07 1
vn -1.4901161E-06 -3.4645294E-07 1
vn -1.4901161E-06 -3.4645294E-07 1
vn -2.6226044E-06 -5.587952E-07 1
g pb_Mesh-109994_0
f 3/3/3 2/2/2 1/1/1
f 3/3/3 4/4/4 2/2/2
f 7/7/7 6/6/6 5/5/5
f 7/7/7 8/8/8 6/6/6
f 11/11/11 10/10/10 9/9/9
f 11/11/11 12/12/12 10/10/10
f 15/15/15 14/14/14 13/13/13
f 15/15/15 16/16/16 14/14/14
f 19/19/19 18/18/18 17/17/17
f 19/19/19 20/20/20 18/18/18
f 23/23/23 22/22/22 21/21/21
f 23/23/23 24/24/24 22/22/22
f 27/27/27 26/26/26 25/25/25
f 27/27/27 28/28/28 26/26/26
f 31/31/31 30/30/30 29/29/29
f 31/31/31 32/32/32 30/30/30
f 35/35/35 34/34/34 33/33/33
f 35/35/35 36/36/36 34/34/34
f 39/39/39 38/38/38 37/37/37
f 39/39/39 40/40/40 38/38/38
f 43/43/43 42/42/42 41/41/41
f 43/43/43 44/44/44 42/42/42
f 47/47/47 46/46/46 45/45/45
f 47/47/47 48/48/48 46/46/46
g pb_Mesh-109994_1
f 51/51/51 50/50/50 49/49/49
f 51/51/51 52/52/52 50/50/50
