g pb_Mesh79884
v -6 -24 -37
v 10 -24 -37
v 10 -24 -29
v -6 -24 -29
v -6 -24 -48
v 10 -24 -48
v 10 -24 -37.1
v -6 -24 -37.1
v 10 -24 -10
v -6 -24 -10
v 10 -24 6
v -6 -24 6
v 32 -24 -37
v 32 -24 -29
v 48 -24 -37
v 48 -24 -29
v 32 -24 -48
v 32 -24 -37.1
v 48 -24 -48
v 48 -24 -37.1
v 32 -24 -10
v 48 -24 -10
v 32 -24 6
v 48 -24 6
v 32 -24 -48
v 32 -36 -48
v 48 -36 -48
v 48 -24 -48
v 48 -24 -48
v 48 -36 -48
v 48 -24 -37.1
v 48 -36 -37.1
v 48 -24 -37
v 48 -36 -37
v 48 -24 -29
v 48 -36 -29
v 48 -36 -10
v 48 -24 -10
v 48 -36 6
v 48 -24 6
v -6 -24 6
v -6 -36 6
v -6 -24 -10
v -6 -36 -10
v 48 -24 6
v 48 -36 6
v 32 -24 6
v 32 -36 6
v 10 -36 6
v 10 -24 6
v -6 -24 -48
v -6 -36 -48
v 10 -24 -48
v 10 -36 -48
v -6 -36 6
v -6 -24 6
v -6 -24 -29
v -6 -36 -29
v -6 -36 -37
v -6 -24 -37
v -6 -36 -37.1
v -6 -24 -37.1
v -6 -36 -48
v -6 -24 -48
v -6 -36 -29
v 32 -36 6
v 48 -36 6
v 48 -36 -10
v 48 -36 -29
v 48 -36 -37
v 32 -36 -48
v 48 -36 -37.1
v 48 -36 -48
v -6 -36 -37
v 10 -36 -48
v -6 -36 -37.1
v -6 -36 -48
v 10 -36 6
v -6 -36 -10
v -6 -36 6
vt 6 -37
vt -10 -37
vt -10 -29
vt 6 -29
vt 6 -48
vt -10 -48
vt -10 -37.1
vt 6 -37.1
vt -10 -10
vt 6 -10
vt -10 6
vt 6 6
vt -32 -37
vt -32 -29
vt -48 -37
vt -48 -29
vt -32 -48
vt -32 -37.1
vt -48 -48
vt -48 -37.1
vt -32 -10
vt -48 -10
vt -32 6
vt -48 6
vt -32 -24
vt -32 -36
vt -48 -36
vt -48 -24
vt 48 -24
vt 48 -36
vt 37.1 -24
vt 37.1 -36
vt 37 -24
vt 37 -36
vt 29 -24
vt 29 -36
vt 10 -36
vt 10 -24
vt -6 -36
vt -6 -24
vt 6 -24
vt 6 -36
vt -10 -24
vt -10 -36
vt 48 -24
vt 48 -36
vt 32 -24
vt 32 -36
vt 10 -36
vt 10 -24
vt 6 -24
vt 6 -36
vt -10 -24
vt -10 -36
vt -6 -36
vt -6 -24
vt -29 -24
vt -29 -36
vt -37 -36
vt -37 -24
vt -37.1 -36
vt -37.1 -24
vt -48 -36
vt -48 -24
vt -6 -29
vt 32 6
vt 48 6
vt 48 -10
vt 48 -29
vt 48 -37
vt 32 -48
vt 48 -37.1
vt 48 -48
vt -6 -37
vt 10 -48
vt -6 -37.1
vt -6 -48
vt 10 6
vt -6 -10
vt -6 6
vn -0 1 0
vn -0 1 0
vn -0 1 0
vn -0 1 0
vn -0 1 0
vn -0 1 0
vn -0 1 0
vn -0 1 0
vn -0 1 0
vn -0 1 0
vn -0 1 0
vn -0 1 0
vn -0 1 0
vn -0 1 0
vn -0 1 0
vn -0 1 0
vn -0 1 0
vn -0 1 0
vn -0 1 0
vn -0 1 0
vn -0 1 0
vn -0 1 0
vn -0 1 0
vn -0 1 0
vn -0 0 -1
vn -0 0 -1
vn -0 0 -1
vn -0 0 -1
vn 1 0 0
vn 1 0 0
vn 1 0 0
vn 1 0 0
vn 1 0 0
vn 1 0 0
vn 1 0 0
vn 1 0 0
vn 1 0 0
vn 1 0 0
vn 1 0 0
vn 1 0 0
vn -1 0 0
vn -1 0 0
vn -1 0 0
vn -1 0 0
vn -0 0 1
vn -0 0 1
vn -0 0 1
vn -0 0 1
vn -0 0 1
vn -0 0 1
vn -0 0 -1
vn -0 0 -1
vn -0 0 -1
vn -0 0 -1
vn -0 0 1
vn -0 0 1
vn -1 0 0
vn -1 0 0
vn -1 0 0
vn -1 0 0
vn -1 0 0
vn -1 0 0
vn -1 0 0
vn -1 0 0
vn -0 -1 0
vn -0 -1 0
vn -0 -1 0
vn -0 -1 0
vn -0 -1 0
vn -0 -1 0
vn -0 -1 0
vn -0 -1 0
vn -0 -1 0
vn -0 -1 0
vn -0 -1 0
vn -0 -1 0
vn -0 -1 0
vn -0 -1 0
vn -0 -1 0
vn -0 -1 0
g pb_Mesh79884_0
g pb_Mesh79884_1
f 3/3/3 2/2/2 1/1/1
f 3/3/3 1/1/1 4/4/4
f 7/7/7 6/6/6 5/5/5
f 7/7/7 5/5/5 8/8/8
f 2/2/2 7/7/7 8/8/8
f 2/2/2 8/8/8 1/1/1
f 9/9/9 3/3/3 4/4/4
f 9/9/9 4/4/4 10/10/10
f 11/11/11 9/9/9 10/10/10
f 11/11/11 10/10/10 12/12/12
f 14/14/14 13/13/13 2/2/2
f 14/14/14 2/2/2 3/3/3
f 16/16/16 15/15/15 13/13/13
f 16/16/16 13/13/13 14/14/14
f 18/18/18 17/17/17 6/6/6
f 18/18/18 6/6/6 7/7/7
f 20/20/20 19/19/19 17/17/17
f 20/20/20 17/17/17 18/18/18
f 13/13/13 18/18/18 7/7/7
f 13/13/13 7/7/7 2/2/2
f 15/15/15 20/20/20 18/18/18
f 15/15/15 18/18/18 13/13/13
f 21/21/21 14/14/14 3/3/3
f 21/21/21 3/3/3 9/9/9
f 22/22/22 16/16/16 14/14/14
f 22/22/22 14/14/14 21/21/21
f 23/23/23 21/21/21 9/9/9
f 23/23/23 9/9/9 11/11/11
f 24/24/24 22/22/22 21/21/21
f 24/24/24 21/21/21 23/23/23
f 27/27/27 26/26/26 25/25/25
f 28/28/28 27/27/27 25/25/25
f 31/31/31 30/30/30 29/29/29
f 32/32/32 30/30/30 31/31/31
f 33/33/33 32/32/32 31/31/31
f 34/34/34 32/32/32 33/33/33
f 35/35/35 34/34/34 33/33/33
f 35/35/35 36/36/36 34/34/34
f 37/37/37 36/36/36 35/35/35
f 38/38/38 37/37/37 35/35/35
f 39/39/39 37/37/37 38/38/38
f 40/40/40 39/39/39 38/38/38
f 43/43/43 42/42/42 41/41/41
f 43/43/43 44/44/44 42/42/42
f 47/47/47 46/46/46 45/45/45
f 47/47/47 48/48/48 46/46/46
f 49/49/49 48/48/48 47/47/47
f 50/50/50 49/49/49 47/47/47
f 53/53/53 52/52/52 51/51/51
f 54/54/54 52/52/52 53/53/53
f 50/50/50 55/55/55 49/49/49
f 56/56/56 55/55/55 50/50/50
f 25/25/25 54/54/54 53/53/53
f 25/25/25 26/26/26 54/54/54
f 57/57/57 44/44/44 43/43/43
f 57/57/57 58/58/58 44/44/44
f 59/59/59 58/58/58 57/57/57
f 60/60/60 59/59/59 57/57/57
f 60/60/60 61/61/61 59/59/59
f 62/62/62 61/61/61 60/60/60
f 62/62/62 63/63/63 61/61/61
f 64/64/64 63/63/63 62/62/62
f 67/67/67 66/66/66 65/65/65
f 68/68/68 67/67/67 65/65/65
f 69/69/69 68/68/68 65/65/65
f 70/70/70 69/69/69 65/65/65
f 71/71/71 70/70/70 65/65/65
f 71/71/71 72/72/72 70/70/70
f 71/71/71 73/73/73 72/72/72
f 74/74/74 71/71/71 65/65/65
f 74/74/74 75/75/75 71/71/71
f 74/74/74 76/76/76 75/75/75
f 76/76/76 77/77/77 75/75/75
f 66/66/66 78/78/78 65/65/65
f 65/65/65 78/78/78 79/79/79
f 80/80/80 79/79/79 78/78/78
g pb_Mesh79884_2
g pb_Mesh79884_3
