g pb_Mesh89474
v 2 -2 -12
v -4 -2 -12
v 2 -2 4
v -4 -2 4
v 2 -2 24
v -4 -2 24
v 2 -2 32
v -4 -2 32
v -16 -2 32
v -16 -2 24
v -24 -2 32
v -24 -2 24
v -24 -2 14
v -16 -2 14
v -24 -2 6
v -16 -2 6
v -8 -2 6
v -8 -2 14
v -6 -2 6
v -6 -2 14
v 2 -2 32
v -4 -2 32
v -4 8 32
v 2 8 32
v -4 18 32
v 2 18 32
v -4 -2 4
v -4 -2 -12
v -4 5 -12
v -4 5 4
v -4 12 -12
v -4 12 4
v -4 5 -12
v 2 -2 -12
v 2 5 -12
v -4 -2 -12
v -4 12 -22
v 2 5 -22
v 2 12 -22
v -4 5 -22
v 2 5 -12
v 2 -2 4
v 2 5 4
v 2 -2 -12
v 2 12 -12
v 2 12 4
v 2 -2 24
v 2 8 24
v 2 18 24
v 2 -2 32
v 2 8 32
v 2 18 32
v -4 -2 24
v -4 8 24
v -4 18 24
v -24 -2 32
v -24 -2 24
v -24 10 24
v -24 10 32
v -24 22 24
v -24 22 32
v -16 10 24
v -16 -2 24
v -4 8 24
v -4 -2 24
v -16 22 24
v -4 18 24
v -16 10 32
v -16 22 32
v -16 -2 32
v -24 12 6
v -16 -2 6
v -16 12 6
v -24 -2 6
v -24 26 6
v -16 26 6
v -24 10 32
v -24 22 32
v -24 -2 32
v -16 12 14
v -16 -2 14
v -16 10 24
v -16 -2 24
v -16 26 14
v -16 22 24
v -24 12 14
v -24 26 14
v -24 -2 14
v -6 20 6
v -6 -2 14
v -6 22 14
v -6 -2 6
v 16 26 6
v 16 22 14
v 16 26 14
v 16 20 6
v -24 12 6
v -24 26 6
v -24 -2 6
v -8 -2 14
v -16 -2 14
v -16 12 14
v -8 12 14
v -16 26 14
v -8 26 14
v -8 12 6
v -8 26 6
v -8 -2 6
v -6 -2 14
v -6 22 14
v -6 26 14
v -6 20 6
v -6 26 6
v -6 -2 6
v 4 22 14
v 4 26 14
v 16 22 14
v 16 26 14
v 4 26 6
v 4 20 6
v 16 26 6
v 16 20 6
v 4 -2 6
v 4 -2 14
v 16 -2 6
v 16 -2 14
v 4 20 6
v 4 22 14
v 4 -2 6
v 4 -2 14
v 16 -2 6
v 4 -2 6
v 4 -2 14
v 16 -2 14
v 16 -2 14
v 16 -2 6
v -4 23 14
v -4 26 14
v -4 21 6
v -4 26 6
v -4 23 14
v -6 20 6
v -6 22 14
v -4 21 6
v 2 23 14
v 2 26 14
v 2 26 6
v 2 21 6
v 2 23 14
v -4 21 6
v -4 23 14
v 2 21 6
v 4 22 14
v 2 21 6
v 2 23 14
v 4 20 6
v 2 5 -16
v 2 12 -16
v -4 12 -16
v -4 5 -16
v -4 5 -12
v 2 5 -12
v -4 5 -16
v 2 5 -16
v 16 2 -16
v 16 9 -16
v 16 2 -22
v 16 9 -22
v -4 12 -22
v -4 5 -22
v -4 5 -22
v 2 5 -22
v 2 5 -16
v 2 12 -16
v 16 2 -16
v 16 9 -16
v 2 5 -22
v 2 5 -16
v 16 2 -22
v 16 2 -16
v 16 9 -22
v 16 2 -22
v 2 12 4
v -4 12 4
v 2 12 -12
v -4 12 -12
v -4 12 4
v 2 12 4
v 2 18 24
v -4 18 24
v -4 18 24
v 2 18 24
v 2 18 32
v -4 18 32
v -4 18 24
v -4 18 32
v -16 22 24
v -16 22 32
v -16 22 24
v -16 22 32
v -24 22 24
v -24 22 32
v -16 22 24
v -24 22 24
v -16 26 14
v -24 26 14
v -16 26 14
v -24 26 14
v -16 26 6
v -24 26 6
v -8 26 14
v -8 26 6
v -6 26 14
v -6 26 6
v 4 26 14
v 4 26 6
v 16 26 14
v 16 26 6
v -4 26 6
v -4 26 14
v 2 26 6
v 2 26 14
v 2 12 -16
v -4 12 -16
v 2 12 -22
v -4 12 -22
v 2 12 -16
v 2 12 -22
v 16 9 -16
v 16 9 -22
vt 2 -12
vt -4 -12
vt 2 4
vt -4 4
vt 2 24
vt -4 24
vt 2 32
vt -4 32
vt -16 32
vt -16 24
vt -24 32
vt -24 24
vt -24 14
vt -16 14
vt -24 6
vt -16 6
vt -8 6
vt -8 14
vt -6 6
vt -6 14
vt 2 -2
vt -4 -2
vt -4 8
vt 2 8
vt -4 18
vt 2 18
vt 4 -2
vt -12 -2
vt -12 5
vt 4 5
vt -12 12
vt 4 12
vt 4 5
vt -2 -2
vt -2 5
vt 4 -2
vt 4 12
vt -2 5
vt -2 12
vt 4 5
vt 12 5
vt -4 -2
vt -4 5
vt 12 -2
vt 12 12
vt -4 12
vt -24 -2
vt -24 8
vt -24 18
vt -32 -2
vt -32 8
vt -32 18
vt 24 -2
vt 24 8
vt 24 18
vt 32 -2
vt 24 -2
vt 24 10
vt 32 10
vt 24 22
vt 32 22
vt 16 10
vt 16 -2
vt 4 8
vt 4 -2
vt 16 22
vt 4 18
vt -16 10
vt -16 22
vt -16 -2
vt 24 12
vt 16 -2
vt 16 12
vt 24 -2
vt 24 26
vt 16 26
vt -24 10
vt -24 22
vt -24 -2
vt -14 12
vt -14 -2
vt -24 10
vt -24 -2
vt -14 26
vt -24 22
vt 14 12
vt 14 26
vt 14 -2
vt -6 20
vt -14 -2
vt -14 22
vt -6 -2
vt -6 26
vt -14 22
vt -14 26
vt -6 20
vt 6 12
vt 6 26
vt 6 -2
vt -8 -2
vt -16 -2
vt -16 12
vt -8 12
vt -16 26
vt -8 26
vt 8 12
vt 8 26
vt 8 -2
vt -6 -2
vt -6 22
vt -6 26
vt 6 20
vt 6 26
vt 6 -2
vt 4 22
vt 4 26
vt 16 22
vt 16 26
vt -4 26
vt -4 20
vt -16 26
vt -16 20
vt 4 6
vt 4 14
vt 16 6
vt 16 14
vt 6 20
vt 14 22
vt 6 -2
vt 14 -2
vt -16 -2
vt -4 -2
vt 4 -2
vt 16 -2
vt -14 -2
vt -6 -2
vt -4 23
vt -4 26
vt 4 21
vt 4 26
vt -4 19.160315
vt -6 10.671567
vt -6 18.917778
vt -4 10.914103
vt 2 23
vt 2 26
vt -2 26
vt -2 21
vt 2 19.160315
vt -4 10.914103
vt -4 19.160315
vt 2 10.914103
vt 4 18.917778
vt 2 10.914103
vt 2 19.160315
vt 4 10.671567
vt 16 5
vt 16 12
vt -16 12
vt -16 5
vt -4 -12
vt 2 -12
vt -4 -16
vt 2 -16
vt 16 2
vt 16 9
vt 22 2
vt 22 9
vt -22 12
vt -22 5
vt -4 -22
vt 2 -22
vt 2 5
vt 2 12
vt 16 2
vt 16 9
vt 0.90795934 -22
vt 0.90795934 -16
vt 15.2257805 -22
vt 15.2257805 -16
vt -16 9
vt -16 2
vt -2 4
vt 4 4
vt -2 -12
vt 4 -12
vt 4 5.700159
vt -2 5.700159
vt -2 26.359446
vt 4 26.359446
vt 4 26.359446
vt -2 26.359446
vt -2 34.27465
vt 4 34.27465
vt 9.486834 24
vt 9.486834 32
vt 22.135944 24
vt 22.135944 32
vt 16 24
vt 16 32
vt 24 24
vt 24 32
vt 16 14.112845
vt 24 14.112845
vt 16 3.3425162
vt 24 3.3425162
vt 16 14
vt 24 14
vt 16 6
vt 24 6
vt 8 14
vt 8 6
vt 6 14
vt 6 6
vt -4 14
vt -4 6
vt -16 14
vt -16 6
vt 4 6
vt 4 14
vt -2 6
vt -2 14
vt -2 -16
vt 4 -16
vt -2 -22
vt 4 -22
vt 0.55874425 -16
vt 0.55874425 -22
vt -13.759076 -16
vt -13.759076 -22
vn -0 -1 0
vn -0 -1 0
vn -0 -1 0
vn -0 -1 0
vn -0 -1 0
vn -0 -1 0
vn -0 -1 0
vn -0 -1 0
vn -0 -1 0
vn -0 -1 0
vn -0 -1 0
vn -0 -1 0
vn -0 -1 0
vn -0 -1 0
vn -0 -1 0
vn -0 -1 0
vn -0 -1 0
vn -0 -1 0
vn -0 -1 0
vn -0 -1 0
vn -0 0 1
vn -0 0 1
vn -0 0 1
vn -0 0 1
vn -0 0 1
vn -0 0 1
vn -1 0 0
vn -1 0 0
vn -1 0 0
vn -1 0 0
vn -1 0 0
vn -1 0 0
vn -0 0 -1
vn -0 0 -1
vn -0 0 -1
vn -0 0 -1
vn -0 0 -1
vn -0 0 -1
vn -0 0 -1
vn -0 0 -1
vn 1 0 0
vn 1 0 0
vn 1 0 0
vn 1 0 0
vn 1 0 0
vn 1 0 0
vn 1 0 0
vn 1 0 0
vn 1 0 0
vn 1 0 0
vn 1 0 0
vn 1 0 0
vn -1 0 0
vn -1 0 0
vn -1 0 0
vn -1 0 0
vn -1 0 0
vn -1 0 0
vn -1 0 0
vn -1 0 0
vn -1 0 0
vn -0 0 -1
vn -0 0 -1
vn -0 0 -1
vn -0 0 -1
vn -0 0 -1
vn -0 0 -1
vn -0 0 1
vn -0 0 1
vn -0 0 1
vn -0 0 -1
vn -0 0 -1
vn -0 0 -1
vn -0 0 -1
vn -0 0 -1
vn -0 0 -1
vn -0 0 1
vn -0 0 1
vn -0 0 1
vn 1 0 0
vn 1 0 0
vn 1 0 0
vn 1 0 0
vn 1 0 0
vn 1 0 0
vn -1 0 0
vn -1 0 0
vn -1 0 0
vn 1 0 0
vn 1 0 0
vn 1 0 0
vn 1 0 0
vn 1 0 0
vn 1 0 0
vn 1 0 0
vn 1 0 0
vn -1 0 0
vn -1 0 0
vn -1 0 0
vn -0 0 1
vn -0 0 1
vn -0 0 1
vn -0 0 1
vn -0 0 1
vn -0 0 1
vn -0 0 -1
vn -0 0 -1
vn -0 0 -1
vn -0 0 1
vn -0 0 1
vn -0 0 1
vn -0 0 -1
vn -0 0 -1
vn -0 0 -1
vn -0 0 1
vn -0 0 1
vn -0 0 1
vn -0 0 1
vn -0 0 -1
vn -0 0 -1
vn -0 0 -1
vn -0 0 -1
vn -0 -1 0
vn -0 -1 0
vn -0 -1 0
vn -0 -1 0
vn -1 0 0
vn -1 0 0
vn -1 0 0
vn -1 0 0
vn -0 0 -1
vn -0 0 -1
vn -0 0 1
vn -0 0 1
vn 1 0 0
vn 1 0 0
vn -0 0 1
vn -0 0 1
vn -0 0 -1
vn -0 0 -1
vn 0.4364358 -0.8728716 0.2182179
vn 0.4364358 -0.8728716 0.2182179
vn 0.4364358 -0.8728716 0.2182179
vn 0.4364358 -0.8728716 0.2182179
vn -0 0 1
vn -0 0 1
vn -0 0 -1
vn -0 0 -1
vn -0 -0.9701425 0.24253562
vn -0 -0.9701425 0.24253562
vn -0 -0.9701425 0.24253562
vn -0 -0.9701425 0.24253562
vn -0.4364358 -0.8728716 0.2182179
vn -0.4364358 -0.8728716 0.2182179
vn -0.4364358 -0.8728716 0.2182179
vn -0.4364358 -0.8728716 0.2182179
vn 1 0 0
vn 1 0 0
vn -1 0 0
vn -1 0 0
vn -0 -1 0
vn -0 -1 0
vn -0 -1 0
vn -0 -1 0
vn 1 0 0
vn 1 0 0
vn 1 0 0
vn 1 0 0
vn -1 0 0
vn -1 0 0
vn -0 -1 0
vn -0 -1 0
vn -0 0 1
vn -0 0 1
vn -0 0 1
vn -0 0 1
vn -0.20952909 -0.9778024 0
vn -0.20952909 -0.9778024 0
vn -0.20952909 -0.9778024 0
vn -0.20952909 -0.9778024 0
vn -0 0 -1
vn -0 0 -1
vn -0 1 0
vn -0 1 0
vn -0 1 0
vn -0 1 0
vn -0 0.9578263 -0.28734788
vn -0 0.9578263 -0.28734788
vn -0 0.9578263 -0.28734788
vn -0 0.9578263 -0.28734788
vn -0 1 0
vn -0 1 0
vn -0 1 0
vn -0 1 0
vn 0.3162278 0.9486833 0
vn 0.3162278 0.9486833 0
vn 0.3162278 0.9486833 0
vn 0.3162278 0.9486833 0
vn -0 1 0
vn -0 1 0
vn -0 1 0
vn -0 1 0
vn -0 0.9284767 0.37139067
vn -0 0.9284767 0.37139067
vn -0 0.9284767 0.37139067
vn -0 0.9284767 0.37139067
vn -0 1 0
vn -0 1 0
vn -0 1 0
vn -0 1 0
vn -0 1 0
vn -0 1 0
vn -0 1 0
vn -0 1 0
vn -0 1 0
vn -0 1 0
vn -0 1 0
vn -0 1 0
vn -0 1 0
vn -0 1 0
vn -0 1 0
vn -0 1 0
vn -0 1 0
vn -0 1 0
vn -0 1 0
vn -0 1 0
vn 0.20952909 0.9778024 0
vn 0.20952909 0.9778024 0
vn 0.20952909 0.9778024 0
vn 0.20952909 0.9778024 0
g pb_Mesh89474_0
f 3/3/3 2/2/2 1/1/1
f 3/3/3 4/4/4 2/2/2
f 6/6/6 4/4/4 5/5/5
f 4/4/4 3/3/3 5/5/5
f 8/8/8 6/6/6 7/7/7
f 6/6/6 5/5/5 7/7/7
f 9/9/9 6/6/6 8/8/8
f 9/9/9 10/10/10 6/6/6
f 11/11/11 10/10/10 9/9/9
f 11/11/11 12/12/12 10/10/10
f 13/13/13 10/10/10 12/12/12
f 13/13/13 14/14/14 10/10/10
f 15/15/15 14/14/14 13/13/13
f 15/15/15 16/16/16 14/14/14
f 17/17/17 14/14/14 16/16/16
f 17/17/17 18/18/18 14/14/14
f 19/19/19 18/18/18 17/17/17
f 19/19/19 20/20/20 18/18/18
f 23/23/23 22/22/22 21/21/21
f 23/23/23 21/21/21 24/24/24
f 25/25/25 23/23/23 24/24/24
f 25/25/25 24/24/24 26/26/26
f 29/29/29 28/28/28 27/27/27
f 29/29/29 27/27/27 30/30/30
f 31/31/31 29/29/29 30/30/30
f 31/31/31 30/30/30 32/32/32
f 35/35/35 34/34/34 33/33/33
f 34/34/34 36/36/36 33/33/33
f 39/39/39 38/38/38 37/37/37
f 38/38/38 40/40/40 37/37/37
f 43/43/43 42/42/42 41/41/41
f 42/42/42 44/44/44 41/41/41
f 46/46/46 43/43/43 45/45/45
f 43/43/43 41/41/41 45/45/45
f 48/48/48 47/47/47 43/43/43
f 47/47/47 42/42/42 43/43/43
f 49/49/49 48/48/48 46/46/46
f 48/48/48 43/43/43 46/46/46
f 51/51/51 50/50/50 48/48/48
f 50/50/50 47/47/47 48/48/48
f 52/52/52 51/51/51 49/49/49
f 51/51/51 48/48/48 49/49/49
f 30/30/30 27/27/27 53/53/53
f 30/30/30 53/53/53 54/54/54
f 32/32/32 30/30/30 54/54/54
f 32/32/32 54/54/54 55/55/55
f 58/58/58 57/57/57 56/56/56
f 58/58/58 56/56/56 59/59/59
f 60/60/60 58/58/58 59/59/59
f 60/60/60 59/59/59 61/61/61
f 64/64/64 63/63/63 62/62/62
f 64/64/64 65/65/65 63/63/63
f 67/67/67 62/62/62 66/66/66
f 67/67/67 64/64/64 62/62/62
f 68/68/68 23/23/23 25/25/25
f 69/69/69 68/68/68 25/25/25
f 70/70/70 22/22/22 23/23/23
f 68/68/68 70/70/70 23/23/23
f 73/73/73 72/72/72 71/71/71
f 72/72/72 74/74/74 71/71/71
f 76/76/76 73/73/73 75/75/75
f 73/73/73 71/71/71 75/75/75
f 78/78/78 77/77/77 68/68/68
f 78/78/78 68/68/68 69/69/69
f 77/77/77 79/79/79 70/70/70
f 77/77/77 70/70/70 68/68/68
f 82/82/82 81/81/81 80/80/80
f 82/82/82 83/83/83 81/81/81
f 85/85/85 80/80/80 84/84/84
f 85/85/85 82/82/82 80/80/80
f 86/86/86 58/58/58 60/60/60
f 87/87/87 86/86/86 60/60/60
f 88/88/88 57/57/57 58/58/58
f 86/86/86 88/88/88 58/58/58
f 91/91/91 90/90/90 89/89/89
f 90/90/90 92/92/92 89/89/89
f 95/95/95 94/94/94 93/93/93
f 94/94/94 96/96/96 93/93/93
f 98/98/98 97/97/97 86/86/86
f 98/98/98 86/86/86 87/87/87
f 97/97/97 99/99/99 88/88/88
f 97/97/97 88/88/88 86/86/86
f 102/102/102 101/101/101 100/100/100
f 102/102/102 100/100/100 103/103/103
f 104/104/104 102/102/102 103/103/103
f 104/104/104 103/103/103 105/105/105
f 107/107/107 106/106/106 76/76/76
f 106/106/106 73/73/73 76/76/76
f 106/106/106 108/108/108 73/73/73
f 108/108/108 72/72/72 73/73/73
f 103/103/103 100/100/100 109/109/109
f 103/103/103 109/109/109 110/110/110
f 105/105/105 103/103/103 110/110/110
f 105/105/105 110/110/110 111/111/111
f 113/113/113 112/112/112 107/107/107
f 112/112/112 106/106/106 107/107/107
f 112/112/112 114/114/114 106/106/106
f 114/114/114 108/108/108 106/106/106
f 117/117/117 116/116/116 115/115/115
f 117/117/117 118/118/118 116/116/116
f 121/121/121 120/120/120 119/119/119
f 121/121/121 122/122/122 120/120/120
f 125/125/125 124/124/124 123/123/123
f 125/125/125 126/126/126 124/124/124
f 129/129/129 128/128/128 127/127/127
f 129/129/129 130/130/130 128/128/128
f 131/131/131 120/120/120 122/122/122
f 131/131/131 132/132/132 120/120/120
f 133/133/133 117/117/117 115/115/115
f 133/133/133 134/134/134 117/117/117
f 135/135/135 96/96/96 94/94/94
f 135/135/135 136/136/136 96/96/96
f 111/111/111 110/110/110 137/137/137
f 111/111/111 137/137/137 138/138/138
f 140/140/140 139/139/139 113/113/113
f 139/139/139 112/112/112 113/113/113
f 143/143/143 142/142/142 141/141/141
f 142/142/142 144/144/144 141/141/141
f 146/146/146 145/145/145 115/115/115
f 146/146/146 115/115/115 116/116/116
f 138/138/138 137/137/137 145/145/145
f 138/138/138 145/145/145 146/146/146
f 119/119/119 120/120/120 147/147/147
f 120/120/120 148/148/148 147/147/147
f 147/147/147 148/148/148 140/140/140
f 148/148/148 139/139/139 140/140/140
f 151/151/151 150/150/150 149/149/149
f 150/150/150 152/152/152 149/149/149
f 155/155/155 154/154/154 153/153/153
f 154/154/154 156/156/156 153/153/153
f 157/157/157 45/45/45 41/41/41
f 157/157/157 158/158/158 45/45/45
f 159/159/159 29/29/29 31/31/31
f 159/159/159 160/160/160 29/29/29
f 163/163/163 162/162/162 161/161/161
f 163/163/163 164/164/164 162/162/162
f 167/167/167 166/166/166 165/165/165
f 167/167/167 168/168/168 166/166/166
f 169/169/169 160/160/160 159/159/159
f 169/169/169 170/170/170 160/160/160
f 171/171/171 164/164/164 163/163/163
f 171/171/171 172/172/172 164/164/164
f 175/175/175 174/174/174 173/173/173
f 175/175/175 176/176/176 174/174/174
f 179/179/179 178/178/178 177/177/177
f 179/179/179 180/180/180 178/178/178
f 181/181/181 38/38/38 39/39/39
f 181/181/181 182/182/182 38/38/38
g pb_Mesh89474_1
f 185/185/185 184/184/184 183/183/183
f 185/185/185 186/186/186 184/184/184
f 189/189/189 188/188/188 187/187/187
f 189/189/189 187/187/187 190/190/190
f 193/193/193 192/192/192 191/191/191
f 193/193/193 191/191/191 194/194/194
f 197/197/197 196/196/196 195/195/195
f 197/197/197 198/198/198 196/196/196
f 201/201/201 200/200/200 199/199/199
f 201/201/201 202/202/202 200/200/200
f 205/205/205 204/204/204 203/203/203
f 205/205/205 206/206/206 204/204/204
f 209/209/209 208/208/208 207/207/207
f 209/209/209 210/210/210 208/208/208
f 211/211/211 209/209/209 207/207/207
f 211/211/211 212/212/212 209/209/209
f 213/213/213 212/212/212 211/211/211
f 213/213/213 214/214/214 212/212/212
f 217/217/217 216/216/216 215/215/215
f 217/217/217 218/218/218 216/216/216
f 220/220/220 219/219/219 214/214/214
f 220/220/220 214/214/214 213/213/213
f 222/222/222 221/221/221 219/219/219
f 222/222/222 219/219/219 220/220/220
f 215/215/215 216/216/216 221/221/221
f 215/215/215 221/221/221 222/222/222
f 223/223/223 186/186/186 185/185/185
f 223/223/223 224/224/224 186/186/186
f 225/225/225 224/224/224 223/223/223
f 225/225/225 226/226/226 224/224/224
f 229/229/229 228/228/228 227/227/227
f 229/229/229 230/230/230 228/228/228
