g pb_Mesh-218840
v -0.74999964 -3 0.24999985
v -0.99999964 -3 0.24999976
v -0.7500023 12 0.24999894
v -0.9999986 12 0.24999945
v -0.99999964 -3 0.24999976
v -0.9999995 -3 -2.3841858E-07
v -0.9999986 12 0.24999945
v -1.0000011 12 -6.5551296E-07
v -0.9999995 -3 -2.3841858E-07
v -0.7499995 -3 -1.4901161E-07
v -1.0000011 12 -6.5551296E-07
v -0.75000095 12 -1.1621869E-06
v 1.0000005 -3 4.7683716E-07
v 1.0000004 -3 0.25000048
v 0.9999998 12 -8.942078E-07
v 1.0000004 12 0.24999921
v -0.7500023 12 0.24999894
v -0.9999986 12 0.24999945
v -0.75000095 12 -1.1621869E-06
v -1.0000011 12 -6.5551296E-07
v -0.7499995 -3 -1.4901161E-07
v -0.9999995 -3 -2.3841858E-07
v -0.74999964 -3 0.24999985
v -0.99999964 -3 0.24999976
v 0.7500005 -3 3.874302E-07
v 0.75000036 -3 0.2500004
v 1.0000005 -3 4.7683716E-07
v 1.0000004 -3 0.25000048
v 0.7499997 12 -3.8753387E-07
v 0.7500005 -3 3.874302E-07
v 0.9999998 12 -8.942078E-07
v 1.0000005 -3 4.7683716E-07
v 0.75000036 -3 0.2500004
v 0.7500002 12 0.24999972
v 1.0000004 -3 0.25000048
v 1.0000004 12 0.24999921
v 0.7500002 12 0.24999972
v 0.7499997 12 -3.8753387E-07
v 1.0000004 12 0.24999921
v 0.9999998 12 -8.942078E-07
v -0.74999964 -3 0.24999985
v -0.7500023 12 0.24999894
v -0.7499995 -3 -1.4901161E-07
v -0.75000095 12 -1.1621869E-06
v 0.7500002 12 0.24999972
v 0.75000036 -3 0.2500004
v 0.7499997 12 -3.8753387E-07
v 0.7500005 -3 3.874302E-07
v -0.7499996 -3 0.12499985
v -0.74999976 12 0.12499889
v 0.7500004 -3 0.12500039
v 0.7500009 12 0.124999665
vt -0.7499996 -3
vt -0.9999996 -3
vt -0.75000226 12
vt -0.99999857 12
vt -1.8749998 -3
vt -2.1249998 -3
vt -1.8750001 12
vt -2.1250002 12
vt 0.9999995 -3
vt 0.7499995 -3
vt 1.0000011 12
vt 0.75000095 12
vt 2.125 -3
vt 1.875 -3
vt 2.1250014 12
vt 1.8750013 12
vt 0.7500023 -1.8750011
vt 0.9999986 -1.8750006
vt 0.75000095 -2.1250012
vt 1.0000011 -2.1250007
vt -0.7499995 -2.1250002
vt -0.9999995 -2.1250002
vt -0.74999964 -1.8750001
vt -0.99999964 -1.8750002
vt 0.7500005 -2.1249995
vt 0.75000036 -1.8749996
vt 1.0000005 -2.1249995
vt 1.0000004 -1.8749995
vt -0.7499997 12
vt -0.7500005 -3
vt -0.9999998 12
vt -1.0000005 -3
vt 0.7500005 -3
vt 0.75000024 12
vt 1.0000005 -3
vt 1.0000005 12
vt -0.7500002 -1.8750002
vt -0.7499997 -2.1250005
vt -1.0000004 -1.8750008
vt -0.9999998 -2.125001
vt 1.8749998 -2.9999998
vt 1.8750007 12
vt 2.1249998 -2.9999998
vt 2.1250007 12
vt -1.8749988 12
vt -1.8749982 -3
vt -2.124999 12
vt -2.124998 -3
vt -0.7499995 -3
vt -0.7499997 12
vt 0.7500005 -3
vt 0.75000095 12
vn -3.5762787E-07 6.059799E-08 1
vn 8.344799E-07 4.0729738E-08 1
vn 8.344799E-07 4.0729738E-08 1
vn 2.0265877E-06 2.0861489E-08 1
vn -1 6.755192E-08 -4.7683716E-07
vn -1 -1.788126E-08 4.64916E-06
vn -1 -1.788126E-08 4.64916E-06
vn -1 -1.0331444E-07 9.775157E-06
vn 3.5762787E-07 -2.7806255E-08 -1
vn -8.3453335E-07 -4.7675734E-08 -1
vn -8.3453335E-07 -4.7675734E-08 -1
vn -2.0266946E-06 -6.754521E-08 -1
vn 1 4.371012E-08 4.7683716E-07
vn 1 2.185497E-08 -8.344646E-07
vn 1 2.185497E-08 -8.344646E-07
vn 1 -1.8118832E-13 -2.1457663E-06
vn -0 1 0
vn -0 1 0
vn -0 1 0
vn -0 1 0
vn -0 -1 0
vn -0 -1 0
vn -0 -1 0
vn -0 -1 0
vn -0 -1 0
vn -0 -1 0
vn -0 -1 0
vn -0 -1 0
vn -2.0266946E-06 -5.1664372E-08 -1
vn -8.3453335E-07 -7.153368E-08 -1
vn -8.3453335E-07 -7.153368E-08 -1
vn 3.5762787E-07 -9.140298E-08 -1
vn -3.5762787E-07 4.470348E-08 1
vn 8.3446434E-07 6.45717E-08 1
vn 8.3446434E-07 6.45717E-08 1
vn 2.0265566E-06 8.443992E-08 1
vn -0 1 0
vn -0 1 0
vn -0 1 0
vn -0 1 0
vn 1 1.7881396E-07 4.7683716E-07
vn 1 1.3709088E-07 2.980231E-06
vn 1 1.3709088E-07 2.980231E-06
vn 1 9.5367795E-08 5.483625E-06
vn -1 -1.1920843E-08 1.9073476E-06
vn -1 -3.1789114E-08 7.152552E-07
vn -1 -3.1789114E-08 7.152552E-07
vn -1 -5.165738E-08 -4.7683716E-07
vn -3.5762787E-07 6.407499E-08 1
vn -4.371006E-07 5.612771E-08 1
vn -4.371006E-07 5.612771E-08 1
vn -5.165733E-07 4.8180436E-08 1
g pb_Mesh-218840_0
f 3/3/3 2/2/2 1/1/1
f 3/3/3 4/4/4 2/2/2
f 7/7/7 6/6/6 5/5/5
f 7/7/7 8/8/8 6/6/6
f 11/11/11 10/10/10 9/9/9
f 11/11/11 12/12/12 10/10/10
f 15/15/15 14/14/14 13/13/13
f 15/15/15 16/16/16 14/14/14
f 19/19/19 18/18/18 17/17/17
f 19/19/19 20/20/20 18/18/18
f 23/23/23 22/22/22 21/21/21
f 23/23/23 24/24/24 22/22/22
f 27/27/27 26/26/26 25/25/25
f 27/27/27 28/28/28 26/26/26
f 31/31/31 30/30/30 29/29/29
f 31/31/31 32/32/32 30/30/30
f 35/35/35 34/34/34 33/33/33
f 35/35/35 36/36/36 34/34/34
f 39/39/39 38/38/38 37/37/37
f 39/39/39 40/40/40 38/38/38
f 43/43/43 42/42/42 41/41/41
f 43/43/43 44/44/44 42/42/42
f 47/47/47 46/46/46 45/45/45
f 47/47/47 48/48/48 46/46/46
g pb_Mesh-218840_1
f 51/51/51 50/50/50 49/49/49
f 51/51/51 52/52/52 50/50/50
