g pb_Mesh69430
v -3 0 -4
v -2 1 -4
v -2 1 6
v -3 0 6
v -3 0 -4
v -3 0 -4
v -3 0 6
v -3 0 -4
v -3 0 6
v -3 0 6
v -2 -2 6
v -3 -2 -4
v -3 -2 6
v -2 -2 -4
v -3 -2 6
v -3 -2 -4
v -3 -2 6
v -3 -2 6
v -3 -2 -4
v -3 -2 -4
v -2 1 6
v -2 1 -4
v -1 1 6
v -1 1 -4
v -3 -2 6
v -3 -2 -4
v -3 0 6
v -3 0 -4
v -1 -2 -4
v -1 -2 6
v -1 1 -4
v -1 1 6
v -2 -2 6
v -3 -2 6
v -3 0 6
v -2 1 6
v -3 -2 6
v -3 -2 6
v -3 0 6
v -3 0 6
v -3 -2 6
v -3 0 6
v -3 0 -4
v -3 -2 -4
v -3 0 -4
v -3 0 -4
v -3 -2 -4
v -3 -2 -4
v -3 0 -4
v -2 -2 -4
v -2 1 -4
v -3 -2 -4
v -2 -2 -4
v -2 -2 6
v -1 -2 -4
v -1 -2 6
v -1 1 -4
v -1 -2 -4
v -1 -2 6
v -1 1 6
vt 2.1213202 -4
vt 0.70710677 -4
vt 0.70710677 6
vt 2.1213202 6
vt 2.1213202 -4
vt 2.1213202 -4
vt 2.1213202 6
vt 2.1213202 -4
vt 2.1213202 6
vt 2.1213202 6
vt -2 6
vt -3 -4
vt -3 6
vt -2 -4
vt -3 6
vt -3 -4
vt -3 6
vt -3 6
vt -3 -4
vt -3 -4
vt 2 6
vt 2 -4
vt 1 6
vt 1 -4
vt 6 -2
vt -4 -2
vt 6 0
vt -4 0
vt 4 -2
vt -6 -2
vt 4 1
vt -6 1
vt -2 -2
vt -3 -2
vt -3 0
vt -2 1
vt -3 -2
vt -3 -2
vt -3 0
vt -3 0
vt -3 -2
vt -3 0
vt 3 0
vt 3 -2
vt 3 0
vt 3 0
vt 3 -2
vt 3 -2
vt 3 0
vt 2 -2
vt 2 1
vt 3 -2
vt -2 -4
vt -2 6
vt -1 -4
vt -1 6
vt 1 1
vt 1 -2
vt -1 -2
vt -1 1
vn -0.70710677 0.70710677 0
vn -0.70710677 0.70710677 0
vn -0.70710677 0.70710677 0
vn -0.70710677 0.70710677 0
vn -0 0 0
vn -0 0 0
vn -0 0 0
vn -0 0 0
vn -0 0 0
vn -0 0 0
vn -0 -1 0
vn -0 -1 0
vn -0 -1 0
vn -0 -1 0
vn -0 0 0
vn -0 0 0
vn -0 0 0
vn -0 0 0
vn -0 0 0
vn -0 0 0
vn -0 1 0
vn -0 1 0
vn -0 1 0
vn -0 1 0
vn -1 0 0
vn -1 0 0
vn -1 0 0
vn -1 0 0
vn 1 0 0
vn 1 0 0
vn 1 0 0
vn 1 0 0
vn -0 0 1
vn -0 0 1
vn -0 0 1
vn -0 0 1
vn -0 0 0
vn -0 0 0
vn -0 0 0
vn -0 0 0
vn -0 0 0
vn -0 0 0
vn -0 0 0
vn -0 0 0
vn -0 0 0
vn -0 0 0
vn -0 0 0
vn -0 0 0
vn -0 0 -1
vn -0 0 -1
vn -0 0 -1
vn -0 0 -1
vn -0 -1 0
vn -0 -1 0
vn -0 -1 0
vn -0 -1 0
vn -0 0 -1
vn -0 0 -1
vn -0 0 1
vn -0 0 1
g pb_Mesh69430_0
f 3/3/3 2/2/2 1/1/1
f 3/3/3 1/1/1 4/4/4
f 7/7/7 6/6/6 5/5/5
f 10/10/10 9/9/9 8/8/8
f 13/13/13 12/12/12 11/11/11
f 12/12/12 14/14/14 11/11/11
f 17/17/17 16/16/16 15/15/15
f 20/20/20 19/19/19 18/18/18
f 23/23/23 22/22/22 21/21/21
f 23/23/23 24/24/24 22/22/22
g pb_Mesh69430_1
f 27/27/27 26/26/26 25/25/25
f 27/27/27 28/28/28 26/26/26
f 31/31/31 30/30/30 29/29/29
f 31/31/31 32/32/32 30/30/30
f 35/35/35 34/34/34 33/33/33
f 35/35/35 33/33/33 36/36/36
f 39/39/39 38/38/38 37/37/37
f 42/42/42 41/41/41 40/40/40
f 45/45/45 44/44/44 43/43/43
f 48/48/48 47/47/47 46/46/46
f 51/51/51 50/50/50 49/49/49
f 50/50/50 52/52/52 49/49/49
f 55/55/55 54/54/54 53/53/53
f 55/55/55 56/56/56 54/54/54
f 57/57/57 50/50/50 51/51/51
f 57/57/57 58/58/58 50/50/50
f 59/59/59 36/36/36 33/33/33
f 59/59/59 60/60/60 36/36/36
