g pb_Mesh97626
v 2 -1.9999979 3.9999988
v -2 -1.9999979 3.9999988
v 2 2.000015 4.0000024
v -2 2.000015 4.0000024
v -2 -1.9999979 3.9999988
v -2 -2 -2
v -2 2.000015 4.0000024
v -2 2 -2
v -2 -2 -2
v 2 -2 -2
v -2 2 -2
v 2 2 -2
v 2 -2 -2
v 2 -1.9999979 3.9999988
v 2 2 -2
v 2 2.000015 4.0000024
v 2 2.000015 4.0000024
v -2 2.000015 4.0000024
v 2 2 -2
v -2 2 -2
v 2 -2 -2
v -2 -2 -2
v 2 -1.9999979 3.9999988
v -2 -1.9999979 3.9999988
vt 2 -1.9999943
vt -2 -1.9999943
vt 2 2.0000186
vt -2 2.0000186
vt 3.9999988 -1.9999979
vt -2 -2
vt 4.0000024 2.000015
vt -2 2
vt 2 -2
vt -2 -2
vt 2 2
vt -2 2
vt 2 -2
vt -3.9999988 -1.9999979
vt 2 2
vt -4.0000024 2.000015
vt -2 4.0000076
vt 2 4.0000076
vt -2 -1.999995
vt 2 -1.999995
vt 2 -2.0000007
vt -2 -2.0000007
vt 2 3.999998
vt -2 3.999998
vn -0 -8.940668E-07 1
vn -0 -8.940668E-07 1
vn -0 -8.940668E-07 1
vn -0 -8.940668E-07 1
vn -1 0 0
vn -1 0 0
vn -1 0 0
vn -1 0 0
vn -0 0 -1
vn -0 0 -1
vn -0 0 -1
vn -0 0 -1
vn 1 0 0
vn 1 0 0
vn 1 0 0
vn 1 0 0
vn -0 1 -2.5033942E-06
vn -0 1 -2.5033942E-06
vn -0 1 -2.5033942E-06
vn -0 1 -2.5033942E-06
vn -0 -1 3.5762793E-07
vn -0 -1 3.5762793E-07
vn -0 -1 3.5762793E-07
vn -0 -1 3.5762793E-07
g pb_Mesh97626_0
f 3/3/3 2/2/2 1/1/1
f 3/3/3 4/4/4 2/2/2
f 7/7/7 6/6/6 5/5/5
f 7/7/7 8/8/8 6/6/6
f 11/11/11 10/10/10 9/9/9
f 11/11/11 12/12/12 10/10/10
f 15/15/15 14/14/14 13/13/13
f 15/15/15 16/16/16 14/14/14
f 19/19/19 18/18/18 17/17/17
f 19/19/19 20/20/20 18/18/18
f 23/23/23 22/22/22 21/21/21
f 23/23/23 24/24/24 22/22/22
