g pb_Mesh71384
v 30.1 -15 35.699997
v -34.9 -15 35.699997
v 30.1 31 35.699997
v -34.9 31 35.699997
v -34.9 -15 35.699997
v -34.9 -15 -19.300003
v -34.9 31 35.699997
v -34.9 31 -19.300003
v -34.9 -15 -19.300003
v 30.1 -15 -19.300003
v -34.9 31 -19.300003
v 30.1 31 -19.300003
v 30.1 -15 -19.300003
v 30.1 -15 35.699997
v 30.1 31 -19.300003
v 30.1 31 35.699997
v 30.1 31 35.699997
v -34.9 31 35.699997
v 30.1 31 -19.300003
v -34.9 31 -19.300003
v 30.1 -15 -19.300003
v -34.9 -15 -19.300003
v 30.1 -15 35.699997
v -34.9 -15 35.699997
vt 30.1 -15
vt -34.9 -15
vt 30.1 31
vt -34.9 31
vt 35.699997 -15
vt -19.300003 -15
vt 35.699997 31
vt -19.300003 31
vt 34.9 -15
vt -30.1 -15
vt 34.9 31
vt -30.1 31
vt 19.300003 -15
vt -35.699997 -15
vt 19.300003 31
vt -35.699997 31
vt -30.1 35.699997
vt 34.9 35.699997
vt -30.1 -19.300003
vt 34.9 -19.300003
vt 30.1 -19.300003
vt -34.9 -19.300003
vt 30.1 35.699997
vt -34.9 35.699997
vn -0 0 1
vn -0 0 1
vn -0 0 1
vn -0 0 1
vn -1 0 0
vn -1 0 0
vn -1 0 0
vn -1 0 0
vn -0 0 -1
vn -0 0 -1
vn -0 0 -1
vn -0 0 -1
vn 1 0 0
vn 1 0 0
vn 1 0 0
vn 1 0 0
vn -0 1 0
vn -0 1 0
vn -0 1 0
vn -0 1 0
vn -0 -1 0
vn -0 -1 0
vn -0 -1 0
vn -0 -1 0
g pb_Mesh71384_0
f 3/3/3 2/2/2 1/1/1
f 3/3/3 4/4/4 2/2/2
f 7/7/7 6/6/6 5/5/5
f 7/7/7 8/8/8 6/6/6
f 11/11/11 10/10/10 9/9/9
f 11/11/11 12/12/12 10/10/10
f 15/15/15 14/14/14 13/13/13
f 15/15/15 16/16/16 14/14/14
f 19/19/19 18/18/18 17/17/17
f 19/19/19 20/20/20 18/18/18
f 23/23/23 22/22/22 21/21/21
f 23/23/23 24/24/24 22/22/22
