g pb_Mesh99664
v -5.6720967 10 5.8007655
v -8.327903 10 6.3912697
v -5.6720977 10 3.3657014
v -8.327906 10 3.9562044
v -4.917876 0 2.9392333
v -10 0 2
v -4.4161034 0 5.7227964
v -9.412783 0 5.9050074
v -9.412783 0 5.9050074
v -4.257029 5 6.045551
v -4.4161034 0 5.7227964
v -9.742964 5 6.0455523
v -9.412783 0 5.9050074
v -9.742966 5 1.9544516
v -9.742964 5 6.0455523
v -10 0 2
v -4.2570276 5 1.9544516
v -9.742966 5 1.9544516
v -10 0 2
v -4.917876 0 2.9392333
v -4.2570276 5 1.9544516
v -4.917876 0 2.9392333
v -4.4161034 0 5.7227964
v -4.257029 5 6.045551
v -9.412783 7 5.9050074
v -5.6720967 10 5.8007655
v -4.1252027 7.5 6.311385
v -8.327903 10 6.3912697
v -9.742964 5 6.0455523
v -4.1252027 7.5 6.311385
v -4.257029 5 6.045551
v -9.412783 7 5.9050074
v -9.412783 7 5.9050074
v -8.327906 10 3.9562044
v -8.327903 10 6.3912697
v -8.522773 7 2.8705578
v -9.742964 5 6.0455523
v -8.522773 7 2.8705578
v -9.412783 7 5.9050074
v -9.742966 5 1.9544516
v -5.6720977 10 3.3657014
v -8.327906 10 3.9562044
v -8.522773 7 2.8705578
v -4.125202 7.5 1.6886152
v -4.125202 7.5 1.6886152
v -8.522773 7 2.8705578
v -9.742966 5 1.9544516
v -4.2570276 5 1.9544516
v -5.6720977 10 3.3657014
v -4.125202 7.5 1.6886152
v -4.1252027 7.5 6.311385
v -5.6720967 10 5.8007655
v -4.125202 7.5 1.6886152
v -4.2570276 5 1.9544516
v -4.257029 5 6.045551
v -4.1252027 7.5 6.311385
vt 5.6720967 5.8007655
vt 8.327903 6.3912697
vt 5.6720977 3.3657014
vt 8.327906 3.9562044
vt -4.917876 2.9392333
vt -10 2
vt -4.4161034 5.7227964
vt -9.412783 5.9050074
vt -9.30587 0.051832583
vt -4.1484294 5.052064
vt -4.31324 0.049516037
vt -9.63349 5.0529
vt 6.781889 -1.2357169
vt 2.8813193 3.6153476
vt 6.9535007 3.6705196
vt 2.9513476 -1.3704375
vt 4.531937 5.1247964
vt 9.934374 4.8379226
vt 10.195413 0.06963223
vt 5.353893 0.6136645
vt -1.6869732 5.447714
vt -2.6289237 0.5564422
vt -5.4382253 0.52054864
vt -5.7702146 5.475418
vt -9.30587 7.051577
vt -5.5676413 10.050008
vt -4.0118785 7.5542216
vt -8.212482 10.055452
vt -9.63349 5.0529
vt -4.0118785 7.5542216
vt -4.1484294 5.052064
vt -9.30587 7.051577
vt 6.781889 5.6949563
vt 4.737885 8.7905655
vt 7.1616893 8.823405
vt 3.6759777 5.778405
vt 6.9535007 3.6705196
vt 3.6759777 5.778405
vt 6.781889 5.6949563
vt 2.8813193 3.6153476
vt 6.1707597 10.237267
vt 8.88878 10.273341
vt 8.891983 7.0804906
vt 4.3559127 7.4371004
vt 4.3559127 7.4371004
vt 8.891983 7.0804906
vt 9.934374 4.8379226
vt 4.531937 5.1247964
vt -3.0078483 10.581693
vt -1.4298141 7.9165506
vt -6.043705 7.947855
vt -5.4382353 10.598182
vt -1.4298141 7.9165506
vt -1.6869732 5.447714
vt -5.7702146 5.475418
vt -6.043705 7.947855
vn -0 1 0
vn -0 1 0
vn -0 1 0
vn -0 1 0
vn -0 -1 0
vn -0 -1 0
vn -0 -1 0
vn -0 -1 0
vn 0.018182062 -0.04681207 0.99839664
vn 0.018182062 -0.04681207 0.99839664
vn 0.036363862 -0.06552628 0.9971881
vn 2.606569E-07 -0.028097862 0.9996052
vn -0.9926823 -0.006886849 0.07425097
vn -0.9926823 -0.006886849 0.07425097
vn -0.99782676 -0.06589272 4.6520572E-07
vn -0.9875378 0.05211902 0.14850147
vn 0.08878729 -0.110911734 -0.9804009
vn -0 -0.00910931 -0.9999585
vn 0.08878729 -0.110911734 -0.9804009
vn 0.17757457 -0.21271417 -0.9608433
vn 0.98525065 -0.09730546 -0.08751796
vn 0.971007 -0.16281213 -0.17503627
vn 0.98525065 -0.09730546 -0.08751796
vn 0.9994943 -0.0317988 3.4948752E-07
vn 0.060847312 -0.04224944 0.9675802
vn 0.060847312 -0.04224944 0.9675802
vn -0.08951305 0.14584814 0.9852491
vn 0.21120767 -0.23034702 0.94991136
vn -0.042112093 -0.011028785 0.9936605
vn -0.042112093 -0.011028785 0.9936605
vn 2.5929802E-07 -0.10573764 0.99439406
vn -0.08422445 0.08368007 0.99292696
vn -0.94364953 0.2510422 -0.13886325
vn -0.94364953 0.2510422 -0.13886325
vn -0.940399 0.34007314 1.1048998E-06
vn -0.94690007 0.16201125 -0.2777276
vn -0.9020766 0.32907245 -0.1393895
vn -0.9020766 0.32907245 -0.1393895
vn -0.95048606 0.13732578 -0.2787794
vn -0.8536671 0.5208191 3.9799576E-07
vn -0.24183427 0.37707525 -0.8923366
vn -0.20373195 0.3448232 -0.9162916
vn -0.24183427 0.37707525 -0.8923366
vn -0.27993658 0.4093273 -0.8683817
vn -0.13776974 0.21422245 -0.89679873
vn -0.2755395 0.5341833 -0.7992035
vn -0.13776974 0.21422245 -0.89679873
vn -0 -0.105738424 -0.994394
vn 0.8503754 0.52617645 -1.2266358E-07
vn 0.8503753 0.52617663 8.7715925E-08
vn 0.8503754 0.52617645 -1.2266358E-07
vn 0.85037553 0.5261763 -3.330431E-07
vn 0.99861264 -0.052657202 2.260929E-07
vn 0.9986127 -0.052656986 3.4917923E-07
vn 0.99861264 -0.052657202 2.260929E-07
vn 0.99861264 -0.052657414 1.03006556E-07
g pb_Mesh99664_0
f 3/3/3 2/2/2 1/1/1
f 3/3/3 4/4/4 2/2/2
f 7/7/7 6/6/6 5/5/5
f 7/7/7 8/8/8 6/6/6
f 11/11/11 10/10/10 9/9/9
f 10/10/10 12/12/12 9/9/9
f 15/15/15 14/14/14 13/13/13
f 14/14/14 16/16/16 13/13/13
f 19/19/19 18/18/18 17/17/17
f 19/19/19 17/17/17 20/20/20
f 23/23/23 22/22/22 21/21/21
f 23/23/23 21/21/21 24/24/24
f 27/27/27 26/26/26 25/25/25
f 26/26/26 28/28/28 25/25/25
f 31/31/31 30/30/30 29/29/29
f 30/30/30 32/32/32 29/29/29
f 35/35/35 34/34/34 33/33/33
f 34/34/34 36/36/36 33/33/33
f 39/39/39 38/38/38 37/37/37
f 38/38/38 40/40/40 37/37/37
f 43/43/43 42/42/42 41/41/41
f 43/43/43 41/41/41 44/44/44
f 47/47/47 46/46/46 45/45/45
f 47/47/47 45/45/45 48/48/48
f 51/51/51 50/50/50 49/49/49
f 51/51/51 49/49/49 52/52/52
f 55/55/55 54/54/54 53/53/53
f 55/55/55 53/53/53 56/56/56
