g pb_Mesh98180
v 2 -1.9999974 3.9999993
v -2 -1.9999974 3.9999993
v 2 2.0000145 4.000003
v -2 2.0000145 4.000003
v -2 -1.9999974 3.9999993
v -2 -2 -2
v -2 2.0000145 4.000003
v -2 2 -2
v -2 -2 -2
v 2 -2 -2
v -2 2 -2
v 2 2 -2
v 2 -2 -2
v 2 -1.9999974 3.9999993
v 2 2 -2
v 2 2.0000145 4.000003
v 2 2.0000145 4.000003
v -2 2.0000145 4.000003
v 2 2 -2
v -2 2 -2
v 2 -2 -2
v -2 -2 -2
v 2 -1.9999974 3.9999993
v -2 -1.9999974 3.9999993
vt 2 -1.9999938
vt -2 -1.9999938
vt 2 2.0000181
vt -2 2.0000181
vt 3.9999993 -1.9999974
vt -2 -2
vt 4.000003 2.0000145
vt -2 2
vt 2 -2
vt -2 -2
vt 2 2
vt -2 2
vt 2 -2
vt -3.9999993 -1.9999974
vt 2 2
vt -4.000003 2.0000145
vt -2 4.0000076
vt 2 4.0000076
vt -2 -1.9999951
vt 2 -1.9999951
vt 2 -2.000001
vt -2 -2.000001
vt 2 3.9999983
vt -2 3.9999983
vn -0 -8.94067E-07 1
vn -0 -8.94067E-07 1
vn -0 -8.94067E-07 1
vn -0 -8.94067E-07 1
vn -1 0 0
vn -1 0 0
vn -1 0 0
vn -1 0 0
vn -0 0 -1
vn -0 0 -1
vn -0 0 -1
vn -0 0 -1
vn 1 0 0
vn 1 0 0
vn 1 0 0
vn 1 0 0
vn -0 1 -2.4239212E-06
vn -0 1 -2.4239212E-06
vn -0 1 -2.4239212E-06
vn -0 1 -2.4239212E-06
vn -0 -1 4.371008E-07
vn -0 -1 4.371008E-07
vn -0 -1 4.371008E-07
vn -0 -1 4.371008E-07
g pb_Mesh98180_0
f 3/3/3 2/2/2 1/1/1
f 3/3/3 4/4/4 2/2/2
f 7/7/7 6/6/6 5/5/5
f 7/7/7 8/8/8 6/6/6
f 11/11/11 10/10/10 9/9/9
f 11/11/11 12/12/12 10/10/10
f 15/15/15 14/14/14 13/13/13
f 15/15/15 16/16/16 14/14/14
f 19/19/19 18/18/18 17/17/17
f 19/19/19 20/20/20 18/18/18
f 23/23/23 22/22/22 21/21/21
f 23/23/23 24/24/24 22/22/22
