g pb_Mesh68822
v -0 0 0
v -0 16 0
v 0.26794922 0 1
v 0.26794922 16 1
v 0.26794922 0 1
v 0.26794922 16 1
v 1 0 1.7320509
v 1 16 1.7320509
v 1 0 1.7320509
v 1 16 1.7320509
v 2 0 2
v 2 16 2
v 2 0 2
v 2 16 2
v 3 0 1.7320508
v 3 16 1.7320508
v 3 0 1.7320508
v 3 16 1.7320508
v 3.732051 0 1.0000001
v 3.732051 16 1.0000001
v 3.732051 0 1.0000001
v 3.732051 16 1.0000001
v 4 0 -1.7484555E-07
v 4 16 -1.7484555E-07
v 4 0 -1.7484555E-07
v 4 16 -1.7484555E-07
v 3.732051 0 -0.99999994
v 3.732051 16 -0.99999994
v 3.732051 0 -0.99999994
v 3.732051 16 -0.99999994
v 2.9999998 0 -1.7320509
v 2.9999998 16 -1.7320509
v 2.9999998 0 -1.7320509
v 2.9999998 16 -1.7320509
v 2 0 -2
v 2 16 -2
v 2 0 -2
v 2 16 -2
v 1.0000002 0 -1.7320509
v 1.0000002 16 -1.7320509
v 1.0000002 0 -1.7320509
v 1.0000002 16 -1.7320509
v 0.26794934 0 -1.0000004
v 0.26794934 16 -1.0000004
v 0.26794934 0 -1.0000004
v 0.26794934 16 -1.0000004
v -0 0 0
v -0 16 0
v 0.26794922 0 1
v 2 0 0
v -0 0 0
v 1 0 1.7320509
v 2 0 2
v 3 0 1.7320508
v 3.732051 0 1.0000001
v 4 0 -1.7484555E-07
v 3.732051 0 -0.99999994
v 2.9999998 0 -1.7320509
v 2 0 -2
v 1.0000002 0 -1.7320509
v 0.26794934 0 -1.0000004
v 2.9999998 16 -1.7320509
v 3.732051 16 -0.99999994
v 2.5374146 16 -0.93084717
v 2.930828 16 -0.53741455
v 2 16 -2
v 2 16 -1.0748291
v 4 16 -1.7484555E-07
v 3.0748253 16 0
v 3.732051 16 1.0000001
v 2.930828 16 0.53741455
v 3 16 1.7320508
v 2.5374146 16 0.93084717
v 2 16 2
v 2 16 1.0748291
v 1 16 1.7320509
v 1.4625854 16 0.93084717
v 0.26794922 16 1
v 1.0691719 16 0.53741455
v -0 16 0
v 0.9251747 16 0
v 0.26794934 16 -1.0000004
v 1.0691719 16 -0.53741455
v 1.0000002 16 -1.7320509
v 1.4625854 16 -0.93084717
v 1.3380585 18.75 0
v 2 18.75 0
v 1.4267426 18.75 0.33099365
v 1.6690292 18.75 0.5732422
v 2 18.75 0.66192627
v 2.3309708 18.75 0.5732422
v 2.5732574 18.75 0.33099365
v 2.6619415 18.75 0
v 2.5732574 18.75 -0.33099365
v 2.3309708 18.75 -0.5732422
v 2 18.75 -0.66192627
v 1.6690292 18.75 -0.5732422
v 1.4267426 18.75 -0.33099365
v 2.5374146 16 -0.93084717
v 2.930828 16 -0.53741455
v 2.5374146 18.5 -0.93084717
v 2.930828 18.5 -0.53741455
v 2 16 -1.0748291
v 2.5374146 16 -0.93084717
v 2 18.5 -1.0748291
v 2.5374146 18.5 -0.93084717
v 2.930828 16 -0.53741455
v 3.0748253 16 0
v 2.930828 18.5 -0.53741455
v 3.0748253 18.5 0
v 3.0748253 16 0
v 2.930828 16 0.53741455
v 3.0748253 18.5 0
v 2.930828 18.5 0.53741455
v 2.930828 16 0.53741455
v 2.5374146 16 0.93084717
v 2.930828 18.5 0.53741455
v 2.5374146 18.5 0.93084717
v 2.5374146 16 0.93084717
v 2 16 1.0748291
v 2.5374146 18.5 0.93084717
v 2 18.5 1.0748291
v 2 16 1.0748291
v 1.4625854 16 0.93084717
v 2 18.5 1.0748291
v 1.4625854 18.5 0.93084717
v 1.4625854 16 0.93084717
v 1.0691719 16 0.53741455
v 1.4625854 18.5 0.93084717
v 1.0691719 18.5 0.53741455
v 1.0691719 16 0.53741455
v 0.9251747 16 0
v 1.0691719 18.5 0.53741455
v 0.9251747 18.5 0
v 0.9251747 16 0
v 1.0691719 16 -0.53741455
v 0.9251747 18.5 0
v 1.0691719 18.5 -0.53741455
v 1.0691719 16 -0.53741455
v 1.4625854 16 -0.93084717
v 1.0691719 18.5 -0.53741455
v 1.4625854 18.5 -0.93084717
v 1.4625854 16 -0.93084717
v 2 16 -1.0748291
v 1.4625854 18.5 -0.93084717
v 2 18.5 -1.0748291
v 2.5374146 18.5 -0.93084717
v 2.930828 18.5 -0.53741455
v 2.3309708 18.75 -0.5732422
v 2.5732574 18.75 -0.33099365
v 2 18.5 -1.0748291
v 2.5374146 18.5 -0.93084717
v 2 18.75 -0.66192627
v 2.3309708 18.75 -0.5732422
v 2.930828 18.5 -0.53741455
v 3.0748253 18.5 0
v 2.5732574 18.75 -0.33099365
v 2.6619415 18.75 0
v 3.0748253 18.5 0
v 2.930828 18.5 0.53741455
v 2.6619415 18.75 0
v 2.5732574 18.75 0.33099365
v 2.930828 18.5 0.53741455
v 2.5374146 18.5 0.93084717
v 2.5732574 18.75 0.33099365
v 2.3309708 18.75 0.5732422
v 2.5374146 18.5 0.93084717
v 2 18.5 1.0748291
v 2.3309708 18.75 0.5732422
v 2 18.75 0.66192627
v 2 18.5 1.0748291
v 1.4625854 18.5 0.93084717
v 2 18.75 0.66192627
v 1.6690292 18.75 0.5732422
v 1.4625854 18.5 0.93084717
v 1.0691719 18.5 0.53741455
v 1.6690292 18.75 0.5732422
v 1.4267426 18.75 0.33099365
v 1.0691719 18.5 0.53741455
v 0.9251747 18.5 0
v 1.4267426 18.75 0.33099365
v 1.3380585 18.75 0
v 0.9251747 18.5 0
v 1.0691719 18.5 -0.53741455
v 1.3380585 18.75 0
v 1.4267426 18.75 -0.33099365
v 1.0691719 18.5 -0.53741455
v 1.4625854 18.5 -0.93084717
v 1.4267426 18.75 -0.33099365
v 1.6690292 18.75 -0.5732422
v 1.4625854 18.5 -0.93084717
v 2 18.5 -1.0748291
v 1.6690292 18.75 -0.5732422
v 2 18.75 -0.66192627
vt 0 0
vt 0 16
vt 1.0352762 0
vt 1.0352762 16
vt 0.8965755 0
vt 0.8965755 16
vt 1.9318517 0
vt 1.9318517 16
vt 1.4142135 0
vt 1.4142135 16
vt 2.4494896 0
vt 2.4494896 16
vt 1.4142134 0
vt 1.4142134 16
vt 2.4494896 0
vt 2.4494896 16
vt 0.89657605 0
vt 0.89657605 16
vt 1.9318521 0
vt 1.9318521 16
vt -5.8874355E-07 0
vt -5.8874355E-07 16
vt 1.0352758 0
vt 1.0352758 16
vt -1.0352759 0
vt -1.0352759 16
vt 2.2746569E-08 0
vt 2.2746569E-08 16
vt -1.931852 0
vt -1.931852 16
vt -0.8965755 0
vt -0.8965755 16
vt -2.4494896 0
vt -2.4494896 16
vt -1.4142137 0
vt -1.4142137 16
vt -2.4494896 0
vt -2.4494896 16
vt -1.4142138 0
vt -1.4142138 16
vt -1.9318517 0
vt -1.9318517 16
vt -0.8965757 0
vt -0.8965757 16
vt -1.0352767 0
vt -1.0352767 16
vt 0 0
vt 0 16
vt 0.26794922 1
vt 2 0
vt 0 0
vt 1 1.7320509
vt 2 2
vt 3 1.7320508
vt 3.732051 1.0000001
vt 4 -1.7484555E-07
vt 3.732051 -0.99999994
vt 2.9999998 -1.7320509
vt 2 -2
vt 1.0000002 -1.7320509
vt 0.26794934 -1.0000004
vt -2.9999998 -1.7320509
vt -3.732051 -0.99999994
vt -2.5374146 -0.93084717
vt -2.930828 -0.53741455
vt -2 -2
vt -2 -1.0748291
vt -4 -1.7484555E-07
vt -3.0748253 0
vt -3.732051 1.0000001
vt -2.930828 0.53741455
vt -3 1.7320508
vt -2.5374146 0.93084717
vt -2 2
vt -2 1.0748291
vt -1 1.7320509
vt -1.4625854 0.93084717
vt -0.26794922 1
vt -1.0691719 0.53741455
vt 0 0
vt -0.9251747 0
vt -0.26794934 -1.0000004
vt -1.0691719 -0.53741455
vt -1.0000002 -1.7320509
vt -1.4625854 -0.93084717
vt -1.3380585 0
vt -2 0
vt -1.4267426 0.33099365
vt -1.6690292 0.5732422
vt -2 0.66192627
vt -2.3309708 0.5732422
vt -2.5732574 0.33099365
vt -2.6619415 0
vt -2.5732574 -0.33099365
vt -2.3309708 -0.5732422
vt -2 -0.66192627
vt -1.6690292 -0.5732422
vt -1.4267426 -0.33099365
vt -1.1359553 16
vt -1.6923395 16
vt -1.1359553 18.5
vt -1.6923395 18.5
vt -1.6537136 16
vt -2.2100816 16
vt -1.6537136 18.5
vt -2.2100816 18.5
vt -0.23943815 16
vt -0.79581 16
vt -0.23943815 18.5
vt -0.79581 18.5
vt 0.79581 16
vt 0.23943815 16
vt 0.79581 18.5
vt 0.23943815 18.5
vt 1.6923395 16
vt 1.1359553 16
vt 1.6923395 18.5
vt 1.1359553 18.5
vt 2.2100816 16
vt 1.6537136 16
vt 2.2100816 18.5
vt 1.6537136 18.5
vt 2.2100217 16
vt 1.653654 16
vt 2.2100217 18.5
vt 1.653654 18.5
vt 1.6924033 16
vt 1.1360191 16
vt 1.6924033 18.5
vt 1.1360191 18.5
vt 0.79582065 16
vt 0.23944882 16
vt 0.79582065 18.5
vt 0.23944882 18.5
vt -0.23944882 16
vt -0.79582065 16
vt -0.23944882 18.5
vt -0.79582065 18.5
vt -1.1360191 16
vt -1.6924033 16
vt -1.1360191 18.5
vt -1.6924033 18.5
vt -1.653654 16
vt -2.2100217 16
vt -1.653654 18.5
vt -2.2100217 18.5
vt 5.1767583 5.874946
vt 4.817092 6.2994494
vt 5.466798 6.2607923
vt 5.2452946 6.52218
vt 0.9880601 8.610023
vt 0.4575797 8.77776
vt 1.0280906 9.091048
vt 0.70139027 9.194361
vt 7.0750685 1.8517568
vt 6.951892 2.3943222
vt 7.5104256 2.060156
vt 7.4345646 2.394322
vt 6.9518213 -2.3943102
vt 7.0749984 -1.8517449
vt 7.434494 -2.3943102
vt 7.5103555 -2.0601444
vt 4.817685 -6.299826
vt 5.1773467 -5.8753185
vt 5.2458906 -6.5225515
vt 5.467391 -6.2611613
vt 0.45749602 -8.77756
vt 0.9879768 -8.609824
vt 0.7013056 -9.194162
vt 1.0280062 -9.090851
vt -4.936449 -8.281442
vt -4.4059687 -8.449179
vt -4.9764795 -8.762468
vt -4.6497793 -8.86578
vt -8.83364 -5.266246
vt -8.473974 -5.6907496
vt -9.12368 -5.6520925
vt -8.902177 -5.91348
vt -10.496705 -1.5669553
vt -10.3735285 -2.1095207
vt -10.932062 -1.7753546
vt -10.856201 -2.1095204
vt -10.3734665 2.1095123
vt -10.496643 1.5669471
vt -10.856139 2.1095123
vt -10.932001 1.7753466
vt -8.474514 5.691043
vt -8.834176 5.266535
vt -8.9027195 5.913768
vt -9.12422 5.6523776
vt -4.405888 8.448996
vt -4.936369 8.28126
vt -4.6496973 8.865598
vt -4.976398 8.762286
vn -0.69474655 -0.7192546 -1.0717729E-08
vn -0.69474655 0.7192546 -1.0717729E-08
vn -0.6016682 -0.7192546 0.34737328
vn -0.6016682 0.7192546 0.34737328
vn -0.6016682 -0.7192546 0.34737328
vn -0.6016682 0.7192546 0.34737328
vn -0.34737328 -0.7192546 0.6016682
vn -0.34737328 0.7192546 0.6016682
vn -0.34737328 -0.7192546 0.6016682
vn -0.34737328 0.7192546 0.6016682
vn 3.2153185E-08 -0.7192546 0.69474655
vn 3.2153185E-08 0.7192546 0.69474655
vn 3.2153185E-08 -0.7192546 0.69474655
vn 3.2153185E-08 0.7192546 0.69474655
vn 0.34737325 -0.7192546 0.60166824
vn 0.34737325 0.7192546 0.60166824
vn 0.34737325 -0.7192546 0.60166824
vn 0.34737325 0.7192546 0.60166824
vn 0.6016682 -0.7192546 0.34737328
vn 0.6016682 0.7192546 0.34737328
vn 0.6016682 -0.7192546 0.34737328
vn 0.6016682 0.7192546 0.34737328
vn 0.69474655 -0.7192546 -3.2153185E-08
vn 0.69474655 0.7192546 -3.2153185E-08
vn 0.69474655 -0.7192546 -3.2153185E-08
vn 0.69474655 0.7192546 -3.2153185E-08
vn 0.6016682 -0.7192546 -0.34737328
vn 0.6016682 0.7192546 -0.34737328
vn 0.6016682 -0.7192546 -0.34737328
vn 0.6016682 0.7192546 -0.34737328
vn 0.34737325 -0.7192546 -0.6016682
vn 0.34737325 0.7192546 -0.6016682
vn 0.34737325 -0.7192546 -0.6016682
vn 0.34737325 0.7192546 -0.6016682
vn -0 -0.7192546 -0.69474655
vn -0 0.7192546 -0.69474655
vn -0 -0.7192546 -0.69474655
vn -0 0.7192546 -0.69474655
vn -0.3473732 -0.7192546 -0.60166824
vn -0.3473732 0.7192546 -0.60166824
vn -0.3473732 -0.7192546 -0.60166824
vn -0.3473732 0.7192546 -0.60166824
vn -0.6016682 -0.7192546 -0.34737337
vn -0.6016682 0.7192546 -0.34737337
vn -0.6016682 -0.7192546 -0.34737337
vn -0.6016682 0.7192546 -0.34737337
vn -0.69474655 -0.7192546 -1.0717729E-08
vn -0.69474655 0.7192546 -1.0717729E-08
vn -0.6016682 -0.7192546 0.34737328
vn -0 -1 0
vn -0.69474655 -0.7192546 -1.0717729E-08
vn -0.34737328 -0.7192546 0.6016682
vn 3.2153185E-08 -0.7192546 0.69474655
vn 0.34737325 -0.7192546 0.60166824
vn 0.6016682 -0.7192546 0.34737328
vn 0.69474655 -0.7192546 -3.2153185E-08
vn 0.6016682 -0.7192546 -0.34737328
vn 0.34737325 -0.7192546 -0.6016682
vn -0 -0.7192546 -0.69474655
vn -0.3473732 -0.7192546 -0.60166824
vn -0.6016682 -0.7192546 -0.34737337
vn 0.34737325 0.7192546 -0.6016682
vn 0.6016682 0.7192546 -0.34737328
vn 0.34736994 0.7192572 -0.60166705
vn 0.60167396 0.71925366 -0.3473651
vn -0 0.7192546 -0.69474655
vn -0 0.7192517 -0.69474953
vn 0.69474655 0.7192546 -3.2153185E-08
vn 0.69474703 0.71925414 0
vn 0.6016682 0.7192546 0.34737328
vn 0.60167396 0.71925366 0.3473651
vn 0.34737325 0.7192546 0.60166824
vn 0.34736994 0.7192572 0.60166705
vn 3.2153185E-08 0.7192546 0.69474655
vn -0 0.7192517 0.69474953
vn -0.34737328 0.7192546 0.6016682
vn -0.34736994 0.7192572 0.60166705
vn -0.6016682 0.7192546 0.34737328
vn -0.60167396 0.71925366 0.3473651
vn -0.69474655 0.7192546 -1.0717729E-08
vn -0.69474703 0.71925414 0
vn -0.6016682 0.7192546 -0.34737337
vn -0.60167396 0.71925366 -0.3473651
vn -0.3473732 0.7192546 -0.60166824
vn -0.34736994 0.7192572 -0.60166705
vn -0.26759434 0.9635316 -9.443374E-07
vn -0 1 0
vn -0.23173992 0.96353114 0.13380727
vn -0.13379113 0.9635345 0.23173532
vn 2.9223822E-06 0.96353525 0.2675813
vn 0.13377826 0.96353585 0.23173703
vn 0.23173928 0.9635329 0.1337953
vn 0.26759434 0.9635316 9.443374E-07
vn 0.23173992 0.96353114 -0.13380727
vn 0.13379113 0.9635345 -0.23173532
vn -2.9223825E-06 0.96353525 -0.26758134
vn -0.13377826 0.96353585 -0.23173703
vn -0.23173928 0.9635329 -0.1337953
vn 0.34736994 0.7192572 -0.60166705
vn 0.60167396 0.71925366 -0.3473651
vn 0.43384215 0.49711508 -0.751437
vn 0.7514477 0.49709868 -0.4338426
vn -0 0.7192517 -0.69474953
vn 0.34736994 0.7192572 -0.60166705
vn -2.2074596E-06 0.49710807 -0.86768866
vn 0.43384215 0.49711508 -0.751437
vn 0.60167396 0.71925366 -0.3473651
vn 0.69474703 0.71925414 0
vn 0.7514477 0.49709868 -0.4338426
vn 0.86769414 0.49709848 7.12505E-07
vn 0.69474703 0.71925414 0
vn 0.60167396 0.71925366 0.3473651
vn 0.86769414 0.49709848 7.12505E-07
vn 0.75145316 0.49709517 0.43383703
vn 0.60167396 0.71925366 0.3473651
vn 0.34736994 0.7192572 0.60166705
vn 0.75145316 0.49709517 0.43383703
vn 0.43383512 0.49711245 0.75144285
vn 0.34736994 0.7192572 0.60166705
vn -0 0.7192517 0.69474953
vn 0.43383512 0.49711245 0.75144285
vn 2.2074596E-06 0.49710807 0.86768866
vn -0 0.7192517 0.69474953
vn -0.34736994 0.7192572 0.60166705
vn 2.2074596E-06 0.49710807 0.86768866
vn -0.43384215 0.49711508 0.751437
vn -0.34736994 0.7192572 0.60166705
vn -0.60167396 0.71925366 0.3473651
vn -0.43384215 0.49711508 0.751437
vn -0.7514477 0.49709868 0.4338426
vn -0.60167396 0.71925366 0.3473651
vn -0.69474703 0.71925414 0
vn -0.7514477 0.49709868 0.4338426
vn -0.86769414 0.49709848 -7.12505E-07
vn -0.69474703 0.71925414 0
vn -0.60167396 0.71925366 -0.3473651
vn -0.86769414 0.49709848 -7.12505E-07
vn -0.75145316 0.49709517 -0.43383703
vn -0.60167396 0.71925366 -0.3473651
vn -0.34736994 0.7192572 -0.60166705
vn -0.75145316 0.49709517 -0.43383703
vn -0.43383512 0.49711245 -0.75144285
vn -0.34736994 0.7192572 -0.60166705
vn -0 0.7192517 -0.69474953
vn -0.43383512 0.49711245 -0.75144285
vn -2.2074596E-06 0.49710807 -0.86768866
vn 0.43384215 0.49711508 -0.751437
vn 0.7514477 0.49709868 -0.4338426
vn 0.13379113 0.9635345 -0.23173532
vn 0.23173992 0.96353114 -0.13380727
vn -2.2074596E-06 0.49710807 -0.86768866
vn 0.43384215 0.49711508 -0.751437
vn -2.9223825E-06 0.96353525 -0.26758134
vn 0.13379113 0.9635345 -0.23173532
vn 0.7514477 0.49709868 -0.4338426
vn 0.86769414 0.49709848 7.12505E-07
vn 0.23173992 0.96353114 -0.13380727
vn 0.26759434 0.9635316 9.443374E-07
vn 0.86769414 0.49709848 7.12505E-07
vn 0.75145316 0.49709517 0.43383703
vn 0.26759434 0.9635316 9.443374E-07
vn 0.23173928 0.9635329 0.1337953
vn 0.75145316 0.49709517 0.43383703
vn 0.43383512 0.49711245 0.75144285
vn 0.23173928 0.9635329 0.1337953
vn 0.13377826 0.96353585 0.23173703
vn 0.43383512 0.49711245 0.75144285
vn 2.2074596E-06 0.49710807 0.86768866
vn 0.13377826 0.96353585 0.23173703
vn 2.9223822E-06 0.96353525 0.2675813
vn 2.2074596E-06 0.49710807 0.86768866
vn -0.43384215 0.49711508 0.751437
vn 2.9223822E-06 0.96353525 0.2675813
vn -0.13379113 0.9635345 0.23173532
vn -0.43384215 0.49711508 0.751437
vn -0.7514477 0.49709868 0.4338426
vn -0.13379113 0.9635345 0.23173532
vn -0.23173992 0.96353114 0.13380727
vn -0.7514477 0.49709868 0.4338426
vn -0.86769414 0.49709848 -7.12505E-07
vn -0.23173992 0.96353114 0.13380727
vn -0.26759434 0.9635316 -9.443374E-07
vn -0.86769414 0.49709848 -7.12505E-07
vn -0.75145316 0.49709517 -0.43383703
vn -0.26759434 0.9635316 -9.443374E-07
vn -0.23173928 0.9635329 -0.1337953
vn -0.75145316 0.49709517 -0.43383703
vn -0.43383512 0.49711245 -0.75144285
vn -0.23173928 0.9635329 -0.1337953
vn -0.13377826 0.96353585 -0.23173703
vn -0.43383512 0.49711245 -0.75144285
vn -2.2074596E-06 0.49710807 -0.86768866
vn -0.13377826 0.96353585 -0.23173703
vn -2.9223825E-06 0.96353525 -0.26758134
g pb_Mesh68822_0
f 3/3/3 2/2/2 1/1/1
f 3/3/3 4/4/4 2/2/2
f 7/7/7 6/6/6 5/5/5
f 7/7/7 8/8/8 6/6/6
f 11/11/11 10/10/10 9/9/9
f 11/11/11 12/12/12 10/10/10
f 15/15/15 14/14/14 13/13/13
f 15/15/15 16/16/16 14/14/14
f 19/19/19 18/18/18 17/17/17
f 19/19/19 20/20/20 18/18/18
f 23/23/23 22/22/22 21/21/21
f 23/23/23 24/24/24 22/22/22
f 27/27/27 26/26/26 25/25/25
f 27/27/27 28/28/28 26/26/26
f 31/31/31 30/30/30 29/29/29
f 31/31/31 32/32/32 30/30/30
f 35/35/35 34/34/34 33/33/33
f 35/35/35 36/36/36 34/34/34
f 39/39/39 38/38/38 37/37/37
f 39/39/39 40/40/40 38/38/38
f 43/43/43 42/42/42 41/41/41
f 43/43/43 44/44/44 42/42/42
f 47/47/47 46/46/46 45/45/45
f 47/47/47 48/48/48 46/46/46
f 51/51/51 50/50/50 49/49/49
f 49/49/49 50/50/50 52/52/52
f 52/52/52 50/50/50 53/53/53
f 53/53/53 50/50/50 54/54/54
f 54/54/54 50/50/50 55/55/55
f 55/55/55 50/50/50 56/56/56
f 56/56/56 50/50/50 57/57/57
f 57/57/57 50/50/50 58/58/58
f 58/58/58 50/50/50 59/59/59
f 59/59/59 50/50/50 60/60/60
f 60/60/60 50/50/50 61/61/61
f 61/61/61 50/50/50 51/51/51
f 64/64/64 63/63/63 62/62/62
f 64/64/64 65/65/65 63/63/63
f 67/67/67 62/62/62 66/66/66
f 67/67/67 64/64/64 62/62/62
f 65/65/65 68/68/68 63/63/63
f 65/65/65 69/69/69 68/68/68
f 69/69/69 70/70/70 68/68/68
f 69/69/69 71/71/71 70/70/70
f 71/71/71 72/72/72 70/70/70
f 71/71/71 73/73/73 72/72/72
f 73/73/73 74/74/74 72/72/72
f 73/73/73 75/75/75 74/74/74
f 75/75/75 76/76/76 74/74/74
f 75/75/75 77/77/77 76/76/76
f 77/77/77 78/78/78 76/76/76
f 77/77/77 79/79/79 78/78/78
f 79/79/79 80/80/80 78/78/78
f 79/79/79 81/81/81 80/80/80
f 81/81/81 82/82/82 80/80/80
f 81/81/81 83/83/83 82/82/82
f 83/83/83 84/84/84 82/82/82
f 83/83/83 85/85/85 84/84/84
f 85/85/85 66/66/66 84/84/84
f 85/85/85 67/67/67 66/66/66
g pb_Mesh68822_1
f 88/88/88 87/87/87 86/86/86
f 89/89/89 87/87/87 88/88/88
f 90/90/90 87/87/87 89/89/89
f 91/91/91 87/87/87 90/90/90
f 92/92/92 87/87/87 91/91/91
f 93/93/93 87/87/87 92/92/92
f 94/94/94 87/87/87 93/93/93
f 95/95/95 87/87/87 94/94/94
f 96/96/96 87/87/87 95/95/95
f 97/97/97 87/87/87 96/96/96
f 98/98/98 87/87/87 97/97/97
f 86/86/86 87/87/87 98/98/98
f 101/101/101 100/100/100 99/99/99
f 101/101/101 102/102/102 100/100/100
f 105/105/105 104/104/104 103/103/103
f 105/105/105 106/106/106 104/104/104
f 109/109/109 108/108/108 107/107/107
f 109/109/109 110/110/110 108/108/108
f 113/113/113 112/112/112 111/111/111
f 113/113/113 114/114/114 112/112/112
f 117/117/117 116/116/116 115/115/115
f 117/117/117 118/118/118 116/116/116
f 121/121/121 120/120/120 119/119/119
f 121/121/121 122/122/122 120/120/120
f 125/125/125 124/124/124 123/123/123
f 125/125/125 126/126/126 124/124/124
f 129/129/129 128/128/128 127/127/127
f 129/129/129 130/130/130 128/128/128
f 133/133/133 132/132/132 131/131/131
f 133/133/133 134/134/134 132/132/132
f 137/137/137 136/136/136 135/135/135
f 137/137/137 138/138/138 136/136/136
f 141/141/141 140/140/140 139/139/139
f 141/141/141 142/142/142 140/140/140
f 145/145/145 144/144/144 143/143/143
f 145/145/145 146/146/146 144/144/144
f 149/149/149 148/148/148 147/147/147
f 149/149/149 150/150/150 148/148/148
f 153/153/153 152/152/152 151/151/151
f 153/153/153 154/154/154 152/152/152
f 157/157/157 156/156/156 155/155/155
f 157/157/157 158/158/158 156/156/156
f 161/161/161 160/160/160 159/159/159
f 161/161/161 162/162/162 160/160/160
f 165/165/165 164/164/164 163/163/163
f 165/165/165 166/166/166 164/164/164
f 169/169/169 168/168/168 167/167/167
f 169/169/169 170/170/170 168/168/168
f 173/173/173 172/172/172 171/171/171
f 173/173/173 174/174/174 172/172/172
f 177/177/177 176/176/176 175/175/175
f 177/177/177 178/178/178 176/176/176
f 181/181/181 180/180/180 179/179/179
f 181/181/181 182/182/182 180/180/180
f 185/185/185 184/184/184 183/183/183
f 185/185/185 186/186/186 184/184/184
f 189/189/189 188/188/188 187/187/187
f 189/189/189 190/190/190 188/188/188
f 193/193/193 192/192/192 191/191/191
f 193/193/193 194/194/194 192/192/192
