g pb_Mesh75244
v -15 17.5 12.5
v -12.5 17.5 12.5
v -12.5 17.5 15
v -15 17.5 15
v -12.5 -3 15
v -15 -3 12.5
v -15 -3 15
v -12.5 -3 12.5
v -5 17.5 12.5
v -5 17.5 15
v -5 15 12.5
v -0 15 12.5
v -0 15 15
v -5 15 15
v -5 -3 15
v -5 -3 12.5
v -0 -3 15
v -0 -3 12.5
v -15 15 0
v -12.5 15 0
v -12.5 15 5
v -15 15 5
v -15 17.5 5
v -12.5 17.5 5
v -12.5 -3 5
v -15 -3 0
v -15 -3 5
v -12.5 -3 0
v -5 15 0
v -5 15 5
v -12.5 15 12.5
v -0 15 0
v -0 15 5
v -5 -3 5
v -5 -3 0
v -0 -3 5
v -0 -3 0
v -15 15 5
v -12.5 15 5
v -15 17.5 5
v -12.5 17.5 5
v -12.5 15 5
v -12.5 15 12.5
v -12.5 17.5 5
v -12.5 17.5 12.5
v -15 15 12.5
v -15 15 5
v -15 17.5 12.5
v -15 17.5 5
v -5 15 15
v -12.5 15 15
v -5 17.5 15
v -12.5 17.5 15
v -15 15 15
v -15 17.5 15
v -15 15 15
v -15 17.5 15
v -12.5 15 12.5
v -5 15 12.5
v -12.5 17.5 12.5
v -5 17.5 12.5
v -5 15 12.5
v -5 15 15
v -5 17.5 12.5
v -5 17.5 15
v -15 6 15
v -15 6 12.5
v -0 15 12.5
v -0 6 15
v -0 15 15
v -0 6 12.5
v -12.5 6 15
v -15 6 15
v -15 15 0
v -12.5 6 0
v -12.5 15 0
v -15 6 0
v -0 6 15
v -5 6 15
v -0 15 15
v -5 15 0
v -0 6 0
v -0 15 0
v -5 6 0
v -15 6 5
v -15 6 0
v -15 15 0
v -0 15 5
v -0 6 5
v -0 15 0
v -0 6 0
v -18 -3 18
v -18 -3 12.5
v -15 6 5
v -15 6 12.5
v -18 6 5
v -18 6 12.5
v -15 6 15
v -18 6 18
v -18 -3 5
v -12.5 -3 18
v -12.5 6 15
v -12.5 6 18
v -5 -3 18
v -5 6 15
v -5 6 18
v -18 2.5 18
v -18 2.5 12.5
v -18 6 12.5
v -18 6 18
v -0 2.5 15
v -0 2.5 12.5
v -12.5 2.5 18
v -18 2.5 18
v -18 6 18
v -12.5 6 18
v -12.5 2.5 0
v -15 2.5 0
v -0 2.5 15
v -5 2.5 15
v -5 2.5 18
v -5 6 18
v -0 2.5 0
v -5 2.5 0
v -18 2.5 5
v -18 6 5
v -15 2.5 5
v -15 2.5 0
v -0 2.5 5
v -0 2.5 0
v -5 6 15
v -5 2.5 18
v -5 6 18
v -5 2.5 15
v -18 6 5
v -15 2.5 5
v -15 6 5
v -18 2.5 5
v -5 -3 18.5
v -12.5 -3 18.5
v -18.5 -3 18.5
v -18.5 -3 12.5
v -18.5 -3 5
v -20 0.5 20
v -20 0.5 12.5
v -18 2.5 12.5
v -18 2.5 18
v -0 0.5 15
v -0 0.5 12.5
v -12.5 0.5 20
v -20 0.5 20
v -18 2.5 18
v -12.5 2.5 18
v -12.5 0.5 0
v -15 0.5 0
v -0 0.5 15
v -5 0.5 15
v -5 0.5 20
v -5 2.5 18
v -0 0.5 0
v -5 0.5 0
v -20 0.5 5
v -18 2.5 5
v -15 0.5 5
v -15 0.5 0
v -0 0.5 5
v -0 0.5 0
v -5 0.5 18
v -5 0.5 15
v -15 0.5 5
v -18 0.5 5
v -5 0.5 20
v -20 0.5 5
v -18.5 -3 18.5
v -18.5 -3 12.5
v -20 0 12.5
v -20 0 20
v -20 0 20
v -20 0 12.5
v -20 0.5 12.5
v -20 0.5 20
v -0 0 12.5
v -0 -3 15
v -0 0 15
v -0 -3 12.5
v -12.5 -3 18.5
v -18.5 -3 18.5
v -20 0 20
v -12.5 0 20
v -12.5 0 20
v -20 0 20
v -20 0.5 20
v -12.5 0.5 20
v -15 0 0
v -12.5 -3 0
v -12.5 0 0
v -15 -3 0
v -0 -3 15
v -5 -3 15
v -5 0 15
v -0 0 15
v -5 -3 18.5
v -5 0 20
v -5 0 20
v -5 0.5 20
v -5 0 0
v -0 -3 0
v -0 0 0
v -5 -3 0
v -18.5 -3 5
v -20 0 5
v -20 0 5
v -20 0.5 5
v -15 -3 5
v -15 -3 0
v -15 0 0
v -15 0 5
v -0 0 5
v -0 -3 5
v -0 0 0
v -0 -3 0
v -5 0 15
v -5 -3 18
v -5 0 18
v -5 -3 15
v -18 0 5
v -15 -3 5
v -15 0 5
v -18 -3 5
v -5 -3 18.5
v -5 0 20
v -20 0 5
v -18.5 -3 5
vt 15 12.5
vt 12.5 12.5
vt 12.5 15
vt 15 15
vt -12.5 15
vt -15 12.5
vt -15 15
vt -12.5 12.5
vt 5 12.5
vt 5 15
vt 5 12.5
vt 0 12.5
vt 0 15
vt 5 15
vt -5 15
vt -5 12.5
vt 0 15
vt 0 12.5
vt 15 0
vt 12.5 0
vt 12.5 5
vt 15 5
vt 15 5
vt 12.5 5
vt -12.5 5
vt -15 0
vt -15 5
vt -12.5 0
vt 5 0
vt 5 5
vt 12.5 12.5
vt 0 0
vt 0 5
vt -5 5
vt -5 0
vt 0 5
vt 0 0
vt 15 15
vt 12.5 15
vt 15 17.5
vt 12.5 17.5
vt -5 15
vt -12.5 15
vt -5 17.5
vt -12.5 17.5
vt 12.5 15
vt 5 15
vt 12.5 17.5
vt 5 17.5
vt -5 15
vt -12.5 15
vt -5 17.5
vt -12.5 17.5
vt 15 15
vt 15 17.5
vt -15 15
vt -15 17.5
vt 12.5 15
vt 5 15
vt 12.5 17.5
vt 5 17.5
vt -12.5 15
vt -15 15
vt -12.5 17.5
vt -15 17.5
vt 15 6
vt 12.5 6
vt -12.5 15
vt -15 6
vt -15 15
vt -12.5 6
vt -12.5 6
vt -15 6
vt 15 15
vt 12.5 6
vt 12.5 15
vt 15 6
vt 0 6
vt -5 6
vt 0 15
vt 5 15
vt 0 6
vt 0 15
vt 5 6
vt 5 6
vt 0 6
vt 0 15
vt -5 15
vt -5 6
vt 0 15
vt 0 6
vt -18 18
vt -18 12.5
vt 15 5
vt 15 12.5
vt 18 5
vt 18 12.5
vt 15 15
vt 18 18
vt -18 5
vt -12.5 18
vt 12.5 15
vt 12.5 18
vt -5 18
vt 5 15
vt 5 18
vt 18 2.5
vt 12.5 2.5
vt 12.5 6
vt 18 6
vt -15 2.5
vt -12.5 2.5
vt -12.5 2.5
vt -18 2.5
vt -18 6
vt -12.5 6
vt 12.5 2.5
vt 15 2.5
vt 0 2.5
vt -5 2.5
vt -5 2.5
vt -5 6
vt 0 2.5
vt 5 2.5
vt 5 2.5
vt 5 6
vt 5 2.5
vt 0 2.5
vt -5 2.5
vt 0 2.5
vt -15 6
vt -18 2.5
vt -18 6
vt -15 2.5
vt 18 6
vt 15 2.5
vt 15 6
vt 18 2.5
vt -5 18.5
vt -12.5 18.5
vt -18.5 18.5
vt -18.5 12.5
vt -18.5 5
vt 20 -1.4905797
vt 12.5 -1.4905797
vt 12.5 0.6983247
vt 18 0.6983247
vt -15 0.5
vt -12.5 0.5
vt -12.5 -1.4905797
vt -20 -1.4905797
vt -18 0.6983247
vt -12.5 0.6983247
vt 12.5 0.5
vt 15 0.5
vt 0 0.5
vt -5 0.5
vt -5 -1.4905801
vt -5 0.6983244
vt 0 0.5
vt 5 0.5
vt 5 -1.4905801
vt 5 0.6983244
vt 5 0.5
vt 0 0.5
vt -5 0.5
vt 0 0.5
vt -18 0.5
vt -15 0.5
vt 15 0.5
vt 18 0.5
vt -20 0.5
vt 20 0.5
vt 18.5 -4.8241367
vt 12.5 -4.8241367
vt 12.5 -1.9881033
vt 20 -1.9881033
vt 20 -1.9881033
vt 12.5 -1.9881033
vt 12.5 -1.4905797
vt 20 -1.4905797
vt -12.5 0
vt -15 -3
vt -15 0
vt -12.5 -3
vt -12.5 -4.8241367
vt -18.5 -4.8241367
vt -20 -1.9881033
vt -12.5 -1.9881033
vt -12.5 -1.9881033
vt -20 -1.9881033
vt -20 -1.4905797
vt -12.5 -1.4905797
vt 15 0
vt 12.5 -3
vt 12.5 0
vt 15 -3
vt 0 -3
vt -5 -3
vt -5 0
vt 0 0
vt -5 -4.8241367
vt -5 -1.9881035
vt -5 -1.9881035
vt -5 -1.4905801
vt 5 0
vt 0 -3
vt 0 0
vt 5 -3
vt 5 -4.8241367
vt 5 -1.9881035
vt 5 -1.9881035
vt 5 -1.4905801
vt 5 -3
vt 0 -3
vt 0 0
vt 5 0
vt -5 0
vt -5 -3
vt 0 0
vt 0 -3
vt -15 0
vt -18 -3
vt -18 0
vt -15 -3
vt 18 0
vt 15 -3
vt 15 0
vt 18 -3
vt -18.5 -3
vt -20 0
vt 20 0
vt 18.5 -3
vn -0 1 0
vn -0 1 0
vn -0 1 0
vn -0 1 0
vn -0 -1 0
vn -0 -1 0
vn -0 -1 0
vn -0 -1 0
vn -0 1 0
vn -0 1 0
vn -0 1 0
vn -0 1 0
vn -0 1 0
vn -0 1 0
vn -0 -1 0
vn -0 -1 0
vn -0 -1 0
vn -0 -1 0
vn -0 1 0
vn -0 1 0
vn -0 1 0
vn -0 1 0
vn -0 1 0
vn -0 1 0
vn -0 -1 0
vn -0 -1 0
vn -0 -1 0
vn -0 -1 0
vn -0 1 0
vn -0 1 0
vn -0 1 0
vn -0 1 0
vn -0 1 0
vn -0 -1 0
vn -0 -1 0
vn -0 -1 0
vn -0 -1 0
vn -0 0 -1
vn -0 0 -1
vn -0 0 -1
vn -0 0 -1
vn 1 0 0
vn 1 0 0
vn 1 0 0
vn 1 0 0
vn -1 0 0
vn -1 0 0
vn -1 0 0
vn -1 0 0
vn -0 0 1
vn -0 0 1
vn -0 0 1
vn -0 0 1
vn -1 0 0
vn -1 0 0
vn -0 0 1
vn -0 0 1
vn -0 0 -1
vn -0 0 -1
vn -0 0 -1
vn -0 0 -1
vn 1 0 0
vn 1 0 0
vn 1 0 0
vn 1 0 0
vn -1 0 0
vn -1 0 0
vn 1 0 0
vn 1 0 0
vn 1 0 0
vn 1 0 0
vn -0 0 1
vn -0 0 1
vn -0 0 -1
vn -0 0 -1
vn -0 0 -1
vn -0 0 -1
vn -0 0 1
vn -0 0 1
vn -0 0 1
vn -0 0 -1
vn -0 0 -1
vn -0 0 -1
vn -0 0 -1
vn -1 0 0
vn -1 0 0
vn -1 0 0
vn 1 0 0
vn 1 0 0
vn 1 0 0
vn 1 0 0
vn -0 -1 0
vn -0 -1 0
vn -0 1 0
vn -0 1 0
vn -0 1 0
vn -0 1 0
vn -0 1 0
vn -0 1 0
vn -0 -1 0
vn -0 -1 0
vn -0 1 0
vn -0 1 0
vn -0 -1 0
vn -0 1 0
vn -0 1 0
vn -1 0 0
vn -1 0 0
vn -1 0 0
vn -1 0 0
vn 1 0 0
vn 1 0 0
vn -0 0 1
vn -0 0 1
vn -0 0 1
vn -0 0 1
vn -0 0 -1
vn -0 0 -1
vn -0 0 1
vn -0 0 1
vn -0 0 1
vn -0 0 1
vn -0 0 -1
vn -0 0 -1
vn -1 0 0
vn -1 0 0
vn -1 0 0
vn -1 0 0
vn 1 0 0
vn 1 0 0
vn 1 0 0
vn 1 0 0
vn 1 0 0
vn 1 0 0
vn -0 0 -1
vn -0 0 -1
vn -0 0 -1
vn -0 0 -1
vn -0 -1 0
vn -0 -1 0
vn -0 -1 0
vn -0 -1 0
vn -0 -1 0
vn -0.70710677 0.70710677 0
vn -0.70710677 0.70710677 0
vn -0.70710677 0.70710677 0
vn -0.70710677 0.70710677 0
vn 1 0 0
vn 1 0 0
vn -0 0.70710677 0.70710677
vn -0 0.70710677 0.70710677
vn -0 0.70710677 0.70710677
vn -0 0.70710677 0.70710677
vn -0 0 -1
vn -0 0 -1
vn -0 0 1
vn -0 0 1
vn -0 0.70710677 0.70710677
vn -0 0.70710677 0.70710677
vn -0 0 -1
vn -0 0 -1
vn -0.70710677 0.70710677 0
vn -0.70710677 0.70710677 0
vn -1 0 0
vn -1 0 0
vn 1 0 0
vn 1 0 0
vn 1 0 0
vn 1 0 0
vn -0 0 -1
vn -0 0 -1
vn 1 0 0
vn -0 0 -1
vn -0.8944272 -0.4472136 0
vn -0.89442724 -0.44721362 0
vn -0.8944272 -0.4472136 0
vn -0.8944272 -0.4472136 0
vn -1 0 0
vn -1 0 0
vn -1 0 0
vn -1 0 0
vn 1 0 0
vn 1 0 0
vn 1 0 0
vn 1 0 0
vn -0 -0.4472136 0.8944272
vn -0 -0.44721362 0.89442724
vn -0 -0.4472136 0.8944272
vn -0 -0.4472136 0.8944272
vn -0 0 1
vn -0 0 1
vn -0 0 1
vn -0 0 1
vn -0 0 -1
vn -0 0 -1
vn -0 0 -1
vn -0 0 -1
vn -0 0 1
vn -0 0 1
vn -0 0 1
vn -0 0 1
vn -0 -0.4472136 0.8944272
vn -0 -0.4472136 0.8944272
vn -0 0 1
vn -0 0 1
vn -0 0 -1
vn -0 0 -1
vn -0 0 -1
vn -0 0 -1
vn -0.8944272 -0.4472136 0
vn -0.8944272 -0.4472136 0
vn -1 0 0
vn -1 0 0
vn -1 0 0
vn -1 0 0
vn -1 0 0
vn -1 0 0
vn 1 0 0
vn 1 0 0
vn 1 0 0
vn 1 0 0
vn 1 0 0
vn 1 0 0
vn 1 0 0
vn 1 0 0
vn -0 0 -1
vn -0 0 -1
vn -0 0 -1
vn -0 0 -1
vn 1 0 0
vn 1 0 0
vn -0 0 -1
vn -0 0 -1
g pb_Mesh75244_0
f 3/3/3 2/2/2 1/1/1
f 3/3/3 1/1/1 4/4/4
f 7/7/7 6/6/6 5/5/5
f 6/6/6 8/8/8 5/5/5
f 10/10/10 9/9/9 2/2/2
f 10/10/10 2/2/2 3/3/3
f 13/13/13 12/12/12 11/11/11
f 13/13/13 11/11/11 14/14/14
f 5/5/5 8/8/8 15/15/15
f 8/8/8 16/16/16 15/15/15
f 15/15/15 16/16/16 17/17/17
f 16/16/16 18/18/18 17/17/17
f 21/21/21 20/20/20 19/19/19
f 21/21/21 19/19/19 22/22/22
f 2/2/2 24/24/24 23/23/23
f 2/2/2 23/23/23 1/1/1
f 27/27/27 26/26/26 25/25/25
f 26/26/26 28/28/28 25/25/25
f 6/6/6 27/27/27 8/8/8
f 27/27/27 25/25/25 8/8/8
f 30/30/30 29/29/29 20/20/20
f 30/30/30 20/20/20 21/21/21
f 11/11/11 30/30/30 21/21/21
f 11/11/11 21/21/21 31/31/31
f 33/33/33 32/32/32 29/29/29
f 33/33/33 29/29/29 30/30/30
f 12/12/12 33/33/33 30/30/30
f 12/12/12 30/30/30 11/11/11
f 25/25/25 28/28/28 34/34/34
f 28/28/28 35/35/35 34/34/34
f 8/8/8 25/25/25 16/16/16
f 25/25/25 34/34/34 16/16/16
f 34/34/34 35/35/35 36/36/36
f 35/35/35 37/37/37 36/36/36
f 16/16/16 34/34/34 18/18/18
f 34/34/34 36/36/36 18/18/18
f 40/40/40 39/39/39 38/38/38
f 40/40/40 41/41/41 39/39/39
f 44/44/44 43/43/43 42/42/42
f 44/44/44 45/45/45 43/43/43
f 48/48/48 47/47/47 46/46/46
f 48/48/48 49/49/49 47/47/47
f 52/52/52 51/51/51 50/50/50
f 52/52/52 53/53/53 51/51/51
f 55/55/55 46/46/46 54/54/54
f 55/55/55 48/48/48 46/46/46
f 53/53/53 56/56/56 51/51/51
f 53/53/53 57/57/57 56/56/56
f 60/60/60 59/59/59 58/58/58
f 60/60/60 61/61/61 59/59/59
f 64/64/64 63/63/63 62/62/62
f 64/64/64 65/65/65 63/63/63
f 46/46/46 67/67/67 66/66/66
f 46/46/46 66/66/66 54/54/54
f 70/70/70 69/69/69 68/68/68
f 69/69/69 71/71/71 68/68/68
f 56/56/56 73/73/73 72/72/72
f 56/56/56 72/72/72 51/51/51
f 76/76/76 75/75/75 74/74/74
f 75/75/75 77/77/77 74/74/74
f 50/50/50 79/79/79 78/78/78
f 50/50/50 78/78/78 80/80/80
f 51/51/51 72/72/72 79/79/79
f 51/51/51 79/79/79 50/50/50
f 83/83/83 82/82/82 81/81/81
f 82/82/82 84/84/84 81/81/81
f 81/81/81 84/84/84 76/76/76
f 84/84/84 75/75/75 76/76/76
f 47/47/47 85/85/85 67/67/67
f 47/47/47 67/67/67 46/46/46
f 87/87/87 86/86/86 85/85/85
f 87/87/87 85/85/85 47/47/47
f 68/68/68 71/71/71 88/88/88
f 71/71/71 89/89/89 88/88/88
f 88/88/88 89/89/89 90/90/90
f 89/89/89 91/91/91 90/90/90
f 92/92/92 6/6/6 7/7/7
f 92/92/92 93/93/93 6/6/6
f 96/96/96 95/95/95 94/94/94
f 96/96/96 97/97/97 95/95/95
f 97/97/97 98/98/98 95/95/95
f 97/97/97 99/99/99 98/98/98
f 93/93/93 27/27/27 6/6/6
f 93/93/93 100/100/100 27/27/27
f 101/101/101 7/7/7 5/5/5
f 101/101/101 92/92/92 7/7/7
f 99/99/99 102/102/102 98/98/98
f 99/99/99 103/103/103 102/102/102
f 104/104/104 5/5/5 15/15/15
f 104/104/104 101/101/101 5/5/5
f 103/103/103 105/105/105 102/102/102
f 103/103/103 106/106/106 105/105/105
f 109/109/109 108/108/108 107/107/107
f 109/109/109 107/107/107 110/110/110
f 69/69/69 111/111/111 71/71/71
f 111/111/111 112/112/112 71/71/71
f 115/115/115 114/114/114 113/113/113
f 115/115/115 113/113/113 116/116/116
f 75/75/75 117/117/117 77/77/77
f 117/117/117 118/118/118 77/77/77
f 79/79/79 120/120/120 119/119/119
f 79/79/79 119/119/119 78/78/78
f 116/116/116 113/113/113 121/121/121
f 116/116/116 121/121/121 122/122/122
f 82/82/82 123/123/123 84/84/84
f 123/123/123 124/124/124 84/84/84
f 84/84/84 124/124/124 75/75/75
f 124/124/124 117/117/117 75/75/75
f 126/126/126 125/125/125 108/108/108
f 126/126/126 108/108/108 109/109/109
f 86/86/86 128/128/128 127/127/127
f 86/86/86 127/127/127 85/85/85
f 71/71/71 112/112/112 89/89/89
f 112/112/112 129/129/129 89/89/89
f 89/89/89 129/129/129 91/91/91
f 129/129/129 130/130/130 91/91/91
f 133/133/133 132/132/132 131/131/131
f 132/132/132 134/134/134 131/131/131
f 137/137/137 136/136/136 135/135/135
f 136/136/136 138/138/138 135/135/135
f 139/139/139 101/101/101 104/104/104
f 139/139/139 140/140/140 101/101/101
f 140/140/140 92/92/92 101/101/101
f 140/140/140 141/141/141 92/92/92
f 141/141/141 93/93/93 92/92/92
f 141/141/141 142/142/142 93/93/93
f 142/142/142 100/100/100 93/93/93
f 142/142/142 143/143/143 100/100/100
f 146/146/146 145/145/145 144/144/144
f 146/146/146 144/144/144 147/147/147
f 111/111/111 148/148/148 112/112/112
f 148/148/148 149/149/149 112/112/112
f 152/152/152 151/151/151 150/150/150
f 152/152/152 150/150/150 153/153/153
f 117/117/117 154/154/154 118/118/118
f 154/154/154 155/155/155 118/118/118
f 120/120/120 157/157/157 156/156/156
f 120/120/120 156/156/156 119/119/119
f 153/153/153 150/150/150 158/158/158
f 153/153/153 158/158/158 159/159/159
f 123/123/123 160/160/160 124/124/124
f 160/160/160 161/161/161 124/124/124
f 124/124/124 161/161/161 117/117/117
f 161/161/161 154/154/154 117/117/117
f 163/163/163 162/162/162 145/145/145
f 163/163/163 145/145/145 146/146/146
f 128/128/128 165/165/165 164/164/164
f 128/128/128 164/164/164 127/127/127
f 112/112/112 149/149/149 129/129/129
f 149/149/149 166/166/166 129/129/129
f 129/129/129 166/166/166 130/130/130
f 166/166/166 167/167/167 130/130/130
f 132/132/132 168/168/168 134/134/134
f 168/168/168 169/169/169 134/134/134
f 136/136/136 170/170/170 138/138/138
f 170/170/170 171/171/171 138/138/138
f 172/172/172 168/168/168 132/132/132
f 171/171/171 173/173/173 138/138/138
f 176/176/176 175/175/175 174/174/174
f 176/176/176 174/174/174 177/177/177
f 180/180/180 179/179/179 178/178/178
f 180/180/180 178/178/178 181/181/181
f 184/184/184 183/183/183 182/182/182
f 183/183/183 185/185/185 182/182/182
f 148/148/148 184/184/184 149/149/149
f 184/184/184 182/182/182 149/149/149
f 188/188/188 187/187/187 186/186/186
f 188/188/188 186/186/186 189/189/189
f 192/192/192 191/191/191 190/190/190
f 192/192/192 190/190/190 193/193/193
f 196/196/196 195/195/195 194/194/194
f 195/195/195 197/197/197 194/194/194
f 154/154/154 196/196/196 155/155/155
f 196/196/196 194/194/194 155/155/155
f 200/200/200 199/199/199 198/198/198
f 200/200/200 198/198/198 201/201/201
f 157/157/157 200/200/200 201/201/201
f 157/157/157 201/201/201 156/156/156
f 189/189/189 186/186/186 202/202/202
f 189/189/189 202/202/202 203/203/203
f 193/193/193 190/190/190 204/204/204
f 193/193/193 204/204/204 205/205/205
f 208/208/208 207/207/207 206/206/206
f 207/207/207 209/209/209 206/206/206
f 160/160/160 208/208/208 161/161/161
f 208/208/208 206/206/206 161/161/161
f 206/206/206 209/209/209 196/196/196
f 209/209/209 195/195/195 196/196/196
f 161/161/161 206/206/206 154/154/154
f 206/206/206 196/196/196 154/154/154
f 211/211/211 210/210/210 175/175/175
f 211/211/211 175/175/175 176/176/176
f 213/213/213 212/212/212 179/179/179
f 213/213/213 179/179/179 180/180/180
f 216/216/216 215/215/215 214/214/214
f 216/216/216 214/214/214 217/217/217
f 165/165/165 216/216/216 217/217/217
f 165/165/165 217/217/217 164/164/164
f 182/182/182 185/185/185 218/218/218
f 185/185/185 219/219/219 218/218/218
f 149/149/149 182/182/182 166/166/166
f 182/182/182 218/218/218 166/166/166
f 218/218/218 219/219/219 220/220/220
f 219/219/219 221/221/221 220/220/220
f 166/166/166 218/218/218 167/167/167
f 218/218/218 220/220/220 167/167/167
f 224/224/224 223/223/223 222/222/222
f 223/223/223 225/225/225 222/222/222
f 168/168/168 224/224/224 169/169/169
f 224/224/224 222/222/222 169/169/169
f 228/228/228 227/227/227 226/226/226
f 227/227/227 229/229/229 226/226/226
f 170/170/170 228/228/228 171/171/171
f 228/228/228 226/226/226 171/171/171
f 231/231/231 230/230/230 224/224/224
f 230/230/230 223/223/223 224/224/224
f 172/172/172 231/231/231 168/168/168
f 231/231/231 224/224/224 168/168/168
f 226/226/226 229/229/229 232/232/232
f 229/229/229 233/233/233 232/232/232
f 171/171/171 226/226/226 173/173/173
f 226/226/226 232/232/232 173/173/173
