g pb_Mesh86052
v -66 -28 -60
v -58 -28 -60
v -62 -28 -20
v -66 -28 -20
v -46 -28 -60
v -46 -28 -20
v -4 -28 -60
v -4 -28 -20
v 8 -28 -60
v 12 -28 -20
v 16 -28 -60
v 16 -28 -20
v -62 -28 -12
v -66 -28 -12
v -62 -28 0
v -66 -28 0
v -46 -28 -12
v 12 -28 -12
v -4 -28 -12
v 16 -28 -12
v 16 -28 0
v 12 -28 0
v 12 -28 0
v -4 -28 0
v 12 -24 0
v -4 -24 0
v -46 -28 0
v -46 -24 0
v -62 -28 0
v -62 -24 0
v -62 -28 -12
v -46 -28 -12
v -62 -28 -20
v -46 -28 -20
v -46 -28 -12
v -46 -24 -12
v -46 -28 -20
v -4 -28 -12
v 12 -28 -12
v -4 -28 -20
v 12 -28 -20
v -4 -24 -12
v -4 -28 -12
v -4 -28 -20
v -62 -24 -12
v -46 -24 -12
v -46 -24 0
v -62 -24 0
v -46 -24 -20
v -4 -24 -20
v -4 -24 -12
v -4 -24 0
v 12 -24 -12
v 12 -24 0
v -46 -24 5
v -4 -24 5
v -46 -24 -12
v -62 -24 -12
v -46 -28 -20
v -62 -28 -20
v 12 -24 -12
v -4 -24 -12
v 12 -28 -20
v -4 -28 -20
v -62 -24 0
v -46 -28 0
v -46 -24 0
v -62 -28 0
v -66 -24 0
v -66 -28 0
v -46 -28 -60
v -58 -28 -60
v -58 -24 -60
v -46 -24 -60
v -66 -28 -60
v -66 -24 -60
v -4 -28 0
v -4 -24 0
v -4 -28 -60
v -4 -24 -60
v 12 -24 0
v 16 -28 0
v 16 -24 0
v 12 -28 0
v 16 -28 -60
v 8 -28 -60
v 8 -24 -60
v 16 -24 -60
v -66 -24 -60
v -66 -28 -20
v -66 -24 -20
v -66 -28 -60
v 16 -28 -20
v 16 -28 -60
v 16 -24 -60
v 16 -24 -20
v -58 12 -20
v -66 12 -60
v -66 12 -20
v -58 12 -60
v -46 12 -20
v -46 12 -60
v -4 12 -20
v -4 12 -60
v 8 12 -20
v 8 12 -60
v 16 12 -20
v 16 12 -60
v -66 -24 -12
v -66 -28 0
v -66 -24 0
v -66 -28 -12
v 16 -28 0
v 16 -28 -12
v 16 -24 -12
v 16 -24 0
v -58 12 -12
v -66 12 -12
v -58 12 0
v -66 12 0
v -46 12 -12
v -46 12 0
v -4 12 -12
v -4 12 0
v 8 12 -12
v 8 12 0
v 16 12 -12
v 16 12 0
v -58 0 0
v -46 0 0
v -58 12 0
v -46 12 0
v -66 0 0
v -66 12 0
v -58 0 -60
v -46 0 -60
v -58 12 -60
v -46 12 -60
v -66 0 -60
v -66 12 -60
v -46 0 5
v -4 -24 5
v -4 0 5
v -46 -24 5
v -4 0 0
v -4 12 0
v -4 0 -60
v -4 12 -60
v 8 0 0
v 16 0 0
v 8 12 0
v 16 12 0
v 8 0 -60
v 16 0 -60
v 8 12 -60
v 16 12 -60
v -66 0 -60
v -66 0 -20
v -66 12 -60
v -66 12 -20
v 16 0 -60
v 16 0 -20
v 16 12 -60
v 16 12 -20
v -66 0 -12
v -66 0 0
v -66 12 -12
v -66 12 0
v 16 0 -12
v 16 0 0
v 16 12 -12
v 16 12 0
v -4 -24 0
v -4 0 0
v -4 -24 5
v -4 0 5
v -4 0 0
v -46 0 0
v -4 0 5
v -46 0 5
v -46 0 0
v -46 -24 0
v -46 0 5
v -46 -24 5
v -46 -28 -20
v -4 -28 -20
v -46 -24 -20
v -4 -24 -20
v -4 -28 -20
v -4 -28 -12
v -4 -24 -20
v -4 -24 -12
v -46 -28 -12
v -46 -28 -20
v -46 -24 -12
v -46 -24 -20
v -62 -28 0
v -62 -28 -12
v -62 -24 0
v -62 -24 -12
v 12 -28 -12
v 12 -28 0
v 12 -24 -12
v 12 -24 0
v -62 -28 -20
v 12 -28 -20
vt 66 -60
vt 58 -60
vt 62 -20
vt 66 -20
vt 46 -60
vt 46 -20
vt 4 -60
vt 4 -20
vt -8 -60
vt -12 -20
vt -16 -60
vt -16 -20
vt 62 -12
vt 66 -12
vt 62 0
vt 66 0
vt 46 -12
vt -12 -12
vt 4 -12
vt -16 -12
vt -16 0
vt -12 0
vt 12 -28
vt -4 -28
vt 12 -24
vt -4 -24
vt -46 -28
vt -46 -24
vt -62 -28
vt -62 -24
vt -62 -12
vt -46 -12
vt -62 -20
vt -46 -20
vt 12 -28
vt 12 -24
vt 20 -28
vt -4 -12
vt 12 -12
vt -4 -20
vt 12 -20
vt -12 -24
vt -12 -28
vt -20 -28
vt 62 -12
vt 46 -12
vt 46 0
vt 62 0
vt 46 -20
vt 4 -20
vt 4 -12
vt 4 0
vt -12 -12
vt -12 0
vt 46 5
vt 4 5
vt 46 -21.466251
vt 62 -21.466251
vt 46 -30.410524
vt 62 -30.410524
vt -12 -21.466251
vt 4 -21.466251
vt -12 -30.410524
vt 4 -30.410524
vt 62 -24
vt 46 -28
vt 46 -24
vt 62 -28
vt 66 -24
vt 66 -28
vt -46 -28
vt -58 -28
vt -58 -24
vt -46 -24
vt -66 -28
vt -66 -24
vt 4 -28
vt 4 -24
vt -4 -28
vt -4 -24
vt -12 -24
vt -16 -28
vt -16 -24
vt -12 -28
vt 16 -28
vt 8 -28
vt 8 -24
vt 16 -24
vt 60 -24
vt 20 -28
vt 20 -24
vt 60 -28
vt -20 -28
vt -60 -28
vt -60 -24
vt -20 -24
vt -58 -20
vt -66 -60
vt -66 -20
vt -58 -60
vt -46 -20
vt -46 -60
vt -4 -20
vt -4 -60
vt 8 -20
vt 8 -60
vt 16 -20
vt 16 -60
vt 12 -24
vt 0 -28
vt 0 -24
vt 12 -28
vt 0 -28
vt -12 -28
vt -12 -24
vt 0 -24
vt -58 -12
vt -66 -12
vt -58 0
vt -66 0
vt -46 -12
vt -46 0
vt -4 -12
vt -4 0
vt 8 -12
vt 8 0
vt 16 -12
vt 16 0
vt 58 0
vt 46 0
vt 58 12
vt 46 12
vt 66 0
vt 66 12
vt -58 0
vt -46 0
vt -58 12
vt -46 12
vt -66 0
vt -66 12
vt 46 0
vt 4 -24
vt 4 0
vt 46 -24
vt 4 0
vt 4 12
vt -4 0
vt -4 12
vt -8 0
vt -16 0
vt -8 12
vt -16 12
vt 8 0
vt 16 0
vt 8 12
vt 16 12
vt 60 0
vt 20 0
vt 60 12
vt 20 12
vt -60 0
vt -20 0
vt -60 12
vt -20 12
vt 12 0
vt 0 0
vt 12 12
vt 0 12
vt -12 0
vt 0 0
vt -12 12
vt 0 12
vt 0 -24
vt 0 0
vt 5 -24
vt 5 0
vt -4 0
vt -46 0
vt -4 5
vt -46 5
vt 0 0
vt 0 -24
vt -5 0
vt -5 -24
vt 46 -28
vt 4 -28
vt 46 -24
vt 4 -24
vt 20 -28
vt 12 -28
vt 20 -24
vt 12 -24
vt -12 -28
vt -20 -28
vt -12 -24
vt -20 -24
vt 0 -28
vt -12 -28
vt 0 -24
vt -12 -24
vt 12 -28
vt -0 -28
vt 12 -24
vt -0 -24
vt -20 -28
vt 20 -28
vn -0 1 0
vn -0 1 0
vn -0 1 0
vn -0 1 0
vn -0 1 0
vn -0 1 0
vn -0 1 0
vn -0 1 0
vn -0 1 0
vn -0 1 0
vn -0 1 0
vn -0 1 0
vn -0 1 0
vn -0 1 0
vn -0 1 0
vn -0 1 0
vn -0 1 0
vn -0 1 0
vn -0 1 0
vn -0 1 0
vn -0 1 0
vn -0 1 0
vn -0 0 1
vn -0 0 1
vn -0 0 1
vn -0 0 1
vn -0 0 1
vn -0 0 1
vn -0 0 1
vn -0 0 1
vn -0 -1 0
vn -0 -1 0
vn -0 -1 0
vn -0 -1 0
vn 1 0 0
vn 1 0 0
vn 1 0 0
vn -0 -1 0
vn -0 -1 0
vn -0 -1 0
vn -0 -1 0
vn -1 0 0
vn -1 0 0
vn -1 0 0
vn -0 1 0
vn -0 1 0
vn -0 1 0
vn -0 1 0
vn -0 1 0
vn -0 1 0
vn -0 1 0
vn -0 1 0
vn -0 1 0
vn -0 1 0
vn -0 1 0
vn -0 1 0
vn -0 0.8944272 -0.4472136
vn -0 0.8944272 -0.4472136
vn -0 0.8944272 -0.4472136
vn -0 0.8944272 -0.4472136
vn -0 0.8944272 -0.4472136
vn -0 0.8944272 -0.4472136
vn -0 0.8944272 -0.4472136
vn -0 0.8944272 -0.4472136
vn -0 0 -1
vn -0 0 -1
vn -0 0 -1
vn -0 0 -1
vn -0 0 -1
vn -0 0 -1
vn -0 0 1
vn -0 0 1
vn -0 0 1
vn -0 0 1
vn -0 0 1
vn -0 0 1
vn -0 0 -1
vn -0 0 -1
vn -0 0 1
vn -0 0 1
vn -0 0 -1
vn -0 0 -1
vn -0 0 -1
vn -0 0 -1
vn -0 0 1
vn -0 0 1
vn -0 0 1
vn -0 0 1
vn 1 0 0
vn 1 0 0
vn 1 0 0
vn 1 0 0
vn -1 0 0
vn -1 0 0
vn -1 0 0
vn -1 0 0
vn -0 -1 0
vn -0 -1 0
vn -0 -1 0
vn -0 -1 0
vn -0 -1 0
vn -0 -1 0
vn -0 -1 0
vn -0 -1 0
vn -0 -1 0
vn -0 -1 0
vn -0 -1 0
vn -0 -1 0
vn 1 0 0
vn 1 0 0
vn 1 0 0
vn 1 0 0
vn -1 0 0
vn -1 0 0
vn -1 0 0
vn -1 0 0
vn -0 -1 0
vn -0 -1 0
vn -0 -1 0
vn -0 -1 0
vn -0 -1 0
vn -0 -1 0
vn -0 -1 0
vn -0 -1 0
vn -0 -1 0
vn -0 -1 0
vn -0 -1 0
vn -0 -1 0
vn -0 0 -1
vn -0 0 -1
vn -0 0 -1
vn -0 0 -1
vn -0 0 -1
vn -0 0 -1
vn -0 0 1
vn -0 0 1
vn -0 0 1
vn -0 0 1
vn -0 0 1
vn -0 0 1
vn -0 0 -1
vn -0 0 -1
vn -0 0 -1
vn -0 0 -1
vn -0 0 -1
vn -0 0 -1
vn -0 0 1
vn -0 0 1
vn -0 0 -1
vn -0 0 -1
vn -0 0 -1
vn -0 0 -1
vn -0 0 1
vn -0 0 1
vn -0 0 1
vn -0 0 1
vn 1 0 0
vn 1 0 0
vn 1 0 0
vn 1 0 0
vn -1 0 0
vn -1 0 0
vn -1 0 0
vn -1 0 0
vn 1 0 0
vn 1 0 0
vn 1 0 0
vn 1 0 0
vn -1 0 0
vn -1 0 0
vn -1 0 0
vn -1 0 0
vn -1 0 0
vn -1 0 0
vn -1 0 0
vn -1 0 0
vn -0 -1 0
vn -0 -1 0
vn -0 -1 0
vn -0 -1 0
vn 1 0 0
vn 1 0 0
vn 1 0 0
vn 1 0 0
vn -0 0 -1
vn -0 0 -1
vn -0 0 -1
vn -0 0 -1
vn 1 0 0
vn 1 0 0
vn 1 0 0
vn 1 0 0
vn -1 0 0
vn -1 0 0
vn -1 0 0
vn -1 0 0
vn -1 0 0
vn -1 0 0
vn -1 0 0
vn -1 0 0
vn 1 0 0
vn 1 0 0
vn 1 0 0
vn 1 0 0
vn -1 0 0
vn 1 0 0
g pb_Mesh86052_0
f 3/3/3 2/2/2 1/1/1
f 3/3/3 1/1/1 4/4/4
f 6/6/6 5/5/5 2/2/2
f 6/6/6 2/2/2 3/3/3
f 8/8/8 7/7/7 5/5/5
f 8/8/8 5/5/5 6/6/6
f 10/10/10 9/9/9 7/7/7
f 10/10/10 7/7/7 8/8/8
f 12/12/12 11/11/11 9/9/9
f 12/12/12 9/9/9 10/10/10
f 13/13/13 3/3/3 4/4/4
f 13/13/13 4/4/4 14/14/14
f 15/15/15 13/13/13 14/14/14
f 15/15/15 14/14/14 16/16/16
f 17/17/17 6/6/6 3/3/3
f 17/17/17 3/3/3 13/13/13
f 18/18/18 10/10/10 8/8/8
f 18/18/18 8/8/8 19/19/19
f 20/20/20 12/12/12 10/10/10
f 20/20/20 10/10/10 18/18/18
f 21/21/21 20/20/20 18/18/18
f 21/21/21 18/18/18 22/22/22
f 25/25/25 24/24/24 23/23/23
f 25/25/25 26/26/26 24/24/24
f 26/26/26 27/27/27 24/24/24
f 26/26/26 28/28/28 27/27/27
f 28/28/28 29/29/29 27/27/27
f 28/28/28 30/30/30 29/29/29
f 33/33/33 32/32/32 31/31/31
f 33/33/33 34/34/34 32/32/32
f 37/37/37 36/36/36 35/35/35
f 40/40/40 39/39/39 38/38/38
f 40/40/40 41/41/41 39/39/39
f 44/44/44 43/43/43 42/42/42
g pb_Mesh86052_1
f 47/47/47 46/46/46 45/45/45
f 47/47/47 45/45/45 48/48/48
f 51/51/51 50/50/50 49/49/49
f 51/51/51 49/49/49 46/46/46
f 52/52/52 51/51/51 46/46/46
f 52/52/52 46/46/46 47/47/47
f 54/54/54 53/53/53 51/51/51
f 54/54/54 51/51/51 52/52/52
f 55/55/55 52/52/52 47/47/47
f 55/55/55 56/56/56 52/52/52
f 59/59/59 58/58/58 57/57/57
f 59/59/59 60/60/60 58/58/58
f 63/63/63 62/62/62 61/61/61
f 63/63/63 64/64/64 62/62/62
g pb_Mesh86052_2
f 67/67/67 66/66/66 65/65/65
f 66/66/66 68/68/68 65/65/65
f 65/65/65 68/68/68 69/69/69
f 68/68/68 70/70/70 69/69/69
f 73/73/73 72/72/72 71/71/71
f 73/73/73 71/71/71 74/74/74
f 76/76/76 75/75/75 72/72/72
f 76/76/76 72/72/72 73/73/73
f 78/78/78 77/77/77 67/67/67
f 77/77/77 66/66/66 67/67/67
f 74/74/74 71/71/71 79/79/79
f 74/74/74 79/79/79 80/80/80
f 83/83/83 82/82/82 81/81/81
f 82/82/82 84/84/84 81/81/81
f 81/81/81 84/84/84 78/78/78
f 84/84/84 77/77/77 78/78/78
f 87/87/87 86/86/86 85/85/85
f 87/87/87 85/85/85 88/88/88
f 80/80/80 79/79/79 86/86/86
f 80/80/80 86/86/86 87/87/87
f 91/91/91 90/90/90 89/89/89
f 90/90/90 92/92/92 89/89/89
f 95/95/95 94/94/94 93/93/93
f 95/95/95 93/93/93 96/96/96
f 99/99/99 98/98/98 97/97/97
f 98/98/98 100/100/100 97/97/97
f 97/97/97 100/100/100 101/101/101
f 100/100/100 102/102/102 101/101/101
f 101/101/101 102/102/102 103/103/103
f 102/102/102 104/104/104 103/103/103
f 103/103/103 104/104/104 105/105/105
f 104/104/104 106/106/106 105/105/105
f 105/105/105 106/106/106 107/107/107
f 106/106/106 108/108/108 107/107/107
f 111/111/111 110/110/110 109/109/109
f 110/110/110 112/112/112 109/109/109
f 109/109/109 112/112/112 91/91/91
f 112/112/112 90/90/90 91/91/91
f 115/115/115 114/114/114 113/113/113
f 115/115/115 113/113/113 116/116/116
f 96/96/96 93/93/93 114/114/114
f 96/96/96 114/114/114 115/115/115
f 118/118/118 99/99/99 117/117/117
f 99/99/99 97/97/97 117/117/117
f 120/120/120 118/118/118 119/119/119
f 118/118/118 117/117/117 119/119/119
f 117/117/117 97/97/97 121/121/121
f 97/97/97 101/101/101 121/121/121
f 119/119/119 117/117/117 122/122/122
f 117/117/117 121/121/121 122/122/122
f 121/121/121 101/101/101 123/123/123
f 101/101/101 103/103/103 123/123/123
f 122/122/122 121/121/121 124/124/124
f 121/121/121 123/123/123 124/124/124
f 123/123/123 103/103/103 125/125/125
f 103/103/103 105/105/105 125/125/125
f 124/124/124 123/123/123 126/126/126
f 123/123/123 125/125/125 126/126/126
f 125/125/125 105/105/105 127/127/127
f 105/105/105 107/107/107 127/127/127
f 126/126/126 125/125/125 128/128/128
f 125/125/125 127/127/127 128/128/128
f 130/130/130 67/67/67 129/129/129
f 67/67/67 65/65/65 129/129/129
f 132/132/132 130/130/130 131/131/131
f 130/130/130 129/129/129 131/131/131
f 129/129/129 65/65/65 133/133/133
f 65/65/65 69/69/69 133/133/133
f 131/131/131 129/129/129 134/134/134
f 129/129/129 133/133/133 134/134/134
f 135/135/135 73/73/73 74/74/74
f 135/135/135 74/74/74 136/136/136
f 137/137/137 135/135/135 136/136/136
f 137/137/137 136/136/136 138/138/138
f 139/139/139 76/76/76 73/73/73
f 139/139/139 73/73/73 135/135/135
f 140/140/140 139/139/139 135/135/135
f 140/140/140 135/135/135 137/137/137
f 143/143/143 142/142/142 141/141/141
f 142/142/142 144/144/144 141/141/141
f 146/146/146 145/145/145 132/132/132
f 145/145/145 130/130/130 132/132/132
f 136/136/136 74/74/74 80/80/80
f 136/136/136 80/80/80 147/147/147
f 138/138/138 136/136/136 147/147/147
f 138/138/138 147/147/147 148/148/148
f 150/150/150 83/83/83 149/149/149
f 83/83/83 81/81/81 149/149/149
f 152/152/152 150/150/150 151/151/151
f 150/150/150 149/149/149 151/151/151
f 149/149/149 81/81/81 145/145/145
f 81/81/81 78/78/78 145/145/145
f 151/151/151 149/149/149 146/146/146
f 149/149/149 145/145/145 146/146/146
f 153/153/153 87/87/87 88/88/88
f 153/153/153 88/88/88 154/154/154
f 155/155/155 153/153/153 154/154/154
f 155/155/155 154/154/154 156/156/156
f 147/147/147 80/80/80 87/87/87
f 147/147/147 87/87/87 153/153/153
f 148/148/148 147/147/147 153/153/153
f 148/148/148 153/153/153 155/155/155
f 158/158/158 91/91/91 157/157/157
f 91/91/91 89/89/89 157/157/157
f 160/160/160 158/158/158 159/159/159
f 158/158/158 157/157/157 159/159/159
f 161/161/161 95/95/95 96/96/96
f 161/161/161 96/96/96 162/162/162
f 163/163/163 161/161/161 162/162/162
f 163/163/163 162/162/162 164/164/164
f 166/166/166 111/111/111 165/165/165
f 111/111/111 109/109/109 165/165/165
f 168/168/168 166/166/166 167/167/167
f 166/166/166 165/165/165 167/167/167
f 165/165/165 109/109/109 158/158/158
f 109/109/109 91/91/91 158/158/158
f 167/167/167 165/165/165 160/160/160
f 165/165/165 158/158/158 160/160/160
f 169/169/169 115/115/115 116/116/116
f 169/169/169 116/116/116 170/170/170
f 171/171/171 169/169/169 170/170/170
f 171/171/171 170/170/170 172/172/172
f 162/162/162 96/96/96 115/115/115
f 162/162/162 115/115/115 169/169/169
f 164/164/164 162/162/162 169/169/169
f 164/164/164 169/169/169 171/171/171
f 175/175/175 174/174/174 173/173/173
f 175/175/175 176/176/176 174/174/174
f 179/179/179 178/178/178 177/177/177
f 179/179/179 180/180/180 178/178/178
f 183/183/183 182/182/182 181/181/181
f 183/183/183 184/184/184 182/182/182
g pb_Mesh86052_3
f 187/187/187 186/186/186 185/185/185
f 187/187/187 188/188/188 186/186/186
f 191/191/191 190/190/190 189/189/189
f 191/191/191 192/192/192 190/190/190
f 195/195/195 194/194/194 193/193/193
f 195/195/195 196/196/196 194/194/194
f 199/199/199 198/198/198 197/197/197
f 199/199/199 200/200/200 198/198/198
f 203/203/203 202/202/202 201/201/201
f 203/203/203 204/204/204 202/202/202
f 205/205/205 198/198/198 200/200/200
f 206/206/206 203/203/203 201/201/201
