g pb_Mesh96104
v -2 0 2
v -2 0 0
v -2 8 0
v -2 8 2
v -2 0 -10
v -2 8 -10
v 2 8 -10
v 2 0 0
v 2 8 0
v 2 0 -10
v 2 8 0
v -0 0 2
v -0 8 2
v 2 0 0
v -0 0 2
v -2 0 2
v -2 8 2
v -0 8 2
v -2 8 -10
v -0 0 -10
v -0 8 -10
v -2 0 -10
v 2 0 -10
v 2 8 -10
v -0 0 0
v -2 0 -10
v -2 0 0
v -0 0 -10
v 2 0 0
v 2 0 -10
v -0 0 2
v -2 0 2
v -2 8 0
v -0 8 0
v -0 8 2
v -2 8 2
v 2 8 0
v -2 8 -10
v -0 8 -10
v 2 8 -10
vt 2 0
vt 0 0
vt 0 8
vt 2 8
vt -10 0
vt -10 8
vt 10.004162 8
vt 0.76536685 0
vt 0.76536685 8
vt 10.004162 0
vt 0.76536685 8
vt -1.847759 0
vt -1.847759 8
vt 0.76536685 0
vt 0 0
vt -2 0
vt -2 8
vt 0 8
vt 2 8
vt 0 0
vt 0 8
vt 2 0
vt -2 0
vt -2 8
vt 0 0
vt -2 -10
vt -2 0
vt 0 -10
vt 2 0
vt 2 -10
vt 0 2
vt -2 2
vt 2 0
vt 0 0
vt 0 2
vt 2 2
vt -2 0
vt 2 -10
vt 0 -10
vt -2 -10
vn -1 0 0
vn -1 0 0
vn -1 0 0
vn -1 0 0
vn -1 0 0
vn -1 0 0
vn 1 0 0
vn 1 0 0
vn 1 0 0
vn 1 0 0
vn 0.70710677 0 0.70710677
vn 0.70710677 0 0.70710677
vn 0.70710677 0 0.70710677
vn 0.70710677 0 0.70710677
vn -0 0 1
vn -0 0 1
vn -0 0 1
vn -0 0 1
vn -0 0 -1
vn -0 0 -1
vn -0 0 -1
vn -0 0 -1
vn -0 0 -1
vn -0 0 -1
vn -0 -1 0
vn -0 -1 0
vn -0 -1 0
vn -0 -1 0
vn -0 -1 0
vn -0 -1 0
vn -0 -1 0
vn -0 -1 0
vn -0 1 0
vn -0 1 0
vn -0 1 0
vn -0 1 0
vn -0 1 0
vn -0 1 0
vn -0 1 0
vn -0 1 0
g pb_Mesh96104_0
f 3/3/3 2/2/2 1/1/1
f 3/3/3 1/1/1 4/4/4
f 6/6/6 5/5/5 2/2/2
f 6/6/6 2/2/2 3/3/3
f 9/9/9 8/8/8 7/7/7
f 8/8/8 10/10/10 7/7/7
f 13/13/13 12/12/12 11/11/11
f 12/12/12 14/14/14 11/11/11
f 17/17/17 16/16/16 15/15/15
f 17/17/17 15/15/15 18/18/18
f 21/21/21 20/20/20 19/19/19
f 20/20/20 22/22/22 19/19/19
f 24/24/24 23/23/23 21/21/21
f 23/23/23 20/20/20 21/21/21
f 27/27/27 26/26/26 25/25/25
f 26/26/26 28/28/28 25/25/25
f 25/25/25 28/28/28 29/29/29
f 28/28/28 30/30/30 29/29/29
f 32/32/32 27/27/27 31/31/31
f 27/27/27 25/25/25 31/31/31
f 25/25/25 29/29/29 31/31/31
g pb_Mesh96104_1
f 35/35/35 34/34/34 33/33/33
f 35/35/35 33/33/33 36/36/36
f 35/35/35 37/37/37 34/34/34
f 34/34/34 39/39/39 38/38/38
f 34/34/34 38/38/38 33/33/33
f 37/37/37 40/40/40 39/39/39
f 37/37/37 39/39/39 34/34/34
