g pb_Mesh-173110
v -0.74999964 -3 0.24999985
v -0.99999964 -3 0.24999976
v -0.74999875 3.7278137 0.24999964
v -0.99999875 3.7278137 0.24999851
v -0.99999964 -3 0.24999976
v -0.9999995 -3 -2.3841858E-07
v -0.99999875 3.7278137 0.24999851
v -0.9999995 3.7278137 -1.4956318E-06
v -0.9999995 -3 -2.3841858E-07
v -0.7499995 -3 -1.4901161E-07
v -0.9999995 3.7278137 -1.4956318E-06
v -0.7499995 3.7278137 -3.631435E-07
v 1.0000005 -3 4.7683716E-07
v 1.0000004 -3 0.25000048
v 1.0000005 3.7278137 -6.5120275E-08
v 1.0000013 3.7278137 0.24999994
v -0.74999875 3.7278137 0.24999964
v -0.99999875 3.7278137 0.24999851
v -0.7499995 3.7278137 -3.631435E-07
v -0.9999995 3.7278137 -1.4956318E-06
v -0.7499995 -3 -1.4901161E-07
v -0.9999995 -3 -2.3841858E-07
v -0.74999964 -3 0.24999985
v -0.99999964 -3 0.24999976
v 0.7500005 -3 3.874302E-07
v 0.75000036 -3 0.2500004
v 1.0000005 -3 4.7683716E-07
v 1.0000004 -3 0.25000048
v 0.7500005 3.7278137 -1.1976085E-06
v 0.7500005 -3 3.874302E-07
v 1.0000005 3.7278137 -6.5120275E-08
v 1.0000005 -3 4.7683716E-07
v 0.75000036 -3 0.2500004
v 0.75000125 3.7278137 0.24999881
v 1.0000004 -3 0.25000048
v 1.0000013 3.7278137 0.24999994
v 0.75000125 3.7278137 0.24999881
v 0.7500005 3.7278137 -1.1976085E-06
v 1.0000013 3.7278137 0.24999994
v 1.0000005 3.7278137 -6.5120275E-08
v -0.74999964 -3 0.24999985
v -0.74999875 3.7278137 0.24999964
v -0.7499995 -3 -1.4901161E-07
v -0.7499995 3.7278137 -3.631435E-07
v 0.75000125 3.7278137 0.24999881
v 0.75000036 -3 0.2500004
v 0.7500005 3.7278137 -1.1976085E-06
v 0.7500005 -3 3.874302E-07
v -0.7499996 -3 0.12499985
v -0.7499991 3.7278137 0.124999635
v 0.7500004 -3 0.12500039
v 0.7500009 3.7278137 0.1249988
vt -0.7499996 -3
vt -0.9999996 -3
vt -0.7499987 3.7278137
vt -0.9999987 3.7278137
vt -1.8749998 -3.0000002
vt -2.1249998 -3.0000002
vt -1.875001 3.7278135
vt -2.125001 3.7278135
vt 0.9999995 -3
vt 0.7499995 -3
vt 0.9999995 3.7278137
vt 0.7499995 3.7278137
vt 2.125 -3
vt 1.875 -3
vt 2.1250005 3.7278137
vt 1.8750005 3.7278137
vt 0.74999875 -1.8750004
vt 0.99999875 -1.8750014
vt 0.7499995 -2.1250005
vt 0.9999995 -2.1250014
vt -0.7499995 -2.1250002
vt -0.9999995 -2.1250002
vt -0.74999964 -1.8750001
vt -0.99999964 -1.8750002
vt 0.7500005 -2.1249995
vt 0.75000036 -1.8749996
vt 1.0000005 -2.1249995
vt 1.0000004 -1.8749995
vt -0.7500005 3.7278137
vt -0.7500005 -3
vt -1.0000005 3.7278137
vt -1.0000005 -3
vt 0.7500005 -3
vt 0.7500013 3.7278137
vt 1.0000005 -3
vt 1.0000014 3.7278137
vt -0.75000125 -1.8750012
vt -0.7500005 -2.1250012
vt -1.0000013 -1.875
vt -1.0000005 -2.125
vt 1.8749998 -3
vt 1.875 3.7278137
vt 2.1249998 -3
vt 2.125 3.7278137
vt -1.8749988 3.7278137
vt -1.8749973 -3
vt -2.1249988 3.7278137
vt -2.1249974 -3
vt -0.7499995 -3
vt -0.74999905 3.7278137
vt 0.7500005 -3
vt 0.75000095 3.7278137
vn -3.5762787E-07 3.1008078E-08 1
vn -2.4437904E-06 1.0852844E-07 1
vn -2.4437904E-06 1.0852844E-07 1
vn -4.529953E-06 1.860488E-07 1
vn -1 1.3289147E-07 -4.7683716E-07
vn -1 6.644603E-08 1.3113022E-06
vn -1 6.644603E-08 1.3113022E-06
vn -1 5.7918644E-13 3.0994415E-06
vn 3.5762787E-07 -1.8686801E-07 -1
vn 2.4437904E-06 -1.0934793E-07 -1
vn 2.4437904E-06 -1.0934793E-07 -1
vn 4.529953E-06 -3.1827856E-08 -1
vn 1 3.8411504E-14 4.7683716E-07
vn 1 -7.0875615E-08 -1.4305115E-06
vn 1 -7.0875615E-08 -1.4305115E-06
vn 1 -1.4175127E-07 -3.33786E-06
vn -0 1 0
vn -0 1 0
vn -0 1 0
vn -0 1 0
vn -0 -1 0
vn -0 -1 0
vn -0 -1 0
vn -0 -1 0
vn -0 -1 0
vn -0 -1 0
vn -0 -1 0
vn -0 -1 0
vn 4.529953E-06 -2.3559491E-07 -1
vn 2.4437904E-06 -1.5807484E-07 -1
vn 2.4437904E-06 -1.5807484E-07 -1
vn 3.5762787E-07 -8.055476E-08 -1
vn -3.5762787E-07 2.3477514E-07 1
vn -2.44379E-06 1.5725536E-07 1
vn -2.44379E-06 1.5725536E-07 1
vn -4.529952E-06 7.973558E-08 1
vn -0 1 0
vn -0 1 0
vn -0 1 0
vn -0 1 0
vn 1 -1.3289154E-07 4.7683716E-07
vn 1 -6.644582E-08 -1.3113022E-06
vn 1 -6.644582E-08 -1.3113022E-06
vn 1 -9.610758E-14 -3.0994415E-06
vn -1 1.3289228E-07 3.0994415E-06
vn -1 6.6446084E-08 1.3113022E-06
vn -1 6.6446084E-08 1.3113022E-06
vn -1 -1.11949485E-13 -4.7683716E-07
vn -3.5762787E-07 3.2115487E-08 1
vn 9.9341065E-08 1.3399898E-07 1
vn 9.9341065E-08 1.3399898E-07 1
vn 5.5631E-07 2.3588248E-07 1
g pb_Mesh-173110_0
f 3/3/3 2/2/2 1/1/1
f 3/3/3 4/4/4 2/2/2
f 7/7/7 6/6/6 5/5/5
f 7/7/7 8/8/8 6/6/6
f 11/11/11 10/10/10 9/9/9
f 11/11/11 12/12/12 10/10/10
f 15/15/15 14/14/14 13/13/13
f 15/15/15 16/16/16 14/14/14
f 19/19/19 18/18/18 17/17/17
f 19/19/19 20/20/20 18/18/18
f 23/23/23 22/22/22 21/21/21
f 23/23/23 24/24/24 22/22/22
f 27/27/27 26/26/26 25/25/25
f 27/27/27 28/28/28 26/26/26
f 31/31/31 30/30/30 29/29/29
f 31/31/31 32/32/32 30/30/30
f 35/35/35 34/34/34 33/33/33
f 35/35/35 36/36/36 34/34/34
f 39/39/39 38/38/38 37/37/37
f 39/39/39 40/40/40 38/38/38
f 43/43/43 42/42/42 41/41/41
f 43/43/43 44/44/44 42/42/42
f 47/47/47 46/46/46 45/45/45
f 47/47/47 48/48/48 46/46/46
g pb_Mesh-173110_1
f 51/51/51 50/50/50 49/49/49
f 51/51/51 52/52/52 50/50/50
