g pb_Mesh73648
v -14 -2 2
v -14 -2 -10
v -14 0 2
v -14 0 -10
v 14 -2 -10
v 14 -2 2
v 14 0 -10
v 14 0 2
v -10 -2 2
v -14 -2 2
v -14 0 2
v -10 0 2
v -14 0 -10
v -10 -2 -10
v -10 0 -10
v -14 -2 -10
v -14 12 -10
v -10 12 -10
v -10 12 2
v -14 12 2
v -10 -2 2
v -14 -2 -10
v -14 -2 2
v -10 -2 -10
v -8 -2 2
v -8 0 2
v -8 -2 -10
v -8 0 -10
v -10 0 -10
v -8 0 -10
v -8 0 2
v -10 0 2
v -8 -2 2
v -8 -2 -10
v -4 -2 2
v -4 0 2
v -4 -2 -10
v -4 0 -10
v -8 12 -10
v -4 12 -10
v -4 12 2
v -8 12 2
v -4 -2 2
v -4 -2 -10
v -2 -2 2
v -2 0 2
v -2 -2 -10
v -2 0 -10
v -4 0 -10
v -2 0 -10
v -2 0 2
v -4 0 2
v -2 -2 2
v -2 -2 -10
v 2 -2 2
v 2 0 2
v 2 -2 -10
v 2 0 -10
v -2 12 -10
v 2 12 -10
v 2 12 2
v -2 12 2
v 2 -2 2
v 2 -2 -10
v 4 -2 2
v 4 0 2
v 4 -2 -10
v 4 0 -10
v 2 0 -10
v 4 0 -10
v 4 0 2
v 2 0 2
v 4 -2 2
v 4 -2 -10
v 8 -2 2
v 8 0 2
v 8 -2 -10
v 8 0 -10
v 4 12 -10
v 8 12 -10
v 8 12 2
v 4 12 2
v 8 -2 2
v 8 -2 -10
v 14 -2 2
v 10 -2 2
v 10 0 2
v 14 0 2
v 10 0 -10
v 14 -2 -10
v 14 0 -10
v 10 -2 -10
v 8 0 -10
v 10 0 -10
v 10 0 2
v 8 0 2
v 10 12 -10
v 14 12 -10
v 14 12 2
v 10 12 2
v 10 -2 2
v 10 -2 -10
v 14 -2 2
v 14 -2 -10
v 10 12 -10
v 14 12 -10
v 14 12 -10
v 14 12 2
v 10 0 2
v 10 0 -10
v 10 12 2
v 10 12 -10
v 14 12 2
v 10 12 2
v 4 12 -10
v 8 12 -10
v 8 0 -10
v 8 0 2
v 8 12 -10
v 8 12 2
v 4 0 2
v 4 0 -10
v 4 12 2
v 4 12 -10
v 8 12 2
v 4 12 2
v -2 12 -10
v 2 12 -10
v 2 0 -10
v 2 0 2
v 2 12 -10
v 2 12 2
v -2 0 2
v -2 0 -10
v -2 12 2
v -2 12 -10
v 2 12 2
v -2 12 2
v -8 12 -10
v -4 12 -10
v -4 0 -10
v -4 0 2
v -4 12 -10
v -4 12 2
v -8 0 2
v -8 0 -10
v -8 12 2
v -8 12 -10
v -4 12 2
v -8 12 2
v -14 12 -10
v -10 12 -10
v -10 0 -10
v -10 0 2
v -10 12 -10
v -10 12 2
v -14 12 2
v -14 12 -10
v -10 12 2
v -14 12 2
vt 2 -2
vt -10 -2
vt 2 0
vt -10 0
vt 10 -2
vt -2 -2
vt 10 0
vt -2 0
vt -10 -2
vt -14 -2
vt -14 0
vt -10 0
vt 14 0
vt 10 -2
vt 10 0
vt 14 -2
vt 14 -10
vt 10 -10
vt 10 2
vt 14 2
vt -10 2
vt -14 -10
vt -14 2
vt -10 -10
vt -8 -2
vt -8 0
vt 8 -2
vt 8 0
vt 10 -10
vt 8 -10
vt 8 2
vt 10 2
vt -8 2
vt -8 -10
vt -4 -2
vt -4 0
vt 4 -2
vt 4 0
vt 8 -10
vt 4 -10
vt 4 2
vt 8 2
vt -4 2
vt -4 -10
vt -2 -2
vt -2 0
vt 2 -2
vt 2 0
vt 4 -10
vt 2 -10
vt 2 2
vt 4 2
vt -2 2
vt -2 -10
vt 2 -2
vt 2 0
vt -2 -2
vt -2 0
vt 2 -10
vt -2 -10
vt -2 2
vt 2 2
vt 2 2
vt 2 -10
vt 4 -2
vt 4 0
vt -4 -2
vt -4 0
vt -2 -10
vt -4 -10
vt -4 2
vt -2 2
vt 4 2
vt 4 -10
vt 8 -2
vt 8 0
vt -8 -2
vt -8 0
vt -4 -10
vt -8 -10
vt -8 2
vt -4 2
vt 8 2
vt 8 -10
vt 14 -2
vt 10 -2
vt 10 0
vt 14 0
vt -10 0
vt -14 -2
vt -14 0
vt -10 -2
vt -8 -10
vt -10 -10
vt -10 2
vt -8 2
vt -10 -10
vt -14 -10
vt -14 2
vt -10 2
vt 10 2
vt 10 -10
vt 14 2
vt 14 -10
vt -10 12
vt -14 12
vt 10 12
vt -2 12
vt 2 0
vt -10 0
vt 2 12
vt -10 12
vt 14 12
vt 10 12
vt -4 12
vt -8 12
vt 10 0
vt -2 0
vt 10 12
vt -2 12
vt 2 0
vt -10 0
vt 2 12
vt -10 12
vt 8 12
vt 4 12
vt 2 12
vt -2 12
vt 10 0
vt -2 0
vt 10 12
vt -2 12
vt 2 0
vt -10 0
vt 2 12
vt -10 12
vt 2 12
vt -2 12
vt 8 12
vt 4 12
vt 10 0
vt -2 0
vt 10 12
vt -2 12
vt 2 0
vt -10 0
vt 2 12
vt -10 12
vt -4 12
vt -8 12
vt 14 12
vt 10 12
vt 10 0
vt -2 0
vt 10 12
vt -2 12
vt 2 12
vt -10 12
vt -10 12
vt -14 12
vn -1 0 0
vn -1 0 0
vn -1 0 0
vn -1 0 0
vn 1 0 0
vn 1 0 0
vn 1 0 0
vn 1 0 0
vn -0 0 1
vn -0 0 1
vn -0 0 1
vn -0 0 1
vn -0 0 -1
vn -0 0 -1
vn -0 0 -1
vn -0 0 -1
vn -0 1 0
vn -0 1 0
vn -0 1 0
vn -0 1 0
vn -0 -1 0
vn -0 -1 0
vn -0 -1 0
vn -0 -1 0
vn -0 0 1
vn -0 0 1
vn -0 0 -1
vn -0 0 -1
vn -0 1 0
vn -0 1 0
vn -0 1 0
vn -0 1 0
vn -0 -1 0
vn -0 -1 0
vn -0 0 1
vn -0 0 1
vn -0 0 -1
vn -0 0 -1
vn -0 1 0
vn -0 1 0
vn -0 1 0
vn -0 1 0
vn -0 -1 0
vn -0 -1 0
vn -0 0 1
vn -0 0 1
vn -0 0 -1
vn -0 0 -1
vn -0 1 0
vn -0 1 0
vn -0 1 0
vn -0 1 0
vn -0 -1 0
vn -0 -1 0
vn -0 0 1
vn -0 0 1
vn -0 0 -1
vn -0 0 -1
vn -0 1 0
vn -0 1 0
vn -0 1 0
vn -0 1 0
vn -0 -1 0
vn -0 -1 0
vn -0 0 1
vn -0 0 1
vn -0 0 -1
vn -0 0 -1
vn -0 1 0
vn -0 1 0
vn -0 1 0
vn -0 1 0
vn -0 -1 0
vn -0 -1 0
vn -0 0 1
vn -0 0 1
vn -0 0 -1
vn -0 0 -1
vn -0 1 0
vn -0 1 0
vn -0 1 0
vn -0 1 0
vn -0 -1 0
vn -0 -1 0
vn -0 0 1
vn -0 0 1
vn -0 0 1
vn -0 0 1
vn -0 0 -1
vn -0 0 -1
vn -0 0 -1
vn -0 0 -1
vn -0 1 0
vn -0 1 0
vn -0 1 0
vn -0 1 0
vn -0 1 0
vn -0 1 0
vn -0 1 0
vn -0 1 0
vn -0 -1 0
vn -0 -1 0
vn -0 -1 0
vn -0 -1 0
vn -0 0 -1
vn -0 0 -1
vn 1 0 0
vn 1 0 0
vn -1 0 0
vn -1 0 0
vn -1 0 0
vn -1 0 0
vn -0 0 1
vn -0 0 1
vn -0 0 -1
vn -0 0 -1
vn 1 0 0
vn 1 0 0
vn 1 0 0
vn 1 0 0
vn -1 0 0
vn -1 0 0
vn -1 0 0
vn -1 0 0
vn -0 0 1
vn -0 0 1
vn -0 0 -1
vn -0 0 -1
vn 1 0 0
vn 1 0 0
vn 1 0 0
vn 1 0 0
vn -1 0 0
vn -1 0 0
vn -1 0 0
vn -1 0 0
vn -0 0 1
vn -0 0 1
vn -0 0 -1
vn -0 0 -1
vn 1 0 0
vn 1 0 0
vn 1 0 0
vn 1 0 0
vn -1 0 0
vn -1 0 0
vn -1 0 0
vn -1 0 0
vn -0 0 1
vn -0 0 1
vn -0 0 -1
vn -0 0 -1
vn 1 0 0
vn 1 0 0
vn 1 0 0
vn 1 0 0
vn -1 0 0
vn -1 0 0
vn -0 0 1
vn -0 0 1
g pb_Mesh73648_0
f 3/3/3 2/2/2 1/1/1
f 3/3/3 4/4/4 2/2/2
f 7/7/7 6/6/6 5/5/5
f 7/7/7 8/8/8 6/6/6
f 11/11/11 10/10/10 9/9/9
f 11/11/11 9/9/9 12/12/12
f 15/15/15 14/14/14 13/13/13
f 14/14/14 16/16/16 13/13/13
f 19/19/19 18/18/18 17/17/17
f 19/19/19 17/17/17 20/20/20
f 23/23/23 22/22/22 21/21/21
f 22/22/22 24/24/24 21/21/21
f 12/12/12 9/9/9 25/25/25
f 12/12/12 25/25/25 26/26/26
f 28/28/28 27/27/27 15/15/15
f 27/27/27 14/14/14 15/15/15
f 31/31/31 30/30/30 29/29/29
f 31/31/31 29/29/29 32/32/32
f 21/21/21 24/24/24 33/33/33
f 24/24/24 34/34/34 33/33/33
f 26/26/26 25/25/25 35/35/35
f 26/26/26 35/35/35 36/36/36
f 38/38/38 37/37/37 28/28/28
f 37/37/37 27/27/27 28/28/28
f 41/41/41 40/40/40 39/39/39
f 41/41/41 39/39/39 42/42/42
f 33/33/33 34/34/34 43/43/43
f 34/34/34 44/44/44 43/43/43
f 36/36/36 35/35/35 45/45/45
f 36/36/36 45/45/45 46/46/46
f 48/48/48 47/47/47 38/38/38
f 47/47/47 37/37/37 38/38/38
f 51/51/51 50/50/50 49/49/49
f 51/51/51 49/49/49 52/52/52
f 43/43/43 44/44/44 53/53/53
f 44/44/44 54/54/54 53/53/53
f 46/46/46 45/45/45 55/55/55
f 46/46/46 55/55/55 56/56/56
f 58/58/58 57/57/57 48/48/48
f 57/57/57 47/47/47 48/48/48
f 61/61/61 60/60/60 59/59/59
f 61/61/61 59/59/59 62/62/62
f 53/53/53 54/54/54 63/63/63
f 54/54/54 64/64/64 63/63/63
f 56/56/56 55/55/55 65/65/65
f 56/56/56 65/65/65 66/66/66
f 68/68/68 67/67/67 58/58/58
f 67/67/67 57/57/57 58/58/58
f 71/71/71 70/70/70 69/69/69
f 71/71/71 69/69/69 72/72/72
f 63/63/63 64/64/64 73/73/73
f 64/64/64 74/74/74 73/73/73
f 66/66/66 65/65/65 75/75/75
f 66/66/66 75/75/75 76/76/76
f 78/78/78 77/77/77 68/68/68
f 77/77/77 67/67/67 68/68/68
f 81/81/81 80/80/80 79/79/79
f 81/81/81 79/79/79 82/82/82
f 73/73/73 74/74/74 83/83/83
f 74/74/74 84/84/84 83/83/83
f 87/87/87 86/86/86 85/85/85
f 87/87/87 85/85/85 88/88/88
f 76/76/76 75/75/75 86/86/86
f 76/76/76 86/86/86 87/87/87
f 91/91/91 90/90/90 89/89/89
f 90/90/90 92/92/92 89/89/89
f 89/89/89 92/92/92 78/78/78
f 92/92/92 77/77/77 78/78/78
f 95/95/95 94/94/94 93/93/93
f 95/95/95 93/93/93 96/96/96
f 99/99/99 98/98/98 97/97/97
f 99/99/99 97/97/97 100/100/100
f 83/83/83 84/84/84 101/101/101
f 84/84/84 102/102/102 101/101/101
f 101/101/101 102/102/102 103/103/103
f 102/102/102 104/104/104 103/103/103
f 105/105/105 91/91/91 89/89/89
f 105/105/105 106/106/106 91/91/91
f 107/107/107 8/8/8 7/7/7
f 107/107/107 108/108/108 8/8/8
f 111/111/111 110/110/110 109/109/109
f 111/111/111 112/112/112 110/110/110
f 113/113/113 87/87/87 88/88/88
f 113/113/113 114/114/114 87/87/87
f 115/115/115 78/78/78 68/68/68
f 115/115/115 116/116/116 78/78/78
f 119/119/119 118/118/118 117/117/117
f 119/119/119 120/120/120 118/118/118
f 123/123/123 122/122/122 121/121/121
f 123/123/123 124/124/124 122/122/122
f 125/125/125 66/66/66 76/76/76
f 125/125/125 126/126/126 66/66/66
f 127/127/127 58/58/58 48/48/48
f 127/127/127 128/128/128 58/58/58
f 131/131/131 130/130/130 129/129/129
f 131/131/131 132/132/132 130/130/130
f 135/135/135 134/134/134 133/133/133
f 135/135/135 136/136/136 134/134/134
f 137/137/137 46/46/46 56/56/56
f 137/137/137 138/138/138 46/46/46
f 139/139/139 38/38/38 28/28/28
f 139/139/139 140/140/140 38/38/38
f 143/143/143 142/142/142 141/141/141
f 143/143/143 144/144/144 142/142/142
f 147/147/147 146/146/146 145/145/145
f 147/147/147 148/148/148 146/146/146
f 149/149/149 26/26/26 36/36/36
f 149/149/149 150/150/150 26/26/26
f 151/151/151 15/15/15 13/13/13
f 151/151/151 152/152/152 15/15/15
f 155/155/155 154/154/154 153/153/153
f 155/155/155 156/156/156 154/154/154
f 157/157/157 4/4/4 3/3/3
f 157/157/157 158/158/158 4/4/4
f 159/159/159 11/11/11 12/12/12
f 159/159/159 160/160/160 11/11/11
