g pb_Mesh-397884
v -0.74999964 -3 0.24999985
v -0.99999964 -3 0.24999976
v -0.749999 6 0.2500006
v -0.99999934 6 0.2500013
v -0.99999964 -3 0.24999976
v -0.9999995 -3 -2.3841858E-07
v -0.99999934 6 0.2500013
v -0.99999917 6 1.1888349E-06
v -0.9999995 -3 -2.3841858E-07
v -0.7499995 -3 -1.4901161E-07
v -0.99999917 6 1.1888349E-06
v -0.74999875 6 4.568364E-07
v 1.0000005 -3 4.7683716E-07
v 1.0000004 -3 0.25000048
v 1.000001 6 2.4554565E-06
v 1.0000008 6 0.2500026
v -0.749999 6 0.2500006
v -0.99999934 6 0.2500013
v -0.74999875 6 4.568364E-07
v -0.99999917 6 1.1888349E-06
v -0.7499995 -3 -1.4901161E-07
v -0.9999995 -3 -2.3841858E-07
v -0.74999964 -3 0.24999985
v -0.99999964 -3 0.24999976
v 0.7500005 -3 3.874302E-07
v 0.75000036 -3 0.2500004
v 1.0000005 -3 4.7683716E-07
v 1.0000004 -3 0.25000048
v 0.7500006 6 3.187455E-06
v 0.7500005 -3 3.874302E-07
v 1.000001 6 2.4554565E-06
v 1.0000005 -3 4.7683716E-07
v 0.75000036 -3 0.2500004
v 0.7500004 6 0.2500033
v 1.0000004 -3 0.25000048
v 1.0000008 6 0.2500026
v 0.7500004 6 0.2500033
v 0.7500006 6 3.187455E-06
v 1.0000008 6 0.2500026
v 1.000001 6 2.4554565E-06
v -0.74999964 -3 0.24999985
v -0.749999 6 0.2500006
v -0.7499995 -3 -1.4901161E-07
v -0.74999875 6 4.568364E-07
v 0.7500004 6 0.2500033
v 0.75000036 -3 0.2500004
v 0.7500006 6 3.187455E-06
v 0.7500005 -3 3.874302E-07
v -0.7499996 -3 0.12499985
v -0.7499998 6 0.12500224
v 0.7500004 -3 0.12500039
v 0.75000143 6 0.12500153
vt -0.7499996 -3
vt -0.9999996 -3
vt -0.74999887 6
vt -0.9999992 6
vt -1.8749998 -3
vt -2.1249998 -3
vt -1.8749982 6
vt -2.1249983 6
vt 0.9999995 -3
vt 0.7499995 -3
vt 0.99999917 6
vt 0.74999875 6
vt 2.125 -3
vt 1.875 -3
vt 2.124998 6
vt 1.8749979 6
vt 0.749999 -1.8749994
vt 0.99999934 -1.8749987
vt 0.74999875 -2.1249995
vt 0.99999917 -2.1249988
vt -0.7499995 -2.1250002
vt -0.9999995 -2.1250002
vt -0.74999964 -1.8750001
vt -0.99999964 -1.8750002
vt 0.7500005 -2.1249995
vt 0.75000036 -1.8749996
vt 1.0000005 -2.1249995
vt 1.0000004 -1.8749995
vt -0.7500006 6
vt -0.7500005 -3
vt -1.000001 6
vt -1.0000005 -3
vt 0.7500005 -3
vt 0.75000054 6
vt 1.0000005 -3
vt 1.000001 6
vt -0.7500004 -1.8749967
vt -0.7500006 -2.124997
vt -1.0000008 -1.8749974
vt -1.000001 -2.1249976
vt 1.8749998 -3
vt 1.874999 6
vt 2.1249998 -3
vt 2.1249993 6
vt -1.8749973 6
vt -1.8750001 -3
vt -2.1249974 6
vt -2.1250002 -3
vt -0.7499995 -3
vt -0.74999976 6
vt 0.7500005 -3
vt 0.7500015 6
vn -3.5762787E-07 -8.2784204E-08 1
vn 1.2516954E-06 -1.2748774E-07 1
vn 1.2516954E-06 -1.2748774E-07 1
vn 2.8610186E-06 -1.7219128E-07 1
vn -1 3.3113775E-08 -4.7683716E-07
vn -1 3.6425156E-08 -5.960462E-07
vn -1 3.6425156E-08 -5.960462E-07
vn -1 3.973654E-08 -7.1525534E-07
vn 3.5762787E-07 1.585837E-07 -1
vn -1.2851806E-06 1.12950204E-07 -1
vn -1.2851806E-06 1.12950204E-07 -1
vn -2.927989E-06 6.73167E-08 -1
vn 1 -5.2982013E-08 4.7683716E-07
vn 1 -5.2982017E-08 4.7683704E-07
vn 1 -5.2982017E-08 4.7683704E-07
vn 1 -5.2982017E-08 4.768369E-07
vn -0 1 0
vn -0 1 0
vn -0 1 0
vn -0 1 0
vn -0 -1 0
vn -0 -1 0
vn -0 -1 0
vn -0 -1 0
vn -0 -1 0
vn -0 -1 0
vn -0 -1 0
vn -0 -1 0
vn -2.9279893E-06 3.1111387E-07 -1
vn -1.2851807E-06 2.6548022E-07 -1
vn -1.2851807E-06 2.6548022E-07 -1
vn 3.5762787E-07 2.1984657E-07 -1
vn -3.5762787E-07 -3.245142E-07 1
vn 1.2516952E-06 -2.7981076E-07 1
vn 1.2516952E-06 -2.7981076E-07 1
vn 2.8610182E-06 -2.3510736E-07 1
vn -0 1 0
vn -0 1 0
vn -0 1 0
vn -0 1 0
vn 1 -7.2850156E-08 4.7683716E-07
vn 1 -7.947291E-08 7.152554E-07
vn 1 -7.947291E-08 7.152554E-07
vn 1 -8.609566E-08 9.536737E-07
vn -1 6.6229706E-09 -7.1525545E-07
vn -1 9.934298E-09 -5.9604633E-07
vn -1 9.934298E-09 -5.9604633E-07
vn -1 1.3245625E-08 -4.7683716E-07
vn -3.5762787E-07 -2.6490954E-07 1
vn 5.463741E-08 -1.9619866E-07 1
vn 5.463741E-08 -1.9619866E-07 1
vn 4.669027E-07 -1.2748777E-07 1
g pb_Mesh-397884_0
f 3/3/3 2/2/2 1/1/1
f 3/3/3 4/4/4 2/2/2
f 7/7/7 6/6/6 5/5/5
f 7/7/7 8/8/8 6/6/6
f 11/11/11 10/10/10 9/9/9
f 11/11/11 12/12/12 10/10/10
f 15/15/15 14/14/14 13/13/13
f 15/15/15 16/16/16 14/14/14
f 19/19/19 18/18/18 17/17/17
f 19/19/19 20/20/20 18/18/18
f 23/23/23 22/22/22 21/21/21
f 23/23/23 24/24/24 22/22/22
f 27/27/27 26/26/26 25/25/25
f 27/27/27 28/28/28 26/26/26
f 31/31/31 30/30/30 29/29/29
f 31/31/31 32/32/32 30/30/30
f 35/35/35 34/34/34 33/33/33
f 35/35/35 36/36/36 34/34/34
f 39/39/39 38/38/38 37/37/37
f 39/39/39 40/40/40 38/38/38
f 43/43/43 42/42/42 41/41/41
f 43/43/43 44/44/44 42/42/42
f 47/47/47 46/46/46 45/45/45
f 47/47/47 48/48/48 46/46/46
g pb_Mesh-397884_1
f 51/51/51 50/50/50 49/49/49
f 51/51/51 52/52/52 50/50/50
