g pb_Mesh92106
v 2 -1.9999975 13.000001
v -0 -1.9999965 13.000001
v 2 -1.1920804E-07 13.000002
v -0 -1.1920804E-07 13.000002
v -0 -1.9999965 13.000001
v -0 -1.999999 -1.9999995
v -0 -1.1920804E-07 13.000002
v -0 2.1457672E-06 -1.9999998
v -0 -1.999999 -1.9999995
v 2 -2 -2
v -0 2.1457672E-06 -1.9999998
v 2 2.1457672E-06 -1.9999998
v 2 -2 -2
v 2 -1.9999975 13.000001
v 2 2.1457672E-06 -1.9999998
v 2 -1.1920804E-07 13.000002
v 2 -1.1920804E-07 13.000002
v -0 -1.1920804E-07 13.000002
v 2 2.1457672E-06 -1.9999998
v -0 2.1457672E-06 -1.9999998
v 2 -2 -2
v -0 -1.999999 -1.9999995
v 2 -1.9999975 13.000001
v -0 -1.9999965 13.000001
vt 2 -1.9999913
vt 2.955862E-12 -1.9999903
vt 2 6.079684E-06
vt 2.9558621E-12 6.079684E-06
vt 13.000001 -1.9999965
vt -1.9999995 -1.999999
vt 13.000002 -1.1920804E-07
vt -1.9999998 2.1457672E-06
vt -4.7683716E-07 -1.9999988
vt -2.0000005 -1.9999998
vt -4.768372E-07 2.3841856E-06
vt -2.0000005 2.3841856E-06
vt 2 -2
vt -13.000001 -1.9999975
vt 1.9999998 2.1457672E-06
vt -13.000002 -1.1920804E-07
vt -2 13.000002
vt 0 13.000002
vt -2 -1.9999998
vt 0 -1.9999998
vt 2.000001 -2.0000002
vt 9.536738E-07 -1.9999999
vt 2.000001 13.000001
vt 9.536726E-07 13.000001
vn -2.2737397E-13 -4.768378E-07 1
vn -1.1368699E-13 -4.768379E-07 1
vn -1.1368699E-13 -4.768379E-07 1
vn -0 -4.76838E-07 1
vn -1 0 0
vn -1 0 0
vn -1 0 0
vn -1 0 0
vn -2.3841864E-07 -1.1920922E-07 -1
vn -1.1920932E-07 -2.842171E-14 -1
vn -1.1920932E-07 -2.842171E-14 -1
vn -0 1.1920916E-07 -1
vn 1 0 0
vn 1 0 0
vn 1 0 0
vn 1 0 0
vn -0 1 1.5099832E-07
vn -0 1 1.5099832E-07
vn -0 1 1.5099832E-07
vn -0 1 1.5099832E-07
vn -4.7683713E-07 -1 1.6689299E-07
vn -4.7683716E-07 -1 1.6689299E-07
vn -4.7683716E-07 -1 1.6689299E-07
vn -4.7683716E-07 -1 1.66893E-07
g pb_Mesh92106_0
f 3/3/3 2/2/2 1/1/1
f 3/3/3 4/4/4 2/2/2
f 7/7/7 6/6/6 5/5/5
f 7/7/7 8/8/8 6/6/6
f 11/11/11 10/10/10 9/9/9
f 11/11/11 12/12/12 10/10/10
f 15/15/15 14/14/14 13/13/13
f 15/15/15 16/16/16 14/14/14
f 19/19/19 18/18/18 17/17/17
f 19/19/19 20/20/20 18/18/18
f 23/23/23 22/22/22 21/21/21
f 23/23/23 24/24/24 22/22/22
