g pb_Mesh99426
v -3.8065593 -1 4.1822734
v -6.8033257 -1 5.191923
v -3.8065593 3 4.1822734
v -6.8033257 3 5.191923
v -6.8033257 -1 5.191923
v -8.237218 0 2.0000029
v -6.8033257 3 5.191923
v -8.237218 3 2.0000029
v -8.237218 0 2.0000029
v -2.8226566 -1 -0.8209195
v -8.237218 3 2.0000029
v -2.8226566 3 -0.8209195
v -2.8226566 -1 -0.8209195
v -3.8065593 -1 4.1822734
v -2.8226566 3 -0.8209195
v -3.8065593 3 4.1822734
v -2.8226566 -1 -0.8209195
v -8.237218 0 2.0000029
v -3.8065593 -1 4.1822734
v -6.8033257 -1 5.191923
v -3.8065593 3 4.1822734
v -6.8033257 3 5.191923
v -2.8226566 3 -0.8209195
v -8.237218 3 2.0000029
vt -4.94264 -1
vt -8.104918 -1
vt -4.94264 3
vt -8.104918 3
vt 1.9481504 -1
vt -1.5510498 0
vt 1.9481504 3
vt -1.5510498 3
vt 8.229327 0
vt 2.1239953 -1
vt 8.229327 3
vt 2.1239953 3
vt 0.2608343 -1
vt -4.8381853 -1
vt 0.2608343 3
vt -4.8381853 3
vt -2.5631862 -0.7589535
vt -8.068182 2.0641837
vt -3.5268981 4.248168
vt -6.4621677 5.280946
vt 3.8065593 4.1822734
vt 6.8033257 5.191923
vt 2.8226566 -0.8209195
vt 8.237218 2.0000029
vn 0.31927928 0 0.9476607
vn 0.31927928 0 0.9476607
vn 0.31927928 0 0.9476607
vn 0.31927928 0 0.9476607
vn -0.91218567 0 0.40977716
vn -0.91218567 0 0.40977716
vn -0.91218567 0 0.40977716
vn -0.91218567 0 0.40977713
vn -0.46204245 0 -0.8868578
vn -0.46204245 0 -0.8868578
vn -0.46204245 0 -0.8868578
vn -0.46204242 0 -0.8868578
vn 0.9812068 0 0.19295917
vn 0.9812068 0 0.19295917
vn 0.9812068 0 0.19295917
vn 0.9812068 0 0.19295917
vn -0.20138851 -0.9787105 -0.03960405
vn -0.1447523 -0.9699363 -0.15057176
vn -0.1447523 -0.9699363 -0.15057176
vn -0.08811608 -0.96116215 -0.2615395
vn -0 1 0
vn -0 1 0
vn -0 1 0
vn -0 1 0
g pb_Mesh99426_0
f 3/3/3 2/2/2 1/1/1
f 3/3/3 4/4/4 2/2/2
f 7/7/7 6/6/6 5/5/5
f 7/7/7 8/8/8 6/6/6
f 11/11/11 10/10/10 9/9/9
f 11/11/11 12/12/12 10/10/10
f 15/15/15 14/14/14 13/13/13
f 15/15/15 16/16/16 14/14/14
f 19/19/19 18/18/18 17/17/17
f 19/19/19 20/20/20 18/18/18
g pb_Mesh99426_1
f 23/23/23 22/22/22 21/21/21
f 23/23/23 24/24/24 22/22/22
