g pb_Mesh100100
v 1 0 1
v -2 0 1
v 1.4567796 3 0.3191624
v -1.3191599 3 1.4567778
v -2 0 1
v -2 0 -2
v -1.3191599 3 1.4567778
v -2.456773 3 -1.3191602
v -2 0 -2
v 1 0 -2
v -2.456773 3 -1.3191602
v 0.31916237 3 -2.4567766
v 1 0 -2
v 1 0 1
v 0.31916237 3 -2.4567766
v 1.4567796 3 0.3191624
v 1.4567796 3 0.3191624
v -1.3191599 3 1.4567778
v 0.31916237 3 -2.4567766
v -2.456773 3 -1.3191602
v 1 0 -2
v -2 0 -2
v 1 0 1
v -2 0 1
vt 1 -0.221318
vt -2 -0.221318
vt 1.4567796 2.8549688
vt -1.3191599 2.603194
vt 1 -0.44263762
vt -2 -0.44263762
vt 1.4567778 2.6336498
vt -1.3191602 2.3818746
vt 2 -0.44263732
vt -1 -0.44263732
vt 2.456773 2.6336498
vt -0.31916237 2.381874
vt 2 -0.221318
vt -1 -0.221318
vt 2.4567766 2.8549688
vt -0.3191624 2.6031935
vt -1.4567796 0.3191624
vt 1.3191599 1.4567778
vt -0.31916237 -2.4567766
vt 2.456773 -1.3191602
vt 1 -2
vt -2 -2
vt 1 1
vt -2 1
vn -0 0.221318 0.9752017
vn 0.18490064 -4.0978193E-07 0.938784
vn 0.18490064 -4.0978193E-07 0.938784
vn 0.36980128 -0.22131883 0.90236634
vn -0.9752015 0.2213188 0
vn -0.9387842 7.227063E-07 0.18490046
vn -0.9387842 7.227063E-07 0.18490046
vn -0.9023669 -0.22131735 0.36980093
vn -0 0.22131868 -0.97520155
vn -0.184901 1.8626451E-07 -0.9387839
vn -0.184901 1.8626451E-07 -0.9387839
vn -0.369802 -0.2213183 -0.90236616
vn 0.9752017 0.221318 0
vn 0.9387839 -5.5879354E-07 -0.1849009
vn 0.9387839 -5.5879354E-07 -0.1849009
vn 0.9023661 -0.22131912 -0.3698018
vn -0 1 0
vn -0 1 0
vn -0 1 0
vn -0 1 0
vn -0 -1 0
vn -0 -1 0
vn -0 -1 0
vn -0 -1 0
g pb_Mesh100100_0
f 3/3/3 2/2/2 1/1/1
f 3/3/3 4/4/4 2/2/2
f 7/7/7 6/6/6 5/5/5
f 7/7/7 8/8/8 6/6/6
f 11/11/11 10/10/10 9/9/9
f 11/11/11 12/12/12 10/10/10
f 15/15/15 14/14/14 13/13/13
f 15/15/15 16/16/16 14/14/14
f 19/19/19 18/18/18 17/17/17
f 19/19/19 20/20/20 18/18/18
f 23/23/23 22/22/22 21/21/21
f 23/23/23 24/24/24 22/22/22
