g pb_Mesh95514
v -0 0 0
v -5 0 0
v -1.1920929E-06 3 2.3841858E-07
v -5.000001 3 4.966623E-07
v -5 0 0
v -5 0 -5
v -5.000001 3 4.966623E-07
v -5.0000014 3 -4.999999
v -5 0 -5
v -0 0 -5
v -5.0000014 3 -4.999999
v -1.4503366E-06 3 -4.9999995
v -0 0 -5
v -0 0 0
v -1.4503366E-06 3 -4.9999995
v -1.1920929E-06 3 2.3841858E-07
v -1.1920929E-06 3 2.3841858E-07
v -5.000001 3 4.966623E-07
v -1.4503366E-06 3 -4.9999995
v -5.0000014 3 -4.999999
v -0 0 -5
v -5 0 -5
v -0 0 0
v -5 0 0
vt 0 0
vt -5 0
vt -1.1920929E-06 3
vt -5.000001 3
vt 0 1.5894573E-06
vt -5 1.5894573E-06
vt 4.966623E-07 3.0000017
vt -4.999999 3.0000017
vt 5 -1.5894573E-06
vt 0 -1.5894573E-06
vt 5.0000014 2.9999983
vt 1.4503366E-06 2.9999983
vt 5 0
vt 0 0
vt 4.9999995 3
vt -2.3841858E-07 3
vt 1.1920929E-06 2.3841858E-07
vt 5.000001 4.966623E-07
vt 1.4503366E-06 -4.9999995
vt 5.0000014 -4.999999
vt 0 -5
vt -5 -5
vt 0 0
vt -5 0
vn -0 -7.947286E-08 1
vn 2.5824374E-08 -1.2251348E-07 1
vn 2.5824374E-08 -1.2251348E-07 1
vn 5.1648748E-08 -1.655541E-07 1
vn -1 -3.1789145E-07 0
vn -1 -3.9736432E-07 4.7683724E-08
vn -1 -3.9736432E-07 4.7683724E-08
vn -1 -4.768372E-07 9.536745E-08
vn -0 3.1789145E-07 -1
vn -4.7683717E-08 2.3841855E-07 -1
vn -4.7683717E-08 2.3841855E-07 -1
vn -9.536743E-08 1.5894567E-07 -1
vn 1 4.8344555E-07 0
vn 1 4.4040493E-07 -2.5824376E-08
vn 1 4.4040493E-07 -2.5824376E-08
vn 1 3.9736432E-07 -5.164875E-08
vn -0 1 0
vn -0 1 0
vn -0 1 0
vn -0 1 0
vn -0 -1 0
vn -0 -1 0
vn -0 -1 0
vn -0 -1 0
g pb_Mesh95514_0
f 3/3/3 2/2/2 1/1/1
f 3/3/3 4/4/4 2/2/2
f 7/7/7 6/6/6 5/5/5
f 7/7/7 8/8/8 6/6/6
f 11/11/11 10/10/10 9/9/9
f 11/11/11 12/12/12 10/10/10
f 15/15/15 14/14/14 13/13/13
f 15/15/15 16/16/16 14/14/14
f 19/19/19 18/18/18 17/17/17
f 19/19/19 20/20/20 18/18/18
f 23/23/23 22/22/22 21/21/21
f 23/23/23 24/24/24 22/22/22
