g pb_Mesh84952
v -26 -5 14
v -26 -5 4
v -26 0 4
v -26 0 14
v -24 -5 -4
v -22 -5 -10
v -22 0 -10
v -24 0 -4
v 3 4 -6.5
v 6 -5 4
v 6 4 4
v 3 -5 -6.5
v 6 4 4
v 4 -5 17
v 4 4 17
v 6 -5 4
v 6 -5 4
v -0 -5 -4
v -0 -5 4
v 3 -5 -6.5
v 4 -5 17
v -0 -5 12
v -16 -5 12
v -20 -5 -2.5
v -18 -5 17
v -16 -5 4
v -16 -5 -4
v -18 -5 -8.5
v -0 12 -4
v -0 4 4
v -0 12 4
v -0 4 -4
v -0 4 12
v -0 18 12
v -16 4 12
v -16 4 4
v -16 12 4
v -16 12 12
v -16 4 -4
v -16 12 -4
v 4 -5 17
v -8 -5 17
v -8 4 17
v 4 4 17
v -18 -5 17
v -18 4 17
v -18 4 -8.5
v -5 -5 -9.5
v -5 4 -9.5
v -18 -5 -8.5
v -5 4 -9.5
v 3 -5 -6.5
v 3 4 -6.5
v -5 -5 -9.5
v -8 -5 17
v -8 -5 12
v -8 -5 -4
v -5 -5 -9.5
v -0 4 12
v -8 4 12
v -8 18 12
v -0 18 12
v -16 4 12
v -16 12 12
v -16 12 -4
v -8 4 -4
v -8 12 -4
v -16 4 -4
v -0 4 -4
v -0 12 -4
v -8 -5 4
v -16 12 4
v -8 12 4
v -16 20 4
v -8 20 4
v -8 12 4
v -8 18 12
v -8 20 4
v -8 20 12
v -16 20 12
v -16 20 4
v -8 20 12
v -16 20 12
v -22 -5 14
v -22 -5 4
v -26 -5 2
v -26 0 2
v -18 4 17
v -18 -5 17
v -22 4 14
v -22 -5 14
v -26 -5 14
v -26 -5 4
v -22 4 14
v -22 -5 14
v -26 0 14
v -26 -5 14
v -22 4 4
v -22 4 14
v -26 0 4
v -26 0 14
v -18 4 -8.5
v -20 4 -2.5
v -22 0 -10
v -24 0 -4
v -26 -5 2
v -24 -5 -4
v -20 4 -2.5
v -22 4 4
v -24 0 -4
v -26 0 2
v -22 -5 -10
v -18 -5 -8.5
v -18 4 -8.5
v -22 -5 -10
v -22 0 -10
v -26 0 2
v -26 0 2
v -26 -5 2
v -0 4 12
v -0 4 4
v 6 4 4
v 4 4 17
v -0 4 -4
v 3 4 -6.5
v -18 4 -8.5
v -16 4 -4
v -20 4 -2.5
v -16 4 4
v -16 4 12
v -18 4 17
v -8 4 -4
v -5 4 -9.5
v -8 4 12
v -8 4 17
v -16 20 4
v -8 20 4
v -8 20 12
v -16 20 12
v -8 12 4
v -0 12 4
v -0 18 12
v -8 18 12
v -16 12 -4
v -8 12 -4
v -8 12 4
v -16 12 4
v -0 12 -4
v -0 12 4
v -22 4 4
v -22 4 14
vt 14 -5
vt 4 -5
vt 4 0
vt 14 0
vt 3.794733 -5
vt -2.5298223 -5
vt -2.5298223 0
vt 3.794733 0
vt 6.298825 4
vt -4.3688116 -5
vt -4.3688116 4
vt 6.298825 -5
vt -4.3688116 4
vt -17.217596 -5
vt -17.217596 4
vt -4.3688116 -5
vt 6 4
vt -0 -4
vt 0 4
vt 3 -6.5
vt 4 17
vt 0 12
vt -16 12
vt -20 -2.5
vt -18 17
vt -16 4
vt -16 -4
vt -18 -8.5
vt 4 12
vt -4 4
vt -4 12
vt 4 4
vt -12 4
vt -12 18
vt 12 4
vt 4 4
vt 4 12
vt 12 12
vt -4 4
vt -4 12
vt 4 -5
vt -8 -5
vt -8 4
vt 4 4
vt -18 -5
vt -18 4
vt 19.015896 4
vt 6.2854404 -5
vt 6.2854404 4
vt 19.015896 -5
vt 6.2854404 4
vt -2.056766 -5
vt -2.056766 4
vt 6.2854404 -5
vt -8 17
vt -8 12
vt -8 -4
vt -5 -9.5
vt 0 4
vt -8 4
vt -8 18
vt 0 18
vt -16 4
vt -16 12
vt 16 12
vt 8 4
vt 8 12
vt 16 4
vt 0 4
vt 0 12
vt -8 4
vt 16 12
vt 8 12
vt 16 20
vt 8 20
vt -4 12
vt -12 18
vt -4 20
vt -12 20
vt 12 20
vt 4 20
vt -8 20
vt -16 20
vt -22 14
vt -22 4
vt 10.119288 -5
vt 10.119288 0
vt -4.2 4
vt -4.2 -5
vt -9.2 4
vt -9.2 -5
vt -26 14
vt -26 4
vt -22 4
vt -22 -5
vt -26 0
vt -26 -5
vt 12.7279215 4
vt 12.7279215 14
vt 18.384775 4
vt 18.384775 14
vt 10.795913 -5.0668964
vt 12.290731 1.0784693
vt 16.443005 -6.6032376
vt 17.937824 -0.45787203
vt -26 2
vt -24 -4
vt 12.22121 0.83652437
vt 13.710348 7.4722204
vt 17.869667 -0.69479024
vt 19.358807 5.451131
vt -22 -10
vt 19.838474 -5
vt 19.838474 4
vt 24.110477 -5
vt 24.110477 0
vt 18.384775 2
vt 2 0
vt 2 -5
vt 0 12
vt 0 4
vt -6 4
vt -4 17
vt 0 -4
vt -3 -6.5
vt 18 -8.5
vt 16 -4
vt 20 -2.5
vt 16 4
vt 16 12
vt 18 17
vt 8 -4
vt 5 -9.5
vt 8 12
vt 8 17
vt 16 4
vt 8 4
vt 8 12
vt 16 12
vt 8 6.425559
vt 0 6.425559
vt 0 15.505153
vt 8 15.505153
vt 16 -1.3968604
vt 8 -1.3968604
vt 8 6.425559
vt 16 6.425559
vt 0 -1.3968604
vt 0 6.425559
vt 22 4
vt 22 14
vn -1 0 0
vn -1 0 0
vn -1 0 0
vn -1 0 0
vn -0.9486833 0 -0.31622776
vn -0.9486833 0 -0.31622776
vn -0.9486833 0 -0.31622776
vn -0.9486833 0 -0.31622776
vn 0.96152395 0 -0.27472115
vn 0.96152395 0 -0.27472115
vn 0.96152395 0 -0.27472115
vn 0.96152395 0 -0.27472115
vn 0.9883717 0 0.15205719
vn 0.9883717 0 0.15205719
vn 0.9883717 0 0.15205719
vn 0.9883717 0 0.15205719
vn -0 -1 0
vn -0 -1 0
vn -0 -1 0
vn -0 -1 0
vn -0 -1 0
vn -0 -1 0
vn -0 -1 0
vn -0 -1 0
vn -0 -1 0
vn -0 -1 0
vn -0 -1 0
vn -0 -1 0
vn 1 0 0
vn 1 0 0
vn 1 0 0
vn 1 0 0
vn 1 0 0
vn 1 0 0
vn -1 0 0
vn -1 0 0
vn -1 0 0
vn -1 0 0
vn -1 0 0
vn -1 0 0
vn -0 0 1
vn -0 0 1
vn -0 0 1
vn -0 0 1
vn -0 0 1
vn -0 0 1
vn -0.0766965 0 -0.9970545
vn -0.0766965 0 -0.9970545
vn -0.0766965 0 -0.9970545
vn -0.0766965 0 -0.9970545
vn 0.35112345 0 -0.9363292
vn 0.35112345 0 -0.9363292
vn 0.35112345 0 -0.9363292
vn 0.35112345 0 -0.9363292
vn -0 -1 0
vn -0 -1 0
vn -0 -1 0
vn -0 -1 0
vn -0 0 1
vn -0 0 1
vn -0 0 1
vn -0 0 1
vn -0 0 1
vn -0 0 1
vn -0 0 -1
vn -0 0 -1
vn -0 0 -1
vn -0 0 -1
vn -0 0 -1
vn -0 0 -1
vn -0 -1 0
vn -0 0 -1
vn -0 0 -1
vn -0 0 -1
vn -0 0 -1
vn 1 0 0
vn 1 0 0
vn 1 0 0
vn 1 0 0
vn -1 0 0
vn -1 0 0
vn -0 0 1
vn -0 0 1
vn -0 -1 0
vn -0 -1 0
vn -0.9486833 0 -0.31622776
vn -0.9486833 0 -0.31622776
vn -0.6 0 0.8
vn -0.6 0 0.8
vn -0.6 0 0.8
vn -0.6 0 0.8
vn -0 -1 0
vn -0 -1 0
vn -0 0 1
vn -0 0 1
vn -0 0 1
vn -0 0 1
vn -0.70710677 0.70710677 0
vn -0.70710677 0.70710677 0
vn -0.70710677 0.70710677 0
vn -0.70710677 0.70710677 0
vn -0.6486487 0.7297298 -0.21621624
vn -0.6486487 0.7297298 -0.21621624
vn -0.6486487 0.7297298 -0.21621624
vn -0.6486487 0.7297298 -0.21621624
vn -0 -1 0
vn -0 -1 0
vn -0.65389407 0.7293434 -0.20119818
vn -0.6449464 0.735671 -0.20659888
vn -0.6449464 0.735671 -0.20659888
vn -0.6359987 0.74199855 -0.21199958
vn -0 -1 0
vn 0.35112345 0 -0.9363292
vn 0.35112345 0 -0.9363292
vn 0.35112345 0 -0.9363292
vn 0.35112345 0 -0.9363292
vn -0.70710677 0.70710677 0
vn -1 0 0
vn -1 0 0
vn -0 1 0
vn -0 1 0
vn -0 1 0
vn -0 1 0
vn -0 1 0
vn -0 1 0
vn -0 1 0
vn -0 1 0
vn -0 1 0
vn -0 1 0
vn -0 1 0
vn -0 1 0
vn -0 1 0
vn -0 1 0
vn -0 1 0
vn -0 1 0
vn -0 1 0
vn -0 1 0
vn -0 1 0
vn -0 1 0
vn -0 0.8 -0.6
vn -0 0.8 -0.6
vn -0 0.8 -0.6
vn -0 0.8 -0.6
vn -0 1 0
vn -0 1 0
vn -0 1 0
vn -0 1 0
vn -0 1 0
vn -0 1 0
vn -0 1 0
vn -0 1 0
g pb_Mesh84952_0
f 3/3/3 2/2/2 1/1/1
f 3/3/3 1/1/1 4/4/4
f 7/7/7 6/6/6 5/5/5
f 7/7/7 5/5/5 8/8/8
f 11/11/11 10/10/10 9/9/9
f 10/10/10 12/12/12 9/9/9
f 15/15/15 14/14/14 13/13/13
f 14/14/14 16/16/16 13/13/13
f 19/19/19 18/18/18 17/17/17
f 18/18/18 20/20/20 17/17/17
f 22/22/22 17/17/17 21/21/21
f 22/22/22 19/19/19 17/17/17
f 25/25/25 24/24/24 23/23/23
f 24/24/24 26/26/26 23/23/23
f 27/27/27 26/26/26 24/24/24
f 28/28/28 27/27/27 24/24/24
f 31/31/31 30/30/30 29/29/29
f 30/30/30 32/32/32 29/29/29
f 34/34/34 33/33/33 31/31/31
f 33/33/33 30/30/30 31/31/31
f 37/37/37 36/36/36 35/35/35
f 37/37/37 35/35/35 38/38/38
f 40/40/40 39/39/39 36/36/36
f 40/40/40 36/36/36 37/37/37
f 43/43/43 42/42/42 41/41/41
f 43/43/43 41/41/41 44/44/44
f 46/46/46 45/45/45 42/42/42
f 46/46/46 42/42/42 43/43/43
f 49/49/49 48/48/48 47/47/47
f 48/48/48 50/50/50 47/47/47
f 53/53/53 52/52/52 51/51/51
f 52/52/52 54/54/54 51/51/51
f 55/55/55 22/22/22 21/21/21
f 55/55/55 56/56/56 22/22/22
f 25/25/25 23/23/23 55/55/55
f 23/23/23 56/56/56 55/55/55
f 58/58/58 57/57/57 27/27/27
f 58/58/58 27/27/27 28/28/28
f 58/58/58 20/20/20 18/18/18
f 57/57/57 58/58/58 18/18/18
f 61/61/61 60/60/60 59/59/59
f 61/61/61 59/59/59 62/62/62
f 64/64/64 63/63/63 60/60/60
f 64/64/64 60/60/60 61/61/61
f 67/67/67 66/66/66 65/65/65
f 66/66/66 68/68/68 65/65/65
f 70/70/70 69/69/69 67/67/67
f 69/69/69 66/66/66 67/67/67
f 26/26/26 27/27/27 71/71/71
f 27/27/27 57/57/57 71/71/71
f 71/71/71 57/57/57 19/19/19
f 57/57/57 18/18/18 19/19/19
f 23/23/23 26/26/26 56/56/56
f 26/26/26 71/71/71 56/56/56
f 56/56/56 71/71/71 22/22/22
f 71/71/71 19/19/19 22/22/22
f 74/74/74 73/73/73 72/72/72
f 74/74/74 75/75/75 73/73/73
f 78/78/78 77/77/77 76/76/76
f 78/78/78 79/79/79 77/77/77
f 80/80/80 37/37/37 38/38/38
f 80/80/80 81/81/81 37/37/37
f 82/82/82 64/64/64 61/61/61
f 82/82/82 83/83/83 64/64/64
f 84/84/84 24/24/24 25/25/25
f 84/84/84 85/85/85 24/24/24
f 86/86/86 8/8/8 5/5/5
f 86/86/86 87/87/87 8/8/8
f 90/90/90 89/89/89 88/88/88
f 90/90/90 91/91/91 89/89/89
f 92/92/92 85/85/85 84/84/84
f 92/92/92 93/93/93 85/85/85
f 96/96/96 95/95/95 94/94/94
f 96/96/96 97/97/97 95/95/95
f 100/100/100 99/99/99 98/98/98
f 100/100/100 101/101/101 99/99/99
f 104/104/104 103/103/103 102/102/102
f 104/104/104 105/105/105 103/103/103
f 106/106/106 24/24/24 85/85/85
f 106/106/106 107/107/107 24/24/24
f 110/110/110 109/109/109 108/108/108
f 110/110/110 111/111/111 109/109/109
f 106/106/106 85/85/85 93/93/93
f 107/107/107 28/28/28 24/24/24
f 107/107/107 112/112/112 28/28/28
f 115/115/115 114/114/114 113/113/113
f 115/115/115 116/116/116 114/114/114
f 117/117/117 100/100/100 98/98/98
f 118/118/118 2/2/2 3/3/3
f 118/118/118 119/119/119 2/2/2
g pb_Mesh84952_1
f 122/122/122 121/121/121 120/120/120
f 123/123/123 122/122/122 120/120/120
f 122/122/122 125/125/125 124/124/124
f 122/122/122 124/124/124 121/121/121
f 128/128/128 127/127/127 126/126/126
f 128/128/128 129/129/129 127/127/127
f 130/130/130 129/129/129 128/128/128
f 130/130/130 128/128/128 131/131/131
f 124/124/124 133/133/133 132/132/132
f 124/124/124 125/125/125 133/133/133
f 126/126/126 127/127/127 133/133/133
f 127/127/127 132/132/132 133/133/133
f 135/135/135 134/134/134 130/130/130
f 135/135/135 130/130/130 131/131/131
f 120/120/120 134/134/134 135/135/135
f 123/123/123 120/120/120 135/135/135
f 138/138/138 137/137/137 136/136/136
f 138/138/138 136/136/136 139/139/139
f 142/142/142 141/141/141 140/140/140
f 142/142/142 140/140/140 143/143/143
f 146/146/146 145/145/145 144/144/144
f 146/146/146 144/144/144 147/147/147
f 149/149/149 148/148/148 145/145/145
f 149/149/149 145/145/145 146/146/146
f 150/150/150 131/131/131 128/128/128
f 150/150/150 151/151/151 131/131/131
