g pb_Mesh83284
v 8.000002 -2 22.000002
v 3.5762787E-06 -2 22
v 8.000002 0 22.000002
v 3.5762787E-06 0 22
v -0 -2 8
v -0 -2 0
v -0 8 8
v -0 8 0
v -0 -2 0
v 8 -2 0
v -0 8 0
v 8 8 0
v 22 -2 -1.1920929E-07
v 21.999998 -2 8
v 22 0 -1.1920929E-07
v 21.999998 0 8
v 8 8 8
v -0 8 8
v 8 8 0
v -0 8 0
v 8 -2 0
v -0 -2 0
v 8 -2 8
v -0 -2 8
v 22 -2 -1.1920929E-07
v 21.999998 -2 8
v 22 0 -1.1920929E-07
v 22 -2 -1.1920929E-07
v 8 8 8
v 8 8 0
v 21.999998 0 8
v 22 0 -1.1920929E-07
v 8.000002 -2 22.000002
v 3.5762787E-06 -2 22
v 3.5762787E-06 -2 22
v 3.5762787E-06 0 22
v -0 8 8
v 8 8 8
v 3.5762787E-06 0 22
v 8.000002 0 22.000002
v 8 -2 8
v 8 8 8
v 21.999998 -2 8
v 21.999998 0 8
v 8 8 8
v 8 -2 8
v 8.000002 0 22.000002
v 8.000002 -2 22.000002
vt 8.000008 -2
vt 8.821488E-06 -2
vt 8.000008 0
vt 8.821488E-06 0
vt 8 -2
vt 0 -2
vt 8 8
vt 0 8
vt 0 -2
vt -8 -2
vt 0 8
vt -8 8
vt 5.364418E-06 -2
vt -7.9999948 -2
vt 5.364418E-06 0
vt -7.9999948 0
vt -8 8
vt 0 8
vt -8 0
vt 0 0
vt 8 0
vt 0 0
vt 8 8
vt 0 8
vt 22 -1.1920929E-07
vt 21.999998 8
vt -22 0
vt -22 -2
vt -2.9768329 8
vt -2.9768329 0
vt -19.101347 8
vt -19.101349 -1.1920929E-07
vt 8.000002 22.000002
vt 3.5762787E-06 22
vt 22 -2
vt 22 0
vt 0 2.9768338
vt -8 2.9768338
vt -3.5762787E-06 19.101349
vt -8.000002 19.10135
vt 8 -2
vt 8 8
vt 21.999998 -2
vt 21.999998 0
vt -8.000001 8
vt -8.000001 -2
vt -22.000004 0
vt -22.000004 -2
vn -2.3841864E-07 0 1
vn -2.3841864E-07 0 1
vn -2.3841864E-07 0 1
vn -2.3841864E-07 0 1
vn -1 0 0
vn -1 0 0
vn -1 0 0
vn -1 0 0
vn -0 0 -1
vn -0 0 -1
vn -0 0 -1
vn -0 0 -1
vn 1 0 2.3841858E-07
vn 1 0 2.3841858E-07
vn 1 0 2.3841858E-07
vn 1 0 2.3841858E-07
vn -0 1 0
vn -0 1 0
vn -0 1 0
vn -0 1 0
vn -0 -1 0
vn -0 -1 0
vn -0 -1 0
vn -0 -1 0
vn -0 -1 0
vn -0 -1 0
vn -8.51495E-09 0 -1
vn -8.51495E-09 0 -1
vn 0.496139 0.8682431 0
vn 0.49613896 0.8682431 5.914437E-08
vn 0.49613896 0.8682431 5.914437E-08
vn 0.49613893 0.86824316 1.1828874E-07
vn -0 -1 0
vn -0 -1 0
vn -1 0 2.5544847E-07
vn -1 0 2.5544847E-07
vn -0 0.86824316 0.49613893
vn -5.914438E-08 0.86824316 0.49613893
vn -5.914438E-08 0.86824316 0.49613893
vn -1.1828876E-07 0.86824316 0.4961389
vn -0 0 1
vn -0 0 1
vn -0 0 1
vn -0 0 1
vn 1 0 -1.3623918E-07
vn 1 0 -1.3623918E-07
vn 1 0 -1.3623918E-07
vn 1 0 -1.3623917E-07
g pb_Mesh83284_0
f 3/3/3 2/2/2 1/1/1
f 3/3/3 4/4/4 2/2/2
f 7/7/7 6/6/6 5/5/5
f 7/7/7 8/8/8 6/6/6
f 11/11/11 10/10/10 9/9/9
f 11/11/11 12/12/12 10/10/10
f 15/15/15 14/14/14 13/13/13
f 15/15/15 16/16/16 14/14/14
f 19/19/19 18/18/18 17/17/17
f 19/19/19 20/20/20 18/18/18
f 23/23/23 22/22/22 21/21/21
f 23/23/23 24/24/24 22/22/22
f 25/25/25 23/23/23 21/21/21
f 25/25/25 26/26/26 23/23/23
f 27/27/27 10/10/10 12/12/12
f 27/27/27 28/28/28 10/10/10
f 31/31/31 30/30/30 29/29/29
f 31/31/31 32/32/32 30/30/30
f 33/33/33 24/24/24 23/23/23
f 33/33/33 34/34/34 24/24/24
f 35/35/35 7/7/7 5/5/5
f 35/35/35 36/36/36 7/7/7
f 39/39/39 38/38/38 37/37/37
f 39/39/39 40/40/40 38/38/38
g pb_Mesh83284_1
f 43/43/43 42/42/42 41/41/41
f 43/43/43 44/44/44 42/42/42
f 47/47/47 46/46/46 45/45/45
f 47/47/47 48/48/48 46/46/46
