g pb_Mesh68458
v -0 0 0
v -8 0 0
v -0 4 0
v -8 4 0
v -12 0 0
v -10 2 -6
v -12 2 0
v -10 4 -6
v -8 2 -6
v -0 2 -6
v -8 4 -6
v -0 4 -6
v -0 2 -6
v -0 0 0
v -0 4 -6
v -0 4 0
v -0 2 -6
v -8 2 -6
v -0 0 0
v -8 0 0
v -12 0 0
v -10 2 -6
v -12 2 0
v -12 0 0
v -10 2 -6
v -10 4 -6
v -8 4 -6
v -8 4 0
v -8 12 -6
v -8 12 0
v -14 12 -6
v -8 12 -6
v -8 12 0
v -14 10 0
v -12 2 0
v -10 4 -6
v -14 10 0
v -14 12 -6
v -8 14 -6
v -8 14 0
v -10 14 -6
v -8 14 -6
v -8 14 0
v -10 14 0
v -40 18 0
v -38 18 -6
v -40 20 0
v -38 20 -6
v -14 10 0
v -14 12 -6
v -20 10 0
v -20 12 -6
v -20 14 0
v -20 10 0
v -20 12 -6
v -20 14 -6
v -20 10 0
v -20 12 -6
v -30 16 0
v -30 18 -6
v -30 20 0
v -30 16 0
v -30 18 -6
v -30 20 -6
v -30 16 0
v -30 18 -6
v -32 16 0
v -32 18 -6
v -32 20 0
v -32 16 0
v -32 18 -6
v -32 20 -6
v -32 20 0
v -32 16 18
v -32 20 18
v -32 16 0
v -32 16 32
v -32 20 32
v -42 18 18
v -40 18 0
v -40 20 0
v -42 20 18
v -42 18 32
v -42 18 18
v -42 20 18
v -42 20 32
v -32 16 54
v -32 20 54
v -32 16 56
v -32 20 56
v -42 18 54
v -42 18 32
v -42 20 32
v -42 20 54
v -42 18 56
v -42 20 56
v -42 36 54
v -42 36 56
v -42 36 32
v -32 36 32
v -32 36 54
v -32 36 56
v -32 38 54
v -32 38 56
v -42 38 56
v -42 38 54
v -32 16 0
v -38 18 -6
v -39 17 0
v -32 18 -6
v -39 17 0
v -38 18 -6
v -40 18 0
v -32 16 56
v -40 17 56
v -32 20 56
v -40 20 56
v -42 18 56
v -42 20 56
v -38 20 -6
v -38 18 -6
v -42 36 32
v -40 20 32
v -40 36 32
v -42 20 32
v -32 20 32
v -32 36 32
v -40 36 56
v -32 36 56
v -42 36 56
v -40 17 18
v -39 17 0
v -40 18 0
v -42 18 18
v -32 16 18
v -39 17 0
v -40 17 18
v -32 16 0
v -42 18 32
v -40 17 32
v -40 17 18
v -42 18 18
v -32 16 32
v -40 17 18
v -40 17 32
v -32 16 18
v -42 18 54
v -40 17 54
v -40 17 32
v -42 18 32
v -40 17 54
v -32 16 54
v -32 16 32
v -40 17 32
v -40 17 56
v -42 18 56
v -32 16 56
v -40 17 56
v -42 38 54
v -40 36 54
v -40 38 54
v -42 36 54
v -32 36 54
v -32 38 54
v -40 38 56
v -32 38 56
v -42 38 56
v -42 38 32
v -40 38 32
v -40 36 32
v -40 36 54
v -40 38 32
v -40 38 54
v -42 38 32
v -40 36 54
v -42 36 54
v -40 38 54
v -42 38 54
v -0 4 0
v -8 4 0
v -0 4 -6
v -8 4 -6
v -8 14 -6
v -8 14 0
v -10 14 -6
v -10 14 0
v -20 14 -6
v -20 14 0
v -20 14 -6
v -20 14 0
v -30 20 -6
v -30 20 0
v -30 20 -6
v -30 20 0
v -32 20 -6
v -32 20 0
v -38 20 -6
v -39 20 0
v -40 20 0
v -42 20 18
v -40 20 18
v -32 20 18
v -40 20 32
v -42 20 32
v -32 20 32
v -42 38 32
v -40 38 32
v -40 38 54
v -42 38 54
v -40 36 32
v -32 36 32
v -32 36 54
v -40 36 54
v -40 38 56
v -42 38 56
v -32 38 54
v -32 38 56
vt 0 0
vt -8 0
vt 0 4
vt -8 4
vt 3.7947335 0
vt -2.5298219 2
vt 3.7947335 2
vt -2.5298219 4
vt 8 2
vt 0 2
vt 8 4
vt 0 4
vt 6 2
vt 0 0
vt 6 4
vt 0 4
vt -0 -6.3245554
vt -8 -6.3245554
vt 0 0
vt -8 0
vt -12 0
vt -10 -6.3245554
vt -12 2
vt -12 0
vt 10 2
vt 10 4
vt 6 4
vt 0 4
vt 6 12
vt 0 12
vt 14 12
vt 8 12
vt -8 12
vt -14 10
vt 4.615384 4.4395337
vt -1.6923076 6.4920974
vt 5.384615 12.649788
vt -0.15384614 15.117477
vt 6 14
vt 0 14
vt 10 14
vt 8 14
vt -8 14
vt -10 14
vt 12.649112 18
vt 6.3245564 18
vt 12.649112 20
vt 6.3245564 20
vt -14 -3.1622777
vt -14 -9.486834
vt -20 -3.1622777
vt -20 -9.486834
vt -20 14
vt -20 10
vt 20 12
vt 20 14
vt -22.294817 0.4713209
vt -23.323809 -5.7689657
vt -33.95672 0.471321
vt -34.98571 -5.7689657
vt -30 20
vt -30 16
vt 30 18
vt 30 20
vt -30 -5.0596447
vt -30 -11.3842
vt -32 -5.0596447
vt -32 -11.3842
vt -32 20
vt -32 16
vt 32 18
vt 32 20
vt 0 20
vt -18 16
vt -18 20
vt 0 16
vt -32 16
vt -32 20
vt 20.295073 18
vt 2.2120156 18
vt 2.2120156 20
vt 20.295073 20
vt 34.273647 18
vt 20.295073 18
vt 20.295073 20
vt 34.273647 20
vt -54 16
vt -54 20
vt -56 16
vt -56 20
vt 54 18
vt 32 18
vt 32 20
vt 54 20
vt 56 18
vt 56 20
vt 54 36
vt 56 36
vt 32 36
vt -32 36
vt -54 36
vt -56 36
vt -54 38
vt -56 38
vt 56 38
vt 54 38
vt -35.777042 -0.012438774
vt -42.039448 -5.6750836
vt -42.4888 0.47293085
vt -36.668617 -6.25846
vt -42.4888 0.47293085
vt -42.039448 -5.6750836
vt -43.829727 0.374924
vt -32 16
vt -40 17
vt -32 20
vt -40 20
vt -42 18
vt -42 20
vt 38 20
vt 38 18
vt 42 36
vt 40 20
vt 40 36
vt 42 20
vt 32 20
vt 32 36
vt -40 36
vt -32 36
vt -42 36
vt -43.444138 17.983515
vt -42.51279 -0.019557035
vt -43.80827 -0.026355213
vt -45.670963 17.981081
vt -35.629227 17.959763
vt -42.51279 -0.019557035
vt -43.444138 17.983515
vt -35.629227 -0.038943946
vt -45.670963 31.980074
vt -43.444138 31.98251
vt -43.444138 17.983515
vt -45.670963 17.981081
vt -35.629227 31.958757
vt -43.444138 17.983515
vt -43.444138 31.98251
vt -35.629227 17.959763
vt -45.413982 54
vt -43.210014 54
vt -43.210014 32
vt -45.413982 32
vt -43.210014 54
vt -35.263493 54
vt -35.263493 32
vt -43.210014 32
vt -43.210014 56
vt -45.413982 56
vt -35.263493 56
vt -43.210014 56
vt 42 38
vt 40 36
vt 40 38
vt 42 36
vt 32 36
vt 32 38
vt -40 38
vt -32 38
vt -42 38
vt 42 38
vt 40 38
vt -32 36
vt -54 36
vt -32 38
vt -54 38
vt 32 38
vt -40 36
vt -42 36
vt -40 38
vt -42 38
vt 0 0
vt 8 0
vt 0 -6
vt 8 -6
vt 8 -6
vt 8 0
vt 10 -6
vt 10 0
vt 20 -6
vt 20 0
vt 24.352798 -6
vt 24.352798 0
vt 36.0147 -6
vt 36.0147 0
vt 30 -6
vt 30 0
vt 32 -6
vt 32 0
vt 38 -6
vt 39 0
vt 40 0
vt 42 18
vt 40 18
vt 32 18
vt 40 32
vt 42 32
vt 32 32
vt 42 32
vt 40 32
vt 40 54
vt 42 54
vt 40 32
vt 32 32
vt 32 54
vt 40 54
vt 40 56
vt 42 56
vt 32 54
vt 32 56
vn -0 0 1
vn -0 0 1
vn -0 0 1
vn -0 0 1
vn -0.9486833 0 -0.3162278
vn -0.9486833 0 -0.3162278
vn -0.9486833 0 -0.3162278
vn -0.9486833 0 -0.3162278
vn -0 0 -1
vn -0 0 -1
vn -0 0 -1
vn -0 0 -1
vn 1 0 0
vn 1 0 0
vn 1 0 0
vn 1 0 0
vn -0 -0.9486833 -0.3162278
vn -0 -0.9486833 -0.3162278
vn -0 -0.9486833 -0.3162278
vn -0 -0.9486833 -0.3162278
vn -0 -0.9486833 -0.3162278
vn -0 -0.9486833 -0.3162278
vn -0 0 1
vn -0 0 1
vn -0 0 -1
vn -0 0 -1
vn 1 0 0
vn 1 0 0
vn 1 0 0
vn 1 0 0
vn -0 0 -1
vn -0 0 -1
vn -0 0 1
vn -0 0 1
vn -0.899438 -0.2248595 -0.37476584
vn -0.8920449 -0.33359268 -0.2611039
vn -0.8920449 -0.33359268 -0.2611039
vn -0.8846517 -0.44232586 -0.14744195
vn 1 0 0
vn 1 0 0
vn -0 0 -1
vn -0 0 -1
vn -0 0 1
vn -0 0 1
vn -0.9486833 0 -0.3162278
vn -0.9486833 0 -0.3162278
vn -0.9486833 0 -0.3162278
vn -0.9486833 0 -0.3162278
vn -0 -0.9486833 -0.31622776
vn -0 -0.9486833 -0.31622776
vn -0 -0.9486833 -0.31622776
vn -0 -0.9486833 -0.31622776
vn -0 0 1
vn -0 0 1
vn -0 0 -1
vn -0 0 -1
vn -0.49468476 -0.8244746 -0.27482486
vn -0.49468476 -0.8244746 -0.27482486
vn -0.49468476 -0.8244746 -0.27482486
vn -0.49468476 -0.8244746 -0.27482486
vn -0 0 1
vn -0 0 1
vn -0 0 -1
vn -0 0 -1
vn -0 -0.9486833 -0.3162278
vn -0 -0.9486833 -0.3162278
vn -0 -0.9486833 -0.3162278
vn -0 -0.9486833 -0.3162278
vn -0 0 1
vn -0 0 1
vn -0 0 -1
vn -0 0 -1
vn 1 0 0
vn 1 0 0
vn 1 0 0
vn 1 0 0
vn 1 0 0
vn 1 0 0
vn -0.9938837 0 -0.11043153
vn -0.9938837 0 -0.11043153
vn -0.9938837 0 -0.11043153
vn -0.9938837 0 -0.11043153
vn -1 0 0
vn -1 0 0
vn -1 0 0
vn -1 0 0
vn 1 0 0
vn 1 0 0
vn 1 0 0
vn 1 0 0
vn -1 0 0
vn -1 0 0
vn -1 0 0
vn -1 0 0
vn -1 0 0
vn -1 0 0
vn -1 0 0
vn -1 0 0
vn -1 0 0
vn 1 0 0
vn 1 0 0
vn 1 0 0
vn 1 0 0
vn 1 0 0
vn -1 0 0
vn -1 0 0
vn -0.069486156 -0.96074474 -0.2507621
vn -0.069486156 -0.96074474 -0.2507621
vn -0.13897231 -0.97280616 -0.18529642
vn -0 -0.9486833 -0.31622776
vn -0.6882472 -0.6882472 -0.22941573
vn -0.6882472 -0.6882472 -0.22941573
vn -0.6882472 -0.6882472 -0.22941573
vn -0 0 1
vn -0 0 1
vn -0 0 1
vn -0 0 1
vn -0 0 1
vn -0 0 1
vn -0 0 -1
vn -0 0 -1
vn -0 0 -1
vn -0 0 -1
vn -0 0 -1
vn -0 0 -1
vn -0 0 -1
vn -0 0 -1
vn -0 0 1
vn -0 0 1
vn -0 0 1
vn -0.5766122 -0.79994345 -0.0444413
vn -0.7065618 -0.7065618 -0.039253432
vn -0.5766122 -0.79994345 -0.0444413
vn -0.44666252 -0.89332503 -0.04962917
vn -0.13272658 -0.99110186 -0.0034453275
vn -0.13272658 -0.99110186 -0.0034453275
vn -0.12403179 -0.9922543 -0.006890655
vn -0.14142136 -0.98994946 0
vn -0.4472136 -0.8944272 0
vn -0.4472136 -0.8944272 0
vn -0.4472136 -0.8944272 0
vn -0.4472136 -0.8944272 0
vn -0.12403474 -0.9922779 0
vn -0.12403474 -0.9922779 0
vn -0.12403474 -0.9922779 0
vn -0.12403474 -0.9922779 0
vn -0.4472136 -0.8944272 0
vn -0.4472136 -0.8944272 0
vn -0.4472136 -0.8944272 0
vn -0.4472136 -0.8944272 0
vn -0.12403473 -0.99227786 0
vn -0.12403473 -0.99227786 0
vn -0.12403473 -0.99227786 0
vn -0.12403473 -0.99227786 0
vn -0.4472136 -0.8944272 0
vn -0.4472136 -0.8944272 0
vn -0.12403473 -0.99227786 0
vn -0.12403473 -0.99227786 0
vn -0 0 -1
vn -0 0 -1
vn -0 0 -1
vn -0 0 -1
vn -0 0 -1
vn -0 0 -1
vn -0 0 1
vn -0 0 1
vn -0 0 1
vn -0 0 -1
vn -0 0 -1
vn 1 0 0
vn 1 0 0
vn 1 0 0
vn 1 0 0
vn -1 0 0
vn -0 0 1
vn -0 0 1
vn -0 0 1
vn -0 0 1
vn -0 1 0
vn -0 1 0
vn -0 1 0
vn -0 1 0
vn -0 1 0
vn -0 1 0
vn -0 1 0
vn -0 1 0
vn -0 1 0
vn -0 1 0
vn 0.51449573 0.85749286 0
vn 0.51449573 0.85749286 0
vn 0.51449573 0.85749286 0
vn 0.51449573 0.85749286 0
vn -0 1 0
vn -0 1 0
vn -0 1 0
vn -0 1 0
vn -0 1 0
vn -0 1 0
vn -0 1 0
vn -0 1 0
vn -0 1 0
vn -0 1 0
vn -0 1 0
vn -0 1 0
vn -0 1 0
vn -0 1 0
vn -0 1 0
vn -0 1 0
vn -0 1 0
vn -0 1 0
vn -0 1 0
vn -0 1 0
vn -0 1 0
vn -0 1 0
vn -0 1 0
vn -0 1 0
vn -0 1 0
g pb_Mesh68458_0
f 3/3/3 2/2/2 1/1/1
f 3/3/3 4/4/4 2/2/2
f 7/7/7 6/6/6 5/5/5
f 7/7/7 8/8/8 6/6/6
f 11/11/11 10/10/10 9/9/9
f 11/11/11 12/12/12 10/10/10
f 15/15/15 14/14/14 13/13/13
f 15/15/15 16/16/16 14/14/14
f 19/19/19 18/18/18 17/17/17
f 19/19/19 20/20/20 18/18/18
f 21/21/21 18/18/18 20/20/20
f 21/21/21 22/22/22 18/18/18
f 23/23/23 2/2/2 4/4/4
f 23/23/23 24/24/24 2/2/2
f 25/25/25 11/11/11 9/9/9
f 25/25/25 26/26/26 11/11/11
f 29/29/29 28/28/28 27/27/27
f 29/29/29 30/30/30 28/28/28
f 31/31/31 11/11/11 26/26/26
f 31/31/31 32/32/32 11/11/11
f 33/33/33 23/23/23 4/4/4
f 33/33/33 34/34/34 23/23/23
f 37/37/37 36/36/36 35/35/35
f 37/37/37 38/38/38 36/36/36
f 39/39/39 30/30/30 29/29/29
f 39/39/39 40/40/40 30/30/30
f 41/41/41 32/32/32 31/31/31
f 41/41/41 42/42/42 32/32/32
f 43/43/43 34/34/34 33/33/33
f 43/43/43 44/44/44 34/34/34
f 47/47/47 46/46/46 45/45/45
f 47/47/47 48/48/48 46/46/46
f 51/51/51 50/50/50 49/49/49
f 51/51/51 52/52/52 50/50/50
f 53/53/53 34/34/34 44/44/44
f 53/53/53 54/54/54 34/34/34
f 55/55/55 41/41/41 31/31/31
f 55/55/55 56/56/56 41/41/41
f 59/59/59 58/58/58 57/57/57
f 59/59/59 60/60/60 58/58/58
f 61/61/61 54/54/54 53/53/53
f 61/61/61 62/62/62 54/54/54
f 63/63/63 56/56/56 55/55/55
f 63/63/63 64/64/64 56/56/56
f 67/67/67 66/66/66 65/65/65
f 67/67/67 68/68/68 66/66/66
f 69/69/69 62/62/62 61/61/61
f 69/69/69 70/70/70 62/62/62
f 71/71/71 64/64/64 63/63/63
f 71/71/71 72/72/72 64/64/64
f 75/75/75 74/74/74 73/73/73
f 74/74/74 76/76/76 73/73/73
f 78/78/78 77/77/77 75/75/75
f 77/77/77 74/74/74 75/75/75
f 81/81/81 80/80/80 79/79/79
f 81/81/81 79/79/79 82/82/82
f 85/85/85 84/84/84 83/83/83
f 85/85/85 83/83/83 86/86/86
f 88/88/88 87/87/87 78/78/78
f 87/87/87 77/77/77 78/78/78
f 90/90/90 89/89/89 88/88/88
f 89/89/89 87/87/87 88/88/88
f 93/93/93 92/92/92 91/91/91
f 93/93/93 91/91/91 94/94/94
f 94/94/94 91/91/91 95/95/95
f 94/94/94 95/95/95 96/96/96
f 97/97/97 94/94/94 96/96/96
f 97/97/97 96/96/96 98/98/98
f 99/99/99 93/93/93 94/94/94
f 99/99/99 94/94/94 97/97/97
f 101/101/101 88/88/88 100/100/100
f 88/88/88 78/78/78 100/100/100
f 102/102/102 90/90/90 101/101/101
f 90/90/90 88/88/88 101/101/101
f 103/103/103 102/102/102 101/101/101
f 103/103/103 104/104/104 102/102/102
f 105/105/105 97/97/97 98/98/98
f 105/105/105 106/106/106 97/97/97
f 109/109/109 108/108/108 107/107/107
f 108/108/108 110/110/110 107/107/107
f 113/113/113 112/112/112 111/111/111
f 116/116/116 115/115/115 114/114/114
f 116/116/116 117/117/117 115/115/115
f 117/117/117 118/118/118 115/115/115
f 117/117/117 119/119/119 118/118/118
f 72/72/72 71/71/71 120/120/120
f 71/71/71 121/121/121 120/120/120
f 124/124/124 123/123/123 122/122/122
f 123/123/123 125/125/125 122/122/122
f 127/127/127 126/126/126 124/124/124
f 126/126/126 123/123/123 124/124/124
f 128/128/128 117/117/117 116/116/116
f 128/128/128 116/116/116 129/129/129
f 130/130/130 119/119/119 117/117/117
f 130/130/130 117/117/117 128/128/128
f 133/133/133 132/132/132 131/131/131
f 134/134/134 133/133/133 131/131/131
f 137/137/137 136/136/136 135/135/135
f 136/136/136 138/138/138 135/135/135
f 141/141/141 140/140/140 139/139/139
f 142/142/142 141/141/141 139/139/139
f 145/145/145 144/144/144 143/143/143
f 144/144/144 146/146/146 143/143/143
f 149/149/149 148/148/148 147/147/147
f 150/150/150 149/149/149 147/147/147
f 153/153/153 152/152/152 151/151/151
f 154/154/154 153/153/153 151/151/151
f 156/156/156 147/147/147 155/155/155
f 147/147/147 148/148/148 155/155/155
f 158/158/158 151/151/151 157/157/157
f 151/151/151 152/152/152 157/157/157
f 161/161/161 160/160/160 159/159/159
f 160/160/160 162/162/162 159/159/159
f 164/164/164 163/163/163 161/161/161
f 163/163/163 160/160/160 161/161/161
f 165/165/165 128/128/128 129/129/129
f 165/165/165 129/129/129 166/166/166
f 167/167/167 130/130/130 128/128/128
f 167/167/167 128/128/128 165/165/165
f 168/168/168 124/124/124 122/122/122
f 168/168/168 169/169/169 124/124/124
f 172/172/172 171/171/171 170/170/170
f 172/172/172 173/173/173 171/171/171
f 106/106/106 99/99/99 97/97/97
f 106/106/106 174/174/174 99/99/99
f 177/177/177 176/176/176 175/175/175
f 177/177/177 178/178/178 176/176/176
g pb_Mesh68458_1
f 181/181/181 180/180/180 179/179/179
f 181/181/181 182/182/182 180/180/180
f 185/185/185 184/184/184 183/183/183
f 185/185/185 186/186/186 184/184/184
f 187/187/187 186/186/186 185/185/185
f 187/187/187 188/188/188 186/186/186
f 191/191/191 190/190/190 189/189/189
f 191/191/191 192/192/192 190/190/190
f 195/195/195 194/194/194 193/193/193
f 195/195/195 196/196/196 194/194/194
f 196/196/196 195/195/195 197/197/197
f 196/196/196 197/197/197 198/198/198
f 198/198/198 197/197/197 199/199/199
f 201/201/201 199/199/199 200/200/200
f 201/201/201 198/198/198 199/199/199
f 202/202/202 196/196/196 198/198/198
f 202/202/202 198/198/198 201/201/201
f 203/203/203 201/201/201 200/200/200
f 203/203/203 200/200/200 204/204/204
f 205/205/205 202/202/202 201/201/201
f 205/205/205 201/201/201 203/203/203
f 208/208/208 207/207/207 206/206/206
f 208/208/208 206/206/206 209/209/209
f 212/212/212 211/211/211 210/210/210
f 212/212/212 210/210/210 213/213/213
f 214/214/214 208/208/208 209/209/209
f 214/214/214 209/209/209 215/215/215
f 217/217/217 216/216/216 208/208/208
f 217/217/217 208/208/208 214/214/214
