g pb_Mesh65576
v 16 0 -2
v 8 0 -2
v 16 10 -2
v 8 10 -2
v 8 0 -2
v 8 0 -22
v 8 10 -2
v 8 10 -22
v 8 0 -22
v 16 0 -22
v 8 10 -22
v 16 10 -22
v 25.999857 0 -15.000243
v 25.999914 0 -9.000243
v 25.999857 6 -15.000243
v 25.999914 6 -9.000243
v 16 0 -22
v 8 0 -22
v 16 0 -2
v 8 0 -2
v 28 0 -22
v 28 0 -2
v 28 10 -22
v 28 0 -22
v 28 0 -2
v 28 10 -2
v 16 30 -2
v 16 30 -22
v 16 30.5 -2
v 16 30.5 -22
v 16.999998 29.5 -2.9999995
v 26.999998 29.5 -2.999999
v 17 30.5 -3
v 27 30.5 -3
v 17 29.5 -20.999998
v 16.999998 29.5 -2.9999995
v 17 30.5 -21
v 17 30.5 -3
v 16 30 -22
v 28 30 -22
v 16 30.5 -22
v 28 30.5 -22
v 27 29.5 -20.999998
v 17 29.5 -20.999998
v 27 30.5 -21
v 17 30.5 -21
v 28 30 -22
v 28 30 -2
v 28 30.5 -22
v 28 30.5 -2
v 26.999998 29.5 -2.999999
v 27 29.5 -20.999998
v 27 30.5 -3
v 27 30.5 -21
v 28 30 -2
v 16 30 -2
v 28 30.5 -2
v 16 30.5 -2
v 28 0 -22
v 28 0 -2
v 27.999857 0 -15.000264
v 27.999914 0 -9.000264
v 28 10 -22
v 28 0 -22
v 27.999857 6 -15.000264
v 27.999857 0 -15.000264
v 28 0 -2
v 28 10 -2
v 27.999914 0 -9.000264
v 27.999914 6 -9.000264
v 28 10 -2
v 28 10 -22
v 27.999914 6 -9.000264
v 27.999857 6 -15.000264
v 27.999857 6 -15.000264
v 27.999857 0 -15.000264
v 25.999857 6 -15.000243
v 25.999857 0 -15.000243
v 27.999914 0 -9.000264
v 27.999914 6 -9.000264
v 25.999914 0 -9.000243
v 25.999914 6 -9.000243
v 27.999914 6 -9.000264
v 27.999857 6 -15.000264
v 25.999914 6 -9.000243
v 25.999857 6 -15.000243
v 16 10 -2
v 16 10 -22
v 16.000002 20 -21.999996
v 16 20 -1.9999977
v 16 20 -1.9999977
v 28 20 -1.999997
v 16.000002 20 -21.999996
v 28.000002 20 -21.999996
v 28.000002 20 -21.999996
v 28 10 -2
v 28 20 -1.999997
v 28 10 -22
v 11.999943 19 -6.000107
v 11.999829 19 -18.000109
v 11.999943 21 -6.0001087
v 11.999829 21 -18.00011
v 16.000002 21 -21.999996
v 16 21 -1.9999977
v 16 21 -1.9999977
v 28 21 -1.999997
v 16.000002 21 -21.999996
v 28.000002 21 -21.999996
v 28.000002 21 -21.999996
v 28 21 -1.999997
v 28 30 -2
v 28 30 -22
v 16 20 -1.9999977
v 16.000002 20 -21.999996
v 15.999943 19 -6.0001483
v 15.999829 19 -18.00015
v 16 21 -1.9999977
v 16 20 -1.9999977
v 15.999943 21 -6.00015
v 15.999943 19 -6.0001483
v 16.000002 20 -21.999996
v 16.000002 21 -21.999996
v 15.999829 19 -18.00015
v 15.999829 21 -18.00015
v 16.000002 21 -21.999996
v 16 21 -1.9999977
v 15.999829 21 -18.00015
v 15.999943 21 -6.00015
v 15.999943 19 -6.0001483
v 15.999829 19 -18.00015
v 11.999943 19 -6.000107
v 11.999829 19 -18.000109
v 15.999943 21 -6.00015
v 15.999943 19 -6.0001483
v 11.999943 21 -6.0001087
v 11.999943 19 -6.000107
v 15.999829 19 -18.00015
v 15.999829 21 -18.00015
v 11.999829 19 -18.000109
v 11.999829 21 -18.00011
v 16 10 -2
v 8 10 -2
v 16 10 -22
v 8 10 -22
v 16.999998 29.5 -2.9999995
v 17 29.5 -20.999998
v 26.999998 29.5 -2.999999
v 27 29.5 -20.999998
v 15.999829 21 -18.00015
v 15.999943 21 -6.00015
v 11.999829 21 -18.00011
v 11.999943 21 -6.0001087
v 16 30.5 -2
v 16 30.5 -22
v 17 30.5 -3
v 17 30.5 -21
v 28 30.5 -2
v 27 30.5 -3
v 28 30.5 -22
v 27 30.5 -21
vt 16 0
vt 8 0
vt 16 10
vt 8 10
vt -2 0
vt -22 0
vt -2 10
vt -22 10
vt -8 0
vt -16 0
vt -8 10
vt -16 10
vt 14.999995 0
vt 8.999995 0
vt 14.999995 6
vt 8.999995 6
vt 16 -22
vt 8 -22
vt 16 -2
vt 8 -2
vt 28 -22
vt 28 -2
vt -28 10
vt -28 0
vt 28 0
vt 28 10
vt -2 30
vt -22 30
vt -2 30.5
vt -22 30.5
vt -16.999998 29.500002
vt -26.999998 29.500002
vt -17 30.500002
vt -27 30.500002
vt 21 29.5
vt 3.0000014 29.5
vt 21.000002 30.5
vt 3.000002 30.5
vt -16 30
vt -28 30
vt -16 30.5
vt -28 30.5
vt 27 29.50004
vt 17 29.50004
vt 27 30.50004
vt 17 30.50004
vt 22 30
vt 2 30
vt 22 30.5
vt 2 30.5
vt -3.000002 29.500051
vt -21.000002 29.500051
vt -3.0000029 30.500051
vt -21.000004 30.500051
vt 28 30
vt 16 30
vt 28 30.5
vt 16 30.5
vt -28 -22
vt -28 -2
vt -27.999857 -15.000264
vt -27.999914 -9.000264
vt 22.000572 10
vt 22.000572 0
vt 15.000836 6
vt 15.000836 0
vt 1.9996567 0
vt 1.9996567 10
vt 8.999921 0
vt 8.999921 6
vt 2 10.000601
vt 22 10.000601
vt 9.000264 6.000601
vt 15.000264 6.000601
vt 28.000015 6
vt 28.000015 0
vt 26.000015 6
vt 26.000015 0
vt -28.00001 0
vt -28.00001 6
vt -26.00001 0
vt -26.00001 6
vt 27.999914 -9.000264
vt 27.999857 -15.000264
vt 25.999914 -9.000243
vt 25.999857 -15.000243
vt -2.0000007 10.000002
vt -22 10.000002
vt -21.999996 20.000002
vt -1.9999985 20.000002
vt 16 20
vt 28 20
vt -16.000002 20
vt -28.000002 20
vt 21.999998 19.999998
vt 2.0000017 9.999998
vt 1.9999988 19.999998
vt 22.000002 9.999998
vt -5.9999933 19
vt -17.999996 19
vt -5.999995 21
vt -17.999998 21
vt -21.999996 21.000002
vt -1.9999985 21.000002
vt 16 21
vt 28 21
vt -16.000002 21
vt -28.000002 21
vt 21.999998 20.999998
vt 1.9999988 20.999998
vt 2.0000017 29.999998
vt 22.000002 29.999998
vt 1.9999993 20.000921
vt 21.999998 20.000921
vt 6.0001497 19.000921
vt 18.000153 19.000921
vt -1.9997689 21
vt -1.9997689 20
vt -5.9999213 21
vt -5.9999194 19
vt -22.000687 20
vt -22.000687 21
vt -18.000841 19
vt -18.000841 21
vt -16.000002 -21.999996
vt -16 -1.9999977
vt -15.999829 -18.00015
vt -15.999943 -6.00015
vt 15.999943 -6.0001483
vt 15.999829 -18.00015
vt 11.999943 -6.000107
vt 11.999829 -18.000109
vt 16.000006 21.000006
vt 16.000006 19.000006
vt 12.000005 21.000006
vt 12.000005 19.000006
vt -16.00002 19
vt -16.00002 21
vt -12.000018 19
vt -12.000018 21
vt -16 -2
vt -8 -2
vt -16 -22
vt -8 -22
vt -16.999998 -2.9999995
vt -17 -20.999998
vt -26.999998 -2.999999
vt -27 -20.999998
vt -15.999829 -18.00015
vt -15.999943 -6.00015
vt -11.999829 -18.00011
vt -11.999943 -6.0001087
vt -16 -2
vt -16 -22
vt -17 -3
vt -17 -21
vt -28 -2
vt -27 -3
vt -28 -22
vt -27 -21
vn -0 0 1
vn -0 0 1
vn -0 0 1
vn -0 0 1
vn -1 0 0
vn -1 0 0
vn -1 0 0
vn -1 0 0
vn -0 0 -1
vn -0 0 -1
vn -0 0 -1
vn -0 0 -1
vn 1 0 -9.536743E-06
vn 1 0 -9.536743E-06
vn 1 0 -9.536743E-06
vn 1 0 -9.536743E-06
vn -0 -1 0
vn -0 -1 0
vn -0 -1 0
vn -0 -1 0
vn -0 -1 0
vn -0 -1 0
vn -0 0 -1
vn -0 0 -1
vn -0 0 1
vn -0 0 1
vn -1 0 0
vn -1 0 0
vn -1 0 0
vn -1 0 0
vn 4.7683717E-08 -4.768373E-07 -1
vn 2.3841858E-08 -7.152558E-07 -1
vn 2.3841858E-08 -7.152558E-07 -1
vn -0 -9.536743E-07 -1
vn 1 2.0210995E-13 1.0596382E-07
vn 1 -9.536742E-07 5.298191E-08
vn 1 -9.536742E-07 5.298191E-08
vn 1 -1.9073486E-06 0
vn -0 0 -1
vn -0 0 -1
vn -0 0 -1
vn -0 0 -1
vn -0 1.9073486E-06 1
vn -0 1.9073486E-06 1
vn -0 1.9073486E-06 1
vn -0 1.9073486E-06 1
vn 1 0 0
vn 1 0 0
vn 1 0 0
vn 1 0 0
vn -1 1.9073486E-06 -1.05963814E-07
vn -1 9.536743E-07 -5.2981907E-08
vn -1 9.536743E-07 -5.2981907E-08
vn -1 0 0
vn -0 0 1
vn -0 0 1
vn -0 0 1
vn -0 0 1
vn -0 1 0
vn -0 1 0
vn -0 1 0
vn -0 1 0
vn 1 0 2.043665E-05
vn 1 0 2.043665E-05
vn 1 0 2.043665E-05
vn 1 0 2.043665E-05
vn 1 0 -1.22610645E-05
vn 1 0 -1.2261064E-05
vn 1 0 -1.2261064E-05
vn 1 0 -1.2261064E-05
vn 1 -2.1457672E-05 0
vn 1 -3.6954567E-05 -4.7683716E-06
vn 1 -3.6954567E-05 -4.7683716E-06
vn 1 -5.2451458E-05 -9.536743E-06
vn 1.04904175E-05 0 1
vn 1.04904175E-05 0 1
vn 1.04904175E-05 0 1
vn 1.04904175E-05 0 1
vn -1.04904175E-05 0 -1
vn -1.04904175E-05 0 -1
vn -1.04904175E-05 0 -1
vn -1.04904175E-05 0 -1
vn -0 -1 0
vn -0 -1 0
vn -0 -1 0
vn -0 -1 0
vn -1 9.536745E-08 -4.768372E-08
vn -1 1.9073487E-07 0
vn -1 9.536745E-08 -4.768372E-08
vn -1 2.16005E-14 -9.536744E-08
vn -2.9802322E-08 -2.6226044E-07 1
vn -5.9604645E-08 -2.9802322E-07 1
vn -0 3.8146973E-07 -1
vn -0 3.8146973E-07 -1
vn 1 -9.5367454E-08 4.7683717E-08
vn 1 -9.5367454E-08 4.7683717E-08
vn 1 -3.6379787E-14 9.536743E-08
vn 1 -1.9073487E-07 0
vn -1 9.019154E-12 9.457269E-06
vn -1 9.019154E-12 9.457269E-06
vn -1 9.019154E-12 9.457269E-06
vn -1 9.019154E-12 9.457269E-06
vn -1 -1.0596382E-07 -4.768372E-08
vn -1 -2.0210996E-14 -9.536744E-08
vn -5.9604645E-08 0 1
vn -5.9604645E-08 0 1
vn -0 0 -1
vn -0 0 -1
vn 1 0 9.536743E-08
vn 1 0 9.536743E-08
vn 1 1.0596383E-07 4.7683717E-08
vn 1 2.1192763E-07 0
vn 1 -5.7601945E-05 9.536744E-08
vn 1 -0.00013402231 -4.6809505E-06
vn 1 -0.00013402231 -4.6809505E-06
vn 1 -0.00021044267 -9.457269E-06
vn -1 0 1.4304569E-05
vn -1 6.820952E-12 1.4304571E-05
vn -1 6.820952E-12 1.4304571E-05
vn -1 1.3641904E-11 1.4304573E-05
vn -1 0 -4.315543E-05
vn -1 0 -4.315543E-05
vn -1 0 -4.315543E-05
vn -1 0 -4.315543E-05
vn -0 1 0
vn -0 1 0
vn -0 1 0
vn -0 1 0
vn -0 -1 0
vn -0 -1 0
vn -0 -1 0
vn -0 -1 0
vn 1.0371208E-05 9.536743E-07 1
vn 1.0371208E-05 9.536743E-07 1
vn 1.0371208E-05 9.536743E-07 1
vn 1.0371208E-05 9.536743E-07 1
vn -1.04904175E-05 0 -1
vn -1.0251999E-05 -4.7683716E-07 -1
vn -1.0251999E-05 -4.7683716E-07 -1
vn -1.001358E-05 -9.536743E-07 -1
vn -0 1 0
vn -0 1 0
vn -0 1 0
vn -0 1 0
vn -0 1 0
vn -0 1 0
vn -0 1 0
vn -0 1 0
vn -0 1 0
vn -0 1 0
vn -0 1 0
vn -0 1 0
vn -0 1 0
vn -0 1 0
vn -0 1 0
vn -0 1 0
vn -0 1 0
vn -0 1 0
vn -0 1 0
vn -0 1 0
g pb_Mesh65576_0
f 3/3/3 2/2/2 1/1/1
f 3/3/3 4/4/4 2/2/2
f 7/7/7 6/6/6 5/5/5
f 7/7/7 8/8/8 6/6/6
f 11/11/11 10/10/10 9/9/9
f 11/11/11 12/12/12 10/10/10
f 15/15/15 14/14/14 13/13/13
f 15/15/15 16/16/16 14/14/14
f 19/19/19 18/18/18 17/17/17
f 19/19/19 20/20/20 18/18/18
f 21/21/21 19/19/19 17/17/17
f 21/21/21 22/22/22 19/19/19
f 23/23/23 10/10/10 12/12/12
f 23/23/23 24/24/24 10/10/10
f 25/25/25 3/3/3 1/1/1
f 25/25/25 26/26/26 3/3/3
f 29/29/29 28/28/28 27/27/27
f 29/29/29 30/30/30 28/28/28
f 33/33/33 32/32/32 31/31/31
f 33/33/33 34/34/34 32/32/32
f 37/37/37 36/36/36 35/35/35
f 37/37/37 38/38/38 36/36/36
f 41/41/41 40/40/40 39/39/39
f 41/41/41 42/42/42 40/40/40
f 45/45/45 44/44/44 43/43/43
f 45/45/45 46/46/46 44/44/44
f 49/49/49 48/48/48 47/47/47
f 49/49/49 50/50/50 48/48/48
f 53/53/53 52/52/52 51/51/51
f 53/53/53 54/54/54 52/52/52
f 57/57/57 56/56/56 55/55/55
f 57/57/57 58/58/58 56/56/56
f 61/61/61 60/60/60 59/59/59
f 61/61/61 62/62/62 60/60/60
f 65/65/65 64/64/64 63/63/63
f 65/65/65 66/66/66 64/64/64
f 69/69/69 68/68/68 67/67/67
f 69/69/69 70/70/70 68/68/68
f 73/73/73 72/72/72 71/71/71
f 73/73/73 74/74/74 72/72/72
f 77/77/77 76/76/76 75/75/75
f 77/77/77 78/78/78 76/76/76
f 81/81/81 80/80/80 79/79/79
f 81/81/81 82/82/82 80/80/80
f 85/85/85 84/84/84 83/83/83
f 85/85/85 86/86/86 84/84/84
f 89/89/89 88/88/88 87/87/87
f 89/89/89 87/87/87 90/90/90
f 91/91/91 3/3/3 26/26/26
f 91/91/91 26/26/26 92/92/92
f 94/94/94 23/23/23 93/93/93
f 23/23/23 12/12/12 93/93/93
f 97/97/97 96/96/96 95/95/95
f 96/96/96 98/98/98 95/95/95
f 101/101/101 100/100/100 99/99/99
f 102/102/102 100/100/100 101/101/101
f 104/104/104 27/27/27 103/103/103
f 27/27/27 28/28/28 103/103/103
f 105/105/105 91/91/91 92/92/92
f 105/105/105 92/92/92 106/106/106
f 56/56/56 105/105/105 106/106/106
f 56/56/56 106/106/106 55/55/55
f 108/108/108 93/93/93 107/107/107
f 94/94/94 93/93/93 108/108/108
f 40/40/40 108/108/108 39/39/39
f 108/108/108 107/107/107 39/39/39
f 110/110/110 95/95/95 109/109/109
f 97/97/97 95/95/95 110/110/110
f 109/109/109 112/112/112 111/111/111
f 109/109/109 111/111/111 110/110/110
f 115/115/115 114/114/114 113/113/113
f 115/115/115 116/116/116 114/114/114
f 119/119/119 118/118/118 117/117/117
f 119/119/119 120/120/120 118/118/118
f 123/123/123 122/122/122 121/121/121
f 123/123/123 124/124/124 122/122/122
f 127/127/127 126/126/126 125/125/125
f 127/127/127 128/128/128 126/126/126
f 131/131/131 130/130/130 129/129/129
f 131/131/131 132/132/132 130/130/130
f 135/135/135 134/134/134 133/133/133
f 135/135/135 136/136/136 134/134/134
f 139/139/139 138/138/138 137/137/137
f 139/139/139 140/140/140 138/138/138
g pb_Mesh65576_1
f 143/143/143 142/142/142 141/141/141
f 143/143/143 144/144/144 142/142/142
f 147/147/147 146/146/146 145/145/145
f 147/147/147 148/148/148 146/146/146
f 151/151/151 150/150/150 149/149/149
f 151/151/151 152/152/152 150/150/150
g pb_Mesh65576_2
f 155/155/155 154/154/154 153/153/153
f 155/155/155 156/156/156 154/154/154
f 158/158/158 153/153/153 157/157/157
f 158/158/158 155/155/155 153/153/153
f 156/156/156 159/159/159 154/154/154
f 156/156/156 160/160/160 159/159/159
f 160/160/160 157/157/157 159/159/159
f 160/160/160 158/158/158 157/157/157
