g pb_Mesh63604
v 10.525814 36.75 86.70163
v -2 36.75 1.2983665
v -2 36.75 86.70163
v 10.525814 36.75 1.2983665
v -14.525813 36.75 1.2983665
v -14.525813 36.75 86.70163
v -2 -61.25 -43.75
v 26 -61.25 -43.75
v 26 -61.25 119
v -2 -61.25 119
v -30 -61.25 -43.75
v -30 -61.25 119
v -30 22.75 -43.75
v -30 22.75 119
v -14.525813 36.75 1.2983665
v -14.525813 36.75 86.70163
v -30 22.75 119
v -2 22.75 119
v -14.525813 36.75 86.70163
v -2 36.75 86.70163
v 26 22.75 119
v 10.525814 36.75 86.70163
v -2 22.75 -43.75
v -30 22.75 -43.75
v -2 36.75 1.2983665
v -14.525813 36.75 1.2983665
v 26 22.75 119
v 26 22.75 -43.75
v 10.525814 36.75 86.70163
v 10.525814 36.75 1.2983665
v 26 22.75 -43.75
v 10.525814 36.75 1.2983665
v -2 -0.25 -44
v -9 -0.25 -44
v -9 10.75 -44
v -2 10.75 -44
v 5 -0.25 -44
v 5 10.75 -44
v 5 -0.25 -43.75
v -2 -0.25 -43.75
v 5 -0.25 -44
v -2 -0.25 -44
v -9 10.75 -43.75
v -2 10.75 -43.75
v -9 10.75 -44
v -2 10.75 -44
v 5 10.75 -43.75
v 5 -0.25 -43.75
v 5 10.75 -44
v 5 -0.25 -44
v 5 10.75 -43.75
v 5 10.75 -44
v -9 -0.25 -43.75
v -9 -0.25 -44
v -9 -0.25 -43.75
v -9 10.75 -43.75
v -9 -0.25 -44
v -9 10.75 -44
v -2 22.75 119
v 26 -61.25 119
v 26 22.75 119
v -2 -61.25 119
v -30 22.75 119
v -30 -61.25 119
v -30 22.75 119
v -30 22.75 -43.75
v -30 -61.25 -43.75
v -30 -61.25 119
v 26 22.75 -43.75
v 26 22.75 119
v 26 -61.25 119
v 26 -61.25 -43.75
v -2 -61.25 -43.75
v -30 -61.25 -43.75
v -2 -0.25 -43.75
v -9 -0.25 -43.75
v -30 22.75 -43.75
v -9 10.75 -43.75
v 26 22.75 -43.75
v 26 -61.25 -43.75
v 5 10.75 -43.75
v 5 -0.25 -43.75
v -2 22.75 -43.75
v -2 10.75 -43.75
vt 10.525814 86.70163
vt -2 1.2983665
vt -2 86.70163
vt 10.525814 1.2983665
vt -14.525813 1.2983665
vt -14.525813 86.70163
vt 2 -43.75
vt -26 -43.75
vt -26 119
vt 2 119
vt 30 -43.75
vt 30 119
vt -6.9833913 -43.75
vt -6.9833913 119
vt 13.884058 1.2983665
vt 13.884058 86.70163
vt -30 100.13637
vt -2 100.13637
vt -14.525813 64.93431
vt -2 64.93431
vt 26 100.13637
vt 10.525814 64.93431
vt -2 -35.02729
vt -30 -35.02729
vt -2 12.1463785
vt -14.525813 12.1463785
vt 4.0172048 119
vt 4.0172048 -43.75
vt -16.850245 86.70163
vt -16.850245 1.2983665
vt 26 -35.02729
vt 10.525814 12.1463785
vt -2 -0.25
vt -9 -0.25
vt -9 10.75
vt -2 10.75
vt 5 -0.25
vt 5 10.75
vt -5 -43.75
vt 2 -43.75
vt -5 -44
vt 2 -44
vt -9 -43.75
vt -2 -43.75
vt -9 -44
vt -2 -44
vt -43.75 10.75
vt -43.75 -0.25
vt -44 10.75
vt -44 -0.25
vt 5 -43.75
vt 5 -44
vt 9 -43.75
vt 9 -44
vt 43.75 -0.25
vt 43.75 10.75
vt 44 -0.25
vt 44 10.75
vt 2 22.75
vt -26 -61.25
vt -26 22.75
vt 2 -61.25
vt 30 22.75
vt 30 -61.25
vt -119 22.75
vt 43.75 22.75
vt 43.75 -61.25
vt -119 -61.25
vt -43.75 22.75
vt 119 22.75
vt 119 -61.25
vt -43.75 -61.25
vt -2 -61.25
vt -30 -61.25
vt -2 -0.25
vt -9 -0.25
vt -30 22.75
vt -9 10.75
vt 26 22.75
vt 26 -61.25
vt 5 10.75
vt 5 -0.25
vt -2 22.75
vt -2 10.75
vn -0 -1 0
vn -0 -1 0
vn -0 -1 0
vn -0 -1 0
vn -0 -1 0
vn -0 -1 0
vn -0 1 0
vn -0 1 0
vn -0 1 0
vn -0 1 0
vn -0 1 0
vn -0 1 0
vn 0.67090136 -0.7415466 0
vn 0.67090136 -0.74154663 0
vn 0.67090136 -0.74154663 0
vn 0.67090136 -0.74154663 0
vn -0 -0.9175138 -0.39770406
vn -0 -0.9175137 -0.39770406
vn -0 -0.9175137 -0.39770406
vn -0 -0.9175137 -0.39770404
vn -0 -0.9175138 -0.39770406
vn -0 -0.9175138 -0.39770404
vn -0 -0.95494723 0.29677573
vn -0 -0.95494723 0.29677576
vn -0 -0.95494723 0.29677576
vn -0 -0.95494723 0.29677576
vn -0.67090136 -0.7415466 0
vn -0.67090136 -0.74154663 0
vn -0.67090136 -0.74154663 0
vn -0.67090136 -0.74154663 0
vn -0 -0.95494723 0.29677573
vn -0 -0.95494723 0.29677573
vn -0 0 1
vn -0 0 1
vn -0 0 1
vn -0 0 1
vn -0 0 1
vn -0 0 1
vn -0 1 0
vn -0 1 0
vn -0 1 0
vn -0 1 0
vn -0 -1 0
vn -0 -1 0
vn -0 -1 0
vn -0 -1 0
vn -1 0 0
vn -1 0 0
vn -1 0 0
vn -1 0 0
vn -0 -1 0
vn -0 -1 0
vn -0 1 0
vn -0 1 0
vn 1 0 0
vn 1 0 0
vn 1 0 0
vn 1 0 0
vn -0 0 -1
vn -0 0 -1
vn -0 0 -1
vn -0 0 -1
vn -0 0 -1
vn -0 0 -1
vn 1 0 0
vn 1 0 0
vn 1 0 0
vn 1 0 0
vn -1 0 0
vn -1 0 0
vn -1 0 0
vn -1 0 0
vn -0 0 1
vn -0 0 1
vn -0 0 1
vn -0 0 1
vn -0 0 1
vn -0 0 1
vn -0 0 1
vn -0 0 1
vn -0 0 1
vn -0 0 1
vn -0 0 1
vn -0 0 1
g pb_Mesh63604_0
f 3/3/3 2/2/2 1/1/1
f 2/2/2 4/4/4 1/1/1
f 6/6/6 5/5/5 3/3/3
f 5/5/5 2/2/2 3/3/3
f 9/9/9 8/8/8 7/7/7
f 9/9/9 7/7/7 10/10/10
f 10/10/10 7/7/7 11/11/11
f 10/10/10 11/11/11 12/12/12
f 15/15/15 14/14/14 13/13/13
f 15/15/15 16/16/16 14/14/14
f 19/19/19 18/18/18 17/17/17
f 19/19/19 20/20/20 18/18/18
f 20/20/20 21/21/21 18/18/18
f 20/20/20 22/22/22 21/21/21
f 25/25/25 24/24/24 23/23/23
f 25/25/25 26/26/26 24/24/24
f 29/29/29 28/28/28 27/27/27
f 29/29/29 30/30/30 28/28/28
f 32/32/32 23/23/23 31/31/31
f 32/32/32 25/25/25 23/23/23
g pb_Mesh63604_1
f 35/35/35 34/34/34 33/33/33
f 35/35/35 33/33/33 36/36/36
f 36/36/36 33/33/33 37/37/37
f 36/36/36 37/37/37 38/38/38
f 41/41/41 40/40/40 39/39/39
f 41/41/41 42/42/42 40/40/40
f 45/45/45 44/44/44 43/43/43
f 45/45/45 46/46/46 44/44/44
f 49/49/49 48/48/48 47/47/47
f 49/49/49 50/50/50 48/48/48
f 46/46/46 51/51/51 44/44/44
f 46/46/46 52/52/52 51/51/51
f 42/42/42 53/53/53 40/40/40
f 42/42/42 54/54/54 53/53/53
f 57/57/57 56/56/56 55/55/55
f 57/57/57 58/58/58 56/56/56
g pb_Mesh63604_2
f 61/61/61 60/60/60 59/59/59
f 60/60/60 62/62/62 59/59/59
f 59/59/59 62/62/62 63/63/63
f 62/62/62 64/64/64 63/63/63
g pb_Mesh63604_3
f 67/67/67 66/66/66 65/65/65
f 68/68/68 67/67/67 65/65/65
g pb_Mesh63604_4
f 71/71/71 70/70/70 69/69/69
f 72/72/72 71/71/71 69/69/69
g pb_Mesh63604_5
f 75/75/75 74/74/74 73/73/73
f 75/75/75 76/76/76 74/74/74
f 76/76/76 77/77/77 74/74/74
f 76/76/76 78/78/78 77/77/77
f 81/81/81 80/80/80 79/79/79
f 81/81/81 82/82/82 80/80/80
f 78/78/78 83/83/83 77/77/77
f 78/78/78 84/84/84 83/83/83
f 82/82/82 73/73/73 80/80/80
f 82/82/82 75/75/75 73/73/73
f 84/84/84 79/79/79 83/83/83
f 84/84/84 81/81/81 79/79/79
