g pb_Mesh96698
v 1.9999985 0 -4.0000024
v -2.0000055 0 -3.9999964
v 2 0 0
v -2.0000007 0 -2.7865121E-06
v 4.0000005 1.9999973 2.0000029
v 3.9999995 -2.7263416E-06 2.0000012
v -2 1.9999982 1.9999989
v -2.0000021 -1.7726659E-06 1.9999973
v 2.0000017 4 3.5453331E-06
v 2.000001 2 1.7726666E-06
v -1.9999963 4 6.74435E-07
v -1.9999986 2 -1.0560386E-06
v -2.0000007 0 -2.7865121E-06
v -2.0000055 0 -3.9999964
v -2.0000024 2 -3.9999979
v -1.9999986 2 -1.0560386E-06
v -1.9999995 4 -3.9999993
v -1.9999963 4 6.74435E-07
v -2.0000024 2 -3.9999979
v -2.0000055 0 -3.9999964
v 1.9999985 0 -4.0000024
v 2.0000017 2 -4.0000033
v -1.9999995 4 -3.9999993
v 2.000005 4 -4.0000043
v 4.0000005 1.9999973 2.0000029
v 4.000002 1.999999 -4.000003
v 3.9999995 -2.7263416E-06 2.0000012
v 3.9999986 -9.536747E-07 -4.000002
v 2.0000017 4 3.5453331E-06
v 2.000005 4 -4.0000043
v 2.000001 2 1.7726666E-06
v 2.0000017 2 -4.0000033
v 1.9999985 0 -4.0000024
v 4.000002 1.999999 -4.000003
v 3.9999986 -9.536747E-07 -4.000002
v -1.9999986 2 -1.0560386E-06
v 2.000001 2 1.7726666E-06
v -2 1.9999982 1.9999989
v 4.0000005 1.9999973 2.0000029
v 3.9999995 -2.7263416E-06 2.0000012
v -2.0000021 -1.7726659E-06 1.9999973
v -2.0000021 -1.7726659E-06 1.9999973
v -2 1.9999982 1.9999989
v 2.000001 2 1.7726666E-06
v 2.0000017 2 -4.0000033
v 4.0000005 1.9999973 2.0000029
v 4.000002 1.999999 -4.000003
v 3.9999986 -9.536747E-07 -4.000002
v 2.0000017 4 3.5453331E-06
v -1.9999963 4 6.74435E-07
v 2.000005 4 -4.0000043
v -1.9999995 4 -3.9999993
vt 1.9999985 -4.0000024
vt -2.0000055 -3.9999964
vt 2 0
vt -2.0000007 -2.7865121E-06
vt 4.000002 1.9999989
vt 4.000001 -1.0574132E-06
vt -1.9999987 1.9999999
vt -2.000001 -1.0373759E-07
vt 2.0000017 4
vt 2.000001 2
vt -1.9999963 4
vt -1.9999986 2
vt -4.932283E-06 -2.980235E-06
vt -3.9999986 -2.9802356E-06
vt -4 1.999997
vt -3.201807E-06 1.999997
vt -4.0000014 3.9999971
vt -1.471331E-06 3.9999971
vt 1.9999967 2.0000029
vt 1.9999998 2.861014E-06
vt -2.000004 2.8610143E-06
vt -2.0000074 2.0000029
vt 1.9999938 4.000003
vt -2.0000107 4.000003
vt -2.000002 1.9999992
vt 4.000004 2.000001
vt -2.0000002 -8.1899225E-07
vt 4.000003 9.536735E-07
vt -1.8764049E-06 4.000001
vt 4.000006 4.000001
vt -1.037389E-07 2.0000007
vt 4.000005 2.0000007
vt -1.9999975 1.9073516E-06
vt -4.000001 2.000001
vt -3.9999976 9.536769E-07
vt 1.9999986 -2.844178E-06
vt -2.000001 -1.5472779E-08
vt 2 1.9999971
vt -4.0000005 2.0000012
vt 3.9999995 2.0000012
vt -2.0000021 1.9999973
vt 1.9999987 -3.918435E-06
vt 2.0000002 1.9999961
vt -1.9999982 1.7726661E-06
vt -1.9999989 -4.0000033
vt -3.9999979 2.0000029
vt -3.9999993 -4.000003
vt 3.9999986 -4.000002
vt -2.0000017 3.5453331E-06
vt 1.9999963 6.74435E-07
vt -2.000005 -4.0000043
vt 1.9999995 -3.9999993
vn -0 -1 0
vn -0 -1 0
vn -0 -1 0
vn -0 -1 0
vn -6.556512E-07 -8.3446474E-07 1
vn -6.556511E-07 -8.3446446E-07 1
vn -6.556511E-07 -8.3446446E-07 1
vn -6.5565104E-07 -8.3446423E-07 1
vn -7.177249E-07 -8.86333E-07 1
vn -7.124506E-07 -8.757845E-07 1
vn -7.124506E-07 -8.757845E-07 1
vn -7.0717635E-07 -8.6523596E-07 1
vn -1 1.3113022E-06 1.072885E-06
vn -1 1.5497217E-06 1.1920948E-06
vn -1 1.3113022E-06 1.072885E-06
vn -1 1.0728828E-06 9.536751E-07
vn -1 1.2814999E-06 8.791689E-07
vn -1 1.1324876E-06 8.046627E-07
vn -1.4305101E-06 -5.9604434E-07 -1
vn -1.4901148E-06 -7.1525346E-07 -1
vn -1.4305101E-06 -5.9604434E-07 -1
vn -1.3709056E-06 -4.768352E-07 -1
vn -1.3113008E-06 -5.960443E-07 -1
vn -1.2516961E-06 -4.7683477E-07 -1
vn 1 -4.7683733E-07 2.384182E-07
vn 1 -1.0728837E-06 3.973605E-08
vn 1 -1.0728837E-06 3.973605E-08
vn 1 -1.6689302E-06 -1.589461E-07
vn 1 -3.576286E-07 8.3446344E-07
vn 1 -1.0132793E-06 5.0663857E-07
vn 1 -1.0132793E-06 5.0663857E-07
vn 1 -1.6689299E-06 1.788137E-07
vn 2.3841834E-07 -4.7683756E-07 -1
vn 2.3841834E-07 -4.7683756E-07 -1
vn 2.3841835E-07 -4.7683756E-07 -1
vn -6.322649E-13 1 8.940697E-07
vn 7.947213E-08 1 1.0530155E-06
vn 7.947213E-08 1 1.0530155E-06
vn 1.5894489E-07 1 1.2119613E-06
vn -7.947218E-08 -1 -1.1247521E-06
vn -1.5894531E-07 -1 -8.8633305E-07
vn -1 1.0728843E-06 -7.1525477E-07
vn -1 1.0728843E-06 -7.1525477E-07
vn 1.3709071E-06 1 2.4513695E-13
vn 9.2387205E-07 1 1.4901165E-07
vn 9.2387205E-07 1 1.4901165E-07
vn 4.7683702E-07 1 2.9802305E-07
vn -7.722821E-07 -1 -1.47722E-07
vn -0 1 0
vn -0 1 0
vn -0 1 0
vn -0 1 0
g pb_Mesh96698_0
f 3/3/3 2/2/2 1/1/1
f 3/3/3 4/4/4 2/2/2
f 7/7/7 6/6/6 5/5/5
f 7/7/7 8/8/8 6/6/6
f 11/11/11 10/10/10 9/9/9
f 11/11/11 12/12/12 10/10/10
f 15/15/15 14/14/14 13/13/13
f 16/16/16 15/15/15 13/13/13
f 17/17/17 15/15/15 16/16/16
f 18/18/18 17/17/17 16/16/16
f 21/21/21 20/20/20 19/19/19
f 22/22/22 21/21/21 19/19/19
f 22/22/22 19/19/19 23/23/23
f 24/24/24 22/22/22 23/23/23
f 27/27/27 26/26/26 25/25/25
f 27/27/27 28/28/28 26/26/26
f 31/31/31 30/30/30 29/29/29
f 31/31/31 32/32/32 30/30/30
f 34/34/34 33/33/33 22/22/22
f 34/34/34 35/35/35 33/33/33
f 38/38/38 37/37/37 36/36/36
f 38/38/38 39/39/39 37/37/37
f 40/40/40 4/4/4 3/3/3
f 40/40/40 41/41/41 4/4/4
f 42/42/42 16/16/16 13/13/13
f 42/42/42 43/43/43 16/16/16
f 46/46/46 45/45/45 44/44/44
f 46/46/46 47/47/47 45/45/45
f 48/48/48 3/3/3 1/1/1
f 48/48/48 40/40/40 3/3/3
g pb_Mesh96698_1
f 51/51/51 50/50/50 49/49/49
f 51/51/51 52/52/52 50/50/50
