g pb_Mesh76964
v -1 -2 15
v -1 -2 0
v -1 5 0
v -1 5 15
v 14 5 0
v 14 -2 15
v 14 5 15
v 14 -2 0
v 9 -2 19
v 9 5 19
v 14 -2 19
v 14 5 19
v 9 5 -4
v 9 -2 -4
v 14 5 -4
v 14 -2 -4
v 9 -2 0
v 9 -2 15
v 14 -2 0
v 14 -2 15
v -1 8 0
v -1 8 15
v -1 17 0
v -1 17 15
v 9 17 0
v 9 8 15
v 9 17 15
v 9 8 0
v 9 5 15
v 9 8 15
v 12 5 15
v 9 8 0
v 9 5 0
v 12 5 0
v 9 5 0
v 9 5 15
v 12 5 0
v 12 5 15
v 14 -2 19
v 9 -2 19
v 14 5 19
v 14 -2 19
v -1 -2 19
v -1 5 19
v 9 8 0
v 9 17 0
v 9 8 0
v 9 17 0
v 9 17 0
v 9 8 0
v 9 -2 0
v 14 -2 0
v 9 -2 0
v 14 -2 0
v 14 -2 0
v 9 -2 0
v 14 -2 0
v 14 5 0
v 14 -2 0
v 14 5 0
v 14 5 0
v 14 -2 0
v -1 5 0
v -1 -2 0
v -1 5 0
v -1 -2 0
v -1 -2 0
v -1 5 0
v 9 5 0
v 9 8 0
v 9 5 0
v 9 8 0
v 9 8 0
v 9 5 0
v -1 8 0
v -1 5 0
v -1 8 0
v -1 5 0
v -1 5 0
v -1 8 0
v -1 17 0
v -1 8 0
v -1 17 0
v -1 8 0
v -1 8 0
v -1 17 0
v 2 -2 0
v 2 -2 15
v -1 -2 0
v -1 -2 15
v 2 -2 19
v 2 5 19
v 2 -2 32
v -1 -2 32
v -1 5 32
v 2 5 32
v 2 5 -4
v 2 -2 -4
v -1 5 -4
v -1 -2 -4
v 2 5 15
v 2 8 15
v -1 5 15
v -1 8 15
v 2 17 15
v 9 17 15
v -1 17 15
v 2 8 0
v 2 5 0
v -1 8 0
v -1 5 0
v 2 17 0
v 9 17 0
v -1 17 0
v 2 -2 19
v -1 -2 19
v 2 -2 0
v -1 -2 0
v -1 -2 0
v 2 -2 0
v 2 -2 0
v -1 -2 0
v 9 -2 0
v 2 -2 0
v 2 -2 0
v 9 -2 0
v 9 -2 0
v 2 -2 0
v 2 5 15
v 2 5 19
v 2 8 15
v 2 8 19
v -1 8 19
v 2 8 32
v -1 8 32
v 2 17 1
v 8 17 1
v 2 15 1
v 8 15 1
v 8 17 14
v 2 17 14
v 8 15 14
v 2 15 14
v -0 17 14
v -0 17 1
v -0 15 14
v -0 15 1
v -0 17 14
v -0 15 14
v -0 17 1
v -0 15 1
v 8 17 1
v 8 17 14
v 8 15 1
v 8 15 14
v -0 17 1
v -0 17 1
v -0 15 1
v -0 17 1
v -0 15 1
v -0 15 1
v 8 17 1
v 8 17 1
v 8 15 1
v 8 17 1
v 8 15 1
v 8 15 1
v 9 5 0
v 9 -2 0
v 9 5 -4
v 9 -2 -4
v 9 -2 -4
v 14 -2 -4
v 14 -2 -4
v 14 5 -4
v 2 -2 -4
v -1 5 -4
v -1 -2 -4
v -1 -2 -4
v 9 -2 0
v 9 5 0
v 9 -2 -4
v 9 5 -4
v 2 5 19
v 2 -2 19
v 6 5 19
v 6 -2 19
v 6 -2 32
v 6 5 32
v 12 0 19
v 12 -2 19
v 12 -2 32
v 12 0 32
v 2 5 29
v 2 8 29
v 6 8 29
v 6 5 32
v 6 8 32
v 6 5 29
v -1 5 29
v -1 8 29
v -1 5 32
v -1 8 32
v 2 -2 29
v -1 -2 29
v 2 -2 32
v -1 -2 32
v -1 -2 29
v -1 -2 32
v 12 0 19
v 12 -2 29
v 12 0 29
v 12 -2 19
v 12 -2 32
v 12 0 32
v 6 -2 29
v 6 -2 19
v 6 -2 32
v 12 -2 29
v 12 -2 19
v 12 -2 32
v 6 8 32
v 2 8 29
v 2 5 29
v 6 8 29
v 6 5 29
v 2 5 29
v 2 5 32
v 6 5 29
v 6 5 32
v 9 5 15
v 9 5 0
v 14 5 15
v 14 5 0
v 9 5 19
v 14 5 19
v 14 5 0
v 9 5 0
v 14 5 0
v 9 5 0
v 9 5 0
v 14 5 0
v 2 15 1
v 8 15 1
v 8 15 14
v 2 15 14
v -0 15 1
v -0 15 14
v -1 8 15
v 2 8 15
v 2 8 19
v -1 8 19
v 2 5 15
v 2 5 19
v 2 15 1
v 8 15 1
v 8 15 1
v 2 15 1
v 2 15 1
v 8 15 1
v -0 15 1
v 2 15 1
v 2 15 1
v -0 15 1
v -0 15 1
v 2 15 1
v -1 5 15
v 2 5 15
v -1 8 15
v 2 8 15
v -1 17 0
v 2 17 0
v -0 17 1
v 2 17 1
v 9 17 0
v 9 17 15
v 8 17 1
v 8 17 14
v -1 17 15
v -0 17 14
v 2 17 15
v 2 17 14
v 9 17 0
v 9 17 0
v 8 17 1
v 9 17 0
v 8 17 1
v 8 17 1
v -1 17 0
v -1 17 0
v -0 17 1
v -1 17 0
v -0 17 1
v -0 17 1
v 14 5 -4
v 9 5 -4
v 2 5 0
v -1 5 0
v 2 5 -4
v -1 5 -4
v 2 8 29
v -1 8 29
v 2 8 32
v -1 8 32
v 2 5 29
v 6 5 29
v 6 5 32
v 2 5 32
v 6 5 19
v 6 5 29
v 12 0 29
v 12 0 32
v 6 5 32
v 6 5 19
v 12 0 19
v 6 8 32
v 6 8 29
v 9 8 15
v 9 8 0
v 12 5 15
v 12 5 0
vt 15 -2
vt 0 -2
vt 0 5
vt 15 5
vt 0 5
vt -15 -2
vt -15 5
vt -0 -2
vt 9 -2
vt 9 5
vt 14 -2
vt 14 5
vt -9 5
vt -9 -2
vt -14 5
vt -14 -2
vt 9 0
vt 9 15
vt 14 0
vt 14 15
vt 0 8
vt 15 8
vt 0 17
vt 15 17
vt 0 17
vt -15 8
vt -15 17
vt 0 8
vt 9 5
vt 9 8
vt 12 5
vt -9 8
vt -9 5
vt -12 5
vt 9 0
vt 9 15
vt 12 0
vt 12 15
vt 14 19
vt 9 19
vt -19 5
vt -19 -2
vt 19 -2
vt 19 5
vt 0 0
vt 0 0
vt 0 0
vt 0 0
vt 0 0
vt 0 0
vt 0 0
vt 0 0
vt 0 0
vt 0 0
vt 0 0
vt 0 0
vt 0 0
vt 0 0
vt 0 0
vt 0 0
vt 0 0
vt 0 0
vt 0 0
vt 0 0
vt 0 0
vt 0 0
vt 0 0
vt 0 0
vt 0 0
vt 0 0
vt 0 0
vt 0 0
vt 0 0
vt 0 0
vt 0 0
vt 0 0
vt 0 0
vt 0 0
vt 0 0
vt 0 0
vt 0 0
vt 0 0
vt 0 0
vt 0 0
vt 0 0
vt 0 0
vt 2 0
vt 2 15
vt -1 0
vt -1 15
vt 2 -2
vt 2 5
vt 2 -2
vt -1 -2
vt -1 5
vt 2 5
vt -2 5
vt -2 -2
vt 1 5
vt 1 -2
vt 2 5
vt 2 8
vt -1 5
vt -1 8
vt 2 17
vt 9 17
vt -1 17
vt -2 8
vt -2 5
vt 1 8
vt 1 5
vt -2 17
vt -9 17
vt 1 17
vt 2 19
vt -1 19
vt 0 0
vt 0 0
vt 0 0
vt 0 0
vt 0 0
vt 0 0
vt 0 0
vt 0 0
vt 0 0
vt 0 0
vt 0 0
vt 0 0
vt -15 5
vt -19 5
vt -15 8
vt -19 8
vt 19 8
vt 2 8
vt -1 8
vt 2 17
vt 8 17
vt 2 15
vt 8 15
vt -8 17
vt -2 17
vt -8 15
vt -2 15
vt -14 17
vt -1 17
vt -14 15
vt -1 15
vt 0 17
vt 0 15
vt 0 17
vt 0 15
vt 1 17
vt 14 17
vt 1 15
vt 14 15
vt 0 0
vt 0 0
vt 0 0
vt 0 0
vt 0 0
vt 0 0
vt 0 0
vt 0 0
vt 0 0
vt 0 0
vt 0 0
vt 0 0
vt 0 5
vt 0 -2
vt -4 5
vt -4 -2
vt 9 -4
vt 14 -4
vt 4 -2
vt 4 5
vt 2 -4
vt -4 5
vt -4 -2
vt -1 -4
vt -0 -2
vt 0 5
vt 4 -2
vt 4 5
vt -2 5
vt -2 -2
vt -6 5
vt -6 -2
vt 6 -2
vt 6 5
vt -12 0
vt -12 -2
vt 12 -2
vt 12 0
vt -29 5
vt -29 8
vt -29 8
vt -32 5
vt -32 8
vt -29 5
vt 29 5
vt 29 8
vt 32 5
vt 32 8
vt 2 29
vt -1 29
vt 2 32
vt -1 32
vt 29 -2
vt 32 -2
vt -19 0
vt -29 -2
vt -29 0
vt -19 -2
vt -32 -2
vt -32 0
vt 6 29
vt 6 19
vt 6 32
vt 12 29
vt 12 19
vt 12 32
vt 6 8
vt -2 8
vt -2 5
vt -6 8
vt -6 5
vt 2 29
vt 2 32
vt 6 29
vt 6 32
vt -9 15
vt -9 0
vt -14 15
vt -14 0
vt -9 19
vt -14 19
vt 0 0
vt 0 0
vt 0 0
vt 0 0
vt 0 0
vt 0 0
vt -2 1
vt -8 1
vt -8 14
vt -2 14
vt 0 1
vt 0 14
vt 1 15
vt -2 15
vt -2 19
vt 1 19
vt -2 15
vt -2 19
vt 0 0
vt 0 0
vt 0 0
vt 0 0
vt 0 0
vt 0 0
vt 0 0
vt 0 0
vt 0 0
vt 0 0
vt 0 0
vt 0 0
vt 1 5
vt -2 5
vt 1 8
vt -2 8
vt 1 0
vt -2 0
vt 0 1
vt -2 1
vt -9 0
vt -9 15
vt -8 1
vt -8 14
vt 1 15
vt 0 14
vt -2 15
vt -2 14
vt 0 0
vt 0 0
vt 0 0
vt 0 0
vt 0 0
vt 0 0
vt 0 0
vt 0 0
vt 0 0
vt 0 0
vt 0 0
vt 0 0
vt -14 -4
vt -9 -4
vt -2 0
vt 1 0
vt -2 -4
vt 1 -4
vt -2 29
vt 1 29
vt -2 32
vt 1 32
vt -2 29
vt -6 29
vt -6 32
vt -2 32
vt -6 19
vt -1.4084055 29
vt -9.218655 29
vt -9.218655 32
vt -1.4084055 32
vt -1.4084055 19
vt -9.218655 19
vt -6 32
vt -6 29
vt -0.70710677 15
vt -0.70710677 0
vt -4.9497476 15
vt -4.9497476 0
vn -1 0 0
vn -1 0 0
vn -1 0 0
vn -1 0 0
vn 1 0 0
vn 1 0 0
vn 1 0 0
vn 1 0 0
vn -0 0 1
vn -0 0 1
vn -0 0 1
vn -0 0 1
vn -0 0 -1
vn -0 0 -1
vn -0 0 -1
vn -0 0 -1
vn -0 -1 0
vn -0 -1 0
vn -0 -1 0
vn -0 -1 0
vn -1 0 0
vn -1 0 0
vn -1 0 0
vn -1 0 0
vn 1 0 0
vn 1 0 0
vn 1 0 0
vn 1 0 0
vn -0 0 1
vn -0 0 1
vn -0 0 1
vn -0 0 -1
vn -0 0 -1
vn -0 0 -1
vn -0 -1 0
vn -0 -1 0
vn -0 -1 0
vn -0 -1 0
vn -0 -1 0
vn -0 -1 0
vn 1 0 0
vn 1 0 0
vn -1 0 0
vn -1 0 0
vn -0 0 0
vn -0 0 0
vn -0 0 0
vn -0 0 0
vn -0 0 0
vn -0 0 0
vn -0 0 0
vn -0 0 0
vn -0 0 0
vn -0 0 0
vn -0 0 0
vn -0 0 0
vn -0 0 0
vn -0 0 0
vn -0 0 0
vn -0 0 0
vn -0 0 0
vn -0 0 0
vn -0 0 0
vn -0 0 0
vn -0 0 0
vn -0 0 0
vn -0 0 0
vn -0 0 0
vn -0 0 0
vn -0 0 0
vn -0 0 0
vn -0 0 0
vn -0 0 0
vn -0 0 0
vn -0 0 0
vn -0 0 0
vn -0 0 0
vn -0 0 0
vn -0 0 0
vn -0 0 0
vn -0 0 0
vn -0 0 0
vn -0 0 0
vn -0 0 0
vn -0 0 0
vn -0 0 0
vn -0 -1 0
vn -0 -1 0
vn -0 -1 0
vn -0 -1 0
vn -0 0 1
vn -0 0 1
vn -0 0 1
vn -0 0 1
vn -0 0 1
vn -0 0 1
vn -0 0 -1
vn -0 0 -1
vn -0 0 -1
vn -0 0 -1
vn -0 0 1
vn -0 0 1
vn -0 0 1
vn -0 0 1
vn -0 0 1
vn -0 0 1
vn -0 0 1
vn -0 0 -1
vn -0 0 -1
vn -0 0 -1
vn -0 0 -1
vn -0 0 -1
vn -0 0 -1
vn -0 0 -1
vn -0 -1 0
vn -0 -1 0
vn -0 0 0
vn -0 0 0
vn -0 0 0
vn -0 0 0
vn -0 0 0
vn -0 0 0
vn -0 0 0
vn -0 0 0
vn -0 0 0
vn -0 0 0
vn -0 0 0
vn -0 0 0
vn 1 0 0
vn 1 0 0
vn 1 0 0
vn 1 0 0
vn -1 0 0
vn -0 0 1
vn -0 0 1
vn -0 0 1
vn -0 0 1
vn -0 0 1
vn -0 0 1
vn -0 0 -1
vn -0 0 -1
vn -0 0 -1
vn -0 0 -1
vn 1 0 0
vn 1 0 0
vn 1 0 0
vn 1 0 0
vn -0 0 -1
vn -0 0 -1
vn -0 0 1
vn -0 0 1
vn -1 0 0
vn -1 0 0
vn -1 0 0
vn -1 0 0
vn -0 0 0
vn -0 0 0
vn -0 0 0
vn -0 0 0
vn -0 0 0
vn -0 0 0
vn -0 0 0
vn -0 0 0
vn -0 0 0
vn -0 0 0
vn -0 0 0
vn -0 0 0
vn -1 0 0
vn -1 0 0
vn -1 0 0
vn -1 0 0
vn -0 -1 0
vn -0 -1 0
vn 1 0 0
vn 1 0 0
vn -0 -1 0
vn -1 0 0
vn -1 0 0
vn -0 -1 0
vn 1 0 0
vn 1 0 0
vn 1 0 0
vn 1 0 0
vn -0 0 -1
vn -0 0 -1
vn -0 0 -1
vn -0 0 -1
vn -0 0 1
vn -0 0 1
vn -0 0 -1
vn -0 0 -1
vn -0 0 1
vn -0 0 1
vn 1 0 0
vn 1 0 0
vn 1 0 0
vn 1 0 0
vn 1 0 0
vn 1 0 0
vn -1 0 0
vn -1 0 0
vn -1 0 0
vn -1 0 0
vn -0 -1 0
vn -0 -1 0
vn -0 -1 0
vn -0 -1 0
vn -1 0 0
vn -1 0 0
vn 1 0 0
vn 1 0 0
vn 1 0 0
vn 1 0 0
vn 1 0 0
vn 1 0 0
vn -0 -1 0
vn -0 -1 0
vn -0 -1 0
vn -0 -1 0
vn -0 -1 0
vn -0 -1 0
vn -0 0 1
vn -0 0 -1
vn -0 0 -1
vn -0 0 -1
vn -0 0 -1
vn -0 -1 0
vn -0 -1 0
vn -0 -1 0
vn -0 -1 0
vn -0 1 0
vn -0 1 0
vn -0 1 0
vn -0 1 0
vn -0 1 0
vn -0 1 0
vn -0 0 0
vn -0 0 0
vn -0 0 0
vn -0 0 0
vn -0 0 0
vn -0 0 0
vn -0 1 0
vn -0 1 0
vn -0 1 0
vn -0 1 0
vn -0 1 0
vn -0 1 0
vn -0 1 0
vn -0 1 0
vn -0 1 0
vn -0 1 0
vn -0 1 0
vn -0 1 0
vn -0 0 0
vn -0 0 0
vn -0 0 0
vn -0 0 0
vn -0 0 0
vn -0 0 0
vn -0 0 0
vn -0 0 0
vn -0 0 0
vn -0 0 0
vn -0 0 0
vn -0 0 0
vn -0 0 -1
vn -0 0 -1
vn -0 0 -1
vn -0 0 -1
vn -0 1 0
vn -0 1 0
vn -0 1 0
vn -0 1 0
vn -0 1 0
vn -0 1 0
vn -0 1 0
vn -0 1 0
vn -0 1 0
vn -0 1 0
vn -0 1 0
vn -0 1 0
vn -0 0 0
vn -0 0 0
vn -0 0 0
vn -0 0 0
vn -0 0 0
vn -0 0 0
vn -0 0 0
vn -0 0 0
vn -0 0 0
vn -0 0 0
vn -0 0 0
vn -0 0 0
vn -0 1 0
vn -0 1 0
vn -0 1 0
vn -0 1 0
vn -0 1 0
vn -0 1 0
vn -0 1 0
vn -0 1 0
vn -0 1 0
vn -0 1 0
vn -0 1 0
vn -0 1 0
vn -0 1 0
vn -0 1 0
vn -0 1 0
vn 0.6401844 0.76822126 0
vn 0.6401844 0.76822126 0
vn 0.6401844 0.76822126 0
vn 0.6401844 0.76822126 0
vn 0.6401844 0.7682213 0
vn 0.6401844 0.7682213 0
vn -0 1 0
vn -0 1 0
vn 0.70710677 0.70710677 0
vn 0.70710677 0.70710677 0
vn 0.70710677 0.70710677 0
vn 0.70710677 0.70710677 0
g pb_Mesh76964_0
f 3/3/3 2/2/2 1/1/1
f 3/3/3 1/1/1 4/4/4
f 7/7/7 6/6/6 5/5/5
f 6/6/6 8/8/8 5/5/5
f 11/11/11 10/10/10 9/9/9
f 11/11/11 12/12/12 10/10/10
f 15/15/15 14/14/14 13/13/13
f 15/15/15 16/16/16 14/14/14
f 19/19/19 18/18/18 17/17/17
f 19/19/19 20/20/20 18/18/18
f 21/21/21 3/3/3 4/4/4
f 21/21/21 4/4/4 22/22/22
f 23/23/23 21/21/21 22/22/22
f 23/23/23 22/22/22 24/24/24
f 27/27/27 26/26/26 25/25/25
f 26/26/26 28/28/28 25/25/25
f 31/31/31 30/30/30 29/29/29
f 34/34/34 33/33/33 32/32/32
f 37/37/37 36/36/36 35/35/35
f 37/37/37 38/38/38 36/36/36
f 39/39/39 18/18/18 20/20/20
f 39/39/39 40/40/40 18/18/18
f 41/41/41 6/6/6 7/7/7
f 41/41/41 42/42/42 6/6/6
f 43/43/43 4/4/4 1/1/1
f 43/43/43 44/44/44 4/4/4
f 47/47/47 46/46/46 45/45/45
f 50/50/50 49/49/49 48/48/48
f 53/53/53 52/52/52 51/51/51
f 56/56/56 55/55/55 54/54/54
f 59/59/59 58/58/58 57/57/57
f 62/62/62 61/61/61 60/60/60
f 65/65/65 64/64/64 63/63/63
f 68/68/68 67/67/67 66/66/66
f 71/71/71 70/70/70 69/69/69
f 74/74/74 73/73/73 72/72/72
f 77/77/77 76/76/76 75/75/75
f 80/80/80 79/79/79 78/78/78
f 83/83/83 82/82/82 81/81/81
f 86/86/86 85/85/85 84/84/84
f 88/88/88 87/87/87 18/18/18
f 87/87/87 17/17/17 18/18/18
f 90/90/90 89/89/89 88/88/88
f 89/89/89 87/87/87 88/88/88
f 92/92/92 91/91/91 9/9/9
f 92/92/92 9/9/9 10/10/10
f 95/95/95 94/94/94 93/93/93
f 95/95/95 93/93/93 96/96/96
f 13/13/13 14/14/14 97/97/97
f 14/14/14 98/98/98 97/97/97
f 97/97/97 98/98/98 99/99/99
f 98/98/98 100/100/100 99/99/99
f 102/102/102 101/101/101 29/29/29
f 102/102/102 29/29/29 30/30/30
f 104/104/104 103/103/103 101/101/101
f 104/104/104 101/101/101 102/102/102
f 105/105/105 102/102/102 30/30/30
f 105/105/105 30/30/30 106/106/106
f 107/107/107 104/104/104 102/102/102
f 107/107/107 102/102/102 105/105/105
f 32/32/32 33/33/33 108/108/108
f 33/33/33 109/109/109 108/108/108
f 108/108/108 109/109/109 110/110/110
f 109/109/109 111/111/111 110/110/110
f 113/113/113 32/32/32 112/112/112
f 32/32/32 108/108/108 112/112/112
f 112/112/112 108/108/108 114/114/114
f 108/108/108 110/110/110 114/114/114
f 115/115/115 88/88/88 40/40/40
f 88/88/88 18/18/18 40/40/40
f 116/116/116 90/90/90 115/115/115
f 90/90/90 88/88/88 115/115/115
f 119/119/119 118/118/118 117/117/117
f 122/122/122 121/121/121 120/120/120
f 125/125/125 124/124/124 123/123/123
f 128/128/128 127/127/127 126/126/126
f 131/131/131 130/130/130 129/129/129
f 131/131/131 132/132/132 130/130/130
f 133/133/133 4/4/4 44/44/44
f 133/133/133 22/22/22 4/4/4
f 134/134/134 95/95/95 96/96/96
f 134/134/134 135/135/135 95/95/95
f 138/138/138 137/137/137 136/136/136
f 138/138/138 139/139/139 137/137/137
f 142/142/142 141/141/141 140/140/140
f 142/142/142 143/143/143 141/141/141
f 146/146/146 145/145/145 144/144/144
f 146/146/146 147/147/147 145/145/145
f 143/143/143 148/148/148 141/141/141
f 143/143/143 149/149/149 148/148/148
f 151/151/151 136/136/136 150/150/150
f 151/151/151 138/138/138 136/136/136
f 154/154/154 153/153/153 152/152/152
f 154/154/154 155/155/155 153/153/153
f 158/158/158 157/157/157 156/156/156
f 161/161/161 160/160/160 159/159/159
f 164/164/164 163/163/163 162/162/162
f 167/167/167 166/166/166 165/165/165
f 170/170/170 169/169/169 168/168/168
f 170/170/170 171/171/171 169/169/169
f 172/172/172 19/19/19 17/17/17
f 172/172/172 173/173/173 19/19/19
f 174/174/174 5/5/5 8/8/8
f 174/174/174 175/175/175 5/5/5
f 176/176/176 17/17/17 87/87/87
f 176/176/176 172/172/172 17/17/17
f 177/177/177 2/2/2 3/3/3
f 177/177/177 178/178/178 2/2/2
f 179/179/179 87/87/87 89/89/89
f 179/179/179 176/176/176 87/87/87
f 182/182/182 181/181/181 180/180/180
f 182/182/182 183/183/183 181/181/181
f 186/186/186 185/185/185 184/184/184
f 186/186/186 187/187/187 185/185/185
f 188/188/188 96/96/96 93/93/93
f 188/188/188 189/189/189 96/96/96
f 190/190/190 187/187/187 186/186/186
f 190/190/190 191/191/191 187/187/187
f 192/192/192 189/189/189 188/188/188
f 192/192/192 193/193/193 189/189/189
f 195/195/195 194/194/194 132/132/132
f 194/194/194 130/130/130 132/132/132
f 198/198/198 197/197/197 196/196/196
f 197/197/197 199/199/199 196/196/196
f 133/133/133 44/44/44 200/200/200
f 133/133/133 200/200/200 201/201/201
f 201/201/201 200/200/200 202/202/202
f 201/201/201 202/202/202 203/203/203
f 205/205/205 116/116/116 204/204/204
f 116/116/116 115/115/115 204/204/204
f 207/207/207 205/205/205 206/206/206
f 205/205/205 204/204/204 206/206/206
f 44/44/44 43/43/43 208/208/208
f 44/44/44 208/208/208 200/200/200
f 200/200/200 208/208/208 209/209/209
f 200/200/200 209/209/209 202/202/202
f 212/212/212 211/211/211 210/210/210
f 211/211/211 213/213/213 210/210/210
f 215/215/215 214/214/214 212/212/212
f 214/214/214 211/211/211 212/212/212
f 204/204/204 115/115/115 216/216/216
f 115/115/115 217/217/217 216/216/216
f 206/206/206 204/204/204 218/218/218
f 204/204/204 216/216/216 218/218/218
f 216/216/216 217/217/217 219/219/219
f 217/217/217 220/220/220 219/219/219
f 218/218/218 216/216/216 221/221/221
f 216/216/216 219/219/219 221/221/221
f 189/189/189 134/134/134 96/96/96
f 189/189/189 222/222/222 134/134/134
f 225/225/225 224/224/224 223/223/223
f 225/225/225 226/226/226 224/224/224
f 229/229/229 228/228/228 227/227/227
f 229/229/229 230/230/230 228/228/228
g pb_Mesh76964_1
f 233/233/233 232/232/232 231/231/231
f 233/233/233 234/234/234 232/232/232
f 235/235/235 233/233/233 231/231/231
f 235/235/235 236/236/236 233/233/233
f 239/239/239 238/238/238 237/237/237
f 242/242/242 241/241/241 240/240/240
f 245/245/245 244/244/244 243/243/243
f 245/245/245 243/243/243 246/246/246
f 246/246/246 243/243/243 247/247/247
f 246/246/246 247/247/247 248/248/248
f 251/251/251 250/250/250 249/249/249
f 251/251/251 249/249/249 252/252/252
f 235/235/235 231/231/231 253/253/253
f 235/235/235 253/253/253 254/254/254
f 257/257/257 256/256/256 255/255/255
f 260/260/260 259/259/259 258/258/258
f 263/263/263 262/262/262 261/261/261
f 266/266/266 265/265/265 264/264/264
f 269/269/269 268/268/268 267/267/267
f 269/269/269 270/270/270 268/268/268
f 273/273/273 272/272/272 271/271/271
f 273/273/273 274/274/274 272/272/272
f 277/277/277 276/276/276 275/275/275
f 277/277/277 278/278/278 276/276/276
f 280/280/280 271/271/271 279/279/279
f 280/280/280 273/273/273 271/271/271
f 278/278/278 281/281/281 276/276/276
f 278/278/278 282/282/282 281/281/281
f 274/274/274 275/275/275 272/272/272
f 274/274/274 277/277/277 275/275/275
f 285/285/285 284/284/284 283/283/283
f 288/288/288 287/287/287 286/286/286
f 291/291/291 290/290/290 289/289/289
f 294/294/294 293/293/293 292/292/292
f 282/282/282 279/279/279 281/281/281
f 282/282/282 280/280/280 279/279/279
f 295/295/295 232/232/232 234/234/234
f 295/295/295 296/296/296 232/232/232
f 299/299/299 298/298/298 297/297/297
f 299/299/299 300/300/300 298/298/298
f 296/296/296 297/297/297 232/232/232
f 296/296/296 299/299/299 297/297/297
f 301/301/301 251/251/251 252/252/252
f 301/301/301 252/252/252 302/302/302
f 303/303/303 301/301/301 302/302/302
f 303/303/303 302/302/302 304/304/304
f 307/307/307 306/306/306 305/305/305
f 307/307/307 305/305/305 308/308/308
f 306/306/306 309/309/309 254/254/254
f 306/306/306 254/254/254 305/305/305
f 312/312/312 311/311/311 310/310/310
f 312/312/312 310/310/310 313/313/313
f 311/311/311 315/315/315 314/314/314
f 311/311/311 314/314/314 310/310/310
f 316/316/316 301/301/301 303/303/303
f 316/316/316 317/317/317 301/301/301
g pb_Mesh76964_2
f 320/320/320 319/319/319 318/318/318
f 320/320/320 321/321/321 319/319/319
