g pb_Mesh94582
v -2.66371 6 -3.2500017
v -2.6637108 6 -3.7500026
v -2.6637108 6.5 -3.7500026
v -2.66371 6.5 -3.2500017
v 3.9999788 6.5 -3.7500036
v 3.9998417 6 -3.2500024
v 3.9998417 6.5 -3.2500024
v 3.9999788 6 -3.7500036
v 3.9998417 6 -3.2500024
v 3.4102774 6 -3.2500024
v 3.4102774 6.5 -3.2500024
v 3.9998417 6.5 -3.2500024
v 3.4095051 6.5 -8.999842
v 4.0000024 6 -9.000006
v 4.0000024 6.5 -9.000006
v 3.4095051 6 -8.999842
v 3.4099472 6.5 -3.7500033
v 3.9998417 6.5 -3.2500024
v 3.4102774 6.5 -3.2500024
v 3.9999788 6.5 -3.7500036
v 3.999839 -11.43 -3.2500014
v 3.9999747 -11.43 -3.7500017
v 3.4099436 -11.43 -3.7500014
v 3.4102738 -11.43 -3.2500014
v -2.16371 6 -3.2500017
v -2.16371 6.5 -3.2500017
v -2.66371 6 -3.2500017
v -2.66371 6.5 -3.2500017
v -2.1637356 6.5 -13.922659
v -2.1637356 6 -13.922659
v 3.4094784 6.5 -13.853383
v 3.4094784 6 -13.853383
v -2.6637084 6.5 -8.999681
v -2.6637084 6 -8.999681
v -2.163708 6.5 -8.999764
v -2.163708 6 -8.999764
v -2.1637092 6.5 -3.7500029
v -2.66371 6.5 -3.2500017
v -2.6637108 6.5 -3.7500026
v -2.16371 6.5 -3.2500017
v -2.6637087 -11.43 -3.2500007
v -2.1637087 -11.43 -3.2500007
v -2.1637082 -11.43 -3.750001
v -2.6637094 -11.43 -3.7500007
v -2.16371 6 -3.2500017
v 3.4102774 6 -3.2500024
v 3.4099472 6 -3.7500033
v -2.1637092 6 -3.7500029
v -2.663709 6 -8.449677
v -2.6637084 6 -8.999681
v -2.6637084 6.5 -8.999681
v -2.663709 6.5 -8.449677
v 4.0000024 6.5 -9.000006
v 3.9999878 6 -8.450226
v 3.9999878 6.5 -8.450226
v 4.0000024 6 -9.000006
v 3.4095051 6.5 -8.999842
v 3.9999878 6.5 -8.450226
v 3.4097242 6.5 -8.450193
v 4.0000024 6.5 -9.000006
v 3.9999843 -11.43 -8.45022
v 3.9999998 -11.43 -9.000002
v 3.4095018 -11.43 -8.999836
v 3.4097207 -11.43 -8.450188
v -2.6637084 6.5 -8.999681
v -2.163708 6.5 -8.999764
v -2.163708 6.5 -8.4497
v -2.663709 6.5 -8.449677
v -2.6637073 -11.43 -8.449673
v -2.1637073 -11.43 -8.449696
v -2.6637073 -11.43 -8.999677
v -2.1637073 -11.43 -8.99976
v 3.4097242 6 -8.450193
v 3.4095051 6 -8.999842
v -2.163708 6 -8.4497
v -2.163708 6 -8.999764
v 3.9998417 6 -3.2500024
v 3.9999788 6 -3.7500036
v 3.999839 -11.43 -3.2500014
v 3.9999747 -11.43 -3.7500017
v 3.9999788 6 -3.7500036
v 3.4099472 6 -3.7500033
v 3.9999747 -11.43 -3.7500017
v 3.4099436 -11.43 -3.7500014
v 3.4102738 -11.43 -3.2500014
v 3.999839 -11.43 -3.2500014
v 3.4099472 6 -3.7500033
v 3.4102774 6 -3.2500024
v 3.4099436 -11.43 -3.7500014
v 3.4102738 -11.43 -3.2500014
v -2.6637087 -11.43 -3.2500007
v -2.1637087 -11.43 -3.2500007
v -2.16371 6 -3.2500017
v -2.1637092 6 -3.7500029
v -2.1637087 -11.43 -3.2500007
v -2.1637082 -11.43 -3.750001
v -2.6637094 -11.43 -3.7500007
v -2.6637087 -11.43 -3.2500007
v -2.1637092 6 -3.7500029
v -2.6637108 6 -3.7500026
v -2.1637082 -11.43 -3.750001
v -2.6637094 -11.43 -3.7500007
v 3.9999878 6 -8.450226
v 4.0000024 6 -9.000006
v 3.9999843 -11.43 -8.45022
v 3.9999998 -11.43 -9.000002
v 4.0000024 6 -9.000006
v 3.4095051 6 -8.999842
v 3.9999998 -11.43 -9.000002
v 3.4095018 -11.43 -8.999836
v 3.4097242 6 -8.450193
v 3.9999878 6 -8.450226
v 3.4097207 -11.43 -8.450188
v 3.9999843 -11.43 -8.45022
v 3.4095051 6 -8.999842
v 3.4097242 6 -8.450193
v 3.4095018 -11.43 -8.999836
v 3.4097207 -11.43 -8.450188
v -2.663709 6 -8.449677
v -2.163708 6 -8.4497
v -2.6637073 -11.43 -8.449673
v -2.1637073 -11.43 -8.449696
v -2.6637073 -11.43 -8.999677
v -2.6637073 -11.43 -8.449673
v -2.163708 6 -8.4497
v -2.163708 6 -8.999764
v -2.1637073 -11.43 -8.449696
v -2.1637073 -11.43 -8.99976
v -2.163708 6 -8.999764
v -2.6637084 6 -8.999681
v -2.1637073 -11.43 -8.99976
v -2.6637073 -11.43 -8.999677
v -2.6637096 6 -6.000003
v -2.6637096 6.5 -6.000003
v 3.999983 6.5 -6.0000043
v 3.9999788 6 -3.7500036
v 3.9999788 6.5 -3.7500036
v 3.999983 6 -6.0000043
v 3.4098349 6.5 -6.0000043
v 3.999983 6.5 -6.0000043
v 3.9999788 6 -3.7500036
v 3.999983 6 -6.0000043
v 3.4098349 6 -6.0000043
v 3.9999878 6 -8.450226
v -2.1637087 6.5 -6.000003
v -2.6637096 6.5 -6.000003
v -2.6637108 6 -3.7500026
v -2.6637096 6 -6.000003
v -2.1637087 6 -6.000003
v -2.663709 6 -8.449677
v -2.163708 6.5 -8.999764
v -2.163708 6 -8.999764
v -2.1637356 6.5 -13.922659
v -2.1637356 6 -13.922659
v 3.4094784 6.5 -13.853383
v -2.1637356 6.5 -13.922659
v -2.1637356 6 -13.922659
v 3.4094784 6 -13.853383
v 3.4095051 6 -8.999842
v 3.4095051 6.5 -8.999842
v 3.4094784 6 -13.853383
v 3.4094784 6.5 -13.853383
vt -3.2500014 6
vt -3.7500024 6
vt -3.7500024 6.5
vt -3.2500014 6.5
vt 3.750308 6.5
vt 3.2503068 6
vt 3.2503068 6.5
vt 3.750308 6
vt 3.999842 6
vt 3.4102776 6
vt 3.4102776 6.5
vt 3.999842 6.5
vt -3.411502 6.5
vt -4.0019994 6
vt -4.0019994 6.5
vt -3.411502 6
vt -3.4099472 -3.7500033
vt -3.9998417 -3.2500024
vt -3.4102774 -3.2500024
vt -3.9999788 -3.7500036
vt 3.999839 -3.2500014
vt 3.9999747 -3.7500017
vt 3.4099436 -3.7500014
vt 3.4102738 -3.2500014
vt -2.1637099 6
vt -2.1637099 6.5
vt -2.6637099 6
vt -2.6637099 6.5
vt 2.3366158 6.5
vt 2.3366158 6
vt -3.2370288 6.5
vt -3.2370288 6
vt 2.6617117 6.5
vt 2.6617117 6
vt 2.1617112 6.5
vt 2.1617112 6
vt 2.1637092 -3.7500029
vt 2.66371 -3.2500017
vt 2.6637108 -3.7500026
vt 2.16371 -3.2500017
vt -2.6637087 -3.2500007
vt -2.1637087 -3.2500007
vt -2.1637082 -3.750001
vt -2.6637094 -3.7500007
vt -2.16371 -3.2500017
vt 3.4102774 -3.2500024
vt 3.4099472 -3.7500033
vt -2.1637092 -3.7500029
vt -8.449677 6
vt -8.999681 6
vt -8.999681 6.5
vt -8.449677 6.5
vt 9.00031 6.5
vt 8.45053 6
vt 8.45053 6.5
vt 9.00031 6
vt -3.4095051 -8.999842
vt -3.9999878 -8.450226
vt -3.4097242 -8.450193
vt -4.0000024 -9.000006
vt 3.9999843 -8.45022
vt 3.9999998 -9.000002
vt 3.4095018 -8.999836
vt 3.4097207 -8.450188
vt 2.6637084 -8.999681
vt 2.163708 -8.999764
vt 2.163708 -8.4497
vt 2.663709 -8.449677
vt -2.6637073 -8.449673
vt -2.1637073 -8.449696
vt -2.6637073 -8.999677
vt -2.1637073 -8.99976
vt 3.4097242 -8.450193
vt 3.4095051 -8.999842
vt -2.163708 -8.4497
vt -2.163708 -8.999764
vt 3.251099 6.0000005
vt 3.7511003 6.0000005
vt 3.2510982 -11.429999
vt 3.7510984 -11.429999
vt -3.9999802 6.0000005
vt -3.4099486 6.0000005
vt -3.9999762 -11.43
vt -3.409945 -11.43
vt 3.4102738 -11.43
vt 3.999839 -11.43
vt -3.7477505 6.0000005
vt -3.2477493 6.0000005
vt -3.7477486 -11.429999
vt -3.2477484 -11.429999
vt -2.6637087 -11.43
vt -2.1637087 -11.43
vt 3.2499976 6
vt 3.7499988 6
vt 3.2499967 -11.43
vt 3.749997 -11.43
vt -3.7500045 -11.43
vt -3.2500045 -11.43
vt 2.1637075 6.0000005
vt 2.6637092 6.0000005
vt 2.1637065 -11.43
vt 2.6637077 -11.43
vt 8.450332 6.000001
vt 9.000112 6.000001
vt 8.450326 -11.429999
vt 9.000108 -11.429999
vt -4.0025024 6.000002
vt -3.4120052 6.000002
vt -4.0025 -11.429998
vt -3.4120018 -11.429998
vt 3.4101884 6.000003
vt 4.000452 6.000003
vt 3.4101849 -11.429997
vt 4.000448 -11.429997
vt -8.998482 6.0000005
vt -8.448833 6.0000005
vt -8.998476 -11.429999
vt -8.448828 -11.429999
vt -2.6633222 6.0000024
vt -2.1633213 6.0000024
vt -2.6633205 -11.429998
vt -2.1633205 -11.429998
vt -8.999675 -11.43
vt -8.449671 -11.43
vt 8.4497 6
vt 8.999764 6
vt 8.449696 -11.43
vt 8.99976 -11.43
vt 2.1622145 6.0000024
vt 2.662215 6.0000024
vt 2.1622138 -11.429997
vt 2.6622138 -11.429997
vt -6.000003 6
vt -6.000003 6.5
vt 6.000309 6.5
vt 3.750308 6
vt 3.750308 6.5
vt 6.000309 6
vt -3.4098349 -6.0000043
vt -3.999983 -6.0000043
vt 3.9999788 -3.7500036
vt 3.999983 -6.0000043
vt 3.4098349 -6.0000043
vt 3.9999878 -8.450226
vt 2.1637087 -6.000003
vt 2.6637096 -6.000003
vt -2.6637108 -3.7500026
vt -2.6637096 -6.000003
vt -2.1637087 -6.000003
vt -2.663709 -8.449677
vt -8.999777 6.5
vt -8.999777 6
vt -13.922671 6.5
vt -13.922671 6
vt -3.4094784 -13.853383
vt 2.1637356 -13.922659
vt -2.1637356 -13.922659
vt 3.4094784 -13.853383
vt 8.999823 6
vt 8.999823 6.5
vt 13.853364 6
vt 13.853364 6.5
vn -1 0 1.4305087E-06
vn -1 0 1.4305087E-06
vn -1 0 1.4305087E-06
vn -1 0 1.4305087E-06
vn 1 0 0.00027418073
vn 1 0 0.00027418073
vn 1 0 0.00027418073
vn 1 0 0.00027418073
vn -0 0 1
vn -0 0 1
vn -0 0 1
vn -0 0 1
vn -0.0002777862 0 -1
vn -0.0002777862 0 -1
vn -0.0002777862 0 -1
vn -0.0002777862 0 -1
vn -0 1 0
vn -0 1 0
vn -0 1 0
vn -0 1 0
vn -0 -1 0
vn -0 -1 0
vn -0 -1 0
vn -0 -1 0
vn 1.283203E-07 0 1
vn 1.283203E-07 0 1
vn -0 0 1
vn -0 0 1
vn 0.012429184 0 -0.99992275
vn 0.012429184 0 -0.99992275
vn 0.012429184 0 -0.99992275
vn 0.012429184 0 -0.99992275
vn -0.00016593917 0 -1
vn -0.00016593917 0 -1
vn -0.00016593917 0 -1
vn -0.00016593917 0 -1
vn -0 1 0
vn -0 1 0
vn -0 1 0
vn -0 1 0
vn -0 -1 0
vn -0 -1 0
vn -0 -1 0
vn -0 -1 0
vn -0 -1 0
vn -0 -1 0
vn -0 -1 0
vn -0 -1 0
vn -1 0 -8.669703E-07
vn -1 0 -8.669703E-07
vn -1 0 -8.669703E-07
vn -1 0 -8.669703E-07
vn 1 0 2.6453374E-05
vn 1 0 2.6453374E-05
vn 1 0 2.6453374E-05
vn 1 0 2.6453374E-05
vn -0 1 0
vn -0 1 0
vn -0 1 0
vn -0 1 0
vn -0 -1 0
vn -0 -1 0
vn -0 -1 0
vn -0 -1 0
vn -0 1 0
vn -0 1 0
vn -0 1 0
vn -0 1 0
vn -0 -1 0
vn -0 -1 0
vn -0 -1 0
vn -0 -1 0
vn -0 -1 0
vn -0 -1 0
vn -0 -1 0
vn -0 -1 0
vn 1 -1.5044996E-07 0.0002741807
vn 1 -1.9147852E-07 0.00027275045
vn 1 -1.9147852E-07 0.00027275045
vn 1 -2.3250708E-07 0.00027132023
vn -4.0407764E-07 -1.0942898E-07 -1
vn -4.040778E-07 -1.0942898E-07 -1
vn -4.040778E-07 -1.0942898E-07 -1
vn -4.0407798E-07 -1.0942898E-07 -1
vn -0 5.4714533E-08 1
vn -0 5.4714533E-08 1
vn -0.99999976 2.0525172E-07 0.0006604181
vn -0.99999976 2.0523365E-07 0.00066041877
vn -0.99999976 2.0523365E-07 0.00066041877
vn -0.99999976 2.0521558E-07 0.00066041935
vn -0 5.4714533E-08 1
vn -0 5.4714533E-08 1
vn 1 8.20719E-08 1.9073441E-06
vn 1 6.839327E-08 1.430509E-06
vn 1 6.839327E-08 1.430509E-06
vn 1 5.471464E-08 9.536739E-07
vn -1 -8.207168E-08 1.4305101E-06
vn -1 -8.207172E-08 1.4305115E-06
vn -4.7683554E-07 -1.0942909E-07 -1
vn -4.768358E-07 -1.09429095E-07 -1
vn -4.768358E-07 -1.09429095E-07 -1
vn -4.7683602E-07 -1.094291E-07 -1
vn 1 -2.0517082E-07 2.6453374E-05
vn 1 -1.778148E-07 2.732065E-05
vn 1 -1.778148E-07 2.732065E-05
vn 1 -1.5045879E-07 2.8187926E-05
vn -0.0002777862 -2.1881634E-07 -1
vn -0.00027940108 -2.7352488E-07 -1
vn -0.00027940108 -2.7352488E-07 -1
vn -0.00028101593 -3.282334E-07 -1
vn 5.493296E-05 3.2827592E-07 1
vn 5.493296E-05 3.2827592E-07 1
vn 5.493296E-05 3.2827592E-07 1
vn 5.493296E-05 3.2827592E-07 1
vn -0.99999994 1.9163173E-07 0.00039863065
vn -0.99999994 1.9847097E-07 0.00039841377
vn -0.99999994 1.9847097E-07 0.00039841377
vn -0.99999994 2.0531022E-07 0.0003981969
vn 4.5776284E-05 2.7357706E-07 1
vn 4.5776324E-05 2.7357578E-07 1
vn 4.5776324E-05 2.7357578E-07 1
vn 4.5776367E-05 2.7357453E-07 1
vn -1 -8.207192E-08 -4.3348518E-07
vn -1 -9.575044E-08 0
vn 1 4.10359E-08 0
vn 1 4.10359E-08 0
vn 1 4.10359E-08 0
vn 1 4.10359E-08 0
vn -0.00016593917 -2.7357947E-07 -1
vn -0.00016593924 -2.7358175E-07 -1
vn -0.00016593924 -2.7358175E-07 -1
vn -0.00016593933 -2.7358402E-07 -1
vn -1 0 -5.2981903E-07
vn -1 0 -5.2981903E-07
vn 1 0 1.9073481E-06
vn 1 0 1.9073481E-06
vn 1 0 1.9073481E-06
vn 1 0 1.9073481E-06
vn -0 1 0
vn -0 1 0
vn -0 -1 0
vn -0 -1 0
vn -0 -1 0
vn -0 -1 0
vn -0 1 0
vn -0 1 0
vn -0 -1 0
vn -0 -1 0
vn -0 -1 0
vn -0 -1 0
vn -1 0 5.617946E-06
vn -1 0 5.617946E-06
vn -1 0 5.617946E-06
vn -1 0 5.617946E-06
vn -0 1 0
vn -0 1 0
vn -0 -1 0
vn -0 -1 0
vn 1 0 -5.5017313E-06
vn 1 0 -5.5017313E-06
vn 1 0 -5.5017313E-06
vn 1 0 -5.5017313E-06
g pb_Mesh94582_0
f 3/3/3 2/2/2 1/1/1
f 3/3/3 1/1/1 4/4/4
f 7/7/7 6/6/6 5/5/5
f 6/6/6 8/8/8 5/5/5
f 11/11/11 10/10/10 9/9/9
f 11/11/11 9/9/9 12/12/12
f 15/15/15 14/14/14 13/13/13
f 14/14/14 16/16/16 13/13/13
f 19/19/19 18/18/18 17/17/17
f 18/18/18 20/20/20 17/17/17
f 23/23/23 22/22/22 21/21/21
f 23/23/23 21/21/21 24/24/24
f 25/25/25 10/10/10 11/11/11
f 26/26/26 25/25/25 11/11/11
f 27/27/27 25/25/25 26/26/26
f 28/28/28 27/27/27 26/26/26
f 31/31/31 30/30/30 29/29/29
f 31/31/31 32/32/32 30/30/30
f 35/35/35 34/34/34 33/33/33
f 35/35/35 36/36/36 34/34/34
f 39/39/39 38/38/38 37/37/37
f 38/38/38 40/40/40 37/37/37
f 37/37/37 40/40/40 17/17/17
f 40/40/40 19/19/19 17/17/17
f 43/43/43 42/42/42 41/41/41
f 43/43/43 41/41/41 44/44/44
f 47/47/47 46/46/46 45/45/45
f 47/47/47 45/45/45 48/48/48
f 51/51/51 50/50/50 49/49/49
f 51/51/51 49/49/49 52/52/52
f 55/55/55 54/54/54 53/53/53
f 54/54/54 56/56/56 53/53/53
f 59/59/59 58/58/58 57/57/57
f 58/58/58 60/60/60 57/57/57
f 63/63/63 62/62/62 61/61/61
f 63/63/63 61/61/61 64/64/64
f 67/67/67 66/66/66 65/65/65
f 68/68/68 67/67/67 65/65/65
f 67/67/67 57/57/57 66/66/66
f 59/59/59 57/57/57 67/67/67
f 71/71/71 70/70/70 69/69/69
f 71/71/71 72/72/72 70/70/70
f 75/75/75 74/74/74 73/73/73
f 76/76/76 74/74/74 75/75/75
f 79/79/79 78/78/78 77/77/77
f 79/79/79 80/80/80 78/78/78
f 83/83/83 82/82/82 81/81/81
f 83/83/83 84/84/84 82/82/82
f 85/85/85 9/9/9 10/10/10
f 85/85/85 86/86/86 9/9/9
f 89/89/89 88/88/88 87/87/87
f 89/89/89 90/90/90 88/88/88
f 91/91/91 25/25/25 27/27/27
f 91/91/91 92/92/92 25/25/25
f 95/95/95 94/94/94 93/93/93
f 95/95/95 96/96/96 94/94/94
f 97/97/97 1/1/1 2/2/2
f 97/97/97 98/98/98 1/1/1
f 101/101/101 100/100/100 99/99/99
f 101/101/101 102/102/102 100/100/100
f 105/105/105 104/104/104 103/103/103
f 105/105/105 106/106/106 104/104/104
f 109/109/109 108/108/108 107/107/107
f 109/109/109 110/110/110 108/108/108
f 113/113/113 112/112/112 111/111/111
f 113/113/113 114/114/114 112/112/112
f 117/117/117 116/116/116 115/115/115
f 117/117/117 118/118/118 116/116/116
f 121/121/121 120/120/120 119/119/119
f 121/121/121 122/122/122 120/120/120
f 123/123/123 49/49/49 50/50/50
f 123/123/123 124/124/124 49/49/49
f 127/127/127 126/126/126 125/125/125
f 127/127/127 128/128/128 126/126/126
f 131/131/131 130/130/130 129/129/129
f 131/131/131 132/132/132 130/130/130
f 3/3/3 133/133/133 2/2/2
f 3/3/3 134/134/134 133/133/133
f 134/134/134 49/49/49 133/133/133
f 134/134/134 52/52/52 49/49/49
f 137/137/137 136/136/136 135/135/135
f 136/136/136 138/138/138 135/135/135
f 135/135/135 138/138/138 55/55/55
f 138/138/138 54/54/54 55/55/55
f 17/17/17 20/20/20 139/139/139
f 20/20/20 140/140/140 139/139/139
f 139/139/139 140/140/140 59/59/59
f 140/140/140 58/58/58 59/59/59
f 143/143/143 142/142/142 141/141/141
f 143/143/143 141/141/141 47/47/47
f 73/73/73 144/144/144 142/142/142
f 73/73/73 142/142/142 143/143/143
f 145/145/145 67/67/67 68/68/68
f 145/145/145 68/68/68 146/146/146
f 37/37/37 145/145/145 146/146/146
f 39/39/39 37/37/37 146/146/146
f 139/139/139 59/59/59 67/67/67
f 145/145/145 139/139/139 67/67/67
f 17/17/17 139/139/139 145/145/145
f 37/37/37 17/17/17 145/145/145
f 148/148/148 48/48/48 147/147/147
f 148/148/148 149/149/149 48/48/48
f 148/148/148 150/150/150 149/149/149
f 150/150/150 75/75/75 149/149/149
f 149/149/149 47/47/47 48/48/48
f 149/149/149 143/143/143 47/47/47
f 75/75/75 143/143/143 149/149/149
f 75/75/75 73/73/73 143/143/143
f 153/153/153 152/152/152 151/151/151
f 153/153/153 154/154/154 152/152/152
f 155/155/155 66/66/66 57/57/57
f 155/155/155 156/156/156 66/66/66
f 157/157/157 74/74/74 76/76/76
f 157/157/157 158/158/158 74/74/74
f 161/161/161 160/160/160 159/159/159
f 161/161/161 162/162/162 160/160/160
