g pb_Mesh94954
v -0 0 0
v -5 0 0
v -1.0049062E-06 8 -8.142501E-06
v -5.0000005 8 -1.2133424E-05
v -5 0 0
v -5 0 -6
v -5.0000005 8 -1.2133424E-05
v -5.000002 8 -6
v -5 0 -6
v -0 0 -6
v -5.000002 8 -6
v -0 8 -6
v -0 0 -6
v -0 0 0
v -0 8 -6
v -1.0049062E-06 8 -8.142501E-06
v -1.0049062E-06 8 -8.142501E-06
v -5.0000005 8 -1.2133424E-05
v -0 8 -6
v -5.000002 8 -6
v -0 0 -6
v -5 0 -6
v -0 0 0
v -5 0 0
vt 0 0
vt -5 0
vt -1.0049062E-06 8
vt -5.0000005 8
vt 0 2.9802322E-07
vt -6 2.9802322E-07
vt -1.2133424E-05 8
vt -6 8
vt 5 0
vt 0 0
vt 5.000002 8
vt 0 8
vt 6 0
vt 0 0
vt 6 8
vt 8.142501E-06 8
vt 1.0049062E-06 -8.142501E-06
vt 5.0000005 -1.2133424E-05
vt 0 -6
vt 5.000002 -6
vt 0 -6
vt -5 -6
vt 0 0
vt -5 0
vn -0 1.0178127E-06 1
vn -3.9909233E-07 1.2672454E-06 1
vn -3.9909233E-07 1.2672454E-06 1
vn -7.9818466E-07 1.5166779E-06 1
vn -1 -5.9604645E-08 0
vn -1 -1.4901161E-07 1.1920953E-07
vn -1 -1.4901161E-07 1.1920953E-07
vn -1 -2.3841858E-07 2.3841906E-07
vn -0 0 -1
vn -0 0 -1
vn -0 0 -1
vn -0 0 -1
vn 1 0 0
vn 1 6.280672E-08 8.374229E-08
vn 1 6.280672E-08 8.374229E-08
vn 1 1.2561344E-07 1.6748459E-07
vn -0 1 0
vn -0 1 0
vn -0 1 0
vn -0 1 0
vn -0 -1 0
vn -0 -1 0
vn -0 -1 0
vn -0 -1 0
g pb_Mesh94954_0
f 3/3/3 2/2/2 1/1/1
f 3/3/3 4/4/4 2/2/2
f 7/7/7 6/6/6 5/5/5
f 7/7/7 8/8/8 6/6/6
f 11/11/11 10/10/10 9/9/9
f 11/11/11 12/12/12 10/10/10
f 15/15/15 14/14/14 13/13/13
f 15/15/15 16/16/16 14/14/14
f 19/19/19 18/18/18 17/17/17
f 19/19/19 20/20/20 18/18/18
f 23/23/23 22/22/22 21/21/21
f 23/23/23 24/24/24 22/22/22
