g pb_Mesh86392
v -0 -3 0
v -6 -3 -6
v -6 -3 2
v -0 -3 -4
v -12 -3 -4
v -12 -3 2
v -12 9 -8
v -6 9 -8
v -12 12 -8
v -6 12 -8
v -6 9 -6
v -6 9 2
v -6 12 -4
v -6 12 2
v -12 9 2
v -12 9 -4
v -12 12 2
v -12 12 -4
v -6 9 2
v -12 9 2
v -6 12 2
v -12 12 2
v -12 12 -8
v -12 9 -8
v -12 -3 -8
v -6 -3 -8
v -6 9 -8
v -6 12 -8
v -16 -3 0
v -16 -3 -4
v -16 6 -4
v -16 6 0
v -12 6 2
v -12 6 -4
v -0 6 -4
v -0 -3 0
v -0 6 0
v -0 -3 -4
v -0 9 -4
v -0 9 0
v -0.5980811 -3 4.964099
v -7.1602616 -3 7.5980673
v -7.1602616 6 7.5980673
v -0.5980811 6 4.964099
v -7.1602616 9 7.5980673
v -0.5980811 9 4.964099
v -7.1602616 -3 7.5980673
v -12.990389 -3 7.499985
v -12.990389 6 7.499985
v -7.1602616 6 7.5980673
v -12.990389 9 7.499985
v -7.1602616 9 7.5980673
v -12.000001 1 -24.541634
v -6.000001 -3 -24.541634
v -6.000001 1 -24.541634
v -12.000001 -3 -24.541634
v -6 6 -8
v -12 6 -8
v -6 6 -6
v -0 -3 -4
v -0 6 -4
v -6 -3 -6
v -6 9 -6
v -0 9 -4
v -6 6 -8
v -6 -3 -6
v -6 6 -6
v -6 -3 -8
v -12 6 -8
v -16 -3 -5
v -16 6 -5
v -6.000001 -3 -18.541634
v -6.000001 6 -18.541634
v -22 1 -10
v -22 -3 -10
v -22 1 -18.541634
v -22 -3 -18.541634
v -12.000001 -3 -18.541634
v -6.000001 -3 -18.541634
v -6.000001 -3 -24.541634
v -6.000001 1 -24.541634
v -6.000001 6 -18.541634
v -12.000001 6 -18.541634
v -6.000001 1 -24.541634
v -12.000001 1 -24.541634
v -22 1 -24.541634
v -22 -3 -24.541634
v -12.000001 -3 -24.541634
v -6.000001 -3 -24.541634
v -12 6 2
v -12 -3 2
v -16 6 0
v -16 -3 0
v -16 -3 -5
v -16 -3 -18.541634
v -16 1 -24.541634
v -16 6 -18.541634
v -16 -3 -4
v -16 -3 0
v -16 -3 -24.541634
v -16 -3 -24.541634
v -16 1 -24.541634
v -16 6 -18.541634
v -22 1 -24.541634
v -22 1 -18.541634
v -22 -3 -18.541634
v -22 -3 -24.541634
v -22 -3 -24.541634
v -22 1 -24.541634
v -16 6 -5
v -16 -3 -5
v -22 1 -10
v -22 -3 -10
v -16 6 -18.541634
v -16 6 -5
v -22 1 -18.541634
v -22 1 -10
v -22 -3 -10
v -7.1602616 -3 7.5980673
v -12.990389 -3 7.499985
v -12 -3 2
v -12 6 2
v -12.990389 -3 7.499985
v -12.990389 6 7.499985
v -0 6 0
v -0 -3 0
v -0.5980811 6 4.964099
v -0.5980811 -3 4.964099
v -12 9 2
v -12.990389 9 7.499985
v -0 9 0
v -0.5980811 9 4.964099
v -0.5980811 -3 4.964099
v -6 9 -6
v -0 9 -4
v -0 9 0
v -6 9 2
v -12 12 -4
v -6 12 -4
v -6 12 2
v -12 12 2
v -6 12 -8
v -12 12 -8
v -6 6 -8
v -12 6 -8
v -6.000001 6 -18.541634
v -12.000001 6 -18.541634
v -16 6 -18.541634
v -16 6 -5
v -12 6 -4
v -16 6 -4
v -12 6 2
v -16 6 0
v -12 9 2
v -12.990389 9 7.499985
v -7.1602616 9 7.5980673
v -0.5980811 9 4.964099
vt 0 0
vt -6 -6
vt -6 2
vt -0 -4
vt -12 -4
vt -12 2
vt 12 9
vt 6 9
vt 12 12
vt 6 12
vt 6 9
vt -2 9
vt 4 12
vt -2 12
vt 2 9
vt -4 9
vt 2 12
vt -4 12
vt -6 9
vt -12 9
vt -6 12
vt -12 12
vt -8 12
vt -8 9
vt -12 -8
vt -6 -8
vt 8 9
vt 8 12
vt 0 -3
vt -4 -3
vt -4 6
vt 0 6
vt 2 6
vt -4 6
vt 4 6
vt 0 -3
vt 0 6
vt 4 -3
vt 4 9
vt 0 9
vt -2.4041624 -3
vt -9.47523 -3
vt -9.47523 6
vt -2.4041624 6
vt -9.47523 9
vt -2.4041624 9
vt -7.031442 -3
vt -12.862394 -3
vt -12.862394 6
vt -7.031442 6
vt -12.862394 9
vt -7.0314417 9
vt 12.000001 1
vt 6.000001 -3
vt 6.000001 1
vt 12.000001 -3
vt 6 6
vt 12 6
vt 7.5894666 6
vt 1.264911 -3
vt 1.264911 6
vt 7.5894666 -3
vt 7.5894666 9
vt 1.264911 9
vt 8 6
vt 6 -3
vt 6 6
vt 8 -3
vt -8 6
vt -5 -3
vt -5 6
vt 18.541634 -3
vt 18.541634 6
vt -10 1
vt -10 -3
vt -18.541634 1
vt -18.541634 -3
vt -12.000001 -18.541634
vt -6.000001 -18.541634
vt 24.541634 -3
vt 24.541634 1
vt 6.000001 -10.40297
vt 12.000001 -10.40297
vt 6.000001 -18.21322
vt 12.000001 -18.21322
vt -24.541634 1
vt -24.541634 -3
vt -12.000001 -24.541634
vt -6.000001 -24.541634
vt -9.838699 6
vt -9.838699 -3
vt -14.310836 6
vt -14.310836 -3
vt -16 -5
vt -16 -18.541634
vt 16 -18.21322
vt 16 -10.40297
vt -16 -4
vt -16 0
vt -16 -24.541634
vt 16 -3
vt 16 1
vt 16 -10.40297
vt 22 -18.21322
vt 22 -13.603892
vt -22 -18.541634
vt -22 -24.541634
vt 22 -3
vt 22 1
vt -15.492463 6
vt -15.492463 -3
vt -23.302713 1
vt -23.302713 -3
vt 8.450434 -18.541634
vt 8.450434 -5
vt 16.260683 -18.541634
vt 16.260683 -10
vt -22 -10
vt -7.1602616 7.5980673
vt -12.990389 7.499985
vt 4.0949926 -3
vt 4.0949926 6
vt 9.683436 -3
vt 9.683436 6
vt 0 6
vt -0 -3
vt -4.999998 6
vt -4.999998 -3
vt 4.0949926 9
vt 9.683436 9
vt 0 9
vt -4.999998 9
vt -0.5980811 4.964099
vt 6 -6
vt 0 -4
vt 0 0
vt 6 2
vt 12 -4
vt 6 -4
vt 6 2
vt 12 2
vt 6 -8
vt 12 -8
vt 6 -8
vt 12 -8
vt 6.000001 -18.541634
vt 12.000001 -18.541634
vt 16 -18.541634
vt 16 -5
vt 12 -4
vt 16 -4
vt 12 2
vt 16 0
vt 12 2
vt 12.990389 7.499985
vt 7.1602616 7.5980673
vt 0.5980811 4.964099
vn -0 -1 0
vn -0 -1 0
vn -0 -1 0
vn -0 -1 0
vn -0 -1 0
vn -0 -1 0
vn -0 0 -1
vn -0 0 -1
vn -0 0 -1
vn -0 0 -1
vn 1 0 0
vn 1 0 0
vn 1 0 0
vn 1 0 0
vn -1 0 0
vn -1 0 0
vn -1 0 0
vn -1 0 0
vn -0 0 1
vn -0 0 1
vn -0 0 1
vn -0 0 1
vn -1 0 0
vn -1 0 0
vn -0 -1 0
vn -0 -1 0
vn 1 0 0
vn 1 0 0
vn -1 0 0
vn -1 0 0
vn -1 0 0
vn -1 0 0
vn -1 0 0
vn -1 0 0
vn 1 0 0
vn 1 0 0
vn 1 0 0
vn 1 0 0
vn 1 0 0
vn 1 0 0
vn 0.37249938 0 0.92803246
vn 0.37249938 0 0.92803246
vn 0.37249938 0 0.92803246
vn 0.37249938 0 0.92803246
vn 0.37249935 0 0.92803246
vn 0.37249935 0 0.92803246
vn -0.016820936 0 0.99985856
vn -0.016820936 0 0.99985856
vn -0.016820936 0 0.99985856
vn -0.016820936 0 0.99985856
vn -0.016820934 0 0.9998585
vn -0.016820934 0 0.9998585
vn -0 0 -1
vn -0 0 -1
vn -0 0 -1
vn -0 0 -1
vn -0 0 -1
vn -0 0 -1
vn 0.31622776 0 -0.9486833
vn 0.31622776 0 -0.9486833
vn 0.31622776 0 -0.9486833
vn 0.31622776 0 -0.9486833
vn 0.31622776 0 -0.9486833
vn 0.31622776 0 -0.9486833
vn 1 0 0
vn 1 0 0
vn 1 0 0
vn 1 0 0
vn -1 0 0
vn -1 0 0
vn -1 0 0
vn 1 0 -9.046741E-08
vn 1 0 -9.046741E-08
vn -1 0 0
vn -1 0 0
vn -1 0 0
vn -1 0 0
vn -0 -1 0
vn -0 -1 0
vn 1 0 0
vn 1 0 0
vn -0 0.76822126 -0.6401844
vn -0 0.76822126 -0.6401844
vn -0 0.76822126 -0.6401844
vn -0 0.76822126 -0.6401844
vn -1 0 0
vn -1 0 0
vn -0 -1 0
vn -0 -1 0
vn -0.44721362 0 0.89442724
vn -0.44721362 0 0.89442724
vn -0.44721362 0 0.89442724
vn -0.44721362 0 0.89442724
vn -0 -1 0
vn -0 -1 0
vn -0 0.76822126 -0.6401844
vn -0 0.76822126 -0.6401844
vn -0 -1 0
vn -0 -1 0
vn -0 -1 0
vn -0 0 -1
vn -0 0 -1
vn -0.3200922 0.76822126 -0.3200922
vn -0.3200922 0.76822126 -0.3200922
vn -0.6401844 0.76822126 0
vn -0 -1 0
vn -0 -1 0
vn -0 0 -1
vn -0 0 -1
vn -0.6401844 0 0.7682213
vn -0.6401844 0 0.76822126
vn -0.6401844 0 0.76822126
vn -0.6401844 0 0.76822126
vn -0.6401844 0.76822126 0
vn -0.6401844 0.76822126 0
vn -0.6401844 0.76822126 0
vn -0.6401844 0.7682213 0
vn -0 -1 0
vn -0 -1 0
vn -0 -1 0
vn -0.9841711 0 -0.17722085
vn -0.9841711 0 -0.17722085
vn -0.9841711 0 -0.17722085
vn -0.9841711 0 -0.17722085
vn 0.9928202 0 0.11961627
vn 0.9928202 0 0.11961627
vn 0.9928202 0 0.11961627
vn 0.9928202 0 0.11961627
vn -0.9841711 0 -0.17722085
vn -0.9841711 0 -0.17722085
vn 0.9928202 0 0.11961628
vn 0.9928202 0 0.11961628
vn -0 -1 0
vn -0 1 0
vn -0 1 0
vn -0 1 0
vn -0 1 0
vn -0 1 0
vn -0 1 0
vn -0 1 0
vn -0 1 0
vn -0 1 0
vn -0 1 0
vn -0 1 0
vn -0 1 0
vn -0 1 0
vn -0 1 0
vn -0 1 0
vn -0 1 0
vn -0 1 0
vn -0 1 0
vn -0 1 0
vn -0 1 0
vn -0 1 0
vn -0 1 0
vn -0 1 0
vn -0 1 0
g pb_Mesh86392_0
f 3/3/3 2/2/2 1/1/1
f 2/2/2 4/4/4 1/1/1
f 6/6/6 5/5/5 3/3/3
f 5/5/5 2/2/2 3/3/3
f 9/9/9 8/8/8 7/7/7
f 9/9/9 10/10/10 8/8/8
f 13/13/13 12/12/12 11/11/11
f 13/13/13 14/14/14 12/12/12
f 17/17/17 16/16/16 15/15/15
f 17/17/17 18/18/18 16/16/16
f 21/21/21 20/20/20 19/19/19
f 21/21/21 22/22/22 20/20/20
f 23/23/23 16/16/16 18/18/18
f 23/23/23 24/24/24 16/16/16
f 25/25/25 2/2/2 5/5/5
f 25/25/25 26/26/26 2/2/2
f 27/27/27 13/13/13 11/11/11
f 27/27/27 28/28/28 13/13/13
f 31/31/31 30/30/30 29/29/29
f 31/31/31 29/29/29 32/32/32
f 16/16/16 34/34/34 33/33/33
f 16/16/16 33/33/33 15/15/15
f 37/37/37 36/36/36 35/35/35
f 36/36/36 38/38/38 35/35/35
f 40/40/40 37/37/37 39/39/39
f 37/37/37 35/35/35 39/39/39
f 43/43/43 42/42/42 41/41/41
f 43/43/43 41/41/41 44/44/44
f 45/45/45 43/43/43 44/44/44
f 45/45/45 44/44/44 46/46/46
f 49/49/49 48/48/48 47/47/47
f 49/49/49 47/47/47 50/50/50
f 51/51/51 49/49/49 50/50/50
f 51/51/51 50/50/50 52/52/52
f 55/55/55 54/54/54 53/53/53
f 54/54/54 56/56/56 53/53/53
f 8/8/8 57/57/57 7/7/7
f 57/57/57 58/58/58 7/7/7
f 61/61/61 60/60/60 59/59/59
f 60/60/60 62/62/62 59/59/59
f 64/64/64 61/61/61 63/63/63
f 61/61/61 59/59/59 63/63/63
f 67/67/67 66/66/66 65/65/65
f 66/66/66 68/68/68 65/65/65
f 11/11/11 67/67/67 27/27/27
f 67/67/67 65/65/65 27/27/27
f 24/24/24 69/69/69 34/34/34
f 24/24/24 34/34/34 16/16/16
f 71/71/71 70/70/70 30/30/30
f 71/71/71 30/30/30 31/31/31
f 72/72/72 65/65/65 68/68/68
f 72/72/72 73/73/73 65/65/65
f 76/76/76 75/75/75 74/74/74
f 76/76/76 77/77/77 75/75/75
f 78/78/78 26/26/26 25/25/25
f 78/78/78 79/79/79 26/26/26
f 80/80/80 73/73/73 72/72/72
f 80/80/80 81/81/81 73/73/73
f 84/84/84 83/83/83 82/82/82
f 84/84/84 85/85/85 83/83/83
f 86/86/86 77/77/77 76/76/76
f 86/86/86 87/87/87 77/77/77
f 88/88/88 79/79/79 78/78/78
f 88/88/88 89/89/89 79/79/79
f 92/92/92 91/91/91 90/90/90
f 92/92/92 93/93/93 91/91/91
f 94/94/94 78/78/78 25/25/25
f 94/94/94 95/95/95 78/78/78
f 96/96/96 83/83/83 85/85/85
f 96/96/96 97/97/97 83/83/83
f 98/98/98 25/25/25 5/5/5
f 98/98/98 94/94/94 25/25/25
f 99/99/99 5/5/5 6/6/6
f 99/99/99 98/98/98 5/5/5
f 95/95/95 88/88/88 78/78/78
f 95/95/95 100/100/100 88/88/88
f 101/101/101 53/53/53 56/56/56
f 101/101/101 102/102/102 53/53/53
f 104/104/104 103/103/103 96/96/96
f 104/104/104 105/105/105 103/103/103
f 106/106/106 100/100/100 95/95/95
f 106/106/106 107/107/107 100/100/100
f 108/108/108 102/102/102 101/101/101
f 108/108/108 109/109/109 102/102/102
f 112/112/112 111/111/111 110/110/110
f 112/112/112 113/113/113 111/111/111
f 116/116/116 115/115/115 114/114/114
f 116/116/116 117/117/117 115/115/115
f 118/118/118 95/95/95 94/94/94
f 118/118/118 106/106/106 95/95/95
f 119/119/119 6/6/6 3/3/3
f 119/119/119 120/120/120 6/6/6
f 123/123/123 122/122/122 121/121/121
f 123/123/123 124/124/124 122/122/122
f 127/127/127 126/126/126 125/125/125
f 127/127/127 128/128/128 126/126/126
f 124/124/124 129/129/129 122/122/122
f 124/124/124 130/130/130 129/129/129
f 132/132/132 125/125/125 131/131/131
f 132/132/132 127/127/127 125/125/125
f 133/133/133 3/3/3 1/1/1
f 133/133/133 119/119/119 3/3/3
g pb_Mesh86392_1
f 136/136/136 135/135/135 134/134/134
f 136/136/136 134/134/134 137/137/137
f 140/140/140 139/139/139 138/138/138
f 140/140/140 138/138/138 141/141/141
f 142/142/142 138/138/138 139/139/139
f 142/142/142 143/143/143 138/138/138
f 146/146/146 145/145/145 144/144/144
f 146/146/146 147/147/147 145/145/145
f 148/148/148 145/145/145 147/147/147
f 148/148/148 149/149/149 145/145/145
f 149/149/149 150/150/150 145/145/145
f 149/149/149 151/151/151 150/150/150
f 151/151/151 152/152/152 150/150/150
f 151/151/151 153/153/153 152/152/152
f 155/155/155 137/137/137 154/154/154
f 155/155/155 156/156/156 137/137/137
f 156/156/156 136/136/136 137/137/137
f 156/156/156 157/157/157 136/136/136
