g pb_Mesh88708
v -4.7718644 69.3 7.672149
v -6.885675 69.3 7.703734
v -4.7580175 69.3 5.671719
v -5.9156666 69.3 5.689017
v -4.5172825 0 2.000003
v -6.9714594 0 1.9624808
v -4.5172815 0 6.0000033
v -7.9115944 0 5.976528
v -4.5172815 0 6.0000033
v -7.9115944 0 5.976528
v -4.477551 3 5.6816406
v -8.909356 3 6.133794
v -8.909356 3 6.133794
v -7.9115944 0 5.976528
v -7.969228 3 2.1193004
v -6.9714594 0 1.9624808
v -7.969228 3 2.1193004
v -6.9714594 0 1.9624808
v -4.9546213 3 3.0743678
v -4.5172825 0 2.000003
v -4.9546213 3 3.0743678
v -4.5172825 0 2.000003
v -4.5172815 0 6.0000033
v -4.477551 3 5.6816406
v -3.1972246 48.3 6.37383
v -6.885675 69.3 7.703734
v -4.7718644 69.3 7.672149
v -9.900725 48.3 6.7188816
v -4.477551 3 5.6816406
v -9.900725 48.3 6.7188816
v -3.1972246 48.3 6.37383
v -8.909356 3 6.133794
v -9.900725 48.3 6.7188816
v -7.978808 48.3 1.4781108
v -6.885675 69.3 7.703734
v -5.9156666 69.3 5.689017
v -8.909356 3 6.133794
v -7.969228 3 2.1193004
v -9.900725 48.3 6.7188816
v -7.978808 48.3 1.4781108
v -5.9156666 69.3 5.689017
v -7.978808 48.3 1.4781108
v -3.5619287 48.3 2.1431208
v -4.7580175 69.3 5.671719
v -7.978808 48.3 1.4781108
v -7.969228 3 2.1193004
v -4.9546213 3 3.0743678
v -3.5619287 48.3 2.1431208
v -4.7580175 69.3 5.671719
v -3.5619287 48.3 2.1431208
v -4.7718644 69.3 7.672149
v -3.1972246 48.3 6.37383
v -3.5619287 48.3 2.1431208
v -4.9546213 3 3.0743678
v -3.1972246 48.3 6.37383
v -4.477551 3 5.6816406
vt 4.7718644 7.672149
vt 6.885675 7.703734
vt 4.7580175 5.671719
vt 5.9156666 5.689017
vt -4.5172825 2.000003
vt -6.9714594 1.9624808
vt -4.5172815 6.0000033
vt -7.9115944 5.976528
vt -4.635593 -0.055935316
vt -8.0287695 -0.0550748
vt -4.5895452 2.946936
vt -9.029458 2.9434903
vt 8.2936735 3.3887897
vt 7.8752174 0.34150055
vt 4.173997 3.3983188
vt 3.7559683 0.3510225
vt 7.1778207 3.4131901
vt 6.2517867 0.38735378
vt 4.0198207 3.4306118
vt 3.8673797 0.32566947
vt -2.942273 3.277484
vt -1.8798488 0.2561012
vt -5.8784504 0.2620306
vt -5.5612497 3.254615
vt -3.3232234 48.238117
vt -7.037367 69.22529
vt -4.9233465 69.22519
vt -10.032256 48.23611
vt -4.5895452 2.946936
vt -10.032256 48.23611
vt -3.3232234 48.238117
vt -9.029458 2.9434903
vt 9.122649 48.66122
vt 3.5587401 48.635723
vt 9.265014 69.44784
vt 7.0642314 69.42541
vt 8.2936735 3.3887897
vt 4.173997 3.3983188
vt 9.122649 48.66122
vt 3.5587401 48.635723
vt 4.2908535 69.65121
vt 7.348695 48.39276
vt 2.906796 48.343
vt 3.1749358 69.61852
vt 7.348695 48.39276
vt 7.1778207 3.4131901
vt 4.0198207 3.4306118
vt 2.906796 48.343
vt -5.543915 69.46607
vt -2.0481799 48.42683
vt -7.543279 69.46981
vt -6.2870536 48.412666
vt -2.0481799 48.42683
vt -2.942273 3.277484
vt -6.2870536 48.412666
vt -5.5612497 3.254615
vn -0 1 0
vn -0 1 0
vn -0 1 0
vn -0 1 0
vn -0 -1 0
vn -0 -1 0
vn -0 -1 0
vn -0 -1 0
vn -0.0068771844 0.10561593 0.9943833
vn 0.04730169 0.04361236 0.99452543
vn 0.04730169 0.04361236 0.99452543
vn 0.101480566 -0.018391205 0.99466753
vn -0.92950255 -0.2977298 -0.21767421
vn -0.92949533 -0.29774404 -0.21768539
vn -0.92949533 -0.29774404 -0.21768539
vn -0.9294882 -0.29775828 -0.21769656
vn 0.29866502 0.14861163 -0.9427162
vn 0.15652364 0.24379393 -0.9417006
vn 0.15652364 0.24379393 -0.9417006
vn 0.014382288 0.33897623 -0.940685
vn 0.986351 0.056071855 -0.08994797
vn 0.9895406 0.14425492 -2.3592484E-07
vn 0.986351 0.056071855 -0.08994797
vn 0.98316145 -0.03211121 -0.1798957
vn 0.03312145 -0.057361357 0.9976325
vn 0.03312145 -0.057361357 0.9976325
vn 0.014912973 -0.060586043 0.9980516
vn 0.051329933 -0.054136667 0.99721336
vn 0.07644507 -0.013668887 0.99665904
vn 0.07644507 -0.013668887 0.99665904
vn 0.051398136 -0.016710462 0.99853843
vn 0.101492 -0.0106273135 0.9947796
vn -0.9283429 0.14925185 -0.34044582
vn -0.9078939 0.16105732 -0.3838581
vn -0.9078939 0.16105732 -0.3838581
vn -0.8874449 0.17286281 -0.4272704
vn -0.9734936 -0.018359946 -0.22797619
vn -0.9561702 -0.011715895 -0.28613698
vn -0.9561702 -0.011715895 -0.28613698
vn -0.93884677 -0.005071842 -0.3442978
vn 0.06584894 0.17275375 -0.9793966
vn 0.14643389 0.18063632 -0.9725881
vn 0.06584894 0.17275375 -0.9793966
vn -0.014736005 0.1648712 -0.98620504
vn 0.22541419 -0.019162977 -0.9708822
vn 0.3019915 -0.013428235 -0.953216
vn 0.22541419 -0.019162977 -0.9708822
vn 0.14883687 -0.024897719 -0.9885483
vn 0.99842334 0.055705547 0.006911035
vn 0.99577713 0.067733124 -0.03935042
vn 0.99577713 0.067733124 -0.03935042
vn 0.99313086 0.07976069 -0.08561187
vn 0.9957826 -0.032378756 -0.08584046
vn 0.98957145 -0.028711177 -0.13288626
vn 0.98957145 -0.028711177 -0.13288626
vn 0.98336023 -0.025043597 -0.17993206
g pb_Mesh88708_0
f 3/3/3 2/2/2 1/1/1
f 3/3/3 4/4/4 2/2/2
f 7/7/7 6/6/6 5/5/5
f 7/7/7 8/8/8 6/6/6
f 11/11/11 10/10/10 9/9/9
f 12/12/12 10/10/10 11/11/11
f 15/15/15 14/14/14 13/13/13
f 15/15/15 16/16/16 14/14/14
f 19/19/19 18/18/18 17/17/17
f 19/19/19 20/20/20 18/18/18
f 23/23/23 22/22/22 21/21/21
f 24/24/24 23/23/23 21/21/21
f 27/27/27 26/26/26 25/25/25
f 25/25/25 26/26/26 28/28/28
f 31/31/31 30/30/30 29/29/29
f 29/29/29 30/30/30 32/32/32
f 35/35/35 34/34/34 33/33/33
f 36/36/36 34/34/34 35/35/35
f 39/39/39 38/38/38 37/37/37
f 40/40/40 38/38/38 39/39/39
f 43/43/43 42/42/42 41/41/41
f 44/44/44 43/43/43 41/41/41
f 47/47/47 46/46/46 45/45/45
f 48/48/48 47/47/47 45/45/45
f 51/51/51 50/50/50 49/49/49
f 52/52/52 50/50/50 51/51/51
f 55/55/55 54/54/54 53/53/53
f 56/56/56 54/54/54 55/55/55
