g pb_Mesh92180
v -2 -2 -2
v 2 -2 -2
v -2 2 -2
v 2 2 -2
v -2 -2 1.9999998
v -2 -2 -2
v -2 2 -2
v -2 2.0000024 2.0000014
v 2 2 -2
v 2 -2 1.9999998
v 2 2.0000024 2.0000014
v 2 -2 -2
v -2 2 -2
v 2 2 -2
v 2 2.0000024 2.0000014
v -2 2.0000024 2.0000014
v 2 -2 1.9999998
v -2 -2 -2
v -2 -2 1.9999998
v 2 -2 -2
v -2 2.0000045 6.000003
v -2 -1.9999999 5.9999995
v -2 2.0000024 2.0000014
v -2 -2 1.9999998
v 2 2.0000024 2.0000014
v 2 -2 1.9999998
v 2 -1.9999999 5.9999995
v 2 2.0000045 6.000003
v -2 2.0000024 2.0000014
v 2 2.0000024 2.0000014
v 2 2.0000045 6.000003
v -2 2.0000045 6.000003
v 2 -1.9999999 5.9999995
v -2 -2 1.9999998
v -2 -1.9999999 5.9999995
v 2 -2 1.9999998
v -2 2.000007 10.000003
v -2 -1.9999994 10
v -2 2.0000045 6.000003
v -2 -1.9999999 5.9999995
v 2 2.0000045 6.000003
v 2 -1.9999999 5.9999995
v 2 -1.9999994 10
v 2 2.000007 10.000003
v -2 2.0000045 6.000003
v 2 2.0000045 6.000003
v 2 2.000007 10.000003
v -2 2.000007 10.000003
v 2 -1.9999994 10
v -2 -1.9999999 5.9999995
v -2 -1.9999994 10
v 2 -1.9999999 5.9999995
v -2 2.000015 14.000004
v -2 -1.9999951 14
v -2 2.000007 10.000003
v -2 -1.9999994 10
v 2 2.000007 10.000003
v 2 -1.9999994 10
v 2 -1.9999951 14
v 2 2.000015 14.000004
v -2 2.000007 10.000003
v 2 2.000007 10.000003
v 2 2.000015 14.000004
v -2 2.000015 14.000004
v 2 -1.9999951 14
v -2 -1.9999994 10
v -2 -1.9999951 14
v 2 -1.9999994 10
v 2 -1.9999871 18
v -2 -1.9999871 18
v 2 2.0000324 18.000004
v -2 2.0000324 18.000004
v -2 2.0000324 18.000004
v -2 -1.9999871 18
v -2 2.000015 14.000004
v -2 -1.9999951 14
v 2 2.000015 14.000004
v 2 -1.9999951 14
v 2 -1.9999871 18
v 2 2.0000324 18.000004
v -2 2.000015 14.000004
v 2 2.000015 14.000004
v 2 2.0000324 18.000004
v -2 2.0000324 18.000004
v 2 -1.9999871 18
v -2 -1.9999951 14
v -2 -1.9999871 18
v 2 -1.9999951 14
vt 2 -2
vt -2 -2
vt 2 2
vt -2 2
vt 1.9999998 -2
vt -2 -2
vt -2 2
vt 2.0000014 2.0000024
vt 2 2
vt -1.9999998 -2
vt -2.0000014 2.0000024
vt 2 -2
vt 2 -1.9999968
vt -2 -1.9999968
vt -2 2.0000048
vt 2 2.0000048
vt 2 1.9999985
vt -2 -2.0000012
vt -2 1.9999985
vt 2 -2.0000012
vt 6.000003 2.0000045
vt 5.9999995 -1.9999999
vt 2.0000014 2.0000024
vt 1.9999998 -2
vt -2.0000014 2.0000024
vt -1.9999998 -2
vt -5.9999995 -1.9999999
vt -6.000003 2.0000045
vt 2 2.0000048
vt -2 2.0000048
vt -2 6.000006
vt 2 6.000006
vt 2 5.999998
vt -2 1.9999985
vt -2 5.999998
vt 2 1.9999985
vt 10.000003 2.000007
vt 10 -1.9999994
vt 6.000003 2.0000045
vt 5.9999995 -1.9999999
vt -6.000003 2.0000045
vt -5.9999995 -1.9999999
vt -10 -1.9999994
vt -10.000003 2.000007
vt 2 6.000006
vt -2 6.000006
vt -2 10.000006
vt 2 10.000006
vt 2 9.999999
vt -2 5.999998
vt -2 9.999999
vt 2 5.999998
vt 14.000004 2.000015
vt 14 -1.9999951
vt 10.000003 2.000007
vt 10 -1.9999994
vt -10.000003 2.000007
vt -10 -1.9999994
vt -14 -1.9999951
vt -14.000004 2.000015
vt 2 10.000006
vt -2 10.000006
vt -2 14.000007
vt 2 14.000007
vt 2 13.999999
vt -2 9.999999
vt -2 13.999999
vt 2 9.999999
vt 2 -1.99997
vt -2 -1.99997
vt 2 2.0000496
vt -2 2.0000496
vt 18.000004 2.0000324
vt 18 -1.9999871
vt 14.000004 2.000015
vt 14 -1.9999951
vt -14.000004 2.000015
vt -14 -1.9999951
vt -18 -1.9999871
vt -18.000004 2.0000324
vt 2 14.000007
vt -2 14.000007
vt -2 18.000008
vt 2 18.000008
vt 2 17.999998
vt -2 13.999999
vt -2 17.999998
vt 2 13.999999
vn -0 0 -1
vn -0 0 -1
vn -0 0 -1
vn -0 0 -1
vn -1 0 0
vn -1 0 0
vn -1 0 0
vn -1 0 0
vn 1 0 0
vn 1 0 0
vn 1 0 0
vn 1 0 0
vn -0 1 -5.960462E-07
vn -0 1 -5.960462E-07
vn -0 1 -5.960462E-07
vn -0 1 -5.960462E-07
vn -0 -1 0
vn -0 -1 0
vn -0 -1 0
vn -0 -1 0
vn -1 0 0
vn -1 0 0
vn -1 0 0
vn -1 0 0
vn 1 0 0
vn 1 0 0
vn 1 0 0
vn 1 0 0
vn -0 1 -5.3644163E-07
vn -0 1 -5.3644163E-07
vn -0 1 -5.3644163E-07
vn -0 1 -5.3644163E-07
vn -0 -1 2.9802326E-08
vn -0 -1 2.9802326E-08
vn -0 -1 2.9802326E-08
vn -0 -1 2.9802326E-08
vn -1 0 0
vn -1 0 0
vn -1 0 0
vn -1 0 0
vn 1 0 0
vn 1 0 0
vn 1 0 0
vn 1 0 0
vn -0 1 -5.9604645E-07
vn -0 1 -5.9604645E-07
vn -0 1 -5.9604645E-07
vn -0 1 -5.9604645E-07
vn -0 -1 1.19209275E-07
vn -0 -1 1.19209275E-07
vn -0 -1 1.19209275E-07
vn -0 -1 1.19209275E-07
vn -1 0 0
vn -1 0 0
vn -1 0 0
vn -1 0 0
vn 1 0 0
vn 1 0 0
vn 1 0 0
vn 1 0 0
vn -0 1 -2.0265575E-06
vn -0 1 -2.0265575E-06
vn -0 1 -2.0265575E-06
vn -0 1 -2.0265575E-06
vn -0 -1 1.0728836E-06
vn -0 -1 1.0728836E-06
vn -0 -1 1.0728836E-06
vn -0 -1 1.0728836E-06
vn -0 -9.5366966E-07 1
vn -0 -9.5366966E-07 1
vn -0 -9.5366966E-07 1
vn -0 -9.5366966E-07 1
vn -1 0 0
vn -1 0 0
vn -1 0 0
vn -1 0 0
vn 1 0 0
vn 1 0 0
vn 1 0 0
vn 1 0 0
vn -0 1 -4.351139E-06
vn -0 1 -4.351139E-06
vn -0 1 -4.351139E-06
vn -0 1 -4.351139E-06
vn -0 -1 1.9967556E-06
vn -0 -1 1.9967556E-06
vn -0 -1 1.9967556E-06
vn -0 -1 1.9967556E-06
g pb_Mesh92180_0
f 3/3/3 2/2/2 1/1/1
f 3/3/3 4/4/4 2/2/2
f 7/7/7 6/6/6 5/5/5
f 7/7/7 5/5/5 8/8/8
f 11/11/11 10/10/10 9/9/9
f 10/10/10 12/12/12 9/9/9
f 15/15/15 14/14/14 13/13/13
f 15/15/15 13/13/13 16/16/16
f 19/19/19 18/18/18 17/17/17
f 18/18/18 20/20/20 17/17/17
g pb_Mesh92180_1
f 23/23/23 22/22/22 21/21/21
f 23/23/23 24/24/24 22/22/22
f 27/27/27 26/26/26 25/25/25
f 28/28/28 27/27/27 25/25/25
f 31/31/31 30/30/30 29/29/29
f 31/31/31 29/29/29 32/32/32
f 35/35/35 34/34/34 33/33/33
f 34/34/34 36/36/36 33/33/33
g pb_Mesh92180_2
f 39/39/39 38/38/38 37/37/37
f 39/39/39 40/40/40 38/38/38
f 43/43/43 42/42/42 41/41/41
f 44/44/44 43/43/43 41/41/41
f 47/47/47 46/46/46 45/45/45
f 47/47/47 45/45/45 48/48/48
f 51/51/51 50/50/50 49/49/49
f 50/50/50 52/52/52 49/49/49
g pb_Mesh92180_3
f 55/55/55 54/54/54 53/53/53
f 55/55/55 56/56/56 54/54/54
f 59/59/59 58/58/58 57/57/57
f 60/60/60 59/59/59 57/57/57
f 63/63/63 62/62/62 61/61/61
f 63/63/63 61/61/61 64/64/64
f 67/67/67 66/66/66 65/65/65
f 66/66/66 68/68/68 65/65/65
g pb_Mesh92180_4
f 71/71/71 70/70/70 69/69/69
f 71/71/71 72/72/72 70/70/70
f 75/75/75 74/74/74 73/73/73
f 75/75/75 76/76/76 74/74/74
f 79/79/79 78/78/78 77/77/77
f 80/80/80 79/79/79 77/77/77
f 83/83/83 82/82/82 81/81/81
f 83/83/83 81/81/81 84/84/84
f 87/87/87 86/86/86 85/85/85
f 86/86/86 88/88/88 85/85/85
