g pb_Mesh-432980
v -0.74999964 -3 0.24999985
v -0.99999964 -3 0.24999976
v -0.74999934 5 0.25000376
v -0.99999934 5 0.24999493
v -0.99999964 -3 0.24999976
v -0.9999995 -3 -2.3841858E-07
v -0.99999934 5 0.24999493
v -1.0000001 5 -5.066493E-06
v -0.9999995 -3 -2.3841858E-07
v -0.7499995 -3 -1.4901161E-07
v -1.0000001 5 -5.066493E-06
v -0.75000006 5 3.7400941E-06
v 1.0000005 -3 4.7683716E-07
v 1.0000004 -3 0.25000048
v 0.99999994 5 4.351048E-06
v 1.0000007 5 0.25000435
v -0.74999934 5 0.25000376
v -0.99999934 5 0.24999493
v -0.75000006 5 3.7400941E-06
v -1.0000001 5 -5.066493E-06
v -0.7499995 -3 -1.4901161E-07
v -0.9999995 -3 -2.3841858E-07
v -0.74999964 -3 0.24999985
v -0.99999964 -3 0.24999976
v 0.7500005 -3 3.874302E-07
v 0.75000036 -3 0.2500004
v 1.0000005 -3 4.7683716E-07
v 1.0000004 -3 0.25000048
v 0.74999994 5 -4.455539E-06
v 0.7500005 -3 3.874302E-07
v 0.99999994 5 4.351048E-06
v 1.0000005 -3 4.7683716E-07
v 0.75000036 -3 0.2500004
v 0.75000066 5 0.24999554
v 1.0000004 -3 0.25000048
v 1.0000007 5 0.25000435
v 0.75000066 5 0.24999554
v 0.74999994 5 -4.455539E-06
v 1.0000007 5 0.25000435
v 0.99999994 5 4.351048E-06
v -0.74999964 -3 0.24999985
v -0.74999934 5 0.25000376
v -0.7499995 -3 -1.4901161E-07
v -0.75000006 5 3.7400941E-06
v 0.75000066 5 0.24999554
v 0.75000036 -3 0.2500004
v 0.74999994 5 -4.455539E-06
v 0.7500005 -3 3.874302E-07
v -0.7499996 -3 0.12499985
v -0.74999875 5 0.12500374
v 0.7500004 -3 0.12500039
v 0.75000125 5 0.124995545
vt -0.7499996 -2.9999998
vt -0.9999996 -2.9999998
vt -0.7499992 5
vt -0.9999993 5
vt -1.8749998 -3
vt -2.1249998 -3
vt -1.8750045 5
vt -2.1250045 5
vt 0.9999995 -3
vt 0.7499995 -3
vt 1.0000001 5
vt 0.75000006 5
vt 2.125 -3
vt 1.875 -3
vt 2.1249962 5
vt 1.8749962 5
vt 0.74999934 -1.8749962
vt 0.99999934 -1.875005
vt 0.75000006 -2.1249962
vt 1.0000001 -2.125005
vt -0.7499995 -2.1250002
vt -0.9999995 -2.1250002
vt -0.74999964 -1.8750001
vt -0.99999964 -1.8750002
vt 0.7500005 -2.1249995
vt 0.75000036 -1.8749996
vt 1.0000005 -2.1249995
vt 1.0000004 -1.8749995
vt -0.74999994 5
vt -0.7500005 -3
vt -0.99999994 5
vt -1.0000005 -3
vt 0.7500005 -3.0000002
vt 0.7500007 5
vt 1.0000005 -3.0000002
vt 1.0000008 5
vt -0.75000066 -1.8750044
vt -0.74999994 -2.1250045
vt -1.0000007 -1.8749957
vt -0.99999994 -2.1249957
vt 1.8749998 -3
vt 1.874996 5
vt 2.1249998 -3
vt 2.124996 5
vt -1.8750023 5
vt -1.8749975 -3
vt -2.1250024 5
vt -2.1249974 -3
vt -0.7499995 -3
vt -0.7499987 5
vt 0.7500005 -3
vt 0.7500013 5
vn -3.5762787E-07 -4.8801303E-07 1
vn -1.7821789E-05 5.7742653E-08 1
vn -1.7821789E-05 5.7742653E-08 1
vn -3.528595E-05 6.0349834E-07 1
vn -1 3.7252615E-08 -4.7683716E-07
vn -1 -1.8625661E-08 1.3113022E-06
vn -1 -1.8625661E-08 1.3113022E-06
vn -1 -7.450394E-08 3.0994415E-06
vn 3.5762787E-07 -6.035093E-07 -1
vn 1.7791985E-05 -5.868435E-08 -1
vn 1.7791985E-05 -5.868435E-08 -1
vn 3.522634E-05 4.861406E-07 -1
vn 1 6.7055E-08 4.7683716E-07
vn 1 1.1176507E-08 -1.3113022E-06
vn 1 1.1176507E-08 -1.3113022E-06
vn 1 -4.4701984E-08 -3.0994415E-06
vn -0 1 0
vn -0 1 0
vn -0 1 0
vn -0 1 0
vn -0 -1 0
vn -0 -1 0
vn -0 -1 0
vn -0 -1 0
vn -0 -1 0
vn -0 -1 0
vn -0 -1 0
vn -0 -1 0
vn 3.522635E-05 -6.0536877E-07 -1
vn 1.7791988E-05 -6.05462E-08 -1
vn 1.7791988E-05 -6.05462E-08 -1
vn 3.5762787E-07 4.8427637E-07 -1
vn -3.5762787E-07 6.053597E-07 1
vn -1.7791983E-05 6.053676E-08 1
vn -1.7791983E-05 6.053676E-08 1
vn -3.5226338E-05 -4.8428615E-07 1
vn -0 1 0
vn -0 1 0
vn -0 1 0
vn -0 1 0
vn 1 -3.7253137E-08 4.7683716E-07
vn 1 1.4901737E-08 -1.1920928E-06
vn 1 1.4901737E-08 -1.1920928E-06
vn 1 6.705661E-08 -2.8610227E-06
vn -1 3.7254637E-08 2.861023E-06
vn -1 -1.490044E-08 1.1920929E-06
vn -1 -1.490044E-08 1.1920929E-06
vn -1 -6.705552E-08 -4.7683716E-07
vn -3.5762787E-07 -4.861503E-07 1
vn 2.5530655E-06 5.960439E-08 1
vn 2.5530655E-06 5.960439E-08 1
vn 5.463759E-06 6.053591E-07 1
g pb_Mesh-432980_0
f 3/3/3 2/2/2 1/1/1
f 3/3/3 4/4/4 2/2/2
f 7/7/7 6/6/6 5/5/5
f 7/7/7 8/8/8 6/6/6
f 11/11/11 10/10/10 9/9/9
f 11/11/11 12/12/12 10/10/10
f 15/15/15 14/14/14 13/13/13
f 15/15/15 16/16/16 14/14/14
f 19/19/19 18/18/18 17/17/17
f 19/19/19 20/20/20 18/18/18
f 23/23/23 22/22/22 21/21/21
f 23/23/23 24/24/24 22/22/22
f 27/27/27 26/26/26 25/25/25
f 27/27/27 28/28/28 26/26/26
f 31/31/31 30/30/30 29/29/29
f 31/31/31 32/32/32 30/30/30
f 35/35/35 34/34/34 33/33/33
f 35/35/35 36/36/36 34/34/34
f 39/39/39 38/38/38 37/37/37
f 39/39/39 40/40/40 38/38/38
f 43/43/43 42/42/42 41/41/41
f 43/43/43 44/44/44 42/42/42
f 47/47/47 46/46/46 45/45/45
f 47/47/47 48/48/48 46/46/46
g pb_Mesh-432980_1
f 51/51/51 50/50/50 49/49/49
f 51/51/51 52/52/52 50/50/50
