g pb_Mesh84476
v -1.9999989 -0.5 9.902672E-08
v -1.9999985 -0.5 -3.9999998
v -1.9999981 2 -4.0000014
v -1.9999982 2 1.1831571E-07
v -1.9999985 -0.5 -3.9999998
v -0.6854659 -1.5 -5.6151705
v -0.68546605 2 -5.6151714
v -1.9999981 2 -4.0000014
v 4.929704 2 -6.300639
v 5.0000005 -0.5 -4.0000005
v 5.000001 2 -4.000001
v 4.9297037 -1.5 -6.3006387
v 5.000001 2 -4.000001
v 4.000001 -0.5 -2.1103546E-09
v 4.0000014 2 -9.939318E-07
v 5.0000005 -0.5 -4.0000005
v 4.000001 -0.5 -2.1103546E-09
v 1.000001 -0.5 0.99999994
v 1.0000021 2 1.0000005
v 4.0000014 2 -9.939318E-07
v 1.000001 -0.5 0.99999994
v -1.9999989 -0.5 9.902672E-08
v -1.9999982 2 1.1831571E-07
v 1.0000021 2 1.0000005
v -0.68546605 2 -5.6151714
v 1.9507515 -1.5 -7.3616977
v 1.950752 2 -7.361698
v -0.6854659 -1.5 -5.6151705
v 1.950752 2 -7.361698
v 4.9297037 -1.5 -6.3006387
v 4.929704 2 -6.300639
v 1.9507515 -1.5 -7.3616977
v -1.9999981 2 -4.0000014
v 1.000002 2 -4.0000014
v 1.0000021 2 1.0000005
v -1.9999982 2 1.1831571E-07
v 5.000001 2 -4.000001
v 4.0000014 2 -9.939318E-07
v -0.68546605 2 -5.6151714
v 1.950752 2 -7.361698
v 4.929704 2 -6.300639
v 1.0000008 -0.5 -4.0000005
v -0.6854659 -1.5 -5.6151705
v -1.9999985 -0.5 -3.9999998
v 1.9507515 -1.5 -7.3616977
v 5.0000005 -0.5 -4.0000005
v 1.9507515 -1.5 -7.3616977
v 1.0000008 -0.5 -4.0000005
v 4.9297037 -1.5 -6.3006387
v 1.000001 -0.5 0.99999994
v -1.9999985 -0.5 -3.9999998
v -1.9999989 -0.5 9.902672E-08
v 1.0000008 -0.5 -4.0000005
v 4.000001 -0.5 -2.1103546E-09
v 5.0000005 -0.5 -4.0000005
vt 0.66993225 -0.49999994
vt -3.0989883 -0.4999999
vt -3.09899 2
vt 0.669932 2
vt -3.0989883 -0.4999999
vt -5.061175 -1.4999999
vt -5.0611753 2
vt -3.09899 2
vt 6.7919927 2.0000007
vt 4.512087 -0.49999934
vt 4.512088 2.0000007
vt 6.791992 -1.4999994
vt 4.512088 2.0000007
vt 0.42804435 -0.49999943
vt 0.4280454 2.0000005
vt 4.512087 -0.49999934
vt 4.000001 -0.5
vt 1.000001 -0.49999988
vt 1.0000021 2.0000002
vt 4.0000014 2
vt 1.000001 -0.49999988
vt -1.9999989 -0.5
vt -1.9999982 2
vt 1.0000021 2.0000002
vt -1.9393055E-06 2.0000007
vt -2.8284285 -1.4999992
vt -2.8284292 2.000001
vt -2.0012408E-06 -1.4999993
vt -2.8284292 2.000001
vt -5.656856 -1.4999993
vt -5.6568565 2.0000007
vt -2.8284285 -1.4999992
vt 1.9999981 -4.0000014
vt -1.000002 -4.0000014
vt -1.0000021 1.0000005
vt 1.9999982 1.1831571E-07
vt -5.000001 -4.000001
vt -4.0000014 -9.939318E-07
vt 0.68546605 -5.6151714
vt -1.950752 -7.361698
vt -4.929704 -6.300639
vt 1.0000008 -4.016378
vt -0.68546593 -5.8044796
vt -1.9999985 -4.016377
vt 1.9507515 -7.5126624
vt 5.0000005 -4.016378
vt 1.9507515 -7.5126624
vt 1.0000008 -4.016378
vt 4.9297037 -6.474899
vt 1.000001 0.873849
vt -1.9999985 -4.016377
vt -1.9999989 -0.10419612
vt 1.0000008 -4.016378
vt 4.000001 -0.10419626
vt 5.0000005 -4.016378
vn -1 2.1457669E-07 -7.4505806E-08
vn -1 1.4305107E-07 -1.192093E-07
vn -1 2.1457669E-07 -7.4505806E-08
vn -1 2.861023E-07 -2.9802312E-08
vn -0.77559525 -2.544277E-07 -0.6312306
vn -0.7755953 -1.9841328E-07 -0.6312305
vn -0.77559525 -2.544277E-07 -0.6312306
vn -0.7755952 -3.1044212E-07 -0.63123065
vn 0.99953353 -1.6840383E-07 -0.030541047
vn 0.99953353 -1.6840383E-07 -0.030541047
vn 0.99953353 -1.9647115E-07 -0.03054108
vn 0.99953353 -1.4033651E-07 -0.030541016
vn 0.97014254 -1.1565004E-07 0.24253552
vn 0.97014254 -1.1565004E-07 0.24253552
vn 0.97014254 -9.252005E-08 0.24253553
vn 0.97014254 -1.3878004E-07 0.2425355
vn 0.31622797 -1.9150264E-08 0.94868326
vn 0.31622773 -3.543545E-07 0.9486833
vn 0.31622797 -1.9150264E-08 0.94868326
vn 0.31622824 3.1605398E-07 0.94868314
vn -0.31622776 3.3927563E-08 0.94868326
vn -0.3162277 1.206313E-07 0.9486833
vn -0.31622776 3.3927563E-08 0.94868326
vn -0.31622782 -5.2776173E-08 0.94868326
vn -0.55230033 -1.4684869E-07 -0.8336452
vn -0.55230033 -1.4684869E-07 -0.8336452
vn -0.5523002 -3.8330228E-08 -0.8336453
vn -0.55230045 -2.5536715E-07 -0.83364516
vn 0.33553627 -1.7405424E-07 -0.9420273
vn 0.33553627 -1.7405424E-07 -0.9420273
vn 0.33553627 -1.7405424E-07 -0.9420273
vn 0.33553627 -1.7405424E-07 -0.9420273
vn -0 1 0
vn -0 1 0
vn -0 1 0
vn -0 1 0
vn -0 1 0
vn -0 1 0
vn -0 1 0
vn -0 1 0
vn -0 1 0
vn 0.11102666 -0.8829255 0.4307867
vn 0.11102666 -0.8829255 0.4307867
vn 1.2550478E-07 -0.8502339 0.5264051
vn 0.2220532 -0.91561705 0.3351683
vn -0.07092444 -0.9323683 0.34168294
vn -0.07092444 -0.9323683 0.34168294
vn -0 -0.95849144 0.28512132
vn -0.14184888 -0.9062451 0.39824456
vn -0 -1 0
vn -0 -1 0
vn -0 -1 0
vn -0 -1 0
vn -0 -1 0
vn -0 -1 0
g pb_Mesh84476_0
f 3/3/3 2/2/2 1/1/1
f 3/3/3 1/1/1 4/4/4
f 7/7/7 6/6/6 5/5/5
f 7/7/7 5/5/5 8/8/8
f 11/11/11 10/10/10 9/9/9
f 10/10/10 12/12/12 9/9/9
f 15/15/15 14/14/14 13/13/13
f 14/14/14 16/16/16 13/13/13
f 19/19/19 18/18/18 17/17/17
f 19/19/19 17/17/17 20/20/20
f 23/23/23 22/22/22 21/21/21
f 23/23/23 21/21/21 24/24/24
f 27/27/27 26/26/26 25/25/25
f 26/26/26 28/28/28 25/25/25
f 31/31/31 30/30/30 29/29/29
f 30/30/30 32/32/32 29/29/29
f 35/35/35 34/34/34 33/33/33
f 35/35/35 33/33/33 36/36/36
f 38/38/38 37/37/37 34/34/34
f 38/38/38 34/34/34 35/35/35
f 34/34/34 40/40/40 39/39/39
f 34/34/34 39/39/39 33/33/33
f 37/37/37 41/41/41 40/40/40
f 37/37/37 40/40/40 34/34/34
f 44/44/44 43/43/43 42/42/42
f 43/43/43 45/45/45 42/42/42
f 48/48/48 47/47/47 46/46/46
f 47/47/47 49/49/49 46/46/46
f 52/52/52 51/51/51 50/50/50
f 51/51/51 53/53/53 50/50/50
f 50/50/50 53/53/53 54/54/54
f 53/53/53 55/55/55 54/54/54
