g pb_Mesh-189966
v -0.25 0 -0.25
v -0.5 0 -0.25
v -0.5 1.75 -0.25
v -0.25 1.75 -0.25
v -0.75 0 -0.25
v -0.75 1.75 -0.25
v -0.75 1.75 -0.75
v -0.5 0 -0.75
v -0.5 1.75 -0.75
v -0.75 0 -0.75
v -0.25 0 -0.75
v -0.25 1.75 -0.75
v -0.75 0 -0.25
v -0.75 0 -0.5
v -0.75 1.75 -0.5
v -0.75 1.75 -0.25
v -0.75 0 -0.75
v -0.75 1.75 -0.75
v -0.25 1.75 -0.75
v -0.25 0 -0.5
v -0.25 1.75 -0.5
v -0.25 0 -0.75
v -0.25 0 -0.25
v -0.25 1.75 -0.25
v -0.5 1.75 -0.75
v -0.25 1.75 -0.75
v -0.25 1.75 -0.5
v -0.5 1.75 -0.5
v -0.25 1.75 -0.25
v -0.5 1.75 -0.25
v -0.75 1.75 -0.75
v -0.75 1.75 -0.5
v -0.75 1.75 -0.25
v -0.25 0 -0.5
v -0.5 0 -0.75
v -0.5 0 -0.5
v -0.25 0 -0.75
v -0.25 0 -0.25
v -0.5 0 -0.25
v -0.75 0 -0.75
v -0.75 0 -0.5
v -0.75 0 -0.25
vt -0.25 0
vt -0.5 0
vt -0.5 1.75
vt -0.25 1.75
vt -0.75 0
vt -0.75 1.75
vt 0.75 1.75
vt 0.5 0
vt 0.5 1.75
vt 0.75 0
vt 0.25 0
vt 0.25 1.75
vt -0.25 0
vt -0.5 0
vt -0.5 1.75
vt -0.25 1.75
vt -0.75 0
vt -0.75 1.75
vt 0.75 1.75
vt 0.5 0
vt 0.5 1.75
vt 0.75 0
vt 0.25 0
vt 0.25 1.75
vt 0.5 -0.75
vt 0.25 -0.75
vt 0.25 -0.5
vt 0.5 -0.5
vt 0.25 -0.25
vt 0.5 -0.25
vt 0.75 -0.75
vt 0.75 -0.5
vt 0.75 -0.25
vt -0.25 -0.5
vt -0.5 -0.75
vt -0.5 -0.5
vt -0.25 -0.75
vt -0.25 -0.25
vt -0.5 -0.25
vt -0.75 -0.75
vt -0.75 -0.5
vt -0.75 -0.25
vn -0 0 1
vn -0 0 1
vn -0 0 1
vn -0 0 1
vn -0 0 1
vn -0 0 1
vn -0 0 -1
vn -0 0 -1
vn -0 0 -1
vn -0 0 -1
vn -0 0 -1
vn -0 0 -1
vn -1 0 0
vn -1 0 0
vn -1 0 0
vn -1 0 0
vn -1 0 0
vn -1 0 0
vn 1 0 0
vn 1 0 0
vn 1 0 0
vn 1 0 0
vn 1 0 0
vn 1 0 0
vn -0 1 0
vn -0 1 0
vn -0 1 0
vn -0 1 0
vn -0 1 0
vn -0 1 0
vn -0 1 0
vn -0 1 0
vn -0 1 0
vn -0 -1 0
vn -0 -1 0
vn -0 -1 0
vn -0 -1 0
vn -0 -1 0
vn -0 -1 0
vn -0 -1 0
vn -0 -1 0
vn -0 -1 0
g pb_Mesh-189966_0
f 3/3/3 2/2/2 1/1/1
f 3/3/3 1/1/1 4/4/4
f 6/6/6 5/5/5 2/2/2
f 6/6/6 2/2/2 3/3/3
f 9/9/9 8/8/8 7/7/7
f 8/8/8 10/10/10 7/7/7
f 12/12/12 11/11/11 9/9/9
f 11/11/11 8/8/8 9/9/9
f 15/15/15 14/14/14 13/13/13
f 15/15/15 13/13/13 16/16/16
f 18/18/18 17/17/17 14/14/14
f 18/18/18 14/14/14 15/15/15
f 21/21/21 20/20/20 19/19/19
f 20/20/20 22/22/22 19/19/19
f 24/24/24 23/23/23 21/21/21
f 23/23/23 20/20/20 21/21/21
f 27/27/27 26/26/26 25/25/25
f 27/27/27 25/25/25 28/28/28
f 29/29/29 27/27/27 28/28/28
f 29/29/29 28/28/28 30/30/30
f 28/28/28 25/25/25 31/31/31
f 28/28/28 31/31/31 32/32/32
f 30/30/30 28/28/28 32/32/32
f 30/30/30 32/32/32 33/33/33
f 36/36/36 35/35/35 34/34/34
f 35/35/35 37/37/37 34/34/34
f 39/39/39 36/36/36 38/38/38
f 36/36/36 34/34/34 38/38/38
f 41/41/41 40/40/40 36/36/36
f 40/40/40 35/35/35 36/36/36
f 42/42/42 41/41/41 39/39/39
f 41/41/41 36/36/36 39/39/39
