g pb_Mesh103868
v -1 -7.000001 -5.2029238E-05
v -1 7.000001 5.179082E-05
v -0.7071068 -7.0000453 0.707056
v -0.7071069 6.9999566 0.7071598
v -0.7071068 -7.0000453 0.707056
v -0.7071069 6.9999566 0.7071598
v -0 -7.0000634 0.9999485
v -0 6.999938 1.0000523
v -0 -7.0000634 0.9999485
v -0 6.999938 1.0000523
v 0.7071069 -7.0000453 0.707056
v 0.70710695 6.9999566 0.7071598
v 0.7071069 -7.0000453 0.707056
v 0.70710695 6.9999566 0.7071598
v 1 -7.000001 -5.2029238E-05
v 1 7.000001 5.179082E-05
v 1 -7.000001 -5.2029238E-05
v 1 7.000001 5.179082E-05
v 0.7071069 -6.9999566 -0.7071583
v 0.70710695 7.0000453 -0.7070545
v 0.7071069 -6.9999566 -0.7071583
v 0.70710695 7.0000453 -0.7070545
v -0 -6.999938 -1.0000526
v -0 7.0000634 -0.99994874
v -0 -6.999938 -1.0000526
v -0 7.0000634 -0.99994874
v -0.70710665 -6.9999566 -0.7071583
v -0.70710665 7.0000453 -0.7070562
v -0.70710665 -6.9999566 -0.7071583
v -0.70710665 7.0000453 -0.7070562
v -1 -7.000001 -5.2029238E-05
v -1 7.000001 5.179082E-05
v -0.7071068 -7.0000453 0.707056
v -0 -7.000001 -5.2029238E-05
v -1 -7.000001 -5.2029238E-05
v -0 -7.0000634 0.9999485
v 0.7071069 -7.0000453 0.707056
v 1 -7.000001 -5.2029238E-05
v 0.7071069 -6.9999566 -0.7071583
v -0 -6.999938 -1.0000526
v -0.70710665 -6.9999566 -0.7071583
v -1 7.000001 5.179082E-05
v -0 7.000001 5.179082E-05
v -0.7071069 6.9999566 0.7071598
v -0 6.999938 1.0000523
v 0.70710695 6.9999566 0.7071598
v 1 7.000001 5.179082E-05
v 0.70710695 7.0000453 -0.7070545
v -0 7.0000634 -0.99994874
v -0.70710665 7.0000453 -0.7070562
vt -0.3827309 -6.9999986
vt -0.38263497 7.0000033
vt 0.3826371 -7.000043
vt 0.38273302 6.999959
vt -0.38270372 -7.000039
vt -0.38266405 6.999963
vt 0.38266292 -7.000057
vt 0.38270265 6.999944
vt -0.3826629 -7.000057
vt -0.38270262 6.999944
vt 0.3827038 -7.000039
vt 0.3826641 6.999963
vt -0.38263714 -7.0000424
vt -0.38273305 6.9999595
vt 0.3827308 -6.999998
vt 0.38263488 7.000004
vt -0.38263547 -7.0000033
vt -0.3827314 6.9999986
vt 0.3827309 -6.999959
vt 0.38263497 7.000043
vt -0.38266268 -6.999963
vt -0.38270247 7.000039
vt 0.38270468 -6.999944
vt 0.38266495 7.000057
vt -0.38270476 -6.999944
vt -0.38266504 7.000057
vt 0.38266236 -6.999963
vt 0.38270143 7.000039
vt -0.38273075 -6.999959
vt -0.38263643 7.000043
vt 0.3826357 -7.0000033
vt 0.38273165 6.9999986
vt -0.7071068 0.707495
vt 0 0.00038697166
vt -1 0.00038697166
vt -1.7413944E-06 1.0003858
vt 0.7071086 0.70749325
vt 1 0.00038697166
vt 0.7071069 -0.70671934
vt 1.5954156E-06 -0.999612
vt -0.70710826 -0.7067177
vt 1 -0.00038721008
vt 0 -0.00038721008
vt 0.7071069 0.7067208
vt 1.5964818E-06 0.99961174
vt -0.70710856 0.7067192
vt -1 -0.00038721008
vt -0.70710695 -0.7074935
vt -1.7424525E-06 -1.000386
vt 0.7071084 -0.7074935
vn -1 -1.2616821E-08 -3.0644907E-07
vn -1 -9.80369E-10 -1.1290228E-07
vn -0.7071067 -5.246135E-06 0.7071069
vn -0.7071067 -5.2468413E-06 0.7071069
vn -0.7071067 -5.246135E-06 0.7071069
vn -0.7071067 -5.2468413E-06 0.7071069
vn -1.6128896E-08 -7.4169607E-06 1
vn -1.6128896E-08 -7.4169607E-06 1
vn -1.6128896E-08 -7.4169607E-06 1
vn -1.6128896E-08 -7.4169607E-06 1
vn 0.7071067 -5.2468413E-06 0.7071069
vn 0.7071067 -5.2462183E-06 0.7071068
vn 0.7071067 -5.2468413E-06 0.7071069
vn 0.7071067 -5.2462183E-06 0.7071068
vn 1 -1.2270918E-09 -4.5160914E-07
vn 1 -1.1440305E-09 -4.5160914E-07
vn 1 -1.2270918E-09 -4.5160914E-07
vn 1 -1.1440305E-09 -4.5160914E-07
vn 0.7071072 5.2422392E-06 -0.7071064
vn 0.7071072 5.2416985E-06 -0.7071064
vn 0.7071072 5.2422392E-06 -0.7071064
vn 0.7071072 5.2416985E-06 -0.7071064
vn -6.451563E-08 7.416079E-06 -1
vn 4.3548044E-07 7.3856536E-06 -1
vn -6.451563E-08 7.416079E-06 -1
vn 4.3548044E-07 7.3856536E-06 -1
vn -0.70710677 5.187834E-06 -0.7071068
vn -0.70710653 5.1697543E-06 -0.70710707
vn -0.70710677 5.187834E-06 -0.7071068
vn -0.70710653 5.1697543E-06 -0.70710707
vn -1 -1.2616821E-08 -3.0644907E-07
vn -1 -9.80369E-10 -1.1290228E-07
vn -0 -1 -6.27144E-05
vn -0 -1 -6.27144E-05
vn -0 -1 -6.27144E-05
vn 2.4876837E-07 -1 -6.246564E-05
vn -2.4876684E-07 -1 -6.246564E-05
vn -0 -1 -6.27144E-05
vn -0 -1 -6.271456E-05
vn -2.2791853E-07 -1 -6.294247E-05
vn 2.2791706E-07 -1 -6.2942476E-05
vn -0 1 6.27144E-05
vn -0 1 6.27144E-05
vn -0 1 6.27144E-05
vn 2.2807085E-07 1 6.2942476E-05
vn -2.2807238E-07 1 6.294247E-05
vn -0 1 6.27144E-05
vn -0 1 6.271456E-05
vn -2.4891952E-07 1 6.246564E-05
vn 2.4876846E-07 1 6.246564E-05
g pb_Mesh103868_0
f 3/3/3 2/2/2 1/1/1
f 3/3/3 4/4/4 2/2/2
f 7/7/7 6/6/6 5/5/5
f 7/7/7 8/8/8 6/6/6
f 11/11/11 10/10/10 9/9/9
f 11/11/11 12/12/12 10/10/10
f 15/15/15 14/14/14 13/13/13
f 15/15/15 16/16/16 14/14/14
f 19/19/19 18/18/18 17/17/17
f 19/19/19 20/20/20 18/18/18
f 23/23/23 22/22/22 21/21/21
f 23/23/23 24/24/24 22/22/22
f 27/27/27 26/26/26 25/25/25
f 27/27/27 28/28/28 26/26/26
f 31/31/31 30/30/30 29/29/29
f 31/31/31 32/32/32 30/30/30
f 35/35/35 34/34/34 33/33/33
f 33/33/33 34/34/34 36/36/36
f 36/36/36 34/34/34 37/37/37
f 37/37/37 34/34/34 38/38/38
f 38/38/38 34/34/34 39/39/39
f 39/39/39 34/34/34 40/40/40
f 40/40/40 34/34/34 41/41/41
f 41/41/41 34/34/34 35/35/35
f 44/44/44 43/43/43 42/42/42
f 45/45/45 43/43/43 44/44/44
f 46/46/46 43/43/43 45/45/45
f 47/47/47 43/43/43 46/46/46
f 48/48/48 43/43/43 47/47/47
f 49/49/49 43/43/43 48/48/48
f 50/50/50 43/43/43 49/49/49
f 42/42/42 43/43/43 50/50/50
