g pb_Mesh95422
v -5 8 -8
v -4 8 -8
v -4 8 -7
v -5 8 -7
v -4 0 -7
v -5 0 -8
v -5 0 -7
v -4 0 -8
v -7 0 -8
v -7 0 -7
v -7 8 -8
v -7 8 -7
v -8 0 -8
v -8 0 -7
v -8 8 -8
v -8 8 -7
v -14 0 -8
v -14 0 -7
v -14 8 -8
v -14 8 -7
v -15 0 -8
v -15 0 -7
v -15 8 -8
v -15 8 -7
v -17 0 -8
v -17 0 -7
v -17 8 -8
v -17 8 -7
v -18 0 -8
v -18 0 -7
v -18 8 -8
v -18 8 -7
v -18 0 -7
v -18 0 -8
v -18 5 -8
v -18 5 -7
v -24 5 -7
v -24 5 -8
v -24 7 -8
v -24 7 -7
v -14 5 -8
v -15 3 -7
v -14 5 -7
v -15 3 -8
v -15 3 -8
v -15 0 -7
v -15 3 -7
v -15 0 -8
v -8 5 -7
v -14 5 -8
v -14 5 -7
v -8 5 -8
v -7 0 -7
v -7 0 -8
v -7 3 -8
v -7 3 -7
v -7 3 -7
v -7 3 -8
v -8 5 -8
v -8 5 -7
v -4 8 1
v -5 8 1
v -4 8 2
v -5 8 2
v -4 0 1
v -5 0 1
v -4 0 2
v -5 0 2
v -7 0 1
v -7 0 2
v -7 7 -7
v -5 7 -7
v -5 7 1
v -7 7 1
v -7 8 1
v -7 8 2
v -8 0 1
v -8 0 2
v -8 7 -7
v -8 7 1
v -8 8 1
v -8 8 2
v -14 0 1
v -14 0 2
v -14 7 -7
v -14 7 1
v -14 8 1
v -14 8 2
v -15 0 1
v -15 0 2
v -15 7 -7
v -15 7 1
v -15 8 1
v -15 8 2
v -17 0 1
v -17 0 2
v -17 7 -7
v -17 7 1
v -17 8 1
v -17 8 2
v -18 0 1
v -18 0 2
v -18 8 1
v -18 8 2
v -18 0 2
v -18 0 1
v -18 5 1
v -18 5 2
v -24 5 2
v -24 5 1
v -24 7 1
v -24 7 2
v -14 5 1
v -15 3 2
v -14 5 2
v -15 3 1
v -15 3 1
v -15 0 2
v -15 3 2
v -15 0 1
v -8 5 1
v -14 5 1
v -8 5 2
v -14 5 2
v -7 0 2
v -7 0 1
v -7 3 1
v -7 3 2
v -7 3 2
v -7 3 1
v -8 5 1
v -8 5 2
v -24 8 1
v -24 8 -7
v -24 8 -8
v -24 8 2
v -24 0 1
v -24 0 -7
v -18 9 -7
v -18 12 1
v -24 9 -7
v -24 12 1
v -18 12 1
v -18 12 2
v -24 12 1
v -24 12 2
v -24 0 -8
v -18 9 -8
v -18 9 -7
v -24 9 -8
v -24 9 -7
v -24 0 2
v -24 12 1
v -24 9 -7
v -24 12 2
v -24 9 -8
v -18 5 1
v -18 5 -7
v -18 0 1
v -18 0 -7
v -24 0 1
v -24 0 2
v -24 0 -7
v -18 5 -8
v -18 0 -8
v -24 0 -8
v -18 5 2
v -18 0 2
v -4 0 2
v -5 0 2
v -5 5 2
v -4 5 2
v -5 7 2
v -4 7 2
v -5 5 -8
v -4 0 -8
v -4 5 -8
v -5 0 -8
v -5 7 -8
v -4 7 -8
v -7 3 2
v -7 7 2
v -7 0 2
v -7 3 -8
v -7 0 -8
v -7 7 -8
v -8 5 2
v -8 7 2
v -8 7 -8
v -8 5 -8
v -14 5 2
v -14 7 2
v -14 7 -8
v -14 5 -8
v -15 3 2
v -15 7 2
v -15 7 -8
v -15 3 -8
v -17 5 2
v -17 7 2
v -15 0 2
v -17 0 2
v -17 5 -8
v -15 0 -8
v -17 0 -8
v -17 7 -8
v -18 5 2
v -18 7 2
v -18 0 2
v -18 5 -8
v -18 0 -8
v -18 7 -8
v -4 5 -8
v -4 0 -7
v -4 5 -7
v -4 0 -8
v -4 7 -8
v -4 7 -7
v -4 5 1
v -4 0 2
v -4 5 2
v -4 0 1
v -4 7 1
v -4 7 2
v -17 8 -8
v -15 8 -8
v -17 7 -7
v -17 7 1
v -17 8 -7
v -17 8 1
v -17 8 2
v -18 8 2
v -18 8 -8
v -15 7 -7
v -17 7 -7
v -15 8 -7
v -17 8 -7
v -14 7 -7
v -14 8 -7
v -14 8 -8
v -8 7 -7
v -8 8 -7
v -8 8 -8
v -7 7 -7
v -7 8 -7
v -7 8 -8
v -5 7 -7
v -5 8 -7
v -5 8 -8
v -4 8 -7
v -4 8 1
v -4 8 -8
v -4 8 -8
v -5 7 1
v -5 7 -7
v -5 8 1
v -5 8 -7
v -4 8 2
v -4 8 2
v -5 8 2
v -7 7 1
v -5 7 1
v -7 8 1
v -5 8 1
v -7 8 2
v -8 7 1
v -8 8 1
v -8 8 2
v -14 7 1
v -14 8 1
v -14 8 2
v -15 7 1
v -15 8 1
v -15 8 2
v -17 7 1
v -17 8 1
v -24 7 2
v -24 5 2
v -24 5 -8
v -24 7 -8
v -24 8 -8
v -24 8 2
v -18 8 1
v -18 8 2
v -18 12 1
v -18 12 2
v -18 12 2
v -24 12 2
v -18 8 -7
v -18 9 -7
v -18 8 -8
v -18 9 -8
v -24 9 -8
v -18 9 -8
v -24 0 -8
v -24 0 2
vt 5 -8
vt 4 -8
vt 4 -7
vt 5 -7
vt -4 -7
vt -5 -8
vt -5 -7
vt -4 -8
vt -7 -8
vt -7 -7
vt 7 -8
vt 7 -7
vt -8 -8
vt -8 -7
vt 8 -8
vt 8 -7
vt -14 -8
vt -14 -7
vt 14 -8
vt 14 -7
vt -15 -8
vt -15 -7
vt 15 -8
vt 15 -7
vt -17 -8
vt -17 -7
vt 17 -8
vt 17 -7
vt -18 -8
vt -18 -7
vt 18 -8
vt 18 -7
vt -7 0
vt -8 0
vt -8 5
vt -7 5
vt -7 5
vt -8 5
vt -8 7
vt -7 7
vt 8 -1.7888545
vt 7 -4.0249224
vt 7 -1.7888545
vt 8 -4.0249224
vt 8 3
vt 7 0
vt 7 3
vt 8 0
vt -8 -7
vt -14 -8
vt -14 -7
vt -8 -8
vt -7 0
vt -8 0
vt -8 3
vt -7 3
vt -7 5.813777
vt -8 5.813777
vt -8 8.049845
vt -7 8.049845
vt 4 1
vt 5 1
vt 4 2
vt 5 2
vt -4 1
vt -5 1
vt -4 2
vt -5 2
vt -7 1
vt -7 2
vt 7 -7
vt 5 -7
vt 5 1
vt 7 1
vt 7 1
vt 7 2
vt -8 1
vt -8 2
vt 8 -7
vt 8 1
vt 8 1
vt 8 2
vt -14 1
vt -14 2
vt 14 -7
vt 14 1
vt 14 1
vt 14 2
vt -15 1
vt -15 2
vt 15 -7
vt 15 1
vt 15 1
vt 15 2
vt -17 1
vt -17 2
vt 17 -7
vt 17 1
vt 17 1
vt 17 2
vt -18 1
vt -18 2
vt 18 1
vt 18 2
vt 2 0
vt 1 0
vt 1 5
vt 2 5
vt 2 5
vt 1 5
vt 1 7
vt 2 7
vt -1 -1.7888545
vt -2 -4.0249224
vt -2 -1.7888545
vt -1 -4.0249224
vt -1 3
vt -2 0
vt -2 3
vt -1 0
vt -8 1
vt -14 1
vt -8 2
vt -14 2
vt 2 0
vt 1 0
vt 1 3
vt 2 3
vt 2 5.813777
vt 1 5.813777
vt 1 8.049845
vt 2 8.049845
vt 1 8
vt -7 8
vt -8 8
vt 2 8
vt -24 1
vt -24 -7
vt 18 -3.394193
vt 18 5.149811
vt 24 -3.394193
vt 24 5.149811
vt 18 1
vt 18 2
vt 24 1
vt 24 2
vt -24 -8
vt 18 -8
vt 18 -7
vt 24 -8
vt 24 -7
vt -24 2
vt 1 12
vt -7 9
vt 2 12
vt -8 9
vt -1 5
vt 7 5
vt -1 0
vt 7 0
vt 1 0
vt 2 0
vt -7 0
vt 8 5
vt 8 0
vt -8 0
vt -2 5
vt -2 0
vt -4 0
vt -5 0
vt -5 5
vt -4 5
vt -5 7
vt -4 7
vt 5 5
vt 4 0
vt 4 5
vt 5 0
vt 5 7
vt 4 7
vt -7 3
vt -7 7
vt -7 0
vt 7 3
vt 7 0
vt 7 7
vt -8 5
vt -8 7
vt 8 7
vt 8 5
vt -14 5
vt -14 7
vt 14 7
vt 14 5
vt -15 3
vt -15 7
vt 15 7
vt 15 3
vt -17 5
vt -17 7
vt -15 0
vt -17 0
vt 17 5
vt 15 0
vt 17 0
vt 17 7
vt -18 5
vt -18 7
vt -18 0
vt 18 5
vt 18 0
vt 18 7
vt 8 5
vt 7 0
vt 7 5
vt 8 0
vt 8 7
vt 7 7
vt -1 5
vt -2 0
vt -2 5
vt -1 0
vt -1 7
vt -2 7
vt 17 8
vt 15 8
vt 7 7
vt -1 7
vt 7 8
vt -1 8
vt -17 8
vt -18 8
vt 18 8
vt -15 7
vt -17 7
vt -15 8
vt -17 8
vt -14 7
vt -14 8
vt 14 8
vt -8 7
vt -8 8
vt 8 8
vt -7 7
vt -7 8
vt 7 8
vt -5 7
vt -5 8
vt 5 8
vt 7 8
vt -1 8
vt 4 8
vt 8 8
vt 1 7
vt -7 7
vt 1 8
vt -7 8
vt -2 8
vt -4 8
vt -5 8
vt 7 7
vt 5 7
vt 7 8
vt 5 8
vt -7 8
vt 8 7
vt 8 8
vt -8 8
vt 14 7
vt 14 8
vt -14 8
vt 15 7
vt 15 8
vt -15 8
vt 17 7
vt 17 8
vt -24 7
vt -24 5
vt 24 5
vt 24 7
vt 24 8
vt -24 8
vt -1 8
vt -2 8
vt -1 12
vt -2 12
vt -18 12
vt -24 12
vt 7 8
vt 7 9
vt 8 8
vt 8 9
vt 24 9
vt 18 9
vt 24 0
vt -24 0
vn -0 1 0
vn -0 1 0
vn -0 1 0
vn -0 1 0
vn -0 -1 0
vn -0 -1 0
vn -0 -1 0
vn -0 -1 0
vn -0 -1 0
vn -0 -1 0
vn -0 1 0
vn -0 1 0
vn -0 -1 0
vn -0 -1 0
vn -0 1 0
vn -0 1 0
vn -0 -1 0
vn -0 -1 0
vn -0 1 0
vn -0 1 0
vn -0 -1 0
vn -0 -1 0
vn -0 1 0
vn -0 1 0
vn -0 -1 0
vn -0 -1 0
vn -0 1 0
vn -0 1 0
vn -0 -1 0
vn -0 -1 0
vn -0 1 0
vn -0 1 0
vn -1 0 0
vn -1 0 0
vn -1 0 0
vn -1 0 0
vn -1 0 0
vn -1 0 0
vn -1 0 0
vn -1 0 0
vn 0.8944272 -0.4472136 0
vn 0.8944272 -0.4472136 0
vn 0.8944272 -0.4472136 0
vn 0.8944272 -0.4472136 0
vn 1 0 0
vn 1 0 0
vn 1 0 0
vn 1 0 0
vn -0 -1 0
vn -0 -1 0
vn -0 -1 0
vn -0 -1 0
vn -1 0 0
vn -1 0 0
vn -1 0 0
vn -1 0 0
vn -0.8944272 -0.4472136 0
vn -0.8944272 -0.4472136 0
vn -0.8944272 -0.4472136 0
vn -0.8944272 -0.4472136 0
vn -0 1 0
vn -0 1 0
vn -0 1 0
vn -0 1 0
vn -0 -1 0
vn -0 -1 0
vn -0 -1 0
vn -0 -1 0
vn -0 -1 0
vn -0 -1 0
vn -0 1 0
vn -0 1 0
vn -0 1 0
vn -0 1 0
vn -0 1 0
vn -0 1 0
vn -0 -1 0
vn -0 -1 0
vn -0 1 0
vn -0 1 0
vn -0 1 0
vn -0 1 0
vn -0 -1 0
vn -0 -1 0
vn -0 1 0
vn -0 1 0
vn -0 1 0
vn -0 1 0
vn -0 -1 0
vn -0 -1 0
vn -0 1 0
vn -0 1 0
vn -0 1 0
vn -0 1 0
vn -0 -1 0
vn -0 -1 0
vn -0 1 0
vn -0 1 0
vn -0 1 0
vn -0 1 0
vn -0 -1 0
vn -0 -1 0
vn -0 1 0
vn -0 1 0
vn -1 0 0
vn -1 0 0
vn -1 0 0
vn -1 0 0
vn -1 0 0
vn -1 0 0
vn -1 0 0
vn -1 0 0
vn 0.8944272 -0.4472136 0
vn 0.8944272 -0.4472136 0
vn 0.8944272 -0.4472136 0
vn 0.8944272 -0.4472136 0
vn 1 0 0
vn 1 0 0
vn 1 0 0
vn 1 0 0
vn -0 -1 0
vn -0 -1 0
vn -0 -1 0
vn -0 -1 0
vn -1 0 0
vn -1 0 0
vn -1 0 0
vn -1 0 0
vn -0.8944272 -0.4472136 0
vn -0.8944272 -0.4472136 0
vn -0.8944272 -0.4472136 0
vn -0.8944272 -0.4472136 0
vn -1 0 0
vn -1 0 0
vn -1 0 0
vn -1 0 0
vn -0 -1 0
vn -0 -1 0
vn -0 0.9363292 -0.35112345
vn -0 0.9363292 -0.35112345
vn -0 0.9363292 -0.35112345
vn -0 0.9363292 -0.35112345
vn -0 1 0
vn -0 1 0
vn -0 1 0
vn -0 1 0
vn -0 -1 0
vn -0 1 0
vn -0 1 0
vn -0 1 0
vn -0 1 0
vn -0 -1 0
vn -1 0 0
vn -1 0 0
vn -1 0 0
vn -1 0 0
vn 1 0 0
vn 1 0 0
vn 1 0 0
vn 1 0 0
vn -1 0 0
vn -1 0 0
vn -1 0 0
vn 1 0 0
vn 1 0 0
vn -1 0 0
vn 1 0 0
vn 1 0 0
vn -0 0 1
vn -0 0 1
vn -0 0 1
vn -0 0 1
vn -0 0 1
vn -0 0 1
vn -0 0 -1
vn -0 0 -1
vn -0 0 -1
vn -0 0 -1
vn -0 0 -1
vn -0 0 -1
vn -0 0 1
vn -0 0 1
vn -0 0 1
vn -0 0 -1
vn -0 0 -1
vn -0 0 -1
vn -0 0 1
vn -0 0 1
vn -0 0 -1
vn -0 0 -1
vn -0 0 1
vn -0 0 1
vn -0 0 -1
vn -0 0 -1
vn -0 0 1
vn -0 0 1
vn -0 0 -1
vn -0 0 -1
vn -0 0 1
vn -0 0 1
vn -0 0 1
vn -0 0 1
vn -0 0 -1
vn -0 0 -1
vn -0 0 -1
vn -0 0 -1
vn -0 0 1
vn -0 0 1
vn -0 0 1
vn -0 0 -1
vn -0 0 -1
vn -0 0 -1
vn 1 0 0
vn 1 0 0
vn 1 0 0
vn 1 0 0
vn 1 0 0
vn 1 0 0
vn 1 0 0
vn 1 0 0
vn 1 0 0
vn 1 0 0
vn 1 0 0
vn 1 0 0
vn -0 0 -1
vn -0 0 -1
vn 1 0 0
vn 1 0 0
vn 1 0 0
vn 1 0 0
vn -0 0 1
vn -0 0 1
vn -0 0 -1
vn -0 0 1
vn -0 0 1
vn -0 0 1
vn -0 0 1
vn -0 0 1
vn -0 0 1
vn -0 0 -1
vn -0 0 1
vn -0 0 1
vn -0 0 -1
vn -0 0 1
vn -0 0 1
vn -0 0 -1
vn -0 0 1
vn -0 0 1
vn -0 0 -1
vn 1 0 0
vn 1 0 0
vn -0 0 -1
vn 1 0 0
vn -1 0 0
vn -1 0 0
vn -1 0 0
vn -1 0 0
vn 1 0 0
vn -0 0 1
vn -0 0 1
vn -0 0 -1
vn -0 0 -1
vn -0 0 -1
vn -0 0 -1
vn -0 0 1
vn -0 0 -1
vn -0 0 -1
vn -0 0 1
vn -0 0 -1
vn -0 0 -1
vn -0 0 1
vn -0 0 -1
vn -0 0 -1
vn -0 0 1
vn -0 0 -1
vn -0 0 -1
vn -0 0 1
vn -0 0 1
vn -0 0 -1
vn -0 0 -1
vn -0 0 -1
vn -0 0 1
vn 1 0 0
vn 1 0 0
vn 1 0 0
vn 1 0 0
vn -0 0 1
vn -0 0 1
vn 1 0 0
vn 1 0 0
vn 1 0 0
vn 1 0 0
vn -0 0 -1
vn -0 0 -1
vn -0 0 -1
vn -0 0 1
g pb_Mesh95422_0
f 3/3/3 2/2/2 1/1/1
f 3/3/3 1/1/1 4/4/4
f 7/7/7 6/6/6 5/5/5
f 6/6/6 8/8/8 5/5/5
f 10/10/10 9/9/9 7/7/7
f 9/9/9 6/6/6 7/7/7
f 4/4/4 1/1/1 11/11/11
f 4/4/4 11/11/11 12/12/12
f 14/14/14 13/13/13 10/10/10
f 13/13/13 9/9/9 10/10/10
f 12/12/12 11/11/11 15/15/15
f 12/12/12 15/15/15 16/16/16
f 18/18/18 17/17/17 14/14/14
f 17/17/17 13/13/13 14/14/14
f 16/16/16 15/15/15 19/19/19
f 16/16/16 19/19/19 20/20/20
f 22/22/22 21/21/21 18/18/18
f 21/21/21 17/17/17 18/18/18
f 20/20/20 19/19/19 23/23/23
f 20/20/20 23/23/23 24/24/24
f 26/26/26 25/25/25 22/22/22
f 25/25/25 21/21/21 22/22/22
f 24/24/24 23/23/23 27/27/27
f 24/24/24 27/27/27 28/28/28
f 30/30/30 29/29/29 26/26/26
f 29/29/29 25/25/25 26/26/26
f 28/28/28 27/27/27 31/31/31
f 28/28/28 31/31/31 32/32/32
f 35/35/35 34/34/34 33/33/33
f 35/35/35 33/33/33 36/36/36
f 39/39/39 38/38/38 37/37/37
f 39/39/39 37/37/37 40/40/40
f 43/43/43 42/42/42 41/41/41
f 42/42/42 44/44/44 41/41/41
f 47/47/47 46/46/46 45/45/45
f 46/46/46 48/48/48 45/45/45
f 51/51/51 50/50/50 49/49/49
f 50/50/50 52/52/52 49/49/49
f 55/55/55 54/54/54 53/53/53
f 55/55/55 53/53/53 56/56/56
f 59/59/59 58/58/58 57/57/57
f 59/59/59 57/57/57 60/60/60
f 61/61/61 3/3/3 4/4/4
f 61/61/61 4/4/4 62/62/62
f 63/63/63 61/61/61 62/62/62
f 63/63/63 62/62/62 64/64/64
f 66/66/66 7/7/7 65/65/65
f 7/7/7 5/5/5 65/65/65
f 68/68/68 66/66/66 67/67/67
f 66/66/66 65/65/65 67/67/67
f 69/69/69 10/10/10 66/66/66
f 10/10/10 7/7/7 66/66/66
f 70/70/70 69/69/69 68/68/68
f 69/69/69 66/66/66 68/68/68
f 73/73/73 72/72/72 71/71/71
f 73/73/73 71/71/71 74/74/74
f 64/64/64 62/62/62 75/75/75
f 64/64/64 75/75/75 76/76/76
f 77/77/77 14/14/14 69/69/69
f 14/14/14 10/10/10 69/69/69
f 78/78/78 77/77/77 70/70/70
f 77/77/77 69/69/69 70/70/70
f 74/74/74 71/71/71 79/79/79
f 74/74/74 79/79/79 80/80/80
f 76/76/76 75/75/75 81/81/81
f 76/76/76 81/81/81 82/82/82
f 83/83/83 18/18/18 77/77/77
f 18/18/18 14/14/14 77/77/77
f 84/84/84 83/83/83 78/78/78
f 83/83/83 77/77/77 78/78/78
f 80/80/80 79/79/79 85/85/85
f 80/80/80 85/85/85 86/86/86
f 82/82/82 81/81/81 87/87/87
f 82/82/82 87/87/87 88/88/88
f 89/89/89 22/22/22 83/83/83
f 22/22/22 18/18/18 83/83/83
f 90/90/90 89/89/89 84/84/84
f 89/89/89 83/83/83 84/84/84
f 86/86/86 85/85/85 91/91/91
f 86/86/86 91/91/91 92/92/92
f 88/88/88 87/87/87 93/93/93
f 88/88/88 93/93/93 94/94/94
f 95/95/95 26/26/26 89/89/89
f 26/26/26 22/22/22 89/89/89
f 96/96/96 95/95/95 90/90/90
f 95/95/95 89/89/89 90/90/90
f 92/92/92 91/91/91 97/97/97
f 92/92/92 97/97/97 98/98/98
f 94/94/94 93/93/93 99/99/99
f 94/94/94 99/99/99 100/100/100
f 101/101/101 30/30/30 95/95/95
f 30/30/30 26/26/26 95/95/95
f 102/102/102 101/101/101 96/96/96
f 101/101/101 95/95/95 96/96/96
f 99/99/99 28/28/28 32/32/32
f 99/99/99 32/32/32 103/103/103
f 100/100/100 99/99/99 103/103/103
f 100/100/100 103/103/103 104/104/104
f 107/107/107 106/106/106 105/105/105
f 107/107/107 105/105/105 108/108/108
f 36/36/36 33/33/33 106/106/106
f 36/36/36 106/106/106 107/107/107
f 111/111/111 110/110/110 109/109/109
f 111/111/111 109/109/109 112/112/112
f 40/40/40 37/37/37 110/110/110
f 40/40/40 110/110/110 111/111/111
f 115/115/115 114/114/114 113/113/113
f 114/114/114 116/116/116 113/113/113
f 113/113/113 116/116/116 43/43/43
f 116/116/116 42/42/42 43/43/43
f 119/119/119 118/118/118 117/117/117
f 118/118/118 120/120/120 117/117/117
f 117/117/117 120/120/120 47/47/47
f 120/120/120 46/46/46 47/47/47
f 122/122/122 51/51/51 121/121/121
f 51/51/51 49/49/49 121/121/121
f 124/124/124 122/122/122 123/123/123
f 122/122/122 121/121/121 123/123/123
f 127/127/127 126/126/126 125/125/125
f 127/127/127 125/125/125 128/128/128
f 56/56/56 53/53/53 126/126/126
f 56/56/56 126/126/126 127/127/127
f 131/131/131 130/130/130 129/129/129
f 131/131/131 129/129/129 132/132/132
f 60/60/60 57/57/57 130/130/130
f 60/60/60 130/130/130 131/131/131
f 133/133/133 40/40/40 111/111/111
f 133/133/133 134/134/134 40/40/40
f 134/134/134 39/39/39 40/40/40
f 134/134/134 135/135/135 39/39/39
f 136/136/136 111/111/111 112/112/112
f 136/136/136 133/133/133 111/111/111
f 137/137/137 30/30/30 101/101/101
f 137/137/137 138/138/138 30/30/30
f 141/141/141 140/140/140 139/139/139
f 141/141/141 142/142/142 140/140/140
f 145/145/145 144/144/144 143/143/143
f 145/145/145 146/146/146 144/144/144
f 138/138/138 29/29/29 30/30/30
f 138/138/138 147/147/147 29/29/29
f 150/150/150 149/149/149 148/148/148
f 150/150/150 151/151/151 149/149/149
f 152/152/152 101/101/101 102/102/102
f 152/152/152 137/137/137 101/101/101
f 153/153/153 134/134/134 133/133/133
f 153/153/153 154/154/154 134/134/134
f 155/155/155 133/133/133 136/136/136
f 155/155/155 153/153/153 133/133/133
f 154/154/154 135/135/135 134/134/134
f 154/154/154 156/156/156 135/135/135
f 159/159/159 158/158/158 157/157/157
f 159/159/159 160/160/160 158/158/158
f 161/161/161 109/109/109 110/110/110
f 161/161/161 162/162/162 109/109/109
f 163/163/163 110/110/110 37/37/37
f 163/163/163 161/161/161 110/110/110
f 160/160/160 164/164/164 158/158/158
f 160/160/160 165/165/165 164/164/164
f 166/166/166 37/37/37 38/38/38
f 166/166/166 163/163/163 37/37/37
f 168/168/168 157/157/157 167/167/167
f 168/168/168 159/159/159 157/157/157
g pb_Mesh95422_1
f 171/171/171 170/170/170 169/169/169
f 171/171/171 169/169/169 172/172/172
f 173/173/173 171/171/171 172/172/172
f 173/173/173 172/172/172 174/174/174
f 177/177/177 176/176/176 175/175/175
f 176/176/176 178/178/178 175/175/175
f 180/180/180 177/177/177 179/179/179
f 177/177/177 175/175/175 179/179/179
f 182/182/182 181/181/181 171/171/171
f 182/182/182 171/171/171 173/173/173
f 181/181/181 183/183/183 170/170/170
f 181/181/181 170/170/170 171/171/171
f 175/175/175 178/178/178 184/184/184
f 178/178/178 185/185/185 184/184/184
f 179/179/179 175/175/175 186/186/186
f 175/175/175 184/184/184 186/186/186
f 188/188/188 187/187/187 181/181/181
f 188/188/188 181/181/181 182/182/182
f 186/186/186 184/184/184 189/189/189
f 184/184/184 190/190/190 189/189/189
f 192/192/192 191/191/191 187/187/187
f 192/192/192 187/187/187 188/188/188
f 189/189/189 190/190/190 193/193/193
f 190/190/190 194/194/194 193/193/193
f 196/196/196 195/195/195 191/191/191
f 196/196/196 191/191/191 192/192/192
f 193/193/193 194/194/194 197/197/197
f 194/194/194 198/198/198 197/197/197
f 200/200/200 199/199/199 195/195/195
f 200/200/200 195/195/195 196/196/196
f 199/199/199 202/202/202 201/201/201
f 199/199/199 201/201/201 195/195/195
f 198/198/198 204/204/204 203/203/203
f 204/204/204 205/205/205 203/203/203
f 197/197/197 198/198/198 206/206/206
f 198/198/198 203/203/203 206/206/206
f 208/208/208 207/207/207 199/199/199
f 208/208/208 199/199/199 200/200/200
f 207/207/207 209/209/209 202/202/202
f 207/207/207 202/202/202 199/199/199
f 203/203/203 205/205/205 210/210/210
f 205/205/205 211/211/211 210/210/210
f 206/206/206 203/203/203 212/212/212
f 203/203/203 210/210/210 212/212/212
f 215/215/215 214/214/214 213/213/213
f 214/214/214 216/216/216 213/213/213
f 218/218/218 215/215/215 217/217/217
f 215/215/215 213/213/213 217/217/217
f 221/221/221 220/220/220 219/219/219
f 220/220/220 222/222/222 219/219/219
f 219/219/219 222/222/222 215/215/215
f 222/222/222 214/214/214 215/215/215
f 224/224/224 221/221/221 223/223/223
f 221/221/221 219/219/219 223/223/223
f 223/223/223 219/219/219 218/218/218
f 219/219/219 215/215/215 218/218/218
f 225/225/225 197/197/197 206/206/206
f 225/225/225 226/226/226 197/197/197
f 229/229/229 228/228/228 227/227/227
f 229/229/229 230/230/230 228/228/228
f 231/231/231 208/208/208 200/200/200
f 231/231/231 232/232/232 208/208/208
f 233/233/233 206/206/206 212/212/212
f 233/233/233 225/225/225 206/206/206
f 236/236/236 235/235/235 234/234/234
f 236/236/236 237/237/237 235/235/235
f 239/239/239 234/234/234 238/238/238
f 239/239/239 236/236/236 234/234/234
f 226/226/226 193/193/193 197/197/197
f 226/226/226 240/240/240 193/193/193
f 242/242/242 238/238/238 241/241/241
f 242/242/242 239/239/239 238/238/238
f 240/240/240 189/189/189 193/193/193
f 240/240/240 243/243/243 189/189/189
f 245/245/245 241/241/241 244/244/244
f 245/245/245 242/242/242 241/241/241
f 243/243/243 186/186/186 189/189/189
f 243/243/243 246/246/246 186/186/186
f 248/248/248 244/244/244 247/247/247
f 248/248/248 245/245/245 244/244/244
f 246/246/246 179/179/179 186/186/186
f 246/246/246 249/249/249 179/179/179
f 250/250/250 223/223/223 218/218/218
f 250/250/250 251/251/251 223/223/223
f 249/249/249 180/180/180 179/179/179
f 249/249/249 252/252/252 180/180/180
f 253/253/253 218/218/218 217/217/217
f 253/253/253 250/250/250 218/218/218
f 256/256/256 255/255/255 254/254/254
f 256/256/256 257/257/257 255/255/255
f 251/251/251 224/224/224 223/223/223
f 251/251/251 258/258/258 224/224/224
f 259/259/259 173/173/173 174/174/174
f 259/259/259 260/260/260 173/173/173
f 263/263/263 262/262/262 261/261/261
f 263/263/263 264/264/264 262/262/262
f 260/260/260 182/182/182 173/173/173
f 260/260/260 265/265/265 182/182/182
f 267/267/267 261/261/261 266/266/266
f 267/267/267 263/263/263 261/261/261
f 265/265/265 188/188/188 182/182/182
f 265/265/265 268/268/268 188/188/188
f 270/270/270 266/266/266 269/269/269
f 270/270/270 267/267/267 266/266/266
f 268/268/268 192/192/192 188/188/188
f 268/268/268 271/271/271 192/192/192
f 273/273/273 269/269/269 272/272/272
f 273/273/273 270/270/270 269/269/269
f 271/271/271 196/196/196 192/192/192
f 271/271/271 274/274/274 196/196/196
f 276/276/276 272/272/272 275/275/275
f 276/276/276 273/273/273 272/272/272
f 274/274/274 200/200/200 196/196/196
f 274/274/274 231/231/231 200/200/200
f 277/277/277 207/207/207 208/208/208
f 277/277/277 278/278/278 207/207/207
f 279/279/279 212/212/212 210/210/210
f 279/279/279 280/280/280 212/212/212
f 280/280/280 233/233/233 212/212/212
f 280/280/280 281/281/281 233/233/233
f 282/282/282 208/208/208 232/232/232
f 282/282/282 277/277/277 208/208/208
f 285/285/285 284/284/284 283/283/283
f 285/285/285 286/286/286 284/284/284
f 287/287/287 282/282/282 232/232/232
f 287/287/287 288/288/288 282/282/282
f 290/290/290 283/283/283 289/289/289
f 290/290/290 285/285/285 283/283/283
f 292/292/292 289/289/289 291/291/291
f 292/292/292 290/290/290 289/289/289
f 293/293/293 233/233/233 281/281/281
f 293/293/293 294/294/294 233/233/233
f 211/211/211 279/279/279 210/210/210
f 211/211/211 295/295/295 279/279/279
f 296/296/296 207/207/207 278/278/278
f 296/296/296 209/209/209 207/207/207
