g pb_Mesh100748
v 16.00004 0 3.9998498
v 22.00004 0 3.999793
v 21.999887 0 -12.000201
v 15.999887 0 -12.000147
v 9.999987 0 -2.000093
v 9.999887 0 -12.000093
v 5.9999638 6 -4.000017
v 5.9999638 0 -4.000017
v 5.999907 6 -10.00001
v 5.999907 0 -10.000013
v 13.999964 12 -4.0001307
v 13.999964 6 -4.0001307
v 13.999907 12 -10.000125
v 13.999907 6 -10.000127
v 21.999897 6 -12.000192
v 21.999887 0 -12.000201
v 22.00004 0 3.999793
v 22.00005 6 3.9997933
v 21.999895 32 -12.000194
v 22.000048 32 3.9997933
v 22.000048 32 3.9997933
v 22.00005 6 3.9997933
v 16.000048 32 3.9998503
v 16.00005 6 3.99985
v 22.00004 0 3.999793
v 16.00004 0 3.9998498
v 16.000048 32 3.9998503
v 16.00005 6 3.99985
v 9.999994 32 -2.000093
v 9.999996 6 -2.000093
v 16.00004 0 3.9998498
v 9.999987 0 -2.000093
v 9.999895 32 -12.000086
v 9.999897 6 -12.000084
v 15.999897 6 -12.000138
v 15.999895 32 -12.000139
v 9.999887 0 -12.000093
v 15.999887 0 -12.000147
v 21.999897 6 -12.000192
v 21.999895 32 -12.000194
v 21.999887 0 -12.000201
v 9.999996 6 -2.000093
v 9.999987 0 -2.000093
v 7.999983 6 -2.000051
v 7.999983 0 -2.000051
v 7.999983 0 -2.000051
v 5.9999638 0 -4.000017
v 5.9999638 6 -4.000017
v 7.999983 6 -2.000051
v 7.999983 0 -2.000051
v 7.999888 0 -12.000053
v 5.9999638 0 -4.000017
v 5.999907 0 -10.000013
v 7.999888 6 -12.000044
v 7.999888 0 -12.000053
v 9.999887 0 -12.000093
v 9.999897 6 -12.000084
v 5.999907 6 -10.00001
v 7.999888 0 -12.000053
v 7.999888 6 -12.000044
v 5.999907 0 -10.000013
v 9.999994 32 -2.000093
v 9.999996 6 -2.000093
v 9.999971 12 -4.000093
v 9.9999695 6 -4.000093
v 9.999895 32 -12.000086
v 9.999914 12 -10.000092
v 9.999971 12 -4.000093
v 9.999996 6 -2.000093
v 9.999897 6 -12.000084
v 9.9999695 6 -4.000093
v 9.999912 6 -10.000093
v 9.999897 6 -12.000084
v 9.999895 32 -12.000086
v 9.999912 6 -10.000093
v 9.999914 12 -10.000092
v 9.999971 12 -4.000093
v 9.9999695 6 -4.000093
v 13.999964 12 -4.0001307
v 13.999964 6 -4.0001307
v 9.999914 12 -10.000092
v 9.999971 12 -4.000093
v 13.999907 12 -10.000125
v 13.999964 12 -4.0001307
v 9.999912 6 -10.000093
v 9.999914 12 -10.000092
v 13.999907 6 -10.000127
v 13.999907 12 -10.000125
v 21.999895 32 -12.000194
v 16.000048 32 3.9998503
v 15.999895 32 -12.000139
v 22.000048 32 3.9997933
v 9.999994 32 -2.000093
v 9.999895 32 -12.000086
v 7.999888 6 -12.000044
v 9.999897 6 -12.000084
v 9.999996 6 -2.000093
v 7.999983 6 -2.000051
v 5.999907 6 -10.00001
v 5.9999638 6 -4.000017
v 9.9999695 6 -4.000093
v 9.999912 6 -10.000093
v 13.999964 6 -4.0001307
v 13.999907 6 -10.000127
vt 16.00004 3.9998498
vt 22.00004 3.999793
vt 21.999887 -12.000201
vt 15.999887 -12.000147
vt 9.999987 -2.000093
vt 9.999887 -12.000093
vt -3.9999604 6
vt -3.9999604 0
vt -9.999953 6
vt -9.999957 0
vt -3.9999971 12
vt -3.9999971 6
vt -9.999991 12
vt -9.999993 6
vt 11.999982 6.0000167
vt 11.999991 1.6676915E-05
vt -4.000003 1.6676915E-05
vt -4.0000033 6.0000167
vt 11.999984 32.000015
vt -4.0000033 32.000015
vt 21.856092 32
vt 21.856094 6.0000014
vt 16.312817 32
vt 16.312819 6.0000005
vt 21.856087 1.2752354E-06
vt 16.312809 6.553439E-07
vt 16.312817 32
vt 16.312819 6.0000005
vt 8.473441 32
vt 8.473443 6.0000014
vt 16.312809 6.553439E-07
vt 8.4734335 1.5320024E-06
vt -10.000003 31.99999
vt -10.000005 5.9999914
vt -16.000006 5.9999914
vt -16.000004 31.99999
vt -9.999995 -8.729872E-06
vt -15.999995 -8.729872E-06
vt -22.000006 5.9999914
vt -22.000004 31.99999
vt -21.999996 -8.729872E-06
vt 8.473487 6
vt 8.473478 -1.0241273E-10
vt 6.625718 6
vt 6.625718 -8.859939E-11
vt 6.625718 -8.859939E-11
vt 4.012606 -1.0813429E-10
vt 4.012606 6
vt 6.625718 6
vt 7.999983 -2.000051
vt 7.999888 -12.000053
vt 5.9999638 -4.000017
vt 5.999907 -10.000013
vt -11.983285 5.999988
vt -11.983289 -1.1784336E-05
vt -13.831049 -1.0660437E-05
vt -13.831055 5.9999895
vt -9.370145 5.99999
vt -11.983289 -1.1784336E-05
vt -11.983285 5.999988
vt -9.370147 -1.0194888E-05
vt -1.9999712 32
vt -1.9999712 5.999999
vt -3.9999712 11.999999
vt -3.9999712 5.999999
vt -11.999987 32
vt -9.999992 12
vt -3.9999938 12
vt 9.999996 -2.000093
vt 9.999897 -12.000084
vt 9.9999695 -4.000093
vt 9.999912 -10.000093
vt -12.000008 5.999999
vt -12.00001 32
vt -10.000017 5.999999
vt -10.000015 11.999999
vt -10.00001 12
vt -10.000008 6
vt -14.000002 12
vt -14.000002 6
vt 9.999914 -10.000092
vt 9.999971 -4.000093
vt 13.999907 -10.000125
vt 13.999964 -4.0001307
vt 9.999996 5.9999967
vt 9.999998 11.999997
vt 13.99999 5.9999967
vt 13.99999 11.999997
vt -21.999895 -12.000194
vt -16.000048 3.9998503
vt -15.999895 -12.000139
vt -22.000048 3.9997933
vt -9.999994 -2.000093
vt -9.999895 -12.000086
vt -7.999888 -12.000044
vt -9.999897 -12.000084
vt -9.999996 -2.000093
vt -7.999983 -2.000051
vt -5.999907 -10.00001
vt -5.9999638 -4.000017
vt -9.9999695 -4.000093
vt -9.999912 -10.000093
vt -13.999964 -4.0001307
vt -13.999907 -10.000127
vn -0 -1 0
vn -0 -1 0
vn -0 -1 0
vn -0 -1 0
vn -0 -1 0
vn -0 -1 0
vn -1 0 9.457282E-06
vn -1 -3.0063872E-12 9.457279E-06
vn -1 -3.0063872E-12 9.457279E-06
vn -1 -6.0127745E-12 9.457276E-06
vn -1 0 9.536752E-06
vn -1 -1.5158254E-12 9.53675E-06
vn -1 -1.5158254E-12 9.53675E-06
vn -1 -3.0316509E-12 9.5367495E-06
vn 1 -1.5894495E-06 -9.536749E-06
vn 1 -1.5894419E-06 -9.536746E-06
vn 1 -1.5894495E-06 -9.536749E-06
vn 1 -1.5894572E-06 -9.536752E-06
vn 1 7.335921E-08 -9.536751E-06
vn 1 7.335956E-08 -9.53675E-06
vn 9.497006E-06 6.966963E-13 1
vn 9.4771385E-06 -4.5842774E-09 1
vn 9.4771385E-06 -4.5842774E-09 1
vn 9.457271E-06 -9.169251E-09 1
vn 9.457271E-06 -3.9751463E-08 1
vn 9.457271E-06 -3.9751463E-08 1
vn -0.7071003 -5.835676E-08 0.70711327
vn -0.7071003 -5.5114665E-08 0.70711327
vn -0.7071003 -5.5114665E-08 0.70711327
vn -0.7071003 -5.187257E-08 0.7071133
vn -0.7071003 1.1098565E-06 0.7071133
vn -0.7071003 1.1239056E-06 0.7071133
vn -8.9804325E-06 -5.502033E-08 -1
vn -9.059906E-06 -7.3360226E-08 -1
vn -8.9804325E-06 -5.502033E-08 -1
vn -8.90096E-06 -3.6680433E-08 -1
vn -8.90096E-06 1.5894714E-06 -1
vn -8.9804325E-06 1.5099986E-06 -1
vn -8.9804325E-06 -5.502033E-08 -1
vn -9.059906E-06 -7.3360226E-08 -1
vn -8.9804325E-06 1.5099986E-06 -1
vn 2.0980695E-05 -3.3347918E-11 1
vn 2.0980744E-05 -1.6673959E-11 1
vn 2.0980744E-05 -1.6673959E-11 1
vn 2.0980795E-05 0 1
vn -0.7070974 0 0.7071161
vn -0.7070974 0 0.7071161
vn -0.7070974 0 0.7071161
vn -0.7070974 0 0.7071161
vn -0 -1 0
vn -0 -1 0
vn -0 -1 0
vn -0 -1 0
vn -2.0027117E-05 1.5894732E-06 -1
vn -2.0027166E-05 1.5894573E-06 -1
vn -2.0027117E-05 1.5894732E-06 -1
vn -2.002707E-05 1.5894891E-06 -1
vn -0.7071167 7.8673037E-07 -0.7070968
vn -0.7071167 7.8673037E-07 -0.7070968
vn -0.70711625 1.123901E-06 -0.70709735
vn -0.70711726 4.4955974E-07 -0.70709634
vn -1 -7.3359566E-08 1.21776875E-05
vn -1 1.2226594E-07 1.27645635E-05
vn -1 1.2226594E-07 1.27645635E-05
vn -1 3.1789145E-07 1.335144E-05
vn -1 3.8144893E-08 9.918221E-06
vn -1 1.14439764E-07 9.727483E-06
vn -1 1.9073464E-07 9.536746E-06
vn -0 -1 0
vn -0 -1 0
vn -0 -1 0
vn -0 -1 0
vn -1 -7.3359004E-08 7.629431E-06
vn -1 1.222642E-07 1.0172542E-05
vn -1 1.222642E-07 1.0172542E-05
vn -1 3.1788738E-07 1.2715654E-05
vn -9.417552E-06 2.993759E-12 -1
vn -9.41755E-06 1.4968796E-12 -1
vn -9.41755E-06 1.4968796E-12 -1
vn -9.4175475E-06 0 -1
vn -0 -1 0
vn -0 -1 0
vn -0 -1 0
vn -0 -1 0
vn 8.344662E-06 -3.178941E-07 1
vn 8.344665E-06 -3.1789278E-07 1
vn 8.344665E-06 -3.1789278E-07 1
vn 8.344667E-06 -3.1789145E-07 1
vn -0 1 0
vn -0 1 0
vn -0 1 0
vn -0 1 0
vn -0 1 0
vn -0 1 0
vn -0 1 0
vn -0 1 0
vn -0 1 0
vn -0 1 0
vn -0 1 0
vn -0 1 0
vn -0 1 0
vn -0 1 0
vn -0 1 0
vn -0 1 0
g pb_Mesh100748_0
f 3/3/3 2/2/2 1/1/1
f 3/3/3 1/1/1 4/4/4
f 4/4/4 1/1/1 5/5/5
f 4/4/4 5/5/5 6/6/6
f 9/9/9 8/8/8 7/7/7
f 9/9/9 10/10/10 8/8/8
f 13/13/13 12/12/12 11/11/11
f 13/13/13 14/14/14 12/12/12
f 17/17/17 16/16/16 15/15/15
f 18/18/18 17/17/17 15/15/15
f 18/18/18 15/15/15 19/19/19
f 20/20/20 18/18/18 19/19/19
f 23/23/23 22/22/22 21/21/21
f 23/23/23 24/24/24 22/22/22
f 24/24/24 25/25/25 22/22/22
f 24/24/24 26/26/26 25/25/25
f 29/29/29 28/28/28 27/27/27
f 29/29/29 30/30/30 28/28/28
f 30/30/30 31/31/31 28/28/28
f 30/30/30 32/32/32 31/31/31
f 35/35/35 34/34/34 33/33/33
f 36/36/36 35/35/35 33/33/33
f 38/38/38 37/37/37 34/34/34
f 35/35/35 38/38/38 34/34/34
f 39/39/39 35/35/35 36/36/36
f 40/40/40 39/39/39 36/36/36
f 41/41/41 38/38/38 35/35/35
f 39/39/39 41/41/41 35/35/35
f 44/44/44 43/43/43 42/42/42
f 44/44/44 45/45/45 43/43/43
f 48/48/48 47/47/47 46/46/46
f 48/48/48 46/46/46 49/49/49
f 51/51/51 5/5/5 50/50/50
f 51/51/51 6/6/6 5/5/5
f 53/53/53 50/50/50 52/52/52
f 53/53/53 51/51/51 50/50/50
f 56/56/56 55/55/55 54/54/54
f 57/57/57 56/56/56 54/54/54
f 60/60/60 59/59/59 58/58/58
f 59/59/59 61/61/61 58/58/58
f 64/64/64 63/63/63 62/62/62
f 64/64/64 65/65/65 63/63/63
f 67/67/67 62/62/62 66/66/66
f 67/67/67 68/68/68 62/62/62
f 71/71/71 70/70/70 69/69/69
f 71/71/71 72/72/72 70/70/70
f 75/75/75 74/74/74 73/73/73
f 75/75/75 76/76/76 74/74/74
f 79/79/79 78/78/78 77/77/77
f 79/79/79 80/80/80 78/78/78
f 83/83/83 82/82/82 81/81/81
f 83/83/83 84/84/84 82/82/82
f 87/87/87 86/86/86 85/85/85
f 87/87/87 88/88/88 86/86/86
g pb_Mesh100748_1
f 91/91/91 90/90/90 89/89/89
f 90/90/90 92/92/92 89/89/89
f 94/94/94 93/93/93 91/91/91
f 93/93/93 90/90/90 91/91/91
f 97/97/97 96/96/96 95/95/95
f 98/98/98 97/97/97 95/95/95
f 98/98/98 95/95/95 99/99/99
f 100/100/100 98/98/98 99/99/99
f 103/103/103 102/102/102 101/101/101
f 103/103/103 104/104/104 102/102/102
