g pb_Mesh88862
v 12.227925 6 0.20712113
v -9.848666 -3.3088956 -4.611925
v 12.227925 7 0.20712113
v -9.720419 -2.0191956 -4.04604
v -9.848666 -3.3088956 -4.611925
v -10.759314 -3.7943573 -6.8334227
v -9.720419 -2.0191956 -4.04604
v -10.631065 -2.504657 -6.267538
v -10.759314 -3.7943573 -6.8334227
v 11.520821 6 -1.9142
v -10.631065 -2.504657 -6.267538
v 11.520821 7 -1.9142027
v 11.520821 6 -1.9142
v 12.227925 6 0.20712113
v 11.520821 7 -1.9142027
v 12.227925 7 0.20712113
v 12.227925 7 0.20712113
v -9.720419 -2.0191956 -4.04604
v 11.520821 7 -1.9142027
v -10.631065 -2.504657 -6.267538
v 11.520821 6 -1.9142
v -10.759314 -3.7943573 -6.8334227
v 12.227925 6 0.20712113
v -9.848666 -3.3088956 -4.611925
vt 11.990785 6
vt -10.605656 -3.3088956
vt 11.990785 7
vt -10.359675 -2.0191956
vt -8.123449 -2.7088823
vt -10.524023 -3.1959631
vt -7.55287 -1.4148811
vt -9.953444 -1.9019618
vt 10.954056 -6.0814476
vt -11.460085 4.602133
vt 10.809357 -4.6746564
vt -11.460085 5.518899
vt -1.8272221 6.00001
vt -4.06329 6.00001
vt -1.8272195 7.00001
vt -4.06329 7.00001
vt -14.010708 0.007199903
vt 9.711658 -4.2840147
vt -13.363318 -2.1331036
vt 10.740654 -6.4754224
vt 12.980653 -1.9630821
vt -11.347102 -6.932278
vt 13.619482 0.17978896
vt -10.316263 -4.7399383
vn -0.21326573 0 0.9769943
vn -0.113068886 -0.20034494 0.94655883
vn -0.113068886 -0.20034494 0.94655883
vn -0.012872045 -0.40068987 0.91612333
vn -0.9158269 -0.08146604 0.39322308
vn -0.9158271 -0.08146548 0.39322275
vn -0.9158271 -0.08146548 0.39322275
vn -0.9158273 -0.08146492 0.39322245
vn 0.026740622 0.39942175 -0.91637725
vn 0.10978771 0.19970953 -0.94880426
vn 0.10978771 0.19970953 -0.94880426
vn 0.1928348 -2.6903533E-06 -0.9812313
vn 0.9486837 -8.6703506E-07 -0.3162268
vn 0.94868374 -4.3351753E-07 -0.31622663
vn 0.94868374 -4.3351753E-07 -0.31622663
vn 0.94868374 0 -0.31622645
vn -0.3986383 0.9074308 0.13287883
vn -0.3927402 0.9142933 0.045077868
vn -0.3927402 0.9142933 0.045077868
vn -0.38684207 0.92115575 -0.042723093
vn 0.4243943 -0.89435863 -0.1414643
vn 0.40195173 -0.9091923 -0.04755404
vn 0.40195173 -0.9091923 -0.04755404
vn 0.37950915 -0.92402595 0.046356216
g pb_Mesh88862_0
f 3/3/3 2/2/2 1/1/1
f 3/3/3 4/4/4 2/2/2
f 7/7/7 6/6/6 5/5/5
f 7/7/7 8/8/8 6/6/6
f 11/11/11 10/10/10 9/9/9
f 11/11/11 12/12/12 10/10/10
f 15/15/15 14/14/14 13/13/13
f 15/15/15 16/16/16 14/14/14
f 19/19/19 18/18/18 17/17/17
f 19/19/19 20/20/20 18/18/18
f 23/23/23 22/22/22 21/21/21
f 23/23/23 24/24/24 22/22/22
