g pb_Mesh-307372
v -0.74999964 -3 0.24999985
v -0.99999964 -3 0.24999976
v -0.7500001 15 0.24999918
v -1.0000001 15 0.24999899
v -0.99999964 -3 0.24999976
v -0.9999995 -3 -2.3841858E-07
v -1.0000001 15 0.24999899
v -0.99999994 15 -1.0132766E-06
v -0.9999995 -3 -2.3841858E-07
v -0.7499995 -3 -1.4901161E-07
v -0.99999994 15 -1.0132766E-06
v -0.74999994 15 -8.195615E-07
v 1.0000005 -3 4.7683716E-07
v 1.0000004 -3 0.25000048
v 1.0000001 15 5.3644396E-07
v 0.9999999 15 0.25000054
v -0.7500001 15 0.24999918
v -1.0000001 15 0.24999899
v -0.74999994 15 -8.195615E-07
v -0.99999994 15 -1.0132766E-06
v -0.7499995 -3 -1.4901161E-07
v -0.9999995 -3 -2.3841858E-07
v -0.74999964 -3 0.24999985
v -0.99999964 -3 0.24999976
v 0.7500005 -3 3.874302E-07
v 0.75000036 -3 0.2500004
v 1.0000005 -3 4.7683716E-07
v 1.0000004 -3 0.25000048
v 0.75000006 15 3.427289E-07
v 0.7500005 -3 3.874302E-07
v 1.0000001 15 5.3644396E-07
v 1.0000005 -3 4.7683716E-07
v 0.75000036 -3 0.2500004
v 0.7499999 15 0.25000036
v 1.0000004 -3 0.25000048
v 0.9999999 15 0.25000054
v 0.7499999 15 0.25000036
v 0.75000006 15 3.427289E-07
v 0.9999999 15 0.25000054
v 1.0000001 15 5.3644396E-07
v -0.74999964 -3 0.24999985
v -0.7500001 15 0.24999918
v -0.7499995 -3 -1.4901161E-07
v -0.74999994 15 -8.195615E-07
v 0.7499999 15 0.25000036
v 0.75000036 -3 0.2500004
v 0.75000006 15 3.427289E-07
v 0.7500005 -3 3.874302E-07
v -0.7499996 -3 0.12499985
v -0.75000006 15 0.12499918
v 0.7500004 -3 0.12500039
v 0.74999994 15 0.12500034
vt -0.7499996 -3
vt -0.9999996 -3
vt -0.75000006 15
vt -1 15
vt -1.8749998 -3
vt -2.1249998 -3
vt -1.8750005 15
vt -2.1250005 15
vt 0.9999995 -3
vt 0.7499995 -3
vt 0.99999994 15
vt 0.74999994 15
vt 2.125 -3
vt 1.875 -3
vt 2.125 15
vt 1.875 15
vt 0.7500001 -1.8750008
vt 1.0000001 -1.875001
vt 0.74999994 -2.1250007
vt 0.99999994 -2.125001
vt -0.7499995 -2.1250002
vt -0.9999995 -2.1250002
vt -0.74999964 -1.8750001
vt -0.99999964 -1.8750002
vt 0.7500005 -2.1249995
vt 0.75000036 -1.8749996
vt 1.0000005 -2.1249995
vt 1.0000004 -1.8749995
vt -0.75000006 15
vt -0.7500005 -3
vt -1.0000001 15
vt -1.0000005 -3
vt 0.7500005 -3
vt 0.75 15
vt 1.0000005 -3
vt 1 15
vt -0.7499999 -1.8749996
vt -0.75000006 -2.1249998
vt -0.9999999 -1.8749995
vt -1.0000001 -2.1249995
vt 1.8749998 -3
vt 1.8750005 15
vt 2.1249998 -3
vt 2.1250005 15
vt -1.8750002 15
vt -1.8750001 -3
vt -2.1250002 15
vt -2.1250002 -3
vt -0.7499995 -3
vt -0.75 15
vt 0.7500005 -3
vt 0.75 15
vn -3.5762787E-07 3.7252892E-08 1
vn -5.662441E-07 4.0150336E-08 1
vn -5.662441E-07 4.0150336E-08 1
vn -7.748604E-07 4.304778E-08 1
vn -1 -2.6490973E-08 -4.7683716E-07
vn -1 -2.4835295E-08 -5.9604645E-07
vn -1 -2.4835295E-08 -5.9604645E-07
vn -1 -2.3179615E-08 -7.1525574E-07
vn 3.5762787E-07 -4.3047656E-08 -1
vn 5.662441E-07 -4.0150205E-08 -1
vn 5.662441E-07 -4.0150205E-08 -1
vn 7.748604E-07 -3.725275E-08 -1
vn 1 1.9868214E-08 4.7683716E-07
vn 1 2.3179581E-08 7.1525574E-07
vn 1 2.3179581E-08 7.1525574E-07
vn 1 2.649095E-08 9.536743E-07
vn -0 1 0
vn -0 1 0
vn -0 1 0
vn -0 1 0
vn -0 -1 0
vn -0 -1 0
vn -0 -1 0
vn -0 -1 0
vn -0 -1 0
vn -0 -1 0
vn -0 -1 0
vn -0 -1 0
vn 7.748601E-07 -2.4833875E-09 -1
vn 5.66244E-07 4.1405435E-10 -1
vn 5.66244E-07 4.1405435E-10 -1
vn 3.5762787E-07 3.3114962E-09 -1
vn -3.5762787E-07 1.6556752E-09 1
vn -5.364418E-07 -8.2785645E-10 1
vn -5.364418E-07 -8.2785645E-10 1
vn -7.1525574E-07 -3.311388E-09 1
vn -0 1 0
vn -0 1 0
vn -0 1 0
vn -0 1 0
vn 1 2.6490973E-08 4.7683716E-07
vn 1 2.4835291E-08 5.9604645E-07
vn 1 2.4835291E-08 5.9604645E-07
vn 1 2.3179611E-08 7.1525574E-07
vn -1 -2.6490953E-08 -7.1525574E-07
vn -1 -2.483527E-08 -5.9604645E-07
vn -1 -2.483527E-08 -5.9604645E-07
vn -1 -2.3179584E-08 -4.7683716E-07
vn -3.5762787E-07 3.7252896E-08 1
vn -5.662441E-07 1.9868201E-08 1
vn -5.662441E-07 1.9868201E-08 1
vn -7.748604E-07 2.4835063E-09 1
g pb_Mesh-307372_0
f 3/3/3 2/2/2 1/1/1
f 3/3/3 4/4/4 2/2/2
f 7/7/7 6/6/6 5/5/5
f 7/7/7 8/8/8 6/6/6
f 11/11/11 10/10/10 9/9/9
f 11/11/11 12/12/12 10/10/10
f 15/15/15 14/14/14 13/13/13
f 15/15/15 16/16/16 14/14/14
f 19/19/19 18/18/18 17/17/17
f 19/19/19 20/20/20 18/18/18
f 23/23/23 22/22/22 21/21/21
f 23/23/23 24/24/24 22/22/22
f 27/27/27 26/26/26 25/25/25
f 27/27/27 28/28/28 26/26/26
f 31/31/31 30/30/30 29/29/29
f 31/31/31 32/32/32 30/30/30
f 35/35/35 34/34/34 33/33/33
f 35/35/35 36/36/36 34/34/34
f 39/39/39 38/38/38 37/37/37
f 39/39/39 40/40/40 38/38/38
f 43/43/43 42/42/42 41/41/41
f 43/43/43 44/44/44 42/42/42
f 47/47/47 46/46/46 45/45/45
f 47/47/47 48/48/48 46/46/46
g pb_Mesh-307372_1
f 51/51/51 50/50/50 49/49/49
f 51/51/51 52/52/52 50/50/50
