g pb_Mesh-120162
v -0.7500022 -5.119814 0.12500048
v -1.0000023 -5.119814 0.12500039
v -0.7499982 5.119814 0.12499988
v -0.9999995 5.119814 0.12499946
v -1.0000023 -5.119814 0.12500039
v -1.0000021 -5.119814 -0.12499961
v -0.9999995 5.119814 0.12499946
v -0.9999995 5.119814 -0.12500098
v -1.0000021 -5.119814 -0.12499961
v -0.7500021 -5.119814 -0.12499952
v -0.9999995 5.119814 -0.12500098
v -0.74999845 5.119814 -0.12500013
v 0.9999979 -5.119814 -0.1249989
v 0.9999978 -5.119814 0.1250011
v 1.0000029 5.119814 -0.12499895
v 1.000003 5.119814 0.12500149
v -0.7499982 5.119814 0.12499988
v -0.9999995 5.119814 0.12499946
v -0.74999845 5.119814 -0.12500013
v -0.9999995 5.119814 -0.12500098
v -0.7500021 -5.119814 -0.12499952
v -1.0000021 -5.119814 -0.12499961
v -0.7500022 -5.119814 0.12500048
v -1.0000023 -5.119814 0.12500039
v 0.7499979 -5.119814 -0.12499899
v 0.7499978 -5.119814 0.12500101
v 0.9999979 -5.119814 -0.1249989
v 0.9999978 -5.119814 0.1250011
v 0.75000167 5.119814 -0.12499937
v 0.7499979 -5.119814 -0.12499899
v 1.0000029 5.119814 -0.12499895
v 0.9999979 -5.119814 -0.1249989
v 0.7499978 -5.119814 0.12500101
v 0.7500019 5.119814 0.12500066
v 0.9999978 -5.119814 0.1250011
v 1.000003 5.119814 0.12500149
v 0.7500019 5.119814 0.12500066
v 0.75000167 5.119814 -0.12499937
v 1.000003 5.119814 0.12500149
v 1.0000029 5.119814 -0.12499895
v -0.7500022 -5.119814 0.12500048
v -0.7499982 5.119814 0.12499988
v -0.7500021 -5.119814 -0.12499952
v -0.74999845 5.119814 -0.12500013
v 0.7500019 5.119814 0.12500066
v 0.7499978 -5.119814 0.12500101
v 0.75000167 5.119814 -0.12499937
v 0.7499979 -5.119814 -0.12499899
v -0.75000215 -5.119814 4.7683716E-07
v -0.7499967 5.119814 9.3877316E-07
v 0.74999785 -5.119814 1.013279E-06
v 0.7500036 5.119814 1.296401E-06
vt -0.75000215 -5.119814
vt -1.0000023 -5.119814
vt -0.74999815 5.119814
vt -0.99999946 5.119814
vt -1.9999992 -5.1198144
vt -2.249999 -5.1198144
vt -2 5.1198134
vt -2.2500005 5.1198134
vt 1.0000021 -5.119814
vt 0.75000215 -5.119814
vt 0.9999996 5.119814
vt 0.7499985 5.119814
vt 2.2499993 -5.1198134
vt 1.9999994 -5.1198134
vt 2.2499995 5.1198144
vt 1.999999 5.1198144
vt 0.7499982 -2
vt 0.9999995 -2.0000005
vt 0.74999845 -2.2500002
vt 0.9999995 -2.250001
vt -0.7500021 -2.2499995
vt -1.0000021 -2.2499995
vt -0.7500022 -1.9999995
vt -1.0000023 -1.9999996
vt 0.7499979 -2.249999
vt 0.7499978 -1.999999
vt 0.9999979 -2.2499988
vt 0.9999978 -1.9999989
vt -0.7500015 5.119814
vt -0.74999774 -5.119814
vt -1.0000026 5.119814
vt -0.99999774 -5.119814
vt 0.74999785 -5.119814
vt 0.75000197 5.119814
vt 0.99999785 -5.119814
vt 1.000003 5.119814
vt -0.7500019 -1.9999993
vt -0.75000167 -2.2499993
vt -1.000003 -1.9999986
vt -1.0000029 -2.249999
vt 1.9999992 -5.1198144
vt 1.9999998 5.1198134
vt 2.249999 -5.1198144
vt 2.2499998 5.1198134
vt -1.9999986 5.1198144
vt -1.9999983 -5.1198134
vt -2.2499986 5.1198144
vt -2.2499983 -5.1198134
vt -0.75000215 -5.119814
vt -0.7499967 5.119814
vt 0.74999785 -5.119814
vt 0.7500036 5.119814
vn -3.5762775E-07 5.8209917E-08 1
vn -1.0132746E-06 7.421776E-08 1
vn -1.0132746E-06 7.421776E-08 1
vn -1.6689214E-06 9.0225605E-08 1
vn -1 2.6776493E-07 -4.7683716E-07
vn -1 2.6194397E-07 -2.3841858E-07
vn -1 2.6194397E-07 -2.3841858E-07
vn -1 2.5612303E-07 0
vn 3.5762775E-07 -1.3388257E-07 -1
vn 1.877539E-06 -9.67744E-08 -1
vn 1.877539E-06 -9.67744E-08 -1
vn 3.3974504E-06 -5.966623E-08 -1
vn 1 -4.8314115E-07 4.7683716E-07
vn 1 -4.947831E-07 4.2632564E-13
vn 1 -4.947831E-07 4.2632564E-13
vn 1 -5.0642507E-07 -4.768363E-07
vn -0 1 0
vn -0 1 0
vn -0 1 0
vn -0 1 0
vn -0 -1 0
vn -0 -1 0
vn -0 -1 0
vn -0 -1 0
vn -0 -1 0
vn -0 -1 0
vn -0 -1 0
vn -0 -1 0
vn 1.6689222E-06 -3.7109345E-08 -1
vn 1.0132751E-06 -2.1101437E-08 -1
vn 1.0132751E-06 -2.1101437E-08 -1
vn 3.5762787E-07 -5.0935283E-09 -1
vn -3.5762787E-07 3.492601E-08 1
vn -1.8477369E-06 -1.4543282E-09 1
vn -1.8477369E-06 -1.4543282E-09 1
vn -3.337846E-06 -3.7834667E-08 1
vn -0 1 0
vn -0 1 0
vn -0 1 0
vn -0 1 0
vn 1 -3.9000545E-07 4.7683716E-07
vn 1 -3.7254256E-07 -2.3841858E-07
vn 1 -3.7254256E-07 -2.3841858E-07
vn 1 -3.550797E-07 -9.536743E-07
vn -1 4.016475E-07 9.536742E-07
vn -1 3.8418455E-07 2.3841852E-07
vn -1 3.8418455E-07 2.3841852E-07
vn -1 3.6672157E-07 -4.7683716E-07
vn -3.5762784E-07 -4.5112387E-08 1
vn -2.980232E-07 -3.6380946E-08 1
vn -2.980232E-07 -3.6380946E-08 1
vn -2.3841854E-07 -2.764951E-08 1
g pb_Mesh-120162_0
f 3/3/3 2/2/2 1/1/1
f 3/3/3 4/4/4 2/2/2
f 7/7/7 6/6/6 5/5/5
f 7/7/7 8/8/8 6/6/6
f 11/11/11 10/10/10 9/9/9
f 11/11/11 12/12/12 10/10/10
f 15/15/15 14/14/14 13/13/13
f 15/15/15 16/16/16 14/14/14
f 19/19/19 18/18/18 17/17/17
f 19/19/19 20/20/20 18/18/18
f 23/23/23 22/22/22 21/21/21
f 23/23/23 24/24/24 22/22/22
f 27/27/27 26/26/26 25/25/25
f 27/27/27 28/28/28 26/26/26
f 31/31/31 30/30/30 29/29/29
f 31/31/31 32/32/32 30/30/30
f 35/35/35 34/34/34 33/33/33
f 35/35/35 36/36/36 34/34/34
f 39/39/39 38/38/38 37/37/37
f 39/39/39 40/40/40 38/38/38
f 43/43/43 42/42/42 41/41/41
f 43/43/43 44/44/44 42/42/42
f 47/47/47 46/46/46 45/45/45
f 47/47/47 48/48/48 46/46/46
g pb_Mesh-120162_1
f 51/51/51 50/50/50 49/49/49
f 51/51/51 52/52/52 50/50/50
