g pb_Mesh-598332
v -0.750001 -2 0.125
v -1.0000011 -2 0.12499982
v -0.7499995 2 0.12499985
v -0.9999995 2 0.12499976
v -1.0000011 -2 0.12499982
v -1.0000008 -2 -0.12500113
v -0.9999995 2 0.12499976
v -0.9999994 2 -0.12500024
v -1.0000008 -2 -0.12500113
v -0.75000083 -2 -0.12500094
v -0.9999994 2 -0.12500024
v -0.7499994 2 -0.12500015
v 0.99999917 -2 -0.12499958
v 0.999999 -2 0.12500137
v 1.0000006 2 -0.12499952
v 1.0000005 2 0.12500048
v -0.7499995 2 0.12499985
v -0.9999995 2 0.12499976
v -0.7499994 2 -0.12500015
v -0.9999994 2 -0.12500024
v -0.75000083 -2 -0.12500094
v -1.0000008 -2 -0.12500113
v -0.750001 -2 0.125
v -1.0000011 -2 0.12499982
v 0.74999917 -2 -0.12499978
v 0.749999 -2 0.12500116
v 0.99999917 -2 -0.12499958
v 0.999999 -2 0.12500137
v 0.7500006 2 -0.12499961
v 0.74999917 -2 -0.12499978
v 1.0000006 2 -0.12499952
v 0.99999917 -2 -0.12499958
v 0.749999 -2 0.12500116
v 0.7500005 2 0.12500039
v 0.999999 -2 0.12500137
v 1.0000005 2 0.12500048
v 0.7500005 2 0.12500039
v 0.7500006 2 -0.12499961
v 1.0000005 2 0.12500048
v 1.0000006 2 -0.12499952
v -0.750001 -2 0.125
v -0.7499995 2 0.12499985
v -0.75000083 -2 -0.12500094
v -0.7499994 2 -0.12500015
v 0.7500005 2 0.12500039
v 0.749999 -2 0.12500116
v 0.7500006 2 -0.12499961
v 0.74999917 -2 -0.12499978
v -0.75000095 -2 1.4901161E-08
v -0.74999946 2 -1.4901161E-07
v 0.74999905 -2 1.1771917E-06
v 0.75000054 2 3.874302E-07
vt -0.75000095 -2
vt -1.000001 -2
vt -0.74999946 2
vt -0.99999946 2
vt -1.9999993 -2.0000005
vt -2.2500002 -2.0000005
vt -1.9999993 1.9999996
vt -2.2499993 1.9999996
vt 1.000001 -2
vt 0.75000095 -2
vt 0.9999995 2
vt 0.7499995 2
vt 2.2500002 -1.9999996
vt 1.9999993 -1.9999996
vt 2.2500002 2.0000005
vt 2.0000002 2.0000005
vt 0.7499995 -2.0000002
vt 0.9999995 -2.0000002
vt 0.7499994 -2.2500002
vt 0.9999994 -2.2500002
vt -0.75000083 -2.250001
vt -1.0000008 -2.2500012
vt -0.750001 -2
vt -1.0000011 -2.0000002
vt 0.74999917 -2.2499998
vt 0.749999 -1.9999988
vt 0.99999917 -2.2499995
vt 0.999999 -1.9999986
vt -0.75000054 2
vt -0.7499991 -2
vt -1.0000006 2
vt -0.9999991 -2
vt 0.7499991 -2
vt 0.7500006 2
vt 0.9999991 -2
vt 1.0000006 2
vt -0.7500005 -1.9999996
vt -0.7500006 -2.2499995
vt -1.0000005 -1.9999995
vt -1.0000006 -2.2499995
vt 1.9999995 -2.0000002
vt 1.9999996 1.9999998
vt 2.2500005 -2.0000002
vt 2.2499995 1.9999998
vt -2 2.0000002
vt -1.9999992 -1.9999998
vt -2.25 2.0000002
vt -2.2500002 -1.9999998
vt -0.75000095 -2
vt -0.74999946 2
vt 0.74999905 -2
vt 0.75000054 2
vn -7.1525557E-07 3.725317E-08 1
vn -5.364417E-07 2.6077235E-08 1
vn -5.364417E-07 2.6077235E-08 1
vn -3.5762787E-07 1.49013E-08 1
vn -1 3.874302E-07 -9.536707E-07
vn -1 3.725291E-07 -7.152539E-07
vn -1 3.725291E-07 -7.152539E-07
vn -1 3.5762798E-07 -4.7683716E-07
vn 7.748604E-07 2.2351713E-07 -1
vn 5.662441E-07 2.104787E-07 -1
vn 5.662441E-07 2.104787E-07 -1
vn 3.5762787E-07 1.9744026E-07 -1
vn 1 -3.5762787E-07 7.15253E-07
vn 1 -3.650784E-07 5.960451E-07
vn 1 -3.650784E-07 5.960451E-07
vn 1 -3.7252892E-07 4.7683716E-07
vn -0 1 0
vn -0 1 0
vn -0 1 0
vn -0 1 0
vn -0 -1 0
vn -0 -1 0
vn -0 -1 0
vn -0 -1 0
vn -0 -1 0
vn -0 -1 0
vn -0 -1 0
vn -0 -1 0
vn 3.5762787E-07 4.0978065E-08 -1
vn 5.662441E-07 2.7939475E-08 -1
vn 5.662441E-07 2.7939475E-08 -1
vn 7.748604E-07 1.4900884E-08 -1
vn -8.34465E-07 1.9371541E-07 1
vn -5.9604645E-07 2.0861648E-07 1
vn -5.9604645E-07 2.0861648E-07 1
vn -3.5762787E-07 2.2351755E-07 1
vn -0 1 0
vn -0 1 0
vn -0 1 0
vn -0 1 0
vn 1 -3.72529E-07 7.15253E-07
vn 1 -3.6507848E-07 5.960451E-07
vn 1 -3.6507848E-07 5.960451E-07
vn 1 -3.5762795E-07 4.7683716E-07
vn -1 3.7252894E-07 -4.7683716E-07
vn -1 3.6507842E-07 -5.960451E-07
vn -1 3.6507842E-07 -5.960451E-07
vn -1 3.576279E-07 -7.15253E-07
vn -7.748604E-07 4.097848E-08 1
vn -5.662441E-07 1.192095E-07 1
vn -5.662441E-07 1.192095E-07 1
vn -3.5762787E-07 1.9744051E-07 1
g pb_Mesh-598332_0
f 3/3/3 2/2/2 1/1/1
f 3/3/3 4/4/4 2/2/2
f 7/7/7 6/6/6 5/5/5
f 7/7/7 8/8/8 6/6/6
f 11/11/11 10/10/10 9/9/9
f 11/11/11 12/12/12 10/10/10
f 15/15/15 14/14/14 13/13/13
f 15/15/15 16/16/16 14/14/14
f 19/19/19 18/18/18 17/17/17
f 19/19/19 20/20/20 18/18/18
f 23/23/23 22/22/22 21/21/21
f 23/23/23 24/24/24 22/22/22
f 27/27/27 26/26/26 25/25/25
f 27/27/27 28/28/28 26/26/26
f 31/31/31 30/30/30 29/29/29
f 31/31/31 32/32/32 30/30/30
f 35/35/35 34/34/34 33/33/33
f 35/35/35 36/36/36 34/34/34
f 39/39/39 38/38/38 37/37/37
f 39/39/39 40/40/40 38/38/38
f 43/43/43 42/42/42 41/41/41
f 43/43/43 44/44/44 42/42/42
f 47/47/47 46/46/46 45/45/45
f 47/47/47 48/48/48 46/46/46
g pb_Mesh-598332_1
f 51/51/51 50/50/50 49/49/49
f 51/51/51 52/52/52 50/50/50
