g pb_Mesh99880
v -5.076491 -1 9.858999
v -10 0 6
v -5.0764904 3 9.859
v -10.000003 3 5.9999943
v -10 0 6
v -8.214046 -1 1.4236121
v -10.000003 3 5.9999943
v -8.214041 3 1.4236121
v -8.214046 -1 1.4236121
v -3.76775 -1 1.9036739
v -8.214041 3 1.4236121
v -3.7677443 3 1.9036744
v -3.76775 -1 1.9036739
v -5.076491 -1 9.858999
v -3.7677443 3 1.9036744
v -5.0764904 3 9.859
v -5.0764904 3 9.859
v -10.000003 3 5.9999943
v -3.7677443 3 1.9036744
v -8.214041 3 1.4236121
v -3.76775 -1 1.9036739
v -8.214046 -1 1.4236121
v -5.076491 -1 9.858999
v -10 0 6
vt 2.0863988 -0.99999875
vt -4.1692243 1.2427884E-06
vt 2.0863998 3.0000012
vt -4.16923 3.0000012
vt 9.224953 1.128552E-05
vt 4.3124213 -0.99998873
vt 9.224948 3.0000112
vt 4.3124194 3.0000112
vt 8.013765 -1.0000002
vt 3.5416293 -1.0000002
vt 8.013761 2.9999998
vt 3.5416236 2.9999998
vt -2.4900413 -1.0000049
vt -10.5522995 -1.0000049
vt -2.4900408 2.9999952
vt -10.5523 2.9999952
vt 5.0764904 9.859
vt 10.000003 5.9999943
vt 3.7677443 1.9036744
vt 8.214041 1.4236121
vt -3.76775 1.9036739
vt -8.214046 1.4236121
vt -5.076491 9.858999
vt -10 6
vn -0.61688495 -1.1410974E-07 0.7870534
vn -0.6168851 3.9938362E-07 0.7870532
vn -0.6168851 3.9938362E-07 0.7870532
vn -0.6168853 9.12877E-07 0.7870531
vn -0.9315745 -1.5818363E-06 -0.3635505
vn -0.9315741 -2.356569E-07 -0.36355153
vn -0.9315741 -2.356569E-07 -0.36355153
vn -0.9315737 1.1105225E-06 -0.36355254
vn 0.10734506 -1.2796528E-07 -0.9942218
vn 0.107345104 -8.150163E-08 -0.9942218
vn 0.107345104 -8.150163E-08 -0.9942218
vn 0.10734515 -3.5037985E-08 -0.9942218
vn 0.98673666 -1.4308893E-06 0.16232933
vn 0.9867366 -7.9360996E-07 0.16232964
vn 0.9867366 -7.9360996E-07 0.16232964
vn 0.98673654 -1.5633064E-07 0.16232994
vn -0 1 0
vn -0 1 0
vn -0 1 0
vn -0 1 0
vn -0 -1 0
vn -0.13707364 -0.9781332 0.050984744
vn -0.13707364 -0.9781332 0.050984744
vn -0.27414727 -0.95626646 0.10196949
g pb_Mesh99880_0
f 3/3/3 2/2/2 1/1/1
f 3/3/3 4/4/4 2/2/2
f 7/7/7 6/6/6 5/5/5
f 7/7/7 8/8/8 6/6/6
f 11/11/11 10/10/10 9/9/9
f 11/11/11 12/12/12 10/10/10
f 15/15/15 14/14/14 13/13/13
f 15/15/15 16/16/16 14/14/14
f 19/19/19 18/18/18 17/17/17
f 19/19/19 20/20/20 18/18/18
f 23/23/23 22/22/22 21/21/21
f 23/23/23 24/24/24 22/22/22
