g pb_Mesh-554570
v -0.7500003 -6 0.124999836
v -1.0000002 -6 0.12499975
v -0.75000024 6 0.12499924
v -1.0000002 6 0.124998584
v -1.0000002 -6 0.12499975
v -1.0000001 -6 -0.12500025
v -1.0000002 6 0.124998584
v -1 6 -0.12500145
v -1.0000001 -6 -0.12500025
v -0.7500002 -6 -0.12500016
v -1 6 -0.12500145
v -0.75000006 6 -0.12500079
v 0.9999998 -6 -0.12499954
v 0.9999997 -6 0.12500046
v 1.0000002 6 -0.12500001
v 1.0000001 6 0.12500001
v -0.75000024 6 0.12499924
v -1.0000002 6 0.124998584
v -0.75000006 6 -0.12500079
v -1 6 -0.12500145
v -0.7500002 -6 -0.12500016
v -1.0000001 -6 -0.12500025
v -0.7500003 -6 0.124999836
v -1.0000002 -6 0.12499975
v 0.7499998 -6 -0.12499963
v 0.7499997 -6 0.12500037
v 0.9999998 -6 -0.12499954
v 0.9999997 -6 0.12500046
v 0.7500002 6 -0.12500067
v 0.7499998 -6 -0.12499963
v 1.0000002 6 -0.12500001
v 0.9999998 -6 -0.12499954
v 0.7499997 -6 0.12500037
v 0.75 6 0.12499936
v 0.9999997 -6 0.12500046
v 1.0000001 6 0.12500001
v 0.75 6 0.12499936
v 0.7500002 6 -0.12500067
v 1.0000001 6 0.12500001
v 1.0000002 6 -0.12500001
v -0.7500003 -6 0.124999836
v -0.75000024 6 0.12499924
v -0.7500002 -6 -0.12500016
v -0.75000006 6 -0.12500079
v 0.75 6 0.12499936
v 0.7499997 -6 0.12500037
v 0.7500002 6 -0.12500067
v 0.7499998 -6 -0.12499963
v -0.75000024 -6 -1.6391277E-07
v -0.75000036 6 -7.748604E-07
v 0.74999976 -6 3.7252903E-07
v 0.7500003 6 -6.556511E-07
vt -0.75000024 -6
vt -1.0000002 -6
vt -0.7500002 6
vt -1.0000002 6
vt -1.9999998 -6
vt -2.2499998 -6
vt -2.000001 6
vt -2.250001 6
vt 1.0000001 -6
vt 0.75000024 -6
vt 1 6
vt 0.7500001 6
vt 2.25 -6
vt 2 -6
vt 2.2500005 6
vt 2.0000005 6
vt 0.75000024 -2.0000007
vt 1.0000002 -2.0000014
vt 0.75000006 -2.2500007
vt 1 -2.2500014
vt -0.7500002 -2.2500002
vt -1.0000001 -2.2500002
vt -0.7500003 -2.0000002
vt -1.0000002 -2.0000002
vt 0.7499998 -2.2499995
vt 0.7499997 -1.9999996
vt 0.9999998 -2.2499995
vt 0.9999997 -1.9999995
vt -0.7499998 6
vt -0.7499995 -6
vt -0.99999994 6
vt -0.9999995 -6
vt 0.74999976 -6
vt 0.75000006 6
vt 0.99999976 -6
vt 1.0000001 6
vt -0.75 -2.0000007
vt -0.7500002 -2.2500007
vt -1.0000001 -2
vt -1.0000002 -2.25
vt 1.9999998 -6
vt 2.0000005 6
vt 2.2499998 -6
vt 2.2500005 6
vt -2.0000012 6
vt -2.0000002 -6
vt -2.2500012 6
vt -2.2500002 -6
vt -0.75000024 -6
vt -0.75000036 6
vt 0.74999976 -6
vt 0.7500003 6
vn -3.5762795E-07 4.967054E-08 1
vn -1.4901161E-06 7.326405E-08 1
vn -1.4901161E-06 7.326405E-08 1
vn -2.6226044E-06 9.685755E-08 1
vn -1 -4.6185278E-14 -4.7683716E-07
vn -1 4.9669833E-09 -7.152556E-07
vn -1 4.9669833E-09 -7.152556E-07
vn -1 9.934013E-09 -9.5367415E-07
vn 3.5762795E-07 -9.934108E-08 -1
vn 1.4901165E-06 -7.5747586E-08 -1
vn 1.4901165E-06 -7.5747586E-08 -1
vn 2.622605E-06 -5.2154093E-08 -1
vn 1 -3.4769357E-08 4.7683716E-07
vn 1 -3.4769357E-08 4.768371E-07
vn 1 -3.4769357E-08 4.768371E-07
vn 1 -3.4769357E-08 4.7683707E-07
vn -0 1 0
vn -0 1 0
vn -0 1 0
vn -0 1 0
vn -0 -1 0
vn -0 -1 0
vn -0 -1 0
vn -0 -1 0
vn -0 -1 0
vn -0 -1 0
vn -0 -1 0
vn -0 -1 0
vn 2.6226037E-06 -8.6923514E-08 -1
vn 1.4901158E-06 -6.332998E-08 -1
vn 1.4901158E-06 -6.332998E-08 -1
vn 3.5762787E-07 -3.9736445E-08 -1
vn -3.5762787E-07 8.4439925E-08 1
vn -1.4901156E-06 6.084646E-08 1
vn -1.4901156E-06 6.084646E-08 1
vn -2.6226032E-06 3.7252995E-08 1
vn -0 1 0
vn -0 1 0
vn -0 1 0
vn -0 1 0
vn 1 -4.96703E-09 4.7683716E-07
vn 1 -7.4505495E-09 5.960464E-07
vn 1 -7.4505495E-09 5.960464E-07
vn 1 -9.93407E-09 7.152556E-07
vn -1 2.4835208E-08 -7.152556E-07
vn -1 2.7318745E-08 -5.960464E-07
vn -1 2.7318745E-08 -5.960464E-07
vn -1 2.980228E-08 -4.7683716E-07
vn -3.5762787E-07 5.09123E-08 1
vn -2.1855035E-07 6.829699E-08 1
vn -2.1855035E-07 6.829699E-08 1
vn -7.947283E-08 8.5681684E-08 1
g pb_Mesh-554570_0
f 3/3/3 2/2/2 1/1/1
f 3/3/3 4/4/4 2/2/2
f 7/7/7 6/6/6 5/5/5
f 7/7/7 8/8/8 6/6/6
f 11/11/11 10/10/10 9/9/9
f 11/11/11 12/12/12 10/10/10
f 15/15/15 14/14/14 13/13/13
f 15/15/15 16/16/16 14/14/14
f 19/19/19 18/18/18 17/17/17
f 19/19/19 20/20/20 18/18/18
f 23/23/23 22/22/22 21/21/21
f 23/23/23 24/24/24 22/22/22
f 27/27/27 26/26/26 25/25/25
f 27/27/27 28/28/28 26/26/26
f 31/31/31 30/30/30 29/29/29
f 31/31/31 32/32/32 30/30/30
f 35/35/35 34/34/34 33/33/33
f 35/35/35 36/36/36 34/34/34
f 39/39/39 38/38/38 37/37/37
f 39/39/39 40/40/40 38/38/38
f 43/43/43 42/42/42 41/41/41
f 43/43/43 44/44/44 42/42/42
f 47/47/47 46/46/46 45/45/45
f 47/47/47 48/48/48 46/46/46
g pb_Mesh-554570_1
f 51/51/51 50/50/50 49/49/49
f 51/51/51 52/52/52 50/50/50
