g pb_Mesh95734
v -13.999857 4 2.0010085
v -11.999857 0 2.0008645
v -11.999857 4 2.0008645
v -13.999857 0 2.0010085
v -13.999857 6 2.0010085
v -11.999857 6 2.0008645
v -11.999569 0 6.0008645
v -13.999569 0 6.0010085
v -13.999569 4 6.0010085
v -11.999569 4 6.0008645
v -13.999569 6 6.0010085
v -11.999569 6 6.0008645
v -9.999857 4 2.0007205
v -7.9998565 0 2.0005765
v -7.9998565 4 2.0005765
v -9.999857 0 2.0007205
v -9.999857 6 2.0007205
v -7.9998565 6 2.0005765
v -7.9995685 0 6.0005765
v -9.999569 0 6.0007205
v -9.999569 4 6.0007205
v -7.9995685 4 6.0005765
v -9.999569 6 6.0007205
v -7.9995685 6 6.0005765
v -7.9998565 4 2.0005765
v -7.9998574 4 0.0005764858
v -7.9998574 6 0.0005764858
v -7.9998565 6 2.0005765
v -7.9998565 0 2.0005765
v -7.9998574 0 0.0005764858
v -4.0000005 4 0.00028848648
v -3.9998565 0 2.0002885
v -3.9998565 4 2.0002885
v -4.0000005 0 0.00028848648
v -4.0000005 6 0.00028848648
v -3.9998565 6 2.0002885
v -7.999931 4 -1.9997096
v -7.9999304 6 -1.9997115
v -8.000003 4 -3.9999995
v -8.000003 6 -3.9999995
v -7.9999285 0 -1.9997118
v -8 0 -4
v -4.0001445 6 -1.9997115
v -4.0001445 4 -1.9997115
v -4.0002885 4 -3.9997115
v -4.0001445 0 -1.9997115
v -4.0002885 0 -3.9997115
v -4.0002885 6 -3.9997115
v -4.0000005 0 0.00028848648
v -4.0000005 4 0.00028848648
v -8 0 0.0005764961
v -8 4 0.0005764961
v -4.0000005 4 0.00028848648
v -4.0001445 4 -1.9997115
v -8 4 0.0005764961
v -8.000145 4 -1.9994235
v -4.0001445 4 -1.9997115
v -4.0001445 0 -1.9997115
v -8.000145 4 -1.9994235
v -8.000145 0 -1.9994235
v -11.999569 4 6.0008645
v -9.999569 4 6.0007205
v -11.999857 4 2.0008645
v -9.999857 4 2.0007205
v -5.9998565 0 2.0004325
v -3.9998565 0 2.0002885
v -5.999929 0 0.00043248615
v -4.0000005 0 0.00028848648
v -4.0001445 0 -1.9997115
v -6.0000362 0 -1.9997116
v -4.0002885 0 -3.9997115
v -6.000144 0 -3.9998558
v -3.9995685 0 6.0002885
v -5.9995685 0 6.0004325
v -5.9995685 4 6.0004325
v -3.9995685 4 6.0002885
v -5.9995685 6 6.0004325
v -3.9995685 6 6.0002885
v -6.000146 4 -3.9998555
v -6.000144 0 -3.9998558
v -4.0002885 4 -3.9997115
v -4.0002885 0 -3.9997115
v -4.0002885 6 -3.9997115
v -6.000146 6 -3.9998555
v -7.9998565 0 2.0005765
v -7.4998565 0 2.0005405
v -7.9998574 0 0.0005764858
v -7.5000005 0 0.0005404949
v -7.5001445 0 -1.999677
v -7.9999285 0 -1.9997118
v -7.5002885 0 -3.9998906
v -8 0 -4
v -7.4995685 0 6.0005407
v -7.4995685 4 6.0005407
v -7.4995685 6 6.0005407
v -8.000003 4 -3.9999995
v -8 0 -4
v -7.5002885 4 -3.9998906
v -7.5002885 0 -3.9998906
v -7.5002885 4 -3.9998906
v -7.5002885 0 -3.9998906
v -7.5002885 6 -3.9998906
v -8.000003 6 -3.9999995
v -7.5002885 6 -3.9998906
v -13.999569 0 6.0010085
v -11.999569 0 6.0008645
v -13.999821 0 2.5010085
v -11.999821 0 2.5008645
v -13.999857 0 2.0010085
v -11.999857 0 2.0008645
v -9.999569 0 6.0007205
v -9.999821 0 2.5007205
v -9.999857 0 2.0007205
v -7.9995685 0 6.0005765
v -7.9998207 0 2.5005765
v -3.9998205 6 2.5002885
v -3.9995685 4 6.0002885
v -3.9995685 6 6.0002885
v -3.9998205 4 2.5002885
v -3.9995685 0 6.0002885
v -3.9998205 0 2.5002885
v -13.999569 0 6.0010085
v -13.999821 0 2.5010085
v -13.999821 4 2.5010085
v -13.999569 4 6.0010085
v -13.999857 0 2.0010085
v -13.999857 4 2.0010085
v -13.999821 6 2.5010085
v -13.999569 6 6.0010085
v -13.999857 6 2.0010085
v -11.999857 4 2.0008645
v -11.999821 0 2.5008645
v -11.999569 4 6.0008645
v -11.999569 0 6.0008645
v -11.999857 0 2.0008645
v -9.999821 0 2.5007205
v -9.999857 0 2.0007205
v -9.999857 4 2.0007205
v -9.999569 4 6.0007205
v -9.999569 0 6.0007205
v -5.9995685 0 6.0004325
v -3.9995685 0 6.0002885
v -5.9998207 0 2.5004325
v -3.9998205 0 2.5002885
v -7.4995685 0 6.0005407
v -7.4998207 0 2.5005405
v -4.0000005 6 0.00028848648
v -3.9998565 6 2.0002885
v -5.999929 6 0.00043248615
v -5.9998565 6 2.0004325
v -6.000146 6 -3.9998555
v -4.0002885 6 -3.9997115
v -6.000037 6 -1.9997115
v -4.0001445 6 -1.9997115
v -7.5000005 6 0.0005404949
v -7.4998565 6 2.0005405
v -7.5002885 6 -3.9998906
v -7.5001445 6 -1.9996731
v -13.999821 6 2.5010085
v -11.999821 6 2.5008645
v -11.999569 6 6.0008645
v -13.999569 6 6.0010085
v -9.999821 6 2.5007205
v -9.999569 6 6.0007205
v -7.9998207 6 2.5005765
v -7.9995685 6 6.0005765
v -3.9998205 6 2.5002885
v -5.9998207 6 2.5004325
v -3.9995685 6 6.0002885
v -5.9995685 6 6.0004325
v -7.4998207 6 2.5005405
v -7.4995685 6 6.0005407
v -7.9998574 14 0.0005764858
v -7.5000005 14 0.0005404949
v -7.4998565 14 2.0005405
v -7.9998565 14 2.0005765
v -8.000005 14 -3.9999995
v -7.5002885 14 -3.9998906
v -7.999931 14 -1.9997096
v -7.5001445 14 -1.9996731
v -13.999857 14 2.0010085
v -11.999857 14 2.0008645
v -11.999821 14 2.5008645
v -13.999821 14 2.5010085
v -9.999857 14 2.0007205
v -9.999821 14 2.5007205
v -7.9998207 14 2.5005765
v -7.4998207 14 2.5005405
v -8.000003 6 -3.9999995
v -7.5002885 6 -3.9998906
v -8.000005 14 -3.9999995
v -7.5002885 14 -3.9998906
v -7.5000005 6 0.0005404949
v -7.4998565 6 2.0005405
v -7.5000005 14 0.0005404949
v -7.4998565 14 2.0005405
v -7.4998207 6 2.5005405
v -7.4998207 14 2.5005405
v -7.9998565 6 2.0005765
v -7.9998574 6 0.0005764858
v -7.9998565 14 2.0005765
v -7.9998574 14 0.0005764858
v -7.9998207 6 2.5005765
v -9.999821 6 2.5007205
v -7.9998207 14 2.5005765
v -9.999821 14 2.5007205
v -7.9998574 6 0.0005764858
v -7.9999304 6 -1.9997115
v -7.9998574 14 0.0005764858
v -7.999931 14 -1.9997096
v -7.5001445 6 -1.9996731
v -7.5001445 14 -1.9996731
v -8.000003 6 -3.9999995
v -7.999931 14 -1.9997096
v -8.000005 14 -3.9999995
v -7.5002885 6 -3.9998906
v -7.5002885 14 -3.9998906
v -7.4998207 6 2.5005405
v -7.4998207 14 2.5005405
v -9.999857 6 2.0007205
v -7.9998565 6 2.0005765
v -9.999857 14 2.0007205
v -7.9998565 14 2.0005765
v -11.999821 6 2.5008645
v -11.999821 14 2.5008645
v -11.999857 6 2.0008645
v -11.999857 14 2.0008645
v -13.999821 6 2.5010085
v -13.999821 14 2.5010085
v -13.999857 6 2.0010085
v -13.999857 14 2.0010085
v -13.999821 6 2.5010085
v -13.999857 6 2.0010085
v -13.999821 14 2.5010085
v -13.999857 14 2.0010085
vt 14.000001 4
vt 12.000001 0
vt 12.000001 4
vt 14.000001 0
vt 14.000001 6
vt 12.000001 6
vt -12.000001 0
vt -14.000001 0
vt -14.000001 4
vt -12.000001 4
vt -14.000001 6
vt -12.000001 6
vt 10.000001 4
vt 8.000001 0
vt 8.000001 4
vt 10.000001 0
vt 10.000001 6
vt 8.000001 6
vt -8.000001 0
vt -10.000001 0
vt -10.000001 4
vt -8.000001 4
vt -10.000001 6
vt -8.000001 6
vt 2.000401 4.000001
vt 0.00040103798 4.000001
vt 0.00040103798 6.000001
vt 2.000401 6.000001
vt 2.000401 9.536934E-07
vt 0.00040103798 9.536883E-07
vt -4.7680282E-07 4
vt -2.0000005 0
vt -2.0000005 4
vt -4.7680282E-07 0
vt -4.7680282E-07 6
vt -2.0000005 6
vt -1.9998851 4.000001
vt -1.999887 6.000001
vt -4.000175 4.000001
vt -4.000175 6.000001
vt -1.9998872 9.536915E-07
vt -4.0001755 9.536948E-07
vt 1.9999995 6
vt 1.9999995 4
vt 3.9999995 4
vt 1.9999995 0
vt 3.9999995 0
vt 3.9999995 6
vt 4.0000005 0
vt 4.0000005 4
vt 8 0
vt 8 4
vt -4.0000005 0.00028848648
vt -4.0001445 -1.9997115
vt -8 0.0005764961
vt -8.000145 -1.9994235
vt -4.0000005 4
vt -4.0000005 0
vt -8.000001 4
vt -8.000001 0
vt -11.999569 6.0008645
vt -9.999569 6.0007205
vt -11.999857 2.0008645
vt -9.999857 2.0007205
vt -5.9998565 2.0004325
vt -3.9998565 2.0002885
vt -5.999929 0.00043248615
vt -4.0000005 0.00028848648
vt -4.0001445 -1.9997115
vt -6.0000362 -1.9997116
vt -4.0002885 -3.9997115
vt -6.000144 -3.9998558
vt -3.9999998 0
vt -6 0
vt -6 4
vt -3.9999998 4
vt -6 6
vt -3.9999998 6
vt 6.0005636 3.9999998
vt 6.0005617 -1.1931313E-07
vt 4.000706 3.9999998
vt 4.000706 -1.1931506E-07
vt 4.000706 6
vt 6.0005636 6
vt -7.9998565 2.0005765
vt -7.4998565 2.0005405
vt -7.9998574 0.0005764858
vt -7.5000005 0.0005404949
vt -7.5001445 -1.999677
vt -7.9999285 -1.9997118
vt -7.5002885 -3.9998906
vt -8 -4
vt -7.5 0
vt -7.5 4
vt -7.5 6
vt 8.000421 3.9999998
vt 8.000418 -1.193112E-07
vt 7.500706 3.9999998
vt 7.500706 -1.1930949E-07
vt 7.500706 3.9999998
vt 7.500706 -1.1930949E-07
vt 7.500706 6
vt 8.000421 6
vt 7.500706 6
vt -13.999569 6.0010085
vt -11.999569 6.0008645
vt -13.999821 2.5010085
vt -11.999821 2.5008645
vt -13.999857 2.0010085
vt -11.999857 2.0008645
vt -9.999569 6.0007205
vt -9.999821 2.5007205
vt -9.999857 2.0007205
vt -7.9995685 6.0005765
vt -7.9998207 2.5005765
vt -2.5000005 6
vt -6.0000005 4
vt -6.0000005 6
vt -2.5000005 4
vt -6.0000005 0
vt -2.5000005 0
vt 5.9999976 0
vt 2.4999976 0
vt 2.4999976 4
vt 5.9999976 4
vt 1.9999976 0
vt 1.9999976 4
vt 2.4999976 6
vt 5.9999976 6
vt 1.9999976 6
vt -2.0000007 4
vt -2.5000007 2.1798792E-07
vt -6.0000005 4
vt -6.0000005 2.1798793E-07
vt -2.0000007 2.1798793E-07
vt 2.5000007 1.8168112E-07
vt 2.0000007 1.8168113E-07
vt 2.0000007 4
vt 6.0000005 4
vt 6.0000005 1.8168112E-07
vt -5.9995685 6.0004325
vt -3.9995685 6.0002885
vt -5.9998207 2.5004325
vt -3.9998205 2.5002885
vt -7.4995685 6.0005407
vt -7.4998207 2.5005405
vt 4.0000005 0.00028848648
vt 3.9998565 2.0002885
vt 5.999929 0.00043248615
vt 5.9998565 2.0004325
vt 6.000146 -3.9998555
vt 4.0002885 -3.9997115
vt 6.000037 -1.9997115
vt 4.0001445 -1.9997115
vt 7.5000005 0.0005404949
vt 7.4998565 2.0005405
vt 7.5002885 -3.9998906
vt 7.5001445 -1.9996731
vt 13.999821 2.5010085
vt 11.999821 2.5008645
vt 11.999569 6.0008645
vt 13.999569 6.0010085
vt 9.999821 2.5007205
vt 9.999569 6.0007205
vt 7.9998207 2.5005765
vt 7.9995685 6.0005765
vt 3.9998205 2.5002885
vt 5.9998207 2.5004325
vt 3.9995685 6.0002885
vt 5.9995685 6.0004325
vt 7.4998207 2.5005405
vt 7.4995685 6.0005407
vt 7.9998574 0.0005764858
vt 7.5000005 0.0005404949
vt 7.4998565 2.0005405
vt 7.9998565 2.0005765
vt 8.000005 -3.9999995
vt 7.5002885 -3.9998906
vt 7.999931 -1.9997096
vt 7.5001445 -1.9996731
vt 13.999857 2.0010085
vt 11.999857 2.0008645
vt 11.999821 2.5008645
vt 13.999821 2.5010085
vt 9.999857 2.0007205
vt 9.999821 2.5007205
vt 7.9998207 2.5005765
vt 7.4998207 2.5005405
vt 8.000875 6
vt 7.5011606 6
vt 8.000877 14
vt 7.5011606 14
vt -4.7680282E-07 6
vt -2.0000005 6
vt -4.7680282E-07 14
vt -2.0000005 14
vt -2.500004 6
vt -2.500004 14
vt 2.0005727 6
vt 0.0005726712 6
vt 2.0005727 14
vt 0.0005726712 14
vt -8.000001 6
vt -10.000001 6
vt -8.000001 14
vt -10.000001 14
vt 0.00028470872 6
vt -2.0000033 6
vt 0.00028470872 14
vt -2.0000014 14
vt 2.0002131 6
vt 2.0002131 14
vt -4.0002894 6.0000005
vt -1.9999995 14.000001
vt -4.0002894 14.000001
vt 4.0004306 6
vt 4.0004306 14
vt -7.500001 6
vt -7.500001 14
vt 10.000001 6
vt 8.000001 6
vt 10.000001 14
vt 8.000001 14
vt -12.000001 6
vt -12.000001 14
vt 12.000001 6
vt 12.000001 14
vt -14.000001 6
vt -14.000001 14
vt 14.000001 6
vt 14.000001 14
vt 2.4999938 6
vt 1.9999938 6
vt 2.4999938 14
vt 1.9999938 14
vn -7.200241E-05 0 -1
vn -7.200241E-05 0 -1
vn -7.200241E-05 0 -1
vn -7.200241E-05 0 -1
vn -7.200241E-05 0 -1
vn -7.200241E-05 0 -1
vn 7.200241E-05 0 1
vn 7.200241E-05 0 1
vn 7.200241E-05 0 1
vn 7.200241E-05 0 1
vn 7.200241E-05 0 1
vn 7.200241E-05 0 1
vn -7.2002396E-05 0 -1
vn -7.2002396E-05 0 -1
vn -7.2002396E-05 0 -1
vn -7.2002396E-05 0 -1
vn -7.2002396E-05 0 -1
vn -7.2002396E-05 0 -1
vn 7.2002396E-05 0 1
vn 7.2002396E-05 0 1
vn 7.2002396E-05 0 1
vn 7.2002396E-05 0 1
vn 7.2002396E-05 0 1
vn 7.2002396E-05 0 1
vn -1 0 4.7683716E-07
vn -1 0 4.7683716E-07
vn -1 0 4.7683716E-07
vn -1 0 4.7683716E-07
vn -1 0 4.7683716E-07
vn -1 0 4.7683716E-07
vn 1 0 -7.200241E-05
vn 1 0 -7.200241E-05
vn 1 0 -7.200241E-05
vn 1 0 -7.200241E-05
vn 1 0 -7.200241E-05
vn 1 0 -7.200241E-05
vn -1 1.1922668E-07 3.6592E-05
vn -1 2.3845337E-07 3.647279E-05
vn -1 0 3.599599E-05
vn -1 1.1922657E-07 3.6115198E-05
vn -1 -6.5566286E-07 3.587681E-05
vn -1 -7.1525994E-07 3.5757632E-05
vn 1 0 -7.200241E-05
vn 1 0 -7.200241E-05
vn 1 0 -7.200241E-05
vn 1 0 -7.200241E-05
vn 1 0 -7.200241E-05
vn 1 0 -7.200241E-05
vn -7.200242E-05 0 -1
vn -7.200242E-05 0 -1
vn -7.200242E-05 0 -1
vn -7.200242E-05 0 -1
vn -0 -1 0
vn -0 -1 0
vn -0 -1 0
vn -0 -1 0
vn 7.20024E-05 0 1
vn 7.20024E-05 0 1
vn 7.20024E-05 0 1
vn 7.20024E-05 0 1
vn -0 -1 0
vn -0 -1 0
vn -0 -1 0
vn -0 -1 0
vn -0 -1 0
vn -0 -1 0
vn -0 -1 0
vn -0 -1 0
vn -0 -1 0
vn -0 -1 0
vn -0 -1 0
vn -0 -1 0
vn 7.200241E-05 0 1
vn 7.200241E-05 0 1
vn 7.200241E-05 0 1
vn 7.200241E-05 0 1
vn 7.200241E-05 0 1
vn 7.200241E-05 0 1
vn 7.200755E-05 5.963898E-08 -1
vn 7.206719E-05 2.981949E-08 -1
vn 7.206719E-05 2.981949E-08 -1
vn 7.212683E-05 0 -1
vn 7.200755E-05 0 -1
vn 7.200755E-05 0 -1
vn -0 -1 0
vn -0 -1 0
vn -0 -1 0
vn -0 -1 0
vn -0 -1 0
vn -0 -1 0
vn -0 -1 0
vn -0 -1 0
vn 7.2161354E-05 0 1
vn 7.2161354E-05 0 1
vn 7.2161354E-05 0 1
vn 0.00021803913 1.1936524E-07 -1
vn 0.00021851687 5.968262E-08 -1
vn 0.00021851687 5.968262E-08 -1
vn 0.00021899461 0 -1
vn 2.33628E-05 0 -1
vn 2.3283319E-05 2.9807854E-08 -1
vn 2.33628E-05 0 -1
vn 0.00021803913 0 -1
vn 0.00021803913 0 -1
vn -0 -1 0
vn -0 -1 0
vn -0 -1 0
vn -0 -1 0
vn -0 -1 0
vn -0 -1 0
vn -0 -1 0
vn -0 -1 0
vn -0 -1 0
vn -0 -1 0
vn -0 -1 0
vn 1 0 -7.200241E-05
vn 1 0 -7.200241E-05
vn 1 0 -7.200241E-05
vn 1 0 -7.200241E-05
vn 1 0 -7.200241E-05
vn 1 0 -7.200241E-05
vn -1 0 7.193429E-05
vn -1 0 7.193429E-05
vn -1 0 7.193429E-05
vn -1 0 7.193429E-05
vn -1 0 7.247925E-05
vn -1 0 7.247925E-05
vn -1 0 7.193429E-05
vn -1 0 7.193429E-05
vn -1 0 7.247925E-05
vn 1 2.9802322E-08 -7.224083E-05
vn 1 1.9868216E-08 -7.213865E-05
vn 1 2.9802322E-08 -7.196835E-05
vn 1 0 -7.193429E-05
vn 1 0 -7.247925E-05
vn -1 -1.9868216E-08 7.213865E-05
vn -1 0 7.247925E-05
vn -1 -2.9802322E-08 7.224083E-05
vn -1 -2.9802322E-08 7.196835E-05
vn -1 0 7.193429E-05
vn -0 -1 0
vn -0 -1 0
vn -0 -1 0
vn -0 -1 0
vn -0 -1 0
vn -0 -1 0
vn -0 1 0
vn -0 1 0
vn -0 1 0
vn -0 1 0
vn -0 1 0
vn -0 1 0
vn -0 1 0
vn -0 1 0
vn -0 1 0
vn -0 1 0
vn -0 1 0
vn -0 1 0
vn -0 1 0
vn -0 1 0
vn -0 1 0
vn -0 1 0
vn -0 1 0
vn -0 1 0
vn -0 1 0
vn -0 1 0
vn -0 1 0
vn -0 1 0
vn -0 1 0
vn -0 1 0
vn -0 1 0
vn -0 1 0
vn -0 1 0
vn -0 1 0
vn -0 1 0
vn -0 1 0
vn -0 1 0
vn -0 1 0
vn -0 1 0
vn -0 1 0
vn -0 1 0
vn -0 1 0
vn -0 1 0
vn -0 1 0
vn -0 1 0
vn -0 1 0
vn -0 1 0
vn -0 1 0
vn 0.00021803913 5.198458E-11 -1
vn 0.00021803871 2.599229E-11 -1
vn 0.00021803871 2.599229E-11 -1
vn 0.0002180383 0 -1
vn 1 0 -7.200241E-05
vn 1 0 -7.200241E-05
vn 1 0 -7.200241E-05
vn 1 0 -7.200241E-05
vn 1 0 -7.1525574E-05
vn 1 0 -7.1525574E-05
vn -1 0 4.7683716E-07
vn -1 0 4.7683716E-07
vn -1 0 4.7683716E-07
vn -1 0 4.7683716E-07
vn 7.200241E-05 0 1
vn 7.200241E-05 0 1
vn 7.200241E-05 0 1
vn 7.200241E-05 0 1
vn -1 0 3.647279E-05
vn -1 -2.98067E-08 3.6592E-05
vn -1 -2.98067E-08 3.6592E-05
vn -1 -5.96134E-08 3.6711208E-05
vn 1 0 -7.199472E-05
vn 1 0 -7.199472E-05
vn -1 -1.4901593E-07 3.6591966E-05
vn -1 -1.4901593E-07 3.6591966E-05
vn -1 -2.3841858E-07 3.6949525E-05
vn 1 0 -7.199458E-05
vn 1 0 -7.199458E-05
vn 7.200241E-05 0 1
vn 7.200241E-05 0 1
vn -7.2002396E-05 0 -1
vn -7.2002396E-05 0 -1
vn -7.2002396E-05 0 -1
vn -7.2002396E-05 0 -1
vn 7.200241E-05 0 1
vn 7.200241E-05 0 1
vn -7.200241E-05 0 -1
vn -7.200241E-05 0 -1
vn 7.200241E-05 0 1
vn 7.200241E-05 0 1
vn -7.200241E-05 0 -1
vn -7.200241E-05 0 -1
vn -1 0 7.247925E-05
vn -1 0 7.247925E-05
vn -1 0 7.247925E-05
vn -1 0 7.247925E-05
g pb_Mesh95734_0
f 3/3/3 2/2/2 1/1/1
f 2/2/2 4/4/4 1/1/1
f 6/6/6 3/3/3 5/5/5
f 3/3/3 1/1/1 5/5/5
f 9/9/9 8/8/8 7/7/7
f 9/9/9 7/7/7 10/10/10
f 11/11/11 9/9/9 10/10/10
f 11/11/11 10/10/10 12/12/12
f 15/15/15 14/14/14 13/13/13
f 14/14/14 16/16/16 13/13/13
f 18/18/18 15/15/15 17/17/17
f 15/15/15 13/13/13 17/17/17
f 17/17/17 13/13/13 6/6/6
f 13/13/13 3/3/3 6/6/6
f 21/21/21 20/20/20 19/19/19
f 21/21/21 19/19/19 22/22/22
f 23/23/23 21/21/21 22/22/22
f 23/23/23 22/22/22 24/24/24
f 12/12/12 10/10/10 21/21/21
f 12/12/12 21/21/21 23/23/23
f 27/27/27 26/26/26 25/25/25
f 27/27/27 25/25/25 28/28/28
f 26/26/26 30/30/30 29/29/29
f 26/26/26 29/29/29 25/25/25
f 33/33/33 32/32/32 31/31/31
f 32/32/32 34/34/34 31/31/31
f 36/36/36 33/33/33 35/35/35
f 33/33/33 31/31/31 35/35/35
f 27/27/27 37/37/37 26/26/26
f 27/27/27 38/38/38 37/37/37
f 40/40/40 39/39/39 37/37/37
f 40/40/40 37/37/37 38/38/38
f 39/39/39 41/41/41 37/37/37
f 39/39/39 42/42/42 41/41/41
f 35/35/35 31/31/31 43/43/43
f 31/31/31 44/44/44 43/43/43
f 44/44/44 46/46/46 45/45/45
f 46/46/46 47/47/47 45/45/45
f 43/43/43 44/44/44 48/48/48
f 44/44/44 45/45/45 48/48/48
f 51/51/51 50/50/50 49/49/49
f 51/51/51 52/52/52 50/50/50
f 55/55/55 54/54/54 53/53/53
f 55/55/55 56/56/56 54/54/54
f 59/59/59 58/58/58 57/57/57
f 59/59/59 60/60/60 58/58/58
f 63/63/63 62/62/62 61/61/61
f 63/63/63 64/64/64 62/62/62
f 67/67/67 66/66/66 65/65/65
f 68/68/68 66/66/66 67/67/67
f 67/67/67 69/69/69 68/68/68
f 70/70/70 69/69/69 67/67/67
f 70/70/70 71/71/71 69/69/69
f 72/72/72 71/71/71 70/70/70
f 75/75/75 74/74/74 73/73/73
f 75/75/75 73/73/73 76/76/76
f 77/77/77 75/75/75 76/76/76
f 77/77/77 76/76/76 78/78/78
f 81/81/81 80/80/80 79/79/79
f 81/81/81 82/82/82 80/80/80
f 79/79/79 84/84/84 83/83/83
f 81/81/81 79/79/79 83/83/83
f 87/87/87 86/86/86 85/85/85
f 87/87/87 88/88/88 86/86/86
f 88/88/88 65/65/65 86/86/86
f 88/88/88 67/67/67 65/65/65
f 88/88/88 70/70/70 67/67/67
f 89/89/89 70/70/70 88/88/88
f 87/87/87 89/89/89 88/88/88
f 90/90/90 89/89/89 87/87/87
f 89/89/89 72/72/72 70/70/70
f 91/91/91 72/72/72 89/89/89
f 90/90/90 91/91/91 89/89/89
f 92/92/92 91/91/91 90/90/90
f 94/94/94 93/93/93 74/74/74
f 94/94/94 74/74/74 75/75/75
f 22/22/22 19/19/19 93/93/93
f 22/22/22 93/93/93 94/94/94
f 95/95/95 94/94/94 75/75/75
f 95/95/95 75/75/75 77/77/77
f 24/24/24 22/22/22 94/94/94
f 24/24/24 94/94/94 95/95/95
f 98/98/98 97/97/97 96/96/96
f 99/99/99 97/97/97 98/98/98
f 79/79/79 101/101/101 100/100/100
f 80/80/80 101/101/101 79/79/79
f 84/84/84 79/79/79 102/102/102
f 79/79/79 100/100/100 102/102/102
f 104/104/104 98/98/98 103/103/103
f 98/98/98 96/96/96 103/103/103
f 107/107/107 106/106/106 105/105/105
f 107/107/107 108/108/108 106/106/106
f 109/109/109 108/108/108 107/107/107
f 109/109/109 110/110/110 108/108/108
f 108/108/108 111/111/111 106/106/106
f 108/108/108 112/112/112 111/111/111
f 110/110/110 112/112/112 108/108/108
f 110/110/110 113/113/113 112/112/112
f 111/111/111 115/115/115 114/114/114
f 112/112/112 115/115/115 111/111/111
f 112/112/112 85/85/85 115/115/115
f 113/113/113 85/85/85 112/112/112
f 118/118/118 117/117/117 116/116/116
f 117/117/117 119/119/119 116/116/116
f 116/116/116 119/119/119 36/36/36
f 119/119/119 33/33/33 36/36/36
f 117/117/117 120/120/120 119/119/119
f 120/120/120 121/121/121 119/119/119
f 119/119/119 121/121/121 33/33/33
f 121/121/121 32/32/32 33/33/33
f 124/124/124 123/123/123 122/122/122
f 124/124/124 122/122/122 125/125/125
f 127/127/127 126/126/126 123/123/123
f 127/127/127 123/123/123 124/124/124
f 128/128/128 124/124/124 125/125/125
f 128/128/128 125/125/125 129/129/129
f 130/130/130 127/127/127 124/124/124
f 130/130/130 124/124/124 128/128/128
f 133/133/133 132/132/132 131/131/131
f 133/133/133 134/134/134 132/132/132
f 132/132/132 135/135/135 131/131/131
f 138/138/138 137/137/137 136/136/136
f 136/136/136 140/140/140 139/139/139
f 138/138/138 136/136/136 139/139/139
f 143/143/143 142/142/142 141/141/141
f 143/143/143 144/144/144 142/142/142
f 65/65/65 144/144/144 143/143/143
f 65/65/65 66/66/66 144/144/144
f 146/146/146 145/145/145 114/114/114
f 146/146/146 114/114/114 115/115/115
f 86/86/86 146/146/146 115/115/115
f 86/86/86 115/115/115 85/85/85
f 146/146/146 141/141/141 145/145/145
f 146/146/146 143/143/143 141/141/141
f 86/86/86 143/143/143 146/146/146
f 86/86/86 65/65/65 143/143/143
g pb_Mesh95734_1
f 149/149/149 148/148/148 147/147/147
f 150/150/150 148/148/148 149/149/149
f 153/153/153 152/152/152 151/151/151
f 154/154/154 152/152/152 153/153/153
f 149/149/149 154/154/154 153/153/153
f 147/147/147 154/154/154 149/149/149
f 150/150/150 149/149/149 155/155/155
f 156/156/156 150/150/150 155/155/155
f 158/158/158 151/151/151 157/157/157
f 153/153/153 151/151/151 158/158/158
f 155/155/155 153/153/153 158/158/158
f 149/149/149 153/153/153 155/155/155
f 161/161/161 160/160/160 159/159/159
f 162/162/162 161/161/161 159/159/159
f 164/164/164 163/163/163 160/160/160
f 161/161/161 164/164/164 160/160/160
f 164/164/164 165/165/165 163/163/163
f 166/166/166 165/165/165 164/164/164
f 167/167/167 148/148/148 150/150/150
f 168/168/168 167/167/167 150/150/150
f 169/169/169 167/167/167 168/168/168
f 170/170/170 169/169/169 168/168/168
f 165/165/165 166/166/166 171/171/171
f 166/166/166 172/172/172 171/171/171
f 168/168/168 150/150/150 156/156/156
f 171/171/171 168/168/168 156/156/156
f 170/170/170 168/168/168 171/171/171
f 172/172/172 170/170/170 171/171/171
g pb_Mesh95734_2
f 175/175/175 174/174/174 173/173/173
f 176/176/176 175/175/175 173/173/173
f 179/179/179 178/178/178 177/177/177
f 180/180/180 178/178/178 179/179/179
f 173/173/173 180/180/180 179/179/179
f 174/174/174 180/180/180 173/173/173
f 183/183/183 182/182/182 181/181/181
f 184/184/184 183/183/183 181/181/181
f 186/186/186 185/185/185 182/182/182
f 183/183/183 186/186/186 182/182/182
f 186/186/186 176/176/176 185/185/185
f 187/187/187 176/176/176 186/186/186
f 176/176/176 187/187/187 175/175/175
f 187/187/187 188/188/188 175/175/175
f 191/191/191 190/190/190 189/189/189
f 191/191/191 192/192/192 190/190/190
f 195/195/195 194/194/194 193/193/193
f 195/195/195 196/196/196 194/194/194
f 196/196/196 197/197/197 194/194/194
f 196/196/196 198/198/198 197/197/197
f 201/201/201 200/200/200 199/199/199
f 201/201/201 202/202/202 200/200/200
f 205/205/205 204/204/204 203/203/203
f 205/205/205 206/206/206 204/204/204
f 209/209/209 208/208/208 207/207/207
f 209/209/209 210/210/210 208/208/208
f 212/212/212 193/193/193 211/211/211
f 212/212/212 195/195/195 193/193/193
f 214/214/214 213/213/213 208/208/208
f 214/214/214 215/215/215 213/213/213
f 217/217/217 211/211/211 216/216/216
f 217/217/217 212/212/212 211/211/211
f 219/219/219 203/203/203 218/218/218
f 219/219/219 205/205/205 203/203/203
f 222/222/222 221/221/221 220/220/220
f 222/222/222 223/223/223 221/221/221
f 206/206/206 224/224/224 204/204/204
f 206/206/206 225/225/225 224/224/224
f 227/227/227 220/220/220 226/226/226
f 227/227/227 222/222/222 220/220/220
f 225/225/225 228/228/228 224/224/224
f 225/225/225 229/229/229 228/228/228
f 231/231/231 226/226/226 230/230/230
f 231/231/231 227/227/227 226/226/226
f 234/234/234 233/233/233 232/232/232
f 234/234/234 235/235/235 233/233/233
