g pb_Mesh-554798
v -0.74999917 -5.5 0.12499936
v -0.99999917 -5.5 0.12499927
v -0.75000066 5.5 0.124999985
v -1.0000007 5.5 0.12499954
v -0.99999917 -5.5 0.12499927
v -0.99999905 -5.5 -0.12500073
v -1.0000007 5.5 0.12499954
v -0.99999976 5.5 -0.12500049
v -0.99999905 -5.5 -0.12500073
v -0.74999905 -5.5 -0.12500064
v -0.99999976 5.5 -0.12500049
v -0.74999976 5.5 -0.12500052
v 1.000001 -5.5 -0.12500001
v 1.0000008 -5.5 0.124999985
v 1.0000005 5.5 -0.12499978
v 0.9999996 5.5 0.12500025
v -0.75000066 5.5 0.124999985
v -1.0000007 5.5 0.12499954
v -0.74999976 5.5 -0.12500052
v -0.99999976 5.5 -0.12500049
v -0.74999905 -5.5 -0.12500064
v -0.99999905 -5.5 -0.12500073
v -0.74999917 -5.5 0.12499936
v -0.99999917 -5.5 0.12499927
v 0.75000095 -5.5 -0.1250001
v 0.75000083 -5.5 0.124999896
v 1.000001 -5.5 -0.12500001
v 1.0000008 -5.5 0.124999985
v 0.7500005 5.5 -0.12499975
v 0.75000095 -5.5 -0.1250001
v 1.0000005 5.5 -0.12499978
v 1.000001 -5.5 -0.12500001
v 0.75000083 -5.5 0.124999896
v 0.7499995 5.5 0.12500028
v 1.0000008 -5.5 0.124999985
v 0.9999996 5.5 0.12500025
v 0.7499995 5.5 0.12500028
v 0.7500005 5.5 -0.12499975
v 0.9999996 5.5 0.12500025
v 1.0000005 5.5 -0.12499978
v -0.74999917 -5.5 0.12499936
v -0.75000066 5.5 0.124999985
v -0.74999905 -5.5 -0.12500064
v -0.74999976 5.5 -0.12500052
v 0.7499995 5.5 0.12500028
v 0.75000083 -5.5 0.124999896
v 0.7500005 5.5 -0.12499975
v 0.75000095 -5.5 -0.1250001
v -0.7499991 -5.5 -6.4074993E-07
v -0.7500002 5.5 -2.9802322E-08
v 0.7500009 -5.5 -1.0430813E-07
v 0.75 5.5 2.682209E-07
vt -0.7499991 -5.5
vt -0.9999991 -5.5
vt -0.7500006 5.5
vt -1.0000007 5.5
vt -2.0000002 -5.5
vt -2.2500002 -5.5
vt -2 5.5
vt -2.25 5.5
vt 0.9999991 -5.5
vt 0.7499991 -5.5
vt 0.9999998 5.5
vt 0.7499998 5.5
vt 2.2500005 -5.5
vt 2.0000005 -5.5
vt 2.2500002 5.5
vt 2.0000002 5.5
vt 0.75000066 -2
vt 1.0000007 -2.0000005
vt 0.74999976 -2.2500005
vt 0.99999976 -2.2500005
vt -0.74999905 -2.2500007
vt -0.99999905 -2.2500007
vt -0.74999917 -2.0000007
vt -0.99999917 -2.0000007
vt 0.75000095 -2.25
vt 0.75000083 -2
vt 1.000001 -2.25
vt 1.0000008 -2
vt -0.7500005 5.5
vt -0.75000095 -5.5
vt -1.0000005 5.5
vt -1.000001 -5.5
vt 0.7500009 -5.5
vt 0.7499996 5.5
vt 1.0000008 -5.5
vt 0.99999964 5.5
vt -0.7499995 -1.9999998
vt -0.7500005 -2.2499998
vt -0.9999996 -1.9999998
vt -1.0000005 -2.2499998
vt 2.0000002 -5.5
vt 1.9999996 5.5
vt 2.2500002 -5.5
vt 2.2500002 5.5
vt -2.0000026 5.5
vt -2.0000029 -5.5
vt -2.2500026 5.5
vt -2.2500029 -5.5
vt -0.7499991 -5.5
vt -0.7500002 5.5
vt 0.7500009 -5.5
vt 0.75 5.5
vn -3.5762787E-07 -5.6895388E-08 1
vn -1.0728834E-06 -4.063968E-08 1
vn -1.0728834E-06 -4.063968E-08 1
vn -1.7881389E-06 -2.438397E-08 1
vn -1 -1.408837E-07 -4.7683716E-07
vn -1 -1.02953436E-07 -2.1457672E-06
vn -1 -1.02953436E-07 -2.1457672E-06
vn -1 -6.502317E-08 -3.814697E-06
vn 3.5762787E-07 2.167444E-08 -1
vn 1.1920929E-07 1.625582E-08 -1
vn 1.1920929E-07 1.625582E-08 -1
vn -1.1920929E-07 1.08372005E-08 -1
vn 1 4.3348823E-08 4.7683716E-07
vn 1 7.856971E-08 2.026558E-06
vn 1 7.856971E-08 2.026558E-06
vn 1 1.13790605E-07 3.5762785E-06
vn -0 1 0
vn -0 1 0
vn -0 1 0
vn -0 1 0
vn -0 -1 0
vn -0 -1 0
vn -0 -1 0
vn -0 -1 0
vn -0 -1 0
vn -0 -1 0
vn -0 -1 0
vn -0 -1 0
vn -1.1920929E-07 3.251162E-08 -1
vn 1.1920929E-07 2.7093025E-08 -1
vn 1.1920929E-07 2.7093025E-08 -1
vn 3.5762787E-07 2.1674431E-08 -1
vn -3.5762787E-07 -3.5220967E-08 1
vn -1.192093E-07 -2.9802337E-08 1
vn -1.192093E-07 -2.9802337E-08 1
vn 1.1920926E-07 -2.4383704E-08 1
vn -0 1 0
vn -0 1 0
vn -0 1 0
vn -0 1 0
vn 1 1.3546507E-07 4.7683716E-07
vn 1 1.00244144E-07 2.0265543E-06
vn 1 1.00244144E-07 2.0265543E-06
vn 1 6.5023215E-08 3.5762716E-06
vn -1 -1.19209155E-07 -3.814697E-06
vn -1 -8.127898E-08 -2.1457672E-06
vn -1 -8.127898E-08 -2.1457672E-06
vn -1 -4.3348816E-08 -4.7683716E-07
vn -3.5762787E-07 -5.5540728E-08 1
vn -2.78155E-07 -4.4703512E-08 1
vn -2.78155E-07 -4.4703512E-08 1
vn -1.9868213E-07 -3.3866293E-08 1
g pb_Mesh-554798_0
f 3/3/3 2/2/2 1/1/1
f 3/3/3 4/4/4 2/2/2
f 7/7/7 6/6/6 5/5/5
f 7/7/7 8/8/8 6/6/6
f 11/11/11 10/10/10 9/9/9
f 11/11/11 12/12/12 10/10/10
f 15/15/15 14/14/14 13/13/13
f 15/15/15 16/16/16 14/14/14
f 19/19/19 18/18/18 17/17/17
f 19/19/19 20/20/20 18/18/18
f 23/23/23 22/22/22 21/21/21
f 23/23/23 24/24/24 22/22/22
f 27/27/27 26/26/26 25/25/25
f 27/27/27 28/28/28 26/26/26
f 31/31/31 30/30/30 29/29/29
f 31/31/31 32/32/32 30/30/30
f 35/35/35 34/34/34 33/33/33
f 35/35/35 36/36/36 34/34/34
f 39/39/39 38/38/38 37/37/37
f 39/39/39 40/40/40 38/38/38
f 43/43/43 42/42/42 41/41/41
f 43/43/43 44/44/44 42/42/42
f 47/47/47 46/46/46 45/45/45
f 47/47/47 48/48/48 46/46/46
g pb_Mesh-554798_1
f 51/51/51 50/50/50 49/49/49
f 51/51/51 52/52/52 50/50/50
