g pb_Mesh101124
v -1.9998665 -3 8.000255
v 2.0003471 -3 8.000081
v -1.9999976 -3 10
v 2.0004334 -3 10.000345
v 12.000349 -3 7.999649
v 16.000349 -3 7.9994764
v 16.000433 -3 9.99974
v 12.000434 -3 9.999913
v -1.9999987 -3 0
v 2.0000014 -3 0.00034546852
v -2.000019 -3 2.0002542
v 2.0000877 -3 2.0000813
v 12.000001 -3 -8.666515E-05
v 16.000002 -3 -0.00025951862
v 12.00009 -3 1.9996492
v 16.00009 -3 1.9994763
v 10.000347 -3 7.9997354
v 10.000434 -3 10
v 10.000001 -3 -2.3841858E-07
v 10.000088 -3 1.9997356
v 12.000093 13 1.9996492
v 10.000347 13 7.9997354
v 10.000088 13 1.9997356
v 12.000353 13 7.999649
v 4.000347 -3 7.9999948
v 4.0004334 -3 10.000259
v 4.0000014 -3 0.0002590418
v 4.0000877 -3 1.9999949
v 4.0000877 13 1.9999949
v 2.0003471 13 8.000081
v 2.0000877 13 2.0000813
v 4.000347 13 7.9999948
v 2.0004334 -14 10.000345
v -2 -14 10
v 2.0004334 -8 10.000345
v -2 -6 10
v -2 -14 0
v 2.0000014 -14 0.00034570694
v -2 -6 0
v 2.0000014 -8 0.00034546852
v 2.0004334 -3 10.000345
v -1.9999976 -3 10
v -1.9999987 -3 0
v 2.0000014 -3 0.00034546852
v 12.000001 -3 -8.666515E-05
v 12.000003 -8 -8.666523E-05
v 16.000002 -3 -0.00025951862
v 16.000002 -6 -0.00025951862
v 12.000436 -8 9.999913
v 12.000434 -3 9.999913
v 16.000433 -6 9.99974
v 16.000433 -3 9.99974
v 16.000002 -14 -0.00025951862
v 12.000003 -14 -8.666523E-05
v 12.000436 -14 9.999913
v 16.000433 -14 9.99974
v -2 -14 10
v -1.9998703 -14 8.000255
v -1.9998703 -6 8.000255
v -2 -6 10
v 2.0003471 -8 8.000081
v 2.0004334 -14 10.000345
v 2.0004334 -8 10.000345
v 2.0003471 -14 8.000081
v 2.0004334 -14 10.000345
v 2.0003471 -14 8.000081
v -2 -14 10
v -1.9998703 -14 8.000255
v 16.000349 -3 7.9994764
v 16.000433 -6 9.99974
v 16.000433 -3 9.99974
v 16.000349 -6 7.9994764
v -1.9998665 -3 8.000255
v -1.9999976 -3 10
v 12.000436 -14 9.999913
v 16.000433 -14 9.99974
v 12.000351 -14 7.999649
v 16.000349 -14 7.9994764
v 12.000436 -14 9.999913
v 12.000351 -14 7.999649
v 12.000351 -8 7.999649
v 12.000436 -8 9.999913
v 16.000433 -14 9.99974
v 16.000349 -14 7.9994764
v -2.000019 -14 2.0002542
v -2.000019 -6 2.0002542
v -2 -14 0
v -2 -6 0
v 2.0000877 -8 2.0000813
v 2.0000877 -14 2.0000813
v 2.0000014 -8 0.00034546852
v 2.0000014 -14 0.00034570694
v 2.0000877 -14 2.0000813
v -2.000019 -14 2.0002542
v 2.0000014 -14 0.00034570694
v -2 -14 0
v 16.00009 -3 1.9994763
v 16.00009 -6 1.9994763
v 16.000002 -3 -0.00025951862
v 16.000002 -6 -0.00025951862
v -2.000019 -3 2.0002542
v -1.9999987 -3 0
v 16.00009 -14 1.9994763
v 12.000092 -14 1.9996492
v 16.000002 -14 -0.00025951862
v 12.000003 -14 -8.666523E-05
v 12.000092 -14 1.9996492
v 12.000092 -8 1.9996492
v 12.000003 -14 -8.666523E-05
v 12.000003 -8 -8.666523E-05
v 16.00009 -14 1.9994763
v 16.000002 -14 -0.00025951862
v 2.0003471 0 8.000081
v 2.0000877 0 2.0000813
v 2.0000877 13 2.0000813
v 2.0003471 13 8.000081
v 12.000093 13 1.9996492
v 12.000355 0 7.999649
v 12.000353 13 7.999649
v 12.000095 0 1.9996492
v 12.000349 -3 7.999649
v 12.000355 0 7.999649
v 14.000347 -3.000002 7.9995623
v 12.000355 0 7.999649
v 12.000095 0 1.9996492
v 14.000347 -3.000002 7.9995623
v 14.000088 -3.000002 1.9995625
v 12.000095 0 1.9996492
v 12.00009 -3 1.9996492
v 14.000088 -3.000002 1.9995625
v 12.00009 -3 1.9996492
v 12.000349 -3 7.999649
v 14.000088 -3.000002 1.9995625
v 14.000347 -3.000002 7.9995623
v 2.0003471 -3 8.000081
v 2.0000877 -3 2.0000813
v 0.00034707782 -3 8.000167
v 8.7797634E-05 -3 2.0001674
v 2.0000877 -3 2.0000813
v 2.0000877 0 2.0000813
v 8.7797634E-05 -3 2.0001674
v 2.0003471 0 8.000081
v 2.0003471 -3 8.000081
v 0.00034707782 -3 8.000167
v 2.0000877 0 2.0000813
v 2.0003471 0 8.000081
v 8.7797634E-05 -3 2.0001674
v 0.00034707782 -3 8.000167
v 10.000001 -3 -2.3841858E-07
v 10.000001 -6 -2.3841858E-07
v 10.000434 -6 10
v 10.000434 -3 10
v 10.000434 -6 10
v 12.000436 -8 9.999913
v 10.000347 -6 7.9997354
v 12.000351 -8 7.999649
v 12.000092 -8 1.9996492
v 10.000088 -6 1.9997356
v 12.000003 -8 -8.666523E-05
v 10.000001 -6 -2.3841858E-07
v 10.000088 0 1.9997356
v 10.000088 -3 1.9997356
v 10.000088 13 1.9997356
v 12.000093 13 1.9996492
v 10.000347 0 7.9997354
v 10.000347 -3 7.9997354
v 12.000353 13 7.999649
v 10.000347 13 7.9997354
v 4.0000014 -3 0.0002590418
v 4.0000014 -6 0.0002590418
v 2.0000014 -3 0.00034546852
v 2.0000014 -8 0.00034546852
v 4.0004334 -6 10.000259
v 4.0004334 -3 10.000259
v 2.0004334 -8 10.000345
v 2.0004334 -3 10.000345
v 4.0004334 -6 10.000259
v 4.000347 -6 7.9999948
v 2.0004334 -8 10.000345
v 2.0003471 -8 8.000081
v 10.000434 -6 10
v 10.000347 -6 7.9997354
v 4.0004334 -6 10.000259
v 4.000347 -6 7.9999948
v 4.0000877 -6 1.9999949
v 2.0000877 -8 2.0000813
v 4.0000877 -6 1.9999949
v 10.000088 -6 1.9997356
v 10.000001 -6 -2.3841858E-07
v 4.0000014 -6 0.0002590418
v 4.0000014 -6 0.0002590418
v 2.0000014 -8 0.00034546852
v 4.0000877 0 1.9999949
v 4.0000877 -3 1.9999949
v 4.0000877 13 1.9999949
v 2.0000877 13 2.0000813
v 4.000347 -3 7.9999948
v 4.000347 0 7.9999948
v 4.000347 13 7.9999948
v 2.0003471 13 8.000081
vt 1.9998665 8.000255
vt -2.0003471 8.000081
vt 1.9999976 10
vt -2.0004334 10.000345
vt -12.000349 7.999649
vt -16.000349 7.9994764
vt -16.000433 9.99974
vt -12.000434 9.999913
vt 1.9999987 0
vt -2.0000014 0.00034546852
vt 2.000019 2.0002542
vt -2.0000877 2.0000813
vt -12.000001 -8.666515E-05
vt -16.000002 -0.00025951862
vt -12.00009 1.9996492
vt -16.00009 1.9994763
vt -10.000347 7.9997354
vt -10.000434 10
vt -10.000001 -2.3841858E-07
vt -10.000088 1.9997356
vt -12.000093 1.9996492
vt -10.000347 7.9997354
vt -10.000088 1.9997356
vt -12.000353 7.999649
vt -4.000347 7.9999948
vt -4.0004334 10.000259
vt -4.0000014 0.0002590418
vt -4.0000877 1.9999949
vt -4.0000877 1.9999949
vt -2.0003471 8.000081
vt -2.0000877 2.0000813
vt -4.000347 7.9999948
vt 2.0012965 -14
vt -1.999137 -14
vt 2.0012965 -8
vt -1.999137 -6
vt 2 -14
vt -2.0000014 -14
vt 2 -6
vt -2.0000014 -8
vt 2.0012965 -3
vt -1.9991347 -3
vt 1.9999987 -3
vt -2.0000014 -3
vt -12.000001 -3
vt -12.000003 -8
vt -16.000002 -3
vt -16.000002 -6
vt 12.000002 -8
vt 12 -3
vt 15.999999 -6
vt 15.999999 -3
vt -16.000002 -14
vt -12.000003 -14
vt 12.000002 -14
vt 15.999999 -14
vt 10.000033 -14
vt 8.000288 -14
vt 8.000288 -6
vt 10.000033 -6
vt -8.000168 -8
vt -10.000432 -14
vt -10.000432 -8
vt -8.000168 -14
vt 2.0004334 10.000345
vt 2.0003471 8.000081
vt -2 10
vt -1.9998703 8.000255
vt -8.000165 -3
vt -10.000428 -6
vt -10.000428 -3
vt -8.000165 -6
vt 8.000288 -3.000001
vt 10.000033 -3.000001
vt 12.000436 9.999913
vt 16.000433 9.99974
vt 12.000351 7.999649
vt 16.000349 7.9994764
vt 10.000433 -14
vt 8.000169 -14
vt 8.000169 -8
vt 10.000433 -8
vt -10.000428 -14
vt -8.000165 -14
vt 2.0002873 -14
vt 2.0002873 -6
vt 3.3065407E-05 -14
vt 3.3065407E-05 -6
vt -2.0001676 -8
vt -2.0001676 -14
vt -0.00043182907 -8
vt -0.0004320675 -14
vt 2.0000877 2.0000813
vt -2.000019 2.0002542
vt 2.0000014 0.00034570694
vt -2 0
vt -2.0001647 -3
vt -2.0001647 -6
vt -0.00042882384 -3
vt -0.00042882384 -6
vt 2.0002878 -3.000001
vt 3.350243E-05 -3.000001
vt 16.00009 1.9994763
vt 12.000092 1.9996492
vt 16.000002 -0.00025951862
vt 12.000003 -8.666523E-05
vt 2.0001693 -14
vt 2.0001693 -8
vt 0.00043340627 -14
vt 0.00043340627 -8
vt -2.0001647 -14
vt -0.00042882384 -14
vt 8.000168 0
vt 2.0001678 0
vt 2.0001678 13
vt 8.000168 13
vt -2.000168 12.999998
vt -8.000168 -1.7606309E-06
vt -8.000168 12.999998
vt -2.000168 -1.7606309E-06
vt 12.000002 -3
vt 12.000008 6.621268E-10
vt 14 -3.000002
vt -8.000168 -6.6563873
vt -2.000168 -6.6563873
vt -8.000168 -10.261936
vt -2.0001678 -10.261936
vt -12.000009 1.6531479E-10
vt -12.000003 -3
vt -14.000001 -3.000002
vt 12.0000925 1.9996492
vt 12.000352 7.999649
vt 14.000091 1.9995625
vt 14.00035 7.9995623
vt 2.0003471 8.000081
vt 2.0000877 2.0000813
vt 0.00034707782 8.000167
vt 8.7797634E-05 2.0001674
vt -2.0000017 -3
vt -2.0000017 0
vt -1.7213247E-06 -3
vt 2.0000038 0
vt 2.0000038 -3
vt 3.7479012E-06 -3
vt 2.0001678 1.1094011
vt 8.000168 1.1094011
vt 2.0001674 -2.49615
vt 8.000167 -2.49615
vt -10.000001 -3
vt -10.000001 -6
vt 10.000002 -6
vt 10.000002 -3
vt 10.000432 9.999999
vt 12.000434 9.999912
vt 10.000345 7.9997344
vt 12.000349 7.999648
vt 12.00009 1.9996481
vt 10.000086 1.9997348
vt 12.000001 -8.778255E-05
vt 9.999999 -1.0764089E-06
vt -10.000001 0
vt -10.000001 -3
vt -10.000001 13
vt -12.000007 13
vt 10.000002 1.0130545E-10
vt 10.000002 -3
vt 12.000008 13
vt 10.000002 13
vt -4.0000014 -3
vt -4.0000014 -6
vt -2.0000014 -3
vt -2.0000014 -8
vt 4.0000014 -6
vt 4.0000014 -3
vt 2.0000017 -8
vt 2.0000017 -3
vt 4.000432 10.000258
vt 4.0003457 7.999994
vt 2.0004313 10.000344
vt 2.000345 8.00008
vt 10.000432 9.999999
vt 10.000345 7.9997344
vt 4.000432 10.000258
vt 4.0003457 7.999994
vt 4.0000863 1.999994
vt 2.0000856 2.00008
vt 4.0000863 1.999994
vt 10.000086 1.9997348
vt 9.999999 -1.0764089E-06
vt 4 0.0002582038
vt 4 0.0002582038
vt 1.9999994 0.0003443512
vt -4.0000014 0
vt -4.0000014 -3
vt -4.0000014 13
vt -2.0000012 13
vt 4.000002 -3
vt 4.000002 1.0130546E-10
vt 4.000002 13
vt 2.0000017 13
vn -0 1 0
vn -0 1 0
vn -0 1 0
vn -0 1 0
vn -0 1 0
vn -0 1 0
vn -0 1 0
vn -0 1 0
vn -0 1 0
vn -0 1 0
vn -0 1 0
vn -0 1 0
vn -0 1 0
vn -0 1 0
vn -0 1 0
vn -0 1 0
vn -0 1 0
vn -0 1 0
vn -0 1 0
vn -0 1 0
vn -0 1 0
vn -0 1 0
vn -0 1 0
vn -0 1 0
vn -0 1 0
vn -0 1 0
vn -0 1 0
vn -0 1 0
vn -0 1 0
vn -0 1 0
vn -0 1 0
vn -0 1 0
vn -8.629817E-05 0 1
vn -8.629817E-05 0 1
vn -8.629817E-05 0 1
vn -8.6298176E-05 0 1
vn 8.6426706E-05 0 -1
vn 8.638697E-05 -1.9868216E-08 -1
vn 8.638697E-05 -1.9868216E-08 -1
vn 8.634724E-05 -3.973643E-08 -1
vn -8.62982E-05 3.4291833E-11 1
vn -8.629823E-05 6.8583667E-11 1
vn 8.63671E-05 -1.8875557E-11 -1
vn 8.636713E-05 0 -1
vn -4.321336E-05 -4.774808E-13 -1
vn -4.321336E-05 -2.387404E-13 -1
vn -4.321336E-05 -2.387404E-13 -1
vn -4.3213357E-05 0 -1
vn 4.3392207E-05 1.6552813E-11 1
vn 4.33922E-05 8.2764065E-12 1
vn 4.33922E-05 8.2764065E-12 1
vn 4.3392192E-05 0 1
vn -4.3213357E-05 0 -1
vn -4.3213357E-05 0 -1
vn 4.3392214E-05 0 1
vn 4.3392214E-05 0 1
vn -1 0 -6.485811E-05
vn -1 0 -6.485811E-05
vn -1 0 -6.485811E-05
vn -1 0 -6.485811E-05
vn 1 0 -4.3148062E-05
vn 1 0 -4.3148062E-05
vn 1 0 -4.3148062E-05
vn 1 0 -4.3148062E-05
vn -0 -1 0
vn -0 -1 0
vn -0 -1 0
vn -0 -1 0
vn 1 0 -4.1956147E-05
vn 1 0 -4.1956147E-05
vn 1 0 -4.1956147E-05
vn 1 0 -4.1956147E-05
vn -1 1.0331472E-06 -6.521578E-05
vn -1 7.947286E-07 -6.5573455E-05
vn -0 -1 0
vn -0 -1 0
vn -0 -1 0
vn -0 -1 0
vn -1 0 4.24329E-05
vn -1 0 4.24329E-05
vn -1 0 4.24329E-05
vn -1 0 4.24329E-05
vn 1 0 -4.1956147E-05
vn 1 0 -4.1956147E-05
vn -1 0 2.479553E-05
vn -1 0 2.479553E-05
vn -1 0 -9.535532E-06
vn -1 0 -9.535532E-06
vn 1 0 -4.3233234E-05
vn 1 0 -4.3233234E-05
vn 1 -8.575016E-13 -4.3159467E-05
vn 1 -1.7150032E-12 -4.315947E-05
vn -0 -1 0
vn -0 -1 0
vn -0 -1 0
vn -0 -1 0
vn 1 0 -4.3233234E-05
vn 1 0 -4.3233234E-05
vn 1 0 -4.3874814E-05
vn 1 0 -4.3874814E-05
vn -1 6.3578284E-07 2.5113422E-05
vn -1 2.1855037E-07 -9.863315E-06
vn -0 -1 0
vn -0 -1 0
vn -0 -1 0
vn -0 -1 0
vn -1 0 4.3233234E-05
vn -1 0 4.3233234E-05
vn -1 0 4.4351713E-05
vn -1 0 4.4351713E-05
vn 1 0 -4.3233234E-05
vn 1 0 -4.3874814E-05
vn -1 0 4.3233234E-05
vn -1 0 4.3233234E-05
vn -1 0 4.3233234E-05
vn -1 0 4.3233234E-05
vn 1 1.4671913E-07 -4.3233234E-05
vn 1 1.4671913E-07 -4.3233234E-05
vn 1 1.4671913E-07 -4.3233234E-05
vn 1 1.4671913E-07 -4.3233234E-05
vn 4.339222E-05 -8.2764094E-11 1
vn 4.339222E-05 -8.2764094E-11 1
vn 4.339222E-05 -8.2764094E-11 1
vn 0.83205146 0.5546985 -3.5972276E-05
vn 0.83205146 0.5546985 -3.5972276E-05
vn 0.83205146 0.5546985 -3.5972276E-05
vn 0.83205146 0.5546985 -3.5972276E-05
vn -4.3332617E-05 8.265041E-11 -1
vn -4.3332617E-05 8.265041E-11 -1
vn -4.3332617E-05 8.265041E-11 -1
vn -9.536752E-07 -1 4.1230467E-11
vn -9.536752E-07 -1 4.1230467E-11
vn -9.536752E-07 -1 4.1230467E-11
vn -9.536752E-07 -1 4.1230467E-11
vn -0 -1 0
vn -0 -1 0
vn -0 -1 0
vn -0 -1 0
vn -4.3034554E-05 0 -1
vn -4.3034554E-05 0 -1
vn -4.3034554E-05 0 -1
vn 4.2915344E-05 0 1
vn 4.2915344E-05 0 1
vn 4.2915344E-05 0 1
vn -0.83205026 0.5547002 3.5972225E-05
vn -0.83205026 0.5547002 3.5972225E-05
vn -0.83205026 0.5547002 3.5972225E-05
vn -0.83205026 0.5547002 3.597223E-05
vn -4.3213367E-05 -2.3874235E-13 -1
vn -4.3213364E-05 0 -1
vn 4.339214E-05 0 1
vn 4.339216E-05 8.276402E-12 1
vn -0.7071065 -0.7071071 3.0678835E-05
vn -0.7071063 -0.7071073 3.03417E-05
vn -0.7071063 -0.7071073 3.03417E-05
vn -0.7071061 -0.7071075 3.0004565E-05
vn -0.7071061 -0.7071074 3.0570485E-05
vn -0.7071061 -0.7071074 3.0570485E-05
vn -0.70710623 -0.7071073 3.102416E-05
vn -0.7071064 -0.7071071 3.0686944E-05
vn -4.3213266E-05 4.1211323E-11 -1
vn -4.3213327E-05 0 -1
vn -4.3213244E-05 0 -1
vn -4.3213222E-05 -3.1701016E-12 -1
vn 4.315366E-05 -4.115448E-11 1
vn 4.3153723E-05 0 1
vn 4.3153617E-05 3.1657292E-12 1
vn 4.315364E-05 0 1
vn -4.321337E-05 0 -1
vn -4.321337E-05 0 -1
vn -4.3213367E-05 0 -1
vn -4.3213367E-05 0 -1
vn 4.323323E-05 0 1
vn 4.323323E-05 0 1
vn 4.2915344E-05 0 1
vn 4.2915344E-05 0 1
vn 0.70710677 -0.70710677 -3.051028E-05
vn 0.70710677 -0.70710677 -3.0510284E-05
vn 0.70710677 -0.70710677 -3.0510284E-05
vn 0.70710677 -0.70710677 -3.051029E-05
vn -0 -1 0
vn -0 -1 0
vn -0 -1 0
vn -0 -1 0
vn 0.70710677 -0.70710677 -3.057051E-05
vn 0.70710677 -0.70710677 -3.057051E-05
vn -0 -1 0
vn -0 -1 0
vn -0 -1 0
vn -0 -1 0
vn 0.70710677 -0.70710677 -3.051835E-05
vn 0.70710677 -0.70710677 -3.051835E-05
vn -4.3213367E-05 0 -1
vn -4.3213367E-05 0 -1
vn -4.3213367E-05 0 -1
vn -4.3213367E-05 0 -1
vn 4.3233234E-05 0 1
vn 4.3233234E-05 0 1
vn 4.3233234E-05 0 1
vn 4.3153763E-05 0 1
g pb_Mesh101124_0
f 3/3/3 2/2/2 1/1/1
f 4/4/4 2/2/2 3/3/3
f 7/7/7 6/6/6 5/5/5
f 8/8/8 7/7/7 5/5/5
f 11/11/11 10/10/10 9/9/9
f 12/12/12 10/10/10 11/11/11
f 1/1/1 12/12/12 11/11/11
f 2/2/2 12/12/12 1/1/1
f 15/15/15 14/14/14 13/13/13
f 16/16/16 14/14/14 15/15/15
f 5/5/5 16/16/16 15/15/15
f 6/6/6 16/16/16 5/5/5
f 8/8/8 5/5/5 17/17/17
f 18/18/18 8/8/8 17/17/17
f 20/20/20 13/13/13 19/19/19
f 15/15/15 13/13/13 20/20/20
f 23/23/23 22/22/22 21/21/21
f 22/22/22 24/24/24 21/21/21
f 4/4/4 25/25/25 2/2/2
f 26/26/26 25/25/25 4/4/4
f 26/26/26 17/17/17 25/25/25
f 18/18/18 17/17/17 26/26/26
f 12/12/12 27/27/27 10/10/10
f 28/28/28 27/27/27 12/12/12
f 28/28/28 19/19/19 27/27/27
f 20/20/20 19/19/19 28/28/28
f 31/31/31 30/30/30 29/29/29
f 30/30/30 32/32/32 29/29/29
f 22/22/22 23/23/23 29/29/29
f 32/32/32 22/22/22 29/29/29
g pb_Mesh101124_1
f 35/35/35 34/34/34 33/33/33
f 35/35/35 36/36/36 34/34/34
f 39/39/39 38/38/38 37/37/37
f 39/39/39 40/40/40 38/38/38
f 41/41/41 36/36/36 35/35/35
f 41/41/41 42/42/42 36/36/36
f 43/43/43 40/40/40 39/39/39
f 43/43/43 44/44/44 40/40/40
f 47/47/47 46/46/46 45/45/45
f 47/47/47 48/48/48 46/46/46
f 51/51/51 50/50/50 49/49/49
f 51/51/51 52/52/52 50/50/50
f 53/53/53 46/46/46 48/48/48
f 53/53/53 54/54/54 46/46/46
f 55/55/55 51/51/51 49/49/49
f 55/55/55 56/56/56 51/51/51
f 59/59/59 58/58/58 57/57/57
f 59/59/59 57/57/57 60/60/60
f 63/63/63 62/62/62 61/61/61
f 62/62/62 64/64/64 61/61/61
f 67/67/67 66/66/66 65/65/65
f 67/67/67 68/68/68 66/66/66
f 71/71/71 70/70/70 69/69/69
f 70/70/70 72/72/72 69/69/69
f 73/73/73 59/59/59 60/60/60
f 73/73/73 60/60/60 74/74/74
f 77/77/77 76/76/76 75/75/75
f 77/77/77 78/78/78 76/76/76
f 81/81/81 80/80/80 79/79/79
f 81/81/81 79/79/79 82/82/82
f 70/70/70 83/83/83 72/72/72
f 83/83/83 84/84/84 72/72/72
f 59/59/59 85/85/85 58/58/58
f 59/59/59 86/86/86 85/85/85
f 88/88/88 87/87/87 85/85/85
f 88/88/88 85/85/85 86/86/86
f 90/90/90 89/89/89 61/61/61
f 64/64/64 90/90/90 61/61/61
f 89/89/89 90/90/90 91/91/91
f 90/90/90 92/92/92 91/91/91
f 68/68/68 93/93/93 66/66/66
f 94/94/94 93/93/93 68/68/68
f 94/94/94 95/95/95 93/93/93
f 96/96/96 95/95/95 94/94/94
f 98/98/98 97/97/97 69/69/69
f 72/72/72 98/98/98 69/69/69
f 97/97/97 98/98/98 99/99/99
f 98/98/98 100/100/100 99/99/99
f 101/101/101 86/86/86 59/59/59
f 101/101/101 59/59/59 73/73/73
f 102/102/102 86/86/86 101/101/101
f 102/102/102 88/88/88 86/86/86
f 77/77/77 103/103/103 78/78/78
f 104/104/104 103/103/103 77/77/77
f 104/104/104 105/105/105 103/103/103
f 106/106/106 105/105/105 104/104/104
f 81/81/81 107/107/107 80/80/80
f 81/81/81 108/108/108 107/107/107
f 108/108/108 109/109/109 107/107/107
f 108/108/108 110/110/110 109/109/109
f 111/111/111 98/98/98 72/72/72
f 84/84/84 111/111/111 72/72/72
f 98/98/98 111/111/111 100/100/100
f 111/111/111 112/112/112 100/100/100
f 115/115/115 114/114/114 113/113/113
f 115/115/115 113/113/113 116/116/116
f 119/119/119 118/118/118 117/117/117
f 118/118/118 120/120/120 117/117/117
f 123/123/123 122/122/122 121/121/121
f 126/126/126 125/125/125 124/124/124
f 126/126/126 127/127/127 125/125/125
f 130/130/130 129/129/129 128/128/128
f 133/133/133 132/132/132 131/131/131
f 133/133/133 134/134/134 132/132/132
f 137/137/137 136/136/136 135/135/135
f 137/137/137 138/138/138 136/136/136
f 141/141/141 140/140/140 139/139/139
f 144/144/144 143/143/143 142/142/142
f 147/147/147 146/146/146 145/145/145
f 147/147/147 148/148/148 146/146/146
f 45/45/45 46/46/46 149/149/149
f 46/46/46 150/150/150 149/149/149
f 152/152/152 151/151/151 49/49/49
f 152/152/152 49/49/49 50/50/50
f 155/155/155 154/154/154 153/153/153
f 155/155/155 156/156/156 154/154/154
f 157/157/157 156/156/156 155/155/155
f 157/157/157 155/155/155 158/158/158
f 158/158/158 159/159/159 157/157/157
f 160/160/160 159/159/159 158/158/158
f 129/129/129 162/162/162 161/161/161
f 128/128/128 129/129/129 161/161/161
f 164/164/164 161/161/161 163/163/163
f 128/128/128 161/161/161 164/164/164
f 165/165/165 121/121/121 122/122/122
f 165/165/165 166/166/166 121/121/121
f 167/167/167 165/165/165 122/122/122
f 168/168/168 165/165/165 167/167/167
f 149/149/149 150/150/150 169/169/169
f 150/150/150 170/170/170 169/169/169
f 169/169/169 170/170/170 171/171/171
f 170/170/170 172/172/172 171/171/171
f 174/174/174 173/173/173 151/151/151
f 174/174/174 151/151/151 152/152/152
f 176/176/176 175/175/175 173/173/173
f 176/176/176 173/173/173 174/174/174
f 179/179/179 178/178/178 177/177/177
f 180/180/180 178/178/178 179/179/179
f 183/183/183 182/182/182 181/181/181
f 184/184/184 182/182/182 183/183/183
f 185/185/185 178/178/178 180/180/180
f 185/185/185 180/180/180 186/186/186
f 187/187/187 182/182/182 184/184/184
f 187/187/187 188/188/188 182/182/182
f 187/187/187 189/189/189 188/188/188
f 190/190/190 189/189/189 187/187/187
f 186/186/186 191/191/191 185/185/185
f 192/192/192 191/191/191 186/186/186
f 161/161/161 162/162/162 193/193/193
f 162/162/162 194/194/194 193/193/193
f 193/193/193 194/194/194 140/140/140
f 194/194/194 139/139/139 140/140/140
f 193/193/193 195/195/195 163/163/163
f 161/161/161 193/193/193 163/163/163
f 195/195/195 193/193/193 196/196/196
f 193/193/193 140/140/140 196/196/196
f 198/198/198 197/197/197 166/166/166
f 198/198/198 166/166/166 165/165/165
f 142/142/142 143/143/143 197/197/197
f 142/142/142 197/197/197 198/198/198
f 199/199/199 198/198/198 165/165/165
f 199/199/199 165/165/165 168/168/168
f 200/200/200 142/142/142 198/198/198
f 200/200/200 198/198/198 199/199/199
