g pb_Mesh-199388
v -0.74999964 -3 0.24999985
v -0.99999964 -3 0.24999976
v -0.7499896 12 0.24999964
v -0.9999896 12 0.24999857
v -0.99999964 -3 0.24999976
v -0.9999995 -3 -2.3841858E-07
v -0.9999896 12 0.24999857
v -0.99999046 12 -1.4306497E-06
v -0.9999995 -3 -2.3841858E-07
v -0.7499995 -3 -1.4901161E-07
v -0.99999046 12 -1.4306497E-06
v -0.74999046 12 -3.577652E-07
v 1.0000005 -3 4.7683716E-07
v 1.0000004 -3 0.25000048
v 1.0000095 12 -4.769681E-07
v 1.0000104 12 0.24999952
v -0.7499896 12 0.24999964
v -0.9999896 12 0.24999857
v -0.74999046 12 -3.577652E-07
v -0.99999046 12 -1.4306497E-06
v -0.7499995 -3 -1.4901161E-07
v -0.9999995 -3 -2.3841858E-07
v -0.74999964 -3 0.24999985
v -0.99999964 -3 0.24999976
v 0.7500005 -3 3.874302E-07
v 0.75000036 -3 0.2500004
v 1.0000005 -3 4.7683716E-07
v 1.0000004 -3 0.25000048
v 0.7500019 12 3.577543E-07
v 0.7500005 -3 3.874302E-07
v 1.0000095 12 -4.769681E-07
v 1.0000005 -3 4.7683716E-07
v 0.75000036 -3 0.2500004
v 0.75000274 12 0.25000036
v 1.0000004 -3 0.25000048
v 1.0000104 12 0.24999952
v 0.75000274 12 0.25000036
v 0.7500019 12 3.577543E-07
v 1.0000104 12 0.24999952
v 1.0000095 12 -4.769681E-07
v -0.74999964 -3 0.24999985
v -0.7499896 12 0.24999964
v -0.7499995 -3 -1.4901161E-07
v -0.74999046 12 -3.577652E-07
v 0.75000274 12 0.25000036
v 0.75000036 -3 0.2500004
v 0.7500019 12 3.577543E-07
v 0.7500005 -3 3.874302E-07
v -0.7499996 -3 0.12499985
v -0.74999005 12 0.12499964
v 0.7500004 -3 0.12500039
v 0.7500023 12 0.12500036
vt -0.7499996 -3
vt -0.9999996 -3
vt -0.74998957 12
vt -0.99998957 12
vt -1.8749998 -3.0000007
vt -2.1249998 -3.0000007
vt -1.875001 11.999999
vt -2.125001 11.999999
vt 0.9999995 -3
vt 0.7499995 -3
vt 0.99999046 12
vt 0.74999046 12
vt 2.125 -2.9999993
vt 1.875 -2.9999993
vt 2.125001 12.000001
vt 1.875001 12.000001
vt 0.7499896 -1.8750004
vt 0.9999896 -1.8750014
vt 0.74999046 -2.1250005
vt 0.99999046 -2.1250014
vt -0.7499995 -2.1250002
vt -0.9999995 -2.1250002
vt -0.74999964 -1.8750001
vt -0.99999964 -1.8750002
vt 0.7500005 -2.1249995
vt 0.75000036 -1.8749996
vt 1.0000005 -2.1249995
vt 1.0000004 -1.8749995
vt -0.7500019 12
vt -0.7500005 -3
vt -1.0000095 12
vt -1.0000005 -3
vt 0.7500005 -3
vt 0.75000286 12
vt 1.0000005 -3
vt 1.0000105 12
vt -0.75000274 -1.8749996
vt -0.7500019 -2.1249995
vt -1.0000104 -1.8750005
vt -1.0000095 -2.1250005
vt 1.8749998 -3.0000005
vt 1.875 11.999999
vt 2.1249998 -3.0000005
vt 2.125 11.999999
vt -1.8749971 12
vt -1.8749971 -3
vt -2.1249971 12
vt -2.1249971 -2.9999998
vt -0.7499995 -3
vt -0.74999 12
vt 0.7500005 -3
vt 0.7500024 12
vn -3.5762787E-07 1.3907989E-08 1
vn -2.3245811E-06 4.669186E-08 1
vn -2.3245811E-06 4.669186E-08 1
vn -4.2915344E-06 7.9475726E-08 1
vn -1 6.6757195E-07 -4.7683716E-07
vn -1 6.3578295E-07 1.4305115E-06
vn -1 6.3578295E-07 1.4305115E-06
vn -1 6.0399395E-07 3.33786E-06
vn 3.5762787E-07 -7.948229E-08 -1
vn 2.3245832E-06 -4.6700894E-08 -1
vn 2.3245832E-06 -4.6700894E-08 -1
vn 4.2915385E-06 -1.3919498E-08 -1
vn 1 -6.0399367E-07 4.7683716E-07
vn 1 -6.3578295E-07 -1.4305115E-06
vn 1 -6.3578295E-07 -1.4305115E-06
vn 1 -6.6757224E-07 -3.33786E-06
vn -0 1 0
vn -0 1 0
vn -0 1 0
vn -0 1 0
vn -0 -1 0
vn -0 -1 0
vn -0 -1 0
vn -0 -1 0
vn -0 -1 0
vn -0 -1 0
vn -0 -1 0
vn -0 -1 0
vn -3.3387878E-06 -1.978075E-09 -1
vn -1.49058E-06 -3.278265E-08 -1
vn -1.49058E-06 -3.278265E-08 -1
vn 3.5762787E-07 -6.358723E-08 -1
vn -3.5762787E-07 1.9868784E-09 1
vn 1.4900652E-06 3.2781468E-08 1
vn 1.4900652E-06 3.2781468E-08 1
vn 3.3377582E-06 6.357606E-08 1
vn -0 1 0
vn -0 1 0
vn -0 1 0
vn -0 1 0
vn 1 -6.67572E-07 4.7683716E-07
vn 1 -6.357829E-07 -1.4305115E-06
vn 1 -6.357829E-07 -1.4305115E-06
vn 1 -6.039938E-07 -3.33786E-06
vn -1 1.5894572E-07 3.33786E-06
vn -1 1.2715658E-07 1.4305115E-06
vn -1 1.2715658E-07 1.4305115E-06
vn -1 9.536743E-08 -4.7683716E-07
vn -3.5762787E-07 1.3907978E-08 1
vn -4.1723374E-07 7.94743E-09 1
vn -4.1723374E-07 7.94743E-09 1
vn -4.768396E-07 1.9868822E-09 1
g pb_Mesh-199388_0
f 3/3/3 2/2/2 1/1/1
f 3/3/3 4/4/4 2/2/2
f 7/7/7 6/6/6 5/5/5
f 7/7/7 8/8/8 6/6/6
f 11/11/11 10/10/10 9/9/9
f 11/11/11 12/12/12 10/10/10
f 15/15/15 14/14/14 13/13/13
f 15/15/15 16/16/16 14/14/14
f 19/19/19 18/18/18 17/17/17
f 19/19/19 20/20/20 18/18/18
f 23/23/23 22/22/22 21/21/21
f 23/23/23 24/24/24 22/22/22
f 27/27/27 26/26/26 25/25/25
f 27/27/27 28/28/28 26/26/26
f 31/31/31 30/30/30 29/29/29
f 31/31/31 32/32/32 30/30/30
f 35/35/35 34/34/34 33/33/33
f 35/35/35 36/36/36 34/34/34
f 39/39/39 38/38/38 37/37/37
f 39/39/39 40/40/40 38/38/38
f 43/43/43 42/42/42 41/41/41
f 43/43/43 44/44/44 42/42/42
f 47/47/47 46/46/46 45/45/45
f 47/47/47 48/48/48 46/46/46
g pb_Mesh-199388_1
f 51/51/51 50/50/50 49/49/49
f 51/51/51 52/52/52 50/50/50
