g pb_Mesh-119930
v -0.74999964 -8 0.12499985
v -0.99999964 -8 0.12499976
v -0.7500007 8 0.12500167
v -1.0000007 8 0.12500167
v -0.99999964 -8 0.12499976
v -0.9999995 -8 -0.12500024
v -1.0000007 8 0.12500167
v -1.0000007 8 -0.12499833
v -0.9999995 -8 -0.12500024
v -0.7499995 -8 -0.12500015
v -1.0000007 8 -0.12499833
v -0.7500007 8 -0.124998316
v 1.0000005 -8 -0.12499952
v 1.0000004 -8 0.12500048
v 0.9999993 8 -0.12499821
v 0.9999993 8 0.12500179
v -0.7500007 8 0.12500167
v -1.0000007 8 0.12500167
v -0.7500007 8 -0.124998316
v -1.0000007 8 -0.12499833
v -0.7499995 -8 -0.12500015
v -0.9999995 -8 -0.12500024
v -0.74999964 -8 0.12499985
v -0.99999964 -8 0.12499976
v 0.7500005 -8 -0.12499961
v 0.75000036 -8 0.12500039
v 1.0000005 -8 -0.12499952
v 1.0000004 -8 0.12500048
v 0.7499993 8 -0.12499823
v 0.7500005 -8 -0.12499961
v 0.9999993 8 -0.12499821
v 1.0000005 -8 -0.12499952
v 0.75000036 -8 0.12500039
v 0.7499993 8 0.12500179
v 1.0000004 -8 0.12500048
v 0.9999993 8 0.12500179
v 0.7499993 8 0.12500179
v 0.7499993 8 -0.12499823
v 0.9999993 8 0.12500179
v 0.9999993 8 -0.12499821
v -0.74999964 -8 0.12499985
v -0.7500007 8 0.12500167
v -0.7499995 -8 -0.12500015
v -0.7500007 8 -0.124998316
v 0.7499993 8 0.12500179
v 0.75000036 -8 0.12500039
v 0.7499993 8 -0.12499823
v 0.7500005 -8 -0.12499961
v -0.7499996 -8 -1.4901161E-07
v -0.7500007 8 1.6838312E-06
v 0.7500004 -8 3.874302E-07
v 0.7499993 8 1.7732382E-06
vt -0.7499996 -8
vt -0.9999996 -8
vt -0.75000066 8
vt -1.0000007 8
vt -1.9999998 -8
vt -2.2499998 -8
vt -1.9999979 8
vt -2.2499979 8
vt 0.9999996 -8
vt 0.7499996 -8
vt 1.0000007 8
vt 0.7500008 8
vt 2.25 -8
vt 2 -8
vt 2.2499986 8
vt 1.9999987 8
vt 0.7500007 -1.9999983
vt 1.0000007 -1.9999983
vt 0.7500007 -2.2499983
vt 1.0000007 -2.2499983
vt -0.7499995 -2.2500002
vt -0.9999995 -2.2500002
vt -0.74999964 -2.0000002
vt -0.99999964 -2.0000002
vt 0.7500005 -2.2499995
vt 0.75000036 -1.9999996
vt 1.0000005 -2.2499995
vt 1.0000004 -1.9999995
vt -0.7499993 8
vt -0.7500005 -8
vt -0.9999993 8
vt -1.0000005 -8
vt 0.7500004 -8
vt 0.74999934 8
vt 1.0000004 -8
vt 0.99999934 8
vt -0.7499993 -1.9999982
vt -0.7499993 -2.2499983
vt -0.9999993 -1.9999982
vt -0.9999993 -2.249998
vt 1.9999998 -8
vt 1.999998 8
vt 2.2499998 -8
vt 2.2499979 8
vt -1.9999982 8
vt -1.9999996 -8
vt -2.2499983 8
vt -2.2499995 -8
vt -0.7499996 -8
vt -0.7500007 8
vt 0.7500004 -8
vt 0.7499993 8
vn -3.5762787E-07 -1.13621375E-07 1
vn -1.7881393E-07 -1.16415336E-07 1
vn -1.7881393E-07 -1.16415336E-07 1
vn -0 -1.1920929E-07 1
vn -1 -6.705517E-08 -4.7683716E-07
vn -1 -7.078049E-08 -2.3841858E-07
vn -1 -7.078049E-08 -2.3841858E-07
vn -1 -7.4505806E-08 0
vn 3.5762787E-07 1.1920932E-07 -1
vn 2.0861626E-07 1.16881E-07 -1
vn 2.0861626E-07 1.16881E-07 -1
vn 5.9604645E-08 1.14552684E-07 -1
vn 1 7.450576E-08 4.7683716E-07
vn 1 7.0780494E-08 2.3841858E-07
vn 1 7.0780494E-08 2.3841858E-07
vn 1 6.7055225E-08 0
vn -0 1 0
vn -0 1 0
vn -0 1 0
vn -0 1 0
vn -0 -1 0
vn -0 -1 0
vn -0 -1 0
vn -0 -1 0
vn -0 -1 0
vn -0 -1 0
vn -0 -1 0
vn -0 -1 0
vn 5.9604645E-08 8.661301E-08 -1
vn 2.0861626E-07 8.428471E-08 -1
vn 2.0861626E-07 8.428471E-08 -1
vn 3.5762787E-07 8.1956415E-08 -1
vn -3.5762787E-07 -8.754434E-08 1
vn -1.7881393E-07 -8.475037E-08 1
vn -1.7881393E-07 -8.475037E-08 1
vn -0 -8.195639E-08 1
vn -0 1 0
vn -0 1 0
vn -0 1 0
vn -0 1 0
vn 1 6.705517E-08 4.7683716E-07
vn 1 7.078049E-08 2.3841858E-07
vn 1 7.078049E-08 2.3841858E-07
vn 1 7.4505806E-08 0
vn -1 -6.7055225E-08 0
vn -1 -7.0780494E-08 -2.3841858E-07
vn -1 -7.0780494E-08 -2.3841858E-07
vn -1 -7.450576E-08 -4.7683716E-07
vn -3.5762787E-07 -1.14552705E-07 1
vn -2.0861626E-07 -1.0058285E-07 1
vn -2.0861626E-07 -1.0058285E-07 1
vn -5.9604645E-08 -8.6613E-08 1
g pb_Mesh-119930_0
f 3/3/3 2/2/2 1/1/1
f 3/3/3 4/4/4 2/2/2
f 7/7/7 6/6/6 5/5/5
f 7/7/7 8/8/8 6/6/6
f 11/11/11 10/10/10 9/9/9
f 11/11/11 12/12/12 10/10/10
f 15/15/15 14/14/14 13/13/13
f 15/15/15 16/16/16 14/14/14
f 19/19/19 18/18/18 17/17/17
f 19/19/19 20/20/20 18/18/18
f 23/23/23 22/22/22 21/21/21
f 23/23/23 24/24/24 22/22/22
f 27/27/27 26/26/26 25/25/25
f 27/27/27 28/28/28 26/26/26
f 31/31/31 30/30/30 29/29/29
f 31/31/31 32/32/32 30/30/30
f 35/35/35 34/34/34 33/33/33
f 35/35/35 36/36/36 34/34/34
f 39/39/39 38/38/38 37/37/37
f 39/39/39 40/40/40 38/38/38
f 43/43/43 42/42/42 41/41/41
f 43/43/43 44/44/44 42/42/42
f 47/47/47 46/46/46 45/45/45
f 47/47/47 48/48/48 46/46/46
g pb_Mesh-119930_1
f 51/51/51 50/50/50 49/49/49
f 51/51/51 52/52/52 50/50/50
