g pb_Mesh70276
v -2.6637115 7 2.114654
v -2.6637099 7 1.6146542
v -2.6637099 7.5 1.6146542
v -2.6637115 7.5 2.114654
v 3.9999726 7.5 1.6146528
v 3.9998367 7 2.1146529
v 3.9998367 7.5 2.1146529
v 3.9999726 7 1.6146528
v 3.9998367 7 2.1146529
v 3.4102736 7 2.114653
v 3.4102736 7.5 2.114653
v 3.9998367 7.5 2.1146529
v 3.4100056 4.75 -15.024302
v 4.0005016 4.25 -15.024253
v 4.0005016 4.75 -15.024253
v 3.4100056 4.25 -15.024302
v 3.4099417 7.5 1.6146533
v 3.9998367 7.5 2.1146529
v 3.4102736 7.5 2.114653
v 3.9999726 7.5 1.6146528
v 3.9998367 -11.43 2.1146524
v 3.999972 -11.43 1.6146524
v 3.4099414 -11.43 1.6146524
v 3.4102714 -11.43 2.1146524
v -2.1637096 7 2.1146538
v -2.1637096 7.5 2.1146538
v -2.6637115 7 2.114654
v -2.6637115 7.5 2.114654
v -2.16321 4.75 -15.024766
v -2.16321 4.25 -15.024766
v -2.6632137 4.75 -15.024808
v -2.6632137 4.25 -15.024808
v -2.1637118 7.5 1.6146537
v -2.6637115 7.5 2.114654
v -2.6637099 7.5 1.6146542
v -2.1637096 7.5 2.1146538
v -2.6637065 -11.43 2.114653
v -2.1637065 -11.43 2.114653
v -2.1637065 -11.43 1.614653
v -2.663707 -11.43 1.6146531
v -2.1637096 7 2.1146538
v 3.4102736 7 2.114653
v 3.4099417 7 1.6146533
v -2.1637118 7 1.6146537
v -2.6632135 4.25 -14.524808
v -2.6632137 4.25 -15.024808
v -2.6632137 4.75 -15.024808
v -2.6632135 4.75 -14.524808
v 4.0005016 4.75 -15.024253
v 4.0004864 4.25 -14.524253
v 4.0004864 4.75 -14.524253
v 4.0005016 4.25 -15.024253
v 3.4100056 4.75 -15.024302
v 4.0004864 4.75 -14.524253
v 3.4102232 4.75 -14.524302
v 4.0005016 4.75 -15.024253
v 4.0004826 -11.43 -14.524253
v 4.000498 -11.43 -15.024253
v 3.4100018 -11.43 -15.024302
v 3.4102194 -11.43 -14.524302
v -2.6632137 4.75 -15.024808
v -2.16321 4.75 -15.024766
v -2.1632097 4.75 -14.524766
v -2.6632135 4.75 -14.524808
v -2.6632059 -11.43 -14.524808
v -2.1632059 -11.43 -14.524766
v -2.663206 -11.43 -15.024808
v -2.163206 -11.43 -15.024766
v 3.4102232 4.25 -14.524302
v 3.4100056 4.25 -15.024302
v -2.1632097 4.25 -14.524766
v -2.16321 4.25 -15.024766
v 3.9998367 7 2.1146529
v 3.9999726 7 1.6146528
v 3.9998367 -11.43 2.1146524
v 3.999972 -11.43 1.6146524
v 3.9999726 7 1.6146528
v 3.4099417 7 1.6146533
v 3.999972 -11.43 1.6146524
v 3.4099414 -11.43 1.6146524
v 3.4102714 -11.43 2.1146524
v 3.9998367 -11.43 2.1146524
v 3.4099417 7 1.6146533
v 3.4102736 7 2.114653
v 3.4099414 -11.43 1.6146524
v 3.4102714 -11.43 2.1146524
v -2.6637065 -11.43 2.114653
v -2.1637065 -11.43 2.114653
v -2.1637096 7 2.1146538
v -2.1637118 7 1.6146537
v -2.1637065 -11.43 2.114653
v -2.1637065 -11.43 1.614653
v -2.6637099 7 1.6146542
v -2.6637115 7 2.114654
v -2.663707 -11.43 1.6146531
v -2.6637065 -11.43 2.114653
v -2.1637118 7 1.6146537
v -2.6637099 7 1.6146542
v -2.1637065 -11.43 1.614653
v -2.663707 -11.43 1.6146531
v 4.0004864 4.25 -14.524253
v 4.0005016 4.25 -15.024253
v 4.0004826 -11.43 -14.524253
v 4.000498 -11.43 -15.024253
v 4.000498 -11.43 -15.024253
v 3.4100018 -11.43 -15.024302
v 3.4102232 4.25 -14.524302
v 4.0004864 4.25 -14.524253
v 3.4102194 -11.43 -14.524302
v 4.0004826 -11.43 -14.524253
v 3.4100056 4.25 -15.024302
v 3.4102232 4.25 -14.524302
v 3.4100018 -11.43 -15.024302
v 3.4102194 -11.43 -14.524302
v -2.6632135 4.25 -14.524808
v -2.1632097 4.25 -14.524766
v -2.6632059 -11.43 -14.524808
v -2.1632059 -11.43 -14.524766
v -2.6632137 4.25 -15.024808
v -2.6632135 4.25 -14.524808
v -2.663206 -11.43 -15.024808
v -2.6632059 -11.43 -14.524808
v -2.1632097 4.25 -14.524766
v -2.16321 4.25 -15.024766
v -2.1632059 -11.43 -14.524766
v -2.163206 -11.43 -15.024766
v -2.163206 -11.43 -15.024766
v -2.663206 -11.43 -15.024808
v -2.6637137 7 -3.4175093
v -2.6637137 7.5 -3.4175093
v 3.9999764 7.5 -3.4177852
v 3.9999726 7 1.6146528
v 3.9999726 7.5 1.6146528
v 3.9999764 7 -3.4177852
v 3.409833 7.5 -3.4177687
v 3.9999764 7.5 -3.4177852
v 3.9999726 7 1.6146528
v 3.9999764 7 -3.4177852
v 3.409833 7 -3.4177687
v -2.6637137 7.5 -3.4175093
v -2.1637065 7.5 -3.4175224
v -2.6637099 7 1.6146542
v -2.6637137 7 -3.4175093
v -2.1637065 7 -3.4175224
v -2.6637137 7 -3.4175093
v -2.582872 4.25 -9.797129
v -2.582872 4.75 -9.797129
v -2.6637137 7.5 -3.4175093
v -2.582872 4.25 -9.797129
v -2.6632135 4.25 -14.524808
v -2.6632135 4.75 -14.524808
v -2.582872 4.75 -9.797129
v 4.066551 4.75 -9.65071
v 3.9999764 7 -3.4177852
v 3.9999764 7.5 -3.4177852
v 4.066551 4.25 -9.65071
v 4.0004864 4.75 -14.524253
v 4.066551 4.25 -9.65071
v 4.066551 4.75 -9.65071
v 4.0004864 4.25 -14.524253
v 3.409833 7.5 -3.4177687
v 3.4819098 4.75 -9.707754
v 3.9999764 7.5 -3.4177852
v 4.066551 4.75 -9.65071
v 3.4819098 4.75 -9.707754
v 4.066551 4.75 -9.65071
v 3.9999764 7 -3.4177852
v 4.066551 4.25 -9.65071
v 3.4819098 4.25 -9.707754
v 3.409833 7 -3.4177687
v 4.066551 4.25 -9.65071
v 4.0004864 4.25 -14.524253
v 3.4819098 4.25 -9.707754
v -2.582872 4.75 -9.797129
v -2.0875814 4.75 -9.748802
v -2.6637137 7.5 -3.4175093
v -2.582872 4.75 -9.797129
v -2.1637065 7.5 -3.4175224
v -2.0875814 4.75 -9.748802
v -2.1637065 7.5 -3.4175224
v -2.0875814 4.75 -9.748802
v 3.409833 7.5 -3.4177687
v 3.4819098 4.75 -9.707754
v -2.0875814 4.25 -9.748802
v -2.582872 4.25 -9.797129
v -2.6632135 4.25 -14.524808
v -2.1637065 7 -3.4175224
v -2.0875814 4.25 -9.748802
v -2.582872 4.25 -9.797129
v -2.6637137 7 -3.4175093
v 3.409833 7 -3.4177687
v 3.4819098 4.25 -9.707754
v -2.0875814 4.25 -9.748802
v -2.1637065 7 -3.4175224
vt 2.1123526 7
vt 1.6123528 7
vt 1.6123528 7.5
vt 2.1123526 7.5
vt -1.6167094 7.5
vt -2.1167095 7
vt -2.1167095 7.5
vt -1.6167094 7
vt 3.999836 7
vt 3.4102728 7
vt 3.4102728 7.5
vt 3.999836 7.5
vt -3.4087555 4.75
vt -3.9992516 4.25
vt -3.9992516 4.75
vt -3.4087555 4.25
vt -3.4099615 2.214868
vt -3.9998565 2.7132356
vt -3.4102933 2.7132359
vt -3.9999924 2.2148674
vt 3.9998367 2.1146524
vt 3.999972 1.6146524
vt 3.4099414 1.6146524
vt 3.4102714 2.1146524
vt -2.1637104 7
vt -2.1637104 7.5
vt -2.6637123 7
vt -2.6637123 7.5
vt 2.1644602 4.75
vt 2.1644602 4.25
vt 2.664464 4.75
vt 2.664464 4.25
vt 2.163692 2.2148697
vt 2.6636918 2.7132382
vt 2.66369 2.2148702
vt 2.1636899 2.7132378
vt -2.6637065 2.114653
vt -2.1637065 2.114653
vt -2.1637065 1.614653
vt -2.663707 1.6146531
vt -2.2164545 2.8772793
vt 3.35737 2.8819494
vt 3.357038 2.3850434
vt -2.2164567 2.3803735
vt -14.527103 4.25
vt -15.027102 4.25
vt -15.027102 4.75
vt -14.527103 4.75
vt 15.022194 4.75
vt 14.522194 4.25
vt 14.522194 4.75
vt 15.022194 4.25
vt -3.4100182 -14.591786
vt -4.000499 -14.09337
vt -3.410236 -14.093418
vt -4.000514 -14.591738
vt 4.0004826 -14.524253
vt 4.000498 -15.024253
vt 3.4100018 -15.024302
vt 3.4102194 -14.524302
vt 2.663201 -14.59229
vt 2.1631973 -14.592248
vt 2.163197 -14.093881
vt 2.6632009 -14.093922
vt -2.6632059 -14.524808
vt -2.1632059 -14.524766
vt -2.663206 -15.024808
vt -2.163206 -15.024766
vt 3.378065 -13.959494
vt 3.3778474 -14.4564
vt -2.195209 -13.964626
vt -2.1952093 -14.461532
vt -2.1135657 7
vt -1.6135656 7
vt -2.1135652 -11.43
vt -1.6135652 -11.43
vt -3.999971 7
vt -3.40994 7
vt -3.9999704 -11.43
vt -3.4099398 -11.43
vt 3.4102705 -11.43
vt 3.9998357 -11.43
vt 1.6169164 7
vt 2.1169164 7
vt 1.6169155 -11.43
vt 2.1169157 -11.43
vt -2.6637075 -11.43
vt -2.1637075 -11.43
vt -2.1146445 7.0000005
vt -1.6146444 7.0000005
vt -2.1146438 -11.43
vt -1.6146437 -11.43
vt 1.6146631 7.0000005
vt 2.114663 7.0000005
vt 1.614662 -11.43
vt 2.114662 -11.43
vt 2.1637132 7
vt 2.6637113 7
vt 2.163708 -11.43
vt 2.6637084 -11.43
vt 14.524375 4.250001
vt 15.024375 4.250001
vt 14.524375 -11.429999
vt 15.024375 -11.429999
vt -3.9992604 -11.43
vt -3.4087644 -11.43
vt 3.4090264 4.25
vt 3.9992895 4.25
vt 3.4090226 -11.43
vt 3.9992857 -11.43
vt -15.022815 4.250001
vt -14.522815 4.250001
vt -15.022815 -11.429999
vt -14.522815 -11.429999
vt -2.6644325 4.25
vt -2.1644287 4.25
vt -2.664425 -11.43
vt -2.164425 -11.43
vt -15.024809 4.2500014
vt -14.524809 4.2500014
vt -15.024809 -11.429999
vt -14.524809 -11.429999
vt 14.524767 4.2500005
vt 15.024767 4.2500005
vt 14.524767 -11.429999
vt 15.024767 -11.429999
vt 2.164467 -11.43
vt 2.664467 -11.43
vt -3.4198089 7
vt -3.4198089 7.5
vt 3.4157279 7.5
vt -1.6167094 7
vt -1.6167094 7.5
vt 3.4157279 7
vt -3.4098527 -2.8011274
vt -3.9999962 -2.801144
vt 3.9470522 2.3855374
vt 3.947056 -2.6157582
vt 3.3569293 -2.6162364
vt 2.663694 -2.8008676
vt 2.1636868 -2.8008807
vt -2.7164404 2.3799548
vt -2.7164443 -2.621068
vt -2.2164514 -2.620662
vt -3.4198089 7
vt -9.799356 4.25
vt -9.799356 4.75
vt -3.4198089 7.5
vt -9.799356 4.25
vt -14.527103 4.25
vt -14.527103 4.75
vt -9.799356 4.75
vt 9.648618 4.75
vt 3.4157279 7
vt 3.4157279 7.5
vt 9.648618 4.25
vt 14.522194 4.75
vt 9.648618 4.25
vt 9.648618 4.75
vt 14.522194 4.25
vt -3.4098527 -2.8011274
vt -3.4819224 -9.292593
vt -3.9999962 -2.801144
vt -4.0665636 -9.235735
vt -3.4819224 -9.292593
vt -4.0665636 -9.235735
vt 3.947056 -2.6157582
vt 4.034374 -9.115512
vt 3.4497495 -9.172693
vt 3.3569293 -2.6162364
vt 4.034374 -9.115512
vt 3.9683113 -13.958951
vt 3.4497495 -9.172693
vt 2.5828593 -9.381675
vt 2.0875688 -9.333506
vt 2.663694 -2.8008676
vt 2.5828593 -9.381675
vt 2.1636868 -2.8008807
vt 2.0875688 -9.333506
vt 2.1636868 -2.8008807
vt 2.0875688 -9.333506
vt -3.4098527 -2.8011274
vt -3.4819224 -9.292593
vt -2.119583 -9.218154
vt -2.6148593 -9.266597
vt -2.6951985 -13.965087
vt -2.2164514 -2.620662
vt -2.119583 -9.218154
vt -2.6148593 -9.266597
vt -2.7164443 -2.621068
vt 3.3569293 -2.6162364
vt 3.4497495 -9.172693
vt -2.119583 -9.218154
vt -2.2164514 -2.620662
vn -1 0 -3.337861E-06
vn -1 0 -3.337861E-06
vn -1 0 -3.337861E-06
vn -1 0 -3.337861E-06
vn 1 0 0.00027179712
vn 1 0 0.00027179712
vn 1 0 0.00027179712
vn 1 0 0.00027179712
vn 4.0439872E-07 0 1
vn 4.0439872E-07 0 1
vn 4.0439872E-07 0 1
vn 4.0439872E-07 0 1
vn 8.2367E-05 0 -1
vn 8.2367E-05 0 -1
vn 8.2367E-05 0 -1
vn 8.2367E-05 0 -1
vn -0 1 0
vn -0 1 0
vn -0 1 0
vn -0 1 0
vn -0 -1 0
vn -0 -1 0
vn -0 -1 0
vn -0 -1 0
vn 1.283204E-07 0 1
vn 1.283204E-07 0 1
vn 4.7683534E-07 0 1
vn 4.7683534E-07 0 1
vn 8.333419E-05 0 -1
vn 8.333419E-05 0 -1
vn 8.39227E-05 0 -1
vn 8.39227E-05 0 -1
vn -0 1 0
vn -0 1 0
vn -0 1 0
vn -0 1 0
vn -0 -1 0
vn -0 -1 0
vn -0 -1 0
vn -0 -1 0
vn -0 -1 0
vn -0 -1 0
vn -0 -1 0
vn -0 -1 0
vn -1 0 4.7683716E-07
vn -1 0 4.7683716E-07
vn -1 0 4.7683716E-07
vn -1 0 4.7683716E-07
vn 1 0 3.0517578E-05
vn 1 0 3.0517578E-05
vn 1 0 3.0517578E-05
vn 1 0 3.0517578E-05
vn -0 1 0
vn -0 1 0
vn -0 1 0
vn -0 1 0
vn -0 -1 0
vn -0 -1 0
vn -0 -1 0
vn -0 -1 0
vn -0 1 0
vn -0 1 0
vn -0 1 0
vn -0 1 0
vn -0 -1 0
vn -0 -1 0
vn -0 -1 0
vn -0 -1 0
vn -0 -1 0
vn -0 -1 0
vn -0 -1 0
vn -0 -1 0
vn 1 -7.032174E-12 0.00027179712
vn 1 -1.2942583E-08 0.0002713203
vn 1 -1.2942583E-08 0.0002713203
vn 1 -2.5878133E-08 0.0002708435
vn -1.0101953E-06 1.9404686E-08 -1
vn -5.0509766E-07 3.557522E-08 -1
vn -5.0509766E-07 3.557522E-08 -1
vn -0 5.1745754E-08 -1
vn 2.0219937E-07 -3.234112E-08 1
vn -0 -2.5872879E-08 1
vn -0.9999998 1.290209E-08 0.00066375756
vn -0.9999998 6.4652205E-08 0.00066185003
vn -0.9999998 6.4652205E-08 0.00066185003
vn -0.9999998 1.1640232E-07 0.0006599425
vn 2.3841767E-07 -4.5277474E-08 1
vn -0 -3.880932E-08 1
vn 1 1.6817388E-07 -4.2915335E-06
vn 1 2.2638778E-07 -2.1457668E-06
vn 1 2.2638778E-07 -2.1457668E-06
vn 1 2.8460167E-07 0
vn -1 -1.5523707E-07 -3.337861E-06
vn -1 -2.1345117E-07 -1.1920934E-06
vn -1 -2.1345117E-07 -1.1920934E-06
vn -1 -2.7166527E-07 9.536743E-07
vn -9.53678E-07 3.880905E-08 -1
vn -5.9604815E-07 4.8511495E-08 -1
vn -5.9604815E-07 4.8511495E-08 -1
vn -2.3841835E-07 5.8213942E-08 -1
vn 1 -2.4328426E-07 3.0517578E-05
vn 1 -2.4328426E-07 3.0517578E-05
vn 1 -2.4328426E-07 3.0517578E-05
vn 1 -2.4328426E-07 3.0517578E-05
vn 8.2367E-05 -2.0038594E-11 -1
vn 8.2367E-05 -2.0038594E-11 -1
vn -8.23995E-05 2.0046503E-11 1
vn -8.23995E-05 2.0046503E-11 1
vn -8.23995E-05 2.0046503E-11 1
vn -8.23995E-05 2.0046503E-11 1
vn -0.9999999 2.4328423E-07 0.00043535227
vn -0.9999999 2.4328423E-07 0.00043535227
vn -0.9999999 2.4328423E-07 0.00043535227
vn -0.9999999 2.4328423E-07 0.00043535227
vn -8.392271E-05 -4.0834145E-11 1
vn -8.392303E-05 -3.0625686E-11 1
vn -8.392303E-05 -3.0625686E-11 1
vn -8.392335E-05 -2.0417227E-11 1
vn -1 -4.865685E-07 4.7683716E-07
vn -1 -4.865685E-07 4.7683716E-07
vn -1 -4.865685E-07 4.7683716E-07
vn -1 -4.865685E-07 4.7683716E-07
vn 1 2.4328426E-07 -4.7683716E-07
vn 1 2.4328426E-07 -4.7683716E-07
vn 1 2.4328426E-07 -4.7683716E-07
vn 1 2.4328426E-07 -4.7683716E-07
vn 8.392303E-05 3.0625762E-11 -1
vn 8.392335E-05 4.0834454E-11 -1
vn -1 0 7.5806304E-07
vn -1 0 7.5806304E-07
vn 1 0 7.5802177E-07
vn 1 0 7.5802177E-07
vn 1 0 7.5802177E-07
vn 1 0 7.5802177E-07
vn -0 1 0
vn -0 1 0
vn -0 -1 0
vn -0 -1 0
vn -0 -1 0
vn -0 1 0
vn -0 1 0
vn -0 -1 0
vn -0 -1 0
vn -0 -1 0
vn -0.9999197 0 -0.012670863
vn -0.9999197 0 -0.012670863
vn -0.9999197 0 -0.012670863
vn -0.9999197 0 -0.012670863
vn -0.99985564 0 0.01699142
vn -0.99985564 0 0.01699142
vn -0.99985564 0 0.01699142
vn -0.99985564 0 0.01699142
vn 0.99994296 0 0.010680541
vn 0.99994296 0 0.010680541
vn 0.99994296 0 0.010680541
vn 0.99994296 0 0.010680541
vn 0.99990815 0 -0.0135545675
vn 0.99990815 0 -0.0135545675
vn 0.99990815 0 -0.0135545675
vn 0.99990815 0 -0.0135545675
vn -1.116689E-05 0.9162572 -0.40059048
vn 0.019654896 0.9153063 -0.40179452
vn 0.019654896 0.9153063 -0.40179452
vn 0.03932096 0.9143555 -0.40299857
vn -0 1 0
vn -0 1 0
vn -0.019654896 -0.9153063 0.40179452
vn -0.03932096 -0.9143555 0.40299857
vn -0.019654896 -0.9153063 0.40179452
vn 1.116689E-05 -0.9162572 0.40059048
vn -0 -1 0
vn -0 -1 0
vn -0 -1 0
vn -0 1 0
vn -0 1 0
vn -1.03814145E-05 0.9183155 -0.39584938
vn 0.019397045 0.91750485 -0.3967751
vn 0.019397045 0.91750485 -0.3967751
vn 0.03880447 0.9166942 -0.39770082
vn -1.7604418E-05 0.9172146 -0.3983936
vn 0.0014672945 0.9167402 -0.3994769
vn 0.0014672945 0.9167402 -0.3994769
vn 0.0029521934 0.9162657 -0.4005602
vn -0 -1 0
vn -0 -1 0
vn -0 -1 0
vn -0.019397045 -0.91750485 0.3967751
vn -0.03880447 -0.9166942 0.39770082
vn -0.019397045 -0.91750485 0.3967751
vn 1.03814145E-05 -0.9183155 0.39584938
vn -0.0014672945 -0.9167402 0.3994769
vn -0.0029521934 -0.9162657 0.4005602
vn -0.0014672945 -0.9167402 0.3994769
vn 1.7604418E-05 -0.9172146 0.3983936
g pb_Mesh70276_0
f 3/3/3 2/2/2 1/1/1
f 3/3/3 1/1/1 4/4/4
f 7/7/7 6/6/6 5/5/5
f 6/6/6 8/8/8 5/5/5
f 11/11/11 10/10/10 9/9/9
f 11/11/11 9/9/9 12/12/12
f 15/15/15 14/14/14 13/13/13
f 14/14/14 16/16/16 13/13/13
f 19/19/19 18/18/18 17/17/17
f 18/18/18 20/20/20 17/17/17
f 23/23/23 22/22/22 21/21/21
f 23/23/23 21/21/21 24/24/24
f 25/25/25 10/10/10 11/11/11
f 26/26/26 25/25/25 11/11/11
f 27/27/27 25/25/25 26/26/26
f 28/28/28 27/27/27 26/26/26
f 13/13/13 30/30/30 29/29/29
f 13/13/13 16/16/16 30/30/30
f 29/29/29 32/32/32 31/31/31
f 29/29/29 30/30/30 32/32/32
f 35/35/35 34/34/34 33/33/33
f 34/34/34 36/36/36 33/33/33
f 33/33/33 36/36/36 17/17/17
f 36/36/36 19/19/19 17/17/17
f 39/39/39 38/38/38 37/37/37
f 39/39/39 37/37/37 40/40/40
f 43/43/43 42/42/42 41/41/41
f 43/43/43 41/41/41 44/44/44
f 47/47/47 46/46/46 45/45/45
f 47/47/47 45/45/45 48/48/48
f 51/51/51 50/50/50 49/49/49
f 50/50/50 52/52/52 49/49/49
f 55/55/55 54/54/54 53/53/53
f 54/54/54 56/56/56 53/53/53
f 59/59/59 58/58/58 57/57/57
f 59/59/59 57/57/57 60/60/60
f 63/63/63 62/62/62 61/61/61
f 64/64/64 63/63/63 61/61/61
f 63/63/63 53/53/53 62/62/62
f 55/55/55 53/53/53 63/63/63
f 67/67/67 66/66/66 65/65/65
f 67/67/67 68/68/68 66/66/66
f 71/71/71 70/70/70 69/69/69
f 72/72/72 70/70/70 71/71/71
f 75/75/75 74/74/74 73/73/73
f 75/75/75 76/76/76 74/74/74
f 79/79/79 78/78/78 77/77/77
f 79/79/79 80/80/80 78/78/78
f 81/81/81 9/9/9 10/10/10
f 81/81/81 82/82/82 9/9/9
f 85/85/85 84/84/84 83/83/83
f 85/85/85 86/86/86 84/84/84
f 87/87/87 25/25/25 27/27/27
f 87/87/87 88/88/88 25/25/25
f 91/91/91 90/90/90 89/89/89
f 91/91/91 92/92/92 90/90/90
f 95/95/95 94/94/94 93/93/93
f 95/95/95 96/96/96 94/94/94
f 99/99/99 98/98/98 97/97/97
f 99/99/99 100/100/100 98/98/98
f 103/103/103 102/102/102 101/101/101
f 103/103/103 104/104/104 102/102/102
f 105/105/105 16/16/16 14/14/14
f 105/105/105 106/106/106 16/16/16
f 109/109/109 108/108/108 107/107/107
f 109/109/109 110/110/110 108/108/108
f 113/113/113 112/112/112 111/111/111
f 113/113/113 114/114/114 112/112/112
f 117/117/117 116/116/116 115/115/115
f 117/117/117 118/118/118 116/116/116
f 121/121/121 120/120/120 119/119/119
f 121/121/121 122/122/122 120/120/120
f 125/125/125 124/124/124 123/123/123
f 125/125/125 126/126/126 124/124/124
f 127/127/127 32/32/32 30/30/30
f 127/127/127 128/128/128 32/32/32
f 3/3/3 129/129/129 2/2/2
f 3/3/3 130/130/130 129/129/129
f 133/133/133 132/132/132 131/131/131
f 132/132/132 134/134/134 131/131/131
f 17/17/17 20/20/20 135/135/135
f 20/20/20 136/136/136 135/135/135
f 139/139/139 138/138/138 137/137/137
f 139/139/139 137/137/137 43/43/43
f 33/33/33 141/141/141 140/140/140
f 35/35/35 33/33/33 140/140/140
f 17/17/17 135/135/135 141/141/141
f 33/33/33 17/17/17 141/141/141
f 143/143/143 44/44/44 142/142/142
f 143/143/143 144/144/144 44/44/44
f 144/144/144 43/43/43 44/44/44
f 144/144/144 139/139/139 43/43/43
f 147/147/147 146/146/146 145/145/145
f 147/147/147 145/145/145 148/148/148
f 151/151/151 150/150/150 149/149/149
f 151/151/151 149/149/149 152/152/152
f 155/155/155 154/154/154 153/153/153
f 154/154/154 156/156/156 153/153/153
f 159/159/159 158/158/158 157/157/157
f 158/158/158 160/160/160 157/157/157
f 163/163/163 162/162/162 161/161/161
f 163/163/163 164/164/164 162/162/162
f 54/54/54 55/55/55 165/165/165
f 166/166/166 54/54/54 165/165/165
f 169/169/169 168/168/168 167/167/167
f 170/170/170 169/169/169 167/167/167
f 173/173/173 172/172/172 171/171/171
f 173/173/173 69/69/69 172/172/172
f 63/63/63 64/64/64 174/174/174
f 175/175/175 63/63/63 174/174/174
f 178/178/178 177/177/177 176/176/176
f 178/178/178 179/179/179 177/177/177
f 55/55/55 63/63/63 175/175/175
f 165/165/165 55/55/55 175/175/175
f 182/182/182 181/181/181 180/180/180
f 182/182/182 183/183/183 181/181/181
f 185/185/185 71/71/71 184/184/184
f 185/185/185 186/186/186 71/71/71
f 189/189/189 188/188/188 187/187/187
f 190/190/190 189/189/189 187/187/187
f 193/193/193 192/192/192 191/191/191
f 194/194/194 193/193/193 191/191/191
f 184/184/184 69/69/69 173/173/173
f 184/184/184 71/71/71 69/69/69
