g pb_Mesh91226
v 2 -1.9999968 0.9999989
v -2 -1.9999968 0.9999989
v 2 2.000019 1.0000023
v -2 2.000019 1.0000023
v -2 -1.9999968 0.9999989
v -2 -2 -2
v -2 2.000019 1.0000023
v -2 2 -2
v -2 -2 -2
v 2 -2 -2
v -2 2 -2
v 2 2 -2
v 2 -2 -2
v 2 -1.9999968 0.9999989
v 2 2 -2
v 2 2.000019 1.0000023
v 2 2.000019 1.0000023
v -2 2.000019 1.0000023
v 2 2 -2
v -2 2 -2
v 2 -2 -2
v -2 -2 -2
v 2 -1.9999968 0.9999989
v -2 -1.9999968 0.9999989
vt 2 -1.999996
vt -2 -1.999996
vt 2 2.0000198
vt -2 2.0000198
vt 0.9999989 -1.9999968
vt -2 -2
vt 1.0000023 2.000019
vt -2 2
vt 2 -2
vt -2 -2
vt 2 2
vt -2 2
vt 2 -2
vt -0.9999989 -1.9999968
vt 2 2
vt -1.0000023 2.000019
vt -2 1.000015
vt 2 1.000015
vt -2 -1.9999872
vt 2 -1.9999872
vt 2 -2.0000021
vt -2 -2.0000021
vt 2 0.9999968
vt -2 0.9999968
vn -0 -8.3446173E-07 1
vn -0 -8.3446173E-07 1
vn -0 -8.3446173E-07 1
vn -0 -8.3446173E-07 1
vn -1 0 0
vn -1 0 0
vn -1 0 0
vn -1 0 0
vn -0 0 -1
vn -0 0 -1
vn -0 0 -1
vn -0 0 -1
vn 1 0 0
vn 1 0 0
vn 1 0 0
vn 1 0 0
vn -0 1 -6.3578236E-06
vn -0 1 -6.3578236E-06
vn -0 1 -6.3578236E-06
vn -0 1 -6.3578236E-06
vn -0 -1 1.072884E-06
vn -0 -1 1.072884E-06
vn -0 -1 1.072884E-06
vn -0 -1 1.072884E-06
g pb_Mesh91226_0
f 3/3/3 2/2/2 1/1/1
f 3/3/3 4/4/4 2/2/2
f 7/7/7 6/6/6 5/5/5
f 7/7/7 8/8/8 6/6/6
f 11/11/11 10/10/10 9/9/9
f 11/11/11 12/12/12 10/10/10
f 15/15/15 14/14/14 13/13/13
f 15/15/15 16/16/16 14/14/14
f 19/19/19 18/18/18 17/17/17
f 19/19/19 20/20/20 18/18/18
f 23/23/23 22/22/22 21/21/21
f 23/23/23 24/24/24 22/22/22
