g pb_Mesh89200
v 28 -5.75 41
v 2 -5.75 41
v 2 12.75 41
v 28 12.75 41
v -48.00091 -5.75 40.99925
v -48.00091 12.75 40.99925
v 2 13 15
v 2.0000622 -5.75 -13.999955
v 2.0000622 12.75 -13.999955
v 2 -5 15
v 2.0000622 12.75 -13.999955
v 28.000063 -5.75 -13.99938
v 28.000063 12.75 -13.99938
v 2.0000622 -5.75 -13.999955
v -48.00091 -5.75 40.99925
v -48.000336 -5.75 14.999249
v -48.000336 12.75 14.999249
v -48.00091 12.75 40.99925
v -48.000336 -5.75 14.999249
v 2 -5 15
v 2 13 15
v -48.000336 12.75 14.999249
v 28.000063 12.75 -13.99938
v 28 -5.75 15
v 28 12.75 15
v 28.000063 -5.75 -13.99938
v 28 -5.75 41
v 28 12.75 41
v 2.0000622 12.75 -13.999955
v 28.000063 12.75 -13.99938
v 28 12.75 15
v 2 12.75 15
v 28 12.75 41
v 2 12.75 41
v 2 13 15
v 2.0000622 12.75 -13.999955
v 2 12.75 15
v -48.000336 12.75 14.999249
v -48.000336 12.75 14.999249
v -48.00091 12.75 40.99925
v 28 -5.75 15
v 2.0000622 -5.75 -13.999955
v 2 -5.75 15
v 28.000063 -5.75 -13.99938
v 28 -5.75 41
v 2 -5.75 41
v 2 -5.75 15
v 2 -5 15
v -48.000336 -5.75 14.999249
v 2.0000622 -5.75 -13.999955
v -48.000336 -5.75 14.999249
v -48.00091 -5.75 40.99925
vt 28.000309 -5.75
vt 2.000308 -5.75
vt 2.000308 12.75
vt 28.000309 12.75
vt -48.000603 -5.75
vt -48.000603 12.75
vt 9.192242 13
vt -11.313618 -5.75
vt -11.313618 12.75
vt 9.192242 -5
vt -11.313618 12.75
vt -29.69821 -5.75
vt -29.69821 12.75
vt -11.313618 -5.75
vt 62.932705 -5.75
vt 44.547867 -5.75
vt 44.547867 12.75
vt 62.932705 12.75
vt 44.547867 -5.75
vt 9.192164 -5
vt 9.192164 13
vt 44.547867 12.75
vt 13.999411 12.75
vt -14.9999695 -5.75
vt -14.9999695 12.75
vt 13.999411 -5.75
vt -40.99997 -5.75
vt -40.99997 12.75
vt 2.1344783 -13.999964
vt -22.531286 -13.999394
vt -22.531227 14.999986
vt 2.1345375 14.999991
vt -22.531227 40.999985
vt 2.1345375 40.999992
vt 2.2135944 14.999991
vt 2.1344783 -13.999964
vt 2.1345375 14.999991
vt 49.56902 14.999251
vt 49.56902 14.999251
vt 49.569565 40.999252
vt 27.999971 16.048603
vt 2.0000334 -11.463211
vt 1.9999713 16.048563
vt 28.000034 -11.462625
vt 27.999971 40.71437
vt 1.9999713 40.71433
vt 1.9999713 16.048563
vt 1.999975 15.811392
vt -48.000366 16.047771
vt 2.0000334 -11.463211
vt -48.000366 16.047771
vt -48.000942 40.713535
vn -0 0 1
vn -0 0 1
vn -0 0 1
vn -0 0 1
vn -1.5029634E-05 0 1
vn -1.5029634E-05 0 1
vn -1 0 -2.1457706E-06
vn -1 0 -2.1457706E-06
vn -1 0 -2.1457706E-06
vn -1 0 -2.1457706E-06
vn 2.2117909E-05 0 -1
vn 2.2117909E-05 0 -1
vn 2.2117909E-05 0 -1
vn 2.2117909E-05 0 -1
vn -1 0 -2.2154589E-05
vn -1 0 -2.2154589E-05
vn -1 0 -2.2154589E-05
vn -1 0 -2.2154589E-05
vn 1.5010733E-05 0 -1
vn 1.5010733E-05 0 -1
vn 1.5010733E-05 0 -1
vn 1.5010733E-05 0 -1
vn 1 0 2.1704777E-06
vn 1 0 2.1704777E-06
vn 1 0 2.1704777E-06
vn 1 0 2.1704777E-06
vn 1 0 0
vn 1 0 0
vn -0 1 0
vn -0 1 0
vn -0 1 0
vn -0 1 0
vn -0 1 0
vn -0 1 0
vn 0.4999925 0 0.5000011
vn 1 0 2.1457706E-06
vn 0.4999925 0 0.5000011
vn -1.5010733E-05 0 1
vn -0 1 0
vn -0 1 0
vn -0 -1 0
vn -0 -1 0
vn -0 -1 0
vn -0 -1 0
vn -0 -1 0
vn -0 -1 0
vn -0.4999925 0 -0.5000011
vn -0.4999925 0 -0.5000011
vn 1.5010733E-05 0 -1
vn -1 0 -2.1457706E-06
vn -0 -1 0
vn -0 -1 0
g pb_Mesh89200_0
f 3/3/3 2/2/2 1/1/1
f 3/3/3 1/1/1 4/4/4
f 6/6/6 5/5/5 2/2/2
f 6/6/6 2/2/2 3/3/3
f 9/9/9 8/8/8 7/7/7
f 8/8/8 10/10/10 7/7/7
f 13/13/13 12/12/12 11/11/11
f 12/12/12 14/14/14 11/11/11
f 17/17/17 16/16/16 15/15/15
f 17/17/17 15/15/15 18/18/18
f 21/21/21 20/20/20 19/19/19
f 21/21/21 19/19/19 22/22/22
f 25/25/25 24/24/24 23/23/23
f 24/24/24 26/26/26 23/23/23
f 28/28/28 27/27/27 25/25/25
f 27/27/27 24/24/24 25/25/25
f 31/31/31 30/30/30 29/29/29
f 31/31/31 29/29/29 32/32/32
f 33/33/33 31/31/31 32/32/32
f 33/33/33 32/32/32 34/34/34
f 37/37/37 36/36/36 35/35/35
f 37/37/37 35/35/35 38/38/38
f 34/34/34 32/32/32 39/39/39
f 34/34/34 39/39/39 40/40/40
f 43/43/43 42/42/42 41/41/41
f 42/42/42 44/44/44 41/41/41
f 46/46/46 43/43/43 45/45/45
f 43/43/43 41/41/41 45/45/45
f 49/49/49 48/48/48 47/47/47
f 48/48/48 50/50/50 47/47/47
f 52/52/52 51/51/51 46/46/46
f 51/51/51 43/43/43 46/46/46
