g pb_Mesh95722
v -0 0 -8
v -10 0 -14
v -12 0 -6
v -0 0 -14
v -16 0 -8
v -16 0 -14
v -16 0 -22
v -10 0 -22
v -10 0 -24
v -16 0 -28
v -16 0 -24
v -10 0 -28
v -10 0 -29
v -16 0 -32
v -16 0 -29
v -10 0 -32
v -10 0 -23
v -16 0 -23
v -0 0 0
v -10 0 0
v -10 5 0
v -0 5 0
v -10 8 0
v -0 8 0
v -10 5 -14
v -0 0 -14
v -0 5 -14
v -10 0 -14
v -10 8 -14
v -0 8 -14
v -16 0 -8
v -16 0 -14
v -16 5 -14
v -16 5 -8
v -16 8 -14
v -16 8 -8
v -0 5 -14
v -0 0 -8
v -0 5 -8
v -0 0 -14
v -0 8 -14
v -0 8 -8
v -16 6 -32
v -10 0 -32
v -10 6 -32
v -16 0 -32
v -16 10 -32
v -10 10 -32
v -12 5 -6
v -16 5 -8
v -16 8 -8
v -12 8 -6
v -12 0 -6
v -16 0 -8
v -10 6 -22
v -10 0 -22
v -10 5 -14
v -10 0 -14
v -10 10 -22
v -10 8 -14
v -16 6 -22
v -16 10 -22
v -16 0 -22
v -10 10 -28
v -10 6 -24
v -10 10 -24
v -10 6 -28
v -16 6 -24
v -16 6 -28
v -16 10 -28
v -16 10 -24
v -10 10 -29
v -10 4 -29
v -10 6 -32
v -10 0 -29
v -10 0 -32
v -10 10 -32
v -16 4 -29
v -16 10 -29
v -16 0 -29
v -16 0 -32
v -16 6 -32
v -16 10 -32
v -10 4 -23
v -10 0 -23
v -10 10 -23
v -16 0 -23
v -16 4 -23
v -16 10 -23
v -16 4 -29
v -16 6 -28
v -10 4 -29
v -10 6 -28
v -16 4 -23
v -16 0 -23
v -10 4 -23
v -10 0 -23
v -16 6 -28
v -16 6 -24
v -10 6 -28
v -10 6 -24
v -16 0 -29
v -16 4 -29
v -10 0 -29
v -10 4 -29
v -16 6 -24
v -16 4 -23
v -10 6 -24
v -10 4 -23
v -0 0 -4
v -10 0 -4
v -0 0 0
v -10 0 0
v -10 0 0
v -10 0 -4
v -10 5 -4
v -10 5 0
v -10 0 -4
v -12 0 -6
v -12 5 -6
v -10 5 -4
v -10 8 -4
v -10 8 0
v -12 8 -6
v -10 8 -4
v -0 5 -4
v -0 0 0
v -0 5 0
v -0 0 -4
v -0 8 -4
v -0 8 0
v -10 8 -14
v -0 8 -14
v -0 8 -8
v -12 8 -6
v -16 8 -14
v -16 8 -8
v -10 8 -14
v -16 8 -14
v -10 10 -22
v -16 10 -22
v -16 10 -28
v -10 10 -28
v -10 10 -24
v -16 10 -24
v -16 10 -32
v -10 10 -32
v -10 10 -29
v -16 10 -29
v -10 10 -23
v -16 10 -23
v -10 10 -22
v -16 10 -22
v -0 8 -4
v -10 8 -4
v -0 8 0
v -10 8 0
vt 0 -8
vt -10 -14
vt -12 -6
vt 0 -14
vt -16 -8
vt -16 -14
vt -16 -22
vt -10 -22
vt -10 -24
vt -16 -28
vt -16 -24
vt -10 -28
vt -10 -29
vt -16 -32
vt -16 -29
vt -10 -32
vt -10 -23
vt -16 -23
vt 0 0
vt -10 0
vt -10 5
vt 0 5
vt -10 8
vt 0 8
vt 10 5
vt 0 0
vt 0 5
vt 10 0
vt 10 8
vt 0 8
vt -8 0
vt -14 0
vt -14 5
vt -8 5
vt -14 8
vt -8 8
vt 14 5
vt 8 0
vt 8 5
vt 14 0
vt 14 8
vt 8 8
vt 16 6
vt 10 0
vt 10 6
vt 16 0
vt 16 10
vt 10 10
vt -13.416408 5
vt -17.888544 5
vt -17.888544 8
vt -13.416408 8
vt -13.416408 0
vt -17.888544 0
vt 22 6
vt 22 0
vt 14 5
vt 14 0
vt 22 10
vt 14 8
vt -22 6
vt -22 10
vt -22 0
vt 28 10
vt 24 6
vt 24 10
vt 28 6
vt -24 6
vt -28 6
vt -28 10
vt -24 10
vt 29 10
vt 29 4
vt 32 6
vt 29 0
vt 32 0
vt 32 10
vt -29 4
vt -29 10
vt -29 0
vt -32 0
vt -32 6
vt -32 10
vt 23 4
vt 23 0
vt 23 10
vt -23 0
vt -23 4
vt -23 10
vt -16 -9.391485
vt -16 -7.1554174
vt -10 -9.391485
vt -10 -7.1554174
vt 16 4
vt 16 0
vt 10 4
vt 10 0
vt -16 -28
vt -16 -24
vt -10 -28
vt -10 -24
vt -16 0
vt -16 4
vt -10 0
vt -10 4
vt 16 16.09969
vt 16 13.863622
vt 10 16.09969
vt 10 13.863622
vt 0 -4
vt -10 -4
vt 0 0
vt -10 0
vt -3.8268347 0
vt -7.5223527 0
vt -7.5223527 5
vt -3.8268347 5
vt -7.5223527 0
vt -10.135479 0
vt -10.135479 5
vt -7.5223527 5
vt -7.5223527 8
vt -3.8268347 8
vt -10.135479 8
vt -7.5223527 8
vt 4 5
vt 0 0
vt 0 5
vt 4 0
vt 4 8
vt 0 8
vt 10 -14
vt 0 -14
vt 0 -8
vt 12 -6
vt 16 -14
vt 16 -8
vt 10 -15.522281
vt 16 -15.522281
vt 10 -23.768492
vt 16 -23.768492
vt 16 -28
vt 10 -28
vt 10 -24
vt 16 -24
vt 16 -32
vt 10 -32
vt 10 -29
vt 16 -29
vt 10 -23
vt 16 -23
vt 10 -22
vt 16 -22
vt 0 -4
vt 10 -4
vt 0 0
vt 10 0
vn -0 -1 0
vn -0 -1 0
vn -0 -1 0
vn -0 -1 0
vn -0 -1 0
vn -0 -1 0
vn -0 -1 0
vn -0 -1 0
vn -0 -1 0
vn -0 -1 0
vn -0 -1 0
vn -0 -1 0
vn -0 -1 0
vn -0 -1 0
vn -0 -1 0
vn -0 -1 0
vn -0 -1 0
vn -0 -1 0
vn -0 0 1
vn -0 0 1
vn -0 0 1
vn -0 0 1
vn -0 0 1
vn -0 0 1
vn -0 0 -1
vn -0 0 -1
vn -0 0 -1
vn -0 0 -1
vn -0 0 -1
vn -0 0 -1
vn -1 0 0
vn -1 0 0
vn -1 0 0
vn -1 0 0
vn -1 0 0
vn -1 0 0
vn 1 0 0
vn 1 0 0
vn 1 0 0
vn 1 0 0
vn 1 0 0
vn 1 0 0
vn -0 0 -1
vn -0 0 -1
vn -0 0 -1
vn -0 0 -1
vn -0 0 -1
vn -0 0 -1
vn -0.4472136 0 0.8944272
vn -0.4472136 0 0.8944272
vn -0.4472136 0 0.8944272
vn -0.4472136 0 0.8944272
vn -0.4472136 0 0.8944272
vn -0.4472136 0 0.8944272
vn 1 0 0
vn 1 0 0
vn 1 0 0
vn 1 0 0
vn 1 0 0
vn 1 0 0
vn -1 0 0
vn -1 0 0
vn -1 0 0
vn 1 0 0
vn 1 0 0
vn 1 0 0
vn 1 0 0
vn -1 0 0
vn -1 0 0
vn -1 0 0
vn -1 0 0
vn 1 0 0
vn 1 0 0
vn 1 0 0
vn 1 0 0
vn 1 0 0
vn 1 0 0
vn -1 0 0
vn -1 0 0
vn -1 0 0
vn -1 0 0
vn -1 0 0
vn -1 0 0
vn 1 0 0
vn 1 0 0
vn 1 0 0
vn -1 0 0
vn -1 0 0
vn -1 0 0
vn -0 -0.4472136 0.8944272
vn -0 -0.4472136 0.8944272
vn -0 -0.4472136 0.8944272
vn -0 -0.4472136 0.8944272
vn -0 0 -1
vn -0 0 -1
vn -0 0 -1
vn -0 0 -1
vn -0 -1 0
vn -0 -1 0
vn -0 -1 0
vn -0 -1 0
vn -0 0 1
vn -0 0 1
vn -0 0 1
vn -0 0 1
vn -0 -0.4472136 -0.8944272
vn -0 -0.4472136 -0.8944272
vn -0 -0.4472136 -0.8944272
vn -0 -0.4472136 -0.8944272
vn -0 -1 0
vn -0 -1 0
vn -0 -1 0
vn -0 -1 0
vn -1 0 0
vn -1 0 0
vn -1 0 0
vn -1 0 0
vn -0.70710677 0 0.70710677
vn -0.70710677 0 0.70710677
vn -0.70710677 0 0.70710677
vn -0.70710677 0 0.70710677
vn -1 0 0
vn -1 0 0
vn -0.70710677 0 0.70710677
vn -0.70710677 0 0.70710677
vn 1 0 0
vn 1 0 0
vn 1 0 0
vn 1 0 0
vn 1 0 0
vn 1 0 0
vn -0 1 0
vn -0 1 0
vn -0 1 0
vn -0 1 0
vn -0 1 0
vn -0 1 0
vn -0 0.9701425 0.24253562
vn -0 0.9701425 0.24253562
vn -0 0.9701425 0.24253562
vn -0 0.9701425 0.24253562
vn -0 1 0
vn -0 1 0
vn -0 1 0
vn -0 1 0
vn -0 1 0
vn -0 1 0
vn -0 1 0
vn -0 1 0
vn -0 1 0
vn -0 1 0
vn -0 1 0
vn -0 1 0
vn -0 1 0
vn -0 1 0
vn -0 1 0
vn -0 1 0
g pb_Mesh95722_0
f 3/3/3 2/2/2 1/1/1
f 2/2/2 4/4/4 1/1/1
f 5/5/5 2/2/2 3/3/3
f 5/5/5 6/6/6 2/2/2
f 7/7/7 2/2/2 6/6/6
f 7/7/7 8/8/8 2/2/2
f 11/11/11 10/10/10 9/9/9
f 10/10/10 12/12/12 9/9/9
f 15/15/15 14/14/14 13/13/13
f 14/14/14 16/16/16 13/13/13
f 10/10/10 15/15/15 12/12/12
f 15/15/15 13/13/13 12/12/12
f 18/18/18 11/11/11 17/17/17
f 11/11/11 9/9/9 17/17/17
f 7/7/7 18/18/18 8/8/8
f 18/18/18 17/17/17 8/8/8
f 21/21/21 20/20/20 19/19/19
f 21/21/21 19/19/19 22/22/22
f 23/23/23 21/21/21 22/22/22
f 23/23/23 22/22/22 24/24/24
f 27/27/27 26/26/26 25/25/25
f 26/26/26 28/28/28 25/25/25
f 30/30/30 27/27/27 29/29/29
f 27/27/27 25/25/25 29/29/29
f 33/33/33 32/32/32 31/31/31
f 33/33/33 31/31/31 34/34/34
f 35/35/35 33/33/33 34/34/34
f 35/35/35 34/34/34 36/36/36
f 39/39/39 38/38/38 37/37/37
f 38/38/38 40/40/40 37/37/37
f 42/42/42 39/39/39 41/41/41
f 39/39/39 37/37/37 41/41/41
f 45/45/45 44/44/44 43/43/43
f 44/44/44 46/46/46 43/43/43
f 48/48/48 45/45/45 47/47/47
f 45/45/45 43/43/43 47/47/47
f 51/51/51 50/50/50 49/49/49
f 51/51/51 49/49/49 52/52/52
f 50/50/50 54/54/54 53/53/53
f 50/50/50 53/53/53 49/49/49
f 57/57/57 56/56/56 55/55/55
f 57/57/57 58/58/58 56/56/56
f 60/60/60 55/55/55 59/59/59
f 60/60/60 57/57/57 55/55/55
f 61/61/61 33/33/33 35/35/35
f 62/62/62 61/61/61 35/35/35
f 63/63/63 32/32/32 33/33/33
f 61/61/61 63/63/63 33/33/33
f 66/66/66 65/65/65 64/64/64
f 65/65/65 67/67/67 64/64/64
f 70/70/70 69/69/69 68/68/68
f 70/70/70 68/68/68 71/71/71
f 64/64/64 67/67/67 72/72/72
f 67/67/67 73/73/73 72/72/72
f 73/73/73 75/75/75 74/74/74
f 75/75/75 76/76/76 74/74/74
f 72/72/72 73/73/73 77/77/77
f 73/73/73 74/74/74 77/77/77
f 79/79/79 78/78/78 69/69/69
f 79/79/79 69/69/69 70/70/70
f 82/82/82 81/81/81 80/80/80
f 82/82/82 80/80/80 78/78/78
f 83/83/83 82/82/82 78/78/78
f 83/83/83 78/78/78 79/79/79
f 55/55/55 56/56/56 84/84/84
f 56/56/56 85/85/85 84/84/84
f 59/59/59 55/55/55 86/86/86
f 55/55/55 84/84/84 86/86/86
f 86/86/86 84/84/84 66/66/66
f 84/84/84 65/65/65 66/66/66
f 88/88/88 87/87/87 63/63/63
f 88/88/88 63/63/63 61/61/61
f 89/89/89 88/88/88 61/61/61
f 89/89/89 61/61/61 62/62/62
f 71/71/71 68/68/68 88/88/88
f 71/71/71 88/88/88 89/89/89
f 92/92/92 91/91/91 90/90/90
f 92/92/92 93/93/93 91/91/91
f 96/96/96 95/95/95 94/94/94
f 96/96/96 97/97/97 95/95/95
f 100/100/100 99/99/99 98/98/98
f 100/100/100 101/101/101 99/99/99
f 104/104/104 103/103/103 102/102/102
f 104/104/104 105/105/105 103/103/103
f 108/108/108 107/107/107 106/106/106
f 108/108/108 109/109/109 107/107/107
f 111/111/111 3/3/3 110/110/110
f 3/3/3 1/1/1 110/110/110
f 113/113/113 111/111/111 112/112/112
f 111/111/111 110/110/110 112/112/112
f 116/116/116 115/115/115 114/114/114
f 116/116/116 114/114/114 117/117/117
f 120/120/120 119/119/119 118/118/118
f 120/120/120 118/118/118 121/121/121
f 122/122/122 116/116/116 117/117/117
f 122/122/122 117/117/117 123/123/123
f 124/124/124 120/120/120 121/121/121
f 124/124/124 121/121/121 125/125/125
f 128/128/128 127/127/127 126/126/126
f 127/127/127 129/129/129 126/126/126
f 126/126/126 129/129/129 39/39/39
f 129/129/129 38/38/38 39/39/39
f 131/131/131 128/128/128 130/130/130
f 128/128/128 126/126/126 130/130/130
f 130/130/130 126/126/126 42/42/42
f 126/126/126 39/39/39 42/42/42
g pb_Mesh95722_1
f 134/134/134 133/133/133 132/132/132
f 134/134/134 132/132/132 135/135/135
f 136/136/136 135/135/135 132/132/132
f 136/136/136 137/137/137 135/135/135
f 140/140/140 139/139/139 138/138/138
f 140/140/140 141/141/141 139/139/139
f 144/144/144 143/143/143 142/142/142
f 144/144/144 142/142/142 145/145/145
f 148/148/148 147/147/147 146/146/146
f 148/148/148 146/146/146 149/149/149
f 143/143/143 148/148/148 149/149/149
f 143/143/143 149/149/149 142/142/142
f 150/150/150 144/144/144 145/145/145
f 150/150/150 145/145/145 151/151/151
f 152/152/152 150/150/150 151/151/151
f 152/152/152 151/151/151 153/153/153
f 154/154/154 134/134/134 135/135/135
f 154/154/154 135/135/135 155/155/155
f 156/156/156 154/154/154 155/155/155
f 156/156/156 155/155/155 157/157/157
