g pb_Mesh89974
v -4.009832 -5.75 36.998936
v -30.009827 -5.75 36.992023
v -30.009827 12.75 36.992023
v -4.009832 12.75 36.998936
v -30.009827 -5.75 36.992023
v -47.999836 -5.75 36.987244
v -47.999836 12.75 36.987244
v -30.009827 12.75 36.992023
v -30.003984 13 14.99149
v -29.994934 -5.75 -19.00797
v -29.994934 12.75 -19.00797
v -30.003984 -5 14.99149
v -29.994934 12.75 -19.00797
v -3.9949465 -5.75 -19.00106
v -3.9949465 12.75 -19.00106
v -29.994934 -5.75 -19.00797
v -47.999836 -5.75 36.987244
v -48.000336 -5.75 14.999249
v -48.000336 12.75 14.999249
v -47.999836 12.75 36.987244
v -48.000336 -5.75 14.999249
v -30.003984 -5 14.99149
v -30.003984 13 14.99149
v -48.000336 12.75 14.999249
v -3.9949465 12.75 -19.00106
v -4.0039845 -5.75 14.991489
v -4.0039845 12.75 14.991489
v -3.9949465 -5.75 -19.00106
v -4.009832 -5.75 36.998936
v -4.009832 12.75 36.998936
v -29.994934 12.75 -19.00797
v -3.9949465 12.75 -19.00106
v -4.0039845 12.75 14.991489
v -30.003984 12.75 14.99149
v -4.009832 12.75 36.998936
v -30.009827 12.75 36.992023
v -30.003984 13 14.99149
v -29.994934 12.75 -19.00797
v -30.003984 12.75 14.99149
v -48.000336 12.75 14.999249
v -48.000336 12.75 14.999249
v -47.999836 12.75 36.987244
v -4.0039845 -5.75 14.991489
v -29.994934 -5.75 -19.00797
v -30.003984 -5.75 14.99149
v -3.9949465 -5.75 -19.00106
v -4.009832 -5.75 36.998936
v -30.009827 -5.75 36.992023
v -30.003984 -5.75 14.99149
v -30.003984 -5 14.99149
v -48.000336 -5.75 14.999249
v -29.994934 -5.75 -19.00797
v -48.000336 -5.75 14.999249
v -47.999836 -5.75 36.987244
vt -3.9999986 -5.75
vt -29.999994 -5.75
vt -29.999994 12.75
vt -3.9999986 12.75
vt -29.999994 -5.75
vt -47.990005 -5.75
vt -47.990005 12.75
vt -29.999994 12.75
vt 31.819427 13
vt 7.778171 -5.75
vt 7.778171 12.75
vt 31.819427 -5
vt 7.778171 12.75
vt -10.606601 -5.75
vt -10.606601 12.75
vt 7.778171 -5.75
vt 60.09317 -5.75
vt 44.542133 -5.75
vt 44.542133 12.75
vt 60.09317 12.75
vt 44.542133 -5.75
vt 31.814194 -5
vt 31.814194 13
vt 44.542133 12.75
vt 18.999998 12.75
vt -14.992554 -5.75
vt -14.992554 12.75
vt 18.999998 -5.75
vt -37 -5.75
vt -37 12.75
vt 32.487595 -19.00819
vt 7.8218427 -19.001972
vt 7.830417 14.990578
vt 32.49618 14.991271
vt 7.835964 36.998024
vt 32.501724 36.991802
vt 32.575237 14.991251
vt 32.487595 -19.00819
vt 32.49618 14.991271
vt 49.56902 14.999509
vt 49.56902 14.999509
vt 49.568546 36.987503
vt -4.003158 16.040668
vt -29.994108 -16.212872
vt -30.003159 16.041851
vt -3.9941201 -16.207499
vt -4.0090055 36.918766
vt -30.009 36.913387
vt -30.003159 16.041851
vt -30.003265 15.804679
vt -47.999508 16.05003
vt -29.994108 -16.212872
vt -47.999508 16.05003
vt -47.99901 36.90967
vn -0.00026585508 0 0.99999994
vn -0.00026585508 0 0.99999994
vn -0.00026585508 0 0.99999994
vn -0.00026585508 0 0.99999994
vn -0.00026569277 0 1
vn -0.00026569277 0 1
vn -0.00026569277 0 1
vn -0.00026569277 0 1
vn -1 0 -0.00026619155
vn -1 0 -0.00026619155
vn -1 0 -0.00026619155
vn -1 0 -0.00026619155
vn 0.0002657818 0 -0.99999994
vn 0.0002657818 0 -0.99999994
vn 0.0002657818 0 -0.99999994
vn 0.0002657818 0 -0.99999994
vn -1 0 2.2727188E-05
vn -1 0 2.2727188E-05
vn -1 0 2.2727188E-05
vn -1 0 2.2727188E-05
vn -0.00043114816 0 -0.9999999
vn -0.00043114813 0 -0.9999999
vn -0.00043114816 0 -0.9999999
vn -0.00043114816 0 -0.9999999
vn 1 0 0.00026588095
vn 1 0 0.00026588095
vn 1 0 0.00026588095
vn 1 0 0.00026588095
vn 1 0 0.00026570345
vn 1 0 0.00026570345
vn -0 1 0
vn -0 1 0
vn -0 1 0
vn -0 1 0
vn -0 1 0
vn -0 1 0
vn 0.5002156 0 0.50013304
vn 1 0 0.00026619155
vn 0.5002156 0 0.50013304
vn 0.00043114813 0 0.9999999
vn -0 1 0
vn -0 1 0
vn -0 -1 0
vn -0 -1 0
vn -0 -1 0
vn -0 -1 0
vn -0 -1 0
vn -0 -1 0
vn -0.5002156 0 -0.50013304
vn -0.5002156 0 -0.50013304
vn -0.00043114816 0 -0.99999994
vn -1 0 -0.00026619155
vn -0 -1 0
vn -0 -1 0
g pb_Mesh89974_0
f 3/3/3 2/2/2 1/1/1
f 3/3/3 1/1/1 4/4/4
f 7/7/7 6/6/6 5/5/5
f 7/7/7 5/5/5 8/8/8
f 11/11/11 10/10/10 9/9/9
f 10/10/10 12/12/12 9/9/9
f 15/15/15 14/14/14 13/13/13
f 14/14/14 16/16/16 13/13/13
f 19/19/19 18/18/18 17/17/17
f 19/19/19 17/17/17 20/20/20
f 23/23/23 22/22/22 21/21/21
f 23/23/23 21/21/21 24/24/24
f 27/27/27 26/26/26 25/25/25
f 26/26/26 28/28/28 25/25/25
f 30/30/30 29/29/29 27/27/27
f 29/29/29 26/26/26 27/27/27
f 33/33/33 32/32/32 31/31/31
f 33/33/33 31/31/31 34/34/34
f 35/35/35 33/33/33 34/34/34
f 35/35/35 34/34/34 36/36/36
f 39/39/39 38/38/38 37/37/37
f 39/39/39 37/37/37 40/40/40
f 36/36/36 34/34/34 41/41/41
f 36/36/36 41/41/41 42/42/42
f 45/45/45 44/44/44 43/43/43
f 44/44/44 46/46/46 43/43/43
f 48/48/48 45/45/45 47/47/47
f 45/45/45 43/43/43 47/47/47
f 51/51/51 50/50/50 49/49/49
f 50/50/50 52/52/52 49/49/49
f 54/54/54 53/53/53 48/48/48
f 53/53/53 45/45/45 48/48/48
