g pb_Mesh87492
v 18 1 -18
v 18 1 -17.5
v 18 1.75 -18
v 18 1.75 -17.5
v -9 1 -17.5
v -9 1 -18
v -9 1.75 -17.5
v -9 1.75 -18
v 4.5 1 13.5
v -3 1 14
v -5 1 13.5
v 4.5 1 14
v 12 1 14
v 14 1 13.5
v 4.5 1 12.5
v -7 1 12.5
v 16 1 12.5
v 4.5 1 11
v -8.25 1 11
v 17.25 1 11
v 4.5 1 8
v -9 1 8
v 18 1 8
v -9 1 -17.5
v 4.5 1 -17.5
v 18 1 -17.5
v 16.317154 0 12.90044
v 14.174515 0 13.97176
v 14.174515 1 13.97176
v 16.317154 1 12.90044
v 14.174515 0 13.97176
v 12.061553 0 14.5
v 12.061553 1 14.5
v 14.174515 1 13.97176
v -3 0 14.5
v -5.25 0 13.97176
v -5.25 1 13.97176
v -3 1 14.5
v -5.25 0 13.97176
v -7.25 0 12.90044
v -7.25 1 12.90044
v -5.25 1 13.97176
v 18.5 1 8.061553
v 17.70733 0 11.232227
v 17.70733 1 11.232227
v 18.5 0 8.061553
v 17.70733 1 11.232227
v 16.317154 0 12.90044
v 16.317154 1 12.90044
v 17.70733 0 11.232227
v -7.25 0 12.90044
v -8.75 0 11.232227
v -8.75 1 11.232227
v -7.25 1 12.90044
v -8.75 0 11.232227
v -9.5 0 8.061553
v -9.5 1 8.061553
v -8.75 1 11.232227
v -9 0 -18
v -9 1 -18
v -9.5 0 -18
v -9.5 1 -18
v -8.25 0 11
v -9 0 8
v -8.75 0 11.232227
v -9.5 0 8.061553
v -9 1.75 8
v -8.25 1.75 11
v -9.5 1.75 8.061553
v -8.75 1.75 11.232227
v -7 0 12.5
v -7.25 0 12.90044
v -7 1.75 12.5
v -7.25 1.75 12.90044
v -5 0 13.5
v -5.25 0 13.97176
v -5 1.75 13.5
v -5.25 1.75 13.97176
v -3 0 14
v -3 0 14.5
v -3 1.75 14
v -3 1.75 14.5
v 16 1.75 12.5
v 17.25 1.75 11
v 16.317154 1.75 12.90044
v 17.70733 1.75 11.232227
v 14 0 13.5
v 12 0 14
v 14.174515 0 13.97176
v 12.061553 0 14.5
v 12 1.75 14
v 14 1.75 13.5
v 12.061553 1.75 14.5
v 14.174515 1.75 13.97176
v 16 0 12.5
v 16.317154 0 12.90044
v 18 1.75 8
v 18.5 1.75 8.061553
v 17.25 0 11
v 17.70733 0 11.232227
v 18 0 8
v 18.5 0 8.061553
v 18 1 -18
v 18 0 -18
v 18.5 1 -18
v 18.5 0 -18
v 18.5 1.75 8.061553
v 17.70733 1.75 11.232227
v 18 1.75 -18
v 18.5 1.75 -18
v 17.25 1 11
v 18 1 8
v 17.25 1.75 11
v 18 1.75 8
v 17.70733 1.75 11.232227
v 16.317154 1.75 12.90044
v 16 1 12.5
v 17.25 1 11
v 16 1.75 12.5
v 17.25 1.75 11
v 16.317154 1.75 12.90044
v 14.174515 1.75 13.97176
v 14 1 13.5
v 16 1 12.5
v 14 1.75 13.5
v 16 1.75 12.5
v 14.174515 1.75 13.97176
v 12.061553 1.75 14.5
v 12 1 14
v 14 1 13.5
v 12 1.75 14
v 14 1.75 13.5
v -3 1.75 14.5
v -5.25 1.75 13.97176
v -5 1 13.5
v -3 1 14
v -5 1.75 13.5
v -3 1.75 14
v -5.25 1.75 13.97176
v -7.25 1.75 12.90044
v -7 1 12.5
v -5 1 13.5
v -7 1.75 12.5
v -5 1.75 13.5
v -7.25 1 12.90044
v -8.75 1 11.232227
v -7.25 1.75 12.90044
v -8.75 1.75 11.232227
v -8.25 1 11
v -7 1 12.5
v -8.25 1.75 11
v -7 1.75 12.5
v -8.75 1.75 11.232227
v -9.5 1.75 8.061553
v -9 1 8
v -8.25 1 11
v -9 1.75 8
v -8.25 1.75 11
v -9.5 1.75 -18
v -9 1.75 -18
v -3 1.75 14.5
v -3 1.75 14
v -3 1 14.5
v -3 1 14
v 12 1.75 14
v 12.061553 1.75 14.5
v 12 1 14
v 12.061553 1 14.5
v -9.5 0 8.061553
v -9.5 0 -17.5
v -9.5 1 -17.5
v -9.5 1 8.061553
v -9.5 0 -18
v -9.5 1 -18
v 18.5 1 -18
v 18.5 0 -17.5
v 18.5 1 -17.5
v 18.5 0 -18
v 18.5 0 8.061553
v 18.5 1 8.061553
v -9.5 0 -17.5
v -9 0 -17.5
v -9.5 0 -18
v -9 0 -18
v -9.5 1.75 -18
v -9 1.75 -18
v -9 1.75 -17.5
v -9.5 1.75 -17.5
v 18 1.75 -17.5
v 18.5 1.75 -17.5
v 18 1.75 -18
v 18.5 1.75 -18
v 18.5 0 -17.5
v 18.5 0 -18
v 18 0 -17.5
v 18 0 -18
v 18 1 8
v 18 1 -17.5
v 18 1.75 -17.5
v 18 1.75 8
v 18 1 -17.5
v 18 1 -18
v 18 1.75 -18
v 18 1.75 -17.5
v 18.5 1.75 -18
v 18.5 1.75 -17.5
v 18.5 1.75 8.061553
v -9.5 1.75 -17.5
v -9.5 1.75 8.061553
v -9.5 1.75 -18
v -9 1.75 -18
v -9 1 -17.5
v -9 1.75 -17.5
v -9 1 -18
v -9 1.75 -17.5
v -9 1 8
v -9 1.75 8
v -9 1 -17.5
v 12.061553 0 14.5
v 4.5307765 0 14.5
v 4.5307765 1 14.5
v 12.061553 1 14.5
v -3 0 14.5
v -3 1 14.5
v -9 1 -18
v 4.5 0 -18
v 4.5 1 -18
v -9 0 -18
v 18 0 -18
v 18 1 -18
v 4.5 0 14
v 4.5 0 13.5
v 4.5 0 12.5
v 4.5 0 11
v 4.5 0 8
v -3 1 14.5
v -3 1 14
v 4.5 1 14
v 4.5307765 1 14.5
v 12 1 14
v 12.061553 1 14.5
v 4.5307765 0 14.5
v -9 1.75 -18
v 4.5 1.75 -18
v 4.5 1.75 -17.5
v -9 1.75 -17.5
v 18 1.75 -18
v 18 1.75 -17.5
v 4.5 0 -17.5
v 4.5 0 -18
v -9 1.75 -18
v 4.5 1.75 -18
v 18 1.75 -18
v 18 1 -17.5
v 4.5 1 -17.5
v 4.5 1.75 -17.5
v 18 1.75 -17.5
v -9 1 -17.5
v -9 1.75 -17.5
vt 18 1
vt 17.5 1
vt 18 1.75
vt 17.5 1.75
vt -17.5 1
vt -18 1
vt -17.5 1.75
vt -18 1.75
vt -4.5 13.5
vt 3 14
vt 5 13.5
vt -4.5 14
vt -12 14
vt -14 13.5
vt -4.5 12.5
vt 7 12.5
vt -16 12.5
vt -4.5 11
vt 8.25 11
vt -17.25 11
vt -4.5 8
vt 9 8
vt -18 8
vt 9 -17.5
vt -4.5 -17.5
vt -18 -17.5
vt 8.825254 0
vt 6.429711 0
vt 6.429711 1
vt 8.825254 1
vt 10.362652 0
vt 8.184661 0
vt 8.184661 1
vt 10.362652 1
vt 0.39351493 0
vt -1.9176617 0
vt -1.9176617 1
vt 0.39351493 1
vt 1.9693676 0
vt -0.29949236 0
vt -0.29949236 1
vt 1.9693676 1
vt -3.3339422 1
vt -6.6021986 0
vt -6.6021986 1
vt -3.3339422 0
vt 2.707117 1
vt 0.53559077 0
vt 0.53559077 1
vt 2.707117 0
vt 4.7452908 0
vt 2.5018704 0
vt 2.5018704 1
vt 4.7452908 1
vt 8.916426 0
vt 5.6582546 0
vt 5.6582546 1
vt 8.916426 1
vt 9 0
vt 9 1
vt 9.5 0
vt 9.5 1
vt -8.25 11
vt -9 8
vt -8.75 11.232227
vt -9.5 8.061553
vt 9 8
vt 8.25 11
vt 9.5 8.061553
vt 8.75 11.232227
vt -7 12.5
vt -7.25 12.90044
vt 7 12.5
vt 7.25 12.90044
vt -5 13.5
vt -5.25 13.97176
vt 5 13.5
vt 5.25 13.97176
vt -3 14
vt -3 14.5
vt 3 14
vt 3 14.5
vt -16 12.5
vt -17.25 11
vt -16.317154 12.90044
vt -17.70733 11.232227
vt 14 13.5
vt 12 14
vt 14.174515 13.97176
vt 12.061553 14.5
vt -12 14
vt -14 13.5
vt -12.061553 14.5
vt -14.174515 13.97176
vt 16 12.5
vt 16.317154 12.90044
vt -18 8
vt -18.5 8.061553
vt 17.25 11
vt 17.70733 11.232227
vt 18 8
vt 18.5 8.061553
vt -18 1
vt -18 0
vt -18.5 1
vt -18.5 0
vt -3.3339417 1.75
vt -6.602198 1.75
vt -18 1.75
vt -18.5 1.75
vt 6.487828 1
vt 3.3954988 1
vt 6.487828 1.75
vt 3.3954988 1.75
vt 2.707116 1.75
vt 0.5355898 1.75
vt -0.6401847 1
vt -2.5927472 1
vt -0.6401847 1.75
vt -2.5927472 1.75
vt 8.8252535 1.75
vt 6.4297104 1.75
vt -6.484597 1
vt -8.720665 1
vt -6.484597 1.75
vt -8.720665 1.75
vt 10.362652 1.75
vt 8.184661 1.75
vt -8.246211 1
vt -10.307764 1
vt -8.246211 1.75
vt -10.307764 1.75
vt 0.393515 1.75
vt -1.9176618 1.75
vt 1.5764816 1
vt -0.48507124 1
vt 1.5764816 1.75
vt -0.48507124 1.75
vt 1.969368 1.75
vt -0.29949197 1.75
vt 0.67082036 1
vt -1.5652475 1
vt 0.67082036 1.75
vt -1.5652475 1.75
vt 4.7452903 1
vt 2.50187 1
vt 4.7452903 1.75
vt 2.50187 1.75
vt -3.1689124 1
vt -5.1214747 1
vt -3.1689124 1.75
vt -5.1214747 1.75
vt 8.916426 1.75
vt 5.6582546 1.75
vt -5.578319 1
vt -8.670649 1
vt -5.578319 1.75
vt -8.670649 1.75
vt 9.5 1.75
vt 9 1.75
vt -14.5 1.75
vt -14 1.75
vt -14.5 1
vt -14 1
vt 15.361309 1.75
vt 15.865084 1.75
vt 15.361309 1
vt 15.865084 1
vt 8.061553 0
vt -17.5 0
vt -17.5 1
vt 8.061553 1
vt -18 0
vt -18 1
vt 18 1
vt 17.5 0
vt 17.5 1
vt 18 0
vt -8.061553 0
vt -8.061553 1
vt -9.5 -17.5
vt -9 -17.5
vt -9.5 -18
vt -9 -18
vt 9.5 -18
vt 9 -18
vt 9 -17.5
vt 9.5 -17.5
vt -18 -17.5
vt -18.5 -17.5
vt -18 -18
vt -18.5 -18
vt 18.5 -17.5
vt 18.5 -18
vt 18 -17.5
vt 18 -18
vt 8 1
vt -17.5 1
vt -17.5 1.75
vt 8 1.75
vt -17.5 1
vt -18 1
vt -18 1.75
vt -17.5 1.75
vt 18 1.75
vt 17.5 1.75
vt -8.061553 1.75
vt -17.5 1.75
vt 8.061553 1.75
vt -18 1.75
vt 18 1.75
vt 17.5 1
vt 17.5 1.75
vt 18 1
vt 17.5 1.75
vt -8 1
vt -8 1.75
vt 17.5 1
vt 12.061553 0
vt 4.5307765 0
vt 4.5307765 1
vt 12.061553 1
vt -3 0
vt -3 1
vt 9 1
vt -4.5 0
vt -4.5 1
vt 9 0
vt -18 0
vt -18 1
vt 4.5 14
vt 4.5 13.5
vt 4.5 12.5
vt 4.5 11
vt 4.5 8
vt 3 14.5
vt 3 14
vt -4.5 14
vt -4.5307765 14.5
vt -12 14
vt -12.061553 14.5
vt 4.5307765 14.5
vt 9 -18
vt -4.5 -18
vt -4.5 -17.5
vt 9 -17.5
vt -18 -18
vt -18 -17.5
vt 4.5 -17.5
vt 4.5 -18
vt 9 1.75
vt -4.5 1.75
vt -18 1.75
vt 18 1
vt 4.5 1
vt 4.5 1.75
vt 18 1.75
vt -9 1
vt -9 1.75
vn 1 0 0
vn 1 0 0
vn 1 0 0
vn 1 0 0
vn -1 0 0
vn -1 0 0
vn -1 0 0
vn -1 0 0
vn -0 1 0
vn -0 1 0
vn -0 1 0
vn -0 1 0
vn -0 1 0
vn -0 1 0
vn -0 1 0
vn -0 1 0
vn -0 1 0
vn -0 1 0
vn -0 1 0
vn -0 1 0
vn -0 1 0
vn -0 1 0
vn -0 1 0
vn -0 1 0
vn -0 1 0
vn -0 1 0
vn 0.44721362 0 0.89442724
vn 0.44721362 0 0.89442724
vn 0.44721362 0 0.89442724
vn 0.44721362 0 0.89442724
vn 0.24253553 0 0.97014254
vn 0.24253553 0 0.97014254
vn 0.24253553 0 0.97014254
vn 0.24253553 0 0.97014254
vn -0.22855897 0 0.97353005
vn -0.22855897 0 0.97353005
vn -0.22855897 0 0.97353005
vn -0.22855897 0 0.97353005
vn -0.47218406 0 0.88149995
vn -0.47218406 0 0.88149995
vn -0.47218406 0 0.88149995
vn -0.47218406 0 0.88149995
vn 0.9701425 0 0.24253583
vn 0.9701425 0 0.24253583
vn 0.9701425 0 0.24253583
vn 0.9701425 0 0.24253583
vn 0.76822144 0 0.6401843
vn 0.76822144 0 0.6401843
vn 0.76822144 0 0.6401843
vn 0.76822144 0 0.6401843
vn -0.7436025 0 0.66862196
vn -0.7436025 0 0.66862196
vn -0.7436025 0 0.66862196
vn -0.7436025 0 0.66862196
vn -0.9731456 0 0.23019053
vn -0.9731456 0 0.23019053
vn -0.9731456 0 0.23019053
vn -0.9731456 0 0.23019053
vn -0 0 -1
vn -0 0 -1
vn -0 0 -1
vn -0 0 -1
vn -0 -1 0
vn -0 -1 0
vn -0 -1 0
vn -0 -1 0
vn -0 1 0
vn -0 1 0
vn -0 1 0
vn -0 1 0
vn -0 -1 0
vn -0 -1 0
vn -0 1 0
vn -0 1 0
vn -0 -1 0
vn -0 -1 0
vn -0 1 0
vn -0 1 0
vn -0 -1 0
vn -0 -1 0
vn -0 1 0
vn -0 1 0
vn -0 1 0
vn -0 1 0
vn -0 1 0
vn -0 1 0
vn -0 -1 0
vn -0 -1 0
vn -0 -1 0
vn -0 -1 0
vn -0 1 0
vn -0 1 0
vn -0 1 0
vn -0 1 0
vn -0 -1 0
vn -0 -1 0
vn -0 1 0
vn -0 1 0
vn -0 -1 0
vn -0 -1 0
vn -0 -1 0
vn -0 -1 0
vn -0 0 -1
vn -0 0 -1
vn -0 0 -1
vn -0 0 -1
vn 0.9701424 0 0.24253583
vn 0.9701424 0 0.24253583
vn -0 0 -1
vn -0 0 -1
vn -0.9701425 0 -0.24253562
vn -0.9701425 0 -0.24253562
vn -0.9701425 0 -0.24253562
vn -0.9701425 0 -0.24253562
vn 0.76822144 0 0.6401842
vn 0.76822144 0 0.6401842
vn -0.76822126 0 -0.6401844
vn -0.76822126 0 -0.6401844
vn -0.76822126 0 -0.6401844
vn -0.76822126 0 -0.6401844
vn 0.4472136 0 0.8944272
vn 0.4472136 0 0.8944272
vn -0.4472136 0 -0.8944272
vn -0.4472136 0 -0.8944272
vn -0.4472136 0 -0.8944272
vn -0.4472136 0 -0.8944272
vn 0.24253552 0 0.97014254
vn 0.24253552 0 0.97014254
vn -0.24253562 0 -0.9701425
vn -0.24253562 0 -0.9701425
vn -0.24253562 0 -0.9701425
vn -0.24253562 0 -0.9701425
vn -0.22855899 0 0.9735301
vn -0.22855899 0 0.9735301
vn 0.24253562 0 -0.9701425
vn 0.24253562 0 -0.9701425
vn 0.24253562 0 -0.9701425
vn 0.24253562 0 -0.9701425
vn -0.4721841 0 0.88149995
vn -0.4721841 0 0.88149995
vn 0.4472136 0 -0.8944272
vn 0.4472136 0 -0.8944272
vn 0.4472136 0 -0.8944272
vn 0.4472136 0 -0.8944272
vn -0.7436025 0 0.668622
vn -0.7436025 0 0.668622
vn -0.7436025 0 0.668622
vn -0.7436025 0 0.668622
vn 0.76822126 0 -0.6401844
vn 0.76822126 0 -0.6401844
vn 0.76822126 0 -0.6401844
vn 0.76822126 0 -0.6401844
vn -0.9731456 0 0.23019053
vn -0.9731456 0 0.23019053
vn 0.9701425 0 -0.24253562
vn 0.9701425 0 -0.24253562
vn 0.9701425 0 -0.24253562
vn 0.9701425 0 -0.24253562
vn -0 0 -1
vn -0 0 -1
vn 1 0 0
vn 1 0 0
vn 1 0 0
vn 1 0 0
vn -0.9925075 0 0.122183636
vn -0.9925075 0 0.122183636
vn -0.9925075 0 0.122183636
vn -0.9925075 0 0.122183636
vn -1 0 0
vn -1 0 0
vn -1 0 0
vn -1 0 0
vn -1 0 0
vn -1 0 0
vn 1 0 0
vn 1 0 0
vn 1 0 0
vn 1 0 0
vn 1 0 0
vn 1 0 0
vn -0 -1 0
vn -0 -1 0
vn -0 -1 0
vn -0 -1 0
vn -0 1 0
vn -0 1 0
vn -0 1 0
vn -0 1 0
vn -0 1 0
vn -0 1 0
vn -0 1 0
vn -0 1 0
vn -0 -1 0
vn -0 -1 0
vn -0 -1 0
vn -0 -1 0
vn -1 0 0
vn -1 0 0
vn -1 0 0
vn -1 0 0
vn -1 0 0
vn -1 0 0
vn -1 0 0
vn -1 0 0
vn 1 0 0
vn 1 0 0
vn 1 0 0
vn -1 0 0
vn -1 0 0
vn -1 0 0
vn 1 0 0
vn 1 0 0
vn 1 0 0
vn 1 0 0
vn 1 0 0
vn 1 0 0
vn 1 0 0
vn 1 0 0
vn -0 0 1
vn -0 0 1
vn -0 0 1
vn -0 0 1
vn -0 0 1
vn -0 0 1
vn -0 0 -1
vn -0 0 -1
vn -0 0 -1
vn -0 0 -1
vn -0 0 -1
vn -0 0 -1
vn -0 -1 0
vn -0 -1 0
vn -0 -1 0
vn -0 -1 0
vn -0 -1 0
vn -0 1 0
vn -0 1 0
vn -0 1 0
vn -0 1 0
vn -0 1 0
vn -0 1 0
vn -0 -1 0
vn -0 1 0
vn -0 1 0
vn -0 1 0
vn -0 1 0
vn -0 1 0
vn -0 1 0
vn -0 -1 0
vn -0 -1 0
vn -0 0 -1
vn -0 0 -1
vn -0 0 -1
vn -0 0 1
vn -0 0 1
vn -0 0 1
vn -0 0 1
vn -0 0 1
vn -0 0 1
g pb_Mesh87492_0
f 3/3/3 2/2/2 1/1/1
f 3/3/3 4/4/4 2/2/2
f 7/7/7 6/6/6 5/5/5
f 7/7/7 8/8/8 6/6/6
f 11/11/11 10/10/10 9/9/9
f 10/10/10 12/12/12 9/9/9
f 13/13/13 9/9/9 12/12/12
f 13/13/13 14/14/14 9/9/9
f 16/16/16 11/11/11 15/15/15
f 11/11/11 9/9/9 15/15/15
f 14/14/14 15/15/15 9/9/9
f 14/14/14 17/17/17 15/15/15
f 19/19/19 16/16/16 18/18/18
f 16/16/16 15/15/15 18/18/18
f 17/17/17 18/18/18 15/15/15
f 17/17/17 20/20/20 18/18/18
f 22/22/22 19/19/19 21/21/21
f 19/19/19 18/18/18 21/21/21
f 20/20/20 21/21/21 18/18/18
f 20/20/20 23/23/23 21/21/21
f 21/21/21 25/25/25 24/24/24
f 21/21/21 24/24/24 22/22/22
f 23/23/23 26/26/26 25/25/25
f 23/23/23 25/25/25 21/21/21
g pb_Mesh87492_1
f 29/29/29 28/28/28 27/27/27
f 29/29/29 27/27/27 30/30/30
f 33/33/33 32/32/32 31/31/31
f 33/33/33 31/31/31 34/34/34
f 37/37/37 36/36/36 35/35/35
f 37/37/37 35/35/35 38/38/38
f 41/41/41 40/40/40 39/39/39
f 41/41/41 39/39/39 42/42/42
f 45/45/45 44/44/44 43/43/43
f 44/44/44 46/46/46 43/43/43
f 49/49/49 48/48/48 47/47/47
f 48/48/48 50/50/50 47/47/47
f 53/53/53 52/52/52 51/51/51
f 53/53/53 51/51/51 54/54/54
f 57/57/57 56/56/56 55/55/55
f 57/57/57 55/55/55 58/58/58
f 61/61/61 60/60/60 59/59/59
f 61/61/61 62/62/62 60/60/60
f 65/65/65 64/64/64 63/63/63
f 65/65/65 66/66/66 64/64/64
f 69/69/69 68/68/68 67/67/67
f 69/69/69 70/70/70 68/68/68
f 72/72/72 63/63/63 71/71/71
f 72/72/72 65/65/65 63/63/63
f 70/70/70 73/73/73 68/68/68
f 70/70/70 74/74/74 73/73/73
f 76/76/76 71/71/71 75/75/75
f 76/76/76 72/72/72 71/71/71
f 74/74/74 77/77/77 73/73/73
f 74/74/74 78/78/78 77/77/77
f 80/80/80 75/75/75 79/79/79
f 80/80/80 76/76/76 75/75/75
f 78/78/78 81/81/81 77/77/77
f 78/78/78 82/82/82 81/81/81
f 85/85/85 84/84/84 83/83/83
f 85/85/85 86/86/86 84/84/84
f 89/89/89 88/88/88 87/87/87
f 89/89/89 90/90/90 88/88/88
f 93/93/93 92/92/92 91/91/91
f 93/93/93 94/94/94 92/92/92
f 96/96/96 87/87/87 95/95/95
f 96/96/96 89/89/89 87/87/87
f 94/94/94 83/83/83 92/92/92
f 94/94/94 85/85/85 83/83/83
f 86/86/86 97/97/97 84/84/84
f 86/86/86 98/98/98 97/97/97
f 100/100/100 95/95/95 99/99/99
f 100/100/100 96/96/96 95/95/95
f 102/102/102 99/99/99 101/101/101
f 102/102/102 100/100/100 99/99/99
f 105/105/105 104/104/104 103/103/103
f 105/105/105 106/106/106 104/104/104
f 107/107/107 45/45/45 43/43/43
f 107/107/107 108/108/108 45/45/45
f 109/109/109 105/105/105 103/103/103
f 109/109/109 110/110/110 105/105/105
f 113/113/113 112/112/112 111/111/111
f 113/113/113 114/114/114 112/112/112
f 115/115/115 49/49/49 47/47/47
f 115/115/115 116/116/116 49/49/49
f 119/119/119 118/118/118 117/117/117
f 119/119/119 120/120/120 118/118/118
f 121/121/121 29/29/29 30/30/30
f 121/121/121 122/122/122 29/29/29
f 125/125/125 124/124/124 123/123/123
f 125/125/125 126/126/126 124/124/124
f 127/127/127 33/33/33 34/34/34
f 127/127/127 128/128/128 33/33/33
f 131/131/131 130/130/130 129/129/129
f 131/131/131 132/132/132 130/130/130
f 133/133/133 37/37/37 38/38/38
f 133/133/133 134/134/134 37/37/37
f 137/137/137 136/136/136 135/135/135
f 137/137/137 138/138/138 136/136/136
f 139/139/139 41/41/41 42/42/42
f 139/139/139 140/140/140 41/41/41
f 143/143/143 142/142/142 141/141/141
f 143/143/143 144/144/144 142/142/142
f 147/147/147 146/146/146 145/145/145
f 147/147/147 148/148/148 146/146/146
f 151/151/151 150/150/150 149/149/149
f 151/151/151 152/152/152 150/150/150
f 153/153/153 57/57/57 58/58/58
f 153/153/153 154/154/154 57/57/57
f 157/157/157 156/156/156 155/155/155
f 157/157/157 158/158/158 156/156/156
f 159/159/159 60/60/60 62/62/62
f 159/159/159 160/160/160 60/60/60
f 163/163/163 162/162/162 161/161/161
f 163/163/163 164/164/164 162/162/162
f 167/167/167 166/166/166 165/165/165
f 167/167/167 168/168/168 166/166/166
f 171/171/171 170/170/170 169/169/169
f 171/171/171 169/169/169 172/172/172
f 174/174/174 173/173/173 170/170/170
f 174/174/174 170/170/170 171/171/171
f 177/177/177 176/176/176 175/175/175
f 176/176/176 178/178/178 175/175/175
f 180/180/180 179/179/179 177/177/177
f 179/179/179 176/176/176 177/177/177
f 66/66/66 181/181/181 64/64/64
f 181/181/181 182/182/182 64/64/64
f 181/181/181 183/183/183 182/182/182
f 183/183/183 184/184/184 182/182/182
f 187/187/187 186/186/186 185/185/185
f 187/187/187 185/185/185 188/188/188
f 67/67/67 187/187/187 188/188/188
f 67/67/67 188/188/188 69/69/69
f 190/190/190 189/189/189 97/97/97
f 98/98/98 190/190/190 97/97/97
f 192/192/192 191/191/191 189/189/189
f 190/190/190 192/192/192 189/189/189
f 195/195/195 194/194/194 193/193/193
f 195/195/195 196/196/196 194/194/194
f 101/101/101 193/193/193 102/102/102
f 101/101/101 195/195/195 193/193/193
f 199/199/199 198/198/198 197/197/197
f 199/199/199 197/197/197 200/200/200
f 203/203/203 202/202/202 201/201/201
f 203/203/203 201/201/201 204/204/204
f 206/206/206 177/177/177 205/205/205
f 177/177/177 175/175/175 205/205/205
f 207/207/207 180/180/180 206/206/206
f 180/180/180 177/177/177 206/206/206
f 208/208/208 171/171/171 172/172/172
f 208/208/208 172/172/172 209/209/209
f 210/210/210 174/174/174 171/171/171
f 210/210/210 171/171/171 208/208/208
f 213/213/213 212/212/212 211/211/211
f 212/212/212 214/214/214 211/211/211
f 217/217/217 216/216/216 215/215/215
f 216/216/216 218/218/218 215/215/215
f 221/221/221 220/220/220 219/219/219
f 221/221/221 219/219/219 222/222/222
f 224/224/224 223/223/223 220/220/220
f 224/224/224 220/220/220 221/221/221
f 227/227/227 226/226/226 225/225/225
f 226/226/226 228/228/228 225/225/225
f 230/230/230 229/229/229 227/227/227
f 229/229/229 226/226/226 227/227/227
f 232/232/232 231/231/231 79/79/79
f 232/232/232 79/79/79 75/75/75
f 232/232/232 87/87/87 88/88/88
f 231/231/231 232/232/232 88/88/88
f 233/233/233 232/232/232 75/75/75
f 233/233/233 75/75/75 71/71/71
f 233/233/233 95/95/95 87/87/87
f 232/232/232 233/233/233 87/87/87
f 234/234/234 233/233/233 71/71/71
f 234/234/234 71/71/71 63/63/63
f 234/234/234 99/99/99 95/95/95
f 233/233/233 234/234/234 95/95/95
f 235/235/235 234/234/234 63/63/63
f 235/235/235 63/63/63 64/64/64
f 235/235/235 101/101/101 99/99/99
f 234/234/234 235/235/235 99/99/99
f 238/238/238 237/237/237 236/236/236
f 239/239/239 238/238/238 236/236/236
f 239/239/239 240/240/240 238/238/238
f 241/241/241 240/240/240 239/239/239
f 242/242/242 88/88/88 90/90/90
f 231/231/231 88/88/88 242/242/242
f 80/80/80 231/231/231 242/242/242
f 80/80/80 79/79/79 231/231/231
f 245/245/245 244/244/244 243/243/243
f 245/245/245 243/243/243 246/246/246
f 248/248/248 247/247/247 244/244/244
f 248/248/248 244/244/244 245/245/245
f 182/182/182 184/184/184 249/249/249
f 184/184/184 250/250/250 249/249/249
f 249/249/249 250/250/250 195/195/195
f 250/250/250 196/196/196 195/195/195
f 64/64/64 182/182/182 235/235/235
f 182/182/182 249/249/249 235/235/235
f 235/235/235 249/249/249 101/101/101
f 249/249/249 195/195/195 101/101/101
f 252/252/252 227/227/227 251/251/251
f 227/227/227 225/225/225 251/251/251
f 253/253/253 230/230/230 252/252/252
f 230/230/230 227/227/227 252/252/252
f 256/256/256 255/255/255 254/254/254
f 256/256/256 254/254/254 257/257/257
f 259/259/259 258/258/258 255/255/255
f 259/259/259 255/255/255 256/256/256
