g pb_Mesh63710
v 35 4 14
v -46 4 14
v 35 45 14
v -46 45 14
v -46 4 14
v -46 4 -20
v -46 45 14
v -46 45 -20
v -46 4 -20
v 35 4 -20
v -46 45 -20
v 35 45 -20
v 35 4 -20
v 35 4 14
v 35 45 -20
v 35 45 14
v 35 45 14
v -46 45 14
v 35 45 -20
v -46 45 -20
v 35 4 -20
v -46 4 -20
v 35 4 14
v -46 4 14
vt 35 4
vt -46 4
vt 35 45
vt -46 45
vt 14 4
vt -20 4
vt 14 45
vt -20 45
vt 46 4
vt -35 4
vt 46 45
vt -35 45
vt 20 4
vt -14 4
vt 20 45
vt -14 45
vt -35 14
vt 46 14
vt -35 -20
vt 46 -20
vt 35 -20
vt -46 -20
vt 35 14
vt -46 14
vn -0 0 1
vn -0 0 1
vn -0 0 1
vn -0 0 1
vn -1 0 0
vn -1 0 0
vn -1 0 0
vn -1 0 0
vn -0 0 -1
vn -0 0 -1
vn -0 0 -1
vn -0 0 -1
vn 1 0 0
vn 1 0 0
vn 1 0 0
vn 1 0 0
vn -0 1 0
vn -0 1 0
vn -0 1 0
vn -0 1 0
vn -0 -1 0
vn -0 -1 0
vn -0 -1 0
vn -0 -1 0
g pb_Mesh63710_0
f 3/3/3 2/2/2 1/1/1
f 3/3/3 4/4/4 2/2/2
f 7/7/7 6/6/6 5/5/5
f 7/7/7 8/8/8 6/6/6
f 11/11/11 10/10/10 9/9/9
f 11/11/11 12/12/12 10/10/10
f 15/15/15 14/14/14 13/13/13
f 15/15/15 16/16/16 14/14/14
f 19/19/19 18/18/18 17/17/17
f 19/19/19 20/20/20 18/18/18
f 23/23/23 22/22/22 21/21/21
f 23/23/23 24/24/24 22/22/22
