g pb_Mesh84330
v -16 0 -8
v -8 0 -8
v -8 0 8
v -16 0 8
v -40 0 -8
v -32 0 -8
v -32 0 8
v -40 0 8
v -32 0 -16
v -16 0 -16
v -8 0 -16
v -8 -24 -8
v -16 -24 -16
v -16 -24 -8
v -8 -24 -16
v -40 0 -16
v -32 -24 -8
v -40 -24 -16
v -40 -24 -8
v -32 -24 -16
v -16 0 16
v -32 0 16
v -8 0 16
v -8 -24 16
v -16 -24 8
v -16 -24 16
v -8 -24 8
v -40 0 16
v -32 -24 16
v -40 -24 8
v -40 -24 16
v -32 -24 8
v -16 -8 16
v -32 -8 16
v -32 0 16
v -16 0 16
v -32 0 -16
v -16 -8 -16
v -16 0 -16
v -32 -8 -16
v -40 -8 8
v -40 -8 -8
v -40 0 -8
v -40 0 8
v -8 0 -8
v -8 -8 8
v -8 0 8
v -8 -8 -8
v -32 0 -8
v -16 0 -8
v -32 -8 -8
v -16 -8 -8
v -16 0 -8
v -16 0 8
v -16 -8 -8
v -16 -8 8
v -32 0 8
v -32 0 -8
v -32 -8 8
v -32 -8 -8
v -16 0 8
v -32 0 8
v -16 -8 8
v -32 -8 8
v -8 -8 16
v -8 0 16
v -8 -8 -16
v -8 0 -16
v -8 -8 8
v -16 -8 -8
v -16 -8 8
v -8 -8 -8
v -40 -8 16
v -40 0 16
v -40 0 -16
v -40 -8 -16
v -32 -8 8
v -40 -8 -8
v -40 -8 8
v -32 -8 -8
v -40 -8 -16
v -40 0 -16
v -8 0 -16
v -8 -8 -16
v -32 -8 -16
v -16 -8 -16
v -40 -8 16
v -40 0 16
v -8 -8 16
v -8 0 16
v -16 -8 16
v -32 -8 16
v -16 -8 -16
v -16 -24 -16
v -16 -24 -8
v -8 -8 -8
v -16 -24 -8
v -8 -24 -8
v -8 -24 -8
v -8 -24 -16
v -8 -24 -16
v -16 -24 -16
v -40 -24 -16
v -40 -24 -8
v -40 -8 -8
v -40 -24 -8
v -32 -24 -8
v -32 -8 -16
v -32 -24 -8
v -32 -24 -16
v -32 -24 -16
v -40 -24 -16
v -40 -24 8
v -40 -24 16
v -40 -24 16
v -32 -24 16
v -32 -8 16
v -32 -24 16
v -32 -24 8
v -40 -8 8
v -32 -24 8
v -40 -24 8
v -16 -8 16
v -16 -24 8
v -16 -24 16
v -16 -24 16
v -8 -24 16
v -8 -24 16
v -8 -24 8
v -8 -8 8
v -8 -24 8
v -16 -24 8
vt 16 -8
vt 8 -8
vt 8 8
vt 16 8
vt 40 -8
vt 32 -8
vt 32 8
vt 40 8
vt 32 -16
vt 16 -16
vt 8 -16
vt -8 -8
vt -16 -16
vt -16 -8
vt -8 -16
vt 40 -16
vt -32 -8
vt -40 -16
vt -40 -8
vt -32 -16
vt 16 16
vt 32 16
vt 8 16
vt -8 16
vt -16 8
vt -16 16
vt -8 8
vt 40 16
vt -32 16
vt -40 8
vt -40 16
vt -32 8
vt -16 -8
vt -32 -8
vt -32 0
vt -16 0
vt 32 0
vt 16 -8
vt 16 0
vt 32 -8
vt 8 -8
vt -8 -8
vt -8 0
vt 8 0
vt 8 0
vt -8 -8
vt -8 0
vt 8 -8
vt -32 0
vt -16 0
vt -32 -8
vt -16 -8
vt -8 0
vt 8 0
vt -8 -8
vt 8 -8
vt -8 0
vt 8 0
vt -8 -8
vt 8 -8
vt 16 0
vt 32 0
vt 16 -8
vt 32 -8
vt -8 -8
vt -8 0
vt 8 -8
vt 8 0
vt -8 8
vt -16 -8
vt -16 8
vt -8 -8
vt -40 -8
vt -40 0
vt 40 0
vt 40 -8
vt -32 8
vt -40 -8
vt -40 8
vt -32 -8
vt -16 -8
vt -16 0
vt 16 0
vt 16 -8
vt -32 -16
vt -16 -16
vt 16 -8
vt 16 0
vt -16 -8
vt -16 0
vt -16 16
vt -32 16
vt -16 -8
vt -16 -24
vt -8 -24
vt -8 -8
vt -16 -24
vt -8 -24
vt 8 -24
vt 16 -24
vt 8 -24
vt 16 -24
vt -16 -24
vt -8 -24
vt -40 -8
vt -40 -24
vt -32 -24
vt 16 -8
vt 8 -24
vt 16 -24
vt 32 -24
vt 40 -24
vt 8 -24
vt 16 -24
vt -40 -24
vt -32 -24
vt -16 -8
vt -16 -24
vt -8 -24
vt 40 -8
vt 32 -24
vt 40 -24
vt 16 -8
vt 8 -24
vt 16 -24
vt -16 -24
vt -8 -24
vt -16 -24
vt -8 -24
vt 8 -8
vt 8 -24
vt 16 -24
vn -0 1 0
vn -0 1 0
vn -0 1 0
vn -0 1 0
vn -0 1 0
vn -0 1 0
vn -0 1 0
vn -0 1 0
vn -0 1 0
vn -0 1 0
vn -0 1 0
vn -0 -1 0
vn -0 -1 0
vn -0 -1 0
vn -0 -1 0
vn -0 1 0
vn -0 -1 0
vn -0 -1 0
vn -0 -1 0
vn -0 -1 0
vn -0 1 0
vn -0 1 0
vn -0 1 0
vn -0 -1 0
vn -0 -1 0
vn -0 -1 0
vn -0 -1 0
vn -0 1 0
vn -0 -1 0
vn -0 -1 0
vn -0 -1 0
vn -0 -1 0
vn -0 0 1
vn -0 0 1
vn -0 0 1
vn -0 0 1
vn -0 0 -1
vn -0 0 -1
vn -0 0 -1
vn -0 0 -1
vn -1 0 0
vn -1 0 0
vn -1 0 0
vn -1 0 0
vn 1 0 0
vn 1 0 0
vn 1 0 0
vn 1 0 0
vn -0 0 1
vn -0 0 1
vn -0 0 1
vn -0 0 1
vn -1 0 0
vn -1 0 0
vn -1 0 0
vn -1 0 0
vn 1 0 0
vn 1 0 0
vn 1 0 0
vn 1 0 0
vn -0 0 -1
vn -0 0 -1
vn -0 0 -1
vn -0 0 -1
vn -0 0 1
vn -0 0 1
vn -0 0 -1
vn -0 0 -1
vn -0 -1 0
vn -0 -1 0
vn -0 -1 0
vn -0 -1 0
vn -0 0 1
vn -0 0 1
vn -0 0 -1
vn -0 0 -1
vn -0 -1 0
vn -0 -1 0
vn -0 -1 0
vn -0 -1 0
vn -1 0 0
vn -1 0 0
vn 1 0 0
vn 1 0 0
vn -0 -1 0
vn -0 -1 0
vn -1 0 0
vn -1 0 0
vn 1 0 0
vn 1 0 0
vn -0 -1 0
vn -0 -1 0
vn -1 0 0
vn -1 0 0
vn -1 0 0
vn -0 0 1
vn -0 0 1
vn -0 0 1
vn 1 0 0
vn 1 0 0
vn -0 0 -1
vn -0 0 -1
vn -1 0 0
vn -1 0 0
vn -0 0 1
vn -0 0 1
vn -0 0 1
vn 1 0 0
vn 1 0 0
vn 1 0 0
vn -0 0 -1
vn -0 0 -1
vn -1 0 0
vn -1 0 0
vn -0 0 1
vn -0 0 1
vn 1 0 0
vn 1 0 0
vn 1 0 0
vn -0 0 -1
vn -0 0 -1
vn -0 0 -1
vn -1 0 0
vn -1 0 0
vn -1 0 0
vn -0 0 1
vn -0 0 1
vn 1 0 0
vn 1 0 0
vn -0 0 -1
vn -0 0 -1
vn -0 0 -1
g pb_Mesh84330_0
f 3/3/3 2/2/2 1/1/1
f 3/3/3 1/1/1 4/4/4
f 7/7/7 6/6/6 5/5/5
f 7/7/7 5/5/5 8/8/8
f 1/1/1 10/10/10 9/9/9
f 1/1/1 9/9/9 6/6/6
f 2/2/2 11/11/11 10/10/10
f 2/2/2 10/10/10 1/1/1
f 14/14/14 13/13/13 12/12/12
f 13/13/13 15/15/15 12/12/12
f 6/6/6 9/9/9 16/16/16
f 6/6/6 16/16/16 5/5/5
f 19/19/19 18/18/18 17/17/17
f 18/18/18 20/20/20 17/17/17
f 21/21/21 4/4/4 7/7/7
f 21/21/21 7/7/7 22/22/22
f 23/23/23 3/3/3 4/4/4
f 23/23/23 4/4/4 21/21/21
f 26/26/26 25/25/25 24/24/24
f 25/25/25 27/27/27 24/24/24
f 22/22/22 7/7/7 8/8/8
f 22/22/22 8/8/8 28/28/28
f 31/31/31 30/30/30 29/29/29
f 30/30/30 32/32/32 29/29/29
g pb_Mesh84330_1
f 35/35/35 34/34/34 33/33/33
f 35/35/35 33/33/33 36/36/36
f 39/39/39 38/38/38 37/37/37
f 38/38/38 40/40/40 37/37/37
f 43/43/43 42/42/42 41/41/41
f 43/43/43 41/41/41 44/44/44
f 47/47/47 46/46/46 45/45/45
f 46/46/46 48/48/48 45/45/45
f 51/51/51 50/50/50 49/49/49
f 51/51/51 52/52/52 50/50/50
f 55/55/55 54/54/54 53/53/53
f 55/55/55 56/56/56 54/54/54
f 59/59/59 58/58/58 57/57/57
f 59/59/59 60/60/60 58/58/58
f 63/63/63 62/62/62 61/61/61
f 63/63/63 64/64/64 62/62/62
f 36/36/36 33/33/33 65/65/65
f 36/36/36 65/65/65 66/66/66
f 68/68/68 67/67/67 39/39/39
f 67/67/67 38/38/38 39/39/39
f 71/71/71 70/70/70 69/69/69
f 70/70/70 72/72/72 69/69/69
f 74/74/74 73/73/73 34/34/34
f 74/74/74 34/34/34 35/35/35
f 37/37/37 40/40/40 75/75/75
f 40/40/40 76/76/76 75/75/75
f 79/79/79 78/78/78 77/77/77
f 78/78/78 80/80/80 77/77/77
f 82/82/82 81/81/81 42/42/42
f 82/82/82 42/42/42 43/43/43
f 45/45/45 48/48/48 83/83/83
f 48/48/48 84/84/84 83/83/83
f 80/80/80 85/85/85 70/70/70
f 85/85/85 86/86/86 70/70/70
f 44/44/44 41/41/41 87/87/87
f 44/44/44 87/87/87 88/88/88
f 90/90/90 89/89/89 47/47/47
f 89/89/89 46/46/46 47/47/47
f 92/92/92 77/77/77 91/91/91
f 77/77/77 71/71/71 91/91/91
f 94/94/94 55/55/55 93/93/93
f 94/94/94 95/95/95 55/55/55
f 97/97/97 96/96/96 52/52/52
f 97/97/97 98/98/98 96/96/96
f 99/99/99 84/84/84 48/48/48
f 99/99/99 100/100/100 84/84/84
f 101/101/101 38/38/38 67/67/67
f 101/101/101 102/102/102 38/38/38
f 103/103/103 42/42/42 81/81/81
f 103/103/103 104/104/104 42/42/42
f 106/106/106 51/51/51 105/105/105
f 106/106/106 107/107/107 51/51/51
f 109/109/109 108/108/108 60/60/60
f 109/109/109 110/110/110 108/108/108
f 111/111/111 76/76/76 40/40/40
f 111/111/111 112/112/112 76/76/76
f 113/113/113 87/87/87 41/41/41
f 113/113/113 114/114/114 87/87/87
f 115/115/115 34/34/34 73/73/73
f 115/115/115 116/116/116 34/34/34
f 118/118/118 59/59/59 117/117/117
f 118/118/118 119/119/119 59/59/59
f 121/121/121 120/120/120 64/64/64
f 121/121/121 122/122/122 120/120/120
f 124/124/124 123/123/123 56/56/56
f 124/124/124 125/125/125 123/123/123
f 126/126/126 65/65/65 33/33/33
f 126/126/126 127/127/127 65/65/65
f 128/128/128 46/46/46 89/89/89
f 128/128/128 129/129/129 46/46/46
f 131/131/131 63/63/63 130/130/130
f 131/131/131 132/132/132 63/63/63
