g pb_Mesh-138250
v -0.74999964 -3 0.24999985
v -0.99999964 -3 0.24999976
v -0.75000143 7 0.24999875
v -1.0000008 7 0.24999906
v -0.99999964 -3 0.24999976
v -0.9999995 -3 -2.3841858E-07
v -1.0000008 7 0.24999906
v -1 7 -1.0438365E-06
v -0.9999995 -3 -2.3841858E-07
v -0.7499995 -3 -1.4901161E-07
v -1 7 -1.0438365E-06
v -0.7500006 7 -1.3617957E-06
v 1.0000005 -3 4.7683716E-07
v 1.0000004 -3 0.25000048
v 1.0000002 7 -5.3094357E-07
v 0.99999946 7 0.24999958
v -0.75000143 7 0.24999875
v -1.0000008 7 0.24999906
v -0.7500006 7 -1.3617957E-06
v -1 7 -1.0438365E-06
v -0.7499995 -3 -1.4901161E-07
v -0.9999995 -3 -2.3841858E-07
v -0.74999964 -3 0.24999985
v -0.99999964 -3 0.24999976
v 0.7500005 -3 3.874302E-07
v 0.75000036 -3 0.2500004
v 1.0000005 -3 4.7683716E-07
v 1.0000004 -3 0.25000048
v 0.7500009 7 -2.1298439E-07
v 0.7500005 -3 3.874302E-07
v 1.0000002 7 -5.3094357E-07
v 1.0000005 -3 4.7683716E-07
v 0.75000036 -3 0.2500004
v 0.75000006 7 0.2499999
v 1.0000004 -3 0.25000048
v 0.99999946 7 0.24999958
v 0.75000006 7 0.2499999
v 0.7500009 7 -2.1298439E-07
v 0.99999946 7 0.24999958
v 1.0000002 7 -5.3094357E-07
v -0.74999964 -3 0.24999985
v -0.75000143 7 0.24999875
v -0.7499995 -3 -1.4901161E-07
v -0.7500006 7 -1.3617957E-06
v 0.75000006 7 0.2499999
v 0.75000036 -3 0.2500004
v 0.7500009 7 -2.1298439E-07
v 0.7500005 -3 3.874302E-07
v -0.7499996 -3 0.12499985
v -0.7500002 7 0.12499936
v 0.7500004 -3 0.12500039
v 0.74999964 7 0.12499918
vt -0.7499996 -3
vt -0.9999996 -3
vt -0.7500014 7
vt -1.0000007 7
vt -1.8749998 -3
vt -2.1249998 -3
vt -1.8750005 7
vt -2.1250005 7
vt 0.9999995 -3
vt 0.7499995 -3
vt 1 7
vt 0.7500006 7
vt 2.125 -3
vt 1.875 -3
vt 2.125001 7
vt 1.875001 7
vt 0.75000143 -1.8750012
vt 1.0000008 -1.875001
vt 0.7500006 -2.1250014
vt 1 -2.125001
vt -0.7499995 -2.1250002
vt -0.9999995 -2.1250002
vt -0.74999964 -1.8750001
vt -0.99999964 -1.8750002
vt 0.7500005 -2.1249995
vt 0.75000036 -1.8749996
vt 1.0000005 -2.1249995
vt 1.0000004 -1.8749995
vt -0.7500009 7
vt -0.7500005 -3
vt -1.0000002 7
vt -1.0000005 -3
vt 0.7500005 -3
vt 0.7500001 7
vt 1.0000005 -3
vt 0.9999995 7
vt -0.75000006 -1.8750001
vt -0.7500009 -2.1250002
vt -0.99999946 -1.8750005
vt -1.0000002 -2.1250005
vt 1.8749998 -2.9999998
vt 1.875001 7
vt 2.1249998 -2.9999998
vt 2.125001 7
vt -1.8750026 7
vt -1.8750021 -3
vt -2.1250026 7
vt -2.1250021 -3
vt -0.7499995 -3
vt -0.7500001 7
vt 0.7500005 -3
vt 0.7499997 7
vn -3.5762787E-07 1.1026852E-07 1
vn 4.470363E-07 9.015207E-08 1
vn 4.470363E-07 9.015207E-08 1
vn 1.2517005E-06 7.003561E-08 1
vn -1 -1.1920932E-07 -4.7683716E-07
vn -1 -8.344665E-08 -1.907348E-06
vn -1 -8.344665E-08 -1.907348E-06
vn -1 -4.7683987E-08 -3.3378587E-06
vn 3.5762787E-07 -8.0541774E-08 -1
vn -4.5710607E-07 -1.0091017E-07 -1
vn -4.5710607E-07 -1.0091017E-07 -1
vn -1.27184E-06 -1.2127856E-07 -1
vn 1 2.3841906E-08 4.7683716E-07
vn 1 5.6624575E-08 1.7881387E-06
vn 1 5.6624575E-08 1.7881387E-06
vn 1 8.9407244E-08 3.0994402E-06
vn -0 1 0
vn -0 1 0
vn -0 1 0
vn -0 1 0
vn -0 -1 0
vn -0 -1 0
vn -0 -1 0
vn -0 -1 0
vn -0 -1 0
vn -0 -1 0
vn -0 -1 0
vn -0 -1 0
vn -1.27184E-06 -6.004141E-08 -1
vn -4.5710607E-07 -8.0409734E-08 -1
vn -4.5710607E-07 -8.0409734E-08 -1
vn 3.5762787E-07 -1.0077806E-07 -1
vn -3.5762787E-07 4.917382E-08 1
vn 4.470363E-07 6.929045E-08 1
vn 4.470363E-07 6.929045E-08 1
vn 1.2517005E-06 8.940708E-08 1
vn -0 1 0
vn -0 1 0
vn -0 1 0
vn -0 1 0
vn 1 1.7881399E-07 4.7683716E-07
vn 1 1.4305138E-07 1.9073478E-06
vn 1 1.4305138E-07 1.9073478E-06
vn 1 1.0728876E-07 3.3378585E-06
vn -1 -2.9802486E-08 -3.3378585E-06
vn -1 5.960368E-09 -1.9073478E-06
vn -1 5.960368E-09 -1.9073478E-06
vn -1 4.1723222E-08 -4.7683716E-07
vn -3.5762787E-07 4.917381E-08 1
vn -1.1920928E-07 8.493661E-08 1
vn -1.1920928E-07 8.493661E-08 1
vn 1.192093E-07 1.2069941E-07 1
g pb_Mesh-138250_0
f 3/3/3 2/2/2 1/1/1
f 3/3/3 4/4/4 2/2/2
f 7/7/7 6/6/6 5/5/5
f 7/7/7 8/8/8 6/6/6
f 11/11/11 10/10/10 9/9/9
f 11/11/11 12/12/12 10/10/10
f 15/15/15 14/14/14 13/13/13
f 15/15/15 16/16/16 14/14/14
f 19/19/19 18/18/18 17/17/17
f 19/19/19 20/20/20 18/18/18
f 23/23/23 22/22/22 21/21/21
f 23/23/23 24/24/24 22/22/22
f 27/27/27 26/26/26 25/25/25
f 27/27/27 28/28/28 26/26/26
f 31/31/31 30/30/30 29/29/29
f 31/31/31 32/32/32 30/30/30
f 35/35/35 34/34/34 33/33/33
f 35/35/35 36/36/36 34/34/34
f 39/39/39 38/38/38 37/37/37
f 39/39/39 40/40/40 38/38/38
f 43/43/43 42/42/42 41/41/41
f 43/43/43 44/44/44 42/42/42
f 47/47/47 46/46/46 45/45/45
f 47/47/47 48/48/48 46/46/46
g pb_Mesh-138250_1
f 51/51/51 50/50/50 49/49/49
f 51/51/51 52/52/52 50/50/50
