g pb_Mesh70698
v 48 -86.5 51
v -4 -86.5 74
v 2 73.5 94
v 64 73.5 65
v 2 73.5 94
v -4 -86.5 74
v -57 -86.5 51
v -73 73.5 65
v 2 73.5 94
v 48 87.5 51
v 64 73.5 65
v 2 87.5 74
v 2 87.5 74
v 2 73.5 94
v -57 87.5 51
v -73 73.5 65
v 4 73.5 -76
v 46 -86.5 -40
v 60 73.5 -56
v -2 -86.5 -56
v -64 73.5 -61
v -50 -86.5 -45
v 4 73.5 -76
v -2 -86.5 -56
v 46 87.5 -40
v 4 87.5 -56
v 4 73.5 -76
v 60 73.5 -56
v -50 87.5 -45
v -64 73.5 -61
v 4 73.5 -76
v 4 87.5 -56
v -57 -86.5 51
v -67 -86.5 15
v -87 73.5 5
v -73 73.5 65
v -67 -86.5 15
v -50 -86.5 -45
v -87 73.5 5
v -64 73.5 -61
v -87 73.5 5
v -67 87.5 5
v -57 87.5 51
v -73 73.5 65
v -87 73.5 5
v -64 73.5 -61
v -50 87.5 -45
v -67 87.5 5
v 64 73.5 65
v 76 73.5 1
v 48 -86.5 51
v 56 -86.5 11
v 60 73.5 -56
v 46 -86.5 -40
v 76 73.5 1
v 56 -86.5 11
v 48 87.5 51
v 56 87.5 1
v 76 73.5 1
v 64 73.5 65
v 46 87.5 -40
v 60 73.5 -56
v 76 73.5 1
v 56 87.5 1
v 4 87.5 -56
v 46 87.5 -40
v 56 87.5 1
v -0 87.5 5
v 48 87.5 51
v 2 87.5 74
v -67 87.5 5
v -50 87.5 -45
v -57 87.5 51
v 56 -86.5 11
v -2 -86.5 -56
v -5 -86.5 15
v 46 -86.5 -40
v 48 -86.5 51
v -4 -86.5 74
v -67 -86.5 15
v -50 -86.5 -45
v -57 -86.5 51
vt 47.395424 -100.26198
vt -4.8721094 -109.87794
vt 0.8916932 25.98677
vt 63.229267 38.1293
vt 0.8916932 25.98677
vt -4.8721094 -109.87794
vt -57.59728 -99.73024
vt -73.761215 38.82309
vt 0.8916932 25.98677
vt 47.395424 56.866318
vt 63.229267 38.1293
vt 1.1274736 47.21997
vt 1.1274736 47.21997
vt 0.8916932 25.98677
vt -57.59728 57.398052
vt -73.761215 38.82309
vt 1.0761969 36.193764
vt -43.23064 -96.50243
vt -56.13269 42.791744
vt 5.7293468 -101.69404
vt 67.92476 44.125366
vt 52.88911 -95.92815
vt 1.0761969 36.193764
vt 5.7293468 -101.69404
vt -43.23064 62.45437
vt -0.25730205 57.100048
vt 1.0761969 36.193764
vt -56.13269 42.791744
vt 52.88911 63.028652
vt 67.92476 44.125366
vt 1.0761969 36.193764
vt -0.25730205 57.100048
vt 52.455208 -101.713806
vt 16.725504 -106.191246
vt 7.2454085 31.4597
vt 66.86379 37.82972
vt 16.725504 -106.191246
vt -43.693565 -99.86237
vt 7.2454085 31.4597
vt -59.32663 40.18292
vt 7.2454085 31.4597
vt 6.728839 52.423126
vt 52.455208 57.006405
vt 66.86379 37.82972
vt 7.2454085 31.4597
vt -59.32663 40.18292
vt -43.693565 58.857838
vt 6.728839 52.423126
vt -68.23606 42.620667
vt -4.9456415 36.41061
vt -53.42401 -97.43421
vt -13.893465 -101.51806
vt 52.80838 41.69188
vt 37.557053 -98.5412
vt -4.9456415 36.41061
vt -13.893465 -101.51806
vt -53.42401 61.60408
vt -3.9069598 57.30954
vt -4.9456415 36.41061
vt -68.23606 42.620667
vt 37.557053 60.497086
vt 52.80838 41.69188
vt -4.9456415 36.41061
vt -3.9069598 57.30954
vt -4 -56
vt -46 -40
vt -56 1
vt 0 5
vt -48 51
vt -2 74
vt 67 5
vt 50 -45
vt 57 51
vt 56 11
vt -2 -56
vt -5 15
vt 46 -40
vt 48 51
vt -4 74
vt -67 15
vt -50 -45
vt -57 51
vn 0.41087133 -0.124575466 0.90307343
vn 0.401157 -0.12841384 0.90696365
vn 0.41087133 -0.124575466 0.90307343
vn 0.42058566 -0.12073709 0.89918315
vn -0.3771507 -0.10805842 0.9195637
vn -0.39612764 -0.0992472 0.9128159
vn -0.3771507 -0.10805842 0.9195637
vn -0.3581738 -0.116869636 0.9263115
vn 0.26152655 0.7996296 0.54011714
vn 0.26152655 0.7996296 0.54011714
vn 0.24742836 0.81176 0.5289848
vn 0.27562475 0.78749925 0.5512495
vn -0.21816799 0.7994976 0.55964833
vn -0.21668085 0.8009844 0.5580919
vn -0.21668085 0.8009844 0.5580919
vn -0.2151937 0.8024711 0.5565355
vn 0.32368374 -0.12600912 -0.93767154
vn 0.32368374 -0.12600912 -0.93767154
vn 0.33379623 -0.122670114 -0.93462944
vn 0.3135712 -0.12934813 -0.94071364
vn -0.21396257 -0.11571809 -0.9699636
vn -0.21795729 -0.114229806 -0.96924067
vn -0.21795729 -0.114229806 -0.96924067
vn -0.22195199 -0.11274152 -0.9685178
vn 0.20387936 0.808272 -0.55218726
vn 0.21342821 0.8003558 -0.5602491
vn 0.20387936 0.808272 -0.55218726
vn 0.19433051 0.81618816 -0.54412544
vn -0.122695476 0.8066443 -0.57801855
vn -0.12936352 0.7995898 -0.58644795
vn -0.122695476 0.8066443 -0.57801855
vn -0.11602743 0.8136989 -0.5695892
vn -0.96279556 -0.10981367 0.24594958
vn -0.9583775 -0.10315869 0.26621598
vn -0.96279556 -0.10981367 0.24594958
vn -0.96721363 -0.116468646 0.22568318
vn -0.9531838 -0.13602728 -0.27006873
vn -0.94562376 -0.12539898 -0.29848486
vn -0.94562376 -0.12539898 -0.29848486
vn -0.9380637 -0.11477067 -0.326901
vn -0.5757217 0.8072065 0.1297991
vn -0.5690574 0.8129391 0.12370813
vn -0.5757217 0.8072065 0.1297991
vn -0.58238596 0.801474 0.13589005
vn -0.56649065 0.80063415 -0.19502549
vn -0.570118 0.797178 -0.19867748
vn -0.56649065 0.80063415 -0.19502549
vn -0.56286323 0.8040903 -0.1913735
vn 0.9765017 -0.1136709 0.18309407
vn 0.97558486 -0.111660525 0.18901384
vn 0.97558486 -0.111660525 0.18901384
vn 0.974668 -0.10965015 0.19493361
vn 0.9568831 -0.11058714 -0.26859877
vn 0.9647075 -0.12203595 -0.22964564
vn 0.9647075 -0.12203595 -0.22964564
vn 0.97253186 -0.13348477 -0.19069251
vn 0.5840721 0.80506784 0.1016614
vn 0.5710635 0.815805 0.091370165
vn 0.5840721 0.80506784 0.1016614
vn 0.59708077 0.79433066 0.11195264
vn 0.58153796 0.7986995 -0.15278894
vn 0.595142 0.78606474 -0.16705741
vn 0.58153796 0.7986995 -0.15278894
vn 0.5679339 0.8113342 -0.13852046
vn -0 1 0
vn -0 1 0
vn -0 1 0
vn -0 1 0
vn -0 1 0
vn -0 1 0
vn -0 1 0
vn -0 1 0
vn -0 1 0
vn -0 -1 0
vn -0 -1 0
vn -0 -1 0
vn -0 -1 0
vn -0 -1 0
vn -0 -1 0
vn -0 -1 0
vn -0 -1 0
vn -0 -1 0
g pb_Mesh70698_0
f 3/3/3 2/2/2 1/1/1
f 3/3/3 1/1/1 4/4/4
f 7/7/7 6/6/6 5/5/5
f 8/8/8 7/7/7 5/5/5
f 11/11/11 10/10/10 9/9/9
f 10/10/10 12/12/12 9/9/9
f 15/15/15 14/14/14 13/13/13
f 15/15/15 16/16/16 14/14/14
f 19/19/19 18/18/18 17/17/17
f 18/18/18 20/20/20 17/17/17
f 23/23/23 22/22/22 21/21/21
f 23/23/23 24/24/24 22/22/22
f 27/27/27 26/26/26 25/25/25
f 27/27/27 25/25/25 28/28/28
f 31/31/31 30/30/30 29/29/29
f 32/32/32 31/31/31 29/29/29
f 35/35/35 34/34/34 33/33/33
f 36/36/36 35/35/35 33/33/33
f 39/39/39 38/38/38 37/37/37
f 40/40/40 38/38/38 39/39/39
f 43/43/43 42/42/42 41/41/41
f 43/43/43 41/41/41 44/44/44
f 47/47/47 46/46/46 45/45/45
f 48/48/48 47/47/47 45/45/45
f 51/51/51 50/50/50 49/49/49
f 51/51/51 52/52/52 50/50/50
f 55/55/55 54/54/54 53/53/53
f 56/56/56 54/54/54 55/55/55
f 59/59/59 58/58/58 57/57/57
f 60/60/60 59/59/59 57/57/57
f 63/63/63 62/62/62 61/61/61
f 63/63/63 61/61/61 64/64/64
f 67/67/67 66/66/66 65/65/65
f 67/67/67 65/65/65 68/68/68
f 69/69/69 67/67/67 68/68/68
f 69/69/69 68/68/68 70/70/70
f 65/65/65 72/72/72 71/71/71
f 68/68/68 65/65/65 71/71/71
f 68/68/68 71/71/71 73/73/73
f 70/70/70 68/68/68 73/73/73
f 76/76/76 75/75/75 74/74/74
f 75/75/75 77/77/77 74/74/74
f 79/79/79 76/76/76 78/78/78
f 76/76/76 74/74/74 78/78/78
f 80/80/80 75/75/75 76/76/76
f 80/80/80 81/81/81 75/75/75
f 82/82/82 76/76/76 79/79/79
f 82/82/82 80/80/80 76/76/76
