g pb_Mesh97638
v 2 -1.9999975 6.999999
v -2 -1.9999975 6.999999
v 2 2.0000165 7.0000024
v -2 2.0000165 7.0000024
v -2 -1.9999975 6.999999
v -2 -2 -2
v -2 2.0000165 7.0000024
v -2 2 -2
v -2 -2 -2
v 2 -2 -2
v -2 2 -2
v 2 2 -2
v 2 -2 -2
v 2 -1.9999975 6.999999
v 2 2 -2
v 2 2.0000165 7.0000024
v 2 2.0000165 7.0000024
v -2 2.0000165 7.0000024
v 2 2 -2
v -2 2 -2
v 2 -2 -2
v -2 -2 -2
v 2 -1.9999975 6.999999
v -2 -1.9999975 6.999999
vt 2 -1.9999917
vt -2 -1.9999917
vt 2 2.0000222
vt -2 2.0000222
vt 6.999999 -1.9999975
vt -2 -2
vt 7.0000024 2.0000165
vt -2 2
vt 2 -2
vt -2 -2
vt 2 2
vt -2 2
vt 2 -2
vt -6.999999 -1.9999975
vt 2 2
vt -7.0000024 2.0000165
vt -2 7.000006
vt 2 7.000006
vt -2 -1.9999963
vt 2 -1.9999963
vt 2 -2.0000005
vt -2 -2.0000005
vt 2 6.9999986
vt -2 6.9999986
vn -0 -8.344621E-07 1
vn -0 -8.344621E-07 1
vn -0 -8.344621E-07 1
vn -0 -8.344621E-07 1
vn -1 0 0
vn -1 0 0
vn -1 0 0
vn -1 0 0
vn -0 0 -1
vn -0 0 -1
vn -0 0 -1
vn -0 0 -1
vn 1 0 0
vn 1 0 0
vn 1 0 0
vn 1 0 0
vn -0 1 -1.8278754E-06
vn -0 1 -1.8278754E-06
vn -0 1 -1.8278754E-06
vn -0 1 -1.8278754E-06
vn -0 -1 2.7815503E-07
vn -0 -1 2.7815503E-07
vn -0 -1 2.7815503E-07
vn -0 -1 2.7815503E-07
g pb_Mesh97638_0
f 3/3/3 2/2/2 1/1/1
f 3/3/3 4/4/4 2/2/2
f 7/7/7 6/6/6 5/5/5
f 7/7/7 8/8/8 6/6/6
f 11/11/11 10/10/10 9/9/9
f 11/11/11 12/12/12 10/10/10
f 15/15/15 14/14/14 13/13/13
f 15/15/15 16/16/16 14/14/14
f 19/19/19 18/18/18 17/17/17
f 19/19/19 20/20/20 18/18/18
f 23/23/23 22/22/22 21/21/21
f 23/23/23 24/24/24 22/22/22
