g pb_Mesh84680
v -0 13.610413 0
v 2.5993576 6.8052063 4.2058487
v -4.2058487 11.011055 6.8052063
v -0 13.610413 0
v -4.2058487 11.011055 6.8052063
v -8.411697 13.610413 0
v -0 13.610413 0
v -8.411697 13.610413 0
v -4.2058487 11.011055 -6.8052063
v -0 13.610413 0
v -4.2058487 11.011055 -6.8052063
v 2.5993576 6.8052063 -4.2058487
v -0 13.610413 0
v 2.5993576 6.8052063 -4.2058487
v 2.5993576 6.8052063 4.2058487
v -8.411697 13.610413 0
v -4.2058487 11.011055 6.8052063
v -11.011055 6.8052063 4.2058487
v -4.2058487 11.011055 6.8052063
v 2.5993576 6.8052063 4.2058487
v -4.2058487 2.5993576 6.8052063
v 2.5993576 6.8052063 4.2058487
v 2.5993576 6.8052063 -4.2058487
v -0 0 0
v 2.5993576 6.8052063 -4.2058487
v -4.2058487 11.011055 -6.8052063
v -4.2058487 2.5993576 -6.8052063
v -4.2058487 11.011055 -6.8052063
v -8.411697 13.610413 0
v -11.011055 6.8052063 -4.2058487
v -8.411697 0 0
v -11.011055 6.8052063 4.2058487
v -4.2058487 2.5993576 6.8052063
v -8.411697 0 0
v -4.2058487 2.5993576 6.8052063
v -0 0 0
v -8.411697 0 0
v -0 0 0
v -4.2058487 2.5993576 -6.8052063
v -8.411697 0 0
v -4.2058487 2.5993576 -6.8052063
v -11.011055 6.8052063 -4.2058487
v -8.411697 0 0
v -11.011055 6.8052063 -4.2058487
v -11.011055 6.8052063 4.2058487
v -4.2058487 2.5993576 6.8052063
v -11.011055 6.8052063 4.2058487
v -4.2058487 11.011055 6.8052063
v -0 0 0
v -4.2058487 2.5993576 6.8052063
v 2.5993576 6.8052063 4.2058487
v -4.2058487 2.5993576 -6.8052063
v -0 0 0
v 2.5993576 6.8052063 -4.2058487
v -11.011055 6.8052063 -4.2058487
v -4.2058487 2.5993576 -6.8052063
v -4.2058487 11.011055 -6.8052063
v -11.011055 6.8052063 4.2058487
v -11.011055 6.8052063 -4.2058487
v -8.411697 13.610413 0
vt 0 13.610413
vt 2.5993576 6.8052063
vt -4.2058487 11.011055
vt 0 0
vt 4.2058487 6.8052063
vt 8.411697 0
vt 0 0
vt 8.411697 0
vt 4.2058487 -6.8052063
vt 0 13.610413
vt 4.2058487 11.011055
vt -2.5993576 6.8052063
vt 0 13.610413
vt 4.2058487 6.8052063
vt -4.2058487 6.8052063
vt -8.411697 13.610413
vt -4.2058487 11.011055
vt -11.011055 6.8052063
vt -4.2058487 11.011055
vt 2.5993576 6.8052063
vt -4.2058487 2.5993576
vt -4.2058487 6.8052063
vt 4.2058487 6.8052063
vt 0 0
vt -2.5993576 6.8052063
vt 4.2058487 11.011055
vt 4.2058487 2.5993576
vt 4.2058487 11.011055
vt 8.411697 13.610413
vt 11.011055 6.8052063
vt -8.411697 0
vt -11.011055 6.8052063
vt -4.2058487 2.5993576
vt -8.411697 0
vt -4.2058487 6.8052063
vt 0 0
vt -8.411697 0
vt 0 0
vt -4.2058487 -6.8052063
vt 8.411697 0
vt 4.2058487 2.5993576
vt 11.011055 6.8052063
vt 0 0
vt -4.2058487 6.8052063
vt 4.2058487 6.8052063
vt -4.2058487 2.5993576
vt -11.011055 6.8052063
vt -4.2058487 11.011055
vt 0 0
vt -4.2058487 2.5993576
vt 2.5993576 6.8052063
vt 4.2058487 2.5993576
vt 0 0
vt -2.5993576 6.8052063
vt 11.011055 6.8052063
vt 4.2058487 2.5993576
vt 4.2058487 11.011055
vt 4.2058487 6.8052063
vt -4.2058487 6.8052063
vt 0 13.610413
vn 0.57735026 0.57735026 0.57735026
vn 0.57735026 0.57735026 0.57735026
vn 0.57735026 0.57735026 0.57735026
vn -0 0.93417233 0.3568221
vn -0 0.93417233 0.3568221
vn -0 0.93417233 0.3568221
vn -0 0.93417233 -0.3568221
vn -0 0.93417233 -0.3568221
vn -0 0.93417233 -0.3568221
vn 0.57735026 0.57735026 -0.57735026
vn 0.57735026 0.57735026 -0.57735026
vn 0.57735026 0.57735026 -0.57735026
vn 0.93417233 0.3568221 0
vn 0.93417233 0.3568221 0
vn 0.93417233 0.3568221 0
vn -0.57735026 0.57735026 0.57735026
vn -0.57735026 0.57735026 0.57735026
vn -0.57735026 0.57735026 0.57735026
vn 0.3568221 0 0.93417233
vn 0.3568221 0 0.93417233
vn 0.3568221 0 0.93417233
vn 0.93417233 -0.3568221 0
vn 0.93417233 -0.3568221 0
vn 0.93417233 -0.3568221 0
vn 0.3568221 0 -0.93417233
vn 0.3568221 0 -0.93417233
vn 0.3568221 0 -0.93417233
vn -0.57735026 0.57735026 -0.57735026
vn -0.57735026 0.57735026 -0.57735026
vn -0.57735026 0.57735026 -0.57735026
vn -0.57735026 -0.57735026 0.57735026
vn -0.57735026 -0.57735026 0.57735026
vn -0.57735026 -0.57735026 0.57735026
vn -0 -0.93417233 0.3568221
vn -0 -0.93417233 0.3568221
vn -0 -0.93417233 0.3568221
vn -0 -0.93417233 -0.3568221
vn -0 -0.93417233 -0.3568221
vn -0 -0.93417233 -0.3568221
vn -0.57735026 -0.57735026 -0.57735026
vn -0.57735026 -0.57735026 -0.57735026
vn -0.57735026 -0.57735026 -0.57735026
vn -0.93417233 -0.3568221 0
vn -0.93417233 -0.3568221 0
vn -0.93417233 -0.3568221 0
vn -0.3568221 0 0.93417233
vn -0.3568221 0 0.93417233
vn -0.3568221 0 0.93417233
vn 0.57735026 -0.57735026 0.57735026
vn 0.57735026 -0.57735026 0.57735026
vn 0.57735026 -0.57735026 0.57735026
vn 0.57735026 -0.57735026 -0.57735026
vn 0.57735026 -0.57735026 -0.57735026
vn 0.57735026 -0.57735026 -0.57735026
vn -0.3568221 0 -0.93417233
vn -0.3568221 0 -0.93417233
vn -0.3568221 0 -0.93417233
vn -0.93417233 0.3568221 0
vn -0.93417233 0.3568221 0
vn -0.93417233 0.3568221 0
g pb_Mesh84680_0
f 3/3/3 2/2/2 1/1/1
f 6/6/6 5/5/5 4/4/4
f 9/9/9 8/8/8 7/7/7
f 12/12/12 11/11/11 10/10/10
f 15/15/15 14/14/14 13/13/13
f 18/18/18 17/17/17 16/16/16
f 21/21/21 20/20/20 19/19/19
f 24/24/24 23/23/23 22/22/22
f 27/27/27 26/26/26 25/25/25
f 30/30/30 29/29/29 28/28/28
f 33/33/33 32/32/32 31/31/31
f 36/36/36 35/35/35 34/34/34
f 39/39/39 38/38/38 37/37/37
f 42/42/42 41/41/41 40/40/40
f 45/45/45 44/44/44 43/43/43
f 48/48/48 47/47/47 46/46/46
f 51/51/51 50/50/50 49/49/49
f 54/54/54 53/53/53 52/52/52
f 57/57/57 56/56/56 55/55/55
f 60/60/60 59/59/59 58/58/58
