g pb_Mesh98254
v -8 -14 10
v -10 -14 6
v -10 -14 10
v -8 -14 6
v -4 -14 10
v -4 -14 6
v 2 -14 10
v 2 -14 6
v 6 -14 10
v 6 -14 6
v 10 -14 10
v 10 -14 6
v -8 -14 -6
v -10 -14 -10
v -10 -14 -6
v -8 -14 -10
v -4 -14 -6
v -4 -14 -10
v 2 -14 -6
v 2 -14 -10
v 6 -14 -6
v 6 -14 -10
v 10 -14 -6
v 10 -14 -10
v -10 10 6
v -6 9 6
v -8 10 10
v -10 10 10
v -6 9 6
v -4 9 6
v -4 10 10
v -8 10 10
v 2 9 6
v 2 10 10
v 6 9 6
v 6 10 10
v 6 9 6
v 10 10 6
v 10 10 10
v -10 10 -10
v -8 10 -10
v -6 9 -6
v -10 10 -6
v -6 9 -6
v -6 9 6
v -10 10 6
v -4 10 -10
v -4 9 -6
v -6 9 -6
v -6 9 -6
v -4 9 -6
v -4 9 6
v -6 9 6
v 2 10 -10
v 2 9 -6
v 2 9 -6
v 2 9 6
v 6 10 -10
v 6 9 -6
v 6 9 -6
v 6 9 6
v 6 10 -10
v 10 10 -10
v 10 10 -6
v 6 9 -6
v 6 9 -6
v 10 10 -6
v 6 9 6
v -8 -14 10
v -10 -14 10
v -10 -2 10
v -8 -1 10
v -10 -2 -10
v -8 -14 -10
v -8 -1 -10
v -10 -14 -10
v -4 -14 10
v -4 0 10
v -4 -14 -10
v -4 0 -10
v -10 2 10
v -8 3 10
v -10 10 10
v -8 10 10
v -10 2 -10
v -8 3 -10
v -10 10 -10
v -8 10 -10
v -4 0 5
v -8 -1 5
v -8 3 5
v -4 4 5
v -4 4 10
v -4 10 10
v -4 4 -10
v -4 10 -10
v -4 0 10
v -8 -1 10
v -4 0 5
v -8 -1 5
v -8 -1 10
v -8 3 10
v -8 -1 5
v -8 3 5
v -4 4 10
v -4 0 10
v -4 4 5
v -4 0 5
v -8 3 10
v -4 4 10
v -8 3 5
v -4 4 5
v 2 -14 10
v 2 1 10
v 2 -14 -10
v 2 1 -10
v 2 5 10
v 2 10 10
v 2 5 -10
v 2 10 -10
v 10 -14 10
v 6 -14 10
v 6 2 10
v 10 2 10
v 6 2 -10
v 10 -14 -10
v 10 2 -10
v 6 -14 -10
v 6 6 10
v 10 8 10
v 6 2 4
v 2 1 4
v 2 5 4
v 6 6 4
v 6 10 10
v 10 10 10
v 6 6 -10
v 10 8 -10
v 6 10 -10
v 10 10 -10
v 6 2 10
v 2 1 10
v 6 2 4
v 2 1 4
v 2 1 10
v 2 5 10
v 2 1 4
v 2 5 4
v 6 6 10
v 6 2 10
v 6 6 4
v 6 2 4
v 2 5 10
v 6 6 10
v 2 5 4
v 6 6 4
v -10 -14 10
v -10 -14 6
v -10 -2 6
v -10 -2 10
v 10 2 6
v 10 -14 10
v 10 2 10
v 10 -14 6
v -10 2 6
v -10 2 10
v -10 10 6
v -10 10 10
v 10 8 6
v 10 8 10
v 10 10 6
v 10 10 10
v -10 -14 -6
v -10 -2 -6
v -10 -14 -10
v -10 -2 -10
v 10 2 -6
v 10 -14 -6
v 10 2 -10
v 10 -14 -10
v -10 2 -6
v -10 2 -10
v -10 10 -6
v -10 10 -10
v 10 8 -6
v 10 8 -10
v 10 10 -6
v 10 10 -10
vt -8 10
vt -10 6
vt -10 10
vt -8 6
vt -4 10
vt -4 6
vt 2 10
vt 2 6
vt 6 10
vt 6 6
vt 10 10
vt 10 6
vt -8 -6
vt -10 -10
vt -10 -6
vt -8 -10
vt -4 -6
vt -4 -10
vt 2 -6
vt 2 -10
vt 6 -6
vt 6 -10
vt 10 -6
vt 10 -10
vt 9.998797 5.9164886
vt 5.9989176 5.924822
vt 7.998797 9.916351
vt 9.998797 9.916349
vt 5.9989176 5.924822
vt 3.9989173 5.9248238
vt 3.9987972 9.916356
vt 7.998797 9.916351
vt -2.0010827 5.92483
vt -2.0012028 9.916362
vt -6.0010824 5.924834
vt -6.001203 9.916366
vt -6.0010824 5.924834
vt -10.001203 5.9165087
vt -10.001203 9.916369
vt 9.998797 -10.082956
vt 7.998797 -10.082954
vt 5.9989176 -6.074762
vt 9.998797 -6.083095
vt 5.9989176 -6.074762
vt 5.9989176 5.924822
vt 9.998797 5.9164886
vt 3.9987972 -10.082951
vt 3.9989173 -6.07476
vt 5.9989176 -6.074762
vt 5.9989176 -6.074762
vt 3.9989173 -6.07476
vt 3.9989173 5.9248238
vt 5.9989176 5.924822
vt -2.0012028 -10.082945
vt -2.0010827 -6.0747538
vt -2.0010827 -6.0747538
vt -2.0010827 5.92483
vt -6.001203 -10.08294
vt -6.0010824 -6.07475
vt -6.0010824 -6.07475
vt -6.0010824 5.924834
vt -6.001203 -10.08294
vt -10.001203 -10.082936
vt -10.001203 -6.083075
vt -6.0010824 -6.07475
vt -6.0010824 -6.07475
vt -10.001203 -6.083075
vt -6.0010824 5.924834
vt -8 -14
vt -10 -14
vt -10 -2
vt -8 -1
vt 10 -2
vt 8 -14
vt 8 -1
vt 10 -14
vt -4 -14
vt -4 0
vt 4 -14
vt 4 0
vt -10 2
vt -8 3
vt -10 10
vt -8 10
vt 10 2
vt 8 3
vt 10 10
vt 8 10
vt -4 0
vt -8 -1
vt -8 3
vt -4 4
vt -4 4
vt -4 10
vt 4 4
vt 4 10
vt 3.88057 10
vt 8.003675 10
vt 3.88057 5
vt 8.003675 5
vt -10 -1
vt -10 3
vt -5 -1
vt -5 3
vt 10 4
vt 10 0
vt 5 4
vt 5 0
vt -7.033533 10
vt -2.9104276 10
vt -7.033533 5
vt -2.9104276 5
vt 2 -14
vt 2 1
vt -2 -14
vt -2 1
vt 2 5
vt 2 10
vt -2 5
vt -2 10
vt 10 -14
vt 6 -14
vt 6 2
vt 10 2
vt -6 2
vt -10 -14
vt -10 2
vt -6 -14
vt 6 6
vt 10 8
vt 6 2
vt 2 1
vt 2 5
vt 6 6
vt 6 10
vt 10 10
vt -6 6
vt -10 8
vt -6 10
vt -10 10
vt -6.3059263 10
vt -2.1828206 10
vt -6.3059263 4
vt -2.1828206 4
vt -10 1
vt -10 5
vt -4 1
vt -4 5
vt 10 6
vt 10 2
vt 4 6
vt 4 2
vt 3.1529632 10
vt 7.2760687 10
vt 3.1529632 4
vt 7.2760687 4
vt 10 -14
vt 6 -14
vt 6 -2
vt 10 -2
vt -6 2
vt -10 -14
vt -10 2
vt -6 -14
vt 6 2
vt 10 2
vt 6 10
vt 10 10
vt -6 8
vt -10 8
vt -6 10
vt -10 10
vt -6 -14
vt -6 -2
vt -10 -14
vt -10 -2
vt 6 2
vt 6 -14
vt 10 2
vt 10 -14
vt -6 2
vt -10 2
vt -6 10
vt -10 10
vt 6 8
vt 10 8
vt 6 10
vt 10 10
vn -0 -1 0
vn -0 -1 0
vn -0 -1 0
vn -0 -1 0
vn -0 -1 0
vn -0 -1 0
vn -0 -1 0
vn -0 -1 0
vn -0 -1 0
vn -0 -1 0
vn -0 -1 0
vn -0 -1 0
vn -0 -1 0
vn -0 -1 0
vn -0 -1 0
vn -0 -1 0
vn -0 -1 0
vn -0 -1 0
vn -0 -1 0
vn -0 -1 0
vn -0 -1 0
vn -0 -1 0
vn -0 -1 0
vn -0 -1 0
vn 0.120385855 0.9815434 -0.060192928
vn 0.24077171 0.96308684 -0.120385855
vn 0.120385855 0.9815434 -0.060192928
vn -0 1 0
vn -0 0.97014254 -0.24253564
vn -0 0.97014254 -0.24253564
vn -0 0.97014254 -0.24253564
vn -0 0.97014254 -0.24253564
vn -0 0.9701425 -0.24253562
vn -0 0.9701425 -0.24253562
vn -0 0.97014254 -0.24253564
vn -0 0.97014254 -0.24253564
vn -0.12126782 0.97014254 -0.12126782
vn -0.24253564 0.97014254 0
vn -0.12126782 0.97014254 -0.12126782
vn 0.12126782 0.97014254 0.12126782
vn -0 0.97014254 0.24253564
vn 0.12126782 0.97014254 0.12126782
vn 0.24253564 0.97014254 0
vn 0.24253562 0.9701425 0
vn 0.24253562 0.9701425 0
vn 0.24253562 0.9701425 0
vn -0 0.97014254 0.24253564
vn -0 0.97014254 0.24253564
vn -0 0.97014254 0.24253564
vn -0 1 0
vn -0 1 0
vn -0 1 0
vn -0 1 0
vn -0 0.9701425 0.24253562
vn -0 0.9701425 0.24253562
vn -0 1 0
vn -0 1 0
vn -0 0.97014254 0.24253564
vn -0 0.97014254 0.24253564
vn -0 1 0
vn -0 1 0
vn -0.11785112 0.9714045 0.11785112
vn -0 1 0
vn -0.11785112 0.9714045 0.11785112
vn -0.23570225 0.942809 0.23570225
vn -0.24253562 0.9701425 0
vn -0.24253562 0.9701425 0
vn -0.24253562 0.9701425 0
vn -0 0 1
vn -0 0 1
vn -0 0 1
vn -0 0 1
vn -0 0 -1
vn -0 0 -1
vn -0 0 -1
vn -0 0 -1
vn -0 0 1
vn -0 0 1
vn -0 0 -1
vn -0 0 -1
vn -0 0 1
vn -0 0 1
vn -0 0 1
vn -0 0 1
vn -0 0 -1
vn -0 0 -1
vn -0 0 -1
vn -0 0 -1
vn -0 0 1
vn -0 0 1
vn -0 0 1
vn -0 0 1
vn -0 0 1
vn -0 0 1
vn -0 0 -1
vn -0 0 -1
vn -0.24253562 0.9701425 0
vn -0.24253562 0.9701425 0
vn -0.24253562 0.9701425 0
vn -0.24253562 0.9701425 0
vn 1 0 0
vn 1 0 0
vn 1 0 0
vn 1 0 0
vn -1 0 0
vn -1 0 0
vn -1 0 0
vn -1 0 0
vn 0.24253562 -0.9701425 0
vn 0.24253562 -0.9701425 0
vn 0.24253562 -0.9701425 0
vn 0.24253562 -0.9701425 0
vn -0 0 1
vn -0 0 1
vn -0 0 -1
vn -0 0 -1
vn -0 0 1
vn -0 0 1
vn -0 0 -1
vn -0 0 -1
vn -0 0 1
vn -0 0 1
vn -0 0 1
vn -0 0 1
vn -0 0 -1
vn -0 0 -1
vn -0 0 -1
vn -0 0 -1
vn -0 0 1
vn -0 0 1
vn -0 0 1
vn -0 0 1
vn -0 0 1
vn -0 0 1
vn -0 0 1
vn -0 0 1
vn -0 0 -1
vn -0 0 -1
vn -0 0 -1
vn -0 0 -1
vn -0.24253562 0.9701425 0
vn -0.24253562 0.9701425 0
vn -0.24253562 0.9701425 0
vn -0.24253562 0.9701425 0
vn 1 0 0
vn 1 0 0
vn 1 0 0
vn 1 0 0
vn -1 0 0
vn -1 0 0
vn -1 0 0
vn -1 0 0
vn 0.24253562 -0.9701425 0
vn 0.24253562 -0.9701425 0
vn 0.24253562 -0.9701425 0
vn 0.24253562 -0.9701425 0
vn -1 0 0
vn -1 0 0
vn -1 0 0
vn -1 0 0
vn 1 0 0
vn 1 0 0
vn 1 0 0
vn 1 0 0
vn -1 0 0
vn -1 0 0
vn -1 0 0
vn -1 0 0
vn 1 0 0
vn 1 0 0
vn 1 0 0
vn 1 0 0
vn -1 0 0
vn -1 0 0
vn -1 0 0
vn -1 0 0
vn 1 0 0
vn 1 0 0
vn 1 0 0
vn 1 0 0
vn -1 0 0
vn -1 0 0
vn -1 0 0
vn -1 0 0
vn 1 0 0
vn 1 0 0
vn 1 0 0
vn 1 0 0
g pb_Mesh98254_0
f 3/3/3 2/2/2 1/1/1
f 2/2/2 4/4/4 1/1/1
f 1/1/1 4/4/4 5/5/5
f 4/4/4 6/6/6 5/5/5
f 5/5/5 6/6/6 7/7/7
f 6/6/6 8/8/8 7/7/7
f 7/7/7 8/8/8 9/9/9
f 8/8/8 10/10/10 9/9/9
f 9/9/9 10/10/10 11/11/11
f 10/10/10 12/12/12 11/11/11
f 15/15/15 14/14/14 13/13/13
f 14/14/14 16/16/16 13/13/13
f 2/2/2 15/15/15 4/4/4
f 15/15/15 13/13/13 4/4/4
f 13/13/13 16/16/16 17/17/17
f 16/16/16 18/18/18 17/17/17
f 4/4/4 13/13/13 6/6/6
f 13/13/13 17/17/17 6/6/6
f 17/17/17 18/18/18 19/19/19
f 18/18/18 20/20/20 19/19/19
f 6/6/6 17/17/17 8/8/8
f 17/17/17 19/19/19 8/8/8
f 19/19/19 20/20/20 21/21/21
f 20/20/20 22/22/22 21/21/21
f 8/8/8 19/19/19 10/10/10
f 19/19/19 21/21/21 10/10/10
f 21/21/21 22/22/22 23/23/23
f 22/22/22 24/24/24 23/23/23
f 10/10/10 21/21/21 12/12/12
f 21/21/21 23/23/23 12/12/12
g pb_Mesh98254_1
f 27/27/27 26/26/26 25/25/25
f 27/27/27 25/25/25 28/28/28
f 31/31/31 30/30/30 29/29/29
f 31/31/31 29/29/29 32/32/32
f 34/34/34 33/33/33 30/30/30
f 34/34/34 30/30/30 31/31/31
f 36/36/36 35/35/35 33/33/33
f 36/36/36 33/33/33 34/34/34
f 39/39/39 38/38/38 37/37/37
f 39/39/39 37/37/37 36/36/36
f 42/42/42 41/41/41 40/40/40
f 42/42/42 40/40/40 43/43/43
f 45/45/45 44/44/44 43/43/43
f 45/45/45 43/43/43 46/46/46
f 48/48/48 47/47/47 41/41/41
f 48/48/48 41/41/41 49/49/49
f 52/52/52 51/51/51 50/50/50
f 52/52/52 50/50/50 53/53/53
f 55/55/55 54/54/54 47/47/47
f 55/55/55 47/47/47 48/48/48
f 57/57/57 56/56/56 51/51/51
f 57/57/57 51/51/51 52/52/52
f 59/59/59 58/58/58 54/54/54
f 59/59/59 54/54/54 55/55/55
f 61/61/61 60/60/60 56/56/56
f 61/61/61 56/56/56 57/57/57
f 64/64/64 63/63/63 62/62/62
f 64/64/64 62/62/62 65/65/65
f 38/38/38 67/67/67 66/66/66
f 38/38/38 66/66/66 68/68/68
g pb_Mesh98254_2
f 71/71/71 70/70/70 69/69/69
f 71/71/71 69/69/69 72/72/72
f 75/75/75 74/74/74 73/73/73
f 74/74/74 76/76/76 73/73/73
f 72/72/72 69/69/69 77/77/77
f 72/72/72 77/77/77 78/78/78
f 80/80/80 79/79/79 75/75/75
f 79/79/79 74/74/74 75/75/75
f 81/81/81 71/71/71 72/72/72
f 81/81/81 72/72/72 82/82/82
f 83/83/83 81/81/81 82/82/82
f 83/83/83 82/82/82 84/84/84
f 86/86/86 75/75/75 85/85/85
f 75/75/75 73/73/73 85/85/85
f 88/88/88 86/86/86 87/87/87
f 86/86/86 85/85/85 87/87/87
f 91/91/91 90/90/90 89/89/89
f 91/91/91 89/89/89 92/92/92
f 84/84/84 82/82/82 93/93/93
f 84/84/84 93/93/93 94/94/94
f 95/95/95 80/80/80 86/86/86
f 80/80/80 75/75/75 86/86/86
f 96/96/96 95/95/95 88/88/88
f 95/95/95 86/86/86 88/88/88
f 99/99/99 98/98/98 97/97/97
f 99/99/99 100/100/100 98/98/98
f 103/103/103 102/102/102 101/101/101
f 103/103/103 104/104/104 102/102/102
f 107/107/107 106/106/106 105/105/105
f 107/107/107 108/108/108 106/106/106
f 111/111/111 110/110/110 109/109/109
f 111/111/111 112/112/112 110/110/110
f 78/78/78 77/77/77 113/113/113
f 78/78/78 113/113/113 114/114/114
f 116/116/116 115/115/115 80/80/80
f 115/115/115 79/79/79 80/80/80
f 93/93/93 78/78/78 114/114/114
f 93/93/93 114/114/114 117/117/117
f 94/94/94 93/93/93 117/117/117
f 94/94/94 117/117/117 118/118/118
f 119/119/119 116/116/116 95/95/95
f 116/116/116 80/80/80 95/95/95
f 120/120/120 119/119/119 96/96/96
f 119/119/119 95/95/95 96/96/96
f 123/123/123 122/122/122 121/121/121
f 123/123/123 121/121/121 124/124/124
f 114/114/114 113/113/113 122/122/122
f 114/114/114 122/122/122 123/123/123
f 127/127/127 126/126/126 125/125/125
f 126/126/126 128/128/128 125/125/125
f 125/125/125 128/128/128 116/116/116
f 128/128/128 115/115/115 116/116/116
f 129/129/129 123/123/123 124/124/124
f 129/129/129 124/124/124 130/130/130
f 133/133/133 132/132/132 131/131/131
f 133/133/133 131/131/131 134/134/134
f 135/135/135 129/129/129 130/130/130
f 135/135/135 130/130/130 136/136/136
f 118/118/118 117/117/117 129/129/129
f 118/118/118 129/129/129 135/135/135
f 138/138/138 127/127/127 137/137/137
f 127/127/127 125/125/125 137/137/137
f 137/137/137 125/125/125 119/119/119
f 125/125/125 116/116/116 119/119/119
f 140/140/140 138/138/138 139/139/139
f 138/138/138 137/137/137 139/139/139
f 139/139/139 137/137/137 120/120/120
f 137/137/137 119/119/119 120/120/120
f 143/143/143 142/142/142 141/141/141
f 143/143/143 144/144/144 142/142/142
f 147/147/147 146/146/146 145/145/145
f 147/147/147 148/148/148 146/146/146
f 151/151/151 150/150/150 149/149/149
f 151/151/151 152/152/152 150/150/150
f 155/155/155 154/154/154 153/153/153
f 155/155/155 156/156/156 154/154/154
f 159/159/159 158/158/158 157/157/157
f 159/159/159 157/157/157 160/160/160
f 163/163/163 162/162/162 161/161/161
f 162/162/162 164/164/164 161/161/161
f 165/165/165 159/159/159 160/160/160
f 165/165/165 160/160/160 166/166/166
f 167/167/167 165/165/165 166/166/166
f 167/167/167 166/166/166 168/168/168
f 170/170/170 163/163/163 169/169/169
f 163/163/163 161/161/161 169/169/169
f 172/172/172 170/170/170 171/171/171
f 170/170/170 169/169/169 171/171/171
f 174/174/174 173/173/173 158/158/158
f 174/174/174 158/158/158 159/159/159
f 176/176/176 175/175/175 173/173/173
f 176/176/176 173/173/173 174/174/174
f 161/161/161 164/164/164 177/177/177
f 164/164/164 178/178/178 177/177/177
f 177/177/177 178/178/178 179/179/179
f 178/178/178 180/180/180 179/179/179
f 181/181/181 174/174/174 159/159/159
f 181/181/181 159/159/159 165/165/165
f 182/182/182 176/176/176 174/174/174
f 182/182/182 174/174/174 181/181/181
f 183/183/183 181/181/181 165/165/165
f 183/183/183 165/165/165 167/167/167
f 184/184/184 182/182/182 181/181/181
f 184/184/184 181/181/181 183/183/183
f 169/169/169 161/161/161 185/185/185
f 161/161/161 177/177/177 185/185/185
f 185/185/185 177/177/177 186/186/186
f 177/177/177 179/179/179 186/186/186
f 171/171/171 169/169/169 187/187/187
f 169/169/169 185/185/185 187/187/187
f 187/187/187 185/185/185 188/188/188
f 185/185/185 186/186/186 188/188/188
