g pb_Mesh-110626
v -0.74999964 -3 0.24999985
v -0.99999964 -3 0.24999976
v -0.7500045 5 0.24999833
v -1.0000045 5 0.24999863
v -0.99999964 -3 0.24999976
v -0.9999995 -3 -2.3841858E-07
v -1.0000045 5 0.24999863
v -1.0000086 5 -1.4049531E-06
v -0.9999995 -3 -2.3841858E-07
v -0.7499995 -3 -1.4901161E-07
v -1.0000086 5 -1.4049531E-06
v -0.7500086 5 -1.7029759E-06
v 1.0000005 -3 4.7683716E-07
v 1.0000004 -3 0.25000048
v 0.99999166 5 2.5562485E-08
v 0.99999577 5 0.25000006
v -0.7500045 5 0.24999833
v -1.0000045 5 0.24999863
v -0.7500086 5 -1.7029759E-06
v -1.0000086 5 -1.4049531E-06
v -0.7499995 -3 -1.4901161E-07
v -0.9999995 -3 -2.3841858E-07
v -0.74999964 -3 0.24999985
v -0.99999964 -3 0.24999976
v 0.7500005 -3 3.874302E-07
v 0.75000036 -3 0.2500004
v 1.0000005 -3 4.7683716E-07
v 1.0000004 -3 0.25000048
v 0.7499916 5 3.2358525E-07
v 0.7500005 -3 3.874302E-07
v 0.99999166 5 2.5562485E-08
v 1.0000005 -3 4.7683716E-07
v 0.75000036 -3 0.2500004
v 0.7499957 5 0.25000036
v 1.0000004 -3 0.25000048
v 0.99999577 5 0.25000006
v 0.7499957 5 0.25000036
v 0.7499916 5 3.2358525E-07
v 0.99999577 5 0.25000006
v 0.99999166 5 2.5562485E-08
v -0.74999964 -3 0.24999985
v -0.7500045 5 0.24999833
v -0.7499995 -3 -1.4901161E-07
v -0.7500086 5 -1.7029759E-06
v 0.7499957 5 0.25000036
v 0.75000036 -3 0.2500004
v 0.7499916 5 3.2358525E-07
v 0.7500005 -3 3.874302E-07
v -0.7499996 -3 0.12499985
v -0.7500065 5 0.12499831
v 0.7500004 -3 0.12500039
v 0.7499937 5 0.12500034
vt -0.7499996 -3
vt -0.9999996 -3
vt -0.7500044 5
vt -1.0000044 5
vt -1.8749998 -2.9999993
vt -2.1249998 -2.9999993
vt -1.875001 5.0000005
vt -2.125001 5.0000005
vt 0.9999995 -3
vt 0.7499995 -3
vt 1.0000086 5
vt 0.7500086 5
vt 2.125 -3.0000012
vt 1.875 -3.0000012
vt 2.1250005 4.999999
vt 1.8750005 4.999999
vt 0.7500045 -1.8750017
vt 1.0000045 -1.8750014
vt 0.7500086 -2.1250017
vt 1.0000086 -2.1250014
vt -0.7499995 -2.1250002
vt -0.9999995 -2.1250002
vt -0.74999964 -1.8750001
vt -0.99999964 -1.8750002
vt 0.7500005 -2.1249995
vt 0.75000036 -1.8749996
vt 1.0000005 -2.1249995
vt 1.0000004 -1.8749995
vt -0.7499916 5
vt -0.7500005 -3
vt -0.99999166 5
vt -1.0000005 -3
vt 0.7500005 -3
vt 0.7499958 5
vt 1.0000005 -3
vt 0.9999959 5
vt -0.7499957 -1.8749996
vt -0.7499916 -2.1249998
vt -0.99999577 -1.875
vt -0.99999166 -2.125
vt 1.8749998 -2.9999995
vt 1.8750013 5.0000005
vt 2.1249998 -2.9999995
vt 2.1250014 5.0000005
vt -1.8749874 4.9999995
vt -1.8749872 -3.0000005
vt -2.1249874 4.9999995
vt -2.1249874 -3.0000005
vt -0.7499995 -3
vt -0.75000644 5
vt 0.7500005 -3
vt 0.74999374 5
vn -3.5762787E-07 1.8998959E-07 1
vn 4.172324E-07 1.6577567E-07 1
vn 4.172324E-07 1.6577567E-07 1
vn 1.1920927E-06 1.4156177E-07 1
vn -1 -6.1094767E-07 -4.7683716E-07
vn -1 -8.717168E-07 7.867812E-06
vn -1 -8.717168E-07 7.867812E-06
vn -1 -1.132486E-06 1.6212462E-05
vn 3.5762787E-07 -1.4581641E-07 -1
vn -4.172316E-07 -1.7003165E-07 -1
vn -4.172316E-07 -1.7003165E-07 -1
vn -1.1920911E-06 -1.9424688E-07 -1
vn 1 1.1026859E-06 4.7683716E-07
vn 1 8.3818986E-07 -7.9870215E-06
vn 1 8.3818986E-07 -7.9870215E-06
vn 1 5.7369385E-07 -1.645088E-05
vn -0 1 0
vn -0 1 0
vn -0 1 0
vn -0 1 0
vn -0 -1 0
vn -0 -1 0
vn -0 -1 0
vn -0 -1 0
vn -0 -1 0
vn -0 -1 0
vn -0 -1 0
vn -0 -1 0
vn -1.1920908E-06 -7.98194E-09 -1
vn -4.172315E-07 -3.219544E-08 -1
vn -4.172315E-07 -3.219544E-08 -1
vn 3.5762787E-07 -5.640894E-08 -1
vn -3.5762787E-07 3.7250825E-09 1
vn 4.172324E-07 2.7939915E-08 1
vn 4.172324E-07 2.7939915E-08 1
vn 1.1920927E-06 5.2154746E-08 1
vn -0 1 0
vn -0 1 0
vn -0 1 0
vn -0 1 0
vn 1 6.0349714E-07 4.7683716E-07
vn 1 8.679911E-07 -7.9870215E-06
vn 1 8.679911E-07 -7.9870215E-06
vn 1 1.1324851E-06 -1.645088E-05
vn -1 -5.8114523E-07 1.645088E-05
vn -1 -8.456409E-07 7.9870215E-06
vn -1 -8.456409E-07 7.9870215E-06
vn -1 -1.1101365E-06 -4.7683716E-07
vn -3.5762787E-07 1.9278347E-07 1
vn -8.5681665E-07 9.918514E-08 1
vn -8.5681665E-07 9.918514E-08 1
vn -1.3560054E-06 5.5868035E-09 1
g pb_Mesh-110626_0
f 3/3/3 2/2/2 1/1/1
f 3/3/3 4/4/4 2/2/2
f 7/7/7 6/6/6 5/5/5
f 7/7/7 8/8/8 6/6/6
f 11/11/11 10/10/10 9/9/9
f 11/11/11 12/12/12 10/10/10
f 15/15/15 14/14/14 13/13/13
f 15/15/15 16/16/16 14/14/14
f 19/19/19 18/18/18 17/17/17
f 19/19/19 20/20/20 18/18/18
f 23/23/23 22/22/22 21/21/21
f 23/23/23 24/24/24 22/22/22
f 27/27/27 26/26/26 25/25/25
f 27/27/27 28/28/28 26/26/26
f 31/31/31 30/30/30 29/29/29
f 31/31/31 32/32/32 30/30/30
f 35/35/35 34/34/34 33/33/33
f 35/35/35 36/36/36 34/34/34
f 39/39/39 38/38/38 37/37/37
f 39/39/39 40/40/40 38/38/38
f 43/43/43 42/42/42 41/41/41
f 43/43/43 44/44/44 42/42/42
f 47/47/47 46/46/46 45/45/45
f 47/47/47 48/48/48 46/46/46
g pb_Mesh-110626_1
f 51/51/51 50/50/50 49/49/49
f 51/51/51 52/52/52 50/50/50
