g pb_Mesh-173248
v -0.74999964 -3 0.24999985
v -0.99999964 -3 0.24999976
v -0.75000167 12 0.25000063
v -1.0000017 12 0.2499996
v -0.99999964 -3 0.24999976
v -0.9999995 -3 -2.3841858E-07
v -1.0000017 12 0.2499996
v -1.0000006 12 -3.992982E-07
v -0.9999995 -3 -2.3841858E-07
v -0.7499995 -3 -1.4901161E-07
v -1.0000006 12 -3.992982E-07
v -0.75000066 12 6.139808E-07
v 1.0000005 -3 4.7683716E-07
v 1.0000004 -3 0.25000048
v 0.99999934 12 7.753897E-08
v 0.99999833 12 0.2500001
v -0.75000167 12 0.25000063
v -1.0000017 12 0.2499996
v -0.75000066 12 6.139808E-07
v -1.0000006 12 -3.992982E-07
v -0.7499995 -3 -1.4901161E-07
v -0.9999995 -3 -2.3841858E-07
v -0.74999964 -3 0.24999985
v -0.99999964 -3 0.24999976
v 0.7500005 -3 3.874302E-07
v 0.75000036 -3 0.2500004
v 1.0000005 -3 4.7683716E-07
v 1.0000004 -3 0.25000048
v 0.74999934 12 9.716086E-07
v 0.7500005 -3 3.874302E-07
v 0.99999934 12 7.753897E-08
v 1.0000005 -3 4.7683716E-07
v 0.75000036 -3 0.2500004
v 0.74999833 12 0.25000098
v 1.0000004 -3 0.25000048
v 0.99999833 12 0.2500001
v 0.74999833 12 0.25000098
v 0.74999934 12 9.716086E-07
v 0.99999833 12 0.2500001
v 0.99999934 12 7.753897E-08
v -0.74999964 -3 0.24999985
v -0.75000167 12 0.25000063
v -0.7499995 -3 -1.4901161E-07
v -0.75000066 12 6.139808E-07
v 0.74999833 12 0.25000098
v 0.75000036 -3 0.2500004
v 0.74999934 12 9.716086E-07
v 0.7500005 -3 3.874302E-07
v -0.7499996 -3 0.12499985
v -0.75000113 12 0.12500061
v 0.7500004 -3 0.12500039
v 0.74999887 12 0.12500097
vt -0.7499996 -3
vt -0.9999996 -3
vt -0.75000155 12
vt -1.0000015 12
vt -1.8749998 -2.9999998
vt -2.1249998 -2.9999998
vt -1.8749999 12
vt -2.125 12
vt 0.9999995 -3
vt 0.7499995 -3
vt 1.0000006 12
vt 0.75000066 12
vt 2.125 -3
vt 1.875 -3
vt 2.1250005 12
vt 1.8750004 12
vt 0.75000167 -1.8749994
vt 1.0000017 -1.8750004
vt 0.75000066 -2.1249993
vt 1.0000006 -2.1250005
vt -0.7499995 -2.1250002
vt -0.9999995 -2.1250002
vt -0.74999964 -1.8750001
vt -0.99999964 -1.8750002
vt 0.7500005 -2.1249995
vt 0.75000036 -1.8749996
vt 1.0000005 -2.1249995
vt 1.0000004 -1.8749995
vt -0.74999934 12
vt -0.7500005 -3
vt -0.99999934 12
vt -1.0000005 -3
vt 0.7500005 -3
vt 0.74999845 12
vt 1.0000005 -3
vt 0.99999845 12
vt -0.74999833 -1.874999
vt -0.74999934 -2.124999
vt -0.99999833 -1.8749999
vt -0.99999934 -2.125
vt 1.8749998 -3
vt 1.874999 12
vt 2.1249998 -3
vt 2.124999 12
vt -1.875002 12
vt -1.8750026 -3
vt -2.1250021 12
vt -2.1250026 -3
vt -0.7499995 -3
vt -0.7500011 12
vt 0.7500005 -3
vt 0.7499989 12
vn -3.5762787E-07 -5.165741E-08 1
vn -2.2351742E-06 -2.0365222E-08 1
vn -2.2351742E-06 -2.0365222E-08 1
vn -4.1127205E-06 1.0926963E-08 1
vn -1 -1.3510386E-07 -4.7683716E-07
vn -1 -1.0331474E-07 -2.3841858E-06
vn -1 -1.0331474E-07 -2.3841858E-06
vn -1 -7.152562E-08 -4.2915344E-06
vn 3.5762787E-07 -1.0725282E-08 -1
vn 2.2053723E-06 2.0070594E-08 -1
vn 2.2053723E-06 2.0070594E-08 -1
vn 4.0531168E-06 5.086647E-08 -1
vn 1 7.549923E-08 4.7683716E-07
vn 1 1.053016E-07 2.2649765E-06
vn 1 1.053016E-07 2.2649765E-06
vn 1 1.3510397E-07 4.053116E-06
vn -0 1 0
vn -0 1 0
vn -0 1 0
vn -0 1 0
vn -0 -1 0
vn -0 -1 0
vn -0 -1 0
vn -0 -1 0
vn -0 -1 0
vn -0 -1 0
vn -0 -1 0
vn -0 -1 0
vn -3.5762787E-06 3.894496E-08 -1
vn -1.6093254E-06 6.162554E-09 -1
vn -1.6093254E-06 6.162554E-09 -1
vn 3.5762787E-07 -2.6619853E-08 -1
vn -3.5762787E-07 -3.973648E-08 1
vn 1.6093254E-06 -6.953659E-09 1
vn 1.6093254E-06 -6.953659E-09 1
vn 3.5762787E-06 2.5829163E-08 1
vn -0 1 0
vn -0 1 0
vn -0 1 0
vn -0 1 0
vn 1 1.3510383E-07 4.7683716E-07
vn 1 1.0530142E-07 2.2649765E-06
vn 1 1.0530142E-07 2.2649765E-06
vn 1 7.5499E-08 4.053116E-06
vn -1 -1.3510369E-07 -4.053116E-06
vn -1 -1.05301446E-07 -2.2649765E-06
vn -1 -1.05301446E-07 -2.2649765E-06
vn -1 -7.54992E-08 -4.7683716E-07
vn -3.5762787E-07 -5.0663985E-08 1
vn -2.9802322E-07 -4.4703516E-08 1
vn -2.9802322E-07 -4.4703516E-08 1
vn -2.3841858E-07 -3.8743046E-08 1
g pb_Mesh-173248_0
f 3/3/3 2/2/2 1/1/1
f 3/3/3 4/4/4 2/2/2
f 7/7/7 6/6/6 5/5/5
f 7/7/7 8/8/8 6/6/6
f 11/11/11 10/10/10 9/9/9
f 11/11/11 12/12/12 10/10/10
f 15/15/15 14/14/14 13/13/13
f 15/15/15 16/16/16 14/14/14
f 19/19/19 18/18/18 17/17/17
f 19/19/19 20/20/20 18/18/18
f 23/23/23 22/22/22 21/21/21
f 23/23/23 24/24/24 22/22/22
f 27/27/27 26/26/26 25/25/25
f 27/27/27 28/28/28 26/26/26
f 31/31/31 30/30/30 29/29/29
f 31/31/31 32/32/32 30/30/30
f 35/35/35 34/34/34 33/33/33
f 35/35/35 36/36/36 34/34/34
f 39/39/39 38/38/38 37/37/37
f 39/39/39 40/40/40 38/38/38
f 43/43/43 42/42/42 41/41/41
f 43/43/43 44/44/44 42/42/42
f 47/47/47 46/46/46 45/45/45
f 47/47/47 48/48/48 46/46/46
g pb_Mesh-173248_1
f 51/51/51 50/50/50 49/49/49
f 51/51/51 52/52/52 50/50/50
