g pb_Mesh65338
v 25.999863 0 3.501111
v 9.99998 0 3.4982343
v 25.999863 16 3.501111
v 9.999979 16 3.4982343
v 25.999823 16 -9.99889
v 10.000283 16 -10.001766
v 10.000283 0 -10.001766
v 25.999823 0 -9.99889
v 25.999863 28 3.501111
v 25.999863 22 3.501111
v 9.99998 22 3.4982343
v 9.999977 28 3.4982343
v 10.000283 22 -10.001766
v 25.999823 22 -9.99889
v 10.000283 28 -10.001766
v 25.999823 28 -9.99889
v 25.999863 0 3.501111
v 25.999258 0 0.0011107378
v 9.99998 0 3.4982343
v 9.999547 0 -0.0017659685
v 9.999979 16 3.4982343
v 9.99998 0 3.4982343
v 9.999546 16 -0.0017659686
v 9.999547 0 -0.0017659685
v 25.999258 16 0.0011107378
v 25.999258 0 0.0011107378
v 25.999863 0 3.501111
v 25.999863 16 3.501111
v 9.999977 28 3.4982343
v 9.99998 22 3.4982343
v 9.999547 22 -0.0017659685
v 9.999544 28 -0.001765969
v 25.999258 28 0.0011107378
v 25.999863 22 3.501111
v 25.999863 28 3.501111
v 25.999258 22 0.0011107378
v 25.99936 0 -3.9998848
v 9.999735 0 -4.0009313
v 25.999823 0 -9.99889
v 10.000283 0 -10.001766
v 9.999546 16 -0.0017659686
v 9.999547 0 -0.0017659685
v 9.999735 16 -4.000931
v 9.999735 0 -4.0009313
v 10.000283 16 -10.001766
v 10.000283 0 -10.001766
v 25.999823 16 -9.99889
v 25.999823 0 -9.99889
v 25.99936 0 -3.9998848
v 25.99936 16 -3.9998834
v 25.999258 0 0.0011107378
v 25.999258 16 0.0011107378
v 9.999547 22 -0.0017659685
v 9.999735 22 -4.0009284
v 9.999544 28 -0.001765969
v 9.999735 28 -4.000931
v 10.000283 22 -10.001766
v 10.000283 28 -10.001766
v 13.499725 22 -0.0010717958
v 13.499725 16 -0.0010717958
v 13.500444 22 -4.0002346
v 13.500444 16 -4.0002384
v 25.99936 28 -3.9998832
v 25.999258 22 0.0011107378
v 25.999258 28 0.0011107378
v 25.99936 22 -3.9998815
v 25.999823 28 -9.99889
v 25.999823 22 -9.99889
v 9.999547 22 -0.0017659685
v 9.999546 16 -0.0017659686
v 13.499725 22 -0.0010717958
v 13.499725 16 -0.0010717958
v 9.999735 22 -4.0009284
v 9.999547 22 -0.0017659685
v 13.500444 22 -4.0002346
v 13.499725 22 -0.0010717958
v 9.999735 16 -4.000931
v 9.999735 22 -4.0009284
v 13.500444 16 -4.0002384
v 13.500444 22 -4.0002346
v 9.999544 28 -0.001765969
v 25.999258 28 0.0011107378
v 9.999977 28 3.4982343
v 25.999863 28 3.501111
v 9.999735 28 -4.000931
v 10.000283 28 -10.001766
v 25.99936 28 -3.9998832
v 25.999823 28 -9.99889
v 9.999546 16 -0.0017659686
v 9.999735 16 -4.000931
v 13.499725 16 -0.0010717958
v 13.500444 16 -4.0002384
vt 26.000492 -3.3307326E-11
vt 10.000609 -3.3307326E-11
vt 26.000492 16
vt 10.000608 16
vt -25.998026 16
vt -9.998486 16
vt -9.998486 0
vt -25.998026 0
vt 26.000492 28
vt 26.000492 22
vt 10.000609 22
vt 10.000607 28
vt -9.998486 22
vt -25.998026 22
vt -9.998486 28
vt -25.998026 28
vt 25.999863 3.501111
vt 25.999258 0.0011107378
vt 9.99998 3.4982343
vt 9.999547 -0.0017659685
vt 3.4982378 15.999999
vt 3.4982378 -1.1424165E-06
vt -0.0017624971 15.999999
vt -0.001762497 -1.1423673E-06
vt -0.0017193351 16
vt -0.0017193351 -2.3484497E-11
vt -3.5017197 -2.348497E-11
vt -3.5017197 16
vt 3.4982378 27.999998
vt 3.4982378 21.999998
vt -0.001762497 21.999998
vt -0.0017624975 27.999998
vt -0.0017193351 28
vt -3.5017197 22
vt -3.5017197 28
vt -0.0017193351 22
vt 25.99936 -3.9998848
vt 9.999735 -4.0009313
vt 25.999823 -9.99889
vt 10.000283 -10.001766
vt -0.0017624971 15.999999
vt -0.001762497 -1.1423673E-06
vt -4.0009274 15.999999
vt -4.000928 -1.1423889E-06
vt -10.001762 15.999999
vt -10.001762 -1.1424518E-06
vt 9.9982815 16
vt 9.9982815 -2.3485219E-11
vt 3.9992762 -2.3484673E-11
vt 3.9992747 16
vt -0.0017193351 -2.3484497E-11
vt -0.0017193351 16
vt -0.001762497 21.999998
vt -4.000925 21.999998
vt -0.0017624975 27.999998
vt -4.0009274 27.999998
vt -10.001762 21.999998
vt -10.001762 27.999998
vt -0.0034991172 22
vt -0.0034991172 16
vt -4.002662 22
vt -4.002666 16
vt 3.9992745 28
vt -0.0017193351 22
vt -0.0017193351 28
vt 3.9992728 22
vt 9.9982815 28
vt 9.9982815 22
vt -9.999547 22
vt -9.999546 16
vt -13.499725 22
vt -13.499725 16
vt 9.999735 -4.0009284
vt 9.999547 -0.0017659685
vt 13.500444 -4.0002346
vt 13.499725 -0.0010717958
vt 9.998943 15.999998
vt 9.998943 21.999998
vt 13.499653 15.999998
vt 13.499653 21.999998
vt -9.999544 -0.001765969
vt -25.999258 0.0011107378
vt -9.999977 3.4982343
vt -25.999863 3.501111
vt -9.999735 -4.000931
vt -10.000283 -10.001766
vt -25.99936 -3.9998832
vt -25.999823 -9.99889
vt -9.999546 -0.0017659686
vt -9.999735 -4.000931
vt -13.499725 -0.0010717958
vt -13.500444 -4.0002384
vn -0.00017979874 0 1
vn -0.00017979872 -5.3584194E-12 1
vn -0.00017979872 -5.3584194E-12 1
vn -0.00017979872 -1.0716839E-11 1
vn 0.00017977279 0 -1
vn 0.00017977279 0 -1
vn 0.00017977279 0 -1
vn 0.00017977279 0 -1
vn -0.0001797987 -4.286735E-11 1
vn -0.00017979872 0 1
vn -0.0001797987 -4.286735E-11 1
vn -0.00017979869 -8.57347E-11 1
vn 0.00017977277 0 -1
vn 0.00017977277 0 -1
vn 0.00017977277 0 -1
vn 0.00017977277 0 -1
vn -0 -1 0
vn -0 -1 0
vn -0 -1 0
vn -0 -1 0
vn -1 -5.9604645E-08 0.00012370518
vn -1 -5.9604645E-08 0.00012370518
vn -1 -5.9604645E-08 0.00012370518
vn -1 -5.9604645E-08 0.00012370518
vn 1 0 -0.00017275127
vn 1 0 -0.00017275127
vn 1 0 -0.00017275127
vn 1 0 -0.00017275127
vn -1 -4.7683716E-07 0.00012370518
vn -1 -4.7683716E-07 0.00012370518
vn -1 -4.7683716E-07 0.00012370518
vn -1 -4.7683716E-07 0.00012370518
vn 1 0 -0.00017275127
vn 1 0 -0.00017275127
vn 1 0 -0.00017275127
vn 1 0 -0.00017275127
vn -0 -1 0
vn -0 -1 0
vn -0 -1 0
vn -0 -1 0
vn -1 -5.9604645E-08 -4.7216738E-05
vn -1 -2.9801623E-08 -4.70975E-05
vn -1 -2.9801623E-08 -4.70975E-05
vn -1 1.4000614E-12 -4.6978264E-05
vn -1 1.361684E-12 -9.1381065E-05
vn -1 0 -9.138107E-05
vn 1 -2.3025399E-12 7.7260425E-05
vn 1 0 7.7260425E-05
vn 1 -2.3025399E-12 7.7260425E-05
vn 1 -4.6050798E-12 7.726042E-05
vn 1 -1.1294818E-12 2.5266087E-05
vn 1 0 2.526609E-05
vn -1 -4.7683716E-07 -4.6978297E-05
vn -1 -2.3842804E-07 -4.7335983E-05
vn -1 -2.3842804E-07 -4.7335983E-05
vn -1 -1.8951764E-11 -4.7693673E-05
vn -1 -1.8155779E-11 -9.138105E-05
vn -1 0 -9.1381065E-05
vn -1 0 -0.00017980524
vn -1 5.715849E-11 -0.00017980515
vn -1 5.715849E-11 -0.00017980515
vn -1 1.1431698E-10 -0.00017980507
vn 1 3.5139465E-12 2.5266098E-05
vn 1 3.5139465E-12 2.5266098E-05
vn 1 0 2.5266092E-05
vn 1 7.027893E-12 2.5266103E-05
vn 1 9.210159E-12 7.7260396E-05
vn 1 0 7.726039E-05
vn 0.00019832495 -1.2120348E-11 -1
vn 0.00019832494 -6.060174E-12 -1
vn 0.00019832494 -6.060174E-12 -1
vn 0.00019832492 0 -1
vn -0 -1 0
vn -0 -1 0
vn -0 -1 0
vn -0 -1 0
vn -0.00019777921 -3.973643E-07 1
vn -0.00019798352 -5.165736E-07 1
vn -0.00019798352 -5.165736E-07 1
vn -0.00019818784 -6.357829E-07 1
vn -0 1 0
vn -0 1 0
vn -0 1 0
vn -0 1 0
vn -0 1 0
vn -0 1 0
vn -0 1 0
vn -0 1 0
vn -0 1 0
vn -0 1 0
vn -0 1 0
vn -0 1 0
g pb_Mesh65338_0
f 3/3/3 2/2/2 1/1/1
f 3/3/3 4/4/4 2/2/2
f 7/7/7 6/6/6 5/5/5
f 8/8/8 7/7/7 5/5/5
f 11/11/11 10/10/10 9/9/9
f 12/12/12 11/11/11 9/9/9
f 11/11/11 4/4/4 3/3/3
f 11/11/11 3/3/3 10/10/10
f 14/14/14 5/5/5 13/13/13
f 5/5/5 6/6/6 13/13/13
f 16/16/16 14/14/14 15/15/15
f 14/14/14 13/13/13 15/15/15
f 19/19/19 18/18/18 17/17/17
f 20/20/20 18/18/18 19/19/19
f 23/23/23 22/22/22 21/21/21
f 23/23/23 24/24/24 22/22/22
f 27/27/27 26/26/26 25/25/25
f 28/28/28 27/27/27 25/25/25
f 31/31/31 30/30/30 29/29/29
f 32/32/32 31/31/31 29/29/29
f 31/31/31 21/21/21 30/30/30
f 31/31/31 23/23/23 21/21/21
f 35/35/35 34/34/34 33/33/33
f 34/34/34 36/36/36 33/33/33
f 28/28/28 25/25/25 36/36/36
f 34/34/34 28/28/28 36/36/36
f 20/20/20 37/37/37 18/18/18
f 20/20/20 38/38/38 37/37/37
f 40/40/40 39/39/39 37/37/37
f 38/38/38 40/40/40 37/37/37
f 43/43/43 42/42/42 41/41/41
f 43/43/43 44/44/44 42/42/42
f 45/45/45 44/44/44 43/43/43
f 45/45/45 46/46/46 44/44/44
f 49/49/49 48/48/48 47/47/47
f 50/50/50 49/49/49 47/47/47
f 51/51/51 49/49/49 50/50/50
f 52/52/52 51/51/51 50/50/50
f 55/55/55 54/54/54 53/53/53
f 56/56/56 54/54/54 55/55/55
f 56/56/56 57/57/57 54/54/54
f 58/58/58 57/57/57 56/56/56
f 61/61/61 60/60/60 59/59/59
f 61/61/61 62/62/62 60/60/60
f 57/57/57 43/43/43 54/54/54
f 57/57/57 45/45/45 43/43/43
f 65/65/65 64/64/64 63/63/63
f 64/64/64 66/66/66 63/63/63
f 63/63/63 66/66/66 67/67/67
f 66/66/66 68/68/68 67/67/67
f 50/50/50 47/47/47 68/68/68
f 66/66/66 50/50/50 68/68/68
f 52/52/52 50/50/50 66/66/66
f 64/64/64 52/52/52 66/66/66
f 71/71/71 70/70/70 69/69/69
f 71/71/71 72/72/72 70/70/70
f 75/75/75 74/74/74 73/73/73
f 75/75/75 76/76/76 74/74/74
f 79/79/79 78/78/78 77/77/77
f 79/79/79 80/80/80 78/78/78
g pb_Mesh65338_1
f 83/83/83 82/82/82 81/81/81
f 84/84/84 82/82/82 83/83/83
f 87/87/87 86/86/86 85/85/85
f 87/87/87 88/88/88 86/86/86
f 87/87/87 85/85/85 81/81/81
f 82/82/82 87/87/87 81/81/81
f 91/91/91 90/90/90 89/89/89
f 91/91/91 92/92/92 90/90/90
