g pb_Mesh103268
v -0 1.75 0
v -2 1.75 0
v -0 2 0
v -2 2 0
v -2 1.75 0
v -1.9999719 3.75 -10.000006
v -2 2 0
v -1.9999719 4 -10.000006
v -1.9999719 3.75 -10.000006
v 2.8133392E-05 3.75 -10
v -1.9999719 4 -10.000006
v 2.8133392E-05 4 -10
v 2.8133392E-05 3.75 -10
v -0 1.75 0
v 2.8133392E-05 4 -10
v -0 2 0
v -0 2 0
v -2 2 0
v 2.8133392E-05 4 -10
v -1.9999719 4 -10.000006
v 2.8133392E-05 3.75 -10
v -1.9999719 3.75 -10.000006
v -0 1.75 0
v -2 1.75 0
vt 0 1.75
vt -2 1.75
vt 0 2
vt -2 2
vt 5.6266754E-06 1.75
vt -10 3.75
vt 5.6266754E-06 2
vt -10 4
vt 2.0000005 3.75
vt 4.7683716E-07 3.75
vt 2.0000005 4
vt 4.7683716E-07 4
vt 10 3.75
vt 0 1.75
vt 10 4
vt 0 2
vt 0 -0.39223227
vt 2 -0.39223227
vt -2.8133392E-05 -10.590271
vt 1.9999719 -10.590277
vt 3.027916E-05 -10.541243
vt -1.9999697 -10.541248
vt 1.001358E-06 -0.34320325
vt -1.999999 -0.34320346
vn -0 0 1
vn -0 0 1
vn -0 0 1
vn -0 0 1
vn -1 0 -2.8133377E-06
vn -1 0 -2.8133377E-06
vn -1 0 -2.8133377E-06
vn -1 0 -2.8133377E-06
vn 2.861023E-06 0 -1
vn 2.861023E-06 0 -1
vn 2.861023E-06 0 -1
vn 2.861023E-06 0 -1
vn 1 0 2.8133393E-06
vn 1 0 2.8133393E-06
vn 1 0 2.8133393E-06
vn 1 0 2.8133393E-06
vn -0 0.9805807 0.19611613
vn -2.8054623E-07 0.9805807 0.19611609
vn -2.8054623E-07 0.9805807 0.19611609
vn -5.6109246E-07 0.9805807 0.19611603
vn 5.6109275E-07 -0.9805807 -0.19611613
vn 2.8054637E-07 -0.9805807 -0.19611609
vn 2.8054637E-07 -0.9805807 -0.19611609
vn -0 -0.9805807 -0.19611603
g pb_Mesh103268_0
f 3/3/3 2/2/2 1/1/1
f 3/3/3 4/4/4 2/2/2
f 7/7/7 6/6/6 5/5/5
f 7/7/7 8/8/8 6/6/6
f 11/11/11 10/10/10 9/9/9
f 11/11/11 12/12/12 10/10/10
f 15/15/15 14/14/14 13/13/13
f 15/15/15 16/16/16 14/14/14
f 19/19/19 18/18/18 17/17/17
f 19/19/19 20/20/20 18/18/18
f 23/23/23 22/22/22 21/21/21
f 23/23/23 24/24/24 22/22/22
