g pb_Mesh-554996
v -0.74999976 -5 0.12499985
v -0.99999976 -5 0.12499976
v -0.7499999 5 0.12500012
v -0.9999999 5 0.12499845
v -0.99999976 -5 0.12499976
v -0.99999964 -5 -0.12500024
v -0.9999999 5 0.12499845
v -1.0000001 5 -0.12500155
v -0.99999964 -5 -0.12500024
v -0.74999964 -5 -0.12500015
v -1.0000001 5 -0.12500155
v -0.7500001 5 -0.12499988
v 1.0000004 -5 -0.12499952
v 1.0000002 -5 0.12500048
v 0.9999999 5 -0.12499964
v 1.0000001 5 0.12500036
v -0.7499999 5 0.12500012
v -0.9999999 5 0.12499845
v -0.7500001 5 -0.12499988
v -1.0000001 5 -0.12500155
v -0.74999964 -5 -0.12500015
v -0.99999964 -5 -0.12500024
v -0.74999976 -5 0.12499985
v -0.99999976 -5 0.12499976
v 0.75000036 -5 -0.12499961
v 0.75000024 -5 0.12500039
v 1.0000004 -5 -0.12499952
v 1.0000002 -5 0.12500048
v 0.7499999 5 -0.124999404
v 0.75000036 -5 -0.12499961
v 0.9999999 5 -0.12499964
v 1.0000004 -5 -0.12499952
v 0.75000024 -5 0.12500039
v 0.7500001 5 0.1250006
v 1.0000002 -5 0.12500048
v 1.0000001 5 0.12500036
v 0.7500001 5 0.1250006
v 0.7499999 5 -0.124999404
v 1.0000001 5 0.12500036
v 0.9999999 5 -0.12499964
v -0.74999976 -5 0.12499985
v -0.7499999 5 0.12500012
v -0.74999964 -5 -0.12500015
v -0.7500001 5 -0.12499988
v 0.7500001 5 0.1250006
v 0.75000024 -5 0.12500039
v 0.7499999 5 -0.124999404
v 0.75000036 -5 -0.12499961
v -0.7499997 -5 -1.4901161E-07
v -0.75 5 1.1920929E-07
v 0.7500003 -5 3.874302E-07
v 0.75 5 5.9604645E-07
vt -0.7499997 -5
vt -0.9999997 -5
vt -0.7499998 5
vt -0.9999998 5
vt -1.9999998 -5
vt -2.2499998 -5
vt -2.000001 5
vt -2.250001 5
vt 0.9999997 -5
vt 0.7499997 -5
vt 1.0000001 5
vt 0.7500002 5
vt 2.25 -5
vt 2 -5
vt 2.25 5
vt 2 5
vt 0.7499999 -1.9999999
vt 0.9999999 -2.0000014
vt 0.7500001 -2.25
vt 1.0000001 -2.2500014
vt -0.74999964 -2.2500002
vt -0.99999964 -2.2500002
vt -0.74999976 -2.0000002
vt -0.99999976 -2.0000002
vt 0.75000036 -2.2499995
vt 0.75000024 -1.9999996
vt 1.0000004 -2.2499995
vt 1.0000002 -1.9999995
vt -0.75 5
vt -0.7500005 -5
vt -1 5
vt -1.0000005 -5
vt 0.7500003 -5
vt 0.7500002 5
vt 1.0000002 -5
vt 1.0000001 5
vt -0.7500001 -1.9999994
vt -0.7499999 -2.2499995
vt -1.0000001 -1.9999996
vt -0.9999999 -2.2499995
vt 1.9999998 -5
vt 1.9999995 5
vt 2.2499998 -5
vt 2.2499995 5
vt -1.9999987 5
vt -1.9999989 -5
vt -2.2499986 5
vt -2.2499988 -5
vt -0.7499997 -5
vt -0.75 5
vt 0.7500003 -5
vt 0.75 5
vn -3.5762787E-07 -2.6822097E-08 1
vn -3.516674E-06 5.215402E-08 1
vn -3.516674E-06 5.215402E-08 1
vn -6.67572E-06 1.3113014E-07 1
vn -1 -1.1920991E-08 -4.7683716E-07
vn -1 -2.9802292E-08 2.3841858E-07
vn -1 -2.9802292E-08 2.3841858E-07
vn -1 -4.7683592E-08 9.536743E-07
vn 3.5762787E-07 -1.311302E-07 -1
vn 3.516674E-06 -5.2153894E-08 -1
vn 3.516674E-06 -5.2153894E-08 -1
vn 6.67572E-06 2.682241E-08 -1
vn 1 4.768372E-08 4.7683716E-07
vn 1 2.9802319E-08 -2.3841858E-07
vn 1 2.9802319E-08 -2.3841858E-07
vn 1 1.1920918E-08 -9.536743E-07
vn -0 1 0
vn -0 1 0
vn -0 1 0
vn -0 1 0
vn -0 -1 0
vn -0 -1 0
vn -0 -1 0
vn -0 -1 0
vn -0 -1 0
vn -0 -1 0
vn -0 -1 0
vn -0 -1 0
vn -9.536743E-07 2.0861581E-08 -1
vn -2.9802322E-07 4.4703343E-09 -1
vn -2.9802322E-07 4.4703343E-09 -1
vn 3.5762787E-07 -1.1920912E-08 -1
vn -3.5762787E-07 -2.086163E-08 1
vn 2.9802322E-07 -4.470345E-09 1
vn 2.9802322E-07 -4.470345E-09 1
vn 9.536743E-07 1.1920941E-08 1
vn -0 1 0
vn -0 1 0
vn -0 1 0
vn -0 1 0
vn 1 1.1920916E-08 4.7683716E-07
vn 1 2.9802326E-08 -2.3841858E-07
vn 1 2.9802326E-08 -2.3841858E-07
vn 1 4.7683738E-08 -9.536743E-07
vn -1 -1.1920949E-08 9.536743E-07
vn -1 -2.9802326E-08 2.3841858E-07
vn -1 -2.9802326E-08 2.3841858E-07
vn -1 -4.7683706E-08 -4.7683716E-07
vn -3.5762787E-07 -2.6822102E-08 1
vn -3.3775967E-07 -2.3841867E-08 1
vn -3.3775967E-07 -2.3841867E-08 1
vn -3.1789145E-07 -2.0861632E-08 1
g pb_Mesh-554996_0
f 3/3/3 2/2/2 1/1/1
f 3/3/3 4/4/4 2/2/2
f 7/7/7 6/6/6 5/5/5
f 7/7/7 8/8/8 6/6/6
f 11/11/11 10/10/10 9/9/9
f 11/11/11 12/12/12 10/10/10
f 15/15/15 14/14/14 13/13/13
f 15/15/15 16/16/16 14/14/14
f 19/19/19 18/18/18 17/17/17
f 19/19/19 20/20/20 18/18/18
f 23/23/23 22/22/22 21/21/21
f 23/23/23 24/24/24 22/22/22
f 27/27/27 26/26/26 25/25/25
f 27/27/27 28/28/28 26/26/26
f 31/31/31 30/30/30 29/29/29
f 31/31/31 32/32/32 30/30/30
f 35/35/35 34/34/34 33/33/33
f 35/35/35 36/36/36 34/34/34
f 39/39/39 38/38/38 37/37/37
f 39/39/39 40/40/40 38/38/38
f 43/43/43 42/42/42 41/41/41
f 43/43/43 44/44/44 42/42/42
f 47/47/47 46/46/46 45/45/45
f 47/47/47 48/48/48 46/46/46
g pb_Mesh-554996_1
f 51/51/51 50/50/50 49/49/49
f 51/51/51 52/52/52 50/50/50
