g pb_Mesh74980
v 52 0 51
v -52 0 51
v 52 1 51
v -52 1 51
v -52 0 51
v -52 0 -69
v -52 1 51
v -52 1 -69
v -52 0 -69
v 52 0 -69
v -52 1 -69
v 52 1 -69
v 52 0 -69
v 52 0 51
v 52 1 -69
v 52 1 51
v 51 1 50
v -51 1 50
v 51 1 -68
v -51 1 -68
v 51 0 -68
v -51 0 -68
v 51 0 50
v -51 0 50
v 52 0 51
v -52 0 51
v 51 10 50
v 51 10 -68
v 52 10 51
v 52 10 -69
v -51 10 50
v -52 10 51
v -52 0 -69
v -51 10 -68
v -52 10 -69
v 52 0 -69
v 51 1 50
v 51 1 -68
v 51 10 50
v 51 10 -68
v 52 10 51
v -52 10 51
v 52 10 -69
v 52 10 51
v 51 1 -68
v -51 1 -68
v 51 10 -68
v -51 10 -68
v -52 10 -69
v 52 10 -69
v -51 1 -68
v -51 1 50
v -51 10 -68
v -51 10 50
v -52 10 51
v -52 10 -69
v -51 1 50
v 51 1 50
v -51 10 50
v 51 10 50
vt 52 0
vt -52 0
vt 52 1
vt -52 1
vt 51 0
vt -69 0
vt 51 1
vt -69 1
vt 52 0
vt -52 0
vt 52 1
vt -52 1
vt 69 0
vt -51 0
vt 69 1
vt -51 1
vt -51 50
vt 51 50
vt -51 -68
vt 51 -68
vt 51 -68
vt -51 -68
vt 51 50
vt -51 50
vt 52 51
vt -52 51
vt -51 50
vt -51 -68
vt -52 51
vt -52 -69
vt 51 50
vt 52 51
vt -52 -69
vt 51 -68
vt 52 -69
vt 52 -69
vt 50 1
vt -68 1
vt 50 10
vt -68 10
vt 52 10
vt -52 10
vt 69 10
vt -51 10
vt 51 1
vt -51 1
vt 51 10
vt -51 10
vt 52 10
vt -52 10
vt 68 1
vt -50 1
vt 68 10
vt -50 10
vt 51 10
vt -69 10
vt 51 1
vt -51 1
vt 51 10
vt -51 10
vn -0 0 1
vn -0 0 1
vn -0 0 1
vn -0 0 1
vn -1 0 0
vn -1 0 0
vn -1 0 0
vn -1 0 0
vn -0 0 -1
vn -0 0 -1
vn -0 0 -1
vn -0 0 -1
vn 1 0 0
vn 1 0 0
vn 1 0 0
vn 1 0 0
vn -0 1 0
vn -0 1 0
vn -0 1 0
vn -0 1 0
vn -0 -1 0
vn -0 -1 0
vn -0 -1 0
vn -0 -1 0
vn -0 -1 0
vn -0 -1 0
vn -0 1 0
vn -0 1 0
vn -0 1 0
vn -0 1 0
vn -0 1 0
vn -0 1 0
vn -0 -1 0
vn -0 1 0
vn -0 1 0
vn -0 -1 0
vn -1 0 0
vn -1 0 0
vn -1 0 0
vn -1 0 0
vn -0 0 1
vn -0 0 1
vn 1 0 0
vn 1 0 0
vn -0 0 1
vn -0 0 1
vn -0 0 1
vn -0 0 1
vn -0 0 -1
vn -0 0 -1
vn 1 0 0
vn 1 0 0
vn 1 0 0
vn 1 0 0
vn -1 0 0
vn -1 0 0
vn -0 0 -1
vn -0 0 -1
vn -0 0 -1
vn -0 0 -1
g pb_Mesh74980_0
f 3/3/3 2/2/2 1/1/1
f 3/3/3 4/4/4 2/2/2
f 7/7/7 6/6/6 5/5/5
f 7/7/7 8/8/8 6/6/6
f 11/11/11 10/10/10 9/9/9
f 11/11/11 12/12/12 10/10/10
f 15/15/15 14/14/14 13/13/13
f 15/15/15 16/16/16 14/14/14
f 19/19/19 18/18/18 17/17/17
f 19/19/19 20/20/20 18/18/18
f 23/23/23 22/22/22 21/21/21
f 23/23/23 24/24/24 22/22/22
f 25/25/25 24/24/24 23/23/23
f 25/25/25 26/26/26 24/24/24
f 29/29/29 28/28/28 27/27/27
f 29/29/29 30/30/30 28/28/28
f 32/32/32 27/27/27 31/31/31
f 32/32/32 29/29/29 27/27/27
f 26/26/26 22/22/22 24/24/24
f 26/26/26 33/33/33 22/22/22
f 35/35/35 31/31/31 34/34/34
f 35/35/35 32/32/32 31/31/31
f 33/33/33 21/21/21 22/22/22
f 33/33/33 36/36/36 21/21/21
f 30/30/30 34/34/34 28/28/28
f 30/30/30 35/35/35 34/34/34
f 36/36/36 23/23/23 21/21/21
f 36/36/36 25/25/25 23/23/23
f 39/39/39 38/38/38 37/37/37
f 39/39/39 40/40/40 38/38/38
f 41/41/41 4/4/4 3/3/3
f 41/41/41 42/42/42 4/4/4
f 43/43/43 16/16/16 15/15/15
f 43/43/43 44/44/44 16/16/16
f 47/47/47 46/46/46 45/45/45
f 47/47/47 48/48/48 46/46/46
f 49/49/49 12/12/12 11/11/11
f 49/49/49 50/50/50 12/12/12
f 53/53/53 52/52/52 51/51/51
f 53/53/53 54/54/54 52/52/52
f 55/55/55 8/8/8 7/7/7
f 55/55/55 56/56/56 8/8/8
f 59/59/59 58/58/58 57/57/57
f 59/59/59 60/60/60 58/58/58
