g pb_Mesh74064
v 2 -3 -10
v 8 -3 -10
v 2 -3 -16
v 8 -3 -16
v -10 -3 -10
v -10 -3 -16
v -16.000078 -3 3.9996927
v -16.00004 -3 1.9998814
v -16.000048 5 1.9998814
v -16.000078 3 3.9996927
v -16.000078 3 3.9996927
v -16.000048 5 1.9998814
v -16.00004 8 1.9998814
v -16.000078 8 3.9996927
v -10 3 -10
v 2 -3 -10
v 2 3 -10
v -10 -3 -10
v -10 8 -10
v 2 8 -10
v 2 8 -16
v 8 3 -16
v 8 8 -16
v 2 3 -16
v 8 -3 -16
v 2 -3 -16
v 7.9999433 -3 8.000076
v -10.000154 -3 7.9997716
v -10.000154 3 7.9997716
v 7.9999433 3 8.000076
v -10.000154 8 7.9997716
v 7.9999433 8 8.000076
v -10 -1 -10
v -10 -1 -16
v -10 0 -16
v -10 0 -10
v -10 -3 -10
v -10 -3 -16
v 15.000273 3 -13.999716
v 16.000193 -3 -9.999966
v 16.000193 3 -9.999966
v 15.000273 -3 -13.999716
v 8 8 -16
v 8.00004 3 -11.999849
v 8 8 -10
v 8 3 -16
v -10 -1 -10
v -10 0 -10
v 2 3 -10
v 2 8 -10
v 2 -3 -10
v -10 -3 -10
v -10 -1 -16
v -10 -3 -16
v -10 0 -16
v 11.999849 -3 8.000229
v 11.999849 3 8.000229
v 15.999849 -3 8.000305
v 15.999849 3 8.000305
v 8 3 -16
v 12.000307 -3 -15.999967
v 12.000307 3 -15.999967
v 8 -3 -16
v 12.000307 3 -15.999967
v 15.000273 -3 -13.999716
v 15.000273 3 -13.999716
v 12.000307 -3 -15.999967
v 12.000193 -3 -9.999966
v 12.000307 -3 -15.999967
v 16.000193 -3 -9.999966
v 15.000273 -3 -13.999716
v 7.9999433 3 8.000076
v 11.999849 8 8.000229
v 7.9999433 8 8.000076
v 2 -3 -2
v -10 -3 -2
v -10.000077 -3 3.9998093
v 8 -3 -2
v 7.9999433 -3 8.000076
v -10 -3 2
v -10 -3 -2
v -10 3 -2
v -10.000006 5 1.9999996
v -10 -3 -10
v -10 3 -10
v -10 8 -2
v -10 8 2
v -10 8 -10
v 16.00004 3 -1.9999627
v 15.999849 -3 8.000305
v 15.999849 3 8.000305
v 16.00004 -3 -1.9999627
v 16.000193 3 -9.999966
v 16.000193 -3 -9.999966
v 8 8 -2
v 7.9999433 3 8.000076
v 8 8 2
v 8 3 -2
v 8 8 -10
v 8.00004 3 -11.999849
v 12.00004 -3 -1.9999627
v 11.999849 -3 8.000229
v 16.00004 -3 -1.9999627
v 15.999849 -3 8.000305
v 12.000235 3 -11.999773
v 12.00004 3 -1.9999627
v 12.00004 8 -1.9999627
v 11.999849 3 8.000229
v 11.999849 8 8.000229
v 7.9999433 3 8.000076
v 8 3 -2
v 8 8 -2
v 7.9999433 8 8.000076
v 8.00004 3 -11.999849
v -16.000078 8 3.9996927
v -16.000154 3 7.999657
v -16.000154 8 7.999657
v 8 8 2
v 7.9999433 8 8.000076
v -10.000154 -3 7.9997716
v -16.000078 -3 3.9996927
v -16.000154 -3 7.999657
v -10.000077 8 3.9998093
v -10.000154 8 7.9997716
v -16.000078 8 3.9996927
v -16.000154 8 7.999657
v -10.000006 5 1.9999996
v -10 8 2
v -16.000048 5 1.9998814
v -16.00004 8 1.9998814
v -16.000154 8 7.999657
v -16.000154 3 7.999657
v -10 8 2
v -16.00004 8 1.9998814
v -10 -3 2
v -16.000078 -3 3.9996927
v -16.00004 -3 1.9998814
v -9.999775 -3 -10.000193
v -9.99978 0 -10.000196
v -15.999818 -3 -10.000307
v -15.9998255 0 -10.000311
v -16.000154 -3 7.999657
v -16.000154 -3 7.999657
v -10 -3 2
v -10.000006 5 1.9999996
v -9.999887 -3 -4.0001917
v -9.999892 5 -4.0001936
v -15.999928 -3 -4.000306
v -9.999887 -3 -4.0001917
v -15.999936 5 -4.000308
v -15.999928 -3 -4.000306
v -9.999775 -3 -10.000193
v -9.99978 0 -10.000196
v -15.999818 -3 -10.000307
v -9.999775 -3 -10.000193
v -15.9998255 0 -10.000311
v -15.999818 -3 -10.000307
v 8 8 -10
v 2 8 -10
v 8 8 -16
v 2 8 -16
v 2 8 -16
v 2 8 -10
v -10 0 -16
v -10 0 -10
v 8 3 -16
v 12.000307 3 -15.999967
v 12.000235 3 -11.999773
v 8.00004 3 -11.999849
v 15.000273 3 -13.999716
v 16.000193 3 -9.999966
v -10 8 -2
v 2 8 -2
v -10.000077 8 3.9998093
v -10 8 -10
v 8 8 -2
v 8 8 2
v 8.00004 3 -11.999849
v 12.000235 3 -11.999773
v 12.00004 8 -1.9999627
v 8 8 -2
v 8 8 -2
v 12.00004 8 -1.9999627
v 11.999849 8 8.000229
v 7.9999433 8 8.000076
v 16.00004 3 -1.9999627
v 12.00004 3 -1.9999627
v 15.999849 3 8.000305
v 11.999849 3 8.000229
v -10.000154 8 7.9997716
v 7.9999433 8 8.000076
v -10.000006 5 1.9999996
v -16.000048 5 1.9998814
v -9.999892 5 -4.0001936
v -15.999936 5 -4.000308
v -9.999892 5 -4.0001936
v -15.999936 5 -4.000308
v -9.99978 0 -10.000196
v -15.9998255 0 -10.000311
vt 2 -10
vt 8 -10
vt 2 -16
vt 8 -16
vt -10 -10
vt -10 -16
vt 3.9999979 -2.9999847
vt 2.0001867 -2.9999847
vt 2.0001867 5.0000153
vt 3.9999979 3.0000153
vt 3.999896 2.9999592
vt 2.0000849 4.9999595
vt 2.0000849 7.9999595
vt 3.999896 7.9999595
vt 10 3
vt -2 -3
vt -2 3
vt 10 -3
vt 10 8
vt -2 8
vt -2 8
vt -8 3
vt -8 8
vt -2 3
vt -8 -3
vt -2 -3
vt 8.000079 -3
vt -10.000018 -3
vt -10.000018 3
vt 8.000079 3
vt -10.000018 8
vt 8.000079 8
vt -10 -1
vt -16 -1
vt -16 0
vt -10 0
vt -10 -3
vt -16 -3
vt 9.943693 3
vt 5.8208494 -3
vt 5.8208494 3
vt 9.943693 -3
vt 16 7.999936
vt 11.999849 2.9999359
vt 10 7.999936
vt 16 2.9999359
vt -10 -1
vt -10 0
vt 2 3
vt 2 8
vt 2 -3
vt -10 -3
vt 10 -1
vt 10 -3
vt 10 0
vt 12.000078 -3
vt 12.000078 3
vt 16.000078 -3
vt 16.000078 3
vt -3.019559 3
vt -6.848189 -3
vt -6.848189 3
vt -3.019559 -3
vt -6.848189 3
vt -10.29911 -3
vt -10.29911 3
vt -6.848189 -3
vt 12.000193 -9.999966
vt 12.000307 -15.999967
vt 16.000193 -9.999966
vt 15.000273 -13.999716
vt 8.000249 3
vt 12.0001545 8
vt 8.000249 8
vt 2 -2
vt -10 -2
vt -10.000077 3.9998093
vt 8 -2
vt 7.9999433 8.000076
vt 2.0000036 -3
vt -1.9999964 -3
vt -1.9999964 3
vt 2.0000033 5
vt -9.999996 -3
vt -9.999996 3
vt -1.9999964 8
vt 2.0000036 8
vt -9.999996 8
vt 2.0002677 3
vt -8 -3
vt -8 3
vt 2.0002677 -3
vt 10.000271 3
vt 10.000271 -3
vt 2 8.000046
vt -8.000076 3.0000453
vt -2 8.000046
vt 2 3.0000453
vt 10 8.000046
vt 11.999849 3.0000453
vt 12.00004 -1.9999627
vt 11.999849 8.000229
vt 16.00004 -1.9999627
vt 15.999849 8.000305
vt 12.000004 3
vt 2.0001938 3
vt 2.0001938 8
vt -7.9999976 3
vt -7.9999976 8
vt 8.000037 3
vt -2.0000386 3
vt -2.0000386 8
vt 8.000037 8
vt -11.999888 3
vt 3.9999979 8
vt 7.9999623 3
vt 7.9999623 8
vt -1.9999243 8
vt -8.000001 8
vt -10.000154 7.9997716
vt 3.9999979 -3
vt 7.9999623 -3
vt 10.000077 3.9998093
vt 10.000154 7.9997716
vt 16.000078 3.9996927
vt 16.000154 7.999657
vt 9.999967 5
vt 9.999961 8
vt 16.000008 5
vt 16 8
vt -16.000002 8
vt -16.000002 3
vt 10 2
vt 16.00004 1.9998814
vt -10 2
vt -16.000078 3.9996927
vt -16.00004 1.9998814
vt 9.999966 -2.9999874
vt 9.99997 1.2715361E-05
vt 16.00001 -2.9999874
vt 16.000017 1.2715361E-05
vt -16.000154 7.999657
vt -16.000002 -3
vt -2.0001876 -2.9999928
vt -2.0001872 5.000007
vt 4.0000043 -2.9999928
vt 4.000006 5.000007
vt -15.999928 -4.000306
vt -9.999887 -4.0001917
vt -4.0000105 5.0000153
vt -4.0000086 -2.9999847
vt 10.000005 -2.999994
vt 10.000009 5.9604895E-06
vt -15.999818 -10.000307
vt -9.999775 -10.000193
vt -10.000029 1.5258858E-05
vt -10.000025 -2.9999847
vt -8 -10
vt -2 -10
vt -8 -16
vt -2 -16
vt -6.101702 -16
vt -6.101702 -10
vt 8.320502 -16
vt 8.320502 -10
vt -8 -16
vt -12.000307 -15.999967
vt -12.000235 -11.999773
vt -8.00004 -11.999849
vt -15.000273 -13.999716
vt -16.000193 -9.999966
vt 10 -2
vt -2 -2
vt 10.000077 3.9998093
vt 10 -10
vt -8 -2
vt -8 2
vt -8.000027 -10.9895525
vt -12.000221 -10.989474
vt -12.000004 -0.10839465
vt -7.9999638 -0.1084351
vt -7.9999638 -0.1084351
vt -12.000004 -0.10839465
vt -11.999813 9.624273
vt -7.999907 9.624121
vt -16.00004 -1.9999627
vt -12.00004 -1.9999627
vt -15.999849 8.000305
vt -11.999849 8.000229
vt 10.000154 7.9997716
vt -7.9999433 8.000076
vt 10.000006 1.9999996
vt 16.000048 1.9998814
vt 9.999892 -4.0001936
vt 15.999936 -4.000308
vt 9.999971 0.1277849
vt 16.000015 0.12763593
vt 9.99978 -7.682467
vt 15.9998255 -7.682616
vn -0 -1 0
vn -0 -1 0
vn -0 -1 0
vn -0 -1 0
vn -0 -1 0
vn -0 -1 0
vn -1 -4.7683716E-07 -1.7167757E-05
vn -1 -9.536743E-07 -1.9075285E-05
vn -1 -4.7683716E-07 -1.7167757E-05
vn -1 0 -1.5260228E-05
vn -1 1.2715657E-06 -1.5896072E-05
vn -1 2.5431314E-06 -1.2716857E-05
vn -1 1.2715657E-06 -1.5896072E-05
vn -1 0 -1.9075285E-05
vn -0 0 -1
vn -0 0 -1
vn -0 0 -1
vn -0 0 -1
vn -0 0 -1
vn -0 0 -1
vn -0 0 -1
vn -0 0 -1
vn -0 0 -1
vn -0 0 -1
vn -0 0 -1
vn -0 0 -1
vn -1.6927628E-05 0 1
vn -1.6927628E-05 0 1
vn -1.6927628E-05 0 1
vn -1.6927628E-05 0 1
vn -1.6927628E-05 0 1
vn -1.6927628E-05 0 1
vn -1 0 0
vn -1 0 0
vn -1 0 0
vn -1 0 0
vn -1 0 0
vn -1 0 0
vn 0.9701435 0 -0.2425316
vn 0.9701435 0 -0.2425316
vn 0.9701435 0 -0.2425316
vn 0.9701435 0 -0.2425316
vn 1 4.005432E-06 -5.0066014E-06
vn 1 4.005432E-06 -5.0066014E-06
vn 1 8.010864E-06 0
vn 1 0 -1.0013203E-05
vn -0 0 1
vn -0 0 1
vn -0 0 1
vn -0 0 1
vn -0 0 1
vn -0 0 1
vn -0 0 -1
vn -0 0 -1
vn -0 0 -1
vn -3.814787E-05 0 1
vn -3.814787E-05 0 1
vn -1.9073486E-05 0 1
vn -1.9073486E-05 0 1
vn 8.34401E-06 0 -1
vn 8.34401E-06 0 -1
vn 8.34401E-06 0 -1
vn 8.34401E-06 0 -1
vn 0.55475277 0 -0.8320153
vn 0.55475277 0 -0.8320153
vn 0.55475277 0 -0.8320153
vn 0.55475277 0 -0.8320153
vn -0 -1 0
vn -0 -1 0
vn -0 -1 0
vn -0 -1 0
vn -3.8147868E-05 0 1
vn -3.8147868E-05 0 1
vn -3.8147868E-05 0 1
vn -0 -1 0
vn -0 -1 0
vn -0 -1 0
vn -0 -1 0
vn -0 -1 0
vn -1 -3.5762793E-07 -5.3644186E-07
vn -1 0 0
vn -1 -3.5762793E-07 -5.3644186E-07
vn -1 -7.1525585E-07 -1.0728837E-06
vn -1 0 0
vn -1 0 0
vn -1 9.536743E-07 -7.152558E-07
vn -1 1.9073486E-06 0
vn -1 0 0
vn 1 0 1.9072975E-05
vn 1 0 1.9072975E-05
vn 1 0 1.9072975E-05
vn 1 0 1.9072975E-05
vn 1 0 1.907348E-05
vn 1 0 1.907348E-05
vn 1 -5.674362E-06 2.8371594E-06
vn 1 -5.674362E-06 2.8371594E-06
vn 1 -1.1348724E-05 0
vn 1 0 5.674319E-06
vn 1 3.204394E-06 2.0027462E-06
vn 1 6.408788E-06 4.0054924E-06
vn -0 -1 0
vn -0 -1 0
vn -0 -1 0
vn -0 -1 0
vn 1 0 1.9455325E-05
vn 1 0 1.9455325E-05
vn 1 0 1.9455325E-05
vn 1 0 1.907312E-05
vn 1 0 1.907312E-05
vn -1 0 -5.674319E-06
vn -1 0 -5.674319E-06
vn -1 0 -5.674319E-06
vn -1 0 -5.674319E-06
vn -1 0 -4.0054924E-06
vn -1 0 -1.9073655E-05
vn -1 0 -1.9073655E-05
vn -1 0 -1.9073655E-05
vn 1 0 9.45715E-06
vn 1 0 9.45715E-06
vn -0 -1 0
vn -1 0 -1.9073655E-05
vn -1 0 -1.9073655E-05
vn -0 1 0
vn -0 1 0
vn -0 1 0
vn -0 1 0
vn 1.9709132E-05 1.19171695E-07 -1
vn 1.9738938E-05 5.956071E-08 -1
vn 1.9738938E-05 5.956071E-08 -1
vn 1.9768742E-05 -5.027451E-11 -1
vn -1.9073485E-05 0 1
vn -1.9073485E-05 0 1
vn -0 1 0
vn -0 1 0
vn -0 -1 0
vn -0 -1 0
vn -0 -1 0
vn 1.9073348E-05 -1.2715353E-06 -1
vn 1.9073344E-05 -1.2715263E-06 -1
vn 1.9073344E-05 -1.2715263E-06 -1
vn 1.907334E-05 -1.2715172E-06 -1
vn -0 -1 0
vn -1.9073483E-05 0 1
vn 1 7.152566E-07 1.8754996E-05
vn 1 6.5565376E-07 1.8834464E-05
vn 1 6.5565376E-07 1.8834464E-05
vn 1 5.9605094E-07 1.8913932E-05
vn -0 -1 0
vn -0 -1 0
vn -1 -9.536766E-07 -1.8596065E-05
vn -1 -9.536788E-07 -1.8596069E-05
vn 1 1.0927652E-06 1.8093306E-05
vn 1 1.5894794E-06 1.743102E-05
vn -0 -1 0
vn -0 -1 0
vn -1 -1.7484167E-06 -1.8040333E-05
vn -1 -2.5431548E-06 -1.84377E-05
vn -0 1 0
vn -0 1 0
vn -0 1 0
vn -0 1 0
vn -0.5547002 0.83205026 0
vn -0.5547002 0.83205026 0
vn -0.5547002 0.83205026 0
vn -0.5547002 0.83205026 0
vn -0 1 0
vn -0 1 0
vn -0 1 0
vn -0 1 0
vn -0 1 0
vn -0 1 0
vn -0 1 0
vn -0 1 0
vn -0 1 0
vn -0 1 0
vn -0 1 0
vn -0 1 0
vn 6.3506554E-06 0.8944242 -0.44721967
vn 8.529637E-06 0.89442384 -0.44722039
vn 6.3506554E-06 0.8944242 -0.44721967
vn 4.171674E-06 0.8944245 -0.44721898
vn -0 1 0
vn -0 1 0
vn -0 1 0
vn -0 1 0
vn -0 1 0
vn -0 1 0
vn -0 1 0
vn -0 1 0
vn -0 1 0
vn -0 1 0
vn -0 1 0
vn -0 1 0
vn -0 1 0
vn -0 1 0
vn 1.2210456E-05 0.76822144 -0.6401842
vn 1.2210454E-05 0.76822144 -0.6401842
vn 1.2210454E-05 0.76822144 -0.6401842
vn 1.2210451E-05 0.76822144 -0.6401842
g pb_Mesh74064_0
f 3/3/3 2/2/2 1/1/1
f 3/3/3 4/4/4 2/2/2
f 5/5/5 3/3/3 1/1/1
f 5/5/5 6/6/6 3/3/3
f 9/9/9 8/8/8 7/7/7
f 9/9/9 7/7/7 10/10/10
f 13/13/13 12/12/12 11/11/11
f 13/13/13 11/11/11 14/14/14
f 17/17/17 16/16/16 15/15/15
f 16/16/16 18/18/18 15/15/15
f 20/20/20 17/17/17 19/19/19
f 17/17/17 15/15/15 19/19/19
f 23/23/23 22/22/22 21/21/21
f 22/22/22 24/24/24 21/21/21
f 22/22/22 25/25/25 24/24/24
f 25/25/25 26/26/26 24/24/24
f 29/29/29 28/28/28 27/27/27
f 29/29/29 27/27/27 30/30/30
f 31/31/31 29/29/29 30/30/30
f 31/31/31 30/30/30 32/32/32
f 35/35/35 34/34/34 33/33/33
f 35/35/35 33/33/33 36/36/36
f 34/34/34 38/38/38 37/37/37
f 34/34/34 37/37/37 33/33/33
f 41/41/41 40/40/40 39/39/39
f 40/40/40 42/42/42 39/39/39
f 45/45/45 44/44/44 43/43/43
f 44/44/44 46/46/46 43/43/43
f 49/49/49 48/48/48 47/47/47
f 48/48/48 49/49/49 50/50/50
f 47/47/47 52/52/52 51/51/51
f 47/47/47 51/51/51 49/49/49
f 24/24/24 26/26/26 53/53/53
f 26/26/26 54/54/54 53/53/53
f 21/21/21 24/24/24 55/55/55
f 53/53/53 55/55/55 24/24/24
f 30/30/30 27/27/27 56/56/56
f 30/30/30 56/56/56 57/57/57
f 57/57/57 56/56/56 58/58/58
f 57/57/57 58/58/58 59/59/59
f 62/62/62 61/61/61 60/60/60
f 61/61/61 63/63/63 60/60/60
f 66/66/66 65/65/65 64/64/64
f 65/65/65 67/67/67 64/64/64
f 2/2/2 4/4/4 68/68/68
f 4/4/4 69/69/69 68/68/68
f 68/68/68 69/69/69 70/70/70
f 69/69/69 71/71/71 70/70/70
f 73/73/73 72/72/72 57/57/57
f 73/73/73 74/74/74 72/72/72
f 76/76/76 5/5/5 75/75/75
f 5/5/5 1/1/1 75/75/75
f 76/76/76 75/75/75 77/77/77
f 75/75/75 1/1/1 78/78/78
f 1/1/1 2/2/2 78/78/78
f 77/77/77 75/75/75 79/79/79
f 75/75/75 78/78/78 79/79/79
f 82/82/82 81/81/81 80/80/80
f 82/82/82 80/80/80 83/83/83
f 85/85/85 84/84/84 81/81/81
f 85/85/85 81/81/81 82/82/82
f 86/86/86 82/82/82 83/83/83
f 86/86/86 83/83/83 87/87/87
f 88/88/88 85/85/85 82/82/82
f 88/88/88 82/82/82 86/86/86
f 91/91/91 90/90/90 89/89/89
f 90/90/90 92/92/92 89/89/89
f 89/89/89 92/92/92 93/93/93
f 92/92/92 94/94/94 93/93/93
f 97/97/97 96/96/96 95/95/95
f 96/96/96 98/98/98 95/95/95
f 95/95/95 98/98/98 99/99/99
f 98/98/98 100/100/100 99/99/99
f 78/78/78 2/2/2 101/101/101
f 2/2/2 68/68/68 101/101/101
f 79/79/79 78/78/78 102/102/102
f 78/78/78 101/101/101 102/102/102
f 101/101/101 68/68/68 103/103/103
f 68/68/68 70/70/70 103/103/103
f 102/102/102 101/101/101 104/104/104
f 101/101/101 103/103/103 104/104/104
f 107/107/107 106/106/106 105/105/105
f 109/109/109 108/108/108 107/107/107
f 108/108/108 106/106/106 107/107/107
f 112/112/112 111/111/111 110/110/110
f 112/112/112 110/110/110 113/113/113
f 114/114/114 111/111/111 112/112/112
f 116/116/116 115/115/115 10/10/10
f 116/116/116 117/117/117 115/115/115
f 119/119/119 96/96/96 118/118/118
f 79/79/79 120/120/120 77/77/77
f 122/122/122 10/10/10 121/121/121
f 122/122/122 116/116/116 10/10/10
f 125/125/125 124/124/124 123/123/123
f 125/125/125 126/126/126 124/124/124
f 129/129/129 128/128/128 127/127/127
f 129/129/129 130/130/130 128/128/128
f 131/131/131 29/29/29 31/31/31
f 131/131/131 132/132/132 29/29/29
f 134/134/134 123/123/123 133/133/133
f 134/134/134 125/125/125 123/123/123
f 136/136/136 135/135/135 77/77/77
f 136/136/136 137/137/137 135/135/135
f 140/140/140 139/139/139 138/138/138
f 140/140/140 141/141/141 139/139/139
f 142/142/142 77/77/77 120/120/120
f 142/142/142 136/136/136 77/77/77
f 132/132/132 28/28/28 29/29/29
f 132/132/132 143/143/143 28/28/28
f 146/146/146 145/145/145 144/144/144
f 146/146/146 147/147/147 145/145/145
f 148/148/148 135/135/135 137/137/137
f 148/148/148 149/149/149 135/135/135
f 150/150/150 8/8/8 9/9/9
f 150/150/150 151/151/151 8/8/8
f 152/152/152 147/147/147 146/146/146
f 152/152/152 153/153/153 147/147/147
f 154/154/154 149/149/149 148/148/148
f 154/154/154 155/155/155 149/149/149
f 156/156/156 151/151/151 150/150/150
f 156/156/156 157/157/157 151/151/151
g pb_Mesh74064_1
f 160/160/160 159/159/159 158/158/158
f 160/160/160 161/161/161 159/159/159
f 164/164/164 163/163/163 162/162/162
f 164/164/164 165/165/165 163/163/163
f 168/168/168 167/167/167 166/166/166
f 168/168/168 166/166/166 169/169/169
f 171/171/171 170/170/170 167/167/167
f 171/171/171 167/167/167 168/168/168
f 174/174/174 173/173/173 172/172/172
f 173/173/173 159/159/159 175/175/175
f 173/173/173 175/175/175 172/172/172
f 177/177/177 176/176/176 173/173/173
f 177/177/177 173/173/173 174/174/174
f 176/176/176 158/158/158 159/159/159
f 176/176/176 159/159/159 173/173/173
f 180/180/180 179/179/179 178/178/178
f 180/180/180 178/178/178 181/181/181
f 184/184/184 183/183/183 182/182/182
f 184/184/184 182/182/182 185/185/185
f 186/186/186 171/171/171 168/168/168
f 186/186/186 168/168/168 187/187/187
f 188/188/188 186/186/186 187/187/187
f 188/188/188 187/187/187 189/189/189
f 190/190/190 177/177/177 174/174/174
f 190/190/190 191/191/191 177/177/177
f 194/194/194 193/193/193 192/192/192
f 194/194/194 195/195/195 193/193/193
f 198/198/198 197/197/197 196/196/196
f 198/198/198 199/199/199 197/197/197
