g pb_Mesh95844
v -0 0 0
v -8 0 0
v -0 4 0
v -8 4 0
v -6 0 -8
v -0 0 -8
v -6 4 -8
v -0 4 -8
v -8 0 0
v -8 0 -2
v -8 4 -2
v -8 4 0
v 4 4 -2
v 4 0 0
v 4 4 0
v 4 0 -2
v -0 0 0
v -8 0 -2
v -8 0 0
v -0 0 -2
v 4 0 0
v 4 4 0
v 4 0 -2
v 4 0 0
v -0 4 -2
v -0 0 -2
v -0 0 -8
v -0 0 -8
v 4 0 -8
v 4 0 -8
v -8 0 -6
v -8 4 -6
v -8 0 -6
v -6 0 -8
v -6 4 -8
v -8 4 -6
v -0 4 -6
v -0 0 -2
v -0 4 -2
v -0 0 -6
v -0 4 -8
v -0 0 -8
v -0 0 -6
v -6 0 -8
v -8 0 -6
v -8 4 -2
v -0 4 -2
v -0 4 0
v -8 4 0
v 4 4 0
v 4 4 -2
v 4 4 -2
v -0 4 -2
v 4 0 -8
v -0 0 -8
v -6 4 -8
v -0 4 -8
v -0 4 -6
v -8 4 -6
vt 0 0
vt -8 0
vt 0 4
vt -8 4
vt 6 0
vt 0 0
vt 6 4
vt 0 4
vt 2.021798 0
vt 0.08672142 0
vt 0.08672142 4
vt 2.021798 4
vt 2 4
vt 0 0
vt 0 4
vt 2 0
vt 0 0
vt -8 -2
vt -8 0
vt 0 -2
vt 4 0
vt 4 4
vt 4 -2
vt 4 0
vt -2 4
vt -2 0
vt -8 0
vt 0 -8
vt 4 -8
vt 8 0
vt -3.7834315 0
vt -3.7834315 4
vt -3.7834315 0
vt -6.2239575 0
vt -6.2239575 4
vt -3.7834315 4
vt 6 4
vt 2 0
vt 2 4
vt 6 0
vt 8 4
vt 8 0
vt 0 -6
vt -6 -8
vt -8 -6
vt 8 -2
vt 0 -2
vt 0 0
vt 8 0
vt -4 0
vt -4 -2
vt -4 0.5546999
vt 0 0.5546999
vt -4 -6.6564026
vt 0 -6.6564026
vt 6 -8
vt 0 -8
vt 0 -6
vt 8 -6
vn -0 0 1
vn -0 0 1
vn -0 0 1
vn -0 0 1
vn -0 0 -1
vn -0 0 -1
vn -0 0 -1
vn -0 0 -1
vn -1 0 0
vn -1 0 0
vn -1 0 0
vn -1 0 0
vn 1 0 0
vn 1 0 0
vn 1 0 0
vn 1 0 0
vn -0 -1 0
vn -0 -1 0
vn -0 -1 0
vn -0 -1 0
vn -0 0 1
vn -0 0 1
vn -0 -1 0
vn -0 -1 0
vn -1 0 0
vn -1 0 0
vn -1 0 0
vn -0 -1 0
vn -0 -1 0
vn 1 0 0
vn -1 0 0
vn -1 0 0
vn -0.70710677 0 -0.70710677
vn -0.70710677 0 -0.70710677
vn -0.70710677 0 -0.70710677
vn -0.70710677 0 -0.70710677
vn 1 0 0
vn 1 0 0
vn 1 0 0
vn 1 0 0
vn 1 0 0
vn 1 0 0
vn -0 -1 0
vn -0 -1 0
vn -0 -1 0
vn -0 1 0
vn -0 1 0
vn -0 1 0
vn -0 1 0
vn -0 1 0
vn -0 1 0
vn -0 0.8320503 -0.5547002
vn -0 0.8320503 -0.5547002
vn -0 0.8320503 -0.5547002
vn -0 0.8320503 -0.5547002
vn -0 1 0
vn -0 1 0
vn -0 1 0
vn -0 1 0
g pb_Mesh95844_0
f 3/3/3 2/2/2 1/1/1
f 3/3/3 4/4/4 2/2/2
f 7/7/7 6/6/6 5/5/5
f 7/7/7 8/8/8 6/6/6
f 11/11/11 10/10/10 9/9/9
f 11/11/11 9/9/9 12/12/12
f 15/15/15 14/14/14 13/13/13
f 14/14/14 16/16/16 13/13/13
f 19/19/19 18/18/18 17/17/17
f 18/18/18 20/20/20 17/17/17
f 21/21/21 3/3/3 1/1/1
f 21/21/21 22/22/22 3/3/3
f 23/23/23 17/17/17 20/20/20
f 23/23/23 24/24/24 17/17/17
f 27/27/27 26/26/26 25/25/25
f 28/28/28 23/23/23 20/20/20
f 28/28/28 29/29/29 23/23/23
f 30/30/30 13/13/13 16/16/16
f 32/32/32 31/31/31 10/10/10
f 32/32/32 10/10/10 11/11/11
f 35/35/35 34/34/34 33/33/33
f 35/35/35 33/33/33 36/36/36
f 39/39/39 38/38/38 37/37/37
f 38/38/38 40/40/40 37/37/37
f 37/37/37 40/40/40 41/41/41
f 40/40/40 42/42/42 41/41/41
f 45/45/45 44/44/44 43/43/43
f 44/44/44 28/28/28 43/43/43
f 18/18/18 45/45/45 20/20/20
f 45/45/45 43/43/43 20/20/20
g pb_Mesh95844_1
f 48/48/48 47/47/47 46/46/46
f 48/48/48 46/46/46 49/49/49
f 50/50/50 47/47/47 48/48/48
f 50/50/50 51/51/51 47/47/47
f 54/54/54 53/53/53 52/52/52
f 54/54/54 55/55/55 53/53/53
f 58/58/58 57/57/57 56/56/56
f 58/58/58 56/56/56 59/59/59
f 47/47/47 58/58/58 59/59/59
f 47/47/47 59/59/59 46/46/46
