g pb_Mesh65792
v -24 0 7.999998
v -24 0 -5.9604645E-08
v -24 8 7.999998
v -24 8 -5.9604645E-08
v 16 0 0
v 16 0 8
v 16 8 1.7881392E-07
v 16 8 8
v 16 0 8
v -16 0 7.9999986
v 16 8 8
v -16 8 7.9999986
v -24 0 7.999998
v -24 8 7.999998
v -24 2 -4.000002
v -15.999997 0 -4.0000014
v -15.999999 2 -4.0000014
v -24 0 -4.000002
v -16 8 -1.4901161E-06
v 16 0 0
v 16 8 1.7881392E-07
v -16 0 -1.4901161E-06
v 16 0 8
v 16 0 0
v -16 0 7.9999986
v -16 0 -1.4901161E-06
v -24 0 7.999998
v -24 0 -5.9604645E-08
v -16 0 -1.4901161E-06
v -16 8 -1.4901161E-06
v -15.999997 0 -4.0000014
v -15.999999 2 -4.0000014
v -16 8 -1.4901161E-06
v -24 8 -5.9604645E-08
v -15.999999 2 -4.0000014
v -24 2 -4.000002
v -24 2 -4.000002
v -24 0 -4.000002
v -24 0 -4.000002
v -15.999997 0 -4.0000014
v -16 8 7.9999986
v -16 8 -1.4901161E-06
v 16 8 1.7881392E-07
v 16 8 8
v -24 8 7.999998
v -24 8 -5.9604645E-08
vt 7.999998 0
vt -5.9604645E-08 0
vt 7.999998 8
vt -5.9604645E-08 8
vt 0 0
vt -8 0
vt -1.7881392E-07 8
vt -8 8
vt 16 0
vt -16 0
vt 16 8
vt -16 8
vt -24 0
vt -24 8
vt 24 2
vt 15.999997 -2.2737368E-13
vt 15.999999 2
vt 24 -2.2737368E-13
vt 16 8
vt -16 -1.8651747E-14
vt -16 8
vt 16 -1.4654944E-14
vt 16 8
vt 16 0
vt -16 7.9999986
vt -16 -1.4901161E-06
vt -24 7.999998
vt -24 -5.9604645E-08
vt -9.953976E-06 0
vt -9.953976E-06 8
vt 3.99999 0
vt 3.99999 2
vt 16 6.6564
vt 24 6.6564
vt 15.999998 -0.5547023
vt 24 -0.55470335
vt -4.000002 2
vt -4.000002 0
vt -24 -4.000002
vt -15.999997 -4.0000014
vt 16 7.9999986
vt 16 -1.4901161E-06
vt -16 1.7881392E-07
vt -16 8
vt 24 7.999998
vt 24 -5.9604645E-08
vn -1 0 0
vn -1 0 0
vn -1 0 0
vn -1 0 0
vn 1 0 0
vn 1 0 0
vn 1 0 0
vn 1 0 0
vn -4.4703484E-08 0 1
vn -4.4703484E-08 0 1
vn -4.4703484E-08 0 1
vn -4.4703484E-08 0 1
vn -5.9604645E-08 0 1
vn -5.9604645E-08 0 1
vn 5.960463E-08 2.8421706E-14 -1
vn 5.960463E-08 2.8421706E-14 -1
vn 5.9604638E-08 5.6843412E-14 -1
vn 5.9604623E-08 0 -1
vn 4.9360096E-08 1.1175871E-08 -1
vn 4.9360096E-08 1.1175871E-08 -1
vn 5.2154064E-08 2.2351742E-08 -1
vn 4.656613E-08 0 -1
vn -0 -1 0
vn -0 -1 0
vn -0 -1 0
vn -0 -1 0
vn -0 -1 0
vn -0 -1 0
vn 1 0 7.1525574E-07
vn 1 4.7683716E-07 -2.3841858E-07
vn 1 4.7683716E-07 -2.3841858E-07
vn 1 9.536743E-07 -1.1920929E-06
vn -1.4878219E-07 0.5547002 -0.8320503
vn -4.959407E-08 0.55470026 -0.8320502
vn -4.959407E-08 0.55470026 -0.8320502
vn 4.9594046E-08 0.5547004 -0.83205014
vn -1 0 0
vn -1 0 0
vn -0 -1 0
vn -0 -1 0
vn -0 1 0
vn -0 1 0
vn -0 1 0
vn -0 1 0
vn -0 1 0
vn -0 1 0
g pb_Mesh65792_0
f 3/3/3 2/2/2 1/1/1
f 3/3/3 4/4/4 2/2/2
f 7/7/7 6/6/6 5/5/5
f 7/7/7 8/8/8 6/6/6
f 11/11/11 10/10/10 9/9/9
f 11/11/11 12/12/12 10/10/10
f 14/14/14 13/13/13 10/10/10
f 14/14/14 10/10/10 12/12/12
f 17/17/17 16/16/16 15/15/15
f 16/16/16 18/18/18 15/15/15
f 21/21/21 20/20/20 19/19/19
f 20/20/20 22/22/22 19/19/19
f 25/25/25 24/24/24 23/23/23
f 25/25/25 26/26/26 24/24/24
f 27/27/27 26/26/26 25/25/25
f 27/27/27 28/28/28 26/26/26
f 31/31/31 30/30/30 29/29/29
f 31/31/31 32/32/32 30/30/30
f 35/35/35 34/34/34 33/33/33
f 35/35/35 36/36/36 34/34/34
f 37/37/37 2/2/2 4/4/4
f 37/37/37 38/38/38 2/2/2
f 39/39/39 26/26/26 28/28/28
f 39/39/39 40/40/40 26/26/26
g pb_Mesh65792_1
f 43/43/43 42/42/42 41/41/41
f 44/44/44 43/43/43 41/41/41
f 42/42/42 46/46/46 45/45/45
f 41/41/41 42/42/42 45/45/45
