g pb_Mesh-72554
v -0.74999964 -3 0.24999985
v -0.99999964 -3 0.24999976
v -0.7499996 19 0.24999967
v -0.9999996 19 0.24999765
v -0.99999964 -3 0.24999976
v -0.9999995 -3 -2.3841858E-07
v -0.9999996 19 0.24999765
v -0.99999946 19 -2.3841537E-06
v -0.9999995 -3 -2.3841858E-07
v -0.7499995 -3 -1.4901161E-07
v -0.99999946 19 -2.3841537E-06
v -0.74999946 19 -3.5759717E-07
v 1.0000005 -3 4.7683716E-07
v 1.0000004 -3 0.25000048
v 1.0000013 19 -5.245164E-06
v 1.0000012 19 0.2499986
v -0.7499996 19 0.24999967
v -0.9999996 19 0.24999765
v -0.74999946 19 -3.5759717E-07
v -0.99999946 19 -2.3841537E-06
v -0.7499995 -3 -1.4901161E-07
v -0.9999995 -3 -2.3841858E-07
v -0.74999964 -3 0.24999985
v -0.99999964 -3 0.24999976
v 0.7500005 -3 3.874302E-07
v 0.75000036 -3 0.2500004
v 1.0000005 -3 4.7683716E-07
v 1.0000004 -3 0.25000048
v 0.75000125 19 -3.457023E-06
v 0.7500005 -3 3.874302E-07
v 1.0000013 19 -5.245164E-06
v 1.0000005 -3 4.7683716E-07
v 0.75000036 -3 0.2500004
v 0.75000113 19 0.2500004
v 1.0000004 -3 0.25000048
v 1.0000012 19 0.2499986
v 0.75000113 19 0.2500004
v 0.75000125 19 -3.457023E-06
v 1.0000012 19 0.2499986
v 1.0000013 19 -5.245164E-06
v -0.74999964 -3 0.24999985
v -0.7499996 19 0.24999967
v -0.7499995 -3 -1.4901161E-07
v -0.74999946 19 -3.5759717E-07
v 0.75000113 19 0.2500004
v 0.75000036 -3 0.2500004
v 0.75000125 19 -3.457023E-06
v 0.7500005 -3 3.874302E-07
v -0.7499996 -3 0.12499985
v -0.7499995 19 0.12499966
v 0.7500004 -3 0.12500039
v 0.7500012 19 0.12500037
vt -0.7499996 -3
vt -0.9999996 -3
vt -0.7499995 19
vt -0.9999995 19
vt -1.8749998 -3
vt -2.1249998 -3
vt -1.8750019 19
vt -2.125002 19
vt 0.9999995 -3
vt 0.7499995 -3
vt 0.99999946 19
vt 0.74999946 19
vt 2.125 -3
vt 1.875 -3
vt 2.1250057 19
vt 1.8750019 19
vt 0.7499996 -1.8750004
vt 0.9999996 -1.8750024
vt 0.74999946 -2.1250002
vt 0.99999946 -2.1250024
vt -0.7499995 -2.1250002
vt -0.9999995 -2.1250002
vt -0.74999964 -1.8750001
vt -0.99999964 -1.8750002
vt 0.7500005 -2.1249995
vt 0.75000036 -1.8749996
vt 1.0000005 -2.1249995
vt 1.0000004 -1.8749995
vt -0.75000125 19
vt -0.7500005 -3
vt -1.0000013 19
vt -1.0000005 -3
vt 0.7500005 -3
vt 0.75000125 19
vt 1.0000005 -3
vt 1.0000013 19
vt -0.75000113 -1.8749996
vt -0.75000125 -2.1250033
vt -1.0000012 -1.8750014
vt -1.0000013 -2.1250052
vt 1.8749998 -3
vt 1.875 19
vt 2.1249998 -3
vt 2.125 19
vt -1.875 19
vt -1.875 -3
vt -2.1250038 19
vt -2.125 -3
vt -0.7499995 -3
vt -0.74999946 19
vt 0.7500005 -3
vt 0.75000125 19
vn -3.5762787E-07 8.127907E-09 1
vn -4.23193E-06 5.2154075E-08 1
vn -4.23193E-06 5.2154075E-08 1
vn -8.106232E-06 9.6180244E-08 1
vn -1 2.7092562E-09 -4.7683716E-07
vn -1 2.709256E-09 -4.7683716E-07
vn -1 2.709256E-09 -4.7683716E-07
vn -1 2.7092557E-09 -4.7683713E-07
vn 3.5762787E-07 -9.7533416E-08 -1
vn 4.231927E-06 -5.35073E-08 -1
vn 4.231927E-06 -5.35073E-08 -1
vn 8.106226E-06 -9.481184E-09 -1
vn 1 -3.7930104E-08 4.7683716E-07
vn 1 -3.7930146E-08 4.7683352E-07
vn 1 -3.7930146E-08 4.7683352E-07
vn 1 -3.793019E-08 4.7682985E-07
vn -0 1 0
vn -0 1 0
vn -0 1 0
vn -0 1 0
vn -0 -1 0
vn -0 -1 0
vn -0 -1 0
vn -0 -1 0
vn -0 -1 0
vn -0 -1 0
vn -0 -1 0
vn -0 -1 0
vn -7.152563E-06 -1.7474763E-07 -1
vn -3.3974675E-06 -2.1741931E-07 -1
vn -3.3974675E-06 -2.1741931E-07 -1
vn 3.5762787E-07 -2.6009099E-07 -1
vn -3.5762787E-07 1.2595985E-14 1
vn 3.3974638E-06 4.2671378E-08 1
vn 3.3974638E-06 4.2671378E-08 1
vn 7.1525556E-06 8.534274E-08 1
vn -0 1 0
vn -0 1 0
vn -0 1 0
vn -0 1 0
vn 1 -2.7092981E-09 4.7683716E-07
vn 1 -2.709298E-09 4.7683716E-07
vn 1 -2.709298E-09 4.7683716E-07
vn 1 -2.7092977E-09 4.7683713E-07
vn -1 3.522093E-08 -4.7682985E-07
vn -1 3.5220886E-08 -4.7683352E-07
vn -1 3.5220886E-08 -4.7683352E-07
vn -1 3.5220843E-08 -4.7683716E-07
vn -3.5762787E-07 8.805232E-09 1
vn -4.172324E-07 4.7412865E-09 1
vn -4.172324E-07 4.7412865E-09 1
vn -4.7683693E-07 6.77341E-10 1
g pb_Mesh-72554_0
f 3/3/3 2/2/2 1/1/1
f 3/3/3 4/4/4 2/2/2
f 7/7/7 6/6/6 5/5/5
f 7/7/7 8/8/8 6/6/6
f 11/11/11 10/10/10 9/9/9
f 11/11/11 12/12/12 10/10/10
f 15/15/15 14/14/14 13/13/13
f 15/15/15 16/16/16 14/14/14
f 19/19/19 18/18/18 17/17/17
f 19/19/19 20/20/20 18/18/18
f 23/23/23 22/22/22 21/21/21
f 23/23/23 24/24/24 22/22/22
f 27/27/27 26/26/26 25/25/25
f 27/27/27 28/28/28 26/26/26
f 31/31/31 30/30/30 29/29/29
f 31/31/31 32/32/32 30/30/30
f 35/35/35 34/34/34 33/33/33
f 35/35/35 36/36/36 34/34/34
f 39/39/39 38/38/38 37/37/37
f 39/39/39 40/40/40 38/38/38
f 43/43/43 42/42/42 41/41/41
f 43/43/43 44/44/44 42/42/42
f 47/47/47 46/46/46 45/45/45
f 47/47/47 48/48/48 46/46/46
g pb_Mesh-72554_1
f 51/51/51 50/50/50 49/49/49
f 51/51/51 52/52/52 50/50/50
