g pb_Mesh95976
v -0 1.75 0
v -2 1.75 0
v -0 2 0
v -2 2 0
v -2 1.75 0
v -1.9999709 4.75 -10.000006
v -2 2 0
v -1.9999709 5 -10.000006
v -1.9999709 4.75 -10.000006
v 2.9146671E-05 4.75 -10
v -1.9999709 5 -10.000006
v 2.9146671E-05 5 -10
v 2.9146671E-05 4.75 -10
v -0 1.75 0
v 2.9146671E-05 5 -10
v -0 2 0
v -0 2 0
v -2 2 0
v 2.9146671E-05 5 -10
v -1.9999709 5 -10.000006
v 2.9146671E-05 4.75 -10
v -1.9999709 4.75 -10.000006
v -0 1.75 0
v -2 1.75 0
vt 0 1.75
vt -2 1.75
vt 0 2
vt -2 2
vt 5.81741E-06 1.75
vt -10 4.75
vt 5.81741E-06 2
vt -10 5
vt 1.9999995 4.75
vt -5.364418E-07 4.75
vt 1.9999995 5
vt -5.364418E-07 5
vt 10 4.75
vt 0 1.75
vt 10 5
vt 0 2
vt 0 -0.57469577
vt 2 -0.57469577
vt -2.9146671E-05 -11.015002
vt 1.9999709 -11.015008
vt 3.322363E-05 -10.943166
vt -1.9999669 -10.9431715
vt 1.502037E-06 -0.5028588
vt -1.9999985 -0.5028593
vn -0 0 1
vn -0 0 1
vn -0 0 1
vn -0 0 1
vn -1 0 -2.908705E-06
vn -1 0 -2.908705E-06
vn -1 0 -2.908705E-06
vn -1 0 -2.908705E-06
vn 2.861023E-06 0 -1
vn 2.861023E-06 0 -1
vn 2.861023E-06 0 -1
vn 2.861023E-06 0 -1
vn 1 0 2.9146672E-06
vn 1 0 2.9146672E-06
vn 1 0 2.9146672E-06
vn 1 0 2.9146672E-06
vn -0 0.95782626 0.28734788
vn -4.110542E-07 0.95782626 0.2873478
vn -4.110542E-07 0.95782626 0.2873478
vn -8.221084E-07 0.9578263 0.28734773
vn 8.2210886E-07 -0.95782626 -0.28734788
vn 4.1105443E-07 -0.95782626 -0.2873478
vn 4.1105443E-07 -0.95782626 -0.2873478
vn -0 -0.9578263 -0.28734773
g pb_Mesh95976_0
f 3/3/3 2/2/2 1/1/1
f 3/3/3 4/4/4 2/2/2
f 7/7/7 6/6/6 5/5/5
f 7/7/7 8/8/8 6/6/6
f 11/11/11 10/10/10 9/9/9
f 11/11/11 12/12/12 10/10/10
f 15/15/15 14/14/14 13/13/13
f 15/15/15 16/16/16 14/14/14
f 19/19/19 18/18/18 17/17/17
f 19/19/19 20/20/20 18/18/18
f 23/23/23 22/22/22 21/21/21
f 23/23/23 24/24/24 22/22/22
