g pb_Mesh75606
v -1 -12.250002 -0.0011394619
v -1 12.250002 0.0011410416
v -0.70710677 -12.250082 0.70596725
v -0.70710677 12.249921 0.7082477
v -0.70710677 -12.250082 0.70596725
v -0.70710677 12.249921 0.7082477
v -0 -12.250115 0.99885976
v -0 12.249887 1.0011401
v -0 -12.250115 0.99885976
v -0 12.249887 1.0011401
v 0.7071068 -12.250082 0.70596725
v 0.7071068 12.249921 0.7082477
v 0.7071068 -12.250082 0.70596725
v 0.7071068 12.249921 0.7082477
v 1 -12.250002 -0.0011394619
v 1 12.250002 0.0011410416
v 1 -12.250002 -0.0011394619
v 1 12.250002 0.0011410416
v 0.7071068 -12.249921 -0.70824707
v 0.7071068 12.250082 -0.70596653
v 0.7071068 -12.249921 -0.70824707
v 0.7071068 12.250082 -0.70596653
v -0 -12.249887 -1.0011406
v -0 12.250115 -0.99886
v -0 -12.249887 -1.0011406
v -0 12.250115 -0.99886
v -0.70710665 -12.249921 -0.70824707
v -0.70710665 12.250082 -0.7059675
v -0.70710665 -12.249921 -0.70824707
v -0.70710665 12.250082 -0.7059675
v -1 -12.250002 -0.0011394619
v -1 12.250002 0.0011410416
v -0.70710677 -12.250082 0.70596725
v -0 -12.250002 -0.0011394619
v -1 -12.250002 -0.0011394619
v -0 -12.250115 0.99885976
v 0.7071068 -12.250082 0.70596725
v 1 -12.250002 -0.0011394619
v 0.7071068 -12.249921 -0.70824707
v -0 -12.249887 -1.0011406
v -0.70710665 -12.249921 -0.70824707
v -1 12.250002 0.0011410416
v -0 12.250002 0.0011410416
v -0.70710677 12.249921 0.7082477
v -0 12.249887 1.0011401
v 0.7071068 12.249921 0.7082477
v 1 12.250002 0.0011410416
v 0.7071068 12.250082 -0.70596653
v -0 12.250115 -0.99886
v -0.70710665 12.250082 -0.7059675
vt -0.38373622 -12.2499695
vt -0.3816293 12.250035
vt 0.38163063 -12.25005
vt 0.3837375 12.249954
vt -0.38312024 -12.250003
vt -0.38224754 12.25
vt 0.38224638 -12.250036
vt 0.38311902 12.249967
vt -0.38224635 -12.250036
vt -0.383119 12.249967
vt 0.38312033 -12.250003
vt 0.38224763 12.25
vt -0.38163066 -12.25005
vt -0.38373756 12.249954
vt 0.38373613 -12.2499695
vt 0.3816292 12.250035
vt -0.38163027 -12.250035
vt -0.3837372 12.2499695
vt 0.38373736 -12.249954
vt 0.38163042 12.25005
vt -0.38224676 -12.25
vt -0.3831195 12.250003
vt 0.38312024 -12.249967
vt 0.3822475 12.250036
vt -0.38312036 -12.249967
vt -0.38224763 12.250036
vt 0.38224652 -12.25
vt 0.3831189 12.250003
vt -0.3837372 -12.249954
vt -0.38163114 12.25005
vt 0.38163045 -12.250035
vt 0.3837374 12.2499695
vt -0.70710677 0.7073551
vt 0 0.0002483499
vt -1 0.0002483499
vt 2.408266E-06 1.00025
vt 0.70710444 0.70735747
vt 1 0.0002483499
vt 0.7071068 -0.7068427
vt -2.4316475E-06 -0.9997387
vt -0.7071042 -0.70684516
vt 1 -0.00026329185
vt 0 -0.00026329185
vt 0.70710677 0.7068434
vt -2.4306482E-06 0.9997382
vt -0.7071044 0.7068458
vt -1 -0.00026329185
vt -0.7071068 -0.70735437
vt 2.4074548E-06 -1.0002502
vt 0.70710427 -0.7073577
vn -1 -3.8038372E-09 2.7419128E-07
vn -1 3.4061273E-10 3.8709356E-07
vn -0.7071065 -6.581804E-05 0.7071071
vn -0.7071064 -6.58167E-05 0.7071071
vn -0.7071065 -6.581804E-05 0.7071071
vn -0.7071064 -6.58167E-05 0.7071071
vn 3.225779E-08 -9.307691E-05 1
vn 3.225779E-08 -9.307691E-05 1
vn 3.225779E-08 -9.307691E-05 1
vn 3.225779E-08 -9.307691E-05 1
vn 0.7071065 -6.58167E-05 0.70710707
vn 0.7071064 -6.581817E-05 0.7071071
vn 0.7071065 -6.58167E-05 0.70710707
vn 0.7071064 -6.581817E-05 0.7071071
vn 1 -2.1657457E-11 2.2580458E-07
vn 1 -1.4766448E-10 2.419335E-07
vn 1 -2.1657457E-11 2.2580458E-07
vn 1 -1.4766448E-10 2.419335E-07
vn 0.70710707 6.5819455E-05 -0.70710653
vn 0.70710707 6.582019E-05 -0.70710653
vn 0.70710707 6.5819455E-05 -0.70710653
vn 0.70710707 6.582019E-05 -0.70710653
vn -8.064452E-08 9.3084804E-05 -1
vn 2.2580461E-07 9.3075076E-05 -1
vn -8.064452E-08 9.3084804E-05 -1
vn 2.2580461E-07 9.3075076E-05 -1
vn -0.7071068 6.580242E-05 -0.70710677
vn -0.70710665 6.579611E-05 -0.7071069
vn -0.7071068 6.580242E-05 -0.70710677
vn -0.70710665 6.579611E-05 -0.7071069
vn -1 -3.8038372E-09 2.7419128E-07
vn -1 3.4061273E-10 3.8709356E-07
vn -0 -1 -0.00011329074
vn -0 -1 -0.00011329074
vn -0 -1 -0.00011329074
vn -1.9659129E-07 -1 -0.00011348733
vn 1.9659127E-07 -1 -0.00011348733
vn -0 -1 -0.00011329074
vn -0 -1 -0.0001146393
vn 1.9850366E-07 -1 -0.00011444079
vn -1.9850653E-07 -1 -0.000114440794
vn -0 1 0.00011463945
vn -0 1 0.00011463945
vn -0 1 0.00011463945
vn -1.9842209E-07 1 0.00011444103
vn 1.9842207E-07 1 0.00011444103
vn -0 1 0.00011463945
vn -0 1 0.000113290596
vn 1.9652506E-07 1 0.00011348712
vn -1.9667817E-07 1 0.00011348712
g pb_Mesh75606_0
f 3/3/3 2/2/2 1/1/1
f 3/3/3 4/4/4 2/2/2
f 7/7/7 6/6/6 5/5/5
f 7/7/7 8/8/8 6/6/6
f 11/11/11 10/10/10 9/9/9
f 11/11/11 12/12/12 10/10/10
f 15/15/15 14/14/14 13/13/13
f 15/15/15 16/16/16 14/14/14
f 19/19/19 18/18/18 17/17/17
f 19/19/19 20/20/20 18/18/18
f 23/23/23 22/22/22 21/21/21
f 23/23/23 24/24/24 22/22/22
f 27/27/27 26/26/26 25/25/25
f 27/27/27 28/28/28 26/26/26
f 31/31/31 30/30/30 29/29/29
f 31/31/31 32/32/32 30/30/30
f 35/35/35 34/34/34 33/33/33
f 33/33/33 34/34/34 36/36/36
f 36/36/36 34/34/34 37/37/37
f 37/37/37 34/34/34 38/38/38
f 38/38/38 34/34/34 39/39/39
f 39/39/39 34/34/34 40/40/40
f 40/40/40 34/34/34 41/41/41
f 41/41/41 34/34/34 35/35/35
f 44/44/44 43/43/43 42/42/42
f 45/45/45 43/43/43 44/44/44
f 46/46/46 43/43/43 45/45/45
f 47/47/47 43/43/43 46/46/46
f 48/48/48 43/43/43 47/47/47
f 49/49/49 43/43/43 48/48/48
f 50/50/50 43/43/43 49/49/49
f 42/42/42 43/43/43 50/50/50
