g pb_Mesh99562
v -4 6 6.0000043
v -10.000009 6 6.000005
v -3.9999998 6 2.0000064
v -8.969115 6 2.1342394
v -4.5172825 0 2.000003
v -9.4827175 0 2.0000024
v -4.5172815 0 6.0000033
v -9.4827175 0 6.0000024
v -4.5172815 0 6.0000033
v -9.4827175 0 6.0000024
v -4.477551 3 5.6816406
v -10.909132 3 6.1636734
v -4 6 6.0000043
v -4.477551 3 5.6816406
v -10.909132 3 6.1636734
v -10.000009 6 6.000005
v -10.909132 3 6.1636734
v -9.4827175 0 6.0000024
v -9.969004 3 2.1491795
v -9.4827175 0 2.0000024
v -10.000009 6 6.000005
v -10.909132 3 6.1636734
v -8.969115 6 2.1342394
v -9.969004 3 2.1491795
v -9.969004 3 2.1491795
v -9.4827175 0 2.0000024
v -4.9546213 3 3.0743678
v -4.5172825 0 2.000003
v -8.969115 6 2.1342394
v -9.969004 3 2.1491795
v -3.9999998 6 2.0000064
v -4.9546213 3 3.0743678
v -4.9546213 3 3.0743678
v -4.5172825 0 2.000003
v -4.5172815 0 6.0000033
v -4.477551 3 5.6816406
v -3.9999998 6 2.0000064
v -4.9546213 3 3.0743678
v -4.477551 3 5.6816406
v -4 6 6.0000043
vt 4 6.0000043
vt 10.000009 6.000005
vt 3.9999998 2.0000064
vt 8.969115 2.1342394
vt -4.5172825 2.000003
vt -9.4827175 2.0000024
vt -4.5172815 6.0000033
vt -9.4827175 6.0000024
vt -4.7383533 0.033403076
vt -9.70032 0.03233933
vt -4.686753 3.0315385
vt -11.131855 3.032922
vt -4.2214327 6.0334153
vt -4.686753 3.0315385
vt -11.131855 3.032922
vt -10.21725 6.03213
vt 8.632439 3.6784403
vt 8.126671 0.585384
vt 4.5098414 3.6833386
vt 4.246844 0.6589986
vt 8.252519 6.606148
vt 8.632439 3.6784403
vt 4.2521005 6.601649
vt 4.5098414 3.6833386
vt 9.7725 3.117841
vt 9.299234 0.11270192
vt 4.701504 3.1398902
vt 4.3487287 0.09681115
vt 8.776775 6.111466
vt 9.7725 3.117841
vt 3.833001 6.090036
vt 4.701504 3.1398902
vt -2.6273208 2.4185243
vt -1.5955195 -0.5064188
vt -5.580062 -0.54447156
vt -5.266419 2.4451942
vt -1.640956 5.514094
vt -2.6273208 2.4185243
vt -5.266419 2.4451942
vt -5.625496 5.4760413
vn -0 1 0
vn -0 1 0
vn -0 1 0
vn -0 1 0
vn -0 -1 0
vn -0 -1 0
vn -0 -1 0
vn -0 -1 0
vn -1.9099014E-07 0.105528355 0.9944163
vn 0.037362345 0.043331582 0.995721
vn 0.037362345 0.043331582 0.995721
vn 0.07472488 -0.018865192 0.9970257
vn 0.037112854 -0.031219508 0.9944398
vn 0.07422563 -0.11691419 0.99036443
vn 0.037112854 -0.031219508 0.9944398
vn 7.9354734E-08 0.054475173 0.9985151
vn -0.887731 -0.41074884 -0.20789197
vn -0.93742347 -0.2853779 -0.103945985
vn -0.93742347 -0.2853779 -0.103945985
vn -0.9871159 -0.16000694 0
vn -0.9307493 0.2685142 -0.24820524
vn -0.9285854 0.28810325 -0.23257896
vn -0.9285854 0.28810325 -0.23257896
vn -0.9264216 0.30769232 -0.21695268
vn 0.18089052 0.07807256 -0.98039955
vn 0.090445325 0.20761299 -0.9609246
vn 0.090445325 0.20761299 -0.9609246
vn 1.3561295E-07 0.33715343 -0.9414497
vn -0.02700339 0.0040219747 -0.99962723
vn 0.07044173 -0.18763117 -0.95477444
vn 0.07044173 -0.18763117 -0.95477444
vn 0.16788685 -0.37928432 -0.90992165
vn 0.986351 0.056071855 -0.08994797
vn 0.9895406 0.14425492 -2.3592484E-07
vn 0.986351 0.056071855 -0.08994797
vn 0.98316145 -0.03211121 -0.1798957
vn 0.9539275 -0.25517568 -0.08419571
vn 0.92028886 -0.35314697 -0.16839148
vn 0.9539275 -0.25517568 -0.08419571
vn 0.9875661 -0.1572044 5.886356E-08
g pb_Mesh99562_0
f 3/3/3 2/2/2 1/1/1
f 3/3/3 4/4/4 2/2/2
f 7/7/7 6/6/6 5/5/5
f 7/7/7 8/8/8 6/6/6
f 11/11/11 10/10/10 9/9/9
f 12/12/12 10/10/10 11/11/11
f 15/15/15 14/14/14 13/13/13
f 16/16/16 15/15/15 13/13/13
f 19/19/19 18/18/18 17/17/17
f 19/19/19 20/20/20 18/18/18
f 23/23/23 22/22/22 21/21/21
f 23/23/23 24/24/24 22/22/22
f 27/27/27 26/26/26 25/25/25
f 27/27/27 28/28/28 26/26/26
f 31/31/31 30/30/30 29/29/29
f 31/31/31 32/32/32 30/30/30
f 35/35/35 34/34/34 33/33/33
f 36/36/36 35/35/35 33/33/33
f 39/39/39 38/38/38 37/37/37
f 40/40/40 39/39/39 37/37/37
