g pb_Mesh84596
v -5.999729 -0.996712 5.000336
v -6.000041 -1.0160131 -1.5002128
v -6.00004 -0.49001655 -1.500212
v -5.999728 -0.47071552 5.000337
v -3.9999483 -0.48999366 -1.5001417
v -4.00018 -0.9969848 4.999501
v -4.00018 -0.47098875 4.9995008
v -3.999948 -1.0159897 -1.5001411
v -6.000041 -1.0160131 -1.5002128
v -6.0003667 -0.81664866 -2.500213
v -6.0003667 -0.2906523 -2.5002127
v -6.00004 -0.49001655 -1.500212
v -6.0003667 -0.81664866 -2.500213
v -6.0004973 -0.83559537 -8.999677
v -6.000497 -0.3095989 -8.999677
v -6.0003667 -0.2906523 -2.5002127
v -3.999913 -0.29062936 -2.5001423
v -3.9999125 -0.8166255 -2.5001419
v -3.9996805 -0.3097987 -9.000288
v -3.9996812 -0.83579487 -9.000288
v -5.5001807 -0.996854 4.999902
v -5.999729 -0.996712 5.000336
v -5.999728 -0.47071552 5.000337
v -5.500181 -0.4708578 4.9999013
v -6.000497 -0.3095989 -8.999677
v -5.499682 -0.8357006 -8.999999
v -5.499682 -0.3097045 -9
v -6.0004973 -0.83559537 -8.999677
v -6.00004 -0.49001655 -1.500212
v -5.4999495 -0.4900109 -1.5001945
v -5.500181 -0.4708578 4.9999013
v -5.999728 -0.47071552 5.000337
v -5.999729 -0.996712 5.000336
v -5.5001807 -0.996854 4.999902
v -6.000041 -1.0160131 -1.5002128
v -5.4999495 -1.0160072 -1.5001949
v -6.000497 -0.3095989 -8.999677
v -5.4999127 -0.29064658 -2.500195
v -6.0003667 -0.2906523 -2.5002127
v -5.499682 -0.3097045 -9
v -5.4999127 -0.29064658 -2.500195
v -5.4999495 -0.4900109 -1.5001945
v -6.0003667 -0.2906523 -2.5002127
v -6.00004 -0.49001655 -1.500212
v -6.0004973 -0.83559537 -8.999677
v -5.499913 -0.8166431 -2.500196
v -5.499682 -0.8357006 -8.999999
v -6.0003667 -0.81664866 -2.500213
v -6.000041 -1.0160131 -1.5002128
v -5.4999495 -1.0160072 -1.5001949
v -6.0003667 -0.81664866 -2.500213
v -5.499913 -0.8166431 -2.500196
v -4.00018 -0.9969848 4.999501
v -4.5001793 -0.9969163 4.999711
v -4.50018 -0.4709202 4.9997106
v -4.00018 -0.47098875 4.9995008
v -4.5001793 -0.9969163 4.999711
v -5.5001807 -0.996854 4.999902
v -5.500181 -0.4708578 4.9999013
v -4.50018 -0.4709202 4.9997106
v -4.4996815 -0.30974844 -9.000134
v -3.9996812 -0.83579487 -9.000288
v -3.9996805 -0.3097987 -9.000288
v -4.4996815 -0.83574486 -9.000134
v -5.499682 -0.3097045 -9
v -4.4996815 -0.83574486 -9.000134
v -4.4996815 -0.30974844 -9.000134
v -5.499682 -0.8357006 -8.999999
v -4.50018 -0.4709202 4.9997106
v -4.499949 -0.48999935 -1.5001593
v -4.00018 -0.47098875 4.9995008
v -3.9999483 -0.48999366 -1.5001417
v -4.50018 -0.4709202 4.9997106
v -4.00018 -0.9969848 4.999501
v -3.999948 -1.0159897 -1.5001411
v -4.499949 -1.0159957 -1.5001595
v -4.5001793 -0.9969163 4.999711
v -4.5001793 -0.9969163 4.999711
v -5.4999127 -0.29064658 -2.500195
v -5.499682 -0.3097045 -9
v -4.499913 -0.29063517 -2.50016
v -4.4996815 -0.30974844 -9.000134
v -3.999913 -0.29062936 -2.5001423
v -3.9996805 -0.3097987 -9.000288
v -4.499949 -0.48999935 -1.5001593
v -4.499913 -0.29063517 -2.50016
v -3.9999483 -0.48999366 -1.5001417
v -3.999913 -0.29062936 -2.5001423
v -3.9999125 -0.8166255 -2.5001419
v -3.9996812 -0.83579487 -9.000288
v -4.4996815 -0.83574486 -9.000134
v -4.499913 -0.8166315 -2.5001602
v -5.499682 -0.8357006 -8.999999
v -5.499913 -0.8166431 -2.500196
v -3.999948 -1.0159897 -1.5001411
v -3.9999125 -0.8166255 -2.5001419
v -4.499913 -0.8166315 -2.5001602
v -4.499949 -1.0159957 -1.5001595
v -11.563107 -3.7337976 -9.754143
v -12.270157 -3.2612958 -9.917919
v -12.977207 -3.7393713 -9.771207
v -12.270157 -4.211873 -9.60743
v -4.499949 -1.0159957 -1.5001595
v -4.499913 -0.8166315 -2.5001602
v -4.806299 -2.6109993 -4.1516666
v -5.142488 -2.088338 -4.4890122
v -4.499913 -0.8166315 -2.5001602
v -5.499913 -0.8166431 -2.500196
v -5.142488 -2.088338 -4.4890122
v -5.7366376 -2.244519 -4.138877
v -5.499913 -0.8166431 -2.500196
v -5.4999495 -1.0160072 -1.5001949
v -5.7366376 -2.244519 -4.138877
v -5.400449 -2.7671824 -3.8015308
v -5.4999495 -1.0160072 -1.5001949
v -4.499949 -1.0159957 -1.5001595
v -5.400449 -2.7671824 -3.8015308
v -4.806299 -2.6109993 -4.1516666
v -4.806299 -2.6109993 -4.1516666
v -5.142488 -2.088338 -4.4890122
v -11.563107 -3.7337976 -9.754143
v -12.270157 -3.2612958 -9.917919
v -5.142488 -2.088338 -4.4890122
v -5.7366376 -2.244519 -4.138877
v -12.270157 -3.2612958 -9.917919
v -12.977207 -3.7393713 -9.771207
v -5.7366376 -2.244519 -4.138877
v -5.400449 -2.7671824 -3.8015308
v -12.977207 -3.7393713 -9.771207
v -12.270157 -4.211873 -9.60743
v -5.400449 -2.7671824 -3.8015308
v -4.806299 -2.6109993 -4.1516666
v -12.270157 -4.211873 -9.60743
v -11.563107 -3.7337976 -9.754143
vt 4.999549 -0.99671745
vt -1.5010003 -1.0160186
vt -1.5009995 -0.49002197
vt 4.99955 -0.47072098
vt 1.4999994 -0.48999184
vt -4.999644 -0.996983
vt -4.9996433 -0.47098693
vt 1.4999988 -1.0159879
vt -1.5010003 -1.0160186
vt -2.5010004 -0.8166541
vt -2.5010002 -0.29065773
vt -1.5009995 -0.49002197
vt -2.5010004 -0.8166541
vt -9.000464 -0.8356008
vt -9.000464 -0.30960432
vt -2.5010002 -0.29065773
vt 2.5 -0.29062754
vt 2.4999995 -0.8166237
vt 9.000146 -0.30979687
vt 9.000146 -0.8357931
vt -5.5026464 -0.996854
vt -6.002195 -0.996712
vt -6.002194 -0.47071552
vt -5.502647 -0.4708578
vt 5.9972353 -0.30959344
vt 5.4964204 -0.83569515
vt 5.4964204 -0.30969906
vt 5.997236 -0.83558995
vt 6.000035 -1.4660665
vt 5.499944 -1.4660498
vt 5.500176 5.0197134
vt 5.999723 5.0201397
vt -5.9996576 5.04156
vt -5.500109 5.041131
vt -5.999968 -1.4509475
vt -5.4998765 -1.4509315
vt 6.0004935 -8.961854
vt 5.4999094 -2.4766912
vt 6.0003633 -2.476708
vt 5.4996786 -8.96217
vt 5.4999094 -2.4766912
vt 5.499944 -1.4660498
vt 6.0003633 -2.476708
vt 6.000035 -1.4660665
vt -6.0004373 -8.95063
vt -5.4998546 -2.4591744
vt -5.499622 -8.950949
vt -6.000308 -2.4591894
vt -5.999968 -1.4509475
vt -5.4998765 -1.4509315
vt -6.000308 -2.4591894
vt -5.4998546 -2.4591744
vt -4.0026455 -0.9969848
vt -4.502645 -0.9969163
vt -4.5026455 -0.4709202
vt -4.0026455 -0.47098875
vt -4.502645 -0.9969163
vt -5.5026464 -0.996854
vt -5.502647 -0.4708578
vt -4.5026455 -0.4709202
vt 4.49642 -0.309743
vt 3.9964197 -0.83578944
vt 3.996419 -0.30979323
vt 4.49642 -0.83573943
vt 5.4964204 -0.30969906
vt 4.49642 -0.83573943
vt 4.49642 -0.309743
vt 5.4964204 -0.83569515
vt 4.5001745 5.019526
vt 4.4999437 -1.4660159
vt 4.0001745 5.019321
vt 3.9999428 -1.4659992
vt 4.5001745 5.019526
vt -4.0001082 5.0407324
vt -3.999875 -1.4508837
vt -4.499876 -1.4509001
vt -4.500108 5.0409403
vt -4.500108 5.0409403
vt 5.4999094 -2.4766912
vt 5.4996786 -8.96217
vt 4.49991 -2.4766576
vt 4.499678 -8.962302
vt 3.9999099 -2.4766407
vt 3.9996772 -8.962453
vt 4.4999437 -1.4660159
vt 4.49991 -2.4766576
vt 3.9999428 -1.4659992
vt 3.9999099 -2.4766407
vt -3.9998538 -2.4591262
vt -3.9996212 -8.951238
vt -4.4996214 -8.951085
vt -4.4998546 -2.4591427
vt -5.499622 -8.950949
vt -5.4998546 -2.4591744
vt -3.999875 -1.4508837
vt -3.9998538 -2.4591262
vt -4.4998546 -2.4591427
vt -4.499876 -1.4509001
vt 11.692326 -0.5691938
vt 12.4015 -0.072129734
vt 13.106528 -0.57505727
vt 12.397354 -1.0721213
vt 1.6287849 -1.6416123
vt 2.628372 -1.4401847
vt 4.287997 -3.2531235
vt 4.634859 -2.7824092
vt 4.499904 -2.54632
vt 5.499904 -2.5463624
vt 5.1424646 -4.9069953
vt 5.7366123 -4.6961484
vt -2.6470149 -1.5353681
vt -1.6473755 -1.736538
vt -4.291463 -2.9761784
vt -3.9452088 -3.450431
vt -5.4999337 -1.80916
vt -4.4999332 -1.8091155
vt -5.400406 -4.701003
vt -4.8062587 -4.885059
vt 6.350794 -2.5981925
vt 6.8253374 -2.073971
vt 15.127732 -3.7243419
vt 15.773307 -3.278811
vt 5.471073 -4.411463
vt 6.084903 -4.0604444
vt 12.6843 -9.85406
vt 13.477552 -9.685389
vt -7.064147 -2.2702
vt -6.59075 -2.7954597
vt -16.23621 -3.772478
vt -15.582615 -4.211311
vt -5.898828 -3.7484446
vt -5.2846203 -4.0988026
vt -12.915752 -9.558027
vt -12.116297 -9.715288
vn -1 1.8130156E-06 4.796772E-05
vn -1 1.8130372E-06 4.7967722E-05
vn -1 1.8130156E-06 4.796772E-05
vn -1 1.8129941E-06 4.7967715E-05
vn 1 2.2667172E-07 3.5635705E-05
vn 1 2.2667172E-07 3.5635705E-05
vn 1 3.2289213E-11 3.5618028E-05
vn 1 4.5331115E-07 3.5653386E-05
vn -1 9.062073E-07 0.00032633715
vn -1 -1.4762096E-10 0.0003256797
vn -1 9.062073E-07 0.00032633715
vn -1 1.8125621E-06 0.0003269946
vn -1 4.5326573E-07 2.0064173E-05
vn -1 9.0654055E-07 2.0099535E-05
vn -1 4.5326573E-07 2.0064173E-05
vn -1 -9.078468E-12 2.0028812E-05
vn 1 6.799422E-07 3.5540692E-05
vn 1 9.065736E-07 3.570508E-05
vn 1 -2.2663522E-07 3.5670953E-05
vn 1 -1.3598117E-06 3.5582598E-05
vn 0.00087101525 -4.5366275E-07 0.99999964
vn 0.0008695818 -1.8146571E-06 0.99999964
vn 0.00087101525 -4.5366275E-07 0.99999964
vn 0.0008724487 9.0733164E-07 0.99999964
vn -0.00064458675 -9.062494E-07 -0.9999998
vn -0.00064458675 -9.062494E-07 -0.9999998
vn -0.0006455393 -1.8130822E-06 -0.9999998
vn -0.0006436342 5.834805E-10 -0.9999998
vn 0.00013549933 0.9999956 -0.0029578556
vn -1.1220232E-05 0.99999565 -0.002946573
vn 0.00013549933 0.9999956 -0.0029578556
vn 0.00028221888 0.9999955 -0.002969138
vn -0.00028163 -0.9999955 0.0029691518
vn -0.00013490763 -0.9999956 0.002957869
vn -0.00013490763 -0.9999956 0.002957869
vn 1.1814741E-05 -0.99999565 0.0029465863
vn 9.883529E-05 0.9999957 -0.0029235724
vn 9.883529E-05 0.9999957 -0.0029235724
vn -1.1330893E-05 0.99999577 -0.0029150874
vn 0.00020900148 0.9999957 -0.0029320573
vn -1.8105775E-05 0.9807004 0.19551656
vn -1.80073E-05 0.9807004 0.19551653
vn -1.80073E-05 0.9807004 0.19551653
vn -1.7908827E-05 0.98070043 0.19551648
vn -9.8598015E-05 -0.9999957 0.0029235454
vn -9.8598015E-05 -0.9999957 0.0029235454
vn -0.0002081738 -0.9999957 0.0029319846
vn 1.0977768E-05 -0.99999577 0.002915106
vn 1.8679664E-05 -0.9807003 -0.19551678
vn 1.80778E-05 -0.9807004 -0.1955165
vn 1.80778E-05 -0.9807004 -0.1955165
vn 1.7475939E-05 -0.9807005 -0.19551623
vn 0.000419617 9.0673143E-07 0.99999994
vn 0.0004196172 9.0692157E-07 0.99999994
vn 0.000419617 9.0673143E-07 0.99999994
vn 0.00041961682 9.0654135E-07 0.99999994
vn 0.00019073463 9.0671404E-07 1
vn 0.00019073463 9.067139E-07 1
vn 0.00019073463 9.0671404E-07 1
vn 0.00019073465 9.0671415E-07 1
vn -0.00030708278 2.0878722E-10 -1
vn -0.00030708278 2.0878722E-10 -1
vn -0.00030708255 4.1757445E-10 -1
vn -0.00030708298 0 -1
vn -0.00013494489 -9.065413E-07 -1
vn -0.00013494489 -9.065413E-07 -1
vn -0.00013446802 0 -1
vn -0.00013542177 -1.8130826E-06 -1
vn 0.00013585841 0.9999957 -0.002935295
vn 6.2288236E-05 0.9999957 -0.0029296381
vn 6.2288236E-05 0.9999957 -0.0029296381
vn -1.1281944E-05 0.99999577 -0.0029239813
vn 2.5206911E-05 0.9999957 -0.0029409355
vn -6.1843E-05 -0.9999957 0.0029296586
vn 1.2053309E-05 -0.99999577 0.0029239769
vn -6.1843E-05 -0.9999957 0.0029296586
vn -0.0001357393 -0.9999957 0.0029353406
vn -2.5192709E-05 -0.9999957 0.002940965
vn -1.1311485E-05 0.9999957 -0.0029320652
vn 1.6110762E-05 0.9999957 -0.0029362831
vn 1.6110762E-05 0.9999957 -0.0029362831
vn 4.3533008E-05 0.99999565 -0.0029405009
vn 4.4034055E-05 0.99999565 -0.002944774
vn 9.95872E-05 0.99999565 -0.0029490453
vn -1.8017114E-05 0.98070043 0.1955164
vn -1.8157341E-05 0.98070043 0.19551647
vn -1.8157341E-05 0.98070043 0.19551647
vn -1.8297567E-05 0.98070043 0.19551654
vn -4.3589203E-05 -0.99999565 0.0029447856
vn -9.911051E-05 -0.99999565 0.0029490544
vn -4.3589203E-05 -0.99999565 0.0029447856
vn 1.1932104E-05 -0.99999565 0.0029405167
vn -1.6184915E-05 -0.9999957 0.0029362536
vn 1.1518E-05 -0.9999957 0.0029319925
vn 1.9044863E-05 -0.98070043 -0.19551642
vn 1.8986411E-05 -0.98070043 -0.1955164
vn 1.9044863E-05 -0.98070043 -0.19551642
vn 1.9103314E-05 -0.98070043 -0.19551645
vn 0.012693493 -0.31046364 -0.9505005
vn 0.012693493 -0.31046364 -0.9505005
vn 0.012693493 -0.31046364 -0.9505005
vn 0.012693493 -0.31046364 -0.9505005
vn 0.9893481 -0.14276612 -0.028427057
vn 0.92264843 0.060305297 -0.23669083
vn 0.92264843 0.060305297 -0.23669083
vn 0.8559487 0.2633767 -0.4449546
vn 9.473469E-06 0.8424929 -0.53870755
vn -0.24674998 0.7661396 -0.53423256
vn -0.24674998 0.7661396 -0.53423256
vn -0.49350944 0.68978643 -0.52975756
vn -0.9906653 0.13369288 0.026617626
vn -0.9351971 -0.13112697 0.1449364
vn -0.9351971 -0.13112697 0.1449364
vn -0.87972885 -0.3959468 0.26325518
vn -1.23325735E-05 -0.7958025 0.6055563
vn 0.22705212 -0.79073036 0.5128491
vn 0.22705212 -0.79073036 0.5128491
vn 0.45411658 -0.7856583 0.42014185
vn 0.64394724 -0.0770893 -0.76117617
vn 0.5643474 0.19626027 -0.74953467
vn 0.5643474 0.19626027 -0.74953467
vn 0.4847476 0.46960986 -0.73789316
vn -0.2143076 0.9741908 0.07088517
vn -0.33820605 0.8873612 0.22623602
vn -0.33820605 0.8873612 0.22623602
vn -0.46210447 0.8005317 0.38158685
vn -0.62365067 0.09930594 0.7753697
vn -0.5602511 -0.1987781 0.7434469
vn -0.5602511 -0.1987781 0.7434469
vn -0.4968516 -0.49686214 0.71152407
vn 0.2343927 -0.97148985 -0.03560295
vn 0.3461628 -0.88458824 -0.21401146
vn 0.3461628 -0.88458824 -0.21401146
vn 0.45793292 -0.7976867 -0.39241996
g pb_Mesh84596_0
f 3/3/3 2/2/2 1/1/1
f 3/3/3 1/1/1 4/4/4
f 7/7/7 6/6/6 5/5/5
f 6/6/6 8/8/8 5/5/5
f 11/11/11 10/10/10 9/9/9
f 11/11/11 9/9/9 12/12/12
f 15/15/15 14/14/14 13/13/13
f 15/15/15 13/13/13 16/16/16
f 5/5/5 8/8/8 17/17/17
f 8/8/8 18/18/18 17/17/17
f 17/17/17 18/18/18 19/19/19
f 18/18/18 20/20/20 19/19/19
f 23/23/23 22/22/22 21/21/21
f 23/23/23 21/21/21 24/24/24
f 27/27/27 26/26/26 25/25/25
f 26/26/26 28/28/28 25/25/25
f 31/31/31 30/30/30 29/29/29
f 32/32/32 31/31/31 29/29/29
f 35/35/35 34/34/34 33/33/33
f 35/35/35 36/36/36 34/34/34
f 39/39/39 38/38/38 37/37/37
f 37/37/37 38/38/38 40/40/40
f 43/43/43 42/42/42 41/41/41
f 44/44/44 42/42/42 43/43/43
f 47/47/47 46/46/46 45/45/45
f 45/45/45 46/46/46 48/48/48
f 51/51/51 50/50/50 49/49/49
f 52/52/52 50/50/50 51/51/51
f 55/55/55 54/54/54 53/53/53
f 55/55/55 53/53/53 56/56/56
f 59/59/59 58/58/58 57/57/57
f 59/59/59 57/57/57 60/60/60
f 63/63/63 62/62/62 61/61/61
f 62/62/62 64/64/64 61/61/61
f 67/67/67 66/66/66 65/65/65
f 66/66/66 68/68/68 65/65/65
f 71/71/71 70/70/70 69/69/69
f 71/71/71 72/72/72 70/70/70
f 73/73/73 30/30/30 31/31/31
f 73/73/73 70/70/70 30/30/30
f 76/76/76 75/75/75 74/74/74
f 77/77/77 76/76/76 74/74/74
f 36/36/36 76/76/76 78/78/78
f 34/34/34 36/36/36 78/78/78
f 81/81/81 80/80/80 79/79/79
f 81/81/81 82/82/82 80/80/80
f 83/83/83 82/82/82 81/81/81
f 83/83/83 84/84/84 82/82/82
f 87/87/87 86/86/86 85/85/85
f 87/87/87 88/88/88 86/86/86
f 85/85/85 41/41/41 42/42/42
f 85/85/85 86/86/86 41/41/41
f 91/91/91 90/90/90 89/89/89
f 92/92/92 91/91/91 89/89/89
f 93/93/93 91/91/91 92/92/92
f 94/94/94 93/93/93 92/92/92
f 97/97/97 96/96/96 95/95/95
f 98/98/98 97/97/97 95/95/95
f 101/101/101 100/100/100 99/99/99
f 102/102/102 101/101/101 99/99/99
f 105/105/105 104/104/104 103/103/103
f 105/105/105 106/106/106 104/104/104
f 109/109/109 108/108/108 107/107/107
f 109/109/109 110/110/110 108/108/108
f 113/113/113 112/112/112 111/111/111
f 113/113/113 114/114/114 112/112/112
f 117/117/117 116/116/116 115/115/115
f 117/117/117 118/118/118 116/116/116
f 121/121/121 120/120/120 119/119/119
f 121/121/121 122/122/122 120/120/120
f 125/125/125 124/124/124 123/123/123
f 125/125/125 126/126/126 124/124/124
f 129/129/129 128/128/128 127/127/127
f 129/129/129 130/130/130 128/128/128
f 133/133/133 132/132/132 131/131/131
f 133/133/133 134/134/134 132/132/132
