g pb_Mesh86302
v 1.0233301 0.49999848 -0.43967113
v -2.0000036 0.49999812 -0.33048743
v 0.8734194 0.9999987 -0.7265785
v -2.0000052 0.9999985 -0.7228224
v -2.0000036 0.49999812 -0.33048743
v -2.0000029 0.50000066 -15.122282
v -2.0000052 0.9999985 -0.7228224
v -2.0000029 1.0000006 -14.842264
v -2.0000029 0.50000066 -15.122282
v 1.1069951 0.5000008 -15.184136
v -2.0000029 1.0000006 -14.842264
v 1.106999 0.9999971 -14.904113
v 1.1069951 0.5000008 -15.184136
v 1.0233301 0.49999848 -0.43967113
v 1.106999 0.9999971 -14.904113
v 0.8734194 0.9999987 -0.7265785
v 0.8734194 0.9999987 -0.7265785
v -2.0000052 0.9999985 -0.7228224
v 1.106999 0.9999971 -14.904113
v -2.0000029 1.0000006 -14.842264
v 1.1069951 0.5000008 -15.184136
v -2.0000029 0.50000066 -15.122282
v 1.0233301 0.49999848 -0.43967113
v -2.0000036 0.49999812 -0.33048743
vt 1.0385312 0.6347384
vt -1.9867733 0.634738
vt 0.89907265 1.2138244
vt -1.9726156 1.2642452
vt -0.33048734 0.5000049
vt -15.122282 0.5000074
vt -0.7228223 1.0000052
vt -14.842264 1.0000074
vt 1.6986103 -6.96976
vt -1.4090033 -6.96976
vt 1.7041838 -6.3967166
vt -1.4034336 -6.3967166
vt 15.190173 0.5032503
vt 0.4454707 0.503248
vt 14.910154 1.0032492
vt 0.7315228 1.0027629
vt -0.87341946 -0.72657835
vt 2.0000052 -0.7228223
vt -1.1069992 -14.904113
vt 2.0000029 -14.842264
vt 1.1069951 -15.184136
vt -2.0000029 -15.122282
vt 1.0233301 -0.43967122
vt -2.0000036 -0.33048752
vn 0.031161262 0.5044687 0.86286753
vn 0.01609479 0.5608908 0.8247923
vn 0.01609479 0.5608908 0.8247923
vn 0.0010283195 0.61731285 0.7867171
vn -1 -3.3758008E-06 -4.8355478E-08
vn -1 -1.640617E-06 -1.0860691E-07
vn -1 -1.640617E-06 -1.0860691E-07
vn -1 9.4566715E-08 -1.6885835E-07
vn -0.017367056 0.48855346 -0.8723611
vn -0.017365897 0.48855868 -0.8723582
vn -0.017365897 0.48855868 -0.8723582
vn -0.017364739 0.4885639 -0.87235534
vn 0.99997884 -0.0031857183 0.005674213
vn 0.9776068 0.14612225 0.010705995
vn 0.9776068 0.14612225 0.010705995
vn 0.9552347 0.2954302 0.015737778
vn -6.2379975E-08 1 -1.1454009E-07
vn 5.3620784E-07 1 1.660558E-08
vn 5.3620784E-07 1 1.660558E-08
vn 1.1347956E-06 1 1.4775125E-07
vn 3.5273555E-08 -1 -1.5543648E-07
vn 7.368902E-08 -1 -1.633467E-07
vn 7.368902E-08 -1 -1.633467E-07
vn 1.12104495E-07 -1 -1.7125693E-07
g pb_Mesh86302_0
f 3/3/3 2/2/2 1/1/1
f 3/3/3 4/4/4 2/2/2
f 7/7/7 6/6/6 5/5/5
f 7/7/7 8/8/8 6/6/6
f 11/11/11 10/10/10 9/9/9
f 11/11/11 12/12/12 10/10/10
f 15/15/15 14/14/14 13/13/13
f 15/15/15 16/16/16 14/14/14
f 19/19/19 18/18/18 17/17/17
f 19/19/19 20/20/20 18/18/18
f 23/23/23 22/22/22 21/21/21
f 23/23/23 24/24/24 22/22/22
