g pb_Mesh86426
v -1.6875648 -1 -2.7152894
v -2 0 -4
v -2.0000002 4 -4.000002
v -1.6875656 4 -2.7152903
v -2 0 -4
v -0.68546724 -1 -5.6151705
v -0.6854675 4 -5.6151724
v -2.0000002 4 -4.000002
v 4.9297047 4 -6.3006406
v 5 0 -4
v 5.000002 4 -4.0000014
v 4.9297028 -1 -6.300638
v 13.991107 4 -3.936863
v 11.021779 0 2.4021513
v 11.021779 4 2.4021513
v 13.991107 0 -3.936863
v 2.2925286 0 2.1781418
v 0.4813817 -1 1.3297627
v 0.4813817 4 1.3297627
v 2.2925286 4 2.1781418
v 0.4813817 -1 1.3297627
v -1.6875648 -1 -2.7152894
v -1.6875656 4 -2.7152903
v 0.4813817 4 1.3297627
v -0.6854675 4 -5.6151724
v 1.9507511 -1 -7.3616967
v 1.9507517 4 -7.361699
v -0.68546724 -1 -5.6151705
v 1.9507517 4 -7.361699
v 4.9297028 -1 -6.300638
v 4.9297047 4 -6.3006406
v 1.9507511 -1 -7.3616967
v 1 0 -4
v -0.68546724 -1 -5.6151705
v -2 0 -4
v 1.9507511 -1 -7.3616967
v 5 0 -4
v 1.9507511 -1 -7.3616967
v 1 0 -4
v 4.9297028 -1 -6.300638
v 0.4813817 -1 1.3297627
v -2 0 -4
v -1.6875648 -1 -2.7152894
v 1 0 -4
v 2.2925286 0 2.1781418
v 1 0 -4
v 0.4813817 -1 1.3297627
v 5 0 -4
v 1.9507517 4 -7.361699
v 4.9297047 4 -6.3006406
v 1.9507524 7 -7.361702
v 4.929706 7 -6.3006425
v 4.929706 7 -6.3006425
v 5.0000033 7 -4.000003
v 1.0000015 4 -4.000002
v 1.9507517 4 -7.361699
v 1.0000017 7 -4.0000033
v 1.9507524 7 -7.361702
v 5.000002 4 -4.0000014
v 1.0000015 4 -4.000002
v 5.0000033 7 -4.000003
v 1.0000017 7 -4.0000033
v 2.2925286 0 2.1781418
v 2.2925286 4 2.1781418
v 7.2159886 0 2.2758482
v 7.2159886 4 2.2758482
v 6.2295756 3.9999993 -8.6768
v 6.2295756 -4.7683716E-07 -8.6768
v 11.30598 3.9999993 -8.507452
v 11.30598 -4.7683716E-07 -8.507452
v 5 0 -4
v 2.2925286 0 2.1781418
v 10.185316 0 -4.063166
v 7.2159886 0 2.2758482
v 5.000002 4 -4.0000014
v 5 0 -4
v 6.2295756 3.9999993 -8.6768
v 6.2295756 -4.7683716E-07 -8.6768
v 6.2295756 -4.7683716E-07 -8.6768
v 11.30598 -4.7683716E-07 -8.507452
v 13.991107 0 -3.936863
v 13.991107 4 -3.936863
v 16.112055 0 -8.46473
v 16.112055 4 -8.46473
v 10.185316 4 -4.063166
v 5.000002 4 -4.0000014
v 10.185317 10 -4.0631676
v 4.999999 10 -4.000004
v 11.30598 3.9999993 -8.507452
v 10.185316 4 -4.063166
v 11.30598 10 -8.507453
v 10.185317 10 -4.0631676
v 5.000002 4 -4.0000014
v 6.2295756 3.9999993 -8.6768
v 4.999999 10 -4.000004
v 6.229576 10 -8.676802
v 6.2295756 3.9999993 -8.6768
v 11.30598 3.9999993 -8.507452
v 6.229576 10 -8.676802
v 11.30598 10 -8.507453
v 13.991107 0 -3.936863
v 11.021779 0 2.4021513
v 16.112055 0 -8.46473
v 11.30598 3.9999993 -8.507452
v 11.30598 -4.7683716E-07 -8.507452
v 16.112055 4 -8.46473
v 16.112055 0 -8.46473
v 7.2159886 0 2.2758482
v 7.2159886 4 2.2758482
v 11.021779 0 2.4021513
v 11.021779 4 2.4021513
v -2.0000002 4 -4.000002
v 1.0000015 4 -4.000002
v 0.4813817 4 1.3297627
v -1.6875656 4 -2.7152903
v 5.000002 4 -4.0000014
v 2.2925286 4 2.1781418
v -0.6854675 4 -5.6151724
v 1.9507517 4 -7.361699
v 1.9507524 7 -7.361702
v 4.929706 7 -6.3006425
v 5.0000033 7 -4.000003
v 1.0000017 7 -4.0000033
v 7.2159886 4 2.2758482
v 10.185316 4 -4.063166
v 10.185317 10 -4.0631676
v 4.999999 10 -4.000004
v 11.30598 10 -8.507453
v 6.229576 10 -8.676802
v 11.30598 3.9999993 -8.507452
v 13.991107 4 -3.936863
v 16.112055 4 -8.46473
v 11.021779 4 2.4021513
vt -2.2764385 -0.9999997
vt -3.4606597 3.5265097E-07
vt -3.4606616 4.0000005
vt -2.2764392 4.0000005
vt -3.4606597 3.5265097E-07
vt -5.325894 -0.99999976
vt -5.325896 4
vt -3.4606616 4.0000005
vt 6.147142 4.0000024
vt 3.8454278 2.4961084E-06
vt 3.8454292 4.0000024
vt 6.1471395 -0.9999975
vt 9.500002 4
vt 2.5000007 0
vt 2.5000007 4
vt 9.500002 0
vt 3.1622725 8.851355E-11
vt 1.2639731 -1
vt 1.2639731 4
vt 3.1622725 4
vt 1.2639731 -1
vt -3.0924869 -1
vt -3.092488 4
vt 1.2639731 4
vt -5.9306024E-07 4.000003
vt -2.828428 -0.99999636
vt -2.8284287 4.000004
vt -5.985995E-07 -0.9999971
vt -2.8284287 4.000004
vt -5.656855 -0.9999971
vt -5.656857 4.000003
vt -2.828428 -0.99999636
vt 0.909811 -4.020151
vt -1.0386684 -5.6467767
vt -1.819622 -3.9234493
vt 1.359792 -7.4730024
vt 4.549055 -4.149087
vt 1.359792 -7.4730024
vt 0.909811 -4.020151
vt 4.070075 -6.5111723
vt 0.022943597 1.239566
vt -1.819622 -3.9234493
vt -1.9503878 -2.7233534
vt 0.909811 -4.020151
vt 2.0857677 2.097665
vt 0.909811 -4.020151
vt 0.022943597 1.239566
vt 4.549055 -4.149087
vt 0.63245404 4.0000076
vt -2.5298247 4.0000076
vt 0.63245434 7.0000076
vt -2.5298254 7.0000076
vt 6.147144 7.0000024
vt 3.8454306 7.0000024
vt -4.1211724 4
vt -7.6147285 4
vt -4.121174 7
vt -7.6147313 7
vt 5.0000014 4.000002
vt 1.0000011 4.000002
vt 5.000003 7.000002
vt 1.0000012 7.000002
vt 2.335294 0
vt 2.335294 4
vt 7.2597237 0
vt 7.2597237 4
vt -5.936817 3.9999993
vt -5.936817 -4.7683716E-07
vt -11.016046 3.9999993
vt -11.016046 -4.7683716E-07
vt 5 -4
vt 2.2925286 2.1781418
vt 10.185316 -4.063166
vt 7.2159886 2.2758482
vt -5.1398787 4.0000014
vt -5.139877 1.4137652E-06
vt -9.97561 4.0000005
vt -9.97561 9.369286E-07
vt 6.2295756 -8.6768
vt 11.30598 -8.507452
vt 9.499999 0
vt 9.499999 4
vt 14.499999 0
vt 14.499999 4
vt 10.234053 4.000001
vt 5.048353 4.000001
vt 10.234054 10.000001
vt 5.048351 10.000001
vt 11.013601 3.999999
vt 6.4302 3.9999998
vt 11.013602 10
vt 6.4302015 10
vt -5.1398787 3.9999979
vt -9.97561 3.9999971
vt -5.13988 9.999998
vt -9.975612 9.999998
vt -5.936817 4.000002
vt -11.016046 4.000002
vt -5.9368176 10.000003
vt -11.016046 10.000003
vt 13.991107 -3.936863
vt 11.021779 2.4021513
vt 16.112055 -8.46473
vt -11.229913 3.9999993
vt -11.229913 -4.7683716E-07
vt -16.036179 4
vt -16.036179 0
vt 7.2875056 0
vt 7.2875056 4
vt 11.095391 0
vt 11.095391 4
vt 2.0000002 -4.000002
vt -1.0000015 -4.000002
vt -0.4813817 1.3297627
vt 1.6875656 -2.7152903
vt -5.000002 -4.0000014
vt -2.2925286 2.1781418
vt 0.6854675 -5.6151724
vt -1.9507517 -7.361699
vt -1.9507524 -7.361702
vt -4.929706 -6.3006425
vt -5.0000033 -4.000003
vt -1.0000017 -4.0000033
vt -7.2159886 2.2758482
vt -10.185316 -4.063166
vt -10.185317 -4.0631676
vt -4.999999 -4.000004
vt -11.30598 -8.507453
vt -6.229576 -8.676802
vt -11.30598 -8.507451
vt -13.991107 -3.9368622
vt -16.112055 -8.464729
vt -11.021779 2.4021513
vn -0.97167844 -1.9582107E-08 0.23630705
vn -0.9716784 5.4763568E-08 0.23630732
vn -0.97167844 -1.9582107E-08 0.23630705
vn -0.9716785 -9.392778E-08 0.23630677
vn -0.7755952 -3.1250096E-07 -0.63123065
vn -0.7755952 -2.777786E-07 -0.6312306
vn -0.7755952 -3.1250096E-07 -0.63123065
vn -0.7755951 -3.4722333E-07 -0.6312307
vn 0.99953353 -4.4169605E-07 -0.030541195
vn 0.99953353 -4.4169605E-07 -0.030541195
vn 0.99953353 -4.8753714E-07 -0.030541273
vn 0.99953353 -3.9585495E-07 -0.030541116
vn 0.90557337 0 0.4241897
vn 0.90557337 0 0.4241897
vn 0.90557337 0 0.4241897
vn 0.90557337 0 0.4241897
vn -0.4241895 0 0.90557337
vn -0.4241895 0 0.90557337
vn -0.4241895 0 0.90557337
vn -0.42418954 0 0.9055734
vn -0.88130265 -1.7969587E-08 0.47255224
vn -0.88130265 -3.5939173E-08 0.4725522
vn -0.88130265 -1.7969587E-08 0.47255224
vn -0.88130265 0 0.47255227
vn -0.5523001 -3.4459396E-07 -0.8336454
vn -0.5523001 -3.4459396E-07 -0.8336454
vn -0.5523001 -3.4484168E-07 -0.8336454
vn -0.5523001 -3.443462E-07 -0.8336454
vn 0.33553615 -5.331916E-07 -0.94202733
vn 0.33553615 -5.331916E-07 -0.94202733
vn 0.3355361 -5.771905E-07 -0.9420274
vn 0.3355362 -4.891927E-07 -0.94202733
vn 0.11102652 -0.8829255 0.43078673
vn 0.11102652 -0.8829255 0.43078673
vn -0 -0.8502339 0.5264051
vn 0.22205304 -0.9156171 0.33516833
vn -0.070924416 -0.9323683 0.34168297
vn -0.070924416 -0.9323683 0.34168297
vn -0 -0.95849144 0.28512135
vn -0.14184883 -0.9062451 0.3982446
vn 0.4182377 -0.6488593 -0.3164619
vn 0.4182377 -0.6488593 -0.3164619
vn 0.8364754 -0.31486878 -0.44851595
vn -0 -0.98284984 -0.18440782
vn 0.25949594 -0.92392755 -0.054289132
vn 0.25949594 -0.92392755 -0.054289132
vn 0.5189919 -0.8478551 -0.108578265
vn -0 -1 0
vn 0.33553606 -9.783854E-07 -0.9420274
vn 0.33553618 -8.686532E-07 -0.94202733
vn 0.33553618 -8.686532E-07 -0.94202733
vn 0.33553627 -7.5892103E-07 -0.94202733
vn 0.99953353 -4.9360517E-07 -0.030541271
vn 0.99953353 -4.9117796E-07 -0.030541267
vn -0.96225655 -9.15317E-08 -0.27214393
vn -0.96225655 -6.08243E-08 -0.27214396
vn -0.96225655 -6.08243E-08 -0.27214396
vn -0.96225655 -3.0116897E-08 -0.272144
vn -1.1920927E-07 4.768372E-07 1
vn -1.1920925E-07 4.7683716E-07 1
vn -1.1920925E-07 4.7683716E-07 1
vn -1.1920923E-07 4.7683716E-07 1
vn -0.019841146 0 0.9998031
vn -0.019841146 0 0.9998031
vn -0.019841146 0 0.9998031
vn -0.019841146 0 0.9998031
vn 0.03334124 0 -0.99944407
vn 0.03334124 0 -0.99944407
vn 0.03334124 0 -0.99944407
vn 0.03334124 0 -0.99944407
vn -0 -1 0
vn -0 -1 0
vn -0 -1 0
vn -0 -1 0
vn -0.9671337 3.7023182E-07 -0.25426844
vn -0.96713364 1.8511591E-07 -0.2542686
vn -0.96713364 1.8511591E-07 -0.2542686
vn -0.9671336 0 -0.25426874
vn -1.1516859E-09 -1 1.0434138E-07
vn -3.5493875E-09 -1 1.0639718E-07
vn 0.90557337 0 0.4241895
vn 0.90557337 0 0.4241895
vn 0.90557337 0 0.4241895
vn 0.90557337 0 0.4241895
vn 0.012180559 2.3646484E-07 0.99992585
vn 0.0121804625 3.1980386E-07 0.99992585
vn 0.0121804625 3.1980386E-07 0.99992585
vn 0.012180367 4.0314288E-07 0.99992585
vn 0.96964806 3.886299E-08 0.24450482
vn 0.9696481 -2.848199E-08 0.24450475
vn 0.9696481 -2.848199E-08 0.24450475
vn 0.9696481 -9.582697E-08 0.24450466
vn -0.9671337 -5.622025E-07 -0.2542684
vn -0.96713364 -2.830858E-07 -0.25426877
vn -0.96713364 -2.830858E-07 -0.25426877
vn -0.9671335 -3.969104E-09 -0.25426912
vn 0.03334124 -3.203644E-07 -0.99944407
vn 0.033341333 -2.3961087E-07 -0.99944407
vn 0.033341333 -2.3961087E-07 -0.99944407
vn 0.03334143 -1.5885732E-07 -0.99944407
vn -0 -1 0
vn -0 -1 0
vn 4.9021008E-08 -1 6.600715E-08
vn 0.008888762 0 -0.99996054
vn 0.008888762 0 -0.99996054
vn 0.008888762 0 -0.99996054
vn 0.008888762 0 -0.99996054
vn -0.033168852 0 0.9994498
vn -0.033168852 0 0.9994498
vn -0.033168852 0 0.9994498
vn -0.033168852 0 0.9994498
vn -0 1 0
vn -0 1 0
vn -0 1 0
vn -0 1 0
vn -0 1 0
vn -0 1 0
vn -0 1 0
vn -0 1 0
vn -0 1 0
vn -0 1 0
vn -0 1 0
vn -0 1 0
vn -0 1 0
vn -0 1 0
vn -0 1 0
vn -0 1 0
vn -0 1 0
vn -0 1 0
vn -7.145469E-08 1 -1.1451276E-07
vn -7.145469E-08 1 -1.1451276E-07
vn -1.4820614E-07 1 -6.942286E-08
vn -0 1 0
g pb_Mesh86426_0
f 3/3/3 2/2/2 1/1/1
f 3/3/3 1/1/1 4/4/4
f 7/7/7 6/6/6 5/5/5
f 7/7/7 5/5/5 8/8/8
f 11/11/11 10/10/10 9/9/9
f 10/10/10 12/12/12 9/9/9
f 15/15/15 14/14/14 13/13/13
f 14/14/14 16/16/16 13/13/13
f 19/19/19 18/18/18 17/17/17
f 19/19/19 17/17/17 20/20/20
f 23/23/23 22/22/22 21/21/21
f 23/23/23 21/21/21 24/24/24
f 27/27/27 26/26/26 25/25/25
f 26/26/26 28/28/28 25/25/25
f 31/31/31 30/30/30 29/29/29
f 30/30/30 32/32/32 29/29/29
f 35/35/35 34/34/34 33/33/33
f 34/34/34 36/36/36 33/33/33
f 39/39/39 38/38/38 37/37/37
f 38/38/38 40/40/40 37/37/37
f 43/43/43 42/42/42 41/41/41
f 42/42/42 44/44/44 41/41/41
f 47/47/47 46/46/46 45/45/45
f 46/46/46 48/48/48 45/45/45
f 51/51/51 50/50/50 49/49/49
f 51/51/51 52/52/52 50/50/50
f 53/53/53 11/11/11 9/9/9
f 53/53/53 54/54/54 11/11/11
f 57/57/57 56/56/56 55/55/55
f 57/57/57 58/58/58 56/56/56
f 61/61/61 60/60/60 59/59/59
f 61/61/61 62/62/62 60/60/60
f 65/65/65 64/64/64 63/63/63
f 65/65/65 66/66/66 64/64/64
f 69/69/69 68/68/68 67/67/67
f 69/69/69 70/70/70 68/68/68
f 73/73/73 72/72/72 71/71/71
f 73/73/73 74/74/74 72/72/72
f 77/77/77 76/76/76 75/75/75
f 77/77/77 78/78/78 76/76/76
f 79/79/79 73/73/73 71/71/71
f 79/79/79 80/80/80 73/73/73
f 83/83/83 82/82/82 81/81/81
f 83/83/83 84/84/84 82/82/82
f 87/87/87 86/86/86 85/85/85
f 87/87/87 88/88/88 86/86/86
f 91/91/91 90/90/90 89/89/89
f 91/91/91 92/92/92 90/90/90
f 95/95/95 94/94/94 93/93/93
f 95/95/95 96/96/96 94/94/94
f 99/99/99 98/98/98 97/97/97
f 99/99/99 100/100/100 98/98/98
f 101/101/101 74/74/74 73/73/73
f 101/101/101 102/102/102 74/74/74
f 103/103/103 73/73/73 80/80/80
f 103/103/103 101/101/101 73/73/73
f 106/106/106 105/105/105 104/104/104
f 106/106/106 107/107/107 105/105/105
f 110/110/110 109/109/109 108/108/108
f 110/110/110 111/111/111 109/109/109
g pb_Mesh86426_1
f 114/114/114 113/113/113 112/112/112
f 114/114/114 112/112/112 115/115/115
f 117/117/117 116/116/116 113/113/113
f 117/117/117 113/113/113 114/114/114
f 113/113/113 119/119/119 118/118/118
f 113/113/113 118/118/118 112/112/112
f 122/122/122 121/121/121 120/120/120
f 122/122/122 120/120/120 123/123/123
f 124/124/124 116/116/116 117/117/117
f 124/124/124 125/125/125 116/116/116
f 128/128/128 127/127/127 126/126/126
f 128/128/128 129/129/129 127/127/127
f 131/131/131 130/130/130 125/125/125
f 131/131/131 132/132/132 130/130/130
f 133/133/133 125/125/125 124/124/124
f 133/133/133 131/131/131 125/125/125
