g pb_Mesh100178
v -0 14 -1
v 4 14 -1
v 4 14 3
v 0.28054547 14 3.5946205
v -0 14 -5
v 4 14 -5
v 2 0 3
v -4 0 -3
v -4 0 2
v 1 0 -2
v 1 0 8
v -6 0 9
v -8 0 5
v -9 0 2
v -6 7 4
v -6.5 7 0.5
v -6 7 4
v -6.5 7 0.5
v -4 14 3
v -4 14 -1
v -9 0 2
v -9 0 -3
v -6.5 7 0.5
v -5.897053 10 -4.2690477
v -6.5 7 0.5
v -5.897053 10 -4.2690477
v -4 14 -1
v -4 14 -5
v 2.527707 10 -3.2574058
v 1 0 -2
v 3 7 1
v 2 0 3
v 4 14 -5
v 2.527707 10 -3.2574058
v 4 14 -1
v 3 7 1
v 3 7 1
v 2 0 3
v 2.5 7 5.5
v 1 0 8
v 4 14 -1
v 3 7 1
v 4 14 3
v 2.5 7 5.5
v 2.5 7 5.5
v 1 0 8
v -3 7 7
v -6 0 9
v 4 14 3
v 2.5 7 5.5
v 0.28054547 14 3.5946205
v -3 7 7
v -1.6846728 10 -3.7632267
v -4 0 -3
v 1 0 -2
v 2.527707 10 -3.2574058
v -0 14 -5
v -1.6846728 10 -3.7632267
v 2.527707 10 -3.2574058
v 4 14 -5
v -4 14 3
v -4 14 -1
v -2 14 -1
v -1.909948 14 4.043773
v -4 14 -5
v -2 14 -5
v -6.5 0 2
v -9 0 -3
v -9 0 2
v -6.5 0 -3
v -7 0 7
v -8 0 5
v -3 7 7
v -6 0 9
v -4.5 7 5.5
v -7 0 7
v -4.5 7 5.5
v -7 0 7
v -6 7 4
v -8 0 5
v 0.28054547 14 3.5946205
v -3 7 7
v -1.909948 14 4.043773
v -4.5 7 5.5
v -1.909948 14 4.043773
v -4.5 7 5.5
v -4 14 3
v -6 7 4
v -9 0 -3
v -6.5 0 -3
v -5.897053 10 -4.2690477
v -3.7908628 10 -4.016137
v -6.5 0 -3
v -4 0 -3
v -3.7908628 10 -4.016137
v -1.6846728 10 -3.7632267
v -4 14 -5
v -5.897053 10 -4.2690477
v -3.7908628 10 -4.016137
v -2 14 -5
v -2 14 -5
v -3.7908628 10 -4.016137
v -1.6846728 10 -3.7632267
v -0 14 -5
vt 0 -1
vt -4 -1
vt -4 3
vt -0.28054547 3.5946205
vt 0 -5
vt -4 -5
vt 2 3
vt -4 -3
vt -4 2
vt 1 -2
vt 1 8
vt -6 9
vt 3.7944877 -2.786563
vt 0.6816642 -2.966287
vt 3.0932543 4.5241456
vt -0.44226605 4.5273027
vt 3.0932543 4.5241456
vt -0.44226605 4.5273027
vt 2.3920212 11.834854
vt -1.5661963 12.020892
vt 0.6816642 -2.966287
vt -4.2661076 -2.73374
vt -0.44226605 4.5273027
vt -5.074577 7.7811837
vt -0.44226605 4.5273027
vt -5.074577 7.7811837
vt -1.5661963 12.020892
vt -5.5244136 12.206929
vt 3.177677 10.320533
vt 1.9681178 0.20728257
vt -1.0922983 7.44478
vt -3.0604162 0.37228754
vt 4.873906 14.54143
vt 3.177677 10.320533
vt 0.8758195 14.517272
vt -1.0922983 7.44478
vt -1.0922983 7.44478
vt -3.0604162 0.37228754
vt -5.574683 7.3199997
vt -8.027099 0.14688602
vt 0.8758195 14.517272
vt -1.0922983 7.44478
vt -3.1222672 14.4931135
vt -5.574683 7.3199997
vt 3.6574063 4.6177497
vt 2.7491388 -2.9094284
vt -1.3730257 3.588075
vt -3.854824 -3.8796327
vt 4.565674 12.144927
vt 3.6574063 4.6177497
vt 1.0706841 11.605725
vt -1.3730257 3.588075
vt 2.0238483 10.51836
vt 4.2591114 0.52715
vt -0.81169903 0.4193486
vt -2.2172058 10.49501
vt 0.4601432 14.715575
vt 2.0238483 10.51836
vt -2.2172058 10.49501
vt -3.5228822 14.789665
vt 4 3
vt 4 -1
vt 2 -1
vt 1.909948 4.043773
vt 4 -5
vt 2 -5
vt -6.5 2
vt -9 -3
vt -9 2
vt -6.5 -3
vt -7 7
vt -8 5
vt -1.3730257 3.588075
vt -3.854824 -3.8796327
vt -3.168311 4.0218644
vt -5.2734356 -3.2161205
vt -3.168311 4.0218644
vt -5.2734356 -3.2161205
vt -4.963597 4.4556537
vt -6.692047 -2.5526083
vt 1.0706841 11.605725
vt -1.3730257 3.588075
vt -0.96566993 11.25113
vt -3.168311 4.0218644
vt -0.96566993 11.25113
vt -3.168311 4.0218644
vt -3.2351463 11.463916
vt -4.963597 4.4556537
vt 9.237893 0.43453822
vt 6.7485023 0.48084408
vt 6.264902 10.54171
vt 4.1443753 10.530035
vt 6.7485023 0.48084408
vt 4.2591114 0.52715
vt 4.1443753 10.530035
vt 2.0238483 10.51836
vt 4.4431686 14.641486
vt 6.264902 10.54171
vt 4.1443753 10.530035
vt 2.4516559 14.678531
vt 2.4516559 14.678531
vt 4.1443753 10.530035
vt 2.0238483 10.51836
vt 0.4601432 14.715575
vn -0 1 0
vn -0 1 0
vn -0 1 0
vn -0 1 0
vn -0 1 0
vn -0 1 0
vn -0 -1 0
vn -0 -1 0
vn -0 -1 0
vn -0 -1 0
vn -0 -1 0
vn -0 -1 0
vn -0.90453404 0.30151135 0.30151135
vn -0.9143667 0.3299372 0.2167699
vn -0.9143667 0.3299372 0.2167699
vn -0.92419934 0.35836303 0.13202848
vn -0.94740176 0.29002094 0.1353431
vn -0.94457185 0.31317866 0.06767155
vn -0.94457185 0.31317866 0.06767155
vn -0.9417419 0.3363364 0
vn -0.9417419 0.3363364 0
vn -0.9459118 0.32007593 0.035499457
vn -0.9459118 0.32007593 0.035499457
vn -0.95008177 0.30381545 0.070998915
vn -0.9291128 0.354431 0.10549004
vn -0.9163241 0.39147228 0.05274502
vn -0.9163241 0.39147228 0.05274502
vn -0.90353537 0.4285136 0
vn 0.9573945 -0.175134 -0.22961697
vn 0.9598225 -0.18379205 -0.21103352
vn 0.9598225 -0.18379205 -0.21103352
vn 0.9622505 -0.19245009 -0.19245009
vn 0.9384489 -0.34541792 0
vn 0.94211113 -0.2760603 -0.12528642
vn 0.94211113 -0.2760603 -0.12528642
vn 0.94577336 -0.20670272 -0.25057283
vn 0.9878783 -0.109764256 0.109764256
vn 0.9794886 -0.124246344 0.15199202
vn 0.9794886 -0.124246344 0.15199202
vn 0.97109896 -0.13872842 0.19421978
vn 0.98994946 -0.14142136 0
vn 0.9845989 -0.15620062 0.054402687
vn 0.9845989 -0.15620062 0.054402687
vn 0.97924834 -0.17097987 0.10880537
vn 0.25282863 0.27690753 0.92703825
vn 0.19544101 0.24692428 0.94670594
vn 0.19544101 0.24692428 0.94670594
vn 0.13805337 0.21694101 0.96637356
vn 0.15040329 0.3037703 0.9407989
vn 0.1995275 0.31538868 0.92626095
vn 0.1995275 0.31538868 0.92626095
vn 0.24865171 0.32700706 0.91172296
vn 0.15636751 -0.13050178 -0.97821414
vn 0.19471344 -0.11938779 -0.97356725
vn 0.15636751 -0.13050178 -0.97821414
vn 0.118021585 -0.14161576 -0.98286104
vn 0.05613769 -0.3678893 -0.9258936
vn 0.11227538 -0.33638495 -0.9350077
vn 0.05613769 -0.3678893 -0.9258936
vn -0 -0.39939368 -0.9167795
vn -0 1 0
vn -0 1 0
vn -0 1 0
vn -0 1 0
vn -0 1 0
vn -0 1 0
vn -0 -1 0
vn -0 -1 0
vn -0 -1 0
vn -0 -1 0
vn -0 -1 0
vn -0 -1 0
vn -0.6311687 0.4508348 0.6311687
vn -0.72860146 0.41717535 0.52209294
vn -0.72860146 0.41717535 0.52209294
vn -0.8260342 0.3835159 0.4130171
vn -0.6556101 0.37463433 0.6556101
vn -0.7538115 0.3394623 0.54080826
vn -0.7538115 0.3394623 0.54080826
vn -0.8520129 0.3042903 0.42600644
vn 0.18761547 0.3572013 0.91499054
vn -0.23346326 0.36777633 0.78476626
vn -0.23346326 0.36777633 0.78476626
vn -0.65454197 0.37835133 0.65454197
vn -0.42151326 0.3315504 0.8440385
vn -0.5491144 0.31078565 0.76037705
vn -0.5491144 0.31078565 0.76037705
vn -0.67671555 0.29002094 0.67671555
vn -0 -0.12589507 -0.99204355
vn 0.059089806 -0.1289587 -0.98811007
vn 0.059089806 -0.1289587 -0.98811007
vn 0.11817961 -0.13202232 -0.98417664
vn -0 -0.10109314 -0.994877
vn 0.05929552 -0.101963714 -0.9912404
vn 0.05929552 -0.101963714 -0.9912404
vn 0.11859104 -0.10283428 -0.98760384
vn 0.057992075 -0.23517963 -0.9684752
vn 0.11598415 -0.23151247 -0.9658932
vn 0.057992075 -0.23517963 -0.9684752
vn -0 -0.2388468 -0.97105724
vn 0.057135276 -0.29031152 -0.9534993
vn 0.11427055 -0.2852275 -0.9516236
vn 0.057135276 -0.29031152 -0.9534993
vn -0 -0.29539555 -0.955375
g pb_Mesh100178_0
f 3/3/3 2/2/2 1/1/1
f 3/3/3 1/1/1 4/4/4
f 2/2/2 6/6/6 5/5/5
f 2/2/2 5/5/5 1/1/1
f 9/9/9 8/8/8 7/7/7
f 8/8/8 10/10/10 7/7/7
f 12/12/12 9/9/9 11/11/11
f 9/9/9 7/7/7 11/11/11
f 15/15/15 14/14/14 13/13/13
f 16/16/16 14/14/14 15/15/15
f 19/19/19 18/18/18 17/17/17
f 20/20/20 18/18/18 19/19/19
f 23/23/23 22/22/22 21/21/21
f 24/24/24 22/22/22 23/23/23
f 27/27/27 26/26/26 25/25/25
f 28/28/28 26/26/26 27/27/27
f 31/31/31 30/30/30 29/29/29
f 32/32/32 30/30/30 31/31/31
f 35/35/35 34/34/34 33/33/33
f 36/36/36 34/34/34 35/35/35
f 39/39/39 38/38/38 37/37/37
f 40/40/40 38/38/38 39/39/39
f 43/43/43 42/42/42 41/41/41
f 44/44/44 42/42/42 43/43/43
f 47/47/47 46/46/46 45/45/45
f 47/47/47 48/48/48 46/46/46
f 51/51/51 50/50/50 49/49/49
f 51/51/51 52/52/52 50/50/50
f 55/55/55 54/54/54 53/53/53
f 56/56/56 55/55/55 53/53/53
f 59/59/59 58/58/58 57/57/57
f 60/60/60 59/59/59 57/57/57
f 63/63/63 62/62/62 61/61/61
f 64/64/64 63/63/63 61/61/61
f 1/1/1 63/63/63 64/64/64
f 4/4/4 1/1/1 64/64/64
f 63/63/63 66/66/66 65/65/65
f 63/63/63 65/65/65 62/62/62
f 1/1/1 5/5/5 66/66/66
f 1/1/1 66/66/66 63/63/63
f 69/69/69 68/68/68 67/67/67
f 68/68/68 70/70/70 67/67/67
f 67/67/67 70/70/70 9/9/9
f 70/70/70 8/8/8 9/9/9
f 72/72/72 67/67/67 71/71/71
f 69/69/69 67/67/67 72/72/72
f 9/9/9 12/12/12 71/71/71
f 67/67/67 9/9/9 71/71/71
f 75/75/75 74/74/74 73/73/73
f 75/75/75 76/76/76 74/74/74
f 79/79/79 78/78/78 77/77/77
f 79/79/79 80/80/80 78/78/78
f 83/83/83 82/82/82 81/81/81
f 83/83/83 84/84/84 82/82/82
f 87/87/87 86/86/86 85/85/85
f 87/87/87 88/88/88 86/86/86
f 91/91/91 90/90/90 89/89/89
f 92/92/92 90/90/90 91/91/91
f 95/95/95 94/94/94 93/93/93
f 96/96/96 94/94/94 95/95/95
f 99/99/99 98/98/98 97/97/97
f 100/100/100 99/99/99 97/97/97
f 103/103/103 102/102/102 101/101/101
f 104/104/104 103/103/103 101/101/101
