g pb_Mesh99618
v -6.429705 6 5.436696
v -6.4297056 4.865856 5.4366937
v -7.8524127 5.2072983 6.506897
v -7.852411 6 6.506896
v -8.301774 6 0.7108097
v -8.301778 4.504418 0.71081436
v -5.5878706 6 0.88073826
v -5.5878706 4 0.88073826
v -7.8524127 5.2072983 6.506897
v -13.023336 5.103358 6.0000114
v -7.852411 6 6.506896
v -13.023338 6 6.0000176
v -13.023336 5.103358 6.0000114
v -19.6498 5.5349135 5.4768505
v -13.023338 6 6.0000176
v -19.23479 5.980249 5.4748006
v -19.078901 5.947574 0.27095702
v -20.291254 4.665933 0.7801956
v -14.154998 6 0.7569676
v -14.236351 4.7175727 1.0360748
v -14.154998 6 0.7569676
v -14.236351 4.7175727 1.0360748
v -8.301774 6 0.7108097
v -8.301778 4.504418 0.71081436
v -19.23479 5.980249 5.4748006
v -19.6498 5.5349135 5.4768505
v -19.606823 5.9562726 3.7862854
v -19.201717 4.6235137 3.6141155
v -19.606823 5.9562726 3.7862854
v -19.201717 4.6235137 3.6141155
v -20.291254 4.665933 0.7801956
v -19.078901 5.947574 0.27095702
v -5.5878706 6 0.88073826
v -5.5878706 4 0.88073826
v -5.299356 4.441252 3.8833535
v -5.2993555 6 3.8833537
v -5.2993555 6 3.8833537
v -5.299356 4.441252 3.8833535
v -6.4297056 4.865856 5.4366937
v -6.429705 6 5.436696
v -5.5878706 6 0.88073826
v -7.871541 6 3.3554091
v -8.301774 6 0.7108097
v -5.2993555 6 3.8833537
v -7.852411 6 6.506896
v -6.429705 6 5.436696
v -9.065498 4.3379846 3.3050365
v -5.299356 4.441252 3.8833535
v -5.5878706 4 0.88073826
v -8.301778 4.504418 0.71081436
v -7.8524127 5.2072983 6.506897
v -6.4297056 4.865856 5.4366937
v -5.299356 4.441252 3.8833535
v -9.065498 4.3379846 3.3050365
v -19.606823 5.9562726 3.7862854
v -19.078901 5.947574 0.27095702
v -14.154998 6 0.7569676
v -13.589169 6 3.3784933
v -19.606823 5.9562726 3.7862854
v -13.589169 6 3.3784933
v -19.23479 5.980249 5.4748006
v -13.023338 6 6.0000176
v -14.154998 6 0.7569676
v -13.589169 6 3.3784933
v -13.023338 6 6.0000176
v -7.8524127 5.2072983 6.506897
v -9.065498 4.3379846 3.3050365
v -13.023336 5.103358 6.0000114
v -13.479092 4.74052 3.3953195
v -9.065498 4.3379846 3.3050365
v -8.301778 4.504418 0.71081436
v -13.479092 4.74052 3.3953195
v -14.236351 4.7175727 1.0360748
v -19.6498 5.5349135 5.4768505
v -13.023336 5.103358 6.0000114
v -13.479092 4.74052 3.3953195
v -19.201717 4.6235137 3.6141155
v -13.479092 4.74052 3.3953195
v -14.236351 4.7175727 1.0360748
v -19.201717 4.6235137 3.6141155
v -20.291254 4.665933 0.7801956
vt -7.174615 6.000012
vt -7.174615 4.865868
vt -8.742168 5.207312
vt -8.742166 6.000014
vt 8.254276 5.5974145
vt 8.25428 4.139228
vt 5.535226 5.5906954
vt 5.535226 3.6407044
vt -8.742168 5.207312
vt -13.777931 5.1033683
vt -8.742166 6.000014
vt -13.777934 6.0000105
vt -13.777931 5.1033683
vt -20.25021 5.53492
vt -13.777934 6.0000105
vt -19.839619 5.9802556
vt 19.039768 5.52084
vt 20.224348 4.144385
vt 14.097394 5.520326
vt 14.164296 4.2070937
vt 14.097394 5.520326
vt 14.164296 4.2070937
vt 8.254276 5.5974145
vt 8.25428 4.139228
vt -0.31879276 1.6522614
vt -0.43679017 1.1333654
vt -2.0427675 1.6564937
vt -2.0904906 0.44518957
vt -2.0427675 1.6564937
vt -2.0904906 0.44518957
vt -5.1183734 0.4397
vt -5.255439 1.967178
vt -2.3219597 5.999999
vt -2.3219597 3.999999
vt -5.142449 4.4412513
vt -5.142449 5.999999
vt -5.142449 5.999999
vt -5.142449 4.4412513
vt -6.938733 4.865855
vt -6.938735 5.999999
vt 5.5694866 0.8972076
vt 7.853146 3.3718884
vt 8.283378 0.72730243
vt 5.280973 3.8998096
vt 7.8340163 6.5233636
vt 6.4113173 5.4531555
vt -9.223052 3.7425385
vt -5.463508 4.34528
vt -5.735131 1.3106138
vt -8.466171 1.1880218
vt -8.043707 7.028382
vt -6.6091056 5.932213
vt -5.463508 4.34528
vt -9.223052 3.7425385
vt 19.588507 3.8027418
vt 19.060614 0.28739813
vt 14.136574 0.7735092
vt 13.570746 3.3950205
vt 19.588507 3.8027418
vt 13.570746 3.3950205
vt 19.216402 5.4913135
vt 13.004919 6.0165305
vt 14.136574 0.7735092
vt 13.570746 3.3950205
vt 13.004919 6.0165305
vt -8.043707 7.028382
vt -9.223052 3.7425385
vt -13.207001 6.4904056
vt -13.64871 3.8593087
vt -9.223052 3.7425385
vt -8.466171 1.1880218
vt -13.64871 3.8593087
vt -14.40456 1.5098075
vt -19.845043 5.9915156
vt -13.207001 6.4904056
vt -13.64871 3.8593087
vt -19.362818 4.0382876
vt -13.64871 3.8593087
vt -14.40456 1.5098075
vt -19.362818 4.0382876
vt -20.45318 1.2233374
vn 0.60113955 -1.2088462E-06 0.79914415
vn 0.60113984 -1.9326944E-06 0.7991439
vn 0.60113955 -1.2088462E-06 0.79914415
vn 0.6011392 -4.8499794E-07 0.7991443
vn 0.062491693 -3.2619153E-06 -0.9980455
vn 0.0624908 -1.6309576E-06 -0.99804556
vn 0.0624908 -1.6309576E-06 -0.99804556
vn 0.062489904 0 -0.9980456
vn -0.097558536 1.4320686E-06 0.99522984
vn -0.097557805 -2.82796E-06 0.9952299
vn -0.097557805 -2.82796E-06 0.9952299
vn -0.097557075 -7.0879887E-06 0.99522996
vn -0.0787058 -7.0594187E-06 0.9968979
vn -0.081466235 0.041527323 0.99493825
vn -0.081466235 0.041527323 0.99493825
vn -0.08422667 0.0830617 0.9929787
vn 0.09276262 -0.44220945 -0.89210194
vn 0.0679138 -0.3286406 -0.9338751
vn 0.0679138 -0.3286406 -0.9338751
vn 0.04306498 -0.21507177 -0.9756483
vn -0.0077060824 -0.21218838 -0.9771984
vn -0.031215888 -0.10609567 -0.98784995
vn -0.031215888 -0.10609567 -0.98784995
vn -0.05472569 -2.9643531E-06 -0.9985014
vn -0.7229879 0.67444235 0.14971976
vn -0.8394297 0.19799991 0.028010406
vn -0.8394297 0.19799991 0.028010406
vn -0.95587146 -0.27844253 -0.09369895
vn -0.815908 0.17261964 0.111671604
vn -0.88793474 -0.31339103 0.33668685
vn -0.815908 0.17261964 0.111671604
vn -0.7438813 0.6586303 -0.11334364
vn 0.99541533 -1.4493905E-07 -0.09564731
vn 0.99541533 0 -0.09564724
vn 0.99541533 -1.4493905E-07 -0.09564731
vn 0.9954153 -2.898781E-07 -0.09564739
vn 0.80857587 -9.571082E-07 0.58839196
vn 0.80857563 -3.3734935E-07 0.58839226
vn 0.80857587 -9.571082E-07 0.58839196
vn 0.80857605 -1.5768671E-06 0.58839166
vn -0 1 0
vn -0 1 0
vn -0 1 0
vn -0 1 0
vn -0 1 0
vn -0 1 0
vn -0.084876165 -0.98371226 0.015390795
vn 0.0048745316 -0.9894293 0.14493416
vn -0.084876165 -0.98371226 0.015390795
vn -0.17462686 -0.9779952 -0.11415257
vn -0.04429875 -0.96895236 0.23981494
vn -0.073997214 -0.9743569 0.21249245
vn -0.04429875 -0.96895236 0.23981494
vn -0.014600286 -0.9635478 0.26713744
vn -0.008705989 0.9999563 -0.0012339561
vn -0.010250404 0.99993944 -0.004013664
vn -0.008705989 0.9999563 -0.0012339561
vn -0.007161575 0.9999732 0.001545752
vn -0.008106826 0.99989015 -0.012411905
vn -0.0056728516 0.9999423 -0.005856413
vn -0.0056728516 0.9999423 -0.005856413
vn -0.0032388773 0.9999945 0.00069907977
vn -0 1 0
vn -0 1 0
vn -0 1 0
vn -0.0065239123 -0.9644149 0.26431292
vn -0.0466002 -0.97446966 0.20831248
vn -0.0466002 -0.97446966 0.20831248
vn -0.086676486 -0.98452437 0.15231203
vn -0.092293136 -0.99158454 -0.090785936
vn -0.063518606 -0.9953814 -0.034957692
vn -0.063518606 -0.9953814 -0.034957692
vn -0.03474408 -0.9991783 0.020870548
vn -0.020371823 -0.9399812 0.29834118
vn -0.07608344 -0.98566014 0.15061672
vn -0.020371823 -0.9399812 0.29834118
vn 0.03533979 -0.8943023 0.44606563
vn 0.02056131 -0.99978375 0.0031247726
vn 0.014935862 -0.99978423 -0.007709989
vn 0.014935862 -0.99978423 -0.007709989
vn 0.009310414 -0.9997847 -0.01854475
g pb_Mesh99618_0
f 3/3/3 2/2/2 1/1/1
f 4/4/4 3/3/3 1/1/1
f 7/7/7 6/6/6 5/5/5
f 7/7/7 8/8/8 6/6/6
f 11/11/11 10/10/10 9/9/9
f 12/12/12 10/10/10 11/11/11
f 15/15/15 14/14/14 13/13/13
f 16/16/16 14/14/14 15/15/15
f 19/19/19 18/18/18 17/17/17
f 20/20/20 18/18/18 19/19/19
f 23/23/23 22/22/22 21/21/21
f 23/23/23 24/24/24 22/22/22
f 27/27/27 26/26/26 25/25/25
f 27/27/27 28/28/28 26/26/26
f 31/31/31 30/30/30 29/29/29
f 32/32/32 31/31/31 29/29/29
f 35/35/35 34/34/34 33/33/33
f 36/36/36 35/35/35 33/33/33
f 39/39/39 38/38/38 37/37/37
f 40/40/40 39/39/39 37/37/37
f 43/43/43 42/42/42 41/41/41
f 42/42/42 44/44/44 41/41/41
f 42/42/42 45/45/45 44/44/44
f 45/45/45 46/46/46 44/44/44
f 49/49/49 48/48/48 47/47/47
f 49/49/49 47/47/47 50/50/50
f 53/53/53 52/52/52 51/51/51
f 53/53/53 51/51/51 54/54/54
f 57/57/57 56/56/56 55/55/55
f 58/58/58 57/57/57 55/55/55
f 61/61/61 60/60/60 59/59/59
f 61/61/61 62/62/62 60/60/60
f 64/64/64 43/43/43 63/63/63
f 42/42/42 43/43/43 64/64/64
f 65/65/65 42/42/42 64/64/64
f 45/45/45 42/42/42 65/65/65
f 68/68/68 67/67/67 66/66/66
f 69/69/69 67/67/67 68/68/68
f 72/72/72 71/71/71 70/70/70
f 73/73/73 71/71/71 72/72/72
f 76/76/76 75/75/75 74/74/74
f 77/77/77 76/76/76 74/74/74
f 80/80/80 79/79/79 78/78/78
f 80/80/80 81/81/81 79/79/79
