g pb_Mesh103486
v -2 0 0
v -8 0 0
v -2 1 0
v -8 1 0
v -8 0 0
v -8 0 -2
v -8 1 0
v -8 3 -2
v -8 0 -4
v -0 0 -4
v -8 5 -4
v -0 5 -4
v -0 0 -2
v -2 0 0
v -0 3 -2
v -2 1 0
v -0 0 -2
v -8 0 -2
v -2 0 0
v -8 0 0
v -8 0 -4
v -0 0 -4
v -8 5 -4
v -8 0 -4
v -0 0 -2
v -0 3 -2
v -0 0 -4
v -0 5 -4
v -0 3 -2
v -8 3 -2
v -0 5 -4
v -8 5 -4
v -2 1 0
v -8 1 0
v -0 3 -2
v -8 3 -2
vt -2 0
vt -8 0
vt -2 1
vt -8 1
vt 0 0
vt -2 0
vt 0 1
vt -2 3
vt 8 0
vt 0 0
vt 8 5
vt 0 5
vt 1.4142135 0
vt -1.4142135 0
vt 1.4142135 3
vt -1.4142135 1
vt 0 -2
vt -8 -2
vt -2 0
vt -8 0
vt -8 -4
vt 0 -4
vt -4 5
vt -4 0
vt 2 0
vt 2 3
vt 4 0
vt 4 5
vt 0 3.5355341
vt -8 3.5355341
vt 0 6.363961
vt -8 6.363961
vt -2 0.70710677
vt -8 0.70710677
vt 0 3.535534
vt -8 3.535534
vn -0 0 1
vn -0 0 1
vn -0 0 1
vn -0 0 1
vn -1 0 0
vn -1 0 0
vn -1 0 0
vn -1 0 0
vn -0 0 -1
vn -0 0 -1
vn -0 0 -1
vn -0 0 -1
vn 0.70710677 0 0.70710677
vn 0.70710677 0 0.70710677
vn 0.70710677 0 0.70710677
vn 0.70710677 0 0.70710677
vn -0 -1 0
vn -0 -1 0
vn -0 -1 0
vn -0 -1 0
vn -0 -1 0
vn -0 -1 0
vn -1 0 0
vn -1 0 0
vn 1 0 0
vn 1 0 0
vn 1 0 0
vn 1 0 0
vn -0 0.70710677 0.70710677
vn -0 0.70710677 0.70710677
vn -0 0.70710677 0.70710677
vn -0 0.70710677 0.70710677
vn -0 0.70710677 0.70710677
vn -0 0.70710677 0.70710677
vn -0 0.70710677 0.70710677
vn -0 0.70710677 0.70710677
g pb_Mesh103486_0
f 3/3/3 2/2/2 1/1/1
f 3/3/3 4/4/4 2/2/2
f 7/7/7 6/6/6 5/5/5
f 7/7/7 8/8/8 6/6/6
f 11/11/11 10/10/10 9/9/9
f 11/11/11 12/12/12 10/10/10
f 15/15/15 14/14/14 13/13/13
f 15/15/15 16/16/16 14/14/14
f 19/19/19 18/18/18 17/17/17
f 19/19/19 20/20/20 18/18/18
f 21/21/21 17/17/17 18/18/18
f 21/21/21 22/22/22 17/17/17
f 23/23/23 6/6/6 8/8/8
f 23/23/23 24/24/24 6/6/6
f 27/27/27 26/26/26 25/25/25
f 27/27/27 28/28/28 26/26/26
f 31/31/31 30/30/30 29/29/29
f 31/31/31 32/32/32 30/30/30
g pb_Mesh103486_1
f 35/35/35 34/34/34 33/33/33
f 35/35/35 36/36/36 34/34/34
