g pb_Mesh-433050
v -0.74999964 -3 0.24999985
v -0.99999964 -3 0.24999976
v -0.7499949 13 0.2499995
v -0.9999949 13 0.25000107
v -0.99999964 -3 0.24999976
v -0.9999995 -3 -2.3841858E-07
v -0.9999949 13 0.25000107
v -0.99999833 13 1.0728836E-06
v -0.9999995 -3 -2.3841858E-07
v -0.7499995 -3 -1.4901161E-07
v -0.99999833 13 1.0728836E-06
v -0.74999833 13 -5.066395E-07
v 1.0000005 -3 4.7683716E-07
v 1.0000004 -3 0.25000048
v 1.0000017 13 1.7881393E-06
v 1.0000051 13 0.2500018
v -0.7499949 13 0.2499995
v -0.9999949 13 0.25000107
v -0.74999833 13 -5.066395E-07
v -0.99999833 13 1.0728836E-06
v -0.7499995 -3 -1.4901161E-07
v -0.9999995 -3 -2.3841858E-07
v -0.74999964 -3 0.24999985
v -0.99999964 -3 0.24999976
v 0.7500005 -3 3.874302E-07
v 0.75000036 -3 0.2500004
v 1.0000005 -3 4.7683716E-07
v 1.0000004 -3 0.25000048
v 0.75000167 13 1.4603138E-06
v 0.7500005 -3 3.874302E-07
v 1.0000017 13 1.7881393E-06
v 1.0000005 -3 4.7683716E-07
v 0.75000036 -3 0.2500004
v 0.7500052 13 0.25000146
v 1.0000004 -3 0.25000048
v 1.0000051 13 0.2500018
v 0.7500052 13 0.25000146
v 0.75000167 13 1.4603138E-06
v 1.0000051 13 0.2500018
v 1.0000017 13 1.7881393E-06
v -0.74999964 -3 0.24999985
v -0.7499949 13 0.2499995
v -0.7499995 -3 -1.4901161E-07
v -0.74999833 13 -5.066395E-07
v 0.7500052 13 0.25000146
v 0.75000036 -3 0.2500004
v 0.75000167 13 1.4603138E-06
v 0.7500005 -3 3.874302E-07
v -0.7499996 -3 0.12499985
v -0.75000423 13 0.12499949
v 0.7500004 -3 0.12500039
v 0.74999577 13 0.12500146
vt -0.7499996 -3
vt -0.9999996 -3
vt -0.7499948 13
vt -0.99999475 13
vt -1.8749998 -3.0000002
vt -2.1249998 -3.0000002
vt -1.8749985 13
vt -2.1249986 13
vt 0.9999995 -3
vt 0.7499995 -3
vt 0.99999833 13
vt 0.74999833 13
vt 2.125 -3
vt 1.875 -3
vt 2.1249988 13
vt 1.8749987 13
vt 0.7499949 -1.8750005
vt 0.9999949 -1.8749989
vt 0.74999833 -2.1250005
vt 0.99999833 -2.124999
vt -0.7499995 -2.1250002
vt -0.9999995 -2.1250002
vt -0.74999964 -1.8750001
vt -0.99999964 -1.8750002
vt 0.7500005 -2.1249995
vt 0.75000036 -1.8749996
vt 1.0000005 -2.1249995
vt 1.0000004 -1.8749995
vt -0.75000167 13
vt -0.7500005 -3
vt -1.0000017 13
vt -1.0000005 -3
vt 0.7500005 -3
vt 0.7500053 13
vt 1.0000005 -3
vt 1.0000052 13
vt -0.7500052 -1.8749986
vt -0.75000167 -2.1249986
vt -1.0000051 -1.8749982
vt -1.0000017 -2.124998
vt 1.8749998 -3.0000002
vt 1.8750001 13
vt 2.1249998 -3.0000002
vt 2.1250002 13
vt -1.874988 13
vt -1.874989 -2.9999998
vt -2.124988 13
vt -2.124989 -2.9999998
vt -0.7499995 -3
vt -0.7500042 13
vt 0.7500005 -3
vt 0.7499958 13
vn -3.5762787E-07 2.2351848E-08 1
vn 2.9802322E-06 -2.980321E-08 1
vn 2.9802322E-06 -2.980321E-08 1
vn 6.3180923E-06 -8.195827E-08 1
vn -1 2.9802325E-07 -4.7683716E-07
vn -1 1.8626396E-07 6.67572E-06
vn -1 1.8626396E-07 6.67572E-06
vn -1 7.450467E-08 1.3828278E-05
vn 3.5762787E-07 8.195636E-08 -1
vn -2.9802322E-06 2.9802543E-08 -1
vn -2.9802322E-06 2.9802543E-08 -1
vn -6.3180923E-06 -2.2351271E-08 -1
vn 1 -7.450585E-08 4.7683716E-07
vn 1 -1.8626397E-07 -6.67572E-06
vn 1 -1.8626397E-07 -6.67572E-06
vn 1 -2.980221E-07 -1.3828278E-05
vn -0 1 0
vn -0 1 0
vn -0 1 0
vn -0 1 0
vn -0 -1 0
vn -0 -1 0
vn -0 -1 0
vn -0 -1 0
vn -0 -1 0
vn -0 -1 0
vn -0 -1 0
vn -0 -1 0
vn 1.3113022E-06 6.7055126E-08 -1
vn 8.34465E-07 7.450574E-08 -1
vn 8.34465E-07 7.450574E-08 -1
vn 3.5762787E-07 8.195636E-08 -1
vn -3.5762787E-07 -6.705512E-08 1
vn -8.344652E-07 -7.450556E-08 1
vn -8.344652E-07 -7.450556E-08 1
vn -1.3113025E-06 -8.1955996E-08 1
vn -0 1 0
vn -0 1 0
vn -0 1 0
vn -0 1 0
vn 1 -2.9802322E-07 4.7683716E-07
vn 1 -1.8626467E-07 -6.67572E-06
vn 1 -1.8626467E-07 -6.67572E-06
vn 1 -7.450612E-08 -1.3828278E-05
vn -1 3.0174758E-07 1.4066696E-05
vn -1 1.881267E-07 6.7949295E-06
vn -1 1.881267E-07 6.7949295E-06
vn -1 7.4505834E-08 -4.7683716E-07
vn -3.5762787E-07 2.2351637E-08 1
vn -8.34465E-07 -2.2351983E-08 1
vn -8.34465E-07 -2.2351983E-08 1
vn -1.3113022E-06 -6.70556E-08 1
g pb_Mesh-433050_0
f 3/3/3 2/2/2 1/1/1
f 3/3/3 4/4/4 2/2/2
f 7/7/7 6/6/6 5/5/5
f 7/7/7 8/8/8 6/6/6
f 11/11/11 10/10/10 9/9/9
f 11/11/11 12/12/12 10/10/10
f 15/15/15 14/14/14 13/13/13
f 15/15/15 16/16/16 14/14/14
f 19/19/19 18/18/18 17/17/17
f 19/19/19 20/20/20 18/18/18
f 23/23/23 22/22/22 21/21/21
f 23/23/23 24/24/24 22/22/22
f 27/27/27 26/26/26 25/25/25
f 27/27/27 28/28/28 26/26/26
f 31/31/31 30/30/30 29/29/29
f 31/31/31 32/32/32 30/30/30
f 35/35/35 34/34/34 33/33/33
f 35/35/35 36/36/36 34/34/34
f 39/39/39 38/38/38 37/37/37
f 39/39/39 40/40/40 38/38/38
f 43/43/43 42/42/42 41/41/41
f 43/43/43 44/44/44 42/42/42
f 47/47/47 46/46/46 45/45/45
f 47/47/47 48/48/48 46/46/46
g pb_Mesh-433050_1
f 51/51/51 50/50/50 49/49/49
f 51/51/51 52/52/52 50/50/50
