g pb_Mesh86224
v 3.999837 0.5 4.999781
v -7.484365 0.5 4.5912127
v 3.999837 1 4.999781
v -7.484365 1 4.5912127
v -7.7550163 0.5 -9.483164
v 4 0.5 -9
v -7.7550163 1 -9.483164
v 4 1 -9
v -7.484365 0.5 4.5912127
v -7.393773 0.5 -1.3837347
v -7.393773 1 -1.3837347
v -7.484365 1 4.5912127
v -7.393773 0.5 -1.3837347
v -7.7550163 0.5 -9.483164
v -7.7550163 1 -9.483164
v -7.393773 1 -1.3837347
v 4 1 -9
v 3.9999738 0.5 -1.00022
v 3.9999738 1 -1.00022
v 4 0.5 -9
v 3.999837 0.5 4.999781
v 3.999837 1 4.999781
v -7.393773 1 -1.3837347
v 3.9999738 1 -1.00022
v 3.999837 1 4.999781
v -7.484365 1 4.5912127
v -7.7550163 1 -9.483164
v 4 1 -9
v 3.9999738 0.5 -1.00022
v -7.7550163 0.5 -9.483164
v -7.393773 0.5 -1.3837347
v 4 0.5 -9
v 3.999837 0.5 4.999781
v -7.484365 0.5 4.5912127
vt 4.175071 0.5
vt -7.3163967 0.5
vt 4.175071 1
vt -7.3163967 1
vt 8.137929 0.5
vt -3.6270125 0.5
vt 8.137929 1
vt -3.6270125 1
vt 4.48066 0.5
vt -1.4923093 0.5
vt -1.4923093 1
vt 4.48066 1
vt -1.4923093 0.5
vt -9.596175 0.5
vt -9.596175 1
vt -1.4923093 1
vt 9.000052 1
vt 1.0002722 0.5
vt 1.0002722 1
vt 9.000052 0.5
vt -4.999729 0.5
vt -4.999729 1
vt 7.393773 -1.3837347
vt -3.9999738 -1.00022
vt -3.999837 4.999781
vt 7.484365 4.5912127
vt 7.7550163 -9.483164
vt -4 -9
vt 3.9999738 -1.00022
vt -7.7550163 -9.483164
vt -7.393773 -1.3837347
vt 4 -9
vt 3.999837 4.999781
vt -7.484365 4.5912127
vn -0.035554066 0 0.9993678
vn -0.035554066 0 0.9993678
vn -0.035554066 0 0.9993678
vn -0.035554066 0 0.9993678
vn 0.041068103 0 -0.99915636
vn 0.041068103 0 -0.99915636
vn 0.041068103 0 -0.99915636
vn 0.041068103 0 -0.99915636
vn -0.9998851 0 -0.015160217
vn -0.9998851 0 -0.015160217
vn -0.9998851 0 -0.015160217
vn -0.9998851 0 -0.015160217
vn -0.99900687 0 0.04455678
vn -0.99900687 0 0.04455678
vn -0.99900687 0 0.04455678
vn -0.99900687 0 0.04455678
vn 1 0 3.2783455E-06
vn 1 0 3.2783455E-06
vn 1 0 3.2783455E-06
vn 1 0 3.2783455E-06
vn 1 0 2.2808706E-05
vn 1 0 2.2808706E-05
vn -0 1 0
vn -0 1 0
vn -0 1 0
vn -0 1 0
vn -0 1 0
vn -0 1 0
vn -0 -1 0
vn -0 -1 0
vn -0 -1 0
vn -0 -1 0
vn -0 -1 0
vn -0 -1 0
g pb_Mesh86224_0
f 3/3/3 2/2/2 1/1/1
f 3/3/3 4/4/4 2/2/2
f 7/7/7 6/6/6 5/5/5
f 7/7/7 8/8/8 6/6/6
f 11/11/11 10/10/10 9/9/9
f 11/11/11 9/9/9 12/12/12
f 15/15/15 14/14/14 13/13/13
f 15/15/15 13/13/13 16/16/16
f 19/19/19 18/18/18 17/17/17
f 18/18/18 20/20/20 17/17/17
f 22/22/22 21/21/21 19/19/19
f 21/21/21 18/18/18 19/19/19
f 25/25/25 24/24/24 23/23/23
f 25/25/25 23/23/23 26/26/26
f 24/24/24 28/28/28 27/27/27
f 24/24/24 27/27/27 23/23/23
f 31/31/31 30/30/30 29/29/29
f 30/30/30 32/32/32 29/29/29
f 34/34/34 31/31/31 33/33/33
f 31/31/31 29/29/29 33/33/33
