g pb_Mesh103084
v 41 77.3 36.5
v -45 77.3 36.5
v 41 77.3 -0.5
v -45 77.3 -0.5
v 41 9.990997 36.5
v -45 9.990997 36.5
v 41 77.3 36.5
v -45 77.3 36.5
v 41 9.990997 -0.5
v 41 9.990997 36.5
v 41 77.3 -0.5
v 41 77.3 36.5
v -45 9.990997 36.5
v -45 9.990997 -0.5
v -45 77.3 36.5
v -45 77.3 -0.5
v -45 9.990997 -0.5
v 41 9.990997 -0.5
v -45 77.3 -0.5
v 41 77.3 -0.5
vt -41 36.5
vt 45 36.5
vt -41 -0.5
vt 45 -0.5
vt 41 9.990997
vt -45 9.990997
vt 41 77.3
vt -45 77.3
vt 0.5 9.990997
vt -36.5 9.990997
vt 0.5 77.3
vt -36.5 77.3
vt 36.5 9.990997
vt -0.5 9.990997
vt 36.5 77.3
vt -0.5 77.3
vt 45 9.990997
vt -41 9.990997
vt 45 77.3
vt -41 77.3
vn -0 1 0
vn -0 1 0
vn -0 1 0
vn -0 1 0
vn -0 0 1
vn -0 0 1
vn -0 0 1
vn -0 0 1
vn 1 0 0
vn 1 0 0
vn 1 0 0
vn 1 0 0
vn -1 0 0
vn -1 0 0
vn -1 0 0
vn -1 0 0
vn -0 0 -1
vn -0 0 -1
vn -0 0 -1
vn -0 0 -1
g pb_Mesh103084_0
f 3/3/3 2/2/2 1/1/1
f 3/3/3 4/4/4 2/2/2
f 7/7/7 6/6/6 5/5/5
f 7/7/7 8/8/8 6/6/6
f 11/11/11 10/10/10 9/9/9
f 11/11/11 12/12/12 10/10/10
f 15/15/15 14/14/14 13/13/13
f 15/15/15 16/16/16 14/14/14
f 19/19/19 18/18/18 17/17/17
f 19/19/19 20/20/20 18/18/18
