g pb_Mesh99730
v -11.8642 6 9.178277
v -13.932085 6 4.649922
v -11.879132 22 8.178396
v -13.932076 22 4.6499248
v -13.99933 6 0.1494181
v -13.932076 22 4.6499248
v -13.932085 6 4.649922
v -13.99933 22 0.1494181
v -3.999999 22 0.059771292
v -3.9999955 6 4.56027
v -3.9999876 22 4.5602775
v -4.984501 6 1.0745893
v -4.8350935 22 11.073473
v -3.9999876 22 4.5602775
v -3.9999955 6 4.56027
v -3.999992 6 9.060772
v -3.9999993 -2 4.56027
v -1.9322158 -2 4.5293756
v -4.000003 -2 0.059767533
v -1.0447075 -2 -2.9847245
v -1.8204956 -2 12.028543
v -3.9999957 -2 9.060772
v -17.834148 -2 11.284156
v -13.86484 -2 9.150426
v -17.93823 -2 4.2684746
v -13.932084 -2 4.649921
v -13.99933 -2 0.1494181
v -17.05832 -2 -3.7761097
v -3.999992 6 9.060772
v -8.932416 6 9.105598
v -4.8350935 22 11.073473
v -8.932406 22 9.105603
v -8.932416 6 9.105598
v -11.8642 6 9.178277
v -11.879132 22 8.178396
v -8.932406 22 9.105603
v -8.999655 22 0.10459456
v -4.984501 6 1.0745893
v -3.999999 22 0.059771292
v -8.999664 6 0.104592785
v -8.999655 22 0.10459456
v -13.99933 22 0.1494181
v -13.99933 6 0.1494181
v -8.999664 6 0.104592785
v -8.999666 -2 0.10459473
v -9.103575 -2 -6.864758
v -8.818956 -2 12.136386
v -8.932418 -2 9.1056
v -8.966043 -2 4.6050963
v -17.834276 4 11.274296
v -17.93823 4 4.2684746
v -17.834408 5.9983854 11.264434
v -17.93823 6 4.2684746
v -17.834148 -2 11.284156
v -17.93823 -2 4.2684746
v -17.93823 -2 4.2684746
v -17.05832 -2 -3.7761097
v -17.05832 4 -3.7761097
v -17.93823 4 4.2684746
v -17.05832 6 -3.7761097
v -17.93823 6 4.2684746
v -1.0447075 6 -2.9847245
v -1.0447075 4 -2.9847245
v -1.9322168 5.999999 4.5293746
v -1.9322158 4 4.5293756
v -1.0447075 -2 -2.9847245
v -1.9322158 -2 4.5293756
v -1.9322168 5.999999 4.5293746
v -1.8204956 4 12.028543
v -1.8204956 6 12.028542
v -1.9322158 4 4.5293756
v -1.8204956 -2 12.028543
v -1.9322158 -2 4.5293756
v -1.7597991 0 16.028084
v -1.7597991 -2 16.028084
v -8.86807 -2 16.134293
v -8.868424 0 16.134298
v -1.8204956 6 12.028542
v -1.8204956 4 12.028543
v -8.819335 4 12.134753
v -8.819715 6 12.1331215
v -8.819335 4 12.134753
v -17.834276 4 11.274296
v -8.819715 6 12.1331215
v -17.834408 5.9983854 11.264434
v -8.86807 -2 16.134293
v -17.992563 -2 15.270516
v -18.007483 0 14.270628
v -8.868424 0 16.134298
v -9.103575 6 -6.864758
v -1.0447075 4 -2.9847245
v -1.0447075 6 -2.9847245
v -9.103575 4 -6.864758
v -1.0447075 -2 -2.9847245
v -9.103575 -2 -6.864758
v -17.05832 6 -3.7761097
v -9.103575 4 -6.864758
v -9.103575 6 -6.864758
v -17.05832 4 -3.7761097
v -9.103575 -2 -6.864758
v -17.05832 -2 -3.7761097
v -8.86807 -2 16.134293
v -17.992563 -2 15.270516
v -17.834148 -2 11.284156
v -17.834276 4 11.274296
v -17.992563 -2 15.270516
v -18.007483 0 14.270628
v -17.834276 4 11.274296
v -8.819335 4 12.134753
v -18.007483 0 14.270628
v -8.868424 0 16.134298
v -8.819335 4 12.134753
v -1.8204956 4 12.028543
v -8.868424 0 16.134298
v -1.7597991 0 16.028084
v -1.8204956 4 12.028543
v -1.8204956 -2 12.028543
v -1.7597991 0 16.028084
v -1.7597991 -2 16.028084
v -1.7597991 -2 16.028084
v -3.9999955 6 4.56027
v -1.9322168 5.999999 4.5293746
v -3.999992 6 9.060772
v -1.8204956 6 12.028542
v -4.984501 6 1.0745893
v -1.0447075 6 -2.9847245
v -17.05832 6 -3.7761097
v -13.99933 6 0.1494181
v -17.93823 6 4.2684746
v -13.932085 6 4.649922
v -17.93823 6 4.2684746
v -11.8642 6 9.178277
v -17.834408 5.9983854 11.264434
v -9.103575 6 -6.864758
v -8.999664 6 0.104592785
v -17.834408 5.9983854 11.264434
v -11.8642 6 9.178277
v -8.819715 6 12.1331215
v -8.932416 6 9.105598
v -8.819715 6 12.1331215
v -3.999992 6 9.060772
v -1.8204956 6 12.028542
v -8.966032 22 4.605102
v -11.879132 22 8.178396
v -13.932076 22 4.6499248
v -8.932406 22 9.105603
v -3.9999876 22 4.5602775
v -4.8350935 22 11.073473
v -8.999655 22 0.10459456
v -13.99933 22 0.1494181
v -3.999999 22 0.059771292
vt 6.345881 5.825192
vt 1.4737316 5.8120856
vt 5.367173 21.82651
vt 1.4737363 21.81077
vt -2.9314797 5.823932
vt 1.4737363 21.81077
vt 1.4737316 5.8120856
vt -2.9314797 21.822617
vt -0.31451544 21.999998
vt -4.805869 5.999998
vt -4.8058763 21.999998
vt -1.3900002 5.9999976
vt -11.359047 21.999998
vt -4.8058763 21.999998
vt -4.805869 5.999998
vt -9.297226 5.999998
vt -3.9999993 4.56027
vt -1.9322158 4.5293756
vt -4.000003 0.059767533
vt -1.0447075 -2.9847245
vt -1.8204956 12.028543
vt -3.9999957 9.060772
vt -17.834148 11.284156
vt -13.86484 9.150426
vt -17.93823 4.2684746
vt -13.932084 4.649921
vt -13.99933 0.1494181
vt -17.05832 -3.7761097
vt -4.1530733 6.276918
vt -9.085548 6.2757096
vt -5.022187 22.331354
vt -9.085539 22.26796
vt -9.085548 6.2757096
vt -12.018143 6.276424
vt -12.016117 22.237555
vt -9.085539 22.26796
vt 9.000231 21.988409
vt 4.993934 5.964717
vt 4.000374 21.988409
vt 9.00024 5.996293
vt 9.000231 21.988409
vt 14.000106 21.988409
vt 14.000106 5.996293
vt 9.00024 5.996293
vt -8.999666 0.10459473
vt -9.103575 -6.864758
vt -8.818956 12.136386
vt -8.932418 9.1056
vt -8.966043 4.6050963
vt 12.100701 3.9999547
vt 5.1075253 3.9999535
vt 12.090857 5.99834
vt 5.1075253 5.9999537
vt 12.110545 -2.0000453
vt 5.1075253 -2.0000465
vt 5.1075253 -2.0000465
vt -2.9695435 -2.000045
vt -2.9695435 3.999955
vt 5.1075253 3.9999535
vt -2.9695435 5.9999547
vt 5.1075253 5.9999537
vt 2.9271853 6
vt 2.9271853 4
vt -4.6225557 5.999999
vt -4.622556 4
vt 2.9271853 -2
vt -4.622556 -2
vt -4.6225557 5.999999
vt -12.1061125 4
vt -12.106111 6
vt -4.622556 4
vt -12.1061125 -2
vt -4.622556 -2
vt -1.999061 0
vt -1.999061 -2
vt -9.108125 -2
vt -9.1084795 0
vt -1.338114 5.9951854
vt -1.3381139 3.9951854
vt -8.32711 3.9950318
vt -8.327555 5.9950323
vt -8.32711 3.9950318
vt -17.369246 3.9952304
vt -8.327555 5.9950323
vt -17.369772 5.99362
vt -7.3080335 -9.311967
vt -16.47332 -9.311967
vt -16.582407 -7.0785613
vt -7.3083863 -7.520997
vt 9.365438 6
vt 1.1607981 4
vt 1.1607981 6
vt 9.365438 4
vt 1.1607981 -2
vt 9.365438 -2
vt 17.193117 6
vt 9.365438 4
vt 9.365438 6
vt 17.193117 4
vt 9.365438 -2
vt 17.193117 -2
vt -8.86807 16.134293
vt -17.992563 15.270516
vt 11.983412 -1.9984967
vt 11.973565 4.0015035
vt 15.972919 -1.9984967
vt 14.974412 0.001508021
vt -16.68235 -4.549137
vt -7.626437 -4.5491366
vt -16.570072 -9.5486765
vt -7.2952833 -10.140709
vt -9.002448 -5.654177
vt -2.0028024 -5.654177
vt -9.112219 -11.309857
vt -2.0028002 -11.311032
vt -11.999534 4
vt -11.999534 -2
vt -15.999535 0
vt -15.999535 -2
vt -1.7597991 16.028084
vt 3.9999974 4.5602694
vt 1.9322186 4.529374
vt 3.9999938 9.060772
vt 1.8204974 12.028542
vt 4.984503 1.0745888
vt 1.0447093 -2.984725
vt 17.05832 -3.7761097
vt 13.99933 0.1494181
vt 17.93823 4.2684746
vt 13.932085 4.649922
vt 17.93823 4.2684746
vt 11.8642 9.178277
vt 17.834408 11.264434
vt 9.103575 -6.864758
vt 8.999664 0.104592785
vt 17.83381 11.263819
vt 11.863603 9.177662
vt 8.819118 12.132506
vt 8.931819 9.104983
vt 8.819118 12.132506
vt 3.9993954 9.060157
vt 1.8198991 12.027926
vt 8.966032 4.605102
vt 11.879132 8.178396
vt 13.932076 4.6499248
vt 8.932406 9.105603
vt 3.9999876 4.5602775
vt 4.8350935 11.073473
vt 8.999655 0.10459456
vt 13.99933 0.1494181
vt 3.999999 0.059771292
vn -0.9093564 0.025101963 0.41526002
vn -0.88685155 0.012551169 0.4590782
vn -0.88685155 0.012551169 0.4590782
vn -0.8643467 3.7374681E-07 0.50289637
vn -0.9998884 2.6685527E-07 0.0149408365
vn -0.9998884 2.6685527E-07 0.0149408365
vn -0.9998884 5.3371053E-07 0.014939888
vn -0.99988836 0 0.014941785
vn 0.9797754 -0.038116302 -0.13551039
vn 0.9797754 -0.038116302 -0.13551039
vn 1 -4.917371E-07 -2.5428453E-06
vn 0.95955086 -0.07623211 -0.27101824
vn 0.99526036 0.026061228 0.063587815
vn 0.9918801 -5.483879E-07 0.12717642
vn 0.99526036 0.026061228 0.063587815
vn 0.99864066 0.052123003 -7.9355976E-07
vn -0 -1 0
vn -0 -1 0
vn -0 -1 0
vn -0 -1 0
vn -0 -1 0
vn -0 -1 0
vn -0 -1 0
vn -0 -1 0
vn -0 -1 0
vn -0 -1 0
vn -0 -1 0
vn -0 -1 0
vn 0.009017228 -0.124341786 0.99219847
vn -0.21196058 -0.062170897 0.94681096
vn -0.21196058 -0.062170897 0.94681096
vn -0.4329384 -1.0593751E-08 0.9014235
vn -0.13770732 0.031187344 0.97581935
vn 0.02473401 0.062374793 0.9977463
vn -0.13770732 0.031187344 0.97581935
vn -0.30014867 -1.0537958E-07 0.95389247
vn 0.11294033 -0.03137404 -0.9850131
vn 0.11294033 -0.03137404 -0.9850131
vn -0.008947244 -0.06274805 -0.9979893
vn 0.23482789 -3.2240017E-08 -0.97203696
vn -0.008965118 5.8083337E-08 -0.9999598
vn -0.008964932 0 -0.9999598
vn -0.008965118 5.8083337E-08 -0.9999598
vn -0.008965303 1.16166675E-07 -0.9999598
vn -0 -1 0
vn -0 -1 0
vn -0 -1 0
vn -0 -1 0
vn -0 -1 0
vn -0.9998899 7.3687543E-06 0.014836644
vn -0.9998899 3.6843771E-06 0.014837696
vn -0.9998899 3.6843771E-06 0.014837696
vn -0.9998899 0 0.014838749
vn -0.99988997 3.080929E-06 0.014834006
vn -0.99988997 1.5404645E-06 0.014835325
vn -0.99407125 0 -0.10873087
vn -0.99407125 0 -0.10873087
vn -0.99407125 0 -0.10873087
vn -0.99407125 0 -0.10873087
vn -0.99407125 0 -0.10873087
vn -0.99407125 0 -0.10873087
vn 0.9930969 0 0.11729718
vn 0.9930969 2.6473867E-07 0.11729711
vn 0.9930969 2.6473867E-07 0.11729711
vn 0.9930969 5.2947735E-07 0.117297046
vn 0.9930969 0 0.11729703
vn 0.9930969 0 0.11729703
vn 0.9998891 2.277377E-07 -0.014896091
vn 0.9998891 2.277377E-07 -0.014896091
vn 0.9998891 -1.4206082E-08 -0.014896156
vn 0.9998891 4.6968148E-07 -0.014896027
vn 0.9998891 0 -0.014896028
vn 0.9998891 0 -0.014896028
vn 0.014939943 -1.0530008E-07 0.9998884
vn 0.014939914 0 0.9998884
vn 0.014939943 -1.0530008E-07 0.9998884
vn 0.014939972 -2.1060016E-07 0.9998884
vn 0.015056788 0.00040978295 0.9998865
vn 0.015173592 9.5356455E-07 0.9998849
vn 0.015056788 0.00040978295 0.9998865
vn 0.014939984 0.00081861235 0.99988806
vn -0.09501606 0.0007941447 0.9954754
vn -0.09546749 0.0028499856 0.99542624
vn -0.09546749 0.0028499856 0.99542624
vn -0.09591892 0.0049058264 0.99537706
vn -0.1421033 0.22251818 0.9356711
vn -0.08439516 0.4450746 0.89150774
vn -0.1421033 0.22251818 0.9356711
vn -0.19981143 -3.8246562E-05 0.9798344
vn 0.43380094 0 -0.9010088
vn 0.43380094 0 -0.9010088
vn 0.43380094 0 -0.9010088
vn 0.43380094 0 -0.9010088
vn 0.43380094 0 -0.9010088
vn 0.43380094 0 -0.9010088
vn -0.36195117 0 -0.9321971
vn -0.36195117 0 -0.9321971
vn -0.36195117 0 -0.9321971
vn -0.36195117 0 -0.9321971
vn -0.36195117 0 -0.9321971
vn -0.36195117 0 -0.9321971
vn -0 -1 0
vn -0 -1 0
vn -0.9992113 -8.653546E-05 -0.039707873
vn -0.9867528 -0.053298995 -0.11910857
vn -0.9867528 -0.053298995 -0.11910857
vn -0.9742943 -0.10651145 -0.19850928
vn -0.07601987 0.59990185 0.79645383
vn -0.10928633 0.65031075 0.74775183
vn -0.10928633 0.65031075 0.74775183
vn -0.1425528 0.7007197 0.6990498
vn 0.010731577 0.70696 0.70717216
vn 0.010647866 0.70703346 0.7071
vn 0.010647866 0.70703346 0.7071
vn 0.010564155 0.7071069 0.7070278
vn 0.99988484 0 -0.015174117
vn 0.99988484 0 -0.015174117
vn 0.99988484 0 -0.015174117
vn 0.99988484 0 -0.015174117
vn -0 -1 0
vn 4.6120718E-07 1 -3.6649365E-13
vn 3.1897906E-07 1 -6.490214E-08
vn 3.1897906E-07 1 -6.490214E-08
vn 1.7675097E-07 1 -1.2980391E-07
vn 3.0407807E-07 1 7.3930977E-09
vn 1.4888718E-07 1 1.4450342E-07
vn -0 1 0
vn -0 1 0
vn -0 1 0
vn -0 1 0
vn -9.4407835E-05 1 0.00011679412
vn -9.4407835E-05 1 0.00011679412
vn -0.00018881567 1 0.00023358825
vn -0 1 0
vn -0 1 0
vn -0.00019884725 0.99999994 0.00020487965
vn -9.9423625E-05 1 0.00010243982
vn -9.9423625E-05 1 0.00010243982
vn -0 1 0
vn -0 1 0
vn -0 1 0
vn -0 1 0
vn -0 1 0
vn -0 1 0
vn -0 1 0
vn -0 1 0
vn -0 1 0
vn -0 1 0
vn -0 1 0
vn -0 1 0
vn -0 1 0
g pb_Mesh99730_0
f 3/3/3 2/2/2 1/1/1
f 4/4/4 2/2/2 3/3/3
f 7/7/7 6/6/6 5/5/5
f 6/6/6 8/8/8 5/5/5
f 11/11/11 10/10/10 9/9/9
f 10/10/10 12/12/12 9/9/9
f 15/15/15 14/14/14 13/13/13
f 16/16/16 15/15/15 13/13/13
f 19/19/19 18/18/18 17/17/17
f 19/19/19 20/20/20 18/18/18
f 22/22/22 18/18/18 21/21/21
f 17/17/17 18/18/18 22/22/22
f 25/25/25 24/24/24 23/23/23
f 25/25/25 26/26/26 24/24/24
f 25/25/25 27/27/27 26/26/26
f 28/28/28 27/27/27 25/25/25
f 31/31/31 30/30/30 29/29/29
f 31/31/31 32/32/32 30/30/30
f 35/35/35 34/34/34 33/33/33
f 35/35/35 33/33/33 36/36/36
f 39/39/39 38/38/38 37/37/37
f 38/38/38 40/40/40 37/37/37
f 43/43/43 42/42/42 41/41/41
f 44/44/44 43/43/43 41/41/41
f 27/27/27 46/46/46 45/45/45
f 28/28/28 46/46/46 27/27/27
f 46/46/46 20/20/20 19/19/19
f 46/46/46 19/19/19 45/45/45
f 47/47/47 22/22/22 21/21/21
f 47/47/47 48/48/48 22/22/22
f 24/24/24 48/48/48 47/47/47
f 23/23/23 24/24/24 47/47/47
f 45/45/45 49/49/49 26/26/26
f 45/45/45 26/26/26 27/27/27
f 45/45/45 17/17/17 49/49/49
f 45/45/45 19/19/19 17/17/17
f 49/49/49 48/48/48 24/24/24
f 49/49/49 24/24/24 26/26/26
f 49/49/49 22/22/22 48/48/48
f 49/49/49 17/17/17 22/22/22
f 52/52/52 51/51/51 50/50/50
f 53/53/53 51/51/51 52/52/52
f 50/50/50 55/55/55 54/54/54
f 51/51/51 55/55/55 50/50/50
f 58/58/58 57/57/57 56/56/56
f 58/58/58 56/56/56 59/59/59
f 60/60/60 58/58/58 59/59/59
f 60/60/60 59/59/59 61/61/61
f 64/64/64 63/63/63 62/62/62
f 64/64/64 65/65/65 63/63/63
f 65/65/65 66/66/66 63/63/63
f 65/65/65 67/67/67 66/66/66
f 70/70/70 69/69/69 68/68/68
f 69/69/69 71/71/71 68/68/68
f 69/69/69 72/72/72 71/71/71
f 72/72/72 73/73/73 71/71/71
f 76/76/76 75/75/75 74/74/74
f 77/77/77 76/76/76 74/74/74
f 80/80/80 79/79/79 78/78/78
f 81/81/81 80/80/80 78/78/78
f 84/84/84 83/83/83 82/82/82
f 85/85/85 83/83/83 84/84/84
f 88/88/88 87/87/87 86/86/86
f 89/89/89 88/88/88 86/86/86
f 92/92/92 91/91/91 90/90/90
f 91/91/91 93/93/93 90/90/90
f 91/91/91 94/94/94 93/93/93
f 94/94/94 95/95/95 93/93/93
f 98/98/98 97/97/97 96/96/96
f 97/97/97 99/99/99 96/96/96
f 97/97/97 100/100/100 99/99/99
f 100/100/100 101/101/101 99/99/99
f 102/102/102 23/23/23 47/47/47
f 102/102/102 103/103/103 23/23/23
f 106/106/106 105/105/105 104/104/104
f 106/106/106 107/107/107 105/105/105
f 110/110/110 109/109/109 108/108/108
f 110/110/110 111/111/111 109/109/109
f 114/114/114 113/113/113 112/112/112
f 114/114/114 115/115/115 113/113/113
f 118/118/118 117/117/117 116/116/116
f 118/118/118 119/119/119 117/117/117
f 120/120/120 47/47/47 21/21/21
f 120/120/120 102/102/102 47/47/47
g pb_Mesh99730_1
f 123/123/123 122/122/122 121/121/121
f 124/124/124 122/122/122 123/123/123
f 122/122/122 126/126/126 125/125/125
f 121/121/121 122/122/122 125/125/125
f 129/129/129 128/128/128 127/127/127
f 130/130/130 128/128/128 129/129/129
f 132/132/132 130/130/130 131/131/131
f 133/133/133 132/132/132 131/131/131
f 135/135/135 125/125/125 134/134/134
f 125/125/125 126/126/126 134/134/134
f 128/128/128 134/134/134 127/127/127
f 135/135/135 134/134/134 128/128/128
f 138/138/138 137/137/137 136/136/136
f 138/138/138 139/139/139 137/137/137
f 141/141/141 139/139/139 140/140/140
f 142/142/142 141/141/141 140/140/140
f 145/145/145 144/144/144 143/143/143
f 144/144/144 146/146/146 143/143/143
f 148/148/148 147/147/147 143/143/143
f 146/146/146 148/148/148 143/143/143
f 150/150/150 145/145/145 149/149/149
f 145/145/145 143/143/143 149/149/149
f 147/147/147 151/151/151 149/149/149
f 143/143/143 147/147/147 149/149/149
