g pb_Mesh-554544
v -0.74999964 -3 0.24999985
v -0.99999964 -3 0.24999976
v -0.74999905 5 0.25000122
v -0.99999905 5 0.24999976
v -0.99999964 -3 0.24999976
v -0.9999995 -3 -2.3841858E-07
v -0.99999905 5 0.24999976
v -0.9999995 5 7.151684E-07
v -0.9999995 -3 -2.3841858E-07
v -0.7499995 -3 -1.4901161E-07
v -0.9999995 5 7.151684E-07
v -0.7499995 5 2.6068392E-07
v 1.0000005 -3 4.7683716E-07
v 1.0000004 -3 0.25000048
v 1.0000005 5 1.847664E-06
v 1.000001 5 0.25000185
v -0.74999905 5 0.25000122
v -0.99999905 5 0.24999976
v -0.7499995 5 2.6068392E-07
v -0.9999995 5 7.151684E-07
v -0.7499995 -3 -1.4901161E-07
v -0.9999995 -3 -2.3841858E-07
v -0.74999964 -3 0.24999985
v -0.99999964 -3 0.24999976
v 0.7500005 -3 3.874302E-07
v 0.75000036 -3 0.2500004
v 1.0000005 -3 4.7683716E-07
v 1.0000004 -3 0.25000048
v 0.7500005 5 3.9479983E-07
v 0.7500005 -3 3.874302E-07
v 1.0000005 5 1.847664E-06
v 1.0000005 -3 4.7683716E-07
v 0.75000036 -3 0.2500004
v 0.75000095 5 0.2500004
v 1.0000004 -3 0.25000048
v 1.000001 5 0.25000185
v 0.75000095 5 0.2500004
v 0.7500005 5 3.9479983E-07
v 1.000001 5 0.25000185
v 1.0000005 5 1.847664E-06
v -0.74999964 -3 0.24999985
v -0.74999905 5 0.25000122
v -0.7499995 -3 -1.4901161E-07
v -0.7499995 5 2.6068392E-07
v 0.75000095 5 0.2500004
v 0.75000036 -3 0.2500004
v 0.7500005 5 3.9479983E-07
v 0.7500005 -3 3.874302E-07
v -0.7499996 -3 0.12499985
v -0.74999833 5 0.1250012
v 0.7500004 -3 0.12500039
v 0.75000167 5 0.12500039
vt -0.7499996 -3
vt -0.9999996 -3
vt -0.7499989 5
vt -0.999999 5
vt -1.8749998 -3
vt -2.1249998 -3
vt -1.8749998 5
vt -2.1249988 5
vt 0.9999995 -3
vt 0.7499995 -3
vt 0.9999995 5
vt 0.7499995 5
vt 2.125 -3
vt 1.875 -3
vt 2.1249986 5
vt 1.8749986 5
vt 0.74999905 -1.8749988
vt 0.99999905 -1.8750002
vt 0.7499995 -2.1249998
vt 0.9999995 -2.1249993
vt -0.7499995 -2.1250002
vt -0.9999995 -2.1250002
vt -0.74999964 -1.8750001
vt -0.99999964 -1.8750002
vt 0.7500005 -2.1249995
vt 0.75000036 -1.8749996
vt 1.0000005 -2.1249995
vt 1.0000004 -1.8749995
vt -0.7500005 5
vt -0.7500005 -3
vt -1.0000005 5
vt -1.0000005 -3
vt 0.7500005 -3
vt 0.7500011 5
vt 1.0000005 -3
vt 1.0000011 5
vt -0.75000095 -1.8749996
vt -0.7500005 -2.1249995
vt -1.000001 -1.8749981
vt -1.0000005 -2.124998
vt 1.8749998 -3
vt 1.8749985 5
vt 2.1249998 -3
vt 2.1249993 5
vt -1.8749982 5
vt -1.8749982 -3
vt -2.124998 5
vt -2.124998 -3
vt -0.7499995 -3
vt -0.7499983 5
vt 0.7500005 -3
vt 0.7500017 5
vn -3.5762787E-07 -1.7136333E-07 1
vn -3.0994415E-06 -8.568144E-08 1
vn -3.0994415E-06 -8.568144E-08 1
vn -5.841255E-06 4.3520743E-13 1
vn -1 7.4505806E-08 -4.7683716E-07
vn -1 3.725279E-08 7.152594E-07
vn -1 3.725279E-08 7.152594E-07
vn -1 -2.2735373E-13 1.907356E-06
vn 3.5762787E-07 1.19198376E-07 -1
vn -7.301551E-07 8.520516E-08 -1
vn -7.301551E-07 8.520516E-08 -1
vn -1.817938E-06 5.121194E-08 -1
vn 1 -8.1707644E-14 4.7683716E-07
vn 1 -3.725278E-08 -7.1525574E-07
vn 1 -3.725278E-08 -7.1525574E-07
vn 1 -7.450548E-08 -1.9073486E-06
vn -0 1 0
vn -0 1 0
vn -0 1 0
vn -0 1 0
vn -0 -1 0
vn -0 -1 0
vn -0 -1 0
vn -0 -1 0
vn -0 -1 0
vn -0 -1 0
vn -0 -1 0
vn -0 -1 0
vn 5.8114565E-06 9.2120445E-10 -1
vn 3.0845422E-06 8.613728E-08 -1
vn 3.0845422E-06 8.613728E-08 -1
vn 3.5762787E-07 1.7135335E-07 -1
vn -3.5762787E-07 2.6645353E-14 1
vn -3.0994415E-06 -8.568144E-08 1
vn -3.0994415E-06 -8.568144E-08 1
vn -5.841255E-06 -1.7136291E-07 1
vn -0 1 0
vn -0 1 0
vn -0 1 0
vn -0 1 0
vn 1 -7.450589E-08 4.7683716E-07
vn 1 -3.7252896E-08 -7.152521E-07
vn 1 -3.7252896E-08 -7.152521E-07
vn 1 9.9475604E-14 -1.9073414E-06
vn -1 7.4505806E-08 1.9073486E-06
vn -1 3.7252903E-08 7.1525574E-07
vn -1 3.7252903E-08 7.1525574E-07
vn -1 0 -4.7683716E-07
vn -3.5762787E-07 -1.6950065E-07 1
vn 9.437403E-08 -8.475037E-08 1
vn 9.437403E-08 -8.475037E-08 1
vn 5.4637593E-07 -8.141635E-14 1
g pb_Mesh-554544_0
f 3/3/3 2/2/2 1/1/1
f 3/3/3 4/4/4 2/2/2
f 7/7/7 6/6/6 5/5/5
f 7/7/7 8/8/8 6/6/6
f 11/11/11 10/10/10 9/9/9
f 11/11/11 12/12/12 10/10/10
f 15/15/15 14/14/14 13/13/13
f 15/15/15 16/16/16 14/14/14
f 19/19/19 18/18/18 17/17/17
f 19/19/19 20/20/20 18/18/18
f 23/23/23 22/22/22 21/21/21
f 23/23/23 24/24/24 22/22/22
f 27/27/27 26/26/26 25/25/25
f 27/27/27 28/28/28 26/26/26
f 31/31/31 30/30/30 29/29/29
f 31/31/31 32/32/32 30/30/30
f 35/35/35 34/34/34 33/33/33
f 35/35/35 36/36/36 34/34/34
f 39/39/39 38/38/38 37/37/37
f 39/39/39 40/40/40 38/38/38
f 43/43/43 42/42/42 41/41/41
f 43/43/43 44/44/44 42/42/42
f 47/47/47 46/46/46 45/45/45
f 47/47/47 48/48/48 46/46/46
g pb_Mesh-554544_1
f 51/51/51 50/50/50 49/49/49
f 51/51/51 52/52/52 50/50/50
