g pb_Mesh99276
v -6 0 6
v -9 0 6
v -9 10 5.9999967
v -5.999998 10 5.0000143
v -9 0 6
v -10.999997 0 6.0000167
v -11 10 5.0000014
v -9 10 5.9999967
v -11 10 1.0000015
v -9 0 1.0000157
v -9 10 5.066394E-07
v -11 0 1
v -9 10 5.066394E-07
v -7 0 1
v -7.0000005 10 0.9999995
v -9 0 1.0000157
v -10.999997 0 6.0000167
v -12 0 3
v -11 10 5.0000014
v -12 10 2.9999983
v -11 0 1
v -12 10 2.9999983
v -12 0 3
v -11 10 1.0000015
v -6.0000005 10 2.999999
v -7.0000005 10 0.9999995
v -7 0 1
v -6 0 3
v -6.0000005 10 2.999999
v -6 0 3
v -5.999998 10 5.0000143
v -6 0 6
v -9 10 5.066394E-07
v -7.0000005 10 0.9999995
v -6.0000005 10 2.999999
v -9 10 2.9999967
v -5.999998 10 5.0000143
v -9 10 5.9999967
v -11 10 1.0000015
v -12 10 2.9999983
v -11 10 5.0000014
v -6 0 3
v -9 0 1.0000157
v -9 0 3
v -7 0 1
v -6 0 6
v -9 0 6
v -11 0 1
v -12 0 3
v -10.999997 0 6.0000167
vt -6.000025 -0.2988865
vt -9.000025 -0.29888588
vt -9.000025 9.688699
vt -6.000019 9.738512
vt -9.000025 -0.29888588
vt -11.000022 -0.2988863
vt -11.000021 9.738514
vt -9.000025 9.688699
vt 10.998999 9.937188
vt 8.999 -0.050286498
vt 8.999995 9.987126
vt 10.998999 -0.05038496
vt 8.999995 9.987126
vt 6.999001 -0.050186466
vt 6.9990015 9.9373865
vt 8.999 -0.050286498
vt 6.7657967 -0.1804192
vt 3.8443422 -0.20112698
vt 5.768305 9.816903
vt 3.8443406 9.79741
vt 1.778396 -0.18649177
vt 3.8443406 9.79741
vt 3.8443422 -0.20112698
vt 1.7783976 9.812045
vt -1.5412242 10
vt 0.6350265 10
vt 0.6350259 2.4967468E-07
vt -1.5412253 2.3146121E-07
vt -1.5412242 10
vt -1.5412253 2.3146121E-07
vt -3.4877374 10
vt -4.460972 2.5589728E-07
vt 9 5.066394E-07
vt 7.0000005 0.9999995
vt 6.0000005 2.999999
vt 9 2.9999967
vt 5.999998 5.0000143
vt 9 5.9999967
vt 11 1.0000015
vt 12 2.9999983
vt 11 5.0000014
vt -6 3
vt -9 1.0000157
vt -9 3
vt -7 1
vt -6 6
vt -9 6
vt -11 1
vt -12 3
vt -10.999997 6.0000167
vn 0.15740457 0.047221694 0.9722223
vn -0 3.33786E-07 1
vn 0.15740457 0.047221694 0.9722223
vn 0.31480914 0.09444305 0.94444466
vn -0.22360179 0.04975276 0.94473255
vn 8.303248E-06 0.09950522 0.995037
vn -0.22360179 0.04975276 0.94473255
vn -0.4472119 2.9854758E-07 0.894428
vn -0.22271393 -0.044544127 -0.9454353
vn -0.22271393 -0.044544127 -0.9454353
vn -0.44543573 -0.08908841 -0.8908705
vn 7.867813E-06 1.5497207E-07 -1
vn 0.22360274 -0.049752623 -0.9447322
vn 0.22360274 -0.049752623 -0.9447322
vn 0.44721332 -2.1324823E-08 -0.89442736
vn -7.828766E-06 -0.09950522 -0.995037
vn -0.9482096 0.03160711 0.316069
vn -0.92131853 0.015803592 0.38164103
vn -0.92131853 0.015803592 0.38164103
vn -0.8944275 7.463673E-08 0.44721305
vn -0.89442706 -2.6655584E-09 -0.4472139
vn -0.89442706 -2.6655584E-09 -0.4472139
vn -0.8944272 -7.463682E-08 -0.4472136
vn -0.8944269 6.9305706E-08 -0.44721416
vn 0.8944272 1.06624E-08 -0.44721365
vn 0.8944272 2.13248E-08 -0.44721368
vn 0.8944272 1.06624E-08 -0.44721365
vn 0.8944272 0 -0.4472136
vn 1 4.7683603E-08 -1.1920838E-06
vn 1 -7.152563E-08 -5.960419E-07
vn 1 -7.152563E-08 -5.960419E-07
vn 1 -1.9073487E-07 0
vn -0 1 0
vn -0 1 0
vn -0 1 0
vn -0 1 0
vn -0 1 0
vn -0 1 0
vn -0 1 0
vn -0 1 0
vn -0 1 0
vn -0 -1 0
vn -0 -1 0
vn -0 -1 0
vn -0 -1 0
vn -0 -1 0
vn -0 -1 0
vn -0 -1 0
vn -0 -1 0
vn -0 -1 0
g pb_Mesh99276_0
f 3/3/3 2/2/2 1/1/1
f 3/3/3 1/1/1 4/4/4
f 7/7/7 6/6/6 5/5/5
f 7/7/7 5/5/5 8/8/8
f 11/11/11 10/10/10 9/9/9
f 10/10/10 12/12/12 9/9/9
f 15/15/15 14/14/14 13/13/13
f 14/14/14 16/16/16 13/13/13
f 19/19/19 18/18/18 17/17/17
f 20/20/20 18/18/18 19/19/19
f 23/23/23 22/22/22 21/21/21
f 22/22/22 24/24/24 21/21/21
f 27/27/27 26/26/26 25/25/25
f 27/27/27 25/25/25 28/28/28
f 31/31/31 30/30/30 29/29/29
f 32/32/32 30/30/30 31/31/31
f 35/35/35 34/34/34 33/33/33
f 35/35/35 33/33/33 36/36/36
f 37/37/37 35/35/35 36/36/36
f 37/37/37 36/36/36 38/38/38
f 36/36/36 33/33/33 39/39/39
f 36/36/36 39/39/39 40/40/40
f 38/38/38 36/36/36 40/40/40
f 38/38/38 40/40/40 41/41/41
f 44/44/44 43/43/43 42/42/42
f 43/43/43 45/45/45 42/42/42
f 47/47/47 44/44/44 46/46/46
f 44/44/44 42/42/42 46/46/46
f 49/49/49 48/48/48 44/44/44
f 48/48/48 43/43/43 44/44/44
f 50/50/50 49/49/49 47/47/47
f 49/49/49 44/44/44 47/47/47
