g pb_Mesh65250
v 9.999644 0 -7.000672
v 9.999924 0 -8.000096
v 9.99965 6 -7.000672
v 9.999926 6 -8.0000925
v 15.999462 0 -8.000209
v 15.99953 0 -7.0010753
v 15.999464 6 -8.000205
v 15.999536 6 -7.0010753
v 15.999866 0 -2.0010753
v 14.999866 0 -2.001008
v 14.999871 6 -2.001008
v 15.999871 6 -2.0010753
v 14.99953 0 -7.001008
v 9.999644 0 -7.000672
v 9.99965 6 -7.000672
v 14.999536 6 -7.001008
v 9.999926 6 -8.0000925
v 14.999462 0 -8.000287
v 14.999464 6 -8.000283
v 9.999924 0 -8.000096
v 14.999464 6 -8.000283
v 15.999462 0 -8.000209
v 15.999464 6 -8.000205
v 14.999462 0 -8.000287
v 14.99953 0 -7.001008
v 15.99953 0 -7.0010753
v 14.999462 0 -8.000287
v 15.999462 0 -8.000209
v 9.999924 0 -8.000096
v 9.999644 0 -7.000672
v 15.999866 0 -2.0010753
v 14.999866 0 -2.001008
v 14.99953 0 -7.001008
v 14.999536 6 -7.001008
v 14.999866 0 -2.001008
v 14.999871 6 -2.001008
v 15.999536 6 -7.0010753
v 15.99953 0 -7.0010753
v 15.999871 6 -2.0010753
v 15.999866 0 -2.0010753
v 14.999464 6 -8.000283
v 15.999464 6 -8.000205
v 15.999536 6 -7.0010753
v 14.999536 6 -7.001008
v 9.99965 6 -7.000672
v 9.999926 6 -8.0000925
v 14.999871 6 -2.001008
v 15.999871 6 -2.0010753
vt -7.0034676 9.534536E-06
vt -8.0028925 9.534536E-06
vt -7.0034676 6.0000095
vt -8.002889 6.0000095
vt 7.9991245 5.085575E-06
vt 6.999991 5.085575E-06
vt 7.9991207 6.0000052
vt 6.999991 6.0000052
vt 16 -1.2823873E-10
vt 15 -1.2823873E-10
vt 15.000006 6
vt 16.000006 6
vt 15.000001 -4.488459E-10
vt 10.000115 -4.488459E-10
vt 10.000121 6
vt 15.000007 6
vt -9.999765 5.9999948
vt -14.999302 -5.086585E-06
vt -14.999304 5.9999948
vt -9.9997635 -5.0864005E-06
vt -14.999304 5.9999948
vt -15.999302 -5.0865483E-06
vt -15.999304 5.9999948
vt -14.999302 -5.086585E-06
vt 14.99953 -7.001008
vt 15.99953 -7.0010753
vt 14.999462 -8.000287
vt 15.999462 -8.000209
vt 9.999924 -8.000096
vt 9.999644 -7.000672
vt 15.999866 -2.0010753
vt 14.999866 -2.001008
vt -7.000001 1.4305115E-05
vt -7.000001 6.0000143
vt -2.000001 1.4305115E-05
vt -2.000001 6.0000143
vt 7.000001 6.0000153
vt 7.000001 1.5258789E-05
vt 2.000001 6.0000153
vt 2.000001 1.5258789E-05
vt -14.999464 -8.000283
vt -15.999464 -8.000205
vt -15.999536 -7.0010753
vt -14.999536 -7.001008
vt -9.99965 -7.000672
vt -9.999926 -8.0000925
vt -14.999871 -2.001008
vt -15.999871 -2.0010753
vn -1 9.536743E-07 -0.0002795875
vn -1 6.3587055E-07 -0.0002776796
vn -1 6.3587055E-07 -0.0002776796
vn -1 3.1806678E-07 -0.00027577166
vn 1 -3.1784836E-07 -6.776959E-05
vn 1 -6.3576135E-07 -6.967873E-05
vn 1 -6.3576135E-07 -6.967873E-05
vn 1 -9.536743E-07 -7.158787E-05
vn 6.723404E-05 -6.4119376E-11 1
vn 6.723404E-05 -6.4119376E-11 1
vn 6.723404E-05 -6.4119376E-11 1
vn 6.723404E-05 -6.4119376E-11 1
vn 6.723558E-05 -6.412085E-11 1
vn 6.723558E-05 -6.412085E-11 1
vn 6.723558E-05 -6.412085E-11 1
vn 6.723558E-05 -6.412085E-11 1
vn -3.8150494E-05 6.35795E-07 -1
vn -3.8150494E-05 6.35795E-07 -1
vn -3.8150494E-05 6.35795E-07 -1
vn -3.8150494E-05 6.35795E-07 -1
vn 7.8201294E-05 6.35758E-07 -1
vn 7.8201294E-05 6.35758E-07 -1
vn 7.8201294E-05 6.35758E-07 -1
vn 7.8201294E-05 6.35758E-07 -1
vn -0 -1 0
vn -0 -1 0
vn -0 -1 0
vn -0 -1 0
vn -0 -1 0
vn -0 -1 0
vn -0 -1 0
vn -0 -1 0
vn -1 9.536743E-07 6.713867E-05
vn -1 9.536743E-07 6.713867E-05
vn -1 9.536743E-07 6.713867E-05
vn -1 9.536743E-07 6.713867E-05
vn 1 -9.536743E-07 -6.713867E-05
vn 1 -9.536743E-07 -6.713867E-05
vn 1 -9.536743E-07 -6.713867E-05
vn 1 -9.536743E-07 -6.713867E-05
vn -0 1 0
vn -0 1 0
vn -0 1 0
vn -0 1 0
vn -0 1 0
vn -0 1 0
vn -0 1 0
vn -0 1 0
g pb_Mesh65250_0
f 3/3/3 2/2/2 1/1/1
f 3/3/3 4/4/4 2/2/2
f 7/7/7 6/6/6 5/5/5
f 7/7/7 8/8/8 6/6/6
f 11/11/11 10/10/10 9/9/9
f 11/11/11 9/9/9 12/12/12
f 15/15/15 14/14/14 13/13/13
f 15/15/15 13/13/13 16/16/16
f 19/19/19 18/18/18 17/17/17
f 18/18/18 20/20/20 17/17/17
f 23/23/23 22/22/22 21/21/21
f 22/22/22 24/24/24 21/21/21
f 27/27/27 26/26/26 25/25/25
f 27/27/27 28/28/28 26/26/26
f 29/29/29 27/27/27 25/25/25
f 30/30/30 29/29/29 25/25/25
f 31/31/31 25/25/25 26/26/26
f 31/31/31 32/32/32 25/25/25
f 35/35/35 34/34/34 33/33/33
f 35/35/35 36/36/36 34/34/34
f 39/39/39 38/38/38 37/37/37
f 39/39/39 40/40/40 38/38/38
g pb_Mesh65250_1
f 43/43/43 42/42/42 41/41/41
f 44/44/44 43/43/43 41/41/41
f 44/44/44 46/46/46 45/45/45
f 44/44/44 41/41/41 46/46/46
f 47/47/47 43/43/43 44/44/44
f 47/47/47 48/48/48 43/43/43
