g pb_Mesh96232
v 6 -1 -2
v -12.00035 -1 -1.9990989
v 6 -1 1
v -11.999823 -1 1.0009009
v 6 -1 1
v -11.999823 -1 1.0009009
v -11.999823 1 1.0009009
v 6 1 1
v -11.999823 -1 1.0009009
v -12.00035 -1 -1.9990989
v -12.00035 1 -1.9990989
v -11.999823 1 1.0009009
v -12.00035 3 -1.9990989
v -12.000302 1.5 -2.4978878
v 6.0000377 -0.5 -2.501055
v 6.0000377 1.5 -2.501055
v -12.000302 -0.5 -2.4978878
v -12.000302 3.5 -2.4978878
v 6.0000377 3.5 -2.501055
v 6 1 -2
v 6 -1 1
v 6 1 1
v 6 -1 -2
v 6 3 -2
v 6 1 -2
v 6 3 -2
v 6.0000377 1.5 -2.501055
v 6.0000377 3.5 -2.501055
v 6 3 -2
v -12.00035 3 -1.9990989
v 6.0000377 3.5 -2.501055
v -12.000302 3.5 -2.4978878
v -12.00035 3 -1.9990989
v -12.00035 1 -1.9990989
v -12.000302 3.5 -2.4978878
v -12.000302 1.5 -2.4978878
v -12.00035 -1 -1.9990989
v -12.000302 -0.5 -2.4978878
v 6 -1 -2
v 6.0000377 -0.5 -2.501055
v -12.00035 -1 -1.9990989
v 6 -1 -2
v -12.000302 -0.5 -2.4978878
v 6.0000377 -0.5 -2.501055
v 6 1 1
v -11.999823 1 1.0009009
v 6 3 -2
v -12.00035 3 -1.9990989
vt 6 -2
vt -12.00035 -1.9990989
vt 6 1
vt -11.999823 1.0009009
vt 5.99995 -1
vt -11.999873 -1
vt -11.999873 1
vt 5.99995 1
vt 0.9987914 -1
vt -2.0012085 -1
vt -2.0012085 1
vt 0.9987914 1
vt -2.0012085 3
vt 11.999863 1.5
vt -6.000478 -0.5
vt -6.000478 1.5
vt 11.999863 -0.5
vt 11.999863 3.5
vt -6.000478 3.5
vt 2 1
vt -1 -1
vt -1 1
vt 2 -1
vt 2 3
vt 2.000451 1
vt 2.000451 3
vt 2.501506 1.5
vt 2.501506 3.5
vt -5.9998503 -3.5349984
vt 12.0005 -3.5337255
vt -5.9998627 -4.2428517
vt 12.000477 -4.2399745
vt -1.9979516 3
vt -1.9979516 1
vt -2.4967406 3.5
vt -2.4967406 1.5
vt -1.9979516 -1
vt -2.4967406 -0.5
vt 2.000451 -1
vt 2.501506 -0.5
vt 12.00025 0.7043221
vt -6.0001 0.7043221
vt 12.000177 1.4105731
vt -6.000163 1.4121735
vt -5.9999666 0.27723902
vt 11.999856 0.2783217
vt -5.9999 -3.3283122
vt 12.00045 -3.3272293
vn -0 -1 0
vn -0 -1 0
vn -0 -1 0
vn -0 -1 0
vn 5.0048526E-05 0 1
vn 5.0048526E-05 0 1
vn 5.0048526E-05 0 1
vn 5.0048526E-05 0 1
vn -1 0 0.00017579398
vn -1 0 0.00017579398
vn -1 0 0.00017579398
vn -1 0 0.00017579398
vn -1 0 0.00017579398
vn -0.0001759496 0 -1
vn -0.0001759496 0 -1
vn -0.0001759496 0 -1
vn -0.0001759496 0 -1
vn -0.0001759496 0 -1
vn -0.0001759496 0 -1
vn 1 0 0
vn 1 0 0
vn 1 0 0
vn 1 0 0
vn 1 0 0
vn 1 0 7.518164E-05
vn 1 0 7.518164E-05
vn 1 0 7.518164E-05
vn 1 0 7.518164E-05
vn 3.5360652E-05 0.7078516 0.7063612
vn 7.996328E-05 0.7070502 0.7071624
vn 7.996328E-05 0.7070502 0.7071624
vn 0.00012456591 0.7062489 0.70796365
vn -1 0 -9.559898E-05
vn -1 0 -9.559898E-05
vn -1 0 -9.559898E-05
vn -1 0 -9.559898E-05
vn -1 0 -9.559898E-05
vn -1 0 -9.559898E-05
vn 1 0 7.518164E-05
vn 1 0 7.518164E-05
vn -3.5440877E-05 -0.70624894 -0.70796365
vn -7.9862424E-05 -0.70705026 -0.70716244
vn -7.9862424E-05 -0.70705026 -0.70716244
vn -0.00012428398 -0.7078516 -0.70636123
vn 2.7761927E-05 0.83205026 0.5547002
vn 2.7763359E-05 0.83205026 0.55470026
vn 2.7763359E-05 0.83205026 0.55470026
vn 2.776479E-05 0.83205026 0.5547003
g pb_Mesh96232_0
f 3/3/3 2/2/2 1/1/1
f 3/3/3 4/4/4 2/2/2
f 7/7/7 6/6/6 5/5/5
f 7/7/7 5/5/5 8/8/8
f 11/11/11 10/10/10 9/9/9
f 11/11/11 9/9/9 12/12/12
f 13/13/13 11/11/11 12/12/12
f 16/16/16 15/15/15 14/14/14
f 15/15/15 17/17/17 14/14/14
f 19/19/19 16/16/16 18/18/18
f 16/16/16 14/14/14 18/18/18
f 22/22/22 21/21/21 20/20/20
f 21/21/21 23/23/23 20/20/20
f 22/22/22 20/20/20 24/24/24
f 27/27/27 26/26/26 25/25/25
f 27/27/27 28/28/28 26/26/26
f 31/31/31 30/30/30 29/29/29
f 31/31/31 32/32/32 30/30/30
f 35/35/35 34/34/34 33/33/33
f 35/35/35 36/36/36 34/34/34
f 36/36/36 37/37/37 34/34/34
f 36/36/36 38/38/38 37/37/37
f 40/40/40 25/25/25 39/39/39
f 40/40/40 27/27/27 25/25/25
f 43/43/43 42/42/42 41/41/41
f 43/43/43 44/44/44 42/42/42
g pb_Mesh96232_1
f 47/47/47 46/46/46 45/45/45
f 47/47/47 48/48/48 46/46/46
