g pb_Mesh100332
v -0 -1 0
v -1 -1 0
v -0 1 0
v -2 1 0
v -1 -1 0
v -1 -1 -7
v -2 1 0
v -2 1 -7
v -1 -1 -8
v -0 -1 -8
v -2 1 -9
v -0 1 -9
v -0 -1 -7
v -0 -1 0
v -0 1 -7
v -0 1 0
v -0 1 0
v -2 1 0
v -0 1 -7
v -2 1 -7
v -0 -1 -7
v -1 -1 -7
v -0 -1 0
v -1 -1 0
v -1 -1 -8
v -0 -1 -8
v -2 1 -9
v -1 -1 -8
v 6 -1 -7
v 6 1 -7
v 6 -1 -8
v 6 1 -9
v -0 1 -9
v -2 1 -9
v -0 -1 -7
v -0 1 -7
v 6 -1 -7
v 6 1 -7
v 6 -1 -8
v 6 -1 -7
v 6 1 -7
v 6 1 -9
v 6 1 -9
v 6 -1 -8
vt 0 -1
vt -1 -1
vt 0 1
vt -2 1
vt 0 -0.4472136
vt -7 -0.4472136
vt 0 1.7888544
vt -7 1.7888544
vt 1 2.6832814
vt 0 2.6832814
vt 2 4.9193497
vt 0 4.9193497
vt 7 -1
vt 0 -1
vt 7 1
vt 0 1
vt 0 0
vt 2 0
vt 0 -7
vt 2 -7
vt -0 -7
vt -1 -7
vt 0 0
vt -1 0
vt -1 -8
vt -0 -8
vt -9 1.7888544
vt -8 -0.4472136
vt 7 -1
vt 7 1
vt 8 -1
vt 9 1
vt 0 -9
vt 2 -9
vt -0 -1
vt 0 1
vt 6 -1
vt 6 1
vt 6 -8
vt 6 -7
vt -6 -7
vt -6 -9
vt -6 4.9193497
vt -6 2.6832814
vn -0 0 1
vn -0 0 1
vn -0 0 1
vn -0 0 1
vn -0.8944272 -0.4472136 0
vn -0.8944272 -0.4472136 0
vn -0.8944272 -0.4472136 0
vn -0.8944272 -0.4472136 0
vn -0 -0.4472136 -0.8944272
vn -0 -0.4472136 -0.8944272
vn -0 -0.4472136 -0.8944272
vn -0 -0.4472136 -0.8944272
vn 1 0 0
vn 1 0 0
vn 1 0 0
vn 1 0 0
vn -0 1 0
vn -0 1 0
vn -0 1 0
vn -0 1 0
vn -0 -1 0
vn -0 -1 0
vn -0 -1 0
vn -0 -1 0
vn -0 -1 0
vn -0 -1 0
vn -0.8944272 -0.4472136 0
vn -0.8944272 -0.4472136 0
vn 1 0 0
vn 1 0 0
vn 1 0 0
vn 1 0 0
vn -0 1 0
vn -0 1 0
vn -0 0 1
vn -0 0 1
vn -0 0 1
vn -0 0 1
vn -0 -1 0
vn -0 -1 0
vn -0 1 0
vn -0 1 0
vn -0 -0.4472136 -0.8944272
vn -0 -0.4472136 -0.8944272
g pb_Mesh100332_0
f 3/3/3 2/2/2 1/1/1
f 3/3/3 4/4/4 2/2/2
f 7/7/7 6/6/6 5/5/5
f 7/7/7 8/8/8 6/6/6
f 11/11/11 10/10/10 9/9/9
f 11/11/11 12/12/12 10/10/10
f 15/15/15 14/14/14 13/13/13
f 15/15/15 16/16/16 14/14/14
f 19/19/19 18/18/18 17/17/17
f 19/19/19 20/20/20 18/18/18
f 23/23/23 22/22/22 21/21/21
f 23/23/23 24/24/24 22/22/22
f 25/25/25 21/21/21 22/22/22
f 25/25/25 26/26/26 21/21/21
f 27/27/27 6/6/6 8/8/8
f 27/27/27 28/28/28 6/6/6
f 31/31/31 30/30/30 29/29/29
f 31/31/31 32/32/32 30/30/30
f 33/33/33 20/20/20 19/19/19
f 33/33/33 34/34/34 20/20/20
f 37/37/37 36/36/36 35/35/35
f 37/37/37 38/38/38 36/36/36
f 39/39/39 21/21/21 26/26/26
f 39/39/39 40/40/40 21/21/21
f 41/41/41 33/33/33 19/19/19
f 41/41/41 42/42/42 33/33/33
f 43/43/43 10/10/10 12/12/12
f 43/43/43 44/44/44 10/10/10
