g pb_Mesh-298442
v -0.74999964 -3 0.24999985
v -0.99999964 -3 0.24999976
v -0.74999857 5 0.24999888
v -0.99999857 5 0.24999869
v -0.99999964 -3 0.24999976
v -0.9999995 -3 -2.3841858E-07
v -0.99999857 5 0.24999869
v -0.99999833 5 -1.3179642E-06
v -0.9999995 -3 -2.3841858E-07
v -0.7499995 -3 -1.4901161E-07
v -0.99999833 5 -1.3179642E-06
v -0.74999833 5 -1.1242493E-06
v 1.0000005 -3 4.7683716E-07
v 1.0000004 -3 0.25000048
v 1.0000017 5 2.3175625E-07
v 1.0000014 5 0.25000024
v -0.74999857 5 0.24999888
v -0.99999857 5 0.24999869
v -0.74999833 5 -1.1242493E-06
v -0.99999833 5 -1.3179642E-06
v -0.7499995 -3 -1.4901161E-07
v -0.9999995 -3 -2.3841858E-07
v -0.74999964 -3 0.24999985
v -0.99999964 -3 0.24999976
v 0.7500005 -3 3.874302E-07
v 0.75000036 -3 0.2500004
v 1.0000005 -3 4.7683716E-07
v 1.0000004 -3 0.25000048
v 0.75000167 5 3.8041186E-08
v 0.7500005 -3 3.874302E-07
v 1.0000017 5 2.3175625E-07
v 1.0000005 -3 4.7683716E-07
v 0.75000036 -3 0.2500004
v 0.75000143 5 0.25000003
v 1.0000004 -3 0.25000048
v 1.0000014 5 0.25000024
v 0.75000143 5 0.25000003
v 0.75000167 5 3.8041186E-08
v 1.0000014 5 0.25000024
v 1.0000017 5 2.3175625E-07
v -0.74999964 -3 0.24999985
v -0.74999857 5 0.24999888
v -0.7499995 -3 -1.4901161E-07
v -0.74999833 5 -1.1242493E-06
v 0.75000143 5 0.25000003
v 0.75000036 -3 0.2500004
v 0.75000167 5 3.8041186E-08
v 0.7500005 -3 3.874302E-07
v -0.7499996 -3 0.12499985
v -0.74999845 5 0.124998875
v 0.7500004 -3 0.12500039
v 0.75000155 5 0.12500004
vt -0.7499996 -3
vt -0.9999996 -3
vt -0.7499985 5
vt -0.9999985 5
vt -1.8749998 -3.0000002
vt -2.1249998 -3.0000002
vt -1.8750008 5
vt -2.125001 5
vt 0.9999995 -3
vt 0.7499995 -3
vt 0.99999833 5
vt 0.74999833 5
vt 2.125 -2.9999998
vt 1.875 -2.9999998
vt 2.1250002 5
vt 1.8750002 5
vt 0.74999857 -1.8750011
vt 0.99999857 -1.8750013
vt 0.74999833 -2.1250012
vt 0.99999833 -2.1250014
vt -0.7499995 -2.1250002
vt -0.9999995 -2.1250002
vt -0.74999964 -1.8750001
vt -0.99999964 -1.8750002
vt 0.7500005 -2.1249995
vt 0.75000036 -1.8749996
vt 1.0000005 -2.1249995
vt 1.0000004 -1.8749995
vt -0.75000167 5
vt -0.7500005 -3
vt -1.0000017 5
vt -1.0000005 -3
vt 0.7500005 -3
vt 0.75000155 5
vt 1.0000005 -3
vt 1.0000015 5
vt -0.75000143 -1.875
vt -0.75000167 -2.125
vt -1.0000014 -1.8749998
vt -1.0000017 -2.1249998
vt 1.8749998 -3
vt 1.8750007 5
vt 2.1249998 -3
vt 2.1250007 5
vt -1.8750007 5
vt -1.8750004 -3
vt -2.1250007 5
vt -2.1250002 -3
vt -0.7499995 -3
vt -0.7499984 5
vt 0.7500005 -3
vt 0.7500016 5
vn -3.5762787E-07 1.2107198E-07 1
vn -5.662441E-07 1.2759126E-07 1
vn -5.662441E-07 1.2759126E-07 1
vn -7.748604E-07 1.3411055E-07 1
vn -1 1.341104E-07 -4.7683716E-07
vn -1 1.4156095E-07 -7.1525574E-07
vn -1 1.4156095E-07 -7.1525574E-07
vn -1 1.4901148E-07 -9.536743E-07
vn 3.5762787E-07 -1.3494326E-07 -1
vn 5.662439E-07 -1.2842403E-07 -1
vn 5.662439E-07 -1.2842403E-07 -1
vn 7.748599E-07 -1.2190482E-07 -1
vn 1 -1.490116E-07 4.7683716E-07
vn 1 -1.41561E-07 7.1525574E-07
vn 1 -1.41561E-07 7.1525574E-07
vn 1 -1.3411042E-07 9.536743E-07
vn -0 1 0
vn -0 1 0
vn -0 1 0
vn -0 1 0
vn -0 -1 0
vn -0 -1 0
vn -0 -1 0
vn -0 -1 0
vn -0 -1 0
vn -0 -1 0
vn -0 -1 0
vn -0 -1 0
vn 7.7486027E-07 -4.367374E-08 -1
vn 5.6624407E-07 -3.7154454E-08 -1
vn 5.6624407E-07 -3.7154454E-08 -1
vn 3.5762787E-07 -3.0635167E-08 -1
vn -3.5762787E-07 4.4703533E-08 1
vn -5.9604645E-07 3.7252985E-08 1
vn -5.9604645E-07 3.7252985E-08 1
vn -8.34465E-07 2.9802436E-08 1
vn -0 1 0
vn -0 1 0
vn -0 1 0
vn -0 1 0
vn 1 -1.341104E-07 4.7683716E-07
vn 1 -1.4156095E-07 7.1525574E-07
vn 1 -1.4156095E-07 7.1525574E-07
vn 1 -1.490115E-07 9.536743E-07
vn -1 1.3411041E-07 -9.536744E-07
vn -1 1.41561E-07 -7.152558E-07
vn -1 1.41561E-07 -7.152558E-07
vn -1 1.4901158E-07 -4.7683716E-07
vn -3.5762787E-07 1.220033E-07 1
vn -5.687276E-07 8.2422126E-08 1
vn -5.687276E-07 8.2422126E-08 1
vn -7.798274E-07 4.2840956E-08 1
g pb_Mesh-298442_0
f 3/3/3 2/2/2 1/1/1
f 3/3/3 4/4/4 2/2/2
f 7/7/7 6/6/6 5/5/5
f 7/7/7 8/8/8 6/6/6
f 11/11/11 10/10/10 9/9/9
f 11/11/11 12/12/12 10/10/10
f 15/15/15 14/14/14 13/13/13
f 15/15/15 16/16/16 14/14/14
f 19/19/19 18/18/18 17/17/17
f 19/19/19 20/20/20 18/18/18
f 23/23/23 22/22/22 21/21/21
f 23/23/23 24/24/24 22/22/22
f 27/27/27 26/26/26 25/25/25
f 27/27/27 28/28/28 26/26/26
f 31/31/31 30/30/30 29/29/29
f 31/31/31 32/32/32 30/30/30
f 35/35/35 34/34/34 33/33/33
f 35/35/35 36/36/36 34/34/34
f 39/39/39 38/38/38 37/37/37
f 39/39/39 40/40/40 38/38/38
f 43/43/43 42/42/42 41/41/41
f 43/43/43 44/44/44 42/42/42
f 47/47/47 46/46/46 45/45/45
f 47/47/47 48/48/48 46/46/46
g pb_Mesh-298442_1
f 51/51/51 50/50/50 49/49/49
f 51/51/51 52/52/52 50/50/50
