g pb_Mesh103228
v -0 1.75 0
v -2 1.75 0
v -0 2 0
v -2 2 0
v -2 1.75 0
v -0.0018103123 3.75 -12.000001
v -2 2 0
v -0.0018103123 4 -12.000001
v -0.0018103123 3.75 -12.000001
v 1.9981904 3.75 -12.000303
v -0.0018103123 4 -12.000001
v 1.9981904 4 -12.000303
v 1.9981904 3.75 -12.000303
v -0 1.75 0
v 1.9981904 4 -12.000303
v -0 2 0
v -0 2 0
v -2 2 0
v 1.9981904 4 -12.000303
v -0.0018103123 4 -12.000001
v 1.9981904 3.75 -12.000303
v -0.0018103123 3.75 -12.000001
v -0 1.75 0
v -2 1.75 0
vt 0 1.75
vt -2 1.75
vt 0 2
vt -2 2
vt 0.32850838 1.75
vt -11.83672 3.75
vt 0.32850838 2
vt -11.83672 4
vt -3.5757243E-06 3.75
vt -2.0000043 3.75
vt -3.5757243E-06 4
vt -2.0000043 4
vt 12.165527 3.75
vt 0 1.75
vt 12.165527 4
vt 0 2
vt 0 -0.32878986
vt 2 -0.32878986
vt -1.9981904 -12.494614
vt 0.0018103123 -12.494316
vt 1.998096 -12.45353
vt -0.0019047856 -12.453224
vt -4.4087545E-05 -0.2876982
vt -2.000044 -0.28768992
vn -0 0 1
vn -0 0 1
vn -0 0 1
vn -0 0 1
vn -0.98641807 0 -0.16425419
vn -0.98641807 0 -0.16425419
vn -0.98641807 0 -0.16425419
vn -0.98641807 0 -0.16425419
vn -0.00015115732 0 -1
vn -0.00015115732 0 -1
vn -0.00015115732 0 -1
vn -0.00015115732 0 -1
vn 0.9864187 0 0.16425022
vn 0.9864187 0 0.16425022
vn 0.9864187 0 0.16425022
vn 0.9864187 0 0.16425022
vn -0 0.98639464 0.16439494
vn 1.2425358E-05 0.9863939 0.16439897
vn 1.2425358E-05 0.9863939 0.16439897
vn 2.4850717E-05 0.9863933 0.16440299
vn -2.4850107E-05 -0.9863939 -0.16439897
vn -1.2425054E-05 -0.9863939 -0.16439897
vn -1.2425054E-05 -0.9863939 -0.16439897
vn -0 -0.9863939 -0.16439898
g pb_Mesh103228_0
f 3/3/3 2/2/2 1/1/1
f 3/3/3 4/4/4 2/2/2
f 7/7/7 6/6/6 5/5/5
f 7/7/7 8/8/8 6/6/6
f 11/11/11 10/10/10 9/9/9
f 11/11/11 12/12/12 10/10/10
f 15/15/15 14/14/14 13/13/13
f 15/15/15 16/16/16 14/14/14
f 19/19/19 18/18/18 17/17/17
f 19/19/19 20/20/20 18/18/18
f 23/23/23 22/22/22 21/21/21
f 23/23/23 24/24/24 22/22/22
