g pb_Mesh99304
v 1.3683558 0 -1.645767E-07
v -4 0 -10
v -4 0 0
v 2.4984605 0 -10
v -8 0 -10
v -8 0 0
v -8 0 0
v -8 0 -10
v -8.346277 7 -10
v -8.346279 7 0
v -8.346279 7 0
v -8.346277 7 -10
v -8.000002 9 -10
v -8.000004 9 0
v -0.23825203 7 -10.000003
v 1.3683558 0 -1.645767E-07
v -1.7881393E-06 7 -4.7683716E-07
v 2.4984605 0 -10
v -0.23825462 9 -10
v -1.7881393E-06 7 -4.7683716E-07
v -0 9 0
v -0.23825203 7 -10.000003
v 1.3683558 0 -1.645767E-07
v -4 0 0
v -4 7 0
v -1.7881393E-06 7 -4.7683716E-07
v -4 9 0
v -0 9 0
v -8 0 0
v -8.346279 7 0
v -8.000004 9 0
v -8.346277 7 -10
v -4 0 -10
v -4.000004 7 -10
v -8 0 -10
v -8.000002 9 -10
v -4 9 -10
v 2.4984605 0 -10
v -0.23825203 7 -10.000003
v -0.23825462 9 -10
v -4 9 -10
v -0.23825462 9 -10
v -0 9 0
v -4 9 0
v -8.000002 9 -10
v -8.000004 9 0
vt 1.3683558 -1.645767E-07
vt -4 -10
vt -4 0
vt 2.4984605 -10
vt -8 -10
vt -8 0
vt 7.577721E-07 -0.48773816
vt -9.999999 -0.48773822
vt -9.999999 6.478129
vt 7.905722E-07 6.478129
vt 7.905722E-07 6.478129
vt -9.999999 6.478129
vt -9.999999 8.49552
vt 7.5777245E-07 8.49552
vt 10.00284 6.9674354
vt -0.032591995 -0.13179792
vt 5.1929266E-07 6.9674354
vt 9.937654 -0.263596
vt 10.002838 8.958132
vt 5.1929266E-07 6.9674354
vt 0 8.958131
vt 10.00284 6.9674354
vt 1.3683558 0
vt -4 0
vt -4 7
vt -1.7881393E-06 7
vt -4 9
vt 0 9
vt -8 0
vt -8.346279 7
vt -8.000004 9
vt 8.346275 6.999998
vt 3.999998 -1.8111195E-06
vt 4.000002 6.999998
vt 7.999998 -1.8111197E-06
vt 8 8.999998
vt 3.999998 8.999998
vt -2.4984624 -1.8111193E-06
vt 0.23825012 6.999998
vt 0.23825271 8.999998
vt 4 -10
vt 0.23825462 -10
vt 0 0
vt 4 0
vt 8.000002 -10
vt 8.000004 0
vn -0 -1 0
vn -0 -1 0
vn -0 -1 0
vn -0 -1 0
vn -0 -1 0
vn -0 -1 0
vn -0.9987787 -0.0494079 -9.525096E-08
vn -0.9987787 -0.04940776 0
vn -0.9987787 -0.0494079 -9.525096E-08
vn -0.9987787 -0.049408033 -1.9050192E-07
vn -0.9853405 0.17059955 -1.8793878E-07
vn -0.9853405 0.17059955 -1.8793878E-07
vn -0.9853405 0.17059955 -1.8793878E-07
vn -0.9853405 0.17059955 -1.8793878E-07
vn 0.95369595 0.27695808 0.04064912
vn 0.95369595 0.27695808 0.04064912
vn 0.98115635 0.19179608 -0.023376068
vn 0.92623556 0.3621201 0.10467431
vn 0.9997163 2.1814472E-07 -0.02381848
vn 0.9997163 2.1814472E-07 -0.02381848
vn 0.9997163 -8.93816E-07 -0.023818702
vn 0.9997163 1.3301054E-06 -0.023818258
vn 7.4933084E-08 3.3955818E-08 1
vn 3.0656818E-08 0 1
vn 7.4933084E-08 3.3955818E-08 1
vn 1.1920935E-07 6.7911635E-08 1
vn 5.960467E-08 -1.1920929E-07 1
vn -0 -2.3841858E-07 1
vn -0 0 1
vn -0 0 1
vn -0 0 1
vn -0 0 -1
vn -0 0 -1
vn -0 0 -1
vn -0 0 -1
vn -0 0 -1
vn -0 0 -1
vn -3.8027798E-07 -3.5303185E-07 -1
vn -7.6055596E-07 -7.060637E-07 -1
vn -0 1.4305115E-06 -1
vn -0 1 0
vn -0 1 0
vn -0 1 0
vn -0 1 0
vn -0 1 0
vn -0 1 0
g pb_Mesh99304_0
f 3/3/3 2/2/2 1/1/1
f 2/2/2 4/4/4 1/1/1
f 6/6/6 5/5/5 3/3/3
f 5/5/5 2/2/2 3/3/3
f 9/9/9 8/8/8 7/7/7
f 9/9/9 7/7/7 10/10/10
f 13/13/13 12/12/12 11/11/11
f 13/13/13 11/11/11 14/14/14
f 17/17/17 16/16/16 15/15/15
f 16/16/16 18/18/18 15/15/15
f 21/21/21 20/20/20 19/19/19
f 20/20/20 22/22/22 19/19/19
f 25/25/25 24/24/24 23/23/23
f 25/25/25 23/23/23 26/26/26
f 27/27/27 25/25/25 26/26/26
f 27/27/27 26/26/26 28/28/28
f 30/30/30 29/29/29 24/24/24
f 30/30/30 24/24/24 25/25/25
f 31/31/31 30/30/30 25/25/25
f 31/31/31 25/25/25 27/27/27
f 34/34/34 33/33/33 32/32/32
f 33/33/33 35/35/35 32/32/32
f 37/37/37 34/34/34 36/36/36
f 34/34/34 32/32/32 36/36/36
f 39/39/39 38/38/38 34/34/34
f 38/38/38 33/33/33 34/34/34
f 40/40/40 39/39/39 37/37/37
f 39/39/39 34/34/34 37/37/37
g pb_Mesh99304_1
f 43/43/43 42/42/42 41/41/41
f 43/43/43 41/41/41 44/44/44
f 44/44/44 41/41/41 45/45/45
f 44/44/44 45/45/45 46/46/46
