g pb_Mesh98442
v 1 -2 -1
v -3 -2 -6
v -3 -2 -1
v 1 -2 -5
v -1 -2 2
v -3 -2 2
v -3 1 -1
v -0 1 -1
v -1 1 2
v -3 1 2
v -3 4 -4
v -1 4 -4
v -1 4 -1
v -3 4 -1
v -1 -2 2
v -3 -2 2
v -1 1 2
v -3 1 2
v -3 -2 -6
v 1 -2 -5
v -3 1 -5
v -0 1 -5
v -3 -2 2
v -3 -2 -1
v -3 1 -1
v -3 1 2
v -3 -2 -6
v -3 1 -5
v -0 1 -5
v 1 -2 -1
v -0 1 -1
v 1 -2 -5
v -0 1 -1
v -1 -2 2
v -1 1 2
v 1 -2 -1
v -3 1 -5
v -0 1 -5
v -3 4 -4
v -1 4 -4
v -0 1 -5
v -0 1 -1
v -1 4 -4
v -1 4 -1
v -3 4 -1
v -3 4 -4
v -0 1 -1
v -3 1 -1
v -1 4 -1
v -3 4 -1
vt 1 -1
vt -3 -6
vt -3 -1
vt 1 -5
vt -1 2
vt -3 2
vt 3 -1
vt 0 -1
vt 1 2
vt 3 2
vt 3 -4
vt 1 -4
vt 1 -1
vt 3 -1
vt -1 -2
vt -3 -2
vt -1 1
vt -3 1
vt 4.365641 -3.4701252
vt 0.24253562 -3.4701252
vt 4.1231055 -0.317162
vt 1.2126781 -0.541041
vt 2 -2
vt -1 -2
vt -1 1
vt 2 1
vt -6 -2
vt -5 1
vt 4.9319696 1.1200995
vt 1.150793 -2.106854
vt 0.9863939 1.0134234
vt 5.096369 -2.0001779
vt 0.9863939 1.0134234
vt -2.1371868 -1.8668326
vt -2.1371868 1.0934305
vt 1.150793 -2.106854
vt 3 -0.63245547
vt 0 -0.63245547
vt 3 2.5298223
vt 1 2.5298223
vt 5 0.9486833
vt 1 0.9486833
vt 4 4.110961
vt 1 4.110961
vt -1 4
vt -4 4
vt 0 1
vt -3 1
vt -1 4
vt -3 4
vn -0 -1 0
vn -0 -1 0
vn -0 -1 0
vn -0 -1 0
vn -0 -1 0
vn -0 -1 0
vn -0 1 0
vn -0 1 0
vn -0 1 0
vn -0 1 0
vn -0 1 0
vn -0 1 0
vn -0 1 0
vn -0 1 0
vn -0 0 1
vn -0 0 1
vn -0 0 1
vn -0 0 1
vn 0.23076923 0.30769232 -0.9230769
vn 0.115384616 0.15384616 -0.96153843
vn 0.115384616 0.15384616 -0.96153843
vn -0 0 -1
vn -1 0 0
vn -1 0 0
vn -1 0 0
vn -1 0 0
vn -1 0 0
vn -1 0 0
vn 0.9486833 0.3162278 0
vn 0.9486833 0.3162278 0
vn 0.9486833 0.3162278 0
vn 0.9486833 0.3162278 0
vn 0.87523353 0.13363062 0.4253751
vn 0.87523353 0.13363062 0.4253751
vn 0.9486833 0 0.31622776
vn 0.80178374 0.26726124 0.5345225
vn -0 0.31622776 -0.9486833
vn -0 0.3162278 -0.9486833
vn -0 0.3162278 -0.9486833
vn -0 0.3162278 -0.9486833
vn 0.9486833 0.3162278 0
vn 0.9486833 0.3162278 0
vn 0.9486833 0.3162278 0
vn 0.9486833 0.31622776 0
vn -1 0 0
vn -1 0 0
vn -0 0 1
vn -0 0 1
vn -0 0 1
vn -0 0 1
g pb_Mesh98442_0
f 3/3/3 2/2/2 1/1/1
f 2/2/2 4/4/4 1/1/1
f 6/6/6 3/3/3 5/5/5
f 3/3/3 1/1/1 5/5/5
g pb_Mesh98442_1
f 9/9/9 8/8/8 7/7/7
f 9/9/9 7/7/7 10/10/10
f 13/13/13 12/12/12 11/11/11
f 13/13/13 11/11/11 14/14/14
g pb_Mesh98442_2
f 17/17/17 16/16/16 15/15/15
f 17/17/17 18/18/18 16/16/16
f 21/21/21 20/20/20 19/19/19
f 21/21/21 22/22/22 20/20/20
f 25/25/25 24/24/24 23/23/23
f 25/25/25 23/23/23 26/26/26
f 28/28/28 27/27/27 24/24/24
f 28/28/28 24/24/24 25/25/25
f 31/31/31 30/30/30 29/29/29
f 30/30/30 32/32/32 29/29/29
f 35/35/35 34/34/34 33/33/33
f 34/34/34 36/36/36 33/33/33
f 39/39/39 38/38/38 37/37/37
f 39/39/39 40/40/40 38/38/38
f 43/43/43 42/42/42 41/41/41
f 43/43/43 44/44/44 42/42/42
f 45/45/45 28/28/28 25/25/25
f 45/45/45 46/46/46 28/28/28
f 49/49/49 48/48/48 47/47/47
f 49/49/49 50/50/50 48/48/48
