g pb_Mesh-545982
v -0.7500035 -6 0.124999836
v -1.0000036 -6 0.12499975
v -0.7499933 6 0.12500128
v -0.999993 6 0.12500295
v -1.0000036 -6 0.12499975
v -1.0000035 -6 -0.12500025
v -0.999993 6 0.12500295
v -0.99999386 6 -0.12499846
v -1.0000035 -6 -0.12500025
v -0.7500034 -6 -0.12500016
v -0.99999386 6 -0.12499846
v -0.749995 6 -0.12499841
v 0.9999966 -6 -0.12499954
v 0.9999965 -6 0.12500046
v 1.0000055 6 -0.12499814
v 1.0000063 6 0.12500326
v -0.7499933 6 0.12500128
v -0.999993 6 0.12500295
v -0.749995 6 -0.12499841
v -0.99999386 6 -0.12499846
v -0.7500034 -6 -0.12500016
v -1.0000035 -6 -0.12500025
v -0.7500035 -6 0.124999836
v -1.0000036 -6 0.12499975
v 0.7499966 -6 -0.12499963
v 0.7499965 -6 0.12500037
v 0.9999966 -6 -0.12499954
v 0.9999965 -6 0.12500046
v 0.7500066 6 -0.12499818
v 0.7499966 -6 -0.12499963
v 1.0000055 6 -0.12499814
v 0.9999966 -6 -0.12499954
v 0.7499965 -6 0.12500037
v 0.75000745 6 0.12500323
v 0.9999965 -6 0.12500046
v 1.0000063 6 0.12500326
v 0.75000745 6 0.12500323
v 0.7500066 6 -0.12499818
v 1.0000063 6 0.12500326
v 1.0000055 6 -0.12499814
v -0.7500035 -6 0.124999836
v -0.7499933 6 0.12500128
v -0.7500034 -6 -0.12500016
v -0.749995 6 -0.12499841
v 0.75000745 6 0.12500323
v 0.7499965 -6 0.12500037
v 0.7500066 6 -0.12499818
v 0.7499966 -6 -0.12499963
v -0.75000346 -6 -1.6391277E-07
v -0.74999416 6 1.4343468E-06
v 0.74999654 -6 3.7252903E-07
v 0.75000745 6 1.6690005E-06
vt -0.75000346 -6
vt -1.0000036 -6
vt -0.74999326 6
vt -0.99999297 6
vt -1.9999998 -6.000001
vt -2.2499998 -6.000001
vt -1.9999965 5.999999
vt -2.249998 5.999999
vt 1.0000035 -6
vt 0.75000346 -6
vt 0.9999939 6
vt 0.74999505 6
vt 2.25 -5.999999
vt 2 -5.999999
vt 2.2499986 6.000001
vt 1.9999973 6.000001
vt 0.7499933 -1.9999987
vt 0.999993 -1.999997
vt 0.749995 -2.2499983
vt 0.99999386 -2.2499986
vt -0.7500034 -2.2500002
vt -1.0000035 -2.2500002
vt -0.7500035 -2.0000002
vt -1.0000036 -2.0000002
vt 0.7499966 -2.2499995
vt 0.7499965 -1.9999996
vt 0.9999966 -2.2499995
vt 0.9999965 -1.9999995
vt -0.7500066 6
vt -0.7499966 -6
vt -1.0000055 6
vt -0.9999966 -6
vt 0.74999654 -6
vt 0.7500075 6
vt 0.99999654 -6
vt 1.0000063 6
vt -0.75000745 -1.9999968
vt -0.7500066 -2.249998
vt -1.0000063 -1.9999968
vt -1.0000055 -2.249998
vt 1.9999998 -6.0000005
vt 1.9999983 5.9999995
vt 2.2499998 -6.0000005
vt 2.249998 5.9999995
vt -1.9999943 6.0000005
vt -1.9999971 -5.9999995
vt -2.2499957 6.0000005
vt -2.2499971 -5.9999995
vt -0.75000346 -6
vt -0.74999416 6
vt 0.74999654 -6
vt 0.75000745 6
vn -3.5762778E-07 -1.2045075E-07 1
vn 3.1590503E-06 -1.9371788E-07 1
vn 3.1590503E-06 -1.9371788E-07 1
vn 6.6757284E-06 -2.66985E-07 1
vn -1 8.791687E-07 -4.7683716E-07
vn -1 8.394319E-07 1.4305019E-06
vn -1 8.394319E-07 1.4305019E-06
vn -1 7.996951E-07 3.337841E-06
vn 3.5762778E-07 1.4963221E-07 -1
vn 2.6822127E-07 1.4776964E-07 -1
vn 2.6822127E-07 1.4776964E-07 -1
vn 1.7881474E-07 1.4590708E-07 -1
vn 1 -7.400911E-07 4.7683716E-07
vn 1 -7.798271E-07 -1.4305022E-06
vn 1 -7.798271E-07 -1.4305022E-06
vn 1 -8.1956307E-07 -3.3378415E-06
vn -0 1 0
vn -0 1 0
vn -0 1 0
vn -0 1 0
vn -0 -1 0
vn -0 -1 0
vn -0 -1 0
vn -0 -1 0
vn -0 -1 0
vn -0 -1 0
vn -0 -1 0
vn -0 -1 0
vn 1.7881474E-07 1.204509E-07 -1
vn 2.682213E-07 1.18588204E-07 -1
vn 2.682213E-07 1.18588204E-07 -1
vn 3.5762787E-07 1.16725495E-07 -1
vn -3.5762787E-07 -2.3841825E-07 1
vn -2.3841886E-07 -2.3593483E-07 1
vn -2.3841886E-07 -2.3593483E-07 1
vn -1.1920983E-07 -2.3345143E-07 1
vn -0 1 0
vn -0 1 0
vn -0 1 0
vn -0 1 0
vn 1 -8.4936624E-07 4.7683716E-07
vn 1 -7.748599E-07 -3.0994456E-06
vn 1 -7.748599E-07 -3.0994456E-06
vn 1 -7.003536E-07 -6.6757284E-06
vn -1 9.139371E-07 3.337841E-06
vn -1 8.742011E-07 1.4305019E-06
vn -1 8.742011E-07 1.4305019E-06
vn -1 8.344651E-07 -4.7683716E-07
vn -3.5762787E-07 -1.3318802E-07 1
vn -2.5703176E-07 -1.2061359E-07 1
vn -2.5703176E-07 -1.2061359E-07 1
vn -1.5643565E-07 -1.0803915E-07 1
g pb_Mesh-545982_0
f 3/3/3 2/2/2 1/1/1
f 3/3/3 4/4/4 2/2/2
f 7/7/7 6/6/6 5/5/5
f 7/7/7 8/8/8 6/6/6
f 11/11/11 10/10/10 9/9/9
f 11/11/11 12/12/12 10/10/10
f 15/15/15 14/14/14 13/13/13
f 15/15/15 16/16/16 14/14/14
f 19/19/19 18/18/18 17/17/17
f 19/19/19 20/20/20 18/18/18
f 23/23/23 22/22/22 21/21/21
f 23/23/23 24/24/24 22/22/22
f 27/27/27 26/26/26 25/25/25
f 27/27/27 28/28/28 26/26/26
f 31/31/31 30/30/30 29/29/29
f 31/31/31 32/32/32 30/30/30
f 35/35/35 34/34/34 33/33/33
f 35/35/35 36/36/36 34/34/34
f 39/39/39 38/38/38 37/37/37
f 39/39/39 40/40/40 38/38/38
f 43/43/43 42/42/42 41/41/41
f 43/43/43 44/44/44 42/42/42
f 47/47/47 46/46/46 45/45/45
f 47/47/47 48/48/48 46/46/46
g pb_Mesh-545982_1
f 51/51/51 50/50/50 49/49/49
f 51/51/51 52/52/52 50/50/50
