g pb_Mesh100670
v -0.999997 0.5 3.1249983
v -4.1250014 0.5 3.1250014
v -0.999997 1 3.1249983
v -4.1250014 1 3.1250014
v -4.1250014 0.5 3.1250014
v -4.12501 0.5 -8.875003
v -4.1250014 1 3.1250014
v -4.12501 1 -8.875003
v -4.12501 0.5 -8.875003
v -1.0000085 0.5 -8.875016
v -4.12501 1 -8.875003
v -1.0000085 1 -8.875016
v -1.0000085 0.5 -8.875016
v -0.999997 0.5 3.1249983
v -1.0000085 1 -8.875016
v -0.999997 1 3.1249983
v -0.999997 1 3.1249983
v -4.1250014 1 3.1250014
v -1.0000085 1 -8.875016
v -4.12501 1 -8.875003
v -1.0000085 0.5 -8.875016
v -4.12501 0.5 -8.875003
v -0.999997 0.5 3.1249983
v -4.1250014 0.5 3.1250014
vt -1.0000001 0.5
vt -4.1250043 0.5
vt -1.0000001 1
vt -4.1250043 1
vt 3.1249986 0.5
vt -8.875006 0.5
vt 3.1249986 1
vt -8.875006 1
vt 4.124972 0.5
vt 0.99997056 0.5
vt 4.124972 1
vt 0.99997056 1
vt 8.875017 0.5
vt -3.1249974 0.5
vt 8.875017 1
vt -3.1249974 1
vt 0.999997 3.1249983
vt 4.1250014 3.1250014
vt 1.0000085 -8.875016
vt 4.12501 -8.875003
vt -1.0000085 -8.875016
vt -4.12501 -8.875003
vt -0.999997 3.1249983
vt -4.1250014 3.1250014
vn 9.918199E-07 0 1
vn 9.918199E-07 0 1
vn 9.918199E-07 0 1
vn 9.918199E-07 0 1
vn -1 0 7.152555E-07
vn -1 0 7.152555E-07
vn -1 0 7.152555E-07
vn -1 0 7.152555E-07
vn -4.272459E-06 0 -1
vn -4.272459E-06 0 -1
vn -4.272459E-06 0 -1
vn -4.272459E-06 0 -1
vn 1 0 -9.536732E-07
vn 1 0 -9.536732E-07
vn 1 0 -9.536732E-07
vn 1 0 -9.536732E-07
vn -0 1 0
vn -0 1 0
vn -0 1 0
vn -0 1 0
vn -0 -1 0
vn -0 -1 0
vn -0 -1 0
vn -0 -1 0
g pb_Mesh100670_0
f 3/3/3 2/2/2 1/1/1
f 3/3/3 4/4/4 2/2/2
f 7/7/7 6/6/6 5/5/5
f 7/7/7 8/8/8 6/6/6
f 11/11/11 10/10/10 9/9/9
f 11/11/11 12/12/12 10/10/10
f 15/15/15 14/14/14 13/13/13
f 15/15/15 16/16/16 14/14/14
f 19/19/19 18/18/18 17/17/17
f 19/19/19 20/20/20 18/18/18
f 23/23/23 22/22/22 21/21/21
f 23/23/23 24/24/24 22/22/22
