g pb_Mesh-546122
v -0.74999964 -3 0.24999985
v -0.99999964 -3 0.24999976
v -0.7499997 7 0.25000003
v -0.99999964 7 0.24999982
v -0.99999964 -3 0.24999976
v -0.9999995 -3 -2.3841858E-07
v -0.99999964 7 0.24999982
v -0.99999976 7 -1.3568952E-07
v -0.9999995 -3 -2.3841858E-07
v -0.7499995 -3 -1.4901161E-07
v -0.99999976 7 -1.3568952E-07
v -0.74999964 7 -6.6286916E-08
v 1.0000005 -3 4.7683716E-07
v 1.0000004 -3 0.25000048
v 1.0000005 7 5.99143E-07
v 1.0000004 7 0.2500007
v -0.7499997 7 0.25000003
v -0.99999964 7 0.24999982
v -0.74999964 7 -6.6286916E-08
v -0.99999976 7 -1.3568952E-07
v -0.7499995 -3 -1.4901161E-07
v -0.9999995 -3 -2.3841858E-07
v -0.74999964 -3 0.24999985
v -0.99999964 -3 0.24999976
v 0.7500005 -3 3.874302E-07
v 0.75000036 -3 0.2500004
v 1.0000005 -3 4.7683716E-07
v 1.0000004 -3 0.25000048
v 0.7500004 7 4.7667092E-07
v 0.7500005 -3 3.874302E-07
v 1.0000005 7 5.99143E-07
v 1.0000005 -3 4.7683716E-07
v 0.75000036 -3 0.2500004
v 0.75000036 7 0.25000054
v 1.0000004 -3 0.25000048
v 1.0000004 7 0.2500007
v 0.75000036 7 0.25000054
v 0.7500004 7 4.7667092E-07
v 1.0000004 7 0.2500007
v 1.0000005 7 5.99143E-07
v -0.74999964 -3 0.24999985
v -0.7499997 7 0.25000003
v -0.7499995 -3 -1.4901161E-07
v -0.74999964 7 -6.6286916E-08
v 0.75000036 7 0.25000054
v 0.75000036 -3 0.2500004
v 0.7500004 7 4.7667092E-07
v 0.7500005 -3 3.874302E-07
v -0.7499996 -3 0.12499985
v -0.7499997 7 0.124999985
v 0.7500004 -3 0.12500039
v 0.75000024 7 0.1250003
vt -0.7499996 -3
vt -0.9999996 -3
vt -0.7499996 7
vt -0.9999996 7
vt -1.8749998 -3
vt -2.1249998 -3
vt -1.8749998 7
vt -2.1249998 7
vt 0.9999995 -3
vt 0.7499995 -3
vt 0.99999976 7
vt 0.74999964 7
vt 2.125 -3
vt 1.875 -3
vt 2.1249998 7
vt 1.8749998 7
vt 0.7499997 -1.875
vt 0.99999964 -1.8750002
vt 0.74999964 -2.125
vt 0.99999976 -2.1250002
vt -0.7499995 -2.1250002
vt -0.9999995 -2.1250002
vt -0.74999964 -1.8750001
vt -0.99999964 -1.8750002
vt 0.7500005 -2.1249995
vt 0.75000036 -1.8749996
vt 1.0000005 -2.1249995
vt 1.0000004 -1.8749995
vt -0.7500004 7
vt -0.7500005 -3
vt -1.0000005 7
vt -1.0000005 -3
vt 0.7500005 -3
vt 0.7500005 7
vt 1.0000005 -3
vt 1.0000005 7
vt -0.75000036 -1.8749995
vt -0.7500004 -2.1249995
vt -1.0000004 -1.8749993
vt -1.0000005 -2.1249993
vt 1.8749998 -3
vt 1.8749996 7
vt 2.1249998 -3
vt 2.1249998 7
vt -1.8749996 7
vt -1.8749998 -3
vt -2.1249998 7
vt -2.1249998 -3
vt -0.7499995 -3
vt -0.74999964 7
vt 0.7500005 -3
vt 0.7500003 7
vn -3.5762787E-07 -1.7881396E-08 1
vn -5.9604656E-07 -1.192093E-08 1
vn -5.9604656E-07 -1.192093E-08 1
vn -8.344652E-07 -5.960464E-09 1
vn -1 2.842171E-15 -4.7683716E-07
vn -1 -1.1920929E-08 5.684342E-14
vn -1 -1.1920929E-08 5.684342E-14
vn -1 -2.3841862E-08 4.768373E-07
vn 3.5762787E-07 1.0272915E-08 -1
vn 3.1761908E-07 9.272694E-09 -1
vn 3.1761908E-07 9.272694E-09 -1
vn 2.7761027E-07 8.2724725E-09 -1
vn 1 -5.8319968E-15 4.7683716E-07
vn 1 -7.889796E-15 4.7683707E-07
vn 1 -7.889796E-15 4.7683707E-07
vn 1 -9.947595E-15 4.76837E-07
vn -0 1 0
vn -0 1 0
vn -0 1 0
vn -0 1 0
vn -0 -1 0
vn -0 -1 0
vn -0 -1 0
vn -0 -1 0
vn -0 -1 0
vn -0 -1 0
vn -0 -1 0
vn -0 -1 0
vn 4.8988824E-07 8.924076E-09 -1
vn 4.2375805E-07 1.0577329E-08 -1
vn 4.2375805E-07 1.0577329E-08 -1
vn 3.5762787E-07 1.2230584E-08 -1
vn -3.5762787E-07 -1.4901161E-08 1
vn -4.7683716E-07 -1.7881394E-08 1
vn -4.7683716E-07 -1.7881394E-08 1
vn -5.9604645E-07 -2.0861625E-08 1
vn -0 1 0
vn -0 1 0
vn -0 1 0
vn -0 1 0
vn 1 5.960456E-09 4.7683716E-07
vn 1 8.940692E-09 3.576278E-07
vn 1 8.940692E-09 3.576278E-07
vn 1 1.1920927E-08 2.384185E-07
vn -1 3.552713E-15 -2.3841854E-07
vn -1 -2.9802283E-09 -3.5762784E-07
vn -1 -2.9802283E-09 -3.5762784E-07
vn -1 -5.96046E-09 -4.7683716E-07
vn -3.5762787E-07 -1.3411049E-08 1
vn -2.8312206E-07 -2.2351778E-09 1
vn -2.8312206E-07 -2.2351778E-09 1
vn -2.0861626E-07 8.9406935E-09 1
g pb_Mesh-546122_0
f 3/3/3 2/2/2 1/1/1
f 3/3/3 4/4/4 2/2/2
f 7/7/7 6/6/6 5/5/5
f 7/7/7 8/8/8 6/6/6
f 11/11/11 10/10/10 9/9/9
f 11/11/11 12/12/12 10/10/10
f 15/15/15 14/14/14 13/13/13
f 15/15/15 16/16/16 14/14/14
f 19/19/19 18/18/18 17/17/17
f 19/19/19 20/20/20 18/18/18
f 23/23/23 22/22/22 21/21/21
f 23/23/23 24/24/24 22/22/22
f 27/27/27 26/26/26 25/25/25
f 27/27/27 28/28/28 26/26/26
f 31/31/31 30/30/30 29/29/29
f 31/31/31 32/32/32 30/30/30
f 35/35/35 34/34/34 33/33/33
f 35/35/35 36/36/36 34/34/34
f 39/39/39 38/38/38 37/37/37
f 39/39/39 40/40/40 38/38/38
f 43/43/43 42/42/42 41/41/41
f 43/43/43 44/44/44 42/42/42
f 47/47/47 46/46/46 45/45/45
f 47/47/47 48/48/48 46/46/46
g pb_Mesh-546122_1
f 51/51/51 50/50/50 49/49/49
f 51/51/51 52/52/52 50/50/50
