g pb_Mesh96330
v -14 0 -10
v -16 0 -18
v -16 0 -10
v -14 0 -18
v -20 0 -10
v -22 0 -18
v -22 0 -10
v -20 0 -18
v -0 0 0
v -14 0 0
v -14 5 0
v -0 5 0
v -14 5 -10
v -0 0 -10
v -0 5 -10
v -14 0 -10
v -14 5 -18
v -14 0 -10
v -14 5 -10
v -14 0 -18
v -22 0 -10
v -22 0 -18
v -22 5 -18
v -22 5 -10
v -16 0 0
v -16 5 0
v -16 5 -18
v -14 0 -18
v -14 5 -18
v -16 0 -18
v -20 0 0
v -22 0 0
v -22 5 0
v -20 5 0
v -22 5 -18
v -20 0 -18
v -20 5 -18
v -22 0 -18
v -16 0 -18
v -16 5 -18
v -16 0 -17
v -16 5 -17
v -16 5 -18
v -20 5 -18
v -16 5 -17
v -20 5 -17
v -20 5 -18
v -20 0 -18
v -20 5 -17
v -20 0 -17
v -16 0 -17
v -16 5 -17
v -15 0 -17
v -15 8 -17
v -20 5 -17
v -21 8 -17
v -20 0 -17
v -21 0 -17
v -20 0 0
v -20 5 0
v -20 0 -1
v -20 5 -1
v -16 5 0
v -16 0 0
v -16 5 -1
v -16 0 -1
v -20 5 0
v -16 5 0
v -20 5 -1
v -16 5 -1
v -15 0 -1
v -15 8 -1
v -16 0 -1
v -16 5 -1
v -21 8 -1
v -20 5 -1
v -21 0 -1
v -20 0 -1
v -15 0 -8
v -15 0 -17
v -15 8 -17
v -15 8 -7
v -15 8 -7
v -21 8 -17
v -21 8 -7
v -15 8 -17
v -21 8 -17
v -21 0 -8
v -21 8 -7
v -21 0 -17
v -15 0 -1
v -15 0 -2
v -15 8 -3
v -15 8 -1
v -15 8 -1
v -21 8 -3
v -21 8 -1
v -15 8 -3
v -21 8 -3
v -21 0 -1
v -21 8 -1
v -21 0 -2
v -18 8 -7
v -18 8 -3
v -18 16 -7
v -18 16 -3
v -21 8 -3
v -15 8 -3
v -21 16 -3
v -15 16 -3
v -15 16 -3
v -15 16 -7
v -15 8 -7
v -21 8 -7
v -15 16 -7
v -21 16 -7
v -0 0 -2
v -14 0 -2
v -0 0 -10
v -0 0 0
v -14 0 0
v -16 0 -2
v -16 0 0
v -20 0 -2
v -22 0 -2
v -20 0 0
v -22 0 0
v -22 0 0
v -22 0 -2
v -22 5 -2
v -22 5 0
v -0 5 -2
v -0 0 0
v -0 5 0
v -0 0 -2
v -0 5 -10
v -0 0 -10
v -18 8 -7
v -18 8 -3
v -21 16 -7
v -21 8 -7
v -18 16 -7
v -18 8 -7
v -21 8 -3
v -21 16 -3
v -18 8 -3
v -18 16 -3
v -14 8 0
v -0 8 0
v -14 8 -10
v -0 8 -10
v -14 8 -18
v -14 8 -10
v -22 8 -18
v -22 8 -10
v -16 8 0
v -15 7 -18
v -14 8 -18
v -20.5 8 0
v -22 8 0
v -21 7 -18
v -22 8 -18
v -22 8 -2
v -22 8 0
v -0 8 -2
v -0 8 0
v -0 8 -10
v -14 9 0
v -0 9 0
v -14 16 0
v -0 16 0
v -14 9 -10
v -0 9 -10
v -14 16 -10
v -0 16 -10
v -14 9 -18
v -14 9 -10
v -14 16 -18
v -14 16 -10
v -22 9 -18
v -22 9 -10
v -22 16 -18
v -22 16 -10
v -16 9 0
v -16 16 0
v -15 9 -18
v -14 9 -18
v -16 16 -18
v -14 16 -18
v -20.75 9 0
v -21 16 0
v -22 9 0
v -22 16 0
v -21 9 -21
v -15 7 -21
v -15 9 -21
v -21 7 -21
v -20 13 -16
v -16 9 -16
v -16 13 -16
v -20 9 -16
v -22 9 -18
v -21 9 -18
v -22 16 -18
v -20 16 -18
v -22 9 -2
v -22 9 0
v -22 16 -2
v -22 16 0
v -0 9 -2
v -0 9 0
v -0 16 -2
v -0 16 0
v -0 9 -10
v -0 16 -10
v -15 7 -18
v -15 9 -18
v -15 7 -21
v -15 9 -21
v -21 9 -18
v -21 7 -18
v -21 9 -21
v -21 7 -21
v -21 7 -18
v -15 7 -18
v -21 7 -21
v -15 7 -21
v -15 9 -21
v -15 9 -18
v -16 9 -20
v -16 9 -18
v -21 9 -18
v -21 9 -21
v -20 9 -18
v -20 9 -20
v -16 8 -16
v -20 8 -16
v -16 9 -20
v -16 9 -18
v -16 8 -20
v -16 8 -18
v -20 9 -18
v -20 9 -20
v -20 8 -18
v -20 8 -20
v -20 9 -20
v -16 9 -20
v -20 8 -20
v -16 8 -20
v -16 9 -18
v -16 13 -18
v -20 13 -18
v -20 9 -18
v -16 8 -16
v -16 9 -16
v -20 9 -16
v -20 8 -16
v -16 13 -18
v -16 13 -16
v -16 13 -18
v -20 13 -18
v -16 13 -16
v -20 13 -16
v -20 13 -18
v -20 13 -16
v -16 16 -18
v -14 16 -18
v -14 16 -10
v -15 16 -7
v -22 16 -18
v -20 16 -18
v -21 16 -7
v -22 16 -10
v -0 16 -10
v -0 16 -2
v -14 16 -2
v -0 16 0
v -14 16 0
v -15 16 -3
v -16 16 0
v -21 16 -3
v -22 16 -2
v -21 16 0
v -22 16 0
v -18 16 -3
v -18 16 -7
v -16 8 -18
v -20 8 -18
v -16 8 -20
v -20 8 -20
v -20 8 -16
v -16 8 -16
vt -14 -10
vt -16 -18
vt -16 -10
vt -14 -18
vt -20 -10
vt -22 -18
vt -22 -10
vt -20 -18
vt 0 0
vt -14 0
vt -14 5
vt 0 5
vt 14 5
vt 0 0
vt 0 5
vt 14 0
vt 18 5
vt 10 0
vt 10 5
vt 18 0
vt -10 0
vt -18 0
vt -18 5
vt -10 5
vt -16 0
vt -16 5
vt 16 5
vt 14 0
vt 14 5
vt 16 0
vt -20 0
vt -22 0
vt -22 5
vt -20 5
vt 22 5
vt 20 0
vt 20 5
vt 22 0
vt -18 0
vt -18 5
vt -17 0
vt -17 5
vt -16 -18
vt -20 -18
vt -16 -17
vt -20 -17
vt 18 5
vt 18 0
vt 17 5
vt 17 0
vt -16 0
vt -16 5
vt -15 0
vt -15 8
vt -20 5
vt -21 8
vt -20 0
vt -21 0
vt 0 0
vt 0 5
vt 1 0
vt 1 5
vt 0 5
vt 0 0
vt -1 5
vt -1 0
vt -20 0
vt -16 0
vt -20 -1
vt -16 -1
vt 15 0
vt 15 8
vt 16 0
vt 16 5
vt 21 8
vt 20 5
vt 21 0
vt 20 0
vt -8 0
vt -17 0
vt -17 8
vt -7 8
vt -15 -7
vt -21 -17
vt -21 -7
vt -15 -17
vt 17 8
vt 8 0
vt 7 8
vt 17 0
vt -1 0
vt -2 0
vt -3 8
vt -1 8
vt -15 -1
vt -21 -3
vt -21 -1
vt -15 -3
vt 3 8
vt 1 0
vt 1 8
vt 2 0
vt 7 8
vt 3 8
vt 7 16
vt 3 16
vt 21 8
vt 15 8
vt 21 16
vt 15 16
vt -3 16
vt -7 16
vt -15 8
vt -21 8
vt -15 16
vt -21 16
vt 0 -2
vt -14 -2
vt 0 -10
vt 0 0
vt -14 0
vt -16 -2
vt -16 0
vt -20 -2
vt -22 -2
vt -20 0
vt -22 0
vt 0 0
vt -2 0
vt -2 5
vt 0 5
vt 2 5
vt 0 0
vt 0 5
vt 2 0
vt 10 5
vt 10 0
vt -18 -7
vt -18 -3
vt 21 16
vt 21 8
vt 18 16
vt 18 8
vt -21 8
vt -21 16
vt -18 8
vt -18 16
vt -14 8
vt 0 8
vt 14 8
vt 0 8
vt 18 8
vt 10 8
vt -18 8
vt -10 8
vt -16 8
vt 15 7
vt 14 8
vt -20.5 8
vt -22 8
vt 21 7
vt 22 8
vt -2 8
vt 0 8
vt 2 8
vt 0 8
vt 10 8
vt -14 9
vt 0 9
vt -14 16
vt 0 16
vt 14 9
vt 0 9
vt 14 16
vt 0 16
vt 18 9
vt 10 9
vt 18 16
vt 10 16
vt -18 9
vt -10 9
vt -18 16
vt -10 16
vt -16 9
vt -16 16
vt 15 9
vt 14 9
vt 16 16
vt 14 16
vt -20.75 9
vt -21 16
vt -22 9
vt -22 16
vt 21 9
vt 15 7
vt 15 9
vt 21 7
vt 20 13
vt 16 9
vt 16 13
vt 20 9
vt 22 9
vt 21 9
vt 22 16
vt 20 16
vt -2 9
vt 0 9
vt -2 16
vt 0 16
vt 2 9
vt 0 9
vt 2 16
vt 0 16
vt 10 9
vt 10 16
vt 18 7
vt 18 9
vt 21 7
vt 21 9
vt -18 9
vt -18 7
vt -21 9
vt -21 7
vt -21 -18
vt -15 -18
vt -21 -21
vt -15 -21
vt 15 -21
vt 15 -18
vt 16 -20
vt 16 -18
vt 21 -18
vt 21 -21
vt 20 -18
vt 20 -20
vt 16 8
vt 20 8
vt -20 9
vt -18 9
vt -20 8
vt -18 8
vt 18 9
vt 20 9
vt 18 8
vt 20 8
vt -20 9
vt -16 9
vt -20 8
vt -16 8
vt 16 9
vt 16 13
vt 20 13
vt 20 9
vt -16 8
vt -16 9
vt 16 9
vt 16 8
vt -18 13
vt -16 13
vt -16 -18
vt -20 -18
vt -16 -16
vt -20 -16
vt 18 13
vt 16 13
vt 16 -18
vt 14 -18
vt 14 -10
vt 15 -7
vt 22 -18
vt 20 -18
vt 21 -7
vt 22 -10
vt 0 -10
vt 0 -2
vt 14 -2
vt 0 0
vt 14 0
vt 15 -3
vt 16 0
vt 21 -3
vt 22 -2
vt 21 0
vt 22 0
vt 18 -3
vt 18 -7
vt 16 -18
vt 20 -18
vt 16 -20
vt 20 -20
vt 20 -16
vt 16 -16
vn -0 -1 0
vn -0 -1 0
vn -0 -1 0
vn -0 -1 0
vn -0 -1 0
vn -0 -1 0
vn -0 -1 0
vn -0 -1 0
vn -0 0 1
vn -0 0 1
vn -0 0 1
vn -0 0 1
vn -0 0 -1
vn -0 0 -1
vn -0 0 -1
vn -0 0 -1
vn 1 0 0
vn 1 0 0
vn 1 0 0
vn 1 0 0
vn -1 0 0
vn -1 0 0
vn -1 0 0
vn -1 0 0
vn -0 0 1
vn -0 0 1
vn -0 0 -1
vn -0 0 -1
vn -0 0 -1
vn -0 0 -1
vn -0 0 1
vn -0 0 1
vn -0 0 1
vn -0 0 1
vn -0 0 -1
vn -0 0 -1
vn -0 0 -1
vn -0 0 -1
vn -1 0 0
vn -1 0 0
vn -1 0 0
vn -1 0 0
vn -0 -1 0
vn -0 -1 0
vn -0 -1 0
vn -0 -1 0
vn 1 0 0
vn 1 0 0
vn 1 0 0
vn 1 0 0
vn -0 0 1
vn -0 0 1
vn -0 0 1
vn -0 0 1
vn -0 0 1
vn -0 0 1
vn -0 0 1
vn -0 0 1
vn 1 0 0
vn 1 0 0
vn 1 0 0
vn 1 0 0
vn -1 0 0
vn -1 0 0
vn -1 0 0
vn -1 0 0
vn -0 -1 0
vn -0 -1 0
vn -0 -1 0
vn -0 -1 0
vn -0 0 -1
vn -0 0 -1
vn -0 0 -1
vn -0 0 -1
vn -0 0 -1
vn -0 0 -1
vn -0 0 -1
vn -0 0 -1
vn -1 0 0
vn -1 0 0
vn -1 0 0
vn -1 0 0
vn -0 -1 0
vn -0 -1 0
vn -0 -1 0
vn -0 -1 0
vn 1 0 0
vn 1 0 0
vn 1 0 0
vn 1 0 0
vn -1 0 0
vn -1 0 0
vn -1 0 0
vn -1 0 0
vn -0 -1 0
vn -0 -1 0
vn -0 -1 0
vn -0 -1 0
vn 1 0 0
vn 1 0 0
vn 1 0 0
vn 1 0 0
vn 1 0 0
vn 1 0 0
vn 1 0 0
vn 1 0 0
vn -0 0 -1
vn -0 0 -1
vn -0 0 -1
vn -0 0 -1
vn -1 0 0
vn -1 0 0
vn -0 0 1
vn -0 0 1
vn -0 0 1
vn -0 0 1
vn -0 -1 0
vn -0 -1 0
vn -0 -1 0
vn -0 -1 0
vn -0 -1 0
vn -0 -1 0
vn -0 -1 0
vn -0 -1 0
vn -0 -1 0
vn -0 -1 0
vn -0 -1 0
vn -1 0 0
vn -1 0 0
vn -1 0 0
vn -1 0 0
vn 1 0 0
vn 1 0 0
vn 1 0 0
vn 1 0 0
vn 1 0 0
vn 1 0 0
vn -0 -1 0
vn -0 -1 0
vn -0 0 -1
vn -0 0 -1
vn -0 0 -1
vn -0 0 -1
vn -0 0 1
vn -0 0 1
vn -0 0 1
vn -0 0 1
vn -0 0 1
vn -0 0 1
vn -0 0 -1
vn -0 0 -1
vn 1 0 0
vn 1 0 0
vn -1 0 0
vn -1 0 0
vn -0 0 1
vn -0 0 -1
vn -0 0 -1
vn -0 0 1
vn -0 0 1
vn -0 0 -1
vn -0 0 -1
vn -1 0 0
vn -1 0 0
vn 1 0 0
vn 1 0 0
vn 1 0 0
vn -0 0 1
vn -0 0 1
vn -0 0 1
vn -0 0 1
vn -0 0 -1
vn -0 0 -1
vn -0 0 -1
vn -0 0 -1
vn 1 0 0
vn 1 0 0
vn 1 0 0
vn 1 0 0
vn -1 0 0
vn -1 0 0
vn -1 0 0
vn -1 0 0
vn -0 0 1
vn -0 0 1
vn -0 0 -1
vn -0 0 -1
vn -0 0 -1
vn -0 0 -1
vn -0 0 1
vn -0 0 1
vn -0 0 1
vn -0 0 1
vn -0 0 -1
vn -0 0 -1
vn -0 0 -1
vn -0 0 -1
vn -0 0 -1
vn -0 0 -1
vn -0 0 -1
vn -0 0 -1
vn -0 0 -1
vn -0 0 -1
vn -0 0 -1
vn -0 0 -1
vn -1 0 0
vn -1 0 0
vn -1 0 0
vn -1 0 0
vn 1 0 0
vn 1 0 0
vn 1 0 0
vn 1 0 0
vn 1 0 0
vn 1 0 0
vn 1 0 0
vn 1 0 0
vn 1 0 0
vn 1 0 0
vn -1 0 0
vn -1 0 0
vn -1 0 0
vn -1 0 0
vn -0 -1 0
vn -0 -1 0
vn -0 -1 0
vn -0 -1 0
vn -0 1 0
vn -0 1 0
vn -0 1 0
vn -0 1 0
vn -0 1 0
vn -0 1 0
vn -0 1 0
vn -0 1 0
vn -0 0 -1
vn -0 0 -1
vn -1 0 0
vn -1 0 0
vn -1 0 0
vn -1 0 0
vn 1 0 0
vn 1 0 0
vn 1 0 0
vn 1 0 0
vn -0 0 1
vn -0 0 1
vn -0 0 1
vn -0 0 1
vn -0 0 -1
vn -0 0 -1
vn -0 0 -1
vn -0 0 -1
vn -1 0 0
vn -1 0 0
vn 1 0 0
vn 1 0 0
vn -1 0 0
vn -1 0 0
vn -0 -1 0
vn -0 -1 0
vn -0 -1 0
vn -0 -1 0
vn 1 0 0
vn 1 0 0
vn -0 1 0
vn -0 1 0
vn -0 1 0
vn -0 1 0
vn -0 1 0
vn -0 1 0
vn -0 1 0
vn -0 1 0
vn -0 1 0
vn -0 1 0
vn -0 1 0
vn -0 1 0
vn -0 1 0
vn -0 1 0
vn -0 1 0
vn -0 1 0
vn -0 1 0
vn -0 1 0
vn -0 1 0
vn -0 1 0
vn -0 1 0
vn -0 1 0
vn -0 1 0
vn -0 1 0
vn -0 1 0
vn -0 1 0
vn -0 1 0
g pb_Mesh96330_0
f 3/3/3 2/2/2 1/1/1
f 2/2/2 4/4/4 1/1/1
f 7/7/7 6/6/6 5/5/5
f 6/6/6 8/8/8 5/5/5
f 5/5/5 8/8/8 3/3/3
f 8/8/8 2/2/2 3/3/3
f 11/11/11 10/10/10 9/9/9
f 11/11/11 9/9/9 12/12/12
f 15/15/15 14/14/14 13/13/13
f 14/14/14 16/16/16 13/13/13
f 19/19/19 18/18/18 17/17/17
f 18/18/18 20/20/20 17/17/17
f 23/23/23 22/22/22 21/21/21
f 23/23/23 21/21/21 24/24/24
f 26/26/26 25/25/25 10/10/10
f 26/26/26 10/10/10 11/11/11
f 29/29/29 28/28/28 27/27/27
f 28/28/28 30/30/30 27/27/27
f 33/33/33 32/32/32 31/31/31
f 33/33/33 31/31/31 34/34/34
f 37/37/37 36/36/36 35/35/35
f 36/36/36 38/38/38 35/35/35
f 41/41/41 40/40/40 39/39/39
f 41/41/41 42/42/42 40/40/40
f 45/45/45 44/44/44 43/43/43
f 45/45/45 46/46/46 44/44/44
f 49/49/49 48/48/48 47/47/47
f 49/49/49 50/50/50 48/48/48
f 53/53/53 52/52/52 51/51/51
f 53/53/53 54/54/54 52/52/52
f 54/54/54 55/55/55 52/52/52
f 54/54/54 56/56/56 55/55/55
f 56/56/56 57/57/57 55/55/55
f 56/56/56 58/58/58 57/57/57
f 61/61/61 60/60/60 59/59/59
f 61/61/61 62/62/62 60/60/60
f 65/65/65 64/64/64 63/63/63
f 65/65/65 66/66/66 64/64/64
f 69/69/69 68/68/68 67/67/67
f 69/69/69 70/70/70 68/68/68
f 73/73/73 72/72/72 71/71/71
f 73/73/73 74/74/74 72/72/72
f 74/74/74 75/75/75 72/72/72
f 74/74/74 76/76/76 75/75/75
f 76/76/76 77/77/77 75/75/75
f 76/76/76 78/78/78 77/77/77
f 81/81/81 80/80/80 79/79/79
f 81/81/81 79/79/79 82/82/82
f 85/85/85 84/84/84 83/83/83
f 84/84/84 86/86/86 83/83/83
f 89/89/89 88/88/88 87/87/87
f 88/88/88 90/90/90 87/87/87
f 93/93/93 92/92/92 91/91/91
f 93/93/93 91/91/91 94/94/94
f 82/82/82 79/79/79 92/92/92
f 82/82/82 92/92/92 93/93/93
f 97/97/97 96/96/96 95/95/95
f 96/96/96 98/98/98 95/95/95
f 101/101/101 100/100/100 99/99/99
f 100/100/100 102/102/102 99/99/99
f 99/99/99 102/102/102 89/89/89
f 102/102/102 88/88/88 89/89/89
f 105/105/105 104/104/104 103/103/103
f 105/105/105 106/106/106 104/104/104
f 109/109/109 108/108/108 107/107/107
f 109/109/109 110/110/110 108/108/108
f 111/111/111 82/82/82 93/93/93
f 111/111/111 112/112/112 82/82/82
f 115/115/115 114/114/114 113/113/113
f 115/115/115 116/116/116 114/114/114
f 118/118/118 1/1/1 117/117/117
f 1/1/1 119/119/119 117/117/117
f 121/121/121 118/118/118 120/120/120
f 118/118/118 117/117/117 120/120/120
f 122/122/122 3/3/3 118/118/118
f 3/3/3 1/1/1 118/118/118
f 123/123/123 122/122/122 121/121/121
f 122/122/122 118/118/118 121/121/121
f 125/125/125 7/7/7 124/124/124
f 7/7/7 5/5/5 124/124/124
f 127/127/127 125/125/125 126/126/126
f 125/125/125 124/124/124 126/126/126
f 124/124/124 5/5/5 122/122/122
f 5/5/5 3/3/3 122/122/122
f 126/126/126 124/124/124 123/123/123
f 124/124/124 122/122/122 123/123/123
f 130/130/130 129/129/129 128/128/128
f 130/130/130 128/128/128 131/131/131
f 24/24/24 21/21/21 129/129/129
f 24/24/24 129/129/129 130/130/130
f 134/134/134 133/133/133 132/132/132
f 133/133/133 135/135/135 132/132/132
f 132/132/132 135/135/135 136/136/136
f 135/135/135 137/137/137 136/136/136
f 138/138/138 96/96/96 85/85/85
f 138/138/138 139/139/139 96/96/96
f 142/142/142 141/141/141 140/140/140
f 142/142/142 143/143/143 141/141/141
f 146/146/146 145/145/145 144/144/144
f 146/146/146 147/147/147 145/145/145
f 148/148/148 11/11/11 12/12/12
f 148/148/148 12/12/12 149/149/149
f 151/151/151 15/15/15 150/150/150
f 15/15/15 13/13/13 150/150/150
f 153/153/153 19/19/19 152/152/152
f 19/19/19 17/17/17 152/152/152
f 154/154/154 23/23/23 24/24/24
f 154/154/154 24/24/24 155/155/155
f 156/156/156 26/26/26 11/11/11
f 156/156/156 11/11/11 148/148/148
f 158/158/158 29/29/29 157/157/157
f 29/29/29 27/27/27 157/157/157
f 34/34/34 26/26/26 156/156/156
f 159/159/159 34/34/34 156/156/156
f 34/34/34 159/159/159 33/33/33
f 159/159/159 160/160/160 33/33/33
f 157/157/157 27/27/27 161/161/161
f 27/27/27 37/37/37 161/161/161
f 161/161/161 37/37/37 162/162/162
f 37/37/37 35/35/35 162/162/162
f 163/163/163 130/130/130 131/131/131
f 163/163/163 131/131/131 164/164/164
f 155/155/155 24/24/24 130/130/130
f 155/155/155 130/130/130 163/163/163
f 166/166/166 134/134/134 165/165/165
f 134/134/134 132/132/132 165/165/165
f 165/165/165 132/132/132 167/167/167
f 132/132/132 136/136/136 167/167/167
f 168/168/168 148/148/148 149/149/149
f 168/168/168 149/149/149 169/169/169
f 170/170/170 168/168/168 169/169/169
f 170/170/170 169/169/169 171/171/171
f 173/173/173 151/151/151 172/172/172
f 151/151/151 150/150/150 172/172/172
f 175/175/175 173/173/173 174/174/174
f 173/173/173 172/172/172 174/174/174
f 177/177/177 153/153/153 176/176/176
f 153/153/153 152/152/152 176/176/176
f 179/179/179 177/177/177 178/178/178
f 177/177/177 176/176/176 178/178/178
f 180/180/180 154/154/154 155/155/155
f 180/180/180 155/155/155 181/181/181
f 182/182/182 180/180/180 181/181/181
f 182/182/182 181/181/181 183/183/183
f 184/184/184 156/156/156 148/148/148
f 184/184/184 148/148/148 168/168/168
f 185/185/185 184/184/184 168/168/168
f 185/185/185 168/168/168 170/170/170
f 187/187/187 158/158/158 186/186/186
f 158/158/158 157/157/157 186/186/186
f 189/189/189 187/187/187 188/188/188
f 187/187/187 186/186/186 188/188/188
f 190/190/190 184/184/184 185/185/185
f 191/191/191 190/190/190 185/185/185
f 159/159/159 156/156/156 184/184/184
f 190/190/190 159/159/159 184/184/184
f 190/190/190 191/191/191 192/192/192
f 191/191/191 193/193/193 192/192/192
f 159/159/159 190/190/190 160/160/160
f 190/190/190 192/192/192 160/160/160
f 196/196/196 195/195/195 194/194/194
f 195/195/195 197/197/197 194/194/194
f 200/200/200 199/199/199 198/198/198
f 199/199/199 201/201/201 198/198/198
f 203/203/203 161/161/161 202/202/202
f 161/161/161 162/162/162 202/202/202
f 205/205/205 203/203/203 204/204/204
f 203/203/203 202/202/202 204/204/204
f 206/206/206 163/163/163 164/164/164
f 206/206/206 164/164/164 207/207/207
f 208/208/208 206/206/206 207/207/207
f 208/208/208 207/207/207 209/209/209
f 181/181/181 155/155/155 163/163/163
f 181/181/181 163/163/163 206/206/206
f 183/183/183 181/181/181 206/206/206
f 183/183/183 206/206/206 208/208/208
f 211/211/211 166/166/166 210/210/210
f 166/166/166 165/165/165 210/210/210
f 213/213/213 211/211/211 212/212/212
f 211/211/211 210/210/210 212/212/212
f 210/210/210 165/165/165 214/214/214
f 165/165/165 167/167/167 214/214/214
f 212/212/212 210/210/210 215/215/215
f 210/210/210 214/214/214 215/215/215
f 218/218/218 217/217/217 216/216/216
f 218/218/218 219/219/219 217/217/217
f 222/222/222 221/221/221 220/220/220
f 222/222/222 223/223/223 221/221/221
f 226/226/226 225/225/225 224/224/224
f 226/226/226 227/227/227 225/225/225
f 230/230/230 229/229/229 228/228/228
f 230/230/230 231/231/231 229/229/229
f 234/234/234 233/233/233 232/232/232
f 234/234/234 235/235/235 233/233/233
f 235/235/235 228/228/228 233/233/233
f 235/235/235 230/230/230 228/228/228
f 236/236/236 201/201/201 199/199/199
f 236/236/236 237/237/237 201/201/201
f 240/240/240 239/239/239 238/238/238
f 240/240/240 241/241/241 239/239/239
f 244/244/244 243/243/243 242/242/242
f 244/244/244 245/245/245 243/243/243
f 248/248/248 247/247/247 246/246/246
f 248/248/248 249/249/249 247/247/247
f 250/250/250 188/188/188 186/186/186
f 251/251/251 205/205/205 188/188/188
f 251/251/251 252/252/252 205/205/205
f 252/252/252 203/203/203 205/205/205
f 252/252/252 253/253/253 203/203/203
f 254/254/254 239/239/239 241/241/241
f 254/254/254 255/255/255 239/239/239
f 256/256/256 244/244/244 242/242/242
f 256/256/256 257/257/257 244/244/244
f 255/255/255 258/258/258 239/239/239
f 255/255/255 259/259/259 258/258/258
f 262/262/262 261/261/261 260/260/260
f 262/262/262 263/263/263 261/261/261
f 265/265/265 242/242/242 264/264/264
f 265/265/265 256/256/256 242/242/242
g pb_Mesh96330_1
f 268/268/268 267/267/267 266/266/266
f 268/268/268 266/266/266 269/269/269
f 272/272/272 271/271/271 270/270/270
f 272/272/272 270/270/270 273/273/273
f 269/269/269 266/266/266 271/271/271
f 269/269/269 271/271/271 272/272/272
f 275/275/275 274/274/274 268/268/268
f 275/275/275 268/268/268 276/276/276
f 277/277/277 275/275/275 276/276/276
f 277/277/277 276/276/276 278/278/278
f 276/276/276 268/268/268 269/269/269
f 276/276/276 269/269/269 279/279/279
f 278/278/278 276/276/276 279/279/279
f 278/278/278 279/279/279 280/280/280
f 281/281/281 272/272/272 273/273/273
f 281/281/281 273/273/273 282/282/282
f 283/283/283 281/281/281 282/282/282
f 283/283/283 282/282/282 284/284/284
f 280/280/280 279/279/279 281/281/281
f 280/280/280 281/281/281 283/283/283
f 285/285/285 272/272/272 281/281/281
f 285/285/285 286/286/286 272/272/272
f 289/289/289 288/288/288 287/287/287
f 289/289/289 290/290/290 288/288/288
f 291/291/291 287/287/287 288/288/288
f 291/291/291 292/292/292 287/287/287
