g pb_Mesh80186
v -0 0 0
v -8 0 0
v -0 0 6
v -8 0 6
v -0 0 6
v -8 0 6
v -8 12 6
v -0 12 6
v -8 0 6
v -8 0 0
v -8 12 0
v -8 12 6
v -8 12 0
v -0 0 0
v -0 12 0
v -8 0 0
v -0 12 0
v -0 0 6
v -0 12 6
v -0 0 0
v -0 14 6
v -8 14 6
v -0 14 0
v -8 14 0
v -0 12 6
v -8 12 6
v -8 14 6
v -0 14 6
v -8 12 6
v -8 12 0
v -8 14 0
v -8 14 6
v -8 14 0
v -0 12 0
v -0 14 0
v -8 12 0
v -0 14 0
v -0 12 6
v -0 14 6
v -0 12 0
vt 0 0
vt -8 0
vt 0 6
vt -8 6
vt 0 0
vt -8 0
vt -8 12
vt 0 12
vt 6 0
vt 0 0
vt 0 12
vt 6 12
vt 8 12
vt 0 0
vt 0 12
vt 8 0
vt 0 12
vt -6 0
vt -6 12
vt 0 0
vt 0 6
vt 8 6
vt 0 0
vt 8 0
vt 0 12
vt -8 12
vt -8 14
vt 0 14
vt 6 12
vt 0 12
vt 0 14
vt 6 14
vt 8 14
vt 0 12
vt 0 14
vt 8 12
vt 0 14
vt -6 12
vt -6 14
vt 0 12
vn -0 -1 0
vn -0 -1 0
vn -0 -1 0
vn -0 -1 0
vn -0 0 1
vn -0 0 1
vn -0 0 1
vn -0 0 1
vn -1 0 0
vn -1 0 0
vn -1 0 0
vn -1 0 0
vn -0 0 -1
vn -0 0 -1
vn -0 0 -1
vn -0 0 -1
vn 1 0 0
vn 1 0 0
vn 1 0 0
vn 1 0 0
vn -0 1 0
vn -0 1 0
vn -0 1 0
vn -0 1 0
vn -0 0 1
vn -0 0 1
vn -0 0 1
vn -0 0 1
vn -1 0 0
vn -1 0 0
vn -1 0 0
vn -1 0 0
vn -0 0 -1
vn -0 0 -1
vn -0 0 -1
vn -0 0 -1
vn 1 0 0
vn 1 0 0
vn 1 0 0
vn 1 0 0
g pb_Mesh80186_0
f 3/3/3 2/2/2 1/1/1
f 3/3/3 4/4/4 2/2/2
f 7/7/7 6/6/6 5/5/5
f 7/7/7 5/5/5 8/8/8
f 11/11/11 10/10/10 9/9/9
f 11/11/11 9/9/9 12/12/12
f 15/15/15 14/14/14 13/13/13
f 14/14/14 16/16/16 13/13/13
f 19/19/19 18/18/18 17/17/17
f 18/18/18 20/20/20 17/17/17
g pb_Mesh80186_1
f 23/23/23 22/22/22 21/21/21
f 23/23/23 24/24/24 22/22/22
f 27/27/27 26/26/26 25/25/25
f 27/27/27 25/25/25 28/28/28
f 31/31/31 30/30/30 29/29/29
f 31/31/31 29/29/29 32/32/32
f 35/35/35 34/34/34 33/33/33
f 34/34/34 36/36/36 33/33/33
f 39/39/39 38/38/38 37/37/37
f 38/38/38 40/40/40 37/37/37
