g pb_Mesh64100
v 35.1 -15 35.699997
v -38.9 -15 35.699997
v 35.1 31 35.699997
v -38.9 31 35.699997
v -38.9 -15 35.699997
v -38.9 -15 -24.300003
v -38.9 31 35.699997
v -38.9 31 -24.300003
v -38.9 -15 -24.300003
v 35.1 -15 -24.300003
v -38.9 31 -24.300003
v 35.1 31 -24.300003
v 35.1 -15 -24.300003
v 35.1 -15 35.699997
v 35.1 31 -24.300003
v 35.1 31 35.699997
v 35.1 31 35.699997
v -38.9 31 35.699997
v 35.1 31 -24.300003
v -38.9 31 -24.300003
v 35.1 -15 -24.300003
v -38.9 -15 -24.300003
v 35.1 -15 35.699997
v -38.9 -15 35.699997
vt 35.1 -15
vt -38.9 -15
vt 35.1 31
vt -38.9 31
vt 35.699997 -15
vt -24.300003 -15
vt 35.699997 31
vt -24.300003 31
vt 38.9 -15
vt -35.1 -15
vt 38.9 31
vt -35.1 31
vt 24.300003 -15
vt -35.699997 -15
vt 24.300003 31
vt -35.699997 31
vt -35.1 35.699997
vt 38.9 35.699997
vt -35.1 -24.300003
vt 38.9 -24.300003
vt 35.1 -24.300003
vt -38.9 -24.300003
vt 35.1 35.699997
vt -38.9 35.699997
vn -0 0 1
vn -0 0 1
vn -0 0 1
vn -0 0 1
vn -1 0 0
vn -1 0 0
vn -1 0 0
vn -1 0 0
vn -0 0 -1
vn -0 0 -1
vn -0 0 -1
vn -0 0 -1
vn 1 0 0
vn 1 0 0
vn 1 0 0
vn 1 0 0
vn -0 1 0
vn -0 1 0
vn -0 1 0
vn -0 1 0
vn -0 -1 0
vn -0 -1 0
vn -0 -1 0
vn -0 -1 0
g pb_Mesh64100_0
f 3/3/3 2/2/2 1/1/1
f 3/3/3 4/4/4 2/2/2
f 7/7/7 6/6/6 5/5/5
f 7/7/7 8/8/8 6/6/6
f 11/11/11 10/10/10 9/9/9
f 11/11/11 12/12/12 10/10/10
f 15/15/15 14/14/14 13/13/13
f 15/15/15 16/16/16 14/14/14
f 19/19/19 18/18/18 17/17/17
f 19/19/19 20/20/20 18/18/18
f 23/23/23 22/22/22 21/21/21
f 23/23/23 24/24/24 22/22/22
