g pb_Mesh101242
v -2.1254482 1.5 8.999839
v -4.1254516 1.5 8.999682
v -2.1254482 2 8.999839
v -4.1254516 2 8.999682
v -4.1254516 1.5 8.999682
v -4.125006 0.5 -6.8750024
v -4.1254516 2 8.999682
v -4.125006 1 -6.8750024
v -4.125006 0.5 -6.8750024
v -2.125005 0.5 -6.8750043
v -4.125006 1 -6.8750024
v -2.125005 1 -6.8750043
v -2.125005 0.5 -6.8750043
v -2.1254482 1.5 8.999839
v -2.125005 1 -6.8750043
v -2.1254482 2 8.999839
v -2.1254482 2 8.999839
v -4.1254516 2 8.999682
v -2.125005 1 -6.8750043
v -4.125006 1 -6.8750024
v -2.125005 0.5 -6.8750043
v -4.125006 0.5 -6.8750024
v -2.1254482 1.5 8.999839
v -4.1254516 1.5 8.999682
vt -2.1247444 1.5
vt -4.1247478 1.5
vt -2.1247444 2
vt -4.1247478 2
vt 8.999798 1.5
vt -6.8748865 0.5
vt 8.999798 2
vt -6.8748865 1
vt 4.1249995 0.5
vt 2.1249983 0.5
vt 4.1249995 1
vt 2.1249983 1
vt 6.874945 0.5
vt -8.999898 1.5
vt 6.874945 1
vt -8.999898 2
vt 2.125458 9.107771
vt 4.1254616 9.1076145
vt 2.12501 -6.798537
vt 4.125011 -6.798536
vt -2.125005 -6.8299704
vt -4.125006 -6.8299685
vt -2.1254482 9.076338
vt -4.1254516 9.076181
vn -7.820116E-05 0 1
vn -7.820116E-05 0 1
vn -7.820116E-05 0 1
vn -7.820116E-05 0 1
vn -1 0 -2.8055101E-05
vn -1 0 -2.8055101E-05
vn -1 0 -2.8055101E-05
vn -1 0 -2.8055101E-05
vn -9.5367375E-07 0 -1
vn -9.5367375E-07 0 -1
vn -9.5367375E-07 0 -1
vn -9.5367375E-07 0 -1
vn 1 0 2.7919654E-05
vn 1 0 2.7919654E-05
vn 1 0 2.7919654E-05
vn 1 0 2.7919654E-05
vn 4.9163614E-06 0.99802184 -0.06286813
vn 2.4282026E-06 0.99802184 -0.062868446
vn 2.4282026E-06 0.99802184 -0.062868446
vn -5.9956285E-08 0.9980218 -0.06286876
vn 5.995569E-08 -0.99802184 0.06286813
vn -2.4282272E-06 -0.99802184 0.062868446
vn -2.4282272E-06 -0.99802184 0.062868446
vn -4.91641E-06 -0.9980218 0.06286876
g pb_Mesh101242_0
f 3/3/3 2/2/2 1/1/1
f 3/3/3 4/4/4 2/2/2
f 7/7/7 6/6/6 5/5/5
f 7/7/7 8/8/8 6/6/6
f 11/11/11 10/10/10 9/9/9
f 11/11/11 12/12/12 10/10/10
f 15/15/15 14/14/14 13/13/13
f 15/15/15 16/16/16 14/14/14
f 19/19/19 18/18/18 17/17/17
f 19/19/19 20/20/20 18/18/18
f 23/23/23 22/22/22 21/21/21
f 23/23/23 24/24/24 22/22/22
