g pb_Mesh103546
v -23 -21 22
v -23 -25 22
v -3 -21 22
v -3 -25 22
v -3 -21 -22
v -3 -25 -22
v -23 -25 -22
v -23 -21 -22
v -23 14 22
v -23 -17 22
v -3 14 22
v -3 -17 22
v -3 14 -22
v -3 -16 -22
v -23 -17 -22
v -23 14 -22
v -1 -25 22
v -1 -21 22
v -1 -25 -22
v -1 -21 -22
v -1 -17 22
v -1 14 22
v -1 -16 -22
v -1 14 -22
v 21 -25 -22
v 13 -25 -22
v 13 -21 -22
v 21 -21 -22
v 13 14 22
v 21 -17 22
v 21 14 22
v 13 -17 22
v 21 -17 -22
v 13 -16.5 -22
v 21 14 -22
v 13 14 -22
v -23 -21 14
v -23 -25 22
v -23 -21 22
v -23 -25 14
v -23 14 14
v -23 -17 22
v -23 14 22
v -23 -17 14
v 21 -17 22
v 21 -17 14
v 21 14 14
v 21 14 22
v -3 14 22
v -23 14 14
v -23 14 22
v -3 14 14
v -1 14 22
v -1 14 14
v 21 14 22
v 13 14 14
v 13 14 22
v 21 14 14
v 3 -25 22
v 3 -21 22
v 3 -25 -22
v 3 -21 -22
v 3 -17 22
v 3 14 22
v 3 -16.25 -22
v 3 14 -22
v 3 14 22
v 3 14 14
v -23 -21 -22
v -23 -25 6
v -23 -21 6
v -23 -25 -22
v 21 -25 6
v 21 -25 -22
v 21 -21 -22
v 21 -21 6
v -23 14 -22
v -23 -17 6
v -23 14 6
v -23 -17 -22
v 21 -17 6
v 21 -17 -22
v 21 14 -22
v 21 14 6
v -3 14 6
v -23 14 -22
v -23 14 6
v -3 14 -22
v -1 14 6
v -1 14 -22
v 21 14 6
v 13 14 -22
v 13 14 6
v 21 14 -22
v 3 14 6
v 3 14 -22
v 9 -25 -22
v 9 -21 -22
v 9 14 22
v 9 -17 22
v 9 -16.375 -22
v 9 14 -22
v 9 14 22
v 9 14 14
v 9 14 6
v 9 14 -22
v -23 -21 12
v -23 -25 12
v -23 14 12
v -23 -17 12
v 21 -17 12
v 21 14 12
v -3 14 12
v -23 14 12
v -1 14 12
v 21 14 12
v 13 14 12
v 3 14 12
v 9 14 12
v -23 -25 14
v -3 -25 14
v -3 -25 22
v -23 -25 22
v -1 -25 14
v -1 -25 22
v 13 -27 14
v 21 -27 14
v 21 -27 22
v 13 -27 22
v 3 -25 14
v 3 -25 22
v -23 -25 -22
v -3 -25 -22
v -3 -25 6
v -23 -25 6
v -1 -25 -22
v -1 -25 6
v 13 -25 -22
v 21 -25 -22
v 21 -25 6
v 13 -25 6
v 3 -25 -22
v 3 -25 6
v 3 -25 14
v 9 -27 14
v 9 -27 22
v 3 -25 22
v 9 -27 14
v 9 -27 22
v 9 -25 -22
v 9 -25 6
v -3 -25 12
v -23 -25 12
v -1 -25 12
v 13 -25 6
v 21 -25 6
v 21 -27 12
v 13 -27 12
v 13 -27 12
v 21 -27 12
v 3 -25 12
v 9 -25 12
v 3 -25 12
v 9 -25 12
v 9 -27 14
v 9 -25 6
v 13 -27 12
v 9 -25 12
v 9 -25 12
v 13 -27 12
v 13 -27 14
v 9 -27 14
v 13 -21 22
v 21 -27 22
v 21 -21 22
v 13 -27 22
v 13 -17 22
v 21 -17 22
v 21 -27 22
v 21 -27 14
v 21 -21 14
v 21 -21 22
v 21 -17 14
v 21 -17 22
v 9 -21 22
v 9 -27 22
v 3 -21 22
v 3 -25 22
v 9 -17 22
v 3 -17 22
v 21 -27 12
v 21 -21 12
v 21 -25 6
v 21 -21 6
v 21 -17 12
v 21 -17 6
vt 23 -21
vt 23 -25
vt 3 -21
vt 3 -25
vt -3 -21
vt -3 -25
vt -23 -25
vt -23 -21
vt 23 14
vt 23 -17
vt 3 14
vt 3 -17
vt -3 14
vt -3 -16
vt -23 -17
vt -23 14
vt 1 -25
vt 1 -21
vt -1 -25
vt -1 -21
vt 1 -17
vt 1 14
vt -1 -16
vt -1 14
vt 21 -25
vt 13 -25
vt 13 -21
vt 21 -21
vt -13 14
vt -21 -17
vt -21 14
vt -13 -17
vt 21 -17
vt 13 -16.5
vt 21 14
vt 13 14
vt -14 -21
vt -22 -25
vt -22 -21
vt -14 -25
vt -14 14
vt -22 -17
vt -22 14
vt -14 -17
vt 22 -17
vt 14 -17
vt 14 14
vt 22 14
vt -3 22
vt -23 14
vt -23 22
vt -3 14
vt -1 22
vt -1 14
vt 21 22
vt 13 14
vt 13 22
vt 21 14
vt -3 -25
vt -3 -21
vt 3 -25
vt 3 -21
vt -3 -17
vt -3 14
vt 3 -16.25
vt 3 14
vt 3 22
vt 3 14
vt 22 -21
vt -6 -25
vt -6 -21
vt 22 -25
vt 6 -25
vt -22 -25
vt -22 -21
vt 6 -21
vt 22 14
vt -6 -17
vt -6 14
vt 22 -17
vt 6 -17
vt -22 -17
vt -22 14
vt 6 14
vt -3 6
vt -23 -22
vt -23 6
vt -3 -22
vt -1 6
vt -1 -22
vt 21 6
vt 13 -22
vt 13 6
vt 21 -22
vt 3 6
vt 3 -22
vt 9 -25
vt 9 -21
vt -9 14
vt -9 -17
vt 9 -16.375
vt 9 14
vt 9 22
vt 9 14
vt 9 6
vt 9 -22
vt -12 -21
vt -12 -25
vt -12 14
vt -12 -17
vt 12 -17
vt 12 14
vt -3 12
vt -23 12
vt -1 12
vt 21 12
vt 13 12
vt 3 12
vt 9 12
vt 22.174263 15.444321
vt 2.184855 15.407218
vt 2.184855 23.394209
vt 22.174263 23.43131
vt 0.18591423 15.403508
vt 0.18591423 23.3905
vt -13.871756 15.491489
vt -21.86752 15.476648
vt -21.86752 23.463638
vt -13.871756 23.47848
vt -3.8119674 15.396088
vt -3.8119674 23.383078
vt 22.174263 -20.497137
vt 2.184855 -20.534239
vt 2.184855 7.4202275
vt 22.174263 7.45733
vt 0.18591423 -20.537949
vt 0.18591423 7.4165173
vt -13.806671 -20.563921
vt -21.802435 -20.578762
vt -21.802435 7.3757043
vt -13.806671 7.3905454
vt -3.8119674 -20.54537
vt -3.8119674 7.4090967
vt -3.8119674 15.396088
vt -9.873875 15.49891
vt -9.873875 23.4859
vt -3.8119674 23.383078
vt -9.873875 15.49891
vt -9.873875 23.4859
vt -9.80879 -20.556501
vt -9.80879 7.397966
vt 2.184855 13.410471
vt 22.174263 13.447574
vt 0.18591423 13.40676
vt -13.806671 7.3905454
vt -21.802435 7.3757043
vt -21.86752 13.479901
vt -13.871756 13.494742
vt -13.871756 13.494742
vt -21.86752 13.479901
vt -3.8119674 13.39934
vt -9.80879 13.388209
vt -3.8119674 13.39934
vt -9.80879 13.388209
vt -9.873875 15.49891
vt -9.80879 7.397966
vt -13.871756 13.494742
vt -9.80879 13.388209
vt -9.80879 13.388209
vt -13.871756 13.494742
vt -13.871756 15.491489
vt -9.873875 15.49891
vt -13 -21
vt -21 -27
vt -21 -21
vt -13 -27
vt -13 -17
vt -21 -17
vt 22 -27
vt 14 -27
vt 14 -21
vt 22 -21
vt 14 -17
vt 22 -17
vt -9 -21
vt -9 -27
vt -3 -21
vt -3 -25
vt -9 -17
vt -3 -17
vt 12 -27
vt 12 -21
vt 6 -25
vt 6 -21
vt 12 -17
vt 6 -17
vn -0 0 -1
vn -0 0 -1
vn -0 0 -1
vn -0 0 -1
vn -0 0 1
vn -0 0 1
vn -0 0 1
vn -0 0 1
vn -0 0 -1
vn -0 0 -1
vn -0 0 -1
vn -0 0 -1
vn -0 0 1
vn -0 0 1
vn -0 0 1
vn -0 0 1
vn -0 0 -1
vn -0 0 -1
vn -0 0 1
vn -0 0 1
vn -0 0 -1
vn -0 0 -1
vn -0 0 1
vn -0 0 1
vn -0 0 1
vn -0 0 1
vn -0 0 1
vn -0 0 1
vn -0 0 -1
vn -0 0 -1
vn -0 0 -1
vn -0 0 -1
vn -0 0 1
vn -0 0 1
vn -0 0 1
vn -0 0 1
vn 1 0 0
vn 1 0 0
vn 1 0 0
vn 1 0 0
vn 1 0 0
vn 1 0 0
vn 1 0 0
vn 1 0 0
vn -1 0 0
vn -1 0 0
vn -1 0 0
vn -1 0 0
vn -0 -1 0
vn -0 -1 0
vn -0 -1 0
vn -0 -1 0
vn -0 -1 0
vn -0 -1 0
vn -0 -1 0
vn -0 -1 0
vn -0 -1 0
vn -0 -1 0
vn -0 0 -1
vn -0 0 -1
vn -0 0 1
vn -0 0 1
vn -0 0 -1
vn -0 0 -1
vn -0 0 1
vn -0 0 1
vn -0 -1 0
vn -0 -1 0
vn 1 0 0
vn 1 0 0
vn 1 0 0
vn 1 0 0
vn -1 0 0
vn -1 0 0
vn -1 0 0
vn -1 0 0
vn 1 0 0
vn 1 0 0
vn 1 0 0
vn 1 0 0
vn -1 0 0
vn -1 0 0
vn -1 0 0
vn -1 0 0
vn -0 -1 0
vn -0 -1 0
vn -0 -1 0
vn -0 -1 0
vn -0 -1 0
vn -0 -1 0
vn -0 -1 0
vn -0 -1 0
vn -0 -1 0
vn -0 -1 0
vn -0 -1 0
vn -0 -1 0
vn -0 0 1
vn -0 0 1
vn -0 0 -1
vn -0 0 -1
vn -0 0 1
vn -0 0 1
vn -0 -1 0
vn -0 -1 0
vn -0 -1 0
vn -0 -1 0
vn 1 0 0
vn 1 0 0
vn 1 0 0
vn 1 0 0
vn -1 0 0
vn -1 0 0
vn -0 -1 0
vn -0 -1 0
vn -0 -1 0
vn -0 -1 0
vn -0 -1 0
vn -0 -1 0
vn -0 -1 0
vn -0 1 0
vn -0 1 0
vn -0 1 0
vn -0 1 0
vn -0 1 0
vn -0 1 0
vn -0 1 0
vn -0 1 0
vn -0 1 0
vn -0 1 0
vn -0 1 0
vn -0 1 0
vn -0 1 0
vn -0 1 0
vn -0 1 0
vn -0 1 0
vn -0 1 0
vn -0 1 0
vn -0 1 0
vn -0 1 0
vn -0 1 0
vn -0 1 0
vn -0 1 0
vn -0 1 0
vn 0.3162278 0.9486833 0
vn 0.3162278 0.9486833 0
vn 0.3162278 0.9486833 0
vn 0.3162278 0.9486833 0
vn -0 1 0
vn -0 1 0
vn -0 1 0
vn -0 1 0
vn -0 1 0
vn -0 1 0
vn -0 1 0
vn -0 0.9486833 0.3162278
vn -0 0.9486833 0.3162278
vn -0 0.9486833 0.3162278
vn -0 0.9486833 0.3162278
vn -0 1 0
vn -0 1 0
vn -0 1 0
vn -0 1 0
vn 0.1581139 0.82789505 0.35355338
vn -0 0.70710677 0.70710677
vn 0.1581139 0.82789505 0.35355338
vn 0.2236068 0.9215553 0.1581139
vn 0.2236068 0.9215553 0.1581139
vn 0.4472136 0.8944272 0
vn 0.2236068 0.80076694 0.35355338
vn 0.4472136 0.8944272 0
vn 0.2236068 0.80076694 0.35355338
vn -0 0.70710677 0.70710677
vn -0 0 -1
vn -0 0 -1
vn -0 0 -1
vn -0 0 -1
vn -0 0 -1
vn -0 0 -1
vn -1 0 0
vn -1 0 0
vn -1 0 0
vn -1 0 0
vn -1 0 0
vn -1 0 0
vn -0 0 -1
vn -0 0 -1
vn -0 0 -1
vn -0 0 -1
vn -0 0 -1
vn -0 0 -1
vn -1 0 0
vn -1 0 0
vn -1 0 0
vn -1 0 0
vn -1 0 0
vn -1 0 0
g pb_Mesh103546_0
f 3/3/3 2/2/2 1/1/1
f 3/3/3 4/4/4 2/2/2
f 7/7/7 6/6/6 5/5/5
f 8/8/8 7/7/7 5/5/5
f 11/11/11 10/10/10 9/9/9
f 11/11/11 12/12/12 10/10/10
f 12/12/12 1/1/1 10/10/10
f 12/12/12 3/3/3 1/1/1
f 15/15/15 14/14/14 13/13/13
f 16/16/16 15/15/15 13/13/13
f 8/8/8 5/5/5 14/14/14
f 15/15/15 8/8/8 14/14/14
f 18/18/18 17/17/17 3/3/3
f 17/17/17 4/4/4 3/3/3
f 5/5/5 6/6/6 19/19/19
f 5/5/5 19/19/19 20/20/20
f 22/22/22 21/21/21 11/11/11
f 21/21/21 12/12/12 11/11/11
f 21/21/21 18/18/18 12/12/12
f 18/18/18 3/3/3 12/12/12
f 13/13/13 14/14/14 23/23/23
f 13/13/13 23/23/23 24/24/24
f 14/14/14 5/5/5 20/20/20
f 14/14/14 20/20/20 23/23/23
f 27/27/27 26/26/26 25/25/25
f 27/27/27 25/25/25 28/28/28
f 31/31/31 30/30/30 29/29/29
f 30/30/30 32/32/32 29/29/29
f 35/35/35 34/34/34 33/33/33
f 35/35/35 36/36/36 34/34/34
f 27/27/27 28/28/28 33/33/33
f 34/34/34 27/27/27 33/33/33
f 39/39/39 38/38/38 37/37/37
f 38/38/38 40/40/40 37/37/37
f 43/43/43 42/42/42 41/41/41
f 42/42/42 44/44/44 41/41/41
f 42/42/42 39/39/39 44/44/44
f 39/39/39 37/37/37 44/44/44
f 47/47/47 46/46/46 45/45/45
f 47/47/47 45/45/45 48/48/48
f 51/51/51 50/50/50 49/49/49
f 50/50/50 52/52/52 49/49/49
f 49/49/49 52/52/52 53/53/53
f 52/52/52 54/54/54 53/53/53
f 57/57/57 56/56/56 55/55/55
f 56/56/56 58/58/58 55/55/55
f 60/60/60 59/59/59 18/18/18
f 59/59/59 17/17/17 18/18/18
f 20/20/20 19/19/19 61/61/61
f 20/20/20 61/61/61 62/62/62
f 64/64/64 63/63/63 22/22/22
f 63/63/63 21/21/21 22/22/22
f 63/63/63 60/60/60 21/21/21
f 60/60/60 18/18/18 21/21/21
f 66/66/66 23/23/23 65/65/65
f 66/66/66 24/24/24 23/23/23
f 20/20/20 62/62/62 65/65/65
f 23/23/23 20/20/20 65/65/65
f 53/53/53 54/54/54 67/67/67
f 54/54/54 68/68/68 67/67/67
f 71/71/71 70/70/70 69/69/69
f 70/70/70 72/72/72 69/69/69
f 75/75/75 74/74/74 73/73/73
f 75/75/75 73/73/73 76/76/76
f 79/79/79 78/78/78 77/77/77
f 78/78/78 80/80/80 77/77/77
f 78/78/78 71/71/71 80/80/80
f 71/71/71 69/69/69 80/80/80
f 83/83/83 82/82/82 81/81/81
f 83/83/83 81/81/81 84/84/84
f 82/82/82 75/75/75 76/76/76
f 82/82/82 76/76/76 81/81/81
f 87/87/87 86/86/86 85/85/85
f 86/86/86 88/88/88 85/85/85
f 85/85/85 88/88/88 89/89/89
f 88/88/88 90/90/90 89/89/89
f 93/93/93 92/92/92 91/91/91
f 92/92/92 94/94/94 91/91/91
f 89/89/89 90/90/90 95/95/95
f 90/90/90 96/96/96 95/95/95
f 98/98/98 97/97/97 26/26/26
f 98/98/98 26/26/26 27/27/27
f 62/62/62 61/61/61 97/97/97
f 62/62/62 97/97/97 98/98/98
f 29/29/29 32/32/32 99/99/99
f 32/32/32 100/100/100 99/99/99
f 99/99/99 100/100/100 64/64/64
f 100/100/100 63/63/63 64/64/64
f 36/36/36 101/101/101 34/34/34
f 36/36/36 102/102/102 101/101/101
f 102/102/102 65/65/65 101/101/101
f 102/102/102 66/66/66 65/65/65
f 98/98/98 27/27/27 34/34/34
f 101/101/101 98/98/98 34/34/34
f 62/62/62 98/98/98 101/101/101
f 65/65/65 62/62/62 101/101/101
f 67/67/67 68/68/68 103/103/103
f 68/68/68 104/104/104 103/103/103
f 103/103/103 104/104/104 57/57/57
f 104/104/104 56/56/56 57/57/57
f 95/95/95 96/96/96 105/105/105
f 96/96/96 106/106/106 105/105/105
f 105/105/105 106/106/106 93/93/93
f 106/106/106 92/92/92 93/93/93
f 37/37/37 40/40/40 107/107/107
f 40/40/40 108/108/108 107/107/107
f 107/107/107 108/108/108 71/71/71
f 108/108/108 70/70/70 71/71/71
f 41/41/41 44/44/44 109/109/109
f 44/44/44 110/110/110 109/109/109
f 109/109/109 110/110/110 79/79/79
f 110/110/110 78/78/78 79/79/79
f 44/44/44 37/37/37 110/110/110
f 37/37/37 107/107/107 110/110/110
f 110/110/110 107/107/107 78/78/78
f 107/107/107 71/71/71 78/78/78
f 112/112/112 111/111/111 46/46/46
f 112/112/112 46/46/46 47/47/47
f 84/84/84 81/81/81 111/111/111
f 84/84/84 111/111/111 112/112/112
f 114/114/114 87/87/87 113/113/113
f 87/87/87 85/85/85 113/113/113
f 50/50/50 114/114/114 52/52/52
f 114/114/114 113/113/113 52/52/52
f 113/113/113 85/85/85 115/115/115
f 85/85/85 89/89/89 115/115/115
f 52/52/52 113/113/113 54/54/54
f 113/113/113 115/115/115 54/54/54
f 117/117/117 93/93/93 116/116/116
f 93/93/93 91/91/91 116/116/116
f 56/56/56 117/117/117 58/58/58
f 117/117/117 116/116/116 58/58/58
f 115/115/115 89/89/89 118/118/118
f 89/89/89 95/95/95 118/118/118
f 54/54/54 115/115/115 68/68/68
f 115/115/115 118/118/118 68/68/68
f 118/118/118 95/95/95 119/119/119
f 95/95/95 105/105/105 119/119/119
f 68/68/68 118/118/118 104/104/104
f 118/118/118 119/119/119 104/104/104
f 119/119/119 105/105/105 117/117/117
f 105/105/105 93/93/93 117/117/117
f 104/104/104 119/119/119 56/56/56
f 119/119/119 117/117/117 56/56/56
g pb_Mesh103546_1
f 122/122/122 121/121/121 120/120/120
f 122/122/122 120/120/120 123/123/123
f 125/125/125 124/124/124 121/121/121
f 125/125/125 121/121/121 122/122/122
f 128/128/128 127/127/127 126/126/126
f 128/128/128 126/126/126 129/129/129
f 131/131/131 130/130/130 124/124/124
f 131/131/131 124/124/124 125/125/125
f 134/134/134 133/133/133 132/132/132
f 134/134/134 132/132/132 135/135/135
f 137/137/137 136/136/136 133/133/133
f 137/137/137 133/133/133 134/134/134
f 140/140/140 139/139/139 138/138/138
f 140/140/140 138/138/138 141/141/141
f 143/143/143 142/142/142 136/136/136
f 143/143/143 136/136/136 137/137/137
f 146/146/146 145/145/145 144/144/144
f 146/146/146 144/144/144 147/147/147
f 129/129/129 126/126/126 148/148/148
f 129/129/129 148/148/148 149/149/149
f 151/151/151 150/150/150 142/142/142
f 151/151/151 142/142/142 143/143/143
f 141/141/141 138/138/138 150/150/150
f 141/141/141 150/150/150 151/151/151
f 152/152/152 134/134/134 135/135/135
f 152/152/152 135/135/135 153/153/153
f 121/121/121 152/152/152 153/153/153
f 121/121/121 153/153/153 120/120/120
f 154/154/154 137/137/137 134/134/134
f 154/154/154 134/134/134 152/152/152
f 124/124/124 154/154/154 152/152/152
f 124/124/124 152/152/152 121/121/121
f 157/157/157 156/156/156 155/155/155
f 157/157/157 155/155/155 158/158/158
f 127/127/127 160/160/160 159/159/159
f 127/127/127 159/159/159 126/126/126
f 161/161/161 143/143/143 137/137/137
f 161/161/161 137/137/137 154/154/154
f 130/130/130 161/161/161 154/154/154
f 130/130/130 154/154/154 124/124/124
f 162/162/162 151/151/151 143/143/143
f 162/162/162 143/143/143 161/161/161
f 165/165/165 164/164/164 163/163/163
f 165/165/165 163/163/163 144/144/144
f 167/167/167 155/155/155 166/166/166
f 167/167/167 166/166/166 168/168/168
f 171/171/171 170/170/170 169/169/169
f 171/171/171 169/169/169 172/172/172
g pb_Mesh103546_2
f 175/175/175 174/174/174 173/173/173
f 174/174/174 176/176/176 173/173/173
f 178/178/178 175/175/175 177/177/177
f 175/175/175 173/173/173 177/177/177
f 181/181/181 180/180/180 179/179/179
f 181/181/181 179/179/179 182/182/182
f 183/183/183 181/181/181 182/182/182
f 183/183/183 182/182/182 184/184/184
f 173/173/173 176/176/176 185/185/185
f 176/176/176 186/186/186 185/185/185
f 185/185/185 186/186/186 187/187/187
f 186/186/186 188/188/188 187/187/187
f 177/177/177 173/173/173 189/189/189
f 173/173/173 185/185/185 189/189/189
f 189/189/189 185/185/185 190/190/190
f 185/185/185 187/187/187 190/190/190
f 192/192/192 191/191/191 180/180/180
f 192/192/192 180/180/180 181/181/181
f 194/194/194 193/193/193 191/191/191
f 194/194/194 191/191/191 192/192/192
f 195/195/195 192/192/192 181/181/181
f 195/195/195 181/181/181 183/183/183
f 196/196/196 194/194/194 192/192/192
f 196/196/196 192/192/192 195/195/195
