g pb_Mesh-325830
v -0.74999964 -3 0.24999985
v -0.99999964 -3 0.24999976
v -0.74999964 5 0.2500002
v -0.99999964 5 0.25
v -0.99999964 -3 0.24999976
v -0.9999995 -3 -2.3841858E-07
v -0.99999964 5 0.25
v -0.9999995 5 3.6948222E-13
v -0.9999995 -3 -2.3841858E-07
v -0.7499995 -3 -1.4901161E-07
v -0.9999995 5 3.6948222E-13
v -0.7499995 5 1.9371544E-07
v 1.0000005 -3 4.7683716E-07
v 1.0000004 -3 0.25000048
v 1.0000005 5 1.5497209E-06
v 1.0000002 5 0.25000155
v -0.74999964 5 0.2500002
v -0.99999964 5 0.25
v -0.7499995 5 1.9371544E-07
v -0.9999995 5 3.6948222E-13
v -0.7499995 -3 -1.4901161E-07
v -0.9999995 -3 -2.3841858E-07
v -0.74999964 -3 0.24999985
v -0.99999964 -3 0.24999976
v 0.7500005 -3 3.874302E-07
v 0.75000036 -3 0.2500004
v 1.0000005 -3 4.7683716E-07
v 1.0000004 -3 0.25000048
v 0.7500005 5 1.3560059E-06
v 0.7500005 -3 3.874302E-07
v 1.0000005 5 1.5497209E-06
v 1.0000005 -3 4.7683716E-07
v 0.75000036 -3 0.2500004
v 0.7500004 5 0.25000137
v 1.0000004 -3 0.25000048
v 1.0000002 5 0.25000155
v 0.7500004 5 0.25000137
v 0.7500005 5 1.3560059E-06
v 1.0000002 5 0.25000155
v 1.0000005 5 1.5497209E-06
v -0.74999964 -3 0.24999985
v -0.74999964 5 0.2500002
v -0.7499995 -3 -1.4901161E-07
v -0.7499995 5 1.9371544E-07
v 0.7500004 5 0.25000137
v 0.75000036 -3 0.2500004
v 0.7500005 5 1.3560059E-06
v 0.7500005 -3 3.874302E-07
v -0.7499996 -3 0.12499985
v -0.74999964 5 0.1250002
v 0.7500004 -3 0.12500039
v 0.75000036 5 0.12500136
vt -0.7499996 -3
vt -0.9999996 -3
vt -0.7499995 5
vt -0.9999995 5
vt -1.8749998 -3
vt -2.1249998 -3
vt -1.8749995 5
vt -2.1249995 5
vt 0.9999995 -3
vt 0.7499995 -3
vt 0.9999995 5
vt 0.7499995 5
vt 2.125 -3
vt 1.875 -3
vt 2.124999 5
vt 1.8749989 5
vt 0.74999964 -1.8749998
vt 0.99999964 -1.875
vt 0.7499995 -2.1249998
vt 0.9999995 -2.125
vt -0.7499995 -2.1250002
vt -0.9999995 -2.1250002
vt -0.74999964 -1.8750001
vt -0.99999964 -1.8750002
vt 0.7500005 -2.1249995
vt 0.75000036 -1.8749996
vt 1.0000005 -2.1249995
vt 1.0000004 -1.8749995
vt -0.7500005 5
vt -0.7500005 -3
vt -1.0000005 5
vt -1.0000005 -3
vt 0.7500005 -3
vt 0.75000054 5
vt 1.0000005 -3
vt 1.0000004 5
vt -0.7500004 -1.8749986
vt -0.7500005 -2.1249986
vt -1.0000002 -1.8749985
vt -1.0000005 -2.1249983
vt 1.8749998 -3
vt 1.8749994 5
vt 2.1249998 -3
vt 2.1249995 5
vt -1.8749988 5
vt -1.8749998 -3
vt -2.1249988 5
vt -2.1249998 -3
vt -0.7499995 -3
vt -0.7499996 5
vt 0.7500005 -3
vt 0.7500004 5
vn -3.5762787E-07 -4.4703484E-08 1
vn -5.9604645E-07 -3.7252903E-08 1
vn -5.9604645E-07 -3.7252903E-08 1
vn -8.34465E-07 -2.9802322E-08 1
vn -1 1.4210855E-14 -4.7683716E-07
vn -1 1.4210865E-14 -4.7683716E-07
vn -1 1.4210865E-14 -4.7683716E-07
vn -1 1.4210877E-14 -4.7683716E-07
vn 3.5762787E-07 2.980237E-08 -1
vn 5.6624407E-07 3.6321623E-08 -1
vn 5.6624407E-07 3.6321623E-08 -1
vn 7.7486027E-07 4.284088E-08 -1
vn 1 -6.394885E-14 4.7683716E-07
vn 1 7.4504847E-09 7.1525574E-07
vn 1 7.4504847E-09 7.1525574E-07
vn 1 1.4901033E-08 9.536743E-07
vn -0 1 0
vn -0 1 0
vn -0 1 0
vn -0 1 0
vn -0 -1 0
vn -0 -1 0
vn -0 -1 0
vn -0 -1 0
vn -0 -1 0
vn -0 -1 0
vn -0 -1 0
vn -0 -1 0
vn 7.748599E-07 1.2107196E-07 -1
vn 5.662439E-07 1.2759122E-07 -1
vn 5.662439E-07 1.2759122E-07 -1
vn 3.5762787E-07 1.3411046E-07 -1
vn -3.5762787E-07 -1.2293458E-07 1
vn -5.3644203E-07 -1.2852252E-07 1
vn -5.3644203E-07 -1.2852252E-07 1
vn -7.1525625E-07 -1.3411046E-07 1
vn -0 1 0
vn -0 1 0
vn -0 1 0
vn -0 1 0
vn 1 -2.1316282E-14 4.7683716E-07
vn 1 -2.1316282E-14 4.7683716E-07
vn 1 -2.1316282E-14 4.7683716E-07
vn 1 -2.1316282E-14 4.7683716E-07
vn -1 7.45061E-09 -2.3841858E-07
vn -1 3.725334E-09 -3.5762787E-07
vn -1 3.725334E-09 -3.5762787E-07
vn -1 5.77316E-14 -4.7683716E-07
vn -3.5762787E-07 -4.2840842E-08 1
vn -5.662441E-07 -8.195639E-08 1
vn -5.662441E-07 -8.195639E-08 1
vn -7.748604E-07 -1.2107193E-07 1
g pb_Mesh-325830_0
f 3/3/3 2/2/2 1/1/1
f 3/3/3 4/4/4 2/2/2
f 7/7/7 6/6/6 5/5/5
f 7/7/7 8/8/8 6/6/6
f 11/11/11 10/10/10 9/9/9
f 11/11/11 12/12/12 10/10/10
f 15/15/15 14/14/14 13/13/13
f 15/15/15 16/16/16 14/14/14
f 19/19/19 18/18/18 17/17/17
f 19/19/19 20/20/20 18/18/18
f 23/23/23 22/22/22 21/21/21
f 23/23/23 24/24/24 22/22/22
f 27/27/27 26/26/26 25/25/25
f 27/27/27 28/28/28 26/26/26
f 31/31/31 30/30/30 29/29/29
f 31/31/31 32/32/32 30/30/30
f 35/35/35 34/34/34 33/33/33
f 35/35/35 36/36/36 34/34/34
f 39/39/39 38/38/38 37/37/37
f 39/39/39 40/40/40 38/38/38
f 43/43/43 42/42/42 41/41/41
f 43/43/43 44/44/44 42/42/42
f 47/47/47 46/46/46 45/45/45
f 47/47/47 48/48/48 46/46/46
g pb_Mesh-325830_1
f 51/51/51 50/50/50 49/49/49
f 51/51/51 52/52/52 50/50/50
