g pb_Mesh96974
v -2.9802374E-07 0 -1.7285345E-06
v -1.8179417E-06 0 -3.5000005
v -0 3 0
v -1.4603138E-06 3 -3.5000005
v 2.999997 0 -3.5000021
v 2.9999993 0 -5.2452083E-06
v 2.9999974 3 -3.5000021
v 2.9999998 3 -3.33786E-06
v 2.9999998 3 -3.33786E-06
v 2.9999993 0 -5.2452083E-06
v 1.4999999 3 -1.66893E-06
v 1.4999995 0 -3.4868715E-06
v -0 3 0
v -2.9802374E-07 0 -1.7285345E-06
v -1.4603138E-06 3 -3.5000005
v -1.8179417E-06 0 -3.5000005
v 1.4999976 0 -3.5000014
v 1.499998 3 -3.5000014
v 2.999997 0 -3.5000021
v 2.9999974 3 -3.5000021
v 1.4999995 0 -3.4868715E-06
v 2.9999993 0 -5.2452083E-06
v 1.4999976 0 -3.5000014
v 2.999997 0 -3.5000021
v -2.9802374E-07 0 -1.7285345E-06
v -1.8179417E-06 0 -3.5000005
v 1.4999977 5.5 -3.5000014
v 2.999997 5.5 -3.5000021
v 2.9999974 3 -3.5000021
v 2.9999998 3 -3.33786E-06
v 2.999997 5.5 -3.5000021
v 2.9999993 5.5 -4.291534E-06
v 1.4999999 3 -1.66893E-06
v 1.499998 3 -3.5000014
v 1.4999996 5.5 -2.5331972E-06
v 1.4999977 5.5 -3.5000014
v 1.4999977 5.5 -3.5000014
v 2.999997 5.5 -3.5000021
v 2.9999993 5.5 -4.291534E-06
v 1.4999996 5.5 -2.5331972E-06
v -1.4603138E-06 3 -3.5000005
v 1.499998 3 -3.5000014
v 1.4999999 3 -1.66893E-06
v -0 3 0
v 2.9999998 3 -3.33786E-06
v 1.4999999 3 -1.66893E-06
v 2.9999993 5.5 -4.291534E-06
v 1.4999996 5.5 -2.5331972E-06
vt -1.7285346E-06 -2.9605902E-14
vt -3.5000005 -2.9605895E-14
vt 0 3
vt -3.5000005 3
vt 3.5 4.7683707E-07
vt 3.201619E-06 4.7683707E-07
vt 3.5 3.0000005
vt 1.2942705E-06 3.0000005
vt 2.9999998 3
vt 2.9999993 -1.184238E-12
vt 1.4999999 3
vt 1.4999995 -1.128727E-12
vt 0 3
vt -2.980218E-07 -1.0732157E-12
vt -4.867725E-07 3
vt -1.291446E-07 -2.3211077E-13
vt -1.4999995 -2.3211077E-13
vt -1.4999999 3
vt -2.9999988 -2.3211077E-13
vt -2.9999993 3
vt 1.4999995 -3.4868715E-06
vt 2.9999993 -5.2452083E-06
vt 1.4999976 -3.5000014
vt 2.999997 -3.5000021
vt -2.9802374E-07 -1.7285345E-06
vt -1.8179417E-06 -3.5000005
vt -1.4999994 5.5
vt -2.9999986 5.5
vt 3.5 2.9999995
vt 1.2942717E-06 2.9999995
vt 3.5 5.4999995
vt 2.247946E-06 5.4999995
vt -8.5149486E-07 2.9999998
vt -3.5000007 2.9999998
vt -1.7157621E-06 5.5
vt -3.5000007 5.5
vt -1.4999977 -3.5000014
vt -2.999997 -3.5000021
vt -2.9999993 -4.291534E-06
vt -1.4999996 -2.5331972E-06
vt 1.4603138E-06 -3.5000005
vt -1.499998 -3.5000014
vt -1.4999999 -1.66893E-06
vt 0 0
vt 2.9999998 3
vt 1.4999999 3
vt 2.9999993 5.5
vt 1.4999996 5.5
vn -1 9.9341E-08 4.3426243E-07
vn -1 1.0927515E-07 4.2574743E-07
vn -1 1.0927515E-07 4.2574743E-07
vn -1 1.1920929E-07 4.1723243E-07
vn 1 -1.5894572E-07 -6.811966E-07
vn 1 -1.5894551E-07 -6.811964E-07
vn 1 -1.5894551E-07 -6.811964E-07
vn 1 -1.5894528E-07 -6.811962E-07
vn 1.1126201E-06 -6.3578295E-07 1
vn 1.1424224E-06 -6.208818E-07 1
vn 1.1424224E-06 -6.208818E-07 1
vn 1.1722248E-06 -6.0598063E-07 1
vn 1.1424224E-06 -5.9107947E-07 1
vn 1.1722248E-06 -5.761783E-07 1
vn -6.357831E-07 7.5791255E-14 -1
vn -6.357831E-07 7.5791255E-14 -1
vn -6.357831E-07 7.5791255E-14 -1
vn -6.357831E-07 7.5791255E-14 -1
vn -4.768374E-07 6.6317354E-14 -1
vn -4.768374E-07 7.5791255E-14 -1
vn -0 -1 0
vn -0 -1 0
vn -0 -1 0
vn -0 -1 0
vn -0 -1 0
vn -0 -1 0
vn -4.768374E-07 -6.821213E-14 -1
vn -4.7683744E-07 -9.094952E-14 -1
vn 1 1.9073487E-07 -6.811962E-07
vn 1 1.9073474E-07 -6.811963E-07
vn 1 1.9073474E-07 -6.811963E-07
vn 1 1.9073461E-07 -6.811964E-07
vn -1 -9.536725E-08 5.4495683E-07
vn -1 -9.536734E-08 5.449569E-07
vn -1 -9.536734E-08 5.449569E-07
vn -1 -9.536743E-08 5.4495695E-07
vn -0 1 0
vn -0 1 0
vn -0 1 0
vn -0 1 0
vn -0 1 0
vn -0 1 0
vn -0 1 0
vn -0 1 0
vn 1.1126201E-06 3.8146976E-07 1
vn 1.1424224E-06 3.6358836E-07 1
vn 1.1424224E-06 3.6358836E-07 1
vn 1.1722249E-06 3.4570698E-07 1
g pb_Mesh96974_0
f 3/3/3 2/2/2 1/1/1
f 3/3/3 4/4/4 2/2/2
f 7/7/7 6/6/6 5/5/5
f 7/7/7 8/8/8 6/6/6
f 11/11/11 10/10/10 9/9/9
f 11/11/11 12/12/12 10/10/10
f 13/13/13 12/12/12 11/11/11
f 13/13/13 14/14/14 12/12/12
f 17/17/17 16/16/16 15/15/15
f 18/18/18 17/17/17 15/15/15
f 19/19/19 17/17/17 18/18/18
f 20/20/20 19/19/19 18/18/18
f 23/23/23 22/22/22 21/21/21
f 23/23/23 24/24/24 22/22/22
f 26/26/26 21/21/21 25/25/25
f 26/26/26 23/23/23 21/21/21
f 27/27/27 20/20/20 18/18/18
f 27/27/27 28/28/28 20/20/20
f 31/31/31 30/30/30 29/29/29
f 31/31/31 32/32/32 30/30/30
f 35/35/35 34/34/34 33/33/33
f 35/35/35 36/36/36 34/34/34
g pb_Mesh96974_1
f 39/39/39 38/38/38 37/37/37
f 40/40/40 39/39/39 37/37/37
f 43/43/43 42/42/42 41/41/41
f 44/44/44 43/43/43 41/41/41
f 47/47/47 46/46/46 45/45/45
f 47/47/47 48/48/48 46/46/46
