g pb_Mesh103466
v 10 6 -6
v -2 6 -6
v 10 6 0
v -2 6 0
v 10 6 0
v -2 6 0
v -2 14 0
v 10 20 0
v -2 22 0
v 10 22 0
v -2 6 0
v -2 6 -6
v -2 14 -6
v -2 14 0
v -2 22 -6
v -2 22 0
v -2 14 -6
v 10 6 -6
v 10 20 -6
v -2 6 -6
v -2 22 -6
v 10 22 -6
v 16 14 -6
v 16 6 0
v 16 14 0
v 16 6 -6
v 10 22 -6
v 10 20 0
v 10 22 0
v 10 20 -6
v 16 6 0
v 16 14 0
v 16 14 -6
v 16 6 -6
v 16 6 -6
v 16 6 0
v 10 22 0
v -2 22 0
v 10 22 -6
v -2 22 -6
v 10 20 0
v 10 20 -6
v 16 14 0
v 16 14 -6
vt 10 -6
vt -2 -6
vt 10 0
vt -2 0
vt 10 6
vt -2 6
vt -2 14
vt 10 20
vt -2 22
vt 10 22
vt 0 6
vt -6 6
vt -6 14
vt 0 14
vt -6 22
vt 0 22
vt 2 14
vt -10 6
vt -10 20
vt 2 6
vt 2 22
vt -10 22
vt 6 14
vt 0 6
vt 0 14
vt 6 6
vt 6 22
vt 0 20
vt 0 22
vt 6 20
vt 16 6
vt 16 14
vt -16 14
vt -16 6
vt 16 -6
vt 16 0
vt -10 0
vt 2 0
vt -10 -6
vt 2 -6
vt 7.071068 0
vt 7.071068 -6
vt -1.4142135 0
vt -1.4142135 -6
vn -0 -1 0
vn -0 -1 0
vn -0 -1 0
vn -0 -1 0
vn -0 0 1
vn -0 0 1
vn -0 0 1
vn -0 0 1
vn -0 0 1
vn -0 0 1
vn -1 0 0
vn -1 0 0
vn -1 0 0
vn -1 0 0
vn -1 0 0
vn -1 0 0
vn -0 0 -1
vn -0 0 -1
vn -0 0 -1
vn -0 0 -1
vn -0 0 -1
vn -0 0 -1
vn 1 0 0
vn 1 0 0
vn 1 0 0
vn 1 0 0
vn 1 0 0
vn 1 0 0
vn 1 0 0
vn 1 0 0
vn -0 0 1
vn -0 0 1
vn -0 0 -1
vn -0 0 -1
vn -0 -1 0
vn -0 -1 0
vn -0 1 0
vn -0 1 0
vn -0 1 0
vn -0 1 0
vn 0.70710677 0.70710677 0
vn 0.70710677 0.70710677 0
vn 0.70710677 0.70710677 0
vn 0.70710677 0.70710677 0
g pb_Mesh103466_0
f 3/3/3 2/2/2 1/1/1
f 3/3/3 4/4/4 2/2/2
f 7/7/7 6/6/6 5/5/5
f 7/7/7 5/5/5 8/8/8
f 9/9/9 7/7/7 8/8/8
f 9/9/9 8/8/8 10/10/10
f 13/13/13 12/12/12 11/11/11
f 13/13/13 11/11/11 14/14/14
f 15/15/15 13/13/13 14/14/14
f 15/15/15 14/14/14 16/16/16
f 19/19/19 18/18/18 17/17/17
f 18/18/18 20/20/20 17/17/17
f 22/22/22 19/19/19 21/21/21
f 19/19/19 17/17/17 21/21/21
f 25/25/25 24/24/24 23/23/23
f 24/24/24 26/26/26 23/23/23
f 29/29/29 28/28/28 27/27/27
f 28/28/28 30/30/30 27/27/27
f 31/31/31 8/8/8 5/5/5
f 31/31/31 32/32/32 8/8/8
f 33/33/33 18/18/18 19/19/19
f 33/33/33 34/34/34 18/18/18
f 35/35/35 3/3/3 1/1/1
f 35/35/35 36/36/36 3/3/3
g pb_Mesh103466_1
f 39/39/39 38/38/38 37/37/37
f 39/39/39 40/40/40 38/38/38
f 43/43/43 42/42/42 41/41/41
f 43/43/43 44/44/44 42/42/42
