g pb_Mesh90690
v -0.68181837 -4.5000014 0.00046523436
v -0.68181837 4.5 -0.00046752434
v -0.45454565 -4.50003 0.45361266
v -0.45454565 4.4999714 0.4554785
v -0.45454565 -4.50003 0.45361266
v -0.45454565 4.4999714 0.4554785
v -1.7881393E-07 -4.5000443 0.6808854
v -1.7881393E-07 4.499957 0.6827512
v -1.7881393E-07 -4.5000443 0.6808854
v -1.7881393E-07 4.499957 0.6827512
v 0.4545453 -4.50003 0.45361266
v 0.4545453 4.4999714 0.4554785
v 0.4545453 -4.50003 0.45361266
v 0.4545453 4.4999714 0.4554785
v 0.681818 -4.5000014 0.00046523436
v 0.681818 4.5 -0.00046752434
v 0.681818 -4.5000014 0.00046523436
v 0.681818 4.5 -0.00046752434
v 0.4545453 -4.499973 -0.45547947
v 0.4545453 4.500028 -0.4536132
v 0.4545453 -4.499973 -0.45547947
v 0.4545453 4.500028 -0.4536132
v -1.7881393E-07 -4.4999585 -0.6827522
v -1.7881393E-07 4.5000424 -0.6808863
v -1.7881393E-07 -4.4999585 -0.6827522
v -1.7881393E-07 4.5000424 -0.6808863
v -0.45454565 -4.499973 -0.45547947
v -0.45454565 4.500028 -0.4536132
v -0.45454565 -4.499973 -0.45547947
v -0.45454565 4.500028 -0.4536132
v -0.68181837 -4.5000014 0.00046523436
v -0.68181837 4.5 -0.00046752434
v -0.45454565 -4.50003 0.45361266
v -1.7881393E-07 -4.5000014 0.00046523436
v -0.68181837 -4.5000014 0.00046523436
v -1.7881393E-07 -4.5000443 0.6808854
v 0.4545453 -4.50003 0.45361266
v 0.681818 -4.5000014 0.00046523436
v 0.4545453 -4.499973 -0.45547947
v -1.7881393E-07 -4.4999585 -0.6827522
v -0.45454565 -4.499973 -0.45547947
v -0.68181837 4.5 -0.00046752434
v -1.7881393E-07 4.5 -0.00046752434
v -0.45454565 4.4999714 0.4554785
v -1.7881393E-07 4.499957 0.6827512
v 0.4545453 4.4999714 0.4554785
v 0.681818 4.5 -0.00046752434
v 0.4545453 4.500028 -0.4536132
v -1.7881393E-07 4.5000424 -0.6808863
v -0.45454565 4.500028 -0.4536132
vt -0.30525446 -4.5000296
vt -0.30608824 4.499972
vt 0.20169276 -4.500058
vt 0.20336059 4.4999433
vt -0.20369625 -4.499917
vt -0.20286183 4.5000844
vt 0.30450106 -4.4999313
vt 0.30533546 4.50007
vt -0.30450138 -4.4999313
vt -0.3053358 4.50007
vt 0.20369594 -4.499917
vt 0.2028615 4.5000844
vt -0.20169292 -4.4999733
vt -0.20336075 4.500028
vt 0.3052543 -4.4999447
vt 0.3060881 4.5000567
vt -0.30458537 -4.4999733
vt -0.30375057 4.500028
vt 0.20486382 -4.4999447
vt 0.20319355 4.5000563
vt -0.20286106 -4.5000863
vt -0.20369568 4.499915
vt 0.3053362 -4.500072
vt 0.30450177 4.4999294
vt -0.3053359 -4.5000715
vt -0.30450147 4.4999294
vt 0.20286137 -4.500086
vt 0.203696 4.499915
vt -0.20486367 -4.500029
vt -0.20319338 4.499972
vt 0.30458552 -4.5000577
vt 0.30375072 4.4999437
vt -0.45454565 0.45389676
vt -1.7881393E-07 0.0007493496
vt -0.68181837 0.0007493496
vt -4.697918E-07 0.6811692
vt 0.4545456 0.4538965
vt 0.681818 0.0007493496
vt 0.4545453 -0.4551971
vt 1.1122652E-07 -0.68246955
vt -0.45454594 -0.45519683
vt 0.68181837 -0.0007498956
vt 1.7881393E-07 -0.0007498956
vt 0.45454565 0.4551961
vt 4.6914408E-07 0.68246853
vt -0.4545456 0.45519584
vt -0.681818 -0.0007498956
vt -0.4545453 -0.4538926
vt 1.4641063E-06 -0.681167
vt 0.45454437 -0.45389387
vn -0.9999998 3.8855447E-05 0.0006151946
vn -0.9999998 -3.8850325E-05 -0.0006166778
vn -0.707106 -0.00010985715 0.70710754
vn -0.70754135 -0.00014650282 0.70667195
vn -0.707106 -0.00010985715 0.70710754
vn -0.70754135 -0.00014650282 0.70667195
vn -0 -0.00020731235 1
vn -0 -0.00020731238 1
vn -0 -0.00020731235 1
vn -0 -0.00020731238 1
vn 0.7066706 -0.00014668333 0.70754266
vn 0.707106 -0.00011003737 0.70710754
vn 0.7066706 -0.00014668333 0.70754266
vn 0.707106 -0.00011003737 0.70710754
vn 0.9999998 -3.8889193E-05 0.0006149158
vn 0.9999998 3.8896414E-05 -0.0006161983
vn 0.9999998 -3.8889193E-05 0.0006149158
vn 0.9999998 3.8896414E-05 -0.0006161983
vn 0.7071055 0.000110067 -0.707108
vn 0.70667017 0.00014670842 -0.7075431
vn 0.7071055 0.000110067 -0.707108
vn 0.70667017 0.00014670842 -0.7075431
vn 1.8326008E-07 0.00020732981 -1
vn 1.832601E-07 0.00020732978 -1
vn 1.8326008E-07 0.00020732981 -1
vn 1.832601E-07 0.00020732978 -1
vn -0.70754105 0.00014652785 -0.70667225
vn -0.7071058 0.00010988606 -0.7071078
vn -0.70754105 0.00014652785 -0.70667225
vn -0.7071058 0.00010988606 -0.7071078
vn -0.9999998 3.8855447E-05 0.0006151946
vn -0.9999998 -3.8850325E-05 -0.0006166778
vn -0 -1 -6.31367E-05
vn -0 -1 -6.31367E-05
vn -0 -1 -6.31367E-05
vn 6.466111E-08 -1 -6.3071835E-05
vn -6.466249E-08 -1 -6.3071835E-05
vn -0 -1 -6.31367E-05
vn -0 -1 -6.274934E-05
vn -6.445403E-08 -1 -6.28136E-05
vn 6.445539E-08 -1 -6.28136E-05
vn -0 1 6.274916E-05
vn -0 1 6.274916E-05
vn -0 1 6.274916E-05
vn 6.4518424E-08 1 6.281348E-05
vn -6.4518424E-08 1 6.281348E-05
vn -0 1 6.274916E-05
vn -0 1 6.2084655E-05
vn 2.8561783E-07 1 6.237115E-05
vn -2.8561783E-07 1 6.237115E-05
g pb_Mesh90690_0
f 3/3/3 2/2/2 1/1/1
f 3/3/3 4/4/4 2/2/2
f 7/7/7 6/6/6 5/5/5
f 7/7/7 8/8/8 6/6/6
f 11/11/11 10/10/10 9/9/9
f 11/11/11 12/12/12 10/10/10
f 15/15/15 14/14/14 13/13/13
f 15/15/15 16/16/16 14/14/14
f 19/19/19 18/18/18 17/17/17
f 19/19/19 20/20/20 18/18/18
f 23/23/23 22/22/22 21/21/21
f 23/23/23 24/24/24 22/22/22
f 27/27/27 26/26/26 25/25/25
f 27/27/27 28/28/28 26/26/26
f 31/31/31 30/30/30 29/29/29
f 31/31/31 32/32/32 30/30/30
f 35/35/35 34/34/34 33/33/33
f 33/33/33 34/34/34 36/36/36
f 36/36/36 34/34/34 37/37/37
f 37/37/37 34/34/34 38/38/38
f 38/38/38 34/34/34 39/39/39
f 39/39/39 34/34/34 40/40/40
f 40/40/40 34/34/34 41/41/41
f 41/41/41 34/34/34 35/35/35
f 44/44/44 43/43/43 42/42/42
f 45/45/45 43/43/43 44/44/44
f 46/46/46 43/43/43 45/45/45
f 47/47/47 43/43/43 46/46/46
f 48/48/48 43/43/43 47/47/47
f 49/49/49 43/43/43 48/48/48
f 50/50/50 43/43/43 49/49/49
f 42/42/42 43/43/43 50/50/50
