g pb_Mesh-200378
v -0.74999964 -3 0.24999985
v -0.99999964 -3 0.24999976
v -0.7499996 8.957437 0.24999957
v -1.0000014 8.957437 0.24999882
v -0.99999964 -3 0.24999976
v -0.9999995 -3 -2.3841858E-07
v -1.0000014 8.957437 0.24999882
v -0.9999988 8.957437 -1.1701695E-06
v -0.9999995 -3 -2.3841858E-07
v -0.7499995 -3 -1.4901161E-07
v -0.9999988 8.957437 -1.1701695E-06
v -0.7500007 8.957437 -4.251026E-07
v 1.0000005 -3 4.7683716E-07
v 1.0000004 -3 0.25000048
v 0.9999993 8.957437 9.756066E-07
v 1.0000005 8.957437 0.25000098
v -0.7499996 8.957437 0.24999957
v -1.0000014 8.957437 0.24999882
v -0.7500007 8.957437 -4.251026E-07
v -0.9999988 8.957437 -1.1701695E-06
v -0.7499995 -3 -1.4901161E-07
v -0.9999995 -3 -2.3841858E-07
v -0.74999964 -3 0.24999985
v -0.99999964 -3 0.24999976
v 0.7500005 -3 3.874302E-07
v 0.75000036 -3 0.2500004
v 1.0000005 -3 4.7683716E-07
v 1.0000004 -3 0.25000048
v 0.7499993 8.957437 2.305485E-07
v 0.7500005 -3 3.874302E-07
v 0.9999993 8.957437 9.756066E-07
v 1.0000005 -3 4.7683716E-07
v 0.75000036 -3 0.2500004
v 0.7500005 8.957437 0.25000024
v 1.0000004 -3 0.25000048
v 1.0000005 8.957437 0.25000098
v 0.7500005 8.957437 0.25000024
v 0.7499993 8.957437 2.305485E-07
v 1.0000005 8.957437 0.25000098
v 0.9999993 8.957437 9.756066E-07
v -0.74999964 -3 0.24999985
v -0.7499996 8.957437 0.24999957
v -0.7499995 -3 -1.4901161E-07
v -0.7500007 8.957437 -4.251026E-07
v 0.7500005 8.957437 0.25000024
v 0.75000036 -3 0.2500004
v 0.7499993 8.957437 2.305485E-07
v 0.7500005 -3 3.874302E-07
v -0.7499996 -3 0.12499985
v -0.7500001 8.957437 0.124999575
v 0.7500004 -3 0.12500039
v 0.7499999 8.957437 0.12500022
vt -0.7499996 -3
vt -0.9999996 -3
vt -0.7499995 8.957437
vt -1.0000013 8.957437
vt -1.8749998 -2.9999998
vt -2.1249998 -2.9999998
vt -1.8750007 8.957437
vt -2.1250007 8.957437
vt 0.9999995 -3
vt 0.7499995 -3
vt 0.9999988 8.957437
vt 0.7500007 8.957437
vt 2.125 -3
vt 1.875 -3
vt 2.1249995 8.957437
vt 1.8749995 8.957437
vt 0.7499996 -1.8750005
vt 1.0000014 -1.8750012
vt 0.7500007 -2.1250005
vt 0.9999988 -2.1250012
vt -0.7499995 -2.1250002
vt -0.9999995 -2.1250002
vt -0.74999964 -1.8750001
vt -0.99999964 -1.8750002
vt 0.7500005 -2.1249995
vt 0.75000036 -1.8749996
vt 1.0000005 -2.1249995
vt 1.0000004 -1.8749995
vt -0.7499993 8.957437
vt -0.7500005 -3
vt -0.9999993 8.957437
vt -1.0000005 -3
vt 0.7500005 -3
vt 0.7500006 8.957437
vt 1.0000005 -3
vt 1.0000006 8.957437
vt -0.7500005 -1.8749998
vt -0.7499993 -2.1249998
vt -1.0000005 -1.874999
vt -0.9999993 -2.124999
vt 1.8749998 -3
vt 1.8750001 8.957437
vt 2.1249998 -3
vt 2.125 8.957437
vt -1.8749962 8.957437
vt -1.8749961 -3
vt -2.1249962 8.957437
vt -2.124996 -3
vt -0.7499995 -3
vt -0.75000006 8.957437
vt 0.7500005 -3
vt 0.74999994 8.957437
vn -3.5762787E-07 2.367749E-08 1
vn -1.668919E-06 5.1093302E-08 1
vn -1.668919E-06 5.1093302E-08 1
vn -2.9802102E-06 7.850912E-08 1
vn -1 -1.4954207E-07 -4.7683716E-07
vn -1 -4.486304E-08 -5.4836273E-06
vn -1 -4.486304E-08 -5.4836273E-06
vn -1 5.9815996E-08 -1.04904175E-05
vn 3.5762787E-07 -7.7922316E-08 -1
vn 1.6689593E-06 -5.050575E-08 -1
vn 1.6689593E-06 -5.050575E-08 -1
vn 2.9802907E-06 -2.3089184E-08 -1
vn 1 9.969467E-08 4.7683716E-07
vn 1 4.4862702E-08 -2.145767E-06
vn 1 4.4862702E-08 -2.145767E-06
vn 1 -9.969266E-09 -4.768371E-06
vn -0 1 0
vn -0 1 0
vn -0 1 0
vn -0 1 0
vn -0 -1 0
vn -0 -1 0
vn -0 -1 0
vn -0 -1 0
vn -0 -1 0
vn -0 -1 0
vn -0 -1 0
vn -0 -1 0
vn 2.9802322E-06 -1.3119713E-08 -1
vn 1.66893E-06 1.4296196E-08 -1
vn 1.66893E-06 1.4296196E-08 -1
vn 3.5762787E-07 4.1712106E-08 -1
vn -3.5762787E-07 1.246184E-08 1
vn -1.66893E-06 -1.4954187E-08 1
vn -1.66893E-06 -1.4954187E-08 1
vn -2.9802322E-06 -4.2370214E-08 1
vn -0 1 0
vn -0 1 0
vn -0 1 0
vn -0 1 0
vn 1 -4.984723E-09 4.7683716E-07
vn 1 4.735493E-08 -2.026558E-06
vn 1 4.735493E-08 -2.026558E-06
vn 1 9.969458E-08 -4.529953E-06
vn -1 9.969528E-09 4.7683716E-06
vn -1 -4.4862585E-08 2.1457672E-06
vn -1 -4.4862585E-08 2.1457672E-06
vn -1 -9.9694695E-08 -4.7683716E-07
vn -3.5762787E-07 2.305438E-08 1
vn -3.9488077E-07 1.838119E-08 1
vn -3.9488077E-07 1.838119E-08 1
vn -4.3213367E-07 1.3708002E-08 1
g pb_Mesh-200378_0
f 3/3/3 2/2/2 1/1/1
f 3/3/3 4/4/4 2/2/2
f 7/7/7 6/6/6 5/5/5
f 7/7/7 8/8/8 6/6/6
f 11/11/11 10/10/10 9/9/9
f 11/11/11 12/12/12 10/10/10
f 15/15/15 14/14/14 13/13/13
f 15/15/15 16/16/16 14/14/14
f 19/19/19 18/18/18 17/17/17
f 19/19/19 20/20/20 18/18/18
f 23/23/23 22/22/22 21/21/21
f 23/23/23 24/24/24 22/22/22
f 27/27/27 26/26/26 25/25/25
f 27/27/27 28/28/28 26/26/26
f 31/31/31 30/30/30 29/29/29
f 31/31/31 32/32/32 30/30/30
f 35/35/35 34/34/34 33/33/33
f 35/35/35 36/36/36 34/34/34
f 39/39/39 38/38/38 37/37/37
f 39/39/39 40/40/40 38/38/38
f 43/43/43 42/42/42 41/41/41
f 43/43/43 44/44/44 42/42/42
f 47/47/47 46/46/46 45/45/45
f 47/47/47 48/48/48 46/46/46
g pb_Mesh-200378_1
f 51/51/51 50/50/50 49/49/49
f 51/51/51 52/52/52 50/50/50
