g pb_Mesh73152
v 1 7 1
v -1 7 1
v 1 7 -1
v -1 7 -1
v 1 -7 -1
v -1 -7 -1
v 1 -7 1
v -1 -7 1
v 1 -7 1
v -1 -7 1
v -1 -4 1
v 1 -4 1
v -1 -7 1
v -1 -7 -1
v -1 -4 -1
v -1 -4 1
v -1 -4 -1
v 1 -7 -1
v 1 -4 -1
v -1 -7 -1
v 1 -4 -1
v 1 -7 1
v 1 -4 1
v 1 -7 -1
v 1 -4 1
v -1 -4 1
v -0.5 -3 0.5
v 0.5 -3 0.5
v -1 -4 1
v -1 -4 -1
v -0.5 -3 -0.5
v -0.5 -3 0.5
v -0.5 -3 -0.5
v 1 -4 -1
v 0.5 -3 -0.5
v -1 -4 -1
v 0.5 -3 -0.5
v 1 -4 1
v 0.5 -3 0.5
v 1 -4 -1
v 1 4 1
v -1 4 1
v -1 7 1
v 1 7 1
v -1 4 1
v -1 4 -1
v -1 7 -1
v -1 7 1
v -1 7 -1
v 1 4 -1
v 1 7 -1
v -1 4 -1
v 1 7 -1
v 1 4 1
v 1 7 1
v 1 4 -1
v 0.5 -3 0.5
v -0.5 -3 0.5
v -0.5 3 0.5
v 0.5 3 0.5
v 0.5 3 0.5
v -0.5 3 0.5
v -1 4 1
v 1 4 1
v -0.5 -3 0.5
v -0.5 -3 -0.5
v -0.5 3 -0.5
v -0.5 3 0.5
v -0.5 3 0.5
v -0.5 3 -0.5
v -1 4 -1
v -1 4 1
v -0.5 3 -0.5
v 0.5 -3 -0.5
v 0.5 3 -0.5
v -0.5 -3 -0.5
v -1 4 -1
v 0.5 3 -0.5
v 1 4 -1
v -0.5 3 -0.5
v 0.5 3 -0.5
v 0.5 -3 0.5
v 0.5 3 0.5
v 0.5 -3 -0.5
v 1 4 -1
v 0.5 3 0.5
v 1 4 1
v 0.5 3 -0.5
vt -1 1
vt 1 1
vt -1 -1
vt 1 -1
vt 1 -1
vt -1 -1
vt 1 1
vt -1 1
vt 1 -7
vt -1 -7
vt -1 -4
vt 1 -4
vt 1 -7
vt -1 -7
vt -1 -4
vt 1 -4
vt 1 -4
vt -1 -7
vt -1 -4
vt 1 -7
vt 1 -4
vt -1 -7
vt -1 -4
vt 1 -7
vt 1 -4
vt -1 -4
vt -0.5 -3
vt 0.5 -3
vt 1 -4
vt -1 -4
vt -0.5 -3
vt 0.5 -3
vt 0.5 -3
vt -1 -4
vt -0.5 -3
vt 1 -4
vt 0.5 -3
vt -1 -4
vt -0.5 -3
vt 1 -4
vt 1 4
vt -1 4
vt -1 7
vt 1 7
vt 1 4
vt -1 4
vt -1 7
vt 1 7
vt 1 7
vt -1 4
vt -1 7
vt 1 4
vt 1 7
vt -1 4
vt -1 7
vt 1 4
vt 0.5 -3
vt -0.5 -3
vt -0.5 3
vt 0.5 3
vt 0.5 3
vt -0.5 3
vt -1 4
vt 1 4
vt 0.5 -3
vt -0.5 -3
vt -0.5 3
vt 0.5 3
vt 0.5 3
vt -0.5 3
vt -1 4
vt 1 4
vt 0.5 3
vt -0.5 -3
vt -0.5 3
vt 0.5 -3
vt 1 4
vt -0.5 3
vt -1 4
vt 0.5 3
vt 0.5 3
vt -0.5 -3
vt -0.5 3
vt 0.5 -3
vt 1 4
vt -0.5 3
vt -1 4
vt 0.5 3
vn -0 1 0
vn -0 1 0
vn -0 1 0
vn -0 1 0
vn -0 -1 0
vn -0 -1 0
vn -0 -1 0
vn -0 -1 0
vn -0 0 1
vn -0 0 1
vn -0 0 1
vn -0 0 1
vn -1 0 0
vn -1 0 0
vn -1 0 0
vn -1 0 0
vn -0 0 -1
vn -0 0 -1
vn -0 0 -1
vn -0 0 -1
vn 1 0 0
vn 1 0 0
vn 1 0 0
vn 1 0 0
vn -0 0.4472136 0.8944272
vn -0 0.4472136 0.8944272
vn -0 0.4472136 0.8944272
vn -0 0.4472136 0.8944272
vn -0.8944272 0.4472136 0
vn -0.8944272 0.4472136 0
vn -0.8944272 0.4472136 0
vn -0.8944272 0.4472136 0
vn -0 0.4472136 -0.8944272
vn -0 0.4472136 -0.8944272
vn -0 0.4472136 -0.8944272
vn -0 0.4472136 -0.8944272
vn 0.8944272 0.4472136 0
vn 0.8944272 0.4472136 0
vn 0.8944272 0.4472136 0
vn 0.8944272 0.4472136 0
vn -0 0 1
vn -0 0 1
vn -0 0 1
vn -0 0 1
vn -1 0 0
vn -1 0 0
vn -1 0 0
vn -1 0 0
vn -0 0 -1
vn -0 0 -1
vn -0 0 -1
vn -0 0 -1
vn 1 0 0
vn 1 0 0
vn 1 0 0
vn 1 0 0
vn -0 0 1
vn -0 0 1
vn -0 0 1
vn -0 0 1
vn -0 -0.4472136 0.8944272
vn -0 -0.4472136 0.8944272
vn -0 -0.4472136 0.8944272
vn -0 -0.4472136 0.8944272
vn -1 0 0
vn -1 0 0
vn -1 0 0
vn -1 0 0
vn -0.8944272 -0.4472136 0
vn -0.8944272 -0.4472136 0
vn -0.8944272 -0.4472136 0
vn -0.8944272 -0.4472136 0
vn -0 0 -1
vn -0 0 -1
vn -0 0 -1
vn -0 0 -1
vn -0 -0.4472136 -0.8944272
vn -0 -0.4472136 -0.8944272
vn -0 -0.4472136 -0.8944272
vn -0 -0.4472136 -0.8944272
vn 1 0 0
vn 1 0 0
vn 1 0 0
vn 1 0 0
vn 0.8944272 -0.4472136 0
vn 0.8944272 -0.4472136 0
vn 0.8944272 -0.4472136 0
vn 0.8944272 -0.4472136 0
g pb_Mesh73152_0
f 3/3/3 2/2/2 1/1/1
f 3/3/3 4/4/4 2/2/2
f 7/7/7 6/6/6 5/5/5
f 7/7/7 8/8/8 6/6/6
f 11/11/11 10/10/10 9/9/9
f 11/11/11 9/9/9 12/12/12
f 15/15/15 14/14/14 13/13/13
f 15/15/15 13/13/13 16/16/16
f 19/19/19 18/18/18 17/17/17
f 18/18/18 20/20/20 17/17/17
f 23/23/23 22/22/22 21/21/21
f 22/22/22 24/24/24 21/21/21
f 27/27/27 26/26/26 25/25/25
f 27/27/27 25/25/25 28/28/28
f 31/31/31 30/30/30 29/29/29
f 31/31/31 29/29/29 32/32/32
f 35/35/35 34/34/34 33/33/33
f 34/34/34 36/36/36 33/33/33
f 39/39/39 38/38/38 37/37/37
f 38/38/38 40/40/40 37/37/37
f 43/43/43 42/42/42 41/41/41
f 43/43/43 41/41/41 44/44/44
f 47/47/47 46/46/46 45/45/45
f 47/47/47 45/45/45 48/48/48
f 51/51/51 50/50/50 49/49/49
f 50/50/50 52/52/52 49/49/49
f 55/55/55 54/54/54 53/53/53
f 54/54/54 56/56/56 53/53/53
f 59/59/59 58/58/58 57/57/57
f 59/59/59 57/57/57 60/60/60
f 63/63/63 62/62/62 61/61/61
f 63/63/63 61/61/61 64/64/64
f 67/67/67 66/66/66 65/65/65
f 67/67/67 65/65/65 68/68/68
f 71/71/71 70/70/70 69/69/69
f 71/71/71 69/69/69 72/72/72
f 75/75/75 74/74/74 73/73/73
f 74/74/74 76/76/76 73/73/73
f 79/79/79 78/78/78 77/77/77
f 78/78/78 80/80/80 77/77/77
f 83/83/83 82/82/82 81/81/81
f 82/82/82 84/84/84 81/81/81
f 87/87/87 86/86/86 85/85/85
f 86/86/86 88/88/88 85/85/85
