g pb_Mesh96304
v 4 0 2
v -0 0 2
v -0 2 2
v 4 2 2
v -2 0 2
v -2 2 2
v -2 2 -10
v -0 0 -10
v -0 2 -10
v -2 0 -10
v 4 0 -10
v 4 2 -10
v -4 0 0
v -4 0 -2
v -4 2 -2
v -4 2 0
v 4 2 -2
v 4 0 0
v 4 2 0
v 4 0 -2
v 9 -3 0
v 5 -3 -2
v 5 -3 0
v 9 -3 -2
v -8 -11 0
v -10 -11 -2
v -10 -11 0
v -8 -11 -2
v -4 0 -6
v -4 2 -6
v -4 0 -8
v -4 2 -8
v 4 2 -6
v 4 0 -6
v 4 2 -8
v 4 0 -8
v 9 -3 -6
v 5 -3 -8
v 5 -3 -6
v 9 -3 -8
v -8 -11 -6
v -10 -11 -8
v -10 -11 -6
v -8 -11 -8
v -0 0 -2
v -4 0 -6
v -4 0 -2
v -0 0 -6
v -4 0 -8
v -4 0 -6
v -10 -11 -8
v -10 -11 -6
v -4 0 -6
v -0 0 -6
v -10 -11 -6
v -8 -11 -6
v -0 0 -6
v -0 0 -8
v -8 -11 -6
v -8 -11 -8
v -0 0 -8
v -4 0 -8
v -8 -11 -8
v -10 -11 -8
v -4 0 -2
v -4 0 0
v -10 -11 -2
v -10 -11 0
v -4 0 0
v -0 0 0
v -10 -11 0
v -8 -11 0
v -0 0 0
v -0 0 -2
v -8 -11 0
v -8 -11 -2
v -0 0 -2
v -4 0 -2
v -8 -11 -2
v -10 -11 -2
v 4 2 -10
v 4 0 -10
v 5 -3 -10
v 9 -3 -10
v -4 0 -8
v -2 0 -10
v -2 2 -10
v -4 2 -8
v -0 0 -8
v -2 0 -10
v -4 0 -8
v -0 0 -10
v -0 0 0
v -4 0 0
v -0 0 2
v -2 0 2
v -4 0 0
v -4 2 0
v -2 0 2
v -2 2 2
v 4 2 2
v 4 0 2
v 9 -3 2
v 5 -3 2
v -0 0 -6
v -0 0 -2
v 5 -3 -6
v 5 -3 -2
v -0 0 0
v -0 0 2
v 5 -3 0
v 5 -3 2
v 4 0 -2
v 4 0 -6
v 9 -3 -2
v 9 -3 -6
v 4 0 -8
v 9 -3 -8
v 4 0 2
v 4 0 0
v 9 -3 2
v 9 -3 0
v 5 -3 2
v 9 -3 2
v -0 0 -8
v 5 -3 -8
v 4 0 -10
v 9 -3 -10
v -0 0 -10
v 5 -3 -10
v 9 -3 -10
v 5 -3 -10
v -0 2 -2
v 4 2 -2
v 4 2 0
v -0 2 0
v -4 2 -2
v -4 2 0
v -0 2 -8
v 4 2 -8
v 4 2 -6
v -0 2 -6
v -4 2 -8
v -4 2 -6
v -0 2 -10
v 4 2 -10
v -2 2 -10
v -2 2 2
v -0 2 2
v 4 2 2
vt 4 0
vt 0 0
vt 0 2
vt 4 2
vt -2 0
vt -2 2
vt 2 2
vt 0 0
vt 0 2
vt 2 0
vt -4 0
vt -4 2
vt 0 0
vt -2 0
vt -2 2
vt 0 2
vt 2 2
vt 0 0
vt 0 2
vt 2 0
vt 9 0
vt 5 -2
vt 5 0
vt 9 -2
vt -8 0
vt -10 -2
vt -10 0
vt -8 -2
vt -6 0
vt -6 2
vt -8 0
vt -8 2
vt 6 2
vt 6 0
vt 8 2
vt 8 0
vt 9 -6
vt 5 -8
vt 5 -6
vt 9 -8
vt -8 -6
vt -10 -8
vt -10 -6
vt -8 -8
vt 0 -2
vt -4 -6
vt -4 -2
vt 0 -6
vt -8 -1.9154085
vt -6 -1.9154085
vt -8 -14.445372
vt -6 -14.445372
vt -4 0
vt 0 0
vt -10 -11
vt -8 -11
vt 6 0
vt 8 0
vt 6 -13.60147
vt 8 -13.60147
vt 0 0
vt 4 0
vt 8 -11
vt 10 -11
vt -2 -1.9154085
vt 0 -1.9154085
vt -2 -14.445372
vt 0 -14.445372
vt -4 0
vt 0 0
vt -10 -11
vt -8 -11
vt 0 0
vt 2 0
vt 0 -13.60147
vt 2 -13.60147
vt 0 0
vt 4 0
vt 8 -11
vt 10 -11
vt 10 2
vt 10 0
vt 5 -10
vt 9 -10
vt -2.828427 0
vt -5.656854 0
vt -5.656854 2
vt -2.828427 2
vt 0 -8
vt -2 -10
vt -4 -8
vt 0 -10
vt 0 0
vt -4 0
vt 0 2
vt -2 2
vt -2.828427 0
vt -2.828427 2
vt 0 0
vt 0 2
vt -2 2
vt -2 0
vt 9 2
vt 5 2
vt -0 -6
vt -0 -2
vt 5.8309517 -6
vt 5.8309517 -2
vt 0 0
vt 0 2
vt 5.8309517 0
vt 5.8309517 2
vt -3.4299715 -2
vt -3.4299715 -6
vt -9.260923 -2
vt -9.260923 -6
vt -3.4299715 -8
vt -9.260923 -8
vt -3.4299715 2
vt -3.4299715 0
vt -9.260923 2
vt -9.260923 0
vt 5 -3
vt 9 -3
vt -0 -8
vt 5.8309517 -8
vt -3.4299715 -10
vt -9.260923 -10
vt -0 -10
vt 5.8309517 -10
vt -9 -3
vt -5 -3
vt 0 -2
vt -4 -2
vt -4 0
vt 0 0
vt 4 -2
vt 4 0
vt 0 -8
vt -4 -8
vt -4 -6
vt 0 -6
vt 4 -8
vt 4 -6
vt 0 -10
vt -4 -10
vt 2 -10
vt 2 2
vt 0 2
vt -4 2
vn -0 0 1
vn -0 0 1
vn -0 0 1
vn -0 0 1
vn -0 0 1
vn -0 0 1
vn -0 0 -1
vn -0 0 -1
vn -0 0 -1
vn -0 0 -1
vn -0 0 -1
vn -0 0 -1
vn -1 0 0
vn -1 0 0
vn -1 0 0
vn -1 0 0
vn 1 0 0
vn 1 0 0
vn 1 0 0
vn 1 0 0
vn -0 -1 0
vn -0 -1 0
vn -0 -1 0
vn -0 -1 0
vn -0 -1 0
vn -0 -1 0
vn -0 -1 0
vn -0 -1 0
vn -1 0 0
vn -1 0 0
vn -1 0 0
vn -1 0 0
vn 1 0 0
vn 1 0 0
vn 1 0 0
vn 1 0 0
vn -0 -1 0
vn -0 -1 0
vn -0 -1 0
vn -0 -1 0
vn -0 -1 0
vn -0 -1 0
vn -0 -1 0
vn -0 -1 0
vn -0 -1 0
vn -0 -1 0
vn -0 -1 0
vn -0 -1 0
vn -0.8778956 0.47885215 0
vn -0.8778956 0.47885215 0
vn -0.8778956 0.47885215 0
vn -0.8778956 0.47885215 0
vn -0 0 1
vn -0 0 1
vn -0 0 1
vn -0 0 1
vn 0.8087361 -0.58817166 0
vn 0.8087361 -0.58817166 0
vn 0.8087361 -0.58817166 0
vn 0.8087361 -0.58817166 0
vn -0 0 -1
vn -0 0 -1
vn -0 0 -1
vn -0 0 -1
vn -0.8778956 0.47885215 0
vn -0.8778956 0.47885215 0
vn -0.8778956 0.47885215 0
vn -0.8778956 0.47885215 0
vn -0 0 1
vn -0 0 1
vn -0 0 1
vn -0 0 1
vn 0.8087361 -0.58817166 0
vn 0.8087361 -0.58817166 0
vn 0.8087361 -0.58817166 0
vn 0.8087361 -0.58817166 0
vn -0 0 -1
vn -0 0 -1
vn -0 0 -1
vn -0 0 -1
vn 1 0 0
vn 1 0 0
vn -0 -1 0
vn -0 -1 0
vn -0.70710677 0 -0.70710677
vn -0.70710677 0 -0.70710677
vn -0.70710677 0 -0.70710677
vn -0.70710677 0 -0.70710677
vn -0 -1 0
vn -0 -1 0
vn -0 -1 0
vn -0 -1 0
vn -0 -1 0
vn -0 -1 0
vn -0 -1 0
vn -0 -1 0
vn -0.70710677 0 0.70710677
vn -0.70710677 0 0.70710677
vn -0.70710677 0 0.70710677
vn -0.70710677 0 0.70710677
vn 1 0 0
vn 1 0 0
vn -0 -1 0
vn -0 -1 0
vn -0.51449573 -0.85749286 0
vn -0.51449573 -0.85749286 0
vn -0.51449573 -0.85749286 0
vn -0.51449573 -0.85749286 0
vn -0.51449573 -0.85749286 0
vn -0.51449573 -0.85749286 0
vn -0.51449573 -0.85749286 0
vn -0.51449573 -0.85749286 0
vn 0.51449573 0.85749286 0
vn 0.51449573 0.85749286 0
vn 0.51449573 0.85749286 0
vn 0.51449573 0.85749286 0
vn 0.51449573 0.85749286 0
vn 0.51449573 0.85749286 0
vn 0.51449573 0.85749286 0
vn 0.51449573 0.85749286 0
vn 0.51449573 0.85749286 0
vn 0.51449573 0.85749286 0
vn -0 0 1
vn -0 0 1
vn -0.51449573 -0.85749286 0
vn -0.51449573 -0.85749286 0
vn 0.51449573 0.85749286 0
vn 0.51449573 0.85749286 0
vn -0.51449573 -0.85749286 0
vn -0.51449573 -0.85749286 0
vn -0 0 -1
vn -0 0 -1
vn -0 1 0
vn -0 1 0
vn -0 1 0
vn -0 1 0
vn -0 1 0
vn -0 1 0
vn -0 1 0
vn -0 1 0
vn -0 1 0
vn -0 1 0
vn -0 1 0
vn -0 1 0
vn -0 1 0
vn -0 1 0
vn -0 1 0
vn -0 1 0
vn -0 1 0
vn -0 1 0
g pb_Mesh96304_0
f 3/3/3 2/2/2 1/1/1
f 3/3/3 1/1/1 4/4/4
f 6/6/6 5/5/5 2/2/2
f 6/6/6 2/2/2 3/3/3
f 9/9/9 8/8/8 7/7/7
f 8/8/8 10/10/10 7/7/7
f 12/12/12 11/11/11 9/9/9
f 11/11/11 8/8/8 9/9/9
f 15/15/15 14/14/14 13/13/13
f 15/15/15 13/13/13 16/16/16
f 19/19/19 18/18/18 17/17/17
f 18/18/18 20/20/20 17/17/17
f 23/23/23 22/22/22 21/21/21
f 22/22/22 24/24/24 21/21/21
f 27/27/27 26/26/26 25/25/25
f 26/26/26 28/28/28 25/25/25
f 30/30/30 29/29/29 14/14/14
f 30/30/30 14/14/14 15/15/15
f 32/32/32 31/31/31 29/29/29
f 32/32/32 29/29/29 30/30/30
f 17/17/17 20/20/20 33/33/33
f 20/20/20 34/34/34 33/33/33
f 33/33/33 34/34/34 35/35/35
f 34/34/34 36/36/36 35/35/35
f 39/39/39 38/38/38 37/37/37
f 38/38/38 40/40/40 37/37/37
f 22/22/22 39/39/39 24/24/24
f 39/39/39 37/37/37 24/24/24
f 43/43/43 42/42/42 41/41/41
f 42/42/42 44/44/44 41/41/41
f 47/47/47 46/46/46 45/45/45
f 46/46/46 48/48/48 45/45/45
f 51/51/51 50/50/50 49/49/49
f 51/51/51 52/52/52 50/50/50
f 55/55/55 54/54/54 53/53/53
f 55/55/55 56/56/56 54/54/54
f 59/59/59 58/58/58 57/57/57
f 59/59/59 60/60/60 58/58/58
f 63/63/63 62/62/62 61/61/61
f 63/63/63 64/64/64 62/62/62
f 67/67/67 66/66/66 65/65/65
f 67/67/67 68/68/68 66/66/66
f 71/71/71 70/70/70 69/69/69
f 71/71/71 72/72/72 70/70/70
f 75/75/75 74/74/74 73/73/73
f 75/75/75 76/76/76 74/74/74
f 79/79/79 78/78/78 77/77/77
f 79/79/79 80/80/80 78/78/78
f 35/35/35 36/36/36 81/81/81
f 36/36/36 82/82/82 81/81/81
f 38/38/38 83/83/83 40/40/40
f 83/83/83 84/84/84 40/40/40
f 87/87/87 86/86/86 85/85/85
f 87/87/87 85/85/85 88/88/88
f 91/91/91 90/90/90 89/89/89
f 90/90/90 92/92/92 89/89/89
f 95/95/95 94/94/94 93/93/93
f 95/95/95 96/96/96 94/94/94
f 99/99/99 98/98/98 97/97/97
f 99/99/99 100/100/100 98/98/98
f 101/101/101 18/18/18 19/19/19
f 101/101/101 102/102/102 18/18/18
f 103/103/103 23/23/23 21/21/21
f 103/103/103 104/104/104 23/23/23
f 107/107/107 106/106/106 105/105/105
f 107/107/107 108/108/108 106/106/106
f 111/111/111 110/110/110 109/109/109
f 111/111/111 112/112/112 110/110/110
f 115/115/115 114/114/114 113/113/113
f 115/115/115 116/116/116 114/114/114
f 116/116/116 117/117/117 114/114/114
f 116/116/116 118/118/118 117/117/117
f 108/108/108 109/109/109 106/106/106
f 108/108/108 111/111/111 109/109/109
f 121/121/121 120/120/120 119/119/119
f 121/121/121 122/122/122 120/120/120
f 122/122/122 113/113/113 120/120/120
f 122/122/122 115/115/115 113/113/113
f 123/123/123 1/1/1 2/2/2
f 123/123/123 124/124/124 1/1/1
f 126/126/126 105/105/105 125/125/125
f 126/126/126 107/107/107 105/105/105
f 118/118/118 127/127/127 117/117/117
f 118/118/118 128/128/128 127/127/127
f 130/130/130 125/125/125 129/129/129
f 130/130/130 126/126/126 125/125/125
f 131/131/131 8/8/8 11/11/11
f 131/131/131 132/132/132 8/8/8
g pb_Mesh96304_1
f 135/135/135 134/134/134 133/133/133
f 135/135/135 133/133/133 136/136/136
f 136/136/136 133/133/133 137/137/137
f 136/136/136 137/137/137 138/138/138
f 141/141/141 140/140/140 139/139/139
f 141/141/141 139/139/139 142/142/142
f 134/134/134 141/141/141 142/142/142
f 134/134/134 142/142/142 133/133/133
f 142/142/142 139/139/139 143/143/143
f 142/142/142 143/143/143 144/144/144
f 133/133/133 142/142/142 144/144/144
f 133/133/133 144/144/144 137/137/137
f 140/140/140 146/146/146 145/145/145
f 140/140/140 145/145/145 139/139/139
f 139/139/139 145/145/145 147/147/147
f 139/139/139 147/147/147 143/143/143
f 148/148/148 136/136/136 138/138/138
f 148/148/148 149/149/149 136/136/136
f 149/149/149 135/135/135 136/136/136
f 149/149/149 150/150/150 135/135/135
