g pb_Mesh79998
v 4.8 -5.722046E-05 1.2000008
v -2.5 0 1.2000008
v 4.8 0.24994087 1.2000008
v -2.5 0.25 1.2000008
v -2.5 0 1.2000008
v -2.4999983 -4.276542E-07 -6.254488
v -2.5 0.25 1.2000008
v -2.499999 0.24999863 -6.3990455
v -2.4999983 -4.276542E-07 -6.254488
v 4.8 -4.5776367E-05 -6.258957
v -2.499999 0.24999863 -6.3990455
v 4.8 0.24995422 -6.40308
v 4.8 -4.5776367E-05 -6.258957
v 4.8 -5.722046E-05 1.2000008
v 4.8 0.24995422 -6.40308
v 4.8 0.24994087 1.2000008
v 4.8 0.24994087 1.2000008
v -2.5 0.25 1.2000008
v 4.8 0.24995422 -6.40308
v -2.499999 0.24999863 -6.3990455
v 4.8 -4.5776367E-05 -6.258957
v -2.4999983 -4.276542E-07 -6.254488
v 4.8 -5.722046E-05 1.2000008
v -2.5 0 1.2000008
vt 4.8 -5.722046E-05
vt -2.5 0
vt 4.8 0.24994087
vt -2.5 0.25
vt 1.2000014 0
vt -6.2544875 -4.276542E-07
vt 1.2000014 0.25
vt -6.399045 0.24999863
vt 2.4961464 3.1315937
vt -4.8038535 3.1315415
vt 2.4960582 3.4203782
vt -4.803942 3.420109
vt 6.258957 -4.5776367E-05
vt -1.2000008 -5.722046E-05
vt 6.40308 0.24995422
vt -1.2000008 0.24994087
vt -4.7999983 1.2000003
vt 2.500002 1.2000003
vt -4.7999983 -6.4030805
vt 2.500001 -6.399046
vt 4.8 -6.258957
vt -2.4999983 -6.254488
vt 4.8 1.2000008
vt -2.5 1.2000008
vn -0 0 1
vn -0 0 1
vn -0 0 1
vn -0 0 1
vn -1 0 -2.2388257E-07
vn -1 -1.4668004E-06 -1.7469063E-07
vn -1 -1.4668004E-06 -1.7469063E-07
vn -1 -2.9336009E-06 -1.2549869E-07
vn -0.0005330711 -0.5005724 -0.8656946
vn -0.00050745823 -0.5000074 -0.8660208
vn -0.00050745823 -0.5000074 -0.8660208
vn -0.0004818454 -0.49944237 -0.86634696
vn 1 0 0
vn 1 0 0
vn 1 0 0
vn 1 0 0
vn 8.099699E-06 1 1.7560567E-06
vn 7.09127E-06 1 7.8782614E-07
vn 7.09127E-06 1 7.8782614E-07
vn 6.082841E-06 1 -1.8040437E-07
vn -6.213093E-06 -1 -1.5342748E-06
vn -7.025756E-06 -1 -7.3845393E-07
vn -7.025756E-06 -1 -7.3845393E-07
vn -7.838419E-06 -1 5.736693E-08
g pb_Mesh79998_0
f 3/3/3 2/2/2 1/1/1
f 3/3/3 4/4/4 2/2/2
f 7/7/7 6/6/6 5/5/5
f 7/7/7 8/8/8 6/6/6
f 11/11/11 10/10/10 9/9/9
f 11/11/11 12/12/12 10/10/10
f 15/15/15 14/14/14 13/13/13
f 15/15/15 16/16/16 14/14/14
f 19/19/19 18/18/18 17/17/17
f 19/19/19 20/20/20 18/18/18
f 23/23/23 22/22/22 21/21/21
f 23/23/23 24/24/24 22/22/22
