g pb_Mesh86508
v -11 -1 7
v -12 0 0
v -12 3 0
v -11 3 7
v -12 0 0
v -11 -1 -7
v -11 3 -7
v -12 3 0
v -9 3 4
v -8 3 0
v -8 6 0
v -9 6 4
v -8 3 0
v -8 3 -3
v -8 6 -3
v -8 6 0
v 6 3 2
v 3 -1 10
v 3 3 10
v 6 -1 2
v 4 3 -7
v 6 -1 2
v 6 3 2
v 4 -1 -7
v 1 6 0
v 1 3 5
v 1 6 5
v 1 3 0
v -0 6 -3
v 1 3 0
v 1 6 0
v -0 3 -3
v -9 0 4
v -12 0 0
v -11 -1 7
v -8 0 0
v -12 0 0
v -8 0 -3
v -11 -1 -7
v 6 -1 2
v -0 0 -3
v 1 0 0
v 4 -1 -7
v 3 -1 10
v 6 -1 2
v 1 0 5
v 1 0 0
v 3 -1 10
v -4 0 8
v -4 3 8
v 3 3 10
v -4 0 8
v -11 -1 7
v -11 3 7
v -4 3 8
v 1 3 5
v -5 3 6
v -5 6 6
v 1 6 5
v -5 3 6
v -9 3 4
v -9 6 4
v -5 6 6
v -4 3 -8
v 4 -1 -7
v 4 3 -7
v -4 0 -8
v -11 3 -7
v -4 0 -8
v -4 3 -8
v -11 -1 -7
v -4 6 -4
v -0 3 -3
v -0 6 -3
v -4 3 -4
v -8 6 -3
v -4 3 -4
v -4 6 -4
v -8 3 -3
v 3 -1 10
v 1 0 5
v -4 0 8
v -5 0 6
v -4 0 8
v -9 0 4
v -11 -1 7
v -8 0 -3
v -4 0 -4
v -4 0 -8
v -11 -1 -7
v -0 0 -3
v 4 -1 -7
v -4 0 -8
v -4 0 0
v -8 0 -3
v -8 0 0
v -4 0 -4
v 1 0 0
v -0 0 -3
v -5 0 6
v -9 0 4
v 1 0 5
v -11 3 -7
v -8 3 -3
v -12 3 0
v -8 3 0
v -9 3 4
v -11 3 7
v 1 3 5
v 1 3 0
v 6 3 2
v 3 3 10
v -0 3 -3
v 4 3 -7
v -5 3 6
v -4 3 8
v -4 3 -4
v -4 3 -8
v -8 6 0
v -4 6 0
v -5 6 6
v -9 6 4
v 1 6 0
v 1 6 5
v -8 6 -3
v -4 6 -4
v -0 6 -3
vt 7 -1
vt 0 0
vt 0 3
vt 7 3
vt 0 0
vt -7 -1
vt -7 3
vt 0 3
vt 5.0696793 3
vt 0.97746605 3
vt 0.97746605 6
vt 5.0696793 6
vt 0.97746605 3
vt -2.0000565 3
vt -2.0000565 6
vt 0.97746605 6
vt -1.5751333 3
vt -9.765493 -1
vt -9.765493 3
vt -1.5751333 -1
vt 7.2628064 3
vt -1.5751333 -1
vt -1.5751333 3
vt 7.2628064 -1
vt -0.16018225 6
vt -5.0956197 3
vt -5.0956197 6
vt -0.16018225 3
vt 2.9612625 6
vt -0.16018225 3
vt -0.16018225 6
vt 2.9612625 3
vt -8.940861 3.8972514
vt -11.921148 -0.1174577
vt -11.04217 6.951645
vt -7.947432 -0.07830513
vt -11.921148 -0.1174577
vt -7.947432 -3.0673137
vt -11.04217 -6.9970617
vt 6.0658817 1.9956974
vt -0 -2.99987
vt 0.9714172 -0.0022099284
vt 4.1230474 -6.9994926
vt 3.1516302 10.001981
vt 6.0658817 1.9956974
vt 0.9714172 4.9975734
vt 0.9714172 -0.0022099284
vt 5.0195923 -1
vt -2.243593 0
vt -2.243593 3
vt 5.0195923 3
vt -2.243593 0
vt -9.298222 -1
vt -9.298222 3
vt -2.243593 3
vt 1.7323629 3
vt -4.052239 3
vt -4.052239 6
vt 1.7323629 6
vt -4.052239 3
vt -8.305162 3
vt -8.305162 6
vt -4.052239 6
vt 3.9296787 3
vt -4.0612426 -1
vt -4.0612426 3
vt 3.9296787 0
vt 10.93818 3
vt 3.9296787 0
vt 3.9296787 3
vt 10.93818 -1
vt 4 6
vt 0 3
vt 0 6
vt 4 3
vt 8 6
vt 4 3
vt 4 6
vt 8 3
vt 2.9607298 10.032399
vt 0.99930805 4.919988
vt -3.9972322 7.8333135
vt -4.99654 5.861175
vt -3.9972322 7.8333135
vt -8.9937725 3.8683217
vt -11.029583 6.9878793
vt -7.9810767 -3.0256703
vt -3.9905384 -4.0090637
vt -3.9905384 -8.003029
vt -10.90524 -7.085739
vt -0 -2.995474
vt 4.059279 -7.029121
vt -3.9905384 -8.003029
vt -4 0
vt -8 -3
vt -8 0
vt -4 -4
vt 1 0
vt 0 -3
vt -5 6
vt -9 4
vt 1 5
vt 11 -7
vt 8 -3
vt 12 0
vt 8 0
vt 9 4
vt 11 7
vt -1 5
vt -1 0
vt -6 2
vt -3 10
vt 0 -3
vt -4 -7
vt 5 6
vt 4 8
vt 4 -4
vt 4 -8
vt 8 0
vt 4 0
vt 5 6
vt 9 4
vt -1 0
vt -1 5
vt 8 -3
vt 4 -4
vt 0 -3
vn -0.98994946 0 0.14142136
vn -0.98994946 0 0.14142136
vn -0.98994946 0 0.14142136
vn -0.98994946 0 0.14142136
vn -0.98994946 0 -0.14142136
vn -0.98994946 0 -0.14142136
vn -0.98994946 0 -0.14142136
vn -0.98994946 0 -0.14142136
vn -0.9701425 0 -0.24253562
vn -0.9701425 0 -0.24253562
vn -0.9701425 0 -0.24253562
vn -0.9701425 0 -0.24253562
vn -1 0 0
vn -1 0 0
vn -1 0 0
vn -1 0 0
vn 0.9363292 0 0.35112345
vn 0.9363292 0 0.35112345
vn 0.9363292 0 0.35112345
vn 0.9363292 0 0.35112345
vn 0.97618705 0 -0.21693046
vn 0.97618705 0 -0.21693046
vn 0.97618705 0 -0.21693046
vn 0.97618705 0 -0.21693046
vn 1 0 0
vn 1 0 0
vn 1 0 0
vn 1 0 0
vn 0.9486833 0 -0.31622776
vn 0.9486833 0 -0.31622776
vn 0.9486833 0 -0.31622776
vn 0.9486833 0 -0.31622776
vn 0.11286653 -0.97968274 -0.0846499
vn 0.11286653 -0.97968274 -0.0846499
vn 0.22573306 -0.9593655 -0.1692998
vn -0 -1 0
vn 0.058834843 -0.99029034 0.07844646
vn 0.058834843 -0.99029034 0.07844646
vn 0.11766969 -0.9805807 0.15689293
vn -0.21221417 -0.9752053 0.05961596
vn -0.21221417 -0.9752053 0.05961596
vn -0.22423053 -0.9716656 0.07474351
vn -0.20019783 -0.9787449 0.044488408
vn -0.24878818 -0.96405417 -0.09329557
vn -0.22245216 -0.97231746 -0.046647783
vn -0.22245216 -0.97231746 -0.046647783
vn -0.19611615 -0.9805807 0
vn -0.27472112 0 0.96152395
vn -0.27472112 0 0.96152395
vn -0.27472112 0 0.96152395
vn -0.27472112 0 0.96152395
vn -0.14142136 0 0.98994946
vn -0.14142136 0 0.98994946
vn -0.14142136 0 0.98994946
vn -0.14142136 0 0.98994946
vn 0.164399 0 0.9863939
vn 0.164399 0 0.9863939
vn 0.164399 0 0.9863939
vn 0.164399 0 0.9863939
vn -0.4472136 0 0.8944272
vn -0.4472136 0 0.8944272
vn -0.4472136 0 0.8944272
vn -0.4472136 0 0.8944272
vn 0.12403473 0 -0.99227786
vn 0.12403473 0 -0.99227786
vn 0.12403473 0 -0.99227786
vn 0.12403473 0 -0.99227786
vn -0.14142136 0 -0.98994946
vn -0.14142136 0 -0.98994946
vn -0.14142136 0 -0.98994946
vn -0.14142136 0 -0.98994946
vn 0.24253562 0 -0.9701425
vn 0.24253562 0 -0.9701425
vn 0.24253562 0 -0.9701425
vn 0.24253562 0 -0.9701425
vn -0.24253562 0 -0.9701425
vn -0.24253562 0 -0.9701425
vn -0.24253562 0 -0.9701425
vn -0.24253562 0 -0.9701425
vn -0.0951064 -0.9827661 -0.15851067
vn -0.0475532 -0.9913831 -0.079255335
vn -0.0475532 -0.9913831 -0.079255335
vn -0 -1 0
vn 0.08377078 -0.981682 -0.10471348
vn 0.08377078 -0.981682 -0.10471348
vn 0.16754156 -0.963364 -0.20942695
vn 0.078978 -0.9896636 0.063182406
vn -0 -1 0
vn 0.078978 -0.9896636 0.063182406
vn 0.157956 -0.97932726 0.12636481
vn -0.06837138 -0.9922739 0.0546971
vn -0.13674276 -0.9845478 0.1093942
vn -0.06837138 -0.9922739 0.0546971
vn -0 -1 0
vn -0 -1 0
vn -0 -1 0
vn -0 -1 0
vn -0 -1 0
vn -0 -1 0
vn -0 -1 0
vn -0 -1 0
vn -0 -1 0
vn -0 1 0
vn -0 1 0
vn -0 1 0
vn -0 1 0
vn -0 1 0
vn -0 1 0
vn -0 1 0
vn -0 1 0
vn -0 1 0
vn -0 1 0
vn -0 1 0
vn -0 1 0
vn -0 1 0
vn -0 1 0
vn -0 1 0
vn -0 1 0
vn -0 1 0
vn -0 1 0
vn -0 1 0
vn -0 1 0
vn -0 1 0
vn -0 1 0
vn -0 1 0
vn -0 1 0
vn -0 1 0
g pb_Mesh86508_0
f 3/3/3 2/2/2 1/1/1
f 3/3/3 1/1/1 4/4/4
f 7/7/7 6/6/6 5/5/5
f 7/7/7 5/5/5 8/8/8
f 11/11/11 10/10/10 9/9/9
f 11/11/11 9/9/9 12/12/12
f 15/15/15 14/14/14 13/13/13
f 15/15/15 13/13/13 16/16/16
f 19/19/19 18/18/18 17/17/17
f 18/18/18 20/20/20 17/17/17
f 23/23/23 22/22/22 21/21/21
f 22/22/22 24/24/24 21/21/21
f 27/27/27 26/26/26 25/25/25
f 26/26/26 28/28/28 25/25/25
f 31/31/31 30/30/30 29/29/29
f 30/30/30 32/32/32 29/29/29
f 35/35/35 34/34/34 33/33/33
f 34/34/34 36/36/36 33/33/33
f 38/38/38 36/36/36 37/37/37
f 39/39/39 38/38/38 37/37/37
f 42/42/42 41/41/41 40/40/40
f 41/41/41 43/43/43 40/40/40
f 46/46/46 45/45/45 44/44/44
f 46/46/46 47/47/47 45/45/45
f 50/50/50 49/49/49 48/48/48
f 50/50/50 48/48/48 51/51/51
f 54/54/54 53/53/53 52/52/52
f 54/54/54 52/52/52 55/55/55
f 58/58/58 57/57/57 56/56/56
f 58/58/58 56/56/56 59/59/59
f 62/62/62 61/61/61 60/60/60
f 62/62/62 60/60/60 63/63/63
f 66/66/66 65/65/65 64/64/64
f 65/65/65 67/67/67 64/64/64
f 70/70/70 69/69/69 68/68/68
f 69/69/69 71/71/71 68/68/68
f 74/74/74 73/73/73 72/72/72
f 73/73/73 75/75/75 72/72/72
f 78/78/78 77/77/77 76/76/76
f 77/77/77 79/79/79 76/76/76
f 82/82/82 81/81/81 80/80/80
f 82/82/82 83/83/83 81/81/81
f 86/86/86 85/85/85 84/84/84
f 85/85/85 83/83/83 84/84/84
f 89/89/89 88/88/88 87/87/87
f 89/89/89 87/87/87 90/90/90
f 93/93/93 92/92/92 91/91/91
f 88/88/88 93/93/93 91/91/91
f 96/96/96 95/95/95 94/94/94
f 95/95/95 97/97/97 94/94/94
f 94/94/94 97/97/97 98/98/98
f 97/97/97 99/99/99 98/98/98
f 101/101/101 96/96/96 100/100/100
f 96/96/96 94/94/94 100/100/100
f 100/100/100 94/94/94 102/102/102
f 94/94/94 98/98/98 102/102/102
g pb_Mesh86508_1
f 105/105/105 104/104/104 103/103/103
f 105/105/105 106/106/106 104/104/104
f 107/107/107 106/106/106 105/105/105
f 107/107/107 105/105/105 108/108/108
f 111/111/111 110/110/110 109/109/109
f 112/112/112 111/111/111 109/109/109
f 111/111/111 114/114/114 113/113/113
f 111/111/111 113/113/113 110/110/110
f 116/116/116 115/115/115 107/107/107
f 116/116/116 107/107/107 108/108/108
f 109/109/109 115/115/115 116/116/116
f 112/112/112 109/109/109 116/116/116
f 113/113/113 118/118/118 117/117/117
f 113/113/113 114/114/114 118/118/118
f 103/103/103 104/104/104 118/118/118
f 104/104/104 117/117/117 118/118/118
f 121/121/121 120/120/120 119/119/119
f 121/121/121 119/119/119 122/122/122
f 124/124/124 123/123/123 120/120/120
f 124/124/124 120/120/120 121/121/121
f 120/120/120 126/126/126 125/125/125
f 120/120/120 125/125/125 119/119/119
f 123/123/123 127/127/127 126/126/126
f 123/123/123 126/126/126 120/120/120
