g pb_Mesh100826
v -2.1249957 2.5 3.1249988
v -4.124999 2.5 3.1250007
v -2.1249957 3 3.1249988
v -4.124999 3 3.1250007
v -4.124999 2.5 3.1250007
v -4.12501 0.5 -8.875003
v -4.124999 3 3.1250007
v -4.12501 1 -8.875003
v -4.12501 0.5 -8.875003
v -2.1250079 0.5 -8.875005
v -4.12501 1 -8.875003
v -2.1250079 1 -8.875005
v -2.1250079 0.5 -8.875005
v -2.1249957 2.5 3.1249988
v -2.1250079 1 -8.875005
v -2.1249957 3 3.1249988
v -2.1249957 3 3.1249988
v -4.124999 3 3.1250007
v -2.1250079 1 -8.875005
v -4.12501 1 -8.875003
v -2.1250079 0.5 -8.875005
v -4.12501 0.5 -8.875003
v -2.1249957 2.5 3.1249988
v -4.124999 2.5 3.1250007
vt -2.1249986 2.5
vt -4.125002 2.5
vt -2.1249986 3
vt -4.125002 3
vt 3.124997 2.5
vt -8.875007 0.5
vt 3.124997 3
vt -8.875007 1
vt 4.1250014 0.5
vt 2.1249995 0.5
vt 4.1250014 1
vt 2.1249995 1
vt 8.875007 0.5
vt -3.1249967 2.5
vt 8.875007 1
vt -3.1249967 3
vt 2.1249952 3.5756767
vt 4.1249986 3.5756786
vt 2.1250076 -8.589851
vt 4.12501 -8.589849
vt -2.1250079 -8.672051
vt -4.12501 -8.6720495
vt -2.1249952 3.493477
vt -4.1249986 3.4934793
vn 9.536727E-07 0 1
vn 9.536727E-07 0 1
vn 9.536727E-07 0 1
vn 9.536727E-07 0 1
vn -1 0 9.139376E-07
vn -1 0 9.139376E-07
vn -1 0 9.139376E-07
vn -1 0 9.139376E-07
vn -9.536733E-07 0 -1
vn -9.536733E-07 0 -1
vn -9.536733E-07 0 -1
vn -9.536733E-07 0 -1
vn 1 0 -1.0132786E-06
vn 1 0 -1.0132786E-06
vn 1 0 -1.0132786E-06
vn 1 0 -1.0132786E-06
vn -1.5678278E-07 0.9863939 -0.16439894
vn -1.5678282E-07 0.9863939 -0.16439894
vn -1.5678282E-07 0.9863939 -0.16439894
vn -1.5678286E-07 0.9863939 -0.16439892
vn 1.5678286E-07 -0.9863939 0.16439892
vn 1.5678282E-07 -0.9863939 0.16439894
vn 1.5678282E-07 -0.9863939 0.16439894
vn 1.5678278E-07 -0.9863939 0.16439894
g pb_Mesh100826_0
f 3/3/3 2/2/2 1/1/1
f 3/3/3 4/4/4 2/2/2
f 7/7/7 6/6/6 5/5/5
f 7/7/7 8/8/8 6/6/6
f 11/11/11 10/10/10 9/9/9
f 11/11/11 12/12/12 10/10/10
f 15/15/15 14/14/14 13/13/13
f 15/15/15 16/16/16 14/14/14
f 19/19/19 18/18/18 17/17/17
f 19/19/19 20/20/20 18/18/18
f 23/23/23 22/22/22 21/21/21
f 23/23/23 24/24/24 22/22/22
