g pb_Mesh-190542
v -0.25 0 -0.25
v -0.5 0 -0.25
v -0.5 1.75 -0.25
v -0.25 1.75 -0.25
v -0.5 0 -0.25
v -0.75 0 -0.25
v -0.75 1.75 -0.25
v -0.5 1.75 -0.25
v -0.75 0 -0.75
v -0.5 0 -0.75
v -0.5 1.75 -0.75
v -0.75 1.75 -0.75
v -0.5 0 -0.75
v -0.25 0 -0.75
v -0.25 1.75 -0.75
v -0.5 1.75 -0.75
v -0.75 0 -0.25
v -0.75 0 -0.5
v -0.75 1.75 -0.5
v -0.75 1.75 -0.25
v -0.75 0 -0.5
v -0.75 0 -0.75
v -0.75 1.75 -0.75
v -0.75 1.75 -0.5
v -0.25 0 -0.75
v -0.25 0 -0.5
v -0.25 1.75 -0.5
v -0.25 1.75 -0.75
v -0.25 0 -0.5
v -0.25 0 -0.25
v -0.25 1.75 -0.25
v -0.25 1.75 -0.5
v -0.5 1.75 -0.75
v -0.25 1.75 -0.75
v -0.25 1.75 -0.5
v -0.5 1.75 -0.5
v -0.25 1.75 -0.5
v -0.25 1.75 -0.25
v -0.5 1.75 -0.25
v -0.5 1.75 -0.5
v -0.75 1.75 -0.75
v -0.5 1.75 -0.75
v -0.5 1.75 -0.5
v -0.75 1.75 -0.5
v -0.5 1.75 -0.5
v -0.5 1.75 -0.25
v -0.75 1.75 -0.25
v -0.75 1.75 -0.5
v -0.5 0 -0.75
v -0.5 0 -0.5
v -0.25 0 -0.5
v -0.25 0 -0.75
v -0.5 0 -0.5
v -0.5 0 -0.25
v -0.25 0 -0.25
v -0.25 0 -0.5
v -0.75 0 -0.75
v -0.75 0 -0.5
v -0.5 0 -0.5
v -0.5 0 -0.75
v -0.75 0 -0.5
v -0.75 0 -0.25
v -0.5 0 -0.25
v -0.5 0 -0.5
vt -0.25 0
vt -0.5 0
vt -0.5 1.75
vt -0.25 1.75
vt -0.5 0
vt -0.75 0
vt -0.75 1.75
vt -0.5 1.75
vt 0.75 0
vt 0.5 0
vt 0.5 1.75
vt 0.75 1.75
vt 0.5 0
vt 0.25 0
vt 0.25 1.75
vt 0.5 1.75
vt -0.25 0
vt -0.5 0
vt -0.5 1.75
vt -0.25 1.75
vt -0.5 0
vt -0.75 0
vt -0.75 1.75
vt -0.5 1.75
vt 0.75 0
vt 0.5 0
vt 0.5 1.75
vt 0.75 1.75
vt 0.5 0
vt 0.25 0
vt 0.25 1.75
vt 0.5 1.75
vt 0.5 -0.75
vt 0.25 -0.75
vt 0.25 -0.5
vt 0.5 -0.5
vt 0.25 -0.5
vt 0.25 -0.25
vt 0.5 -0.25
vt 0.5 -0.5
vt 0.75 -0.75
vt 0.5 -0.75
vt 0.5 -0.5
vt 0.75 -0.5
vt 0.5 -0.5
vt 0.5 -0.25
vt 0.75 -0.25
vt 0.75 -0.5
vt -0.5 -0.75
vt -0.5 -0.5
vt -0.25 -0.5
vt -0.25 -0.75
vt -0.5 -0.5
vt -0.5 -0.25
vt -0.25 -0.25
vt -0.25 -0.5
vt -0.75 -0.75
vt -0.75 -0.5
vt -0.5 -0.5
vt -0.5 -0.75
vt -0.75 -0.5
vt -0.75 -0.25
vt -0.5 -0.25
vt -0.5 -0.5
vn -0 0 1
vn -0 0 1
vn -0 0 1
vn -0 0 1
vn -0 0 1
vn -0 0 1
vn -0 0 1
vn -0 0 1
vn -0 0 -1
vn -0 0 -1
vn -0 0 -1
vn -0 0 -1
vn -0 0 -1
vn -0 0 -1
vn -0 0 -1
vn -0 0 -1
vn -1 0 0
vn -1 0 0
vn -1 0 0
vn -1 0 0
vn -1 0 0
vn -1 0 0
vn -1 0 0
vn -1 0 0
vn 1 0 0
vn 1 0 0
vn 1 0 0
vn 1 0 0
vn 1 0 0
vn 1 0 0
vn 1 0 0
vn 1 0 0
vn -0 1 0
vn -0 1 0
vn -0 1 0
vn -0 1 0
vn -0 1 0
vn -0 1 0
vn -0 1 0
vn -0 1 0
vn -0 1 0
vn -0 1 0
vn -0 1 0
vn -0 1 0
vn -0 1 0
vn -0 1 0
vn -0 1 0
vn -0 1 0
vn -0 -1 0
vn -0 -1 0
vn -0 -1 0
vn -0 -1 0
vn -0 -1 0
vn -0 -1 0
vn -0 -1 0
vn -0 -1 0
vn -0 -1 0
vn -0 -1 0
vn -0 -1 0
vn -0 -1 0
vn -0 -1 0
vn -0 -1 0
vn -0 -1 0
vn -0 -1 0
g pb_Mesh-190542_0
f 3/3/3 2/2/2 1/1/1
f 3/3/3 1/1/1 4/4/4
f 7/7/7 6/6/6 5/5/5
f 7/7/7 5/5/5 8/8/8
f 11/11/11 10/10/10 12/12/12
f 10/10/10 9/9/9 12/12/12
f 15/15/15 14/14/14 16/16/16
f 14/14/14 13/13/13 16/16/16
f 19/19/19 18/18/18 17/17/17
f 19/19/19 17/17/17 20/20/20
f 23/23/23 22/22/22 21/21/21
f 23/23/23 21/21/21 24/24/24
f 27/27/27 26/26/26 28/28/28
f 26/26/26 25/25/25 28/28/28
f 31/31/31 30/30/30 32/32/32
f 30/30/30 29/29/29 32/32/32
f 35/35/35 34/34/34 33/33/33
f 35/35/35 33/33/33 36/36/36
f 38/38/38 37/37/37 40/40/40
f 38/38/38 40/40/40 39/39/39
f 43/43/43 42/42/42 41/41/41
f 43/43/43 41/41/41 44/44/44
f 46/46/46 45/45/45 48/48/48
f 46/46/46 48/48/48 47/47/47
f 50/50/50 49/49/49 51/51/51
f 49/49/49 52/52/52 51/51/51
f 54/54/54 53/53/53 55/55/55
f 53/53/53 56/56/56 55/55/55
f 58/58/58 57/57/57 59/59/59
f 57/57/57 60/60/60 59/59/59
f 62/62/62 61/61/61 63/63/63
f 61/61/61 64/64/64 63/63/63
