g pb_Mesh99358
v 0.4868126 8 5.999997
v -1.0311445 5.2 6.4253674
v -4.6934214 8 7.1153107
v -5.705648 5.2 6.4874215
v -1.0311445 5.2 6.4253674
v -0.54402566 0 10.078843
v -5.705648 5.2 6.4874215
v -7.0500536 0 9.118665
v -4.238186 8 -7.019498
v -6.0403585 5.2 -7.372578
v -0.74136573 3.6 -5.132669
v 1.3489535 8 -5.203792
v -6.0403585 5.2 -7.372578
v -8.342058 0 -11.396511
v -0.68172204 0 -7.6124296
v -0.74136573 3.6 -5.132669
v -4.6934214 8 7.1153107
v -5.705648 5.2 6.4874215
v -6.8364043 8 7.753766
v -7.63891 5.2 6.7647457
v -5.705648 5.2 6.4874215
v -7.0500536 0 9.118665
v -7.63891 5.2 6.7647457
v -9.740219 0 9.173518
v -6.8364043 8 7.753766
v -7.63891 5.2 6.7647457
v -9.3846855 8 6.9210544
v -11.482145 5 6.1460285
v -7.63891 5.2 6.7647457
v -9.740219 0 9.173518
v -11.482145 5 6.1460285
v -11.482145 0 6.1460285
v -11.95694 0 -5.4718285
v -8.61496 5.2 -6.8963714
v -9.791037 3.6 -4.5239625
v -11.779288 0 -8.791234
v -10.000006 8 -5.822652
v -9.791037 3.6 -4.5239625
v -8.61496 5.2 -6.8963714
v -7.119096 8 -6.421075
v -8.61496 5.2 -6.8963714
v -11.779288 0 -8.791234
v -8.342058 0 -11.396511
v -6.0403585 5.2 -7.372578
v -7.119096 8 -6.421075
v -8.61496 5.2 -6.8963714
v -6.0403585 5.2 -7.372578
v -4.238186 8 -7.019498
v -0.54402566 0 10.078843
v -0.12877464 0 5.096736
v -7.0500536 0 9.118665
v -7.3730597 0 4.6237226
v -9.740219 0 9.173518
v -10.24999 0 5.264926
v -11.482145 0 6.1460285
v -12.120599 0 2.6322455
v -11.482145 0 6.1460285
v -12.120599 0 2.6322455
v -11.482145 5 6.1460285
v -12.120596 4 2.632243
v -9.3846855 8 6.9210544
v -11.482145 5 6.1460285
v -11.482145 8 6.1460285
v -0.7672271 4 2.953753
v -0.12877464 0 5.096736
v -1.0311445 5.2 6.4253674
v -0.54402566 0 10.078843
v 0.70234674 8 3.769161
v -0.7672271 4 2.953753
v 0.4868126 8 5.999997
v -1.0311445 5.2 6.4253674
v -0.08325112 0 3.6832552
v -7.5345573 0 2.0335457
v -10.504871 0 3.0364597
v -10.759752 0 -2.893156
v -7.696056 0 -4.257786
v -11.614604 0 2.4319878
v -11.683066 0 -2.7128592
v -11.482145 8 6.1460285
v -12.120596 4 2.632243
v -12.120599 8 2.6322455
v -9.654108 5.2 1.9646317
v -12.120599 8 2.6322455
v -9.654108 5.2 1.9646317
v -10.000005 8 -2.9200938
v -9.681492 5.2 -1.0254502
v 0.9178869 8 -2.738601
v -0.886256 5.2 -2.4178412
v 0.81012255 8 2.43439
v -0.7672271 4 2.953753
v 0.81012255 8 2.43439
v -0.7672271 4 2.953753
v 0.70234674 8 3.769161
v -12.120596 4 2.632243
v -12.120599 0 2.6322455
v -0.7672271 4 2.953753
v -0.12877464 0 5.096736
v 0.09884298 0 -1.9706683
v -0.5396122 0 -4.1136513
v -8.019057 0 -7.8271484
v -0.68172204 0 -7.6124296
v -8.342058 0 -11.396511
v -11.26952 0 -5.842195
v -11.779288 0 -8.791234
v -11.8200035 0 -4.092344
v -11.95694 0 -5.4718285
v -9.681492 5.2 -1.0254502
v -9.736263 4.3999996 -3.7342663
v -10.000006 8 -4.3713727
v -10.000005 8 -2.9200938
v -9.736263 4.3999996 -3.7342663
v -9.791037 3.6 -4.5239625
v -10.000006 8 -5.822652
v -10.000006 8 -4.3713727
v -0.74136573 3.6 -5.132669
v -0.68172204 0 -7.6124296
v -0.5396122 0 -4.1136513
v -1.2691144 4 -3.4296727
v 1.1334202 8 -3.9711967
v 1.3489535 8 -5.203792
v -1.2691144 4 -3.4296727
v -0.74136573 3.6 -5.132669
v 0.9178869 8 -2.738601
v 1.1334202 8 -3.9711967
v -0.886256 5.2 -2.4178412
v -1.2691144 4 -3.4296727
v -5.2106676 5 2.4591937
v -5.311094 5 -3.0119848
v -9.654108 5.2 1.9646317
v -9.681492 5.2 -1.0254502
v -0.7672271 4 2.953753
v -0.94069535 5.5515747 -3.079395
v -5.2106676 5 2.4591937
v -5.311094 5 -3.0119848
v -5.527633 3.7672424 -3.974213
v -6.2482758 0 -4.79274
v -9.791037 3.6 -4.5239625
v -11.95694 0 -5.4718285
v -0.5396122 0 -4.1136513
v -5.527633 3.7672424 -3.974213
v -1.26423 3.934485 -3.4244633
v -6.2482758 0 -4.79274
v -9.654108 5.2 1.9646317
v -12.120596 4 2.632243
v -5.2106676 5 2.4591937
v -0.7672271 4 2.953753
v -1.26423 3.934485 -3.4244633
v -5.527633 3.7672424 -3.974213
v -1.2691144 4 -3.4296727
v -5.502689 4.2 -3.5819695
v -5.527633 3.7672424 -3.974213
v -9.736263 4.3999996 -3.7342663
v -9.791037 3.6 -4.5239625
v -0.94069535 5.5515747 -3.079395
v -1.2691144 4 -3.4296727
v -5.311094 5 -3.0119848
v -5.502689 4.2 -3.5819695
v -5.311094 5 -3.0119848
v -5.502689 4.2 -3.5819695
v -9.681492 5.2 -1.0254502
v -9.736263 4.3999996 -3.7342663
v -4.6934214 8 7.1153107
v -4.5796156 8 4.1978745
v 0.4868126 8 5.999997
v 0.70234674 8 3.769161
v -9.3846855 8 6.9210544
v -11.482145 8 6.1460285
v -6.9070787 8 4.735137
v -6.8364043 8 7.753766
v -4.522706 8 2.3624794
v 0.81012255 8 2.43439
v -4.465804 8 -3.0369866
v 0.9178869 8 -2.738601
v -12.120599 8 2.6322455
v -6.9424143 8 2.9862306
v -10.000005 8 -2.9200938
v -6.977747 8 -2.4638345
v -4.351995 8 -5.028242
v 1.1334202 8 -3.9711967
v -4.238186 8 -7.019498
v 1.3489535 8 -5.203792
v -10.000006 8 -5.822652
v -7.119096 8 -6.421075
v -7.0484214 8 -4.442455
v -10.000006 8 -4.3713727
vt 0.31280807 6.828401
vt -1.2168336 4.004835
vt -4.897559 6.6600666
vt -5.891173 4.0176377
vt -1.2168336 4.004835
vt -0.83574843 -1.7550474
vt -5.891173 4.0176377
vt -7.311233 -1.5547061
vt 1.3065277 4.929374
vt 2.8460114 1.9559524
vt -1.2313046 1.7641715
vt -3.196633 6.1574564
vt 2.8460114 1.9559524
vt 3.476406 -4.455787
vt -2.2137115 -2.3811564
vt -1.2313046 1.7641715
vt -4.897559 6.6600666
vt -5.891173 4.0176377
vt -7.058137 6.5595474
vt -7.831657 3.979042
vt -5.891173 4.0176377
vt -7.311233 -1.5547061
vt -7.831657 3.979042
vt -10.001859 -1.5506766
vt -7.058137 6.5595474
vt -7.831657 3.979042
vt -9.581228 6.7176557
vt -11.655357 3.909441
vt -7.831657 3.979042
vt -10.001859 -1.5506766
vt -11.655357 3.909441
vt -11.655357 -1.0138645
vt 9.044166 -3.107032
vt 5.411949 1.7864064
vt 7.3896956 0.84665155
vt 7.638397 -4.0875425
vt 7.0979805 4.5895247
vt 7.3896956 0.84665155
vt 5.411949 1.7864064
vt 4.2022543 4.7594495
vt 5.411949 1.7864064
vt 7.638397 -4.0875425
vt 3.476406 -4.455787
vt 2.8460114 1.9559524
vt 4.2022543 4.7594495
vt 5.411949 1.7864064
vt 2.8460114 1.9559524
vt 1.3065277 4.929374
vt -0.54402566 10.078843
vt -0.12877464 5.096736
vt -7.0500536 9.118665
vt -7.3730597 4.6237226
vt -9.740219 9.173518
vt -10.24999 5.264926
vt -11.482145 6.1460285
vt -12.120599 2.6322455
vt 3.4758375 1.6330696
vt -0.09239395 1.6137629
vt 3.4758375 6.5905657
vt -0.09239588 5.579759
vt 4.692351 9.320946
vt 3.4758375 6.5905657
vt 3.4758375 9.565063
vt -3.0009048 3.6364112
vt -5.092961 0.07204452
vt -6.4825 4.773552
vt -10.091992 0.05384359
vt -3.7095506 7.911106
vt -3.0009048 3.6364112
vt -5.9500732 7.893892
vt -6.4825 4.773552
vt -0.08325112 3.6832552
vt -7.5345573 2.0335457
vt -10.504871 3.0364597
vt -10.759752 -2.893156
vt -7.696056 -4.257786
vt -11.614604 2.4319878
vt -11.683066 -2.7128592
vt 3.4758375 9.565063
vt -0.09239588 5.579759
vt -0.09239395 9.545756
vt -0.20233698 6.4373956
vt -0.09239395 9.545756
vt -0.20233698 6.4373956
vt -5.043862 9.117996
vt -3.1255102 6.3554764
vt 2.797032 7.8347707
vt 2.3485627 4.6244936
vt -2.3704932 7.914918
vt -3.0009048 3.6364112
vt -2.3704932 7.914918
vt -3.0009048 3.6364112
vt -3.7095506 7.911106
vt 12.041227 3.999998
vt 12.04123 -2.0095351E-06
vt 0.6833074 3.999998
vt -0.015550911 -3.444617E-06
vt 0.09884298 -1.9706683
vt -0.5396122 -4.1136513
vt -8.019057 -7.8271484
vt -0.68172204 -7.6124296
vt -8.342058 -11.396511
vt -11.26952 -5.842195
vt -11.779288 -8.791234
vt -11.8200035 -4.092344
vt -11.95694 -5.4718285
vt -3.1255102 6.3554764
vt -5.7802887 5.491867
vt -6.4597487 9.076549
vt -5.043862 9.117996
vt -5.7802887 5.491867
vt -6.562749 4.683068
vt -7.8756356 9.035101
vt -6.4597487 9.076549
vt 5.066815 3.0867748
vt 7.544524 -0.3752997
vt 4.064759 -0.2552454
vt 3.3305492 3.3430715
vt 4.0418506 7.8738203
vt 5.286669 7.9128695
vt 3.3305492 3.3430715
vt 5.066815 3.0867748
vt 2.797032 7.8347707
vt 4.0418506 7.8738203
vt 2.3485627 4.6244936
vt 3.3305492 3.3430715
vt -5.7661605 1.9169515
vt -5.86588 -3.5128653
vt -10.202015 1.4655114
vt -10.229206 -1.5023584
vt -1.2355597 2.464183
vt -1.5915648 -3.708249
vt -5.7661605 1.9169515
vt -5.86588 -3.5128653
vt -5.965866 3.0723076
vt -6.7798057 -0.7642131
vt -10.264444 2.9019358
vt -12.528705 -0.7617167
vt -1.0309075 -0.7667094
vt -5.965866 3.0723076
vt -1.667288 3.2426794
vt -6.7798057 -0.7642131
vt 9.469518 2.64404
vt 11.875805 1.1678799
vt 5.0009356 2.3980136
vt 0.5323538 1.5016527
vt -1.1002367 2.3014655
vt -5.332735 1.8591508
vt -1.1048683 2.3599036
vt -5.3264394 2.4094203
vt -5.332735 1.8591508
vt -9.548011 2.458937
vt -9.565233 1.416836
vt -0.7934481 3.9331481
vt -1.1048683 2.3599036
vt -5.162119 3.3699572
vt -5.3264394 2.4094203
vt -5.162119 3.3699572
vt -5.3264394 2.4094203
vt -9.621896 4.2352066
vt -9.548011 2.458937
vt 4.6934214 7.1153107
vt 4.5796156 4.1978745
vt -0.4868126 5.999997
vt -0.70234674 3.769161
vt 9.3846855 6.9210544
vt 11.482145 6.1460285
vt 6.9070787 4.735137
vt 6.8364043 7.753766
vt 4.522706 2.3624794
vt -0.81012255 2.43439
vt 4.465804 -3.0369866
vt -0.9178869 -2.738601
vt 12.120599 2.6322455
vt 6.9424143 2.9862306
vt 10.000005 -2.9200938
vt 6.977747 -2.4638345
vt 4.351995 -5.028242
vt -1.1334202 -3.9711967
vt 4.238186 -7.019498
vt -1.3489535 -5.203792
vt 10.000006 -5.822652
vt 7.119096 -6.421075
vt 7.0484214 -4.442455
vt 10.000006 -4.3713727
vn 0.2103542 0.0343881 0.97702026
vn 0.111646526 -0.09442841 0.9758484
vn 0.111646526 -0.09442841 0.9758484
vn 0.012938856 -0.22324492 0.9746765
vn 0.010855092 0.57553136 0.8177077
vn -0.05885092 0.5247718 0.8443953
vn -0.05885092 0.5247718 0.8443953
vn -0.12855694 0.4740123 0.8710829
vn 0.33135384 -0.1366999 -0.9328691
vn 0.35762644 -0.113289505 -0.92696756
vn 0.33135384 -0.1366999 -0.9328691
vn 0.30508122 -0.1601103 -0.93877053
vn 0.42872757 0.47708964 -0.76493555
vn 0.39649045 0.44560814 -0.80263865
vn 0.42872757 0.47708964 -0.76493555
vn 0.46096468 0.50857115 -0.72723246
vn 0.27208897 -0.30315992 0.91326976
vn 0.20218217 -0.33338988 0.9176891
vn 0.20218217 -0.33338988 0.9176891
vn 0.13227539 -0.36361983 0.9221084
vn 0.12879674 0.42102474 0.8978583
vn 0.073676586 0.41754428 0.90395856
vn 0.073676586 0.41754428 0.90395856
vn 0.018556423 0.4140638 0.91005874
vn -0.3015675 -0.2395431 0.922863
vn -0.22562727 -0.1937231 0.9502358
vn -0.22562727 -0.1937231 0.9502358
vn -0.14968707 -0.1479031 0.97760856
vn -0.16413352 0.46845534 0.868107
vn -0.5154506 0.23422767 0.6834095
vn -0.5154506 0.23422767 0.6834095
vn -0.8667677 0 0.49871197
vn -0.8467137 0.5291023 -0.055012986
vn -0.8467137 0.5291023 -0.055012986
vn -0.8474516 0.52690905 -0.06475015
vn -0.8459758 0.5312956 -0.04527582
vn -0.50729316 0.033484824 -0.74170375
vn -0.81848 -0.19805552 -0.53931856
vn -0.50729316 0.033484824 -0.74170375
vn -0.1961063 0.26502517 -0.944089
vn -0.32189047 0.5967516 -0.70907855
vn -0.50461406 0.5496688 -0.6657544
vn -0.32189047 0.5967516 -0.70907855
vn -0.1391669 0.64383435 -0.75240266
vn -0.18647602 0.2509231 -0.94980586
vn -0.17584977 0.2553303 -0.95072776
vn -0.18647602 0.2509231 -0.94980586
vn -0.1971023 0.24651588 -0.9488839
vn -0 -1 0
vn -0 -1 0
vn -0 -1 0
vn -0 -1 0
vn -0 -1 0
vn -0 -1 0
vn -0 -1 0
vn -0 -1 0
vn -0.9838904 0 0.17877264
vn -0.98389053 4.1047255E-07 0.17877206
vn -0.98389053 4.1047255E-07 0.17877206
vn -0.9838906 8.209451E-07 0.1787715
vn -0.346602 0 0.9380123
vn -0.6652463 0 0.55839205
vn -0.6652463 0 0.55839205
vn 0.98586386 0.16664833 0.017343134
vn 0.98556715 0.15832129 0.04973196
vn 0.98556715 0.15832129 0.04973196
vn 0.98527044 0.14999427 0.08212078
vn 0.9288081 -0.3595312 0.08973759
vn 0.9001334 -0.39941972 0.15391934
vn 0.9001334 -0.39941972 0.15391934
vn 0.8714587 -0.43930826 0.2181011
vn -0 -1 0
vn -0 -1 0
vn -0 -1 0
vn -0 -1 0
vn -0 -1 0
vn -0 -1 0
vn -0 -1 0
vn -0.9838904 -8.209458E-07 0.17877264
vn -0.6225809 -1.8747215E-07 -0.39324638
vn -0.6225809 -1.8747215E-07 -0.39324638
vn -0.26127133 4.4600148E-07 -0.9652654
vn -0.7517113 -0.59372044 -0.2870996
vn -0.8729677 -0.35032842 -0.13899714
vn -0.8729677 -0.35032842 -0.13899714
vn -0.9942242 -0.106936395 0.009105316
vn 0.84139615 -0.5401345 0.017528065
vn 0.88093865 -0.45834267 -0.043494638
vn 0.88093865 -0.45834267 -0.043494638
vn 0.9204812 -0.37655082 -0.10451734
vn 0.9309425 -0.3573455 0.075168766
vn 0.9309425 -0.3573455 0.075168766
vn 0.9309425 -0.3573455 0.075168766
vn 0.028307127 -6.7563525E-07 -0.9995993
vn 0.10444478 -0.22096479 -0.9391426
vn 0.10444478 -0.22096479 -0.9391426
vn 0.18058243 -0.4419289 -0.87868583
vn -0 -1 0
vn -0 -1 0
vn -0 -1 0
vn -0 -1 0
vn -0 -1 0
vn -0 -1 0
vn -0 -1 0
vn -0 -1 0
vn -0 -1 0
vn -0.9953108 -0.08952539 0.01982987
vn -0.9970295 -0.06602554 0.039659087
vn -0.9953108 -0.08952539 0.01982987
vn -0.99359214 -0.11302524 6.5291607E-07
vn -0.9965247 -0.046889085 0.04502287
vn -0.99572223 -0.020712214 0.09004574
vn -0.9965247 -0.046889085 0.04502287
vn -0.9973271 -0.07306596 0
vn 0.97678506 0.08662485 0.11263749
vn 0.99818796 0.044464868 -0.0405434
vn 0.97678506 0.08662485 0.11263749
vn 0.95538217 0.12878484 0.2658184
vn 0.8564042 -0.4941116 0.14975196
vn 0.8514457 -0.44525456 0.25258964
vn 0.8514457 -0.44525456 0.25258964
vn 0.8464871 -0.39639753 0.35542732
vn 0.8390829 -0.52384377 0.14672314
vn 0.8423781 -0.4994198 0.19503295
vn 0.8423781 -0.4994198 0.19503295
vn 0.84567326 -0.47499585 0.24334277
vn -0.04505645 -0.9989841 0.00082703354
vn -0.045290932 -0.9989736 0.0006219825
vn -0.045290932 -0.9989736 0.0006219825
vn -0.045525413 -0.9989631 0.0004169314
vn -0.18770896 -0.95255876 -0.23957717
vn -0.03126525 -0.9723452 -0.120937444
vn -0.03126525 -0.9723452 -0.120937444
vn 0.12517846 -0.9921316 -0.0022977127
vn -0.11827526 -0.18917325 0.97479457
vn -0.11715783 -0.18809909 0.97513604
vn -0.11715783 -0.18809909 0.97513604
vn -0.1160404 -0.1870249 0.9754775
vn -0.11702598 -0.191021 0.9745834
vn -0.11702598 -0.191021 0.9745834
vn -0.11807105 -0.19239014 0.9741895
vn -0.11598091 -0.18965183 0.97497725
vn 0.06398576 -0.5823757 -0.8103977
vn 0.04527309 -0.4641062 -0.8741582
vn 0.04527309 -0.4641062 -0.8741582
vn 0.026560426 -0.34583673 -0.9379187
vn -0.13024268 0.068937145 0.98908263
vn -0.094248295 -0.29982498 0.86521566
vn -0.094248295 -0.29982498 0.86521566
vn -0.058253918 -0.6685871 0.7413486
vn -0.06135118 -0.68369865 0.7268733
vn -0.06135118 -0.68369865 0.7268733
vn -0.064448446 -0.69881016 0.71239793
vn 0.043879773 -0.22883065 0.97247684
vn -0.006271556 -0.3995862 0.89597213
vn -0.006271556 -0.3995862 0.89597213
vn -0.056422886 -0.57034177 0.81946737
vn 0.30816713 -0.59987503 0.7383651
vn 0.12636694 -0.7785725 0.5110992
vn 0.12636694 -0.7785725 0.5110992
vn -0.055433232 -0.95726997 0.28383332
vn -0 1 0
vn -0 1 0
vn -0 1 0
vn -0 1 0
vn -0 1 0
vn -0 1 0
vn -0 1 0
vn -0 1 0
vn -0 1 0
vn -0 1 0
vn -0 1 0
vn -0 1 0
vn -0 1 0
vn -0 1 0
vn -0 1 0
vn -0 1 0
vn -0 1 0
vn -0 1 0
vn -0 1 0
vn -0 1 0
vn -0 1 0
vn -0 1 0
vn -0 1 0
vn -0 1 0
g pb_Mesh99358_0
f 3/3/3 2/2/2 1/1/1
f 3/3/3 4/4/4 2/2/2
f 7/7/7 6/6/6 5/5/5
f 7/7/7 8/8/8 6/6/6
f 11/11/11 10/10/10 9/9/9
f 12/12/12 11/11/11 9/9/9
f 15/15/15 14/14/14 13/13/13
f 16/16/16 15/15/15 13/13/13
f 19/19/19 18/18/18 17/17/17
f 19/19/19 20/20/20 18/18/18
f 23/23/23 22/22/22 21/21/21
f 23/23/23 24/24/24 22/22/22
f 27/27/27 26/26/26 25/25/25
f 27/27/27 28/28/28 26/26/26
f 31/31/31 30/30/30 29/29/29
f 31/31/31 32/32/32 30/30/30
f 35/35/35 34/34/34 33/33/33
f 33/33/33 34/34/34 36/36/36
f 39/39/39 38/38/38 37/37/37
f 40/40/40 39/39/39 37/37/37
f 43/43/43 42/42/42 41/41/41
f 44/44/44 43/43/43 41/41/41
f 47/47/47 46/46/46 45/45/45
f 48/48/48 47/47/47 45/45/45
f 51/51/51 50/50/50 49/49/49
f 52/52/52 50/50/50 51/51/51
f 54/54/54 51/51/51 53/53/53
f 54/54/54 52/52/52 51/51/51
f 55/55/55 54/54/54 53/53/53
f 56/56/56 54/54/54 55/55/55
f 59/59/59 58/58/58 57/57/57
f 60/60/60 58/58/58 59/59/59
f 63/63/63 62/62/62 61/61/61
f 63/63/63 60/60/60 62/62/62
f 66/66/66 65/65/65 64/64/64
f 67/67/67 65/65/65 66/66/66
f 70/70/70 69/69/69 68/68/68
f 71/71/71 69/69/69 70/70/70
f 52/52/52 72/72/72 50/50/50
f 73/73/73 72/72/72 52/52/52
f 74/74/74 52/52/52 54/54/54
f 74/74/74 73/73/73 52/52/52
f 75/75/75 73/73/73 74/74/74
f 75/75/75 76/76/76 73/73/73
f 56/56/56 74/74/74 54/54/54
f 77/77/77 74/74/74 56/56/56
f 77/77/77 75/75/75 74/74/74
f 78/78/78 75/75/75 77/77/77
f 81/81/81 80/80/80 79/79/79
f 81/81/81 82/82/82 80/80/80
f 85/85/85 84/84/84 83/83/83
f 85/85/85 86/86/86 84/84/84
f 89/89/89 88/88/88 87/87/87
f 90/90/90 88/88/88 89/89/89
f 93/93/93 92/92/92 91/91/91
f 96/96/96 95/95/95 94/94/94
f 96/96/96 97/97/97 95/95/95
f 76/76/76 99/99/99 98/98/98
f 100/100/100 99/99/99 76/76/76
f 100/100/100 101/101/101 99/99/99
f 102/102/102 101/101/101 100/100/100
f 103/103/103 76/76/76 75/75/75
f 103/103/103 100/100/100 76/76/76
f 104/104/104 100/100/100 103/103/103
f 104/104/104 102/102/102 100/100/100
f 105/105/105 75/75/75 78/78/78
f 105/105/105 103/103/103 75/75/75
f 106/106/106 103/103/103 105/105/105
f 106/106/106 104/104/104 103/103/103
f 109/109/109 108/108/108 107/107/107
f 109/109/109 107/107/107 110/110/110
f 113/113/113 112/112/112 111/111/111
f 114/114/114 113/113/113 111/111/111
f 117/117/117 116/116/116 115/115/115
f 118/118/118 117/117/117 115/115/115
f 121/121/121 120/120/120 119/119/119
f 121/121/121 122/122/122 120/120/120
f 125/125/125 124/124/124 123/123/123
f 125/125/125 126/126/126 124/124/124
f 129/129/129 128/128/128 127/127/127
f 130/130/130 128/128/128 129/129/129
f 133/133/133 132/132/132 131/131/131
f 134/134/134 132/132/132 133/133/133
f 137/137/137 136/136/136 135/135/135
f 137/137/137 138/138/138 136/136/136
f 141/141/141 140/140/140 139/139/139
f 140/140/140 142/142/142 139/139/139
f 145/145/145 144/144/144 143/143/143
f 146/146/146 144/144/144 145/145/145
f 149/149/149 148/148/148 147/147/147
f 150/150/150 148/148/148 149/149/149
f 152/152/152 151/151/151 150/150/150
f 152/152/152 153/153/153 151/151/151
f 156/156/156 155/155/155 154/154/154
f 156/156/156 157/157/157 155/155/155
f 160/160/160 159/159/159 158/158/158
f 160/160/160 161/161/161 159/159/159
g pb_Mesh99358_1
f 164/164/164 163/163/163 162/162/162
f 164/164/164 165/165/165 163/163/163
f 168/168/168 167/167/167 166/166/166
f 169/169/169 168/168/168 166/166/166
f 169/169/169 162/162/162 168/168/168
f 162/162/162 163/163/163 168/168/168
f 165/165/165 170/170/170 163/163/163
f 165/165/165 171/171/171 170/170/170
f 171/171/171 172/172/172 170/170/170
f 171/171/171 173/173/173 172/172/172
f 175/175/175 174/174/174 167/167/167
f 168/168/168 175/175/175 167/167/167
f 177/177/177 176/176/176 174/174/174
f 175/175/175 177/177/177 174/174/174
f 168/168/168 163/163/163 175/175/175
f 163/163/163 170/170/170 175/175/175
f 175/175/175 170/170/170 177/177/177
f 170/170/170 172/172/172 177/177/177
f 179/179/179 178/178/178 172/172/172
f 173/173/173 179/179/179 172/172/172
f 181/181/181 180/180/180 178/178/178
f 179/179/179 181/181/181 178/178/178
f 184/184/184 183/183/183 182/182/182
f 184/184/184 182/182/182 185/185/185
f 176/176/176 184/184/184 185/185/185
f 177/177/177 184/184/184 176/176/176
f 177/177/177 172/172/172 184/184/184
f 172/172/172 178/178/178 184/184/184
f 184/184/184 178/178/178 183/183/183
f 178/178/178 180/180/180 183/183/183
