g pb_Mesh-368156
v -0.7500001 -4 0.124999836
v -1.0000001 -4 0.12499975
v -0.7500003 4 0.12499957
v -1.0000004 4 0.12500001
v -1.0000001 -4 0.12499975
v -1 -4 -0.12500025
v -1.0000004 4 0.12500001
v -1.0000002 4 -0.12500001
v -1 -4 -0.12500025
v -0.75 -4 -0.12500016
v -1.0000002 4 -0.12500001
v -0.75000024 4 -0.12500046
v 1 -4 -0.12499954
v 0.9999999 -4 0.12500046
v 1.0000004 4 -0.1249993
v 1.0000001 4 0.12500025
v -0.7500003 4 0.12499957
v -1.0000004 4 0.12500001
v -0.75000024 4 -0.12500046
v -1.0000002 4 -0.12500001
v -0.75 -4 -0.12500016
v -1 -4 -0.12500025
v -0.7500001 -4 0.124999836
v -1.0000001 -4 0.12499975
v 0.75 -4 -0.12499963
v 0.7499999 -4 0.12500037
v 1 -4 -0.12499954
v 0.9999999 -4 0.12500046
v 0.75000024 4 -0.12499933
v 0.75 -4 -0.12499963
v 1.0000004 4 -0.1249993
v 1 -4 -0.12499954
v 0.7499999 -4 0.12500037
v 0.75000006 4 0.1250007
v 0.9999999 -4 0.12500046
v 1.0000001 4 0.12500025
v 0.75000006 4 0.1250007
v 0.75000024 4 -0.12499933
v 1.0000001 4 0.12500025
v 1.0000004 4 -0.1249993
v -0.7500001 -4 0.124999836
v -0.7500003 4 0.12499957
v -0.75 -4 -0.12500016
v -0.75000024 4 -0.12500046
v 0.75000006 4 0.1250007
v 0.7499999 -4 0.12500037
v 0.75000024 4 -0.12499933
v 0.75 -4 -0.12499963
v -0.75000006 -4 -1.6391277E-07
v -0.75000024 4 -4.4703484E-07
v 0.74999994 -4 3.7252903E-07
v 0.75000006 4 6.854534E-07
vt -0.75000006 -4
vt -1.0000001 -4
vt -0.75000024 4
vt -1.0000004 4
vt -1.9999998 -4
vt -2.2499998 -4
vt -1.9999995 4
vt -2.2499995 4
vt 1 -4
vt 0.75000006 -4
vt 1.0000002 4
vt 0.7500003 4
vt 2.25 -4
vt 2 -4
vt 2.2499998 4
vt 2.0000002 4
vt 0.7500003 -2.0000005
vt 1.0000004 -2
vt 0.75000024 -2.2500005
vt 1.0000002 -2.25
vt -0.75 -2.2500002
vt -1 -2.2500002
vt -0.7500001 -2.0000002
vt -1.0000001 -2.0000002
vt 0.75 -2.2499995
vt 0.7499999 -1.9999996
vt 1 -2.2499995
vt 0.9999999 -1.9999995
vt -0.75000024 4
vt -0.75 -4
vt -1.0000004 4
vt -1 -4
vt 0.74999994 -4
vt 0.7500001 4
vt 0.99999994 -4
vt 1.0000001 4
vt -0.75000006 -1.9999993
vt -0.75000024 -2.2499993
vt -1.0000001 -1.9999998
vt -1.0000004 -2.2499993
vt 1.9999998 -4
vt 2 4
vt 2.2499998 -4
vt 2.25 4
vt -1.9999999 4
vt -2.0000002 -4
vt -2.2499998 4
vt -2.2500002 -4
vt -0.75000006 -4
vt -0.75000024 4
vt 0.74999994 -4
vt 0.75000006 4
vn -3.5762787E-07 3.3527606E-08 1
vn 7.152555E-07 2.3092639E-14 1
vn 7.152555E-07 2.3092639E-14 1
vn 1.7881389E-06 -3.352756E-08 1
vn -1 -2.9802306E-08 -4.7683716E-07
vn -1 -2.9802308E-08 -4.7683713E-07
vn -1 -2.9802308E-08 -4.7683713E-07
vn -1 -2.9802308E-08 -4.768371E-07
vn 3.5762787E-07 2.9802333E-08 -1
vn -7.1525574E-07 -3.7253116E-09 -1
vn -7.1525574E-07 -3.7253116E-09 -1
vn -1.7881393E-06 -3.7252956E-08 -1
vn 1 -4.4703498E-08 4.7683716E-07
vn 1 -3.7252896E-08 7.152566E-07
vn 1 -3.7252896E-08 7.152566E-07
vn 1 -2.9802298E-08 9.53676E-07
vn -0 1 0
vn -0 1 0
vn -0 1 0
vn -0 1 0
vn -0 -1 0
vn -0 -1 0
vn -0 -1 0
vn -0 -1 0
vn -0 -1 0
vn -0 -1 0
vn -0 -1 0
vn -0 -1 0
vn 1.1920923E-07 3.72529E-08 -1
vn 2.3841855E-07 3.3527602E-08 -1
vn 2.3841855E-07 3.3527602E-08 -1
vn 3.5762787E-07 2.9802306E-08 -1
vn -3.5762787E-07 -4.0978186E-08 1
vn 7.152555E-07 -7.450603E-09 1
vn 7.152555E-07 -7.450603E-09 1
vn 1.7881389E-06 2.607698E-08 1
vn -0 1 0
vn -0 1 0
vn -0 1 0
vn -0 1 0
vn 1 2.2351758E-08 4.7683716E-07
vn 1 2.6077046E-08 3.5762787E-07
vn 1 2.6077046E-08 3.5762787E-07
vn 1 2.9802333E-08 2.3841855E-07
vn -1 2.235177E-08 -7.152557E-07
vn -1 2.6077055E-08 -5.9604645E-07
vn -1 2.6077055E-08 -5.9604645E-07
vn -1 2.980234E-08 -4.7683716E-07
vn -3.5762787E-07 3.539025E-08 1
vn -5.5630994E-07 -1.8626487E-09 1
vn -5.5630994E-07 -1.8626487E-09 1
vn -7.549921E-07 -3.9115548E-08 1
g pb_Mesh-368156_0
f 3/3/3 2/2/2 1/1/1
f 3/3/3 4/4/4 2/2/2
f 7/7/7 6/6/6 5/5/5
f 7/7/7 8/8/8 6/6/6
f 11/11/11 10/10/10 9/9/9
f 11/11/11 12/12/12 10/10/10
f 15/15/15 14/14/14 13/13/13
f 15/15/15 16/16/16 14/14/14
f 19/19/19 18/18/18 17/17/17
f 19/19/19 20/20/20 18/18/18
f 23/23/23 22/22/22 21/21/21
f 23/23/23 24/24/24 22/22/22
f 27/27/27 26/26/26 25/25/25
f 27/27/27 28/28/28 26/26/26
f 31/31/31 30/30/30 29/29/29
f 31/31/31 32/32/32 30/30/30
f 35/35/35 34/34/34 33/33/33
f 35/35/35 36/36/36 34/34/34
f 39/39/39 38/38/38 37/37/37
f 39/39/39 40/40/40 38/38/38
f 43/43/43 42/42/42 41/41/41
f 43/43/43 44/44/44 42/42/42
f 47/47/47 46/46/46 45/45/45
f 47/47/47 48/48/48 46/46/46
g pb_Mesh-368156_1
f 51/51/51 50/50/50 49/49/49
f 51/51/51 52/52/52 50/50/50
