g pb_Mesh69574
v 8 1 4
v 2 1 4
v 8 1 0
v 2 1 0
v 8 -6 0
v 2 -6 0
v 8 -6 4
v 2 -6 4
v 2 1 0
v 2 1 4
v -4 4 0
v -4 4 4
v -4 4 0
v -4 4 4
v -8 4 1
v -10 4 4
v -8 6 16
v -4 6 16
v -7 6 20
v -4 6 22
v -10 4 4
v -4 4 4
v -4 4 6
v -10 4 6
v -4 4 12
v -8 4 12
v -8 4 12
v -4 4 12
v -4 6 16
v -8 6 16
v 8 1 0
v 2 1 0
v 12 -2 -4
v 2 -2 -4
v 8 1 4
v 8 1 0
v 12 -2 4
v 12 -2 -4
v 8 1 4
v 12 -2 4
v 8 -2 8
v 12 -3 8
v 2 1 0
v -2 -2 -4
v -2 -2 0
v -0 6 22
v -0 6 16
v 8 6 22
v 8 6 16
v 13 6 20
v 12 6 16
v 12 6 16
v 8 6 16
v 12 12 4
v 8 12 4
v 12 12 4
v 8 12 4
v 12 12 0
v 8 12 0
v 8 12 0
v 8 12 4
v 2 16 0
v 2 16 4
v 2 16 0
v 2 16 4
v -2 16 4
v 8 -6 4
v 2 -6 4
v 8 1 4
v 2 1 4
v -10 -6 4
v -8 -6 1
v -10 1 4
v -8 1 1
v 12 -6 -4
v 12 -6 4
v 12 -2 -4
v 12 -2 4
v 2 -6 4
v 2 -6 0
v -4 -6 4
v -4 -6 0
v -4 1 4
v -4 -6 4
v 2 -6 0
v 2 1 0
v -4 -6 0
v -4 1 0
v -4 4 0
v -4 4 4
v -10 4 4
v -8 4 1
v -4 6 22
v -4 1 22
v -7 6 20
v -7 1 20
v -4 1 0
v -4 4 0
v -8 1 1
v -8 4 1
v -10 -6 4
v -8 -6 1
v -4 -6 22
v -7 -6 20
v -4 -6 0
v -8 -6 1
v 12 6 16
v 12 4 16
v 13 6 20
v 13 1 20
v -4 -6 16
v -8 -6 16
v -4 -6 22
v -7 -6 20
v -8 1 16
v -8 6 16
v -7 1 20
v -7 6 20
v 12 -6 16
v 13 -6 20
v -8 -6 16
v -7 -6 20
v -4 1 4
v -4 -6 6
v -4 1 6
v -4 -6 4
v -10 1 6
v -10 1 4
v -10 4 4
v -10 4 6
v -4 -6 6
v -10 -6 6
v -10 -6 6
v -10 -6 4
v -4 4 4
v -4 4 6
v -4 1 12
v -4 -6 16
v -4 1 16
v -4 -6 12
v -8 1 16
v -8 1 12
v -8 4 12
v -8 6 16
v -8 1 12
v -10 1 6
v -10 4 6
v -8 4 12
v -4 -6 12
v -8 -6 12
v -8 -6 16
v -8 -6 12
v -8 -6 12
v -10 -6 6
v -4 4 12
v -4 6 16
v 2 -2 -4
v 12 -6 -4
v 12 -2 -4
v 2 -6 -4
v 8 -6 8
v 8 -2 8
v 12 -6 8
v 12 -3 8
v -2 -2 0
v -2 -6 0
v -2 -2 -4
v -2 -6 -4
v 8 -6 0
v 2 -6 -4
v 12 -6 -4
v 8 -6 4
v 12 -6 4
v 8 -6 4
v 8 1 4
v 8 -6 8
v 8 -2 8
v 12 -6 8
v 8 -6 8
v 12 -3 8
v 12 -6 8
v 2 1 0
v 2 -6 0
v -2 -2 0
v -2 -6 0
v -2 -6 0
v -2 -6 -4
v -2 -6 -4
v -2 -2 -4
v -4 6 16
v -4 1 16
v -0 6 16
v -0 1 16
v -0 -6 16
v -0 -6 22
v -4 1 22
v -4 6 22
v -0 1 22
v -0 6 22
v -4 -6 16
v -0 -6 16
v -4 -6 22
v -0 -6 22
v 8 6 16
v 8 4 16
v 8 -6 16
v 8 -6 22
v 8 1 22
v 8 6 22
v 8 -6 16
v 8 -6 22
v 8 12 0
v 8 10 0
v 12 12 0
v 12 10 0
v 12 -6 16
v 13 -6 20
v 8 1 22
v 8 6 22
v 13 1 20
v 13 6 20
v 12 4 16
v 12 -6 16
v 8 -6 22
v 13 -6 20
v 8 6 16
v 8 4 16
v 8 12 4
v 8 8 4
v 8 4 16
v 12 4 16
v 8 8 4
v 12 10 4
v 12 4 16
v 12 6 16
v 12 10 4
v 12 12 4
v 8 8 4
v 12 10 4
v 8 10 0
v 12 10 0
v 12 10 0
v 12 12 0
v 8 12 4
v 8 8 4
v 2 16 4
v 2 12 4
v 8 8 4
v 8 10 0
v 2 12 4
v 2 14 0
v 2 14 0
v 2 16 0
v -2 16 4
v -2 14 4
v 2 12 4
v 2 14 0
v -2 14 4
v -2 16 4
v 2 14 0
v 2 16 0
v -2 16 4
vt -8 4
vt -2 4
vt -8 0
vt -2 0
vt 8 0
vt 2 0
vt 8 4
vt 2 4
vt -1.3416407 0
vt -1.3416407 4
vt 5.366563 0
vt 5.366563 4
vt 4 0
vt 4 4
vt 8 1
vt 10 4
vt 8 16
vt 4 16
vt 7 20
vt 4 22
vt 10 4.563879
vt 4 4.563879
vt 4 6.5404253
vt 10 6.5404253
vt 4 12.470064
vt 8 12.470064
vt 8 12.470064
vt 4 12.470064
vt 4 16.72855
vt 8 16.72855
vt -8 0.59999996
vt -2 0.59999996
vt -12 -4.4
vt -2 -4.4
vt -5.8 4
vt -5.8 0
vt -10.8 4
vt -10.8 -4
vt -5.8 0.5487954
vt -10.8 0.54879534
vt -7.6000004 5.213557
vt -11.400001 4.3903637
vt -2 0.59999996
vt 2 -4.4
vt 2 -1.1999999
vt 0 22
vt 0 16
vt -8 22
vt -8 16
vt -13 20
vt -12 16
vt -12 11.627553
vt -8 11.627553
vt -12 -1.7888544
vt -8 -1.7888544
vt -12 4
vt -8 4
vt -12 0
vt -8 0
vt -2.3841858E-07 0
vt -2.3841858E-07 4
vt 7.2111025 0
vt 7.2111025 4
vt -2 0
vt -2 4
vt 2 4
vt 8 -6
vt 2 -6
vt 8 1
vt 2 1
vt 8.875203 -6
vt 5.269652 -6
vt 8.875203 1
vt 5.269652 1
vt 4 -6
vt -4 -6
vt 4 -2
vt -4 -2
vt 2 4
vt 2 0
vt -4 4
vt -4 0
vt -4 1
vt -4 -6
vt -2 -6
vt -2 1
vt 4 -6
vt 4 1
vt 4 4
vt -4 4
vt 8.875203 4
vt 5.269652 4
vt 8.875203 6
vt 8.875203 1
vt 5.2696514 6
vt 5.2696514 1
vt 3.88057 1
vt 3.88057 4
vt 8.003675 1
vt 8.003675 4
vt -10 4
vt -8 1
vt 8.875203 -6
vt 5.269652 -6
vt 3.88057 -6
vt 8.003675 -6
vt -18.432709 6
vt -18.432709 4
vt -22.555815 6
vt -22.555815 1
vt -4 16
vt -8 16
vt -4 22
vt -7 20
vt 13.581995 1
vt 13.581995 6
vt 17.705101 1
vt 17.705101 6
vt -18.432707 -6
vt -22.555813 -6
vt 13.581995 -6
vt 17.705101 -6
vt -4 1
vt -6 -6
vt -6 1
vt -4 -6
vt 4.899469 1
vt 2.9108715 1
vt 2.9108715 4
vt 4.899469 4
vt -4 6
vt -10 6
vt 4.899469 -6
vt 2.9108715 -6
vt -4 4
vt -6 4
vt -12 1
vt -16 -6
vt -16 1
vt -12 -6
vt 15.055719 1
vt 11.078525 1
vt 11.078525 4
vt 15.055719 6
vt 11.078525 1
vt 4.899469 1
vt 4.899469 4
vt 11.078525 4
vt -4 12
vt -8 12
vt 15.055719 -6
vt 11.078525 -6
vt 11.078525 -6
vt 4.899469 -6
vt -12 4
vt -16 6
vt -2 -2
vt -12 -6
vt -12 -2
vt -2 -6
vt 8 -6
vt 8 -2
vt 12 -6
vt 12 -3
vt 0 -2
vt 0 -6
vt -4 -2
vt -4 -6
vt 8 0
vt 2 -4
vt 12 -4
vt 8 4
vt 12 4
vt 4 -6
vt 4 1
vt 8 -6
vt 8 -2
vt 12 8
vt 8 8
vt -8 -3
vt -8 -6
vt 2 1
vt 2 -6
vt -2 -2
vt -2 -6
vt -2 0
vt -2 -4
vt 2 -6
vt 2 -2
vt 4 6
vt 4 1
vt 0 6
vt 0 1
vt 0 16
vt 0 22
vt -4 1
vt -4 6
vt 0 1
vt 0 6
vt 4 -6
vt 0 -6
vt -4 -6
vt 0 -6
vt -8 6
vt -8 4
vt 8 16
vt 8 22
vt 8 1
vt 8 6
vt -8 -6
vt 8 -6
vt -8 12
vt -8 10
vt -12 12
vt -12 10
vt 12 16
vt 13 20
vt -0.7427819 1
vt -0.7427819 6
vt 4.642383 1
vt 4.642383 6
vt -12 4
vt -12 -6
vt -0.7427819 -6
vt 4.642383 -6
vt 16 6
vt 16 4
vt 4 12
vt 4 8
vt 8 13.914022
vt 12 13.914022
vt 8 1.2649109
vt 12 0.63245535
vt -16 4
vt -16 6
vt -4 10
vt -4 12
vt 10.733126 2.1908903
vt 15.205262 2.1908903
vt 11.627553 -2.1908903
vt 15.205262 -1.4605936
vt 0 10
vt 0 12
vt 8 12
vt 8 8
vt 2 16
vt 2 12
vt 2.218801 -0.56817687
vt 1.1094006 -4.900524
vt -4.992302 -0.56817687
vt -6.101702 -4.900524
vt -2 14
vt -2 16
vt -2 16
vt -2 14
vt -3.5777087 -1.0954454
vt -4.472136 -5.477226
vt -8.049845 -1.0954454
vt -8.944272 -1.8257421
vt -1.4142135 14
vt -1.4142135 16
vt 4.2426405 16
vn -0 1 0
vn -0 1 0
vn -0 1 0
vn -0 1 0
vn -0 -1 0
vn -0 -1 0
vn -0 -1 0
vn -0 -1 0
vn 0.4472136 0.8944272 0
vn 0.4472136 0.8944272 0
vn 0.4472136 0.8944272 0
vn 0.4472136 0.8944272 0
vn -0 1 0
vn -0 1 0
vn -0 1 0
vn -0 1 0
vn -0 1 0
vn -0 1 0
vn -0 1 0
vn -0 1 0
vn -0 1 0
vn -0 1 0
vn -0 1 0
vn -0 1 0
vn -0 1 0
vn -0 1 0
vn -0 0.8944272 -0.4472136
vn -0 0.8944272 -0.4472136
vn -0 0.8944272 -0.4472136
vn -0 0.8944272 -0.4472136
vn -0 0.8 -0.6
vn -0 0.8 -0.6
vn -0 0.8 -0.6
vn -0 0.8 -0.6
vn 0.6 0.8 0
vn 0.6 0.8 0
vn 0.6 0.8 0
vn 0.6 0.8 0
vn 0.51449573 0.6859943 0.51449573
vn 0.375099 0.8144016 0.375099
vn 0.375099 0.8144016 0.375099
vn 0.23570225 0.942809 0.23570225
vn -0.3 0.8 -0.3
vn -0.3 0.8 -0.3
vn -0.6 0.8 0
vn -0 1 0
vn -0 1 0
vn -0 1 0
vn -0 1 0
vn -0 1 0
vn -0 1 0
vn -0 0.8944272 0.4472136
vn -0 0.8944272 0.4472136
vn -0 0.8944272 0.4472136
vn -0 0.8944272 0.4472136
vn -0 1 0
vn -0 1 0
vn -0 1 0
vn -0 1 0
vn 0.5547002 0.8320503 0
vn 0.5547002 0.8320503 0
vn 0.5547002 0.8320503 0
vn 0.5547002 0.8320503 0
vn -0 1 0
vn -0 1 0
vn -0 1 0
vn -0 0 1
vn -0 0 1
vn -0 0 1
vn -0 0 1
vn -0.83205026 0 -0.5547002
vn -0.83205026 0 -0.5547002
vn -0.83205026 0 -0.5547002
vn -0.83205026 0 -0.5547002
vn 1 0 0
vn 1 0 0
vn 1 0 0
vn 1 0 0
vn -0 -1 0
vn -0 -1 0
vn -0 -1 0
vn -0 -1 0
vn -0 0 1
vn -0 0 1
vn -0 0 -1
vn -0 0 -1
vn -0 0 -1
vn -0 0 -1
vn -0 0 -1
vn -0 0 1
vn -0.83205026 0 -0.5547002
vn -0.83205026 0 -0.5547002
vn -0.5547002 0 0.8320503
vn -0.5547002 0 0.8320503
vn -0.5547002 0 0.8320503
vn -0.5547002 0 0.8320503
vn -0.24253562 0 -0.9701425
vn -0.24253562 0 -0.9701425
vn -0.24253562 0 -0.9701425
vn -0.24253562 0 -0.9701425
vn -0 -1 0
vn -0 -1 0
vn -0.5547002 0 0.83205026
vn -0.5547002 0 0.83205026
vn -0.24253562 0 -0.9701425
vn -0.24253562 0 -0.9701425
vn 0.97014254 0 -0.24253564
vn 0.9701425 0 -0.24253562
vn 0.9701425 0 -0.24253562
vn 0.9701425 0 -0.24253562
vn -0 -1 0
vn -0 -1 0
vn -0 -1 0
vn -0 -1 0
vn -0.9701425 0 0.24253562
vn -0.9701425 0 0.24253562
vn -0.9701425 0 0.24253562
vn -0.9701425 0 0.24253562
vn 0.9701425 0 -0.24253562
vn 0.9701425 0 -0.24253562
vn -0.9701425 0 0.24253562
vn -0.9701425 0 0.24253562
vn 1 0 0
vn 1 0 0
vn 1 0 0
vn 1 0 0
vn -1 0 0
vn -1 0 0
vn -1 0 0
vn -1 0 0
vn -0 -1 0
vn -0 -1 0
vn -1 0 0
vn -1 0 0
vn 1 0 0
vn 1 0 0
vn 1 0 0
vn 1 0 0
vn 1 0 0
vn 1 0 0
vn -1 0 0
vn -1 0 0
vn -1 0 0
vn -1 0 0
vn -0.9486833 0 0.31622776
vn -0.9486833 0 0.31622776
vn -0.9486833 0 0.31622776
vn -0.9486833 0 0.31622776
vn -0 -1 0
vn -0 -1 0
vn -1 0 0
vn -1 0 0
vn -0.9486833 0 0.3162278
vn -0.9486833 0 0.3162278
vn 1 0 0
vn 1 0 0
vn -0 0 -1
vn -0 0 -1
vn -0 0 -1
vn -0 0 -1
vn -0 0 1
vn -0 0 1
vn -0 0 1
vn -0 0 1
vn -1 0 0
vn -1 0 0
vn -1 0 0
vn -1 0 0
vn -0 -1 0
vn -0 -1 0
vn -0 -1 0
vn -0 -1 0
vn -0 -1 0
vn -1 0 0
vn -1 0 0
vn -1 0 0
vn -1 0 0
vn -0 -1 0
vn -0 -1 0
vn 1 0 0
vn 1 0 0
vn -0 0 1
vn -0 0 1
vn -0 0 1
vn -0 0 1
vn -0 -1 0
vn -0 -1 0
vn -0 0 -1
vn -0 0 -1
vn -0 0 -1
vn -0 0 -1
vn -0 0 -1
vn -0 0 -1
vn -0 -1 0
vn -0 -1 0
vn -0 0 1
vn -0 0 1
vn -0 0 1
vn -0 0 1
vn -0 0 -1
vn -0 0 -1
vn -0 0 1
vn -0 0 1
vn -0 0 -1
vn -0 0 -1
vn -0 -1 0
vn -0 -1 0
vn -0 0 1
vn -0 0 1
vn -0 0 -1
vn -0 0 1
vn -0 0 -1
vn -0 0 -1
vn -0 0 -1
vn -0 0 -1
vn -0 -1 0
vn -0 -1 0
vn 0.3713907 0 0.9284767
vn 0.3713907 0 0.9284767
vn 0.3713907 0 0.9284767
vn 0.3713907 0 0.9284767
vn -0 0 -1
vn -0 0 -1
vn 0.3713907 0 0.9284767
vn 0.3713907 0 0.9284767
vn -1 0 0
vn -1 0 0
vn -1 0 0
vn -1 0 0
vn -0 -0.9486833 -0.3162278
vn 0.20412415 -0.88258994 -0.36223805
vn 0.20412415 -0.88258994 -0.36223805
vn 0.4082483 -0.8164966 -0.4082483
vn 1 0 0
vn 1 0 0
vn 1 0 0
vn 1 0 0
vn 0.4082483 -0.8164966 -0.4082483
vn 0.20412415 -0.9082483 -0.20412415
vn 0.20412415 -0.9082483 -0.20412415
vn -0 -1 0
vn 1 0 0
vn 1 0 0
vn -0 0 1
vn -0 0 1
vn -0 0 1
vn -0 0 1
vn -0.51214755 -0.7682213 -0.38411066
vn -0.51214755 -0.7682213 -0.38411066
vn -0.51214755 -0.7682213 -0.38411066
vn -0.51214755 -0.7682213 -0.38411066
vn -0 0 -1
vn -0 0 -1
vn -0 0 1
vn -0 0 1
vn -0.4082483 -0.8164966 -0.4082483
vn -0.5576775 -0.4082483 -0.5576775
vn -0.5576775 -0.4082483 -0.5576775
vn -0.70710677 0 -0.70710677
vn -0.70710677 0 -0.70710677
vn -0.70710677 0 -0.70710677
vn -0.70710677 0 -0.70710677
g pb_Mesh69574_0
f 3/3/3 2/2/2 1/1/1
f 3/3/3 4/4/4 2/2/2
f 7/7/7 6/6/6 5/5/5
f 7/7/7 8/8/8 6/6/6
f 11/11/11 10/10/10 9/9/9
f 11/11/11 12/12/12 10/10/10
f 15/15/15 14/14/14 13/13/13
f 15/15/15 16/16/16 14/14/14
f 19/19/19 18/18/18 17/17/17
f 19/19/19 20/20/20 18/18/18
f 23/23/23 22/22/22 21/21/21
f 23/23/23 21/21/21 24/24/24
f 25/25/25 23/23/23 24/24/24
f 25/25/25 24/24/24 26/26/26
f 29/29/29 28/28/28 27/27/27
f 29/29/29 27/27/27 30/30/30
f 33/33/33 32/32/32 31/31/31
f 33/33/33 34/34/34 32/32/32
f 37/37/37 36/36/36 35/35/35
f 37/37/37 38/38/38 36/36/36
f 41/41/41 40/40/40 39/39/39
f 41/41/41 42/42/42 40/40/40
f 44/44/44 43/43/43 34/34/34
f 44/44/44 45/45/45 43/43/43
f 46/46/46 18/18/18 20/20/20
f 46/46/46 47/47/47 18/18/18
f 48/48/48 47/47/47 46/46/46
f 48/48/48 49/49/49 47/47/47
f 50/50/50 49/49/49 48/48/48
f 50/50/50 51/51/51 49/49/49
f 54/54/54 53/53/53 52/52/52
f 54/54/54 55/55/55 53/53/53
f 58/58/58 57/57/57 56/56/56
f 58/58/58 59/59/59 57/57/57
f 62/62/62 61/61/61 60/60/60
f 62/62/62 63/63/63 61/61/61
f 66/66/66 65/65/65 64/64/64
g pb_Mesh69574_1
f 69/69/69 68/68/68 67/67/67
f 69/69/69 70/70/70 68/68/68
f 73/73/73 72/72/72 71/71/71
f 73/73/73 74/74/74 72/72/72
f 77/77/77 76/76/76 75/75/75
f 77/77/77 78/78/78 76/76/76
f 81/81/81 80/80/80 79/79/79
f 81/81/81 82/82/82 80/80/80
f 83/83/83 68/68/68 70/70/70
f 83/83/83 84/84/84 68/68/68
f 87/87/87 86/86/86 85/85/85
f 87/87/87 88/88/88 86/86/86
f 89/89/89 86/86/86 88/88/88
f 70/70/70 90/90/90 83/83/83
f 91/91/91 74/74/74 73/73/73
f 91/91/91 92/92/92 74/74/74
f 95/95/95 94/94/94 93/93/93
f 95/95/95 96/96/96 94/94/94
f 99/99/99 98/98/98 97/97/97
f 99/99/99 100/100/100 98/98/98
f 101/101/101 82/82/82 81/81/81
f 101/101/101 102/102/102 82/82/82
f 96/96/96 103/103/103 94/94/94
f 96/96/96 104/104/104 103/103/103
f 106/106/106 97/97/97 105/105/105
f 106/106/106 99/99/99 97/97/97
f 109/109/109 108/108/108 107/107/107
f 109/109/109 110/110/110 108/108/108
f 113/113/113 112/112/112 111/111/111
f 113/113/113 114/114/114 112/112/112
f 117/117/117 116/116/116 115/115/115
f 117/117/117 118/118/118 116/116/116
f 110/110/110 119/119/119 108/108/108
f 110/110/110 120/120/120 119/119/119
f 122/122/122 115/115/115 121/121/121
f 122/122/122 117/117/117 115/115/115
f 125/125/125 124/124/124 123/123/123
f 124/124/124 126/126/126 123/123/123
f 129/129/129 128/128/128 127/127/127
f 129/129/129 127/127/127 130/130/130
f 132/132/132 101/101/101 131/131/131
f 101/101/101 81/81/81 131/131/131
f 128/128/128 134/134/134 133/133/133
f 128/128/128 133/133/133 127/127/127
f 136/136/136 125/125/125 135/135/135
f 125/125/125 123/123/123 135/135/135
f 139/139/139 138/138/138 137/137/137
f 138/138/138 140/140/140 137/137/137
f 137/137/137 140/140/140 125/125/125
f 140/140/140 124/124/124 125/125/125
f 143/143/143 142/142/142 141/141/141
f 143/143/143 141/141/141 144/144/144
f 147/147/147 146/146/146 145/145/145
f 147/147/147 145/145/145 148/148/148
f 150/150/150 132/132/132 149/149/149
f 132/132/132 131/131/131 149/149/149
f 112/112/112 150/150/150 111/111/111
f 150/150/150 149/149/149 111/111/111
f 142/142/142 152/152/152 151/151/151
f 142/142/142 151/151/151 141/141/141
f 146/146/146 154/154/154 153/153/153
f 146/146/146 153/153/153 145/145/145
f 156/156/156 139/139/139 155/155/155
f 139/139/139 137/137/137 155/155/155
f 155/155/155 137/137/137 136/136/136
f 137/137/137 125/125/125 136/136/136
f 159/159/159 158/158/158 157/157/157
f 158/158/158 160/160/160 157/157/157
f 163/163/163 162/162/162 161/161/161
f 163/163/163 164/164/164 162/162/162
f 167/167/167 166/166/166 165/165/165
f 167/167/167 168/168/168 166/166/166
f 170/170/170 169/169/169 80/80/80
f 170/170/170 171/171/171 169/169/169
f 171/171/171 172/172/172 169/169/169
f 171/171/171 173/173/173 172/172/172
f 176/176/176 175/175/175 174/174/174
f 176/176/176 177/177/177 175/175/175
f 178/178/178 172/172/172 173/173/173
f 178/178/178 179/179/179 172/172/172
f 180/180/180 76/76/76 78/78/78
f 180/180/180 181/181/181 76/76/76
f 184/184/184 183/183/183 182/182/182
f 184/184/184 185/185/185 183/183/183
f 186/186/186 170/170/170 80/80/80
f 186/186/186 187/187/187 170/170/170
f 188/188/188 157/157/157 160/160/160
f 188/188/188 189/189/189 157/157/157
f 192/192/192 191/191/191 190/190/190
f 192/192/192 193/193/193 191/191/191
f 194/194/194 113/113/113 111/111/111
f 194/194/194 195/195/195 113/113/113
f 198/198/198 197/197/197 196/196/196
f 198/198/198 199/199/199 197/197/197
f 193/193/193 200/200/200 191/191/191
f 193/193/193 201/201/201 200/200/200
f 203/203/203 196/196/196 202/202/202
f 203/203/203 198/198/198 196/196/196
f 204/204/204 193/193/193 192/192/192
f 204/204/204 205/205/205 193/193/193
f 206/206/206 195/195/195 194/194/194
f 206/206/206 207/207/207 195/195/195
f 208/208/208 199/199/199 198/198/198
f 208/208/208 209/209/209 199/199/199
f 205/205/205 201/201/201 193/193/193
f 205/205/205 210/210/210 201/201/201
f 211/211/211 198/198/198 203/203/203
f 211/211/211 208/208/208 198/198/198
f 214/214/214 213/213/213 212/212/212
f 214/214/214 215/215/215 213/213/213
f 216/216/216 207/207/207 206/206/206
f 216/216/216 217/217/217 207/207/207
f 220/220/220 219/219/219 218/218/218
f 220/220/220 221/221/221 219/219/219
f 222/222/222 210/210/210 205/205/205
f 222/222/222 223/223/223 210/210/210
f 225/225/225 218/218/218 224/224/224
f 225/225/225 220/220/220 218/218/218
f 228/228/228 227/227/227 226/226/226
f 228/228/228 229/229/229 227/227/227
f 232/232/232 231/231/231 230/230/230
f 232/232/232 233/233/233 231/231/231
f 236/236/236 235/235/235 234/234/234
f 236/236/236 237/237/237 235/235/235
f 240/240/240 239/239/239 238/238/238
f 240/240/240 241/241/241 239/239/239
f 242/242/242 237/237/237 236/236/236
f 242/242/242 243/243/243 237/237/237
f 246/246/246 245/245/245 244/244/244
f 246/246/246 247/247/247 245/245/245
f 250/250/250 249/249/249 248/248/248
f 250/250/250 251/251/251 249/249/249
f 252/252/252 212/212/212 213/213/213
f 252/252/252 253/253/253 212/212/212
f 254/254/254 247/247/247 246/246/246
f 254/254/254 255/255/255 247/247/247
f 258/258/258 257/257/257 256/256/256
f 258/258/258 259/259/259 257/257/257
f 262/262/262 261/261/261 260/260/260
