g pb_Mesh-236832
v -0.74999964 -3 0.24999985
v -0.99999964 -3 0.24999976
v -0.7499997 5 0.25000003
v -0.9999997 5 0.24999964
v -0.99999964 -3 0.24999976
v -0.9999995 -3 -2.3841858E-07
v -0.9999997 5 0.24999964
v -1.0000002 5 -3.5762787E-07
v -0.9999995 -3 -2.3841858E-07
v -0.7499995 -3 -1.4901161E-07
v -1.0000002 5 -3.5762787E-07
v -0.75000024 5 2.9802322E-08
v 1.0000005 -3 4.7683716E-07
v 1.0000004 -3 0.25000048
v 1.0000007 5 8.344774E-07
v 1.0000004 5 0.25000083
v -0.7499997 5 0.25000003
v -0.9999997 5 0.24999964
v -0.75000024 5 2.9802322E-08
v -1.0000002 5 -3.5762787E-07
v -0.7499995 -3 -1.4901161E-07
v -0.9999995 -3 -2.3841858E-07
v -0.74999964 -3 0.24999985
v -0.99999964 -3 0.24999976
v 0.7500005 -3 3.874302E-07
v 0.75000036 -3 0.2500004
v 1.0000005 -3 4.7683716E-07
v 1.0000004 -3 0.25000048
v 0.7500007 5 4.4704723E-07
v 0.7500005 -3 3.874302E-07
v 1.0000007 5 8.344774E-07
v 1.0000005 -3 4.7683716E-07
v 0.75000036 -3 0.2500004
v 0.75000036 5 0.25000045
v 1.0000004 -3 0.25000048
v 1.0000004 5 0.25000083
v 0.75000036 5 0.25000045
v 0.7500007 5 4.4704723E-07
v 1.0000004 5 0.25000083
v 1.0000007 5 8.344774E-07
v -0.74999964 -3 0.24999985
v -0.7499997 5 0.25000003
v -0.7499995 -3 -1.4901161E-07
v -0.75000024 5 2.9802322E-08
v 0.75000036 5 0.25000045
v 0.75000036 -3 0.2500004
v 0.7500007 5 4.4704723E-07
v 0.7500005 -3 3.874302E-07
v -0.7499996 -3 0.12499985
v -0.74999994 5 0.12500003
v 0.7500004 -3 0.12500039
v 0.75000006 5 0.12500045
vt -0.7499996 -3
vt -0.9999996 -3
vt -0.7499996 5
vt -0.99999964 5
vt -1.8749998 -3
vt -2.1249998 -3
vt -1.8749999 5
vt -2.1249998 5
vt 0.9999995 -3
vt 0.7499995 -3
vt 1.0000002 5
vt 0.75000024 5
vt 2.125 -3
vt 1.875 -3
vt 2.1249995 5
vt 1.8749996 5
vt 0.7499997 -1.875
vt 0.9999997 -1.8750004
vt 0.75000024 -2.125
vt 1.0000002 -2.1250005
vt -0.7499995 -2.1250002
vt -0.9999995 -2.1250002
vt -0.74999964 -1.8750001
vt -0.99999964 -1.8750002
vt 0.7500005 -2.1249995
vt 0.75000036 -1.8749996
vt 1.0000005 -2.1249995
vt 1.0000004 -1.8749995
vt -0.7500007 5
vt -0.7500005 -3
vt -1.0000007 5
vt -1.0000005 -3
vt 0.7500005 -3
vt 0.7500005 5
vt 1.0000005 -3
vt 1.0000005 5
vt -0.75000036 -1.8749995
vt -0.7500007 -2.1249995
vt -1.0000004 -1.8749992
vt -1.0000007 -2.124999
vt 1.8749998 -3
vt 1.8749996 5
vt 2.1249998 -3
vt 2.1249995 5
vt -1.8750006 5
vt -1.8750007 -3
vt -2.1250007 5
vt -2.1250007 -3
vt -0.7499995 -3
vt -0.7499999 5
vt 0.7500005 -3
vt 0.7500001 5
vn -3.5762787E-07 -2.2351745E-08 1
vn -9.536743E-07 -3.725298E-09 1
vn -9.536743E-07 -3.725298E-09 1
vn -1.5497208E-06 1.490115E-08 1
vn -1 -7.450588E-09 -4.7683716E-07
vn -1 -4.8428763E-08 8.34465E-07
vn -1 -4.8428763E-08 8.34465E-07
vn -1 -8.940694E-08 2.1457672E-06
vn 3.5762787E-07 -1.4901129E-08 -1
vn 9.536743E-07 3.7253756E-09 -1
vn 9.536743E-07 3.7253756E-09 -1
vn 1.5497208E-06 2.235188E-08 -1
vn 1 -2.9802344E-08 4.7683716E-07
vn 1 -1.4901204E-08 9.536743E-07
vn 1 -1.4901204E-08 9.536743E-07
vn 1 -6.3948846E-14 1.4305115E-06
vn -0 1 0
vn -0 1 0
vn -0 1 0
vn -0 1 0
vn -0 -1 0
vn -0 -1 0
vn -0 -1 0
vn -0 -1 0
vn -0 -1 0
vn -0 -1 0
vn -0 -1 0
vn -0 -1 0
vn 1.5497208E-06 7.452083E-09 -1
vn 9.536743E-07 2.6078553E-08 -1
vn 9.536743E-07 2.6078553E-08 -1
vn 3.5762787E-07 4.4705022E-08 -1
vn -3.5762787E-07 -7.450581E-09 1
vn -9.536743E-07 -2.6077032E-08 1
vn -9.536743E-07 -2.6077032E-08 1
vn -1.5497208E-06 -4.4703484E-08 1
vn -0 1 0
vn -0 1 0
vn -0 1 0
vn -0 1 0
vn 1 7.45057E-09 4.7683716E-07
vn 1 4.8428795E-08 -8.34465E-07
vn 1 4.8428795E-08 -8.34465E-07
vn 1 8.940702E-08 -2.1457672E-06
vn -1 1.0658141E-14 -1.4305115E-06
vn -1 1.4901168E-08 -9.536743E-07
vn -1 1.4901168E-08 -9.536743E-07
vn -1 2.9802326E-08 -4.7683716E-07
vn -3.5762787E-07 -2.2351758E-08 1
vn -3.1789142E-07 -1.4901175E-08 1
vn -3.1789142E-07 -1.4901175E-08 1
vn -2.78155E-07 -7.450593E-09 1
g pb_Mesh-236832_0
f 3/3/3 2/2/2 1/1/1
f 3/3/3 4/4/4 2/2/2
f 7/7/7 6/6/6 5/5/5
f 7/7/7 8/8/8 6/6/6
f 11/11/11 10/10/10 9/9/9
f 11/11/11 12/12/12 10/10/10
f 15/15/15 14/14/14 13/13/13
f 15/15/15 16/16/16 14/14/14
f 19/19/19 18/18/18 17/17/17
f 19/19/19 20/20/20 18/18/18
f 23/23/23 22/22/22 21/21/21
f 23/23/23 24/24/24 22/22/22
f 27/27/27 26/26/26 25/25/25
f 27/27/27 28/28/28 26/26/26
f 31/31/31 30/30/30 29/29/29
f 31/31/31 32/32/32 30/30/30
f 35/35/35 34/34/34 33/33/33
f 35/35/35 36/36/36 34/34/34
f 39/39/39 38/38/38 37/37/37
f 39/39/39 40/40/40 38/38/38
f 43/43/43 42/42/42 41/41/41
f 43/43/43 44/44/44 42/42/42
f 47/47/47 46/46/46 45/45/45
f 47/47/47 48/48/48 46/46/46
g pb_Mesh-236832_1
f 51/51/51 50/50/50 49/49/49
f 51/51/51 52/52/52 50/50/50
