g pb_Mesh-137558
v -0.74999964 -3 0.24999985
v -0.99999964 -3 0.24999976
v -0.7499998 7 0.2500013
v -0.9999999 7 0.25000325
v -0.99999964 -3 0.24999976
v -0.9999995 -3 -2.3841858E-07
v -0.9999999 7 0.25000325
v -0.9999999 7 3.2186608E-06
v -0.9999995 -3 -2.3841858E-07
v -0.7499995 -3 -1.4901161E-07
v -0.9999999 7 3.2186608E-06
v -0.7499999 7 1.2815071E-06
v 1.0000005 -3 4.7683716E-07
v 1.0000004 -3 0.25000048
v 1.0000004 7 2.9802222E-06
v 1.0000004 7 0.250003
v -0.7499998 7 0.2500013
v -0.9999999 7 0.25000325
v -0.7499999 7 1.2815071E-06
v -0.9999999 7 3.2186608E-06
v -0.7499995 -3 -1.4901161E-07
v -0.9999995 -3 -2.3841858E-07
v -0.74999964 -3 0.24999985
v -0.99999964 -3 0.24999976
v 0.7500005 -3 3.874302E-07
v 0.75000036 -3 0.2500004
v 1.0000005 -3 4.7683716E-07
v 1.0000004 -3 0.25000048
v 0.75000036 7 4.917376E-06
v 0.7500005 -3 3.874302E-07
v 1.0000004 7 2.9802222E-06
v 1.0000005 -3 4.7683716E-07
v 0.75000036 -3 0.2500004
v 0.75000036 7 0.25000495
v 1.0000004 -3 0.25000048
v 1.0000004 7 0.250003
v 0.75000036 7 0.25000495
v 0.75000036 7 4.917376E-06
v 1.0000004 7 0.250003
v 1.0000004 7 2.9802222E-06
v -0.74999964 -3 0.24999985
v -0.7499998 7 0.2500013
v -0.7499995 -3 -1.4901161E-07
v -0.7499999 7 1.2815071E-06
v 0.75000036 7 0.25000495
v 0.75000036 -3 0.2500004
v 0.75000036 7 4.917376E-06
v 0.7500005 -3 3.874302E-07
v -0.7499996 -3 0.12499985
v -0.74999887 7 0.1250013
v 0.7500004 -3 0.12500039
v 0.7500013 7 0.12500493
vt -0.7499996 -3
vt -0.9999996 -3
vt -0.7499997 7
vt -0.99999976 7
vt -1.8749998 -3
vt -2.1249998 -3
vt -1.8749963 7
vt -2.1249962 7
vt 0.9999995 -3
vt 0.7499995 -3
vt 0.9999999 7
vt 0.7499999 7
vt 2.125 -3
vt 1.875 -3
vt 2.1249976 7
vt 1.8749975 7
vt 0.7499998 -1.8749987
vt 0.9999999 -1.8749968
vt 0.7499999 -2.1249988
vt 0.9999999 -2.1249967
vt -0.7499995 -2.1250002
vt -0.9999995 -2.1250002
vt -0.74999964 -1.8750001
vt -0.99999964 -1.8750002
vt 0.7500005 -2.1249995
vt 0.75000036 -1.8749996
vt 1.0000005 -2.1249995
vt 1.0000004 -1.8749995
vt -0.75000036 7
vt -0.7500005 -3
vt -1.0000004 7
vt -1.0000005 -3
vt 0.7500005 -3
vt 0.7500005 7
vt 1.0000005 -3
vt 1.0000005 7
vt -0.75000036 -1.874995
vt -0.75000036 -2.124995
vt -1.0000004 -1.874997
vt -1.0000004 -2.1249971
vt 1.8749998 -3
vt 1.8749983 7
vt 2.1249998 -3
vt 2.1249983 7
vt -1.874995 7
vt -1.8749996 -3
vt -2.124995 7
vt -2.1249995 -3
vt -0.7499995 -3
vt -0.7499988 7
vt 0.7500005 -3
vt 0.7500014 7
vn -3.5762787E-07 -1.460314E-07 1
vn 3.695487E-06 -2.473592E-07 1
vn 3.695487E-06 -2.473592E-07 1
vn 7.748602E-06 -3.4868702E-07 1
vn -1 -2.3841691E-08 -4.7683716E-07
vn -1 -2.9802237E-08 -2.3841858E-07
vn -1 -2.9802237E-08 -2.3841858E-07
vn -1 -3.5762785E-08 0
vn 3.5762787E-07 3.4570797E-07 -1
vn -3.6954934E-06 2.443798E-07 -1
vn -3.6954934E-06 2.443798E-07 -1
vn -7.748615E-06 1.4305161E-07 -1
vn 1 1.1920809E-08 4.7683716E-07
vn 1 5.9604046E-09 2.3841858E-07
vn 1 5.9604046E-09 2.3841858E-07
vn 1 0 0
vn -0 1 0
vn -0 1 0
vn -0 1 0
vn -0 1 0
vn -0 -1 0
vn -0 -1 0
vn -0 -1 0
vn -0 -1 0
vn -0 -1 0
vn -0 -1 0
vn -0 -1 0
vn -0 -1 0
vn -7.748615E-06 4.5299447E-07 -1
vn -3.6954934E-06 3.5166647E-07 -1
vn -3.6954934E-06 3.5166647E-07 -1
vn 3.5762787E-07 2.503385E-07 -1
vn -3.5762787E-07 -4.5597554E-07 1
vn 3.695488E-06 -3.5464763E-07 1
vn 3.695488E-06 -3.5464763E-07 1
vn 7.748604E-06 -2.5331974E-07 1
vn -0 1 0
vn -0 1 0
vn -0 1 0
vn -0 1 0
vn 1 1.7881323E-08 4.7683716E-07
vn 1 2.6822073E-08 1.192093E-07
vn 1 2.6822073E-08 1.192093E-07
vn 1 3.5762824E-08 -2.3841855E-07
vn -1 0 0
vn -1 -5.9603567E-09 -2.3841858E-07
vn -1 -5.9603567E-09 -2.3841858E-07
vn -1 -1.1920713E-08 -4.7683716E-07
vn -3.5762787E-07 -1.4454123E-07 1
vn -1.3907749E-06 -2.9951323E-07 1
vn -1.3907749E-06 -2.9951323E-07 1
vn -2.4239218E-06 -4.5448522E-07 1
g pb_Mesh-137558_0
f 3/3/3 2/2/2 1/1/1
f 3/3/3 4/4/4 2/2/2
f 7/7/7 6/6/6 5/5/5
f 7/7/7 8/8/8 6/6/6
f 11/11/11 10/10/10 9/9/9
f 11/11/11 12/12/12 10/10/10
f 15/15/15 14/14/14 13/13/13
f 15/15/15 16/16/16 14/14/14
f 19/19/19 18/18/18 17/17/17
f 19/19/19 20/20/20 18/18/18
f 23/23/23 22/22/22 21/21/21
f 23/23/23 24/24/24 22/22/22
f 27/27/27 26/26/26 25/25/25
f 27/27/27 28/28/28 26/26/26
f 31/31/31 30/30/30 29/29/29
f 31/31/31 32/32/32 30/30/30
f 35/35/35 34/34/34 33/33/33
f 35/35/35 36/36/36 34/34/34
f 39/39/39 38/38/38 37/37/37
f 39/39/39 40/40/40 38/38/38
f 43/43/43 42/42/42 41/41/41
f 43/43/43 44/44/44 42/42/42
f 47/47/47 46/46/46 45/45/45
f 47/47/47 48/48/48 46/46/46
g pb_Mesh-137558_1
f 51/51/51 50/50/50 49/49/49
f 51/51/51 52/52/52 50/50/50
