g pb_Mesh95260
v -0 0 0
v -5 0 0
v -1.9073486E-06 1 0
v -5 1 0
v -5 0 0
v -5 0 -10
v -5 1 0
v -5.000002 1 -10
v -5 0 -10
v -0 0 -10
v -5.000002 1 -10
v -1.9073486E-06 1 -10
v -0 0 -10
v -0 0 0
v -1.9073486E-06 1 -10
v -1.9073486E-06 1 0
v -1.9073486E-06 1 0
v -5 1 0
v -1.9073486E-06 1 -10
v -5.000002 1 -10
v -0 0 -10
v -5 0 -10
v -0 0 0
v -5 0 0
vt 0 0
vt -5 0
vt -1.9073486E-06 1
vt -5 1
vt 0 0
vt -10 0
vt 0 1
vt -10 1
vt 5 0
vt 0 0
vt 5.000002 1
vt 1.9073486E-06 1
vt 10 0
vt 0 0
vt 10 1
vt 0 1
vt 1.9073486E-06 0
vt 5 0
vt 1.9073486E-06 -10
vt 5.000002 -10
vt 0 -10
vt -5 -10
vt 0 0
vt -5 0
vn -0 0 1
vn -0 0 1
vn -0 0 1
vn -0 0 1
vn -1 0 0
vn -1 -9.536743E-07 9.536743E-08
vn -1 -9.536743E-07 9.536743E-08
vn -1 -1.9073486E-06 1.9073487E-07
vn -0 0 -1
vn -0 0 -1
vn -0 0 -1
vn -0 0 -1
vn 1 1.9073486E-06 0
vn 1 1.9073486E-06 0
vn 1 1.9073486E-06 0
vn 1 1.9073486E-06 0
vn -0 1 0
vn -0 1 0
vn -0 1 0
vn -0 1 0
vn -0 -1 0
vn -0 -1 0
vn -0 -1 0
vn -0 -1 0
g pb_Mesh95260_0
f 3/3/3 2/2/2 1/1/1
f 3/3/3 4/4/4 2/2/2
f 7/7/7 6/6/6 5/5/5
f 7/7/7 8/8/8 6/6/6
f 11/11/11 10/10/10 9/9/9
f 11/11/11 12/12/12 10/10/10
f 15/15/15 14/14/14 13/13/13
f 15/15/15 16/16/16 14/14/14
f 19/19/19 18/18/18 17/17/17
f 19/19/19 20/20/20 18/18/18
f 23/23/23 22/22/22 21/21/21
f 23/23/23 24/24/24 22/22/22
