g pb_Mesh65156
v -4 -2 14
v -8 -2 14
v -8 2 14
v -6 2 14
v -8 2 -10
v -4 -2 -10
v -6 2 -10
v -8 -2 -10
v 6 -2 14
v 2 -2 14
v 4 2 14
v 6 2 14
v 4 2 -10
v 6 -2 -10
v 6 2 -10
v 2 -2 -10
v -8 -2 -6
v -8 -2 -10
v -8 2 -10
v -8 2 -8
v 6 2 -10
v 6 -2 -6
v 6 2 -8
v 6 -2 -10
v -6 -22 -8
v -8 -22 -10
v -8 -22 -8
v -6 -22 -10
v 2 -2 -6
v -4 -2 -10
v -4 -2 -6
v 2 -2 -10
v 6 -22 -8
v 4 -22 -10
v 4 -22 -8
v 6 -22 -10
v -8 -2 14
v -8 -2 10
v -8 2 12
v -8 2 14
v 6 2 12
v 6 -2 14
v 6 2 14
v 6 -2 10
v -4 -2 10
v -8 -2 -6
v -8 -2 10
v -6 -22 14
v -8 -22 12
v -8 -22 14
v -6 -22 12
v 2 -2 10
v 2 -2 14
v -4 -2 14
v 6 -2 10
v 6 -2 -6
v 6 -22 14
v 4 -22 12
v 4 -22 14
v 6 -22 12
v -8 -22 12
v -8 -22 14
v -8 -22 14
v -6 -22 14
v -4 -2 14
v -4 -2 10
v -6 -22 14
v -6 -22 12
v -4 -2 10
v -8 -2 10
v -6 -22 12
v -8 -22 12
v 2 -2 10
v 2 -2 14
v 4 -22 12
v 4 -22 14
v 4 -22 14
v 6 -22 14
v 6 -22 14
v 6 -22 12
v 6 -2 10
v 2 -2 10
v 6 -22 12
v 4 -22 12
v 4 -6 -8
v 4 -6 -10
v 2 -2 -10
v 2 -2 -6
v 4 -22 -8
v 4 -22 -10
v 4 -6 -10
v 4 -6 -8
v 6 -6 -8
v 4 -6 -8
v 2 -2 -6
v 6 -2 -6
v 6 -22 -8
v 4 -22 -8
v 4 -6 -8
v 6 -6 -8
v 6 -6 -8
v 6 -6 -10
v 6 -22 -8
v 6 -22 -10
v 6 -6 -10
v 4 -6 -10
v 6 -22 -10
v 4 -22 -10
v -8 -6 -8
v -8 -6 -10
v -8 -22 -8
v -8 -22 -10
v -6 -6 -8
v -8 -6 -8
v -8 -2 -6
v -4 -2 -6
v -6 -22 -8
v -8 -22 -8
v -8 -6 -8
v -6 -6 -8
v -4 -2 -10
v -6 -6 -8
v -4 -2 -6
v -6 -6 -10
v -6 -6 -10
v -6 -22 -8
v -6 -6 -8
v -6 -22 -10
v -6 -6 -10
v -8 -6 -10
v -6 -22 -10
v -8 -22 -10
v -8 2 -10
v -6 2 -10
v -6 2 -8
v -8 2 -8
v 4 2 -10
v 4 2 -8
v 6 2 -10
v 6 2 -8
v -6 2 12
v -8 2 12
v -6 2 14
v -8 2 14
v 4 2 12
v 4 2 14
v 6 2 12
v 6 2 14
vt -4 -2
vt -8 -2
vt -8 2
vt -6 2
vt 8 2
vt 4 -2
vt 6 2
vt 8 -2
vt 6 -2
vt 2 -2
vt 4 2
vt 6 2
vt -4 2
vt -6 -2
vt -6 2
vt -2 -2
vt -6 -2
vt -10 -2
vt -10 2
vt -8 2
vt 10 2
vt 6 -2
vt 8 2
vt 10 -2
vt -6 -8
vt -8 -10
vt -8 -8
vt -6 -10
vt 2 -6
vt -4 -10
vt -4 -6
vt 2 -10
vt 6 -8
vt 4 -10
vt 4 -8
vt 6 -10
vt 14 -2
vt 10 -2
vt 12 2
vt 14 2
vt -12 2
vt -14 -2
vt -14 2
vt -10 -2
vt -4 10
vt -8 -6
vt -8 10
vt -6 14
vt -8 12
vt -8 14
vt -6 12
vt 2 10
vt 2 14
vt -4 14
vt 6 10
vt 6 -6
vt 6 14
vt 4 12
vt 4 14
vt 6 12
vt 12 -22
vt 14 -22
vt -8 -22
vt -6 -22
vt -14 -2.3880892
vt -10 -2.3880892
vt -14 -22.48784
vt -12 -22.48784
vt 4 -2.9851117
vt 8 -2.9851117
vt 6 -23.084864
vt 8 -23.084864
vt 10 -2.189082
vt 14 -2.189082
vt 12 -22.288834
vt 14 -22.288834
vt 4 -22
vt 6 -22
vt -14 -22
vt -12 -22
vt -6 -2.9851117
vt -2 -2.9851117
vt -6 -23.084864
vt -4 -23.084864
vt -8 -6.758506
vt -10 -6.758506
vt -10 -2.406004
vt -6 -2.406004
vt -8 -22.33049
vt -10 -22.33049
vt -10 -6.758506
vt -8 -6.758506
vt 6 -7.6775174
vt 4 -7.6775174
vt 2 -3.3250155
vt 6 -3.3250155
vt 6 -23.249502
vt 4 -23.249502
vt 4 -7.6775174
vt 6 -7.6775174
vt 8 -6
vt 10 -6
vt 8 -22
vt 10 -22
vt -6 -6
vt -4 -6
vt -6 -22
vt -4 -22
vt -8 -6
vt -10 -6
vt -8 -22
vt -10 -22
vt -6 -7.6775174
vt -8 -7.6775174
vt -8 -3.3250155
vt -4 -3.3250155
vt -6 -23.249502
vt -8 -23.249502
vt -8 -7.6775174
vt -6 -7.6775174
vt 10 -2.8655097
vt 8 -7.218012
vt 6 -2.8655097
vt 10 -7.218012
vt 10 -7.218012
vt 8 -22.789995
vt 8 -7.218012
vt 10 -22.789995
vt 6 -6
vt 8 -6
vt 6 -22
vt 8 -22
vt 8 -10
vt 6 -10
vt 6 -8
vt 8 -8
vt -4 -10
vt -4 -8
vt -6 -10
vt -6 -8
vt 6 12
vt 8 12
vt 6 14
vt 8 14
vt -4 12
vt -4 14
vt -6 12
vt -6 14
vn -0 0 1
vn -0 0 1
vn -0 0 1
vn -0 0 1
vn -0 0 -1
vn -0 0 -1
vn -0 0 -1
vn -0 0 -1
vn -0 0 1
vn -0 0 1
vn -0 0 1
vn -0 0 1
vn -0 0 -1
vn -0 0 -1
vn -0 0 -1
vn -0 0 -1
vn -1 0 0
vn -1 0 0
vn -1 0 0
vn -1 0 0
vn 1 0 0
vn 1 0 0
vn 1 0 0
vn 1 0 0
vn -0 -1 0
vn -0 -1 0
vn -0 -1 0
vn -0 -1 0
vn -0 -1 0
vn -0 -1 0
vn -0 -1 0
vn -0 -1 0
vn -0 -1 0
vn -0 -1 0
vn -0 -1 0
vn -0 -1 0
vn -1 0 0
vn -1 0 0
vn -1 0 0
vn -1 0 0
vn 1 0 0
vn 1 0 0
vn 1 0 0
vn 1 0 0
vn -0 -1 0
vn -0 -1 0
vn -0 -1 0
vn -0 -1 0
vn -0 -1 0
vn -0 -1 0
vn -0 -1 0
vn -0 -1 0
vn -0 -1 0
vn -0 -1 0
vn -0 -1 0
vn -0 -1 0
vn -0 -1 0
vn -0 -1 0
vn -0 -1 0
vn -0 -1 0
vn -1 0 0
vn -1 0 0
vn -0 0 1
vn -0 0 1
vn 0.9950372 -0.099503726 0
vn 0.9950372 -0.099503726 0
vn 0.9950372 -0.099503726 0
vn 0.9950372 -0.099503726 0
vn -0 -0.099503726 -0.9950372
vn -0 -0.099503726 -0.9950372
vn -0 -0.099503726 -0.9950372
vn -0 -0.099503726 -0.9950372
vn -0.9950372 -0.099503726 0
vn -0.9950372 -0.099503726 0
vn -0.9950372 -0.099503726 0
vn -0.9950372 -0.099503726 0
vn -0 0 1
vn -0 0 1
vn 1 0 0
vn 1 0 0
vn -0 -0.099503726 -0.9950372
vn -0 -0.099503726 -0.9950372
vn -0 -0.099503726 -0.9950372
vn -0 -0.099503726 -0.9950372
vn -0.8944272 -0.4472136 0
vn -0.8944272 -0.4472136 0
vn -0.8944272 -0.4472136 0
vn -0.8944272 -0.4472136 0
vn -1 0 0
vn -1 0 0
vn -1 0 0
vn -1 0 0
vn -0 -0.4472136 0.8944272
vn -0 -0.4472136 0.8944272
vn -0 -0.4472136 0.8944272
vn -0 -0.4472136 0.8944272
vn -0 0 1
vn -0 0 1
vn -0 0 1
vn -0 0 1
vn 1 0 0
vn 1 0 0
vn 1 0 0
vn 1 0 0
vn -0 0 -1
vn -0 0 -1
vn -0 0 -1
vn -0 0 -1
vn -1 0 0
vn -1 0 0
vn -1 0 0
vn -1 0 0
vn -0 -0.4472136 0.8944272
vn -0 -0.4472136 0.8944272
vn -0 -0.4472136 0.8944272
vn -0 -0.4472136 0.8944272
vn -0 0 1
vn -0 0 1
vn -0 0 1
vn -0 0 1
vn 0.8944272 -0.4472136 0
vn 0.8944272 -0.4472136 0
vn 0.8944272 -0.4472136 0
vn 0.8944272 -0.4472136 0
vn 1 0 0
vn 1 0 0
vn 1 0 0
vn 1 0 0
vn -0 0 -1
vn -0 0 -1
vn -0 0 -1
vn -0 0 -1
vn -0 1 0
vn -0 1 0
vn -0 1 0
vn -0 1 0
vn -0 1 0
vn -0 1 0
vn -0 1 0
vn -0 1 0
vn -0 1 0
vn -0 1 0
vn -0 1 0
vn -0 1 0
vn -0 1 0
vn -0 1 0
vn -0 1 0
vn -0 1 0
g pb_Mesh65156_0
f 3/3/3 2/2/2 1/1/1
f 3/3/3 1/1/1 4/4/4
f 7/7/7 6/6/6 5/5/5
f 6/6/6 8/8/8 5/5/5
f 11/11/11 10/10/10 9/9/9
f 11/11/11 9/9/9 12/12/12
f 4/4/4 1/1/1 10/10/10
f 4/4/4 10/10/10 11/11/11
f 15/15/15 14/14/14 13/13/13
f 14/14/14 16/16/16 13/13/13
f 13/13/13 16/16/16 7/7/7
f 16/16/16 6/6/6 7/7/7
f 19/19/19 18/18/18 17/17/17
f 19/19/19 17/17/17 20/20/20
f 23/23/23 22/22/22 21/21/21
f 22/22/22 24/24/24 21/21/21
f 27/27/27 26/26/26 25/25/25
f 26/26/26 28/28/28 25/25/25
f 31/31/31 30/30/30 29/29/29
f 30/30/30 32/32/32 29/29/29
f 35/35/35 34/34/34 33/33/33
f 34/34/34 36/36/36 33/33/33
f 39/39/39 38/38/38 37/37/37
f 39/39/39 37/37/37 40/40/40
f 20/20/20 17/17/17 38/38/38
f 20/20/20 38/38/38 39/39/39
f 43/43/43 42/42/42 41/41/41
f 42/42/42 44/44/44 41/41/41
f 41/41/41 44/44/44 23/23/23
f 44/44/44 22/22/22 23/23/23
f 47/47/47 46/46/46 45/45/45
f 46/46/46 31/31/31 45/45/45
f 50/50/50 49/49/49 48/48/48
f 49/49/49 51/51/51 48/48/48
f 45/45/45 31/31/31 52/52/52
f 31/31/31 29/29/29 52/52/52
f 54/54/54 45/45/45 53/53/53
f 45/45/45 52/52/52 53/53/53
f 52/52/52 29/29/29 55/55/55
f 29/29/29 56/56/56 55/55/55
f 59/59/59 58/58/58 57/57/57
f 58/58/58 60/60/60 57/57/57
f 61/61/61 37/37/37 38/38/38
f 61/61/61 62/62/62 37/37/37
f 63/63/63 1/1/1 2/2/2
f 63/63/63 64/64/64 1/1/1
f 67/67/67 66/66/66 65/65/65
f 67/67/67 68/68/68 66/66/66
f 71/71/71 70/70/70 69/69/69
f 71/71/71 72/72/72 70/70/70
f 75/75/75 74/74/74 73/73/73
f 75/75/75 76/76/76 74/74/74
f 77/77/77 9/9/9 10/10/10
f 77/77/77 78/78/78 9/9/9
f 79/79/79 44/44/44 42/42/42
f 79/79/79 80/80/80 44/44/44
f 83/83/83 82/82/82 81/81/81
f 83/83/83 84/84/84 82/82/82
f 87/87/87 86/86/86 85/85/85
f 87/87/87 85/85/85 88/88/88
f 91/91/91 90/90/90 89/89/89
f 91/91/91 89/89/89 92/92/92
f 95/95/95 94/94/94 93/93/93
f 95/95/95 93/93/93 96/96/96
f 99/99/99 98/98/98 97/97/97
f 99/99/99 97/97/97 100/100/100
f 22/22/22 101/101/101 24/24/24
f 101/101/101 102/102/102 24/24/24
f 101/101/101 103/103/103 102/102/102
f 103/103/103 104/104/104 102/102/102
f 14/14/14 105/105/105 16/16/16
f 105/105/105 106/106/106 16/16/16
f 105/105/105 107/107/107 106/106/106
f 107/107/107 108/108/108 106/106/106
f 18/18/18 110/110/110 109/109/109
f 18/18/18 109/109/109 17/17/17
f 110/110/110 112/112/112 111/111/111
f 110/110/110 111/111/111 109/109/109
f 115/115/115 114/114/114 113/113/113
f 115/115/115 113/113/113 116/116/116
f 119/119/119 118/118/118 117/117/117
f 119/119/119 117/117/117 120/120/120
f 123/123/123 122/122/122 121/121/121
f 122/122/122 124/124/124 121/121/121
f 127/127/127 126/126/126 125/125/125
f 126/126/126 128/128/128 125/125/125
f 6/6/6 129/129/129 8/8/8
f 129/129/129 130/130/130 8/8/8
f 129/129/129 131/131/131 130/130/130
f 131/131/131 132/132/132 130/130/130
g pb_Mesh65156_1
f 135/135/135 134/134/134 133/133/133
f 135/135/135 133/133/133 136/136/136
f 138/138/138 137/137/137 134/134/134
f 138/138/138 134/134/134 135/135/135
f 140/140/140 139/139/139 137/137/137
f 140/140/140 137/137/137 138/138/138
f 141/141/141 135/135/135 136/136/136
f 141/141/141 136/136/136 142/142/142
f 143/143/143 141/141/141 142/142/142
f 143/143/143 142/142/142 144/144/144
f 145/145/145 138/138/138 135/135/135
f 145/145/145 135/135/135 141/141/141
f 146/146/146 145/145/145 141/141/141
f 146/146/146 141/141/141 143/143/143
f 147/147/147 140/140/140 138/138/138
f 147/147/147 138/138/138 145/145/145
f 148/148/148 147/147/147 145/145/145
f 148/148/148 145/145/145 146/146/146
