g pb_Mesh95828
v -2 0 10
v -12 0 -2
v -12 0 10
v -2 0 -2
v -20 0 -2
v -20 0 10
v -12 0 22
v -20 0 22
v -20 16 10
v -12 16 10
v -20 24 10
v -12 24 10
v -20 16 22
v -20 16 10
v -20 24 22
v -20 24 10
v -12 16 10
v -12 16 22
v -12 24 10
v -12 24 22
v -12 16 22
v -20 16 22
v -12 24 22
v -20 24 22
v -12 0 26
v -20 0 26
v -20 16 22
v -12 16 22
v -20 12 26
v -12 12 26
v -12 0 34
v -20 0 33
v -20 0 34
v -12 0 33
v -2 0 34
v -3 0 33
v -3 0 34
v -2 0 33
v -9 0 34
v -9 0 33
v -12 0 27
v -20 0 27
v -2 0 27
v -3 0 26
v -3 0 27
v -2 0 26
v -9 0 27
v -9 0 26
v -20 0 10
v -20 0 -2
v -20 8 -2
v -20 8 10
v -20 16 -2
v -2 8 -2
v -2 0 10
v -2 8 10
v -2 0 -2
v -2 16 -2
v -2 16 10
v -2 0 10
v -12 0 10
v -12 8 10
v -2 8 10
v -12 16 10
v -2 16 10
v -12 0 34
v -20 0 34
v -20 6 34
v -12 6 34
v -20 12 34
v -12 12 34
v -20 8 -2
v -12 0 -2
v -12 8 -2
v -20 0 -2
v -20 16 -2
v -12 16 -2
v -2 0 -2
v -2 8 -2
v -2 16 -2
v -20 0 22
v -20 8 22
v -12 8 22
v -12 8 10
v -12 0 22
v -12 0 10
v -20 6 26
v -20 0 26
v -20 12 26
v -12 12 26
v -12 6 26
v -12 0 26
v -3 5 26
v -2 0 26
v -2 6 26
v -3 0 26
v -3 10 26
v -2 10 26
v -2 0 34
v -3 0 34
v -3 5 34
v -2 6 34
v -3 10 34
v -2 10 34
v -12 6 26
v -9 0 26
v -9 5 26
v -12 0 26
v -12 12 26
v -9 10 26
v -9 0 34
v -9 5 34
v -9 10 34
v -20 0 34
v -20 0 33
v -20 6 33
v -20 6 34
v -20 12 33
v -20 12 34
v -2 5 33
v -2 0 34
v -2 6 34
v -2 0 33
v -2 10 33
v -2 10 34
v -20 0 27
v -20 6 27
v -20 12 27
v -2 6 26
v -2 0 27
v -2 5 27
v -2 0 26
v -2 10 26
v -2 10 27
v -4 0 33
v -4 0 34
v -4 0 26
v -4 0 27
v -8 0 34
v -8 0 33
v -8 0 27
v -8 0 26
v -8 10 26
v -4 6 26
v -4 10 26
v -8 6 26
v -4 6 34
v -8 6 34
v -8 10 34
v -4 10 34
v -20 0 32
v -12 0 32
v -2 0 32
v -9 0 32
v -20 0 32
v -20 6 32
v -20 12 32
v -2 10 32
v -2 6 32
v -4 0 32
v -8 0 32
v -12 0 28
v -20 0 28
v -2 0 28
v -9 0 28
v -20 0 28
v -20 6 28
v -20 12 28
v -2 10 28
v -2 6 28
v -4 0 28
v -8 0 28
v -8 6 27
v -9 5 26
v -9 5 27
v -8 6 26
v -3 0 27
v -3 0 26
v -3 5 26
v -3 5 27
v -4 6 27
v -8 6 26
v -8 6 27
v -4 6 26
v -9 5 26
v -9 0 27
v -9 5 27
v -9 0 26
v -8 6 34
v -9 5 33
v -9 5 34
v -8 6 33
v -3 0 34
v -3 0 33
v -3 5 33
v -3 5 34
v -4 6 34
v -8 6 33
v -8 6 34
v -4 6 33
v -9 5 33
v -9 0 34
v -9 5 34
v -9 0 33
v -9 5 28
v -8 6 28
v -4 6 28
v -8 6 28
v -9 0 28
v -9 5 28
v -9 5 32
v -8 6 32
v -4 6 32
v -8 6 32
v -9 5 32
v -9 0 32
v -3.5 10 26
v -3.5 5.5 26
v -3.5 5.5 34
v -3.5 10 34
v -3.5 5.5 27
v -4 6 26
v -4 6 27
v -3.5 5.5 26
v -3 5 27
v -3 5 26
v -3.5 5.5 34
v -4 6 33
v -4 6 34
v -3.5 5.5 33
v -3 5 34
v -3 5 33
v -3 6 28
v -4 6 27
v -4 6 28
v -3.5 5.5 27
v -3 5 27
v -3 6 28
v -3.5 5.5 33
v -4 6 32
v -3 6 32
v -3 5 33
v -3 6 32
v -3.5 5.5 33
v -3 6 32
v -4 6 32
v -3 6 28
v -3 6 28
v -3 6 32
v -2 6 28
v -2 6 32
v -3 6 32
v -3 5 33
v -2 6 32
v -2 5 33
v -3 5 27
v -3 6 28
v -2 5 27
v -2 6 28
v -3 0 27
v -3 5 27
v -2 0 27
v -2 5 27
v -3 5 33
v -3 0 33
v -2 5 33
v -2 0 33
v -12 16 -2
v -2 16 -2
v -2 16 10
v -12 16 10
v -20 16 -2
v -20 16 10
v -20 24 10
v -12 24 10
v -20 24 22
v -12 24 22
v -20 12 33
v -12 12 33
v -12 12 34
v -20 12 34
v -3 10 33
v -2 10 33
v -2 10 34
v -3 10 34
v -12 12 33
v -9 10 33
v -9 10 34
v -12 12 34
v -20 12 26
v -12 12 26
v -12 12 27
v -20 12 27
v -3 10 26
v -2 10 26
v -2 10 27
v -3 10 27
v -12 12 26
v -9 10 26
v -9 10 27
v -12 12 27
v -9 10 33
v -8 10 33
v -8 10 34
v -9 10 34
v -4 10 33
v -4 10 34
v -9 10 26
v -8 10 26
v -8 10 27
v -9 10 27
v -4 10 26
v -4 10 27
v -20 12 32
v -12 12 32
v -3 10 32
v -2 10 32
v -12 12 32
v -9 10 32
v -9 10 32
v -8 10 32
v -4 10 32
v -12 12 28
v -20 12 28
v -2 10 28
v -3 10 28
v -9 10 28
v -12 12 28
v -8 10 28
v -9 10 28
v -4 10 28
v -3.5 10 33
v -3.5 10 34
v -3.5 10 26
v -3.5 10 27
v -3.5 10 32
v -3.5 10 28
vt -2 10
vt -12 -2
vt -12 10
vt -2 -2
vt -20 -2
vt -20 10
vt -12 22
vt -20 22
vt 20 16
vt 12 16
vt 20 24
vt 12 24
vt 22 16
vt 10 16
vt 22 24
vt 10 24
vt -10 16
vt -22 16
vt -10 24
vt -22 24
vt -12 16
vt -20 16
vt -12 24
vt -20 24
vt -12 26
vt -20 26
vt -20 -4.242641
vt -12 -4.242641
vt -20 -9.899496
vt -12 -9.899496
vt -12 34
vt -20 33
vt -20 34
vt -12 33
vt -2 34
vt -3 33
vt -3 34
vt -2 33
vt -9 34
vt -9 33
vt -12 27
vt -20 27
vt -2 27
vt -3 26
vt -3 27
vt -2 26
vt -9 27
vt -9 26
vt 10 0
vt -2 0
vt -2 8
vt 10 8
vt -2 16
vt 2 8
vt -10 0
vt -10 8
vt 2 0
vt 2 16
vt -10 16
vt -2 0
vt -12 0
vt -12 8
vt -2 8
vt -12 16
vt -2 16
vt -12 0
vt -20 0
vt -20 6
vt -12 6
vt -20 12
vt -12 12
vt 20 8
vt 12 0
vt 12 8
vt 20 0
vt 20 16
vt 12 16
vt 2 0
vt 2 8
vt 2 16
vt 22 0
vt 22 8
vt -22 8
vt -10 8
vt -22 0
vt -10 0
vt 26 6
vt 26 0
vt 26 12
vt -26 12
vt -26 6
vt -26 0
vt 3 5
vt 2 0
vt 2 6
vt 3 0
vt 3 10
vt 2 10
vt -2 0
vt -3 0
vt -3 5
vt -2 6
vt -3 10
vt -2 10
vt 12 6
vt 9 0
vt 9 5
vt 12 0
vt 12 12
vt 9 10
vt -9 0
vt -9 5
vt -9 10
vt 34 0
vt 33 0
vt 33 6
vt 34 6
vt 33 12
vt 34 12
vt -33 5
vt -34 0
vt -34 6
vt -33 0
vt -33 10
vt -34 10
vt 27 0
vt 27 6
vt 27 12
vt -26 6
vt -27 0
vt -27 5
vt -26 0
vt -26 10
vt -27 10
vt -4 33
vt -4 34
vt -4 26
vt -4 27
vt -8 34
vt -8 33
vt -8 27
vt -8 26
vt 8 10
vt 4 6
vt 4 10
vt 8 6
vt -4 6
vt -8 6
vt -8 10
vt -4 10
vt -20 32
vt -12 32
vt -2 32
vt -9 32
vt 32 0
vt 32 6
vt 32 12
vt -32 10
vt -32 6
vt -4 32
vt -8 32
vt -12 28
vt -20 28
vt -2 28
vt -9 28
vt 28 0
vt 28 6
vt 28 12
vt -28 10
vt -28 6
vt -4 28
vt -8 28
vt -1.4142135 27
vt -2.828427 26
vt -2.828427 27
vt -1.4142135 26
vt 27 0
vt 26 0
vt 26 5
vt 27 5
vt -4 27
vt -8 26
vt -8 27
vt -4 26
vt -26 5
vt -27 0
vt -27 5
vt -26 0
vt -1.4142135 34
vt -2.828427 33
vt -2.828427 34
vt -1.4142135 33
vt 34 0
vt 33 0
vt 33 5
vt 34 5
vt -4 34
vt -8 33
vt -8 34
vt -4 33
vt -33 5
vt -34 0
vt -34 5
vt -33 0
vt -2.828427 28
vt -1.4142135 28
vt -4 28
vt -8 28
vt -28 0
vt -28 5
vt -2.828427 32
vt -1.4142135 32
vt -4 32
vt -8 32
vt -32 5
vt -32 0
vt 3.5 10
vt 3.5 5.5
vt -3.5 5.5
vt -3.5 10
vt -6.0231237 27
vt -6.719558 26
vt -6.719558 27
vt -6.0231237 26
vt -5.3266897 27
vt -5.3266897 26
vt -6.0231237 34
vt -6.719558 33
vt -6.719558 34
vt -6.0231237 33
vt -5.3266897 34
vt -5.3266897 33
vt -5.900733 28
vt -6.719558 27
vt -6.719558 28
vt -6.0231237 27
vt -5.3266897 27
vt -5.900733 28
vt -6.0231237 33
vt -6.719558 32
vt -5.900733 32
vt -5.3266897 33
vt -5.900733 32
vt -6.0231237 33
vt -5.900733 32
vt -6.719558 32
vt -5.900733 28
vt -3 28
vt -3 32
vt -2 28
vt -2 32
vt 3 -18.384777
vt 3 -19.798992
vt 2 -18.384777
vt 2 -19.798992
vt -3 22.627419
vt -3 24.041632
vt -2 22.627419
vt -2 24.041632
vt -3 0
vt -3 5
vt -2 0
vt -2 5
vt 3 5
vt 3 0
vt 2 5
vt 2 0
vt 12 -2
vt 2 -2
vt 2 10
vt 12 10
vt 20 -2
vt 20 10
vt 20 10
vt 12 10
vt 20 22
vt 12 22
vt 20 33
vt 12 33
vt 12 34
vt 20 34
vt 3.9333725 33
vt 2.9378653 33
vt 2.9378653 34
vt 3.9333725 34
vt 13.082309 33
vt 9.906416 33
vt 9.906416 34
vt 13.082309 34
vt 20 26
vt 12 26
vt 12 27
vt 20 27
vt 3.9333725 26
vt 2.9378653 26
vt 2.9378653 27
vt 3.9333725 27
vt 13.082309 26
vt 9.906416 26
vt 9.906416 27
vt 13.082309 27
vt 9.906416 33
vt 8.910909 33
vt 8.910909 34
vt 9.906416 34
vt 4.9288797 33
vt 4.9288797 34
vt 9.906416 26
vt 8.910909 26
vt 8.910909 27
vt 9.906416 27
vt 4.9288797 26
vt 4.9288797 27
vt 20 32
vt 12 32
vt 3.9333725 32
vt 2.9378653 32
vt 13.082309 32
vt 9.906416 32
vt 9.906416 32
vt 8.910909 32
vt 4.9288797 32
vt 12 28
vt 20 28
vt 2.9378653 28
vt 3.9333725 28
vt 9.906416 28
vt 13.082309 28
vt 8.910909 28
vt 9.906416 28
vt 4.9288797 28
vt 4.431126 33
vt 4.431126 34
vt 4.431126 26
vt 4.431126 27
vt 4.431126 32
vt 4.431126 28
vn -0 -1 0
vn -0 -1 0
vn -0 -1 0
vn -0 -1 0
vn -0 -1 0
vn -0 -1 0
vn -0 -1 0
vn -0 -1 0
vn -0 0 -1
vn -0 0 -1
vn -0 0 -1
vn -0 0 -1
vn -1 0 0
vn -1 0 0
vn -1 0 0
vn -1 0 0
vn 1 0 0
vn 1 0 0
vn 1 0 0
vn 1 0 0
vn -0 0 1
vn -0 0 1
vn -0 0 1
vn -0 0 1
vn -0 -1 0
vn -0 -1 0
vn -0 0.70710677 0.70710677
vn -0 0.70710677 0.70710677
vn -0 0.70710677 0.70710677
vn -0 0.70710677 0.70710677
vn -0 -1 0
vn -0 -1 0
vn -0 -1 0
vn -0 -1 0
vn -0 -1 0
vn -0 -1 0
vn -0 -1 0
vn -0 -1 0
vn -0 -1 0
vn -0 -1 0
vn -0 -1 0
vn -0 -1 0
vn -0 -1 0
vn -0 -1 0
vn -0 -1 0
vn -0 -1 0
vn -0 -1 0
vn -0 -1 0
vn -1 0 0
vn -1 0 0
vn -1 0 0
vn -1 0 0
vn -1 0 0
vn 1 0 0
vn 1 0 0
vn 1 0 0
vn 1 0 0
vn 1 0 0
vn 1 0 0
vn -0 0 1
vn -0 0 1
vn -0 0 1
vn -0 0 1
vn -0 0 1
vn -0 0 1
vn -0 0 1
vn -0 0 1
vn -0 0 1
vn -0 0 1
vn -0 0 1
vn -0 0 1
vn -0 0 -1
vn -0 0 -1
vn -0 0 -1
vn -0 0 -1
vn -0 0 -1
vn -0 0 -1
vn -0 0 -1
vn -0 0 -1
vn -0 0 -1
vn -1 0 0
vn -1 0 0
vn 1 0 0
vn 1 0 0
vn 1 0 0
vn 1 0 0
vn -1 0 0
vn -1 0 0
vn -1 0 0
vn 1 0 0
vn 1 0 0
vn 1 0 0
vn -0 0 -1
vn -0 0 -1
vn -0 0 -1
vn -0 0 -1
vn -0 0 -1
vn -0 0 -1
vn -0 0 1
vn -0 0 1
vn -0 0 1
vn -0 0 1
vn -0 0 1
vn -0 0 1
vn -0 0 -1
vn -0 0 -1
vn -0 0 -1
vn -0 0 -1
vn -0 0 -1
vn -0 0 -1
vn -0 0 1
vn -0 0 1
vn -0 0 1
vn -1 0 0
vn -1 0 0
vn -1 0 0
vn -1 0 0
vn -1 0 0
vn -1 0 0
vn 1 0 0
vn 1 0 0
vn 1 0 0
vn 1 0 0
vn 1 0 0
vn 1 0 0
vn -1 0 0
vn -1 0 0
vn -1 0 0
vn 1 0 0
vn 1 0 0
vn 1 0 0
vn 1 0 0
vn 1 0 0
vn 1 0 0
vn -0 -1 0
vn -0 -1 0
vn -0 -1 0
vn -0 -1 0
vn -0 -1 0
vn -0 -1 0
vn -0 -1 0
vn -0 -1 0
vn -0 0 -1
vn -0 0 -1
vn -0 0 -1
vn -0 0 -1
vn -0 0 1
vn -0 0 1
vn -0 0 1
vn -0 0 1
vn -0 -1 0
vn -0 -1 0
vn -0 -1 0
vn -0 -1 0
vn -1 0 0
vn -1 0 0
vn -1 0 0
vn 1 0 0
vn 1 0 0
vn -0 -1 0
vn -0 -1 0
vn -0 -1 0
vn -0 -1 0
vn -0 -1 0
vn -0 -1 0
vn -1 0 0
vn -1 0 0
vn -1 0 0
vn 1 0 0
vn 1 0 0
vn -0 -1 0
vn -0 -1 0
vn 0.70710677 -0.70710677 0
vn 0.70710677 -0.70710677 0
vn 0.70710677 -0.70710677 0
vn 0.70710677 -0.70710677 0
vn -1 0 0
vn -1 0 0
vn -1 0 0
vn -1 0 0
vn -0 -1 0
vn -0 -1 0
vn -0 -1 0
vn -0 -1 0
vn 1 0 0
vn 1 0 0
vn 1 0 0
vn 1 0 0
vn 0.70710677 -0.70710677 0
vn 0.70710677 -0.70710677 0
vn 0.70710677 -0.70710677 0
vn 0.70710677 -0.70710677 0
vn -1 0 0
vn -1 0 0
vn -1 0 0
vn -1 0 0
vn -0 -1 0
vn -0 -1 0
vn -0 -1 0
vn -0 -1 0
vn 1 0 0
vn 1 0 0
vn 1 0 0
vn 1 0 0
vn 0.70710677 -0.70710677 0
vn 0.70710677 -0.70710677 0
vn -0 -1 0
vn -0 -1 0
vn 1 0 0
vn 1 0 0
vn 0.70710677 -0.70710677 0
vn 0.70710677 -0.70710677 0
vn -0 -1 0
vn -0 -1 0
vn 1 0 0
vn 1 0 0
vn -0 0 -1
vn -0 0 -1
vn -0 0 1
vn -0 0 1
vn -0.70710677 -0.70710677 0
vn -0.70710677 -0.70710677 0
vn -0.70710677 -0.70710677 0
vn -0.70710677 -0.70710677 0
vn -0.70710677 -0.70710677 0
vn -0.70710677 -0.70710677 0
vn -0.70710677 -0.70710677 0
vn -0.70710677 -0.70710677 0
vn -0.70710677 -0.70710677 0
vn -0.70710677 -0.70710677 0
vn -0.70710677 -0.70710677 0
vn -0.70710677 -0.70710677 0
vn -0.28867513 -0.7886751 0.28867513
vn -0.28867513 -0.7886751 0.28867513
vn -0 -1 0
vn -0.57735026 -0.57735026 0.57735026
vn -0.57735026 -0.57735026 0.57735026
vn -0.57735026 -0.57735026 0.57735026
vn -0.35355338 -0.80076694 -0.2236068
vn -0.35355338 -0.80076694 -0.2236068
vn -0 -0.8944272 -0.4472136
vn -0.57735026 -0.57735026 -0.57735026
vn -0.57735026 -0.57735026 -0.57735026
vn -0.57735026 -0.57735026 -0.57735026
vn -0 -1 0
vn -0 -1 0
vn -0 -1 0
vn -0 -1 0
vn -0 -1 0
vn -0 -1 0
vn -0 -1 0
vn -0 -0.70710677 -0.70710677
vn -0 -0.70710677 -0.70710677
vn -0 -0.70710677 -0.70710677
vn -0 -0.70710677 -0.70710677
vn -0 -0.70710677 0.70710677
vn -0 -0.70710677 0.70710677
vn -0 -0.70710677 0.70710677
vn -0 -0.70710677 0.70710677
vn -0 0 1
vn -0 0 1
vn -0 0 1
vn -0 0 1
vn -0 0 -1
vn -0 0 -1
vn -0 0 -1
vn -0 0 -1
vn -0 1 0
vn -0 1 0
vn -0 1 0
vn -0 1 0
vn -0 1 0
vn -0 1 0
vn -0 1 0
vn -0 1 0
vn -0 1 0
vn -0 1 0
vn -0 1 0
vn -0 1 0
vn -0 1 0
vn -0 1 0
vn -0 1 0
vn -0 1 0
vn -0 1 0
vn -0 1 0
vn 0.5547002 0.8320503 0
vn 0.5547002 0.8320503 0
vn 0.5547002 0.8320503 0
vn 0.5547002 0.8320503 0
vn -0 1 0
vn -0 1 0
vn -0 1 0
vn -0 1 0
vn -0 1 0
vn -0 1 0
vn -0 1 0
vn -0 1 0
vn 0.5547002 0.8320503 0
vn 0.5547002 0.8320503 0
vn 0.5547002 0.8320503 0
vn 0.5547002 0.8320503 0
vn -0 1 0
vn -0 1 0
vn -0 1 0
vn -0 1 0
vn -0 1 0
vn -0 1 0
vn -0 1 0
vn -0 1 0
vn -0 1 0
vn -0 1 0
vn -0 1 0
vn -0 1 0
vn -0 1 0
vn -0 1 0
vn -0 1 0
vn -0 1 0
vn 0.5547002 0.8320503 0
vn 0.5547002 0.8320503 0
vn -0 1 0
vn -0 1 0
vn -0 1 0
vn -0 1 0
vn -0 1 0
vn -0 1 0
vn -0 1 0
vn 0.5547002 0.8320503 0
vn 0.5547002 0.8320503 0
vn -0 1 0
vn -0 1 0
vn -0 1 0
vn -0 1 0
vn -0 1 0
vn -0 1 0
vn -0 1 0
vn -0 1 0
vn -0 1 0
g pb_Mesh95828_0
f 3/3/3 2/2/2 1/1/1
f 2/2/2 4/4/4 1/1/1
f 6/6/6 5/5/5 3/3/3
f 5/5/5 2/2/2 3/3/3
f 7/7/7 6/6/6 3/3/3
f 7/7/7 8/8/8 6/6/6
f 11/11/11 10/10/10 9/9/9
f 11/11/11 12/12/12 10/10/10
f 15/15/15 14/14/14 13/13/13
f 15/15/15 16/16/16 14/14/14
f 19/19/19 18/18/18 17/17/17
f 19/19/19 20/20/20 18/18/18
f 23/23/23 22/22/22 21/21/21
f 23/23/23 24/24/24 22/22/22
f 25/25/25 8/8/8 7/7/7
f 25/25/25 26/26/26 8/8/8
f 29/29/29 28/28/28 27/27/27
f 29/29/29 30/30/30 28/28/28
f 33/33/33 32/32/32 31/31/31
f 32/32/32 34/34/34 31/31/31
f 37/37/37 36/36/36 35/35/35
f 36/36/36 38/38/38 35/35/35
f 31/31/31 34/34/34 39/39/39
f 34/34/34 40/40/40 39/39/39
f 42/42/42 26/26/26 41/41/41
f 26/26/26 25/25/25 41/41/41
f 45/45/45 44/44/44 43/43/43
f 44/44/44 46/46/46 43/43/43
f 41/41/41 25/25/25 47/47/47
f 25/25/25 48/48/48 47/47/47
f 51/51/51 50/50/50 49/49/49
f 51/51/51 49/49/49 52/52/52
f 53/53/53 51/51/51 52/52/52
f 53/53/53 52/52/52 14/14/14
f 56/56/56 55/55/55 54/54/54
f 55/55/55 57/57/57 54/54/54
f 59/59/59 56/56/56 58/58/58
f 56/56/56 54/54/54 58/58/58
f 62/62/62 61/61/61 60/60/60
f 62/62/62 60/60/60 63/63/63
f 64/64/64 62/62/62 63/63/63
f 64/64/64 63/63/63 65/65/65
f 68/68/68 67/67/67 66/66/66
f 68/68/68 66/66/66 69/69/69
f 70/70/70 68/68/68 69/69/69
f 70/70/70 69/69/69 71/71/71
f 74/74/74 73/73/73 72/72/72
f 73/73/73 75/75/75 72/72/72
f 77/77/77 74/74/74 76/76/76
f 74/74/74 72/72/72 76/76/76
f 79/79/79 78/78/78 74/74/74
f 78/78/78 73/73/73 74/74/74
f 80/80/80 79/79/79 77/77/77
f 79/79/79 74/74/74 77/77/77
f 52/52/52 49/49/49 81/81/81
f 52/52/52 81/81/81 82/82/82
f 14/14/14 52/52/52 82/82/82
f 14/14/14 82/82/82 13/13/13
f 18/18/18 83/83/83 17/17/17
f 83/83/83 84/84/84 17/17/17
f 83/83/83 85/85/85 84/84/84
f 85/85/85 86/86/86 84/84/84
f 81/81/81 88/88/88 87/87/87
f 82/82/82 81/81/81 87/87/87
f 82/82/82 87/87/87 89/89/89
f 13/13/13 82/82/82 89/89/89
f 90/90/90 83/83/83 18/18/18
f 90/90/90 91/91/91 83/83/83
f 91/91/91 85/85/85 83/83/83
f 91/91/91 92/92/92 85/85/85
f 95/95/95 94/94/94 93/93/93
f 94/94/94 96/96/96 93/93/93
f 98/98/98 95/95/95 97/97/97
f 95/95/95 93/93/93 97/97/97
f 101/101/101 100/100/100 99/99/99
f 101/101/101 99/99/99 102/102/102
f 103/103/103 101/101/101 102/102/102
f 103/103/103 102/102/102 104/104/104
f 107/107/107 106/106/106 105/105/105
f 106/106/106 108/108/108 105/105/105
f 110/110/110 107/107/107 109/109/109
f 107/107/107 105/105/105 109/109/109
f 69/69/69 66/66/66 111/111/111
f 69/69/69 111/111/111 112/112/112
f 71/71/71 69/69/69 112/112/112
f 71/71/71 112/112/112 113/113/113
f 116/116/116 115/115/115 114/114/114
f 116/116/116 114/114/114 117/117/117
f 118/118/118 116/116/116 117/117/117
f 118/118/118 117/117/117 119/119/119
f 122/122/122 121/121/121 120/120/120
f 121/121/121 123/123/123 120/120/120
f 125/125/125 122/122/122 124/124/124
f 122/122/122 120/120/120 124/124/124
f 87/87/87 88/88/88 126/126/126
f 87/87/87 126/126/126 127/127/127
f 89/89/89 87/87/87 127/127/127
f 89/89/89 127/127/127 128/128/128
f 131/131/131 130/130/130 129/129/129
f 130/130/130 132/132/132 129/129/129
f 134/134/134 131/131/131 133/133/133
f 131/131/131 129/129/129 133/133/133
f 136/136/136 135/135/135 37/37/37
f 135/135/135 36/36/36 37/37/37
f 138/138/138 137/137/137 45/45/45
f 137/137/137 44/44/44 45/45/45
f 39/39/39 40/40/40 139/139/139
f 40/40/40 140/140/140 139/139/139
f 139/139/139 140/140/140 136/136/136
f 140/140/140 135/135/135 136/136/136
f 47/47/47 48/48/48 141/141/141
f 48/48/48 142/142/142 141/141/141
f 141/141/141 142/142/142 138/138/138
f 142/142/142 137/137/137 138/138/138
f 145/145/145 144/144/144 143/143/143
f 144/144/144 146/146/146 143/143/143
f 143/143/143 146/146/146 110/110/110
f 146/146/146 107/107/107 110/110/110
f 149/149/149 148/148/148 147/147/147
f 149/149/149 147/147/147 150/150/150
f 113/113/113 112/112/112 148/148/148
f 113/113/113 148/148/148 149/149/149
f 32/32/32 151/151/151 34/34/34
f 151/151/151 152/152/152 34/34/34
f 36/36/36 153/153/153 38/38/38
f 34/34/34 152/152/152 40/40/40
f 152/152/152 154/154/154 40/40/40
f 156/156/156 155/155/155 115/115/115
f 156/156/156 115/115/115 116/116/116
f 157/157/157 156/156/156 116/116/116
f 157/157/157 116/116/116 118/118/118
f 124/124/124 120/120/120 158/158/158
f 120/120/120 159/159/159 158/158/158
f 135/135/135 160/160/160 36/36/36
f 40/40/40 154/154/154 140/140/140
f 154/154/154 161/161/161 140/140/140
f 140/140/140 161/161/161 135/135/135
f 161/161/161 160/160/160 135/135/135
f 163/163/163 42/42/42 162/162/162
f 42/42/42 41/41/41 162/162/162
f 151/151/151 163/163/163 152/152/152
f 163/163/163 162/162/162 152/152/152
f 45/45/45 43/43/43 164/164/164
f 162/162/162 41/41/41 165/165/165
f 41/41/41 47/47/47 165/165/165
f 152/152/152 162/162/162 154/154/154
f 162/162/162 165/165/165 154/154/154
f 167/167/167 166/166/166 155/155/155
f 167/167/167 155/155/155 156/156/156
f 127/127/127 126/126/126 166/166/166
f 127/127/127 166/166/166 167/167/167
f 168/168/168 167/167/167 156/156/156
f 168/168/168 156/156/156 157/157/157
f 128/128/128 127/127/127 167/167/167
f 128/128/128 167/167/167 168/168/168
f 158/158/158 159/159/159 169/169/169
f 159/159/159 170/170/170 169/169/169
f 169/169/169 170/170/170 134/134/134
f 170/170/170 131/131/131 134/134/134
f 171/171/171 138/138/138 45/45/45
f 160/160/160 171/171/171 36/36/36
f 171/171/171 45/45/45 36/36/36
f 165/165/165 47/47/47 172/172/172
f 47/47/47 141/141/141 172/172/172
f 154/154/154 165/165/165 161/161/161
f 165/165/165 172/172/172 161/161/161
f 172/172/172 141/141/141 171/171/171
f 141/141/141 138/138/138 171/171/171
f 161/161/161 172/172/172 160/160/160
f 172/172/172 171/171/171 160/160/160
f 175/175/175 174/174/174 173/173/173
f 174/174/174 176/176/176 173/173/173
f 179/179/179 178/178/178 177/177/177
f 179/179/179 177/177/177 180/180/180
f 183/183/183 182/182/182 181/181/181
f 182/182/182 184/184/184 181/181/181
f 187/187/187 186/186/186 185/185/185
f 186/186/186 188/188/188 185/185/185
f 191/191/191 190/190/190 189/189/189
f 190/190/190 192/192/192 189/189/189
f 195/195/195 194/194/194 193/193/193
f 195/195/195 193/193/193 196/196/196
f 199/199/199 198/198/198 197/197/197
f 198/198/198 200/200/200 197/197/197
f 203/203/203 202/202/202 201/201/201
f 202/202/202 204/204/204 201/201/201
f 173/173/173 206/206/206 205/205/205
f 175/175/175 173/173/173 205/205/205
f 208/208/208 183/183/183 207/207/207
f 183/183/183 181/181/181 207/207/207
f 210/210/210 209/209/209 187/187/187
f 209/209/209 186/186/186 187/187/187
f 190/190/190 211/211/211 192/192/192
f 211/211/211 212/212/212 192/192/192
f 211/211/211 205/205/205 212/212/212
f 205/205/205 206/206/206 212/212/212
f 214/214/214 208/208/208 213/213/213
f 208/208/208 207/207/207 213/213/213
f 198/198/198 214/214/214 200/200/200
f 214/214/214 213/213/213 200/200/200
f 201/201/201 204/204/204 215/215/215
f 204/204/204 216/216/216 215/215/215
f 215/215/215 216/216/216 210/210/210
f 216/216/216 209/209/209 210/210/210
f 218/218/218 217/217/217 97/97/97
f 93/93/93 218/218/218 97/97/97
f 144/144/144 145/145/145 217/217/217
f 218/218/218 144/144/144 217/217/217
f 103/103/103 219/219/219 101/101/101
f 103/103/103 220/220/220 219/219/219
f 220/220/220 147/147/147 219/219/219
f 220/220/220 150/150/150 147/147/147
f 223/223/223 222/222/222 221/221/221
f 222/222/222 224/224/224 221/221/221
f 221/221/221 224/224/224 225/225/225
f 224/224/224 226/226/226 225/225/225
f 229/229/229 228/228/228 227/227/227
f 228/228/228 230/230/230 227/227/227
f 227/227/227 230/230/230 231/231/231
f 230/230/230 232/232/232 231/231/231
f 235/235/235 234/234/234 233/233/233
f 234/234/234 236/236/236 233/233/233
f 238/238/238 236/236/236 237/237/237
f 228/228/228 240/240/240 239/239/239
f 240/240/240 241/241/241 239/239/239
f 244/244/244 243/243/243 242/242/242
f 246/246/246 235/235/235 245/245/245
f 235/235/235 247/247/247 245/245/245
f 250/250/250 249/249/249 248/248/248
f 250/250/250 251/251/251 249/249/249
f 254/254/254 253/253/253 252/252/252
f 254/254/254 255/255/255 253/253/253
f 258/258/258 257/257/257 256/256/256
f 258/258/258 259/259/259 257/257/257
f 262/262/262 261/261/261 260/260/260
f 262/262/262 263/263/263 261/261/261
f 266/266/266 265/265/265 264/264/264
f 266/266/266 267/267/267 265/265/265
g pb_Mesh95828_1
f 270/270/270 269/269/269 268/268/268
f 270/270/270 268/268/268 271/271/271
f 271/271/271 268/268/268 272/272/272
f 271/271/271 272/272/272 273/273/273
f 276/276/276 275/275/275 274/274/274
f 276/276/276 277/277/277 275/275/275
f 280/280/280 279/279/279 278/278/278
f 280/280/280 278/278/278 281/281/281
f 284/284/284 283/283/283 282/282/282
f 284/284/284 282/282/282 285/285/285
f 288/288/288 287/287/287 286/286/286
f 288/288/288 286/286/286 289/289/289
f 292/292/292 291/291/291 290/290/290
f 292/292/292 290/290/290 293/293/293
f 296/296/296 295/295/295 294/294/294
f 296/296/296 294/294/294 297/297/297
f 300/300/300 299/299/299 298/298/298
f 300/300/300 298/298/298 301/301/301
f 304/304/304 303/303/303 302/302/302
f 304/304/304 302/302/302 305/305/305
f 307/307/307 306/306/306 303/303/303
f 307/307/307 303/303/303 304/304/304
f 310/310/310 309/309/309 308/308/308
f 310/310/310 308/308/308 311/311/311
f 313/313/313 312/312/312 309/309/309
f 313/313/313 309/309/309 310/310/310
f 279/279/279 315/315/315 314/314/314
f 279/279/279 314/314/314 278/278/278
f 283/283/283 317/317/317 316/316/316
f 283/283/283 316/316/316 282/282/282
f 287/287/287 319/319/319 318/318/318
f 287/287/287 318/318/318 286/286/286
f 303/303/303 321/321/321 320/320/320
f 303/303/303 320/320/320 302/302/302
f 306/306/306 322/322/322 321/321/321
f 306/306/306 321/321/321 303/303/303
f 323/323/323 292/292/292 293/293/293
f 323/323/323 293/293/293 324/324/324
f 315/315/315 323/323/323 324/324/324
f 315/315/315 324/324/324 314/314/314
f 325/325/325 296/296/296 297/297/297
f 325/325/325 297/297/297 326/326/326
f 317/317/317 325/325/325 326/326/326
f 317/317/317 326/326/326 316/316/316
f 327/327/327 300/300/300 301/301/301
f 327/327/327 301/301/301 328/328/328
f 319/319/319 327/327/327 328/328/328
f 319/319/319 328/328/328 318/318/318
f 329/329/329 310/310/310 311/311/311
f 329/329/329 311/311/311 330/330/330
f 321/321/321 329/329/329 330/330/330
f 321/321/321 330/330/330 320/320/320
f 331/331/331 313/313/313 310/310/310
f 331/331/331 310/310/310 329/329/329
f 322/322/322 331/331/331 329/329/329
f 322/322/322 329/329/329 321/321/321
f 333/333/333 332/332/332 306/306/306
f 333/333/333 306/306/306 307/307/307
f 285/285/285 282/282/282 332/332/332
f 285/285/285 332/332/332 333/333/333
f 335/335/335 334/334/334 312/312/312
f 335/335/335 312/312/312 313/313/313
f 297/297/297 294/294/294 334/334/334
f 297/297/297 334/334/334 335/335/335
f 332/332/332 336/336/336 322/322/322
f 332/332/332 322/322/322 306/306/306
f 282/282/282 316/316/316 336/336/336
f 282/282/282 336/336/336 332/332/332
f 337/337/337 335/335/335 313/313/313
f 337/337/337 313/313/313 331/331/331
f 326/326/326 297/297/297 335/335/335
f 326/326/326 335/335/335 337/337/337
f 336/336/336 337/337/337 331/331/331
f 336/336/336 331/331/331 322/322/322
f 316/316/316 326/326/326 337/337/337
f 316/316/316 337/337/337 336/336/336
