g pb_Mesh91566
v 2 -1.9999969 20
v -2 -1.9999969 20
v 2 2.0000236 20.000004
v -2 2.0000236 20.000004
v -2 -1.2397767E-05 16.000004
v 2 -1.2397767E-05 16.000004
v -2 2.000003 16.000004
v 2 2.000003 16.000004
v -2 2.0000236 20.000004
v -2 -1.9999969 20
v -2 2.0000134 18.000004
v -2 -1.9999976 18
v -2 2.000003 16.000004
v -2 -1.2397767E-05 16.000004
v 2 2.000003 16.000004
v 2 -1.2397767E-05 16.000004
v 2 -1.9999976 18
v 2 2.0000134 18.000004
v 2 -1.9999969 20
v 2 2.0000236 20.000004
v -2 4.9999857 18.000004
v 2 3.0000134 17.999998
v 2 3.0000236 19.999998
v -2 4.9999843 20.000004
v -2 4.9999876 16.000004
v 2 3.000003 15.999999
v 2 -1.9999976 18
v -2 -1.2397767E-05 16.000004
v -2 -1.9999976 18
v 2 -1.2397767E-05 16.000004
v 2 -1.9999969 20
v -2 -1.9999976 18
v -2 -1.9999969 20
v 2 -1.9999976 18
v 2 3.0000134 17.999998
v 2 3.0000236 19.999998
v -2 4.9999843 20.000004
v -2 4.9999857 18.000004
v 2 2.0000236 20.000004
v -2 2.0000236 20.000004
v 2 3.0000236 19.999998
v -2 4.9999843 20.000004
v -2 4.9999876 16.000004
v 2 3.000003 15.999999
v 2 3.000003 15.999999
v -2 4.9999876 16.000004
vt 2 -1.9999778
vt -2 -1.9999778
vt 2 2.0000427
vt -2 2.0000427
vt 2 -1.2397767E-05
vt -2 -1.2397767E-05
vt 2 2.000003
vt -2 2.000003
vt 20.000004 2.0000236
vt 20 -1.9999969
vt 18.000004 2.0000134
vt 18 -1.9999976
vt 16.000004 2.000003
vt 16.000004 -1.2397767E-05
vt -16.000004 2.000003
vt -16.000004 -1.2397767E-05
vt -18 -1.9999976
vt -18.000004 2.0000134
vt -20 -1.9999969
vt -20.000004 2.0000236
vt 4.024896 18.000021
vt -0.44722748 18.000015
vt -0.4472229 20.000015
vt 4.0248957 20.000021
vt 4.0249057 16.000021
vt -0.44722325 16.000015
vt 2 17.395205
vt -2 14.78209
vt -2 17.395205
vt 2 14.78209
vt 2 19.242966
vt -2 17.395205
vt -2 19.242966
vt 2 17.395205
vt -17.999998 3.0000134
vt -19.999998 3.0000236
vt 20.000004 4.9999843
vt 18.000004 4.9999857
vt 2 1.9999092
vt -2 1.9999092
vt 2 2.9999092
vt -2 4.99987
vt 2 4.9999876
vt -2 3.000003
vt -15.999999 3.000003
vt 16.000004 4.9999876
vn -0 -9.536694E-07 1
vn -0 -9.536694E-07 1
vn -0 -9.536694E-07 1
vn -0 -9.536694E-07 1
vn -0 0 -1
vn -0 0 -1
vn -0 0 -1
vn -0 0 -1
vn -1 0 0
vn -1 0 0
vn -1 0 0
vn -1 0 0
vn -1 0 0
vn -1 0 0
vn 1 0 0
vn 1 0 0
vn 1 0 0
vn 1 0 0
vn 1 0 0
vn 1 0 0
vn 0.4472076 0.89443016 -1.9725496E-06
vn 0.44720864 0.8944297 -4.584846E-06
vn 0.4472076 0.89443016 -1.9725496E-06
vn 0.44720656 0.8944307 6.397467E-07
vn 0.44720972 0.8944291 -1.8659239E-06
vn 0.44721082 0.89442855 -4.5848424E-06
vn -0 -0.70710874 -0.70710486
vn -0 -0.70710874 -0.70710486
vn -0 -0.70710874 -0.70710486
vn -0 -0.70710874 -0.70710486
vn -0 -1 3.5762787E-07
vn -0 -1 3.5762787E-07
vn -0 -1 3.5762787E-07
vn -0 -1 3.5762787E-07
vn 1 0 0
vn 1 0 0
vn -1 0 0
vn -1 0 0
vn -0 5.722046E-06 1
vn 7.1525574E-07 2.861023E-06 1
vn 7.1525574E-07 2.861023E-06 1
vn 1.4305115E-06 0 1
vn -1.7881301E-06 -2.3841858E-06 -1
vn -3.5762603E-06 -4.7683716E-06 -1
vn 1 0 0
vn -1 0 0
g pb_Mesh91566_0
f 3/3/3 2/2/2 1/1/1
f 3/3/3 4/4/4 2/2/2
f 7/7/7 6/6/6 5/5/5
f 7/7/7 8/8/8 6/6/6
f 11/11/11 10/10/10 9/9/9
f 11/11/11 12/12/12 10/10/10
f 13/13/13 12/12/12 11/11/11
f 13/13/13 14/14/14 12/12/12
f 17/17/17 16/16/16 15/15/15
f 18/18/18 17/17/17 15/15/15
f 19/19/19 17/17/17 18/18/18
f 20/20/20 19/19/19 18/18/18
f 23/23/23 22/22/22 21/21/21
f 23/23/23 21/21/21 24/24/24
f 22/22/22 26/26/26 25/25/25
f 22/22/22 25/25/25 21/21/21
f 29/29/29 28/28/28 27/27/27
f 28/28/28 30/30/30 27/27/27
f 33/33/33 32/32/32 31/31/31
f 32/32/32 34/34/34 31/31/31
f 35/35/35 20/20/20 18/18/18
f 35/35/35 36/36/36 20/20/20
f 37/37/37 11/11/11 9/9/9
f 37/37/37 38/38/38 11/11/11
f 41/41/41 40/40/40 39/39/39
f 41/41/41 42/42/42 40/40/40
f 43/43/43 8/8/8 7/7/7
f 43/43/43 44/44/44 8/8/8
f 45/45/45 18/18/18 15/15/15
f 45/45/45 35/35/35 18/18/18
f 38/38/38 13/13/13 11/11/11
f 38/38/38 46/46/46 13/13/13
