g pb_Mesh63546
v 5.25 0 117
v 4.75 0 117
v 5.25 0.25 117
v 4.75 0.25 117
v 4.75 0 117
v 4.75 0 -32.75
v 4.75 0.25 117
v 4.75 0.25 -32.75
v 4.75 0 -33
v 5.25 0 -33
v 4.75 0.25 -33
v 5.25 0.25 -33
v 5.25 0 -32.75
v 5.25 0 117
v 5.25 0.25 -32.75
v 5.25 0.25 117
v 5.25 0.25 117
v 4.75 0.25 117
v 5.25 0.25 -32.75
v 4.75 0.25 -32.75
v 5.25 0 -32.75
v 4.75 0 -32.75
v 5.25 0 117
v 4.75 0 117
v 4.75 0 -33
v 5.25 0 -33
v -50.75 0.25 -32.75
v -50.75 0 -32.75
v -50.75 0.25 -33
v -50.75 0 -33
v 5.25 0 -33
v 5.25 0.25 -33
v 5.25 0.25 -33
v 4.75 0.25 -33
v 4.75 0.25 -32.75
v 4.75 0 -32.75
v -50.25 0.25 -32.75
v -50.25 0 -32.75
v -50.25 0.25 -33
v -50.25 0.25 -32.75
v -50.25 0 -32.75
v -50.25 0 -33
v -50.25 0 -33
v -50.25 0.25 -33
v -50.25 0.25 117
v -50.25 0 117
v -50.75 0.25 117
v -50.75 0 117
v -50.75 0.25 -33
v -50.75 0.25 -32.75
v -50.75 0 -32.75
v -50.75 0 -33
v -50.75 0 -33
v -50.75 0.25 -33
v -50.25 0.25 -32.75
v -50.25 0 -32.75
v -50.25 0.25 116.75
v -50.25 0 116.75
v -50.75 0.25 116.75
v -50.25 0.25 116.75
v -50.25 0 116.75
v -50.75 0 116.75
v -50.75 0 116.75
v -50.75 0.25 116.75
v 4.75 0.25 116.75
v 4.75 0 116.75
v 4.75 0.25 117
v 4.75 0 117
v -50.75 0.25 117
v -50.25 0.25 117
v -50.25 0 117
v -50.75 0 117
v -50.75 0 117
v -50.75 0.25 117
v -50.25 0.25 116.75
v -50.25 0 116.75
v 4.75 0.25 116.75
v 4.75 0 116.75
v 4.75 0.25 116.75
v 4.75 0 116.75
v 4.75 0 117
v 4.75 0.25 117
vt 5.25 0
vt 4.75 0
vt 5.25 0.25
vt 4.75 0.25
vt 117 0
vt -32.75 0
vt 117 0.25
vt -32.75 0.25
vt -4.75 0
vt -5.25 0
vt -4.75 0.25
vt -5.25 0.25
vt 32.75 0
vt -117 0
vt 32.75 0.25
vt -117 0.25
vt -5.25 117
vt -4.75 117
vt -5.25 -32.75
vt -4.75 -32.75
vt 5.25 -32.75
vt 4.75 -32.75
vt 5.25 117
vt 4.75 117
vt 4.75 -33
vt 5.25 -33
vt -32.75 0.25
vt -32.75 0
vt -33 0.25
vt -33 0
vt 33 0
vt 33 0.25
vt -5.25 -33
vt -4.75 -33
vt 4.75 0.25
vt 4.75 0
vt -50.25 0.25
vt -50.25 0
vt 50.25 -33
vt 50.25 -32.75
vt -50.25 -32.75
vt -50.25 -33
vt 50.25 0
vt 50.25 0.25
vt -50.25 0.25
vt -50.25 0
vt -50.75 0.25
vt -50.75 0
vt 50.75 -33
vt 50.75 -32.75
vt -50.75 -32.75
vt -50.75 -33
vt 50.75 0
vt 50.75 0.25
vt 32.75 0.25
vt 32.75 0
vt -116.75 0.25
vt -116.75 0
vt 50.75 116.75
vt 50.25 116.75
vt -50.25 116.75
vt -50.75 116.75
vt 116.75 0
vt 116.75 0.25
vt -116.75 0.25
vt -116.75 0
vt -117 0.25
vt -117 0
vt 50.75 117
vt 50.25 117
vt -50.25 117
vt -50.75 117
vt 117 0
vt 117 0.25
vt 50.25 0.25
vt 50.25 0
vt -4.75 0.25
vt -4.75 0
vt -4.75 116.75
vt 4.75 116.75
vt 4.75 0
vt 4.75 0.25
vn -0 0 1
vn -0 0 1
vn -0 0 1
vn -0 0 1
vn -1 0 0
vn -1 0 0
vn -1 0 0
vn -1 0 0
vn -0 0 -1
vn -0 0 -1
vn -0 0 -1
vn -0 0 -1
vn 1 0 0
vn 1 0 0
vn 1 0 0
vn 1 0 0
vn -0 1 0
vn -0 1 0
vn -0 1 0
vn -0 1 0
vn -0 -1 0
vn -0 -1 0
vn -0 -1 0
vn -0 -1 0
vn -0 -1 0
vn -0 -1 0
vn -1 0 0
vn -1 0 0
vn -1 0 0
vn -1 0 0
vn 1 0 0
vn 1 0 0
vn -0 1 0
vn -0 1 0
vn -0 0 1
vn -0 0 1
vn -0 0 1
vn -0 0 1
vn -0 1 0
vn -0 1 0
vn -0 -1 0
vn -0 -1 0
vn -0 0 -1
vn -0 0 -1
vn -0 0 1
vn -0 0 1
vn -0 0 1
vn -0 0 1
vn -0 1 0
vn -0 1 0
vn -0 -1 0
vn -0 -1 0
vn -0 0 -1
vn -0 0 -1
vn 1 0 0
vn 1 0 0
vn 1 0 0
vn 1 0 0
vn -0 1 0
vn -0 1 0
vn -0 -1 0
vn -0 -1 0
vn -1 0 0
vn -1 0 0
vn 1 0 0
vn 1 0 0
vn 1 0 0
vn 1 0 0
vn -0 1 0
vn -0 1 0
vn -0 -1 0
vn -0 -1 0
vn -1 0 0
vn -1 0 0
vn -0 0 -1
vn -0 0 -1
vn -0 0 -1
vn -0 0 -1
vn -0 1 0
vn -0 -1 0
vn -0 0 1
vn -0 0 1
g pb_Mesh63546_0
f 3/3/3 2/2/2 1/1/1
f 3/3/3 4/4/4 2/2/2
f 7/7/7 6/6/6 5/5/5
f 7/7/7 8/8/8 6/6/6
f 11/11/11 10/10/10 9/9/9
f 11/11/11 12/12/12 10/10/10
f 15/15/15 14/14/14 13/13/13
f 15/15/15 16/16/16 14/14/14
f 19/19/19 18/18/18 17/17/17
f 19/19/19 20/20/20 18/18/18
f 23/23/23 22/22/22 21/21/21
f 23/23/23 24/24/24 22/22/22
f 25/25/25 21/21/21 22/22/22
f 25/25/25 26/26/26 21/21/21
f 29/29/29 28/28/28 27/27/27
f 29/29/29 30/30/30 28/28/28
f 31/31/31 15/15/15 13/13/13
f 31/31/31 32/32/32 15/15/15
f 33/33/33 20/20/20 19/19/19
f 33/33/33 34/34/34 20/20/20
f 37/37/37 36/36/36 35/35/35
f 37/37/37 38/38/38 36/36/36
f 39/39/39 20/20/20 34/34/34
f 39/39/39 40/40/40 20/20/20
f 41/41/41 25/25/25 22/22/22
f 41/41/41 42/42/42 25/25/25
f 43/43/43 11/11/11 9/9/9
f 43/43/43 44/44/44 11/11/11
f 47/47/47 46/46/46 45/45/45
f 47/47/47 48/48/48 46/46/46
f 49/49/49 40/40/40 39/39/39
f 49/49/49 50/50/50 40/40/40
f 51/51/51 42/42/42 41/41/41
f 51/51/51 52/52/52 42/42/42
f 53/53/53 44/44/44 43/43/43
f 53/53/53 54/54/54 44/44/44
f 57/57/57 56/56/56 55/55/55
f 57/57/57 58/58/58 56/56/56
f 59/59/59 40/40/40 50/50/50
f 59/59/59 60/60/60 40/40/40
f 61/61/61 51/51/51 41/41/41
f 61/61/61 62/62/62 51/51/51
f 63/63/63 27/27/27 28/28/28
f 63/63/63 64/64/64 27/27/27
f 67/67/67 66/66/66 65/65/65
f 67/67/67 68/68/68 66/66/66
f 69/69/69 60/60/60 59/59/59
f 69/69/69 70/70/70 60/60/60
f 71/71/71 62/62/62 61/61/61
f 71/71/71 72/72/72 62/62/62
f 73/73/73 64/64/64 63/63/63
f 73/73/73 74/74/74 64/64/64
f 77/77/77 76/76/76 75/75/75
f 77/77/77 78/78/78 76/76/76
f 18/18/18 60/60/60 70/70/70
f 18/18/18 79/79/79 60/60/60
f 80/80/80 71/71/71 61/61/61
f 80/80/80 24/24/24 71/71/71
f 81/81/81 45/45/45 46/46/46
f 81/81/81 82/82/82 45/45/45
