g pb_Mesh-397420
v -0.74999964 -3 0.24999985
v -0.99999964 -3 0.24999976
v -0.74999964 5 0.2499997
v -0.99999964 5 0.25000048
v -0.99999964 -3 0.24999976
v -0.9999995 -3 -2.3841858E-07
v -0.99999964 5 0.25000048
v -0.99999946 5 4.6607397E-07
v -0.9999995 -3 -2.3841858E-07
v -0.7499995 -3 -1.4901161E-07
v -0.99999946 5 4.6607397E-07
v -0.74999946 5 -2.9388528E-07
v 1.0000005 -3 4.7683716E-07
v 1.0000004 -3 0.25000048
v 1.0000005 5 1.0621202E-06
v 1.0000004 5 0.25000107
v -0.74999964 5 0.2499997
v -0.99999964 5 0.25000048
v -0.74999946 5 -2.9388528E-07
v -0.99999946 5 4.6607397E-07
v -0.7499995 -3 -1.4901161E-07
v -0.9999995 -3 -2.3841858E-07
v -0.74999964 -3 0.24999985
v -0.99999964 -3 0.24999976
v 0.7500005 -3 3.874302E-07
v 0.75000036 -3 0.2500004
v 1.0000005 -3 4.7683716E-07
v 1.0000004 -3 0.25000048
v 0.75000054 5 8.684051E-07
v 0.7500005 -3 3.874302E-07
v 1.0000005 5 1.0621202E-06
v 1.0000005 -3 4.7683716E-07
v 0.75000036 -3 0.2500004
v 0.75000036 5 0.25000086
v 1.0000004 -3 0.25000048
v 1.0000004 5 0.25000107
v 0.75000036 5 0.25000086
v 0.75000054 5 8.684051E-07
v 1.0000004 5 0.25000107
v 1.0000005 5 1.0621202E-06
v -0.74999964 -3 0.24999985
v -0.74999964 5 0.2499997
v -0.7499995 -3 -1.4901161E-07
v -0.74999946 5 -2.9388528E-07
v 0.75000036 5 0.25000086
v 0.75000036 -3 0.2500004
v 0.75000054 5 8.684051E-07
v 0.7500005 -3 3.874302E-07
v -0.7499996 -3 0.12499985
v -0.7499996 5 0.12499971
v 0.7500004 -3 0.12500039
v 0.7500004 5 0.12500086
vt -0.7499996 -3
vt -0.9999996 -3
vt -0.7499996 5
vt -0.9999995 5
vt -1.8749998 -3
vt -2.1249998 -3
vt -1.874999 5
vt -2.124999 5
vt 0.9999995 -3
vt 0.7499995 -3
vt 0.99999946 5
vt 0.74999946 5
vt 2.125 -3
vt 1.875 -3
vt 2.1249995 5
vt 1.8749994 5
vt 0.74999964 -1.8750002
vt 0.99999964 -1.8749995
vt 0.74999946 -2.1250002
vt 0.99999946 -2.1249995
vt -0.7499995 -2.1250002
vt -0.9999995 -2.1250002
vt -0.74999964 -1.8750001
vt -0.99999964 -1.8750002
vt 0.7500005 -2.1249995
vt 0.75000036 -1.8749996
vt 1.0000005 -2.1249995
vt 1.0000004 -1.8749995
vt -0.75000054 5
vt -0.7500005 -3
vt -1.0000005 5
vt -1.0000005 -3
vt 0.7500005 -3
vt 0.7500005 5
vt 1.0000005 -3
vt 1.0000005 5
vt -0.75000036 -1.8749992
vt -0.75000054 -2.124999
vt -1.0000004 -1.8749989
vt -1.0000005 -2.124999
vt 1.8749998 -3
vt 1.875 5
vt 2.1249998 -3
vt 2.125 5
vt -1.8749996 5
vt -1.8750001 -3
vt -2.1249998 5
vt -2.1250002 -3
vt -0.7499995 -3
vt -0.7499995 5
vt 0.7500005 -3
vt 0.7500005 5
vn -3.5762787E-07 1.8626451E-08 1
vn 1.3709068E-06 -3.5390258E-08 1
vn 1.3709068E-06 -3.5390258E-08 1
vn 3.0994415E-06 -8.940697E-08 1
vn -1 4.2632564E-14 -4.7683716E-07
vn -1 3.725343E-09 -5.9604645E-07
vn -1 3.725343E-09 -5.9604645E-07
vn -1 7.450644E-09 -7.1525574E-07
vn 3.5762787E-07 8.806157E-08 -1
vn -1.3411045E-06 3.4976193E-08 -1
vn -1.3411045E-06 3.4976193E-08 -1
vn -3.0398369E-06 -1.8109185E-08 -1
vn 1 -3.4885587E-14 4.7683716E-07
vn 1 -3.5206362E-14 4.7683716E-07
vn 1 -3.5206362E-14 4.7683716E-07
vn 1 -3.5527137E-14 4.7683716E-07
vn -0 1 0
vn -0 1 0
vn -0 1 0
vn -0 1 0
vn -0 -1 0
vn -0 -1 0
vn -0 -1 0
vn -0 -1 0
vn -0 -1 0
vn -0 -1 0
vn -0 -1 0
vn -0 -1 0
vn 7.7486055E-07 6.0121856E-08 -1
vn 5.6624424E-07 6.664112E-08 -1
vn 5.6624424E-07 6.664112E-08 -1
vn 3.5762787E-07 7.316038E-08 -1
vn -3.5762787E-07 -5.9604645E-08 1
vn -5.9604645E-07 -6.7055225E-08 1
vn -5.9604645E-07 -6.7055225E-08 1
vn -8.34465E-07 -7.4505806E-08 1
vn -0 1 0
vn -0 1 0
vn -0 1 0
vn -0 1 0
vn 1 8.881784E-15 4.7683716E-07
vn 1 -3.7252792E-09 5.9604645E-07
vn 1 -3.7252792E-09 5.9604645E-07
vn 1 -7.4505673E-09 7.1525574E-07
vn -1 4.2632564E-14 -7.1525574E-07
vn -1 3.725326E-09 -5.9604645E-07
vn -1 3.725326E-09 -5.9604645E-07
vn -1 7.450609E-09 -4.7683716E-07
vn -3.5762787E-07 1.7695129E-08 1
vn -5.6376064E-07 -2.0954758E-08 1
vn -5.6376064E-07 -2.0954758E-08 1
vn -7.6989335E-07 -5.9604645E-08 1
g pb_Mesh-397420_0
f 3/3/3 2/2/2 1/1/1
f 3/3/3 4/4/4 2/2/2
f 7/7/7 6/6/6 5/5/5
f 7/7/7 8/8/8 6/6/6
f 11/11/11 10/10/10 9/9/9
f 11/11/11 12/12/12 10/10/10
f 15/15/15 14/14/14 13/13/13
f 15/15/15 16/16/16 14/14/14
f 19/19/19 18/18/18 17/17/17
f 19/19/19 20/20/20 18/18/18
f 23/23/23 22/22/22 21/21/21
f 23/23/23 24/24/24 22/22/22
f 27/27/27 26/26/26 25/25/25
f 27/27/27 28/28/28 26/26/26
f 31/31/31 30/30/30 29/29/29
f 31/31/31 32/32/32 30/30/30
f 35/35/35 34/34/34 33/33/33
f 35/35/35 36/36/36 34/34/34
f 39/39/39 38/38/38 37/37/37
f 39/39/39 40/40/40 38/38/38
f 43/43/43 42/42/42 41/41/41
f 43/43/43 44/44/44 42/42/42
f 47/47/47 46/46/46 45/45/45
f 47/47/47 48/48/48 46/46/46
g pb_Mesh-397420_1
f 51/51/51 50/50/50 49/49/49
f 51/51/51 52/52/52 50/50/50
