g pb_Mesh96292
v 2.0000646 1 1.0001229
v -3.999936 1 1.0000536
v 1.9998714 4 -1.9998792
v -4.000129 4 -1.9999498
v 1.9998714 -1 -1.9998785
v -4.000129 -1 -1.9999491
v 2.000194 -1 2.9998713
v -3.999808 -1 3.000258
v 2.000194 -1 2.9998713
v -3.999808 -1 3.000258
v -3.999936 1 1.0000536
v 2.0000646 1 1.0001229
v -3.999808 -1 3.000258
v -4.000129 -1 -1.9999491
v -4.000129 1 -1.9999491
v -3.999936 1 1.0000536
v -4.000129 4 -1.9999498
v -4.0002584 1 -3.999744
v 1.9997425 -1 -4.000131
v 1.9997425 1 -4.000131
v -4.0002584 -1 -3.999744
v -4.0002584 6 -3.999745
v 1.9997425 6 -4.000132
v 1.9998714 1 -1.9998785
v 2.000194 -1 2.9998713
v 2.0000646 1 1.0001229
v 1.9998714 -1 -1.9998785
v 1.9998714 4 -1.9998792
v 1.9998714 1 -1.9998785
v 1.9998714 4 -1.9998792
v 1.9997425 1 -4.000131
v 1.9997425 6 -4.000132
v 1.9997425 6 -4.000132
v -4.0002584 6 -3.999745
v -4.0002584 6 -3.999745
v -4.0002584 1 -3.999744
v -4.0002584 -1 -3.999744
v 1.9997425 -1 -4.000131
v -4.0002584 -1 -3.999744
v 1.9997425 -1 -4.000131
vt 2.000076 -7.105826E-05
vt -3.9999247 -7.105825E-05
vt 1.9998482 4.242571
vt -4.000152 4.242572
vt 1.9998714 -1.9998785
vt -4.000129 -1.9999491
vt 2.000194 2.9998713
vt -3.999808 3.000258
vt 2.0000007 -2.8284996
vt -4.0000014 -2.8284996
vt -4.0000005 7.213056E-05
vt 2.0000002 -0.0002503092
vt 3.0000007 -1
vt -2.0002062 -1
vt -2.0002062 1
vt 0.99979645 1
vt -2.000207 4
vt 4.0000005 1
vt -2.0000007 -1
vt -2.0000007 1
vt 4.0000005 -1
vt 4.0000005 6.000001
vt -2.0000007 6.000001
vt 1.9997497 0.9999997
vt -3 -1.0000004
vt -1.0002518 0.9999997
vt 1.9997497 -1.0000004
vt 1.9997504 3.9999998
vt 1.9997497 1
vt 1.9997504 4
vt 4.0000024 1
vt 4.0000033 6
vt 1.9996954 7.0710883
vt -4.0003057 7.0707645
vt -4.0000033 6
vt -4.0000024 1
vt -4.0000024 -1
vt 4.0000024 -1
vt -4.0002584 -3.999744
vt 1.9997425 -4.000131
vn -8.162435E-06 0.707107 0.70710653
vn -8.239704E-06 0.70710707 0.7071065
vn -8.239704E-06 0.70710707 0.7071065
vn -8.3169725E-06 0.7071072 0.7071064
vn -0 -1 0
vn -0 -1 0
vn -0 -1 0
vn -0 -1 0
vn 1.8704748E-05 0.7071026 0.707111
vn 4.5572448E-05 0.7071429 0.70707065
vn 1.8704748E-05 0.7071026 0.707111
vn -8.162952E-06 0.7070623 0.7071513
vn -1 1.8207149E-07 6.430013E-05
vn -1 0 6.422731E-05
vn -1 1.8207149E-07 6.430013E-05
vn -1 3.6414298E-07 6.437296E-05
vn -1 1.0231806E-11 6.437296E-05
vn -6.453195E-05 0 -1
vn -6.453195E-05 0 -1
vn -6.453195E-05 0 -1
vn -6.453195E-05 0 -1
vn -6.453195E-05 -1.9073487E-07 -1
vn -6.453195E-05 -1.9073487E-07 -1
vn 1 1.6301537E-07 -6.4477936E-05
vn 1 1.6301537E-07 -6.4477936E-05
vn 1 3.2603074E-07 -6.441272E-05
vn 1 0 -6.454314E-05
vn 1 -1.5357191E-11 -6.441273E-05
vn 1 -1.5359993E-11 -6.442448E-05
vn 1 -1.3823995E-11 -6.442449E-05
vn 1 -1.3823995E-11 -6.442449E-05
vn 1 -1.2287997E-11 -6.4424494E-05
vn 1.8651408E-05 0.707111 0.70710254
vn 4.561927E-05 0.7070706 0.707143
vn -1 1.3865534E-11 6.461807E-05
vn -1 1.2324918E-11 6.461806E-05
vn -1 0 6.461806E-05
vn 1 0 -6.442448E-05
vn -0 -1 0
vn -0 -1 0
g pb_Mesh96292_0
f 3/3/3 2/2/2 1/1/1
f 3/3/3 4/4/4 2/2/2
f 7/7/7 6/6/6 5/5/5
f 7/7/7 8/8/8 6/6/6
f 11/11/11 10/10/10 9/9/9
f 11/11/11 9/9/9 12/12/12
f 15/15/15 14/14/14 13/13/13
f 15/15/15 13/13/13 16/16/16
f 17/17/17 15/15/15 16/16/16
f 20/20/20 19/19/19 18/18/18
f 19/19/19 21/21/21 18/18/18
f 23/23/23 20/20/20 22/22/22
f 20/20/20 18/18/18 22/22/22
f 26/26/26 25/25/25 24/24/24
f 25/25/25 27/27/27 24/24/24
f 26/26/26 24/24/24 28/28/28
f 31/31/31 30/30/30 29/29/29
f 31/31/31 32/32/32 30/30/30
f 33/33/33 4/4/4 3/3/3
f 33/33/33 34/34/34 4/4/4
f 35/35/35 15/15/15 17/17/17
f 35/35/35 36/36/36 15/15/15
f 36/36/36 14/14/14 15/15/15
f 36/36/36 37/37/37 14/14/14
f 38/38/38 29/29/29 27/27/27
f 38/38/38 31/31/31 29/29/29
f 39/39/39 5/5/5 6/6/6
f 39/39/39 40/40/40 5/5/5
