g pb_Mesh104016
v -4 9 -4
v -0 9 -4
v -0 9 0
v -4 9 0
v -8 9 -4
v -8 9 0
v -0 -2 0
v -4 -2 -4
v -4 -2 0
v -0 -2 -4
v -8 -2 -4
v -8 -2 0
v -11 -2 0
v -11 -2 -7
v -11 0 -7
v -11 0 0
v -8 3 0
v -8 3 -4
v -8 9 -4
v -8 9 0
v -0 3 -4
v -0 -2 0
v -0 3 0
v -0 -2 -4
v -0 9 -4
v -0 9 0
v -0 -2 0
v -4 -2 0
v -4 3 0
v -0 3 0
v -4 9 0
v -0 9 0
v -8 -2 0
v -8 3 0
v -8 9 0
v -11 0 -7
v -4 -2 -7
v -4 0 -7
v -11 -2 -7
v -8 9 -4
v -4 3 -4
v -4 9 -4
v -8 3 -4
v -0 -2 -4
v -0 3 -4
v -4 -2 -4
v -0 9 -4
v -11 -2 0
v -11 -2 -7
v -4 -2 -7
v -11 0 0
v -11 -2 0
v -8 3 -4
v -8 3 0
v -11 0 -7
v -11 0 0
v -4 -2 -4
v -4 3 -4
v -4 -2 -7
v -4 0 -7
v -4 3 -4
v -8 3 -4
v -4 0 -7
v -11 0 -7
vt 4 -4
vt 0 -4
vt 0 0
vt 4 0
vt 8 -4
vt 8 0
vt 0 0
vt -4 -4
vt -4 0
vt -0 -4
vt -8 -4
vt -8 0
vt 0 -2
vt -7 -2
vt -7 0
vt 0 0
vt 0 3
vt -4 3
vt -4 9
vt 0 9
vt 4 3
vt 0 -2
vt 0 3
vt 4 -2
vt 4 9
vt 0 9
vt 0 -2
vt -4 -2
vt -4 3
vt 0 3
vt -4 9
vt 0 9
vt -8 -2
vt -8 3
vt -8 9
vt 11 0
vt 4 -2
vt 4 0
vt 11 -2
vt 8 9
vt 4 3
vt 4 9
vt 8 3
vt 0 -2
vt 0 3
vt 4 -2
vt 0 9
vt -11 0
vt -11 -7
vt -4 -7
vt -11 0
vt -11 -2
vt 3.535534 -4
vt 3.535534 0
vt 7.7781744 -7
vt 7.7781744 0
vt 4 -2
vt 4 3
vt 7 -2
vt 7 0
vt 4 -0.70710677
vt 8 -0.70710677
vt 4 -4.9497476
vt 11 -4.9497476
vn -0 1 0
vn -0 1 0
vn -0 1 0
vn -0 1 0
vn -0 1 0
vn -0 1 0
vn -0 -1 0
vn -0 -1 0
vn -0 -1 0
vn -0 -1 0
vn -0 -1 0
vn -0 -1 0
vn -1 0 0
vn -1 0 0
vn -1 0 0
vn -1 0 0
vn -1 0 0
vn -1 0 0
vn -1 0 0
vn -1 0 0
vn 1 0 0
vn 1 0 0
vn 1 0 0
vn 1 0 0
vn 1 0 0
vn 1 0 0
vn -0 0 1
vn -0 0 1
vn -0 0 1
vn -0 0 1
vn -0 0 1
vn -0 0 1
vn -0 0 1
vn -0 0 1
vn -0 0 1
vn -0 0 -1
vn -0 0 -1
vn -0 0 -1
vn -0 0 -1
vn -0 0 -1
vn -0 0 -1
vn -0 0 -1
vn -0 0 -1
vn -0 0 -1
vn -0 0 -1
vn -0 0 -1
vn -0 0 -1
vn -0 -1 0
vn -0 -1 0
vn -0 -1 0
vn -0 0 1
vn -0 0 1
vn -0.70710677 0.70710677 0
vn -0.70710677 0.70710677 0
vn -0.70710677 0.70710677 0
vn -0.70710677 0.70710677 0
vn 1 0 0
vn 1 0 0
vn 1 0 0
vn 1 0 0
vn -0 0.70710677 -0.70710677
vn -0 0.70710677 -0.70710677
vn -0 0.70710677 -0.70710677
vn -0 0.70710677 -0.70710677
g pb_Mesh104016_0
f 3/3/3 2/2/2 1/1/1
f 3/3/3 1/1/1 4/4/4
f 4/4/4 1/1/1 5/5/5
f 4/4/4 5/5/5 6/6/6
f 9/9/9 8/8/8 7/7/7
f 8/8/8 10/10/10 7/7/7
f 12/12/12 11/11/11 9/9/9
f 11/11/11 8/8/8 9/9/9
f 15/15/15 14/14/14 13/13/13
f 15/15/15 13/13/13 16/16/16
f 19/19/19 18/18/18 17/17/17
f 19/19/19 17/17/17 20/20/20
f 23/23/23 22/22/22 21/21/21
f 22/22/22 24/24/24 21/21/21
f 26/26/26 23/23/23 25/25/25
f 23/23/23 21/21/21 25/25/25
f 29/29/29 28/28/28 27/27/27
f 29/29/29 27/27/27 30/30/30
f 31/31/31 29/29/29 30/30/30
f 31/31/31 30/30/30 32/32/32
f 34/34/34 33/33/33 28/28/28
f 34/34/34 28/28/28 29/29/29
f 35/35/35 34/34/34 29/29/29
f 35/35/35 29/29/29 31/31/31
f 38/38/38 37/37/37 36/36/36
f 37/37/37 39/39/39 36/36/36
f 42/42/42 41/41/41 40/40/40
f 41/41/41 43/43/43 40/40/40
f 45/45/45 44/44/44 41/41/41
f 44/44/44 46/46/46 41/41/41
f 47/47/47 45/45/45 42/42/42
f 45/45/45 41/41/41 42/42/42
f 48/48/48 11/11/11 12/12/12
f 48/48/48 49/49/49 11/11/11
f 49/49/49 8/8/8 11/11/11
f 49/49/49 50/50/50 8/8/8
f 51/51/51 33/33/33 34/34/34
f 51/51/51 52/52/52 33/33/33
f 55/55/55 54/54/54 53/53/53
f 55/55/55 56/56/56 54/54/54
f 59/59/59 58/58/58 57/57/57
f 59/59/59 60/60/60 58/58/58
f 63/63/63 62/62/62 61/61/61
f 63/63/63 64/64/64 62/62/62
