g pb_Mesh-307882
v -0.74999964 -3 0.24999985
v -0.99999964 -3 0.24999976
v -0.7499998 7 0.2499989
v -0.99999994 7 0.25000003
v -0.99999964 -3 0.24999976
v -0.9999995 -3 -2.3841858E-07
v -0.99999994 7 0.25000003
v -0.99999976 7 -1.9073145E-06
v -0.9999995 -3 -2.3841858E-07
v -0.7499995 -3 -1.4901161E-07
v -0.99999976 7 -1.9073145E-06
v -0.74999976 7 -1.1324562E-06
v 1.0000005 -3 4.7683716E-07
v 1.0000004 -3 0.25000048
v 1.0000008 7 -1.4304687E-06
v 1.0000006 7 0.2500005
v -0.7499998 7 0.2499989
v -0.99999994 7 0.25000003
v -0.74999976 7 -1.1324562E-06
v -0.99999976 7 -1.9073145E-06
v -0.7499995 -3 -1.4901161E-07
v -0.9999995 -3 -2.3841858E-07
v -0.74999964 -3 0.24999985
v -0.99999964 -3 0.24999976
v 0.7500005 -3 3.874302E-07
v 0.75000036 -3 0.2500004
v 1.0000005 -3 4.7683716E-07
v 1.0000004 -3 0.25000048
v 0.7500007 7 -2.9798682E-07
v 0.7500005 -3 3.874302E-07
v 1.0000008 7 -1.4304687E-06
v 1.0000005 -3 4.7683716E-07
v 0.75000036 -3 0.2500004
v 0.75000054 7 0.24999973
v 1.0000004 -3 0.25000048
v 1.0000006 7 0.2500005
v 0.75000054 7 0.24999973
v 0.7500007 7 -2.9798682E-07
v 1.0000006 7 0.2500005
v 1.0000008 7 -1.4304687E-06
v -0.74999964 -3 0.24999985
v -0.7499998 7 0.2499989
v -0.7499995 -3 -1.4901161E-07
v -0.74999976 7 -1.1324562E-06
v 0.75000054 7 0.24999973
v 0.75000036 -3 0.2500004
v 0.7500007 7 -2.9798682E-07
v 0.7500005 -3 3.874302E-07
v -0.7499996 -3 0.12499985
v -0.74999976 7 0.12499888
v 0.7500004 -3 0.12500039
v 0.75000066 7 0.12499972
vt -0.7499996 -3
vt -0.9999996 -3
vt -0.74999976 7
vt -0.9999998 7
vt -1.8749998 -3
vt -2.1249998 -3
vt -1.8749995 7
vt -2.1250014 7
vt 0.9999995 -3
vt 0.7499995 -3
vt 0.99999976 7
vt 0.74999976 7
vt 2.125 -3
vt 1.875 -3
vt 2.125002 7
vt 1.875 7
vt 0.7499998 -1.8750011
vt 0.99999994 -1.875
vt 0.74999976 -2.1250012
vt 0.99999976 -2.125002
vt -0.7499995 -2.1250002
vt -0.9999995 -2.1250002
vt -0.74999964 -1.8750001
vt -0.99999964 -1.8750002
vt 0.7500005 -2.1249995
vt 0.75000036 -1.8749996
vt 1.0000005 -2.1249995
vt 1.0000004 -1.8749995
vt -0.7500007 7
vt -0.7500005 -3
vt -1.0000008 7
vt -1.0000005 -3
vt 0.7500005 -3
vt 0.7500006 7
vt 1.0000005 -3
vt 1.0000007 7
vt -0.75000054 -1.8750002
vt -0.7500007 -2.1250002
vt -1.0000006 -1.8749995
vt -1.0000008 -2.1250014
vt 1.8749998 -3
vt 1.8750007 7
vt 2.1249998 -3
vt 2.1250007 7
vt -1.8750008 7
vt -1.8750001 -3
vt -2.1250007 7
vt -2.1250002 -3
vt -0.7499995 -3
vt -0.7499997 7
vt 0.7500005 -3
vt 0.7500007 7
vn -3.5762787E-07 9.5367426E-08 1
vn 2.0861614E-06 3.4272738E-08 1
vn 2.0861614E-06 3.4272738E-08 1
vn 4.5299507E-06 -2.6821954E-08 1
vn -1 -2.9802312E-08 -4.7683716E-07
vn -1 -2.6822145E-08 -5.960437E-07
vn -1 -2.6822145E-08 -5.960437E-07
vn -1 -2.3841977E-08 -7.152502E-07
vn 3.5762787E-07 -1.6688958E-07 -1
vn 1.7285307E-06 -1.3261698E-07 -1
vn 1.7285307E-06 -1.3261698E-07 -1
vn 3.0994336E-06 -9.834439E-08 -1
vn 1 -3.5762696E-08 4.7683716E-07
vn 1 -2.980228E-08 7.1525204E-07
vn 1 -2.980228E-08 7.1525204E-07
vn 1 -2.3841862E-08 9.536669E-07
vn -0 1 0
vn -0 1 0
vn -0 1 0
vn -0 1 0
vn -0 -1 0
vn -0 -1 0
vn -0 -1 0
vn -0 -1 0
vn -0 -1 0
vn -0 -1 0
vn -0 -1 0
vn -0 -1 0
vn -4.5299253E-06 -6.8541596E-08 -1
vn -2.0861487E-06 -1.296361E-07 -1
vn -2.0861487E-06 -1.296361E-07 -1
vn 3.5762787E-07 -1.907306E-07 -1
vn -3.5762787E-07 6.556512E-08 1
vn -1.7285344E-06 3.129248E-08 1
vn -1.7285344E-06 3.129248E-08 1
vn -3.0994408E-06 -2.9801586E-09 1
vn -0 1 0
vn -0 1 0
vn -0 1 0
vn -0 1 0
vn 1 1.7881439E-08 4.7683716E-07
vn 1 2.0861659E-08 3.5762787E-07
vn 1 2.0861659E-08 3.5762787E-07
vn 1 2.3841881E-08 2.3841855E-07
vn -1 1.7881346E-08 -7.152557E-07
vn -1 2.0861584E-08 -5.9604645E-07
vn -1 2.0861584E-08 -5.9604645E-07
vn -1 2.3841825E-08 -4.7683716E-07
vn -3.5762787E-07 9.685754E-08 1
vn -4.5696885E-07 8.195639E-08 1
vn -4.5696885E-07 8.195639E-08 1
vn -5.5630983E-07 6.705524E-08 1
g pb_Mesh-307882_0
f 3/3/3 2/2/2 1/1/1
f 3/3/3 4/4/4 2/2/2
f 7/7/7 6/6/6 5/5/5
f 7/7/7 8/8/8 6/6/6
f 11/11/11 10/10/10 9/9/9
f 11/11/11 12/12/12 10/10/10
f 15/15/15 14/14/14 13/13/13
f 15/15/15 16/16/16 14/14/14
f 19/19/19 18/18/18 17/17/17
f 19/19/19 20/20/20 18/18/18
f 23/23/23 22/22/22 21/21/21
f 23/23/23 24/24/24 22/22/22
f 27/27/27 26/26/26 25/25/25
f 27/27/27 28/28/28 26/26/26
f 31/31/31 30/30/30 29/29/29
f 31/31/31 32/32/32 30/30/30
f 35/35/35 34/34/34 33/33/33
f 35/35/35 36/36/36 34/34/34
f 39/39/39 38/38/38 37/37/37
f 39/39/39 40/40/40 38/38/38
f 43/43/43 42/42/42 41/41/41
f 43/43/43 44/44/44 42/42/42
f 47/47/47 46/46/46 45/45/45
f 47/47/47 48/48/48 46/46/46
g pb_Mesh-307882_1
f 51/51/51 50/50/50 49/49/49
f 51/51/51 52/52/52 50/50/50
