g pb_Mesh96342
v -2 0 0
v -2 0 -1
v -2 2 -1
v -2 2 0
v 6 2 -1
v 6 0 0
v 6 2 0
v 6 0 -1
v 6 0 0
v 3 0 0
v 3 2 0
v 6 2 0
v -2 0 0
v -2 2 0
v -2 2 -8
v 3 0 -8
v 3 2 -8
v -2 0 -8
v 6 0 -8
v 6 2 -8
v 3 0 0
v -2 0 -1
v -2 0 0
v 3 0 -1
v 6 0 0
v 6 0 -1
v -2 22 -8
v 3 16 -8
v 3 22 -8
v -2 16 -8
v 6 15 -1
v 6 16 0
v 6 22 -1
v 6 22 0
v 3 16 0
v -2 16 0
v -2 22 0
v 3 22 0
v 6 16 -8
v 6 22 -8
v -2 16 0
v -2 15 -1
v -2 22 -1
v -2 22 0
v 6 16 0
v 6 22 0
v -2 0 -7
v -2 0 -8
v -2 2 -8
v -2 2 -7
v 6 2 -8
v 6 0 -7
v 6 2 -7
v 6 0 -8
v 3 0 -7
v -2 0 -8
v -2 0 -7
v 3 0 -8
v 6 0 -7
v 6 0 -8
v -2 15 -7
v -2 16 -8
v -2 22 -8
v -2 22 -7
v 6 22 -8
v 6 15 -7
v 6 22 -7
v 6 16 -8
v -2 0 -2
v -2 2 -2
v 6 2 -2
v 6 0 -2
v -2 0 -2
v 3 0 -2
v 6 0 -2
v -2 16 -2
v -2 22 -2
v 6 22 -2
v 6 16 -2
v -2 0 -6
v -2 2 -6
v 6 2 -6
v 6 0 -6
v 3 0 -6
v -2 0 -6
v 6 0 -6
v -2 16 -6
v -2 22 -6
v 6 22 -6
v 6 16 -6
v -2 15 -8
v 3 10 -8
v 3 15 -8
v -2 10 -8
v 6 10 0
v 6 15 0
v 6 10 -1
v 3 10 0
v -2 10 0
v -2 15 0
v 3 15 0
v 6 10 -8
v 6 15 -8
v -2 10 0
v -2 10 -1
v -2 15 0
v 6 10 0
v 6 15 0
v -2 10 -7
v -2 10 -8
v -2 15 -8
v 6 15 -8
v 6 10 -7
v 6 10 -8
v -2 15 -7
v -2 16 -6
v 6 15 -7
v 6 16 -6
v -2 16 -6
v -2 16 -2
v 6 16 -6
v 6 16 -2
v -2 15 -1
v -2 10 -1
v 6 15 -1
v 6 10 -1
v -2 16 -2
v -2 15 -1
v 6 16 -2
v 6 15 -1
v -2 10 -7
v -2 15 -7
v 6 10 -7
v 6 15 -7
v -2 8 -8
v 3 8 -8
v 6 8 -1
v 6 8 0
v -2 8 0
v 3 8 0
v 6 8 -8
v -2 8 -1
v -2 8 0
v 6 8 0
v -2 8 -8
v -2 8 -7
v 6 8 -8
v 6 8 -7
v -2 8 -2
v -2 10 -2
v 6 8 -2
v 6 10 -2
v -2 8 -6
v -2 10 -6
v 6 8 -6
v 6 10 -6
v -2 10 -1
v -2 10 -2
v 6 10 -1
v 6 10 -2
v -2 10 -6
v 6 10 -6
v -2 10 -7
v 6 10 -7
v -2 22 -1
v 3 22 -1
v 3 22 0
v -2 22 0
v 6 22 -1
v 6 22 0
v -2 22 -8
v 3 22 -8
v 3 22 -7
v -2 22 -7
v 6 22 -8
v 6 22 -7
v -2 22 -2
v 3 22 -2
v 6 22 -2
v 3 22 -6
v -2 22 -6
v 6 22 -6
vt 0 0
vt -1 0
vt -1 2
vt 0 2
vt 1 2
vt 0 0
vt 0 2
vt 1 0
vt 6 0
vt 3 0
vt 3 2
vt 6 2
vt -2 0
vt -2 2
vt 2 2
vt -3 0
vt -3 2
vt 2 0
vt -6 0
vt -6 2
vt 3 0
vt -2 -1
vt -2 0
vt 3 -1
vt 6 0
vt 6 -1
vt 2 22
vt -3 16
vt -3 22
vt 2 16
vt 1 15
vt 0 16
vt 1 22
vt 0 22
vt 3 16
vt -2 16
vt -2 22
vt 3 22
vt -6 16
vt -6 22
vt 0 16
vt -1 15
vt -1 22
vt 0 22
vt 6 16
vt 6 22
vt -7 0
vt -8 0
vt -8 2
vt -7 2
vt 8 2
vt 7 0
vt 7 2
vt 8 0
vt 3 -7
vt -2 -8
vt -2 -7
vt 3 -8
vt 6 -7
vt 6 -8
vt -7 15
vt -8 16
vt -8 22
vt -7 22
vt 8 22
vt 7 15
vt 7 22
vt 8 16
vt -2 0
vt -2 2
vt 2 2
vt 2 0
vt -2 -2
vt 3 -2
vt 6 -2
vt -2 16
vt -2 22
vt 2 22
vt 2 16
vt -6 0
vt -6 2
vt 6 2
vt 6 0
vt 3 -6
vt -2 -6
vt 6 -6
vt -6 16
vt -6 22
vt 6 22
vt 6 16
vt 2 15
vt -3 10
vt -3 15
vt 2 10
vt 0 10
vt 0 15
vt 1 10
vt 3 10
vt -2 10
vt -2 15
vt 3 15
vt -6 10
vt -6 15
vt 0 10
vt -1 10
vt 0 15
vt 6 10
vt 6 15
vt -7 10
vt -8 10
vt -8 15
vt 8 15
vt 7 10
vt 8 10
vt -2 5.6568546
vt -2 7.0710683
vt 6 5.6568546
vt 6 7.0710683
vt -2 -6
vt -2 -2
vt 6 -6
vt 6 -2
vt 2 15
vt 2 10
vt -6 15
vt -6 10
vt 2 12.727922
vt 2 11.313709
vt -6 12.727922
vt -6 11.313709
vt -2 10
vt -2 15
vt 6 10
vt 6 15
vt 2 8
vt -3 8
vt 1 8
vt 0 8
vt -2 8
vt 3 8
vt -6 8
vt -1 8
vt 0 8
vt 6 8
vt -8 8
vt -7 8
vt 8 8
vt 7 8
vt -2 8
vt -2 10
vt 2 8
vt 2 10
vt -6 8
vt -6 10
vt 6 8
vt 6 10
vt 2 -1
vt 2 -2
vt -6 -1
vt -6 -2
vt 2 -6
vt -6 -6
vt 2 -7
vt -6 -7
vt 2 -1
vt -3 -1
vt -3 0
vt 2 0
vt -6 -1
vt -6 0
vt 2 -8
vt -3 -8
vt -3 -7
vt 2 -7
vt -6 -8
vt -6 -7
vt 2 -2
vt -3 -2
vt -6 -2
vt -3 -6
vt 2 -6
vt -6 -6
vn -1 0 0
vn -1 0 0
vn -1 0 0
vn -1 0 0
vn 1 0 0
vn 1 0 0
vn 1 0 0
vn 1 0 0
vn -0 0 1
vn -0 0 1
vn -0 0 1
vn -0 0 1
vn -0 0 1
vn -0 0 1
vn -0 0 -1
vn -0 0 -1
vn -0 0 -1
vn -0 0 -1
vn -0 0 -1
vn -0 0 -1
vn -0 -1 0
vn -0 -1 0
vn -0 -1 0
vn -0 -1 0
vn -0 -1 0
vn -0 -1 0
vn -0 0 -1
vn -0 0 -1
vn -0 0 -1
vn -0 0 -1
vn 1 0 0
vn 1 0 0
vn 1 0 0
vn 1 0 0
vn -0 0 1
vn -0 0 1
vn -0 0 1
vn -0 0 1
vn -0 0 -1
vn -0 0 -1
vn -1 0 0
vn -1 0 0
vn -1 0 0
vn -1 0 0
vn -0 0 1
vn -0 0 1
vn -1 0 0
vn -1 0 0
vn -1 0 0
vn -1 0 0
vn 1 0 0
vn 1 0 0
vn 1 0 0
vn 1 0 0
vn -0 -1 0
vn -0 -1 0
vn -0 -1 0
vn -0 -1 0
vn -0 -1 0
vn -0 -1 0
vn -1 0 0
vn -1 0 0
vn -1 0 0
vn -1 0 0
vn 1 0 0
vn 1 0 0
vn 1 0 0
vn 1 0 0
vn -1 0 0
vn -1 0 0
vn 1 0 0
vn 1 0 0
vn -0 -1 0
vn -0 -1 0
vn -0 -1 0
vn -1 0 0
vn -1 0 0
vn 1 0 0
vn 1 0 0
vn -1 0 0
vn -1 0 0
vn 1 0 0
vn 1 0 0
vn -0 -1 0
vn -0 -1 0
vn -0 -1 0
vn -1 0 0
vn -1 0 0
vn 1 0 0
vn 1 0 0
vn -0 0 -1
vn -0 0 -1
vn -0 0 -1
vn -0 0 -1
vn 1 0 0
vn 1 0 0
vn 1 0 0
vn -0 0 1
vn -0 0 1
vn -0 0 1
vn -0 0 1
vn -0 0 -1
vn -0 0 -1
vn -1 0 0
vn -1 0 0
vn -1 0 0
vn -0 0 1
vn -0 0 1
vn -1 0 0
vn -1 0 0
vn -1 0 0
vn 1 0 0
vn 1 0 0
vn 1 0 0
vn -0 -0.70710677 0.70710677
vn -0 -0.70710677 0.70710677
vn -0 -0.70710677 0.70710677
vn -0 -0.70710677 0.70710677
vn -0 -1 0
vn -0 -1 0
vn -0 -1 0
vn -0 -1 0
vn -0 0 -1
vn -0 0 -1
vn -0 0 -1
vn -0 0 -1
vn -0 -0.70710677 -0.70710677
vn -0 -0.70710677 -0.70710677
vn -0 -0.70710677 -0.70710677
vn -0 -0.70710677 -0.70710677
vn -0 0 1
vn -0 0 1
vn -0 0 1
vn -0 0 1
vn -0 0 -1
vn -0 0 -1
vn 1 0 0
vn 1 0 0
vn -0 0 1
vn -0 0 1
vn -0 0 -1
vn -1 0 0
vn -1 0 0
vn -0 0 1
vn -1 0 0
vn -1 0 0
vn 1 0 0
vn 1 0 0
vn -1 0 0
vn -1 0 0
vn 1 0 0
vn 1 0 0
vn -1 0 0
vn -1 0 0
vn 1 0 0
vn 1 0 0
vn -0 1 0
vn -0 1 0
vn -0 1 0
vn -0 1 0
vn -0 1 0
vn -0 1 0
vn -0 1 0
vn -0 1 0
vn -0 1 0
vn -0 1 0
vn -0 1 0
vn -0 1 0
vn -0 1 0
vn -0 1 0
vn -0 1 0
vn -0 1 0
vn -0 1 0
vn -0 1 0
vn -0 1 0
vn -0 1 0
vn -0 1 0
vn -0 1 0
vn -0 1 0
vn -0 1 0
vn -0 1 0
vn -0 1 0
g pb_Mesh96342_0
f 3/3/3 2/2/2 1/1/1
f 3/3/3 1/1/1 4/4/4
f 7/7/7 6/6/6 5/5/5
f 6/6/6 8/8/8 5/5/5
f 11/11/11 10/10/10 9/9/9
f 11/11/11 9/9/9 12/12/12
f 14/14/14 13/13/13 10/10/10
f 14/14/14 10/10/10 11/11/11
f 17/17/17 16/16/16 15/15/15
f 16/16/16 18/18/18 15/15/15
f 20/20/20 19/19/19 17/17/17
f 19/19/19 16/16/16 17/17/17
f 23/23/23 22/22/22 21/21/21
f 22/22/22 24/24/24 21/21/21
f 21/21/21 24/24/24 25/25/25
f 24/24/24 26/26/26 25/25/25
f 29/29/29 28/28/28 27/27/27
f 28/28/28 30/30/30 27/27/27
f 33/33/33 32/32/32 31/31/31
f 33/33/33 34/34/34 32/32/32
f 37/37/37 36/36/36 35/35/35
f 37/37/37 35/35/35 38/38/38
f 40/40/40 39/39/39 29/29/29
f 39/39/39 28/28/28 29/29/29
f 43/43/43 42/42/42 41/41/41
f 43/43/43 41/41/41 44/44/44
f 46/46/46 35/35/35 45/45/45
f 46/46/46 38/38/38 35/35/35
f 49/49/49 48/48/48 47/47/47
f 49/49/49 47/47/47 50/50/50
f 53/53/53 52/52/52 51/51/51
f 52/52/52 54/54/54 51/51/51
f 57/57/57 56/56/56 55/55/55
f 56/56/56 58/58/58 55/55/55
f 55/55/55 58/58/58 59/59/59
f 58/58/58 60/60/60 59/59/59
f 63/63/63 62/62/62 61/61/61
f 63/63/63 61/61/61 64/64/64
f 67/67/67 66/66/66 65/65/65
f 66/66/66 68/68/68 65/65/65
f 70/70/70 69/69/69 2/2/2
f 70/70/70 2/2/2 3/3/3
f 5/5/5 8/8/8 71/71/71
f 8/8/8 72/72/72 71/71/71
f 22/22/22 73/73/73 24/24/24
f 73/73/73 74/74/74 24/24/24
f 24/24/24 74/74/74 26/26/26
f 74/74/74 75/75/75 26/26/26
f 77/77/77 76/76/76 42/42/42
f 77/77/77 42/42/42 43/43/43
f 33/33/33 31/31/31 78/78/78
f 31/31/31 79/79/79 78/78/78
f 81/81/81 80/80/80 69/69/69
f 81/81/81 69/69/69 70/70/70
f 50/50/50 47/47/47 80/80/80
f 50/50/50 80/80/80 81/81/81
f 71/71/71 72/72/72 82/82/82
f 72/72/72 83/83/83 82/82/82
f 82/82/82 83/83/83 53/53/53
f 83/83/83 52/52/52 53/53/53
f 85/85/85 57/57/57 84/84/84
f 57/57/57 55/55/55 84/84/84
f 73/73/73 85/85/85 74/74/74
f 85/85/85 84/84/84 74/74/74
f 84/84/84 55/55/55 86/86/86
f 55/55/55 59/59/59 86/86/86
f 74/74/74 84/84/84 75/75/75
f 84/84/84 86/86/86 75/75/75
f 88/88/88 87/87/87 76/76/76
f 88/88/88 76/76/76 77/77/77
f 64/64/64 61/61/61 87/87/87
f 64/64/64 87/87/87 88/88/88
f 78/78/78 79/79/79 89/89/89
f 79/79/79 90/90/90 89/89/89
f 89/89/89 90/90/90 67/67/67
f 90/90/90 66/66/66 67/67/67
f 93/93/93 92/92/92 91/91/91
f 92/92/92 94/94/94 91/91/91
f 28/28/28 93/93/93 30/30/30
f 93/93/93 91/91/91 30/30/30
f 96/96/96 95/95/95 31/31/31
f 95/95/95 97/97/97 31/31/31
f 32/32/32 96/96/96 31/31/31
f 100/100/100 99/99/99 98/98/98
f 100/100/100 98/98/98 101/101/101
f 36/36/36 100/100/100 101/101/101
f 36/36/36 101/101/101 35/35/35
f 103/103/103 102/102/102 93/93/93
f 102/102/102 92/92/92 93/93/93
f 39/39/39 103/103/103 28/28/28
f 103/103/103 93/93/93 28/28/28
f 42/42/42 105/105/105 104/104/104
f 42/42/42 104/104/104 106/106/106
f 42/42/42 106/106/106 41/41/41
f 101/101/101 98/98/98 107/107/107
f 101/101/101 107/107/107 108/108/108
f 35/35/35 101/101/101 108/108/108
f 35/35/35 108/108/108 45/45/45
f 111/111/111 110/110/110 109/109/109
f 111/111/111 109/109/109 61/61/61
f 62/62/62 111/111/111 61/61/61
f 66/66/66 113/113/113 112/112/112
f 113/113/113 114/114/114 112/112/112
f 66/66/66 112/112/112 68/68/68
f 117/117/117 116/116/116 115/115/115
f 117/117/117 118/118/118 116/116/116
f 121/121/121 120/120/120 119/119/119
f 121/121/121 122/122/122 120/120/120
f 125/125/125 124/124/124 123/123/123
f 125/125/125 126/126/126 124/124/124
f 129/129/129 128/128/128 127/127/127
f 129/129/129 130/130/130 128/128/128
f 133/133/133 132/132/132 131/131/131
f 133/133/133 134/134/134 132/132/132
f 136/136/136 17/17/17 135/135/135
f 17/17/17 15/15/15 135/135/135
f 92/92/92 136/136/136 94/94/94
f 136/136/136 135/135/135 94/94/94
f 138/138/138 7/7/7 137/137/137
f 7/7/7 5/5/5 137/137/137
f 95/95/95 138/138/138 97/97/97
f 138/138/138 137/137/137 97/97/97
f 139/139/139 14/14/14 11/11/11
f 139/139/139 11/11/11 140/140/140
f 99/99/99 139/139/139 140/140/140
f 99/99/99 140/140/140 98/98/98
f 141/141/141 20/20/20 136/136/136
f 20/20/20 17/17/17 136/136/136
f 102/102/102 141/141/141 92/92/92
f 141/141/141 136/136/136 92/92/92
f 142/142/142 3/3/3 4/4/4
f 142/142/142 4/4/4 143/143/143
f 105/105/105 142/142/142 143/143/143
f 105/105/105 143/143/143 104/104/104
f 140/140/140 11/11/11 12/12/12
f 140/140/140 12/12/12 144/144/144
f 98/98/98 140/140/140 144/144/144
f 98/98/98 144/144/144 107/107/107
f 145/145/145 49/49/49 50/50/50
f 145/145/145 50/50/50 146/146/146
f 110/110/110 145/145/145 146/146/146
f 110/110/110 146/146/146 109/109/109
f 148/148/148 53/53/53 147/147/147
f 53/53/53 51/51/51 147/147/147
f 113/113/113 148/148/148 114/114/114
f 148/148/148 147/147/147 114/114/114
f 149/149/149 70/70/70 3/3/3
f 149/149/149 3/3/3 142/142/142
f 150/150/150 149/149/149 142/142/142
f 150/150/150 142/142/142 105/105/105
f 137/137/137 5/5/5 151/151/151
f 5/5/5 71/71/71 151/151/151
f 97/97/97 137/137/137 152/152/152
f 137/137/137 151/151/151 152/152/152
f 153/153/153 81/81/81 70/70/70
f 153/153/153 70/70/70 149/149/149
f 154/154/154 153/153/153 149/149/149
f 154/154/154 149/149/149 150/150/150
f 146/146/146 50/50/50 81/81/81
f 146/146/146 81/81/81 153/153/153
f 109/109/109 146/146/146 153/153/153
f 109/109/109 153/153/153 154/154/154
f 151/151/151 71/71/71 155/155/155
f 71/71/71 82/82/82 155/155/155
f 152/152/152 151/151/151 156/156/156
f 151/151/151 155/155/155 156/156/156
f 155/155/155 82/82/82 148/148/148
f 82/82/82 53/53/53 148/148/148
f 156/156/156 155/155/155 113/113/113
f 155/155/155 148/148/148 113/113/113
g pb_Mesh96342_1
f 159/159/159 158/158/158 157/157/157
f 159/159/159 160/160/160 158/158/158
f 160/160/160 161/161/161 158/158/158
f 160/160/160 162/162/162 161/161/161
f 162/162/162 163/163/163 161/161/161
f 162/162/162 164/164/164 163/163/163
g pb_Mesh96342_2
f 167/167/167 166/166/166 165/165/165
f 167/167/167 165/165/165 168/168/168
f 170/170/170 169/169/169 166/166/166
f 170/170/170 166/166/166 167/167/167
f 173/173/173 172/172/172 171/171/171
f 173/173/173 171/171/171 174/174/174
f 176/176/176 175/175/175 172/172/172
f 176/176/176 172/172/172 173/173/173
f 166/166/166 178/178/178 177/177/177
f 166/166/166 177/177/177 165/165/165
f 169/169/169 179/179/179 178/178/178
f 169/169/169 178/178/178 166/166/166
f 180/180/180 173/173/173 174/174/174
f 180/180/180 174/174/174 181/181/181
f 178/178/178 180/180/180 181/181/181
f 178/178/178 181/181/181 177/177/177
f 182/182/182 176/176/176 173/173/173
f 182/182/182 173/173/173 180/180/180
f 179/179/179 182/182/182 180/180/180
f 179/179/179 180/180/180 178/178/178
