g pb_Mesh101306
v 9.999848 -1 -16.000101
v 19.99985 -1 -16.000196
v 19.999773 -1 -24.000193
v 9.999772 -1 -24.0001
v 9.999981 -1 -2.0000968
v 19.99998 -1 -2.0001922
v 29.999851 -1 -16.000292
v 29.99998 -1 -2.0002873
v 19.99998 22 -2.0001893
v 19.999983 6 -2.00019
v 9.999982 22 -2.0000944
v 9.999982 6 -2.0000954
v 9.999773 22 -24.000095
v 19.999773 6 -24.00019
v 19.999773 22 -24.000189
v 9.999774 6 -24.000095
v 9.999982 6 -2.0000954
v 9.999851 6 -16.000095
v 9.999849 22 -16.000095
v 9.999982 22 -2.0000944
v 9.999774 6 -24.000095
v 9.999773 22 -24.000095
v 19.999773 22 -24.000189
v 19.999851 6 -16.00019
v 19.99985 22 -16.000189
v 19.999773 6 -24.00019
v 29.999857 22 -16.000284
v 29.999983 6 -2.000285
v 29.99998 22 -2.0002842
v 29.999857 6 -16.000284
v 29.999983 6 -2.000285
v 29.99998 22 -2.0002842
v 19.99985 22 -16.000189
v 29.999857 6 -16.000284
v 29.999857 22 -16.000284
v 19.999851 6 -16.00019
v 22.99982 -1 -19.000223
v 29.999823 -1 -19.000288
v 22.999773 -1 -24.000225
v 19.99998 -1 -2.0001922
v 9.999981 -1 -2.0000968
v 19.99998 3 -2.0001898
v 9.999981 3 -2.0000958
v 19.999773 3 -24.00019
v 9.999773 3 -24.000095
v 9.999772 -1 -24.0001
v 19.999773 -1 -24.000193
v 9.999981 -1 -2.0000968
v 9.999848 -1 -16.000101
v 9.99985 3 -16.000095
v 9.999981 3 -2.0000958
v 9.999772 -1 -24.0001
v 9.999773 3 -24.000095
v 24.999111 0.5 -24.000275
v 24.999222 -1 -21.000927
v 24.999222 0.5 -21.000929
v 24.999111 -1 -24.000275
v 22.999773 6 -24.000221
v 22.99982 3 -19.00022
v 22.99982 6 -19.00022
v 22.999773 3 -24.000221
v 29.99998 3 -2.0002847
v 29.999855 3 -16.000284
v 29.999851 -1 -16.000292
v 29.99998 -1 -2.0002873
v 29.99998 -1 -2.0002873
v 29.99998 3 -2.0002847
v 24.999222 0.5 -21.000929
v 31.999224 -1 -21.001186
v 31.999224 0.5 -21.001188
v 24.999222 -1 -21.000927
v 22.99982 6 -19.00022
v 29.999823 3 -19.000284
v 29.999823 6 -19.000284
v 22.99982 3 -19.00022
v 22.999773 3 -24.000221
v 22.999773 6 -24.000221
v 22.999773 -1 -24.000225
v 31.999409 0.5 -16.000345
v 31.999224 0.5 -21.001188
v 31.999224 -1 -21.001186
v 31.999409 -1 -16.000345
v 29.999823 6 -19.000284
v 29.999855 3 -16.000284
v 29.999857 6 -16.000284
v 29.999823 3 -19.000284
v 24.999222 -1 -21.000927
v 31.999224 -1 -21.001186
v 22.99982 3 -19.00022
v 22.999773 3 -24.000221
v 24.999222 0.5 -21.000929
v 24.999111 0.5 -24.000275
v 22.999773 3 -24.000221
v 22.999773 -1 -24.000225
v 24.999111 0.5 -24.000275
v 24.999111 -1 -24.000275
v 24.999111 -1 -24.000275
v 31.999409 -1 -16.000345
v 29.999823 3 -19.000284
v 22.99982 3 -19.00022
v 31.999224 0.5 -21.001188
v 24.999222 0.5 -21.000929
v 29.999855 3 -16.000284
v 29.999823 3 -19.000284
v 31.999409 0.5 -16.000345
v 31.999224 0.5 -21.001188
v 29.999851 -1 -16.000292
v 29.999855 3 -16.000284
v 31.999409 -1 -16.000345
v 31.999409 0.5 -16.000345
v 19.99985 22 -16.000189
v 9.999982 22 -2.0000944
v 9.999849 22 -16.000095
v 19.99998 22 -2.0001893
v 19.999773 22 -24.000189
v 9.999773 22 -24.000095
v 29.99998 22 -2.0002842
v 29.999857 22 -16.000284
v 19.999851 6 -16.00019
v 19.999773 6 -24.00019
v 22.99982 6 -19.00022
v 22.999773 6 -24.000221
v 29.999857 6 -16.000284
v 29.999823 6 -19.000284
vt 9.999848 -16.000101
vt 19.99985 -16.000196
vt 19.999773 -24.000193
vt 9.999772 -24.0001
vt 9.999981 -2.0000968
vt 19.99998 -2.0001922
vt 29.999851 -16.000292
vt 29.99998 -2.0002873
vt 20 22
vt 20.000002 5.9999995
vt 10.000001 22
vt 10.000001 5.9999995
vt -10 21.99999
vt -20 5.9999914
vt -20 21.99999
vt -10.000001 5.9999914
vt -2.0000005 6.0000024
vt -16 6.0000024
vt -16 22.000002
vt -1.9999994 22.000002
vt -24 6.0000024
vt -24 22.000002
vt 23.999998 21.999998
vt 16 5.9999976
vt 15.999998 21.999998
vt 24 5.9999976
vt 16.000015 22.000015
vt 2.0000165 6.000015
vt 2.0000157 22.000015
vt 16.000015 6.000015
vt 30.000002 5.9999995
vt 30 22
vt -20.000002 22
vt -30.00001 6
vt -30.00001 22
vt -20.000004 6
vt 22.99982 -19.000223
vt 29.999823 -19.000288
vt 22.999773 -24.000225
vt 20 -1.0000004
vt 10 -1.0000004
vt 20 2.9999995
vt 10 2.9999995
vt -20 2.9999914
vt -10 2.9999914
vt -9.999999 -1.0000086
vt -20 -1.0000086
vt -2.000002 -0.9999977
vt -16.000006 -0.9999977
vt -16 3.0000024
vt -2.000001 3.0000024
vt -24.000004 -0.9999977
vt -24 3.0000024
vt 23.999353 0.5
vt 21.000006 -1
vt 21.000008 0.5
vt 23.999353 -1
vt 24.000002 6
vt 19 3
vt 19 6
vt 24.000002 3
vt 2.0000162 3.0000148
vt 16.000015 3.0000148
vt 16.000023 -0.9999853
vt 2.0000188 -0.9999853
vt 30 -1.0000004
vt 30 2.9999995
vt -25 0.5000267
vt -32.000004 -0.9999733
vt -32.000004 0.5000267
vt -25 -0.9999733
vt -22.999996 6
vt -29.999998 3
vt -29.999998 6
vt -22.999996 3
vt -23.000017 2.9999886
vt -23.000017 5.9999886
vt -23.000017 -1.0000114
vt 15.999162 0.5
vt 21.000004 0.5
vt 21.000002 -1
vt 15.999162 -1
vt 18.99994 6.000019
vt 15.999941 3.000019
vt 15.999941 6.000019
vt 18.99994 3.000019
vt 24.999222 -21.000927
vt 31.999224 -21.001186
vt 19 -12.022574
vt 24.000002 -12.022574
vt 21.00069 -15.223774
vt 24.000036 -15.223723
vt -23.000385 2.999977
vt -23.000385 -1.0000229
vt -24.999723 0.4999771
vt -24.999723 -1.0000229
vt 24.999111 -24.000275
vt 31.999409 -16.000345
vt -29.999998 -9.530213
vt -22.999996 -9.530213
vt -31.999418 -12.732329
vt -24.999416 -12.732207
vt 15.99996 -16.395508
vt 18.99996 -16.395508
vt 15.999999 -19.59679
vt 21.000843 -19.596708
vt 30.000278 -1.0000305
vt 30.000282 2.9999695
vt 31.999836 -1.0000305
vt 31.999836 0.49996948
vt -19.99985 -16.000189
vt -9.999982 -2.0000944
vt -9.999849 -16.000095
vt -19.99998 -2.0001893
vt -19.999773 -24.000189
vt -9.999773 -24.000095
vt -29.99998 -2.0002842
vt -29.999857 -16.000284
vt -19.999851 -16.00019
vt -19.999773 -24.00019
vt -22.99982 -19.00022
vt -22.999773 -24.000221
vt -29.999857 -16.000284
vt -29.999823 -19.000284
vn -0 -1 0
vn -0 -1 0
vn -0 -1 0
vn -0 -1 0
vn -0 -1 0
vn -0 -1 0
vn -0 -1 0
vn -0 -1 0
vn 9.48906E-06 -4.470235E-08 1
vn 9.4771385E-06 -5.2153496E-08 1
vn 9.4771385E-06 -5.2153496E-08 1
vn 9.465217E-06 -5.9604645E-08 1
vn -9.441376E-06 5.960436E-08 -1
vn -9.441376E-06 5.960436E-08 -1
vn -9.3460085E-06 1.1920929E-07 -1
vn -9.536744E-06 -5.6843424E-13 -1
vn -1 -5.960493E-08 9.400504E-06
vn -1 -1.1920929E-07 9.332384E-06
vn -1 -5.960493E-08 9.400504E-06
vn -1 -5.643739E-13 9.468623E-06
vn -1 -5.9604645E-08 9.655952E-06
vn -1 -8.940697E-08 9.596348E-06
vn 1 5.9605796E-08 -9.655952E-06
vn 1 5.9605796E-08 -9.655952E-06
vn 1 1.1921043E-07 -9.536743E-06
vn 1 1.1652901E-12 -9.775162E-06
vn 1 5.960491E-08 -8.923667E-06
vn 1 5.960491E-08 -8.923667E-06
vn 1 1.1920982E-07 -8.855547E-06
vn 1 0 -8.991787E-06
vn 9.489059E-06 -4.4702354E-08 1
vn 9.489059E-06 -4.4702354E-08 1
vn -9.44137E-06 5.9604087E-08 -1
vn -9.44137E-06 5.9604087E-08 -1
vn -9.536736E-06 0 -1
vn -9.346003E-06 1.19208174E-07 -1
vn -0 -1 0
vn -0 -1 0
vn -0 -1 0
vn 9.536743E-06 -5.9604645E-07 1
vn 9.465218E-06 -4.172325E-07 1
vn 9.465218E-06 -4.172325E-07 1
vn 9.393692E-06 -2.3841858E-07 1
vn -9.441375E-06 7.152569E-07 -1
vn -9.536743E-06 9.536766E-07 -1
vn -9.441375E-06 7.152569E-07 -1
vn -9.346008E-06 4.7683716E-07 -1
vn -1 2.3841069E-07 9.400503E-06
vn -1 4.768236E-07 9.468621E-06
vn -1 2.3841069E-07 9.400503E-06
vn -1 -2.2250138E-12 9.332384E-06
vn -1 3.5761644E-07 9.59635E-06
vn -1 2.3840937E-07 9.655952E-06
vn 1 -2.3449865E-11 -3.6883437E-05
vn 1 -2.3449865E-11 -3.6883437E-05
vn 1 -4.689973E-11 -3.688345E-05
vn 1 0 -3.6883426E-05
vn 1 0 -9.5367395E-06
vn 1 0 -9.5367395E-06
vn 1 0 -9.5367395E-06
vn 1 0 -9.5367395E-06
vn 1 -4.7682553E-07 -9.1280235E-06
vn 1 -9.5365715E-07 -8.991787E-06
vn 1 -4.7682553E-07 -9.1280235E-06
vn 1 6.0741234E-12 -9.264261E-06
vn 9.50098E-06 -6.2584877E-07 1
vn 9.489059E-06 -6.556511E-07 1
vn -3.705705E-05 -1.2715658E-06 -1
vn -3.705705E-05 -1.2715658E-06 -1
vn -3.705705E-05 -1.2715658E-06 -1
vn -3.705705E-05 -1.2715658E-06 -1
vn -9.264262E-06 0 -1
vn -9.264262E-06 0 -1
vn -9.264262E-06 0 -1
vn -9.264262E-06 0 -1
vn -1.0172526E-05 0 -1
vn -1.0172526E-05 0 -1
vn -1.04904175E-05 7.1525574E-07 -1
vn 1 -2.352163E-11 -3.699633E-05
vn 1 -4.704326E-11 -3.6996327E-05
vn 1 -2.352163E-11 -3.699633E-05
vn 1 0 -3.6996338E-05
vn 1 -3.1789145E-07 -1.11262E-05
vn 1 -3.1789145E-07 -1.11262E-05
vn 1 -6.357829E-07 -1.1444092E-05
vn 1 0 -1.0808309E-05
vn -0 -1 0
vn -0 -1 0
vn 0.78095716 0.62458456 -7.447785E-06
vn 0.7809634 0.6245768 -1.812632E-05
vn 0.7809634 0.6245768 -1.812632E-05
vn 0.7809697 0.624569 -2.8804856E-05
vn -2.5519234E-05 9.536743E-07 -1
vn -2.5161487E-05 4.7683716E-07 -1
vn -2.5161487E-05 4.7683716E-07 -1
vn -2.480374E-05 0 -1
vn -0 -1 0
vn -0 -1 0
vn -7.232924E-06 0.62486374 -0.7807339
vn -1.8083016E-05 0.6248399 -0.7807529
vn -1.8083016E-05 0.6248399 -0.7807529
vn -2.8933107E-05 0.62481606 -0.780772
vn 0.78093684 0.62461007 -8.4406065E-06
vn 0.7809428 0.62460256 -1.866642E-05
vn 0.7809428 0.62460256 -1.866642E-05
vn 0.7809488 0.6245951 -2.8892235E-05
vn 2.670879E-05 -1.907374E-06 1
vn 2.8616589E-05 -9.53687E-07 1
vn 2.8616589E-05 -9.53687E-07 1
vn 3.052439E-05 0 1
vn -0 1 0
vn -0 1 0
vn -0 1 0
vn -0 1 0
vn -0 1 0
vn -0 1 0
vn -0 1 0
vn -0 1 0
vn -0 1 0
vn -0 1 0
vn -0 1 0
vn -0 1 0
vn -0 1 0
vn -0 1 0
g pb_Mesh101306_0
f 3/3/3 2/2/2 1/1/1
f 3/3/3 1/1/1 4/4/4
f 2/2/2 6/6/6 5/5/5
f 2/2/2 5/5/5 1/1/1
f 7/7/7 6/6/6 2/2/2
f 7/7/7 8/8/8 6/6/6
f 11/11/11 10/10/10 9/9/9
f 11/11/11 12/12/12 10/10/10
f 15/15/15 14/14/14 13/13/13
f 14/14/14 16/16/16 13/13/13
f 19/19/19 18/18/18 17/17/17
f 19/19/19 17/17/17 20/20/20
f 22/22/22 21/21/21 18/18/18
f 22/22/22 18/18/18 19/19/19
f 25/25/25 24/24/24 23/23/23
f 24/24/24 26/26/26 23/23/23
f 29/29/29 28/28/28 27/27/27
f 28/28/28 30/30/30 27/27/27
f 9/9/9 10/10/10 31/31/31
f 9/9/9 31/31/31 32/32/32
f 35/35/35 34/34/34 33/33/33
f 34/34/34 36/36/36 33/33/33
f 37/37/37 7/7/7 2/2/2
f 37/37/37 38/38/38 7/7/7
f 39/39/39 2/2/2 3/3/3
f 39/39/39 37/37/37 2/2/2
f 42/42/42 41/41/41 40/40/40
f 42/42/42 43/43/43 41/41/41
f 12/12/12 42/42/42 10/10/10
f 12/12/12 43/43/43 42/42/42
f 46/46/46 45/45/45 44/44/44
f 47/47/47 46/46/46 44/44/44
f 44/44/44 45/45/45 16/16/16
f 14/14/14 44/44/44 16/16/16
f 50/50/50 49/49/49 48/48/48
f 50/50/50 48/48/48 51/51/51
f 18/18/18 50/50/50 51/51/51
f 18/18/18 51/51/51 17/17/17
f 50/50/50 52/52/52 49/49/49
f 50/50/50 53/53/53 52/52/52
f 21/21/21 53/53/53 50/50/50
f 21/21/21 50/50/50 18/18/18
f 56/56/56 55/55/55 54/54/54
f 55/55/55 57/57/57 54/54/54
f 60/60/60 59/59/59 58/58/58
f 59/59/59 61/61/61 58/58/58
f 64/64/64 63/63/63 62/62/62
f 64/64/64 62/62/62 65/65/65
f 63/63/63 30/30/30 28/28/28
f 63/63/63 28/28/28 62/62/62
f 42/42/42 40/40/40 66/66/66
f 42/42/42 66/66/66 67/67/67
f 10/10/10 67/67/67 31/31/31
f 10/10/10 42/42/42 67/67/67
f 70/70/70 69/69/69 68/68/68
f 69/69/69 71/71/71 68/68/68
f 74/74/74 73/73/73 72/72/72
f 73/73/73 75/75/75 72/72/72
f 77/77/77 76/76/76 14/14/14
f 76/76/76 44/44/44 14/14/14
f 76/76/76 78/78/78 44/44/44
f 78/78/78 47/47/47 44/44/44
f 81/81/81 80/80/80 79/79/79
f 82/82/82 81/81/81 79/79/79
f 85/85/85 84/84/84 83/83/83
f 84/84/84 86/86/86 83/83/83
f 87/87/87 38/38/38 37/37/37
f 87/87/87 88/88/88 38/38/38
f 91/91/91 90/90/90 89/89/89
f 91/91/91 92/92/92 90/90/90
f 95/95/95 94/94/94 93/93/93
f 95/95/95 96/96/96 94/94/94
f 97/97/97 37/37/37 39/39/39
f 97/97/97 87/87/87 37/37/37
f 88/88/88 7/7/7 38/38/38
f 88/88/88 98/98/98 7/7/7
f 101/101/101 100/100/100 99/99/99
f 101/101/101 102/102/102 100/100/100
f 105/105/105 104/104/104 103/103/103
f 105/105/105 106/106/106 104/104/104
f 109/109/109 108/108/108 107/107/107
f 109/109/109 110/110/110 108/108/108
g pb_Mesh101306_1
f 113/113/113 112/112/112 111/111/111
f 112/112/112 114/114/114 111/111/111
f 116/116/116 113/113/113 115/115/115
f 113/113/113 111/111/111 115/115/115
f 117/117/117 111/111/111 114/114/114
f 117/117/117 118/118/118 111/111/111
f 121/121/121 120/120/120 119/119/119
f 121/121/121 122/122/122 120/120/120
f 124/124/124 119/119/119 123/123/123
f 124/124/124 121/121/121 119/119/119
