g pb_Mesh65168
v 9.999493 -0.9995616 -7.0006723
v 9.999771 -0.99956167 -8.000096
v 9.999644 6 -7.000672
v 9.999924 6 -8.0000925
v 15.99931 -1.0004725 -8.00021
v 15.999378 -1.0004725 -7.0010757
v 15.999462 6 -8.000205
v 15.99953 6 -7.0010753
v 15.999603 -1.0004725 -7.0009384
v 14.999603 -1.0003207 -7.000916
v 14.999754 6.0000005 -7.000915
v 15.999754 5.9999995 -7.0009375
v 14.999378 -1.0003207 -7.0010076
v 9.999493 -0.9995616 -7.0006723
v 9.999644 6 -7.000672
v 14.99953 6 -7.001008
v 9.999924 6 -8.0000925
v 14.99931 -1.0003207 -8.000287
v 14.999462 6 -8.000283
v 9.999771 -0.99956167 -8.000096
v 14.999462 6 -8.000283
v 15.99931 -1.0004725 -8.00021
v 15.999462 6 -8.000205
v 14.99931 -1.0003207 -8.000287
v 14.999462 6 -8.000283
v 15.999462 6 -8.000205
v 15.99953 6 -7.0010753
v 14.99953 6 -7.001008
v 9.999644 6 -7.000672
v 9.999924 6 -8.0000925
v 14.999378 -1.0003207 -7.0010076
v 14.99953 6 -7.001008
v 14.999603 -1.0003207 -7.000916
v 14.999754 6.0000005 -7.000915
v 15.99953 6 -7.0010753
v 15.999378 -1.0004725 -7.0010757
v 15.999754 5.9999995 -7.0009375
v 15.999603 -1.0004725 -7.0009384
v 14.99953 6 -7.001008
v 15.99953 6 -7.0010753
v 14.999754 6.0000005 -7.000915
v 15.999754 5.9999995 -7.0009375
v 14.999378 -1.0003207 -7.0010076
v 15.999378 -1.0004725 -7.0010757
v 14.99931 -1.0003207 -8.000287
v 15.99931 -1.0004725 -8.00021
v 9.999771 -0.99956167 -8.000096
v 9.999493 -0.9995616 -7.0006723
v 15.999378 -1.0004725 -7.0010757
v 14.999378 -1.0003207 -7.0010076
v 15.999603 -1.0004725 -7.0009384
v 14.999603 -1.0003207 -7.000916
vt -7.003458 -0.999345
vt -8.002882 -0.99934506
vt -7.0034575 6.0002165
vt -8.002878 6.0002165
vt 7.99911 -1.0001239
vt 6.999976 -1.0001239
vt 7.9991055 6.0003486
vt 6.9999757 6.0003486
vt 15.999761 -1.0004735
vt 14.999761 -1.0003216
vt 14.999911 5.9999995
vt 15.999911 5.9999986
vt 14.999847 -1.0003211
vt 9.999962 -0.9995621
vt 10.0001135 5.9999995
vt 14.999999 5.9999995
vt -9.9997635 5.999995
vt -14.999149 -1.0003256
vt -14.999302 5.999995
vt -9.999611 -0.99956656
vt -14.999302 5.999995
vt -15.999149 -1.0004774
vt -15.999302 5.999995
vt -14.999149 -1.0003256
vt -14.999462 -8.000283
vt -15.999462 -8.000205
vt -15.99953 -7.0010753
vt -14.99953 -7.001008
vt -9.999644 -7.000672
vt -9.999924 -8.0000925
vt 11.255889 -1.0002209
vt 11.256029 6.0000997
vt 11.256131 -1.0002209
vt 11.256271 6.0001
vt -9.961998 6.000162
vt -9.961868 -1.0003107
vt -9.962261 6.0001616
vt -9.962132 -1.0003107
vt -14.999532 -6.970152
vt -15.999532 -6.970219
vt -14.999756 -6.970059
vt -15.999756 -6.9700813
vt 14.99953 -7.0010076
vt 15.99953 -7.0010757
vt 14.999461 -8.000287
vt 15.999461 -8.00021
vt 9.999923 -8.000096
vt 9.999644 -7.0006723
vt 15.99953 -7.001324
vt 14.99953 -7.001256
vt 15.999755 -7.001187
vt 14.999755 -7.0011644
vn -0.99999994 2.1663403E-05 -0.00027863338
vn -0.99999994 2.1731594E-05 -0.00027911097
vn -0.99999994 2.1731594E-05 -0.00027911097
vn -0.99999994 2.1799784E-05 -0.00027958854
vn 1 -2.1796754E-05 -6.872406E-05
vn 1 -2.1728658E-05 -6.8246954E-05
vn 1 -2.1728658E-05 -6.8246954E-05
vn 1 -2.1660564E-05 -6.776985E-05
vn 2.2411336E-05 -1.3671385E-07 1
vn 2.2411326E-05 -1.3671533E-07 1
vn 2.2411336E-05 -1.3671385E-07 1
vn 2.2411346E-05 -1.3671239E-07 1
vn 6.714021E-05 -1.4580976E-09 1
vn 6.704483E-05 -6.957628E-08 1
vn 6.714021E-05 -1.4580976E-09 1
vn 6.723558E-05 6.6660085E-08 1
vn -3.815045E-05 5.4579294E-07 -1
vn -3.815045E-05 5.4579294E-07 -1
vn -3.8150494E-05 5.457634E-07 -1
vn -3.815041E-05 5.458225E-07 -1
vn 7.77245E-05 6.113467E-07 -1
vn 7.77245E-05 6.113467E-07 -1
vn 7.8201294E-05 6.794454E-07 -1
vn 7.72477E-05 5.43248E-07 -1
vn -0 1 0
vn -0 1 0
vn -0 1 0
vn -0 1 0
vn -0 1 0
vn -0 1 0
vn -0.37679812 8.224935E-06 0.9262954
vn -0.38000882 8.1739145E-06 0.92497635
vn -0.38000882 8.1739145E-06 0.92497635
vn -0.38321954 8.122893E-06 0.9236573
vn 0.523794 -1.1287652E-05 -0.85184497
vn 0.52232933 -1.1191314E-05 -0.85274214
vn 0.52232933 -1.1191314E-05 -0.85274214
vn 0.52086467 -1.1094977E-05 -0.8536393
vn -3.4472956E-07 0.9999868 -0.005127307
vn 3.4322454E-07 0.99999046 -0.00083439844
vn 3.4322454E-07 0.99999046 -0.00083439844
vn 1.0311786E-06 0.99999404 0.0034585102
vn -0.00015187263 -1 1.0435786E-08
vn -0.00015187263 -1 1.0436545E-08
vn -0.00015187263 -1 1.0436545E-08
vn -0.00015187263 -1 1.0437304E-08
vn -0.00015181582 -1 1.3884842E-08
vn -0.00015181651 -1 1.733785E-08
vn -0.00015185565 -1 0.00024887454
vn -0.00015185995 -1 0.00031110377
vn -0.00015185995 -1 0.00031110377
vn -0.00015186425 -0.99999994 0.00037333296
g pb_Mesh65168_0
f 3/3/3 2/2/2 1/1/1
f 3/3/3 4/4/4 2/2/2
f 7/7/7 6/6/6 5/5/5
f 7/7/7 8/8/8 6/6/6
f 11/11/11 10/10/10 9/9/9
f 11/11/11 9/9/9 12/12/12
f 15/15/15 14/14/14 13/13/13
f 15/15/15 13/13/13 16/16/16
f 19/19/19 18/18/18 17/17/17
f 18/18/18 20/20/20 17/17/17
f 23/23/23 22/22/22 21/21/21
f 22/22/22 24/24/24 21/21/21
f 27/27/27 26/26/26 25/25/25
f 28/28/28 27/27/27 25/25/25
f 28/28/28 30/30/30 29/29/29
f 28/28/28 25/25/25 30/30/30
f 33/33/33 32/32/32 31/31/31
f 33/33/33 34/34/34 32/32/32
f 37/37/37 36/36/36 35/35/35
f 37/37/37 38/38/38 36/36/36
f 41/41/41 40/40/40 39/39/39
f 41/41/41 42/42/42 40/40/40
g pb_Mesh65168_1
f 45/45/45 44/44/44 43/43/43
f 45/45/45 46/46/46 44/44/44
f 47/47/47 45/45/45 43/43/43
f 48/48/48 47/47/47 43/43/43
f 51/51/51 50/50/50 49/49/49
f 51/51/51 52/52/52 50/50/50
