g pb_Mesh66932
v -0 -2 0
v -8 -2 -8
v -8 -2 0
v -0 -2 -8
v -0 -2 8
v -8 -2 8
v -0 -2 8
v -8 -2 8
v -8 6 8
v -0 6 8
v -8 16 8
v -0 16 8
v -8 6 -8
v -0 -2 -8
v -0 6 -8
v -8 -2 -8
v -8 16 -8
v -0 16 -8
v -8 -2 8
v -8 -2 0
v -8 6 0
v -8 6 8
v -8 16 0
v -8 16 8
v -15 -2 0
v -15 -2 -8
v -15 1 -8
v -15 1 0
v -8 6 -8
v -8 16 -8
v -0 6 -8
v -0 -2 0
v -0 6 0
v -0 -2 -8
v -0 16 -8
v -0 16 0
v -0 -2 8
v -0 6 8
v -0 16 8
v -15 -2 0
v -15 -2 -8
v -15 -2 -8
v -15 1 -8
v -8 6 0
v -8 -2 0
v -15 1 0
v -15 -2 0
v -8 16 0
v -0 16 0
v -0 16 8
v -8 16 8
v -8 16 -8
v -0 16 -8
v -8 6 -8
v -8 6 0
v -15 1 -8
v -15 1 0
vt 0 0
vt -8 -8
vt -8 0
vt -0 -8
vt 0 8
vt -8 8
vt 0 -2
vt -8 -2
vt -8 6
vt 0 6
vt -8 16
vt 0 16
vt 8 6
vt 0 -2
vt 0 6
vt 8 -2
vt 8 16
vt 0 16
vt 8 -2
vt 0 -2
vt 0 6
vt 8 6
vt 0 16
vt 8 16
vt 0 -2
vt -8 -2
vt -8 1
vt 0 1
vt -8 6
vt -8 16
vt 8 6
vt 0 -2
vt 0 6
vt 8 -2
vt 8 16
vt 0 16
vt -8 -2
vt -8 6
vt -8 16
vt -15 0
vt -15 -8
vt 15 -2
vt 15 1
vt -8 6
vt -8 -2
vt -15 1
vt -15 -2
vt 8 0
vt 0 0
vt 0 8
vt 8 8
vt 8 -8
vt 0 -8
vt 3.0224385 -8
vt 3.0224385 0
vt 11.6247635 -8
vt 11.6247635 0
vn -0 -1 0
vn -0 -1 0
vn -0 -1 0
vn -0 -1 0
vn -0 -1 0
vn -0 -1 0
vn -0 0 1
vn -0 0 1
vn -0 0 1
vn -0 0 1
vn -0 0 1
vn -0 0 1
vn -0 0 -1
vn -0 0 -1
vn -0 0 -1
vn -0 0 -1
vn -0 0 -1
vn -0 0 -1
vn -1 0 0
vn -1 0 0
vn -1 0 0
vn -1 0 0
vn -1 0 0
vn -1 0 0
vn -1 0 0
vn -1 0 0
vn -1 0 0
vn -1 0 0
vn -1 0 0
vn -1 0 0
vn 1 0 0
vn 1 0 0
vn 1 0 0
vn 1 0 0
vn 1 0 0
vn 1 0 0
vn 1 0 0
vn 1 0 0
vn 1 0 0
vn -0 -1 0
vn -0 -1 0
vn -0 0 -1
vn -0 0 -1
vn -0 0 1
vn -0 0 1
vn -0 0 1
vn -0 0 1
vn -0 1 0
vn -0 1 0
vn -0 1 0
vn -0 1 0
vn -0 1 0
vn -0 1 0
vn -0.5812382 0.81373346 0
vn -0.5812382 0.81373346 0
vn -0.5812382 0.81373346 0
vn -0.5812382 0.81373346 0
g pb_Mesh66932_0
f 3/3/3 2/2/2 1/1/1
f 2/2/2 4/4/4 1/1/1
f 6/6/6 3/3/3 5/5/5
f 3/3/3 1/1/1 5/5/5
f 9/9/9 8/8/8 7/7/7
f 9/9/9 7/7/7 10/10/10
f 11/11/11 9/9/9 10/10/10
f 11/11/11 10/10/10 12/12/12
f 15/15/15 14/14/14 13/13/13
f 14/14/14 16/16/16 13/13/13
f 18/18/18 15/15/15 17/17/17
f 15/15/15 13/13/13 17/17/17
f 21/21/21 20/20/20 19/19/19
f 21/21/21 19/19/19 22/22/22
f 23/23/23 21/21/21 22/22/22
f 23/23/23 22/22/22 24/24/24
f 27/27/27 26/26/26 25/25/25
f 27/27/27 25/25/25 28/28/28
f 30/30/30 29/29/29 21/21/21
f 30/30/30 21/21/21 23/23/23
f 33/33/33 32/32/32 31/31/31
f 32/32/32 34/34/34 31/31/31
f 36/36/36 33/33/33 35/35/35
f 33/33/33 31/31/31 35/35/35
f 38/38/38 37/37/37 33/33/33
f 37/37/37 32/32/32 33/33/33
f 39/39/39 38/38/38 36/36/36
f 38/38/38 33/33/33 36/36/36
f 40/40/40 2/2/2 3/3/3
f 40/40/40 41/41/41 2/2/2
f 42/42/42 13/13/13 16/16/16
f 42/42/42 43/43/43 13/13/13
f 46/46/46 45/45/45 44/44/44
f 46/46/46 47/47/47 45/45/45
g pb_Mesh66932_1
f 50/50/50 49/49/49 48/48/48
f 50/50/50 48/48/48 51/51/51
f 49/49/49 53/53/53 52/52/52
f 49/49/49 52/52/52 48/48/48
f 56/56/56 55/55/55 54/54/54
f 56/56/56 57/57/57 55/55/55
