g pb_Mesh81674
v 10 -4 6
v -2 -4 6
v 10 9 6
v -2 9 6
v -2 -4 0
v -2 -4 -3
v -2 2 0
v -2 -2 -3
v -2 -4 -3
v 10 -4 -3
v -2 -2 -3
v 10 -2 -3
v 10 -4 -3
v 10 -4 0
v 10 -2 -3
v 10 2 0
v 10 -4 -3
v -2 -4 -3
v 10 -4 0
v -2 -4 0
v 10 -4 6
v -2 -4 6
v 10 9 6
v 10 -4 6
v -2 -4 6
v -2 9 6
v -2 2 0
v 10 2 0
v -2 9 6
v 10 9 6
v 10 2 0
v -2 2 0
v 10 -2 -3
v -2 -2 -3
vt 10 -4
vt -2 -4
vt 10 9
vt -2 9
vt 0 -4
vt -3 -4
vt 0 2
vt -3 -2
vt 2 -4
vt -10 -4
vt 2 -2
vt -10 -2
vt 3 -4
vt -0 -4
vt 3 -2
vt 0 2
vt 10 -3
vt -2 -3
vt 10 0
vt -2 0
vt 10 6
vt -2 6
vt -6 9
vt -6 -4
vt 6 -4
vt 6 9
vt 2 1.5185133
vt -10 1.5185133
vt 2 10.738058
vt -10 10.738058
vt -10 1.6
vt 2 1.6
vt -10 -3.3999999
vt 2 -3.3999999
vn -0 0 1
vn -0 0 1
vn -0 0 1
vn -0 0 1
vn -1 0 0
vn -1 0 0
vn -1 0 0
vn -1 0 0
vn -0 0 -1
vn -0 0 -1
vn -0 0 -1
vn -0 0 -1
vn 1 0 0
vn 1 0 0
vn 1 0 0
vn 1 0 0
vn -0 -1 0
vn -0 -1 0
vn -0 -1 0
vn -0 -1 0
vn -0 -1 0
vn -0 -1 0
vn 1 0 0
vn 1 0 0
vn -1 0 0
vn -1 0 0
vn -0 0.65079135 -0.7592566
vn -0 0.65079135 -0.7592566
vn -0 0.65079135 -0.7592566
vn -0 0.65079135 -0.7592566
vn -0 0.6 -0.8
vn -0 0.6 -0.8
vn -0 0.6 -0.8
vn -0 0.6 -0.8
g pb_Mesh81674_0
f 3/3/3 2/2/2 1/1/1
f 3/3/3 4/4/4 2/2/2
f 7/7/7 6/6/6 5/5/5
f 7/7/7 8/8/8 6/6/6
f 11/11/11 10/10/10 9/9/9
f 11/11/11 12/12/12 10/10/10
f 15/15/15 14/14/14 13/13/13
f 15/15/15 16/16/16 14/14/14
f 19/19/19 18/18/18 17/17/17
f 19/19/19 20/20/20 18/18/18
f 21/21/21 20/20/20 19/19/19
f 21/21/21 22/22/22 20/20/20
f 23/23/23 14/14/14 16/16/16
f 23/23/23 24/24/24 14/14/14
f 25/25/25 7/7/7 5/5/5
f 25/25/25 26/26/26 7/7/7
f 29/29/29 28/28/28 27/27/27
f 29/29/29 30/30/30 28/28/28
g pb_Mesh81674_1
f 33/33/33 32/32/32 31/31/31
f 33/33/33 34/34/34 32/32/32
