g pb_Mesh-325668
v -0.74999964 -3 0.24999985
v -0.99999964 -3 0.24999976
v -0.7499996 17 0.24999997
v -0.9999996 17 0.25000003
v -0.99999964 -3 0.24999976
v -0.9999995 -3 -2.3841858E-07
v -0.9999996 17 0.25000003
v -1.0000006 17 -4.5474735E-13
v -0.9999995 -3 -2.3841858E-07
v -0.7499995 -3 -1.4901161E-07
v -1.0000006 17 -4.5474735E-13
v -0.7500006 17 -5.9604986E-08
v 1.0000005 -3 4.7683716E-07
v 1.0000004 -3 0.25000048
v 1.0000006 17 4.7683386E-07
v 0.9999997 17 0.2500005
v -0.7499996 17 0.24999997
v -0.9999996 17 0.25000003
v -0.7500006 17 -5.9604986E-08
v -1.0000006 17 -4.5474735E-13
v -0.7499995 -3 -1.4901161E-07
v -0.9999995 -3 -2.3841858E-07
v -0.74999964 -3 0.24999985
v -0.99999964 -3 0.24999976
v 0.7500005 -3 3.874302E-07
v 0.75000036 -3 0.2500004
v 1.0000005 -3 4.7683716E-07
v 1.0000004 -3 0.25000048
v 0.7500006 17 5.364384E-07
v 0.7500005 -3 3.874302E-07
v 1.0000006 17 4.7683386E-07
v 1.0000005 -3 4.7683716E-07
v 0.75000036 -3 0.2500004
v 0.7499997 17 0.25000057
v 1.0000004 -3 0.25000048
v 0.9999997 17 0.2500005
v 0.7499997 17 0.25000057
v 0.7500006 17 5.364384E-07
v 0.9999997 17 0.2500005
v 1.0000006 17 4.7683386E-07
v -0.74999964 -3 0.24999985
v -0.7499996 17 0.24999997
v -0.7499995 -3 -1.4901161E-07
v -0.7500006 17 -5.9604986E-08
v 0.7499997 17 0.25000057
v 0.75000036 -3 0.2500004
v 0.7500006 17 5.364384E-07
v 0.7500005 -3 3.874302E-07
v -0.7499996 -3 0.12499985
v -0.75000006 17 0.124999955
v 0.7500004 -3 0.12500039
v 0.7500001 17 0.12500055
vt -0.7499996 -3
vt -0.9999996 -3
vt -0.7499995 17
vt -0.99999946 17
vt -1.8749998 -3
vt -2.1249998 -3
vt -1.8749995 17
vt -2.1249995 17
vt 0.9999995 -3
vt 0.7499995 -3
vt 1.0000006 17
vt 0.7500006 17
vt 2.125 -3
vt 1.875 -3
vt 2.125 17
vt 1.875 17
vt 0.7499996 -1.875
vt 0.9999996 -1.875
vt 0.7500006 -2.125
vt 1.0000006 -2.125
vt -0.7499995 -2.1250002
vt -0.9999995 -2.1250002
vt -0.74999964 -1.8750001
vt -0.99999964 -1.8750002
vt 0.7500005 -2.1249995
vt 0.75000036 -1.8749996
vt 1.0000005 -2.1249995
vt 1.0000004 -1.8749995
vt -0.7500006 17
vt -0.7500005 -3
vt -1.0000006 17
vt -1.0000005 -3
vt 0.7500005 -3
vt 0.7499998 17
vt 1.0000005 -3
vt 0.9999998 17
vt -0.7499997 -1.8749994
vt -0.7500006 -2.1249995
vt -0.9999997 -1.8749995
vt -1.0000006 -2.1249995
vt 1.8749998 -3
vt 1.8749996 17
vt 2.1249998 -3
vt 2.1249998 17
vt -1.8750021 17
vt -1.8750023 -3
vt -2.1250021 17
vt -2.1250024 -3
vt -0.7499995 -3
vt -0.75 17
vt 0.7500005 -3
vt 0.7500002 17
vn -3.5762787E-07 -5.9604632E-09 1
vn -5.9604645E-08 -9.685754E-09 1
vn -5.9604645E-08 -9.685754E-09 1
vn 2.3841858E-07 -1.3411045E-08 1
vn -1 2.9802387E-09 -4.7683716E-07
vn -1 -2.5331996E-08 1.7881391E-06
vn -1 -2.5331996E-08 1.7881391E-06
vn -1 -5.3644232E-08 4.0531154E-06
vn 3.5762787E-07 1.1920926E-08 -1
vn 5.960487E-08 8.195622E-09 -1
vn 5.960487E-08 8.195622E-09 -1
vn -2.3841812E-07 4.4703183E-09 -1
vn 1 -5.9604646E-09 4.7683716E-07
vn 1 1.3411044E-08 2.026558E-06
vn 1 1.3411044E-08 2.026558E-06
vn 1 3.2782552E-08 3.5762785E-06
vn -0 1 0
vn -0 1 0
vn -0 1 0
vn -0 1 0
vn -0 -1 0
vn -0 -1 0
vn -0 -1 0
vn -0 -1 0
vn -0 -1 0
vn -0 -1 0
vn -0 -1 0
vn -0 -1 0
vn -2.3841812E-07 7.4504114E-09 -1
vn 5.960487E-08 3.7251222E-09 -1
vn 5.960487E-08 3.7251222E-09 -1
vn 3.5762787E-07 -1.6697754E-13 -1
vn -3.5762787E-07 -8.940708E-09 1
vn -5.9604645E-08 -5.215408E-09 1
vn -5.9604645E-08 -5.215408E-09 1
vn 2.3841858E-07 -1.4901083E-09 1
vn -0 1 0
vn -0 1 0
vn -0 1 0
vn -0 1 0
vn 1 -2.9802352E-09 4.7683716E-07
vn 1 2.533198E-08 -1.7881391E-06
vn 1 2.533198E-08 -1.7881391E-06
vn 1 5.3644197E-08 -4.0531154E-06
vn -1 -3.2782523E-08 -3.5762785E-06
vn -1 -1.3411028E-08 -2.026558E-06
vn -1 -1.3411028E-08 -2.026558E-06
vn -1 5.960468E-09 -4.7683716E-07
vn -3.5762787E-07 -5.2154148E-09 1
vn -3.7749606E-07 -6.705529E-09 1
vn -3.7749606E-07 -6.705529E-09 1
vn -3.9736426E-07 -8.195643E-09 1
g pb_Mesh-325668_0
f 3/3/3 2/2/2 1/1/1
f 3/3/3 4/4/4 2/2/2
f 7/7/7 6/6/6 5/5/5
f 7/7/7 8/8/8 6/6/6
f 11/11/11 10/10/10 9/9/9
f 11/11/11 12/12/12 10/10/10
f 15/15/15 14/14/14 13/13/13
f 15/15/15 16/16/16 14/14/14
f 19/19/19 18/18/18 17/17/17
f 19/19/19 20/20/20 18/18/18
f 23/23/23 22/22/22 21/21/21
f 23/23/23 24/24/24 22/22/22
f 27/27/27 26/26/26 25/25/25
f 27/27/27 28/28/28 26/26/26
f 31/31/31 30/30/30 29/29/29
f 31/31/31 32/32/32 30/30/30
f 35/35/35 34/34/34 33/33/33
f 35/35/35 36/36/36 34/34/34
f 39/39/39 38/38/38 37/37/37
f 39/39/39 40/40/40 38/38/38
f 43/43/43 42/42/42 41/41/41
f 43/43/43 44/44/44 42/42/42
f 47/47/47 46/46/46 45/45/45
f 47/47/47 48/48/48 46/46/46
g pb_Mesh-325668_1
f 51/51/51 50/50/50 49/49/49
f 51/51/51 52/52/52 50/50/50
