g pb_Mesh99152
v 1.7986562 0 3.7101002
v 0.819888 -3 3.9150715
v 1.3887134 6 1.7525636
v -5.0527215 6 5.1449003
v 0.56883043 -5 -2.1625137
v 3.3001606 0 -3.756192
v -4.7570977 6 -6.273859
v 3.5286922 6 -4.189226
v 0.819888 -3 3.9150715
v -0.77379465 -5 1.1837382
v -5.0527215 6 5.1449003
v -8.035115 6 0.66100204
v -0.77379465 -5 1.1837382
v 0.56883043 -5 -2.1625137
v -8.035115 6 0.66100204
v -4.7570977 6 -6.273859
v 3.5286922 6 -4.189226
v 2.2643445 0 0.4080577
v 2.2643445 6 0.4080577
v 3.3001606 0 -3.756192
v 2.2643445 6 0.4080577
v 1.7986562 0 3.7101002
v 1.3887134 6 1.7525636
v 2.2643445 0 0.4080577
v 2.2643445 0 0.4080577
v 3.3001606 0 -3.756192
v 0.56883043 -5 -2.1625137
v -0.77379465 -5 1.1837382
v 1.7986562 0 3.7101002
v 2.2643445 0 0.4080577
v -0.77379465 -5 1.1837382
v 0.819888 -3 3.9150715
v -5.0527215 6 5.1449003
v -8.035115 6 0.66100204
v 1.3887134 6 1.7525636
v 2.2643445 6 0.4080577
v -4.7570977 6 -6.273859
v 3.5286922 6 -4.189226
vt 3.535536 -0.48666394
vt 2.8284292 -3.568871
vt 2.121322 5.67775
vt -1.4142122 4.2177563
vt -0.4527126 -4.0044775
vt -3.0951798 1.2886636
vt 5.084862 7.640433
vt -3.300296 7.1022816
vt 3.9944358 -2.3223934
vt 0.94587994 -3.4650223
vt 3.6780655 8.484468
vt -1.4204369 9.489298
vt 0.94587994 -3.4650223
vt -1.9444942 -4.714357
vt -1.4204369 9.489298
vt -7.283524 6.6225166
vt 5.2650976 5.782874
vt 0.552343 -0.2605679
vt 0.552343 5.6984625
vt 4.7764897 -0.17245354
vt 0.552343 5.6984625
vt -2.6519334 -0.36831188
vt -1.0325407 5.7276444
vt 0.552343 -0.2605679
vt 0.034491565 1.0543597
vt 4.3201613 1.1536425
vt 2.2315083 -4.3785057
vt -1.3103303 -4.687794
vt -3.295513 1.1356
vt 0.034491565 1.0543597
vt -1.3103303 -4.687794
vt -3.6846755 -1.9529611
vt 5.0527215 5.1449003
vt 8.035115 0.66100204
vt -1.3887134 1.7525636
vt -2.2643445 0.4080577
vt 4.7570977 -6.273859
vt -3.5286922 -4.189226
vn -0.53256345 0.2294158 0.81470525
vn -0.037107036 0.20478341 0.8425139
vn -0.037107036 0.20478341 0.8425139
vn 0.45834938 0.180151 0.87032264
vn 0.050368544 -0.32816994 -0.9432749
vn 0.14679654 -0.20360313 -0.95500976
vn 0.14679654 -0.20360313 -0.95500976
vn 0.24322455 -0.079036325 -0.9667446
vn -0.57234204 -0.46569046 0.67494965
vn -0.6550336 -0.46467972 0.5828179
vn -0.6550336 -0.46467972 0.5828179
vn -0.7377251 -0.46366897 0.49068612
vn -0.78512126 -0.5332443 -0.31501618
vn -0.7806183 -0.5230686 -0.34093785
vn -0.7806183 -0.5230686 -0.34093785
vn -0.77611536 -0.5128929 -0.36685953
vn 0.96722233 -0.009768629 0.25325686
vn 0.96722233 -0.009768629 0.25325686
vn 0.9642003 0 0.26517496
vn 0.9702443 -0.019537259 0.24133873
vn 0.9029415 0.11452309 0.33543718
vn 0.9029415 0.11452309 0.33543718
vn 0.8156819 0.22904618 0.5312259
vn 0.9902012 0 0.13964842
vn 0.85597694 -0.43218625 0.2760516
vn 0.8839023 -0.41276798 0.21986203
vn 0.85597694 -0.43218625 0.2760516
vn 0.8280515 -0.4516045 0.33224118
vn 0.87924474 -0.40810484 -0.087592304
vn 0.85655147 -0.5017241 0.12079976
vn 0.87924474 -0.40810484 -0.087592304
vn 0.901938 -0.31448552 -0.29598436
vn -0 1 0
vn -0 1 0
vn -0 1 0
vn -0 1 0
vn -0 1 0
vn -0 1 0
g pb_Mesh99152_0
f 3/3/3 2/2/2 1/1/1
f 3/3/3 4/4/4 2/2/2
f 7/7/7 6/6/6 5/5/5
f 7/7/7 8/8/8 6/6/6
f 11/11/11 10/10/10 9/9/9
f 11/11/11 12/12/12 10/10/10
f 15/15/15 14/14/14 13/13/13
f 15/15/15 16/16/16 14/14/14
f 19/19/19 18/18/18 17/17/17
f 18/18/18 20/20/20 17/17/17
f 23/23/23 22/22/22 21/21/21
f 22/22/22 24/24/24 21/21/21
f 27/27/27 26/26/26 25/25/25
f 28/28/28 27/27/27 25/25/25
f 31/31/31 30/30/30 29/29/29
f 32/32/32 31/31/31 29/29/29
g pb_Mesh99152_1
f 35/35/35 34/34/34 33/33/33
f 35/35/35 36/36/36 34/34/34
f 36/36/36 37/37/37 34/34/34
f 36/36/36 38/38/38 37/37/37
