g pb_Mesh87236
v -0 0 0.5
v -1 0 0.5
v -0 1 0.5
v -1 1 0.5
v -1 0 0.5
v -1 0 -1
v -1 1 0.5
v -1 1 -1
v -0 0 -1
v -0 0 0.5
v -0 1 -1
v -0 1 0.5
v -0 1 0.5
v -1 1 0.5
v -0 1 -1
v -1 1 -1
v -0 0 -1
v -1 0 -1
v -0 0 0.5
v -1 0 0.5
v -1 0 -1
v -0 0 -1
v -0.8738196 0.12617874 -1
v -0.12618041 0.12617874 -1
v -1 1 -1
v -0.8738196 0.87382126 -1
v -0 1 -1
v -0.12618041 0.87382126 -1
v -0.8738196 0.12617874 -1
v -0.12618041 0.12617874 -1
v -0.8738196 0.12617874 -0.75
v -0.12618041 0.12617874 -0.75
v -0.8738196 0.87382126 -1
v -0.8738196 0.12617874 -1
v -0.8738196 0.87382126 -0.75
v -0.8738196 0.12617874 -0.75
v -0.12618041 0.12617874 -1
v -0.12618041 0.87382126 -1
v -0.12618041 0.12617874 -0.75
v -0.12618041 0.87382126 -0.75
v -0.12618041 0.87382126 -1
v -0.8738196 0.87382126 -1
v -0.12618041 0.87382126 -0.75
v -0.8738196 0.87382126 -0.75
v -0.8738196 0.12617874 -0.75
v -0.12618041 0.12617874 -0.75
v -0.8738196 0.87382126 -0.75
v -0.12618041 0.87382126 -0.75
vt 0 0
vt -1 0
vt 0 1
vt -1 1
vt 0.5 0
vt -1 0
vt 0.5 1
vt -1 1
vt 1 0
vt -0.5 0
vt 1 1
vt -0.5 1
vt 0 0.5
vt 1 0.5
vt 0 -1
vt 1 -1
vt 0 -1
vt -1 -1
vt 0 0.5
vt -1 0.5
vt 1 0
vt 0 0
vt 0.8738196 0.12617874
vt 0.12618041 0.12617874
vt 1 1
vt 0.8738196 0.87382126
vt 0 1
vt 0.12618041 0.87382126
vt 0.8738196 -1
vt 0.12618041 -1
vt 0.8738196 -0.75
vt 0.12618041 -0.75
vt 1 0.87382126
vt 1 0.12617874
vt 0.75 0.87382126
vt 0.75 0.12617874
vt -1 0.12617874
vt -1 0.87382126
vt -0.75 0.12617874
vt -0.75 0.87382126
vt -0.12618041 -1
vt -0.8738196 -1
vt -0.12618041 -0.75
vt -0.8738196 -0.75
vt 0.8738196 0.12617874
vt 0.12618041 0.12617874
vt 0.8738196 0.87382126
vt 0.12618041 0.87382126
vn -0 0 1
vn -0 0 1
vn -0 0 1
vn -0 0 1
vn -1 0 0
vn -1 0 0
vn -1 0 0
vn -1 0 0
vn 1 0 0
vn 1 0 0
vn 1 0 0
vn 1 0 0
vn -0 1 0
vn -0 1 0
vn -0 1 0
vn -0 1 0
vn -0 -1 0
vn -0 -1 0
vn -0 -1 0
vn -0 -1 0
vn -0 0 -1
vn -0 0 -1
vn -0 0 -1
vn -0 0 -1
vn -0 0 -1
vn -0 0 -1
vn -0 0 -1
vn -0 0 -1
vn -0 1 0
vn -0 1 0
vn -0 1 0
vn -0 1 0
vn 1 0 0
vn 1 0 0
vn 1 0 0
vn 1 0 0
vn -1 0 0
vn -1 0 0
vn -1 0 0
vn -1 0 0
vn -0 -1 0
vn -0 -1 0
vn -0 -1 0
vn -0 -1 0
vn -0 0 -1
vn -0 0 -1
vn -0 0 -1
vn -0 0 -1
g pb_Mesh87236_0
f 3/3/3 2/2/2 1/1/1
f 3/3/3 4/4/4 2/2/2
f 7/7/7 6/6/6 5/5/5
f 7/7/7 8/8/8 6/6/6
f 11/11/11 10/10/10 9/9/9
f 11/11/11 12/12/12 10/10/10
f 15/15/15 14/14/14 13/13/13
f 15/15/15 16/16/16 14/14/14
f 19/19/19 18/18/18 17/17/17
f 19/19/19 20/20/20 18/18/18
f 23/23/23 22/22/22 21/21/21
f 23/23/23 24/24/24 22/22/22
f 26/26/26 21/21/21 25/25/25
f 26/26/26 23/23/23 21/21/21
f 24/24/24 27/27/27 22/22/22
f 24/24/24 28/28/28 27/27/27
f 28/28/28 25/25/25 27/27/27
f 28/28/28 26/26/26 25/25/25
f 31/31/31 30/30/30 29/29/29
f 31/31/31 32/32/32 30/30/30
f 35/35/35 34/34/34 33/33/33
f 35/35/35 36/36/36 34/34/34
f 39/39/39 38/38/38 37/37/37
f 39/39/39 40/40/40 38/38/38
f 43/43/43 42/42/42 41/41/41
f 43/43/43 44/44/44 42/42/42
g pb_Mesh87236_1
f 47/47/47 46/46/46 45/45/45
f 47/47/47 48/48/48 46/46/46
