g pb_Mesh99922
v -4.000002 0 8.540501
v -10.000003 0 8.028092
v -4.0000005 6 8.540501
v -10.000011 6 8.028096
v -10 0 2
v -4 0 2
v -10.000008 6 2.000007
v -3.9999998 6 2.0000064
v -4 0 2
v 2.0735989 6 2.0000098
v 2.0736048 0 2.0000002
v -4.000002 0 8.540501
v -4.0000005 6 8.540501
v 1.921139 0 9.089681
v 1.9211347 6 9.089683
v 1.9211414 18 9.089685
v -4.0000043 18 8.540507
v -3.9999998 6 2.0000064
v 2.0735989 6 2.0000098
v -3.999997 13 -6.7672896
v 1.9912088 13 -4.82834
v 2.0735989 6 2.0000098
v 2.0736048 0 2.0000002
v 7.1756124 6.000002 2.0430105
v 7.175607 1.9073486E-06 2.043
v 1.921139 0 9.089681
v 1.9211347 6 9.089683
v 6.0679293 1.9073486E-06 9.13268
v 6.0679307 6.000002 9.132683
v -10.0000105 6 2.5112598
v -10.000002 0 2.5112557
v -10.00001 6 2.2556334
v -10.000001 0 2.2556279
v -10.000008 6 2.000007
v -10 0 2
v 7.1756124 6.000002 2.0430105
v 7.175607 1.9073486E-06 2.043
v 6.8986897 1.9073486E-06 2.8153787
v 6.898694 6.000002 2.8153832
v 6.6217723 1.9073486E-06 3.5877573
v 6.6217756 6.000002 3.587756
v -4.000001 0 3.0236642
v -4.0000005 0 2.5118322
v -10.000002 0 2.5112557
v -10.000001 0 2.2556279
v -4 0 2
v -10 0 2
v 1.9973736 0 3.5372975
v 2.035489 0 2.7686489
v 2.0736048 0 2.0000002
v -4.000001 18 0.8169222
v -3.999998 13 -2.7670813
v 1.9736928 13 -0.8279525
v 1.9561769 18 3.5565033
v -3.9999995 6 3.0236635
v -3.9999995 6 2.511835
v -4.000001 18 0.8169222
v -3.999998 13 -2.7670813
v -3.9999998 6 2.0000064
v -3.999997 13 -6.7672896
v 1.9736928 13 -0.8279525
v 1.9912088 13 -4.82834
v 2.0735989 6 2.0000098
v 2.035484 6 2.7686546
v 1.9561769 18 3.5565033
v 1.9736928 13 -0.8279525
v 2.035484 6 2.7686546
v 1.9973693 6 3.5372994
v 6.6217723 1.9073486E-06 3.5877573
v 6.8986897 1.9073486E-06 2.8153787
v 7.175607 1.9073486E-06 2.043
v -10.000011 6 5.269678
v -10.000002 0 5.2696743
v 6.6217756 6.000002 3.587756
v 6.6217723 1.9073486E-06 3.5877573
v 6.3448534 6.000002 6.3602195
v 6.3448505 1.9073486E-06 6.3602185
v -4.0000014 0 5.7820826
v -10.000002 0 5.2696743
v 1.9592563 0 6.313489
v -4 6 5.782082
v -4.000003 18 4.6787148
v 1.9561769 18 3.5565033
v 1.9973693 6 3.5372994
v 1.959252 6 6.313491
v 0.9088543 18 6.183282
v 6.3448505 1.9073486E-06 6.3602185
v -10.000011 6 8.028096
v -10.000003 0 8.028092
v -10.000011 6 6.648887
v -10.000002 0 6.6488833
v 6.20639 1.9073486E-06 7.7464495
v 6.2063923 6.000002 7.7464514
v 6.0679293 1.9073486E-06 9.13268
v 6.0679307 6.000002 9.132683
v -4.000002 0 8.540501
v -4.000002 0 7.1612916
v -10.000003 0 8.028092
v -10.000002 0 6.6488833
v 1.921139 0 9.089681
v 1.9401977 0 7.701585
v -4.0000043 18 8.540507
v -4.0000005 6 8.540501
v -4 6 7.161291
v -4.000004 18 6.609611
v 0.9088543 18 6.183282
v 1.959252 6 6.313491
v 1.9401934 6 7.7015867
v 2.929164 18 8.162764
v 2.929164 18 8.162764
v 1.9401934 6 7.7015867
v 1.9211347 6 9.089683
v 1.9211414 18 9.089685
v 6.0679293 1.9073486E-06 9.13268
v 6.20639 1.9073486E-06 7.7464495
v -10.000008 6 2.000007
v -3.9999998 6 2.0000064
v -10.00001 6 2.2556334
v -3.9999995 6 2.511835
v -10.0000105 6 2.5112598
v -3.9999995 6 3.0236635
v -3.999997 13 -6.7672896
v 1.9912088 13 -4.82834
v -3.999998 13 -2.7670813
v 1.9736928 13 -0.8279525
v 1.9973693 6 3.5372994
v 2.035484 6 2.7686546
v 6.6217756 6.000002 3.587756
v 6.898694 6.000002 2.8153832
v 2.0735989 6 2.0000098
v 7.1756124 6.000002 2.0430105
v -10.000011 6 5.269678
v -4 6 5.782082
v -4.000003 18 4.6787148
v -4.000001 18 0.8169222
v 1.9561769 18 3.5565033
v 0.9088543 18 6.183282
v 1.959252 6 6.313491
v 6.3448534 6.000002 6.3602195
v -10.000011 6 8.028096
v -10.000011 6 6.648887
v -4 6 7.161291
v -4.0000005 6 8.540501
v -4.0000043 18 8.540507
v -4.000004 18 6.609611
v 2.929164 18 8.162764
v 1.9211414 18 9.089685
v 1.9211347 6 9.089683
v 1.9401934 6 7.7015867
v 6.0679307 6.000002 9.132683
v 6.2063923 6.000002 7.7464514
vt -3.2587693 -1.795415E-07
vt -9.280611 -1.795415E-07
vt -3.2587678 6
vt -9.280619 6
vt 10 2.304713E-06
vt 4 2.304713E-06
vt 10.000008 6.0000024
vt 3.9999998 6.0000024
vt 3.9999988 2.1457695E-06
vt -2.0736 6.0000024
vt -2.073606 2.1457663E-06
vt -3.1941695 -1.9538001E-07
vt -3.194168 6
vt 2.752385 -1.9538001E-07
vt 2.7523808 6
vt 2.7523913 18.000002
vt -3.1941676 18.000002
vt -3.9999971 -2.1807122
vt 2.0736015 -2.180708
vt -3.9999912 -13.399692
vt 1.9912145 -11.884459
vt -2.0903811 6.0000033
vt -2.0903869 3.1675104E-06
vt -7.192576 6.0000052
vt -7.1925707 5.0748577E-06
vt 2.015284 2.9501496E-06
vt 2.01528 6.000003
vt 6.1622972 4.857498E-06
vt 6.1622987 6.000005
vt 2.511283 6.000015
vt 2.5112789 1.4940872E-05
vt 2.2556565 6.000015
vt 2.255651 1.4940872E-05
vt 2.00003 6.000015
vt 2.0000231 1.4940871E-05
vt -0.59669256 6.0000076
vt -0.59668326 7.5825437E-06
vt -1.408361 7.4908703E-06
vt -1.4083647 6.0000076
vt -2.2200387 7.399197E-06
vt -2.2200367 6.0000076
vt -4.000001 3.0236642
vt -4.0000005 2.5118322
vt -10.000002 2.5112557
vt -10.000001 2.2556279
vt -4 2
vt -10 2
vt 1.9973736 3.5372975
vt 2.035489 2.7686489
vt 2.0736048 2.0000002
vt 4.9984536 3.8128023
vt 4.719371 -0.56534636
vt -1.2450079 1.4022396
vt -0.94843924 6.569098
vt 3.0236635 6.0000005
vt 2.511835 6.0000005
vt 0.81692225 18
vt -2.7670813 13
vt 2.0000064 6.0000005
vt -6.7672896 13
vt 0.844384 12.987538
vt 4.8447785 12.987637
vt -1.9826468 5.9869065
vt -2.7515829 5.9871035
vt -3.5400655 17.987324
vt 0.844384 12.987538
vt -2.7515829 5.9871035
vt -3.5205188 5.9873
vt 6.6217723 3.5877573
vt 6.8986897 2.8153787
vt 7.175607 2.043
vt 5.269701 6.000015
vt 5.269697 1.49408625E-05
vt -2.2200367 6.0000076
vt -2.2200387 7.399197E-06
vt -4.992992 6.0000076
vt -4.9929914 7.606728E-06
vt -4.0000014 5.7820826
vt -10.000002 5.2696743
vt 1.9592563 6.313489
vt 5.782082 6.0000005
vt 4.6787148 18
vt -3.5400655 17.987324
vt -3.5205188 5.9873
vt -6.2969317 5.987393
vt -6.1754875 17.993689
vt 6.3448505 6.3602185
vt 8.028119 6.000015
vt 8.028115 1.4940854E-05
vt 6.64891 6.000015
vt 6.648906 1.4940858E-05
vt -6.3794684 7.710494E-06
vt -6.37947 6.0000076
vt -7.7659445 7.81426E-06
vt -7.7659473 6.0000076
vt -4.000002 8.540501
vt -4.000002 7.1612916
vt -10.000003 8.028092
vt -10.000002 6.6488833
vt 1.921139 9.089681
vt 1.9401977 7.701585
vt 8.540507 18
vt 8.540501 6.0000005
vt 7.161291 6.0000005
vt 6.609611 18
vt -6.1754875 17.993689
vt -6.2969317 5.987393
vt -7.685138 5.9874396
vt -8.138051 17.981043
vt -8.138051 17.981043
vt -7.685138 5.9874396
vt -9.073345 5.987486
vt -9.073348 17.987253
vt 6.0679293 9.13268
vt 6.20639 7.7464495
vt 10.000008 2.000007
vt 3.9999998 2.0000064
vt 10.00001 2.2556334
vt 3.9999995 2.511835
vt 10.0000105 2.5112598
vt 3.9999995 3.0236635
vt 4.7193694 -4.5077
vt -1.2624966 -2.540125
vt 4.719371 -0.56534636
vt -1.2450079 1.4022396
vt -1.9973719 3.5372994
vt -2.0354867 2.7686546
vt -6.621778 3.587756
vt -6.8986964 2.8153832
vt -2.0736015 2.0000098
vt -7.175615 2.0430105
vt 10.000011 5.269678
vt 4 5.782082
vt 4.9984555 7.618742
vt 4.9984536 3.8128023
vt -0.94843924 6.569098
vt 0.09725068 9.14798
vt -1.9592546 6.313491
vt -6.344856 6.3602195
vt 10.000011 8.028096
vt 10.000011 6.648887
vt 4 7.161291
vt 4.0000005 8.540501
vt 4.998457 11.424682
vt 4.9984565 9.521711
vt -1.9199095 11.117941
vt -0.91345835 12.021923
vt -1.9211373 9.089683
vt -1.940196 7.7015867
vt -6.067933 9.132683
vt -6.2063947 7.7464514
vn -0.08509162 2.0287423E-08 0.9963731
vn -0.08509124 -3.6745655E-07 0.9963732
vn -0.08509124 -3.6745655E-07 0.9963732
vn -0.08509086 -7.552005E-07 0.99637324
vn -0 1.1523565E-06 -1
vn -3.9736378E-08 1.1126201E-06 -1
vn -3.9736378E-08 1.1126201E-06 -1
vn -7.9472755E-08 1.0728836E-06 -1
vn 2.9441182E-07 1.3311703E-06 -1
vn 2.9441182E-07 1.3311703E-06 -1
vn 3.9254875E-08 1.5894572E-06 -1
vn -0.09235265 2.2018588E-08 0.99572635
vn -0.09235285 -1.8395495E-07 0.99572635
vn -0.09235285 -1.8395495E-07 0.99572635
vn -0.09235306 -3.899285E-07 0.99572635
vn -0.09235266 -3.846567E-07 0.99572635
vn -0.09235226 -5.832906E-07 0.9957264
vn 3.4289943E-07 -0.7814701 -0.62394273
vn 0.11304847 -0.7301495 -0.66128194
vn 0.11304847 -0.7301495 -0.66128194
vn 0.2260966 -0.6788289 -0.6986212
vn 0.008427883 1.5977731E-06 -0.9999645
vn 0.008427799 1.6690383E-06 -0.9999645
vn 0.008427799 1.6690383E-06 -0.9999645
vn 0.008427715 1.7403036E-06 -0.9999645
vn -0.010368732 -3.2529064E-07 0.99994624
vn -0.010368839 -3.99403E-07 0.99994624
vn -0.010368839 -3.99403E-07 0.99994624
vn -0.010368947 -4.7351534E-07 0.99994624
vn -1 -1.430509E-06 -3.7307343E-06
vn -1 -1.4305085E-06 -3.7307238E-06
vn -1 -1.4305085E-06 -3.7307238E-06
vn -1 -1.4305081E-06 -3.7307134E-06
vn -1 -1.351033E-06 -5.596091E-06
vn -1 -1.2715615E-06 -3.7307134E-06
vn 0.94132835 -1.1705378E-06 0.3374921
vn 0.94132894 -1.4129803E-06 0.33749044
vn 0.94132835 -1.1705378E-06 0.3374921
vn 0.94132775 -9.280952E-07 0.33749378
vn 0.94132835 -6.856494E-07 0.3374921
vn 0.94132775 -4.4320527E-07 0.33749378
vn -0 -1 0
vn -0 -1 0
vn -0 -1 0
vn -0 -1 0
vn -0 -1 0
vn -0 -1 0
vn -0 -1 0
vn -0 -1 0
vn -0 -1 0
vn 0.29085308 0.59355795 -0.74797344
vn 0.25510374 0.5633152 -0.78587407
vn 0.29085308 0.59355795 -0.74797344
vn 0.32660246 0.62380075 -0.7100729
vn -1 -1.1920929E-07 0
vn -1 -1.5649312E-07 -2.6396992E-07
vn -1 -1.5649312E-07 -2.6396992E-07
vn -1 -1.9377696E-07 -5.2793985E-07
vn -1 2.9555872E-07 8.390472E-08
vn -1 3.547157E-08 -2.9800773E-07
vn 0.9990244 0.025140993 0.026937537
vn 0.9998618 0.016039003 0.0043779747
vn 0.9990244 0.025140993 0.026937537
vn 0.99818707 0.034242984 0.049497098
vn 0.9993682 0.005104642 0.022848783
vn 0.9999691 0.0068600723 -0.0038282985
vn 0.9993682 0.005104642 0.022848783
vn 0.9987672 0.0033492118 0.049525864
vn 4.0154202E-07 -1 8.02863E-08
vn 3.9085376E-07 -1 1.4013105E-07
vn 3.7271695E-07 -1 1.3362853E-07
vn -1 -1.5894569E-06 -3.457323E-07
vn -1 -1.5099843E-06 -1.7286615E-07
vn 0.9950487 -5.2985956E-07 0.09938855
vn 0.9950487 -5.1006657E-07 0.099388495
vn 0.9950487 -5.1006657E-07 0.099388495
vn 0.9950487 -4.902735E-07 0.09938845
vn -0 -1 0
vn -0 -1 0
vn -0 -1 0
vn -1 -2.5431316E-07 -1.7286615E-07
vn -1 -2.3217434E-07 -3.3338426E-07
vn 0.96271306 0.04421435 0.19137254
vn 0.9998999 0.0034103873 0.013728691
vn 0.96271306 0.04421435 0.19137254
vn 0.9255262 0.085018314 0.3690164
vn 4.2342646E-07 -1 2.3561373E-08
vn -1 -1.4305115E-06 0
vn -1 -1.509984E-06 -3.4573233E-07
vn -1 -1.509984E-06 -3.4573233E-07
vn -1 -1.5894567E-06 -6.9146466E-07
vn 0.9950487 -4.5863254E-07 0.09938839
vn 0.9950487 -4.269916E-07 0.09938853
vn 0.99504864 -3.5581098E-07 0.0993886
vn 0.99504864 -2.8463043E-07 0.099388905
vn -0 -1 0
vn -0 -1 0
vn -0 -1 0
vn -0 -1 0
vn -0 -1 0
vn -0 -1 0
vn -1 -3.2356792E-07 -2.963417E-07
vn -1 -3.1789125E-07 -3.4573222E-07
vn -1 -3.2356792E-07 -2.963417E-07
vn -1 -3.292446E-07 -2.469512E-07
vn 0.8478089 0.028562952 -0.35014257
vn 0.9960848 0.08733883 0.01367618
vn 0.8478089 0.028562952 -0.35014257
vn 0.699533 -0.030212924 -0.7139613
vn 0.8366799 -0.04132543 0.3748899
vn 0.9964847 -0.08265031 0.013681841
vn 0.8366799 -0.04132543 0.3748899
vn 0.67687505 -5.520518E-07 0.736098
vn 4.5325388E-07 -1 2.5461874E-08
vn 4.4661545E-07 -1 4.460922E-08
vn -0 1 0
vn -0 1 0
vn -0 1 0
vn -0 1 0
vn -0 1 0
vn -0 1 0
vn -0 1 0
vn -0 1 0
vn -0 1 0
vn -0 1 0
vn -4.122296E-07 1 -2.0441227E-08
vn -4.0154134E-07 1 -8.0286796E-08
vn -4.0154134E-07 1 -8.0286796E-08
vn -3.9085307E-07 1 -1.4013236E-07
vn -3.8236442E-07 1 -7.653422E-08
vn -3.7271607E-07 1 -1.3362971E-07
vn -0 1 0
vn -0 1 0
vn -0 1 0
vn -0 1 0
vn -0 1 0
vn -0 1 0
vn -4.3484792E-07 1 -5.9704903E-09
vn -4.2342577E-07 1 -2.3561345E-08
vn -0 1 0
vn -0 1 0
vn -0 1 0
vn -0 1 0
vn -0 1 0
vn -0 1 0
vn -0 1 0
vn -0 1 0
vn -4.5989168E-07 1 -6.314362E-09
vn -4.532532E-07 1 -2.5461969E-08
vn -4.532532E-07 1 -2.5461969E-08
vn -4.466147E-07 1 -4.4609575E-08
g pb_Mesh99922_0
f 3/3/3 2/2/2 1/1/1
f 3/3/3 4/4/4 2/2/2
f 7/7/7 6/6/6 5/5/5
f 7/7/7 8/8/8 6/6/6
f 10/10/10 9/9/9 8/8/8
f 10/10/10 11/11/11 9/9/9
f 14/14/14 13/13/13 12/12/12
f 14/14/14 15/15/15 13/13/13
f 16/16/16 13/13/13 15/15/15
f 16/16/16 17/17/17 13/13/13
f 20/20/20 19/19/19 18/18/18
f 20/20/20 21/21/21 19/19/19
f 24/24/24 23/23/23 22/22/22
f 24/24/24 25/25/25 23/23/23
f 28/28/28 27/27/27 26/26/26
f 28/28/28 29/29/29 27/27/27
f 32/32/32 31/31/31 30/30/30
f 32/32/32 33/33/33 31/31/31
f 34/34/34 33/33/33 32/32/32
f 34/34/34 35/35/35 33/33/33
f 38/38/38 37/37/37 36/36/36
f 39/39/39 38/38/38 36/36/36
f 40/40/40 38/38/38 39/39/39
f 40/40/40 39/39/39 41/41/41
f 44/44/44 43/43/43 42/42/42
f 44/44/44 45/45/45 43/43/43
f 46/46/46 43/43/43 45/45/45
f 47/47/47 46/46/46 45/45/45
f 42/42/42 49/49/49 48/48/48
f 42/42/42 43/43/43 49/49/49
f 46/46/46 50/50/50 49/49/49
f 43/43/43 46/46/46 49/49/49
f 53/53/53 52/52/52 51/51/51
f 54/54/54 53/53/53 51/51/51
f 57/57/57 56/56/56 55/55/55
f 57/57/57 58/58/58 56/56/56
f 58/58/58 59/59/59 56/56/56
f 58/58/58 60/60/60 59/59/59
f 63/63/63 62/62/62 61/61/61
f 64/64/64 63/63/63 61/61/61
f 67/67/67 66/66/66 65/65/65
f 68/68/68 67/67/67 65/65/65
f 49/49/49 70/70/70 69/69/69
f 48/48/48 49/49/49 69/69/69
f 50/50/50 71/71/71 70/70/70
f 49/49/49 50/50/50 70/70/70
f 30/30/30 73/73/73 72/72/72
f 30/30/30 31/31/31 73/73/73
f 76/76/76 75/75/75 74/74/74
f 76/76/76 77/77/77 75/75/75
f 79/79/79 42/42/42 78/78/78
f 79/79/79 44/44/44 42/42/42
f 78/78/78 48/48/48 80/80/80
f 78/78/78 42/42/42 48/48/48
f 82/82/82 55/55/55 81/81/81
f 57/57/57 55/55/55 82/82/82
f 85/85/85 84/84/84 83/83/83
f 86/86/86 85/85/85 83/83/83
f 48/48/48 69/69/69 87/87/87
f 80/80/80 48/48/48 87/87/87
f 90/90/90 89/89/89 88/88/88
f 90/90/90 91/91/91 89/89/89
f 72/72/72 91/91/91 90/90/90
f 72/72/72 73/73/73 91/91/91
f 92/92/92 77/77/77 76/76/76
f 93/93/93 92/92/92 76/76/76
f 94/94/94 92/92/92 93/93/93
f 95/95/95 94/94/94 93/93/93
f 98/98/98 97/97/97 96/96/96
f 98/98/98 99/99/99 97/97/97
f 99/99/99 78/78/78 97/97/97
f 99/99/99 79/79/79 78/78/78
f 96/96/96 101/101/101 100/100/100
f 96/96/96 97/97/97 101/101/101
f 97/97/97 80/80/80 101/101/101
f 97/97/97 78/78/78 80/80/80
f 104/104/104 103/103/103 102/102/102
f 105/105/105 104/104/104 102/102/102
f 105/105/105 81/81/81 104/104/104
f 82/82/82 81/81/81 105/105/105
f 108/108/108 107/107/107 106/106/106
f 109/109/109 108/108/108 106/106/106
f 112/112/112 111/111/111 110/110/110
f 113/113/113 112/112/112 110/110/110
f 101/101/101 115/115/115 114/114/114
f 100/100/100 101/101/101 114/114/114
f 80/80/80 87/87/87 115/115/115
f 101/101/101 80/80/80 115/115/115
g pb_Mesh99922_1
f 118/118/118 117/117/117 116/116/116
f 118/118/118 119/119/119 117/117/117
f 119/119/119 118/118/118 120/120/120
f 121/121/121 119/119/119 120/120/120
f 124/124/124 123/123/123 122/122/122
f 124/124/124 125/125/125 123/123/123
f 128/128/128 127/127/127 126/126/126
f 128/128/128 129/129/129 127/127/127
f 129/129/129 130/130/130 127/127/127
f 129/129/129 131/131/131 130/130/130
f 121/121/121 120/120/120 132/132/132
f 133/133/133 121/121/121 132/132/132
f 136/136/136 135/135/135 134/134/134
f 137/137/137 136/136/136 134/134/134
f 139/139/139 126/126/126 138/138/138
f 139/139/139 128/128/128 126/126/126
f 142/142/142 141/141/141 140/140/140
f 143/143/143 142/142/142 140/140/140
f 133/133/133 132/132/132 141/141/141
f 142/142/142 133/133/133 141/141/141
f 146/146/146 145/145/145 144/144/144
f 147/147/147 146/146/146 144/144/144
f 137/137/137 134/134/134 145/145/145
f 146/146/146 137/137/137 145/145/145
f 150/150/150 149/149/149 148/148/148
f 150/150/150 151/151/151 149/149/149
f 151/151/151 138/138/138 149/149/149
f 151/151/151 139/139/139 138/138/138
