g pb_Mesh101276
v -2.1249025 1.5 5.0001044
v -4.1249056 1.5 5.000204
v -2.1249025 2 5.0001044
v -4.1249056 2 5.000204
v -4.1249056 1.5 5.000204
v -4.125017 0.5 -8.999795
v -4.1249056 2 5.000204
v -4.125017 1 -8.999795
v -4.125017 0.5 -8.999795
v -2.125014 0.5 -8.999894
v -4.125017 1 -8.999795
v -2.125014 1 -8.999894
v -2.125014 0.5 -8.999894
v -2.1249025 1.5 5.0001044
v -2.125014 1 -8.999894
v -2.1249025 2 5.0001044
v -2.1249025 2 5.0001044
v -4.1249056 2 5.000204
v -2.125014 1 -8.999894
v -4.125017 1 -8.999795
v -2.125014 0.5 -8.999894
v -4.125017 0.5 -8.999795
v -2.1249025 1.5 5.0001044
v -4.1249056 1.5 5.000204
vt -2.1251516 1.5
vt -4.125155 1.5
vt -2.1251516 2
vt -4.125155 2
vt 5.000171 1.5
vt -8.999827 0.5
vt 5.000171 2
vt -8.999827 1
vt 4.124571 0.5
vt 2.1245677 0.5
vt 4.124571 1
vt 2.1245677 1
vt 8.999911 0.5
vt -5.0000873 1.5
vt 8.999911 1
vt -5.0000873 2
vt 2.1248953 5.1298923
vt 4.1248984 5.129992
vt 2.1250105 -8.905775
vt 4.125014 -8.905676
vt -2.1250124 -8.941399
vt -4.1250153 -8.941299
vt -2.1248972 5.094269
vt -4.1249003 5.0943685
vn 4.9829407E-05 0 1
vn 4.9829407E-05 0 1
vn 4.9829407E-05 0 1
vn 4.9829407E-05 0 1
vn -1 0 7.969993E-06
vn -1 0 7.969993E-06
vn -1 0 7.969993E-06
vn -1 0 7.969993E-06
vn -4.9590988E-05 0 -1
vn -4.9590988E-05 0 -1
vn -4.9590988E-05 0 -1
vn -4.9590988E-05 0 -1
vn 1 0 -7.969994E-06
vn 1 0 -7.969994E-06
vn 1 0 -7.969994E-06
vn 1 0 -7.969994E-06
vn -3.5501985E-06 0.9974587 -0.071247056
vn -3.5417052E-06 0.9974587 -0.071247056
vn -3.5417052E-06 0.9974587 -0.071247056
vn -3.5332116E-06 0.9974587 -0.07124705
vn 3.5332118E-06 -0.9974587 0.071247056
vn 3.5501985E-06 -0.9974587 0.071247056
vn 3.5501985E-06 -0.9974587 0.071247056
vn 3.5671849E-06 -0.9974587 0.07124705
g pb_Mesh101276_0
f 3/3/3 2/2/2 1/1/1
f 3/3/3 4/4/4 2/2/2
f 7/7/7 6/6/6 5/5/5
f 7/7/7 8/8/8 6/6/6
f 11/11/11 10/10/10 9/9/9
f 11/11/11 12/12/12 10/10/10
f 15/15/15 14/14/14 13/13/13
f 15/15/15 16/16/16 14/14/14
f 19/19/19 18/18/18 17/17/17
f 19/19/19 20/20/20 18/18/18
f 23/23/23 22/22/22 21/21/21
f 23/23/23 24/24/24 22/22/22
