g pb_Mesh64884
v 15.00001 0 -2.0001435
v 9.999981 0 -2.000096
v 15.00001 3 -2.0001435
v 9.999981 3 -2.000096
v 9.999981 0 -2.000096
v 9.999962 0 -4.0000944
v 9.999981 3 -2.000096
v 9.999962 3 -4.0000944
v 9.999962 0 -4.0000944
v 15.000019 0 -4.000142
v 9.999962 3 -4.0000944
v 15.000019 3 -4.000142
v 15.000019 0 -4.000142
v 15.00001 0 -2.0001435
v 15.000019 3 -4.000142
v 15.00001 3 -2.0001435
v 15.00001 3 -2.0001435
v 9.999981 3 -2.000096
v 15.000019 3 -4.000142
v 9.999962 3 -4.0000944
v 15.000019 0 -4.000142
v 9.999962 0 -4.0000944
v 15.00001 0 -2.0001435
v 9.999981 0 -2.000096
vt 15.000029 0
vt 10 0
vt 15.000029 3
vt 10 3
vt -2.0000007 0
vt -3.999999 0
vt -2.0000007 3
vt -3.999999 3
vt -10 0
vt -15.000057 0
vt -10 3
vt -15.000057 3
vt 4.0002136 0
vt 2.000215 0
vt 4.0002136 3
vt 2.000215 3
vt -15.00001 -2.0001435
vt -9.999981 -2.000096
vt -15.000019 -4.000142
vt -9.999962 -4.0000944
vt 15.000019 -4.000142
vt 9.999962 -4.0000944
vt 15.00001 -2.0001435
vt 9.999981 -2.000096
vn 9.489006E-06 0 1
vn 9.489006E-06 0 1
vn 9.489006E-06 0 1
vn 9.489006E-06 0 1
vn -1 0 9.53675E-06
vn -1 0 9.53675E-06
vn -1 0 9.53675E-06
vn -1 0 9.53675E-06
vn -9.536634E-06 0 -1
vn -9.536634E-06 0 -1
vn -9.536634E-06 0 -1
vn -9.536634E-06 0 -1
vn 1 0 4.768375E-06
vn 1 0 4.768375E-06
vn 1 0 4.768375E-06
vn 1 0 4.768375E-06
vn -0 1 0
vn -0 1 0
vn -0 1 0
vn -0 1 0
vn -0 -1 0
vn -0 -1 0
vn -0 -1 0
vn -0 -1 0
g pb_Mesh64884_0
f 3/3/3 2/2/2 1/1/1
f 3/3/3 4/4/4 2/2/2
f 7/7/7 6/6/6 5/5/5
f 7/7/7 8/8/8 6/6/6
f 11/11/11 10/10/10 9/9/9
f 11/11/11 12/12/12 10/10/10
f 15/15/15 14/14/14 13/13/13
f 15/15/15 16/16/16 14/14/14
f 19/19/19 18/18/18 17/17/17
f 19/19/19 20/20/20 18/18/18
f 23/23/23 22/22/22 21/21/21
f 23/23/23 24/24/24 22/22/22
