g pb_Mesh100954
v -2 -14 2
v -10 -14 2
v -2 -14 10
v -10 -14 10
v -2 12 10
v -10 12 10
v -2 12 2
v -10 12 2
v -2 0 10
v -2 0 2
v 6 0 10
v 6 0 2
v -2.000001 0 -9.999998
v 5.999999 0 -10.000005
v 6.0000014 0 -7.000005
v -2.0000005 0 -6.999998
v -2.000001 0 -0.9999982
v 6.000003 0 -1.0000049
v -2.000002 0 -1.9999982
v 6.000002 0 -2.0000048
v 6.0000024 0 -6.000005
v -2.0000014 0 -5.999998
v -2 0 10
v -10 0 10
v -10 12 10
v -2 12 10
v -10 0 10
v -10 0 2
v -10 12 2
v -10 12 10
v -10 12 2
v -2 0 2
v -2 12 2
v -10 0 2
v -2 12 2
v -2 0 10
v -2 12 10
v -2 0 2
v -2 -14 2
v -2 -14 10
v 6 -14 2
v 6 -14 10
v -2.0000005 -14 -6.999998
v 5.9999976 -14 -7.000001
v -2.000001 -14 -9.999998
v 5.999999 -14 -10.000005
v 6.000001 -14 -1.0000029
v -2.000001 -14 -0.9999982
v 6.0000024 -14 -6.000005
v -2.0000014 -14 -5.999998
v 6.000002 -14 -2.0000048
v -2.000002 -14 -1.9999982
v -2 -14 10
v -10 -14 10
v -10 -8 10.000001
v -1.9999995 -8 10
v -10 -14 10
v -10 -14 2
v -10.000001 -8 2.000001
v -10 -8 10.000001
v -10.000001 -8 2.000001
v -2 -14 2
v -2.0000005 -8 1.9999999
v -10 -14 2
v 6.0000014 -8 2.000001
v 6 -14 10
v 6.0000005 -8 10.000001
v 6 -14 2
v 6 0 2
v 6 0 10
v 6 -14 10
v -2 -14 10
v 6.0000005 -8 10.000001
v -2 0 10
v 6 0 10
v -2.000001 0 -9.999998
v 5.999999 -8 -10.000005
v 5.999999 0 -10.000005
v -2.000001 -8 -9.999998
v 5.999999 -14 -10.000005
v -2.000001 -14 -9.999998
v -2.0000005 -14 -6.999998
v -2.000001 -14 -9.999998
v -2.000001 -8 -9.999998
v -2.0000005 -9 -6.999998
v -2.000001 0 -9.999998
v -2.0000005 0 -6.999998
v 5.999999 -8 -10.000005
v 5.9999976 -14 -7.000001
v 5.9999976 -9 -7.000001
v 5.999999 -14 -10.000005
v 5.999999 0 -10.000005
v 6.0000014 0 -7.000005
v -2 -14 2
v -2.000001 -14 -0.9999982
v -2.000001 -9 -0.9999982
v -2.0000005 -8 1.9999999
v -2.000001 0 -0.9999982
v -2 0 2
v 6.000001 -9 -1.0000029
v 6 -14 2
v 6.0000014 -8 2.000001
v 6.000001 -14 -1.0000029
v 6.000003 0 -1.0000049
v 6 0 2
v -2.000002 -8 -1.9999982
v -2.000002 0 -1.9999982
v 6.000002 0 -2.0000048
v 6 -8 -2.000002
v -2.0000014 -8 -5.999998
v -2.0000014 0 -5.999998
v 6.0000024 0 -6.000005
v 5.9999986 -8 -6.000001
v -2.000002 -8 -1.9999982
v -2.000001 -9 -0.9999982
v 6 -8 -2.000002
v 6.000001 -9 -1.0000029
v -2.0000005 -9 -6.999998
v -2.0000014 -8 -5.999998
v 5.9999976 -9 -7.000001
v 5.9999986 -8 -6.000001
v -2.0000014 -8 -5.999998
v -2.000002 -8 -1.9999982
v 5.9999986 -8 -6.000001
v 6 -8 -2.000002
v -2.0000005 -14 -6.999998
v -2.0000005 -9 -6.999998
v 5.9999976 -14 -7.000001
v 5.9999976 -9 -7.000001
v -2.000001 -9 -0.9999982
v -2.000001 -14 -0.9999982
v 6.000001 -9 -1.0000029
v 6.000001 -14 -1.0000029
vt -2 2
vt -10 2
vt -2 10
vt -10 10
vt 2 10
vt 10 10
vt 2 2
vt 10 2
vt 2 10
vt 2 2
vt -6 10
vt -6 2
vt 2.000001 -9.999998
vt -5.999999 -10.000005
vt -6.0000014 -7.000005
vt 2.0000005 -6.999998
vt 2.000001 -0.9999982
vt -6.000003 -1.0000049
vt 2.000002 -1.9999982
vt -6.000002 -2.0000048
vt -6.0000024 -6.000005
vt 2.0000014 -5.999998
vt -2.0000005 1.3245479E-07
vt -10 1.3245479E-07
vt -10 12
vt -2.0000005 12
vt 10 1.3245473E-07
vt 1.9999996 1.3245473E-07
vt 1.9999996 12
vt 10 12
vt 10 12
vt 2 -3.3113836E-09
vt 2 12
vt 10 -3.3113832E-09
vt -2 12
vt -10 0
vt -10 12
vt -2 0
vt -2 2
vt -2 10
vt 6 2
vt 6 10
vt -2.0000005 -6.999998
vt 5.9999976 -7.000001
vt -2.000001 -9.999998
vt 5.999999 -10.000005
vt 6.000001 -1.0000029
vt -2.000001 -0.9999982
vt 6.0000024 -6.000005
vt -2.0000014 -5.999998
vt 6.000002 -2.0000048
vt -2.000002 -1.9999982
vt -2.0000005 -14
vt -10 -14
vt -10 -8
vt -1.9999999 -8
vt 10 -14
vt 1.9999996 -14
vt 2.0000005 -8
vt 10.000001 -8
vt 10.000001 -8
vt 2 -14
vt 2.0000005 -8
vt 10 -14
vt -2.0000005 -8
vt -10 -14
vt -10.000001 -8
vt -1.9999996 -14
vt -1.9999996 5.9604695E-08
vt -10 5.96047E-08
vt 6.0000005 -14
vt -1.9999994 -14
vt 6.000001 -8
vt -1.9999994 0
vt 6.0000005 0
vt 1.9999926 0
vt -6.0000076 -8
vt -6.0000076 0
vt 1.9999926 -8
vt -6.0000076 -14
vt 1.9999926 -14
vt -6.999998 -14
vt -9.999998 -14
vt -9.999998 -8
vt -6.999998 -9
vt -9.999998 0
vt -6.999998 0
vt 10.000004 -7.9999986
vt 7 -13.999999
vt 7 -8.999999
vt 10.000004 -13.999999
vt 10.000004 1.2091235E-06
vt 7.000004 1.2091239E-06
vt 1.9999998 -14
vt -0.9999984 -14
vt -0.9999984 -9
vt 1.9999996 -8
vt -0.9999984 0
vt 1.9999998 0
vt 1.0000018 -8.999999
vt -2.000001 -13.999999
vt -2.000002 -7.9999986
vt 1.0000018 -13.999999
vt 1.0000038 1.209124E-06
vt -2.000001 1.2091233E-06
vt -1.9999985 -8
vt -1.9999985 0
vt 2.0000038 1.2091239E-06
vt 2.000001 -7.9999986
vt -5.999998 -8
vt -5.999998 0
vt 6.000004 1.2091241E-06
vt 6 -7.9999986
vt 2.000001 -4.2426414
vt 2.0000005 -5.656855
vt -6.000001 -4.2426414
vt -6.0000014 -5.6568546
vt -1.999998 -11.313707
vt -1.9999993 -9.899494
vt 6 -11.313707
vt 6.000001 -9.899494
vt -2.0000014 -5.999998
vt -2.000002 -1.9999982
vt 5.9999986 -6.000001
vt 6 -2.000002
vt -1.999998 -14
vt -1.999998 -9
vt 6 -14
vt 6 -9
vt 2.0000005 -9
vt 2.0000005 -14
vt -6.0000014 -9
vt -6.0000014 -14
vn -0 -1 0
vn -0 -1 0
vn -0 -1 0
vn -0 -1 0
vn -0 1 0
vn -0 1 0
vn -0 1 0
vn -0 1 0
vn -0 1 0
vn -0 1 0
vn -0 1 0
vn -0 1 0
vn -0 1 0
vn -0 1 0
vn -0 1 0
vn -0 1 0
vn -0 1 0
vn -0 1 0
vn -0 1 0
vn -0 1 0
vn -0 1 0
vn -0 1 0
vn -0 0 1
vn -0 0 1
vn -0 0 1
vn -0 0 1
vn -1 0 0
vn -1 0 0
vn -1 0 0
vn -1 0 0
vn -0 0 -1
vn -0 0 -1
vn -0 0 -1
vn -0 0 -1
vn 1 0 0
vn 1 0 0
vn 1 0 0
vn 1 0 0
vn -0 -1 0
vn -0 -1 0
vn -0 -1 0
vn -0 -1 0
vn -0 -1 0
vn -0 -1 0
vn -0 -1 0
vn -0 -1 0
vn -0 -1 0
vn -0 -1 0
vn -0 -1 0
vn -0 -1 0
vn -0 -1 0
vn -0 -1 0
vn 5.9604645E-08 -7.947287E-08 1
vn -0 -1.5894572E-07 1
vn 5.9604645E-08 -7.947287E-08 1
vn 1.1920929E-07 -9.4739034E-15 1
vn -1 -7.947287E-08 5.9604645E-08
vn -1 -1.5894572E-07 0
vn -1 -7.947287E-08 5.9604645E-08
vn -1 -1.8947807E-14 1.1920929E-07
vn -6.7055225E-08 6.953874E-08 -1
vn -6.7055225E-08 6.953874E-08 -1
vn -1.3411045E-07 -1.9868237E-08 -1
vn -0 1.5894572E-07 -1
vn 1 -1.5894572E-07 5.9604645E-08
vn 1 -1.5894572E-07 5.9604645E-08
vn 1 -7.9472876E-08 1.1920929E-07
vn 1 -2.3841858E-07 0
vn 1 1.1920929E-07 5.9604645E-08
vn 1 5.9604645E-08 0
vn -5.9604645E-08 -7.9472855E-08 1
vn -0 0 1
vn -1.1920929E-07 -1.5894571E-07 1
vn -5.9604645E-08 5.9604645E-08 1
vn -0 1.1920929E-07 1
vn -8.34465E-07 0 -1
vn -8.34465E-07 0 -1
vn -8.34465E-07 0 -1
vn -8.34465E-07 0 -1
vn -8.34465E-07 0 -1
vn -8.34465E-07 0 -1
vn -1 0 1.5894572E-07
vn -1 0 1.5894572E-07
vn -1 0 1.5894572E-07
vn -1 0 1.5894572E-07
vn -1 0 1.5894572E-07
vn -1 0 1.5894572E-07
vn 1 0 4.7683656E-07
vn 1 0 4.7683656E-07
vn 1 0 4.7683656E-07
vn 1 0 4.7683656E-07
vn 1 -2.119278E-07 -1.5894601E-07
vn 1 -4.238556E-07 -7.947286E-07
vn -1 -3.973643E-08 2.5166423E-07
vn -1 0 3.1789165E-07
vn -1 -3.973643E-08 2.5166423E-07
vn -1 -7.947286E-08 1.8543679E-07
vn -1 2.980232E-08 2.3841875E-07
vn -1 5.960464E-08 3.1789165E-07
vn 1 -1.19209275E-07 1.1920919E-07
vn 1 -1.19209275E-07 1.1920919E-07
vn 1 -2.3841855E-07 -7.9472755E-08
vn 1 0 3.1789114E-07
vn 1 -1.6556804E-08 4.3268486E-07
vn 1 1.7881405E-07 9.536728E-07
vn -1 0 9.536743E-07
vn -1 0 9.536743E-07
vn 1 -2.2517344E-07 -1.0728845E-06
vn 1 -2.38419E-07 -1.1920945E-06
vn -1 0 -1.1920929E-07
vn -1 0 -1.1920929E-07
vn 1 -3.5762793E-07 -1.1920933E-07
vn 1 -4.7683733E-07 -3.5762795E-07
vn -3.26638E-07 -0.70710677 -0.70710677
vn -3.6878492E-07 -0.7071066 -0.70710695
vn -3.6878492E-07 -0.7071066 -0.70710695
vn -4.1093188E-07 -0.7071065 -0.7071071
vn 2.5288114E-07 -0.70710677 0.70710677
vn 2.5288114E-07 -0.70710677 0.70710677
vn 2.5288114E-07 -0.70710677 0.70710677
vn 2.528811E-07 -0.70710677 0.70710677
vn -0 -1 0
vn -0 -1 0
vn -0 -1 0
vn -0 -1 0
vn 3.5762793E-07 0 1
vn 3.5762793E-07 0 1
vn 3.5762793E-07 0 1
vn 3.5762793E-07 0 1
vn -5.811452E-07 0 -1
vn -5.811452E-07 0 -1
vn -5.811452E-07 0 -1
vn -5.811452E-07 0 -1
g pb_Mesh100954_0
f 3/3/3 2/2/2 1/1/1
f 3/3/3 4/4/4 2/2/2
g pb_Mesh100954_1
f 7/7/7 6/6/6 5/5/5
f 7/7/7 8/8/8 6/6/6
f 11/11/11 10/10/10 9/9/9
f 11/11/11 12/12/12 10/10/10
f 15/15/15 14/14/14 13/13/13
f 16/16/16 15/15/15 13/13/13
f 10/10/10 12/12/12 17/17/17
f 12/12/12 18/18/18 17/17/17
f 18/18/18 20/20/20 19/19/19
f 18/18/18 19/19/19 17/17/17
f 21/21/21 15/15/15 16/16/16
f 21/21/21 16/16/16 22/22/22
f 20/20/20 21/21/21 22/22/22
f 20/20/20 22/22/22 19/19/19
g pb_Mesh100954_2
f 25/25/25 24/24/24 23/23/23
f 25/25/25 23/23/23 26/26/26
f 29/29/29 28/28/28 27/27/27
f 29/29/29 27/27/27 30/30/30
f 33/33/33 32/32/32 31/31/31
f 32/32/32 34/34/34 31/31/31
f 37/37/37 36/36/36 35/35/35
f 36/36/36 38/38/38 35/35/35
f 41/41/41 40/40/40 39/39/39
f 41/41/41 42/42/42 40/40/40
f 45/45/45 44/44/44 43/43/43
f 45/45/45 46/46/46 44/44/44
f 48/48/48 47/47/47 41/41/41
f 48/48/48 41/41/41 39/39/39
f 50/50/50 43/43/43 49/49/49
f 43/43/43 44/44/44 49/49/49
f 52/52/52 50/50/50 51/51/51
f 50/50/50 49/49/49 51/51/51
f 55/55/55 54/54/54 53/53/53
f 55/55/55 53/53/53 56/56/56
f 24/24/24 55/55/55 56/56/56
f 24/24/24 56/56/56 23/23/23
f 59/59/59 58/58/58 57/57/57
f 59/59/59 57/57/57 60/60/60
f 28/28/28 59/59/59 60/60/60
f 28/28/28 60/60/60 27/27/27
f 63/63/63 62/62/62 61/61/61
f 62/62/62 64/64/64 61/61/61
f 32/32/32 63/63/63 34/34/34
f 63/63/63 61/61/61 34/34/34
f 67/67/67 66/66/66 65/65/65
f 66/66/66 68/68/68 65/65/65
f 70/70/70 67/67/67 69/69/69
f 67/67/67 65/65/65 69/69/69
f 56/56/56 72/72/72 71/71/71
f 56/56/56 71/71/71 73/73/73
f 74/74/74 56/56/56 73/73/73
f 74/74/74 73/73/73 75/75/75
f 78/78/78 77/77/77 76/76/76
f 77/77/77 79/79/79 76/76/76
f 77/77/77 80/80/80 79/79/79
f 80/80/80 81/81/81 79/79/79
f 84/84/84 83/83/83 82/82/82
f 84/84/84 82/82/82 85/85/85
f 86/86/86 84/84/84 85/85/85
f 86/86/86 85/85/85 87/87/87
f 90/90/90 89/89/89 88/88/88
f 89/89/89 91/91/91 88/88/88
f 93/93/93 90/90/90 92/92/92
f 90/90/90 88/88/88 92/92/92
f 96/96/96 95/95/95 94/94/94
f 96/96/96 94/94/94 97/97/97
f 98/98/98 96/96/96 97/97/97
f 98/98/98 97/97/97 99/99/99
f 102/102/102 101/101/101 100/100/100
f 101/101/101 103/103/103 100/100/100
f 105/105/105 102/102/102 104/104/104
f 102/102/102 100/100/100 104/104/104
f 98/98/98 106/106/106 96/96/96
f 98/98/98 107/107/107 106/106/106
f 104/104/104 100/100/100 108/108/108
f 100/100/100 109/109/109 108/108/108
f 107/107/107 110/110/110 106/106/106
f 107/107/107 111/111/111 110/110/110
f 87/87/87 85/85/85 110/110/110
f 87/87/87 110/110/110 111/111/111
f 108/108/108 109/109/109 112/112/112
f 109/109/109 113/113/113 112/112/112
f 112/112/112 113/113/113 93/93/93
f 113/113/113 90/90/90 93/93/93
f 116/116/116 115/115/115 114/114/114
f 116/116/116 117/117/117 115/115/115
f 120/120/120 119/119/119 118/118/118
f 120/120/120 121/121/121 119/119/119
f 124/124/124 123/123/123 122/122/122
f 124/124/124 125/125/125 123/123/123
f 128/128/128 127/127/127 126/126/126
f 128/128/128 129/129/129 127/127/127
f 132/132/132 131/131/131 130/130/130
f 132/132/132 133/133/133 131/131/131
