g Rock2
v 0.6529352 -0.15470482 -0.0618419
v -0.1614119 0.8837523 -0.13600989
v -0.36682922 -0.604805 -0.06657287
v 0.36113435 -0.78282875 0.010257242
v 0.7941039 -0.40978113 0.40650538
v 0.6529352 -0.15470482 -0.0618419
v -0.36682922 -0.604805 -0.06657287
v 0.11775228 -0.9947855 0.27120712
v 0.36113435 -0.78282875 0.010257242
v -0.51900625 0.40072763 -0.03222669
v -0.6175057 -0.48569202 0.27466947
v -0.36682922 -0.604805 -0.06657287
v -0.1614119 0.8837523 -0.13600989
v -0.51698285 0.7868306 0.21519831
v -0.51900625 0.40072763 -0.03222669
v 0.36113435 -0.78282875 0.010257242
v 0.11775228 -0.9947855 0.27120712
v 0.7941039 -0.40978113 0.40650538
v -0.36682922 -0.604805 -0.06657287
v -0.6175057 -0.48569202 0.27466947
v 0.11775228 -0.9947855 0.27120712
v -0.51900625 0.40072763 -0.03222669
v -0.51698285 0.7868306 0.21519831
v -0.6175057 -0.48569202 0.27466947
v -0.1614119 0.8837523 -0.13600989
v -0.09841491 1.0494102 0.22545597
v -0.51698285 0.7868306 0.21519831
v 0.4466469 0.664218 -0.06704678
v 0.80112636 0.23129633 0.3674991
v 0.44620216 0.7542846 0.17692295
v -0.11764762 -0.8550097 0.5598835
v -0.18750052 -0.3797315 0.87362987
v 0.4529078 -0.68190753 0.61208194
v -0.6175057 -0.48569202 0.27466947
v -0.18750052 -0.3797315 0.87362987
v -0.11764762 -0.8550097 0.5598835
v 0.7941039 -0.40978113 0.40650538
v 0.10884753 -0.08987717 0.9315404
v 0.80112636 0.23129633 0.3674991
v 0.10884753 -0.08987717 0.9315404
v 0.14843594 0.6692502 0.6196079
v 0.80112636 0.23129633 0.3674991
v 0.14843594 0.6692502 0.6196079
v 0.10884753 -0.08987717 0.9315404
v -0.5036816 0.33362666 0.66148436
v 0.14843594 0.6692502 0.6196079
v -0.5036816 0.33362666 0.66148436
v -0.09841491 1.0494102 0.22545597
v -0.09841491 1.0494102 0.22545597
v -0.5036816 0.33362666 0.66148436
v -0.51698285 0.7868306 0.21519831
v -0.5036816 0.33362666 0.66148436
v 0.10884753 -0.08987717 0.9315404
v -0.18750052 -0.3797315 0.87362987
v -0.5036816 0.33362666 0.66148436
v -0.18750052 -0.3797315 0.87362987
v -0.6175057 -0.48569202 0.27466947
v -0.18750052 -0.3797315 0.87362987
v 0.10884753 -0.08987717 0.9315404
v 0.4529078 -0.68190753 0.61208194
v 0.4529078 -0.68190753 0.61208194
v 0.10884753 -0.08987717 0.9315404
v 0.7941039 -0.40978113 0.40650538
v 0.44620216 0.7542846 0.17692295
v 0.80112636 0.23129633 0.3674991
v 0.14843594 0.6692502 0.6196079
v -0.51698285 0.7868306 0.21519831
v -0.5036816 0.33362666 0.66148436
v -0.6175057 -0.48569202 0.27466947
v -0.6175057 -0.48569202 0.27466947
v -0.11764762 -0.8550097 0.5598835
v 0.11775228 -0.9947855 0.27120712
v 0.11775228 -0.9947855 0.27120712
v -0.11764762 -0.8550097 0.5598835
v 0.4529078 -0.68190753 0.61208194
v 0.11775228 -0.9947855 0.27120712
v 0.4529078 -0.68190753 0.61208194
v 0.7941039 -0.40978113 0.40650538
v 0.44620216 0.7542846 0.17692295
v 0.14843594 0.6692502 0.6196079
v -0.09841491 1.0494102 0.22545597
v 0.44620216 0.7542846 0.17692295
v -0.09841491 1.0494102 0.22545597
v 0.4466469 0.664218 -0.06704678
v 0.4466469 0.664218 -0.06704678
v -0.09841491 1.0494102 0.22545597
v -0.1614119 0.8837523 -0.13600989
v 0.7941039 -0.40978113 0.40650538
v 0.80112636 0.23129633 0.3674991
v 0.6529352 -0.15470482 -0.0618419
v 0.6529352 -0.15470482 -0.0618419
v 0.80112636 0.23129633 0.3674991
v 0.4466469 0.664218 -0.06704678
v 0.6529352 -0.15470482 -0.0618419
v 0.4466469 0.664218 -0.06704678
v -0.1614119 0.8837523 -0.13600989
v -0.1614119 0.8837523 -0.13600989
v -0.51900625 0.40072763 -0.03222669
v -0.36682922 -0.604805 -0.06657287
v -0.36682922 -0.604805 -0.06657287
v 0.36113435 -0.78282875 0.010257242
v 0.6529352 -0.15470482 -0.0618419
vn 0.026824951 -0.05026245 -0.99853516
vn 0.026824951 -0.05026245 -0.99853516
vn 0.026824951 -0.05026245 -0.99853516
vn 0.78271484 -0.41674805 -0.46264648
vn 0.78271484 -0.41674805 -0.46264648
vn 0.78271484 -0.41674805 -0.46264648
vn -0.10443115 -0.72216797 -0.68408203
vn -0.10443115 -0.72216797 -0.68408203
vn -0.10443115 -0.72216797 -0.68408203
vn -0.8183594 -0.10461426 -0.5649414
vn -0.8183594 -0.10461426 -0.5649414
vn -0.8183594 -0.10461426 -0.5649414
vn -0.69873047 0.38842773 -0.60058594
vn -0.69873047 0.38842773 -0.60058594
vn -0.69873047 0.38842773 -0.60058594
vn 0.65478516 -0.7558594 -0.003528595
vn 0.65478516 -0.7558594 -0.003528595
vn 0.65478516 -0.7558594 -0.003528595
vn -0.5649414 -0.8149414 -0.13049316
vn -0.5649414 -0.8149414 -0.13049316
vn -0.5649414 -0.8149414 -0.13049316
vn -0.9916992 0.07336426 -0.10638428
vn -0.9916992 0.07336426 -0.10638428
vn -0.9916992 0.07336426 -0.10638428
vn -0.50439453 0.8149414 -0.28564453
vn -0.50439453 0.8149414 -0.28564453
vn -0.50439453 0.8149414 -0.28564453
vn 0.8432617 0.5048828 -0.18481445
vn 0.8432617 0.5048828 -0.18481445
vn 0.8432617 0.5048828 -0.18481445
vn 0.08721924 -0.54003906 0.83740234
vn 0.08721924 -0.54003906 0.83740234
vn 0.08721924 -0.54003906 0.83740234
vn -0.6738281 -0.4736328 0.5673828
vn -0.6738281 -0.4736328 0.5673828
vn -0.6738281 -0.4736328 0.5673828
vn 0.6196289 0.040893555 0.7836914
vn 0.6196289 0.040893555 0.7836914
vn 0.6196289 0.040893555 0.7836914
vn 0.5136719 0.30297852 0.8027344
vn 0.5136719 0.30297852 0.8027344
vn 0.5136719 0.30297852 0.8027344
vn -0.1381836 0.38256836 0.9135742
vn -0.1381836 0.38256836 0.9135742
vn -0.1381836 0.38256836 0.9135742
vn -0.26391602 0.6064453 0.75
vn -0.26391602 0.6064453 0.75
vn -0.26391602 0.6064453 0.75
vn -0.41308594 0.6328125 0.65478516
vn -0.41308594 0.6328125 0.65478516
vn -0.41308594 0.6328125 0.65478516
vn -0.31811523 0.13793945 0.9379883
vn -0.31811523 0.13793945 0.9379883
vn -0.31811523 0.13793945 0.9379883
vn -0.78564453 -0.17150879 0.5942383
vn -0.78564453 -0.17150879 0.5942383
vn -0.78564453 -0.17150879 0.5942383
vn 0.1920166 -0.37719727 0.9057617
vn 0.1920166 -0.37719727 0.9057617
vn 0.1920166 -0.37719727 0.9057617
vn 0.5732422 -0.105163574 0.8125
vn 0.5732422 -0.105163574 0.8125
vn 0.5732422 -0.105163574 0.8125
vn 0.60498047 0.6010742 0.52246094
vn 0.60498047 0.6010742 0.52246094
vn 0.60498047 0.6010742 0.52246094
vn -0.9897461 0.08355713 0.11431885
vn -0.9897461 0.08355713 0.11431885
vn -0.9897461 0.08355713 0.11431885
vn -0.5683594 -0.8203125 -0.066223145
vn -0.5683594 -0.8203125 -0.066223145
vn -0.5683594 -0.8203125 -0.066223145
vn 0.19543457 -0.8105469 0.5517578
vn 0.19543457 -0.8105469 0.5517578
vn 0.19543457 -0.8105469 0.5517578
vn 0.6455078 -0.76123047 0.06390381
vn 0.6455078 -0.76123047 0.06390381
vn 0.6455078 -0.76123047 0.06390381
vn 0.4555664 0.7661133 0.45361328
vn 0.4555664 0.7661133 0.45361328
vn 0.4555664 0.7661133 0.45361328
vn 0.43115234 0.8466797 -0.31176758
vn 0.43115234 0.8466797 -0.31176758
vn 0.43115234 0.8466797 -0.31176758
vn 0.3486328 0.8276367 -0.4399414
vn 0.3486328 0.8276367 -0.4399414
vn 0.3486328 0.8276367 -0.4399414
vn 0.9526367 -0.02885437 -0.30273438
vn 0.9526367 -0.02885437 -0.30273438
vn 0.9526367 -0.02885437 -0.30273438
vn 0.8496094 0.2109375 -0.48291016
vn 0.8496094 0.2109375 -0.48291016
vn 0.8496094 0.2109375 -0.48291016
vn 0.121276855 0.024246216 -0.9921875
vn 0.121276855 0.024246216 -0.9921875
vn 0.121276855 0.024246216 -0.9921875
vn -0.26904297 -0.0078086853 -0.9628906
vn -0.26904297 -0.0078086853 -0.9628906
vn -0.26904297 -0.0078086853 -0.9628906
vn 0.06866455 -0.1451416 -0.9868164
vn 0.06866455 -0.1451416 -0.9868164
vn 0.06866455 -0.1451416 -0.9868164
g Rock2_0
f 3/3/3 2/2/2 1/1/1
f 6/6/6 5/5/5 4/4/4
f 9/9/9 8/8/8 7/7/7
f 12/12/12 11/11/11 10/10/10
f 15/15/15 14/14/14 13/13/13
f 18/18/18 17/17/17 16/16/16
f 21/21/21 20/20/20 19/19/19
f 24/24/24 23/23/23 22/22/22
f 27/27/27 26/26/26 25/25/25
f 30/30/30 29/29/29 28/28/28
f 33/33/33 32/32/32 31/31/31
f 36/36/36 35/35/35 34/34/34
f 39/39/39 38/38/38 37/37/37
f 42/42/42 41/41/41 40/40/40
f 45/45/45 44/44/44 43/43/43
f 48/48/48 47/47/47 46/46/46
f 51/51/51 50/50/50 49/49/49
f 54/54/54 53/53/53 52/52/52
f 57/57/57 56/56/56 55/55/55
f 60/60/60 59/59/59 58/58/58
f 63/63/63 62/62/62 61/61/61
f 66/66/66 65/65/65 64/64/64
f 69/69/69 68/68/68 67/67/67
f 72/72/72 71/71/71 70/70/70
f 75/75/75 74/74/74 73/73/73
f 78/78/78 77/77/77 76/76/76
f 81/81/81 80/80/80 79/79/79
f 84/84/84 83/83/83 82/82/82
f 87/87/87 86/86/86 85/85/85
f 90/90/90 89/89/89 88/88/88
f 93/93/93 92/92/92 91/91/91
f 96/96/96 95/95/95 94/94/94
f 99/99/99 98/98/98 97/97/97
f 102/102/102 101/101/101 100/100/100
