g Sphere
v -0.08768038 0.07859469 -0.62192947
v 0.14237317 -0.059848446 -0.6532508
v 0.023266967 0.36709106 -0.75148594
v 0.6019198 0.34275538 -0.3658316
v 0.062112443 0.8201634 0.21677296
v -0.2663319 0.7256342 -0.3186982
v -0.31627068 0.3299791 -0.4951679
v -0.08768038 0.07859469 -0.62192947
v -0.35925376 -0.09363166 -0.63308865
v -0.8960335 0.27108434 -0.0803609
v -0.59248865 -0.28668383 -0.3339114
v -0.5161592 0.6165401 0.38021746
v -0.6145217 0.13562776 0.69958
v -0.6284694 -0.21473756 0.16815633
v -0.34054813 0.44822887 1.5863085
v -0.394607 -0.09832169 1.4952992
v -0.07290572 0.022186115 2.5203626
v 0.29016972 0.5176571 1.4504219
v 0.103775755 -0.057563365 2.313013
v 0.30005354 0.760276 0.6804781
v 0.72009957 0.3200056 0.2690894
v 0.5540612 0.09176415 1.2109208
v 0.80157584 -0.30360433 -0.024457742
v 0.79072183 -0.4576592 0.44883502
v 0.23664527 -0.38675767 1.4045682
v 0.320693 -0.24691334 -0.54226804
v -0.056371577 -0.34610367 1.9246618
v -0.07290572 0.022186115 2.5203626
v -0.394607 -0.09832169 1.4952992
v -0.028926942 -0.51310825 1.2013855
v 0.44985616 -0.65278584 -0.16273268
v -0.035857216 -0.4760628 -0.6435186
v 0.15929523 -0.80320793 0.11971587
v -0.7428037 -0.55530965 0.57088727
v -0.6145217 0.13562776 0.69958
v -0.6284694 -0.21473756 0.16815633
v -0.28985164 -0.70745957 -0.035419635
v -0.59248865 -0.28668383 -0.3339114
v -0.8960335 0.27108434 -0.0803609
v -0.35925376 -0.09363166 -0.63308865
v -0.08768038 0.07859469 -0.62192947
vt 0.57812464 0
vt 0.40070337 0.10324649
vt 0.7193279 0.1518143
vt 0.5808827 0.34422517
vt 0.74767077 0.531718
vt 0.8147163 0.37442428
vt 0.88221025 0.22526836
vt 0.9155786 0.050517134
vt 0.9930539 0.14471835
vt 0.9565166 0.44521347
vt 1 0.2519601
vt 0.85460776 0.56671584
vt 0.9621811 0.6415346
vt 1 0.45417374
vt 0.856653 0.78329813
vt 1.0005237 0.78852063
vt 0.82012033 0.9630309
vt 0.66717315 0.77026427
vt 0.4338326 0.9140781
vt 0.67764926 0.6452575
vt 0.5651008 0.54124665
vt 0.52886343 0.7317325
vt 0.44448072 0.46485522
vt 0.41796702 0.582553
vt 0.38320124 0.7501241
vt 0.40876508 0.22724102
vt 0.23518911 0.8484864
vt 0.21640183 0.990586
vt 0.045538567 0.7667527
vt 0.24003762 0.72945035
vt 0.3435486 0.4103086
vt 0.23792467 0.2029239
vt 0.27602214 0.4871375
vt 0.10667403 0.5981885
vt 0.0068930476 0.6442231
vt 0.05217185 0.5070227
vt 0.18349749 0.45842552
vt 0.072559014 0.32664174
vt 5.9604645E-08 0.37500006
vt 0.056695327 0.16071066
vt 0.17187518 0
vn -0.263229 0.012360319 -0.9646542
vn 0.2603305 -0.07083553 -0.9629176
vn 0.0044253124 0.34190878 -0.9397227
vn 0.73843145 0.44108737 -0.5100597
vn 0.13657387 0.9873604 -0.08041835
vn -0.2269112 0.85469383 -0.46691522
vn -0.5384248 0.29951826 -0.7876469
vn -0.263229 0.012360319 -0.9646542
vn -0.43947828 -0.025941426 -0.8978785
vn -0.96067363 0.19922732 -0.19342873
vn -0.7772012 -0.4739932 -0.41387045
vn -0.6239682 0.7648151 0.16037922
vn -0.95972764 0.16525981 0.22718264
vn -0.9420642 -0.3273786 -0.07306278
vn -0.63873833 0.66629726 0.3847873
vn -0.8885465 -0.31584692 0.3327548
vn -0.13837512 0.03628761 0.9897148
vn 0.5213615 0.7659738 0.37612006
vn 0.7459181 -0.2869714 0.60104376
vn 0.4099924 0.8997004 0.14981781
vn 0.88806015 0.4591373 0.023286477
vn 0.93483675 0.077366434 0.34654668
vn 0.91533834 -0.2265151 -0.3329363
vn 0.85352105 -0.49556527 0.160987
vn 0.5754949 -0.7523824 0.32050946
vn 0.56079787 -0.24614067 -0.79051906
vn -0.18470342 -0.9013295 0.39177758
vn -0.13837512 0.03628761 0.9897148
vn -0.8885465 -0.31584692 0.3327548
vn -0.091587335 -0.94556826 0.31226978
vn 0.48754135 -0.7724975 -0.4068796
vn -0.03573826 -0.56839395 -0.82197994
vn 0.09036764 -0.9958752 -0.0081486525
vn -0.821808 -0.5643826 0.07812791
vn -0.95972764 0.16525981 0.22718264
vn -0.9420642 -0.3273786 -0.07306278
vn -0.42720512 -0.8806871 -0.20466049
vn -0.7772012 -0.4739932 -0.41387045
vn -0.96067363 0.19922732 -0.19342873
vn -0.43947828 -0.025941426 -0.8978785
vn -0.263229 0.012360319 -0.9646542
g Sphere_0
f 3/3/3 2/2/2 1/1/1
f 2/2/2 3/3/3 4/4/4
f 4/4/4 3/3/3 5/5/5
f 5/5/5 3/3/3 6/6/6
f 6/6/6 3/3/3 7/7/7
f 7/7/7 3/3/3 8/8/8
f 7/7/7 8/8/8 9/9/9
f 10/10/10 7/7/7 9/9/9
f 6/6/6 7/7/7 10/10/10
f 9/9/9 11/11/11 10/10/10
f 6/6/6 10/10/10 12/12/12
f 12/12/12 5/5/5 6/6/6
f 13/13/13 12/12/12 10/10/10
f 13/13/13 10/10/10 14/14/14
f 12/12/12 13/13/13 15/15/15
f 5/5/5 12/12/12 15/15/15
f 15/15/15 13/13/13 16/16/16
f 15/15/15 16/16/16 17/17/17
f 18/18/18 15/15/15 17/17/17
f 19/19/19 18/18/18 17/17/17
f 20/20/20 5/5/5 15/15/15
f 18/18/18 20/20/20 15/15/15
f 20/20/20 21/21/21 5/5/5
f 5/5/5 21/21/21 4/4/4
f 22/22/22 20/20/20 18/18/18
f 18/18/18 19/19/19 22/22/22
f 22/22/22 21/21/21 20/20/20
f 4/4/4 21/21/21 23/23/23
f 24/24/24 21/21/21 22/22/22
f 21/21/21 24/24/24 23/23/23
f 19/19/19 25/25/25 22/22/22
f 25/25/25 24/24/24 22/22/22
f 23/23/23 26/26/26 4/4/4
f 26/26/26 2/2/2 4/4/4
f 27/27/27 25/25/25 19/19/19
f 19/19/19 28/28/28 27/27/27
f 28/28/28 29/29/29 27/27/27
f 27/27/27 30/30/30 25/25/25
f 27/27/27 29/29/29 30/30/30
f 25/25/25 30/30/30 24/24/24
f 23/23/23 31/31/31 26/26/26
f 31/31/31 23/23/23 24/24/24
f 32/32/32 2/2/2 26/26/26
f 32/32/32 26/26/26 31/31/31
f 24/24/24 33/33/33 31/31/31
f 30/30/30 33/33/33 24/24/24
f 33/33/33 32/32/32 31/31/31
f 30/30/30 29/29/29 34/34/34
f 29/29/29 35/35/35 34/34/34
f 35/35/35 36/36/36 34/34/34
f 30/30/30 37/37/37 33/33/33
f 34/34/34 37/37/37 30/30/30
f 34/34/34 36/36/36 37/37/37
f 37/37/37 32/32/32 33/33/33
f 36/36/36 38/38/38 37/37/37
f 37/37/37 38/38/38 32/32/32
f 36/36/36 39/39/39 38/38/38
f 38/38/38 40/40/40 32/32/32
f 32/32/32 40/40/40 2/2/2
f 2/2/2 40/40/40 41/41/41
