g Bone
v -0.068862915 1.2507809 -0.11014891
v -0.10531998 1.3276763 -0.114495754
v -0.14320135 1.3276763 0.053939342
v -0.10933924 1.2507809 0.069824696
v -0.017624855 1.3276763 0.08218145
v -0.020319939 1.4916159 0.09417105
v 0.24208593 1.4916159 0.15318632
v 0.10795164 1.3276763 0.110423565
v -0.020319939 1.4916159 0.09417105
v -0.0140247345 1.6046773 0.06617832
v 0.16535473 1.6725146 0.09445238
v 0.24208593 1.4916159 0.15318632
v -0.10531998 1.3276763 -0.114495754
v -0.23945236 1.4916159 -0.15725756
v -0.2827263 1.4916159 0.035155773
v -0.14320135 1.3276763 0.053939342
v 0.10795164 1.3276763 0.110423565
v 0.24208593 1.4916159 0.15318632
v 0.28535986 1.4916159 -0.039226532
v 0.14583302 1.3276763 -0.058011055
v 0.02025652 1.3276763 -0.08625364
v -0.23945236 1.4916159 -0.15725756
v -0.10531998 1.3276763 -0.114495754
v 0.022953987 1.4916159 -0.09824228
v 0.14583302 1.3276763 -0.058011055
v 0.28535986 1.4916159 -0.039226532
v 0.016955376 1.6046773 -0.07156992
v 0.19375086 1.6725146 -0.031808376
v 0.16535473 1.6725146 0.09445238
v -0.0140247345 1.6046773 0.06617832
v -0.23945236 1.4916159 -0.15725756
v -0.15432501 1.6725146 -0.11009121
v -0.18272114 1.6725146 0.016170025
v -0.2827263 1.4916159 0.035155773
v 0.24208593 1.4916159 0.15318632
v 0.16535473 1.6725146 0.09445238
v 0.19375086 1.6725146 -0.031808376
v 0.28535986 1.4916159 -0.039226532
v 0.022953987 1.4916159 -0.09824228
v 0.016955376 1.6046773 -0.07156992
v -0.15432501 1.6725146 -0.11009121
v -0.23945236 1.4916159 -0.15725756
v 0.28535986 1.4916159 -0.039226532
v 0.19375086 1.6725146 -0.031808376
v 0.016955376 1.6046773 -0.07156992
v 0.022953987 1.4916159 -0.09824228
v -0.15432501 1.6725146 -0.11009121
v 0.016955376 1.6046773 -0.07156992
v -0.0140247345 1.6046773 0.06617832
v -0.18272114 1.6725146 0.016170025
v -0.2827263 1.4916159 0.035155773
v -0.18272114 1.6725146 0.016170025
v -0.0140247345 1.6046773 0.06617832
v -0.020319939 1.4916159 0.09417105
v -0.14320135 1.3276763 0.053939342
v -0.2827263 1.4916159 0.035155773
v -0.020319939 1.4916159 0.09417105
v -0.017624855 1.3276763 0.08218145
v -0.10531998 1.3276763 -0.114495754
v -0.068862915 1.2507809 -0.11014891
v 0.021123886 1.2507809 -0.08991051
v 0.02025652 1.3276763 -0.08625364
v 0.10795164 1.3276763 0.110423565
v 0.070634365 1.2507809 0.11030102
v -0.019352436 1.2507809 0.090063095
v -0.017624855 1.3276763 0.08218145
v -0.10933924 1.2507809 0.069824696
v -0.14320135 1.3276763 0.053939342
v 0.02025652 1.3276763 -0.08625364
v 0.021123886 1.2507809 -0.08991051
v 0.104941845 1.2507809 -0.042242527
v 0.14583302 1.3276763 -0.058011055
v 0.14583302 1.3276763 -0.058011055
v 0.104941845 1.2507809 -0.042242527
v 0.070634365 1.2507809 0.11030102
v 0.10795164 1.3276763 0.110423565
v -0.054382324 -2.3841858E-07 -0.08726454
v -0.068862915 1.2507809 -0.11014891
v -0.10933924 1.2507809 0.069824696
v -0.08645487 -2.3841858E-07 0.055344105
v -0.068862915 1.2507809 -0.11014891
v -0.054382324 -2.3841858E-07 -0.08726454
v 0.016921997 -2.3841858E-07 -0.07122803
v 0.021123886 1.2507809 -0.08991051
v 0.070634365 1.2507809 0.11030102
v 0.056153774 -2.3841858E-07 0.087417126
v -0.015150547 -2.3841858E-07 0.071380615
v -0.019352436 1.2507809 0.090063095
v -0.08645487 -2.3841858E-07 0.055344105
v -0.10933924 1.2507809 0.069824696
v 0.021123886 1.2507809 -0.08991051
v 0.016921997 -2.3841858E-07 -0.07122803
v 0.088226795 -2.3841858E-07 -0.055191517
v 0.104941845 1.2507809 -0.042242527
v 0.104941845 1.2507809 -0.042242527
v 0.088226795 -2.3841858E-07 -0.055191517
v 0.056153774 -2.3841858E-07 0.087417126
v 0.070634365 1.2507809 0.11030102
v -0.068862915 -1.2507815 -0.11014891
v -0.10933924 -1.2507815 0.069824696
v -0.14320135 -1.3276768 0.053939342
v -0.10531998 -1.3276768 -0.114495754
v -0.017624855 -1.3276768 0.08218145
v 0.10795164 -1.3276768 0.110423565
v 0.24208593 -1.4916162 0.15318632
v -0.020319939 -1.4916162 0.09417105
v -0.020319939 -1.4916162 0.09417105
v 0.24208593 -1.4916162 0.15318632
v 0.16535473 -1.6725149 0.09445238
v -0.0140247345 -1.6046777 0.06617832
v -0.10531998 -1.3276768 -0.114495754
v -0.14320135 -1.3276768 0.053939342
v -0.2827263 -1.4916162 0.035155773
v -0.23945236 -1.4916162 -0.15725756
v 0.10795164 -1.3276768 0.110423565
v 0.14583302 -1.3276768 -0.058011055
v 0.28535986 -1.4916162 -0.039226532
v 0.24208593 -1.4916162 0.15318632
v 0.02025652 -1.3276768 -0.08625364
v -0.10531998 -1.3276768 -0.114495754
v -0.23945236 -1.4916162 -0.15725756
v 0.022953987 -1.4916162 -0.09824228
v 0.14583302 -1.3276768 -0.058011055
v 0.28535986 -1.4916162 -0.039226532
v 0.016955376 -1.6046777 -0.07156992
v -0.0140247345 -1.6046777 0.06617832
v 0.16535473 -1.6725149 0.09445238
v 0.19375086 -1.6725149 -0.031808376
v -0.23945236 -1.4916162 -0.15725756
v -0.2827263 -1.4916162 0.035155773
v -0.18272114 -1.6725149 0.016170025
v -0.15432501 -1.6725149 -0.11009121
v 0.24208593 -1.4916162 0.15318632
v 0.28535986 -1.4916162 -0.039226532
v 0.19375086 -1.6725149 -0.031808376
v 0.16535473 -1.6725149 0.09445238
v 0.022953987 -1.4916162 -0.09824228
v -0.23945236 -1.4916162 -0.15725756
v -0.15432501 -1.6725149 -0.11009121
v 0.016955376 -1.6046777 -0.07156992
v 0.28535986 -1.4916162 -0.039226532
v 0.022953987 -1.4916162 -0.09824228
v 0.016955376 -1.6046777 -0.07156992
v 0.19375086 -1.6725149 -0.031808376
v -0.15432501 -1.6725149 -0.11009121
v -0.18272114 -1.6725149 0.016170025
v -0.0140247345 -1.6046777 0.06617832
v 0.016955376 -1.6046777 -0.07156992
v -0.2827263 -1.4916162 0.035155773
v -0.020319939 -1.4916162 0.09417105
v -0.0140247345 -1.6046777 0.06617832
v -0.18272114 -1.6725149 0.016170025
v -0.14320135 -1.3276768 0.053939342
v -0.017624855 -1.3276768 0.08218145
v -0.020319939 -1.4916162 0.09417105
v -0.2827263 -1.4916162 0.035155773
v -0.10531998 -1.3276768 -0.114495754
v 0.02025652 -1.3276768 -0.08625364
v 0.021123886 -1.2507815 -0.08991051
v -0.068862915 -1.2507815 -0.11014891
v 0.10795164 -1.3276768 0.110423565
v -0.019352436 -1.2507815 0.090063095
v 0.070634365 -1.2507815 0.11030102
v -0.017624855 -1.3276768 0.08218145
v -0.10933924 -1.2507815 0.069824696
v -0.14320135 -1.3276768 0.053939342
v 0.02025652 -1.3276768 -0.08625364
v 0.14583302 -1.3276768 -0.058011055
v 0.104941845 -1.2507815 -0.042242527
v 0.021123886 -1.2507815 -0.08991051
v 0.14583302 -1.3276768 -0.058011055
v 0.10795164 -1.3276768 0.110423565
v 0.070634365 -1.2507815 0.11030102
v 0.104941845 -1.2507815 -0.042242527
v -0.054382324 -2.3841858E-07 -0.08726454
v -0.08645487 -2.3841858E-07 0.055344105
v -0.10933924 -1.2507815 0.069824696
v -0.068862915 -1.2507815 -0.11014891
v -0.068862915 -1.2507815 -0.11014891
v 0.021123886 -1.2507815 -0.08991051
v 0.016921997 -2.3841858E-07 -0.07122803
v -0.054382324 -2.3841858E-07 -0.08726454
v 0.070634365 -1.2507815 0.11030102
v -0.015150547 -2.3841858E-07 0.071380615
v 0.056153774 -2.3841858E-07 0.087417126
v -0.019352436 -1.2507815 0.090063095
v -0.08645487 -2.3841858E-07 0.055344105
v -0.10933924 -1.2507815 0.069824696
v 0.021123886 -1.2507815 -0.08991051
v 0.104941845 -1.2507815 -0.042242527
v 0.088226795 -2.3841858E-07 -0.055191517
v 0.016921997 -2.3841858E-07 -0.07122803
v 0.104941845 -1.2507815 -0.042242527
v 0.070634365 -1.2507815 0.11030102
v 0.056153774 -2.3841858E-07 0.087417126
v 0.088226795 -2.3841858E-07 -0.055191517
vt 0.375 0.24304199
vt 0.375 0.25
vt 0.625 0.25
vt 0.625 0.24304199
vt 0.75 0.5
vt 0.75 0.5
vt 0.625 0.5
vt 0.625 0.5
vt 0.75 0.5
vt 0.75 0.5
vt 0.625 0.5
vt 0.625 0.5
vt 0.375 0.25
vt 0.375 0.25
vt 0.625 0.25
vt 0.625 0.25
vt 0.625 0.5
vt 0.625 0.5
vt 0.375 0.5
vt 0.375 0.5
vt 0.25 0.5
vt 0.125 0.5
vt 0.125 0.5
vt 0.25 0.5
vt 0.375 0.5
vt 0.375 0.5
vt 0.375 0.375
vt 0.375 0.5
vt 0.625 0.5
vt 0.625 0.375
vt 0.375 0.25
vt 0.375 0.25
vt 0.625 0.25
vt 0.625 0.25
vt 0.625 0.5
vt 0.625 0.5
vt 0.375 0.5
vt 0.375 0.5
vt 0.25 0.5
vt 0.25 0.5
vt 0.125 0.5
vt 0.125 0.5
vt 0.375 0.5
vt 0.375 0.5
vt 0.25 0.5
vt 0.25 0.5
vt 0.375 0.25
vt 0.375 0.375
vt 0.625 0.375
vt 0.625 0.25
vt 0.875 0.5
vt 0.875 0.5
vt 0.75 0.5
vt 0.75 0.5
vt 0.875 0.5
vt 0.875 0.5
vt 0.75 0.5
vt 0.75 0.5
vt 0.125 0.5
vt 0.125 0.50683594
vt 0.25 0.50683594
vt 0.25 0.5
vt 0.625 0.5
vt 0.625 0.50683594
vt 0.75 0.50683594
vt 0.75 0.5
vt 0.875 0.50683594
vt 0.875 0.5
vt 0.25 0.5
vt 0.25 0.50683594
vt 0.375 0.50683594
vt 0.375 0.5
vt 0.375 0.5
vt 0.375 0.50683594
vt 0.625 0.50683594
vt 0.625 0.5
vt 0.375 0.12475586
vt 0.375 0.24304199
vt 0.625 0.24304199
vt 0.625 0.12475586
vt 0.125 0.50683594
vt 0.125 0.625
vt 0.25 0.625
vt 0.25 0.50683594
vt 0.625 0.50683594
vt 0.625 0.625
vt 0.75 0.625
vt 0.75 0.50683594
vt 0.875 0.625
vt 0.875 0.50683594
vt 0.25 0.50683594
vt 0.25 0.625
vt 0.375 0.625
vt 0.375 0.50683594
vt 0.375 0.50683594
vt 0.375 0.625
vt 0.625 0.625
vt 0.625 0.50683594
vt 0.375 0.24304199
vt 0.625 0.24304199
vt 0.625 0.25
vt 0.375 0.25
vt 0.75 0.5
vt 0.625 0.5
vt 0.625 0.5
vt 0.75 0.5
vt 0.75 0.5
vt 0.625 0.5
vt 0.625 0.5
vt 0.75 0.5
vt 0.375 0.25
vt 0.625 0.25
vt 0.625 0.25
vt 0.375 0.25
vt 0.625 0.5
vt 0.375 0.5
vt 0.375 0.5
vt 0.625 0.5
vt 0.25 0.5
vt 0.125 0.5
vt 0.125 0.5
vt 0.25 0.5
vt 0.375 0.5
vt 0.375 0.5
vt 0.375 0.375
vt 0.625 0.375
vt 0.625 0.5
vt 0.375 0.5
vt 0.375 0.25
vt 0.625 0.25
vt 0.625 0.25
vt 0.375 0.25
vt 0.625 0.5
vt 0.375 0.5
vt 0.375 0.5
vt 0.625 0.5
vt 0.25 0.5
vt 0.125 0.5
vt 0.125 0.5
vt 0.25 0.5
vt 0.375 0.5
vt 0.25 0.5
vt 0.25 0.5
vt 0.375 0.5
vt 0.375 0.25
vt 0.625 0.25
vt 0.625 0.375
vt 0.375 0.375
vt 0.875 0.5
vt 0.75 0.5
vt 0.75 0.5
vt 0.875 0.5
vt 0.875 0.5
vt 0.75 0.5
vt 0.75 0.5
vt 0.875 0.5
vt 0.125 0.5
vt 0.25 0.5
vt 0.25 0.50683594
vt 0.125 0.50683594
vt 0.625 0.5
vt 0.75 0.50683594
vt 0.625 0.50683594
vt 0.75 0.5
vt 0.875 0.50683594
vt 0.875 0.5
vt 0.25 0.5
vt 0.375 0.5
vt 0.375 0.50683594
vt 0.25 0.50683594
vt 0.375 0.5
vt 0.625 0.5
vt 0.625 0.50683594
vt 0.375 0.50683594
vt 0.375 0.12475586
vt 0.625 0.12475586
vt 0.625 0.24304199
vt 0.375 0.24304199
vt 0.125 0.50683594
vt 0.25 0.50683594
vt 0.25 0.625
vt 0.125 0.625
vt 0.625 0.50683594
vt 0.75 0.625
vt 0.625 0.625
vt 0.75 0.50683594
vt 0.875 0.625
vt 0.875 0.50683594
vt 0.25 0.50683594
vt 0.375 0.50683594
vt 0.375 0.625
vt 0.25 0.625
vt 0.375 0.50683594
vt 0.625 0.50683594
vt 0.625 0.625
vt 0.375 0.625
vn -0.88134766 -0.42895508 -0.19824219
vn -0.88134766 -0.42895508 -0.19824219
vn -0.88134766 -0.42895508 -0.19824219
vn -0.88134766 -0.42895508 -0.19824219
vn -0.21875 -0.07476807 0.97314453
vn -0.21875 -0.07476807 0.97314453
vn -0.21875 -0.07476807 0.97314453
vn -0.21875 -0.07476807 0.97314453
vn -0.22216797 0.2265625 0.9482422
vn -0.22216797 0.2265625 0.9482422
vn -0.22216797 0.2265625 0.9482422
vn -0.22216797 0.2265625 0.9482422
vn -0.74121094 -0.64990234 -0.16674805
vn -0.74121094 -0.64990234 -0.16674805
vn -0.74121094 -0.64990234 -0.16674805
vn -0.74121094 -0.64990234 -0.16674805
vn 0.74121094 -0.64990234 0.16674805
vn 0.74121094 -0.64990234 0.16674805
vn 0.74121094 -0.64990234 0.16674805
vn 0.74121094 -0.64990234 0.16674805
vn 0.21875 -0.07476807 -0.97314453
vn 0.21875 -0.07476807 -0.97314453
vn 0.21875 -0.07476807 -0.97314453
vn 0.21875 -0.07476807 -0.97314453
vn 0.21875 -0.07476807 -0.97314453
vn 0.21875 -0.07476807 -0.97314453
vn -0.34204102 0.93652344 -0.0769043
vn -0.34204102 0.93652344 -0.0769043
vn -0.34204102 0.93652344 -0.0769043
vn -0.34204102 0.93652344 -0.0769043
vn -0.8666992 0.45874023 -0.19494629
vn -0.8666992 0.45874023 -0.19494629
vn -0.8666992 0.45874023 -0.19494629
vn -0.8666992 0.45874023 -0.19494629
vn 0.8779297 0.43652344 0.1973877
vn 0.8779297 0.43652344 0.1973877
vn 0.8779297 0.43652344 0.1973877
vn 0.8779297 0.43652344 0.1973877
vn 0.24194336 0.17456055 -0.95458984
vn 0.24194336 0.17456055 -0.95458984
vn 0.24194336 0.17456055 -0.95458984
vn 0.24194336 0.17456055 -0.95458984
vn 0.19018555 0.1751709 -0.9658203
vn 0.19018555 0.1751709 -0.9658203
vn 0.19018555 0.1751709 -0.9658203
vn 0.19018555 0.1751709 -0.9658203
vn 0.3515625 0.9326172 0.07910156
vn 0.3515625 0.9326172 0.07910156
vn 0.3515625 0.9326172 0.07910156
vn 0.3515625 0.9326172 0.07910156
vn -0.2052002 0.22631836 0.95214844
vn -0.2052002 0.22631836 0.95214844
vn -0.2052002 0.22631836 0.95214844
vn -0.2052002 0.22631836 0.95214844
vn -0.21875 -0.07476807 0.97314453
vn -0.21875 -0.07476807 0.97314453
vn -0.21875 -0.07476807 0.97314453
vn -0.21875 -0.07476807 0.97314453
vn 0.21911621 0.048828125 -0.9746094
vn 0.21911621 0.048828125 -0.9746094
vn 0.21911621 0.048828125 -0.9746094
vn 0.21911621 0.048828125 -0.9746094
vn -0.21826172 0.10437012 0.97021484
vn -0.21826172 0.10437012 0.97021484
vn -0.21826172 0.10437012 0.97021484
vn -0.21826172 0.10437012 0.97021484
vn -0.21826172 0.10437012 0.97021484
vn -0.21826172 0.10437012 0.97021484
vn 0.33642578 -0.16064453 -0.9277344
vn 0.33642578 -0.16064453 -0.9277344
vn 0.33642578 -0.16064453 -0.9277344
vn 0.33642578 -0.16064453 -0.9277344
vn 0.88183594 -0.42822266 0.19824219
vn 0.88183594 -0.42822266 0.19824219
vn 0.88183594 -0.42822266 0.19824219
vn 0.88183594 -0.42822266 0.19824219
vn -0.97558594 -0.015304565 -0.21936035
vn -0.97558594 -0.015304565 -0.21936035
vn -0.97558594 -0.015304565 -0.21936035
vn -0.97558594 -0.015304565 -0.21936035
vn 0.21936035 -0.015304565 -0.97558594
vn 0.21936035 -0.015304565 -0.97558594
vn 0.21936035 -0.015304565 -0.97558594
vn 0.21936035 -0.015304565 -0.97558594
vn -0.21936035 -0.015304565 0.97558594
vn -0.21936035 -0.015304565 0.97558594
vn -0.21936035 -0.015304565 0.97558594
vn -0.21936035 -0.015304565 0.97558594
vn -0.21936035 -0.015304565 0.97558594
vn -0.21936035 -0.015304565 0.97558594
vn 0.3798828 -0.0052948 -0.9248047
vn 0.3798828 -0.0052948 -0.9248047
vn 0.3798828 -0.0052948 -0.9248047
vn 0.3798828 -0.0052948 -0.9248047
vn 0.97558594 -0.015304565 0.21936035
vn 0.97558594 -0.015304565 0.21936035
vn 0.97558594 -0.015304565 0.21936035
vn 0.97558594 -0.015304565 0.21936035
vn -0.88134766 0.42895508 -0.19824219
vn -0.88134766 0.42895508 -0.19824219
vn -0.88134766 0.42895508 -0.19824219
vn -0.88134766 0.42895508 -0.19824219
vn -0.21875 0.07476807 0.97314453
vn -0.21875 0.07476807 0.97314453
vn -0.21875 0.07476807 0.97314453
vn -0.21875 0.07476807 0.97314453
vn -0.22216797 -0.2265625 0.9482422
vn -0.22216797 -0.2265625 0.9482422
vn -0.22216797 -0.2265625 0.9482422
vn -0.22216797 -0.2265625 0.9482422
vn -0.74121094 0.64990234 -0.16674805
vn -0.74121094 0.64990234 -0.16674805
vn -0.74121094 0.64990234 -0.16674805
vn -0.74121094 0.64990234 -0.16674805
vn 0.74121094 0.64990234 0.16674805
vn 0.74121094 0.64990234 0.16674805
vn 0.74121094 0.64990234 0.16674805
vn 0.74121094 0.64990234 0.16674805
vn 0.21875 0.07476807 -0.97314453
vn 0.21875 0.07476807 -0.97314453
vn 0.21875 0.07476807 -0.97314453
vn 0.21875 0.07476807 -0.97314453
vn 0.21875 0.07476807 -0.97314453
vn 0.21875 0.07476807 -0.97314453
vn -0.34204102 -0.93652344 -0.0769043
vn -0.34204102 -0.93652344 -0.0769043
vn -0.34204102 -0.93652344 -0.0769043
vn -0.34204102 -0.93652344 -0.0769043
vn -0.8666992 -0.45874023 -0.19494629
vn -0.8666992 -0.45874023 -0.19494629
vn -0.8666992 -0.45874023 -0.19494629
vn -0.8666992 -0.45874023 -0.19494629
vn 0.8779297 -0.43652344 0.1973877
vn 0.8779297 -0.43652344 0.1973877
vn 0.8779297 -0.43652344 0.1973877
vn 0.8779297 -0.43652344 0.1973877
vn 0.24194336 -0.17456055 -0.95458984
vn 0.24194336 -0.17456055 -0.95458984
vn 0.24194336 -0.17456055 -0.95458984
vn 0.24194336 -0.17456055 -0.95458984
vn 0.19018555 -0.1751709 -0.9658203
vn 0.19018555 -0.1751709 -0.9658203
vn 0.19018555 -0.1751709 -0.9658203
vn 0.19018555 -0.1751709 -0.9658203
vn 0.3515625 -0.9326172 0.07910156
vn 0.3515625 -0.9326172 0.07910156
vn 0.3515625 -0.9326172 0.07910156
vn 0.3515625 -0.9326172 0.07910156
vn -0.2052002 -0.22631836 0.95214844
vn -0.2052002 -0.22631836 0.95214844
vn -0.2052002 -0.22631836 0.95214844
vn -0.2052002 -0.22631836 0.95214844
vn -0.21875 0.07476807 0.97314453
vn -0.21875 0.07476807 0.97314453
vn -0.21875 0.07476807 0.97314453
vn -0.21875 0.07476807 0.97314453
vn 0.21911621 -0.048828125 -0.9746094
vn 0.21911621 -0.048828125 -0.9746094
vn 0.21911621 -0.048828125 -0.9746094
vn 0.21911621 -0.048828125 -0.9746094
vn -0.21826172 -0.10437012 0.97021484
vn -0.21826172 -0.10437012 0.97021484
vn -0.21826172 -0.10437012 0.97021484
vn -0.21826172 -0.10437012 0.97021484
vn -0.21826172 -0.10437012 0.97021484
vn -0.21826172 -0.10437012 0.97021484
vn 0.33642578 0.16064453 -0.9277344
vn 0.33642578 0.16064453 -0.9277344
vn 0.33642578 0.16064453 -0.9277344
vn 0.33642578 0.16064453 -0.9277344
vn 0.88183594 0.42822266 0.19824219
vn 0.88183594 0.42822266 0.19824219
vn 0.88183594 0.42822266 0.19824219
vn 0.88183594 0.42822266 0.19824219
vn -0.97558594 0.015304565 -0.21936035
vn -0.97558594 0.015304565 -0.21936035
vn -0.97558594 0.015304565 -0.21936035
vn -0.97558594 0.015304565 -0.21936035
vn 0.21936035 0.015304565 -0.97558594
vn 0.21936035 0.015304565 -0.97558594
vn 0.21936035 0.015304565 -0.97558594
vn 0.21936035 0.015304565 -0.97558594
vn -0.21936035 0.015304565 0.97558594
vn -0.21936035 0.015304565 0.97558594
vn -0.21936035 0.015304565 0.97558594
vn -0.21936035 0.015304565 0.97558594
vn -0.21936035 0.015304565 0.97558594
vn -0.21936035 0.015304565 0.97558594
vn 0.3798828 0.0052948 -0.9248047
vn 0.3798828 0.0052948 -0.9248047
vn 0.3798828 0.0052948 -0.9248047
vn 0.3798828 0.0052948 -0.9248047
vn 0.97558594 0.015304565 0.21936035
vn 0.97558594 0.015304565 0.21936035
vn 0.97558594 0.015304565 0.21936035
vn 0.97558594 0.015304565 0.21936035
g Bone_0
f 3/3/3 2/2/2 1/1/1
f 4/4/4 3/3/3 1/1/1
f 7/7/7 6/6/6 5/5/5
f 8/8/8 7/7/7 5/5/5
f 11/11/11 10/10/10 9/9/9
f 12/12/12 11/11/11 9/9/9
f 15/15/15 14/14/14 13/13/13
f 16/16/16 15/15/15 13/13/13
f 19/19/19 18/18/18 17/17/17
f 20/20/20 19/19/19 17/17/17
f 23/23/23 22/22/22 21/21/21
f 22/22/22 24/24/24 21/21/21
f 21/21/21 24/24/24 25/25/25
f 24/24/24 26/26/26 25/25/25
f 29/29/29 28/28/28 27/27/27
f 30/30/30 29/29/29 27/27/27
f 33/33/33 32/32/32 31/31/31
f 34/34/34 33/33/33 31/31/31
f 37/37/37 36/36/36 35/35/35
f 38/38/38 37/37/37 35/35/35
f 41/41/41 40/40/40 39/39/39
f 42/42/42 41/41/41 39/39/39
f 45/45/45 44/44/44 43/43/43
f 46/46/46 45/45/45 43/43/43
f 49/49/49 48/48/48 47/47/47
f 50/50/50 49/49/49 47/47/47
f 53/53/53 52/52/52 51/51/51
f 54/54/54 53/53/53 51/51/51
f 57/57/57 56/56/56 55/55/55
f 58/58/58 57/57/57 55/55/55
f 61/61/61 60/60/60 59/59/59
f 62/62/62 61/61/61 59/59/59
f 65/65/65 64/64/64 63/63/63
f 66/66/66 65/65/65 63/63/63
f 67/67/67 65/65/65 66/66/66
f 68/68/68 67/67/67 66/66/66
f 71/71/71 70/70/70 69/69/69
f 72/72/72 71/71/71 69/69/69
f 75/75/75 74/74/74 73/73/73
f 76/76/76 75/75/75 73/73/73
f 79/79/79 78/78/78 77/77/77
f 80/80/80 79/79/79 77/77/77
f 83/83/83 82/82/82 81/81/81
f 84/84/84 83/83/83 81/81/81
f 87/87/87 86/86/86 85/85/85
f 88/88/88 87/87/87 85/85/85
f 89/89/89 87/87/87 88/88/88
f 90/90/90 89/89/89 88/88/88
f 93/93/93 92/92/92 91/91/91
f 94/94/94 93/93/93 91/91/91
f 97/97/97 96/96/96 95/95/95
f 98/98/98 97/97/97 95/95/95
f 101/101/101 100/100/100 99/99/99
f 102/102/102 101/101/101 99/99/99
f 105/105/105 104/104/104 103/103/103
f 106/106/106 105/105/105 103/103/103
f 109/109/109 108/108/108 107/107/107
f 110/110/110 109/109/109 107/107/107
f 113/113/113 112/112/112 111/111/111
f 114/114/114 113/113/113 111/111/111
f 117/117/117 116/116/116 115/115/115
f 118/118/118 117/117/117 115/115/115
f 121/121/121 120/120/120 119/119/119
f 122/122/122 121/121/121 119/119/119
f 122/122/122 119/119/119 123/123/123
f 124/124/124 122/122/122 123/123/123
f 127/127/127 126/126/126 125/125/125
f 128/128/128 127/127/127 125/125/125
f 131/131/131 130/130/130 129/129/129
f 132/132/132 131/131/131 129/129/129
f 135/135/135 134/134/134 133/133/133
f 136/136/136 135/135/135 133/133/133
f 139/139/139 138/138/138 137/137/137
f 140/140/140 139/139/139 137/137/137
f 143/143/143 142/142/142 141/141/141
f 144/144/144 143/143/143 141/141/141
f 147/147/147 146/146/146 145/145/145
f 148/148/148 147/147/147 145/145/145
f 151/151/151 150/150/150 149/149/149
f 152/152/152 151/151/151 149/149/149
f 155/155/155 154/154/154 153/153/153
f 156/156/156 155/155/155 153/153/153
f 159/159/159 158/158/158 157/157/157
f 160/160/160 159/159/159 157/157/157
f 163/163/163 162/162/162 161/161/161
f 162/162/162 164/164/164 161/161/161
f 162/162/162 165/165/165 164/164/164
f 165/165/165 166/166/166 164/164/164
f 169/169/169 168/168/168 167/167/167
f 170/170/170 169/169/169 167/167/167
f 173/173/173 172/172/172 171/171/171
f 174/174/174 173/173/173 171/171/171
f 177/177/177 176/176/176 175/175/175
f 178/178/178 177/177/177 175/175/175
f 181/181/181 180/180/180 179/179/179
f 182/182/182 181/181/181 179/179/179
f 185/185/185 184/184/184 183/183/183
f 184/184/184 186/186/186 183/183/183
f 184/184/184 187/187/187 186/186/186
f 187/187/187 188/188/188 186/186/186
f 191/191/191 190/190/190 189/189/189
f 192/192/192 191/191/191 189/189/189
f 195/195/195 194/194/194 193/193/193
f 196/196/196 195/195/195 193/193/193
