g Cube
v 0.07200405 -0.030686049 -0.036426976
v -0.02579407 1.2307411 -0.023010157
v 0.022020336 -0.049256958 -0.016582133
v -0.24862722 2.0621479 -0.11055974
v -0.17660674 1.8268378 0.066294335
v -0.18970048 1.8354433 -0.06868829
v -0.03265853 1.3113656 -0.029363487
v 0.005812583 1.4401512 -0.04221814
v -0.09018494 1.4399253 -0.06137988
v 0.033254415 1.6414963 -0.09793515
v -0.15829253 1.6432334 -0.07886501
v -0.005580301 1.865542 -0.09046616
v -0.18970048 1.8354433 -0.06868829
v -0.24862722 2.0621479 -0.11055974
v -0.02123198 2.0940003 -0.10852704
v -0.088898875 2.2879615 -0.067874104
v -0.23178086 2.2701526 -0.07469795
v -0.18248783 2.5118225 -1.21759795E-05
v -0.20995584 2.2759652 0.06799796
v -0.23178086 2.2701526 -0.07469795
v -0.18248783 2.5118225 -1.21759795E-05
v -0.21495792 2.0681129 0.10761115
v -0.24862722 2.0621479 -0.11055974
v -0.17660674 1.8268378 0.066294335
v -0.06709582 2.2879663 0.07452553
v -0.20995584 2.2759652 0.06799796
v -0.18248783 2.5118225 -1.21759795E-05
v -0.21495792 2.0681129 0.10761115
v 0.008273645 2.099044 0.11438896
v 0.02629626 1.8716445 0.09815242
v -0.17660674 1.8268378 0.066294335
v -0.12947327 1.6417487 0.070548795
v 0.033349738 1.6404637 0.09974796
v -0.0895451 1.4397126 0.06959656
v 0.035496343 1.4445217 0.0739861
v -0.014970636 1.3207853 0.03421213
v -0.055425685 1.2947445 0.029757814
v 0.07200405 -0.030686049 -0.036426976
v 0.022020336 -0.049256958 -0.016582133
v -0.088898875 2.2879615 -0.067874104
v -0.06709582 2.2879663 0.07452553
v -0.18248783 2.5118225 -1.21759795E-05
v -0.02123198 2.0940003 -0.10852704
v 0.008273645 2.099044 0.11438896
v -0.005580301 1.865542 -0.09046616
v 0.02629626 1.8716445 0.09815242
v 0.033254415 1.6414963 -0.09793515
v 0.033349738 1.6404637 0.09974796
v 0.035496343 1.4445217 0.0739861
v 0.005812583 1.4401512 -0.04221814
v -0.03265853 1.3113656 -0.029363487
v -0.014970636 1.3207853 0.03421213
v -0.02579407 1.2307411 -0.023010157
v 0.07200405 -0.030686049 -0.036426976
v 0.022020336 -0.049256958 -0.016582133
v -0.02579407 1.2307411 -0.023010157
v -0.055425685 1.2947445 0.029757814
v -0.03265853 1.3113656 -0.029363487
v -0.09018494 1.4399253 -0.06137988
v -0.0895451 1.4397126 0.06959656
v -0.15829253 1.6432334 -0.07886501
v -0.12947327 1.6417487 0.070548795
v -0.18970048 1.8354433 -0.06868829
v -0.17660674 1.8268378 0.066294335
vt 0.96484375 0.0045814514
vt 1 0.49072266
vt 1 0
vt 0.86083984 0.2697754
vt 0.86083984 0.40625
vt 0.7675781 0.34692383
vt 0.70703125 0
vt 0.6347656 0.04458618
vt 0.74902344 0.055999756
vt 0.58740234 0.12133789
vt 0.7675781 0.13916016
vt 0.5830078 0.20874023
vt 0.7636719 0.21289062
vt 0.7675781 0.30493164
vt 0.5605469 0.29785156
vt 0.5810547 0.38134766
vt 0.7270508 0.3881836
vt 0.63916016 0.48754883
vt 0.8208008 0.09259033
vt 0.96484375 0.106933594
vt 0.92285156 0
vt 0.7675781 0.17236328
vt 0.96484375 0.19226074
vt 0.76904297 0.2697754
vt 0.16003418 0.89941406
vt 0.013793945 0.8964844
vt 0.06542969 1
vt 0 0.8120117
vt 0.20373535 0.81884766
vt 0.20373535 0.7290039
vt 0.009391785 0.7163086
vt 0.032562256 0.64501953
vt 0.1940918 0.6411133
vt 0.049591064 0.56347656
vt 0.18603516 0.5605469
vt 0.1472168 0.51416016
vt 0.059661865 0.5073242
vt 0.068603516 0.0027446747
vt 0.034210205 0
vt 0.22155762 0.103881836
vt 0.3684082 0.10107422
vt 0.2746582 0
vt 0.20373535 0.18640137
vt 0.40795898 0.18188477
vt 0.21875 0.27612305
vt 0.4020996 0.27197266
vt 0.22143555 0.36328125
vt 0.40795898 0.359375
vt 0.3894043 0.4399414
vt 0.26049805 0.44140625
vt 0.25024414 0.48950195
vt 0.3557129 0.48583984
vt 0.25463867 0.5126953
vt 0.3083496 0.99609375
vt 0.49975586 0
vt 0.4345703 0.48413086
vt 0.52978516 0.5053711
vt 0.43237305 0.5073242
vt 0.4194336 0.5620117
vt 0.5605469 0.5620117
vt 0.40795898 0.64453125
vt 0.5605469 0.64404297
vt 0.41479492 0.7182617
vt 0.5546875 0.7158203
vn -0.3630371 -0.018234253 -0.9316406
vn -0.3630371 -0.018234253 -0.9316406
vn -0.3630371 -0.018234253 -0.9316406
vn -0.9682617 -0.23718262 0.07879639
vn -0.9682617 -0.23718262 0.07879639
vn -0.9682617 -0.23718262 0.07879639
vn 0.19372559 -0.15454102 -0.96875
vn 0.085632324 -0.16845703 -0.9819336
vn 0.07196045 -0.17016602 -0.98291016
vn -0.054901123 -0.07904053 -0.9951172
vn -0.064697266 -0.060943604 -0.99609375
vn -0.070495605 -0.06149292 -0.99560547
vn -0.09643555 -0.092285156 -0.99121094
vn -0.013977051 0.021560669 -0.9995117
vn 0.009635925 0.049560547 -0.99853516
vn 0.0029907227 0.23278809 -0.97265625
vn 0.0028190613 0.2310791 -0.97314453
vn 0.009063721 0.29345703 -0.9560547
vn -0.984375 0.09832764 0.1472168
vn -0.984375 0.09442139 0.14746094
vn -0.97753906 0.15515137 0.14318848
vn -0.9863281 -0.0637207 0.15356445
vn -0.9873047 -0.04244995 0.15307617
vn -0.9711914 -0.1809082 0.15478516
vn -0.061462402 0.22424316 0.97265625
vn -0.06213379 0.23083496 0.9711914
vn -0.06756592 0.2836914 0.95654297
vn -0.06311035 0.02130127 0.9975586
vn -0.06317139 0.018447876 0.9980469
vn -0.1104126 -0.07519531 0.99121094
vn -0.11639404 -0.06768799 0.99072266
vn -0.14282227 -0.037994385 0.9892578
vn -0.13903809 -0.04345703 0.9892578
vn -0.06304932 -0.17163086 0.98291016
vn -0.066345215 -0.16577148 0.9838867
vn 0.05606079 -0.21130371 0.97558594
vn 0.117370605 -0.12609863 0.9848633
vn 0.18273926 -0.03149414 0.9824219
vn 0.18273926 -0.03149414 0.9824219
vn 0.91552734 0.37841797 -0.13635254
vn 0.9169922 0.37548828 -0.13623047
vn 0.8984375 0.41723633 -0.13757324
vn 0.96777344 0.20666504 -0.14379883
vn 0.9682617 0.20495605 -0.14379883
vn 0.9892578 0.08660889 -0.11651611
vn 0.9892578 0.08618164 -0.117370605
vn 0.99560547 0.022842407 -0.08831787
vn 0.99609375 0.018661499 -0.08856201
vn 0.97558594 -0.16516113 -0.1459961
vn 0.9707031 -0.1821289 -0.15527344
vn 0.9604492 -0.11376953 -0.2541504
vn 0.9550781 -0.15759277 -0.2512207
vn 0.9526367 0.07336426 -0.2956543
vn 0.9506836 0.0769043 -0.30078125
vn -0.88916016 -0.035491943 -0.45629883
vn -0.89697266 -0.053619385 -0.4387207
vn -0.93847656 -0.19421387 -0.2849121
vn -0.9428711 -0.23168945 -0.2401123
vn -0.95996094 -0.28076172 -0.006477356
vn -0.95947266 -0.28125 -0.008079529
vn -0.9667969 -0.22717285 0.11853027
vn -0.9663086 -0.22924805 0.117004395
vn -0.96972656 -0.20397949 0.13562012
vn -0.96972656 -0.20397949 0.13562012
g Cube_0
f 3/3/3 2/2/2 1/1/1
f 6/6/6 5/5/5 4/4/4
f 9/9/9 8/8/8 7/7/7
f 8/8/8 9/9/9 10/10/10
f 9/9/9 11/11/11 10/10/10
f 10/10/10 11/11/11 12/12/12
f 11/11/11 13/13/13 12/12/12
f 13/13/13 14/14/14 12/12/12
f 12/12/12 14/14/14 15/15/15
f 15/15/15 14/14/14 16/16/16
f 14/14/14 17/17/17 16/16/16
f 17/17/17 18/18/18 16/16/16
f 21/21/21 20/20/20 19/19/19
f 22/22/22 19/19/19 20/20/20
f 23/23/23 22/22/22 20/20/20
f 22/22/22 23/23/23 24/24/24
f 27/27/27 26/26/26 25/25/25
f 26/26/26 28/28/28 25/25/25
f 28/28/28 29/29/29 25/25/25
f 30/30/30 29/29/29 28/28/28
f 31/31/31 30/30/30 28/28/28
f 31/31/31 32/32/32 30/30/30
f 32/32/32 33/33/33 30/30/30
f 32/32/32 34/34/34 33/33/33
f 34/34/34 35/35/35 33/33/33
f 36/36/36 35/35/35 34/34/34
f 37/37/37 36/36/36 34/34/34
f 38/38/38 36/36/36 37/37/37
f 39/39/39 38/38/38 37/37/37
f 42/42/42 41/41/41 40/40/40
f 43/43/43 40/40/40 41/41/41
f 44/44/44 43/43/43 41/41/41
f 45/45/45 43/43/43 44/44/44
f 46/46/46 45/45/45 44/44/44
f 47/47/47 45/45/45 46/46/46
f 48/48/48 47/47/47 46/46/46
f 48/48/48 49/49/49 47/47/47
f 49/49/49 50/50/50 47/47/47
f 51/51/51 50/50/50 49/49/49
f 52/52/52 51/51/51 49/49/49
f 51/51/51 52/52/52 53/53/53
f 54/54/54 53/53/53 52/52/52
f 57/57/57 56/56/56 55/55/55
f 57/57/57 58/58/58 56/56/56
f 58/58/58 57/57/57 59/59/59
f 57/57/57 60/60/60 59/59/59
f 59/59/59 60/60/60 61/61/61
f 60/60/60 62/62/62 61/61/61
f 61/61/61 62/62/62 63/63/63
f 62/62/62 64/64/64 63/63/63
