g Cube
v -0.26540133 -0.8745353 -0.50102866
v -0.40715015 0.0004206524 -0.8144845
v -0.54335415 -0.6261983 -0.44969767
v 0.6542708 0.5410463 -0.62453413
v 0.9298214 0.24654116 -0.3538459
v 0.70389 0.52249324 -0.36997893
v -0.08708415 -0.70996296 0.9492526
v 0.58501744 -0.5875854 0.52846974
v 0.03717215 -0.93349755 0.6821615
v 0.6426233 -0.03711946 -0.80658954
v 0.20808153 -0.19451502 -0.94916916
v -0.094842695 -0.71444106 -0.6297064
v -0.33227578 0.8930912 0.2776988
v -0.66981554 0.62278366 -0.15719852
v -0.3797319 0.8728641 -0.041650884
v 0.506661 0.5382195 0.53949016
v 0.7343075 0.24544129 0.46663886
v 0.3547931 0.12609747 0.98477155
v -0.03070874 0.38173887 -0.6676162
v -0.40715015 0.0004206524 -0.8144845
v -0.151769 0.0022476471 -0.90600765
v 0.03717215 -0.93349755 0.6821615
v -0.56640005 -0.41824058 0.72031903
v -0.08708415 -0.70996296 0.9492526
v -0.66981554 0.62278366 -0.15719852
v -0.33227578 0.8930912 0.2776988
v -0.6480509 0.54049474 0.35397226
v -0.56640005 -0.41824058 0.72031903
v -0.6480509 0.54049474 0.35397226
v -0.5419562 0.47144842 0.6551945
v 0.81800646 -0.09746961 -0.55348384
v 0.6426233 -0.03711946 -0.80658954
v -0.094842695 -0.71444106 -0.6297064
v 0.3547931 0.12609747 0.98477155
v 0.7343075 0.24544129 0.46663886
v 0.58501744 -0.5875854 0.52846974
v -0.9117231 -0.10386625 -0.29173583
v -0.54335415 -0.6261983 -0.44969767
v -0.40715015 0.0004206524 -0.8144845
v -0.84377784 0.16357632 -0.43473417
v 0.58501744 -0.5875854 0.52846974
v 0.7343075 0.24544129 0.46663886
v 0.9298214 0.24654116 -0.3538459
v 0.81800646 -0.09746961 -0.55348384
v 0.26116437 0.7598421 0.536078
v 0.506661 0.5382195 0.53949016
v 0.3547931 0.12609747 0.98477155
v -0.037039846 0.5178958 0.82715195
v 0.007481268 0.8158023 0.6757852
v 0.70389 0.52249324 -0.36997893
v 0.26116437 0.7598421 0.536078
v 0.007481268 0.8158023 0.6757852
v -0.33227578 0.8930912 0.2776988
v -0.3797319 0.8728641 -0.041650884
v 0.19114114 0.67197305 -0.5607916
v 0.6542708 0.5410463 -0.62453413
v -0.6480509 0.54049474 0.35397226
v -0.56640005 -0.41824058 0.72031903
v -0.9117231 -0.10386625 -0.29173583
v -0.84377784 0.16357632 -0.43473417
v -0.66981554 0.62278366 -0.15719852
v -0.094842695 -0.71444106 -0.6297064
v 0.20808153 -0.19451502 -0.94916916
v -0.151769 0.0022476471 -0.90600765
v -0.26540133 -0.8745353 -0.50102866
v -0.40715015 0.0004206524 -0.8144845
v 0.58501744 -0.5875854 0.52846974
v -0.08708415 -0.70996296 0.9492526
v 0.16862468 -0.30701703 1.0075347
v 0.3547931 0.12609747 0.98477155
v -0.037039846 0.5178958 0.82715195
v 0.3547931 0.12609747 0.98477155
v 0.16862468 -0.30701703 1.0075347
v -0.08708415 -0.70996296 0.9492526
v -0.5419562 0.47144842 0.6551945
v -0.56640005 -0.41824058 0.72031903
v -0.03070874 0.38173887 -0.6676162
v 0.19114114 0.67197305 -0.5607916
v -0.3797319 0.8728641 -0.041650884
v -0.40715015 0.0004206524 -0.8144845
v -0.66981554 0.62278366 -0.15719852
v -0.84377784 0.16357632 -0.43473417
v -0.33227578 0.8930912 0.2776988
v 0.007481268 0.8158023 0.6757852
v -0.037039846 0.5178958 0.82715195
v -0.5419562 0.47144842 0.6551945
v -0.6480509 0.54049474 0.35397226
v 0.9298214 0.24654116 -0.3538459
v 0.6542708 0.5410463 -0.62453413
v 0.6426233 -0.03711946 -0.80658954
v 0.81800646 -0.09746961 -0.55348384
v 0.58501744 -0.5875854 0.52846974
v 0.81800646 -0.09746961 -0.55348384
v -0.06055643 -0.9594009 -0.0054268283
v 0.03717215 -0.93349755 0.6821615
v 0.6426233 -0.03711946 -0.80658954
v 0.6542708 0.5410463 -0.62453413
v 0.19114114 0.67197305 -0.5607916
v 0.20808153 -0.19451502 -0.94916916
v -0.151769 0.0022476471 -0.90600765
v -0.03070874 0.38173887 -0.6676162
v 0.81800646 -0.09746961 -0.55348384
v -0.094842695 -0.71444106 -0.6297064
v -0.26540133 -0.8745353 -0.50102866
v -0.06055643 -0.9594009 -0.0054268283
v 0.9298214 0.24654116 -0.3538459
v 0.7343075 0.24544129 0.46663886
v 0.506661 0.5382195 0.53949016
v 0.70389 0.52249324 -0.36997893
v 0.26116437 0.7598421 0.536078
v 0.03717215 -0.93349755 0.6821615
v -0.06055643 -0.9594009 -0.0054268283
v -0.26540133 -0.8745353 -0.50102866
v -0.56640005 -0.41824058 0.72031903
v -0.54335415 -0.6261983 -0.44969767
v -0.9117231 -0.10386625 -0.29173583
vt 0 0.22625546
vt 0.12928751 0.16405095
vt 0.021660442 0.14638235
vt 0.57909614 0.3630842
vt 0.70105326 0.32951584
vt 0.61010927 0.30854613
vt 0.5742704 0.43220583
vt 0.6210267 0.6160782
vt 0.66365725 0.46631736
vt 0.014044564 0.6898432
vt 0.12060957 0.7512552
vt 0.28108487 0.6825411
vt 0.71048194 0.6025545
vt 0.82053494 0.49597016
vt 0.72088486 0.52626306
vt 0.64496857 0.09122272
vt 0.7326458 0.13333736
vt 0.73453856 0.0026380164
vt 0.2703858 0.19813304
vt 0.12928751 0.16405095
vt 0.15204386 0.22491427
vt 0.9434934 0.32485086
vt 0.74779826 0.25916997
vt 0.8565154 0.36381733
vt 0.82053494 0.49597016
vt 0.71048194 0.6025545
vt 0.8351423 0.6183427
vt 0.99861634 0.7180873
vt 0.8351423 0.6183427
vt 0.8300116 0.6926036
vt 0 0.6166984
vt 0.014044564 0.6898432
vt 0.28108487 0.6825411
vt 0.39355522 0.5866023
vt 0.44666964 0.7306066
vt 0.6210267 0.6160782
vt 0.09958553 0.017452955
vt 0.021660442 0.14638235
vt 0.12928751 0.16405095
vt 0.14808656 0.025737965
vt 0.6210267 0.6160782
vt 0.44666964 0.7306066
vt 0.56246686 0.8686984
vt 0.6636573 0.840877
vt 0.56239015 0.069054276
vt 0.64496857 0.09122272
vt 0.73453856 0.0026380164
vt 0.58372384 0
vt 0.52154964 0.022040484
vt 0.61010927 0.30854613
vt 0.56239015 0.069054276
vt 0.52154964 0.022040484
vt 0.42165878 0.09204685
vt 0.39355522 0.1633249
vt 0.48433557 0.31935528
vt 0.57909614 0.3630842
vt 0.8351423 0.6183427
vt 0.99861634 0.7180873
vt 0.99861634 0.4678319
vt 0.935691 0.43220583
vt 0.82053494 0.49597016
vt 0.040781084 0.26189554
vt 0.15212032 0.3168557
vt 0.15204386 0.22491427
vt 0 0.22625546
vt 0.12928751 0.16405095
vt 0.6210267 0.6160782
vt 0.5742704 0.43220583
vt 0.48269767 0.50900626
vt 0.39355522 0.5866023
vt 0.8287273 0.7430518
vt 0.6817051 0.7752736
vt 0.6636573 0.8859203
vt 0.6715479 1
vt 0.9450369 0.81474394
vt 0.83079493 1
vt 0.2703858 0.19813304
vt 0.36915228 0.21140422
vt 0.39355522 0.029245224
vt 0.12928751 0.16405095
vt 0.29358062 0
vt 0.14808656 0.025737965
vt 0.71048194 0.6025545
vt 0.6636573 0.70460516
vt 0.7278421 0.7430518
vt 0.8300116 0.6926036
vt 0.8351423 0.6183427
vt 0.70105326 0.32951584
vt 0.57909614 0.3630842
vt 0.67537034 0.43220583
vt 0.73453856 0.38624108
vt 0.17403707 0.38117227
vt 0 0.6166984
vt 0.3416521 0.533288
vt 0.34715292 0.37963846
vt 0.25397453 0.37963846
vt 0.3935552 0.32155406
vt 0.36915228 0.21140422
vt 0.15212032 0.3168557
vt 0.15204386 0.22491427
vt 0.2703858 0.19813304
vt 0 0.6166984
vt 0.28108487 0.6825411
vt 0.3471529 0.6620099
vt 0.3416521 0.533288
vt 0.70105326 0.32951584
vt 0.7326458 0.13333736
vt 0.64496857 0.09122272
vt 0.61010927 0.30854613
vt 0.56239015 0.069054276
vt 0.9434934 0.32485086
vt 1 0.1685978
vt 1 0.039811745
vt 0.74779826 0.25916997
vt 0.90456015 0.016506666
vt 0.73453856 0
vn -0.4733883 -0.36404863 -0.8021048
vn -0.4733883 -0.36404863 -0.8021048
vn -0.4733883 -0.36404863 -0.8021048
vn 0.772475 0.62631696 -0.10492612
vn 0.772475 0.62631696 -0.10492612
vn 0.772475 0.62631696 -0.10492612
vn 0.5190696 -0.52104336 0.67755485
vn 0.5190696 -0.52104336 0.67755485
vn 0.5190696 -0.52104336 0.67755485
vn 0.43882564 -0.64198315 -0.6287207
vn 0.43882564 -0.64198315 -0.6287207
vn 0.43882564 -0.64198315 -0.6287207
vn -0.66375 0.7461881 0.05137256
vn -0.66375 0.7461881 0.05137256
vn -0.66375 0.7461881 0.05137256
vn 0.6966855 0.39224318 0.6006453
vn 0.6966855 0.39224318 0.6006453
vn 0.6966855 0.39224318 0.6006453
vn -0.28009224 0.5731264 -0.7701132
vn -0.28009224 0.5731264 -0.7701132
vn -0.28009224 0.5731264 -0.7701132
vn -0.6007631 -0.7281677 0.3299324
vn -0.6007631 -0.7281677 0.3299324
vn -0.6007631 -0.7281677 0.3299324
vn -0.7224024 0.67719847 0.13977483
vn -0.7224024 0.67719847 0.13977483
vn -0.7224024 0.67719847 0.13977483
vn -0.93827915 0.050822075 0.34212464
vn -0.93827915 0.050822075 0.34212464
vn -0.93827915 0.050822075 0.34212464
vn 0.50863534 -0.68872833 -0.5166656
vn 0.50863534 -0.68872833 -0.5166656
vn 0.50863534 -0.68872833 -0.5166656
vn 0.81361693 -0.103344664 0.57214266
vn 0.81361693 -0.103344664 0.57214266
vn 0.81361693 -0.103344664 0.57214266
vn -0.6732958 -0.24288505 -0.6983407
vn -0.6732958 -0.24288505 -0.6983407
vn -0.6732958 -0.24288505 -0.6983407
vn -0.6732958 -0.24288505 -0.6983407
vn 0.9601979 -0.2313311 0.15654339
vn 0.9601979 -0.2313311 0.15654339
vn 0.9601979 -0.2313311 0.15654339
vn 0.9601979 -0.2313311 0.15654339
vn 0.3935121 0.53414285 0.74822426
vn 0.3935121 0.53414285 0.74822426
vn 0.3935121 0.53414285 0.74822426
vn 0.3935121 0.53414285 0.74822426
vn 0.3935121 0.53414285 0.74822426
vn 0.2582889 0.96112823 -0.097567834
vn 0.2582889 0.96112823 -0.097567834
vn 0.2582889 0.96112823 -0.097567834
vn 0.2582889 0.96112823 -0.097567834
vn 0.28513685 0.9565847 -0.06035439
vn 0.28513685 0.9565847 -0.06035439
vn 0.28513685 0.9565847 -0.06035439
vn -0.9579009 0.14487115 0.24786729
vn -0.9579009 0.14487115 0.24786729
vn -0.9579009 0.14487115 0.24786729
vn -0.9579009 0.14487115 0.24786729
vn -0.9579009 0.14487115 0.24786729
vn -0.3105318 -0.36389297 -0.8781525
vn -0.3105318 -0.36389297 -0.8781525
vn -0.3105318 -0.36389297 -0.8781525
vn -0.3105318 -0.36389297 -0.8781525
vn -0.3105318 -0.36389297 -0.8781525
vn 0.5978892 -0.3467022 0.7227213
vn 0.5978892 -0.3467022 0.7227213
vn 0.5978892 -0.3467022 0.7227213
vn 0.5978892 -0.3467022 0.7227213
vn -0.34204987 0.10554878 0.9337352
vn -0.34204987 0.10554878 0.9337352
vn -0.34204987 0.10554878 0.9337352
vn -0.34204987 0.10554878 0.9337352
vn -0.34204987 0.10554878 0.9337352
vn -0.34204987 0.10554878 0.9337352
vn -0.36278695 0.6110155 -0.70359486
vn -0.36278695 0.6110155 -0.70359486
vn -0.36278695 0.6110155 -0.70359486
vn -0.36278695 0.6110155 -0.70359486
vn -0.36278695 0.6110155 -0.70359486
vn -0.36278695 0.6110155 -0.70359486
vn -0.48153856 0.64504963 0.5933225
vn -0.48153856 0.64504963 0.5933225
vn -0.48153856 0.64504963 0.5933225
vn -0.48153856 0.64504963 0.5933225
vn -0.48153856 0.64504963 0.5933225
vn 0.79492116 0.13810374 -0.5907857
vn 0.79492116 0.13810374 -0.5907857
vn 0.79492116 0.13810374 -0.5907857
vn 0.79492116 0.13810374 -0.5907857
vn 0.5898832 -0.7909864 -0.16241379
vn 0.5898832 -0.7909864 -0.16241379
vn 0.5898832 -0.7909864 -0.16241379
vn 0.5898832 -0.7909864 -0.16241379
vn 0.054444112 0.3964681 -0.9164327
vn 0.054444112 0.3964681 -0.9164327
vn 0.054444112 0.3964681 -0.9164327
vn 0.054444112 0.3964681 -0.9164327
vn 0.054444112 0.3964681 -0.9164327
vn 0.054444112 0.3964681 -0.9164327
vn 0.5388185 -0.7737286 -0.33319438
vn 0.5388185 -0.7737286 -0.33319438
vn 0.5388185 -0.7737286 -0.33319438
vn 0.5388185 -0.7737286 -0.33319438
vn 0.74371827 0.64930147 0.15903093
vn 0.74371827 0.64930147 0.15903093
vn 0.74371827 0.64930147 0.15903093
vn 0.74371827 0.64930147 0.15903093
vn 0.74371827 0.64930147 0.15903093
vn -0.69616026 -0.70890933 0.11317451
vn -0.69616026 -0.70890933 0.11317451
vn -0.69616026 -0.70890933 0.11317451
vn -0.69616026 -0.70890933 0.11317451
vn -0.69616026 -0.70890933 0.11317451
vn -0.69616026 -0.70890933 0.11317451
g Cube_0
f 3/3/3 2/2/2 1/1/1
f 6/6/6 5/5/5 4/4/4
f 9/9/9 8/8/8 7/7/7
f 12/12/12 11/11/11 10/10/10
f 15/15/15 14/14/14 13/13/13
f 18/18/18 17/17/17 16/16/16
f 21/21/21 20/20/20 19/19/19
f 24/24/24 23/23/23 22/22/22
f 27/27/27 26/26/26 25/25/25
f 30/30/30 29/29/29 28/28/28
f 33/33/33 32/32/32 31/31/31
f 36/36/36 35/35/35 34/34/34
f 39/39/39 38/38/38 37/37/37
f 40/40/40 39/39/39 37/37/37
f 43/43/43 42/42/42 41/41/41
f 44/44/44 43/43/43 41/41/41
f 47/47/47 46/46/46 45/45/45
f 45/45/45 48/48/48 47/47/47
f 45/45/45 49/49/49 48/48/48
f 52/52/52 51/51/51 50/50/50
f 53/53/53 52/52/52 50/50/50
f 54/54/54 53/53/53 50/50/50
f 55/55/55 54/54/54 50/50/50
f 50/50/50 56/56/56 55/55/55
f 59/59/59 58/58/58 57/57/57
f 57/57/57 60/60/60 59/59/59
f 57/57/57 61/61/61 60/60/60
f 64/64/64 63/63/63 62/62/62
f 62/62/62 65/65/65 64/64/64
f 65/65/65 66/66/66 64/64/64
f 69/69/69 68/68/68 67/67/67
f 70/70/70 69/69/69 67/67/67
f 73/73/73 72/72/72 71/71/71
f 71/71/71 74/74/74 73/73/73
f 71/71/71 75/75/75 74/74/74
f 75/75/75 76/76/76 74/74/74
f 79/79/79 78/78/78 77/77/77
f 77/77/77 80/80/80 79/79/79
f 80/80/80 81/81/81 79/79/79
f 80/80/80 82/82/82 81/81/81
f 85/85/85 84/84/84 83/83/83
f 83/83/83 86/86/86 85/85/85
f 83/83/83 87/87/87 86/86/86
f 90/90/90 89/89/89 88/88/88
f 91/91/91 90/90/90 88/88/88
f 94/94/94 93/93/93 92/92/92
f 95/95/95 94/94/94 92/92/92
f 98/98/98 97/97/97 96/96/96
f 96/96/96 99/99/99 98/98/98
f 99/99/99 100/100/100 98/98/98
f 100/100/100 101/101/101 98/98/98
f 104/104/104 103/103/103 102/102/102
f 105/105/105 104/104/104 102/102/102
f 108/108/108 107/107/107 106/106/106
f 106/106/106 109/109/109 108/108/108
f 109/109/109 110/110/110 108/108/108
f 113/113/113 112/112/112 111/111/111
f 111/111/111 114/114/114 113/113/113
f 114/114/114 115/115/115 113/113/113
f 114/114/114 116/116/116 115/115/115
