g Cube
v -0.02344082 0.047144838 -0.048930272
v 0.04472858 -0.35838106 -0.0532225
v 0.008634099 0.023597058 -0.2941589
v 0.15448993 -0.019380456 -0.1015393
v 0.09630217 -0.07938336 0.29985246
v 0.13430429 0.08635611 0.35738593
v 0.15448993 -0.019380456 -0.1015393
v 0.008634099 0.023597058 -0.2941589
v 0.04472858 -0.35838106 -0.0532225
v 0.0746023 0.27278283 -0.18662433
v -0.0056299265 0.19964585 0.077789694
v 0.045283057 0.18789873 -0.23584722
v 0.008786481 -0.011396097 0.62975425
v 0.09630217 -0.07938336 0.29985246
v 0.031420678 -0.2718533 0.33470255
v -0.00061105075 0.21966492 0.38569748
v 0.13430429 0.08635611 0.35738593
v 0.008786481 -0.011396097 0.62975425
v 0.042848192 0.27704486 0.29813588
v 0.13430429 0.08635611 0.35738593
v -0.00061105075 0.21966492 0.38569748
v 0.13430429 0.08635611 0.35738593
v 0.09630217 -0.07938336 0.29985246
v 0.008786481 -0.011396097 0.62975425
v 0.09630217 -0.07938336 0.29985246
v 0.15448993 -0.019380456 -0.1015393
v 0.031420678 -0.2718533 0.33470255
v 0.04472858 -0.35838106 -0.0532225
v 0.13430429 0.08635611 0.35738593
v 0.042848192 0.27704486 0.29813588
v 0.0746023 0.27278283 -0.18662433
v 0.15448993 -0.019380456 -0.1015393
v -0.0056299265 0.19964585 0.077789694
v 0.0746023 0.27278283 -0.18662433
v 0.042848192 0.27704486 0.29813588
v -0.00061105075 0.21966492 0.38569748
v -0.00061105075 0.21966492 0.38569748
v 0.008786481 -0.011396097 0.62975425
v -0.02344082 0.047144838 -0.048930272
v -0.0056299265 0.19964585 0.077789694
v -0.02344082 0.047144838 -0.048930272
v 0.008634099 0.023597058 -0.2941589
v 0.045283057 0.18789873 -0.23584722
v -0.0056299265 0.19964585 0.077789694
v 0.031420678 -0.2718533 0.33470255
v 0.04472858 -0.35838106 -0.0532225
v -0.02344082 0.047144838 -0.048930272
v 0.008786481 -0.011396097 0.62975425
v 0.0746023 0.27278283 -0.18662433
v 0.045283057 0.18789873 -0.23584722
v 0.008634099 0.023597058 -0.2941589
v 0.15448993 -0.019380456 -0.1015393
vt 0.3194844 0.3491656
vt 0.50644743 0.7460479
vt 0.45635593 0.15663187
vt 0.6668786 0.74697316
vt 0.87633383 0.38974312
vt 0.81028664 0.1893591
vt 0.6668786 0.74697316
vt 0.5990225 0.9168791
vt 0.87823653 0.9887412
vt 0.29104236 0
vt 0.18652363 0.30756465
vt 0.3535887 0.04262586
vt 1 0
vt 0.87633383 0.38974312
vt 1 0.5195646
vt 0.78742164 0.05647699
vt 0.81028664 0.1893591
vt 1 0
vt 0.7129944 0.095370546
vt 0.81028664 0.1893591
vt 0.78742164 0.05647699
vt 0.81028664 0.1893591
vt 0.87633383 0.38974312
vt 1 0
vt 0.87633383 0.38974312
vt 0.6668786 0.74697316
vt 1 0.5195646
vt 0.87823653 0.9887412
vt 0.81028664 0.1893591
vt 0.7129944 0.095370546
vt 0.50644743 0.59353495
vt 0.6668786 0.74697316
vt 0.18652363 0.30756465
vt 0.29104236 0
vt 0.040468425 0.42133442
vt 0.020304358 0.5568954
vt 0.020304358 0.5568954
vt 0 1
vt 0.3194844 0.3491656
vt 0.18652363 0.30756465
vt 0.3194844 0.3491656
vt 0.45635593 0.15663187
vt 0.3535887 0.04262586
vt 0.18652363 0.30756465
vt 0.26882467 0.9999999
vt 0.50644743 0.7460479
vt 0.3194844 0.3491656
vt 0 1
vt 0.50644743 0.59353495
vt 0.5343123 0.7169864
vt 0.5990225 0.9168791
vt 0.6668786 0.74697316
vn -0.9800985 -0.16356514 -0.11248677
vn -0.9800985 -0.16356514 -0.11248677
vn -0.9800985 -0.16356514 -0.11248677
vn 0.9614801 -0.25557712 0.10117546
vn 0.9614801 -0.25557712 0.10117546
vn 0.9614801 -0.25557712 0.10117546
vn 0.71930146 -0.32072458 -0.6162314
vn 0.71930146 -0.32072458 -0.6162314
vn 0.71930146 -0.32072458 -0.6162314
vn -0.90022033 0.40446413 -0.16128264
vn -0.90022033 0.40446413 -0.16128264
vn -0.90022033 0.40446413 -0.16128264
vn 0.91987514 -0.25633946 0.29684997
vn 0.91987514 -0.25633946 0.29684997
vn 0.91987514 -0.25633946 0.29684997
vn 0.6582603 0.55914956 0.504029
vn 0.6582603 0.55914956 0.504029
vn 0.6582603 0.55914956 0.504029
vn 0.61204827 0.48711646 0.6229884
vn 0.61204827 0.48711646 0.6229884
vn 0.61204827 0.48711646 0.6229884
vn 0.90052915 -0.31170616 0.30312803
vn 0.90052915 -0.31170616 0.30312803
vn 0.90052915 -0.31170616 0.30312803
vn 0.9485053 -0.30304638 0.09219853
vn 0.9485053 -0.30304638 0.09219853
vn 0.9485053 -0.30304638 0.09219853
vn 0.9507955 -0.29385695 0.09816298
vn 0.9411716 0.33769995 0.012438148
vn 0.9411716 0.33769995 0.012438148
vn 0.9411716 0.33769995 0.012438148
vn 0.9411716 0.33769995 0.012438148
vn -0.7833489 0.61992127 -0.045410424
vn -0.7833489 0.61992127 -0.045410424
vn -0.7833489 0.61992127 -0.045410424
vn -0.7833489 0.61992127 -0.045410424
vn -0.998665 0.033843294 0.039023366
vn -0.998665 0.033843294 0.039023366
vn -0.998665 0.033843294 0.039023366
vn -0.998665 0.033843294 0.039023366
vn -0.9536846 0.25610152 -0.15778995
vn -0.9536846 0.25610152 -0.15778995
vn -0.9536846 0.25610152 -0.15778995
vn -0.9536846 0.25610152 -0.15778995
vn -0.9892784 -0.14447455 0.021338576
vn -0.9892784 -0.14447455 0.021338576
vn -0.9892784 -0.14447455 0.021338576
vn -0.9892784 -0.14447455 0.021338576
vn 0.80571884 0.041667413 -0.5908308
vn 0.80571884 0.041667413 -0.5908308
vn 0.80571884 0.041667413 -0.5908308
vn 0.80571884 0.041667413 -0.5908308
g Cube_0
f 3/3/3 2/2/2 1/1/1
f 6/6/6 5/5/5 4/4/4
f 9/9/9 8/8/8 7/7/7
f 12/12/12 11/11/11 10/10/10
f 15/15/15 14/14/14 13/13/13
f 18/18/18 17/17/17 16/16/16
f 21/21/21 20/20/20 19/19/19
f 24/24/24 23/23/23 22/22/22
f 27/27/27 26/26/26 25/25/25
f 28/28/28 26/26/26 27/27/27
f 31/31/31 30/30/30 29/29/29
f 32/32/32 31/31/31 29/29/29
f 35/35/35 34/34/34 33/33/33
f 36/36/36 35/35/35 33/33/33
f 39/39/39 38/38/38 37/37/37
f 40/40/40 39/39/39 37/37/37
f 43/43/43 42/42/42 41/41/41
f 44/44/44 43/43/43 41/41/41
f 47/47/47 46/46/46 45/45/45
f 48/48/48 47/47/47 45/45/45
f 51/51/51 50/50/50 49/49/49
f 52/52/52 51/51/51 49/49/49
