g Cylinder
v -2.5269768 1.4347837 1.401108
v -2.5269768 1.4515243 1.3889453
v -2.5092306 1.438868 1.3994286
v 2.2740068 1.0595127 1.3559475E-07
v 4.626237 0.8848857 -0.642907
v 4.626237 1.0937787 1.331834E-07
v 2.2780926 0.8840943 -0.5400291
v 0.035064377 0.9341889 1.8094067E-07
v 0.035064377 0.7423095 -0.5905439
v -2.3660913 0.97139513 2.04763E-07
v -2.3660915 0.7858752 -0.57097167
v -4.626238 1.0804437 2.528031E-07
v -4.626238 0.8740974 -0.63506883
v 2.2780926 0.8840943 -0.5400291
v 4.6262374 0.33799645 -1.0402453
v 4.626237 0.8848857 -0.642907
v 2.2887883 0.42484257 -0.87378556
v 0.035064377 0.7423095 -0.5905439
v 0.03506437 0.23996282 -0.9555202
v -2.3660915 0.7858752 -0.57097167
v -2.3660917 0.30017766 -0.9238516
v -4.626238 0.8740974 -0.63506883
v -4.6262383 0.33387548 -1.0275631
v 2.2887883 0.42484257 -0.87378556
v 2.3020093 -0.14282379 -0.8737857
v 4.6262374 -0.33799595 -1.0402455
v 4.6262374 0.33799645 -1.0402453
v 2.3020093 -0.14282379 -0.8737857
v 4.626238 -0.88488543 -0.642907
v 4.6262374 -0.33799595 -1.0402455
v 2.3127055 -0.6020756 -0.54002917
v 0.035064854 -0.38097185 -0.95552033
v 0.035065815 -0.88331866 -0.59054404
v -2.366091 -0.3001776 -0.9238517
v -2.36609 -0.78587526 -0.5709718
v -4.6262374 -0.3338756 -1.0275633
v -4.6262364 -0.8740976 -0.63506895
v 2.3127055 -0.6020756 -0.54002917
v 2.3167908 -0.77749413 -8.3452925E-08
v 4.626238 -1.0937786 -1.2759376E-07
v 4.626238 -0.88488543 -0.642907
v 2.3167908 -0.77749413 -8.3452925E-08
v 2.3127053 -0.6020756 0.54002917
v 4.626238 -0.88488543 0.642907
v 4.626238 -1.0937786 -1.2759376E-07
v 2.3127053 -0.6020756 0.54002917
v 4.626238 -0.33799627 1.0402452
v 4.626238 -0.88488543 0.642907
v 2.3020098 -0.14282408 0.87378544
v 0.035065334 -0.88331866 0.59054404
v 0.035065334 -0.38097218 0.9555202
v -2.3660905 -0.78587526 0.5709718
v -2.3660905 -0.30017787 0.9238517
v -4.626237 -0.8740976 0.635069
v -4.626237 -0.3338759 1.0275633
v 2.3020098 -0.14282408 0.87378544
v 4.6262374 0.33799633 1.0402453
v 4.626238 -0.33799627 1.0402452
v 2.2887886 0.4248425 0.87378556
v 0.035065334 -0.38097218 0.9555202
v 0.035064854 0.23996273 0.95552033
v -2.3660905 -0.30017787 0.9238517
v -1.9750719 0.44859347 0.8444035
v -2.3041656 0.37284756 0.8755489
v -4.626237 -0.3338759 1.0275633
v -4.6262374 0.3338754 1.0275633
v 4.6803207 -0.6883166 -0.52105707
v 4.6803207 -0.8500185 -0.023389978
v 4.6803207 -0.6883166 0.47427732
v 4.6803203 -0.26497552 -0.8286325
v 4.6803207 -0.2649758 0.7818524
v 4.6803203 0.25830266 0.7818525
v 4.6803203 0.25830272 -0.8286323
v 4.6803203 0.6816438 0.47427714
v 4.68032 0.6816436 -0.52105707
v 4.68032 0.8433454 -0.023389746
v 2.2887886 0.4248425 0.87378556
v 4.6262374 0.88488585 0.6429068
v 4.6262374 0.33799633 1.0402453
v 2.2780929 0.8840944 0.5400291
v 0.035064854 0.23996273 0.95552033
v 0.035064377 0.74230963 0.5905439
v -2.3041658 0.68329465 0.6499958
v -1.9750719 0.44859347 0.8444035
v -4.6262374 0.3338754 1.0275633
v -4.626238 0.8740976 0.635069
v -2.3041656 0.37284756 0.8755489
v 2.2780929 0.8840944 0.5400291
v 4.626237 1.0937787 1.331834E-07
v 4.6262374 0.88488585 0.6429068
v 2.2740068 1.0595127 1.3559475E-07
v 0.035064377 0.74230963 0.5905439
v 0.035064377 0.9341889 1.8094067E-07
v -2.3041658 0.68329465 0.6499958
v -2.3660913 0.97139513 2.04763E-07
v -4.626238 0.8740976 0.635069
v -4.626238 1.0804437 2.528031E-07
v -4.7073402 -0.66289324 0.4816201
v -4.7073402 -0.8193812 3.5665122E-09
v -4.70734 -0.66289324 -0.48162004
v -4.7073402 -0.25320294 0.7792777
v -4.7073407 -0.2532027 -0.7792778
v -4.7073407 0.2532025 0.7792777
v -4.7073417 0.25320256 -0.77927756
v -4.707341 0.6628932 0.4816201
v -4.707341 0.66289306 -0.48161992
v -4.707341 0.8193808 2.5954535E-07
v -1.9750719 0.44859347 0.8444035
v -2.1263974 0.89775014 1.1162499
v -2.283626 1.0098815 1.0233693
v -2.3041658 0.68329465 0.6499958
v 0.035065334 -1.075198 -5.8596928E-08
v 2.3127053 -0.6020756 0.54002917
v 2.3167908 -0.77749413 -8.3452925E-08
v 0.035065334 -0.88331866 0.59054404
v -2.3660905 -0.97139525 -2.6835682E-08
v -2.3660905 -0.78587526 0.5709718
v -4.626237 -1.0804441 -4.7948348E-09
v -4.626237 -0.8740976 0.635069
v 0.035065815 -0.88331866 -0.59054404
v 2.3167908 -0.77749413 -8.3452925E-08
v 2.3127055 -0.6020756 -0.54002917
v 0.035065334 -1.075198 -5.8596928E-08
v -2.36609 -0.78587526 -0.5709718
v -2.3660905 -0.97139525 -2.6835682E-08
v -4.6262364 -0.8740976 -0.63506895
v -4.626237 -1.0804441 -4.7948348E-09
v 0.03506437 0.23996282 -0.9555202
v 2.3020093 -0.14282379 -0.8737857
v 2.2887883 0.42484257 -0.87378556
v 0.035064854 -0.38097185 -0.95552033
v -2.3660917 0.30017766 -0.9238516
v -2.366091 -0.3001776 -0.9238517
v -4.6262383 0.33387548 -1.0275631
v -4.6262374 -0.3338756 -1.0275633
v -2.1263974 0.89775014 1.1162499
v -2.5092306 1.438868 1.3994286
v -2.5269768 1.4515243 1.3889453
v -2.283626 1.0098815 1.0233693
v -2.3041658 0.68329465 0.6499958
v -2.283626 1.0098815 1.0233693
v -2.2836258 0.86156166 1.13113
v -2.3041656 0.37284756 0.8755489
v -2.3041656 0.37284756 0.8755489
v -2.1263974 0.89775014 1.1162499
v -1.9750719 0.44859347 0.8444035
v -2.2836258 0.86156166 1.13113
v -2.5092306 1.438868 1.3994286
v -2.5269768 1.4347837 1.401108
v -2.283626 1.0098815 1.0233693
v -2.5269768 1.4515243 1.3889453
v -2.5269768 1.4347837 1.401108
v -2.2836258 0.86156166 1.13113
v 4.68032 0.8433454 -0.023389746
v 4.626237 1.0937787 1.331834E-07
v 4.626237 0.8848857 -0.642907
v 4.68032 0.6816436 -0.52105707
v 4.6803203 0.6816438 0.47427714
v 4.6262374 0.33799645 -1.0402453
v 4.6262374 0.88488585 0.6429068
v 4.6803203 0.25830272 -0.8286323
v 4.6803203 0.25830266 0.7818525
v 4.6262374 -0.33799595 -1.0402455
v 4.6262374 0.33799633 1.0402453
v 4.6803203 -0.26497552 -0.8286325
v 4.6803207 -0.2649758 0.7818524
v 4.626238 -0.88488543 -0.642907
v 4.626238 -0.33799627 1.0402452
v 4.6803207 -0.6883166 -0.52105707
v 4.6803207 -0.6883166 0.47427732
v 4.626238 -1.0937786 -1.2759376E-07
v 4.626238 -0.88488543 0.642907
v 4.6803207 -0.8500185 -0.023389978
v -4.707341 0.66289306 -0.48161992
v -4.626238 0.8740974 -0.63506883
v -4.626238 1.0804437 2.528031E-07
v -4.707341 0.8193808 2.5954535E-07
v -4.7073417 0.25320256 -0.77927756
v -4.626238 0.8740976 0.635069
v -4.6262383 0.33387548 -1.0275631
v -4.707341 0.6628932 0.4816201
v -4.7073407 -0.2532027 -0.7792778
v -4.6262374 0.3338754 1.0275633
v -4.6262374 -0.3338756 -1.0275633
v -4.7073407 0.2532025 0.7792777
v -4.70734 -0.66289324 -0.48162004
v -4.626237 -0.3338759 1.0275633
v -4.6262364 -0.8740976 -0.63506895
v -4.7073402 -0.25320294 0.7792777
v -4.7073402 -0.8193812 3.5665122E-09
v -4.626237 -0.8740976 0.635069
v -4.626237 -1.0804441 -4.7948348E-09
v -4.7073402 -0.66289324 0.4816201
vt 0.76904297 0.7578125
vt 0.76904297 0.7553711
vt 0.76660156 0.7573242
vt 0.58984375 0.7373047
vt 0.5317383 0.98876953
vt 0.59277344 0.98876953
vt 0.5385742 0.73779297
vt 0.57910156 0.49829102
vt 0.52246094 0.49829102
vt 0.58251953 0.24169922
vt 0.5283203 0.24169922
vt 0.59277344 0.00021779537
vt 0.53222656 0.00019967556
vt 0.5385742 0.73779297
vt 0.45581055 0.98876953
vt 0.5317383 0.98876953
vt 0.47485352 0.73876953
vt 0.52246094 0.49829102
vt 0.453125 0.49804688
vt 0.5283203 0.24169922
vt 0.4609375 0.24157715
vt 0.53222656 0.00019967556
vt 0.45751953 0.00011634827
vt 0.76660156 0.7504883
vt 0.71533203 0.74853516
vt 0.68896484 0.99560547
vt 0.75 1
vt 0.71533203 0.74853516
vt 0.61328125 0.9902344
vt 0.68896484 0.99560547
vt 0.65185547 0.7451172
vt 0.7182617 0.5058594
vt 0.6489258 0.50097656
vt 0.7441406 0.25024414
vt 0.6767578 0.2454834
vt 0.76660156 0.009757996
vt 0.6923828 0.004371643
vt 0.21911621 0.24719238
vt 0.27075195 0.24682617
vt 0.25976562 6.2584877E-06
vt 0.19836426 2.259016E-05
vt 0.27075195 0.24682617
vt 0.33422852 0.24719238
vt 0.33544922 0
vt 0.25976562 6.2584877E-06
vt 0.33422852 0.24719238
vt 0.39672852 6.2584877E-06
vt 0.33544922 0
vt 0.3857422 0.24841309
vt 0.33007812 0.49047852
vt 0.38623047 0.49047852
vt 0.33129883 0.7470703
vt 0.3857422 0.7470703
vt 0.33496094 0.98876953
vt 0.3955078 0.98876953
vt 0.028656006 0.24890137
vt 0.061065674 5.9604645E-08
vt 0 0.0005040169
vt 0.079956055 0.24987793
vt 0.0017080307 0.49121094
vt 0.057800293 0.49072266
vt 0.01109314 0.7475586
vt 0.08404541 0.7055664
vt 0.07507324 0.74072266
vt 0.0011520386 0.9892578
vt 0.06149292 0.98876953
vt 0.9638672 0.8652344
vt 0.92041016 0.8515625
vt 0.8769531 0.8652344
vt 0.99121094 0.9003906
vt 0.85009766 0.9003906
vt 0.85009766 0.94433594
vt 0.99121094 0.94433594
vt 0.8769531 0.9794922
vt 0.9638672 0.9794922
vt 0.92041016 0.99316406
vt 0.079956055 0.24987793
vt 0.13684082 0
vt 0.061065674 5.9604645E-08
vt 0.14355469 0.25097656
vt 0.057800293 0.49072266
vt 0.1274414 0.49072266
vt 0.11810303 0.74072266
vt 0.08404541 0.7055664
vt 0.06149292 0.98876953
vt 0.13635254 0.98876953
vt 0.07507324 0.74072266
vt 0.14355469 0.25097656
vt 0.19836426 0.0005040169
vt 0.13684082 0
vt 0.1953125 0.25195312
vt 0.1274414 0.49072266
vt 0.18395996 0.49121094
vt 0.11810303 0.74072266
vt 0.18725586 0.7475586
vt 0.13635254 0.98876953
vt 0.19714355 0.9892578
vt 0.92285156 0.71484375
vt 0.8833008 0.7270508
vt 0.859375 0.75878906
vt 0.96191406 0.7270508
vt 0.859375 0.79833984
vt 0.9863281 0.75878906
vt 0.8833008 0.8300781
vt 0.9863281 0.79833984
vt 0.92285156 0.84228516
vt 0.96191406 0.8300781
vt 0.76660156 0.6972656
vt 0.7861328 0.7524414
vt 0.8041992 0.7553711
vt 0.8041992 0.7036133
vt 0.2602539 0.49047852
vt 0.33422852 0.24719238
vt 0.27075195 0.24682617
vt 0.33007812 0.49047852
vt 0.26391602 0.7470703
vt 0.33129883 0.7470703
vt 0.2602539 0.98876953
vt 0.33496094 0.98876953
vt 0.6489258 0.50097656
vt 0.60058594 0.7416992
vt 0.65185547 0.7451172
vt 0.59277344 0.49658203
vt 0.6767578 0.2454834
vt 0.6225586 0.24157715
vt 0.6923828 0.004371643
vt 0.63183594 0
vt 0.453125 0.49804688
vt 0.42333984 0.7402344
vt 0.47485352 0.73876953
vt 0.39672852 0.49804688
vt 0.4609375 0.24157715
vt 0.40649414 0.24145508
vt 0.45751953 0.00011634827
vt 0.39697266 0
vt 0.81640625 0.6586914
vt 0.81640625 0.5932617
vt 0.8144531 0.59277344
vt 0.80126953 0.65234375
vt 0.76660156 0.48291016
vt 0.7871094 0.53222656
vt 0.8051758 0.5234375
vt 0.8051758 0.4645996
vt 0.76660156 0.60595703
vt 0.80126953 0.6381836
vt 0.80126953 0.59277344
vt 0.78466797 0.64453125
vt 0.7783203 0.69628906
vt 0.7763672 0.6972656
vt 0.7871094 0.53222656
vt 0.80078125 0.59277344
vt 0.8027344 0.5917969
vt 0.8051758 0.5234375
vt 0.8857422 0.20703125
vt 0.8833008 0.23376465
vt 0.9555664 0.21142578
vt 0.94189453 0.18969727
vt 0.8300781 0.18969727
vt 1 0.1529541
vt 0.81152344 0.21142578
vt 0.9760742 0.14453125
vt 0.79589844 0.14453125
vt 1 0.08074951
vt 0.76660156 0.1529541
vt 0.9760742 0.08856201
vt 0.79589844 0.08856201
vt 0.9555664 0.022323608
vt 0.76660156 0.08074951
vt 0.94189453 0.04333496
vt 0.8300781 0.04333496
vt 0.8833008 0
vt 0.81152344 0.022323608
vt 0.8857422 0.026046753
vt 0.8823242 0.43676758
vt 0.88183594 0.4645996
vt 0.953125 0.44262695
vt 0.93603516 0.41992188
vt 0.828125 0.41992188
vt 0.9970703 0.38476562
vt 0.8105469 0.44262695
vt 0.96972656 0.3762207
vt 0.7949219 0.3762207
vt 0.9970703 0.31347656
vt 0.76660156 0.38476562
vt 0.96972656 0.32202148
vt 0.7949219 0.32202148
vt 0.953125 0.25585938
vt 0.76660156 0.31347656
vt 0.93603516 0.2783203
vt 0.828125 0.2783203
vt 0.88183594 0.23376465
vt 0.8105469 0.25585938
vt 0.8823242 0.26171875
vn -0.058624268 0.58691406 0.8076172
vn -0.058624268 0.58691406 0.8076172
vn -0.058624268 0.58691406 0.8076172
vn -0.033447266 0.9506836 -0.3088379
vn -0.0138549805 0.9511719 -0.30908203
vn -0.0138549805 0.9511719 -0.30908203
vn -0.03338623 0.9506836 -0.3088379
vn -0.019332886 0.9506836 -0.30908203
vn -0.01890564 0.9506836 -0.30908203
vn 0.030380249 0.9506836 -0.3088379
vn 0.030303955 0.9506836 -0.3088379
vn 0.045837402 0.9501953 -0.30859375
vn 0.045837402 0.9501953 -0.30859375
vn -0.027297974 0.58740234 -0.80859375
vn -0.035705566 0.58740234 -0.80859375
vn -0.035705566 0.58740234 -0.80859375
vn -0.027359009 0.58740234 -0.80859375
vn -0.007572174 0.5878906 -0.80908203
vn -0.0071868896 0.5878906 -0.80908203
vn 0.02519226 0.58740234 -0.80859375
vn 0.024871826 0.58740234 -0.80859375
vn 0.045837402 0.58740234 -0.80810547
vn 0.045837402 0.58740234 -0.80810547
vn -0.017578125 -0.00017774105 -1
vn -0.01802063 -0.00018250942 -1
vn -0.07128906 -0.00075769424 -0.9975586
vn -0.07128906 -0.00075769424 -0.9975586
vn -0.008399963 -0.5878906 -0.80908203
vn -0.10699463 -0.58496094 -0.80371094
vn -0.10699463 -0.58496094 -0.80371094
vn -0.009094238 -0.5878906 -0.80908203
vn 0.030807495 -0.58740234 -0.80908203
vn 0.028823853 -0.58740234 -0.80908203
vn 0.008125305 -0.5878906 -0.80908203
vn 0.007549286 -0.5878906 -0.80908203
vn 0.045837402 -0.58740234 -0.80810547
vn 0.045837402 -0.58740234 -0.80810547
vn -0.12902832 -0.9433594 -0.3059082
vn -0.12902832 -0.9433594 -0.3059082
vn -0.12902832 -0.9433594 -0.3059082
vn -0.12902832 -0.9433594 -0.3059082
vn -0.12902832 -0.9433594 0.3059082
vn -0.12902832 -0.9433594 0.3059082
vn -0.12902832 -0.9433594 0.3059082
vn -0.12902832 -0.9433594 0.3059082
vn -0.009094238 -0.5878906 0.80908203
vn -0.10699463 -0.58496094 0.80371094
vn -0.10699463 -0.58496094 0.80371094
vn -0.008399963 -0.5878906 0.80908203
vn 0.028823853 -0.58740234 0.80908203
vn 0.030807495 -0.58740234 0.80908203
vn 0.007549286 -0.5878906 0.80908203
vn 0.008125305 -0.5878906 0.80908203
vn 0.045837402 -0.58740234 0.80810547
vn 0.045837402 -0.58740234 0.80810547
vn -0.01802063 -0.00018298626 1
vn -0.07128906 -0.0007581711 0.9975586
vn -0.07128906 -0.0007581711 0.9975586
vn -0.017578125 -0.00017821789 1
vn 0.0069389343 0.03387451 0.9995117
vn 0.0074272156 0.033325195 0.9995117
vn 0.019134521 0.04876709 0.99853516
vn -0.020889282 0.06573486 0.9975586
vn 0.012207031 0.051727295 0.99853516
vn 0.05517578 0.033416748 0.9980469
vn 0.05517578 0.033416748 0.9980469
vn 1 0 0
vn 1 0 0
vn 1 0 0
vn 1 0 0
vn 0.9926758 -0.03793335 0.11273193
vn 0.99316406 0.03692627 0.11206055
vn 1 0 0
vn 0.9926758 0.09918213 0.06945801
vn 1 0 0
vn 1 0 0
vn -0.027359009 0.58740234 0.80859375
vn -0.035705566 0.58740234 0.80859375
vn -0.035705566 0.58740234 0.80859375
vn -0.027297974 0.58740234 0.80859375
vn -0.0038585663 0.59765625 0.8017578
vn -0.0041885376 0.59765625 0.8017578
vn 0.043060303 0.58740234 0.80810547
vn 0.011474609 0.60791016 0.7939453
vn 0.043060303 0.58740234 0.80810547
vn 0.043060303 0.58740234 0.80810547
vn 0.043060303 0.58740234 0.80810547
vn -0.03338623 0.9506836 0.3088379
vn -0.0138549805 0.9511719 0.30908203
vn -0.0138549805 0.9511719 0.30908203
vn -0.033447266 0.9506836 0.3088379
vn -0.02583313 0.94140625 0.33569336
vn -0.026565552 0.94189453 0.33496094
vn 0.028320312 0.93310547 0.35864258
vn 0.031951904 0.93310547 0.35839844
vn 0.05987549 0.9326172 0.35595703
vn 0.05987549 0.9326172 0.35595703
vn -1 0 0
vn -1 0 0
vn -1 0 0
vn -1 0 0
vn -1 0 0
vn -1 0 0
vn -1 0 0
vn -1 0 0
vn -1 0 0
vn -1 0 0
vn 0.67871094 0.5336914 -0.50439453
vn 0.6791992 0.57470703 -0.45654297
vn 0.67822266 0.6044922 -0.4177246
vn 0.67871094 0.5336914 -0.50439453
vn 0.040496826 -0.9501953 0.3088379
vn 0.12322998 -0.94384766 0.3071289
vn 0.12322998 -0.94384766 0.3071289
vn 0.041534424 -0.9501953 0.3088379
vn 0.0024032593 -0.9511719 0.30908203
vn 0.002653122 -0.9511719 0.30908203
vn 0.045837402 -0.9501953 0.30859375
vn 0.045837402 -0.9501953 0.30859375
vn 0.041534424 -0.9501953 -0.3088379
vn 0.12322998 -0.94384766 -0.3071289
vn 0.12322998 -0.94384766 -0.3071289
vn 0.040496826 -0.9501953 -0.3088379
vn 0.002653122 -0.9511719 -0.30908203
vn 0.0024032593 -0.9511719 -0.30908203
vn 0.045837402 -0.9501953 -0.30859375
vn 0.045837402 -0.9501953 -0.30859375
vn 0.011886597 0.00020456314 -1
vn -0.01802063 -0.00018250942 -1
vn -0.017578125 -0.00017774105 -1
vn 0.010879517 0.0001963377 -1
vn 0.016708374 0 -1
vn 0.016159058 0 -1
vn 0.045837402 0 -0.99902344
vn 0.045837402 0 -0.99902344
vn 0.6791992 0.57470703 -0.45654297
vn 0.6713867 0.6557617 -0.34521484
vn 0.6713867 0.6557617 -0.34521484
vn 0.67822266 0.6044922 -0.4177246
vn -0.99902344 0.024414062 0.033599854
vn -0.99902344 0.024414062 0.033599854
vn -0.99902344 0.024414062 0.033599854
vn -0.99902344 0.024414062 0.033599854
vn 0.18823242 -0.46142578 0.8671875
vn 0.1809082 -0.4206543 0.88916016
vn 0.18823242 -0.46142578 0.8671875
vn 0.17919922 -0.41137695 0.8935547
vn 0.16967773 -0.36010742 0.91748047
vn 0.16967773 -0.36010742 0.91748047
vn -0.9160156 -0.23596191 -0.32470703
vn -0.9160156 -0.23596191 -0.32470703
vn -0.9160156 -0.23596191 -0.32470703
vn -0.9160156 -0.23596191 -0.32470703
vn 0.97753906 0.21154785 -0.005302429
vn 0.97753906 0.21081543 0.0029506683
vn 0.9746094 0.18225098 -0.12878418
vn 0.9746094 0.17797852 -0.13586426
vn 0.9926758 0.09918213 0.06945801
vn 0.97265625 0.07348633 -0.22094727
vn 0.9794922 0.16137695 0.11968994
vn 0.97265625 0.0692749 -0.22241211
vn 0.99316406 0.03692627 0.11206055
vn 0.97216797 -0.07318115 -0.22314453
vn 0.98046875 0.060180664 0.18664551
vn 0.97216797 -0.0715332 -0.22375488
vn 0.9926758 -0.03793335 0.11273193
vn 0.9736328 -0.18603516 -0.13208008
vn 0.98046875 -0.059936523 0.18823242
vn 0.9736328 -0.18225098 -0.13806152
vn 0.9785156 -0.16882324 0.117126465
vn 0.9760742 -0.2163086 0.0031089783
vn 0.9790039 -0.16430664 0.12243652
vn 0.9760742 -0.21716309 -0.0055770874
vn -0.9550781 0.23999023 -0.17443848
vn -0.9550781 0.23999023 -0.17443848
vn -0.9550781 0.29663086 0
vn -0.9550781 0.29663086 0
vn -0.9550781 0.091674805 -0.28222656
vn -0.9550781 0.23999023 0.17443848
vn -0.9550781 0.091674805 -0.28222656
vn -0.9550781 0.23999023 0.17443848
vn -0.9550781 -0.091674805 -0.28222656
vn -0.9550781 0.091674805 0.28222656
vn -0.9550781 -0.091674805 -0.28222656
vn -0.9550781 0.091674805 0.28222656
vn -0.9550781 -0.23999023 -0.17443848
vn -0.9550781 -0.091674805 0.28222656
vn -0.9550781 -0.23999023 -0.17443848
vn -0.9550781 -0.091674805 0.28222656
vn -0.9550781 -0.29663086 0
vn -0.9550781 -0.23999023 0.17443848
vn -0.9550781 -0.29663086 0
vn -0.9550781 -0.23999023 0.17443848
g Cylinder_0
f 3/3/3 2/2/2 1/1/1
f 6/6/6 5/5/5 4/4/4
f 5/5/5 7/7/7 4/4/4
f 4/4/4 7/7/7 8/8/8
f 7/7/7 9/9/9 8/8/8
f 8/8/8 9/9/9 10/10/10
f 9/9/9 11/11/11 10/10/10
f 10/10/10 11/11/11 12/12/12
f 11/11/11 13/13/13 12/12/12
f 16/16/16 15/15/15 14/14/14
f 15/15/15 17/17/17 14/14/14
f 14/14/14 17/17/17 18/18/18
f 17/17/17 19/19/19 18/18/18
f 18/18/18 19/19/19 20/20/20
f 19/19/19 21/21/21 20/20/20
f 20/20/20 21/21/21 22/22/22
f 21/21/21 23/23/23 22/22/22
f 26/26/26 25/25/25 24/24/24
f 27/27/27 26/26/26 24/24/24
f 30/30/30 29/29/29 28/28/28
f 29/29/29 31/31/31 28/28/28
f 28/28/28 31/31/31 32/32/32
f 31/31/31 33/33/33 32/32/32
f 32/32/32 33/33/33 34/34/34
f 33/33/33 35/35/35 34/34/34
f 34/34/34 35/35/35 36/36/36
f 35/35/35 37/37/37 36/36/36
f 40/40/40 39/39/39 38/38/38
f 41/41/41 40/40/40 38/38/38
f 44/44/44 43/43/43 42/42/42
f 45/45/45 44/44/44 42/42/42
f 48/48/48 47/47/47 46/46/46
f 47/47/47 49/49/49 46/46/46
f 46/46/46 49/49/49 50/50/50
f 49/49/49 51/51/51 50/50/50
f 50/50/50 51/51/51 52/52/52
f 51/51/51 53/53/53 52/52/52
f 52/52/52 53/53/53 54/54/54
f 53/53/53 55/55/55 54/54/54
f 58/58/58 57/57/57 56/56/56
f 57/57/57 59/59/59 56/56/56
f 56/56/56 59/59/59 60/60/60
f 59/59/59 61/61/61 60/60/60
f 62/62/62 60/60/60 61/61/61
f 61/61/61 63/63/63 62/62/62
f 63/63/63 64/64/64 62/62/62
f 62/62/62 64/64/64 65/65/65
f 64/64/64 66/66/66 65/65/65
f 69/69/69 68/68/68 67/67/67
f 67/67/67 70/70/70 69/69/69
f 70/70/70 71/71/71 69/69/69
f 70/70/70 72/72/72 71/71/71
f 70/70/70 73/73/73 72/72/72
f 73/73/73 74/74/74 72/72/72
f 73/73/73 75/75/75 74/74/74
f 75/75/75 76/76/76 74/74/74
f 79/79/79 78/78/78 77/77/77
f 78/78/78 80/80/80 77/77/77
f 77/77/77 80/80/80 81/81/81
f 80/80/80 82/82/82 81/81/81
f 81/81/81 82/82/82 83/83/83
f 84/84/84 81/81/81 83/83/83
f 83/83/83 86/86/86 85/85/85
f 87/87/87 83/83/83 85/85/85
f 90/90/90 89/89/89 88/88/88
f 89/89/89 91/91/91 88/88/88
f 88/88/88 91/91/91 92/92/92
f 91/91/91 93/93/93 92/92/92
f 92/92/92 93/93/93 94/94/94
f 93/93/93 95/95/95 94/94/94
f 94/94/94 95/95/95 96/96/96
f 95/95/95 97/97/97 96/96/96
f 100/100/100 99/99/99 98/98/98
f 98/98/98 101/101/101 100/100/100
f 101/101/101 102/102/102 100/100/100
f 101/101/101 103/103/103 102/102/102
f 103/103/103 104/104/104 102/102/102
f 103/103/103 105/105/105 104/104/104
f 105/105/105 106/106/106 104/104/104
f 105/105/105 107/107/107 106/106/106
f 110/110/110 109/109/109 108/108/108
f 111/111/111 110/110/110 108/108/108
f 114/114/114 113/113/113 112/112/112
f 113/113/113 115/115/115 112/112/112
f 112/112/112 115/115/115 116/116/116
f 115/115/115 117/117/117 116/116/116
f 116/116/116 117/117/117 118/118/118
f 117/117/117 119/119/119 118/118/118
f 122/122/122 121/121/121 120/120/120
f 121/121/121 123/123/123 120/120/120
f 120/120/120 123/123/123 124/124/124
f 123/123/123 125/125/125 124/124/124
f 124/124/124 125/125/125 126/126/126
f 125/125/125 127/127/127 126/126/126
f 130/130/130 129/129/129 128/128/128
f 129/129/129 131/131/131 128/128/128
f 128/128/128 131/131/131 132/132/132
f 131/131/131 133/133/133 132/132/132
f 132/132/132 133/133/133 134/134/134
f 133/133/133 135/135/135 134/134/134
f 138/138/138 137/137/137 136/136/136
f 139/139/139 138/138/138 136/136/136
f 142/142/142 141/141/141 140/140/140
f 143/143/143 142/142/142 140/140/140
f 146/146/146 145/145/145 144/144/144
f 145/145/145 147/147/147 144/144/144
f 145/145/145 148/148/148 147/147/147
f 148/148/148 149/149/149 147/147/147
f 152/152/152 151/151/151 150/150/150
f 153/153/153 152/152/152 150/150/150
f 156/156/156 155/155/155 154/154/154
f 157/157/157 156/156/156 154/154/154
f 154/154/154 155/155/155 158/158/158
f 159/159/159 156/156/156 157/157/157
f 155/155/155 160/160/160 158/158/158
f 161/161/161 159/159/159 157/157/157
f 158/158/158 160/160/160 162/162/162
f 163/163/163 159/159/159 161/161/161
f 160/160/160 164/164/164 162/162/162
f 165/165/165 163/163/163 161/161/161
f 162/162/162 164/164/164 166/166/166
f 167/167/167 163/163/163 165/165/165
f 164/164/164 168/168/168 166/166/166
f 169/169/169 167/167/167 165/165/165
f 166/166/166 168/168/168 170/170/170
f 171/171/171 167/167/167 169/169/169
f 168/168/168 172/172/172 170/170/170
f 173/173/173 171/171/171 169/169/169
f 170/170/170 172/172/172 173/173/173
f 172/172/172 171/171/171 173/173/173
f 176/176/176 175/175/175 174/174/174
f 177/177/177 176/176/176 174/174/174
f 174/174/174 175/175/175 178/178/178
f 179/179/179 176/176/176 177/177/177
f 175/175/175 180/180/180 178/178/178
f 181/181/181 179/179/179 177/177/177
f 178/178/178 180/180/180 182/182/182
f 183/183/183 179/179/179 181/181/181
f 180/180/180 184/184/184 182/182/182
f 185/185/185 183/183/183 181/181/181
f 182/182/182 184/184/184 186/186/186
f 187/187/187 183/183/183 185/185/185
f 184/184/184 188/188/188 186/186/186
f 189/189/189 187/187/187 185/185/185
f 186/186/186 188/188/188 190/190/190
f 191/191/191 187/187/187 189/189/189
f 188/188/188 192/192/192 190/190/190
f 193/193/193 191/191/191 189/189/189
f 190/190/190 192/192/192 193/193/193
f 192/192/192 191/191/191 193/193/193
