g Cylinder
v -2.4490546E-08 0.17822886 -1
v 0.08911675 0.1543501 -1
v 0.08911675 0.1543501 1
v -2.4490546E-08 0.17822886 1
v -0.08911693 0.15435004 -1
v -0.08911693 0.15435004 1
v -0.15435493 0.08911201 -1
v -0.15435493 0.08911201 1
v 0.08911675 0.1543501 -1
v 0.15435481 0.0891121 1
v 0.08911675 0.1543501 1
v 0.15435481 0.0891121 -1
v 0.17823356 -4.7099757E-06 1
v 0.17823356 -4.7099757E-06 -1
v 0.15435481 -0.08912152 1
v 0.15435481 -0.08912152 -1
v 0.15435481 -0.08912152 -1
v 0.08911678 -0.15435952 1
v 0.15435481 -0.08912152 1
v 0.08911678 -0.15435952 -1
v 2.4219702E-09 -0.17823827 1
v 2.4219702E-09 -0.17823827 -1
v -0.08911678 -0.15435952 1
v -0.08911678 -0.15435952 -1
v -0.08911678 -0.15435952 -1
v -0.15435481 -0.08912155 1
v -0.08911678 -0.15435952 1
v -0.15435481 -0.08912155 -1
v -0.17823362 -4.785048E-06 1
v -0.17823362 -4.785048E-06 -1
v -0.15435493 0.08911201 1
v -0.15435493 0.08911201 -1
v 0.15435481 -0.08912152 -1
v 0.17823356 -4.7099757E-06 -1
v 0.15435481 0.0891121 -1
v 0.08911678 -0.15435952 -1
v 0.08911675 0.1543501 -1
v 2.4219702E-09 -0.17823827 -1
v -2.4490546E-08 0.17822886 -1
v -0.08911678 -0.15435952 -1
v -0.08911693 0.15435004 -1
v -0.15435481 -0.08912155 -1
v -0.15435493 0.08911201 -1
v -0.17823362 -4.785048E-06 -1
v 0.22629766 -0.13065727 0.9999987
v 0.22629766 -0.13065727 1.5332254
v 0.26130602 -4.2382626E-06 1.5332254
v 0.26130602 -4.2382626E-06 0.9999987
v 0.22629766 0.1306488 1.5332254
v 0.22629766 0.1306488 0.9999987
v 0.13065296 0.22629341 1.5332254
v 0.13065296 0.22629341 0.9999987
v -0.1306532 0.22629333 0.9999987
v -0.22629781 0.13064867 1.5332254
v -0.22629781 0.13064867 0.9999987
v -0.1306532 0.22629333 1.5332254
v -2.2014795E-08 0.26130176 0.9999987
v -2.2014795E-08 0.26130176 1.5332254
v 0.13065296 0.22629341 0.9999987
v 0.13065296 0.22629341 1.5332254
v -0.22629763 -0.13065732 0.9999987
v -0.13065298 -0.2263019 1.5332254
v -0.13065298 -0.2263019 0.9999987
v -0.22629763 -0.13065732 1.5332254
v -0.26130608 -4.348325E-06 0.9999987
v -0.26130608 -4.348325E-06 1.5332254
v -0.22629781 0.13064867 0.9999987
v -0.22629781 0.13064867 1.5332254
v 0.13065301 -0.2263019 0.9999987
v 0.22629766 -0.13065727 1.5332254
v 0.22629766 -0.13065727 0.9999987
v 0.13065301 -0.2263019 1.5332254
v 1.7441309E-08 -0.26131022 0.9999987
v 1.7441309E-08 -0.26131022 1.5332254
v -0.13065298 -0.2263019 0.9999987
v -0.13065298 -0.2263019 1.5332254
v 0.06327933 -0.036536705 1.5972121
v 0.06327936 -0.036536705 1.658318
v 0.07306871 -2.355881E-06 1.658318
v 0.07306868 -2.355881E-06 1.5972121
v 0.06327936 0.036531992 1.658318
v 0.06327933 0.036531992 1.5972121
v 0.036534347 0.063276984 1.658318
v 0.036534317 0.063276984 1.5972121
v 0.06327936 0.036531992 1.658318
v 0.07306871 -2.355881E-06 1.658318
v 0.06327936 -0.036536705 1.658318
v 0.036534347 0.063276984 1.658318
v 0.03653436 -0.063281685 1.658318
v 2.4437206E-08 -0.073071025 1.658318
v 1.3404144E-08 0.073066324 1.658318
v -0.03653431 -0.063281685 1.658318
v -0.036534376 0.06327696 1.658318
v -0.063279316 -0.03653672 1.658318
v -0.06327936 0.036531955 1.658318
v -0.07306868 -2.3866576E-06 1.658318
v -0.036534406 0.06327696 1.5972121
v -0.06327936 0.036531955 1.658318
v -0.06327939 0.036531955 1.5972121
v -0.036534376 0.06327696 1.658318
v -1.5020165E-08 0.073066324 1.5972121
v 1.3404144E-08 0.073066324 1.658318
v 0.036534317 0.063276984 1.5972121
v 0.036534347 0.063276984 1.658318
v -0.063279346 -0.03653672 1.5972121
v -0.03653431 -0.063281685 1.658318
v -0.03653434 -0.063281685 1.5972121
v -0.063279316 -0.03653672 1.658318
v -0.07306871 -2.3866576E-06 1.5972121
v -0.07306868 -2.3866576E-06 1.658318
v -0.06327939 0.036531955 1.5972121
v -0.06327936 0.036531955 1.658318
v 0.03653433 -0.063281685 1.5972121
v 0.06327936 -0.036536705 1.658318
v 0.06327933 -0.036536705 1.5972121
v 0.03653436 -0.063281685 1.658318
v -3.987103E-09 -0.073071025 1.5972121
v 2.4437206E-08 -0.073071025 1.658318
v -0.03653434 -0.063281685 1.5972121
v -0.03653431 -0.063281685 1.658318
v -0.08911693 0.15435004 1
v -0.1306532 0.22629333 0.9999987
v -0.22629781 0.13064867 0.9999987
v -0.15435493 0.08911201 1
v -2.4490546E-08 0.17822886 1
v -0.26130608 -4.348325E-06 0.9999987
v -2.2014795E-08 0.26130176 0.9999987
v -0.17823362 -4.785048E-06 1
v 0.08911675 0.1543501 1
v -0.22629763 -0.13065732 0.9999987
v 0.13065296 0.22629341 0.9999987
v -0.15435481 -0.08912155 1
v 0.15435481 0.0891121 1
v -0.13065298 -0.2263019 0.9999987
v 0.22629766 0.1306488 0.9999987
v -0.08911678 -0.15435952 1
v 0.17823356 -4.7099757E-06 1
v 1.7441309E-08 -0.26131022 0.9999987
v 0.26130602 -4.2382626E-06 0.9999987
v 2.4219702E-09 -0.17823827 1
v 0.15435481 -0.08912152 1
v 0.13065301 -0.2263019 0.9999987
v 0.22629766 -0.13065727 0.9999987
v 0.08911678 -0.15435952 1
v -0.13065298 -0.2263019 1.5332254
v 1.037216E-08 -0.14474171 1.5972121
v 1.7441309E-08 -0.26131022 1.5332254
v -0.07236967 -0.12535033 1.5972121
v -0.22629763 -0.13065732 1.5332254
v 0.072369695 -0.12535033 1.5972121
v 0.13065301 -0.2263019 1.5332254
v -0.12534797 -0.07237208 1.5972121
v -0.26130608 -4.348325E-06 1.5332254
v 0.12534799 -0.07237205 1.5972121
v 0.22629766 -0.13065727 1.5332254
v -0.14473942 -2.4085703E-06 1.5972121
v -0.22629781 0.13064867 1.5332254
v 0.14473939 -2.3476057E-06 1.5972121
v 0.26130602 -4.2382626E-06 1.5332254
v -0.12534808 0.07236729 1.5972121
v -0.1306532 0.22629333 1.5332254
v 0.12534799 0.07236736 1.5972121
v 0.22629766 0.1306488 1.5332254
v -0.0723698 0.12534559 1.5972121
v -2.2014795E-08 0.26130176 1.5332254
v 0.072369665 0.12534563 1.5972121
v 0.13065296 0.22629341 1.5332254
v -1.1482875E-08 0.14473702 1.5972121
v 0.07306868 -2.355881E-06 1.5972121
v 0.06327933 -0.036536705 1.5972121
v 0.06327933 0.036531992 1.5972121
v 0.036534317 0.063276984 1.5972121
v 0.03653433 -0.063281685 1.5972121
v -1.5020165E-08 0.073066324 1.5972121
v -0.036534406 0.06327696 1.5972121
v -3.987103E-09 -0.073071025 1.5972121
v -0.06327939 0.036531955 1.5972121
v -0.03653434 -0.063281685 1.5972121
v -0.07306871 -2.3866576E-06 1.5972121
v -0.063279346 -0.03653672 1.5972121
vt 0.09144908 0.96336216
vt 0.13389057 0.96336216
vt 0.13389024 0
vt 0.09144876 0
vt 0.042441804 0.96336216
vt 0.04244148 0
vt 3.1660983E-07 0.96336216
vt 0 2.871043E-08
vt 0.5355614 0
vt 0.49311996 0.96336216
vt 0.53556144 0.96336216
vt 0.4931199 2.871043E-08
vt 0.44411275 0.96336216
vt 0.4441127 5.742086E-08
vt 0.40167123 0.96336216
vt 0.40167117 2.871043E-08
vt 0.26778096 0.9633622
vt 0.31022236 0
vt 0.26778087 5.742086E-08
vt 0.31022248 0.9633622
vt 0.3592296 5.742086E-08
vt 0.35922968 0.9633622
vt 0.40167108 5.742086E-08
vt 0.4016712 0.9633622
vt 0.26778075 0
vt 0.22533938 0.96336216
vt 0.26778087 0.9633621
vt 0.22533926 0
vt 0.17633218 0.9633621
vt 0.17633206 0
vt 0.13389069 0.96336216
vt 0.13389057 0
vt 0.962099 0.27906528
vt 0.9196575 0.25684524
vt 0.8706503 0.25684524
vt 0.9866026 0.31755158
vt 0.8282088 0.2790653
vt 0.9866026 0.3619917
vt 0.8037052 0.31755158
vt 0.962099 0.400478
vt 0.8037052 0.3619918
vt 0.9196575 0.42269805
vt 0.8282088 0.40047807
vt 0.87065035 0.42269808
vt 0.8037052 0
vt 0.8037052 0.25684524
vt 0.8659282 0.25684524
vt 0.8659281 0
vt 0.93777704 0.25684524
vt 0.93777704 2.871043E-08
vt 1 0.25684524
vt 0.99999994 2.871043E-08
vt 0.5977845 0.74315476
vt 0.5355615 0.48630965
vt 0.53556156 0.74315476
vt 0.5977844 0.48630962
vt 0.66963345 0.74315476
vt 0.6696334 0.48630962
vt 0.7318564 0.74315476
vt 0.73185635 0.48630956
vt 0.59778446 1
vt 0.5355615 0.7431548
vt 0.53556156 1
vt 0.5977844 0.74315476
vt 0.6696333 1
vt 0.66963327 0.7431548
vt 0.7318563 1
vt 0.7318562 0.7431548
vt 0.7940794 0.74315476
vt 0.7318564 0.48630962
vt 0.73185647 0.7431548
vt 0.79407936 0.48630962
vt 0.8659283 0.74315476
vt 0.86592823 0.48630962
vt 0.92815125 0.74315476
vt 0.9281512 0.48630956
vt 0.86862224 0.42269808
vt 0.8361637 0.42269808
vt 0.8361637 0.43847594
vt 0.8686222 0.43847594
vt 0.8361637 0.45669463
vt 0.8686222 0.45669463
vt 0.8361637 0.4724725
vt 0.8686222 0.47247246
vt 0.8068371 0.76804197
vt 0.79679155 0.75226414
vt 0.77939224 0.74315476
vt 0.8068371 0.78626066
vt 0.75930125 0.74315476
vt 0.74190193 0.75226414
vt 0.7967916 0.8020385
vt 0.7318564 0.76804197
vt 0.77939224 0.81114787
vt 0.7318564 0.78626066
vt 0.75930125 0.81114787
vt 0.74190193 0.8020385
vt 0.83616364 0.45669463
vt 0.8037052 0.4724725
vt 0.83616364 0.4724725
vt 0.8037052 0.45669466
vt 0.8361637 0.43847594
vt 0.8037052 0.43847594
vt 0.83616364 0.42269808
vt 0.8037052 0.4226981
vt 0.8717541 0.7771513
vt 0.8392956 0.7929292
vt 0.8717541 0.7929291
vt 0.8392957 0.7771513
vt 0.8717541 0.75893265
vt 0.8392957 0.75893265
vt 0.8717541 0.74315476
vt 0.8392957 0.74315476
vt 0.8392956 0.7771513
vt 0.8068371 0.7929292
vt 0.83929557 0.7929292
vt 0.8068371 0.7771513
vt 0.8392956 0.75893265
vt 0.8068371 0.75893265
vt 0.83929557 0.74315476
vt 0.80683714 0.74315476
vt 0.64512956 0.038651202
vt 0.6337088 2.871043E-08
vt 0.5714859 0.03257659
vt 0.6026881 0.060871277
vt 0.69413686 0.038651194
vt 0.5355615 0.08900087
vt 0.70555776 0
vt 0.57818455 0.099357575
vt 0.73657835 0.060871243
vt 0.53556156 0.15415399
vt 0.7677807 0.03257656
vt 0.57818455 0.1437977
vt 0.761082 0.09935753
vt 0.571486 0.21057823
vt 0.80370516 0.08900081
vt 0.6026882 0.18228397
vt 0.761082 0.14379767
vt 0.63370895 0.24315475
vt 0.80370516 0.15415394
vt 0.6451297 0.20450403
vt 0.7365784 0.18228397
vt 0.70555776 0.24315478
vt 0.7677807 0.21057823
vt 0.6941369 0.20450403
vt 0.571486 0.27573133
vt 0.6497348 0.2973904
vt 0.63370895 0.2431548
vt 0.61526906 0.3154348
vt 0.53556156 0.33215556
vt 0.6895324 0.2973904
vt 0.70555776 0.24315478
vt 0.59537023 0.3466886
vt 0.5355615 0.39730868
vt 0.7239982 0.3154348
vt 0.7677807 0.27573133
vt 0.5953702 0.38277742
vt 0.5714859 0.45373294
vt 0.743897 0.34668863
vt 0.80370516 0.33215562
vt 0.61526895 0.41403124
vt 0.6337088 0.48630953
vt 0.743897 0.38277745
vt 0.80370516 0.39730874
vt 0.64973474 0.43207565
vt 0.70555776 0.48630953
vt 0.7239982 0.41403127
vt 0.76778066 0.453733
vt 0.6895324 0.43207565
vt 0.70712394 0.3556237
vt 0.6970784 0.33984584
vt 0.70712394 0.3738424
vt 0.6970784 0.3896202
vt 0.6796791 0.3307365
vt 0.6796791 0.39872956
vt 0.65958804 0.39872956
vt 0.6595881 0.3307365
vt 0.6421887 0.3896202
vt 0.6421888 0.33984584
vt 0.63214326 0.37384236
vt 0.63214326 0.35562366
vn -0 1 0
vn 0.49999976 0.8660256 0
vn 0.49999976 0.8660256 0
vn -0 1 0
vn -0.5000002 0.8660253 0
vn -0.5000002 0.8660253 0
vn -0.8660257 0.49999952 0
vn -0.8660257 0.49999952 0
vn 0.49999976 0.8660256 0
vn 0.8660253 0.50000006 0
vn 0.49999976 0.8660256 0
vn 0.8660253 0.50000006 0
vn 1 0 0
vn 1 0 0
vn 0.86602545 -0.49999997 0
vn 0.86602545 -0.49999997 0
vn 0.86602545 -0.49999997 0
vn 0.49999985 -0.8660255 0
vn 0.86602545 -0.49999997 0
vn 0.49999985 -0.8660255 0
vn -0 -1 0
vn -0 -1 0
vn -0.49999976 -0.8660256 0
vn -0.49999976 -0.8660256 0
vn -0.49999976 -0.8660256 0
vn -0.86602515 -0.5000004 0
vn -0.49999976 -0.8660256 0
vn -0.86602515 -0.5000004 0
vn -1 0 0
vn -1 0 0
vn -0.8660257 0.49999952 0
vn -0.8660257 0.49999952 0
vn -0 0 -1
vn -0 0 -1
vn -0 0 -1
vn -0 0 -1
vn -0 0 -1
vn -0 0 -1
vn -0 0 -1
vn -0 0 -1
vn -0 0 -1
vn -0 0 -1
vn -0 0 -1
vn -0 0 -1
vn 0.86602545 -0.49999997 0
vn 0.86602545 -0.49999997 0
vn 1 0 0
vn 1 0 0
vn 0.8660253 0.5000002 0
vn 0.8660253 0.5000002 0
vn 0.49999964 0.8660256 0
vn 0.49999964 0.8660256 0
vn -0.5000002 0.86602527 0
vn -0.8660257 0.49999952 0
vn -0.8660257 0.49999952 0
vn -0.5000002 0.86602527 0
vn -0 1 0
vn -0 1 0
vn 0.49999964 0.8660256 0
vn 0.49999964 0.8660256 0
vn -0.86602527 -0.5000004 0
vn -0.49999976 -0.8660256 0
vn -0.49999976 -0.8660256 0
vn -0.86602527 -0.5000004 0
vn -1 0 0
vn -1 0 0
vn -0.8660257 0.49999952 0
vn -0.8660257 0.49999952 0
vn 0.4999998 -0.8660255 0
vn 0.86602545 -0.49999997 0
vn 0.86602545 -0.49999997 0
vn 0.4999998 -0.8660255 0
vn -0 -1 0
vn -0 -1 0
vn -0.49999976 -0.8660256 0
vn -0.49999976 -0.8660256 0
vn 0.86602527 -0.5000003 0
vn 0.86602527 -0.50000024 0
vn 1 0 0
vn 1 0 0
vn 0.86602527 0.50000036 0
vn 0.86602527 0.5000004 0
vn 0.4999996 0.8660256 0
vn 0.4999995 0.8660257 0
vn -0 0 1
vn -0 0 1
vn -0 0 1
vn -0 0 1
vn -0 0 1
vn -0 0 1
vn -0 0 1
vn -0 0 1
vn -0 0 1
vn -0 0 1
vn -0 0 1
vn -0 0 1
vn -0.50000054 0.86602515 0
vn -0.8660258 0.49999928 0
vn -0.8660258 0.49999925 0
vn -0.50000036 0.86602527 0
vn -0 1 0
vn -0 1 0
vn 0.4999995 0.8660257 0
vn 0.4999996 0.8660256 0
vn -0.8660251 -0.5000007 0
vn -0.49999952 -0.8660257 0
vn -0.49999964 -0.8660256 0
vn -0.866025 -0.50000066 0
vn -1 0 0
vn -1 0 0
vn -0.8660258 0.49999925 0
vn -0.8660258 0.49999928 0
vn 0.49999952 -0.8660257 0
vn 0.86602527 -0.50000024 0
vn 0.86602527 -0.5000003 0
vn 0.49999964 -0.8660256 0
vn -0 -1 0
vn -0 -1 0
vn -0.49999964 -0.8660256 0
vn -0.49999952 -0.8660257 0
vn -0 -1.3670178E-05 -1
vn -0 -1.3670184E-05 -1
vn 1.34672155E-05 0 -1
vn 1.3467221E-05 0 -1
vn -0 -1.5784957E-05 -1
vn 1.5507747E-05 0 -1
vn -0 -1.5784957E-05 -1
vn 1.5507754E-05 0 -1
vn -0 -1.3670182E-05 -1
vn 1.42835015E-05 0 -1
vn -0 -1.3670188E-05 -1
vn 1.4283488E-05 0 -1
vn -1.4283414E-05 0 -1
vn -0 1.3670318E-05 -1
vn -1.4283403E-05 0 -1
vn -0 1.3670326E-05 -1
vn -1.550774E-05 0 -1
vn -0 1.5785135E-05 -1
vn -1.5507743E-05 0 -1
vn -0 1.5785134E-05 -1
vn -1.34672855E-05 0 -1
vn -0 1.3670311E-05 -1
vn -1.3467293E-05 0 -1
vn -0 1.3670321E-05 -1
vn -0.24059516 -0.41672456 0.87661546
vn -0 -0.28636187 0.95812154
vn -0 -0.48119092 0.87661576
vn -0.14318165 -0.24799688 0.9581214
vn -0.41672513 -0.24059787 0.8766144
vn 0.14318107 -0.24799691 0.9581214
vn 0.24059518 -0.41672456 0.8766154
vn -0.24799787 -0.14318138 0.95812124
vn -0.4811964 0 0.87661284
vn 0.24799843 -0.14318125 0.958121
vn 0.41672513 -0.24059777 0.8766145
vn -0.28636488 0 0.95812064
vn -0.4167311 0.24059908 0.8766112
vn 0.28636584 0 0.95812035
vn 0.481197 0 0.8766125
vn -0.24800095 0.14318429 0.9581199
vn -0.24060096 0.41673294 0.8766098
vn 0.24800049 0.14318444 0.95812
vn 0.41673195 0.24059929 0.8766108
vn -0.1431837 0.24800283 0.95811945
vn -0 0.4812029 0.87660915
vn 0.14318292 0.24800298 0.9581196
vn 0.24060085 0.41673318 0.8766098
vn -0 0.2863693 0.9581193
vn -0 0 1
vn -0 0 1
vn -0 0 1
vn -0 0 1
vn -0 0 1
vn -0 0 1
vn -0 0 1
vn -0 0 1
vn -0 0 1
vn -0 0 1
vn -0 0 1
vn -0 0 1
g Cylinder_0
f 3/3/3 2/2/2 1/1/1
f 4/4/4 3/3/3 1/1/1
f 4/4/4 1/1/1 5/5/5
f 6/6/6 4/4/4 5/5/5
f 6/6/6 5/5/5 7/7/7
f 8/8/8 6/6/6 7/7/7
f 11/11/11 10/10/10 9/9/9
f 10/10/10 12/12/12 9/9/9
f 10/10/10 13/13/13 12/12/12
f 13/13/13 14/14/14 12/12/12
f 13/13/13 15/15/15 14/14/14
f 15/15/15 16/16/16 14/14/14
f 19/19/19 18/18/18 17/17/17
f 18/18/18 20/20/20 17/17/17
f 18/18/18 21/21/21 20/20/20
f 21/21/21 22/22/22 20/20/20
f 21/21/21 23/23/23 22/22/22
f 23/23/23 24/24/24 22/22/22
f 27/27/27 26/26/26 25/25/25
f 26/26/26 28/28/28 25/25/25
f 26/26/26 29/29/29 28/28/28
f 29/29/29 30/30/30 28/28/28
f 29/29/29 31/31/31 30/30/30
f 31/31/31 32/32/32 30/30/30
f 35/35/35 34/34/34 33/33/33
f 33/33/33 36/36/36 35/35/35
f 36/36/36 37/37/37 35/35/35
f 36/36/36 38/38/38 37/37/37
f 38/38/38 39/39/39 37/37/37
f 38/38/38 40/40/40 39/39/39
f 40/40/40 41/41/41 39/39/39
f 40/40/40 42/42/42 41/41/41
f 42/42/42 43/43/43 41/41/41
f 42/42/42 44/44/44 43/43/43
f 47/47/47 46/46/46 45/45/45
f 48/48/48 47/47/47 45/45/45
f 49/49/49 47/47/47 48/48/48
f 50/50/50 49/49/49 48/48/48
f 51/51/51 49/49/49 50/50/50
f 52/52/52 51/51/51 50/50/50
f 55/55/55 54/54/54 53/53/53
f 54/54/54 56/56/56 53/53/53
f 53/53/53 56/56/56 57/57/57
f 56/56/56 58/58/58 57/57/57
f 57/57/57 58/58/58 59/59/59
f 58/58/58 60/60/60 59/59/59
f 63/63/63 62/62/62 61/61/61
f 62/62/62 64/64/64 61/61/61
f 61/61/61 64/64/64 65/65/65
f 64/64/64 66/66/66 65/65/65
f 65/65/65 66/66/66 67/67/67
f 66/66/66 68/68/68 67/67/67
f 71/71/71 70/70/70 69/69/69
f 70/70/70 72/72/72 69/69/69
f 69/69/69 72/72/72 73/73/73
f 72/72/72 74/74/74 73/73/73
f 73/73/73 74/74/74 75/75/75
f 74/74/74 76/76/76 75/75/75
f 79/79/79 78/78/78 77/77/77
f 80/80/80 79/79/79 77/77/77
f 81/81/81 79/79/79 80/80/80
f 82/82/82 81/81/81 80/80/80
f 83/83/83 81/81/81 82/82/82
f 84/84/84 83/83/83 82/82/82
f 87/87/87 86/86/86 85/85/85
f 85/85/85 88/88/88 87/87/87
f 88/88/88 89/89/89 87/87/87
f 88/88/88 90/90/90 89/89/89
f 88/88/88 91/91/91 90/90/90
f 91/91/91 92/92/92 90/90/90
f 91/91/91 93/93/93 92/92/92
f 93/93/93 94/94/94 92/92/92
f 93/93/93 95/95/95 94/94/94
f 95/95/95 96/96/96 94/94/94
f 99/99/99 98/98/98 97/97/97
f 98/98/98 100/100/100 97/97/97
f 97/97/97 100/100/100 101/101/101
f 100/100/100 102/102/102 101/101/101
f 101/101/101 102/102/102 103/103/103
f 102/102/102 104/104/104 103/103/103
f 107/107/107 106/106/106 105/105/105
f 106/106/106 108/108/108 105/105/105
f 105/105/105 108/108/108 109/109/109
f 108/108/108 110/110/110 109/109/109
f 109/109/109 110/110/110 111/111/111
f 110/110/110 112/112/112 111/111/111
f 115/115/115 114/114/114 113/113/113
f 114/114/114 116/116/116 113/113/113
f 113/113/113 116/116/116 117/117/117
f 116/116/116 118/118/118 117/117/117
f 117/117/117 118/118/118 119/119/119
f 118/118/118 120/120/120 119/119/119
f 123/123/123 122/122/122 121/121/121
f 124/124/124 123/123/123 121/121/121
f 121/121/121 122/122/122 125/125/125
f 126/126/126 123/123/123 124/124/124
f 122/122/122 127/127/127 125/125/125
f 128/128/128 126/126/126 124/124/124
f 125/125/125 127/127/127 129/129/129
f 130/130/130 126/126/126 128/128/128
f 127/127/127 131/131/131 129/129/129
f 132/132/132 130/130/130 128/128/128
f 129/129/129 131/131/131 133/133/133
f 134/134/134 130/130/130 132/132/132
f 131/131/131 135/135/135 133/133/133
f 136/136/136 134/134/134 132/132/132
f 133/133/133 135/135/135 137/137/137
f 138/138/138 134/134/134 136/136/136
f 135/135/135 139/139/139 137/137/137
f 140/140/140 138/138/138 136/136/136
f 137/137/137 139/139/139 141/141/141
f 142/142/142 138/138/138 140/140/140
f 139/139/139 143/143/143 141/141/141
f 144/144/144 142/142/142 140/140/140
f 141/141/141 143/143/143 144/144/144
f 143/143/143 142/142/142 144/144/144
f 147/147/147 146/146/146 145/145/145
f 146/146/146 148/148/148 145/145/145
f 145/145/145 148/148/148 149/149/149
f 150/150/150 146/146/146 147/147/147
f 151/151/151 150/150/150 147/147/147
f 148/148/148 152/152/152 149/149/149
f 149/149/149 152/152/152 153/153/153
f 154/154/154 150/150/150 151/151/151
f 155/155/155 154/154/154 151/151/151
f 152/152/152 156/156/156 153/153/153
f 153/153/153 156/156/156 157/157/157
f 158/158/158 154/154/154 155/155/155
f 159/159/159 158/158/158 155/155/155
f 156/156/156 160/160/160 157/157/157
f 157/157/157 160/160/160 161/161/161
f 162/162/162 158/158/158 159/159/159
f 163/163/163 162/162/162 159/159/159
f 160/160/160 164/164/164 161/161/161
f 161/161/161 164/164/164 165/165/165
f 166/166/166 162/162/162 163/163/163
f 167/167/167 166/166/166 163/163/163
f 165/165/165 168/168/168 167/167/167
f 164/164/164 168/168/168 165/165/165
f 168/168/168 166/166/166 167/167/167
f 158/158/158 169/169/169 154/154/154
f 169/169/169 170/170/170 154/154/154
f 171/171/171 169/169/169 158/158/158
f 162/162/162 171/171/171 158/158/158
f 154/154/154 170/170/170 150/150/150
f 172/172/172 171/171/171 162/162/162
f 166/166/166 172/172/172 162/162/162
f 170/170/170 173/173/173 150/150/150
f 174/174/174 172/172/172 166/166/166
f 168/168/168 174/174/174 166/166/166
f 150/150/150 173/173/173 146/146/146
f 175/175/175 174/174/174 168/168/168
f 164/164/164 175/175/175 168/168/168
f 173/173/173 176/176/176 146/146/146
f 177/177/177 175/175/175 164/164/164
f 146/146/146 176/176/176 148/148/148
f 160/160/160 177/177/177 164/164/164
f 176/176/176 178/178/178 148/148/148
f 179/179/179 177/177/177 160/160/160
f 148/148/148 178/178/178 152/152/152
f 156/156/156 179/179/179 160/160/160
f 178/178/178 180/180/180 152/152/152
f 180/180/180 179/179/179 156/156/156
f 152/152/152 180/180/180 156/156/156
