g Cylinder
v 0.10049226 -0.045401335 0
v -0.07979772 -0.039288342 -0.074014425
v -0.04597659 -0.044755816 0.07963383
v -9.43509E-09 0.1990543 0.121353835
v -0.105095476 0.1990543 0.060676903
v -0.03403851 0.45847926 0.08146962
v -0.04597659 -0.044755816 0.07963383
v -0.07979772 -0.039288342 -0.074014425
v -0.053909373 0.45723212 -0.070270784
v 1.173995E-09 0.1990543 -0.121353805
v -0.03403851 0.45847926 0.08146962
v -9.43509E-09 0.1990543 0.121353835
v 0.10049226 -0.045401335 0
v -0.04597659 -0.044755816 0.07963383
v 0.105095476 0.1990543 0.060676932
v -0.03403851 0.45847926 0.08146962
v 0.087712936 0.45761448 -0.011686404
v 0.105095476 0.1990543 -0.060676903
v 0.10049226 -0.045401335 0
v 0.10049226 -0.045401335 0
v 1.173995E-09 0.1990543 -0.121353805
v -0.07979772 -0.039288342 -0.074014425
v 0.105095476 0.1990543 -0.060676903
v 0.087712936 0.45761448 -0.011686404
v -0.053909373 0.45723212 -0.070270784
v -0.26590586 0.6819907 -0.14391427
v -0.3053908 0.42040348 0.16950339
v -0.2994897 0.42040345 -0.17972437
v -0.24710773 0.6972222 0.15505275
v -0.005136316 0.42441222 0.3500489
v -1.798984E-08 0.63080704 0.33825547
v -1.798984E-08 0.63080704 0.33825547
v 0.29926622 0.41797626 0.17921752
v -0.005136316 0.42441222 0.3500489
v 0.26038215 0.691249 0.14080213
v 0.3057194 0.4244122 -0.17057627
v 0.29293784 0.63080704 -0.16912773
v 0.29293784 0.63080704 -0.16912773
v 0.0055738343 0.41797626 -0.34878087
v 0.3057194 0.4244122 -0.17057627
v 1.1581385E-08 0.630807 -0.33825544
v -0.26590586 0.6819907 -0.14391427
v -0.2994897 0.42040345 -0.17972437
v 0.0055738343 0.41797626 -0.34878087
v 0.0055738343 0.41797626 -0.34878087
v 0.087712936 0.45761448 -0.011686404
v 0.3057194 0.4244122 -0.17057627
v 0.29926622 0.41797626 0.17921752
v -0.053909373 0.45723212 -0.070270784
v -0.2994897 0.42040345 -0.17972437
v -0.03403851 0.45847926 0.08146962
v -0.005136316 0.42441222 0.3500489
v -0.3053908 0.42040348 0.16950339
v 1.1581385E-08 0.630807 -0.33825544
v 0.29293784 0.63080704 -0.16912773
v 0.0872399 0.74567646 -0.15110397
v -0.26590586 0.6819907 -0.14391427
v 0.26038215 0.691249 0.14080213
v 0.01076469 0.75556964 0.13776699
v -0.24710773 0.6972222 0.15505275
v -1.798984E-08 0.63080704 0.33825547
vt 0.2524414 0.40942383
vt 0.14099121 0.5058594
vt 0.2524414 0.54003906
vt 0.011474609 0.82958984
vt 0.050689697 0.8330078
vt 0.041412354 0.6621094
vt 0.033447266 0.9902344
vt 0.12854004 0.9902344
vt 0.13500977 0.6660156
vt 0.16052246 0.83447266
vt 0.041412354 0.6621094
vt 0.49560547 0.23156738
vt 0.37841797 0.41015625
vt 0.43920898 0.41333008
vt 0.4494629 0.2286377
vt 0.49560547 0.025177002
vt 0.42529297 0.019683838
vt 0.36083984 0.21435547
vt 0.37841797 0.41015625
vt 0.11853027 0.6401367
vt 0.047332764 0.5214844
vt 0.02772522 0.6401367
vt 0.10394287 0.51953125
vt 0.103271484 0.39135742
vt 0.031951904 0.39379883
vt 0.5776367 0.49926758
vt 0.7709961 0.74365234
vt 0.7709961 0.47070312
vt 0.56591797 0.73339844
vt 0.76171875 0.89208984
vt 0.609375 0.8828125
vt 0.81640625 0.46289062
vt 0.98583984 0.58984375
vt 0.9682617 0.45214844
vt 0.7832031 0.62109375
vt 0.98339844 0.86328125
vt 0.8305664 0.86328125
vt 0.39160156 0.5185547
vt 0.5527344 0.77978516
vt 0.54345703 0.5073242
vt 0.39575195 0.78271484
vt 0.359375 0.89941406
vt 0.5527344 0.9321289
vt 0.5527344 0.77978516
vt 0.1821289 0.008148193
vt 0.23071289 0.20373535
vt 0.34887695 0.10882568
vt 0.34887695 0.31274414
vt 0.15222168 0.17114258
vt 0.01626587 0.10998535
vt 0.16467285 0.25927734
vt 0.18334961 0.41552734
vt 0.016555786 0.3137207
vt 0.5805664 0.103393555
vt 0.56591797 0.3618164
vt 0.6777344 0.2529297
vt 0.81103516 0.012306213
vt 0.77441406 0.47070312
vt 0.8823242 0.31591797
vt 0.9848633 0.1430664
vt 0.9848633 0.36547852
vn -0.021194458 -0.9995117 -0.030899048
vn -0.021194458 -0.9995117 -0.030899048
vn -0.021194458 -0.9995117 -0.030899048
vn 0.06072998 0.0029525757 0.9980469
vn -0.90527344 0.045562744 0.42236328
vn -0.4987793 0.06738281 0.8642578
vn -0.39013672 -0.2956543 0.8720703
vn -0.9941406 -0.09039307 -0.059143066
vn -0.9604492 0.12011719 -0.25097656
vn -0.5888672 0.0368042 -0.8076172
vn -0.98339844 0.13024902 -0.12756348
vn 0.06072998 0.0029525757 0.9980469
vn 0.47387695 -0.22753906 0.85058594
vn -0.39013672 -0.2956543 0.8720703
vn 0.8432617 0.011383057 0.53759766
vn 0.546875 0.22875977 0.8051758
vn 0.7138672 0.20739746 0.66845703
vn 0.9995117 0.025039673 0
vn 1 -0.018829346 0
vn 0.40673828 -0.26660156 -0.87402344
vn 0.42822266 -0.027313232 -0.9033203
vn 0.40673828 -0.26660156 -0.87402344
vn 0.42822266 -0.025177002 -0.9033203
vn 0.42333984 0.22814941 -0.8769531
vn 0.42333984 0.22814941 -0.8769531
vn -0.6958008 0.6088867 -0.38085938
vn -0.87158203 0.16137695 0.46264648
vn -0.8574219 0.15991211 -0.48950195
vn -0.6699219 0.6323242 0.38891602
vn -0.54052734 0.11621094 0.8334961
vn 0.005558014 0.44555664 0.89501953
vn 0.005558014 0.44555664 0.89501953
vn 0.85009766 0.13269043 0.5102539
vn 0.5336914 0.12512207 0.8364258
vn 0.7006836 0.60546875 0.3774414
vn 0.9926758 0.11071777 0.049621582
vn 0.78271484 0.4440918 -0.43554688
vn 0.78271484 0.4440918 -0.43554688
vn 0.50439453 0.046722412 -0.8623047
vn 0.50439453 0.046722412 -0.8623047
vn -0.020965576 0.45166016 -0.89208984
vn -0.6958008 0.6088867 -0.38085938
vn -0.8574219 0.15991211 -0.48950195
vn -0.5258789 0.11340332 -0.84277344
vn -2.348423E-05 -0.9902344 0.14050293
vn -0.09472656 -0.99560547 0.00907135
vn -0.104003906 -0.9926758 0.06311035
vn -0.119384766 -0.9897461 -0.07574463
vn 0.060638428 -0.9946289 0.083618164
vn 0.114990234 -0.99121094 0.068359375
vn 0.03768921 -0.99609375 -0.081970215
vn -0.0067863464 -0.9921875 -0.12347412
vn 0.12371826 -0.99072266 -0.056396484
vn -0.020965576 0.45166016 -0.89208984
vn 0.78271484 0.4440918 -0.43554688
vn 0.15734863 0.93847656 -0.30737305
vn -0.6958008 0.6088867 -0.38085938
vn 0.7006836 0.60546875 0.3774414
vn 0.008712769 0.96875 0.24768066
vn -0.6699219 0.6323242 0.38891602
vn 0.005558014 0.44555664 0.89501953
g Cylinder_0
f 3/3/3 2/2/2 1/1/1
f 6/6/6 5/5/5 4/4/4
f 5/5/5 7/7/7 4/4/4
f 8/8/8 7/7/7 5/5/5
f 8/8/8 5/5/5 9/9/9
f 9/9/9 10/10/10 8/8/8
f 5/5/5 11/11/11 9/9/9
f 14/14/14 13/13/13 12/12/12
f 13/13/13 15/15/15 12/12/12
f 12/12/12 15/15/15 16/16/16
f 15/15/15 17/17/17 16/16/16
f 17/17/17 15/15/15 18/18/18
f 15/15/15 19/19/19 18/18/18
f 22/22/22 21/21/21 20/20/20
f 21/21/21 23/23/23 20/20/20
f 23/23/23 21/21/21 24/24/24
f 21/21/21 25/25/25 24/24/24
f 28/28/28 27/27/27 26/26/26
f 27/27/27 29/29/29 26/26/26
f 27/27/27 30/30/30 29/29/29
f 30/30/30 31/31/31 29/29/29
f 34/34/34 33/33/33 32/32/32
f 33/33/33 35/35/35 32/32/32
f 33/33/33 36/36/36 35/35/35
f 36/36/36 37/37/37 35/35/35
f 40/40/40 39/39/39 38/38/38
f 39/39/39 41/41/41 38/38/38
f 43/43/43 42/42/42 41/41/41
f 44/44/44 43/43/43 41/41/41
f 47/47/47 46/46/46 45/45/45
f 47/47/47 48/48/48 46/46/46
f 46/46/46 49/49/49 45/45/45
f 50/50/50 45/45/45 49/49/49
f 51/51/51 46/46/46 48/48/48
f 49/49/49 51/51/51 50/50/50
f 52/52/52 51/51/51 48/48/48
f 51/51/51 53/53/53 50/50/50
f 52/52/52 53/53/53 51/51/51
f 56/56/56 55/55/55 54/54/54
f 57/57/57 56/56/56 54/54/54
f 56/56/56 58/58/58 55/55/55
f 57/57/57 59/59/59 56/56/56
f 59/59/59 58/58/58 56/56/56
f 59/59/59 57/57/57 60/60/60
f 59/59/59 61/61/61 58/58/58
f 59/59/59 60/60/60 61/61/61
