g Cylinder
v -9.7465644E-09 0.52188253 -0.050850864
v 0.3749999 0.64951897 0.18355304
v -9.778887E-09 0.7499998 0.18355304
v 0.2609413 0.45196357 -0.050850864
v 0.6495191 0.37499994 0.18355304
v -0.26094168 0.45196345 -0.050850864
v -0.37500048 0.6495187 0.18355304
v 0.4519637 0.2609413 -0.050850864
v 0.75 -5.5393997E-08 0.18355304
v -0.4519638 0.26094106 -0.050850864
v -0.64951926 0.3749996 0.18355304
v 0.5218827 -8.7346294E-08 -0.050850864
v 0.6495191 -0.37500003 0.18355304
v -0.5218827 -3.0716376E-07 -0.050850864
v -0.74999994 -3.7129468E-07 0.18355304
v 0.4519637 -0.26094142 -0.050850864
v 0.37500006 -0.64951915 0.18355304
v -0.45196363 -0.2609416 -0.050850864
v -0.6495189 -0.37500027 0.18355304
v 0.26094142 -0.45196375 -0.050850864
v 1.0346797E-07 -0.75000006 0.18355304
v -0.26094127 -0.45196387 -0.050850864
v -0.37499985 -0.6495192 0.18355304
v 6.9055545E-08 -0.52188283 -0.050850864
v -0.1679116 -2.076514E-07 -0.17405471
v -0.1454157 -0.08395599 -0.17405471
v -0.14541578 0.08395559 -0.17405471
v -0.0839559 0.1454155 -0.17405471
v -0.083955765 -0.14541589 -0.17405471
v -1.5561415E-08 0.16791143 -0.17405471
v 9.7925295E-09 -0.16791175 -0.17405471
v 0.08395577 0.14541556 -0.17405471
v 0.083955795 -0.14541583 -0.17405471
v 0.1454157 0.08395566 -0.17405471
v 0.1454157 -0.08395592 -0.17405471
v 0.16791156 -1.3692687E-07 -0.17405471
v -0.37500048 0.6495187 0.18355304
v -0.3467895 0.600656 0.18355304
v -0.6006565 0.34678873 0.18355304
v -0.64951926 0.3749996 0.18355304
v -9.778887E-09 0.7499998 0.18355304
v -0.6935781 -3.5543275E-07 0.18355304
v -1.0339388E-08 0.693578 0.18355304
v -0.74999994 -3.7129468E-07 0.18355304
v 0.3749999 0.64951897 0.18355304
v -0.60065615 -0.34678936 0.18355304
v 0.346789 0.6006562 0.18355304
v -0.6495189 -0.37500027 0.18355304
v 0.6495191 0.37499994 0.18355304
v -0.34678897 -0.60065645 0.18355304
v 0.60065633 0.34678903 0.18355304
v -0.37499985 -0.6495192 0.18355304
v 0.75 -5.5393997E-08 0.18355304
v 9.4388014E-08 -0.6935782 0.18355304
v 0.6935782 -6.329698E-08 0.18355304
v 1.0346797E-07 -0.75000006 0.18355304
v 0.6495191 -0.37500003 0.18355304
v 0.34678915 -0.6006564 0.18355304
v 0.60065633 -0.34678912 0.18355304
v 0.37500006 -0.64951915 0.18355304
v -0.34678897 -0.60065645 0.18355304
v 3.8162455E-08 -0.3450692 -0.051202636
v 9.4388014E-08 -0.6935782 0.18355304
v -0.17253453 -0.2988388 -0.051202636
v -0.60065615 -0.34678936 0.18355304
v 0.17253458 -0.29883873 -0.051202636
v 0.34678915 -0.6006564 0.18355304
v -0.29883862 -0.1725348 -0.051202636
v -0.6935781 -3.5543275E-07 0.18355304
v 0.29883862 -0.17253467 -0.051202636
v 0.60065633 -0.34678912 0.18355304
v -0.34506914 -2.5835334E-07 -0.051202636
v -0.6006565 0.34678873 0.18355304
v 0.34506908 -1.13009904E-07 -0.051202636
v 0.6935782 -6.329698E-08 0.18355304
v -0.29883876 0.1725343 -0.051202636
v -0.3467895 0.600656 0.18355304
v 0.29883862 0.17253445 -0.051202636
v 0.60065633 0.34678903 0.18355304
v -0.17253478 0.29883844 -0.051202636
v -1.0339388E-08 0.693578 0.18355304
v 0.17253451 0.2988385 -0.051202636
v 0.346789 0.6006562 0.18355304
v -1.3941531E-08 0.34506896 -0.051202636
v 0.09374078 -1.4755975E-07 -0.1479879
v 0.0811819 0.046870254 -0.1479879
v 0.0811819 -0.04687056 -0.1479879
v 0.046870377 0.08118179 -0.1479879
v 0.0468704 -0.08118207 -0.1479879
v -1.03925455E-08 -0.093740955 -0.1479879
v -2.4547013E-08 0.09374065 -0.1479879
v -0.046870407 -0.08118209 -0.1479879
v -0.04687048 0.08118174 -0.1479879
v -0.081181936 -0.04687058 -0.1479879
v -0.08118198 0.04687022 -0.1479879
v -0.09374084 -1.8704347E-07 -0.1479879
vt 0.10467529 0.40673828
vt 0.06781006 0.1340332
vt 0 0.3659668
vt 0.15185547 0.24536133
vt 0.18530273 0
vt 0.10467529 0.5932617
vt 0 0.63378906
vt 0.23364258 0.15209961
vt 0.32104492 5.9604645E-08
vt 0.15185547 0.7548828
vt 0.06781006 0.86621094
vt 0.328125 0.15209961
vt 0.43847656 0.1340332
vt 0.23364258 0.84814453
vt 0.18530273 1
vt 0.40966797 0.24536133
vt 0.50634766 0.3659668
vt 0.328125 0.84814453
vt 0.32104492 1
vt 0.45703125 0.40673828
vt 0.50634766 0.63378906
vt 0.40966797 0.7548828
vt 0.43847656 0.86621094
vt 0.45703125 0.5932617
vt 0.28027344 0.6118164
vt 0.31054688 0.6118164
vt 0.25390625 0.58203125
vt 0.23864746 0.52978516
vt 0.33691406 0.58203125
vt 0.23864746 0.4699707
vt 0.35205078 0.52978516
vt 0.25390625 0.41796875
vt 0.35205078 0.4699707
vt 0.28027344 0.38793945
vt 0.33691406 0.41796875
vt 0.31054688 0.38793945
vt 1 0.63378906
vt 0.9814453 0.62402344
vt 0.92041016 0.8383789
vt 0.93408203 0.86621094
vt 1 0.3659668
vt 0.8144531 0.96240234
vt 0.9814453 0.3762207
vt 0.81933594 1
vt 0.93408203 0.1340332
vt 0.69189453 0.96240234
vt 0.92041016 0.16149902
vt 0.6870117 1
vt 0.81933594 0
vt 0.5859375 0.8383789
vt 0.8144531 0.037628174
vt 0.5722656 0.86621094
vt 0.6870117 5.9604645E-08
vt 0.52490234 0.62402344
vt 0.69189453 0.037628174
vt 0.50634766 0.63378906
vt 0.5722656 0.1340332
vt 0.52490234 0.3762207
vt 0.5859375 0.16149902
vt 0.50634766 0.3659668
vt 0.5859375 0.8383789
vt 0.6064453 0.56152344
vt 0.52490234 0.62402344
vt 0.63671875 0.66845703
vt 0.69189453 0.96240234
vt 0.6064453 0.43847656
vt 0.52490234 0.3762207
vt 0.6894531 0.72998047
vt 0.8144531 0.96240234
vt 0.63671875 0.33154297
vt 0.5859375 0.16149902
vt 0.7504883 0.72998047
vt 0.92041016 0.8383789
vt 0.6894531 0.27001953
vt 0.69189453 0.037628174
vt 0.80322266 0.66845703
vt 0.9814453 0.62402344
vt 0.7504883 0.27001953
vt 0.8144531 0.037628174
vt 0.8334961 0.56152344
vt 0.9814453 0.3762207
vt 0.80322266 0.33154297
vt 0.92041016 0.16149902
vt 0.8334961 0.43847656
vt 0.6982422 0.4375
vt 0.71484375 0.4375
vt 0.68359375 0.4543457
vt 0.7290039 0.4543457
vt 0.67529297 0.4831543
vt 0.67529297 0.51660156
vt 0.7373047 0.4831543
vt 0.68359375 0.54589844
vt 0.7373047 0.51660156
vt 0.6982422 0.5625
vt 0.7290039 0.54589844
vt 0.71484375 0.5625
vn -0 0.5629883 -0.8261719
vn 0.35839844 0.62060547 -0.6972656
vn -0 0.7167969 -0.6972656
vn 0.28149414 0.48779297 -0.8261719
vn 0.62060547 0.35839844 -0.6972656
vn -0.28149414 0.48779297 -0.8261719
vn -0.35839844 0.62060547 -0.6972656
vn 0.48779297 0.28149414 -0.8261719
vn 0.7167969 0 -0.6972656
vn -0.48779297 0.28149414 -0.8261719
vn -0.62060547 0.35839844 -0.6972656
vn 0.5629883 0 -0.8261719
vn 0.62060547 -0.35839844 -0.6972656
vn -0.5629883 0 -0.8261719
vn -0.7167969 0 -0.6972656
vn 0.48779297 -0.28149414 -0.8261719
vn 0.35839844 -0.62060547 -0.6972656
vn -0.48779297 -0.28149414 -0.8261719
vn -0.62060547 -0.35839844 -0.6972656
vn 0.28149414 -0.48779297 -0.8261719
vn -0 -0.7167969 -0.6972656
vn -0.28149414 -0.48779297 -0.8261719
vn -0.35839844 -0.62060547 -0.6972656
vn -0 -0.5629883 -0.8261719
vn -0.19348145 0 -0.98095703
vn -0.16748047 -0.09674072 -0.98095703
vn -0.16748047 0.09674072 -0.98095703
vn -0.09674072 0.16748047 -0.98095703
vn -0.09674072 -0.16748047 -0.98095703
vn -0 0.19348145 -0.98095703
vn -0 -0.19348145 -0.98095703
vn 0.09674072 0.16748047 -0.98095703
vn 0.09674072 -0.16748047 -0.98095703
vn 0.16748047 0.09674072 -0.98095703
vn 0.16748047 -0.09674072 -0.98095703
vn 0.19348145 0 -0.98095703
vn -0 0 1
vn -0 0 1
vn -0 0 1
vn -0 0 1
vn -0 0 1
vn -0 0 1
vn -0 0 1
vn -0 0 1
vn -0 0 1
vn -0 0 1
vn -0 0 1
vn -0 0 1
vn -0 0 1
vn -0 0 1
vn -0 0 1
vn -0 0 1
vn -0 0 1
vn -0 0 1
vn -0 0 1
vn -0 0 1
vn -0 0 1
vn -0 0 1
vn -0 0 1
vn -0 0 1
vn 0.27929688 0.48388672 0.82958984
vn -0 0.47631836 0.87939453
vn -0 0.55859375 0.82958984
vn 0.23815918 0.41259766 0.87939453
vn 0.48388672 0.27929688 0.82958984
vn -0.23815918 0.41259766 0.87939453
vn -0.27929688 0.48388672 0.82958984
vn 0.41259766 0.23815918 0.87939453
vn 0.55859375 0 0.82958984
vn -0.41259766 0.23815918 0.87939453
vn -0.48388672 0.27929688 0.82958984
vn 0.47631836 0 0.87939453
vn 0.48388672 -0.27929688 0.82958984
vn -0.47631836 0 0.87939453
vn -0.55859375 0 0.82958984
vn 0.41259766 -0.23815918 0.87939453
vn 0.27929688 -0.48388672 0.82958984
vn -0.41259766 -0.23815918 0.87939453
vn -0.48388672 -0.27929688 0.82958984
vn 0.23815918 -0.41259766 0.87939453
vn -0 -0.55859375 0.82958984
vn -0.23815918 -0.41259766 0.87939453
vn -0.27929688 -0.48388672 0.82958984
vn -0 -0.47631836 0.87939453
vn -0.21179199 0 0.97753906
vn -0.18347168 -0.105895996 0.97753906
vn -0.18347168 0.105895996 0.97753906
vn -0.105895996 -0.18347168 0.97753906
vn -0.105895996 0.18347168 0.97753906
vn -0 0.21179199 0.97753906
vn -0 -0.21179199 0.97753906
vn 0.105895996 0.18347168 0.97753906
vn 0.105895996 -0.18347168 0.97753906
vn 0.18347168 0.105895996 0.97753906
vn 0.18347168 -0.105895996 0.97753906
vn 0.21179199 0 0.97753906
g Cylinder_0
f 3/3/3 2/2/2 1/1/1
f 2/2/2 4/4/4 1/1/1
f 2/2/2 5/5/5 4/4/4
f 3/3/3 1/1/1 6/6/6
f 7/7/7 3/3/3 6/6/6
f 5/5/5 8/8/8 4/4/4
f 5/5/5 9/9/9 8/8/8
f 7/7/7 6/6/6 10/10/10
f 11/11/11 7/7/7 10/10/10
f 9/9/9 12/12/12 8/8/8
f 9/9/9 13/13/13 12/12/12
f 11/11/11 10/10/10 14/14/14
f 15/15/15 11/11/11 14/14/14
f 13/13/13 16/16/16 12/12/12
f 13/13/13 17/17/17 16/16/16
f 15/15/15 14/14/14 18/18/18
f 19/19/19 15/15/15 18/18/18
f 17/17/17 20/20/20 16/16/16
f 17/17/17 21/21/21 20/20/20
f 19/19/19 18/18/18 22/22/22
f 23/23/23 19/19/19 22/22/22
f 21/21/21 23/23/23 24/24/24
f 21/21/21 24/24/24 20/20/20
f 23/23/23 22/22/22 24/24/24
f 14/14/14 10/10/10 25/25/25
f 18/18/18 14/14/14 26/26/26
f 14/14/14 25/25/25 26/26/26
f 10/10/10 27/27/27 25/25/25
f 26/26/26 25/25/25 27/27/27
f 10/10/10 6/6/6 27/27/27
f 6/6/6 28/28/28 27/27/27
f 26/26/26 27/27/27 28/28/28
f 6/6/6 1/1/1 28/28/28
f 18/18/18 26/26/26 29/29/29
f 22/22/22 18/18/18 29/29/29
f 29/29/29 26/26/26 28/28/28
f 1/1/1 30/30/30 28/28/28
f 29/29/29 28/28/28 30/30/30
f 1/1/1 4/4/4 30/30/30
f 22/22/22 29/29/29 31/31/31
f 24/24/24 22/22/22 31/31/31
f 31/31/31 29/29/29 30/30/30
f 4/4/4 32/32/32 30/30/30
f 31/31/31 30/30/30 32/32/32
f 4/4/4 8/8/8 32/32/32
f 24/24/24 31/31/31 33/33/33
f 33/33/33 31/31/31 32/32/32
f 20/20/20 24/24/24 33/33/33
f 8/8/8 34/34/34 32/32/32
f 33/33/33 32/32/32 34/34/34
f 8/8/8 12/12/12 34/34/34
f 20/20/20 33/33/33 35/35/35
f 35/35/35 33/33/33 34/34/34
f 16/16/16 20/20/20 35/35/35
f 12/12/12 16/16/16 36/36/36
f 12/12/12 36/36/36 34/34/34
f 34/34/34 36/36/36 35/35/35
f 16/16/16 35/35/35 36/36/36
f 39/39/39 38/38/38 37/37/37
f 40/40/40 39/39/39 37/37/37
f 37/37/37 38/38/38 41/41/41
f 42/42/42 39/39/39 40/40/40
f 38/38/38 43/43/43 41/41/41
f 44/44/44 42/42/42 40/40/40
f 41/41/41 43/43/43 45/45/45
f 46/46/46 42/42/42 44/44/44
f 43/43/43 47/47/47 45/45/45
f 48/48/48 46/46/46 44/44/44
f 45/45/45 47/47/47 49/49/49
f 50/50/50 46/46/46 48/48/48
f 47/47/47 51/51/51 49/49/49
f 52/52/52 50/50/50 48/48/48
f 49/49/49 51/51/51 53/53/53
f 54/54/54 50/50/50 52/52/52
f 51/51/51 55/55/55 53/53/53
f 56/56/56 54/54/54 52/52/52
f 53/53/53 55/55/55 57/57/57
f 58/58/58 54/54/54 56/56/56
f 55/55/55 59/59/59 57/57/57
f 60/60/60 58/58/58 56/56/56
f 57/57/57 59/59/59 60/60/60
f 59/59/59 58/58/58 60/60/60
f 63/63/63 62/62/62 61/61/61
f 62/62/62 64/64/64 61/61/61
f 61/61/61 64/64/64 65/65/65
f 66/66/66 62/62/62 63/63/63
f 67/67/67 66/66/66 63/63/63
f 64/64/64 68/68/68 65/65/65
f 65/65/65 68/68/68 69/69/69
f 70/70/70 66/66/66 67/67/67
f 71/71/71 70/70/70 67/67/67
f 68/68/68 72/72/72 69/69/69
f 69/69/69 72/72/72 73/73/73
f 74/74/74 70/70/70 71/71/71
f 75/75/75 74/74/74 71/71/71
f 72/72/72 76/76/76 73/73/73
f 73/73/73 76/76/76 77/77/77
f 78/78/78 74/74/74 75/75/75
f 79/79/79 78/78/78 75/75/75
f 76/76/76 80/80/80 77/77/77
f 77/77/77 80/80/80 81/81/81
f 82/82/82 78/78/78 79/79/79
f 83/83/83 82/82/82 79/79/79
f 81/81/81 84/84/84 83/83/83
f 80/80/80 84/84/84 81/81/81
f 84/84/84 82/82/82 83/83/83
f 74/74/74 85/85/85 70/70/70
f 78/78/78 86/86/86 74/74/74
f 86/86/86 85/85/85 74/74/74
f 85/85/85 87/87/87 70/70/70
f 87/87/87 85/85/85 86/86/86
f 70/70/70 87/87/87 66/66/66
f 88/88/88 86/86/86 78/78/78
f 82/82/82 88/88/88 78/78/78
f 86/86/86 88/88/88 87/87/87
f 87/87/87 89/89/89 66/66/66
f 88/88/88 89/89/89 87/87/87
f 66/66/66 89/89/89 62/62/62
f 89/89/89 90/90/90 62/62/62
f 88/88/88 90/90/90 89/89/89
f 62/62/62 90/90/90 64/64/64
f 91/91/91 88/88/88 82/82/82
f 84/84/84 91/91/91 82/82/82
f 88/88/88 91/91/91 90/90/90
f 90/90/90 92/92/92 64/64/64
f 91/91/91 92/92/92 90/90/90
f 64/64/64 92/92/92 68/68/68
f 93/93/93 91/91/91 84/84/84
f 91/91/91 93/93/93 92/92/92
f 80/80/80 93/93/93 84/84/84
f 92/92/92 94/94/94 68/68/68
f 93/93/93 94/94/94 92/92/92
f 68/68/68 94/94/94 72/72/72
f 95/95/95 93/93/93 80/80/80
f 93/93/93 95/95/95 94/94/94
f 76/76/76 95/95/95 80/80/80
f 94/94/94 96/96/96 72/72/72
f 95/95/95 96/96/96 94/94/94
f 96/96/96 95/95/95 76/76/76
f 72/72/72 96/96/96 76/76/76
