g Icosphere
v -0 0 -1
v -0.16245556 -0.49999526 -0.8506544
v 0.42532268 -0.3090114 -0.8506542
v 0.26286882 -0.80901164 -0.52573764
v -0.27638802 -0.85064924 -0.44721985
v 0.7236073 -0.5257253 -0.44721952
v -0 -0.99999994 0
v -0.5877856 -0.8090167 0
v 0.5877856 -0.8090167 0
v -0.26286882 -0.80901164 0.52573764
v -0.7236073 -0.5257253 0.44721952
v -0.42532268 -0.3090114 0.8506542
v 0.16245556 -0.49999526 0.85065436
v -0 0 1
v 0.27638802 -0.85064924 0.44721985
v 0.6881894 -0.49999693 0.5257362
v 0.16245556 -0.49999526 0.85065436
v 0.95105785 -0.30901262 0
v 0.5257298 0 0.8506517
v -0 0 1
v 0.8944262 0 0.44721562
v 0.85064787 0 -0.5257359
v 0.42532268 -0.3090114 -0.8506542
v 0.95105785 0.30901262 0
v 0.42532268 0.3090114 -0.8506542
v -0 0 -1
v 0.7236073 0.5257253 -0.44721952
v 0.6881894 0.49999693 0.5257362
v 0.5257298 0 0.8506517
v 0.5877856 0.8090167 0
v 0.16245556 0.49999526 0.85065436
v -0 0 1
v 0.27638802 0.85064924 0.44721985
v 0.26286882 0.80901164 -0.52573764
v 0.42532268 0.3090114 -0.8506542
v -0 0.99999994 0
v -0.16245556 0.49999526 -0.8506544
v -0 0 -1
v -0.27638802 0.85064924 -0.44721985
v -0.26286882 0.80901164 0.52573764
v 0.16245556 0.49999526 0.85065436
v -0.5877856 0.8090167 0
v -0.42532268 0.3090114 0.8506542
v -0 0 1
v -0.7236073 0.5257253 0.44721952
v -0.6881894 0.49999693 -0.5257362
v -0.16245556 0.49999526 -0.8506544
v -0.95105785 0.30901262 0
v -0.5257298 0 -0.8506517
v -0 0 -1
v -0.8944262 0 -0.44721562
v -0.85064787 0 0.5257359
v -0.42532268 0.3090114 0.8506542
v -0.95105785 -0.30901262 0
v -0.42532268 -0.3090114 0.8506542
v -0 0 1
v -0.7236073 -0.5257253 0.44721952
v -0.5877856 -0.8090167 0
v -0.6881894 -0.49999693 -0.5257362
v -0.27638802 -0.85064924 -0.44721985
v -0.5257298 0 -0.8506517
v -0.16245556 -0.49999526 -0.8506544
v -0 0 -1
vt 0.818181 0
vt 0.8636355 0.0787305
vt 0.7727265 0.0787305
vt 0.818181 0.157461
vt 0.90909 0.157461
vt 0.727272 0.157461
vt 0.8636355 0.236191
vt 0.954545 0.236191
vt 0.7727265 0.236191
vt 0.9090905 0.314921
vt 1 0.314921
vt 0.954545 0.3936515
vt 0.8636355 0.3936515
vt 0.90909 0.472382
vt 0.818181 0.314921
vt 0.72727203 0.314921
vt 0.7727265 0.3936515
vt 0.68181753 0.236191
vt 0.68181753 0.3936515
vt 0.727272 0.472382
vt 0.636363 0.314921
vt 0.636363 0.157461
vt 0.68181753 0.0787305
vt 0.5909085 0.236191
vt 0.5909085 0.0787305
vt 0.636363 0
vt 0.545454 0.157461
vt 0.545454 0.314921
vt 0.5909085 0.3936515
vt 0.49999952 0.236191
vt 0.49999952 0.3936515
vt 0.545454 0.472382
vt 0.454545 0.314921
vt 0.45454502 0.157461
vt 0.49999952 0.0787305
vt 0.4090905 0.236191
vt 0.4090905 0.0787305
vt 0.454545 0
vt 0.363636 0.157461
vt 0.36363602 0.314921
vt 0.4090905 0.3936515
vt 0.3181815 0.236191
vt 0.3181815 0.3936515
vt 0.363636 0.472382
vt 0.272727 0.314921
vt 0.27272698 0.157461
vt 0.3181815 0.0787305
vt 0.22727251 0.236191
vt 0.22727251 0.0787305
vt 0.272727 0
vt 0.181818 0.157461
vt 0.18181801 0.314921
vt 0.22727251 0.3936515
vt 0.13636349 0.236191
vt 0.13636349 0.3936515
vt 0.181818 0.472382
vt 0.090909 0.314921
vt 0.0454545 0.236191
vt 0.090909 0.157461
vt 0 0.157461
vt 0.13636349 0.0787305
vt 0.0454545 0.0787305
vt 0.090909 0
vn -0 0 -1
vn -0.16245268 -0.4999929 -0.85065633
vn 0.42531475 -0.30900627 -0.85066
vn 0.2628661 -0.80901605 -0.5257322
vn -0.27637836 -0.85065085 -0.44722268
vn 0.7236163 -0.52572817 -0.44720164
vn -0 -1 0
vn -0.58776695 -0.80903023 0
vn 0.58776695 -0.80903023 0
vn -0.2628661 -0.80901605 0.5257322
vn -0.7236163 -0.52572817 0.44720164
vn -0.42531475 -0.30900627 0.85066
vn 0.16245268 -0.4999929 0.85065633
vn -0 0 1
vn 0.27637836 -0.85065085 0.44722268
vn 0.68818784 -0.50000364 0.5257317
vn 0.16245268 -0.4999929 0.85065633
vn 0.9510608 -0.30900395 0
vn 0.5257209 0 0.8506571
vn -0 0 1
vn 0.89443326 0 0.44720137
vn 0.8506571 0 -0.5257209
vn 0.42531475 -0.30900627 -0.85066
vn 0.9510608 0.30900395 0
vn 0.42531475 0.30900627 -0.85066
vn -0 0 -1
vn 0.7236163 0.52572817 -0.44720164
vn 0.68818784 0.50000364 0.5257317
vn 0.5257209 0 0.8506571
vn 0.58776695 0.80903023 0
vn 0.16245268 0.4999929 0.85065633
vn -0 0 1
vn 0.27637836 0.85065085 0.44722268
vn 0.2628661 0.80901605 -0.5257322
vn 0.42531475 0.30900627 -0.85066
vn -0 1 0
vn -0.16245268 0.4999929 -0.85065633
vn -0 0 -1
vn -0.27637836 0.85065085 -0.44722268
vn -0.2628661 0.80901605 0.5257322
vn 0.16245268 0.4999929 0.85065633
vn -0.58776695 0.80903023 0
vn -0.42531475 0.30900627 0.85066
vn -0 0 1
vn -0.7236163 0.52572817 0.44720164
vn -0.68818784 0.50000364 -0.5257317
vn -0.16245268 0.4999929 -0.85065633
vn -0.9510608 0.30900395 0
vn -0.5257209 0 -0.8506571
vn -0 0 -1
vn -0.89443326 0 -0.44720137
vn -0.8506571 0 0.5257209
vn -0.42531475 0.30900627 0.85066
vn -0.9510608 -0.30900395 0
vn -0.42531475 -0.30900627 0.85066
vn -0 0 1
vn -0.7236163 -0.52572817 0.44720164
vn -0.58776695 -0.80903023 0
vn -0.68818784 -0.50000364 -0.5257317
vn -0.27637836 -0.85065085 -0.44722268
vn -0.5257209 0 -0.8506571
vn -0.16245268 -0.4999929 -0.85065633
vn -0 0 -1
g Icosphere_0
f 3/3/3 2/2/2 1/1/1
f 3/3/3 4/4/4 2/2/2
f 4/4/4 5/5/5 2/2/2
f 6/6/6 4/4/4 3/3/3
f 4/4/4 7/7/7 5/5/5
f 7/7/7 8/8/8 5/5/5
f 6/6/6 9/9/9 4/4/4
f 4/4/4 9/9/9 7/7/7
f 7/7/7 10/10/10 8/8/8
f 10/10/10 11/11/11 8/8/8
f 10/10/10 12/12/12 11/11/11
f 10/10/10 13/13/13 12/12/12
f 13/13/13 14/14/14 12/12/12
f 15/15/15 13/13/13 10/10/10
f 15/15/15 10/10/10 7/7/7
f 9/9/9 15/15/15 7/7/7
f 16/16/16 15/15/15 9/9/9
f 16/16/16 17/17/17 15/15/15
f 18/18/18 9/9/9 6/6/6
f 18/18/18 16/16/16 9/9/9
f 16/16/16 19/19/19 17/17/17
f 19/19/19 20/20/20 17/17/17
f 21/21/21 19/19/19 16/16/16
f 21/21/21 16/16/16 18/18/18
f 22/22/22 18/18/18 6/6/6
f 23/23/23 22/22/22 6/6/6
f 24/24/24 21/21/21 18/18/18
f 22/22/22 24/24/24 18/18/18
f 23/23/23 25/25/25 22/22/22
f 26/26/26 25/25/25 23/23/23
f 25/25/25 27/27/27 22/22/22
f 27/27/27 24/24/24 22/22/22
f 28/28/28 21/21/21 24/24/24
f 28/28/28 29/29/29 21/21/21
f 30/30/30 24/24/24 27/27/27
f 30/30/30 28/28/28 24/24/24
f 28/28/28 31/31/31 29/29/29
f 31/31/31 32/32/32 29/29/29
f 33/33/33 31/31/31 28/28/28
f 33/33/33 28/28/28 30/30/30
f 34/34/34 30/30/30 27/27/27
f 34/34/34 27/27/27 35/35/35
f 36/36/36 33/33/33 30/30/30
f 34/34/34 36/36/36 30/30/30
f 37/37/37 34/34/34 35/35/35
f 37/37/37 35/35/35 38/38/38
f 39/39/39 34/34/34 37/37/37
f 39/39/39 36/36/36 34/34/34
f 40/40/40 33/33/33 36/36/36
f 40/40/40 41/41/41 33/33/33
f 42/42/42 36/36/36 39/39/39
f 42/42/42 40/40/40 36/36/36
f 40/40/40 43/43/43 41/41/41
f 43/43/43 44/44/44 41/41/41
f 45/45/45 43/43/43 40/40/40
f 45/45/45 40/40/40 42/42/42
f 46/46/46 42/42/42 39/39/39
f 46/46/46 39/39/39 47/47/47
f 48/48/48 45/45/45 42/42/42
f 46/46/46 48/48/48 42/42/42
f 49/49/49 46/46/46 47/47/47
f 49/49/49 47/47/47 50/50/50
f 51/51/51 46/46/46 49/49/49
f 51/51/51 48/48/48 46/46/46
f 52/52/52 45/45/45 48/48/48
f 52/52/52 53/53/53 45/45/45
f 54/54/54 48/48/48 51/51/51
f 54/54/54 52/52/52 48/48/48
f 52/52/52 55/55/55 53/53/53
f 55/55/55 56/56/56 53/53/53
f 57/57/57 55/55/55 52/52/52
f 57/57/57 52/52/52 54/54/54
f 58/58/58 57/57/57 54/54/54
f 59/59/59 54/54/54 51/51/51
f 59/59/59 58/58/58 54/54/54
f 60/60/60 58/58/58 59/59/59
f 59/59/59 51/51/51 61/61/61
f 60/60/60 59/59/59 62/62/62
f 62/62/62 59/59/59 61/61/61
f 62/62/62 61/61/61 63/63/63
