g Planks_roof
v 0.44999993 -0.45 5.9604645E-08
v 0.44999987 -0.47499996 -0.049999952
v 0.49999982 -0.47499996 -0.049999923
v 0.49999988 -0.47499996 5.9604645E-08
v 0.44999987 -0.5249999 -0.049999952
v 0.49999988 -0.5249999 -0.049999893
v 0.49999982 -0.47499996 -0.049999923
v 0.44999987 -0.47499996 -0.049999952
v 0.49999982 -0.5249999 5.9604645E-08
v 0.49999982 -0.5249999 0.049999982
v 0.49999982 -0.475 0.049999982
v 0.49999982 -0.47499993 5.9604645E-08
v -0.44999993 -0.55 -2.9802322E-08
v -0.44999993 -0.52500004 -0.05000004
v -0.49999994 -0.52500004 -0.050000012
v -0.49999994 -0.52500004 -2.9802322E-08
v -0.49999994 -0.52500004 -2.9802322E-08
v -0.49999994 -0.52500004 -0.050000012
v -0.49999994 0.5249998 -0.0500001
v -0.49999994 0.5249998 -5.9604645E-08
v -0.45 -0.52500004 0.049999952
v -0.49999994 -0.52500004 0.049999952
v -0.49999994 0.5249998 0.049999893
v -0.45 0.5249998 0.049999923
v 0.44999987 -0.5249999 0.049999982
v -0.45 -0.52500004 0.049999952
v -0.45 0.5249998 0.049999923
v 0.4499998 -0.475 0.05000004
v 0.44999993 -0.5499999 5.9604645E-08
v 0.44999987 -0.5249999 -0.049999952
v -0.44999993 -0.52500004 -0.05000004
v -0.44999993 -0.55 -2.9802322E-08
v -0.49999994 -0.52500004 -0.050000012
v -0.44999993 -0.52500004 -0.05000004
v -0.44999993 0.5249998 -0.05000007
v -0.49999994 0.5249998 -0.0500001
v -0.49999994 0.5249998 -5.9604645E-08
v -0.49999994 0.5249998 -0.0500001
v -0.44999993 0.5249998 -0.05000007
v -0.44999993 0.5499998 -5.9604645E-08
v 0.49999988 -0.5249999 8.940697E-08
v 0.49999988 -0.5249999 -0.049999893
v 0.44999987 -0.5249999 -0.049999952
v 0.44999993 -0.5499999 5.9604645E-08
v 0.49999982 -0.5249999 0.049999982
v 0.44999987 -0.5249999 0.049999982
v 0.4499998 -0.475 0.05000004
v 0.49999982 -0.475 0.049999982
v -0.44999993 -0.52500004 -0.05000004
v 0.44999987 -0.5249999 -0.049999952
v 0.44999987 -0.47499996 -0.049999952
v -0.44999993 0.5249998 -0.05000007
v -0.44999993 0.5499998 -5.9604645E-08
v -0.44999993 0.5249998 -0.05000007
v 0.44999987 -0.47499996 -0.049999952
v 0.44999993 -0.45 5.9604645E-08
v -0.45 0.5249998 0.049999923
v -0.44999993 0.5499998 -8.940697E-08
v 0.44999987 -0.45 5.9604645E-08
v 0.4499998 -0.475 0.05000004
v 0.49999982 -0.5249999 0.049999982
v 0.49999982 -0.5249999 5.9604645E-08
v 0.44999987 -0.5499999 5.9604645E-08
v 0.44999987 -0.5249999 0.049999982
v -0.49999994 0.5249998 0.049999893
v -0.5 0.5249998 -1.1920929E-07
v -0.44999993 0.5499998 -8.940697E-08
v -0.45 0.5249998 0.049999923
v 0.44999987 -0.5249999 0.049999982
v 0.44999987 -0.5499999 5.9604645E-08
v -0.44999993 -0.55 -5.9604645E-08
v -0.45 -0.52500004 0.049999952
v -0.49999994 -0.52500004 0.049999952
v -0.5 -0.52500004 -2.9802322E-08
v -0.5 0.5249998 -1.1920929E-07
v -0.49999994 0.5249998 0.049999893
v -0.45 -0.52500004 0.049999952
v -0.44999993 -0.55 -5.9604645E-08
v -0.5 -0.52500004 -2.9802322E-08
v -0.49999994 -0.52500004 0.049999952
v 0.49999988 -0.5249999 8.940697E-08
v 0.49999982 -0.5249999 5.9604645E-08
v 0.49999982 -0.47499993 5.9604645E-08
v 0.49999988 -0.47499996 5.9604645E-08
v 0.4499998 -0.475 0.05000004
v 0.44999987 -0.45 5.9604645E-08
v 0.49999982 -0.47499993 5.9604645E-08
v 0.49999982 -0.475 0.049999982
v 0.49999988 -0.5249999 -0.049999893
v 0.49999988 -0.5249999 8.940697E-08
v 0.49999988 -0.47499996 5.9604645E-08
v 0.49999982 -0.47499996 -0.049999923
v -0.44999993 0.5499998 -8.940697E-08
v -0.44999993 0.5499998 -5.9604645E-08
v 0.44999993 -0.45 5.9604645E-08
v 0.44999987 -0.45 5.9604645E-08
v 0.49999982 -0.5249999 5.9604645E-08
v 0.49999988 -0.5249999 8.940697E-08
v 0.44999993 -0.5499999 5.9604645E-08
v 0.44999987 -0.5499999 5.9604645E-08
v -0.5 0.5249998 -1.1920929E-07
v -0.49999994 0.5249998 -5.9604645E-08
v -0.44999993 0.5499998 -5.9604645E-08
v -0.44999993 0.5499998 -8.940697E-08
v 0.44999987 -0.5499999 5.9604645E-08
v 0.44999993 -0.5499999 5.9604645E-08
v -0.44999993 -0.55 -2.9802322E-08
v -0.44999993 -0.55 -5.9604645E-08
v -0.5 -0.52500004 -2.9802322E-08
v -0.49999994 -0.52500004 -2.9802322E-08
v -0.49999994 0.5249998 -5.9604645E-08
v -0.5 0.5249998 -1.1920929E-07
v -0.44999993 -0.55 -5.9604645E-08
v -0.44999993 -0.55 -2.9802322E-08
v -0.49999994 -0.52500004 -2.9802322E-08
v -0.5 -0.52500004 -2.9802322E-08
v 0.44999987 -0.45 5.9604645E-08
v 0.44999993 -0.45 5.9604645E-08
v 0.49999988 -0.47499996 5.9604645E-08
v 0.49999982 -0.47499993 5.9604645E-08
vt 0.7807617 0.7807617
vt 0.7807617 0.8666992
vt 0.8666992 0.8666992
vt 0.8666992 0.7807617
vt 0.9375 0.9873047
vt 0.9873047 0.9873047
vt 0.9873047 0.96240234
vt 0.9375 0.96240234
vt 0.53759766 0.91259766
vt 0.48754883 0.91259766
vt 0.48754883 0.9375
vt 0.53759766 0.9375
vt 0.09399414 0.09399414
vt 0.09399414 0.008132935
vt 0.008132935 0.008132935
vt 0.008132935 0.09399414
vt 0.9628906 0.9868164
vt 0.96484375 0.87939453
vt 0.02545166 0.8828125
vt 0.023895264 0.9902344
vt 0.53759766 0.9375
vt 0.48754883 0.9375
vt 0.48754883 0.96240234
vt 0.53759766 0.96240234
vt 0.7236328 0.08880615
vt 0.12634277 0.086364746
vt 0.12634277 0.68603516
vt 0.7236328 0.68603516
vt 0.7807617 0.09399414
vt 0.7807617 0.008132935
vt 0.09399414 0.008132935
vt 0.09399414 0.09399414
vt 0.48754883 0.9873047
vt 0.53759766 0.9873047
vt 0.53759766 0.96240234
vt 0.48754883 0.96240234
vt 0.008132935 0.7807617
vt 0.008132935 0.8666992
vt 0.09399414 0.8666992
vt 0.09399414 0.7807617
vt 0.8666992 0.09399414
vt 0.8666992 0.008132935
vt 0.7807617 0.008132935
vt 0.7807617 0.09399414
vt 0.9873047 0.9375
vt 0.9375 0.9375
vt 0.9375 0.96240234
vt 0.9873047 0.96240234
vt 0.16247559 0.71240234
vt 0.6875 0.71240234
vt 0.6875 0.125
vt 0.16247559 0.125
vt 0.09399414 0.7807617
vt 0.09399414 0.8666992
vt 0.7807617 0.8666992
vt 0.7807617 0.7807617
vt 0.09399414 0.008132935
vt 0.09399414 0.09399414
vt 0.7807617 0.09399414
vt 0.7807617 0.008132935
vt 0.8666992 0.8666992
vt 0.8666992 0.7807617
vt 0.7807617 0.7807617
vt 0.7807617 0.8666992
vt 0.008132935 0.008132935
vt 0.008132935 0.09399414
vt 0.09399414 0.09399414
vt 0.09399414 0.008132935
vt 0.7807617 0.8666992
vt 0.7807617 0.7807617
vt 0.09399414 0.7807617
vt 0.09399414 0.8666992
vt 0.9628906 0.9868164
vt 0.96484375 0.87939453
vt 0.02545166 0.8828125
vt 0.023895264 0.9902344
vt 0.09399414 0.8666992
vt 0.09399414 0.7807617
vt 0.008132935 0.7807617
vt 0.008132935 0.8666992
vt 0.9375 0.91259766
vt 0.53759766 0.91259766
vt 0.53759766 0.9375
vt 0.9375 0.9375
vt 0.7807617 0.008132935
vt 0.7807617 0.09399414
vt 0.8666992 0.09399414
vt 0.8666992 0.008132935
vt 0.9873047 0.91259766
vt 0.9375 0.91259766
vt 0.9375 0.9375
vt 0.9873047 0.9375
vt 0.09399414 0.09399414
vt 0.09399414 0.7807617
vt 0.7807617 0.7807617
vt 0.7807617 0.09399414
vt 0.8666992 0.7807617
vt 0.8666992 0.09399414
vt 0.7807617 0.09399414
vt 0.7807617 0.7807617
vt 0.008132935 0.09399414
vt 0.008132935 0.7807617
vt 0.09399414 0.7807617
vt 0.09399414 0.09399414
vt 0.7807617 0.7807617
vt 0.7807617 0.09399414
vt 0.09399414 0.09399414
vt 0.09399414 0.7807617
vt 0.53759766 0.91259766
vt 0.9375 0.91259766
vt 0.9375 0.8876953
vt 0.53759766 0.8876953
vt 0.09399414 0.7807617
vt 0.09399414 0.09399414
vt 0.008132935 0.09399414
vt 0.008132935 0.7807617
vt 0.7807617 0.09399414
vt 0.7807617 0.7807617
vt 0.8666992 0.7807617
vt 0.8666992 0.09399414
vn 0.23571777 0.9428711 -0.23571777
vn 0.23571777 0.9428711 -0.23571777
vn 0.23571777 0.9428711 -0.23571777
vn 0.23571777 0.9428711 -0.23571777
vn -0 0 -1
vn -0 0 -1
vn -0 0 -1
vn -0 0 -1
vn 1 0 0
vn 1 0 0
vn 1 0 0
vn 1 0 0
vn -0.23571777 -0.9428711 -0.23571777
vn -0.23571777 -0.9428711 -0.23571777
vn -0.23571777 -0.9428711 -0.23571777
vn -0.23571777 -0.9428711 -0.23571777
vn -1 0 0
vn -1 0 0
vn -1 0 0
vn -1 0 0
vn -0 0 1
vn -0 0 1
vn -0 0 1
vn -0 0 1
vn -0 0 1
vn -0 0 1
vn -0 0 1
vn -0 0 1
vn -0 -0.89453125 -0.44726562
vn -0 -0.89453125 -0.44726562
vn -0 -0.89453125 -0.44726562
vn -0 -0.89453125 -0.44726562
vn -0 0 -1
vn -0 0 -1
vn -0 0 -1
vn -0 0 -1
vn -0.23571777 0.9428711 -0.23571777
vn -0.23571777 0.9428711 -0.23571777
vn -0.23571777 0.9428711 -0.23571777
vn -0.23571777 0.9428711 -0.23571777
vn 0.23571777 -0.9428711 -0.23571777
vn 0.23571777 -0.9428711 -0.23571777
vn 0.23571777 -0.9428711 -0.23571777
vn 0.23571777 -0.9428711 -0.23571777
vn -0 0 1
vn -0 0 1
vn -0 0 1
vn -0 0 1
vn -0 0 -1
vn -0 0 -1
vn -0 0 -1
vn -0 0 -1
vn 0.7050781 0.63427734 -0.31713867
vn 0.7050781 0.63427734 -0.31713867
vn 0.7050781 0.63427734 -0.31713867
vn 0.7050781 0.63427734 -0.31713867
vn 0.7050781 0.63427734 0.31713867
vn 0.7050781 0.63427734 0.31713867
vn 0.7050781 0.63427734 0.31713867
vn 0.7050781 0.63427734 0.31713867
vn 0.23571777 -0.9428711 0.23571777
vn 0.23571777 -0.9428711 0.23571777
vn 0.23571777 -0.9428711 0.23571777
vn 0.23571777 -0.9428711 0.23571777
vn -0.23571777 0.9428711 0.23571777
vn -0.23571777 0.9428711 0.23571777
vn -0.23571777 0.9428711 0.23571777
vn -0.23571777 0.9428711 0.23571777
vn -0 -0.89453125 0.44726562
vn -0 -0.89453125 0.44726562
vn -0 -0.89453125 0.44726562
vn -0 -0.89453125 0.44726562
vn -1 0 0
vn -1 0 0
vn -1 0 0
vn -1 0 0
vn -0.23571777 -0.9428711 0.23571777
vn -0.23571777 -0.9428711 0.23571777
vn -0.23571777 -0.9428711 0.23571777
vn -0.23571777 -0.9428711 0.23571777
vn -0.24255371 0 0.97021484
vn -0.24255371 0 0.97021484
vn -0.24255371 0 0.97021484
vn -0.24255371 0 0.97021484
vn 0.23571777 0.9428711 0.23571777
vn 0.23571777 0.9428711 0.23571777
vn 0.23571777 0.9428711 0.23571777
vn 0.23571777 0.9428711 0.23571777
vn 1 0 0
vn 1 0 0
vn 1 0 0
vn 1 0 0
vn -0.41479492 -0.37329102 0.82958984
vn -0.41479492 -0.37329102 0.82958984
vn -0.41479492 -0.37329102 0.82958984
vn -0.41479492 -0.37329102 0.82958984
vn -0.18261719 0.36523438 0.91308594
vn -0.18261719 0.36523438 0.91308594
vn -0.18261719 0.36523438 0.91308594
vn -0.18261719 0.36523438 0.91308594
vn 0.35864258 -0.71728516 -0.59765625
vn 0.35864258 -0.71728516 -0.59765625
vn 0.35864258 -0.71728516 -0.59765625
vn 0.35864258 -0.71728516 -0.59765625
vn -0 1 0
vn -0 1 0
vn -0 1 0
vn -0 1 0
vn 0.44726562 0 -0.89453125
vn 0.44726562 0 -0.89453125
vn 0.44726562 0 -0.89453125
vn 0.44726562 0 -0.89453125
vn 0.44726562 0.89453125 0
vn 0.44726562 0.89453125 0
vn 0.44726562 0.89453125 0
vn 0.44726562 0.89453125 0
vn -0 0 1
vn -0 0 1
vn -0 0 1
vn -0 0 1
g Planks_roof_0
f 3/3/3 2/2/2 1/1/1
f 4/4/4 3/3/3 1/1/1
f 7/7/7 6/6/6 5/5/5
f 8/8/8 7/7/7 5/5/5
f 11/11/11 10/10/10 9/9/9
f 12/12/12 11/11/11 9/9/9
f 15/15/15 14/14/14 13/13/13
f 16/16/16 15/15/15 13/13/13
f 19/19/19 18/18/18 17/17/17
f 20/20/20 19/19/19 17/17/17
f 23/23/23 22/22/22 21/21/21
f 24/24/24 23/23/23 21/21/21
f 27/27/27 26/26/26 25/25/25
f 28/28/28 27/27/27 25/25/25
f 31/31/31 30/30/30 29/29/29
f 32/32/32 31/31/31 29/29/29
f 35/35/35 34/34/34 33/33/33
f 36/36/36 35/35/35 33/33/33
f 39/39/39 38/38/38 37/37/37
f 40/40/40 39/39/39 37/37/37
f 43/43/43 42/42/42 41/41/41
f 44/44/44 43/43/43 41/41/41
f 47/47/47 46/46/46 45/45/45
f 48/48/48 47/47/47 45/45/45
f 51/51/51 50/50/50 49/49/49
f 52/52/52 51/51/51 49/49/49
f 55/55/55 54/54/54 53/53/53
f 56/56/56 55/55/55 53/53/53
f 59/59/59 58/58/58 57/57/57
f 60/60/60 59/59/59 57/57/57
f 63/63/63 62/62/62 61/61/61
f 64/64/64 63/63/63 61/61/61
f 67/67/67 66/66/66 65/65/65
f 68/68/68 67/67/67 65/65/65
f 71/71/71 70/70/70 69/69/69
f 72/72/72 71/71/71 69/69/69
f 75/75/75 74/74/74 73/73/73
f 76/76/76 75/75/75 73/73/73
f 79/79/79 78/78/78 77/77/77
f 80/80/80 79/79/79 77/77/77
f 83/83/83 82/82/82 81/81/81
f 84/84/84 83/83/83 81/81/81
f 87/87/87 86/86/86 85/85/85
f 88/88/88 87/87/87 85/85/85
f 91/91/91 90/90/90 89/89/89
f 92/92/92 91/91/91 89/89/89
f 95/95/95 94/94/94 93/93/93
f 96/96/96 95/95/95 93/93/93
f 99/99/99 98/98/98 97/97/97
f 100/100/100 99/99/99 97/97/97
f 103/103/103 102/102/102 101/101/101
f 104/104/104 103/103/103 101/101/101
f 107/107/107 106/106/106 105/105/105
f 108/108/108 107/107/107 105/105/105
f 111/111/111 110/110/110 109/109/109
f 112/112/112 111/111/111 109/109/109
f 115/115/115 114/114/114 113/113/113
f 116/116/116 115/115/115 113/113/113
f 119/119/119 118/118/118 117/117/117
f 120/120/120 119/119/119 117/117/117
