g Stairs
v -0.9992931 -6.4346952 -25.655527
v -0.9992931 -4.4346952 -25.655527
v -0.9992931 -4.4346952 -23.655527
v -0.9992931 -6.4346952 -23.655527
v -0.9992931 -4.4346952 -25.655527
v 1.0007069 -4.4346952 -25.655527
v 1.0007069 -4.4346952 -23.655527
v -0.9992931 -4.4346952 -23.655527
v 1.0007069 -4.4346952 -25.655527
v 1.0007069 -6.4346952 -25.655527
v 1.0007069 -6.4346952 -23.655527
v 1.0007069 -4.4346952 -23.655527
v 1.0007069 -6.4346952 -25.655527
v -0.9992931 -6.4346952 -25.655527
v -0.9992931 -6.4346952 -23.655527
v 1.0007069 -6.4346952 -23.655527
v -0.9992931 -4.4346952 -25.655527
v -0.9992931 -6.4346952 -25.655527
v 1.0007069 -6.4346952 -25.655527
v 1.0007069 -4.4346952 -25.655527
v 1.0007069 -4.4346952 -23.655527
v 1.0007069 -6.4346952 -23.655527
v -0.9992931 -6.4346952 -23.655527
v -0.9992931 -4.4346952 -23.655527
v -0.8290234 -6.6092215 -30.852776
v -1.1173074 -6.6092215 -30.852776
v -1.1173074 -6.6092215 -28.852777
v -0.8290234 -6.6092215 -28.852777
v -1.1173074 -6.6092215 -30.852776
v -1.1173074 5.3166227 23.895433
v -1.1173074 5.3166227 25.895433
v -1.1173074 -6.6092215 -28.852777
v -1.1173074 5.3166227 23.895433
v -0.82902354 5.3166227 23.895433
v -0.82902354 5.3166227 25.895433
v -1.1173074 5.3166227 25.895433
v -0.82902354 5.3166227 23.895433
v -0.8290234 -6.6092215 -30.852776
v -0.8290234 -6.6092215 -28.852777
v -0.82902354 5.3166227 25.895433
v -1.1173074 -6.6092215 -30.852776
v -0.8290234 -6.6092215 -30.852776
v -0.82902354 5.3166227 23.895433
v -1.1173074 5.3166227 23.895433
v -1.1173074 5.3166227 25.895433
v -0.82902354 5.3166227 25.895433
v -0.8290234 -6.6092215 -28.852777
v -1.1173074 -6.6092215 -28.852777
v 1.1148065 -6.6092215 -30.852776
v 0.8265225 -6.6092215 -30.852776
v 0.8265225 -6.6092215 -28.852777
v 1.1148065 -6.6092215 -28.852777
v 0.8265225 -6.6092215 -30.852776
v 0.8265225 5.3166227 23.895433
v 0.8265225 5.3166227 25.895433
v 0.8265225 -6.6092215 -28.852777
v 0.8265225 5.3166227 23.895433
v 1.1148065 5.3166227 23.895433
v 1.1148065 5.3166227 25.895433
v 0.8265225 5.3166227 25.895433
v 1.1148065 5.3166227 23.895433
v 1.1148065 -6.6092215 -30.852776
v 1.1148065 -6.6092215 -28.852777
v 1.1148065 5.3166227 25.895433
v 0.8265225 -6.6092215 -30.852776
v 1.1148065 -6.6092215 -30.852776
v 1.1148065 5.3166227 23.895433
v 0.8265225 5.3166227 23.895433
v 0.8265225 5.3166227 25.895433
v 1.1148065 5.3166227 25.895433
v 1.1148065 -6.6092215 -28.852777
v 0.8265225 -6.6092215 -28.852777
v -0.9992931 -4.806524 -18.567924
v -0.9992931 -2.8065238 -18.567924
v -0.9992931 -2.8065238 -16.567924
v -0.9992931 -4.806524 -16.567924
v -0.9992931 -2.8065238 -18.567924
v 1.0007069 -2.8065238 -18.567924
v 1.0007069 -2.8065238 -16.567924
v -0.9992931 -2.8065238 -16.567924
v 1.0007069 -2.8065238 -18.567924
v 1.0007069 -4.806524 -18.567924
v 1.0007069 -4.806524 -16.567924
v 1.0007069 -2.8065238 -16.567924
v 1.0007069 -4.806524 -18.567924
v -0.9992931 -4.806524 -18.567924
v -0.9992931 -4.806524 -16.567924
v 1.0007069 -4.806524 -16.567924
v -0.9992931 -2.8065238 -18.567924
v -0.9992931 -4.806524 -18.567924
v 1.0007069 -4.806524 -18.567924
v 1.0007069 -2.8065238 -18.567924
v 1.0007069 -2.8065238 -16.567924
v 1.0007069 -4.806524 -16.567924
v -0.9992931 -4.806524 -16.567924
v -0.9992931 -2.8065238 -16.567924
v -0.9992931 -3.3238423 -12.166445
v -0.9992931 -1.3238423 -12.166445
v -0.9992931 -1.3238423 -10.166445
v -0.9992931 -3.3238423 -10.166445
v -0.9992931 -1.3238423 -12.166445
v 1.0007069 -1.3238423 -12.166445
v 1.0007069 -1.3238423 -10.166445
v -0.9992931 -1.3238423 -10.166445
v 1.0007069 -1.3238423 -12.166445
v 1.0007069 -3.3238423 -12.166445
v 1.0007069 -3.3238423 -10.166445
v 1.0007069 -1.3238423 -10.166445
v 1.0007069 -3.3238423 -12.166445
v -0.9992931 -3.3238423 -12.166445
v -0.9992931 -3.3238423 -10.166445
v 1.0007069 -3.3238423 -10.166445
v -0.9992931 -1.3238423 -12.166445
v -0.9992931 -3.3238423 -12.166445
v 1.0007069 -3.3238423 -12.166445
v 1.0007069 -1.3238423 -12.166445
v 1.0007069 -1.3238423 -10.166445
v 1.0007069 -3.3238423 -10.166445
v -0.9992931 -3.3238423 -10.166445
v -0.9992931 -1.3238423 -10.166445
v -0.9992931 -1.9113597 -5.7788672
v -0.9992931 0.08864039 -5.7788672
v -0.9992931 0.08864039 -3.7788672
v -0.9992931 -1.9113597 -3.7788672
v -0.9992931 0.08864039 -5.7788672
v 1.0007069 0.08864039 -5.7788672
v 1.0007069 0.08864039 -3.7788672
v -0.9992931 0.08864039 -3.7788672
v 1.0007069 0.08864039 -5.7788672
v 1.0007069 -1.9113597 -5.7788672
v 1.0007069 -1.9113597 -3.7788672
v 1.0007069 0.08864039 -3.7788672
v 1.0007069 -1.9113597 -5.7788672
v -0.9992931 -1.9113597 -5.7788672
v -0.9992931 -1.9113597 -3.7788672
v 1.0007069 -1.9113597 -3.7788672
v -0.9992931 0.08864039 -5.7788672
v -0.9992931 -1.9113597 -5.7788672
v 1.0007069 -1.9113597 -5.7788672
v 1.0007069 0.08864039 -5.7788672
v 1.0007069 0.08864039 -3.7788672
v 1.0007069 -1.9113597 -3.7788672
v -0.9992931 -1.9113597 -3.7788672
v -0.9992931 0.08864039 -3.7788672
v -0.9992931 -0.5973249 0.50259274
v -0.9992931 1.4026752 0.50259274
v -0.9992931 1.4026752 2.5025928
v -0.9992931 -0.5973249 2.5025928
v -0.9992931 1.4026752 0.50259274
v 1.0007069 1.4026752 0.50259274
v 1.0007069 1.4026752 2.5025928
v -0.9992931 1.4026752 2.5025928
v 1.0007069 1.4026752 0.50259274
v 1.0007069 -0.5973249 0.50259274
v 1.0007069 -0.5973249 2.5025928
v 1.0007069 1.4026752 2.5025928
v 1.0007069 -0.5973249 0.50259274
v -0.9992931 -0.5973249 0.50259274
v -0.9992931 -0.5973249 2.5025928
v 1.0007069 -0.5973249 2.5025928
v -0.9992931 1.4026752 0.50259274
v -0.9992931 -0.5973249 0.50259274
v 1.0007069 -0.5973249 0.50259274
v 1.0007069 1.4026752 0.50259274
v 1.0007069 1.4026752 2.5025928
v 1.0007069 -0.5973249 2.5025928
v -0.9992931 -0.5973249 2.5025928
v -0.9992931 1.4026752 2.5025928
v -0.9992931 0.69987345 6.71965
v -0.9992931 2.6998734 6.71965
v -0.9992931 2.6998734 8.719649
v -0.9992931 0.69987345 8.719649
v -0.9992931 2.6998734 6.71965
v 1.0007069 2.6998734 6.71965
v 1.0007069 2.6998734 8.719649
v -0.9992931 2.6998734 8.719649
v 1.0007069 2.6998734 6.71965
v 1.0007069 0.69987345 6.71965
v 1.0007069 0.69987345 8.719649
v 1.0007069 2.6998734 8.719649
v 1.0007069 0.69987345 6.71965
v -0.9992931 0.69987345 6.71965
v -0.9992931 0.69987345 8.719649
v 1.0007069 0.69987345 8.719649
v -0.9992931 2.6998734 6.71965
v -0.9992931 0.69987345 6.71965
v 1.0007069 0.69987345 6.71965
v 1.0007069 2.6998734 6.71965
v 1.0007069 2.6998734 8.719649
v 1.0007069 0.69987345 8.719649
v -0.9992931 0.69987345 8.719649
v -0.9992931 2.6998734 8.719649
v -0.9992931 1.895771 12.830591
v -0.9992931 3.895771 12.830591
v -0.9992931 3.895771 14.830591
v -0.9992931 1.895771 14.830591
v -0.9992931 3.895771 12.830591
v 1.0007069 3.895771 12.830591
v 1.0007069 3.895771 14.830591
v -0.9992931 3.895771 14.830591
v 1.0007069 3.895771 12.830591
v 1.0007069 1.895771 12.830591
v 1.0007069 1.895771 14.830591
v 1.0007069 3.895771 14.830591
v 1.0007069 1.895771 12.830591
v -0.9992931 1.895771 12.830591
v -0.9992931 1.895771 14.830591
v 1.0007069 1.895771 14.830591
v -0.9992931 3.895771 12.830591
v -0.9992931 1.895771 12.830591
v 1.0007069 1.895771 12.830591
v 1.0007069 3.895771 12.830591
v 1.0007069 3.895771 14.830591
v 1.0007069 1.895771 14.830591
v -0.9992931 1.895771 14.830591
v -0.9992931 3.895771 14.830591
v -0.9992931 3.3128548 19.632406
v -0.9992931 5.312855 19.632406
v -0.9992931 5.312855 21.632406
v -0.9992931 3.3128548 21.632406
v -0.9992931 5.312855 19.632406
v 1.0007069 5.312855 19.632406
v 1.0007069 5.312855 21.632406
v -0.9992931 5.312855 21.632406
v 1.0007069 5.312855 19.632406
v 1.0007069 3.3128548 19.632406
v 1.0007069 3.3128548 21.632406
v 1.0007069 5.312855 21.632406
v 1.0007069 3.3128548 19.632406
v -0.9992931 3.3128548 19.632406
v -0.9992931 3.3128548 21.632406
v 1.0007069 3.3128548 21.632406
v -0.9992931 5.312855 19.632406
v -0.9992931 3.3128548 19.632406
v 1.0007069 3.3128548 19.632406
v 1.0007069 5.312855 19.632406
v 1.0007069 5.312855 21.632406
v 1.0007069 3.3128548 21.632406
v -0.9992931 3.3128548 21.632406
v -0.9992931 5.312855 21.632406
vt 0.32689506 0.034490943
vt 0.32689506 0
vt 0.1922569 8.22328E-09
vt 0.1922569 0.034490954
vt 0.8654471 0.17245474
vt 0.8654471 0.20694569
vt 0.9999999 0.20694569
vt 0.9999999 0.17245474
vt 0.32689494 0.06898192
vt 0.19225693 0.06898192
vt 0.1922569 0.10347289
vt 0.3268949 0.10347289
vt 0.4615329 0.2069457
vt 0.4615329 0.24143665
vt 0.5960859 0.24143665
vt 0.5960859 0.2069457
vt 0.5961711 0.103472866
vt 0.5961711 0.1379638
vt 0.7308091 0.1379638
vt 0.7308091 0.103472866
vt 0.5961711 0.2069457
vt 0.5961711 0.17245476
vt 0.46153304 0.17245476
vt 0.46153307 0.2069457
vt 0.13403541 0.98534864
vt 0.15344241 0.98534864
vt 0.1534424 0.9508796
vt 0.13403541 0.9508796
vt 0.02865717 0
vt 0.028657973 0.9662993
vt 0.05731434 1
vt 0.057313442 0.033700615
vt 0.1728499 0.034469094
vt 0.19225688 0.034469094
vt 0.1922569 0
vt 0.1728499 0
vt 0.08597074 0.96629924
vt 0.08597125 0
vt 0.05731498 0.03370058
vt 0.05731434 0.99999994
vt 0.17284966 0.9853485
vt 0.19225666 0.9853485
vt 0.19225688 0.034469094
vt 0.1728499 0.034469094
vt 0.15344207 0
vt 0.13403508 0
vt 0.13403541 0.9508796
vt 0.1534424 0.9508796
vt 0.114628084 0.98534864
vt 0.13403508 0.98534864
vt 0.13403507 0.9508796
vt 0.11462807 0.9508796
vt 0 0
vt 8.0250516E-07 0.9662993
vt 0.02865717 1
vt 0.02865627 0.033700615
vt 0.15344267 0.034469094
vt 0.17284966 0.034469094
vt 0.17284966 0
vt 0.15344267 0
vt 0.08597125 0.033700712
vt 0.08597154 0.99999994
vt 0.11462775 0.9662994
vt 0.11462759 0
vt 0.15344241 0.9853485
vt 0.17284942 0.9853485
vt 0.17284966 0.034469094
vt 0.15344267 0.034469094
vt 0.13403475 0
vt 0.11462775 0
vt 0.11462807 0.9508796
vt 0.13403507 0.9508796
vt 0.46153298 0.13796382
vt 0.46153298 0.103472866
vt 0.32689494 0.10347287
vt 0.32689494 0.13796382
vt 0.8654471 0.13796382
vt 0.8654471 0.17245474
vt 0.9999999 0.17245474
vt 0.9999999 0.13796382
vt 0.326895 0.10347289
vt 0.19225693 0.10347289
vt 0.1922569 0.13796383
vt 0.326895 0.13796383
vt 0.86544716 6.16746E-09
vt 0.86544716 0.034490947
vt 0.99999994 0.03449094
vt 0.99999994 0
vt 0.1922569 0.2069457
vt 0.1922569 0.24143663
vt 0.3268949 0.24143663
vt 0.3268949 0.2069457
vt 0.86544716 0.03449094
vt 0.86544716 0
vt 0.73080915 0
vt 0.73080915 0.03449093
vt 0.4615329 0.24143665
vt 0.4615329 0.2069457
vt 0.3268949 0.2069457
vt 0.3268949 0.24143665
vt 0.8653619 0.24143663
vt 0.86536187 0.2069457
vt 0.7308091 0.20694569
vt 0.73080915 0.24143662
vt 0.5961711 0.20694569
vt 0.7308091 0.20694569
vt 0.7308091 0.17245474
vt 0.5961711 0.17245476
vt 0.8654472 0.034490958
vt 0.8654472 0.0689819
vt 1 0.06898189
vt 1 0.034490954
vt 0.5961711 0.17245476
vt 0.7308091 0.17245474
vt 0.7308091 0.13796382
vt 0.5961711 0.13796382
vt 0.596171 0.103472866
vt 0.596171 0.06898193
vt 0.461533 0.06898192
vt 0.461533 0.10347286
vt 0.7308091 0.103472866
vt 0.7308091 0.06898192
vt 0.5961711 0.06898192
vt 0.5961711 0.103472866
vt 0.8654471 0.103472866
vt 0.8654471 0.1379638
vt 0.9999999 0.1379638
vt 0.9999999 0.103472866
vt 0.596171 0.103472866
vt 0.461533 0.103472866
vt 0.461533 0.13796382
vt 0.596171 0.13796382
vt 0.8654471 0.06898193
vt 0.8654471 0.103472866
vt 0.9999999 0.103472866
vt 0.9999999 0.06898192
vt 0.46153304 0.13796383
vt 0.46153304 0.17245476
vt 0.5961711 0.17245477
vt 0.5961711 0.13796383
vt 0.7308092 0.034490958
vt 0.7308092 0.06898189
vt 0.8654472 0.06898189
vt 0.8654472 0.034490954
vt 0.461533 0.103472866
vt 0.461533 0.06898192
vt 0.32689494 0.06898192
vt 0.32689497 0.103472866
vt 0.32680964 0.27592757
vt 0.32680964 0.24143665
vt 0.19225693 0.24143665
vt 0.1922569 0.27592757
vt 0.46153313 0.034490947
vt 0.4615331 0
vt 0.32689506 1.130701E-08
vt 0.3268951 0.034490954
vt 0.8653619 0.20694569
vt 0.8653619 0.24143663
vt 0.9999147 0.24143663
vt 0.9999147 0.20694569
vt 0.46153298 0.2069457
vt 0.46153298 0.17245476
vt 0.32689494 0.17245477
vt 0.32689497 0.2069457
vt 0.326895 0.13796383
vt 0.326895 0.17245477
vt 0.461533 0.17245476
vt 0.461533 0.13796383
vt 0.59617114 0.034490943
vt 0.59617114 0
vt 0.4615331 4.11164E-09
vt 0.4615331 0.034490947
vt 0.5961711 0.24143662
vt 0.5961711 0.27592757
vt 0.73072374 0.27592754
vt 0.73072374 0.24143662
vt 0.8654471 0.20694569
vt 0.8654471 0.17245474
vt 0.7308091 0.17245474
vt 0.7308091 0.20694569
vt 0.3268949 0.24143666
vt 0.3268949 0.2759276
vt 0.46144763 0.2759276
vt 0.46144763 0.24143666
vt 0.4615331 0.06898189
vt 0.59617114 0.06898189
vt 0.59617114 0.034490954
vt 0.4615331 0.03449096
vt 0.32689494 0.13796383
vt 0.1922569 0.13796383
vt 0.19225693 0.17245477
vt 0.32689494 0.17245476
vt 0.73080915 0.034490943
vt 0.73080915 0
vt 0.59617114 0
vt 0.59617114 0.034490947
vt 0.4615329 0.24143666
vt 0.4615329 0.2759276
vt 0.5960856 0.2759276
vt 0.5960856 0.24143666
vt 0.32689497 0.034490954
vt 0.19225691 0.034490954
vt 0.1922569 0.068981886
vt 0.32689497 0.06898192
vt 0.7308091 0.24143663
vt 0.7308091 0.27592757
vt 0.86536175 0.27592757
vt 0.86536175 0.24143662
vt 0.32689506 0.034490954
vt 0.3268951 0.06898189
vt 0.4615331 0.06898189
vt 0.46153307 0.034490954
vt 0.8654471 0.10347286
vt 0.8654471 0.06898192
vt 0.7308091 0.06898192
vt 0.7308091 0.10347286
vt 0.8654471 0.17245474
vt 0.8654471 0.13796382
vt 0.7308091 0.13796382
vt 0.7308091 0.17245474
vt 0.8653619 0.24143662
vt 0.8653619 0.27592754
vt 0.9999145 0.27592754
vt 0.9999145 0.24143662
vt 0.73080915 0.034490988
vt 0.59617114 0.034490954
vt 0.59617114 0.068981886
vt 0.73080915 0.068981886
vt 0.5961711 0.20694569
vt 0.5961711 0.24143663
vt 0.730724 0.24143663
vt 0.730724 0.20694569
vt 0.7308091 0.103472866
vt 0.7308091 0.1379638
vt 0.8654471 0.1379638
vt 0.8654471 0.103472866
vt 0.3268949 0.2069457
vt 0.32689494 0.17245477
vt 0.1922569 0.17245476
vt 0.1922569 0.2069457
vn -1 0 0
vn -1 0 0
vn -1 0 0
vn -1 0 0
vn -0 1 0
vn -0 1 0
vn -0 1 0
vn -0 1 0
vn 1 0 0
vn 1 0 0
vn 1 0 0
vn 1 0 0
vn -0 -1 0
vn -0 -1 0
vn -0 -1 0
vn -0 -1 0
vn -0 0 -1
vn -0 0 -1
vn -0 0 -1
vn -0 0 -1
vn -0 0 1
vn -0 0 1
vn -0 0 1
vn -0 0 1
vn -0 -1 0
vn -0 -1 0
vn -0 -1 0
vn -0 -1 0
vn -1 0 0
vn -1 0 0
vn -1 0 0
vn -1 0 0
vn -0 1 0
vn -0 1 0
vn -0 1 0
vn -0 1 0
vn 1 0 0
vn 1 0 0
vn 1 0 0
vn 1 0 0
vn -0 0.9770871 -0.21283965
vn -0 0.9770871 -0.21283965
vn -0 0.9770871 -0.21283965
vn -0 0.9770871 -0.21283965
vn -0 -0.9770871 0.21283965
vn -0 -0.9770871 0.21283965
vn -0 -0.9770871 0.21283965
vn -0 -0.9770871 0.21283965
vn -0 -1 0
vn -0 -1 0
vn -0 -1 0
vn -0 -1 0
vn -1 0 0
vn -1 0 0
vn -1 0 0
vn -1 0 0
vn -0 1 0
vn -0 1 0
vn -0 1 0
vn -0 1 0
vn 1 0 0
vn 1 0 0
vn 1 0 0
vn 1 0 0
vn -0 0.9770871 -0.21283965
vn -0 0.9770871 -0.21283965
vn -0 0.9770871 -0.21283965
vn -0 0.9770871 -0.21283965
vn -0 -0.9770872 0.21283963
vn -0 -0.9770872 0.21283963
vn -0 -0.9770872 0.21283963
vn -0 -0.9770872 0.21283963
vn -1 0 0
vn -1 0 0
vn -1 0 0
vn -1 0 0
vn -0 1 0
vn -0 1 0
vn -0 1 0
vn -0 1 0
vn 1 0 0
vn 1 0 0
vn 1 0 0
vn 1 0 0
vn -0 -1 0
vn -0 -1 0
vn -0 -1 0
vn -0 -1 0
vn -0 0 -1
vn -0 0 -1
vn -0 0 -1
vn -0 0 -1
vn -0 0 1
vn -0 0 1
vn -0 0 1
vn -0 0 1
vn -1 0 0
vn -1 0 0
vn -1 0 0
vn -1 0 0
vn -0 1 0
vn -0 1 0
vn -0 1 0
vn -0 1 0
vn 1 0 0
vn 1 0 0
vn 1 0 0
vn 1 0 0
vn -0 -1 0
vn -0 -1 0
vn -0 -1 0
vn -0 -1 0
vn -0 0 -1
vn -0 0 -1
vn -0 0 -1
vn -0 0 -1
vn -0 0 1
vn -0 0 1
vn -0 0 1
vn -0 0 1
vn -1 0 0
vn -1 0 0
vn -1 0 0
vn -1 0 0
vn -0 1 0
vn -0 1 0
vn -0 1 0
vn -0 1 0
vn 1 0 0
vn 1 0 0
vn 1 0 0
vn 1 0 0
vn -0 -1 0
vn -0 -1 0
vn -0 -1 0
vn -0 -1 0
vn -0 0 -1
vn -0 0 -1
vn -0 0 -1
vn -0 0 -1
vn -0 0 1
vn -0 0 1
vn -0 0 1
vn -0 0 1
vn -1 0 0
vn -1 0 0
vn -1 0 0
vn -1 0 0
vn -0 1 0
vn -0 1 0
vn -0 1 0
vn -0 1 0
vn 1 0 0
vn 1 0 0
vn 1 0 0
vn 1 0 0
vn -0 -1 0
vn -0 -1 0
vn -0 -1 0
vn -0 -1 0
vn -0 0 -1
vn -0 0 -1
vn -0 0 -1
vn -0 0 -1
vn -0 0 1
vn -0 0 1
vn -0 0 1
vn -0 0 1
vn -1 0 0
vn -1 0 0
vn -1 0 0
vn -1 0 0
vn -0 1 0
vn -0 1 0
vn -0 1 0
vn -0 1 0
vn 1 0 0
vn 1 0 0
vn 1 0 0
vn 1 0 0
vn -0 -1 0
vn -0 -1 0
vn -0 -1 0
vn -0 -1 0
vn -0 0 -1
vn -0 0 -1
vn -0 0 -1
vn -0 0 -1
vn -0 0 1
vn -0 0 1
vn -0 0 1
vn -0 0 1
vn -1 0 0
vn -1 0 0
vn -1 0 0
vn -1 0 0
vn -0 1 0
vn -0 1 0
vn -0 1 0
vn -0 1 0
vn 1 0 0
vn 1 0 0
vn 1 0 0
vn 1 0 0
vn -0 -1 0
vn -0 -1 0
vn -0 -1 0
vn -0 -1 0
vn -0 0 -1
vn -0 0 -1
vn -0 0 -1
vn -0 0 -1
vn -0 0 1
vn -0 0 1
vn -0 0 1
vn -0 0 1
vn -1 0 0
vn -1 0 0
vn -1 0 0
vn -1 0 0
vn -0 1 0
vn -0 1 0
vn -0 1 0
vn -0 1 0
vn 1 0 0
vn 1 0 0
vn 1 0 0
vn 1 0 0
vn -0 -1 0
vn -0 -1 0
vn -0 -1 0
vn -0 -1 0
vn -0 0 -1
vn -0 0 -1
vn -0 0 -1
vn -0 0 -1
vn -0 0 1
vn -0 0 1
vn -0 0 1
vn -0 0 1
g Stairs_0
f 3/3/3 2/2/2 1/1/1
f 4/4/4 3/3/3 1/1/1
f 7/7/7 6/6/6 5/5/5
f 8/8/8 7/7/7 5/5/5
f 11/11/11 10/10/10 9/9/9
f 12/12/12 11/11/11 9/9/9
f 15/15/15 14/14/14 13/13/13
f 16/16/16 15/15/15 13/13/13
f 19/19/19 18/18/18 17/17/17
f 20/20/20 19/19/19 17/17/17
f 23/23/23 22/22/22 21/21/21
f 24/24/24 23/23/23 21/21/21
f 27/27/27 26/26/26 25/25/25
f 28/28/28 27/27/27 25/25/25
f 31/31/31 30/30/30 29/29/29
f 32/32/32 31/31/31 29/29/29
f 35/35/35 34/34/34 33/33/33
f 36/36/36 35/35/35 33/33/33
f 39/39/39 38/38/38 37/37/37
f 40/40/40 39/39/39 37/37/37
f 43/43/43 42/42/42 41/41/41
f 44/44/44 43/43/43 41/41/41
f 47/47/47 46/46/46 45/45/45
f 48/48/48 47/47/47 45/45/45
f 51/51/51 50/50/50 49/49/49
f 52/52/52 51/51/51 49/49/49
f 55/55/55 54/54/54 53/53/53
f 56/56/56 55/55/55 53/53/53
f 59/59/59 58/58/58 57/57/57
f 60/60/60 59/59/59 57/57/57
f 63/63/63 62/62/62 61/61/61
f 64/64/64 63/63/63 61/61/61
f 67/67/67 66/66/66 65/65/65
f 68/68/68 67/67/67 65/65/65
f 71/71/71 70/70/70 69/69/69
f 72/72/72 71/71/71 69/69/69
f 75/75/75 74/74/74 73/73/73
f 76/76/76 75/75/75 73/73/73
f 79/79/79 78/78/78 77/77/77
f 80/80/80 79/79/79 77/77/77
f 83/83/83 82/82/82 81/81/81
f 84/84/84 83/83/83 81/81/81
f 87/87/87 86/86/86 85/85/85
f 88/88/88 87/87/87 85/85/85
f 91/91/91 90/90/90 89/89/89
f 92/92/92 91/91/91 89/89/89
f 95/95/95 94/94/94 93/93/93
f 96/96/96 95/95/95 93/93/93
f 99/99/99 98/98/98 97/97/97
f 100/100/100 99/99/99 97/97/97
f 103/103/103 102/102/102 101/101/101
f 104/104/104 103/103/103 101/101/101
f 107/107/107 106/106/106 105/105/105
f 108/108/108 107/107/107 105/105/105
f 111/111/111 110/110/110 109/109/109
f 112/112/112 111/111/111 109/109/109
f 115/115/115 114/114/114 113/113/113
f 116/116/116 115/115/115 113/113/113
f 119/119/119 118/118/118 117/117/117
f 120/120/120 119/119/119 117/117/117
f 123/123/123 122/122/122 121/121/121
f 124/124/124 123/123/123 121/121/121
f 127/127/127 126/126/126 125/125/125
f 128/128/128 127/127/127 125/125/125
f 131/131/131 130/130/130 129/129/129
f 132/132/132 131/131/131 129/129/129
f 135/135/135 134/134/134 133/133/133
f 136/136/136 135/135/135 133/133/133
f 139/139/139 138/138/138 137/137/137
f 140/140/140 139/139/139 137/137/137
f 143/143/143 142/142/142 141/141/141
f 144/144/144 143/143/143 141/141/141
f 147/147/147 146/146/146 145/145/145
f 148/148/148 147/147/147 145/145/145
f 151/151/151 150/150/150 149/149/149
f 152/152/152 151/151/151 149/149/149
f 155/155/155 154/154/154 153/153/153
f 156/156/156 155/155/155 153/153/153
f 159/159/159 158/158/158 157/157/157
f 160/160/160 159/159/159 157/157/157
f 163/163/163 162/162/162 161/161/161
f 164/164/164 163/163/163 161/161/161
f 167/167/167 166/166/166 165/165/165
f 168/168/168 167/167/167 165/165/165
f 171/171/171 170/170/170 169/169/169
f 172/172/172 171/171/171 169/169/169
f 175/175/175 174/174/174 173/173/173
f 176/176/176 175/175/175 173/173/173
f 179/179/179 178/178/178 177/177/177
f 180/180/180 179/179/179 177/177/177
f 183/183/183 182/182/182 181/181/181
f 184/184/184 183/183/183 181/181/181
f 187/187/187 186/186/186 185/185/185
f 188/188/188 187/187/187 185/185/185
f 191/191/191 190/190/190 189/189/189
f 192/192/192 191/191/191 189/189/189
f 195/195/195 194/194/194 193/193/193
f 196/196/196 195/195/195 193/193/193
f 199/199/199 198/198/198 197/197/197
f 200/200/200 199/199/199 197/197/197
f 203/203/203 202/202/202 201/201/201
f 204/204/204 203/203/203 201/201/201
f 207/207/207 206/206/206 205/205/205
f 208/208/208 207/207/207 205/205/205
f 211/211/211 210/210/210 209/209/209
f 212/212/212 211/211/211 209/209/209
f 215/215/215 214/214/214 213/213/213
f 216/216/216 215/215/215 213/213/213
f 219/219/219 218/218/218 217/217/217
f 220/220/220 219/219/219 217/217/217
f 223/223/223 222/222/222 221/221/221
f 224/224/224 223/223/223 221/221/221
f 227/227/227 226/226/226 225/225/225
f 228/228/228 227/227/227 225/225/225
f 231/231/231 230/230/230 229/229/229
f 232/232/232 231/231/231 229/229/229
f 235/235/235 234/234/234 233/233/233
f 236/236/236 235/235/235 233/233/233
f 239/239/239 238/238/238 237/237/237
f 240/240/240 239/239/239 237/237/237
