g WoodPiece
v -0.17619355 -0.021299293 1.2534348
v -0.08926046 0.18105839 1.3342205
v -0.07060287 -0.21156614 1.3342205
v -0.21845298 -1.0029972E-05 -1.1548966
v -0.09271977 -0.2589423 -1.2641582
v -0.09271977 0.2589222 -1.2641582
v 0.13251798 0.31311053 -1.2077546
v 0.14480883 0.33656865 -0.4355045
v -0.0987607 0.29015264 -0.4355045
v -0.09271977 0.2589222 -1.2641582
v -0.09271977 -0.2589423 -1.2641582
v -0.1190659 -0.26497504 -0.4355044
v 0.12025423 -0.3347338 -0.4355044
v 0.13251798 -0.3131306 -1.2077545
v 0.14480883 0.33656865 -0.4355045
v 0.14405887 0.3160656 0.5233579
v -0.08463223 0.27248487 0.5233579
v -0.0987607 0.29015264 -0.4355045
v -0.1190659 -0.26497504 -0.4355044
v 0.12100419 -0.31423044 0.52335805
v 0.12025423 -0.3347338 -0.4355044
v -0.103697084 -0.24873285 0.52335805
v 0.14623621 -0.2897626 1.2989091
v -0.07060287 -0.21156614 1.3342205
v -0.21845298 -1.0029972E-05 -1.1548966
v -0.1190659 -0.26497504 -0.4355044
v -0.09271977 -0.2589423 -1.2641582
v -0.23458152 0.018663561 -0.435781
v -0.103697084 -0.24873285 0.52335805
v -0.21981755 0.01795003 0.5254154
v -0.09271977 0.2589222 -1.2641582
v -0.0987607 0.29015264 -0.4355045
v -0.23458152 0.018663561 -0.435781
v -0.21845298 -1.0029972E-05 -1.1548966
v -0.08463223 0.27248487 0.5233579
v -0.08926046 0.18105839 1.3342205
v -0.17619355 -0.021299293 1.2534348
v -0.21981755 0.01795003 0.5254154
v -0.0987607 0.29015264 -0.4355045
v -0.08463223 0.27248487 0.5233579
v -0.21981755 0.01795003 0.5254154
v -0.23458152 0.018663561 -0.435781
v 0.14405887 0.3160656 0.5233579
v 0.118878484 0.28594396 1.2989091
v -0.08926046 0.18105839 1.3342205
v -0.08463223 0.27248487 0.5233579
v -0.21981755 0.01795003 0.5254154
v -0.17619355 -0.021299293 1.2534348
v -0.07060287 -0.21156614 1.3342205
v -0.103697084 -0.24873285 0.52335805
v 0.14623621 -0.2897626 1.2989091
v -0.07060287 -0.21156614 1.3342205
v -0.08926046 0.18105839 1.3342205
v 0.118878484 0.28594396 1.2989091
v 0.13251798 -0.3131306 -1.2077545
v 0.13251798 0.31311053 -1.2077546
v -0.09271977 0.2589222 -1.2641582
v -0.09271977 -0.2589423 -1.2641582
v 0.12100419 -0.31423044 0.52335805
v 0.14623621 -0.2897626 1.2989091
v 0.118878484 0.28594396 1.2989091
v 0.14405887 0.3160656 0.5233579
v 0.12025423 -0.3347338 -0.4355044
v 0.14480883 0.33656865 -0.4355045
v 0.13251798 0.31311053 -1.2077546
v 0.13251798 -0.3131306 -1.2077545
vt 0.5315317 0.31956995
vt 0.55618465 0.36542886
vt 0.55618465 0.2743916
vt 0.35952067 0.06311642
vt 0.45358104 0.035134867
vt 0.2985624 0.036597863
vt 0.60536444 0.090648666
vt 0.5991143 0.2594775
vt 0.6695107 0.2597415
vt 0.6713147 0.07860167
vt 0.71875083 0.64721954
vt 0.7171281 0.46601164
vt 0.67131484 0.46591938
vt 0.6783987 0.63475037
vt 0.5991143 0.2594775
vt 0.5991195 0.46931612
vt 0.66521573 0.46956402
vt 0.6695107 0.2597415
vt 0.7171281 0.46601164
vt 0.67295694 0.25608563
vt 0.67131484 0.46591938
vt 0.7159717 0.2561723
vt 0.6734816 0.08629991
vt 0.71875083 0.07860167
vt 0.35952067 0.06311642
vt 0.45358098 0.24404667
vt 0.45358104 0.035134867
vt 0.35326236 0.24449654
vt 0.4527477 0.48596287
vt 0.35742873 0.48695195
vt 0.2985624 0.036597863
vt 0.2901172 0.24566446
vt 0.35326236 0.24449654
vt 0.35952067 0.06311642
vt 0.29926914 0.48748177
vt 0.3276921 0.6917182
vt 0.37650022 0.67055976
vt 0.35742873 0.48695195
vt 0.4616565 0.0515192
vt 0.46304286 0.2736569
vt 0.5207472 0.2743916
vt 0.5207472 0.051766947
vt 0.5991195 0.46931612
vt 0.6068226 0.63910246
vt 0.67131484 0.6473261
vt 0.66521573 0.46956402
vt 0.35742873 0.48695195
vt 0.37650022 0.67055976
vt 0.44771057 0.6906545
vt 0.4527477 0.48596287
vt 0.58568674 0.0515192
vt 0.5207472 0.071993515
vt 0.5207472 0.16303079
vt 0.58568674 0.18500744
vt 0.5315317 0.4194336
vt 0.5315317 0.2743916
vt 0.4616565 0.286942
vt 0.4616565 0.40688318
vt 0.07672151 0.47178304
vt 0.08488243 0.6674047
vt 0.27338076 0.66740465
vt 0.28339422 0.47178316
vt 0.069998614 0.22992383
vt 0.2901172 0.22992389
vt 0.28236055 0.035134897
vt 0.07714742 0.035134867
vn -0.641422 -0.030480597 0.76658255
vn -0.641422 -0.030480597 0.76658255
vn -0.641422 -0.030480597 0.76658255
vn -0.6559345 0 -0.75481796
vn -0.6559345 0 -0.75481796
vn -0.6559345 0 -0.75481796
vn -0.2059561 0.97801787 -0.032606047
vn -0.2059561 0.97801787 -0.032606047
vn -0.2059561 0.97801787 -0.032606047
vn -0.2059561 0.97801787 -0.032606047
vn -0.25513184 -0.96663654 -0.022839941
vn -0.25513184 -0.96663654 -0.022839941
vn -0.25513184 -0.96663654 -0.022839941
vn -0.25513184 -0.96663654 -0.022839941
vn -0.18715642 0.9821087 0.020853754
vn -0.18715642 0.9821087 0.020853754
vn -0.18715642 0.9821087 0.020853754
vn -0.18715642 0.9821087 0.020853754
vn -0.27978113 -0.95983964 0.020743135
vn -0.27978113 -0.95983964 0.020743135
vn -0.27978113 -0.95983964 0.020743135
vn -0.27978113 -0.95983964 0.020743135
vn -0.30561712 -0.95093465 0.04818158
vn -0.30561712 -0.95093465 0.04818158
vn -0.9151478 -0.40252724 -0.021826448
vn -0.9151478 -0.40252724 -0.021826448
vn -0.9151478 -0.40252724 -0.021826448
vn -0.9151478 -0.40252724 -0.021826448
vn -0.92151916 -0.38793403 0.01759948
vn -0.92151916 -0.38793403 0.01759948
vn -0.8987483 0.43763408 -0.026983663
vn -0.8987483 0.43763408 -0.026983663
vn -0.8987483 0.43763408 -0.026983663
vn -0.8987483 0.43763408 -0.026983663
vn -0.90175 0.42818335 0.05921027
vn -0.90175 0.42818335 0.05921027
vn -0.90175 0.42818335 0.05921027
vn -0.90175 0.42818335 0.05921027
vn -0.8887933 0.45796406 0.017758513
vn -0.8887933 0.45796406 0.017758513
vn -0.8887933 0.45796406 0.017758513
vn -0.8887933 0.45796406 0.017758513
vn -0.31625262 0.94633687 0.066564225
vn -0.31625262 0.94633687 0.066564225
vn -0.31625262 0.94633687 0.066564225
vn -0.31625262 0.94633687 0.066564225
vn -0.9017857 -0.42989928 0.04437513
vn -0.9017857 -0.42989928 0.04437513
vn -0.9017857 -0.42989928 0.04437513
vn -0.9017857 -0.42989928 0.04437513
vn 0.16345239 0.0077673905 0.98652065
vn 0.16345239 0.0077673905 0.98652065
vn 0.16345239 0.0077673905 0.98652065
vn 0.16345239 0.0077673905 0.98652065
vn 0.24291788 0 -0.9700468
vn 0.24291788 0 -0.9700468
vn 0.24291788 0 -0.9700468
vn 0.24291788 0 -0.9700468
vn 0.9999937 0.0035679734 -2.0279575E-05
vn 0.9999937 0.0035679734 -2.0279575E-05
vn 0.9999937 0.0035679734 -2.0279575E-05
vn 0.9999937 0.0035679734 -2.0279575E-05
vn 0.99933165 -0.036553107 0
vn 0.99933165 -0.036553107 0
vn 0.999821 -0.01892052 5.1813186E-06
vn 0.999821 -0.01892052 5.1813186E-06
g WoodPiece_0
f 3/3/3 2/2/2 1/1/1
f 6/6/6 5/5/5 4/4/4
f 9/9/9 8/8/8 7/7/7
f 10/10/10 9/9/9 7/7/7
f 13/13/13 12/12/12 11/11/11
f 14/14/14 13/13/13 11/11/11
f 17/17/17 16/16/16 15/15/15
f 18/18/18 17/17/17 15/15/15
f 21/21/21 20/20/20 19/19/19
f 20/20/20 22/22/22 19/19/19
f 20/20/20 23/23/23 22/22/22
f 23/23/23 24/24/24 22/22/22
f 27/27/27 26/26/26 25/25/25
f 26/26/26 28/28/28 25/25/25
f 26/26/26 29/29/29 28/28/28
f 29/29/29 30/30/30 28/28/28
f 33/33/33 32/32/32 31/31/31
f 34/34/34 33/33/33 31/31/31
f 37/37/37 36/36/36 35/35/35
f 38/38/38 37/37/37 35/35/35
f 41/41/41 40/40/40 39/39/39
f 42/42/42 41/41/41 39/39/39
f 45/45/45 44/44/44 43/43/43
f 46/46/46 45/45/45 43/43/43
f 49/49/49 48/48/48 47/47/47
f 50/50/50 49/49/49 47/47/47
f 53/53/53 52/52/52 51/51/51
f 54/54/54 53/53/53 51/51/51
f 57/57/57 56/56/56 55/55/55
f 58/58/58 57/57/57 55/55/55
f 61/61/61 60/60/60 59/59/59
f 62/62/62 61/61/61 59/59/59
f 62/62/62 59/59/59 63/63/63
f 64/64/64 62/62/62 63/63/63
f 65/65/65 64/64/64 63/63/63
f 66/66/66 65/65/65 63/63/63
