g _SteeringWheel_4
v 3.733365 -0.5345923 5.227519
v 3.70932 -0.5649015 5.247365
v 3.775845 -0.6063048 5.217103
v 3.716375 -0.6477081 5.259584
v 3.745585 -0.6780173 5.248684
v 3.782901 -0.6891112 5.229322
v 3.818332 -0.6780173 5.206683
v 4.063231 -0.9243076 5.666835
v 4.040093 -0.9286844 5.674748
v 4.057679 -0.8960203 5.705208
v 4.012882 -0.9123529 5.710761
v 4.016108 -0.8960202 5.729209
v 4.269103 -0.2897077 5.423109
v 4.281392 -0.306604 5.436557
v 4.257462 -0.2801698 5.468687
v 4.233535 -0.2537349 5.500824
v 4.227656 -0.243922 5.478763
v 4.229764 -0.243821 5.45401
v 4.239292 -0.2534596 5.433188
v 3.680715 -0.3488304 5.77444
v 3.683922 -0.327508 5.762095
v 3.724535 -0.3337214 5.786911
v 3.719204 -0.2951269 5.75887
v 3.741829 -0.292743 5.768862
v 3.817276 -0.5242661 5.506962
v 3.825816 -0.5415394 5.522648
v 3.861098 -0.5091586 5.519423
v 3.855772 -0.4705628 5.491388
v 3.83457 -0.4832878 5.488914
vt -0.04376328 -0.07577688
vt -0.07579052 -0.04374962
vt -1.325811E-05 3.860502E-07
vt -0.07579052 0.04375041
vt -0.04376328 0.07577761
vt -1.325429E-05 0.08750037
vt 0.04373672 0.0757776
vt 0.02500382 -0.04330471
vt 3.825438E-06 -0.05000344
vt 3.826035E-06 -3.43852E-06
vt -0.04329744 -0.02500345
vt -0.04999617 -3.43852E-06
vt -0.02499617 -0.04330471
vt -0.04329744 -0.02500345
vt 3.826035E-06 -3.43852E-06
vt 0.0433051 0.02499657
vt 0.05000383 -3.442892E-06
vt 0.0433051 -0.02500344
vt 0.02500382 -0.04330471
vt 0.02500382 -0.04330471
vt 3.825438E-06 -0.05000344
vt 3.826035E-06 -3.43852E-06
vt -0.04329744 -0.02500345
vt -0.04999617 -3.43852E-06
vt -0.02500382 -0.04330471
vt -0.0433051 -0.02500344
vt -3.826035E-06 -3.43852E-06
vt 0.04329744 -0.02500345
vt 0.02499617 -0.04330471
vn -0.49289623 -0.16797942 -0.8537191
vn -0.49289623 -0.16797942 -0.8537191
vn -0.49289623 -0.16797942 -0.8537191
vn -0.49289623 -0.16797942 -0.8537191
vn -0.49289623 -0.16797942 -0.8537191
vn -0.49289623 -0.16797942 -0.8537191
vn -0.49289623 -0.16797942 -0.8537191
vn 0.3402885 -0.73271024 0.58935523
vn 0.34018007 -0.73274463 0.58937484
vn 0.34024355 -0.73274326 0.58934003
vn 0.34021813 -0.7327874 0.5892998
vn 0.34025148 -0.7327434 0.5893354
vn 0.7798325 0.6221756 0.06898397
vn 0.7798511 0.62215286 0.068978965
vn 0.77986974 0.62213403 0.068937786
vn 0.7798954 0.62210315 0.06892587
vn 0.7798921 0.6221064 0.068934545
vn 0.77990234 0.6220953 0.06891826
vn 0.7798904 0.62211096 0.06891177
vn -0.39274815 0.5043705 0.76899886
vn -0.39269692 0.50441873 0.7689934
vn -0.39266795 0.5043942 0.7690244
vn -0.39275715 0.5044361 0.7689513
vn -0.39260337 0.5044045 0.76905054
vn 0.3925809 -0.50437707 -0.7690799
vn 0.3925806 -0.504377 -0.76908016
vn 0.39259788 -0.50438887 -0.7690636
vn 0.39257073 -0.50443 -0.76905054
vn 0.3925554 -0.5044282 -0.7690594
g _SteeringWheel_4_0
f 3/3/3 2/2/2 1/1/1
f 3/3/3 5/5/5 4/4/4
f 3/3/3 6/6/6 5/5/5
f 3/3/3 7/7/7 6/6/6
f 10/10/10 9/9/9 8/8/8
f 10/10/10 12/12/12 11/11/11
f 15/15/15 14/14/14 13/13/13
f 15/15/15 17/17/17 16/16/16
f 15/15/15 18/18/18 17/17/17
f 15/15/15 19/19/19 18/18/18
f 22/22/22 21/21/21 20/20/20
f 22/22/22 24/24/24 23/23/23
f 27/27/27 26/26/26 25/25/25
f 27/27/27 29/29/29 28/28/28
