g Air_baloon_01
v 0.0075852294 -0.023207854 0.019953584
v -0.01566014 -0.015073261 0.022979094
v 0.007910041 -0.0030876116 0.031021276
v 0.00037492 -0.018695615 -0.025743512
v 0.023748748 -0.012803242 -0.01985056
v -0.0018623577 0.009614854 -0.031201286
v 0.014100481 0.022857735 -0.018712765
v 0.030905444 0.0034357558 -0.0037314736
v 0.023970917 0.020232571 0.011553217
v -0.0133509645 0.008117631 0.027172053
v -0.029349918 0.0047920085 0.0116856275
v -0.019627687 0.023409398 0.0066528507
v -0.028175367 -0.016519127 -0.005207713
v -0.016643526 -0.0074908542 -0.02542814
v -0.025654657 0.011610427 -0.01427424
v 0.027062701 -0.010515267 0.012987421
v 0.0075852294 -0.023207854 0.019953584
v 0.007910041 -0.0030876116 0.031021276
v -0.0041876445 -0.030335397 -0.00896912
v 0.023748748 -0.012803242 -0.01985056
v 0.00037492 -0.018695615 -0.025743512
v 0.023970917 0.020232571 0.011553217
v -0.0005042534 0.030051315 0.007008253
v 0.014100481 0.022857735 -0.018712765
v -0.016643526 -0.0074908542 -0.02542814
v -0.0018623577 0.009614854 -0.031201286
v -0.025654657 0.011610427 -0.01427424
v 0.027062701 -0.010515267 0.012987421
v 0.007910041 -0.0030876116 0.031021276
v 0.023970917 0.020232571 0.011553217
v 0.023970917 0.020232571 0.011553217
v -0.0023430805 0.020470943 0.024554018
v -0.0005042534 0.030051315 0.007008253
v -0.025654657 0.011610427 -0.01427424
v -0.0018623577 0.009614854 -0.031201286
v -0.012146487 0.02728546 -0.009824892
v -0.029349918 0.0047920085 0.0116856275
v -0.025654657 0.011610427 -0.01427424
v -0.019627687 0.023409398 0.0066528507
v 0.023748748 -0.012803242 -0.01985056
v 0.030905444 0.0034357558 -0.0037314736
v 0.014100481 0.022857735 -0.018712765
v 0.023748748 -0.012803242 -0.01985056
v 0.014010065 -0.02779775 0.0038280424
v 0.027062701 -0.010515267 0.012987421
v -0.029349918 0.0047920085 0.0116856275
v -0.028175367 -0.016519127 -0.005207713
v -0.025654657 0.011610427 -0.01427424
v -0.010126911 -0.02732357 0.010148606
v -0.028175367 -0.016519127 -0.005207713
v -0.01566014 -0.015073261 0.022979094
v -0.01566014 -0.015073261 0.022979094
v -0.028175367 -0.016519127 -0.005207713
v -0.029349918 0.0047920085 0.0116856275
v -0.01566014 -0.015073261 0.022979094
v -0.029349918 0.0047920085 0.0116856275
v -0.0133509645 0.008117631 0.027172053
v 0.007910041 -0.0030876116 0.031021276
v -0.01566014 -0.015073261 0.022979094
v -0.0133509645 0.008117631 0.027172053
v 0.023970917 0.020232571 0.011553217
v 0.007910041 -0.0030876116 0.031021276
v -0.0023430805 0.020470943 0.024554018
v 0.023748748 -0.012803242 -0.01985056
v 0.014100481 0.022857735 -0.018712765
v -0.0018623577 0.009614854 -0.031201286
v -0.0018623577 0.009614854 -0.031201286
v 0.014100481 0.022857735 -0.018712765
v -0.012146487 0.02728546 -0.009824892
v 0.030905444 0.0034357558 -0.0037314736
v 0.027062701 -0.010515267 0.012987421
v 0.023970917 0.020232571 0.011553217
v 0.023748748 -0.012803242 -0.01985056
v 0.027062701 -0.010515267 0.012987421
v 0.030905444 0.0034357558 -0.0037314736
v -0.016643526 -0.0074908542 -0.02542814
v 0.00037492 -0.018695615 -0.025743512
v -0.0018623577 0.009614854 -0.031201286
v 0.0075852294 -0.023207854 0.019953584
v -0.010126911 -0.02732357 0.010148606
v -0.01566014 -0.015073261 0.022979094
v -0.0041876445 -0.030335397 -0.00896912
v 0.014010065 -0.02779775 0.0038280424
v 0.023748748 -0.012803242 -0.01985056
v -0.0005042534 0.030051315 0.007008253
v -0.012146487 0.02728546 -0.009824892
v 0.014100481 0.022857735 -0.018712765
v -0.0023430805 0.020470943 0.024554018
v -0.019627687 0.023409398 0.0066528507
v -0.0005042534 0.030051315 0.007008253
v 0.014010065 -0.02779775 0.0038280424
v -0.0041876445 -0.030335397 -0.00896912
v -0.010126911 -0.02732357 0.010148606
v -0.010126911 -0.02732357 0.010148606
v -0.0041876445 -0.030335397 -0.00896912
v -0.028175367 -0.016519127 -0.005207713
v -0.019627687 0.023409398 0.0066528507
v -0.025654657 0.011610427 -0.01427424
v -0.012146487 0.02728546 -0.009824892
v -0.0005042534 0.030051315 0.007008253
v -0.019627687 0.023409398 0.0066528507
v -0.012146487 0.02728546 -0.009824892
v 0.014010065 -0.02779775 0.0038280424
v 0.0075852294 -0.023207854 0.019953584
v 0.027062701 -0.010515267 0.012987421
v 0.014010065 -0.02779775 0.0038280424
v -0.010126911 -0.02732357 0.010148606
v 0.0075852294 -0.023207854 0.019953584
v 0.007910041 -0.0030876116 0.031021276
v -0.0133509645 0.008117631 0.027172053
v -0.0023430805 0.020470943 0.024554018
v -0.0133509645 0.008117631 0.027172053
v -0.019627687 0.023409398 0.0066528507
v -0.0023430805 0.020470943 0.024554018
v -0.0041876445 -0.030335397 -0.00896912
v 0.00037492 -0.018695615 -0.025743512
v -0.028175367 -0.016519127 -0.005207713
v -0.016643526 -0.0074908542 -0.02542814
vt 0.076720834 0.07416779
vt 0.076720834 0.12416774
vt 0.076720834 0.12416774
vt 0.12672085 0.12416774
vt 0.076720834 0.12416774
vt 0.076720834 0.12416774
vt 0.12672085 0.12416774
vt 0.076720834 0.07416779
vt 0.076720834 0.07416779
vt 0.12672085 0.12416774
vt 0.076720834 0.12416774
vt 0.076720834 0.12416774
vt 0.12672085 0.12416774
vt 0.076720834 0.12416774
vt 0.076720834 0.07416779
vt 0.12672085 0.12416774
vt 0.076720834 0.07416779
vt 0.076720834 0.12416774
vt 0.12672085 0.12416774
vt 0.076720834 0.12416774
vt 0.12672085 0.12416774
vt 0.076720834 0.07416779
vt 0.076720834 0.12416774
vt 0.12672085 0.12416774
vt 0.076720834 0.12416774
vt 0.076720834 0.12416774
vt 0.076720834 0.07416779
vt 0.12672085 0.12416774
vt 0.076720834 0.12416774
vt 0.076720834 0.07416779
vt 0.076720834 0.07416779
vt 0.076720834 0.12416774
vt 0.076720834 0.12416774
vt 0.076720834 0.07416779
vt 0.076720834 0.12416774
vt 0.076720834 0.12416774
vt 0.076720834 0.12416774
vt 0.076720834 0.07416779
vt 0.076720834 0.12416774
vt 0.076720834 0.12416774
vt 0.076720834 0.07416779
vt 0.12672085 0.12416774
vt 0.076720834 0.12416774
vt 0.076720834 0.12416774
vt 0.12672085 0.12416774
vt 0.076720834 0.12416774
vt 0.12672085 0.12416774
vt 0.076720834 0.07416779
vt 0.12672085 0.12416774
vt 0.12672085 0.12416774
vt 0.076720834 0.12416774
vt 0.076720834 0.12416774
vt 0.12672085 0.12416774
vt 0.076720834 0.12416774
vt 0.076720834 0.12416774
vt 0.076720834 0.12416774
vt 0.12672085 0.12416774
vt 0.076720834 0.12416774
vt 0.076720834 0.12416774
vt 0.12672085 0.12416774
vt 0.076720834 0.07416779
vt 0.076720834 0.12416774
vt 0.076720834 0.12416774
vt 0.076720834 0.12416774
vt 0.12672085 0.12416774
vt 0.076720834 0.12416774
vt 0.076720834 0.12416774
vt 0.12672085 0.12416774
vt 0.076720834 0.12416774
vt 0.076720834 0.07416779
vt 0.12672085 0.12416774
vt 0.076720834 0.07416779
vt 0.076720834 0.12416774
vt 0.12672085 0.12416774
vt 0.076720834 0.07416779
vt 0.076720834 0.12416774
vt 0.12672085 0.12416774
vt 0.076720834 0.12416774
vt 0.076720834 0.07416779
vt 0.12672085 0.12416774
vt 0.076720834 0.12416774
vt 0.12672085 0.12416774
vt 0.076720834 0.12416774
vt 0.076720834 0.12416774
vt 0.076720834 0.12416774
vt 0.076720834 0.12416774
vt 0.12672085 0.12416774
vt 0.076720834 0.12416774
vt 0.076720834 0.12416774
vt 0.076720834 0.12416774
vt 0.076720834 0.12416774
vt 0.12672085 0.12416774
vt 0.12672085 0.12416774
vt 0.12672085 0.12416774
vt 0.12672085 0.12416774
vt 0.12672085 0.12416774
vt 0.076720834 0.12416774
vt 0.076720834 0.07416779
vt 0.076720834 0.12416774
vt 0.076720834 0.12416774
vt 0.076720834 0.12416774
vt 0.076720834 0.12416774
vt 0.076720834 0.12416774
vt 0.076720834 0.07416779
vt 0.12672085 0.12416774
vt 0.076720834 0.12416774
vt 0.12672085 0.12416774
vt 0.076720834 0.07416779
vt 0.076720834 0.12416774
vt 0.12672085 0.12416774
vt 0.076720834 0.12416774
vt 0.12672085 0.12416774
vt 0.076720834 0.12416774
vt 0.076720834 0.12416774
vt 0.12672085 0.12416774
vt 0.12672085 0.12416774
vt 0.12672085 0.12416774
vt 0.076720834 0.12416774
vn -0.05425872 -0.48058817 0.87526625
vn -0.054258715 -0.4805882 0.8752662
vn -0.054258715 -0.48058817 0.87526625
vn 0.27914217 -0.1604573 -0.9467487
vn 0.27914214 -0.16045728 -0.9467487
vn 0.27914217 -0.1604573 -0.9467487
vn 0.8151466 0.5361225 -0.21933678
vn 0.8151466 0.53612256 -0.21933678
vn 0.8151466 0.53612256 -0.2193368
vn -0.65491647 0.4961066 0.570055
vn -0.65491647 0.4961066 0.570055
vn -0.65491647 0.49610662 0.57005507
vn -0.8464203 -0.09314254 -0.5243064
vn -0.8464203 -0.09314255 -0.52430636
vn -0.8464203 -0.09314255 -0.5243064
vn 0.53363186 -0.4142082 0.73733896
vn 0.5336318 -0.41420814 0.73733896
vn 0.5336318 -0.41420814 0.73733896
vn 0.32606313 -0.8159068 -0.4774714
vn 0.32606313 -0.8159068 -0.47747144
vn 0.3260631 -0.8159067 -0.47747144
vn 0.37890723 0.92441696 -0.04338972
vn 0.37890717 0.92441696 -0.043389723
vn 0.37890717 0.92441696 -0.043389723
vn -0.55535775 0.20815569 -0.8051392
vn -0.55535775 0.20815572 -0.8051392
vn -0.55535775 0.20815569 -0.80513906
vn 0.7028221 0.103498735 0.70379627
vn 0.7028221 0.103498735 0.70379627
vn 0.7028221 0.10349874 0.70379627
vn 0.24683347 0.8394144 0.48420736
vn 0.24683344 0.8394144 0.48420736
vn 0.24683344 0.8394144 0.4842073
vn -0.44138113 0.5757313 -0.68827045
vn -0.44138116 0.5757313 -0.68827045
vn -0.44138113 0.5757313 -0.68827045
vn -0.8869504 0.46183828 -0.0049501867
vn -0.8869504 0.46183828 -0.004950187
vn -0.8869504 0.46183828 -0.0049501867
vn 0.7821421 0.23008823 -0.57906234
vn 0.78214204 0.23008825 -0.57906234
vn 0.7821421 0.23008823 -0.57906234
vn 0.8075337 -0.5884296 -0.040496312
vn 0.8075337 -0.5884296 -0.040496312
vn 0.80753374 -0.5884296 -0.04049632
vn -0.9905702 0.047324974 -0.12857282
vn -0.9905702 0.047324974 -0.12857282
vn -0.9905702 0.04732497 -0.12857282
vn -0.6769358 -0.65579295 0.3342058
vn -0.67693585 -0.655793 0.3342058
vn -0.6769358 -0.65579295 0.33420578
vn -0.84605855 -0.35901287 0.39407438
vn -0.84605867 -0.35901287 0.3940744
vn -0.84605867 -0.35901287 0.3940744
vn -0.6874259 -0.06237432 0.72357106
vn -0.6874259 -0.06237432 0.7235711
vn -0.6874259 -0.06237432 0.72357106
vn -0.25115454 -0.14794247 0.9565744
vn -0.25115457 -0.14794247 0.9565744
vn -0.25115454 -0.14794247 0.9565744
vn 0.40839037 0.40262786 0.81921184
vn 0.4083904 0.4026279 0.81921184
vn 0.4083904 0.4026279 0.81921184
vn 0.517924 0.16689579 -0.8389878
vn 0.517924 0.16689579 -0.83898777
vn 0.517924 0.16689578 -0.83898777
vn -0.09874285 0.7431375 -0.661813
vn -0.09874285 0.7431375 -0.6618131
vn -0.09874285 0.7431375 -0.6618131
vn 0.94492006 0.109403 0.30847546
vn 0.94492006 0.10940301 0.30847543
vn 0.94492006 0.109403014 0.3084755
vn 0.93678 -0.34271044 -0.07066
vn 0.93678 -0.3427105 -0.07066001
vn 0.93678 -0.34271044 -0.070659995
vn -0.14864767 -0.19850768 -0.9687613
vn -0.14864765 -0.19850767 -0.9687613
vn -0.14864767 -0.19850765 -0.9687613
vn -0.1790834 -0.7490042 0.6379043
vn -0.1790834 -0.7490042 0.6379043
vn -0.1790834 -0.7490042 0.63790435
vn 0.38262558 -0.84356606 -0.37682083
vn 0.38262558 -0.84356606 -0.37682083
vn 0.3826256 -0.84356606 -0.37682083
vn 0.08896239 0.97118413 -0.22110397
vn 0.08896239 0.97118413 -0.22110397
vn 0.0889624 0.97118413 -0.22110398
vn -0.30304644 0.8494145 0.43203917
vn -0.30304646 0.8494145 0.43203917
vn -0.30304646 0.8494145 0.4320392
vn 0.023202717 -0.98641765 0.1626097
vn 0.02320272 -0.98641765 0.1626097
vn 0.02320272 -0.98641765 0.16260971
vn -0.5012989 -0.8650554 -0.0194557
vn -0.5012989 -0.8650554 -0.019455697
vn -0.5012989 -0.8650554 -0.019455697
vn -0.72209173 0.6705572 -0.17010768
vn -0.7220917 0.67055726 -0.17010768
vn -0.72209173 0.67055726 -0.17010769
vn -0.32843193 0.94174767 0.07241338
vn -0.3284319 0.94174767 0.07241337
vn -0.3284319 0.94174767 0.07241337
vn 0.59580094 -0.67807686 0.43038708
vn 0.5958009 -0.6780769 0.43038705
vn 0.595801 -0.67807686 0.43038708
vn 0.058451083 -0.9537796 0.29476762
vn 0.05845108 -0.9537796 0.2947676
vn 0.058451083 -0.9537796 0.29476762
vn -0.04569022 0.24590789 0.96821576
vn -0.04569022 0.24590789 0.96821576
vn -0.04569022 0.24590789 0.96821576
vn -0.5259096 0.5970179 0.60579586
vn -0.5259096 0.597018 0.60579586
vn -0.5259096 0.59701794 0.6057959
vn -0.4715449 -0.6592383 -0.5857049
vn -0.4715449 -0.6592383 -0.58570504
vn -0.47154486 -0.6592383 -0.5857049
vn -0.4601443 -0.6829256 -0.56734455
g Air_baloon_01_0
f 3/3/3 2/2/2 1/1/1
f 6/6/6 5/5/5 4/4/4
f 9/9/9 8/8/8 7/7/7
f 12/12/12 11/11/11 10/10/10
f 15/15/15 14/14/14 13/13/13
f 18/18/18 17/17/17 16/16/16
f 21/21/21 20/20/20 19/19/19
f 24/24/24 23/23/23 22/22/22
f 27/27/27 26/26/26 25/25/25
f 30/30/30 29/29/29 28/28/28
f 33/33/33 32/32/32 31/31/31
f 36/36/36 35/35/35 34/34/34
f 39/39/39 38/38/38 37/37/37
f 42/42/42 41/41/41 40/40/40
f 45/45/45 44/44/44 43/43/43
f 48/48/48 47/47/47 46/46/46
f 51/51/51 50/50/50 49/49/49
f 54/54/54 53/53/53 52/52/52
f 57/57/57 56/56/56 55/55/55
f 60/60/60 59/59/59 58/58/58
f 63/63/63 62/62/62 61/61/61
f 66/66/66 65/65/65 64/64/64
f 69/69/69 68/68/68 67/67/67
f 72/72/72 71/71/71 70/70/70
f 75/75/75 74/74/74 73/73/73
f 78/78/78 77/77/77 76/76/76
f 81/81/81 80/80/80 79/79/79
f 84/84/84 83/83/83 82/82/82
f 87/87/87 86/86/86 85/85/85
f 90/90/90 89/89/89 88/88/88
f 93/93/93 92/92/92 91/91/91
f 96/96/96 95/95/95 94/94/94
f 99/99/99 98/98/98 97/97/97
f 102/102/102 101/101/101 100/100/100
f 105/105/105 104/104/104 103/103/103
f 108/108/108 107/107/107 106/106/106
f 111/111/111 110/110/110 109/109/109
f 114/114/114 113/113/113 112/112/112
f 117/117/117 116/116/116 115/115/115
f 118/118/118 116/116/116 117/117/117
