g AvocadoHalf02
v -0.02612051 0.01870686 0
v -0.02953345 0.00928191 -0.00709694
v -0.03192987 0.00991058 0
v -0.03197719 -0.00075292995 0
v -0.024294509 0.017214479 -0.00709694
v -0.02208271 0.01085139 -0.0130284
v -0.0152961 0.02346325 0
v -0.029576119 -0.00033454 -0.00709693
v -0.026781289 -0.01050832 1E-08
v -0.014532959 0.02150383 -0.00709694
v -0.0029618999 0.02314773 0
v -0.02489041 -0.0091320295 -0.00709693
v -0.01715741 -0.01591397 1E-08
v -0.02232107 -0.00257274 -0.01302839
v -0.01621151 -0.0140069 -0.00709693
v -0.00559655 -0.01643163 1E-08
v -0.00340987 0.021219289 -0.00709694
v -0.00868763 0.01690845 -0.0130284
v 0.0046698 0.017876199 -0.00709694
v 0.0059975097 0.019440629 0
v 0.00418318 0.01216748 -0.0130284
v 0.011868 0.01214596 -0.00709694
v 0.013979469 0.01308647 0
v 0.01592693 0.0027282499 -0.00709693
v 0.01848034 0.00264333 1E-08
v 0.015211839 -0.0077023 1E-08
v 0.00880005 0.00119981 -0.01302839
v 0.01297937 -0.00660154 -0.00709693
v 0.00633779 -0.01348459 1E-08
v 0.00497668 -0.01181606 -0.00709693
v 0.0017253599 -0.0078604 -0.01302839
v -0.0057858196 -0.01447373 -0.00709693
v -0.01020108 -0.00967024 -0.01302839
v -0.00018304 0.00193577 -0.0165304
v -0.0023031898 0.00731081 -0.0165304
v -0.00308612 -0.0015655699 -0.0165304
v -0.00968425 0.008849639 -0.0165304
v -0.00867277 -0.00235928 -0.0165304
v -0.01427048 0.00504637 -0.0165304
v -0.013367029 -0.00044961 -0.0165304
v -0.01058602 -0.03139255 1E-08
v -0.00559655 -0.01643163 1E-08
v 0.00249244 -0.03070796 1E-08
v 0.014632439 -0.028462159 1E-08
v -0.01715741 -0.01591397 1E-08
v -0.02368632 -0.02800762 1E-08
v -0.033502158 -0.02235465 1E-08
v -0.026781289 -0.01050832 1E-08
v -0.04096278 -0.015172279 1E-08
v 0.00633779 -0.01348459 1E-08
v 0.025552869 -0.025476899 1E-08
v 0.03598275 -0.021936331 1E-08
v -0.03197719 -0.00075292995 0
v -0.045742147 -0.0087354 0
v -0.04890059 -0.00071965996 0
v 0.015211839 -0.0077023 1E-08
v 0.04228382 -0.01767086 0
v 0.047236226 -0.01190485 1E-08
v -0.03192987 0.00991058 0
v 0.01848034 0.00264333 1E-08
v -0.050231416 0.00847502 0
v -0.0475493 0.01720562 0
v -0.04324736 0.02435862 0
v 0.04938097 -0.00329281 1E-08
v 0.04827232 0.00410566 1E-08
v 0.044257678 0.01283067 0
v -0.02612051 0.01870686 0
v -0.03758865 0.029586479 0
v -0.029215818 0.034504868 0
v 0.013979469 0.01308647 0
v 0.03904161 0.01864035 0
v 0.0293839 0.02534296 0
v -0.0152961 0.02346325 0
v -0.01874469 0.0375446 0
v -0.00533633 0.038246147 0
v -0.0029618999 0.02314773 0
v 0.00746424 0.03524444 0
v 0.0059975097 0.019440629 0
v 0.01906849 0.03038331 0
v 0.04827232 0.00410566 1E-08
v 0.04822101 0.0033129 -0.00348061
v 0.04938097 -0.00329281 1E-08
v 0.044257678 0.01283067 0
v 0.04415993 0.01132037 -0.0066309
v 0.03904161 0.01864035 0
v 0.04807726 0.0010915999 -0.0062718396
v 0.03889015 0.01663117 -0.00882776
v 0.0293839 0.02534296 0
v 0.04388608 0.0070885997 -0.01194847
v 0.02919421 0.02282658 -0.01105624
v 0.01906849 0.03038331 0
v 0.04786955 -0.00211825 -0.00782086
v 0.03846576 0.011001579 -0.01590707
v 0.01884883 0.027469529 -0.012802269
v 0.00746424 0.03524444 0
v 0.04349037 0.00097352 -0.014899499
v 0.0286627 0.01577585 -0.01992265
v 0.0072180596 0.031978767 -0.014348429
v -0.00533633 0.038246147 0
v 0.047638997 -0.00568093 -0.00782086
v 0.037852507 0.00286658 -0.01983579
v 0.01823337 0.01930534 -0.02306889
v -0.00559627 0.03479794 -0.015150409
v -0.01874469 0.0375446 0
v 0.04305114 -0.00581371 -0.014899499
v 0.04743128 -0.00889079 -0.0062718396
v 0.027894638 0.00558726 -0.02484313
v 0.00652827 0.022828558 -0.02585498
v -0.01898937 0.03429874 -0.01426137
v -0.029215818 0.034504868 0
v 0.04728754 -0.011112079 -0.00348061
v 0.047236226 -0.01190485 1E-08
v 0.037171848 -0.00616258 -0.01983578
v 0.04265541 -0.011928789 -0.01194847
v 0.04238156 -0.016160559 -0.0066309
v 0.04228382 -0.01767086 0
v 0.0365586 -0.01429756 -0.01590706
v 0.03613421 -0.01992715 -0.00882775
v 0.03598275 -0.021936331 1E-08
v 0.02704215 -0.00572122 -0.02484313
v 0.025742568 -0.022960529 -0.0110562295
v 0.025552869 -0.025476899 1E-08
v 0.02627408 -0.01590981 -0.01992264
v 0.017344018 0.00750774 -0.028766429
v 0.01485209 -0.0255484 -0.01280226
v 0.014632439 -0.028462159 1E-08
v 0.01635691 -0.0055866097 -0.02876642
v 0.01546755 -0.017384209 -0.02306888
v 0.0055314996 0.0096061295 -0.03224063
v 0.00273862 -0.027442278 -0.014348419
v 0.00249244 -0.03070796 1E-08
v 0.00442517 -0.00506966 -0.03224063
v 0.0034283998 -0.01829209 -0.025854968
v -0.0063246097 0.0251363 -0.027300099
v -0.01032608 -0.02794436 -0.0151504
v -0.01058602 -0.03139255 1E-08
v -0.00959774 -0.018282719 -0.02730009
v -0.0073770895 0.011174819 -0.03404266
v -0.00854526 -0.00432125 -0.03404266
v -0.01967497 0.02520405 -0.0256981
v -0.02344163 -0.02476176 -0.01426136
v -0.02368632 -0.02800762 1E-08
v -0.02275603 -0.01566709 -0.025698088
v -0.02066569 0.012061849 -0.032045
v -0.02176531 -0.00252489 -0.032045
v -0.02942806 0.03168944 -0.012370209
v -0.03758865 0.029586479 0
v -0.03328991 -0.01953922 -0.0123702
v -0.033502158 -0.02235465 1E-08
v -0.03269524 -0.0116505595 -0.022290349
v -0.031835888 -0.00025112 -0.02779561
v -0.03002275 0.023800768 -0.022290349
v -0.03775572 0.027370218 -0.0097376
v -0.04324736 0.02435862 0
v -0.030882088 0.012401319 -0.02779561
v -0.040795706 -0.01295603 -0.009737589
v -0.04096278 -0.015172279 1E-08
v -0.040327583 -0.00674622 -0.01754654
v -0.04337089 0.02271994 -0.00719985
v -0.0475493 0.01720562 0
v -0.03822385 0.0211604 -0.01754655
v -0.03890031 0.01218697 -0.021880189
v -0.03965112 0.00222721 -0.02188018
v -0.04561862 -0.0070967297 -0.0071998397
v -0.045742147 -0.0087354 0
v -0.0476162 0.01631804 -0.0038997799
v -0.050231416 0.00847502 0
v -0.04371702 0.01812849 -0.01297368
v -0.04527249 -0.0025052899 -0.01297367
v -0.04421718 0.01149366 -0.01617791
v -0.047803678 0.013831089 -0.00702716
v -0.04477232 0.00412955 -0.01617791
v -0.048074577 0.01023735 -0.00876272
v -0.04837529 0.0062486 -0.00876272
v -0.0486462 0.00265486 -0.00702716
v -0.04883368 0.00016791999 -0.0038997799
v -0.04890059 -0.00071965996 0
vt 0.69915 0.448599
vt 0.759512 0.435702
vt 0.757691 0.420556
vt 0.822779 0.42923
vt 0.706719 0.460992
vt 0.743675 0.479833
vt 0.661037 0.510631
vt 0.818209 0.443525
vt 0.87792 0.469126
vt 0.672348 0.516933
vt 0.652594 0.586136
vt 0.867935 0.479503
vt 0.902806 0.532376
vt 0.825764 0.489663
vt 0.890377 0.536543
vt 0.896246 0.603333
vt 0.664734 0.585024
vt 0.695467 0.556453
vt 0.678336 0.637121
vt 0.667677 0.643905
vt 0.713569 0.638951
vt 0.70724 0.685847
vt 0.699728 0.697936
vt 0.761277 0.718523
vt 0.759649 0.73417
vt 0.825506 0.722928
vt 0.776592 0.676333
vt 0.820667 0.708385
vt 0.868237 0.673656
vt 0.859203 0.663951
vt 0.837806 0.640792
vt 0.884462 0.600533
vt 0.858871 0.569562
vt 0.779653 0.620917
vt 0.748647 0.603466
vt 0.803452 0.606151
vt 0.745464 0.557147
vt 0.812989 0.572739
vt 0.772519 0.532368
vt 0.805286 0.542499
vt 0.991703 0.585472
vt 0.896246 0.603333
vt 0.976533 0.664677
vt 0.952629 0.736844
vt 0.902806 0.532376
vt 0.982066 0.502714
vt 0.955833 0.438085
vt 0.87792 0.469126
vt 0.918291 0.386538
vt 0.868237 0.673656
vt 0.92524 0.80095
vt 0.894875 0.861597
vt 0.822779 0.42923
vt 0.883043 0.351973
vt 0.836801 0.325968
vt 0.825506 0.722928
vt 0.863559 0.896448
vt 0.824223 0.921812
vt 0.757691 0.420556
vt 0.759649 0.73417
vt 0.781832 0.310121
vt 0.72632 0.319144
vt 0.67907 0.339374
vt 0.769886 0.927656
vt 0.725687 0.914674
vt 0.675838 0.882851
vt 0.69915 0.448599
vt 0.642423 0.369498
vt 0.605383 0.416438
vt 0.699728 0.697936
vt 0.644783 0.846149
vt 0.612015 0.781602
vt 0.661037 0.510631
vt 0.578039 0.477758
vt 0.562489 0.55896
vt 0.652594 0.586136
vt 0.57004 0.639568
vt 0.667677 0.643905
vt 0.589939 0.714441
vt 0.574621 0.203402
vt 0.555144 0.212951
vt 0.580373 0.250017
vt 0.551986 0.146067
vt 0.520996 0.172362
vt 0.521515 0.105472
vt 0.5422 0.227485
vt 0.487652 0.146811
vt 0.462971 0.057708
vt 0.502795 0.202205
vt 0.43313 0.117192
vt 0.396758 0.025372
vt 0.535788 0.24452
vt 0.46866 0.187937
vt 0.375578 0.099099
vt 0.318323 0.005305
vt 0.494862 0.233085
vt 0.41736 0.171219
vt 0.311689 0.089531
vt 0.234456 0.005305
vt 0.535745 0.262224
vt 0.460766 0.228128
vt 0.365613 0.162401
vt 0.246892 0.091354
vt 0.154172 0.029687
vt 0.495892 0.263776
vt 0.541924 0.279011
vt 0.411462 0.221607
vt 0.31039 0.158085
vt 0.184079 0.10457
vt 0.097308 0.065384
vt 0.55421 0.293206
vt 0.572308 0.302633
vt 0.462192 0.267475
vt 0.505563 0.293457
vt 0.524534 0.321171
vt 0.554631 0.34521
vt 0.472677 0.306297
vt 0.493419 0.344809
vt 0.527396 0.383155
vt 0.413604 0.270412
vt 0.443272 0.371296
vt 0.475635 0.427254
vt 0.423695 0.31965
vt 0.362755 0.219658
vt 0.389007 0.391911
vt 0.414921 0.461396
vt 0.36543 0.274685
vt 0.373673 0.330929
vt 0.311627 0.218877
vt 0.328509 0.404973
vt 0.343135 0.485653
vt 0.314758 0.277214
vt 0.320013 0.337608
vt 0.255289 0.159909
vt 0.265102 0.408697
vt 0.262931 0.494695
vt 0.265392 0.339747
vt 0.260714 0.220523
vt 0.263965 0.278879
vt 0.201104 0.16683
vt 0.200482 0.40025
vt 0.178919 0.479826
vt 0.21036 0.335551
vt 0.210113 0.223197
vt 0.213111 0.278119
vt 0.135428 0.123695
vt 0.056227 0.107938
vt 0.147466 0.382649
vt 0.11359 0.447461
vt 0.164229 0.326428
vt 0.170289 0.275127
vt 0.157042 0.176226
vt 0.09456 0.147715
vt 0.031518 0.147489
vt 0.167904 0.225883
vt 0.100818 0.357352
vt 0.06285 0.402554
vt 0.12131 0.313179
vt 0.064523 0.172261
vt 0.014459 0.194573
vt 0.117091 0.188421
vt 0.128201 0.229292
vt 0.129675 0.270659
vt 0.066782 0.331279
vt 0.032356 0.359426
vt 0.034878 0.204991
vt 0.005305 0.248932
vt 0.084963 0.201863
vt 0.086876 0.299333
vt 0.09505 0.233635
vt 0.048708 0.221027
vt 0.095773 0.266387
vt 0.055618 0.239961
vt 0.05559 0.259882
vt 0.048482 0.279104
vt 0.034014 0.295629
vt 0.01207 0.306565
vn 0.619676 -0.72062206 0.310975
vn 0.8091291 -0.22749124 0.54180986
vn 0.9042237 -0.2717929 0.32940584
vn 0.91906995 0.224125 0.324158
vn 0.53622305 -0.6657473 0.51888865
vn 0.44633624 -0.3050962 0.84124917
vn 0.19145696 -0.94062877 0.28028893
vn 0.8213638 0.18586226 0.5392744
vn 0.6846351 0.6595311 0.31031203
vn 0.18659604 -0.8473734 0.4971321
vn -0.20034607 -0.94216937 0.2686601
vn 0.5949452 0.6095946 0.52386516
vn 0.27009305 0.9202191 0.28327802
vn 0.4773835 0.26948503 0.8363508
vn 0.25568828 0.82505083 0.5038994
vn -0.09488305 0.9589874 0.26709613
vn -0.1955985 -0.8601881 0.47097522
vn 0.008698264 -0.6037354 0.79713726
vn -0.4377379 -0.76572806 0.47121775
vn -0.4914569 -0.82662284 0.27416193
vn -0.3916583 -0.43557593 0.81047964
vn -0.6887226 -0.5060355 0.51921976
vn -0.7631558 -0.5709269 0.30271393
vn -0.8339094 -0.052401345 0.5494081
vn -0.9402749 -0.042144995 0.33779693
vn -0.7596899 0.5625369 0.32622597
vn -0.51284605 0.054202374 0.8567678
vn -0.67239165 0.5113128 0.53520906
vn -0.3894261 0.87717324 0.28091705
vn -0.35533473 0.8130006 0.46126708
vn -0.26948124 0.5352705 0.8005407
vn -0.08954268 0.88477844 0.45732853
vn 0.08771251 0.6032153 0.7927407
vn -0.23966587 0.041810673 0.9699546
vn -0.1628789 -0.19880034 0.96641034
vn -0.11566872 0.22709532 0.966979
vn 0.054263484 -0.24204862 0.9687455
vn 0.026856503 0.25126368 0.96754605
vn 0.21106805 -0.07095669 0.9748925
vn 0.18235232 0.18201631 0.9662389
vn -0 0 1
vn -0 0 1
vn -0 0 1
vn -0 0 1
vn -0 0 1
vn -0 0 1
vn -0 0 1
vn -0 0 1
vn -0 0 1
vn -0 0 1
vn -0 0 1
vn -0 0 1
vn -0 0 1
vn -0 0 1
vn -0 0 1
vn -0 0 1
vn -0 0 1
vn -0 0 1
vn -0 0 1
vn -0 0 1
vn -0 0 1
vn -0 0 1
vn -0 0 1
vn -0 0 1
vn -0 0 1
vn -0 0 1
vn -0 0 1
vn -0 0 1
vn -0 0 1
vn -0 0 1
vn -0 0 1
vn -0 0 1
vn -0 0 1
vn -0 0 1
vn -0 0 1
vn -0 0 1
vn -0 0 1
vn -0 0 1
vn -0 0 1
vn 0.9494652 0.30271408 -0.08294501
vn 0.94953823 0.2685976 -0.16196476
vn 0.9905019 -0.046685994 -0.12933098
vn 0.8183635 0.5576203 -0.13907109
vn 0.81940603 0.5061283 -0.26908696
vn 0.64329624 0.7441444 -0.18005307
vn 0.94019955 0.16843478 -0.29606488
vn 0.64383435 0.67990816 -0.35100186
vn 0.49174118 0.8471653 -0.20125006
vn 0.7990385 0.34231037 -0.49432877
vn 0.4921296 0.7780683 -0.39040774
vn 0.40244204 0.89110005 -0.20971702
vn 0.9258376 0.018586554 -0.37746423
vn 0.6150581 0.4619116 -0.6390158
vn 0.40230355 0.8192564 -0.4086207
vn 0.29854196 0.9294769 -0.21666896
vn 0.76767504 0.09439548 -0.63384897
vn 0.4641368 0.5330196 -0.707437
vn 0.2965247 0.85685736 -0.42174456
vn 0.08642501 0.971094 -0.222502
vn 0.90856 -0.15592311 -0.38756526
vn 0.5725974 0.13886127 -0.80799115
vn 0.37621593 0.5604018 -0.73784244
vn 0.07928961 0.8973345 -0.43417028
vn -0.15898794 0.96324867 -0.21650593
vn 0.7300623 -0.19749296 -0.6542213
vn 0.89164454 -0.32157964 -0.31867954
vn 0.42290783 0.17402226 -0.88930595
vn 0.27043167 0.58938754 -0.7612418
vn -0.17349985 0.8900205 -0.4216175
vn -0.38059223 0.9030755 -0.19900814
vn 0.8791283 -0.44127318 -0.18003152
vn 0.87035596 -0.48275 -0.097124
vn 0.5241376 -0.23020653 -0.8199297
vn 0.69333225 -0.4769221 -0.5402183
vn 0.66604495 -0.6802361 -0.30604407
vn 0.64746183 -0.74517184 -0.15972495
vn 0.47933728 -0.57177985 -0.66581047
vn 0.44781923 -0.81283754 -0.37249568
vn 0.42825213 -0.8826882 -0.19355007
vn 0.37602845 -0.23121382 -0.8972975
vn 0.30222908 -0.8630137 -0.40480244
vn 0.28484592 -0.93571675 -0.20807895
vn 0.332752 -0.60257334 -0.72538364
vn 0.33830264 0.18436451 -0.92280066
vn 0.23084894 -0.88057745 -0.41387445
vn 0.21620792 -0.95279765 -0.21314493
vn 0.2959467 -0.23551792 -0.92571425
vn 0.2575536 -0.6160652 -0.74439895
vn 0.23252806 0.20127611 -0.9515349
vn 0.12513013 -0.8959306 -0.42620504
vn 0.11280494 -0.96925753 -0.21866588
vn 0.1901934 -0.2316689 -0.954021
vn 0.15183438 -0.62363297 -0.76683
vn 0.053102925 0.62075686 -0.78220266
vn -0.09027722 -0.89663494 -0.43346944
vn -0.097096056 -0.9700955 -0.22245713
vn -0.06424179 -0.62078464 -0.7813446
vn 0.01532007 0.22122999 -0.97510135
vn -0.026551383 -0.2218732 -0.974714
vn -0.20325838 0.6202134 -0.75764203
vn -0.3626251 -0.8350564 -0.41374367
vn -0.364234 -0.90671295 -0.21261498
vn -0.33412564 -0.5737018 -0.74781424
vn -0.24583344 0.23292309 -0.94091064
vn -0.29255345 -0.19318429 -0.936532
vn -0.39904335 0.83232886 -0.38469884
vn -0.5793701 0.79683506 -0.17141801
vn -0.58383256 -0.7231529 -0.3690386
vn -0.5826589 -0.7902309 -0.18985195
vn -0.5565788 -0.49209133 -0.66937745
vn -0.5164203 -0.15268883 -0.8426127
vn -0.42870393 0.58444256 -0.688941
vn -0.5962838 0.73239875 -0.32869107
vn -0.7584792 0.6381421 -0.13222703
vn -0.4707835 0.23154621 -0.8513221
vn -0.7380252 -0.5969332 -0.3146262
vn -0.7355101 -0.6577801 -0.162328
vn -0.7171077 -0.3998002 -0.5708907
vn -0.7704017 0.58539325 -0.25257844
vn -0.903554 0.420884 -0.08029201
vn -0.6190231 0.5201405 -0.58844227
vn -0.6513082 0.2182424 -0.72675174
vn -0.68630964 -0.11005155 -0.71893513
vn -0.8617705 -0.44417605 -0.24506955
vn -0.859562 -0.4949 -0.127386
vn -0.90931606 0.38710427 -0.15262586
vn -0.98629516 0.076315016 -0.14628004
vn -0.7848566 0.4227793 -0.4530537
vn -0.848085 -0.28965306 -0.4436811
vn -0.8055 0.19044092 -0.5611614
vn -0.91723526 0.28905118 -0.27409664
vn -0.8280626 -0.06378428 -0.55699545
vn -0.9285717 0.1485365 -0.34013468
vn -0.9410197 -0.0057990723 -0.33830222
vn -0.95211023 -0.14347166 -0.27000389
vn -0.959728 -0.23795599 -0.14932886
vn -0.959489 -0.270712 -0.078076
g AvocadoHalf02_0
f 3/3/3 2/2/2 1/1/1
f 4/4/4 2/2/2 3/3/3
f 1/1/1 2/2/2 5/5/5
f 2/2/2 6/6/6 5/5/5
f 1/1/1 5/5/5 7/7/7
f 8/8/8 2/2/2 4/4/4
f 8/8/8 6/6/6 2/2/2
f 9/9/9 8/8/8 4/4/4
f 7/7/7 5/5/5 10/10/10
f 5/5/5 6/6/6 10/10/10
f 7/7/7 10/10/10 11/11/11
f 12/12/12 8/8/8 9/9/9
f 13/13/13 12/12/12 9/9/9
f 12/12/12 14/14/14 8/8/8
f 14/14/14 6/6/6 8/8/8
f 15/15/15 12/12/12 13/13/13
f 15/15/15 14/14/14 12/12/12
f 16/16/16 15/15/15 13/13/13
f 11/11/11 10/10/10 17/17/17
f 10/10/10 6/6/6 18/18/18
f 10/10/10 18/18/18 17/17/17
f 17/17/17 19/19/19 11/11/11
f 11/11/11 19/19/19 20/20/20
f 17/17/17 21/21/21 19/19/19
f 18/18/18 21/21/21 17/17/17
f 19/19/19 22/22/22 20/20/20
f 19/19/19 21/21/21 22/22/22
f 20/20/20 22/22/22 23/23/23
f 22/22/22 24/24/24 23/23/23
f 23/23/23 24/24/24 25/25/25
f 25/25/25 24/24/24 26/26/26
f 22/22/22 27/27/27 24/24/24
f 21/21/21 27/27/27 22/22/22
f 26/26/26 24/24/24 28/28/28
f 24/24/24 27/27/27 28/28/28
f 26/26/26 28/28/28 29/29/29
f 29/29/29 28/28/28 30/30/30
f 29/29/29 30/30/30 16/16/16
f 27/27/27 31/31/31 28/28/28
f 28/28/28 31/31/31 30/30/30
f 16/16/16 30/30/30 32/32/32
f 30/30/30 31/31/31 32/32/32
f 32/32/32 15/15/15 16/16/16
f 32/32/32 33/33/33 15/15/15
f 32/32/32 31/31/31 33/33/33
f 33/33/33 14/14/14 15/15/15
f 21/21/21 34/34/34 27/27/27
f 27/27/27 34/34/34 31/31/31
f 35/35/35 34/34/34 21/21/21
f 18/18/18 35/35/35 21/21/21
f 31/31/31 34/34/34 36/36/36
f 31/31/31 36/36/36 33/33/33
f 36/36/36 34/34/34 35/35/35
f 37/37/37 35/35/35 18/18/18
f 6/6/6 37/37/37 18/18/18
f 36/36/36 35/35/35 38/38/38
f 33/33/33 36/36/36 38/38/38
f 35/35/35 37/37/37 38/38/38
f 39/39/39 37/37/37 6/6/6
f 14/14/14 39/39/39 6/6/6
f 39/39/39 38/38/38 37/37/37
f 38/38/38 40/40/40 33/33/33
f 33/33/33 40/40/40 14/14/14
f 40/40/40 39/39/39 14/14/14
f 39/39/39 40/40/40 38/38/38
f 43/43/43 42/42/42 41/41/41
f 44/44/44 42/42/42 43/43/43
f 41/41/41 42/42/42 45/45/45
f 41/41/41 45/45/45 46/46/46
f 46/46/46 45/45/45 47/47/47
f 47/47/47 45/45/45 48/48/48
f 47/47/47 48/48/48 49/49/49
f 44/44/44 50/50/50 42/42/42
f 51/51/51 50/50/50 44/44/44
f 52/52/52 50/50/50 51/51/51
f 48/48/48 53/53/53 49/49/49
f 49/49/49 53/53/53 54/54/54
f 54/54/54 53/53/53 55/55/55
f 52/52/52 56/56/56 50/50/50
f 57/57/57 56/56/56 52/52/52
f 58/58/58 56/56/56 57/57/57
f 53/53/53 59/59/59 55/55/55
f 58/58/58 60/60/60 56/56/56
f 55/55/55 59/59/59 61/61/61
f 61/61/61 59/59/59 62/62/62
f 62/62/62 59/59/59 63/63/63
f 64/64/64 60/60/60 58/58/58
f 65/65/65 60/60/60 64/64/64
f 66/66/66 60/60/60 65/65/65
f 63/63/63 59/59/59 67/67/67
f 63/63/63 67/67/67 68/68/68
f 68/68/68 67/67/67 69/69/69
f 70/70/70 60/60/60 66/66/66
f 71/71/71 70/70/70 66/66/66
f 72/72/72 70/70/70 71/71/71
f 69/69/69 67/67/67 73/73/73
f 69/69/69 73/73/73 74/74/74
f 74/74/74 73/73/73 75/75/75
f 75/75/75 73/73/73 76/76/76
f 75/75/75 76/76/76 77/77/77
f 78/78/78 70/70/70 72/72/72
f 76/76/76 78/78/78 77/77/77
f 79/79/79 78/78/78 72/72/72
f 77/77/77 78/78/78 79/79/79
f 82/82/82 81/81/81 80/80/80
f 80/80/80 81/81/81 83/83/83
f 83/83/83 81/81/81 84/84/84
f 83/83/83 84/84/84 85/85/85
f 82/82/82 86/86/86 81/81/81
f 81/81/81 86/86/86 84/84/84
f 85/85/85 84/84/84 87/87/87
f 85/85/85 87/87/87 88/88/88
f 84/84/84 86/86/86 89/89/89
f 84/84/84 89/89/89 87/87/87
f 88/88/88 87/87/87 90/90/90
f 88/88/88 90/90/90 91/91/91
f 82/82/82 92/92/92 86/86/86
f 86/86/86 92/92/92 89/89/89
f 87/87/87 89/89/89 93/93/93
f 87/87/87 93/93/93 90/90/90
f 91/91/91 90/90/90 94/94/94
f 91/91/91 94/94/94 95/95/95
f 89/89/89 92/92/92 96/96/96
f 89/89/89 96/96/96 93/93/93
f 90/90/90 93/93/93 97/97/97
f 90/90/90 97/97/97 94/94/94
f 95/95/95 94/94/94 98/98/98
f 95/95/95 98/98/98 99/99/99
f 82/82/82 100/100/100 92/92/92
f 92/92/92 100/100/100 96/96/96
f 93/93/93 96/96/96 101/101/101
f 93/93/93 101/101/101 97/97/97
f 94/94/94 97/97/97 102/102/102
f 94/94/94 102/102/102 98/98/98
f 99/99/99 98/98/98 103/103/103
f 99/99/99 103/103/103 104/104/104
f 96/96/96 100/100/100 105/105/105
f 96/96/96 105/105/105 101/101/101
f 82/82/82 106/106/106 100/100/100
f 100/100/100 106/106/106 105/105/105
f 97/97/97 101/101/101 107/107/107
f 97/97/97 107/107/107 102/102/102
f 98/98/98 102/102/102 108/108/108
f 98/98/98 108/108/108 103/103/103
f 104/104/104 103/103/103 109/109/109
f 104/104/104 109/109/109 110/110/110
f 82/82/82 111/111/111 106/106/106
f 82/82/82 112/112/112 111/111/111
f 101/101/101 105/105/105 113/113/113
f 101/101/101 113/113/113 107/107/107
f 105/105/105 106/106/106 114/114/114
f 106/106/106 111/111/111 114/114/114
f 105/105/105 114/114/114 113/113/113
f 111/111/111 112/112/112 115/115/115
f 114/114/114 111/111/111 115/115/115
f 115/115/115 112/112/112 116/116/116
f 113/113/113 114/114/114 117/117/117
f 114/114/114 115/115/115 117/117/117
f 115/115/115 116/116/116 118/118/118
f 117/117/117 115/115/115 118/118/118
f 118/118/118 116/116/116 119/119/119
f 107/107/107 113/113/113 120/120/120
f 113/113/113 117/117/117 120/120/120
f 118/118/118 119/119/119 121/121/121
f 121/121/121 119/119/119 122/122/122
f 117/117/117 118/118/118 123/123/123
f 120/120/120 117/117/117 123/123/123
f 123/123/123 118/118/118 121/121/121
f 107/107/107 120/120/120 124/124/124
f 102/102/102 107/107/107 124/124/124
f 102/102/102 124/124/124 108/108/108
f 121/121/121 122/122/122 125/125/125
f 125/125/125 122/122/122 126/126/126
f 120/120/120 123/123/123 127/127/127
f 124/124/124 120/120/120 127/127/127
f 123/123/123 121/121/121 128/128/128
f 128/128/128 121/121/121 125/125/125
f 127/127/127 123/123/123 128/128/128
f 108/108/108 124/124/124 129/129/129
f 124/124/124 127/127/127 129/129/129
f 125/125/125 126/126/126 130/130/130
f 130/130/130 126/126/126 131/131/131
f 127/127/127 128/128/128 132/132/132
f 129/129/129 127/127/127 132/132/132
f 128/128/128 125/125/125 133/133/133
f 133/133/133 125/125/125 130/130/130
f 132/132/132 128/128/128 133/133/133
f 108/108/108 129/129/129 134/134/134
f 103/103/103 108/108/108 134/134/134
f 103/103/103 134/134/134 109/109/109
f 130/130/130 131/131/131 135/135/135
f 135/135/135 131/131/131 136/136/136
f 133/133/133 130/130/130 137/137/137
f 137/137/137 130/130/130 135/135/135
f 129/129/129 132/132/132 138/138/138
f 134/134/134 129/129/129 138/138/138
f 132/132/132 133/133/133 139/139/139
f 139/139/139 133/133/133 137/137/137
f 138/138/138 132/132/132 139/139/139
f 109/109/109 134/134/134 140/140/140
f 134/134/134 138/138/138 140/140/140
f 135/135/135 136/136/136 141/141/141
f 141/141/141 136/136/136 142/142/142
f 137/137/137 135/135/135 143/143/143
f 143/143/143 135/135/135 141/141/141
f 138/138/138 139/139/139 144/144/144
f 140/140/140 138/138/138 144/144/144
f 139/139/139 137/137/137 145/145/145
f 145/145/145 137/137/137 143/143/143
f 144/144/144 139/139/139 145/145/145
f 109/109/109 140/140/140 146/146/146
f 110/110/110 109/109/109 146/146/146
f 110/110/110 146/146/146 147/147/147
f 141/141/141 142/142/142 148/148/148
f 148/148/148 142/142/142 149/149/149
f 143/143/143 141/141/141 150/150/150
f 150/150/150 141/141/141 148/148/148
f 145/145/145 143/143/143 151/151/151
f 151/151/151 143/143/143 150/150/150
f 140/140/140 144/144/144 152/152/152
f 146/146/146 140/140/140 152/152/152
f 147/147/147 146/146/146 153/153/153
f 146/146/146 152/152/152 153/153/153
f 147/147/147 153/153/153 154/154/154
f 144/144/144 145/145/145 155/155/155
f 152/152/152 144/144/144 155/155/155
f 155/155/155 145/145/145 151/151/151
f 148/148/148 149/149/149 156/156/156
f 156/156/156 149/149/149 157/157/157
f 150/150/150 148/148/148 158/158/158
f 158/158/158 148/148/148 156/156/156
f 154/154/154 153/153/153 159/159/159
f 154/154/154 159/159/159 160/160/160
f 153/153/153 152/152/152 161/161/161
f 152/152/152 155/155/155 161/161/161
f 153/153/153 161/161/161 159/159/159
f 155/155/155 151/151/151 162/162/162
f 161/161/161 155/155/155 162/162/162
f 151/151/151 150/150/150 163/163/163
f 163/163/163 150/150/150 158/158/158
f 162/162/162 151/151/151 163/163/163
f 156/156/156 157/157/157 164/164/164
f 164/164/164 157/157/157 165/165/165
f 160/160/160 159/159/159 166/166/166
f 160/160/160 166/166/166 167/167/167
f 159/159/159 161/161/161 168/168/168
f 161/161/161 162/162/162 168/168/168
f 159/159/159 168/168/168 166/166/166
f 158/158/158 156/156/156 169/169/169
f 169/169/169 156/156/156 164/164/164
f 162/162/162 163/163/163 170/170/170
f 168/168/168 162/162/162 170/170/170
f 166/166/166 168/168/168 171/171/171
f 166/166/166 171/171/171 167/167/167
f 168/168/168 170/170/170 171/171/171
f 163/163/163 158/158/158 172/172/172
f 170/170/170 163/163/163 172/172/172
f 172/172/172 158/158/158 169/169/169
f 171/171/171 170/170/170 173/173/173
f 170/170/170 172/172/172 173/173/173
f 171/171/171 173/173/173 167/167/167
f 173/173/173 172/172/172 174/174/174
f 172/172/172 169/169/169 174/174/174
f 173/173/173 174/174/174 167/167/167
f 174/174/174 169/169/169 175/175/175
f 169/169/169 164/164/164 175/175/175
f 174/174/174 175/175/175 167/167/167
f 175/175/175 164/164/164 176/176/176
f 175/175/175 176/176/176 167/167/167
f 164/164/164 165/165/165 176/176/176
f 176/176/176 177/177/177 167/167/167
f 176/176/176 165/165/165 177/177/177
