g Candle
v 0.016108748 0.38779584 -0.005234119
v 0.009955728 0.4239801 0.013702869
v -2.9946467E-08 0.4239801 -0.01693783
v -2.5837839E-08 0.0005301902 -0.06962919
v 0.06622125 0.0005301923 -0.021516632
v 0.054940227 0.017173685 -0.017851206
v -2.654277E-08 0.017173683 -0.057767633
v 0.06622125 0.0005301923 -0.021516632
v 0.040926922 0.00053019566 0.056331117
v 0.033954877 0.017173687 0.046734907
v 0.054940227 0.017173685 -0.017851206
v 0.040926922 0.00053019566 0.056331117
v -0.04092702 0.00053019566 0.056331117
v -0.033954967 0.017173687 0.046734907
v 0.033954877 0.017173687 0.046734907
v -0.04092702 0.00053019566 0.056331117
v -0.066221274 0.0005301923 -0.021516632
v -0.054940265 0.017173685 -0.017851206
v -0.033954967 0.017173687 0.046734907
v -0.066221274 0.0005301923 -0.021516632
v -2.5837839E-08 0.0005301902 -0.06962919
v -2.654277E-08 0.017173683 -0.057767633
v -0.054940265 0.017173685 -0.017851206
v 0.06622125 0.0005301923 -0.021516632
v -2.5837839E-08 0.0005301902 -0.06962919
v -0.066221274 0.0005301923 -0.021516632
v 0.040926922 0.00053019566 0.056331117
v -0.04092702 0.00053019566 0.056331117
v 0.020365248 0.017173685 -0.0066171233
v 0.020365248 0.25737298 -0.0066171335
v -2.9200987E-08 0.25737298 -0.02141337
v -2.9200987E-08 0.017173683 -0.021413358
v 0.024535282 0.041468944 -0.007972049
v 0.024535282 0.06825124 -0.0079720495
v -2.907156E-08 0.06825124 -0.025797991
v -2.907156E-08 0.041468944 -0.02579799
v -0.0203653 0.017173685 -0.0066171233
v -0.0203653 0.25737298 -0.0066171335
v -0.012586461 0.25737298 0.017323673
v -0.012586461 0.017173685 0.017323684
v 0.012586389 0.017173685 0.017323684
v 0.012586389 0.25737298 0.017323673
v 0.020365248 0.25737298 -0.0066171335
v 0.020365248 0.017173685 -0.0066171233
v -2.9200987E-08 0.017173683 -0.021413358
v -2.9200987E-08 0.25737298 -0.02141337
v -0.0203653 0.25737298 -0.0066171335
v -0.0203653 0.017173685 -0.0066171233
v -0.012586461 0.017173685 0.017323684
v -0.012586461 0.25737298 0.017323673
v 0.012586389 0.25737298 0.017323673
v 0.012586389 0.017173685 0.017323684
v -0.024535326 0.041468944 -0.007972049
v -0.024535326 0.06825124 -0.0079720495
v -0.015163682 0.06825124 0.020870917
v -0.015163682 0.041468944 0.020870918
v 0.015163605 0.041468944 0.020870918
v 0.015163605 0.06825124 0.020870917
v 0.024535282 0.06825124 -0.0079720495
v 0.024535282 0.041468944 -0.007972049
v -2.907156E-08 0.041468944 -0.02579799
v -2.907156E-08 0.06825124 -0.025797991
v -0.024535326 0.06825124 -0.0079720495
v -0.024535326 0.041468944 -0.007972049
v -0.015163682 0.041468944 0.020870918
v -0.015163682 0.06825124 0.020870917
v 0.015163605 0.06825124 0.020870917
v 0.015163605 0.041468944 0.020870918
v -0.024535326 0.06825124 -0.0079720495
v -2.907156E-08 0.06825124 -0.025797991
v 0.024535282 0.06825124 -0.0079720495
v -0.015163682 0.06825124 0.020870917
v 0.015163605 0.06825124 0.020870917
v 0.024535282 0.041468944 -0.007972049
v -2.907156E-08 0.041468944 -0.02579799
v -0.024535326 0.041468944 -0.007972049
v 0.015163605 0.041468944 0.020870918
v -0.015163682 0.041468944 0.020870918
v 0.024535282 0.22051884 -0.007972056
v 0.024535282 0.26744482 -0.007972059
v -2.907156E-08 0.26744482 -0.025797999
v -2.907156E-08 0.22051884 -0.025797997
v -0.024535326 0.22051884 -0.007972056
v -0.024535326 0.26744482 -0.007972059
v -0.015163682 0.26744482 0.02087091
v -0.015163682 0.22051884 0.020870911
v 0.015163605 0.22051884 0.020870911
v 0.015163605 0.26744482 0.02087091
v 0.024535282 0.26744482 -0.007972059
v 0.024535282 0.22051884 -0.007972056
v -2.907156E-08 0.22051884 -0.025797997
v -2.907156E-08 0.26744482 -0.025797999
v -0.024535326 0.26744482 -0.007972059
v -0.024535326 0.22051884 -0.007972056
v -0.015163682 0.22051884 0.020870911
v -0.015163682 0.26744482 0.02087091
v 0.015163605 0.26744482 0.02087091
v 0.015163605 0.22051884 0.020870911
v 0.024535282 0.22051884 -0.007972056
v -2.907156E-08 0.22051884 -0.025797997
v -0.024535326 0.22051884 -0.007972056
v 0.015163605 0.22051884 0.020870911
v -0.015163682 0.22051884 0.020870911
v 0.024535282 0.18939821 -0.007972055
v 0.024535282 0.20574588 -0.007972056
v -2.907156E-08 0.20574588 -0.025797997
v -2.907156E-08 0.18939821 -0.025797995
v -0.024535326 0.18939821 -0.007972055
v -0.024535326 0.20574588 -0.007972056
v -0.015163682 0.20574588 0.020870911
v -0.015163682 0.18939821 0.020870913
v 0.015163605 0.18939821 0.020870913
v 0.015163605 0.20574588 0.020870911
v 0.024535282 0.20574588 -0.007972056
v 0.024535282 0.18939821 -0.007972055
v -2.907156E-08 0.18939821 -0.025797995
v -2.907156E-08 0.20574588 -0.025797997
v -0.024535326 0.20574588 -0.007972056
v -0.024535326 0.18939821 -0.007972055
v -0.015163682 0.18939821 0.020870913
v -0.015163682 0.20574588 0.020870911
v 0.015163605 0.20574588 0.020870911
v 0.015163605 0.18939821 0.020870913
v -0.024535326 0.20574588 -0.007972056
v -2.907156E-08 0.20574588 -0.025797997
v 0.024535282 0.20574588 -0.007972056
v -0.015163682 0.20574588 0.020870911
v 0.015163605 0.20574588 0.020870911
v 0.024535282 0.18939821 -0.007972055
v -2.907156E-08 0.18939821 -0.025797995
v -0.024535326 0.18939821 -0.007972055
v 0.015163605 0.18939821 0.020870913
v -0.015163682 0.18939821 0.020870913
v 0.036893282 0.25902262 -0.011987412
v 0.036893282 0.2701434 -0.011987413
v -2.8690195E-08 0.2701434 -0.038791966
v -2.8690195E-08 0.25902262 -0.038791966
v -0.03689332 0.25902262 -0.011987412
v -0.03689332 0.2701434 -0.011987413
v -0.022801347 0.2701434 0.03138325
v -0.022801347 0.25902262 0.03138325
v 0.022801261 0.25902262 0.03138325
v 0.022801261 0.2701434 0.03138325
v 0.036893282 0.2701434 -0.011987413
v 0.036893282 0.25902262 -0.011987412
v -2.8690195E-08 0.25902262 -0.038791966
v -2.8690195E-08 0.2701434 -0.038791966
v -0.03689332 0.2701434 -0.011987413
v -0.03689332 0.25902262 -0.011987412
v -0.022801347 0.25902262 0.03138325
v -0.022801347 0.2701434 0.03138325
v 0.022801261 0.2701434 0.03138325
v 0.022801261 0.25902262 0.03138325
v -0.03689332 0.2701434 -0.011987413
v -2.8690195E-08 0.2701434 -0.038791966
v 0.036893282 0.2701434 -0.011987413
v -0.022801347 0.2701434 0.03138325
v 0.022801261 0.2701434 0.03138325
v 0.036893282 0.25902262 -0.011987412
v -2.8690195E-08 0.25902262 -0.038791966
v -0.03689332 0.25902262 -0.011987412
v 0.022801261 0.25902262 0.03138325
v -0.022801347 0.25902262 0.03138325
v -2.9946467E-08 0.25795826 -0.016937822
v -2.9946467E-08 0.4239801 -0.01693783
v -0.0161088 0.4239801 -0.005234121
v -0.0161088 0.25795826 -0.0052341134
v -0.009955802 0.25795826 0.013702877
v -0.009955802 0.4239801 0.013702869
v 0.009955728 0.4239801 0.013702869
v 0.009955728 0.25795826 0.013702877
v 0.016108748 0.25795826 -0.0052341134
v 0.016108748 0.38779584 -0.005234119
v -2.9946467E-08 0.4239801 -0.01693783
v -2.9946467E-08 0.25795826 -0.016937822
v -0.0161088 0.25795826 -0.0052341134
v -0.0161088 0.4239801 -0.005234121
v -0.009955802 0.4239801 0.013702869
v -0.009955802 0.25795826 0.013702877
v 0.009955728 0.25795826 0.013702877
v 0.009955728 0.4239801 0.013702869
v 0.016108748 0.38779584 -0.005234119
v 0.016108748 0.25795826 -0.0052341134
v 0.009955728 0.4239801 0.013702869
v -0.009955802 0.4239801 0.013702869
v -0.0161088 0.4239801 -0.005234121
v -2.9946467E-08 0.4239801 -0.01693783
v -0.00113644 0.41145116 0.0011359418
v -0.00113644 0.41145116 -0.0011359777
v -0.00113644 0.46334642 -0.00113598
v -0.00113644 0.46334642 0.0011359395
v -0.00113644 0.41145116 -0.0011359777
v 0.0011354795 0.41145116 -0.0011359777
v 0.0011354795 0.46334642 -0.00113598
v -0.00113644 0.46334642 -0.00113598
v 0.0011354795 0.41145116 -0.0011359777
v 0.0011354795 0.41145116 0.0011359418
v 0.0011354795 0.46334642 0.0011359395
v 0.0011354795 0.46334642 -0.00113598
v 0.0011354795 0.41145116 0.0011359418
v -0.00113644 0.41145116 0.0011359418
v -0.00113644 0.46334642 0.0011359395
v 0.0011354795 0.46334642 0.0011359395
v 0.0011354795 0.46334642 -0.00113598
v 0.0011354795 0.46334642 0.0011359395
v -0.00113644 0.46334642 0.0011359395
v -0.00113644 0.46334642 -0.00113598
v -0.054940265 0.017173685 -0.017851206
v -0.0203653 0.017173685 -0.0066171233
v -0.012586461 0.017173685 0.017323684
v -0.033954967 0.017173687 0.046734907
v -2.654277E-08 0.017173683 -0.057767633
v 0.012586389 0.017173685 0.017323684
v -2.9200987E-08 0.017173683 -0.021413358
v 0.033954877 0.017173687 0.046734907
v 0.054940227 0.017173685 -0.017851206
v 0.020365248 0.017173685 -0.0066171233
vt 0.028304502 0.88346076
vt 0.028304502 0.88346076
vt 0.028304502 0.88346076
vt 0.0074680336 0.88324314
vt 0.0074680336 0.88324314
vt 0.0074680336 0.88324314
vt 0.0074680336 0.88324314
vt 0.0074680336 0.88324314
vt 0.0074680336 0.88324314
vt 0.0074680336 0.88324314
vt 0.0074680336 0.88324314
vt 0.0074680336 0.88324314
vt 0.0074680336 0.88324314
vt 0.0074680336 0.88324314
vt 0.0074680336 0.88324314
vt 0.0074680336 0.88324314
vt 0.0074680336 0.88324314
vt 0.0074680336 0.88324314
vt 0.0074680336 0.88324314
vt 0.0074680336 0.88324314
vt 0.0074680336 0.88324314
vt 0.0074680336 0.88324314
vt 0.0074680336 0.88324314
vt 0.0074680336 0.88324314
vt 0.0074680336 0.88324314
vt 0.0074680336 0.88324314
vt 0.0074680336 0.88324314
vt 0.0074680336 0.88324314
vt 0.0074680336 0.88324314
vt 0.0074680336 0.88324314
vt 0.0074680336 0.88324314
vt 0.0074680336 0.88324314
vt 0.0074680336 0.88324314
vt 0.0074680336 0.88324314
vt 0.0074680336 0.88324314
vt 0.0074680336 0.88324314
vt 0.0074680336 0.88324314
vt 0.0074680336 0.88324314
vt 0.0074680336 0.88324314
vt 0.0074680336 0.88324314
vt 0.0074680336 0.88324314
vt 0.0074680336 0.88324314
vt 0.0074680336 0.88324314
vt 0.0074680336 0.88324314
vt 0.0074680336 0.88324314
vt 0.0074680336 0.88324314
vt 0.0074680336 0.88324314
vt 0.0074680336 0.88324314
vt 0.0074680336 0.88324314
vt 0.0074680336 0.88324314
vt 0.0074680336 0.88324314
vt 0.0074680336 0.88324314
vt 0.0074680336 0.88324314
vt 0.0074680336 0.88324314
vt 0.0074680336 0.88324314
vt 0.0074680336 0.88324314
vt 0.0074680336 0.88324314
vt 0.0074680336 0.88324314
vt 0.0074680336 0.88324314
vt 0.0074680336 0.88324314
vt 0.0074680336 0.88324314
vt 0.0074680336 0.88324314
vt 0.0074680336 0.88324314
vt 0.0074680336 0.88324314
vt 0.0074680336 0.88324314
vt 0.0074680336 0.88324314
vt 0.0074680336 0.88324314
vt 0.0074680336 0.88324314
vt 0.0074680336 0.88324314
vt 0.0074680336 0.88324314
vt 0.0074680336 0.88324314
vt 0.0074680336 0.88324314
vt 0.0074680336 0.88324314
vt 0.0074680336 0.88324314
vt 0.0074680336 0.88324314
vt 0.0074680336 0.88324314
vt 0.0074680336 0.88324314
vt 0.0074680336 0.88324314
vt 0.0074680336 0.88324314
vt 0.0074680336 0.88324314
vt 0.0074680336 0.88324314
vt 0.0074680336 0.88324314
vt 0.0074680336 0.88324314
vt 0.0074680336 0.88324314
vt 0.0074680336 0.88324314
vt 0.0074680336 0.88324314
vt 0.0074680336 0.88324314
vt 0.0074680336 0.88324314
vt 0.0074680336 0.88324314
vt 0.0074680336 0.88324314
vt 0.0074680336 0.88324314
vt 0.0074680336 0.88324314
vt 0.0074680336 0.88324314
vt 0.0074680336 0.88324314
vt 0.0074680336 0.88324314
vt 0.0074680336 0.88324314
vt 0.0074680336 0.88324314
vt 0.0074680336 0.88324314
vt 0.0074680336 0.88324314
vt 0.0074680336 0.88324314
vt 0.0074680336 0.88324314
vt 0.0074680336 0.88324314
vt 0.0074680336 0.88324314
vt 0.0074680336 0.88324314
vt 0.0074680336 0.88324314
vt 0.0074680336 0.88324314
vt 0.0074680336 0.88324314
vt 0.0074680336 0.88324314
vt 0.0074680336 0.88324314
vt 0.0074680336 0.88324314
vt 0.0074680336 0.88324314
vt 0.0074680336 0.88324314
vt 0.0074680336 0.88324314
vt 0.0074680336 0.88324314
vt 0.0074680336 0.88324314
vt 0.0074680336 0.88324314
vt 0.0074680336 0.88324314
vt 0.0074680336 0.88324314
vt 0.0074680336 0.88324314
vt 0.0074680336 0.88324314
vt 0.0074680336 0.88324314
vt 0.0074680336 0.88324314
vt 0.0074680336 0.88324314
vt 0.0074680336 0.88324314
vt 0.0074680336 0.88324314
vt 0.0074680336 0.88324314
vt 0.0074680336 0.88324314
vt 0.0074680336 0.88324314
vt 0.0074680336 0.88324314
vt 0.0074680336 0.88324314
vt 0.0074680336 0.88324314
vt 0.0074680336 0.88324314
vt 0.0074680336 0.88324314
vt 0.0074680336 0.88324314
vt 0.0074680336 0.88324314
vt 0.0074680336 0.88324314
vt 0.0074680336 0.88324314
vt 0.0074680336 0.88324314
vt 0.0074680336 0.88324314
vt 0.0074680336 0.88324314
vt 0.0074680336 0.88324314
vt 0.0074680336 0.88324314
vt 0.0074680336 0.88324314
vt 0.0074680336 0.88324314
vt 0.0074680336 0.88324314
vt 0.0074680336 0.88324314
vt 0.0074680336 0.88324314
vt 0.0074680336 0.88324314
vt 0.0074680336 0.88324314
vt 0.0074680336 0.88324314
vt 0.0074680336 0.88324314
vt 0.0074680336 0.88324314
vt 0.0074680336 0.88324314
vt 0.0074680336 0.88324314
vt 0.0074680336 0.88324314
vt 0.0074680336 0.88324314
vt 0.0074680336 0.88324314
vt 0.0074680336 0.88324314
vt 0.0074680336 0.88324314
vt 0.0074680336 0.88324314
vt 0.0074680336 0.88324314
vt 0.0074680336 0.88324314
vt 0.0074680336 0.88324314
vt 0.028304502 0.88346076
vt 0.028304502 0.88346076
vt 0.028304502 0.88346076
vt 0.028304502 0.88346076
vt 0.028304502 0.88346076
vt 0.028304502 0.88346076
vt 0.028304502 0.88346076
vt 0.028304502 0.88346076
vt 0.028304502 0.88346076
vt 0.028304502 0.88346076
vt 0.028304502 0.88346076
vt 0.028304502 0.88346076
vt 0.028304502 0.88346076
vt 0.028304502 0.88346076
vt 0.028304502 0.88346076
vt 0.028304502 0.88346076
vt 0.028304502 0.88346076
vt 0.028304502 0.88346076
vt 0.028304502 0.88346076
vt 0.028304502 0.88346076
vt 0.028304502 0.88346076
vt 0.028304502 0.88346076
vt 0.028304502 0.88346076
vt 0.028304502 0.88346076
vt 0.1154896 0.882751
vt 0.1154896 0.882751
vt 0.1154896 0.882751
vt 0.1154896 0.882751
vt 0.1154896 0.882751
vt 0.1154896 0.882751
vt 0.1154896 0.882751
vt 0.1154896 0.882751
vt 0.1154896 0.882751
vt 0.1154896 0.882751
vt 0.1154896 0.882751
vt 0.1154896 0.882751
vt 0.1154896 0.882751
vt 0.1154896 0.882751
vt 0.1154896 0.882751
vt 0.1154896 0.882751
vt 0.1154896 0.882751
vt 0.1154896 0.882751
vt 0.1154896 0.882751
vt 0.1154896 0.882751
vt 0.0074680336 0.88324314
vt 0.0074680336 0.88324314
vt 0.0074680336 0.88324314
vt 0.0074680336 0.88324314
vt 0.0074680336 0.88324314
vt 0.0074680336 0.88324314
vt 0.0074680336 0.88324314
vt 0.0074680336 0.88324314
vt 0.0074680336 0.88324314
vt 0.0074680336 0.88324314
vn 0.90489924 0.30775002 -0.29401895
vn 0.90489924 0.30775002 -0.29401895
vn 0.90489924 0.30775002 -0.29401895
vn 0.5092079 0.49949574 -0.70086473
vn 0.5092079 0.49949574 -0.70086473
vn 0.5092079 0.49949574 -0.70086473
vn 0.5092079 0.49949574 -0.70086473
vn 0.8239157 0.49949545 0.26770708
vn 0.8239157 0.49949545 0.26770708
vn 0.8239157 0.49949545 0.26770708
vn 0.8239157 0.49949545 0.26770708
vn -0 0.49949577 0.8663164
vn -0 0.49949577 0.8663164
vn -0 0.49949577 0.8663164
vn -0 0.49949577 0.8663164
vn -0.82391614 0.49949533 0.26770645
vn -0.82391614 0.49949533 0.26770645
vn -0.82391614 0.49949533 0.26770645
vn -0.82391614 0.49949533 0.26770645
vn -0.5092081 0.49949554 -0.70086473
vn -0.5092081 0.49949554 -0.70086473
vn -0.5092081 0.49949554 -0.70086473
vn -0.5092081 0.49949554 -0.70086473
vn -0 -1 0
vn -0 -1 0
vn -0 -1 0
vn -0 -1 0
vn -0 -1 0
vn 0.5877851 0 -0.80901706
vn 0.5877851 0 -0.80901706
vn 0.5877851 0 -0.80901706
vn 0.5877851 0 -0.80901706
vn 0.5877851 0 -0.8090171
vn 0.5877851 0 -0.8090171
vn 0.5877851 0 -0.8090171
vn 0.5877851 0 -0.8090171
vn -0.95105654 0 0.30901694
vn -0.95105654 0 0.30901694
vn -0.95105654 0 0.30901694
vn -0.95105654 0 0.30901694
vn 0.95105636 0 0.3090177
vn 0.95105636 0 0.3090177
vn 0.95105636 0 0.3090177
vn 0.95105636 0 0.3090177
vn -0.58778524 0 -0.809017
vn -0.58778524 0 -0.809017
vn -0.58778524 0 -0.809017
vn -0.58778524 0 -0.809017
vn -0 0 1
vn -0 0 1
vn -0 0 1
vn -0 0 1
vn -0.95105654 0 0.30901688
vn -0.95105654 0 0.30901688
vn -0.95105654 0 0.30901688
vn -0.95105654 0 0.30901688
vn 0.95105624 0 0.30901784
vn 0.95105624 0 0.30901784
vn 0.95105624 0 0.30901784
vn 0.95105624 0 0.30901784
vn -0.58778536 0 -0.809017
vn -0.58778536 0 -0.809017
vn -0.58778536 0 -0.809017
vn -0.58778536 0 -0.809017
vn -0 0 1
vn -0 0 1
vn -0 0 1
vn -0 0 1
vn -0 1 0
vn -0 1 0
vn -0 1 0
vn -0 1 0
vn -0 1 0
vn -0 -1 0
vn -0 -1 0
vn -0 -1 0
vn -0 -1 0
vn -0 -1 0
vn 0.5877852 0 -0.80901706
vn 0.5877852 0 -0.80901706
vn 0.5877852 0 -0.80901706
vn 0.5877852 0 -0.80901706
vn -0.95105654 0 0.30901688
vn -0.95105654 0 0.30901688
vn -0.95105654 0 0.30901688
vn -0.95105654 0 0.30901688
vn 0.95105624 0 0.30901775
vn 0.95105624 0 0.30901775
vn 0.95105624 0 0.30901775
vn 0.95105624 0 0.30901775
vn -0.5877853 0 -0.809017
vn -0.5877853 0 -0.809017
vn -0.5877853 0 -0.809017
vn -0.5877853 0 -0.809017
vn -0 0 1
vn -0 0 1
vn -0 0 1
vn -0 0 1
vn -0 -1 0
vn -0 -1 0
vn -0 -1 0
vn -0 -1 0
vn -0 -1 0
vn 0.58778554 0 -0.8090168
vn 0.58778554 0 -0.8090168
vn 0.58778554 0 -0.8090168
vn 0.58778554 0 -0.8090168
vn -0.95105654 0 0.3090168
vn -0.95105654 0 0.3090168
vn -0.95105654 0 0.3090168
vn -0.95105654 0 0.3090168
vn 0.95105624 0 0.30901784
vn 0.95105624 0 0.30901784
vn 0.95105624 0 0.30901784
vn 0.95105624 0 0.30901784
vn -0.58778554 0 -0.8090168
vn -0.58778554 0 -0.8090168
vn -0.58778554 0 -0.8090168
vn -0.58778554 0 -0.8090168
vn -0 0 1
vn -0 0 1
vn -0 0 1
vn -0 0 1
vn -0 1 0
vn -0 1 0
vn -0 1 0
vn -0 1 0
vn -0 1 0
vn -0 -1 0
vn -0 -1 0
vn -0 -1 0
vn -0 -1 0
vn -0 -1 0
vn 0.587785 0 -0.8090171
vn 0.587785 0 -0.8090171
vn 0.587785 0 -0.8090171
vn 0.587785 0 -0.8090171
vn -0.95105654 0 0.30901697
vn -0.95105654 0 0.30901697
vn -0.95105654 0 0.30901697
vn -0.95105654 0 0.30901697
vn 0.95105624 0 0.3090178
vn 0.95105624 0 0.3090178
vn 0.95105624 0 0.3090178
vn 0.95105624 0 0.3090178
vn -0.587785 0 -0.8090171
vn -0.587785 0 -0.8090171
vn -0.587785 0 -0.8090171
vn -0.587785 0 -0.8090171
vn -0 0 1
vn -0 0 1
vn -0 0 1
vn -0 0 1
vn -0 1 0
vn -0 1 0
vn -0 1 0
vn -0 1 0
vn -0 1 0
vn -0 -1 0
vn -0 -1 0
vn -0 -1 0
vn -0 -1 0
vn -0 -1 0
vn -0.58778536 0 -0.809017
vn -0.58778536 0 -0.809017
vn -0.58778536 0 -0.809017
vn -0.58778536 0 -0.809017
vn -0 0 1
vn -0 0 1
vn -0 0 1
vn -0 0 1
vn 0.5877851 0 -0.80901706
vn 0.5877851 0 -0.80901706
vn 0.5877851 0 -0.80901706
vn 0.5877851 0 -0.80901706
vn -0.95105654 0 0.30901685
vn -0.95105654 0 0.30901685
vn -0.95105654 0 0.30901685
vn -0.95105654 0 0.30901685
vn 0.95105624 0 0.30901787
vn 0.95105624 0 0.30901787
vn 0.95105624 0 0.30901787
vn 0.95105624 0 0.30901787
vn -0 1 0
vn -0 1 0
vn -0 1 0
vn -0 1 0
vn -1 0 0
vn -1 0 0
vn -1 0 0
vn -1 0 0
vn -0 0 -1
vn -0 0 -1
vn -0 0 -1
vn -0 0 -1
vn 1 0 0
vn 1 0 0
vn 1 0 0
vn 1 0 0
vn -0 0 1
vn -0 0 1
vn -0 0 1
vn -0 0 1
vn -0 1 0
vn -0 1 0
vn -0 1 0
vn -0 1 0
vn -0 1 0
vn -0 1 0
vn -0 1 0
vn -0 1 0
vn -0 1 0
vn -0 1 0
vn -0 1 0
vn -0 1 0
vn -0 1 0
vn -0 1 0
g Candle_0
f 3/3/3 2/2/2 1/1/1
f 6/6/6 5/5/5 4/4/4
f 7/7/7 6/6/6 4/4/4
f 10/10/10 9/9/9 8/8/8
f 11/11/11 10/10/10 8/8/8
f 14/14/14 13/13/13 12/12/12
f 15/15/15 14/14/14 12/12/12
f 18/18/18 17/17/17 16/16/16
f 19/19/19 18/18/18 16/16/16
f 22/22/22 21/21/21 20/20/20
f 23/23/23 22/22/22 20/20/20
f 26/26/26 25/25/25 24/24/24
f 24/24/24 27/27/27 26/26/26
f 27/27/27 28/28/28 26/26/26
f 31/31/31 30/30/30 29/29/29
f 32/32/32 31/31/31 29/29/29
f 35/35/35 34/34/34 33/33/33
f 36/36/36 35/35/35 33/33/33
f 39/39/39 38/38/38 37/37/37
f 40/40/40 39/39/39 37/37/37
f 43/43/43 42/42/42 41/41/41
f 44/44/44 43/43/43 41/41/41
f 47/47/47 46/46/46 45/45/45
f 48/48/48 47/47/47 45/45/45
f 51/51/51 50/50/50 49/49/49
f 52/52/52 51/51/51 49/49/49
f 55/55/55 54/54/54 53/53/53
f 56/56/56 55/55/55 53/53/53
f 59/59/59 58/58/58 57/57/57
f 60/60/60 59/59/59 57/57/57
f 63/63/63 62/62/62 61/61/61
f 64/64/64 63/63/63 61/61/61
f 67/67/67 66/66/66 65/65/65
f 68/68/68 67/67/67 65/65/65
f 71/71/71 70/70/70 69/69/69
f 69/69/69 72/72/72 71/71/71
f 72/72/72 73/73/73 71/71/71
f 76/76/76 75/75/75 74/74/74
f 74/74/74 77/77/77 76/76/76
f 77/77/77 78/78/78 76/76/76
f 81/81/81 80/80/80 79/79/79
f 82/82/82 81/81/81 79/79/79
f 85/85/85 84/84/84 83/83/83
f 86/86/86 85/85/85 83/83/83
f 89/89/89 88/88/88 87/87/87
f 90/90/90 89/89/89 87/87/87
f 93/93/93 92/92/92 91/91/91
f 94/94/94 93/93/93 91/91/91
f 97/97/97 96/96/96 95/95/95
f 98/98/98 97/97/97 95/95/95
f 101/101/101 100/100/100 99/99/99
f 99/99/99 102/102/102 101/101/101
f 102/102/102 103/103/103 101/101/101
f 106/106/106 105/105/105 104/104/104
f 107/107/107 106/106/106 104/104/104
f 110/110/110 109/109/109 108/108/108
f 111/111/111 110/110/110 108/108/108
f 114/114/114 113/113/113 112/112/112
f 115/115/115 114/114/114 112/112/112
f 118/118/118 117/117/117 116/116/116
f 119/119/119 118/118/118 116/116/116
f 122/122/122 121/121/121 120/120/120
f 123/123/123 122/122/122 120/120/120
f 126/126/126 125/125/125 124/124/124
f 124/124/124 127/127/127 126/126/126
f 127/127/127 128/128/128 126/126/126
f 131/131/131 130/130/130 129/129/129
f 129/129/129 132/132/132 131/131/131
f 132/132/132 133/133/133 131/131/131
f 136/136/136 135/135/135 134/134/134
f 137/137/137 136/136/136 134/134/134
f 140/140/140 139/139/139 138/138/138
f 141/141/141 140/140/140 138/138/138
f 144/144/144 143/143/143 142/142/142
f 145/145/145 144/144/144 142/142/142
f 148/148/148 147/147/147 146/146/146
f 149/149/149 148/148/148 146/146/146
f 152/152/152 151/151/151 150/150/150
f 153/153/153 152/152/152 150/150/150
f 156/156/156 155/155/155 154/154/154
f 154/154/154 157/157/157 156/156/156
f 157/157/157 158/158/158 156/156/156
f 161/161/161 160/160/160 159/159/159
f 159/159/159 162/162/162 161/161/161
f 162/162/162 163/163/163 161/161/161
f 166/166/166 165/165/165 164/164/164
f 167/167/167 166/166/166 164/164/164
f 170/170/170 169/169/169 168/168/168
f 171/171/171 170/170/170 168/168/168
f 174/174/174 173/173/173 172/172/172
f 175/175/175 174/174/174 172/172/172
f 178/178/178 177/177/177 176/176/176
f 179/179/179 178/178/178 176/176/176
f 182/182/182 181/181/181 180/180/180
f 183/183/183 182/182/182 180/180/180
f 186/186/186 185/185/185 184/184/184
f 187/187/187 186/186/186 184/184/184
f 190/190/190 189/189/189 188/188/188
f 191/191/191 190/190/190 188/188/188
f 194/194/194 193/193/193 192/192/192
f 195/195/195 194/194/194 192/192/192
f 198/198/198 197/197/197 196/196/196
f 199/199/199 198/198/198 196/196/196
f 202/202/202 201/201/201 200/200/200
f 203/203/203 202/202/202 200/200/200
f 206/206/206 205/205/205 204/204/204
f 207/207/207 206/206/206 204/204/204
f 210/210/210 209/209/209 208/208/208
f 211/211/211 210/210/210 208/208/208
f 208/208/208 209/209/209 212/212/212
f 213/213/213 210/210/210 211/211/211
f 209/209/209 214/214/214 212/212/212
f 215/215/215 213/213/213 211/211/211
f 212/212/212 214/214/214 216/216/216
f 217/217/217 213/213/213 215/215/215
f 216/216/216 217/217/217 215/215/215
f 214/214/214 217/217/217 216/216/216
