g CeilingBevel
v -17.370413 -1.6110312 13.493071
v -17.370651 -0.5705992 11.992515
v -17.369905 -0.5705992 13.493071
v -21.802578 -1.6110321 13.493079
v -21.80269 -0.5706011 13.493079
v -21.80248 -0.57060015 11.995566
v -1.7636948 1.4461334E-07 -1.5189526E-06
v -1.8419685 1.7310751E-05 9.900501
v -1.7003784 -0.5705658 9.975098
v -1.6221352 -0.570583 -1.5189526E-06
v -1.7600021 1.4449728E-05 -9.5724
v -1.618412 -0.5705687 -9.697503
v -1.8419685 1.7310751E-05 9.900501
v -1.9895229 1.7310751E-05 10.670192
v -1.8491344 -0.5705658 10.752594
v -1.7003784 -0.5705658 9.975098
v -1.9895229 1.7310751E-05 10.670192
v -2.420269 1.5403402E-05 11.291887
v -2.2833862 -0.5705677 11.380595
v -1.8491344 -0.5705658 10.752594
v -2.420269 1.5403402E-05 11.291887
v -3.0649033 1.5403402E-05 11.707279
v -2.9332676 -0.5705677 11.8002
v -2.2833862 -0.5705677 11.380595
v -3.0649033 1.5403402E-05 11.707279
v -3.8630238 1.4449728E-05 11.849569
v -3.7378855 -0.5705687 11.9439335
v -2.9332676 -0.5705677 11.8002
v -17.370651 -0.5705992 11.992515
v -3.7378855 -0.5705687 11.9439335
v -3.8630238 1.4449728E-05 11.849569
v -17.370659 -1.606785E-05 11.895352
v -17.369905 -0.5705992 13.493071
v -17.370651 -0.5705992 11.992515
v -17.370659 -1.606785E-05 11.895352
v -17.369919 -1.606785E-05 13.493071
v -21.80248 -0.57060015 11.995566
v -21.80269 -0.5706011 13.493079
v -21.802683 -1.7975199E-05 13.493079
v -21.802475 -1.7021524E-05 11.899801
v -37.618755 -1.7081129E-05 11.899801
v -37.619843 -0.57060015 11.995566
v -21.80248 -0.57060015 11.995566
v -21.802475 -1.7021524E-05 11.899801
v -37.62361 1.4449728E-05 -11.521409
v -3.7810574 1.4449728E-05 -11.521455
v -3.6559181 -0.5705687 -11.666327
v -37.623615 -0.5705687 -11.66628
v -3.7810574 1.4449728E-05 -11.521455
v -2.9829674 1.4449728E-05 -11.379176
v -2.8513317 -0.5705687 -11.522604
v -3.6559181 -0.5705687 -11.666327
v -2.9829674 1.4449728E-05 -11.379176
v -2.3382874 1.4449728E-05 -10.963774
v -2.2014046 -0.5705687 -11.102989
v -2.8513317 -0.5705687 -11.522604
v -2.3382874 1.4449728E-05 -10.963774
v -1.9075661 1.4449728E-05 -10.342085
v -1.7671776 -0.5705687 -10.474994
v -2.2014046 -0.5705687 -11.102989
v -1.9075661 1.4449728E-05 -10.342085
v -1.7600021 1.4449728E-05 -9.5724
v -1.618412 -0.5705687 -9.697503
v -1.7671776 -0.5705687 -10.474994
v 0.41347885 -1.6110302 10.961673
v -1.6221352 -0.570583 -1.5189526E-06
v -1.7003784 -0.5705658 9.975098
v 0.41345596 -1.611015 -1.5189526E-06
v -1.618412 -0.5705687 -9.697503
v 0.41343307 -1.6110007 -10.961674
v 0.2207756 -1.6110302 11.93039
v 0.41347885 -1.6110302 10.961673
v -1.7003784 -0.5705658 9.975098
v -1.8491344 -0.5705658 10.752594
v -0.32796288 -1.6110321 12.751631
v 0.2207756 -1.6110302 11.93039
v -1.8491344 -0.5705658 10.752594
v -2.2833862 -0.5705677 11.380595
v -1.1491814 -1.6110321 13.300354
v -0.32796288 -1.6110321 12.751631
v -2.2833862 -0.5705677 11.380595
v -2.9332676 -0.5705677 11.8002
v -2.1179085 -1.6110321 13.493045
v -1.1491814 -1.6110321 13.300354
v -2.9332676 -0.5705677 11.8002
v -3.7378855 -0.5705687 11.9439335
v -17.370413 -1.6110312 13.493071
v -2.1179085 -1.6110321 13.493045
v -3.7378855 -0.5705687 11.9439335
v -17.370651 -0.5705992 11.992515
v -37.62843 -1.6110321 13.4931
v -21.802578 -1.6110321 13.493079
v -21.80248 -0.57060015 11.995566
v -37.619843 -0.57060015 11.995566
v -2.1179543 -1.6110007 -13.4930315
v -37.623634 -1.6110007 -13.492979
v -37.623615 -0.5705687 -11.66628
v -3.6559181 -0.5705687 -11.666327
v -1.1492653 -1.6110007 -13.300354
v -2.1179543 -1.6110007 -13.4930315
v -3.6559181 -0.5705687 -11.666327
v -2.8513317 -0.5705687 -11.522604
v -0.3279915 -1.6110007 -12.751616
v -1.1492653 -1.6110007 -13.300354
v -2.8513317 -0.5705687 -11.522604
v -2.2014046 -0.5705687 -11.102989
v 0.2207222 -1.6110007 -11.930382
v -0.3279915 -1.6110007 -12.751616
v -2.2014046 -0.5705687 -11.102989
v -1.7671776 -0.5705687 -10.474994
v 0.41343307 -1.6110007 -10.961674
v 0.2207222 -1.6110007 -11.930382
v -1.7671776 -0.5705687 -10.474994
v -1.618412 -0.5705687 -9.697503
v -37.623634 -1.6110007 -13.492979
v -37.623634 -1.5114176E-05 -13.492979
v -37.62361 1.4449728E-05 -11.521409
v -37.623615 -0.5705687 -11.66628
v -37.619843 -0.57060015 11.995566
v -37.618755 -1.7081129E-05 11.899801
v -37.62843 -1.7259943E-05 13.4931
v -37.62843 -1.6110321 13.4931
vt 0.3548067 0.14590639
vt 0.35213283 0.14590639
vt 0.35748056 0.14590639
vt 0.32861423 0.44967818
vt 0.3259403 0.44967818
vt 0.3312881 0.44967818
vt 0.3263359 0.44056493
vt 0.3312881 0.44056493
vt 0.3312881 0.44135606
vt 0.3263359 0.44135606
vt 0.3213837 0.44056493
vt 0.3213837 0.44135606
vt 0.3213837 0.44056493
vt 0.3312881 0.44056493
vt 0.3312881 0.44135606
vt 0.3213837 0.44135606
vt 0.3213837 0.44056493
vt 0.3312881 0.44056493
vt 0.3312881 0.44135606
vt 0.3213837 0.44135606
vt 0.3213837 0.44056493
vt 0.3312881 0.44056493
vt 0.3312881 0.44135606
vt 0.3213837 0.44135606
vt 0.3213837 0.44056493
vt 0.3312881 0.44056493
vt 0.3312881 0.44135606
vt 0.3213837 0.44135606
vt 0.32590234 0.44135606
vt 0.3213837 0.44135606
vt 0.3213837 0.44056493
vt 0.3259008 0.44056493
vt 0.32673144 0.44967818
vt 0.3213837 0.44967818
vt 0.3213837 0.45046932
vt 0.3263359 0.45046932
vt 0.3312881 0.44967818
vt 0.3259403 0.44967818
vt 0.3263359 0.45046932
vt 0.3312881 0.45046932
vt 0.3312881 0.44056493
vt 0.3312881 0.44135606
vt 0.32740605 0.44135606
vt 0.32741266 0.44056493
vt 0.3213837 0.44056493
vt 0.3312881 0.44056493
vt 0.3312881 0.44135606
vt 0.3213837 0.44135606
vt 0.3213837 0.44056493
vt 0.3312881 0.44056493
vt 0.3312881 0.44135606
vt 0.3213837 0.44135606
vt 0.3213837 0.44056493
vt 0.3312881 0.44056493
vt 0.3312881 0.44135606
vt 0.3213837 0.44135606
vt 0.3213837 0.44056493
vt 0.3312881 0.44056493
vt 0.3312881 0.44135606
vt 0.3213837 0.44135606
vt 0.3213837 0.44056493
vt 0.3312881 0.44056493
vt 0.3312881 0.44135606
vt 0.3213837 0.44135606
vt 0.3649214 0.14484161
vt 0.3599692 0.14484161
vt 0.3649214 0.14484161
vt 0.3599692 0.14484161
vt 0.355017 0.14484161
vt 0.355017 0.14484161
vt 0.3649214 0.14484161
vt 0.355017 0.14484161
vt 0.355017 0.14484161
vt 0.3649214 0.14484161
vt 0.3649214 0.14484161
vt 0.355017 0.14484161
vt 0.355017 0.14484161
vt 0.3649214 0.14484161
vt 0.3649214 0.14484161
vt 0.355017 0.14484161
vt 0.355017 0.14484161
vt 0.3649214 0.14484161
vt 0.3649214 0.14484161
vt 0.355017 0.14484161
vt 0.355017 0.14484161
vt 0.3649214 0.14484161
vt 0.35953563 0.14484161
vt 0.355017 0.14484161
vt 0.355017 0.14484161
vt 0.35953563 0.14484161
vt 0.35811108 0.14399031
vt 0.35422903 0.14399031
vt 0.35422903 0.14399031
vt 0.35811108 0.14399031
vt 0.3649214 0.14484161
vt 0.355017 0.14484161
vt 0.355017 0.14484161
vt 0.3649214 0.14484161
vt 0.3649214 0.14484161
vt 0.355017 0.14484161
vt 0.355017 0.14484161
vt 0.3649214 0.14484161
vt 0.3649214 0.14484161
vt 0.355017 0.14484161
vt 0.355017 0.14484161
vt 0.3649214 0.14484161
vt 0.3649214 0.14484161
vt 0.355017 0.14484161
vt 0.355017 0.14484161
vt 0.3649214 0.14484161
vt 0.3649214 0.14484161
vt 0.355017 0.14484161
vt 0.355017 0.14484161
vt 0.3649214 0.14484161
vt 0.35725772 0.14319918
vt 0.35725772 0.15310356
vt 0.3671621 0.15310356
vt 0.3671621 0.14319918
vt 0.35432518 0.14409184
vt 0.35432518 0.15399623
vt 0.36422956 0.15399623
vt 0.36422956 0.14409184
vn -0.99999976 0.00048837427 0.0004969186
vn -0.99999976 0.00048837415 0.00049691857
vn -0.99999976 0.00048837427 0.0004969186
vn 1 0.000108952205 0.00014042296
vn 1 0.00010895219 0.00014042294
vn 1 0.0001089522 0.00014042296
vn -0.9705072 -0.24103762 -0.0040665446
vn -0.9699145 -0.24269888 -0.019059375
vn -0.9697538 -0.24307762 -0.022156907
vn -0.9705073 -0.24103734 -0.004061945
vn -0.969947 -0.24307857 0.010754461
vn -0.9695458 -0.24432823 0.01687243
vn -0.9699145 -0.24269888 -0.019059375
vn -0.8904428 -0.27195176 -0.36490253
vn -0.88679594 -0.27230424 -0.3734213
vn -0.9697538 -0.24307762 -0.022156907
vn -0.8904428 -0.27195176 -0.36490253
vn -0.6639748 -0.26784912 -0.69813627
vn -0.67446953 -0.2686935 -0.68767345
vn -0.88679594 -0.27230424 -0.3734213
vn -0.6639748 -0.26784912 -0.69813627
vn -0.33490965 -0.22609861 -0.9147213
vn -0.3685667 -0.23144056 -0.90032995
vn -0.67446953 -0.2686935 -0.68767345
vn -0.33490965 -0.22609861 -0.9147213
vn -0.011015836 -0.16739503 -0.9858284
vn -0.015632965 -0.1683099 -0.9856102
vn -0.3685667 -0.23144056 -0.90032995
vn -0.0034283316 -0.16588363 -0.9861394
vn -0.015632965 -0.1683099 -0.9856102
vn -0.011015836 -0.16739503 -0.9858284
vn -0.0034283318 -0.16588365 -0.9861394
vn -0.9999999 2.1173899E-05 0.0004793342
vn -0.9999999 2.11739E-05 0.00047933427
vn -0.9999999 2.11739E-05 0.0004793342
vn -0.9999999 2.1173899E-05 0.0004793342
vn 1 0 0.00013560933
vn 1 0 0.00013560931
vn 1 0 0.00013560933
vn 1 0 0.00013560934
vn -0 -0.16552216 -0.9862061
vn -0 -0.16552216 -0.9862061
vn -0 -0.16552216 -0.9862061
vn -0 -0.16552216 -0.9862061
vn -0 -0.24609265 0.9692463
vn -0.0031711366 -0.24674079 0.9690763
vn -0.0050517716 -0.24712382 0.9689707
vn -0 -0.24609262 0.9692463
vn -0.0031711366 -0.24674079 0.9690763
vn -0.3315802 -0.30110723 0.8940855
vn -0.35720837 -0.30419776 0.88310015
vn -0.0050517716 -0.24712382 0.9689707
vn -0.3315802 -0.30110723 0.8940855
vn -0.6569081 -0.32373166 0.680933
vn -0.6573376 -0.32373163 0.6805182
vn -0.35720837 -0.30419776 0.88310015
vn -0.6569081 -0.32373166 0.680933
vn -0.88605595 -0.30039677 0.35308155
vn -0.87416035 -0.30358005 0.3790551
vn -0.6573376 -0.32373163 0.6805182
vn -0.88605595 -0.30039677 0.35308155
vn -0.969947 -0.24307857 0.010754461
vn -0.9695458 -0.24432823 0.01687243
vn -0.87416035 -0.30358005 0.3790551
vn -0.44355562 -0.8961762 -0.011253371
vn -0.4516534 -0.89219296 -0.0008919431
vn -0.44584107 -0.89509 -0.006294502
vn -0.4516622 -0.8921886 -0.0008900939
vn -0.45341718 -0.89128864 0.004164865
vn -0.44986817 -0.8930216 0.011455761
vn -0.36833057 -0.9158358 -0.1599291
vn -0.44355562 -0.8961762 -0.011253371
vn -0.44584107 -0.89509 -0.006294502
vn -0.37404454 -0.915284 -0.14948569
vn -0.28982624 -0.9148537 -0.28114662
vn -0.36833057 -0.9158358 -0.1599291
vn -0.37404454 -0.915284 -0.14948569
vn -0.2793027 -0.9137928 -0.2949114
vn -0.18943039 -0.8977222 -0.39775756
vn -0.28982624 -0.9148537 -0.28114662
vn -0.2793027 -0.9137928 -0.2949114
vn -0.1500003 -0.8873213 -0.43607438
vn -0.014638117 -0.8332514 -0.5527004
vn -0.18943039 -0.8977222 -0.39775756
vn -0.1500003 -0.8873213 -0.43607438
vn -0.0037234894 -0.82770294 -0.5611541
vn -0.0009470382 -0.82626235 -0.5632847
vn -0.014638117 -0.8332514 -0.5527004
vn -0.0037234894 -0.82770294 -0.5611541
vn -0.0009470382 -0.82626235 -0.5632847
vn -0 -0.82124525 -0.5705753
vn -0 -0.82124525 -0.57057536
vn -0 -0.82124525 -0.57057536
vn -0 -0.82124525 -0.5705753
vn -0.0048760744 -0.8706347 0.49190596
vn -0 -0.8689384 0.4949203
vn -0 -0.8689384 0.49492037
vn -0.0011742582 -0.86934996 0.49419573
vn -0.17068002 -0.9128098 0.37100744
vn -0.0048760744 -0.8706347 0.49190596
vn -0.0011742582 -0.86934996 0.49419573
vn -0.14082256 -0.90753084 0.3956725
vn -0.27283278 -0.9227076 0.27234697
vn -0.17068002 -0.9128098 0.37100744
vn -0.14082256 -0.90753084 0.3956725
vn -0.26846308 -0.92257637 0.2770925
vn -0.36023352 -0.91849285 0.1631035
vn -0.27283278 -0.9227076 0.27234697
vn -0.26846308 -0.92257637 0.2770925
vn -0.37330842 -0.91647464 0.14392735
vn -0.44986817 -0.8930216 0.011455761
vn -0.36023352 -0.91849285 0.1631035
vn -0.37330842 -0.91647464 0.14392735
vn -0.45341718 -0.89128864 0.004164865
vn -1 0 0
vn -1 0 0
vn -1 0 0
vn -1 0 0
vn -0.9999831 0.00024174078 -0.0058263466
vn -0.9999831 0.00024174077 -0.005826346
vn -0.9999831 0.00024174078 -0.0058263466
vn -0.9999831 0.00024174077 -0.005826346
g CeilingBevel_0
f 3/3/3 2/2/2 1/1/1
f 6/6/6 5/5/5 4/4/4
f 9/9/9 8/8/8 7/7/7
f 10/10/10 9/9/9 7/7/7
f 10/10/10 7/7/7 11/11/11
f 12/12/12 10/10/10 11/11/11
f 15/15/15 14/14/14 13/13/13
f 16/16/16 15/15/15 13/13/13
f 19/19/19 18/18/18 17/17/17
f 20/20/20 19/19/19 17/17/17
f 23/23/23 22/22/22 21/21/21
f 24/24/24 23/23/23 21/21/21
f 27/27/27 26/26/26 25/25/25
f 28/28/28 27/27/27 25/25/25
f 31/31/31 30/30/30 29/29/29
f 32/32/32 31/31/31 29/29/29
f 35/35/35 34/34/34 33/33/33
f 36/36/36 35/35/35 33/33/33
f 39/39/39 38/38/38 37/37/37
f 40/40/40 39/39/39 37/37/37
f 43/43/43 42/42/42 41/41/41
f 44/44/44 43/43/43 41/41/41
f 47/47/47 46/46/46 45/45/45
f 48/48/48 47/47/47 45/45/45
f 51/51/51 50/50/50 49/49/49
f 52/52/52 51/51/51 49/49/49
f 55/55/55 54/54/54 53/53/53
f 56/56/56 55/55/55 53/53/53
f 59/59/59 58/58/58 57/57/57
f 60/60/60 59/59/59 57/57/57
f 63/63/63 62/62/62 61/61/61
f 64/64/64 63/63/63 61/61/61
f 67/67/67 66/66/66 65/65/65
f 66/66/66 68/68/68 65/65/65
f 66/66/66 69/69/69 68/68/68
f 69/69/69 70/70/70 68/68/68
f 73/73/73 72/72/72 71/71/71
f 74/74/74 73/73/73 71/71/71
f 77/77/77 76/76/76 75/75/75
f 78/78/78 77/77/77 75/75/75
f 81/81/81 80/80/80 79/79/79
f 82/82/82 81/81/81 79/79/79
f 85/85/85 84/84/84 83/83/83
f 86/86/86 85/85/85 83/83/83
f 89/89/89 88/88/88 87/87/87
f 90/90/90 89/89/89 87/87/87
f 93/93/93 92/92/92 91/91/91
f 94/94/94 93/93/93 91/91/91
f 97/97/97 96/96/96 95/95/95
f 98/98/98 97/97/97 95/95/95
f 101/101/101 100/100/100 99/99/99
f 102/102/102 101/101/101 99/99/99
f 105/105/105 104/104/104 103/103/103
f 106/106/106 105/105/105 103/103/103
f 109/109/109 108/108/108 107/107/107
f 110/110/110 109/109/109 107/107/107
f 113/113/113 112/112/112 111/111/111
f 114/114/114 113/113/113 111/111/111
f 117/117/117 116/116/116 115/115/115
f 118/118/118 117/117/117 115/115/115
f 121/121/121 120/120/120 119/119/119
f 122/122/122 121/121/121 119/119/119
