g Collider8
v -3.4160748 1.4901394 1.2256118
v -2.6043158 1.4440929 1.4072999
v -2.6102057 1.4031441 1.4480456
v -3.453311 1.4491781 1.2570206
v -2.6102057 1.2650081 1.4480456
v -2.5973663 0.90673256 1.3391639
v -3.389102 0.90673256 1.20286
v -3.453311 1.3123144 1.2570206
v -3.453311 1.3123144 1.2570206
v -3.453311 1.4491781 1.2570206
v -2.6102057 1.4031441 1.4480456
v -2.6102057 1.2650081 1.4480456
v -3.1801605 1.4901447 1.0199376
v -2.6043158 1.4440929 1.4072999
v -3.4160748 1.4901394 1.2256118
v -2.4929776 1.4441407 1.1368841
v -1.5820005 1.408988 1.4588361
v -1.5796936 1.408988 1.181368
v -2.9803443 0.7121887 0.6322533
v -2.471377 0.7121887 0.72708434
v -2.4931054 0.8908016 0.96745116
v -3.1846623 0.9171884 0.8261513
v -3.1846623 0.9171884 0.8261513
v -2.4931054 0.8908016 0.96745116
v -2.4929776 1.4441407 1.1368841
v -3.1801605 1.4901447 1.0199376
v -2.5975103 0.48879653 1.1507788
v -3.3460474 0.5540187 1.0341265
v -3.389102 0.90673256 1.20286
v -2.5973663 0.90673256 1.3391639
v -1.5834794 1.3680221 1.4997919
v -2.6102057 1.4031441 1.4480456
v -2.6043158 1.4440929 1.4072999
v -1.5820005 1.408988 1.4588361
v -1.5795295 0.90673256 1.3901159
v -2.5973663 0.90673256 1.3391639
v -2.6102057 1.2650081 1.4480456
v -1.5879152 1.2545389 1.4955837
v -2.6102057 1.2650081 1.4480456
v -2.6102057 1.4031441 1.4480456
v -1.5834794 1.3680221 1.4997919
v -1.5879152 1.2545389 1.4955837
v -1.5798187 0.8899671 1.0197417
v -2.471377 0.7121887 0.72708434
v -1.5734227 0.7121887 0.77814084
v -2.4931054 0.8908016 0.96745116
v -1.5796936 1.408988 1.181368
v -2.4929776 1.4441407 1.1368841
v -1.5796783 0.4401505 1.2029372
v -2.5975103 0.48879653 1.1507788
v -2.5973663 0.90673256 1.3391639
v -1.5795295 0.90673256 1.3901159
vt 0.1373899 0.242041
vt 0.1373899 0.242041
vt 0.1373899 0.242041
vt 0.1373899 0.242041
vt 0.1373899 0.24204099
vt 0.1373899 0.242041
vt 0.1373899 0.242041
vt 0.1373899 0.24204099
vt 0.1373899 0.24204099
vt 0.1373899 0.242041
vt 0.1373899 0.242041
vt 0.1373899 0.24204099
vt 0.2686278 0.5448074
vt 0.1373899 0.242041
vt 0.1373899 0.242041
vt 0.2686278 0.5448074
vt 0.1373899 0.242041
vt 0.2686278 0.5448074
vt 0.09236407 0.541221
vt 0.09236407 0.541221
vt 0.09236407 0.541221
vt 0.09236407 0.541221
vt 0.1701443 0.5460823
vt 0.1701443 0.5460823
vt 0.1701443 0.5460823
vt 0.1701443 0.5460823
vt 0.1101705 0.242041
vt 0.1101705 0.242041
vt 0.1101705 0.242041
vt 0.1101705 0.242041
vt 0.1373899 0.242041
vt 0.1373899 0.242041
vt 0.1373899 0.242041
vt 0.1373899 0.242041
vt 0.1373899 0.242041
vt 0.1373899 0.242041
vt 0.1373899 0.24204099
vt 0.1373899 0.24204099
vt 0.1373899 0.24204099
vt 0.1373899 0.242041
vt 0.1373899 0.242041
vt 0.1373899 0.24204099
vt 0.1701443 0.5460823
vt 0.17014432 0.5460823
vt 0.1701443 0.5460823
vt 0.1701443 0.5460823
vt 0.1701443 0.5460823
vt 0.1701443 0.5460823
vt 0.1101705 0.242041
vt 0.1101705 0.242041
vt 0.1101705 0.242041
vt 0.1101705 0.242041
vn -0.12190078 0.6914446 0.7120707
vn -0.12190078 0.6914445 0.7120707
vn -0.12190078 0.6914445 0.7120707
vn -0.12190077 0.69144446 0.7120707
vn -0.19756937 -0.22364873 0.9544357
vn -0.19756939 -0.22364873 0.9544357
vn -0.19756936 -0.22364873 0.9544357
vn -0.19756937 -0.22364873 0.9544357
vn -0.22097218 0 0.97528017
vn -0.22097218 0 0.97528017
vn -0.2209722 0 0.97528017
vn -0.2209722 0 0.97528017
vn 0.05348151 0.9978022 0.039119907
vn 0.053481508 0.9978022 0.039119907
vn 0.053481504 0.9978022 0.039119903
vn 0.053481508 0.9978022 0.03911991
vn 0.03589942 0.99932706 0.0075338255
vn 0.03589942 0.99932706 0.007533825
vn 0.13792528 0.7768264 -0.61442435
vn 0.1379253 0.7768264 -0.61442435
vn 0.181564 0.4575254 -0.8704625
vn 0.18392676 0.4258705 -0.8858924
vn 0.18392676 0.4258705 -0.8858924
vn 0.181564 0.4575254 -0.8704625
vn 0.19081476 0.3005749 -0.9344755
vn 0.19081476 0.3005749 -0.9344755
vn -0.16428393 -0.42225274 0.891467
vn -0.1642839 -0.4222527 0.891467
vn -0.16428392 -0.42225268 0.891467
vn -0.1642839 -0.4222527 0.891467
vn -0.011440917 0.7066554 0.7074653
vn -0.011440918 0.7066553 0.70746535
vn -0.011440918 0.7066554 0.70746535
vn -0.011440918 0.7066554 0.70746535
vn -0.047618724 -0.29146647 0.955395
vn -0.047618728 -0.2914665 0.955395
vn -0.047618728 -0.29146647 0.955395
vn -0.047618724 -0.29146647 0.955395
vn -0.048743375 -0.015843177 0.99868566
vn -0.04874337 -0.015843177 0.99868566
vn -0.04874337 -0.015843177 0.99868566
vn -0.04874337 -0.015843177 0.99868566
vn 0.051097654 0.4902734 -0.87006956
vn 0.034201868 0.80453575 -0.5929186
vn 0.03420187 0.80453575 -0.5929186
vn 0.051013928 0.4926786 -0.8687148
vn 0.056345977 0.29450217 -0.9539882
vn 0.056345973 0.29450217 -0.9539882
vn -0.055875327 -0.3902002 0.9190331
vn -0.05587533 -0.3902002 0.9190331
vn -0.055875327 -0.39020017 0.9190331
vn -0.055875324 -0.3902002 0.919033
g Collider8_0
f 3/3/3 2/2/2 1/1/1
f 4/4/4 3/3/3 1/1/1
f 7/7/7 6/6/6 5/5/5
f 8/8/8 7/7/7 5/5/5
f 11/11/11 10/10/10 9/9/9
f 12/12/12 11/11/11 9/9/9
f 15/15/15 14/14/14 13/13/13
f 14/14/14 16/16/16 13/13/13
f 14/14/14 17/17/17 16/16/16
f 17/17/17 18/18/18 16/16/16
f 21/21/21 20/20/20 19/19/19
f 22/22/22 21/21/21 19/19/19
f 25/25/25 24/24/24 23/23/23
f 26/26/26 25/25/25 23/23/23
f 29/29/29 28/28/28 27/27/27
f 30/30/30 29/29/29 27/27/27
f 33/33/33 32/32/32 31/31/31
f 34/34/34 33/33/33 31/31/31
f 37/37/37 36/36/36 35/35/35
f 38/38/38 37/37/37 35/35/35
f 41/41/41 40/40/40 39/39/39
f 42/42/42 41/41/41 39/39/39
f 45/45/45 44/44/44 43/43/43
f 44/44/44 46/46/46 43/43/43
f 47/47/47 43/43/43 46/46/46
f 48/48/48 47/47/47 46/46/46
f 51/51/51 50/50/50 49/49/49
f 52/52/52 51/51/51 49/49/49
