g Collider1
v 2 -9.359415E-10 0.12503898
v 2 0.32528213 -0.15713014
v 2 -9.359415E-10 -0.12503892
v -2 -9.359415E-10 -0.12503892
v -2 0.32528213 -0.15713017
v -2 -9.359415E-10 0.12503898
v -2 -9.359415E-10 0.12503898
v -2 0.32528213 -0.15713017
v 2 0.32528213 -0.15713014
v 2 -9.359415E-10 0.12503898
v -2 0.32528213 -0.15713017
v -2 -9.359415E-10 -0.12503892
v 2 -9.359415E-10 -0.12503892
v 2 0.32528213 -0.15713014
v -2 -9.359415E-10 -0.12503892
v -2 -9.359415E-10 0.12503898
v 2 -9.359415E-10 0.12503898
v 2 -9.359415E-10 -0.12503892
vt 0.625 0
vt 0.75 0.25
vt 0.875 0
vt 0.125 0
vt 0.25 0.25
vt 0.375 0
vt 0.375 0
vt 0.25 0.25
vt 0.75 0.25
vt 0.625 0
vt 0.375 0.5
vt 0.375 0.75
vt 0.625 0.75
vt 0.625 0.5
vt 0.375 0.75
vt 0.375 1
vt 0.625 1
vt 0.625 0.75
vn 1 0 0
vn 1 0 0
vn 1 0 0
vn -1 0 0
vn -1 0 0
vn -1 0 0
vn -0 0.6552724 0.75539255
vn -0 0.6552724 0.75539255
vn -0 0.6552724 0.75539255
vn -0 0.6552724 0.75539255
vn -0 -0.09817997 -0.9951687
vn -0 -0.09817997 -0.9951687
vn -0 -0.09817997 -0.9951687
vn -0 -0.09817997 -0.9951687
vn -0 -1 0
vn -0 -1 0
vn -0 -1 0
vn -0 -1 0
g Collider1_0
f 3/3/3 2/2/2 1/1/1
f 6/6/6 5/5/5 4/4/4
f 9/9/9 8/8/8 7/7/7
f 10/10/10 9/9/9 7/7/7
f 13/13/13 12/12/12 11/11/11
f 14/14/14 13/13/13 11/11/11
f 17/17/17 16/16/16 15/15/15
f 18/18/18 17/17/17 15/15/15
