g Collider5
v 3.4346046 1.5372509 0.1577245
v 3.4787335 1.5217744 0.18175799
v 2.6491694 1.4998101 0.765112
v 2.4373116 1.506727 0.5944275
v 3.4346046 1.5372509 0.1577245
v 3.0791817 1.5372509 0.15543568
v 3.5017385 1.4704273 0.20233202
v 2.6613498 1.4552733 0.80066556
v 2.6491694 1.4998101 0.765112
v 3.4787335 1.5217744 0.18175799
v 3.2401762 0.9651674 0.15787709
v 2.5187144 0.9651674 0.7061057
v 2.6343093 1.344471 0.79934496
v 3.4466748 1.3281847 0.20237523
v 2.6613498 1.4552733 0.80066556
v 3.5017385 1.4704273 0.20233202
v 3.4466748 1.3281847 0.20237523
v 2.6343093 1.344471 0.79934496
v 2.2111368 0.7121887 0.29355916
v 2.6009035 0.7121887 0.042788994
v 2.8613005 0.89372295 0.15333506
v 2.3305397 0.899711 0.49765632
v 3.0791817 1.5372509 0.15543568
v 2.4373116 1.506727 0.5944275
vt 0.13739 0.242041
vt 0.13739 0.242041
vt 0.13738996 0.242041
vt 0.2686278 0.5448074
vt 0.2686278 0.5448074
vt 0.2686278 0.5448074
vt 0.13739 0.24204099
vt 0.13738996 0.242041
vt 0.13738996 0.242041
vt 0.13739 0.242041
vt 0.13739 0.242041
vt 0.13738996 0.242041
vt 0.13738996 0.24204099
vt 0.13739 0.24204099
vt 0.13738996 0.242041
vt 0.13739 0.24204099
vt 0.13739 0.24204099
vt 0.13738996 0.24204099
vt 0.1701443 0.5460823
vt 0.1701443 0.5460823
vt 0.1701443 0.5460823
vt 0.1701443 0.5460823
vt 0.1701443 0.5460823
vt 0.1701443 0.5460823
vn 0.04061289 0.9924305 0.11589751
vn 0.17536534 0.9423905 0.2848635
vn -0.00481427 0.9982918 0.05822654
vn -0.005367006 0.9983298 0.05752267
vn 0.04061289 0.9924305 0.11589751
vn -0.005367007 0.9983298 0.057522677
vn 0.4669314 0.5680546 0.6777086
vn 0.46693134 0.5680547 0.6777086
vn 0.4669314 0.5680547 0.6777086
vn 0.4669314 0.5680547 0.6777087
vn 0.5514694 -0.37732792 0.7439793
vn 0.5514693 -0.37732798 0.7439793
vn 0.5514693 -0.37732792 0.7439793
vn 0.5514694 -0.37732792 0.7439793
vn 0.5751873 -0.19064404 0.7954963
vn 0.5751873 -0.19064407 0.7954963
vn 0.57518727 -0.19064406 0.7954963
vn 0.5751873 -0.19064404 0.7954963
vn -0.33194244 0.78611463 -0.52138096
vn -0.3319424 0.78611463 -0.52138096
vn -0.52663875 0.32040074 -0.7873975
vn -0.5129962 0.3795944 -0.76989794
vn -0.5465226 0.20605768 -0.81169784
vn -0.5465226 0.20605768 -0.81169784
g Collider5_0
f 3/3/3 2/2/2 1/1/1
f 3/3/3 5/5/5 4/4/4
f 5/5/5 6/6/6 4/4/4
f 9/9/9 8/8/8 7/7/7
f 10/10/10 9/9/9 7/7/7
f 13/13/13 12/12/12 11/11/11
f 14/14/14 13/13/13 11/11/11
f 17/17/17 16/16/16 15/15/15
f 18/18/18 17/17/17 15/15/15
f 21/21/21 20/20/20 19/19/19
f 22/22/22 21/21/21 19/19/19
f 21/21/21 22/22/22 23/23/23
f 22/22/22 24/24/24 23/23/23
