g Crate_Piece12
v -0.5793567 0.7741835 0.09479469
v -0.57944596 0.7741835 -0.09479457
v 0.5958417 0.7741835 -0.09479457
v 0.59588295 0.7741835 0.09479469
v -0.57944596 0.7741835 -0.09479457
v -0.5793567 0.5974417 -0.09479457
v 0.5958819 0.5974417 -0.09479457
v 0.5958417 0.7741835 -0.09479457
v 0.59588295 0.7741835 0.09479469
v 0.5959229 0.5974417 0.09479469
v -0.5792674 0.5974417 0.09479469
v -0.5793567 0.7741835 0.09479469
v 0.5959229 0.5974417 0.09479469
v 0.5958819 0.5974417 -0.09479457
v -0.5793567 0.5974417 -0.09479457
v -0.5792674 0.5974417 0.09479469
v 0.5958819 0.5974417 -0.09479457
v 0.5959229 0.5974417 0.09479469
v 0.59588295 0.7741835 0.09479469
v 0.5958417 0.7741835 -0.09479457
v -0.57944596 0.7741835 -0.09479457
v -0.5793567 0.7741835 0.09479469
v -0.5792674 0.5974417 0.09479469
v -0.5793567 0.5974417 -0.09479457
v -0.5959229 -0.59748286 -0.08194721
v -0.5959229 0.5895767 -0.08194721
v -0.5959229 0.5895767 0.025367796
v -0.5959229 -0.59748286 0.025367796
v -0.5959229 0.5895767 -0.08194721
v 0.59127396 0.5895767 -0.08194721
v 0.59127396 0.5895767 0.025367737
v -0.5959229 0.5895767 0.025367796
v 0.59127396 0.5895767 -0.08194721
v 0.59127396 -0.59748286 -0.08194721
v 0.59127396 -0.59748286 0.025367737
v 0.59127396 0.5895767 0.025367737
v 0.59127396 -0.59748286 -0.08194721
v -0.5959229 -0.59748286 -0.08194721
v -0.5959229 -0.59748286 0.025367796
v 0.59127396 -0.59748286 0.025367737
v -0.5959229 -0.59748286 0.025367796
v -0.5959229 0.5895767 0.025367796
v 0.59127396 0.5895767 0.025367737
v 0.59127396 -0.59748286 0.025367737
v 0.59127396 -0.59748286 -0.08194721
v 0.59127396 0.5895767 -0.08194721
v -0.5959229 0.5895767 -0.08194721
v -0.5959229 -0.59748286 -0.08194721
v 0.559423 0.72759366 0.061403215
v 0.559423 0.72759366 -0.0638929
v 0.5899531 0.48296642 -0.0638929
v 0.5889909 0.48200417 0.061403215
v -0.58037955 -0.6882422 0.061403215
v -0.58037955 -0.6882422 -0.0638929
v -0.59284765 -0.42689902 -0.0638929
v -0.5947007 -0.42874902 0.061403215
v -0.58037955 -0.6882422 0.061403215
v 0.5889909 0.48200417 0.061403215
v 0.5899531 0.48296642 -0.0638929
v -0.58037955 -0.6882422 -0.0638929
v -0.5947007 -0.42874902 0.061403215
v 0.559423 0.72759366 0.061403215
v 0.5889909 0.48200417 0.061403215
v -0.58037955 -0.6882422 0.061403215
v -0.59284765 -0.42689902 -0.0638929
v 0.559423 0.72759366 -0.0638929
v 0.559423 0.72759366 0.061403215
v -0.5947007 -0.42874902 0.061403215
v 0.559423 0.72759366 -0.0638929
v -0.59284765 -0.42689902 -0.0638929
v -0.58037955 -0.6882422 -0.0638929
v 0.5899531 0.48296642 -0.0638929
v -0.5793567 -0.59744155 0.09479463
v -0.57944596 -0.59744155 -0.09479463
v 0.5958417 -0.5974417 -0.09479469
v 0.59588295 -0.59744155 0.09479457
v -0.57944596 -0.59744155 -0.09479463
v -0.5793567 -0.7741834 -0.09479463
v 0.5958819 -0.7741835 -0.09479469
v 0.5958417 -0.5974417 -0.09479469
v 0.59588295 -0.59744155 0.09479457
v 0.5959229 -0.7741835 0.09479457
v -0.5792674 -0.7741834 0.09479457
v -0.5793567 -0.59744155 0.09479463
v 0.5959229 -0.7741835 0.09479457
v 0.5958819 -0.7741835 -0.09479469
v -0.5793567 -0.7741834 -0.09479463
v -0.5792674 -0.7741834 0.09479457
v 0.5958819 -0.7741835 -0.09479469
v 0.5959229 -0.7741835 0.09479457
v 0.59588295 -0.59744155 0.09479457
v 0.5958417 -0.5974417 -0.09479469
v -0.57944596 -0.59744155 -0.09479463
v -0.5793567 -0.59744155 0.09479463
v -0.5792674 -0.7741834 0.09479457
v -0.5793567 -0.7741834 -0.09479463
vt 0.7592622 0.79388297
vt 0.7361542 0.79864365
vt 0.73394454 0.79864365
vt 0.7577032 0.793883
vt 0.7283051 0.92736846
vt 0.71460444 0.92579234
vt 0.7146043 0.92579246
vt 0.72609544 0.92736846
vt 0.7498541 0.92260784
vt 0.73854613 0.92157584
vt 0.73752934 0.92157584
vt 0.7514131 0.9226078
vt 0.73854613 0.92157584
vt 0.7146043 0.92579246
vt 0.71460444 0.92579234
vt 0.73752934 0.92157584
vt 0.7146043 0.92579246
vt 0.73854613 0.92157584
vt 0.7498541 0.92260784
vt 0.72609544 0.92736846
vt 0.7283051 0.92736846
vt 0.7514131 0.9226078
vt 0.73752934 0.92157584
vt 0.71460444 0.92579234
vt 0.84390146 0.91706467
vt 0.84390146 0.9347905
vt 0.8453866 0.9347905
vt 0.8453866 0.91706467
vt 0.84390146 0.9347905
vt 0.84390146 0.9525162
vt 0.8453866 0.9525162
vt 0.8453866 0.9347905
vt 0.84390146 0.9525162
vt 0.84390146 0.970242
vt 0.8453866 0.970242
vt 0.8453866 0.9525162
vt 0.84390146 0.970242
vt 0.84390146 0.9879677
vt 0.8453866 0.9879677
vt 0.8453866 0.970242
vt 0.7992166 0.99750286
vt 0.8561668 0.9975028
vt 0.8561668 0.70407474
vt 0.7992166 0.70407474
vt 0.7992166 0.99750286
vt 0.8561668 0.9975028
vt 0.8561668 0.70407474
vt 0.7992166 0.70407474
vt 0.7331176 0.9246958
vt 0.7138081 0.92037266
vt 0.7138081 0.93139505
vt 0.73311764 0.92837
vt 0.73679173 0.92836994
vt 0.7174822 0.931395
vt 0.71748227 0.92037266
vt 0.73679173 0.9246958
vt 0.73679173 0.92836994
vt 0.7333378 0.92837
vt 0.7140255 0.93139505
vt 0.7174822 0.931395
vt 0.73649824 0.8776014
vt 0.7331176 0.8776014
vt 0.7333378 0.8812756
vt 0.73679173 0.88127553
vt 0.7171835 0.9203726
vt 0.7138081 0.92037266
vt 0.7331176 0.9246958
vt 0.73649824 0.9246958
vt 0.7138081 0.92037266
vt 0.7171835 0.9203726
vt 0.7174822 0.931395
vt 0.7140255 0.93139505
vt 0.7514131 0.9226078
vt 0.7283051 0.92736846
vt 0.72609544 0.92736846
vt 0.7498541 0.92260784
vt 0.7283051 0.92736846
vt 0.71460444 0.92579234
vt 0.7146043 0.92579246
vt 0.72609544 0.92736846
vt 0.7498541 0.92260784
vt 0.73854613 0.92157584
vt 0.73752934 0.92157584
vt 0.7514131 0.9226078
vt 0.73854613 0.92157584
vt 0.7146043 0.92579246
vt 0.71460444 0.92579234
vt 0.73752934 0.92157584
vt 0.7146043 0.92579246
vt 0.73854613 0.92157584
vt 0.7498541 0.92260784
vt 0.72609544 0.92736846
vt 0.7283051 0.92736846
vt 0.7514131 0.9226078
vt 0.73752934 0.92157584
vt 0.71460444 0.92579234
vn -0 1 0
vn -0 1 0
vn -0 1 0
vn -0 1 0
vn -0 0 -1
vn -0 0 -1
vn -0 0 -1
vn -0 0 -1
vn -0 0 1
vn -0 0 1
vn -0 0 1
vn -0 0 1
vn -0 -1 0
vn -0 -1 0
vn -0 -1 0
vn -0 -1 0
vn 1 0.0002267969 -0.00021692795
vn 1 0.0002267969 -0.00021692795
vn 1 0.0002267969 -0.00021692795
vn 1 0.0002267969 -0.00021692795
vn -0.99999976 -0.0005051789 0.00047095394
vn -0.99999976 -0.0005051789 0.0004709539
vn -0.99999976 -0.0005051789 0.00047095394
vn -0.99999976 -0.0005051789 0.0004709539
vn -1 0 0
vn -1 0 0
vn -1 0 0
vn -1 0 0
vn -0 1 0
vn -0 1 0
vn -0 1 0
vn -0 1 0
vn 1 0 0
vn 1 0 0
vn 1 0 0
vn 1 0 0
vn -0 -1 0
vn -0 -1 0
vn -0 -1 0
vn -0 -1 0
vn -0 0 1
vn -0 0 1
vn -0 0 1
vn -0 0 1
vn -0 0 -1
vn -0 0 -1
vn -0 0 -1
vn -0 0 -1
vn 0.9925599 0.121682435 0.004278361
vn 0.9925599 0.121682435 0.004278361
vn 0.9925599 0.12168243 0.0042783604
vn 0.9925599 0.12168242 0.0042783604
vn -0.9986498 -0.051365413 -0.0077638957
vn -0.9986498 -0.051365413 -0.0077638957
vn -0.9986498 -0.051365413 -0.0077638947
vn -0.9986498 -0.05136541 -0.0077638947
vn 0.7073714 -0.7068421 0
vn 0.70737135 -0.7068421 0
vn 0.7073714 -0.70684206 0
vn 0.7073714 -0.7068421 0
vn -0 0 1
vn -0 0 1
vn -0 0 1
vn -0 0 1
vn -0.70778674 0.7064261 -1.865029E-05
vn -0.70778674 0.7064261 -1.8650291E-05
vn -0.70778674 0.7064261 -1.8650291E-05
vn -0.70778674 0.70642614 -1.8650293E-05
vn -0 0 -1
vn -0 0 -1
vn -0 0 -1
vn -0 0 -1
vn -0 1 0
vn -0 1 0
vn -0 1 0
vn -0 1 0
vn -0 0 -1
vn -0 0 -1
vn -0 0 -1
vn -0 0 -1
vn -0 0 1
vn -0 0 1
vn -0 0 1
vn -0 0 1
vn -0 -1 0
vn -0 -1 0
vn -0 -1 0
vn -0 -1 0
vn 1 0.00022679685 -0.00021692799
vn 1 0.00022679688 -0.000216928
vn 1 0.00022679687 -0.00021692799
vn 1 0.00022679685 -0.00021692799
vn -0.99999976 -0.00050495676 0.0004709537
vn -0.99999976 -0.00050495676 0.0004709537
vn -0.99999976 -0.00050495676 0.00047095373
vn -0.99999976 -0.00050495676 0.00047095373
g Crate_Piece12_0
f 3/3/3 2/2/2 1/1/1
f 4/4/4 3/3/3 1/1/1
f 7/7/7 6/6/6 5/5/5
f 8/8/8 7/7/7 5/5/5
f 11/11/11 10/10/10 9/9/9
f 12/12/12 11/11/11 9/9/9
f 15/15/15 14/14/14 13/13/13
f 16/16/16 15/15/15 13/13/13
f 19/19/19 18/18/18 17/17/17
f 20/20/20 19/19/19 17/17/17
f 23/23/23 22/22/22 21/21/21
f 24/24/24 23/23/23 21/21/21
f 27/27/27 26/26/26 25/25/25
f 28/28/28 27/27/27 25/25/25
f 31/31/31 30/30/30 29/29/29
f 32/32/32 31/31/31 29/29/29
f 35/35/35 34/34/34 33/33/33
f 36/36/36 35/35/35 33/33/33
f 39/39/39 38/38/38 37/37/37
f 40/40/40 39/39/39 37/37/37
f 43/43/43 42/42/42 41/41/41
f 44/44/44 43/43/43 41/41/41
f 47/47/47 46/46/46 45/45/45
f 48/48/48 47/47/47 45/45/45
f 51/51/51 50/50/50 49/49/49
f 52/52/52 51/51/51 49/49/49
f 55/55/55 54/54/54 53/53/53
f 56/56/56 55/55/55 53/53/53
f 59/59/59 58/58/58 57/57/57
f 60/60/60 59/59/59 57/57/57
f 63/63/63 62/62/62 61/61/61
f 64/64/64 63/63/63 61/61/61
f 67/67/67 66/66/66 65/65/65
f 68/68/68 67/67/67 65/65/65
f 71/71/71 70/70/70 69/69/69
f 72/72/72 71/71/71 69/69/69
f 75/75/75 74/74/74 73/73/73
f 76/76/76 75/75/75 73/73/73
f 79/79/79 78/78/78 77/77/77
f 80/80/80 79/79/79 77/77/77
f 83/83/83 82/82/82 81/81/81
f 84/84/84 83/83/83 81/81/81
f 87/87/87 86/86/86 85/85/85
f 88/88/88 87/87/87 85/85/85
f 91/91/91 90/90/90 89/89/89
f 92/92/92 91/91/91 89/89/89
f 95/95/95 94/94/94 93/93/93
f 96/96/96 95/95/95 93/93/93
