g CrownBySteve_0
v 0.01475499 0.08131477 0.2707806
v 0.01475499 0.06068661 0.2602216
v 0.03538314 0.06068661 0.2707807
v -0.02134429 0.08131477 0.2848594
v -0.02134429 0.06068661 0.2954184
v -0.04197245 0.06068661 0.2848594
v 0.01475499 0.08131477 0.2848594
v 0.03538314 0.06068661 0.2848594
v 0.01475499 0.06068661 0.2954184
v -0.02134429 0.08131477 0.2707806
v -0.04197245 0.06068661 0.2707807
v -0.02134429 0.06068661 0.2602216
v -0.02134429 0.02458733 0.2602216
v -0.04197245 0.02458733 0.2707807
v -0.02134429 0.003959179 0.2707807
v 0.01475499 0.02458734 0.2954184
v 0.03538314 0.02458734 0.2848594
v 0.01475499 0.003959179 0.2848594
v -0.02134429 0.02458734 0.2954184
v -0.02134429 0.003959179 0.2848594
v -0.04197245 0.02458734 0.2848594
v 0.01475499 0.02458733 0.2602216
v 0.01475499 0.003959179 0.2707807
v 0.03538314 0.02458733 0.2707807
v 0.03538314 0.06068661 0.2707807
v 0.01475499 0.08131477 0.27782
v 0.01475499 0.08131477 0.2707806
v 0.03538314 0.06068661 0.27782
v 0.01475499 0.08131477 0.2848594
v 0.03538314 0.06068661 0.2848594
v 0.01475499 0.003959179 0.2707807
v 0.03538314 0.02458733 0.27782
v 0.03538314 0.02458733 0.2707807
v 0.01475499 0.003959179 0.27782
v 0.03538314 0.02458734 0.2848594
v 0.01475499 0.003959179 0.2848594
v -0.02134429 0.003959179 0.2848594
v -0.04197245 0.02458733 0.27782
v -0.04197245 0.02458734 0.2848594
v -0.02134429 0.003959179 0.27782
v -0.02134429 0.003959179 0.27782
v -0.04197245 0.02458733 0.2707807
v -0.04197245 0.02458733 0.27782
v -0.02134429 0.003959179 0.2707807
v -0.02134429 0.08131477 0.2707806
v -0.04197245 0.06068661 0.27782
v -0.04197245 0.06068661 0.2707807
v -0.02134429 0.08131477 0.27782
v -0.04197245 0.06068661 0.2848594
v -0.02134429 0.08131477 0.2848594
v -0.02134429 0.08131477 0.2848594
v 0.01475499 0.06068661 0.2954184
v -0.02134429 0.06068661 0.2954184
v 0.01475499 0.08131477 0.2848594
v 0.01475499 0.08131477 0.2707806
v -0.02134429 0.06068661 0.2602216
v 0.01475499 0.06068661 0.2602216
v -0.02134429 0.08131477 0.2707806
v -0.04197245 0.02458734 0.2848594
v -0.04197245 0.06068661 0.27782
v -0.04197245 0.06068661 0.2848594
v -0.04197245 0.02458733 0.27782
v -0.04197245 0.02458733 0.27782
v -0.04197245 0.06068661 0.2707807
v -0.04197245 0.06068661 0.27782
v -0.04197245 0.02458733 0.2707807
v -0.02134429 0.003959179 0.2707807
v 0.01475499 0.003959179 0.27782
v 0.01475499 0.003959179 0.2707807
v -0.02134429 0.003959179 0.27782
v 0.01475499 0.003959179 0.2848594
v -0.02134429 0.003959179 0.2848594
v -0.02134429 0.08131477 0.2848594
v 0.01475499 0.08131477 0.27782
v 0.01475499 0.08131477 0.2848594
v -0.02134429 0.08131477 0.27782
v -0.02134429 0.08131477 0.27782
v 0.01475499 0.08131477 0.2707806
v 0.01475499 0.08131477 0.27782
v -0.02134429 0.08131477 0.2707806
v 0.01475499 0.02458733 0.2602216
v -0.02134429 0.003959179 0.2707807
v 0.01475499 0.003959179 0.2707807
v -0.02134429 0.02458733 0.2602216
v 0.01475499 0.06068661 0.2602216
v -0.02134429 0.02458733 0.2602216
v 0.01475499 0.02458733 0.2602216
v -0.02134429 0.06068661 0.2602216
v -0.02134429 0.06068661 0.2602216
v -0.04197245 0.02458733 0.2707807
v -0.02134429 0.02458733 0.2602216
v -0.04197245 0.06068661 0.2707807
v -0.02134429 0.02458734 0.2954184
v 0.01475499 0.003959179 0.2848594
v -0.02134429 0.003959179 0.2848594
v 0.01475499 0.02458734 0.2954184
v -0.02134429 0.06068661 0.2954184
v 0.01475499 0.02458734 0.2954184
v -0.02134429 0.02458734 0.2954184
v 0.01475499 0.06068661 0.2954184
v 0.01475499 0.06068661 0.2954184
v 0.03538314 0.02458734 0.2848594
v 0.01475499 0.02458734 0.2954184
v 0.03538314 0.06068661 0.2848594
v -0.04197245 0.06068661 0.2848594
v -0.02134429 0.02458734 0.2954184
v -0.04197245 0.02458734 0.2848594
v -0.02134429 0.06068661 0.2954184
v 0.03538314 0.06068661 0.2707807
v 0.01475499 0.02458733 0.2602216
v 0.03538314 0.02458733 0.2707807
v 0.01475499 0.06068661 0.2602216
v 0.03538314 0.06068661 0.2848594
v 0.03538314 0.02458733 0.27782
v 0.03538314 0.02458734 0.2848594
v 0.03538314 0.06068661 0.27782
v 0.03538314 0.06068661 0.27782
v 0.03538314 0.02458733 0.2707807
v 0.03538314 0.02458733 0.27782
v 0.03538314 0.06068661 0.2707807
vt -0.2886493 0.7204491
vt -0.1616047 0.1264689
vt -0.7735232 0.126469
vt -0.2886493 0.7204491
vt -0.1616047 0.1264689
vt -0.7735232 0.126469
vt 0.2886491 0.720449
vt 0.7735231 0.1264688
vt 0.1616046 0.126469
vt 0.2886491 0.720449
vt 0.7735231 0.1264688
vt 0.1616046 0.126469
vt 0.1566831 -0.1304561
vt 0.768429 -0.1201811
vt 0.2937075 -0.7246051
vt 0.1566831 -0.1304561
vt 0.768429 -0.1201811
vt 0.2937075 -0.7246051
vt -0.1566813 -0.130458
vt -0.2937099 -0.7246069
vt -0.7684271 -0.1201788
vt -0.1566813 -0.130458
vt -0.2937099 -0.7246069
vt -0.7684271 -0.1201788
vt 0.3771239 0.1999992
vt -0.3771232 0
vt -0.3771232 0.2
vt 0.3771239 -1.490116E-08
vt -0.3771232 -0.2
vt 0.3771239 -0.2
vt 0.3771239 0.1999992
vt -0.3771232 0
vt -0.3771232 0.1999998
vt 0.3771239 -1.490116E-08
vt -0.3771232 -0.2
vt 0.377193 -0.2
vt -0.3767448 -0.2169057
vt 0.376744 0.01690569
vt 0.381606 -0.1998995
vt -0.3816067 -0.0001005381
vt -0.3767445 -0.01691179
vt 0.3767438 0.2169116
vt 0.3816076 0.0001006126
vt -0.3816083 0.1998992
vt 0.3771232 0.2
vt -0.3771232 0
vt -0.3771232 0.1999998
vt 0.3771239 -1.490116E-08
vt -0.3771232 -0.2
vt 0.3771239 -0.2
vt -0.4666666 0.7735227
vt 0.4666666 0.1616041
vt -0.4666666 0.1616041
vt 0.4666666 0.7735227
vt -0.4666666 0.7735227
vt 0.4666666 0.1616041
vt -0.4666666 0.1616041
vt 0.4666666 0.7735227
vt -0.4663473 -0.2172719
vt 0.4663464 0.01727188
vt 0.4703673 -0.1999315
vt -0.4703682 -6.851554E-05
vt -0.4663473 -0.01727255
vt 0.4663464 0.2172726
vt 0.4703675 6.863475E-05
vt -0.4703684 0.1999314
vt 0.4666666 0.1999998
vt -0.4666666 7.450581E-09
vt -0.4666666 0.1999998
vt 0.4666666 -6.705523E-08
vt -0.4666665 -0.2003224
vt 0.4667357 -0.2
vt -0.4663473 -0.2172719
vt 0.4663464 0.01727188
vt 0.4703673 -0.1999315
vt -0.4703682 -6.851554E-05
vt -0.4663473 -0.01727255
vt 0.4663464 0.2172726
vt 0.4703675 6.863475E-05
vt -0.4703684 0.1999314
vt -0.4666666 -0.1616049
vt 0.4666666 -0.7735236
vt -0.4666666 -0.7735236
vt 0.4666666 -0.1616049
vt -0.4666666 0.4666662
vt 0.4666666 -0.4666671
vt -0.4666666 -0.4666671
vt 0.4666666 0.4666662
vt 0.1616044 0.4666662
vt 0.7735231 -0.4666671
vt 0.1616044 -0.4666671
vt 0.7735231 0.4666662
vt -0.4666666 -0.1616049
vt 0.4666666 -0.7735236
vt -0.4666666 -0.7735236
vt 0.4666666 -0.1616049
vt -0.4666666 0.4666662
vt 0.4666666 -0.4666671
vt -0.4666666 -0.4666671
vt 0.4666666 0.4666662
vt 0.1616044 0.4666662
vt 0.7735231 -0.4666671
vt 0.1616044 -0.4666671
vt 0.7735231 0.4666662
vt -0.7735232 0.4666661
vt -0.1616046 -0.4666671
vt -0.7735232 -0.4666671
vt -0.161605 0.4666662
vt -0.7735232 0.4666661
vt -0.1616046 -0.4666671
vt -0.7735232 -0.4666671
vt -0.161605 0.4666662
vt -0.4663473 -0.2172719
vt 0.4663464 0.01727188
vt 0.4703673 -0.1999315
vt -0.4703682 -6.851554E-05
vt -0.4663473 -0.01727255
vt 0.4663464 0.2172726
vt 0.4703675 6.863475E-05
vt -0.4703684 0.1999314
vn 0.4146365 0.4146352 -0.8100335
vn 0.4146365 0.4146352 -0.8100335
vn 0.4146365 0.4146352 -0.8100335
vn -0.41463557 0.41463533 0.81003386
vn -0.41463557 0.41463533 0.81003386
vn -0.41463557 0.41463533 0.81003386
vn 0.41463557 0.41463533 0.81003386
vn 0.41463557 0.41463533 0.81003386
vn 0.41463557 0.41463533 0.81003386
vn -0.4146365 0.4146352 -0.8100335
vn -0.4146365 0.4146352 -0.8100335
vn -0.4146365 0.4146352 -0.8100335
vn -0.4146363 -0.4146363 -0.810033
vn -0.4146363 -0.4146363 -0.810033
vn -0.4146363 -0.4146363 -0.810033
vn 0.4146362 -0.4146362 0.8100331
vn 0.4146362 -0.4146362 0.8100331
vn 0.4146362 -0.4146362 0.8100331
vn -0.4146362 -0.4146362 0.8100331
vn -0.4146362 -0.4146362 0.8100331
vn -0.4146362 -0.4146362 0.8100331
vn 0.4146363 -0.4146363 -0.810033
vn 0.4146363 -0.4146363 -0.810033
vn 0.4146363 -0.4146363 -0.810033
vn 0.7071068 0.70710665 0
vn 0.7071068 0.70710665 0
vn 0.7071068 0.70710665 0
vn 0.7071068 0.70710665 0
vn 0.7071068 0.70710665 0
vn 0.7071068 0.70710665 0
vn 0.7071067 -0.7071068 0
vn 0.7071067 -0.7071068 0
vn 0.7071067 -0.7071068 0
vn 0.7071067 -0.7071068 0
vn 0.7071067 -0.7071068 0
vn 0.7071067 -0.7071068 0
vn -0.7071067 -0.7071068 0
vn -0.7071067 -0.7071068 0
vn -0.7071067 -0.7071068 0
vn -0.7071067 -0.7071068 0
vn -0.7071067 -0.7071068 0
vn -0.7071067 -0.7071068 0
vn -0.7071067 -0.7071068 0
vn -0.7071067 -0.7071068 0
vn -0.7071068 0.70710665 0
vn -0.7071068 0.70710665 0
vn -0.7071068 0.70710665 0
vn -0.7071068 0.70710665 0
vn -0.7071068 0.70710665 0
vn -0.7071068 0.70710665 0
vn -0 0.45564958 0.89015913
vn -0 0.45564958 0.89015913
vn -0 0.45564958 0.89015913
vn -0 0.45564958 0.89015913
vn -0 0.4556495 -0.89015925
vn -0 0.4556495 -0.89015925
vn -0 0.4556495 -0.89015925
vn -0 0.4556495 -0.89015925
vn -1 0 0
vn -1 0 0
vn -1 0 0
vn -1 0 0
vn -1 0 0
vn -1 0 0
vn -1 0 0
vn -1 0 0
vn -0 -1 0
vn -0 -1 0
vn -0 -1 0
vn -0 -1 0
vn -0 -1 0
vn -0 -1 0
vn -0 1 0
vn -0 1 0
vn -0 1 0
vn -0 1 0
vn -0 1 0
vn -0 1 0
vn -0 1 0
vn -0 1 0
vn -0 -0.45565072 -0.8901587
vn -0 -0.45565072 -0.8901587
vn -0 -0.45565072 -0.8901587
vn -0 -0.45565072 -0.8901587
vn -0 0 -1
vn -0 0 -1
vn -0 0 -1
vn -0 0 -1
vn -0.4556506 0 -0.8901587
vn -0.4556506 0 -0.8901587
vn -0.4556506 0 -0.8901587
vn -0.4556506 0 -0.8901587
vn -0 -0.4556506 0.8901587
vn -0 -0.4556506 0.8901587
vn -0 -0.4556506 0.8901587
vn -0 -0.4556506 0.8901587
vn -0 0 1
vn -0 0 1
vn -0 0 1
vn -0 0 1
vn 0.45565003 0 0.89015895
vn 0.45565003 0 0.89015895
vn 0.45565003 0 0.89015895
vn 0.45565003 0 0.89015895
vn -0.45565003 0 0.89015895
vn -0.45565003 0 0.89015895
vn -0.45565003 0 0.89015895
vn -0.45565003 0 0.89015895
vn 0.4556506 0 -0.8901587
vn 0.4556506 0 -0.8901587
vn 0.4556506 0 -0.8901587
vn 0.4556506 0 -0.8901587
vn 1 0 0
vn 1 0 0
vn 1 0 0
vn 1 0 0
vn 1 0 0
vn 1 0 0
vn 1 0 0
vn 1 0 0
g CrownBySteve_0_0
f 3/3/3 2/2/2 1/1/1
f 6/6/6 5/5/5 4/4/4
f 9/9/9 8/8/8 7/7/7
f 12/12/12 11/11/11 10/10/10
f 15/15/15 14/14/14 13/13/13
f 18/18/18 17/17/17 16/16/16
f 21/21/21 20/20/20 19/19/19
f 24/24/24 23/23/23 22/22/22
f 27/27/27 26/26/26 25/25/25
f 28/28/28 25/25/25 26/26/26
f 26/26/26 29/29/29 28/28/28
f 30/30/30 28/28/28 29/29/29
f 33/33/33 32/32/32 31/31/31
f 34/34/34 31/31/31 32/32/32
f 32/32/32 35/35/35 34/34/34
f 36/36/36 34/34/34 35/35/35
f 39/39/39 38/38/38 37/37/37
f 40/40/40 37/37/37 38/38/38
f 43/43/43 42/42/42 41/41/41
f 44/44/44 41/41/41 42/42/42
f 47/47/47 46/46/46 45/45/45
f 48/48/48 45/45/45 46/46/46
f 46/46/46 49/49/49 48/48/48
f 50/50/50 48/48/48 49/49/49
f 53/53/53 52/52/52 51/51/51
f 54/54/54 51/51/51 52/52/52
f 57/57/57 56/56/56 55/55/55
f 58/58/58 55/55/55 56/56/56
f 61/61/61 60/60/60 59/59/59
f 62/62/62 59/59/59 60/60/60
f 65/65/65 64/64/64 63/63/63
f 66/66/66 63/63/63 64/64/64
f 69/69/69 68/68/68 67/67/67
f 70/70/70 67/67/67 68/68/68
f 68/68/68 71/71/71 70/70/70
f 72/72/72 70/70/70 71/71/71
f 75/75/75 74/74/74 73/73/73
f 76/76/76 73/73/73 74/74/74
f 79/79/79 78/78/78 77/77/77
f 80/80/80 77/77/77 78/78/78
f 83/83/83 82/82/82 81/81/81
f 84/84/84 81/81/81 82/82/82
f 87/87/87 86/86/86 85/85/85
f 88/88/88 85/85/85 86/86/86
f 91/91/91 90/90/90 89/89/89
f 92/92/92 89/89/89 90/90/90
f 95/95/95 94/94/94 93/93/93
f 96/96/96 93/93/93 94/94/94
f 99/99/99 98/98/98 97/97/97
f 100/100/100 97/97/97 98/98/98
f 103/103/103 102/102/102 101/101/101
f 104/104/104 101/101/101 102/102/102
f 107/107/107 106/106/106 105/105/105
f 108/108/108 105/105/105 106/106/106
f 111/111/111 110/110/110 109/109/109
f 112/112/112 109/109/109 110/110/110
f 115/115/115 114/114/114 113/113/113
f 116/116/116 113/113/113 114/114/114
f 119/119/119 118/118/118 117/117/117
f 120/120/120 117/117/117 118/118/118
