g Env_Flora_PalmTree_Bent_Trunk
v 0.057484835 0.042940617 -0.26322764
v -0.20322749 0.058772087 -0.15743724
v -0 0.2825179 -0.0017565228
v 1.0547168 1.7331609 -0.21454717
v 0.59611267 1.2913047 -0.22534606
v 0.67832875 1.2421771 -0.00026455065
v 1.109684 1.6564075 0.010876348
v 0.90574884 1.9106833 -0.13245705
v 0.38913155 1.3828236 -0.15098946
v 0.59611267 1.2913047 -0.22534606
v 1.0547168 1.7331609 -0.21454717
v 0.8920391 1.9211825 0.12770927
v 0.33372355 1.4216391 0.13248704
v 0.38913155 1.3828236 -0.15098946
v 0.90574884 1.9106833 -0.13245705
v 1.0232522 1.7788423 0.23086278
v 0.548105 1.3441972 0.24703819
v 0.33372355 1.4216391 0.13248704
v 0.8920391 1.9211825 0.12770927
v 1.109684 1.6564075 0.010876348
v 0.67832875 1.2421771 -0.00026455065
v 0.548105 1.3441972 0.24703819
v 1.0232522 1.7788423 0.23086278
v 3.570119 4.7590356 -0.086713046
v 3.68745 4.761146 0.070387945
v 3.570119 4.7590356 0.03330195
v 3.68745 4.761146 -0.123799056
v 3.7599618 4.76249 -0.026706051
v 3.1904366 2.9577365 -0.19852221
v 2.5786643 2.4273596 -0.21433547
v 2.592592 2.3337321 -0.021115515
v 3.2456262 2.883749 -0.03458516
v 3.0546904 3.0593042 -0.12955827
v 2.454875 2.5940075 -0.14160866
v 2.5786643 2.4273596 -0.21433547
v 3.1904366 2.9577365 -0.19852221
v 3.0546904 3.0593042 0.076146364
v 2.454875 2.5940075 0.08819671
v 2.454875 2.5940075 -0.14160866
v 3.0546904 3.0593042 -0.12955827
v 3.1909583 2.9445243 0.1397136
v 2.559379 2.418283 0.16038595
v 2.454875 2.5940075 0.08819671
v 3.0546904 3.0593042 0.076146364
v 2.592592 2.3337321 -0.021115515
v 2.559379 2.418283 0.16038595
v 3.1909583 2.9445243 0.1397136
v 3.2456262 2.883749 -0.03458516
v -0.01420714 0.750641 0.13983525
v 0.33372355 1.4216391 0.13248704
v 0.548105 1.3441972 0.24703819
v 0.23089632 0.7621237 0.24847864
v 0.05616942 0.7490686 -0.1368558
v 0.38913155 1.3828236 -0.15098946
v 0.33372355 1.4216391 0.13248704
v -0.01420714 0.750641 0.13983525
v 0.2722575 0.7252594 -0.23181832
v 0.59611267 1.2913047 -0.22534606
v 0.38913155 1.3828236 -0.15098946
v 0.05616942 0.7490686 -0.1368558
v 0.39116433 0.72878826 -0.002997844
v 0.67832875 1.2421771 -0.00026455065
v 0.59611267 1.2913047 -0.22534606
v 0.2722575 0.7252594 -0.23181832
v 0.23089632 0.7621237 0.24847864
v 0.548105 1.3441972 0.24703819
v 0.67832875 1.2421771 -0.00026455065
v 0.39116433 0.72878826 -0.002997844
v 3.7164228 4.175703 0.09101698
v 3.5722926 3.5564466 0.11283745
v 3.4079716 3.5793471 0.059536446
v 3.5762563 4.1857467 0.046051033
v 3.5762563 4.1857467 0.046051033
v 3.4079716 3.5793471 0.059536446
v 3.4079716 3.5793471 -0.112948045
v 3.5762563 4.1857467 -0.099462375
v 3.5762563 4.1857467 -0.099462375
v 3.4079716 3.5793471 -0.112948045
v 3.539607 3.5564466 -0.17674269
v 3.7005386 4.175703 -0.14952788
v 3.7005386 4.175703 -0.14952788
v 3.539607 3.5564466 -0.17674269
v 3.6738465 3.5423474 -0.026706051
v 3.803048 4.169542 -0.026706051
v 3.803048 4.169542 -0.026706051
v 3.6738465 3.5423474 -0.026706051
v 3.5722926 3.5564466 0.11283745
v 3.7164228 4.175703 0.09101698
v 0.057484835 0.042940617 -0.26322764
v 0.2722575 0.7252594 -0.23181832
v 0.05616942 0.7490686 -0.1368558
v -0.20322749 0.058772087 -0.15743724
v -0.20322749 0.058772087 -0.15743724
v 0.05616942 0.7490686 -0.1368558
v -0.01420714 0.750641 0.13983525
v -0.25152218 0.058772087 0.16268373
v -0.25152218 0.058772087 0.16268373
v -0.01420714 0.750641 0.13983525
v 0.23089632 0.7621237 0.24847864
v -0.007123269 0.0715754 0.28701624
v -0.007123269 0.0715754 0.28701624
v 0.23089632 0.7621237 0.24847864
v 0.39116433 0.72878826 -0.002997844
v 0.207374 0 -0.005708659
v 0.207374 0 -0.005708659
v 0.39116433 0.72878826 -0.002997844
v 0.2722575 0.7252594 -0.23181832
v 0.057484835 0.042940617 -0.26322764
v 1.6558146 2.2880468 -0.14728719
v 0.90574884 1.9106833 -0.13245705
v 1.0547168 1.7331609 -0.21454717
v 1.7460356 2.0757575 -0.22181086
v 1.7460356 2.0757575 -0.22181086
v 1.0547168 1.7331609 -0.21454717
v 1.109684 1.6564075 0.010876348
v 1.7705994 2.0173903 0.021105982
v 1.7705994 2.0173903 0.021105982
v 1.109684 1.6564075 0.010876348
v 1.0232522 1.7788423 0.23086278
v 1.7240121 2.094284 0.17232308
v 1.7240121 2.094284 0.17232308
v 1.0232522 1.7788423 0.23086278
v 0.8920391 1.9211825 0.12770927
v 1.6558146 2.2880468 0.09387557
v 1.6558146 2.2880468 0.09387557
v 0.8920391 1.9211825 0.12770927
v 0.90574884 1.9106833 -0.13245705
v 1.6558146 2.2880468 -0.14728719
v 3.4079716 3.5793471 -0.112948045
v 3.0546904 3.0593042 -0.12955827
v 3.1904366 2.9577365 -0.19852221
v 3.539607 3.5564466 -0.17674269
v 3.539607 3.5564466 -0.17674269
v 3.1904366 2.9577365 -0.19852221
v 3.2456262 2.883749 -0.03458516
v 3.6738465 3.5423474 -0.026706051
v 3.6738465 3.5423474 -0.026706051
v 3.2456262 2.883749 -0.03458516
v 3.1909583 2.9445243 0.1397136
v 3.5722926 3.5564466 0.11283745
v 3.5722926 3.5564466 0.11283745
v 3.1909583 2.9445243 0.1397136
v 3.0546904 3.0593042 0.076146364
v 3.4079716 3.5793471 0.059536446
v 3.4079716 3.5793471 0.059536446
v 3.0546904 3.0593042 0.076146364
v 3.0546904 3.0593042 -0.12955827
v 3.4079716 3.5793471 -0.112948045
v 2.454875 2.5940075 0.08819671
v 1.6558146 2.2880468 0.09387557
v 1.6558146 2.2880468 -0.14728719
v 2.454875 2.5940075 -0.14160866
v 2.559379 2.418283 0.16038595
v 1.7240121 2.094284 0.17232308
v 1.6558146 2.2880468 0.09387557
v 2.454875 2.5940075 0.08819671
v 2.592592 2.3337321 -0.021115515
v 1.7705994 2.0173903 0.021105982
v 1.7240121 2.094284 0.17232308
v 2.559379 2.418283 0.16038595
v 2.5786643 2.4273596 -0.21433547
v 1.7460356 2.0757575 -0.22181086
v 1.7705994 2.0173903 0.021105982
v 2.592592 2.3337321 -0.021115515
v 2.454875 2.5940075 -0.14160866
v 1.6558146 2.2880468 -0.14728719
v 1.7460356 2.0757575 -0.22181086
v 2.5786643 2.4273596 -0.21433547
v 3.68745 4.761146 0.070387945
v 3.7164228 4.175703 0.09101698
v 3.5762563 4.1857467 0.046051033
v 3.570119 4.7590356 0.03330195
v 3.570119 4.7590356 0.03330195
v 3.5762563 4.1857467 0.046051033
v 3.5762563 4.1857467 -0.099462375
v 3.570119 4.7590356 -0.086713046
v 3.570119 4.7590356 -0.086713046
v 3.5762563 4.1857467 -0.099462375
v 3.7005386 4.175703 -0.14952788
v 3.68745 4.761146 -0.123799056
v 3.68745 4.761146 -0.123799056
v 3.7005386 4.175703 -0.14952788
v 3.803048 4.169542 -0.026706051
v 3.7599618 4.76249 -0.026706051
v 3.7599618 4.76249 -0.026706051
v 3.803048 4.169542 -0.026706051
v 3.7164228 4.175703 0.09101698
v 3.68745 4.761146 0.070387945
v 0.207374 0 -0.005708659
v -0 0.2825179 -0.0017565228
v -0.007123269 0.0715754 0.28701624
v 0.057484835 0.042940617 -0.26322764
v -0.007123269 0.0715754 0.28701624
v -0 0.2825179 -0.0017565228
v -0.25152218 0.058772087 0.16268373
v -0.20322749 0.058772087 -0.15743724
vt 0.9834639 0.5796512
vt 1 2.2845852E-16
vt 0.5983016 0.18460347
vt 0.84365416 0.001957
vt 0.833596 0.001957
vt 0.833596 0.012728
vt 0.84365416 0.012728
vt 0.84365416 0.001957
vt 0.833596 0.001957
vt 0.833596 0.012728
vt 0.84365416 0.012728
vt 0.84365416 0.001957
vt 0.833596 0.001957
vt 0.833596 0.012728
vt 0.84365416 0.012728
vt 0.84365416 0.001957
vt 0.833596 0.001957
vt 0.833596 0.012728
vt 0.84365416 0.012728
vt 0.84365416 0.001957
vt 0.833596 0.001957
vt 0.833596 0.012728
vt 0.84365416 0.012728
vt 0.828755 0.01096
vt 0.835728 0.001624
vt 0.828755 0.003828
vt 0.835728 0.013164
vt 0.840037 0.007394
vt 0.92217237 0.001957
vt 0.8989129 0.001957
vt 0.8989129 0.012728
vt 0.92217237 0.012728
vt 0.92217237 0.001957
vt 0.8989129 0.001957
vt 0.8989129 0.012728
vt 0.92217237 0.012728
vt 0.92217237 0.001957
vt 0.8989129 0.001957
vt 0.8989129 0.012728
vt 0.92217237 0.012728
vt 0.92217237 0.001957
vt 0.8989129 0.001957
vt 0.8989129 0.012728
vt 0.92217237 0.012728
vt 0.8989129 0.001957
vt 0.8989129 0.012728
vt 0.92217237 0.012728
vt 0.92217237 0.001957
vt 0.8087725 0.012728
vt 0.833596 0.012728
vt 0.833596 0.001957
vt 0.8087725 0.001957
vt 0.8087725 0.012728
vt 0.833596 0.012728
vt 0.833596 0.001957
vt 0.8087725 0.001957
vt 0.8087725 0.012728
vt 0.833596 0.012728
vt 0.833596 0.001957
vt 0.8087725 0.001957
vt 0.8087725 0.012728
vt 0.833596 0.012728
vt 0.833596 0.001957
vt 0.8087725 0.001957
vt 0.8087725 0.012728
vt 0.833596 0.012728
vt 0.833596 0.001957
vt 0.8087725 0.001957
vt 0.9589585 0.001957
vt 0.942475 0.001957
vt 0.942475 0.012728
vt 0.9589585 0.012728
vt 0.9589585 0.001957
vt 0.942475 0.001957
vt 0.942475 0.012728
vt 0.9589585 0.012728
vt 0.9589585 0.001957
vt 0.942475 0.001957
vt 0.942475 0.012728
vt 0.9589585 0.012728
vt 0.9589585 0.001957
vt 0.942475 0.001957
vt 0.942475 0.012728
vt 0.9589585 0.012728
vt 0.9589585 0.001957
vt 0.942475 0.001957
vt 0.942475 0.012728
vt 0.9589585 0.012728
vt 0.776029 0.012728
vt 0.8087725 0.012728
vt 0.8087725 0.001957
vt 0.776029 0.001957
vt 0.776029 0.012728
vt 0.8087725 0.012728
vt 0.8087725 0.001957
vt 0.776029 0.001957
vt 0.776029 0.012728
vt 0.8087725 0.012728
vt 0.8087725 0.001957
vt 0.776029 0.001957
vt 0.776029 0.012728
vt 0.8087725 0.012728
vt 0.8087725 0.001957
vt 0.776029 0.001957
vt 0.776029 0.012728
vt 0.8087725 0.012728
vt 0.8087725 0.001957
vt 0.776029 0.001957
vt 0.872002 0.001957
vt 0.84365416 0.001957
vt 0.84365416 0.012728
vt 0.872002 0.012728
vt 0.872002 0.001957
vt 0.84365416 0.001957
vt 0.84365416 0.012728
vt 0.872002 0.012728
vt 0.872002 0.001957
vt 0.84365416 0.001957
vt 0.84365416 0.012728
vt 0.872002 0.012728
vt 0.872002 0.001957
vt 0.84365416 0.001957
vt 0.84365416 0.012728
vt 0.872002 0.012728
vt 0.872002 0.001957
vt 0.84365416 0.001957
vt 0.84365416 0.012728
vt 0.872002 0.012728
vt 0.942475 0.001957
vt 0.92217237 0.001957
vt 0.92217237 0.012728
vt 0.942475 0.012728
vt 0.942475 0.001957
vt 0.92217237 0.001957
vt 0.92217237 0.012728
vt 0.942475 0.012728
vt 0.942475 0.001957
vt 0.92217237 0.001957
vt 0.92217237 0.012728
vt 0.942475 0.012728
vt 0.942475 0.001957
vt 0.92217237 0.001957
vt 0.92217237 0.012728
vt 0.942475 0.012728
vt 0.942475 0.001957
vt 0.92217237 0.001957
vt 0.92217237 0.012728
vt 0.942475 0.012728
vt 0.8989129 0.001957
vt 0.872002 0.001957
vt 0.872002 0.012728
vt 0.8989129 0.012728
vt 0.8989129 0.001957
vt 0.872002 0.001957
vt 0.872002 0.012728
vt 0.8989129 0.012728
vt 0.8989129 0.001957
vt 0.872002 0.001957
vt 0.872002 0.012728
vt 0.8989129 0.012728
vt 0.8989129 0.001957
vt 0.872002 0.001957
vt 0.872002 0.012728
vt 0.8989129 0.012728
vt 0.8989129 0.001957
vt 0.872002 0.001957
vt 0.872002 0.012728
vt 0.8989129 0.012728
vt 0.974542 0.001957
vt 0.9589585 0.001957
vt 0.9589585 0.012728
vt 0.974542 0.012728
vt 0.974542 0.001957
vt 0.9589585 0.001957
vt 0.9589585 0.012728
vt 0.974542 0.012728
vt 0.974542 0.001957
vt 0.9589585 0.001957
vt 0.9589585 0.012728
vt 0.974542 0.012728
vt 0.974542 0.001957
vt 0.9589585 0.001957
vt 0.9589585 0.012728
vt 0.974542 0.012728
vt 0.974542 0.001957
vt 0.9589585 0.001957
vt 0.9589585 0.012728
vt 0.974542 0.012728
vt 0.22690919 2.3204168E-16
vt 0.43201768 0.33332193
vt 1.0000001 0
vt 0 0.5868526
vt 0 0
vt 0.53889 0.43978024
vt 0.7290969 2.2115946E-16
vt 1 0.81608534
vn -0.3291752 -0.73114485 0.5975542
vn 0.5169527 -0.75292164 0.40726998
vn -0.16121191 -0.9869177 0.002022361
vn 0.5412862 -0.76747537 -0.34349793
vn 0.7022032 -0.60097784 -0.38175404
vn 0.7022033 -0.60097784 -0.3817541
vn 0.54228383 -0.7666495 -0.34376854
vn -0.18698874 0.26627713 -0.9455854
vn -0.23450816 0.23784049 -0.9425698
vn -0.23450817 0.23784052 -0.9425698
vn -0.1859364 0.26689377 -0.945619
vn -0.5760942 0.81317544 -0.0828324
vn -0.7264633 0.66992694 -0.15313031
vn -0.7264633 0.66992694 -0.15313031
vn -0.57178533 0.81640106 -0.080938384
vn -0.21026178 0.38626245 0.89810425
vn -0.33001173 0.34963048 0.87684137
vn -0.33001176 0.34963048 0.87684137
vn -0.22039975 0.38343978 0.89688236
vn 0.49445617 -0.671612 0.5517702
vn 0.6173484 -0.55819273 0.5543482
vn 0.6173484 -0.5581927 0.55434823
vn 0.4937617 -0.67216814 0.55171496
vn -0.017984506 0.99983823 0
vn -0.017984504 0.99983823 0
vn -0.017984508 0.99983823 0
vn -0.017984537 0.99983823 0
vn -0.018527927 0.99982834 0
vn 0.6562346 -0.56740314 -0.49740306
vn 0.47318333 -0.7925049 -0.3847514
vn 0.4483231 -0.8122601 -0.37314856
vn 0.6480113 -0.5830896 -0.48998746
vn -0.26145086 0.2707105 -0.9264768
vn -0.15649332 0.29442352 -0.94277495
vn -0.16105922 0.29382518 -0.94219244
vn -0.26630133 0.26905814 -0.9255762
vn -0.70962554 0.704579 0
vn -0.48127738 0.8765684 0
vn -0.48127738 0.8765684 0
vn -0.70962554 0.704579 0
vn -0.22816747 0.24839585 0.94140273
vn -0.15547946 0.30421644 0.939829
vn -0.15571207 0.30406272 0.93984026
vn -0.22715569 0.24931517 0.9414044
vn 0.45894945 -0.7613835 0.45788708
vn 0.46736538 -0.75726867 0.45619485
vn 0.66468614 -0.59227544 0.45541424
vn 0.6612003 -0.59711874 0.45416224
vn -0.4222222 0.16760196 0.89086366
vn -0.40072036 0.21894498 0.8896551
vn -0.40072036 0.218945 0.8896551
vn -0.41525736 0.18463635 0.8907697
vn -0.9139971 0.34890342 -0.20706443
vn -0.8650233 0.44768792 -0.22651736
vn -0.8650233 0.44768795 -0.2265174
vn -0.91852 0.33816844 -0.20484872
vn -0.35237718 0.14833926 -0.92402697
vn -0.32522386 0.17210257 -0.9298442
vn -0.32522386 0.17210259 -0.9298442
vn -0.35982123 0.14171663 -0.92219585
vn 0.8400226 -0.29626757 -0.4545191
vn 0.7993226 -0.44905576 -0.3992897
vn 0.79932255 -0.4490558 -0.39928967
vn 0.8452184 -0.26549488 -0.46380842
vn 0.7808639 -0.25364488 0.57089055
vn 0.736873 -0.4071741 0.5396551
vn 0.736873 -0.40717405 0.5396551
vn 0.77793235 -0.26694268 0.5688259
vn -0.2990382 0.065686256 0.9519776
vn -0.30079392 0.062395167 0.95164585
vn -0.30079392 0.062395167 0.95164585
vn -0.29891154 0.06706175 0.95192146
vn -0.9885949 0.15059954 0
vn -0.99068564 0.13616908 0
vn -0.99068564 0.13616909 0
vn -0.9885949 0.15059961 0
vn -0.36683053 0.08632135 -0.9262743
vn -0.36872357 0.078693695 -0.926202
vn -0.3687236 0.078693695 -0.926202
vn -0.36600694 0.084512144 -0.92676675
vn 0.76097625 -0.075161055 -0.6444113
vn 0.76409703 -0.059698604 -0.64233303
vn 0.76409703 -0.05969861 -0.6423331
vn 0.7619401 -0.07071584 -0.64377517
vn 0.8005606 -0.066389054 0.5955628
vn 0.80281633 -0.056246508 0.5935674
vn 0.80281633 -0.056246504 0.5935673
vn 0.80039907 -0.06873058 0.5955145
vn -0.3758879 0.127259 -0.9178853
vn -0.35237718 0.14833926 -0.92402697
vn -0.35982123 0.14171663 -0.92219585
vn -0.37588787 0.12725902 -0.9178853
vn -0.94613117 0.26302367 -0.18882357
vn -0.9139971 0.34890342 -0.20706443
vn -0.91852 0.33816844 -0.20484872
vn -0.94613117 0.26302367 -0.18882357
vn -0.43105802 0.14538398 0.8905349
vn -0.4222222 0.16760196 0.89086366
vn -0.41525736 0.18463635 0.8907697
vn -0.43105802 0.145384 0.8905349
vn 0.79536176 -0.17268202 0.5810169
vn 0.7808639 -0.25364488 0.57089055
vn 0.77793235 -0.26694268 0.5688259
vn 0.79536176 -0.17268202 0.5810169
vn 0.8549334 -0.17867638 -0.48699456
vn 0.8400226 -0.29626757 -0.4545191
vn 0.8452184 -0.26549488 -0.46380842
vn 0.8549334 -0.17867638 -0.48699456
vn -0.15953945 0.2821802 -0.9460029
vn -0.18698874 0.26627713 -0.9455854
vn -0.1859364 0.26689377 -0.945619
vn -0.15953948 0.2821802 -0.9460029
vn 0.4495254 -0.835032 -0.31725135
vn 0.5412862 -0.76747537 -0.34349793
vn 0.54228383 -0.7666495 -0.34376854
vn 0.44952548 -0.835032 -0.3172514
vn 0.39951038 -0.7403019 0.54068893
vn 0.49445617 -0.671612 0.5517702
vn 0.4937617 -0.67216814 0.55171496
vn 0.39951038 -0.7403019 0.54068893
vn -0.14207897 0.40396985 0.9036714
vn -0.21026178 0.38626245 0.89810425
vn -0.22039975 0.38343978 0.89688236
vn -0.14207897 0.4039699 0.90367126
vn -0.45391604 0.89050275 -0.031062929
vn -0.5760942 0.81317544 -0.0828324
vn -0.57178533 0.81640106 -0.080938384
vn -0.4539161 0.89050275 -0.031062929
vn -0.33804917 0.24345236 -0.90909505
vn -0.26145086 0.2707105 -0.9264768
vn -0.26630133 0.26905814 -0.9255762
vn -0.33804917 0.2434523 -0.90909505
vn 0.715086 -0.4291185 -0.5518236
vn 0.6562346 -0.56740314 -0.49740306
vn 0.6480113 -0.5830896 -0.48998746
vn 0.7150859 -0.4291186 -0.5518236
vn 0.74268126 -0.46603382 0.48087102
vn 0.6612003 -0.59711874 0.45416224
vn 0.66468614 -0.59227544 0.45541424
vn 0.74268126 -0.46603388 0.48087102
vn -0.26893133 0.21063498 0.9398451
vn -0.22816747 0.24839585 0.94140273
vn -0.22715569 0.24931517 0.9414044
vn -0.26893133 0.21063498 0.9398451
vn -0.82718384 0.5619313 0
vn -0.70962554 0.704579 0
vn -0.70962554 0.704579 0
vn -0.82718384 0.56193143 0
vn -0.48127738 0.8765684 0
vn -0.383282 0.9236313 0
vn -0.383282 0.9236313 0
vn -0.48127738 0.8765684 0
vn -0.15547946 0.30421644 0.939829
vn -0.12597737 0.32345757 0.9378192
vn -0.12597737 0.32345754 0.9378192
vn -0.15571207 0.30406272 0.93984026
vn 0.45894945 -0.7613835 0.45788708
vn 0.35001776 -0.8070537 0.47555423
vn 0.3500178 -0.80705374 0.47555423
vn 0.46736538 -0.75726867 0.45619485
vn 0.47318333 -0.7925049 -0.3847514
vn 0.36859196 -0.8672236 -0.33475852
vn 0.368592 -0.8672236 -0.33475852
vn 0.4483231 -0.8122601 -0.37314856
vn -0.15649332 0.29442352 -0.94277495
vn -0.12236392 0.29868233 -0.94647557
vn -0.12236392 0.29868236 -0.94647557
vn -0.16105922 0.29382518 -0.94219244
vn -0.30079392 0.062395167 0.95164585
vn -0.2990382 0.065686256 0.9519776
vn -0.29891154 0.06706175 0.95192146
vn -0.30079392 0.062395167 0.95164585
vn -0.99068564 0.13616909 0
vn -0.9885949 0.15059954 0
vn -0.9885949 0.15059961 0
vn -0.99068564 0.13616908 0
vn -0.36872363 0.07869369 -0.926202
vn -0.36683053 0.08632135 -0.9262743
vn -0.36600694 0.084512144 -0.92676675
vn -0.3687236 0.07869369 -0.926202
vn 0.7640971 -0.059698608 -0.64233303
vn 0.76097625 -0.075161055 -0.6444113
vn 0.7619401 -0.07071584 -0.64377517
vn 0.76409703 -0.059698615 -0.64233315
vn 0.80281633 -0.056246508 0.5935673
vn 0.8005606 -0.066389054 0.5955628
vn 0.80039907 -0.06873058 0.5955145
vn 0.80281633 -0.056246515 0.5935674
vn -0.8057281 -0.59084314 -0.04131165
vn -0.16121191 -0.9869177 0.002022361
vn -0.7380784 -0.5360327 -0.40976736
vn -0.3291752 -0.73114485 0.5975542
vn 0.32173607 -0.76833016 -0.5533124
vn -0.16121191 -0.9869177 0.002022361
vn 0.5498878 -0.7984138 -0.24527302
vn 0.5169527 -0.75292164 0.40726998
g Env_Flora_PalmTree_Bent_Trunk_0
f 3/3/3 2/2/2 1/1/1
f 6/6/6 5/5/5 4/4/4
f 7/7/7 6/6/6 4/4/4
f 10/10/10 9/9/9 8/8/8
f 11/11/11 10/10/10 8/8/8
f 14/14/14 13/13/13 12/12/12
f 15/15/15 14/14/14 12/12/12
f 18/18/18 17/17/17 16/16/16
f 19/19/19 18/18/18 16/16/16
f 22/22/22 21/21/21 20/20/20
f 23/23/23 22/22/22 20/20/20
f 26/26/26 25/25/25 24/24/24
f 24/24/24 25/25/25 27/27/27
f 27/27/27 25/25/25 28/28/28
f 31/31/31 30/30/30 29/29/29
f 32/32/32 31/31/31 29/29/29
f 35/35/35 34/34/34 33/33/33
f 36/36/36 35/35/35 33/33/33
f 39/39/39 38/38/38 37/37/37
f 40/40/40 39/39/39 37/37/37
f 43/43/43 42/42/42 41/41/41
f 44/44/44 43/43/43 41/41/41
f 47/47/47 46/46/46 45/45/45
f 48/48/48 47/47/47 45/45/45
f 51/51/51 50/50/50 49/49/49
f 52/52/52 51/51/51 49/49/49
f 55/55/55 54/54/54 53/53/53
f 56/56/56 55/55/55 53/53/53
f 59/59/59 58/58/58 57/57/57
f 60/60/60 59/59/59 57/57/57
f 63/63/63 62/62/62 61/61/61
f 64/64/64 63/63/63 61/61/61
f 67/67/67 66/66/66 65/65/65
f 68/68/68 67/67/67 65/65/65
f 71/71/71 70/70/70 69/69/69
f 72/72/72 71/71/71 69/69/69
f 75/75/75 74/74/74 73/73/73
f 76/76/76 75/75/75 73/73/73
f 79/79/79 78/78/78 77/77/77
f 80/80/80 79/79/79 77/77/77
f 83/83/83 82/82/82 81/81/81
f 84/84/84 83/83/83 81/81/81
f 87/87/87 86/86/86 85/85/85
f 88/88/88 87/87/87 85/85/85
f 91/91/91 90/90/90 89/89/89
f 92/92/92 91/91/91 89/89/89
f 95/95/95 94/94/94 93/93/93
f 96/96/96 95/95/95 93/93/93
f 99/99/99 98/98/98 97/97/97
f 100/100/100 99/99/99 97/97/97
f 103/103/103 102/102/102 101/101/101
f 104/104/104 103/103/103 101/101/101
f 107/107/107 106/106/106 105/105/105
f 108/108/108 107/107/107 105/105/105
f 111/111/111 110/110/110 109/109/109
f 112/112/112 111/111/111 109/109/109
f 115/115/115 114/114/114 113/113/113
f 116/116/116 115/115/115 113/113/113
f 119/119/119 118/118/118 117/117/117
f 120/120/120 119/119/119 117/117/117
f 123/123/123 122/122/122 121/121/121
f 124/124/124 123/123/123 121/121/121
f 127/127/127 126/126/126 125/125/125
f 128/128/128 127/127/127 125/125/125
f 131/131/131 130/130/130 129/129/129
f 132/132/132 131/131/131 129/129/129
f 135/135/135 134/134/134 133/133/133
f 136/136/136 135/135/135 133/133/133
f 139/139/139 138/138/138 137/137/137
f 140/140/140 139/139/139 137/137/137
f 143/143/143 142/142/142 141/141/141
f 144/144/144 143/143/143 141/141/141
f 147/147/147 146/146/146 145/145/145
f 148/148/148 147/147/147 145/145/145
f 151/151/151 150/150/150 149/149/149
f 152/152/152 151/151/151 149/149/149
f 155/155/155 154/154/154 153/153/153
f 156/156/156 155/155/155 153/153/153
f 159/159/159 158/158/158 157/157/157
f 160/160/160 159/159/159 157/157/157
f 163/163/163 162/162/162 161/161/161
f 164/164/164 163/163/163 161/161/161
f 167/167/167 166/166/166 165/165/165
f 168/168/168 167/167/167 165/165/165
f 171/171/171 170/170/170 169/169/169
f 172/172/172 171/171/171 169/169/169
f 175/175/175 174/174/174 173/173/173
f 176/176/176 175/175/175 173/173/173
f 179/179/179 178/178/178 177/177/177
f 180/180/180 179/179/179 177/177/177
f 183/183/183 182/182/182 181/181/181
f 184/184/184 183/183/183 181/181/181
f 187/187/187 186/186/186 185/185/185
f 188/188/188 187/187/187 185/185/185
f 191/191/191 190/190/190 189/189/189
f 190/190/190 192/192/192 189/189/189
f 195/195/195 194/194/194 193/193/193
f 195/195/195 196/196/196 194/194/194
