g Eye_R
v -0.1824455 -0.5499177 0.63474655
v -0.3952202 -0.5651727 0.77942955
v -0.5323091 0.17409587 0.6557673
v -0.31953442 0.1893506 0.51108587
v 0.0010138154 -0.5452697 0.4591546
v -0.13607514 0.19399881 0.33549333
v 0.15515727 -0.55122805 0.25265312
v 0.018068373 0.18804026 0.12899113
vt 0.6666666 0
vt 1 0
vt 1 1
vt 0.6666666 1
vt 0.3333333 0
vt 0.3333333 1
vt 0 0
vt 0 1
vn 0.6030903 0.23913014 0.7609855
vn 0.5349816 0.23495616 0.8115357
vn 0.5349816 0.23495616 0.8115357
vn 0.60309017 0.23913014 0.76098555
vn 0.72747403 0.24228172 0.6419354
vn 0.72747403 0.24228168 0.64193535
vn 0.78102845 0.24119039 0.5760398
vn 0.7810284 0.24119037 0.57603985
g Eye_R_0
f 3/3/3 2/2/2 1/1/1
f 4/4/4 3/3/3 1/1/1
f 4/4/4 1/1/1 5/5/5
f 6/6/6 4/4/4 5/5/5
f 6/6/6 5/5/5 7/7/7
f 8/8/8 6/6/6 7/7/7
