g FrontFlipper_Right
v -1.757657 0.20000008 -0.34641027
v -2.396638 1.4475634E-07 -1.7763568E-15
v -1.757657 -0.1999999 -0.34641004
v -1.757657 0.40000015 -1.7763568E-15
v -2.396638 1.4475634E-07 -1.7763568E-15
v -1.757657 0.20000008 -0.34641027
v -1.757657 0.2000002 0.34641027
v -2.396638 1.4475634E-07 -1.7763568E-15
v -1.757657 0.40000015 -1.7763568E-15
v -1.757657 -0.1999999 0.34641027
v -2.396638 1.4475634E-07 -1.7763568E-15
v -1.757657 0.2000002 0.34641027
v -1.757657 -0.39999983 -1.7763568E-15
v -2.396638 1.4475634E-07 -1.7763568E-15
v -1.757657 -0.1999999 0.34641027
v -1.757657 -0.1999999 -0.34641004
v -2.396638 1.4475634E-07 -1.7763568E-15
v -1.757657 -0.39999983 -1.7763568E-15
v -1.757657 -0.1999999 -0.34641004
v -0.7990198 -0.1999999 -0.34641004
v -0.7990198 0.20000008 -0.34641027
v -1.757657 0.20000008 -0.34641027
v -1.757657 0.20000008 -0.34641027
v -0.7990198 0.20000008 -0.34641027
v -0.7990198 0.40000015 -1.7763568E-15
v -1.757657 0.40000015 -1.7763568E-15
v -1.757657 0.40000015 -1.7763568E-15
v -0.7990198 0.40000015 -1.7763568E-15
v -0.7990198 0.2000002 0.34641027
v -1.757657 0.2000002 0.34641027
v -1.757657 0.2000002 0.34641027
v -0.7990198 0.2000002 0.34641027
v -0.7990198 -0.1999999 0.34641027
v -1.757657 -0.1999999 0.34641027
v -1.757657 -0.1999999 0.34641027
v -0.7990198 -0.1999999 0.34641027
v -0.7990198 -0.39999983 -1.7763568E-15
v -1.757657 -0.39999983 -1.7763568E-15
v -1.757657 -0.39999983 -1.7763568E-15
v -0.7990198 -0.39999983 -1.7763568E-15
v -0.7990198 -0.1999999 -0.34641004
v -1.757657 -0.1999999 -0.34641004
v -0.7990198 -0.1999999 -0.34641004
v -0.696908 -0.26166663 -0.45321965
v -0.696908 0.2616667 -0.45322013
v -0.7990198 0.20000008 -0.34641027
v -0.7990198 0.20000008 -0.34641027
v -0.696908 0.2616667 -0.45322013
v -0.696908 0.52333343 -1.7763568E-15
v -0.7990198 0.40000015 -1.7763568E-15
v -0.696908 0.26166692 0.4532199
v -0.7990198 0.2000002 0.34641027
v -0.7990198 0.2000002 0.34641027
v -0.696908 0.26166692 0.4532199
v -0.696908 -0.26166686 0.45322013
v -0.7990198 -0.1999999 0.34641027
v -0.7990198 -0.1999999 0.34641027
v -0.696908 -0.26166686 0.45322013
v -0.696908 -0.52333343 -1.7763568E-15
v -0.7990198 -0.39999983 -1.7763568E-15
v -0.696908 -0.26166663 -0.45321965
v -0.7990198 -0.1999999 -0.34641004
v -0.696908 -0.26166663 -0.45321965
v 3.5527137E-15 -0.26166663 -0.45321965
v 3.5527137E-15 0.2616667 -0.45322013
v -0.696908 0.2616667 -0.45322013
v -0.696908 0.2616667 -0.45322013
v 3.5527137E-15 0.2616667 -0.45322013
v 3.5527137E-15 0.52333343 -1.7763568E-15
v -0.696908 0.52333343 -1.7763568E-15
v 3.5527137E-15 0.26166692 0.4532199
v -0.696908 0.26166692 0.4532199
v -0.696908 0.26166692 0.4532199
v 3.5527137E-15 0.26166692 0.4532199
v 3.5527137E-15 -0.26166686 0.45322013
v -0.696908 -0.26166686 0.45322013
v -0.696908 -0.26166686 0.45322013
v 3.5527137E-15 -0.26166686 0.45322013
v 3.5527137E-15 -0.52333343 -1.7763568E-15
v -0.696908 -0.52333343 -1.7763568E-15
v 3.5527137E-15 -0.26166663 -0.45321965
v -0.696908 -0.26166663 -0.45321965
v -1.3993917 0.086223744 -1.3957037
v -2.7770128 -0.16622052 -0.98189735
v -1.391284 -0.13176128 -1.2339866
v -2.786768 0.051921513 -1.1435232
v -4.16671 -0.19678518 -0.9436965
v -4.174837 0.022204008 -1.1052451
v -5.55809 -0.22632954 -0.9876187
v -5.563097 -0.005871926 -1.1490188
v -6.9437437 -0.2524298 -1.0370231
v -6.9519806 -0.02787814 -1.1978774
v -1.3992624 0.26521567 -1.1912589
v -2.786768 0.051921513 -1.1435232
v -1.3993917 0.086223744 -1.3957037
v -2.7851448 0.23165652 -0.93954635
v -4.174837 0.022204008 -1.1052451
v -4.1748314 0.20481786 -0.9029579
v -5.563097 -0.005871926 -1.1490188
v -5.5632706 0.18189195 -0.9498863
v -6.9519806 -0.02787814 -1.1978774
v -6.952736 0.1760501 -1.0097904
v -1.3463192 0.013714279 1.2684073
v -2.7119942 0.19748548 1.0395508
v -1.3543644 0.21741173 1.0939851
v -2.7362251 -0.006356631 1.2130542
v -4.082906 0.21270141 0.70295095
v -4.1327076 0.010639693 0.87193966
v -5.5392694 0.23368469 0.25785112
v -5.5309067 0.02587023 0.44352365
v -6.943945 0.26606783 -0.4733789
v -6.9352894 0.07939639 -0.24981546
v -1.3416758 -0.42122504 1.0179672
v -2.7309074 -0.27851233 1.1762028
v -1.3409939 -0.25884184 1.2315016
v -2.7009945 -0.44046244 0.9638858
v -4.127426 -0.25964496 0.83534145
v -4.0736523 -0.42191753 0.6288481
v -5.525922 -0.22923931 0.4089806
v -5.452179 -0.39194593 0.20857525
v -6.9305534 -0.16303572 -0.2826419
v -6.9317846 -0.3222086 -0.5199642
v -1.3992624 0.26521567 -1.1912589
v -1.3543644 0.21741173 1.0939851
v -2.7119942 0.19748548 1.0395508
v -2.7851448 0.23165652 -0.93954635
v -4.082906 0.21270141 0.70295095
v -4.1748314 0.20481786 -0.9029579
v -5.5392694 0.23368469 0.25785112
v -5.5632706 0.18189195 -0.9498863
v -6.952736 0.1760501 -1.0097904
v -6.943945 0.26606783 -0.4733789
v -7.147229 0.21663085 -0.73758245
v -1.3409939 -0.25884184 1.2315016
v -2.7362251 -0.006356631 1.2130542
v -1.3463192 0.013714279 1.2684073
v -2.7309074 -0.27851233 1.1762028
v -4.127426 -0.25964496 0.83534145
v -4.1327076 0.010639693 0.87193966
v -5.525922 -0.22923931 0.4089806
v -5.5309067 0.02587023 0.44352365
v -6.9305534 -0.16303572 -0.2826419
v -6.9352894 0.07939639 -0.24981546
v -2.7770128 -0.16622052 -0.98189735
v -1.3416758 -0.42122504 1.0179672
v -1.391284 -0.13176128 -1.2339866
v -2.7009945 -0.44046244 0.9638858
v -4.16671 -0.19678518 -0.9436965
v -4.0736523 -0.42191753 0.6288481
v -5.55809 -0.22632954 -0.9876187
v -5.452179 -0.39194593 0.20857525
v -6.9437437 -0.2524298 -1.0370231
v -6.9317846 -0.3222086 -0.5199642
v -7.136654 -0.2917473 -0.7744913
v -6.9519806 -0.02787814 -1.1978774
v -7.136654 -0.2917473 -0.7744913
v -6.9437437 -0.2524298 -1.0370231
v -7.217657 -0.10161064 -0.73469734
v -6.9317846 -0.3222086 -0.5199642
v -6.9305534 -0.16303572 -0.2826419
v -6.9352894 0.07939639 -0.24981546
v -7.220026 0.019605424 -0.7182839
v -6.952736 0.1760501 -1.0097904
v -7.147229 0.21663085 -0.73758245
v -6.943945 0.26606783 -0.4733789
v -1.3992624 0.26521567 -1.1912589
v -1.3704414 1.4475634E-07 -1.7763568E-15
v -1.3543644 0.21741173 1.0939851
v -1.3993917 0.086223744 -1.3957037
v -1.3463192 0.013714279 1.2684073
v -1.391284 -0.13176128 -1.2339866
v -1.3409939 -0.25884184 1.2315016
v -1.3416758 -0.42122504 1.0179672
vt 0.2979433 0.47741616
vt 0.29903376 0.4809
vt 0.30012417 0.47741616
vt 0.29798937 0.47741616
vt 0.29798937 0.48089993
vt 0.29987806 0.47741616
vt 0.29610074 0.47741616
vt 0.29798937 0.48089993
vt 0.29798937 0.47741616
vt 0.29585457 0.47741616
vt 0.29694504 0.48089993
vt 0.29803544 0.47741616
vt 0.2972799 0.47717294
vt 0.2972799 0.48081017
vt 0.29925174 0.47717294
vt 0.295308 0.47717294
vt 0.2972799 0.48081017
vt 0.2972799 0.47717294
vt 0.29503626 0.47741616
vt 0.29503626 0.4721896
vt 0.29721713 0.4721896
vt 0.29721713 0.47741616
vt 0.29528236 0.47741616
vt 0.29528236 0.47218964
vt 0.29717106 0.47218964
vt 0.29717106 0.47741616
vt 0.29717106 0.47741616
vt 0.29717106 0.47218964
vt 0.2990597 0.47218964
vt 0.2990597 0.47741616
vt 0.29712498 0.47741616
vt 0.29712498 0.4721896
vt 0.29930586 0.4721896
vt 0.29930586 0.47741616
vt 0.2959087 0.47717294
vt 0.2959087 0.47171614
vt 0.29788053 0.47171614
vt 0.29788053 0.47717294
vt 0.29788053 0.47717294
vt 0.29788053 0.47171614
vt 0.29985243 0.47171614
vt 0.29985243 0.47717294
vt 0.2923351 0.37574893
vt 0.29199886 0.3751922
vt 0.29485214 0.3751922
vt 0.29451597 0.37574893
vt 0.2925812 0.37574896
vt 0.29199892 0.3751922
vt 0.2944699 0.3751922
vt 0.2944699 0.37574896
vt 0.29694086 0.3751922
vt 0.29635853 0.37574896
vt 0.29442382 0.37574893
vt 0.2940876 0.3751922
vt 0.29694086 0.3751922
vt 0.2966047 0.37574893
vt 0.29320753 0.37527546
vt 0.29259956 0.37469423
vt 0.29517937 0.37469423
vt 0.29517937 0.37527546
vt 0.29775923 0.37469423
vt 0.29715127 0.37527546
vt 0.29775923 0.3751922
vt 0.29775923 0.37139258
vt 0.29490596 0.37139258
vt 0.29490596 0.3751922
vt 0.29775918 0.3751922
vt 0.29775918 0.3713926
vt 0.2952882 0.3713926
vt 0.2952882 0.3751922
vt 0.29281723 0.3713926
vt 0.29281723 0.3751922
vt 0.2956705 0.3751922
vt 0.2956705 0.37139258
vt 0.29281723 0.37139258
vt 0.29281723 0.3751922
vt 0.29715854 0.37469423
vt 0.29715854 0.37072724
vt 0.29457873 0.37072724
vt 0.29457873 0.37469423
vt 0.29199886 0.37072724
vt 0.29199886 0.37469423
vt 0.2614132 0.43646115
vt 0.2623954 0.43973112
vt 0.26179704 0.4364419
vt 0.2620118 0.43975428
vt 0.2624861 0.44302976
vt 0.26210263 0.44304907
vt 0.26238182 0.44633242
vt 0.26199874 0.4463443
vt 0.26226455 0.44962147
vt 0.26188275 0.44964102
vt 0.26737145 0.4364482
vt 0.26725814 0.43974167
vt 0.26785672 0.43644848
vt 0.26677397 0.4397378
vt 0.26716727 0.4430364
vt 0.26668712 0.4430364
vt 0.2672712 0.44633165
vt 0.2667985 0.44633207
vt 0.26738712 0.44962838
vt 0.26694068 0.44963017
vt 0.26153305 0.4363225
vt 0.2620763 0.43956417
vt 0.26194707 0.4363416
vt 0.26166445 0.43962166
vt 0.26287523 0.4428182
vt 0.26247412 0.44293642
vt 0.26393178 0.44627512
vt 0.26349103 0.44625524
vt 0.26566744 0.4496093
vt 0.26513678 0.44958878
vt 0.2671424 0.43632415
vt 0.26751798 0.4396217
vt 0.26764923 0.4363225
vt 0.267014 0.4395507
vt 0.2667089 0.44293654
vt 0.26621875 0.4428089
vt 0.26569685 0.44625607
vt 0.26522118 0.446081
vt 0.26405522 0.44959015
vt 0.2634919 0.44959307
vt 0.26737145 0.4364482
vt 0.26194707 0.4363416
vt 0.2620763 0.43956417
vt 0.26677397 0.4397378
vt 0.26287523 0.4428182
vt 0.26668712 0.4430364
vt 0.26393178 0.44627512
vt 0.2667985 0.44633207
vt 0.26694068 0.44963017
vt 0.26566744 0.4496093
vt 0.26629457 0.45009184
vt 0.2641249 0.43641165
vt 0.26472425 0.4397234
vt 0.26477194 0.4364243
vt 0.26407823 0.4397108
vt 0.26412305 0.44302565
vt 0.2647646 0.44303817
vt 0.2641952 0.4463452
vt 0.26480073 0.446357
vt 0.26435238 0.44967926
vt 0.2649278 0.44969052
vt 0.2623954 0.43973112
vt 0.2671424 0.43632415
vt 0.26179704 0.4364419
vt 0.267014 0.4395507
vt 0.2624861 0.44302976
vt 0.26621875 0.4428089
vt 0.26238182 0.44633242
vt 0.26522118 0.446081
vt 0.26226455 0.44962147
vt 0.2634919 0.44959307
vt 0.26288775 0.45007938
vt 0.26426703 0.4426084
vt 0.26364067 0.44160342
vt 0.263734 0.4422266
vt 0.26409203 0.44150898
vt 0.26356837 0.44099927
vt 0.26394624 0.44043595
vt 0.26452163 0.44035804
vt 0.2643797 0.44147003
vt 0.26475108 0.44216195
vt 0.2648474 0.44151583
vt 0.26496476 0.4408887
vt 0.26508158 0.4382782
vt 0.26445204 0.44110584
vt 0.2649681 0.44370255
vt 0.26465672 0.43779293
vt 0.26448458 0.44411656
vt 0.2641393 0.43817678
vt 0.26383764 0.44402897
vt 0.26345217 0.44352213
vn -0.476598 0 -0.8791214
vn -0.47659793 0 -0.8791214
vn -0.47659793 0 -0.8791214
vn -0.47659722 0.76134187 -0.43956065
vn -0.47659722 0.7613419 -0.43956068
vn -0.47659728 0.76134187 -0.4395607
vn -0.47659734 0.7613421 0.43956032
vn -0.47659728 0.7613421 0.43956032
vn -0.47659734 0.7613421 0.43956032
vn -0.47659737 0 0.87912166
vn -0.47659737 0 0.87912166
vn -0.47659737 0 0.87912166
vn -0.4765973 -0.76134205 0.43956047
vn -0.47659722 -0.7613419 0.43956047
vn -0.47659728 -0.7613419 0.4395605
vn -0.47659722 -0.76134163 -0.4395612
vn -0.4765973 -0.76134163 -0.43956125
vn -0.47659728 -0.76134163 -0.43956125
vn -0 0 -1
vn -0 0 -1
vn -0 0 -1
vn -0 0 -1
vn -0 0.8660253 -0.50000006
vn -0 0.8660253 -0.50000006
vn -0 0.8660253 -0.50000006
vn -0 0.8660253 -0.50000006
vn -0 0.8660255 0.4999998
vn -0 0.8660255 0.4999998
vn -0 0.8660255 0.4999998
vn -0 0.8660255 0.4999998
vn -0 0 1
vn -0 0 1
vn -0 0 1
vn -0 0 1
vn -0 -0.8660255 0.49999973
vn -0 -0.8660255 0.49999973
vn -0 -0.8660255 0.49999973
vn -0 -0.8660255 0.49999973
vn -0 -0.8660253 -0.50000006
vn -0 -0.8660253 -0.50000006
vn -0 -0.8660253 -0.50000006
vn -0 -0.8660253 -0.50000006
vn -0.7702623 -0.318864 -0.5522877
vn -0.7702623 -0.31886426 -0.5522876
vn -0.77026254 0.31886342 -0.55228776
vn -0.77026254 0.31886348 -0.5522878
vn -0.77026254 0.31886348 -0.5522878
vn -0.77026254 0.31886342 -0.55228776
vn -0.7702629 0.6377266 0
vn -0.77026284 0.6377266 0
vn -0.77026236 0.318864 0.55228764
vn -0.7702623 0.3188637 0.5522879
vn -0.7702623 0.3188637 0.5522879
vn -0.77026236 0.318864 0.55228764
vn -0.770263 -0.31886318 0.5522872
vn -0.770263 -0.31886265 0.5522875
vn -0.770263 -0.31886265 0.5522875
vn -0.770263 -0.31886318 0.5522872
vn -0.77026325 -0.6377261 0
vn -0.77026325 -0.6377261 0
vn -0.7702623 -0.31886426 -0.5522876
vn -0.7702623 -0.318864 -0.5522877
vn -0 -0.5000002 -0.8660253
vn -0 -0.5000002 -0.8660253
vn -0 0.4999996 -0.8660256
vn -0 0.4999996 -0.8660256
vn -0 0.4999996 -0.8660256
vn -0 0.4999996 -0.8660256
vn -0 1 0
vn -0 1 0
vn -0 0.50000006 0.8660253
vn -0 0.50000006 0.8660253
vn -0 0.50000006 0.8660253
vn -0 0.50000006 0.8660253
vn -0 -0.49999964 0.8660256
vn -0 -0.49999964 0.8660256
vn -0 -0.49999964 0.8660256
vn -0 -0.49999964 0.8660256
vn -0 -1 0
vn -0 -1 0
vn -0 -0.5000002 -0.8660253
vn -0 -0.5000002 -0.8660253
vn -0.12965141 -0.59396166 -0.79397744
vn -0.068063274 -0.59542805 -0.8005204
vn -0.12965141 -0.5939616 -0.79397744
vn -0.071472555 -0.5954066 -0.8002391
vn 0.014059984 -0.5930442 -0.8050472
vn 0.01447718 -0.59301156 -0.80506384
vn 0.038245857 -0.5882099 -0.80780333
vn 0.038262602 -0.5881273 -0.8078629
vn 0.038830902 -0.5853165 -0.8098746
vn 0.0388309 -0.5853165 -0.8098745
vn -0.1369346 0.744551 -0.6533703
vn -0.08710808 0.74624056 -0.65995246
vn -0.1369346 0.744551 -0.6533704
vn -0.0833528 0.74629134 -0.66037995
vn -0.012007854 0.7405652 -0.67187715
vn -0.012409669 0.7406713 -0.671753
vn 0.014890172 0.7186795 -0.6951821
vn 0.014618136 0.71939725 -0.694445
vn 0.020786949 0.7029082 -0.71097684
vn 0.020786949 0.70290816 -0.71097684
vn -0.04229485 0.2679375 0.9625075
vn -0.10774771 0.65306646 0.7495963
vn -0.039792605 0.64968985 0.7591572
vn -0.13611504 0.26668054 0.9541248
vn -0.19421867 0.652535 0.7324461
vn -0.251363 0.28300172 0.9255953
vn -0.27611822 0.6675273 0.6914955
vn -0.34370267 0.29300776 0.89219666
vn -0.47326994 0.6211192 0.62468106
vn -0.48205048 0.33534104 0.80942804
vn -0.012817896 -0.7959027 0.6052888
vn -0.12236374 -0.49161983 0.86217
vn -0.027649006 -0.4922102 0.8700372
vn -0.08469948 -0.7979594 0.59673005
vn -0.23734897 -0.49886677 0.833545
vn -0.17331718 -0.795792 0.58023804
vn -0.33428916 -0.50393766 0.7964281
vn -0.24918543 -0.79469174 0.55350846
vn -0.4637424 -0.5156037 0.720483
vn -0.43318456 -0.73504776 0.5215899
vn -0.018070474 0.99964225 0.01971672
vn -0.018070474 0.99964225 0.019716721
vn -0.012891658 0.9998061 0.014889824
vn -0.012379405 0.9998196 0.014412377
vn -0.0022624119 0.99999464 -0.0023922331
vn -0.0012898465 0.9999819 -0.0058881068
vn 0.010643854 0.9992619 -0.036908273
vn 0.014762908 0.99886394 -0.04530867
vn 0.031514943 0.99603987 -0.08313475
vn 0.031789936 0.99606436 -0.082734935
vn -0.025273236 0.985962 -0.16504581
vn -0.027649006 -0.4922102 0.8700372
vn -0.13611504 0.26668054 0.9541248
vn -0.04229485 0.2679375 0.9625075
vn -0.12236374 -0.49161983 0.86217
vn -0.23734897 -0.49886677 0.833545
vn -0.251363 0.28300172 0.9255953
vn -0.33428916 -0.50393766 0.7964281
vn -0.34370267 0.29300776 0.89219666
vn -0.4637424 -0.5156037 0.720483
vn -0.48205048 0.33534104 0.80942804
vn 0.0140094925 -0.9904882 -0.13688277
vn 0.009764935 -0.9910177 -0.13337392
vn 0.009764934 -0.9910177 -0.13337392
vn 0.013631192 -0.99053663 -0.1365702
vn 0.021347618 -0.9897232 -0.14139375
vn 0.020866504 -0.98973256 -0.14140028
vn 0.023001557 -0.9899183 -0.13975994
vn 0.023222359 -0.9898196 -0.14042032
vn 0.022222793 -0.99024886 -0.13752593
vn 0.022236377 -0.9902463 -0.13754192
vn 0.019358896 -0.9907713 -0.1341548
vn -0.8276383 0.0043393425 -0.561245
vn -0.8719755 -0.48443937 -0.070550844
vn -0.7758409 -0.3248561 -0.54086924
vn -0.9440543 -0.30590853 0.12321293
vn -0.43318456 -0.73504776 0.5215899
vn -0.4637424 -0.5156037 0.720483
vn -0.48205048 0.33534104 0.80942804
vn -0.9626238 0.21921843 0.15905572
vn -0.77594846 0.35804355 -0.51933503
vn -0.89360213 0.44885942 0.00070706767
vn -0.47326994 0.6211192 0.62468106
vn 0.99957865 0.021618882 -0.019371063
vn 0.9995701 0.022155887 -0.019201793
vn 0.9995524 0.022907643 -0.019241406
vn 0.9995658 0.02221182 -0.019361213
vn 0.9995635 0.02240591 -0.019251687
vn 0.99955744 0.022637947 -0.019300275
vn 0.9995739 0.02189909 -0.019299
vn 0.9995821 0.021459136 -0.01936774
g FrontFlipper_Right_0
f 3/3/3 2/2/2 1/1/1
f 6/6/6 5/5/5 4/4/4
f 9/9/9 8/8/8 7/7/7
f 12/12/12 11/11/11 10/10/10
f 15/15/15 14/14/14 13/13/13
f 18/18/18 17/17/17 16/16/16
f 21/21/21 20/20/20 19/19/19
f 22/22/22 21/21/21 19/19/19
f 25/25/25 24/24/24 23/23/23
f 26/26/26 25/25/25 23/23/23
f 29/29/29 28/28/28 27/27/27
f 30/30/30 29/29/29 27/27/27
f 33/33/33 32/32/32 31/31/31
f 34/34/34 33/33/33 31/31/31
f 37/37/37 36/36/36 35/35/35
f 38/38/38 37/37/37 35/35/35
f 41/41/41 40/40/40 39/39/39
f 42/42/42 41/41/41 39/39/39
f 45/45/45 44/44/44 43/43/43
f 46/46/46 45/45/45 43/43/43
f 49/49/49 48/48/48 47/47/47
f 50/50/50 49/49/49 47/47/47
f 51/51/51 49/49/49 50/50/50
f 52/52/52 51/51/51 50/50/50
f 55/55/55 54/54/54 53/53/53
f 56/56/56 55/55/55 53/53/53
f 59/59/59 58/58/58 57/57/57
f 60/60/60 59/59/59 57/57/57
f 61/61/61 59/59/59 60/60/60
f 62/62/62 61/61/61 60/60/60
f 65/65/65 64/64/64 63/63/63
f 66/66/66 65/65/65 63/63/63
f 69/69/69 68/68/68 67/67/67
f 70/70/70 69/69/69 67/67/67
f 71/71/71 69/69/69 70/70/70
f 72/72/72 71/71/71 70/70/70
f 75/75/75 74/74/74 73/73/73
f 76/76/76 75/75/75 73/73/73
f 79/79/79 78/78/78 77/77/77
f 80/80/80 79/79/79 77/77/77
f 81/81/81 79/79/79 80/80/80
f 82/82/82 81/81/81 80/80/80
f 85/85/85 84/84/84 83/83/83
f 84/84/84 86/86/86 83/83/83
f 84/84/84 87/87/87 86/86/86
f 87/87/87 88/88/88 86/86/86
f 87/87/87 89/89/89 88/88/88
f 89/89/89 90/90/90 88/88/88
f 89/89/89 91/91/91 90/90/90
f 91/91/91 92/92/92 90/90/90
f 95/95/95 94/94/94 93/93/93
f 94/94/94 96/96/96 93/93/93
f 94/94/94 97/97/97 96/96/96
f 97/97/97 98/98/98 96/96/96
f 97/97/97 99/99/99 98/98/98
f 99/99/99 100/100/100 98/98/98
f 99/99/99 101/101/101 100/100/100
f 101/101/101 102/102/102 100/100/100
f 105/105/105 104/104/104 103/103/103
f 104/104/104 106/106/106 103/103/103
f 104/104/104 107/107/107 106/106/106
f 107/107/107 108/108/108 106/106/106
f 107/107/107 109/109/109 108/108/108
f 109/109/109 110/110/110 108/108/108
f 109/109/109 111/111/111 110/110/110
f 111/111/111 112/112/112 110/110/110
f 115/115/115 114/114/114 113/113/113
f 114/114/114 116/116/116 113/113/113
f 114/114/114 117/117/117 116/116/116
f 117/117/117 118/118/118 116/116/116
f 117/117/117 119/119/119 118/118/118
f 119/119/119 120/120/120 118/118/118
f 119/119/119 121/121/121 120/120/120
f 121/121/121 122/122/122 120/120/120
f 125/125/125 124/124/124 123/123/123
f 126/126/126 125/125/125 123/123/123
f 127/127/127 125/125/125 126/126/126
f 128/128/128 127/127/127 126/126/126
f 129/129/129 127/127/127 128/128/128
f 130/130/130 129/129/129 128/128/128
f 130/130/130 131/131/131 129/129/129
f 131/131/131 132/132/132 129/129/129
f 133/133/133 132/132/132 131/131/131
f 136/136/136 135/135/135 134/134/134
f 135/135/135 137/137/137 134/134/134
f 138/138/138 137/137/137 135/135/135
f 139/139/139 138/138/138 135/135/135
f 140/140/140 138/138/138 139/139/139
f 141/141/141 140/140/140 139/139/139
f 142/142/142 140/140/140 141/141/141
f 143/143/143 142/142/142 141/141/141
f 146/146/146 145/145/145 144/144/144
f 145/145/145 147/147/147 144/144/144
f 144/144/144 147/147/147 148/148/148
f 147/147/147 149/149/149 148/148/148
f 148/148/148 149/149/149 150/150/150
f 149/149/149 151/151/151 150/150/150
f 150/150/150 151/151/151 152/152/152
f 151/151/151 153/153/153 152/152/152
f 152/152/152 153/153/153 154/154/154
f 157/157/157 156/156/156 155/155/155
f 156/156/156 158/158/158 155/155/155
f 156/156/156 159/159/159 158/158/158
f 159/159/159 160/160/160 158/158/158
f 158/158/158 160/160/160 161/161/161
f 162/162/162 155/155/155 158/158/158
f 162/162/162 158/158/158 161/161/161
f 155/155/155 162/162/162 163/163/163
f 162/162/162 164/164/164 163/163/163
f 162/162/162 161/161/161 164/164/164
f 161/161/161 165/165/165 164/164/164
f 168/168/168 167/167/167 166/166/166
f 166/166/166 167/167/167 169/169/169
f 170/170/170 167/167/167 168/168/168
f 169/169/169 167/167/167 171/171/171
f 172/172/172 167/167/167 170/170/170
f 171/171/171 167/167/167 173/173/173
f 173/173/173 167/167/167 172/172/172
