g Geo_Bottle_A_Liquid_Pink
v -0 0.072967805 -0.066011876
v 0.037975043 0.12332656 -0.04901198
v -0 0.12332656 -0.061350808
v 0.040714778 0.072967805 -0.052782863
v -0 0.022609046 -0.06564995
v 0.061444912 0.12332656 -0.01670847
v 0.04050204 0.022609046 -0.052490056
v 0.065877885 0.072967805 -0.01814882
v 0.06144492 0.12332656 0.023220848
v 0.06553364 0.022609046 -0.018036978
v 0.065877825 0.072967805 0.024661202
v 0.037975043 0.12332656 0.05552434
v 0.06553364 0.022609046 0.02454936
v 0.04071473 0.072967805 0.05929523
v -0 0.12332656 0.067863174
v 0.04050201 0.022609046 0.059002433
v -0 0.072967805 0.07252424
v -0 0.022609046 0.07216232
v -0 0.022609046 0.07216232
v 0.04050201 0.022609046 0.059002433
v -0 0.022609046 0.0032561838
v 0.06553364 0.022609046 0.02454936
v 0.06553364 0.022609046 -0.018036978
v 0.04050204 0.022609046 -0.052490056
v -0 0.022609046 -0.06564995
v 0.037975043 0.12332656 0.05552434
v -0 0.12332656 0.067863174
v -0 0.12332656 0.0032561838
v 0.06144492 0.12332656 0.023220848
v 0.061444912 0.12332656 -0.01670847
v 0.037975043 0.12332656 -0.04901198
v -0 0.12332656 -0.061350808
v -0 0.072967805 -0.066011876
v -0 0.12332656 -0.061350808
v -0.037975013 0.12332656 -0.04901198
v -0.040714778 0.072967805 -0.052782863
v -0 0.022609046 -0.06564995
v -0.0614449 0.12332656 -0.01670847
v -0.04050204 0.022609046 -0.052490056
v -0.06587788 0.072967805 -0.01814882
v -0.06144493 0.12332656 0.023220848
v -0.06553364 0.022609046 -0.018036978
v -0.06587781 0.072967805 0.024661202
v -0.037975043 0.12332656 0.05552434
v -0.06553364 0.022609046 0.02454936
v -0.04071473 0.072967805 0.05929523
v -0 0.12332656 0.067863174
v -0.04050201 0.022609046 0.059002433
v -0 0.072967805 0.07252424
v -0 0.022609046 0.07216232
v -0 0.022609046 0.07216232
v -0 0.022609046 0.0032561838
v -0.04050201 0.022609046 0.059002433
v -0.06553364 0.022609046 0.02454936
v -0.06553364 0.022609046 -0.018036978
v -0.04050204 0.022609046 -0.052490056
v -0 0.022609046 -0.06564995
v -0.037975043 0.12332656 0.05552434
v -0 0.12332656 0.0032561838
v -0 0.12332656 0.067863174
v -0.06144493 0.12332656 0.023220848
v -0.0614449 0.12332656 -0.01670847
v -0.037975013 0.12332656 -0.04901198
v -0 0.12332656 -0.061350808
vt 0.53964263 0.03235124
vt 0.55497146 0.060686175
vt 0.53964263 0.060686175
vt 0.55497146 0.03235124
vt 0.53964263 0.0065492857
vt 0.57033086 0.060686175
vt 0.55497146 0.0065492857
vt 0.57033086 0.03235124
vt 0.5853093 0.060686175
vt 0.57033086 0.0065492857
vt 0.5853093 0.03235124
vt 0.6002286 0.060686175
vt 0.5853093 0.0065492857
vt 0.60020036 0.03235124
vt 0.61499393 0.060718216
vt 0.6001988 0.0065492857
vt 0.6149973 0.03238328
vt 0.6150085 0.006581327
vt 0.534134 0.08507702
vt 0.53824925 0.07241154
vt 0.5556817 0.08507702
vt 0.5490231 0.06458388
vt 0.5623404 0.06458388
vt 0.5731142 0.07241154
vt 0.5772294 0.08507702
vt 0.5784181 0.0756603
vt 0.5743028 0.06299487
vt 0.5958506 0.06299484
vt 0.5891919 0.08348798
vt 0.6025092 0.08348796
vt 0.61328304 0.0756603
vt 0.61739826 0.06302691
vt 0.53964263 0.03235124
vt 0.53964263 0.060686175
vt 0.55497146 0.060686175
vt 0.55497146 0.03235124
vt 0.53964263 0.0065492857
vt 0.57033086 0.060686175
vt 0.55497146 0.0065492857
vt 0.57033086 0.03235124
vt 0.5853093 0.060686175
vt 0.57033086 0.0065492857
vt 0.5853093 0.03235124
vt 0.6002286 0.060686175
vt 0.5853093 0.0065492857
vt 0.60020036 0.03235124
vt 0.61499393 0.060718216
vt 0.6001988 0.0065492857
vt 0.6149973 0.03238328
vt 0.6150085 0.006581327
vt 0.534134 0.08507702
vt 0.5556817 0.08507702
vt 0.53824925 0.07241154
vt 0.5490231 0.06458388
vt 0.5623404 0.06458388
vt 0.5731142 0.07241154
vt 0.5772294 0.08507702
vt 0.5784181 0.0756603
vt 0.5958506 0.06299484
vt 0.5743028 0.06299487
vt 0.5891919 0.08348798
vt 0.6025092 0.08348796
vt 0.61328304 0.0756603
vt 0.61739826 0.06302691
vn -0 0.042550985 -0.99909425
vn 0.58528346 0.092163645 -0.80557376
vn -0 0.09216347 -0.99574393
vn 0.5872528 0.042551 -0.8082844
vn -0 -0.0071867798 -0.99997425
vn 0.9470087 0.0921636 -0.3077015
vn 0.58777 -0.0071869465 -0.80899614
vn 0.95019525 0.04255094 -0.30873677
vn 0.9470086 0.092163116 0.30770218
vn 0.9510321 -0.007187013 -0.3090086
vn 0.9501951 0.04255088 0.30873743
vn 0.5852835 0.092163086 0.8055738
vn 0.95103186 -0.0071866508 0.30900934
vn 0.58725286 0.04255095 0.8082844
vn -0 0.09216328 0.99574393
vn 0.58777 -0.0071864766 0.80899614
vn -0 0.042551 0.99909425
vn -0 -0.0071865646 0.99997425
vn -0 -1 0
vn -0 -1 0
vn -0 -1 0
vn -0 -1 0
vn -0 -1 0
vn -0 -1 0
vn -0 -1 0
vn -0 1 0
vn -0 1 0
vn -0 1 0
vn -0 1 0
vn -0 1 0
vn -0 1 0
vn -0 1 0
vn -0 0.042550985 -0.99909425
vn -0 0.09216347 -0.99574393
vn -0.5852834 0.09216382 -0.80557376
vn -0.5872528 0.0425511 -0.8082843
vn -0 -0.0071867798 -0.99997425
vn -0.9470087 0.09216357 -0.30770153
vn -0.58777 -0.0071869 -0.80899614
vn -0.95019525 0.04255102 -0.30873677
vn -0.9470086 0.09216284 0.30770206
vn -0.9510321 -0.0071868165 -0.30900848
vn -0.9501951 0.042550858 0.30873737
vn -0.5852836 0.09216297 0.80557376
vn -0.95103186 -0.00718642 0.30900934
vn -0.5872529 0.042550936 0.8082843
vn -0 0.09216328 0.99574393
vn -0.58777016 -0.007186396 0.8089961
vn -0 0.042551 0.99909425
vn -0 -0.0071865646 0.99997425
vn -0 -1 0
vn -0 -1 0
vn -0 -1 0
vn -0 -1 0
vn -0 -1 0
vn -0 -1 0
vn -0 -1 0
vn -0 1 0
vn -0 1 0
vn -0 1 0
vn -0 1 0
vn -0 1 0
vn -0 1 0
vn -0 1 0
g Geo_Bottle_A_Liquid_Pink_0
f 3/3/3 2/2/2 1/1/1
f 2/2/2 4/4/4 1/1/1
f 1/1/1 4/4/4 5/5/5
f 2/2/2 6/6/6 4/4/4
f 4/4/4 7/7/7 5/5/5
f 6/6/6 8/8/8 4/4/4
f 4/4/4 8/8/8 7/7/7
f 6/6/6 9/9/9 8/8/8
f 8/8/8 10/10/10 7/7/7
f 9/9/9 11/11/11 8/8/8
f 8/8/8 11/11/11 10/10/10
f 9/9/9 12/12/12 11/11/11
f 11/11/11 13/13/13 10/10/10
f 12/12/12 14/14/14 11/11/11
f 11/11/11 14/14/14 13/13/13
f 12/12/12 15/15/15 14/14/14
f 14/14/14 16/16/16 13/13/13
f 15/15/15 17/17/17 14/14/14
f 14/14/14 17/17/17 16/16/16
f 17/17/17 18/18/18 16/16/16
f 21/21/21 20/20/20 19/19/19
f 21/21/21 22/22/22 20/20/20
f 21/21/21 23/23/23 22/22/22
f 21/21/21 24/24/24 23/23/23
f 21/21/21 25/25/25 24/24/24
f 28/28/28 27/27/27 26/26/26
f 28/28/28 26/26/26 29/29/29
f 28/28/28 29/29/29 30/30/30
f 28/28/28 30/30/30 31/31/31
f 28/28/28 31/31/31 32/32/32
f 35/35/35 34/34/34 33/33/33
f 36/36/36 35/35/35 33/33/33
f 36/36/36 33/33/33 37/37/37
f 38/38/38 35/35/35 36/36/36
f 39/39/39 36/36/36 37/37/37
f 40/40/40 38/38/38 36/36/36
f 40/40/40 36/36/36 39/39/39
f 41/41/41 38/38/38 40/40/40
f 42/42/42 40/40/40 39/39/39
f 43/43/43 41/41/41 40/40/40
f 43/43/43 40/40/40 42/42/42
f 44/44/44 41/41/41 43/43/43
f 45/45/45 43/43/43 42/42/42
f 46/46/46 44/44/44 43/43/43
f 46/46/46 43/43/43 45/45/45
f 47/47/47 44/44/44 46/46/46
f 48/48/48 46/46/46 45/45/45
f 49/49/49 47/47/47 46/46/46
f 49/49/49 46/46/46 48/48/48
f 50/50/50 49/49/49 48/48/48
f 53/53/53 52/52/52 51/51/51
f 54/54/54 52/52/52 53/53/53
f 55/55/55 52/52/52 54/54/54
f 56/56/56 52/52/52 55/55/55
f 57/57/57 52/52/52 56/56/56
f 60/60/60 59/59/59 58/58/58
f 58/58/58 59/59/59 61/61/61
f 61/61/61 59/59/59 62/62/62
f 62/62/62 59/59/59 63/63/63
f 63/63/63 59/59/59 64/64/64
