g Geo_Bottle_G_Yellow
v 6.1035155E-07 0.09081719 -0.10909423
v 0.063999325 0.163082 -0.0880867
v 6.1035155E-07 0.163082 -0.10888122
v 0.064124756 0.09081719 -0.08825912
v 6.1035155E-07 0.011504329 -0.108524166
v 0.103552856 0.163082 -0.033646088
v 0.06378967 0.011504329 -0.087798
v 0.10375549 0.09081719 -0.033712003
v 0.103552856 0.163082 0.033646088
v 0.10321335 0.011504329 -0.03353592
v 0.10375534 0.09081719 0.033712003
v 0.063999325 0.163082 0.0880867
v 0.10321335 0.011504329 0.033535767
v 0.064124756 0.09081719 0.08825897
v 6.1035155E-07 0.163082 0.10888107
v 0.06378967 0.011504329 0.08779785
v 6.1035155E-07 0.09081719 0.10909408
v 6.1035155E-07 0.011504329 0.108524166
v 6.1035155E-07 0.011504329 0.108524166
v 0.06378967 0.011504329 0.08779785
v 6.1035155E-07 0.011504329 0
v 0.10321335 0.011504329 0.033535767
v 0.10321335 0.011504329 -0.03353592
v 0.06378967 0.011504329 -0.087798
v 6.1035155E-07 0.011504329 -0.108524166
v 0.063999325 0.163082 0.0880867
v 6.1035155E-07 0.163082 0.10888107
v 6.1035155E-07 0.163082 0
v 0.103552856 0.163082 0.033646088
v 0.103552856 0.163082 -0.033646088
v 0.063999325 0.163082 -0.0880867
v 6.1035155E-07 0.163082 -0.10888122
v 6.1035155E-07 0.09081719 -0.10909423
v 6.1035155E-07 0.163082 -0.10888122
v -0.0639981 0.163082 -0.0880867
v -0.06412323 0.09081719 -0.08825912
v 6.1035155E-07 0.011504329 -0.108524166
v -0.10355133 0.163082 -0.033646088
v -0.063788146 0.011504329 -0.087798
v -0.10375427 0.09081719 -0.033712003
v -0.10355133 0.163082 0.033646088
v -0.10321167 0.011504329 -0.03353592
v -0.10375396 0.09081719 0.033712003
v -0.0639981 0.163082 0.0880867
v -0.10321167 0.011504329 0.033535767
v -0.06412323 0.09081719 0.08825897
v 6.1035155E-07 0.163082 0.10888107
v -0.063788146 0.011504329 0.08779785
v 6.1035155E-07 0.09081719 0.10909408
v 6.1035155E-07 0.011504329 0.108524166
v 6.1035155E-07 0.011504329 0.108524166
v 6.1035155E-07 0.011504329 0
v -0.063788146 0.011504329 0.08779785
v -0.10321167 0.011504329 0.033535767
v -0.10321167 0.011504329 -0.03353592
v -0.063788146 0.011504329 -0.087798
v 6.1035155E-07 0.011504329 -0.108524166
v -0.0639981 0.163082 0.0880867
v 6.1035155E-07 0.163082 0
v 6.1035155E-07 0.163082 0.10888107
v -0.10355133 0.163082 0.033646088
v -0.10355133 0.163082 -0.033646088
v -0.0639981 0.163082 -0.0880867
v 6.1035155E-07 0.163082 -0.10888122
vt 0.45386463 0.12113067
vt 0.4689525 0.1494656
vt 0.45386463 0.1494656
vt 0.4689525 0.12113067
vt 0.45386463 0.09532871
vt 0.48407033 0.1494656
vt 0.4689525 0.09532871
vt 0.48407033 0.12113067
vt 0.49881327 0.1494656
vt 0.48407033 0.09532871
vt 0.49881327 0.12113067
vt 0.51349795 0.1494656
vt 0.49881327 0.09532871
vt 0.5134702 0.12113067
vt 0.52803105 0.1494656
vt 0.5134686 0.09532871
vt 0.52803445 0.12113067
vt 0.52804536 0.09532871
vt 0.50376767 0.189014
vt 0.49329537 0.19434988
vt 0.49032044 0.17556675
vt 0.48168677 0.19251128
vt 0.47337592 0.18420042
vt 0.47153726 0.17259179
vt 0.47687322 0.16211951
vt 0.4920521 0.16791072
vt 0.48793685 0.15524529
vt 0.50948465 0.15524526
vt 0.502826 0.1757384
vt 0.5161432 0.17573838
vt 0.5269171 0.16791072
vt 0.5310323 0.15524529
vt 0.45386463 0.12113067
vt 0.45386463 0.1494656
vt 0.4689525 0.1494656
vt 0.4689525 0.12113067
vt 0.45386463 0.09532871
vt 0.48407033 0.1494656
vt 0.4689525 0.09532871
vt 0.48407033 0.12113067
vt 0.49881327 0.1494656
vt 0.48407033 0.09532871
vt 0.49881327 0.12113067
vt 0.51349795 0.1494656
vt 0.49881327 0.09532871
vt 0.5134702 0.12113067
vt 0.52803105 0.1494656
vt 0.5134686 0.09532871
vt 0.52803445 0.12113067
vt 0.52804536 0.09532871
vt 0.50376767 0.189014
vt 0.49032044 0.17556675
vt 0.49329537 0.19434988
vt 0.48168677 0.19251128
vt 0.47337592 0.18420042
vt 0.47153726 0.17259179
vt 0.47687322 0.16211951
vt 0.4920521 0.16791072
vt 0.50948465 0.15524526
vt 0.48793685 0.15524529
vt 0.502826 0.1757384
vt 0.5161432 0.17573838
vt 0.5269171 0.16791072
vt 0.5310323 0.15524529
vn -0 -0.0021192697 -0.99999774
vn 0.58778256 0.0029494304 -0.80901355
vn -0 0.0029484653 -0.9999957
vn 0.58778363 -0.0021187388 -0.80901533
vn -0 -0.007186939 -0.99997425
vn 0.9510525 0.0029486613 -0.30901527
vn 0.5877696 -0.0071868463 -0.8089964
vn 0.95105463 -0.0021189132 -0.3090157
vn 0.95105225 0.0029478802 0.30901617
vn 0.9510322 -0.007186422 -0.30900818
vn 0.9510543 -0.0021192445 0.30901662
vn 0.5877823 0.002948121 0.8090138
vn 0.95103186 -0.0071863024 0.30900913
vn 0.5877837 -0.002119096 0.80901533
vn -0 0.0029474045 0.9999957
vn 0.58777016 -0.0071862475 0.80899596
vn -0 -0.0021193188 0.99999774
vn -0 -0.0071859797 0.99997425
vn -0 -1 0
vn -0 -1 0
vn -0 -1 0
vn -0 -1 0
vn -0 -1 0
vn -0 -1 0
vn -0 -1 0
vn -0 1 0
vn -0 1 0
vn -0 1 0
vn -0 1 0
vn -0 1 0
vn -0 1 0
vn -0 1 0
vn -0 -0.0021192697 -0.99999774
vn -0 0.0029484653 -0.9999957
vn -0.58778286 0.0029490883 -0.80901337
vn -0.58778393 -0.0021195204 -0.8090153
vn -0 -0.007186939 -0.99997425
vn -0.95105267 0.002950327 -0.30901474
vn -0.58776987 -0.0071880654 -0.8089963
vn -0.95105463 -0.0021199551 -0.30901533
vn -0.9510521 0.0029491023 0.3090163
vn -0.9510323 -0.0071901735 -0.30900806
vn -0.9510542 -0.0021203058 0.309017
vn -0.587783 0.0029473375 0.8090133
vn -0.9510317 -0.007189648 0.30900967
vn -0.58778435 -0.0021198972 0.80901486
vn -0 0.0029474045 0.9999957
vn -0.58777076 -0.007187066 0.8089956
vn -0 -0.0021193188 0.99999774
vn -0 -0.0071859797 0.99997425
vn -0 -1 0
vn -0 -1 0
vn -0 -1 0
vn -0 -1 0
vn -0 -1 0
vn -0 -1 0
vn -0 -1 0
vn -0 1 0
vn -0 1 0
vn -0 1 0
vn -0 1 0
vn -0 1 0
vn -0 1 0
vn -0 1 0
g Geo_Bottle_G_Yellow_0
f 3/3/3 2/2/2 1/1/1
f 2/2/2 4/4/4 1/1/1
f 1/1/1 4/4/4 5/5/5
f 2/2/2 6/6/6 4/4/4
f 4/4/4 7/7/7 5/5/5
f 6/6/6 8/8/8 4/4/4
f 4/4/4 8/8/8 7/7/7
f 6/6/6 9/9/9 8/8/8
f 8/8/8 10/10/10 7/7/7
f 9/9/9 11/11/11 8/8/8
f 8/8/8 11/11/11 10/10/10
f 9/9/9 12/12/12 11/11/11
f 11/11/11 13/13/13 10/10/10
f 12/12/12 14/14/14 11/11/11
f 11/11/11 14/14/14 13/13/13
f 12/12/12 15/15/15 14/14/14
f 14/14/14 16/16/16 13/13/13
f 15/15/15 17/17/17 14/14/14
f 14/14/14 17/17/17 16/16/16
f 17/17/17 18/18/18 16/16/16
f 21/21/21 20/20/20 19/19/19
f 21/21/21 22/22/22 20/20/20
f 21/21/21 23/23/23 22/22/22
f 21/21/21 24/24/24 23/23/23
f 21/21/21 25/25/25 24/24/24
f 28/28/28 27/27/27 26/26/26
f 28/28/28 26/26/26 29/29/29
f 28/28/28 29/29/29 30/30/30
f 28/28/28 30/30/30 31/31/31
f 28/28/28 31/31/31 32/32/32
f 35/35/35 34/34/34 33/33/33
f 36/36/36 35/35/35 33/33/33
f 36/36/36 33/33/33 37/37/37
f 38/38/38 35/35/35 36/36/36
f 39/39/39 36/36/36 37/37/37
f 40/40/40 38/38/38 36/36/36
f 40/40/40 36/36/36 39/39/39
f 41/41/41 38/38/38 40/40/40
f 42/42/42 40/40/40 39/39/39
f 43/43/43 41/41/41 40/40/40
f 43/43/43 40/40/40 42/42/42
f 44/44/44 41/41/41 43/43/43
f 45/45/45 43/43/43 42/42/42
f 46/46/46 44/44/44 43/43/43
f 46/46/46 43/43/43 45/45/45
f 47/47/47 44/44/44 46/46/46
f 48/48/48 46/46/46 45/45/45
f 49/49/49 47/47/47 46/46/46
f 49/49/49 46/46/46 48/48/48
f 50/50/50 49/49/49 48/48/48
f 53/53/53 52/52/52 51/51/51
f 54/54/54 52/52/52 53/53/53
f 55/55/55 52/52/52 54/54/54
f 56/56/56 52/52/52 55/55/55
f 57/57/57 52/52/52 56/56/56
f 60/60/60 59/59/59 58/58/58
f 58/58/58 59/59/59 61/61/61
f 61/61/61 59/59/59 62/62/62
f 62/62/62 59/59/59 63/63/63
f 63/63/63 59/59/59 64/64/64
