g Geo_Bottle_G_Glass
v 0.06567108 0 0.11374498
v 3.0517577E-07 0 0.1313414
v 3.0517577E-07 0.17005076 0.1313414
v 0.06567108 0.17005076 0.11374498
v 3.0517577E-07 0.21487562 0.062172156
v 0.11374542 0 0.0656707
v 0.031086424 0.21487562 0.053842667
v 0.11374542 0.17005076 0.0656707
v 0.1313417 0 2.3841857E-09
v 0.053842925 0.21487562 0.03108608
v 0.1313417 0.17005076 2.3841857E-09
v 0.11374542 0 -0.0656707
v 0.062172394 0.21487562 2.3841857E-09
v 0.11374542 0.17005076 -0.0656707
v 0.06567108 0 -0.113744974
v 0.053842925 0.21487562 -0.031086072
v 0.06567108 0.17005076 -0.113744974
v 3.0517577E-07 0 -0.1313414
v 0.031086424 0.21487562 -0.053842656
v 3.0517577E-07 0.17005076 -0.1313414
v 3.0517577E-07 0.21487562 -0.062172145
v 0.06567108 0 -0.113744974
v 3.0517577E-07 0 -0.1313414
v 3.0517577E-07 0 2.3841857E-09
v 0.11374542 0 -0.0656707
v 0.1313417 0 2.3841857E-09
v 3.0517577E-07 0 2.3841857E-09
v 0.11374542 0 0.0656707
v 0.06567108 0 0.11374498
v 3.0517577E-07 0 0.1313414
v -0.06567047 0 0.11374498
v 3.0517577E-07 0.17005076 0.1313414
v 3.0517577E-07 0 0.1313414
v -0.06567047 0.17005076 0.11374498
v 3.0517577E-07 0.21487562 0.062172156
v -0.11374481 0 0.0656707
v -0.031085815 0.21487562 0.053842667
v -0.11374481 0.17005076 0.0656707
v -0.13134094 0 2.3841857E-09
v -0.05384216 0.21487562 0.03108608
v -0.13134094 0.17005076 2.3841857E-09
v -0.11374481 0 -0.0656707
v -0.06217163 0.21487562 2.3841857E-09
v -0.11374481 0.17005076 -0.0656707
v -0.06567047 0 -0.113744974
v -0.05384216 0.21487562 -0.031086072
v -0.06567047 0.17005076 -0.113744974
v 3.0517577E-07 0 -0.1313414
v -0.031085815 0.21487562 -0.053842656
v 3.0517577E-07 0.17005076 -0.1313414
v 3.0517577E-07 0.21487562 -0.062172145
v -0.06567047 0 -0.113744974
v 3.0517577E-07 0 2.3841857E-09
v 3.0517577E-07 0 -0.1313414
v -0.11374481 0 -0.0656707
v -0.13134094 0 2.3841857E-09
v 3.0517577E-07 0 2.3841857E-09
v -0.11374481 0 0.0656707
v -0.06567047 0 0.11374498
v 3.0517577E-07 0 0.1313414
v 3.0517577E-07 0.20895058 -0.04309326
v 0.03884552 0.21576683 -0.06728162
v 3.0517577E-07 0.21576683 -0.07769011
v 0.021546936 0.20895058 -0.03731987
v 0.0672818 0.21576683 -0.038845055
v 0.03732025 0.20895058 -0.02154663
v 0.077690125 0.21576683 4.7683715E-09
v 0.043093566 0.20895058 2.3841857E-09
v 0.0672818 0.21576683 0.038845062
v 0.03732025 0.20895058 0.02154664
v 0.03884552 0.21576683 0.067281626
v 0.021546936 0.20895058 0.037319876
v 3.0517577E-07 0.21576683 0.077690125
v 3.0517577E-07 0.20895058 0.043093275
v 3.0517577E-07 0.23619625 -0.06964834
v 0.021546936 0.20895058 -0.03731987
v 3.0517577E-07 0.20895058 -0.04309326
v 0.03482483 0.23619625 -0.060317237
v 0.03732025 0.20895058 -0.02154663
v 0.060317535 0.23619625 -0.03482417
v 0.043093566 0.20895058 2.3841857E-09
v 0.06964844 0.23619625 2.3841857E-09
v 0.03732025 0.20895058 0.02154664
v 0.060317535 0.23619625 0.034824178
v 0.021546936 0.20895058 0.037319876
v 0.03482483 0.23619625 0.06031723
v 3.0517577E-07 0.20895058 0.043093275
v 3.0517577E-07 0.23619625 0.069648355
v 3.0517577E-07 0.20895058 -0.04309326
v 3.0517577E-07 0.21576683 -0.07769011
v -0.03884491 0.21576683 -0.06728162
v -0.021546325 0.20895058 -0.03731987
v -0.06728119 0.21576683 -0.038845055
v -0.03731964 0.20895058 -0.02154663
v -0.07768951 0.21576683 2.3841857E-09
v -0.043092955 0.20895058 2.3841857E-09
v -0.06728119 0.21576683 0.038845062
v -0.03731964 0.20895058 0.02154664
v -0.03884491 0.21576683 0.067281626
v -0.021546325 0.20895058 0.037319876
v 3.0517577E-07 0.21576683 0.077690125
v 3.0517577E-07 0.20895058 0.043093275
v 3.0517577E-07 0.23619625 -0.06964834
v 3.0517577E-07 0.20895058 -0.04309326
v -0.021546325 0.20895058 -0.03731987
v -0.034823913 0.23619625 -0.060317237
v -0.03731964 0.20895058 -0.02154663
v -0.06031677 0.23619625 -0.03482417
v -0.043092955 0.20895058 2.3841857E-09
v -0.069647826 0.23619625 2.3841857E-09
v -0.03731964 0.20895058 0.02154664
v -0.06031677 0.23619625 0.034824178
v -0.021546325 0.20895058 0.037319876
v -0.034823913 0.23619625 0.06031723
v 3.0517577E-07 0.20895058 0.043093275
v 3.0517577E-07 0.23619625 0.069648355
v 3.0517577E-07 0.21576683 -0.07769011
v 0.03482483 0.23619625 -0.060317237
v 3.0517577E-07 0.23619625 -0.06964834
v 0.03884552 0.21576683 -0.06728162
v 0.060317535 0.23619625 -0.03482417
v 0.0672818 0.21576683 -0.038845055
v 0.06964844 0.23619625 2.3841857E-09
v 0.077690125 0.21576683 4.7683715E-09
v 0.060317535 0.23619625 0.034824178
v 0.0672818 0.21576683 0.038845062
v 0.03482483 0.23619625 0.06031723
v 0.03884552 0.21576683 0.067281626
v 3.0517577E-07 0.23619625 0.069648355
v 3.0517577E-07 0.21576683 0.077690125
v -0.03884491 0.21576683 -0.06728162
v 3.0517577E-07 0.21576683 -0.07769011
v 3.0517577E-07 0.23619625 -0.06964834
v -0.034823913 0.23619625 -0.060317237
v -0.06728119 0.21576683 -0.038845055
v -0.06031677 0.23619625 -0.03482417
v -0.07768951 0.21576683 2.3841857E-09
v -0.069647826 0.23619625 2.3841857E-09
v -0.06728119 0.21576683 0.038845062
v -0.06031677 0.23619625 0.034824178
v -0.03884491 0.21576683 0.067281626
v -0.034823913 0.23619625 0.06031723
v 3.0517577E-07 0.21576683 0.077690125
v 3.0517577E-07 0.23619625 0.069648355
vt 0.79620445 0.37424752
vt 0.79620457 0.39407632
vt 0.7489781 0.39407632
vt 0.74897796 0.37424755
vt 0.73789275 0.39407635
vt 0.79620445 0.35566422
vt 0.73789275 0.37424755
vt 0.7489781 0.35566416
vt 0.79620445 0.33982953
vt 0.7378926 0.35566422
vt 0.74897796 0.3398296
vt 0.79620457 0.32322574
vt 0.73789275 0.3398296
vt 0.7489781 0.32322583
vt 0.79620457 0.30600533
vt 0.7378926 0.32322583
vt 0.7489781 0.30600536
vt 0.79620457 0.2861149
vt 0.7378926 0.30600533
vt 0.7489781 0.28611487
vt 0.73789275 0.28611487
vt 0.49690884 0.19887343
vt 0.51316273 0.19652398
vt 0.4957295 0.23183537
vt 0.48405337 0.20383577
vt 0.4753861 0.21097587
vt 0.4957295 0.23183537
vt 0.46763214 0.220063
vt 0.4629231 0.23245473
vt 0.46016183 0.24890053
vt 0.79620445 0.37424752
vt 0.7489781 0.39407632
vt 0.79620457 0.39407632
vt 0.74897796 0.37424755
vt 0.73789275 0.39407635
vt 0.79620445 0.35566422
vt 0.73789275 0.37424755
vt 0.7489781 0.35566416
vt 0.79620445 0.33982953
vt 0.7378926 0.35566422
vt 0.74897796 0.3398296
vt 0.79620457 0.32322574
vt 0.73789275 0.3398296
vt 0.7489781 0.32322583
vt 0.79620457 0.30600533
vt 0.7378926 0.32322583
vt 0.7489781 0.30600536
vt 0.79620457 0.2861149
vt 0.7378926 0.30600533
vt 0.7489781 0.28611487
vt 0.73789275 0.28611487
vt 0.49690884 0.19887343
vt 0.4957295 0.23183537
vt 0.51316273 0.19652398
vt 0.48405337 0.20383577
vt 0.4753861 0.21097587
vt 0.4957295 0.23183537
vt 0.46763214 0.220063
vt 0.4629231 0.23245473
vt 0.46016183 0.24890053
vt 0.73789275 0.28611487
vt 0.7371798 0.30600533
vt 0.7371799 0.28611487
vt 0.7378926 0.30600533
vt 0.7371798 0.32322583
vt 0.7378926 0.32322583
vt 0.7371799 0.3398296
vt 0.73789275 0.3398296
vt 0.7371798 0.3556642
vt 0.7378926 0.35566422
vt 0.7371799 0.37424755
vt 0.73789275 0.37424755
vt 0.7371799 0.39407635
vt 0.73789275 0.39407635
vt 0.7306051 0.2861149
vt 0.72493845 0.30600533
vt 0.7249384 0.28611484
vt 0.7306051 0.30600533
vt 0.72493845 0.32322577
vt 0.7306051 0.32322583
vt 0.7249384 0.33982962
vt 0.7306051 0.33982965
vt 0.7249384 0.35566422
vt 0.7306051 0.35566422
vt 0.7249384 0.37424752
vt 0.7306052 0.37424755
vt 0.7249384 0.39407632
vt 0.7306052 0.39407632
vt 0.73789275 0.28611487
vt 0.7371799 0.28611487
vt 0.7371798 0.30600533
vt 0.7378926 0.30600533
vt 0.7371798 0.32322583
vt 0.7378926 0.32322583
vt 0.7371799 0.3398296
vt 0.73789275 0.3398296
vt 0.7371798 0.3556642
vt 0.7378926 0.35566422
vt 0.7371799 0.37424755
vt 0.73789275 0.37424755
vt 0.7371799 0.39407635
vt 0.73789275 0.39407635
vt 0.7306051 0.2861149
vt 0.7249384 0.28611484
vt 0.72493845 0.30600533
vt 0.7306051 0.30600533
vt 0.72493845 0.32322577
vt 0.7306051 0.32322583
vt 0.7249384 0.33982962
vt 0.7306051 0.33982965
vt 0.7249384 0.35566422
vt 0.7306051 0.35566422
vt 0.7249384 0.37424752
vt 0.7306052 0.37424755
vt 0.7249384 0.39407632
vt 0.7306052 0.39407632
vt 0.7371799 0.28611487
vt 0.7306051 0.30600533
vt 0.7306051 0.2861149
vt 0.7371798 0.30600533
vt 0.7306051 0.32322583
vt 0.7371798 0.32322583
vt 0.7306051 0.33982965
vt 0.7371799 0.3398296
vt 0.7306051 0.35566422
vt 0.7371798 0.3556642
vt 0.7306052 0.37424755
vt 0.7371799 0.37424755
vt 0.7306052 0.39407632
vt 0.7371799 0.39407635
vt 0.7371798 0.30600533
vt 0.7371799 0.28611487
vt 0.7306051 0.2861149
vt 0.7306051 0.30600533
vt 0.7371798 0.32322583
vt 0.7306051 0.32322583
vt 0.7371799 0.3398296
vt 0.7306051 0.33982965
vt 0.7371798 0.3556642
vt 0.7306051 0.35566422
vt 0.7371799 0.37424755
vt 0.7306052 0.37424755
vt 0.7371799 0.39407635
vt 0.7306052 0.39407632
vn 0.4759597 -0.30634618 0.82438725
vn -0 -0.30634615 0.95192015
vn -0 0.21575314 0.976448
vn 0.4882237 0.21575312 0.84562886
vn -0 0.83919203 0.54383516
vn 0.82438725 -0.3063461 0.4759597
vn 0.27191743 0.8391923 0.47097483
vn 0.845629 0.21575323 0.4882235
vn 0.95192003 -0.30634654 0
vn 0.4709749 0.83919245 0.2719168
vn 0.9764479 0.2157536 0
vn 0.82438725 -0.3063461 -0.4759597
vn 0.5438346 0.83919245 0
vn 0.845629 0.21575326 -0.48822355
vn 0.47595966 -0.30634624 -0.82438725
vn 0.47097483 0.83919245 -0.2719169
vn 0.4882236 0.2157532 -0.845629
vn -0 -0.30634612 -0.95192015
vn 0.2719174 0.8391922 -0.4709749
vn -0 0.21575314 -0.976448
vn -0 0.8391921 -0.5438351
vn 0.47595966 -0.30634624 -0.82438725
vn -0 -0.30634612 -0.95192015
vn -0 -1 0
vn 0.82438725 -0.3063461 -0.4759597
vn 0.95192003 -0.30634654 0
vn -0 -1 0
vn 0.82438725 -0.3063461 0.4759597
vn 0.4759597 -0.30634618 0.82438725
vn -0 -0.30634615 0.95192015
vn -0.4759597 -0.30634618 0.82438725
vn -0 0.21575314 0.976448
vn -0 -0.30634615 0.95192015
vn -0.4882237 0.21575312 0.84562886
vn -0 0.83919203 0.54383516
vn -0.82438785 -0.30634588 0.475959
vn -0.2719176 0.8391923 0.47097462
vn -0.84562945 0.2157533 0.48822263
vn -0.95192003 -0.3063466 0
vn -0.47097495 0.8391927 0.27191597
vn -0.97644776 0.21575388 0
vn -0.82438785 -0.30634585 -0.47595897
vn -0.54383445 0.8391925 0
vn -0.84562945 0.21575324 -0.48822263
vn -0.47595966 -0.30634618 -0.82438725
vn -0.47097486 0.8391927 -0.27191606
vn -0.4882237 0.21575317 -0.84562886
vn -0 -0.30634612 -0.95192015
vn -0.2719176 0.8391924 -0.47097465
vn -0 0.21575314 -0.976448
vn -0 0.8391921 -0.5438351
vn -0.47595966 -0.30634618 -0.82438725
vn -0 -1 0
vn -0 -0.30634612 -0.95192015
vn -0.82438785 -0.30634585 -0.47595897
vn -0.95192003 -0.3063466 0
vn -0 -1 0
vn -0.82438785 -0.30634588 0.475959
vn -0.4759597 -0.30634618 0.82438725
vn -0 -0.30634615 0.95192015
vn -0 -0.5246563 0.85131407
vn 0.41395336 -0.5608639 -0.71698976
vn -0 -0.5608627 -0.8279088
vn -0.42565617 -0.52465403 0.7372618
vn 0.71699125 -0.5608641 -0.41395068
vn -0.73726183 -0.52465576 0.42565405
vn 0.8279095 -0.56086165 0
vn -0.851316 -0.5246533 5.861321E-07
vn 0.71699125 -0.56086415 0.4139504
vn -0.7372615 -0.52465636 -0.4256538
vn 0.41395354 -0.5608638 0.7169897
vn -0.42565587 -0.5246543 -0.7372618
vn -0 -0.5608624 0.82790905
vn -0 -0.52465653 -0.851314
vn -1.8524138E-07 0.9926656 -0.12089226
vn -0.42565617 -0.52465403 0.7372618
vn -0 -0.5246563 0.85131407
vn 0.060447272 0.99266547 -0.10469657
vn -0.73726183 -0.52465576 0.42565405
vn 0.10469582 0.9926658 -0.060442455
vn -0.851316 -0.5246533 5.861321E-07
vn 0.12088899 0.99266595 0
vn -0.7372615 -0.52465636 -0.4256538
vn 0.10469598 0.9926658 0.0604419
vn -0.42565587 -0.5246543 -0.7372618
vn 0.060447417 0.99266547 0.10469587
vn -0 -0.52465653 -0.851314
vn -1.4664941E-07 0.9926656 0.120892726
vn -0 -0.5246563 0.85131407
vn -0 -0.5608627 -0.8279088
vn -0.41395548 -0.56086254 -0.71698964
vn 0.42565626 -0.52465963 0.73725784
vn -0.71699256 -0.5608613 -0.41395208
vn 0.73725945 -0.52465826 0.4256551
vn -0.82791066 -0.56086 1.500725E-07
vn 0.85131484 -0.5246552 2.8259902E-07
vn -0.7169924 -0.5608614 0.41395214
vn 0.7372593 -0.5246587 -0.42565477
vn -0.41395548 -0.56086254 0.71698964
vn 0.4256562 -0.52465993 -0.73725766
vn -0 -0.5608624 0.82790905
vn -0 -0.52465653 -0.851314
vn -1.8524138E-07 0.9926656 -0.12089226
vn -0 -0.5246563 0.85131407
vn 0.42565626 -0.52465963 0.73725784
vn -0.060446378 0.9926656 -0.10469611
vn 0.73725945 -0.52465826 0.4256551
vn -0.10469544 0.9926658 -0.060442485
vn 0.85131484 -0.5246552 2.8259902E-07
vn -0.12089108 0.9926657 0
vn 0.7372593 -0.5246587 -0.42565477
vn -0.10469536 0.9926658 0.06044251
vn 0.4256562 -0.52465993 -0.73725766
vn -0.060446244 0.9926656 0.10469575
vn -0 -0.52465653 -0.851314
vn -1.4664941E-07 0.9926656 0.120892726
vn -0 -0.5608627 -0.8279088
vn 0.060447272 0.99266547 -0.10469657
vn -1.8524138E-07 0.9926656 -0.12089226
vn 0.41395336 -0.5608639 -0.71698976
vn 0.10469582 0.9926658 -0.060442455
vn 0.71699125 -0.5608641 -0.41395068
vn 0.12088899 0.99266595 0
vn 0.8279095 -0.56086165 0
vn 0.10469598 0.9926658 0.0604419
vn 0.71699125 -0.56086415 0.4139504
vn 0.060447417 0.99266547 0.10469587
vn 0.41395354 -0.5608638 0.7169897
vn -1.4664941E-07 0.9926656 0.120892726
vn -0 -0.5608624 0.82790905
vn -0.41395548 -0.56086254 -0.71698964
vn -0 -0.5608627 -0.8279088
vn -1.8524138E-07 0.9926656 -0.12089226
vn -0.060446378 0.9926656 -0.10469611
vn -0.71699256 -0.5608613 -0.41395208
vn -0.10469544 0.9926658 -0.060442485
vn -0.82791066 -0.56086 1.500725E-07
vn -0.12089108 0.9926657 0
vn -0.7169924 -0.5608614 0.41395214
vn -0.10469536 0.9926658 0.06044251
vn -0.41395548 -0.56086254 0.71698964
vn -0.060446244 0.9926656 0.10469575
vn -0 -0.5608624 0.82790905
vn -1.4664941E-07 0.9926656 0.120892726
g Geo_Bottle_G_Glass_0
f 3/3/3 2/2/2 1/1/1
f 4/4/4 3/3/3 1/1/1
f 5/5/5 3/3/3 4/4/4
f 4/4/4 1/1/1 6/6/6
f 7/7/7 5/5/5 4/4/4
f 8/8/8 4/4/4 6/6/6
f 7/7/7 4/4/4 8/8/8
f 8/8/8 6/6/6 9/9/9
f 10/10/10 7/7/7 8/8/8
f 11/11/11 8/8/8 9/9/9
f 10/10/10 8/8/8 11/11/11
f 11/11/11 9/9/9 12/12/12
f 13/13/13 10/10/10 11/11/11
f 14/14/14 11/11/11 12/12/12
f 13/13/13 11/11/11 14/14/14
f 14/14/14 12/12/12 15/15/15
f 16/16/16 13/13/13 14/14/14
f 17/17/17 14/14/14 15/15/15
f 16/16/16 14/14/14 17/17/17
f 17/17/17 15/15/15 18/18/18
f 19/19/19 16/16/16 17/17/17
f 20/20/20 17/17/17 18/18/18
f 19/19/19 17/17/17 20/20/20
f 21/21/21 19/19/19 20/20/20
f 24/24/24 23/23/23 22/22/22
f 24/24/24 22/22/22 25/25/25
f 27/27/27 25/25/25 26/26/26
f 27/27/27 26/26/26 28/28/28
f 27/27/27 28/28/28 29/29/29
f 27/27/27 29/29/29 30/30/30
f 33/33/33 32/32/32 31/31/31
f 32/32/32 34/34/34 31/31/31
f 32/32/32 35/35/35 34/34/34
f 31/31/31 34/34/34 36/36/36
f 35/35/35 37/37/37 34/34/34
f 34/34/34 38/38/38 36/36/36
f 34/34/34 37/37/37 38/38/38
f 36/36/36 38/38/38 39/39/39
f 37/37/37 40/40/40 38/38/38
f 38/38/38 41/41/41 39/39/39
f 38/38/38 40/40/40 41/41/41
f 39/39/39 41/41/41 42/42/42
f 40/40/40 43/43/43 41/41/41
f 41/41/41 44/44/44 42/42/42
f 41/41/41 43/43/43 44/44/44
f 42/42/42 44/44/44 45/45/45
f 43/43/43 46/46/46 44/44/44
f 44/44/44 47/47/47 45/45/45
f 44/44/44 46/46/46 47/47/47
f 45/45/45 47/47/47 48/48/48
f 46/46/46 49/49/49 47/47/47
f 47/47/47 50/50/50 48/48/48
f 47/47/47 49/49/49 50/50/50
f 49/49/49 51/51/51 50/50/50
f 54/54/54 53/53/53 52/52/52
f 52/52/52 53/53/53 55/55/55
f 55/55/55 57/57/57 56/56/56
f 56/56/56 57/57/57 58/58/58
f 58/58/58 57/57/57 59/59/59
f 59/59/59 57/57/57 60/60/60
f 63/63/63 62/62/62 61/61/61
f 62/62/62 64/64/64 61/61/61
f 62/62/62 65/65/65 64/64/64
f 65/65/65 66/66/66 64/64/64
f 65/65/65 67/67/67 66/66/66
f 67/67/67 68/68/68 66/66/66
f 67/67/67 69/69/69 68/68/68
f 69/69/69 70/70/70 68/68/68
f 69/69/69 71/71/71 70/70/70
f 71/71/71 72/72/72 70/70/70
f 71/71/71 73/73/73 72/72/72
f 73/73/73 74/74/74 72/72/72
f 77/77/77 76/76/76 75/75/75
f 76/76/76 78/78/78 75/75/75
f 76/76/76 79/79/79 78/78/78
f 79/79/79 80/80/80 78/78/78
f 79/79/79 81/81/81 80/80/80
f 81/81/81 82/82/82 80/80/80
f 81/81/81 83/83/83 82/82/82
f 83/83/83 84/84/84 82/82/82
f 83/83/83 85/85/85 84/84/84
f 85/85/85 86/86/86 84/84/84
f 85/85/85 87/87/87 86/86/86
f 87/87/87 88/88/88 86/86/86
f 91/91/91 90/90/90 89/89/89
f 92/92/92 91/91/91 89/89/89
f 93/93/93 91/91/91 92/92/92
f 94/94/94 93/93/93 92/92/92
f 95/95/95 93/93/93 94/94/94
f 96/96/96 95/95/95 94/94/94
f 97/97/97 95/95/95 96/96/96
f 98/98/98 97/97/97 96/96/96
f 99/99/99 97/97/97 98/98/98
f 100/100/100 99/99/99 98/98/98
f 101/101/101 99/99/99 100/100/100
f 102/102/102 101/101/101 100/100/100
f 105/105/105 104/104/104 103/103/103
f 106/106/106 105/105/105 103/103/103
f 107/107/107 105/105/105 106/106/106
f 108/108/108 107/107/107 106/106/106
f 109/109/109 107/107/107 108/108/108
f 110/110/110 109/109/109 108/108/108
f 111/111/111 109/109/109 110/110/110
f 112/112/112 111/111/111 110/110/110
f 113/113/113 111/111/111 112/112/112
f 114/114/114 113/113/113 112/112/112
f 115/115/115 113/113/113 114/114/114
f 116/116/116 115/115/115 114/114/114
f 119/119/119 118/118/118 117/117/117
f 118/118/118 120/120/120 117/117/117
f 118/118/118 121/121/121 120/120/120
f 121/121/121 122/122/122 120/120/120
f 121/121/121 123/123/123 122/122/122
f 123/123/123 124/124/124 122/122/122
f 123/123/123 125/125/125 124/124/124
f 125/125/125 126/126/126 124/124/124
f 125/125/125 127/127/127 126/126/126
f 127/127/127 128/128/128 126/126/126
f 127/127/127 129/129/129 128/128/128
f 129/129/129 130/130/130 128/128/128
f 133/133/133 132/132/132 131/131/131
f 134/134/134 133/133/133 131/131/131
f 134/134/134 131/131/131 135/135/135
f 136/136/136 134/134/134 135/135/135
f 136/136/136 135/135/135 137/137/137
f 138/138/138 136/136/136 137/137/137
f 138/138/138 137/137/137 139/139/139
f 140/140/140 138/138/138 139/139/139
f 140/140/140 139/139/139 141/141/141
f 142/142/142 140/140/140 141/141/141
f 142/142/142 141/141/141 143/143/143
f 144/144/144 142/142/142 143/143/143
