g Geo_Bottle_F_Cork
v 0.021472014 -0.0249619 -0.012396935
v 0.035764463 0.024961919 -0.020648636
v 0.016195832 0.024961919 -0.03693038
v 0.009723511 -0.0249619 -0.022172093
v -0.009723358 -0.0249619 -0.022172093
v -0.016195832 0.024961919 -0.03693038
v -0.035764463 0.024961919 -0.020648636
v -0.021472014 -0.0249619 -0.012396935
v -0.021472014 -0.0249619 0.012396938
v -0.035764463 0.024961919 0.02064864
v -0.016195832 0.024961919 0.03693038
v -0.009723358 -0.0249619 0.022172097
v 0.009723511 -0.0249619 0.022172097
v 0.016195832 0.024961919 0.03693038
v 0.035764463 0.024961919 0.02064864
v 0.021472014 -0.0249619 0.012396938
v 0.021472014 -0.0249619 -0.012396935
v 0.035764463 0.024961919 -0.020648636
v 0.035764463 0.024961919 -0.020648636
v -0 0.024961919 0
v 0.016195832 0.024961919 -0.03693038
v 0.035764463 0.024961919 0.02064864
v -0.016195832 0.024961919 -0.03693038
v 0.016195832 0.024961919 0.03693038
v -0.035764463 0.024961919 -0.020648636
v -0.016195832 0.024961919 0.03693038
v -0.035764463 0.024961919 0.02064864
v 0.009723511 -0.0249619 -0.022172093
v -0 -0.024961919 1.4095535E-09
v 0.021472014 -0.0249619 -0.012396935
v -0.009723358 -0.0249619 -0.022172093
v 0.021472014 -0.0249619 0.012396938
v -0.021472014 -0.0249619 -0.012396935
v 0.009723511 -0.0249619 0.022172097
v -0.021472014 -0.0249619 0.012396938
v -0.009723358 -0.0249619 0.022172097
vt 0.40823486 0.13827713
vt 0.4370595 0.13769834
vt 0.43705946 0.1284322
vt 0.40823483 0.12895358
vt 0.40823486 0.10848007
vt 0.43705943 0.108073734
vt 0.43705946 0.09720047
vt 0.4082349 0.09755123
vt 0.40823486 0.07490104
vt 0.43705946 0.074678995
vt 0.43705946 0.06327381
vt 0.40823483 0.06343215
vt 0.4082348 0.040831495
vt 0.43705946 0.04079292
vt 0.43705943 0.029968882
vt 0.4082348 0.029944612
vt 0.40823483 0.00959661
vt 0.43705946 0.009732437
vt 0.46477526 0.20786396
vt 0.43452126 0.19039685
vt 0.45198852 0.2206509
vt 0.46477526 0.17292964
vt 0.417054 0.2206509
vt 0.45198852 0.16014273
vt 0.40426722 0.20786396
vt 0.417054 0.16014273
vt 0.40426722 0.17292964
vt 0.5403583 0.39423463
vt 0.54859704 0.3799648
vt 0.5343272 0.38820353
vt 0.5568358 0.39423463
vt 0.5343272 0.3717261
vt 0.56286687 0.38820353
vt 0.5403583 0.3656949
vt 0.56286687 0.3717261
vt 0.5568358 0.3656949
vn 0.8674995 -0.40501198 -0.2888077
vn 0.94204795 0.07037968 -0.32801294
vn 0.30207932 0.095804475 -0.94845647
vn 0.26893064 -0.41181996 -0.87067825
vn -0.2689295 -0.4118206 -0.87067837
vn -0.30207947 0.09580354 -0.94845647
vn -0.9420474 0.07037883 -0.32801443
vn -0.86749876 -0.40501252 -0.2888092
vn -0.86749876 -0.40501246 0.2888092
vn -0.9420474 0.070378855 0.32801446
vn -0.3020795 0.09580359 0.94845647
vn -0.26892954 -0.4118206 0.87067837
vn 0.2689307 -0.4118199 0.87067825
vn 0.30207938 0.09580447 0.94845635
vn 0.94204795 0.07037966 0.32801294
vn 0.8674995 -0.40501204 0.28880775
vn 0.8674995 -0.40501198 -0.2888077
vn 0.94204795 0.07037968 -0.32801294
vn 0.94204795 0.07037968 -0.32801294
vn -0 1 0
vn 0.30207932 0.095804475 -0.94845647
vn 0.94204795 0.07037966 0.32801294
vn -0.30207947 0.09580354 -0.94845647
vn 0.30207938 0.09580447 0.94845635
vn -0.9420474 0.07037883 -0.32801443
vn -0.3020795 0.09580359 0.94845647
vn -0.9420474 0.070378855 0.32801446
vn 0.26893064 -0.41181996 -0.87067825
vn -0 -1 0
vn 0.8674995 -0.40501198 -0.2888077
vn -0.2689295 -0.4118206 -0.87067837
vn 0.8674995 -0.40501204 0.28880775
vn -0.86749876 -0.40501252 -0.2888092
vn 0.2689307 -0.4118199 0.87067825
vn -0.86749876 -0.40501246 0.2888092
vn -0.26892954 -0.4118206 0.87067837
g Geo_Bottle_F_Cork_0
f 3/3/3 2/2/2 1/1/1
f 4/4/4 3/3/3 1/1/1
f 4/4/4 5/5/5 3/3/3
f 5/5/5 6/6/6 3/3/3
f 7/7/7 6/6/6 5/5/5
f 8/8/8 7/7/7 5/5/5
f 8/8/8 9/9/9 7/7/7
f 9/9/9 10/10/10 7/7/7
f 11/11/11 10/10/10 9/9/9
f 12/12/12 11/11/11 9/9/9
f 12/12/12 13/13/13 11/11/11
f 13/13/13 14/14/14 11/11/11
f 15/15/15 14/14/14 13/13/13
f 16/16/16 15/15/15 13/13/13
f 16/16/16 17/17/17 15/15/15
f 17/17/17 18/18/18 15/15/15
f 21/21/21 20/20/20 19/19/19
f 22/22/22 19/19/19 20/20/20
f 21/21/21 23/23/23 20/20/20
f 22/22/22 20/20/20 24/24/24
f 25/25/25 20/20/20 23/23/23
f 26/26/26 24/24/24 20/20/20
f 25/25/25 27/27/27 20/20/20
f 26/26/26 20/20/20 27/27/27
f 30/30/30 29/29/29 28/28/28
f 31/31/31 28/28/28 29/29/29
f 30/30/30 32/32/32 29/29/29
f 31/31/31 29/29/29 33/33/33
f 34/34/34 29/29/29 32/32/32
f 35/35/35 33/33/33 29/29/29
f 34/34/34 36/36/36 29/29/29
f 35/35/35 29/29/29 36/36/36
