g Geo_Bottle_D_Yellow
v -1.5258789E-07 0.059416864 -0.07541779
v 0.04569008 0.09955372 -0.06288712
v -1.5258789E-07 0.09955372 -0.0777327
v 0.0443293 0.059416864 -0.06101425
v -1.5258789E-07 0.013836405 -0.04006958
v 0.07392815 0.09955372 -0.02402069
v 0.023552246 0.013836405 -0.032416992
v 0.07172646 0.059416864 -0.023305358
v 0.07392815 0.09955372 0.02402069
v 0.038108367 0.013836405 -0.012382202
v 0.071726374 0.059416864 0.023305358
v 0.04569008 0.09955372 0.06288712
v 0.038108367 0.013836405 0.012382202
v 0.044329222 0.059416864 0.06101425
v -1.5258789E-07 0.09955372 0.0777327
v 0.023552246 0.013836405 0.032416992
v -1.5258789E-07 0.059416864 0.07541779
v -1.5258789E-07 0.013836405 0.04006958
v -1.5258789E-07 0.013836405 0.04006958
v 0.023552246 0.013836405 0.032416992
v -1.5258789E-07 0.013836405 0
v 0.038108367 0.013836405 0.012382202
v 0.038108367 0.013836405 -0.012382202
v 0.023552246 0.013836405 -0.032416992
v -1.5258789E-07 0.013836405 -0.04006958
v 0.04569008 0.09955372 0.06288712
v -1.5258789E-07 0.09955372 0.0777327
v -1.5258789E-07 0.09955372 0
v 0.07392815 0.09955372 0.02402069
v 0.07392815 0.09955372 -0.02402069
v 0.04569008 0.09955372 -0.06288712
v -1.5258789E-07 0.09955372 -0.0777327
v -1.5258789E-07 0.059416864 -0.07541779
v -1.5258789E-07 0.09955372 -0.0777327
v -0.04569023 0.09955372 -0.06288712
v -0.044329602 0.059416864 -0.06101425
v -1.5258789E-07 0.013836405 -0.04006958
v -0.0739283 0.09955372 -0.02402069
v -0.023552323 0.013836405 -0.032416992
v -0.07172676 0.059416864 -0.023305358
v -0.0739283 0.09955372 0.02402069
v -0.038108442 0.013836405 -0.012382202
v -0.071726605 0.059416864 0.023305358
v -0.04569023 0.09955372 0.06288712
v -0.038108442 0.013836405 0.012382202
v -0.044329602 0.059416864 0.06101425
v -1.5258789E-07 0.09955372 0.0777327
v -0.023552323 0.013836405 0.032416992
v -1.5258789E-07 0.059416864 0.07541779
v -1.5258789E-07 0.013836405 0.04006958
v -1.5258789E-07 0.013836405 0.04006958
v -1.5258789E-07 0.013836405 0
v -0.023552323 0.013836405 0.032416992
v -0.038108442 0.013836405 0.012382202
v -0.038108442 0.013836405 -0.012382202
v -0.023552323 0.013836405 -0.032416992
v -1.5258789E-07 0.013836405 -0.04006958
v -0.04569023 0.09955372 0.06288712
v -1.5258789E-07 0.09955372 0
v -1.5258789E-07 0.09955372 0.0777327
v -0.0739283 0.09955372 0.02402069
v -0.0739283 0.09955372 -0.02402069
v -0.04569023 0.09955372 -0.06288712
v -1.5258789E-07 0.09955372 -0.0777327
vt 0.45386463 0.12113067
vt 0.4689525 0.1494656
vt 0.45386463 0.1494656
vt 0.4689525 0.12113067
vt 0.45386463 0.09532871
vt 0.48407033 0.1494656
vt 0.4689525 0.09532871
vt 0.48407033 0.12113067
vt 0.49881327 0.1494656
vt 0.48407033 0.09532871
vt 0.49881327 0.12113067
vt 0.51349795 0.1494656
vt 0.49881327 0.09532871
vt 0.5134702 0.12113067
vt 0.52803105 0.1494656
vt 0.5134686 0.09532871
vt 0.52803445 0.12113067
vt 0.52804536 0.09532871
vt 0.50376767 0.189014
vt 0.49329537 0.19434988
vt 0.49032044 0.17556675
vt 0.48168677 0.19251128
vt 0.47337592 0.18420042
vt 0.47153726 0.17259179
vt 0.47687322 0.16211951
vt 0.4920521 0.16791072
vt 0.48793685 0.15524529
vt 0.50948465 0.15524526
vt 0.502826 0.1757384
vt 0.5161432 0.17573838
vt 0.5269171 0.16791072
vt 0.5310323 0.15524529
vt 0.45386463 0.12113067
vt 0.45386463 0.1494656
vt 0.4689525 0.1494656
vt 0.4689525 0.12113067
vt 0.45386463 0.09532871
vt 0.48407033 0.1494656
vt 0.4689525 0.09532871
vt 0.48407033 0.12113067
vt 0.49881327 0.1494656
vt 0.48407033 0.09532871
vt 0.49881327 0.12113067
vt 0.51349795 0.1494656
vt 0.49881327 0.09532871
vt 0.5134702 0.12113067
vt 0.52803105 0.1494656
vt 0.5134686 0.09532871
vt 0.52803445 0.12113067
vt 0.52804536 0.09532871
vt 0.50376767 0.189014
vt 0.49032044 0.17556675
vt 0.49329537 0.19434988
vt 0.48168677 0.19251128
vt 0.47337592 0.18420042
vt 0.47153726 0.17259179
vt 0.47687322 0.16211951
vt 0.4920521 0.16791072
vt 0.50948465 0.15524526
vt 0.48793685 0.15524529
vt 0.502826 0.1757384
vt 0.5161432 0.17573838
vt 0.5269171 0.16791072
vt 0.5310323 0.15524529
vn -0 -0.35361305 -0.93539184
vn 0.5868098 -0.05758154 -0.8076749
vn -0 -0.05758064 -0.99834085
vn 0.5498092 -0.35361308 -0.75674796
vn -0 -0.90141743 -0.43295106
vn 0.94947857 -0.057582475 -0.30850384
vn 0.2544823 -0.90141726 -0.35026515
vn 0.88961047 -0.3536134 -0.2890516
vn 0.9494783 -0.057583258 0.30850464
vn 0.41176137 -0.90141726 -0.13378923
vn 0.8896101 -0.35361347 0.28905237
vn 0.5868098 -0.057582494 0.80767477
vn 0.41176146 -0.9014171 0.1337898
vn 0.54980934 -0.35361338 0.75674784
vn -0 -0.0575808 0.99834085
vn 0.2544826 -0.9014172 0.35026523
vn -0 -0.3536131 0.93539184
vn -0 -0.9014174 0.43295112
vn -0 -0.9014174 0.43295112
vn 0.2544826 -0.9014172 0.35026523
vn -0 -1 0
vn 0.41176146 -0.9014171 0.1337898
vn 0.41176137 -0.90141726 -0.13378923
vn 0.2544823 -0.90141726 -0.35026515
vn -0 -0.90141743 -0.43295106
vn -0 1 0
vn -0 1 0
vn -0 1 0
vn -0 1 0
vn -0 1 0
vn -0 1 0
vn -0 1 0
vn -0 -0.35361305 -0.93539184
vn -0 -0.05758064 -0.99834085
vn -0.58681005 -0.057579603 -0.80767477
vn -0.5498095 -0.353613 -0.7567479
vn -0 -0.90141743 -0.43295106
vn -0.94947886 -0.057579376 -0.30850354
vn -0.25448203 -0.90141755 -0.35026446
vn -0.8896106 -0.35361335 -0.28905115
vn -0.94947857 -0.05758014 0.30850443
vn -0.41176024 -0.90141785 -0.13378862
vn -0.8896103 -0.35361323 0.2890522
vn -0.5868105 -0.05758043 0.8076743
vn -0.41176057 -0.90141755 0.13378935
vn -0.54981 -0.35361326 0.75674736
vn -0 -0.0575808 0.99834085
vn -0.25448245 -0.90141755 0.35026437
vn -0 -0.3536131 0.93539184
vn -0 -0.9014174 0.43295112
vn -0 -0.9014174 0.43295112
vn -0 -1 0
vn -0.25448245 -0.90141755 0.35026437
vn -0.41176057 -0.90141755 0.13378935
vn -0.41176024 -0.90141785 -0.13378862
vn -0.25448203 -0.90141755 -0.35026446
vn -0 -0.90141743 -0.43295106
vn -0 1 0
vn -0 1 0
vn -0 1 0
vn -0 1 0
vn -0 1 0
vn -0 1 0
vn -0 1 0
g Geo_Bottle_D_Yellow_0
f 3/3/3 2/2/2 1/1/1
f 2/2/2 4/4/4 1/1/1
f 1/1/1 4/4/4 5/5/5
f 2/2/2 6/6/6 4/4/4
f 4/4/4 7/7/7 5/5/5
f 6/6/6 8/8/8 4/4/4
f 4/4/4 8/8/8 7/7/7
f 6/6/6 9/9/9 8/8/8
f 8/8/8 10/10/10 7/7/7
f 9/9/9 11/11/11 8/8/8
f 8/8/8 11/11/11 10/10/10
f 9/9/9 12/12/12 11/11/11
f 11/11/11 13/13/13 10/10/10
f 12/12/12 14/14/14 11/11/11
f 11/11/11 14/14/14 13/13/13
f 12/12/12 15/15/15 14/14/14
f 14/14/14 16/16/16 13/13/13
f 15/15/15 17/17/17 14/14/14
f 14/14/14 17/17/17 16/16/16
f 17/17/17 18/18/18 16/16/16
f 21/21/21 20/20/20 19/19/19
f 21/21/21 22/22/22 20/20/20
f 21/21/21 23/23/23 22/22/22
f 21/21/21 24/24/24 23/23/23
f 21/21/21 25/25/25 24/24/24
f 28/28/28 27/27/27 26/26/26
f 28/28/28 26/26/26 29/29/29
f 28/28/28 29/29/29 30/30/30
f 28/28/28 30/30/30 31/31/31
f 28/28/28 31/31/31 32/32/32
f 35/35/35 34/34/34 33/33/33
f 36/36/36 35/35/35 33/33/33
f 36/36/36 33/33/33 37/37/37
f 38/38/38 35/35/35 36/36/36
f 39/39/39 36/36/36 37/37/37
f 40/40/40 38/38/38 36/36/36
f 40/40/40 36/36/36 39/39/39
f 41/41/41 38/38/38 40/40/40
f 42/42/42 40/40/40 39/39/39
f 43/43/43 41/41/41 40/40/40
f 43/43/43 40/40/40 42/42/42
f 44/44/44 41/41/41 43/43/43
f 45/45/45 43/43/43 42/42/42
f 46/46/46 44/44/44 43/43/43
f 46/46/46 43/43/43 45/45/45
f 47/47/47 44/44/44 46/46/46
f 48/48/48 46/46/46 45/45/45
f 49/49/49 47/47/47 46/46/46
f 49/49/49 46/46/46 48/48/48
f 50/50/50 49/49/49 48/48/48
f 53/53/53 52/52/52 51/51/51
f 54/54/54 52/52/52 53/53/53
f 55/55/55 52/52/52 54/54/54
f 56/56/56 52/52/52 55/55/55
f 57/57/57 52/52/52 56/56/56
f 60/60/60 59/59/59 58/58/58
f 58/58/58 59/59/59 61/61/61
f 61/61/61 59/59/59 62/62/62
f 62/62/62 59/59/59 63/63/63
f 63/63/63 59/59/59 64/64/64
