g Hatch 3.L
v 0.0564283 0.005080655 0.3394285
v 0.0782761 0.009888407 0.33288485
v 0.0029115975 -0.006297108 0.3398085
v 0.0782761 0.009888407 0.33288485
v 0.08020017 0.016276117 0.18536925
v 0.00044074655 0.000875514 0.18365455
v 0.0029115975 -0.006297108 0.3398085
v -0.07784591 -0.015293945 0.18338585
v -0.07514065 -0.024094066 0.33890218
v 0.00044074655 0.000875514 0.18365455
v 0.077253625 0.01477924 0.33306628
v -0.0005170554 0.0057787523 0.18377899
v 0.07925172 0.021181729 0.1854512
v 0.0018671453 -0.0014126524 0.34003326
v 0.055400312 0.009970728 0.33959955
v -0.07901476 -0.010439373 0.18357097
v -0.07654723 -0.019308468 0.33924705
v 0.07750821 0.0064569893 -0.3293935
v 0.07918762 0.016354728 -0.16020429
v -0.0010009557 0.003255792 -0.16028637
v -0.00043077767 -0.0033084713 -0.3289282
v -0.0013339967 -0.0038906634 -0.33707976
v 0.055716276 0.0030470788 -0.33839333
v 0.001479581 -0.003694009 -0.34032485
v -0.07906211 -0.015750084 -0.32909107
v -0.08047084 -0.0104467925 -0.1603173
v -0.07885298 -0.016113812 -0.33732402
v -0.07795796 -0.016045175 -0.34028327
v -0.0005170554 0.0057787523 0.18377899
v -0.07901476 -0.010439373 0.18357097
v -0.0010009557 0.003255792 -0.16028637
v 0.07925172 0.021181729 0.1854512
v 0.07918762 0.016354728 -0.16020429
v -0.0006649941 -0.008837051 -0.33678755
v -0.077673115 -0.020966299 -0.33707976
v -0.077881314 -0.020603344 -0.32886505
v 0.00024569035 -0.0082551725 -0.3286618
v 0.07810338 0.0015079938 -0.32900283
v 0.05631803 -0.0018993467 -0.33798015
v 0.05631803 -0.0018993467 -0.33798015
v 0.0021122694 -0.0086476505 -0.34007895
v -0.0006649941 -0.008837051 -0.33678755
v -0.076778024 -0.020897679 -0.340039
v -0.077673115 -0.020966299 -0.33707976
v -0.08047084 -0.0104467925 -0.1603173
v -0.077881314 -0.020603344 -0.32886505
v -0.07906211 -0.015750084 -0.32909107
v -0.079480216 -0.015346729 -0.1602282
v -0.07901476 -0.010439373 0.18357097
v -0.07784591 -0.015293945 0.18338585
v -0.07654723 -0.019308468 0.33924705
v -0.07514065 -0.024094066 0.33890218
v -0.00019079447 -0.0016764887 -0.16016398
v 0.07996513 0.0114186965 -0.16002893
v 0.07810338 0.0015079938 -0.32900283
v 0.00024569035 -0.0082551725 -0.3286618
v -0.077881314 -0.020603344 -0.32886505
v -0.079480216 -0.015346729 -0.1602282
v -0.00019079447 -0.0016764887 -0.16016398
v 0.08020017 0.016276117 0.18536925
v 0.07996513 0.0114186965 -0.16002893
v 0.00044074655 0.000875514 0.18365455
v -0.07784591 -0.015293945 0.18338585
v -0.079480216 -0.015346729 -0.1602282
v -0.07885298 -0.016113812 -0.33732402
v -0.077673115 -0.020966299 -0.33707976
v -0.076778024 -0.020897679 -0.340039
v -0.07795796 -0.016045175 -0.34028327
v 0.077253625 0.01477924 0.33306628
v 0.0782761 0.009888407 0.33288485
v 0.0564283 0.005080655 0.3394285
v 0.055400312 0.009970728 0.33959955
v 0.07925172 0.021181729 0.1854512
v 0.0782761 0.009888407 0.33288485
v 0.077253625 0.01477924 0.33306628
v 0.08020017 0.016276117 0.18536925
v 0.07996513 0.0114186965 -0.16002893
v 0.07918762 0.016354728 -0.16020429
v 0.07750821 0.0064569893 -0.3293935
v 0.07810338 0.0015079938 -0.32900283
v 0.001479581 -0.003694009 -0.34032485
v -0.07795796 -0.016045175 -0.34028327
v -0.076778024 -0.020897679 -0.340039
v 0.0021122694 -0.0086476505 -0.34007895
v 0.05631803 -0.0018993467 -0.33798015
v 0.055716276 0.0030470788 -0.33839333
v 0.055716276 0.0030470788 -0.33839333
v 0.05631803 -0.0018993467 -0.33798015
v 0.07810338 0.0015079938 -0.32900283
v 0.07750821 0.0064569893 -0.3293935
v 0.055400312 0.009970728 0.33959955
v 0.0564283 0.005080655 0.3394285
v 0.0029115975 -0.006297108 0.3398085
v 0.0018671453 -0.0014126524 0.34003326
v -0.07514065 -0.024094066 0.33890218
v -0.07654723 -0.019308468 0.33924705
v -0.07906211 -0.015750084 -0.32909107
v -0.077881314 -0.020603344 -0.32886505
v -0.077673115 -0.020966299 -0.33707976
v -0.07885298 -0.016113812 -0.33732402
vt 0.30354947 0.8964194
vt 0.30577162 0.9009446
vt 0.30239913 0.8824607
vt 0.30577162 0.9009446
vt 0.31693903 0.9030558
vt 0.31771412 0.8819162
vt 0.30239913 0.8824607
vt 0.31740448 0.860612
vt 0.3050716 0.86291313
vt 0.31771412 0.8819162
vt 0.30290264 0.90774465
vt 0.3163398 0.9286163
vt 0.31578338 0.90710527
vt 0.30104306 0.92815703
vt 0.30116838 0.9136673
vt 0.3163903 0.94980466
vt 0.30121866 0.9494538
vt 0.47838923 0.90803164
vt 0.43352148 0.9071637
vt 0.43353474 0.9286747
vt 0.4782172 0.9288277
vt 0.4803783 0.9290893
vt 0.4807648 0.91387457
vt 0.48124024 0.9283457
vt 0.47824413 0.9499093
vt 0.4335375 0.95002484
vt 0.4804265 0.9498716
vt 0.48121023 0.9496349
vt 0.3163398 0.9286163
vt 0.3163903 0.94980466
vt 0.43353474 0.9286747
vt 0.31578338 0.90710527
vt 0.43352148 0.9071637
vt 0.4823292 0.8821503
vt 0.4828036 0.8629591
vt 0.48102117 0.8624167
vt 0.48021224 0.882282
vt 0.4786376 0.90077084
vt 0.48128504 0.896565
vt 0.48128504 0.896565
vt 0.48313487 0.88291526
vt 0.4823292 0.8821503
vt 0.48339194 0.8633067
vt 0.4828036 0.8629591
vt 0.4363899 0.85893434
vt 0.48102117 0.8624167
vt 0.48131868 0.86114043
vt 0.43636853 0.86028045
vt 0.31728652 0.8593908
vt 0.31740448 0.860612
vt 0.30431274 0.8619312
vt 0.3050716 0.86291313
vt 0.43611804 0.88194
vt 0.436212 0.90383404
vt 0.4786376 0.90077084
vt 0.48021224 0.882282
vt 0.48102117 0.8624167
vt 0.43636853 0.86028045
vt 0.43611804 0.88194
vt 0.31693903 0.9030558
vt 0.436212 0.90383404
vt 0.31771412 0.8819162
vt 0.31740448 0.860612
vt 0.43636853 0.86028045
vt 0.48350662 0.8618283
vt 0.4828036 0.8629591
vt 0.48339194 0.8633067
vt 0.48431012 0.86239916
vt 0.3049176 0.9020261
vt 0.30577162 0.9009446
vt 0.30354947 0.8964194
vt 0.30234098 0.8967552
vt 0.31680587 0.90432537
vt 0.30577162 0.9009446
vt 0.3049176 0.9020261
vt 0.31693903 0.9030558
vt 0.436212 0.90383404
vt 0.4362272 0.90516853
vt 0.47929767 0.9017734
vt 0.4786376 0.90077084
vt 0.48442793 0.8830336
vt 0.48431012 0.86239916
vt 0.48339194 0.8633067
vt 0.48313487 0.88291526
vt 0.48128504 0.896565
vt 0.48254696 0.89706546
vt 0.48254696 0.89706546
vt 0.48128504 0.896565
vt 0.4786376 0.90077084
vt 0.47929767 0.9017734
vt 0.30234098 0.8967552
vt 0.30354947 0.8964194
vt 0.30239913 0.8824607
vt 0.30104306 0.88248324
vt 0.3050716 0.86291313
vt 0.30431274 0.8619312
vt 0.48131868 0.86114043
vt 0.48102117 0.8624167
vt 0.4828036 0.8629591
vt 0.48350662 0.8618283
vn 0.20772336 -0.97786987 -0.02492922
vn 0.20772336 -0.97786987 -0.02492922
vn 0.20772336 -0.97786987 -0.02492922
vn 0.19790885 -0.9792286 -0.04408369
vn 0.19790885 -0.9792286 -0.04408369
vn 0.19790885 -0.9792286 -0.04408369
vn 0.19790885 -0.9792286 -0.04408369
vn 0.2123882 -0.975718 -0.05353168
vn 0.2123882 -0.975718 -0.05353168
vn 0.2123882 -0.975718 -0.05353168
vn -0.19790119 0.97923136 0.044058338
vn -0.19790119 0.97923136 0.044058338
vn -0.19790119 0.97923136 0.044058338
vn -0.19790119 0.97923136 0.044058338
vn -0.20773368 0.97786945 0.024859142
vn -0.21246447 0.9757009 0.053541012
vn -0.21246447 0.9757009 0.053541012
vn -0.14305669 0.9885643 -0.047701545
vn -0.14305669 0.9885643 -0.047701545
vn -0.14305669 0.9885643 -0.047701545
vn -0.15569502 0.98652077 -0.050358873
vn -0.15569502 0.98652077 -0.050358873
vn -0.121621326 0.9915394 -0.045361534
vn -0.121621326 0.9915394 -0.045361534
vn -0.15569502 0.98652077 -0.050358873
vn -0.16300192 0.98598206 -0.035634864
vn -0.15569502 0.98652077 -0.050358873
vn -0.1544248 0.9867328 -0.050114803
vn -0.17530198 0.9844603 -0.010351546
vn -0.18609615 0.9825267 -0.0030890803
vn -0.17530198 0.9844603 -0.010351546
vn -0.17530198 0.9844603 -0.010351546
vn -0.17530198 0.9844603 -0.010351546
vn 0.15549847 -0.98655164 0.050359074
vn 0.15549847 -0.98655164 0.050359074
vn 0.15549847 -0.98655164 0.050359074
vn 0.15549847 -0.98655164 0.050359074
vn 0.123392105 -0.9900808 0.067189276
vn 0.123392105 -0.9900808 0.067189276
vn 0.12167204 -0.99152184 0.04561057
vn 0.12167204 -0.99152184 0.04561057
vn 0.15423088 -0.9867749 0.04988007
vn 0.15423088 -0.9867749 0.04988007
vn 0.15423088 -0.9867749 0.04988007
vn -0.97608656 -0.21737401 -0.0018975943
vn -0.97608656 -0.21737401 -0.0018975943
vn -0.97608656 -0.21737401 -0.0018975943
vn -0.97608656 -0.21737401 -0.0018975943
vn -0.9763417 -0.21618819 0.0044076606
vn -0.9763417 -0.21618819 0.0044076606
vn -0.9660968 -0.25817618 0.0013999364
vn -0.9660968 -0.25817618 0.0013999364
vn 0.1430683 -0.9885627 0.04769847
vn 0.1430683 -0.9885627 0.04769847
vn 0.1430683 -0.9885627 0.04769847
vn 0.1430683 -0.9885627 0.04769847
vn 0.16290928 -0.98599863 0.03559756
vn 0.16290928 -0.98599863 0.03559756
vn 0.16290928 -0.98599863 0.03559756
vn 0.17530394 -0.9844599 0.010363015
vn 0.17530394 -0.9844599 0.010363015
vn 0.17530394 -0.9844599 0.010363015
vn 0.18605305 -0.9825348 0.0031097252
vn 0.18605305 -0.9825348 0.0031097252
vn -0.9276524 -0.23996675 -0.28614148
vn -0.9276524 -0.23996675 -0.28614148
vn -0.9276524 -0.23996675 -0.28614148
vn -0.9276524 -0.23996675 -0.28614148
vn 0.2816441 0.024477212 0.9592067
vn 0.2816441 0.024477212 0.9592067
vn 0.2816441 0.024477212 0.9592067
vn 0.2816441 0.024477212 0.9592067
vn 0.98024017 0.19663358 0.021548662
vn 0.98024017 0.19663358 0.021548662
vn 0.98024017 0.19663358 0.021548662
vn 0.98024017 0.19663358 0.021548662
vn 0.99047124 0.1364897 -0.018367
vn 0.99047124 0.1364897 -0.018367
vn 0.99047124 0.1364897 -0.018367
vn 0.99047124 0.1364897 -0.018367
vn 0.007041192 -0.04863016 -0.9987921
vn 0.007041192 -0.04863016 -0.9987921
vn 0.007041192 -0.04863016 -0.9987921
vn 0.007041192 -0.04863016 -0.9987921
vn 0.044625636 -0.06082551 -0.99715036
vn 0.044625636 -0.06082551 -0.99715036
vn 0.38499376 -0.02836421 -0.92248327
vn 0.38499376 -0.02836421 -0.92248327
vn 0.38499376 -0.02836421 -0.92248327
vn 0.38499376 -0.02836421 -0.92248327
vn 0.015499351 -0.0371773 0.9991885
vn 0.015499351 -0.0371773 0.9991885
vn 0.015499351 -0.0371773 0.9991885
vn 0.015499351 -0.0371773 0.9991885
vn 0.0024732347 -0.05817351 0.9983034
vn 0.0024732347 -0.05817351 0.9983034
vn -0.9714163 -0.23695858 -0.0141793955
vn -0.9714163 -0.23695858 -0.0141793955
vn -0.9714163 -0.23695858 -0.0141793955
vn -0.9714163 -0.23695858 -0.0141793955
g Hatch 3.L_0
f 3/3/3 2/2/2 1/1/1
f 6/6/6 5/5/5 4/4/4
f 7/7/7 6/6/6 4/4/4
f 7/7/7 9/9/9 8/8/8
f 10/10/10 7/7/7 8/8/8
f 13/13/13 12/12/12 11/11/11
f 12/12/12 14/14/14 11/11/11
f 14/14/14 15/15/15 11/11/11
f 14/14/14 12/12/12 16/16/16
f 17/17/17 14/14/14 16/16/16
f 20/20/20 19/19/19 18/18/18
f 21/21/21 20/20/20 18/18/18
f 22/22/22 21/21/21 18/18/18
f 23/23/23 22/22/22 18/18/18
f 24/24/24 22/22/22 23/23/23
f 21/21/21 25/25/25 20/20/20
f 21/21/21 22/22/22 25/25/25
f 25/25/25 26/26/26 20/20/20
f 22/22/22 27/27/27 25/25/25
f 27/27/27 22/22/22 24/24/24
f 28/28/28 27/27/27 24/24/24
f 30/30/30 29/29/29 26/26/26
f 29/29/29 31/31/31 26/26/26
f 29/29/29 32/32/32 31/31/31
f 32/32/32 33/33/33 31/31/31
f 36/36/36 35/35/35 34/34/34
f 37/37/37 36/36/36 34/34/34
f 38/38/38 37/37/37 34/34/34
f 39/39/39 38/38/38 34/34/34
f 34/34/34 41/41/41 40/40/40
f 43/43/43 41/41/41 42/42/42
f 44/44/44 43/43/43 42/42/42
f 47/47/47 46/46/46 45/45/45
f 46/46/46 48/48/48 45/45/45
f 45/45/45 48/48/48 49/49/49
f 48/48/48 50/50/50 49/49/49
f 49/49/49 50/50/50 51/51/51
f 50/50/50 52/52/52 51/51/51
f 55/55/55 54/54/54 53/53/53
f 56/56/56 55/55/55 53/53/53
f 58/58/58 57/57/57 56/56/56
f 59/59/59 58/58/58 56/56/56
f 61/61/61 60/60/60 59/59/59
f 60/60/60 62/62/62 59/59/59
f 62/62/62 63/63/63 59/59/59
f 63/63/63 64/64/64 59/59/59
f 67/67/67 66/66/66 65/65/65
f 68/68/68 67/67/67 65/65/65
f 71/71/71 70/70/70 69/69/69
f 72/72/72 71/71/71 69/69/69
f 75/75/75 74/74/74 73/73/73
f 74/74/74 76/76/76 73/73/73
f 76/76/76 77/77/77 73/73/73
f 77/77/77 78/78/78 73/73/73
f 78/78/78 77/77/77 79/79/79
f 77/77/77 80/80/80 79/79/79
f 83/83/83 82/82/82 81/81/81
f 84/84/84 83/83/83 81/81/81
f 85/85/85 84/84/84 81/81/81
f 86/86/86 85/85/85 81/81/81
f 89/89/89 88/88/88 87/87/87
f 90/90/90 89/89/89 87/87/87
f 93/93/93 92/92/92 91/91/91
f 94/94/94 93/93/93 91/91/91
f 95/95/95 93/93/93 94/94/94
f 96/96/96 95/95/95 94/94/94
f 99/99/99 98/98/98 97/97/97
f 100/100/100 99/99/99 97/97/97
