g Hatch 2.L
v -0.024585843 0.024161868 -0.17349756
v -0.06543931 0.043144777 -0.1604526
v -0.0533036 0.038807526 -0.17009997
v -0.054643657 0.034087077 -0.16914034
v -0.06618169 0.03823556 -0.15986262
v -0.027137816 0.019962661 -0.17257357
v 0.028529882 -0.06714154 -0.0019147396
v 0.039842427 -0.07559683 0.15772891
v 0.03722143 -0.002857305 0.16170852
v 0.02336973 0.004034929 0.002728939
v -0.024585843 0.024161868 -0.17349756
v -0.0006354451 0.002998434 -0.17574428
v 0.02336973 0.004034929 0.002728939
v -0.0038939714 0.02978544 0.005116701
v -0.0038939714 0.02978544 0.005116701
v -0.054815914 0.05018367 0.009349585
v -0.06543931 0.043144777 -0.1604526
v -0.024585843 0.024161868 -0.17349756
v 0.0112425685 -0.057691 -0.18094085
v 0.028529882 -0.06714154 -0.0019147396
v 0.02336973 0.004034929 0.002728939
v -0.0006354451 0.002998434 -0.17574428
v -0.0038939714 0.02978544 0.005116701
v 0.007696986 0.02646868 0.16508971
v -0.044424772 0.04685761 0.16944282
v -0.054815914 0.05018367 0.009349585
v -0.0038939714 0.02978544 0.005116701
v 0.02336973 0.004034929 0.002728939
v 0.03722143 -0.002857305 0.16170852
v 0.007696986 0.02646868 0.16508971
v 0.019067526 0.0015177652 0.0031214952
v 0.03280127 -0.005184941 0.16191578
v 0.034873724 -0.075159036 0.15807496
v 0.02356255 -0.06676708 -0.0014846325
v -0.004555404 -5.491078E-06 -0.17496358
v -0.027137816 0.019962661 -0.17257357
v -0.0067353845 0.025679633 0.0053771734
v 0.019067526 0.0015177652 0.0031214952
v -0.027137816 0.019962661 -0.17257357
v -0.06618169 0.03823556 -0.15986262
v -0.055519223 0.04523404 0.009428263
v -0.0067353845 0.025679633 0.0053771734
v 0.02356255 -0.06676708 -0.0014846325
v 0.006285429 -0.05733775 -0.18039167
v -0.004555404 -5.491078E-06 -0.17496358
v 0.019067526 0.0015177652 0.0031214952
v -0.0006354451 0.002998434 -0.17574428
v -0.004555404 -5.491078E-06 -0.17496358
v 0.006285429 -0.05733775 -0.18039167
v 0.0112425685 -0.057691 -0.18094085
v -0.0067353845 0.025679633 0.0053771734
v -0.055519223 0.04523404 0.009428263
v -0.045313176 0.041938648 0.16932869
v 0.0048431754 0.022363357 0.1651303
v 0.019067526 0.0015177652 0.0031214952
v -0.0067353845 0.025679633 0.0053771734
v 0.0048431754 0.022363357 0.1651303
v 0.03280127 -0.005184941 0.16191578
v -0.054815914 0.05018367 0.009349585
v -0.06618169 0.03823556 -0.15986262
v -0.06543931 0.043144777 -0.1604526
v -0.055519223 0.04523404 0.009428263
v -0.044424772 0.04685761 0.16944282
v -0.045313176 0.041938648 0.16932869
v 0.0112425685 -0.057691 -0.18094085
v 0.006285429 -0.05733775 -0.18039167
v 0.02356255 -0.06676708 -0.0014846325
v 0.028529882 -0.06714154 -0.0019147396
v 0.034873724 -0.075159036 0.15807496
v 0.039842427 -0.07559683 0.15772891
v -0.024585843 0.024161868 -0.17349756
v -0.027137816 0.019962661 -0.17257357
v -0.004555404 -5.491078E-06 -0.17496358
v -0.0006354451 0.002998434 -0.17574428
v -0.0533036 0.038807526 -0.17009997
v -0.054643657 0.034087077 -0.16914034
v -0.027137816 0.019962661 -0.17257357
v -0.024585843 0.024161868 -0.17349756
v -0.06543931 0.043144777 -0.1604526
v -0.06618169 0.03823556 -0.15986262
v -0.054643657 0.034087077 -0.16914034
v -0.0533036 0.038807526 -0.17009997
v 0.039842427 -0.07559683 0.15772891
v 0.034873724 -0.075159036 0.15807496
v 0.03280127 -0.005184941 0.16191578
v 0.03722143 -0.002857305 0.16170852
v 0.03722143 -0.002857305 0.16170852
v 0.03280127 -0.005184941 0.16191578
v 0.0048431754 0.022363357 0.1651303
v 0.007696986 0.02646868 0.16508971
v 0.007696986 0.02646868 0.16508971
v 0.0048431754 0.022363357 0.1651303
v -0.045313176 0.041938648 0.16932869
v -0.044424772 0.04685761 0.16944282
vt 0.44213766 0.8489567
vt 0.4324948 0.8567971
vt 0.43654767 0.8554047
vt 0.48373243 0.80504555
vt 0.4839191 0.8016483
vt 0.47944894 0.81203413
vt 0.42602915 0.79759395
vt 0.39648214 0.7691158
vt 0.3828311 0.782261
vt 0.4128296 0.8109316
vt 0.44213766 0.8489567
vt 0.44763738 0.8425257
vt 0.4128296 0.8109316
vt 0.40641695 0.8182834
vt 0.40641695 0.8182834
vt 0.39692324 0.82923305
vt 0.4324948 0.8567971
vt 0.44213766 0.8489567
vt 0.45945677 0.83087313
vt 0.42602915 0.79759395
vt 0.4128296 0.8109316
vt 0.44763738 0.8425257
vt 0.40641695 0.8182834
vt 0.37520078 0.7902347
vt 0.36511967 0.80121785
vt 0.39692324 0.82923305
vt 0.40641695 0.8182834
vt 0.4128296 0.8109316
vt 0.3828311 0.782261
vt 0.37520078 0.7902347
vt 0.43950775 0.78345084
vt 0.40774962 0.75223315
vt 0.3978752 0.7688351
vt 0.42694223 0.7966509
vt 0.4737086 0.81921667
vt 0.47944894 0.81203413
vt 0.44641337 0.77716535
vt 0.43950775 0.78345084
vt 0.47944894 0.81203413
vt 0.4839191 0.8016483
vt 0.4568346 0.76782286
vt 0.44641337 0.77716535
vt 0.42694223 0.7966509
vt 0.4597201 0.8293366
vt 0.4737086 0.81921667
vt 0.43950775 0.78345084
vt 0.47482836 0.8202168
vt 0.4737086 0.81921667
vt 0.4597201 0.8293366
vt 0.45945677 0.83087313
vt 0.44641337 0.77716535
vt 0.4568346 0.76782286
vt 0.42999053 0.7373575
vt 0.4172816 0.74433804
vt 0.43950775 0.78345084
vt 0.44641337 0.77716535
vt 0.4172816 0.74433804
vt 0.40774962 0.75223315
vt 0.4578397 0.7669641
vt 0.4839191 0.8016483
vt 0.48505506 0.80128217
vt 0.4568346 0.76782286
vt 0.43033454 0.7359522
vt 0.42999053 0.7373575
vt 0.45945677 0.83087313
vt 0.4597201 0.8293366
vt 0.42694223 0.7966509
vt 0.42602915 0.79759395
vt 0.3978752 0.7688351
vt 0.39648214 0.7691158
vt 0.48061347 0.81277716
vt 0.47944894 0.81203413
vt 0.4737086 0.81921667
vt 0.47482836 0.8202168
vt 0.48505506 0.80533105
vt 0.48373243 0.80504555
vt 0.47944894 0.81203413
vt 0.48061347 0.81277716
vt 0.48505506 0.80128217
vt 0.4839191 0.8016483
vt 0.48373243 0.80504555
vt 0.48505506 0.80533105
vt 0.39648214 0.7691158
vt 0.3978752 0.7688351
vt 0.40774962 0.75223315
vt 0.40666372 0.75120723
vt 0.40666372 0.75120723
vt 0.40774962 0.75223315
vt 0.4172816 0.74433804
vt 0.41646224 0.7432032
vt 0.41646224 0.7432032
vt 0.4172816 0.74433804
vt 0.42999053 0.7373575
vt 0.43033454 0.7359522
vn 0.46380505 0.8642346 0.19489318
vn 0.46380505 0.8642346 0.19489318
vn 0.46380505 0.8642346 0.19489318
vn -0.46718383 -0.86229 -0.19543606
vn -0.46718383 -0.86229 -0.19543606
vn -0.46718383 -0.86229 -0.19543606
vn 0.99541336 0.058361437 -0.075804666
vn 0.99541336 0.058361437 -0.075804666
vn 0.99541336 0.058361437 -0.075804666
vn 0.99541336 0.058361437 -0.075804666
vn 0.667463 0.7382565 -0.09731638
vn 0.667463 0.7382565 -0.09731638
vn 0.667463 0.7382565 -0.09731638
vn 0.667463 0.7382565 -0.09731638
vn 0.38260424 0.9214157 -0.067874946
vn 0.38260424 0.9214157 -0.067874946
vn 0.38260424 0.9214157 -0.067874946
vn 0.38260424 0.9214157 -0.067874946
vn 0.98459667 0.13546659 -0.1105362
vn 0.98459667 0.13546659 -0.1105362
vn 0.98459667 0.13546659 -0.1105362
vn 0.98459667 0.13546659 -0.1105362
vn 0.36760592 0.92996264 -0.005946204
vn 0.36760592 0.92996264 -0.005946204
vn 0.36760592 0.92996264 -0.005946204
vn 0.36760592 0.92996264 -0.005946204
vn 0.6941456 0.71910703 -0.032354504
vn 0.6941456 0.71910703 -0.032354504
vn 0.6941456 0.71910703 -0.032354504
vn 0.6941456 0.71910703 -0.032354504
vn -0.9957639 -0.051935613 0.075874284
vn -0.9957639 -0.051935613 0.075874284
vn -0.9957639 -0.051935613 0.075874284
vn -0.9957639 -0.051935613 0.075874284
vn -0.66555154 -0.7399762 0.09734623
vn -0.66555154 -0.7399762 0.09734623
vn -0.66555154 -0.7399762 0.09734623
vn -0.66555154 -0.7399762 0.09734623
vn -0.3836695 -0.92095995 0.068047926
vn -0.3836695 -0.92095995 0.068047926
vn -0.3836695 -0.92095995 0.068047926
vn -0.3836695 -0.92095995 0.068047926
vn -0.9855055 -0.1291052 0.110048674
vn -0.9855055 -0.1291052 0.110048674
vn -0.9855055 -0.1291052 0.110048674
vn -0.9855055 -0.1291052 0.110048674
vn -0.16453639 0.056975048 -0.98472416
vn -0.16453639 0.056975048 -0.98472416
vn -0.16453639 0.056975048 -0.98472416
vn -0.16453639 0.056975048 -0.98472416
vn -0.36734685 -0.93006593 0.005797588
vn -0.36734685 -0.93006593 0.005797588
vn -0.36734685 -0.93006593 0.005797588
vn -0.36734685 -0.93006593 0.005797588
vn -0.69116217 -0.7219814 0.03221305
vn -0.69116217 -0.7219814 0.03221305
vn -0.69116217 -0.7219814 0.03221305
vn -0.69116217 -0.7219814 0.03221305
vn -0.98732543 0.14856565 0.055827156
vn -0.98732543 0.14856565 0.055827156
vn -0.98732543 0.14856565 0.055827156
vn -0.98732543 0.14856565 0.055827156
vn -0.9850809 0.15864478 0.066689946
vn -0.9850809 0.15864478 0.066689946
vn -0.07747545 -0.9959758 -0.045053158
vn -0.07747545 -0.9959758 -0.045053158
vn -0.07747545 -0.9959758 -0.045053158
vn -0.07747545 -0.9959758 -0.045053158
vn -0.0849972 -0.9952952 -0.046506546
vn -0.0849972 -0.9952952 -0.046506546
vn -0.169084 -0.080549225 -0.9823047
vn -0.169084 -0.080549225 -0.9823047
vn -0.169084 -0.080549225 -0.9823047
vn -0.169084 -0.080549225 -0.9823047
vn -0.18296424 -0.1260637 -0.9750036
vn -0.18296424 -0.1260637 -0.9750036
vn -0.18296424 -0.1260637 -0.9750036
vn -0.18296424 -0.1260637 -0.9750036
vn -0.62249064 0.008683117 -0.78257906
vn -0.62249064 0.008683117 -0.78257906
vn -0.62249064 0.008683117 -0.78257906
vn -0.62249064 0.008683117 -0.78257906
vn 0.06924029 -0.0523142 0.9962274
vn 0.06924029 -0.0523142 0.9962274
vn 0.06924029 -0.0523142 0.9962274
vn 0.06924029 -0.0523142 0.9962274
vn 0.071893066 -0.042900924 0.9964893
vn 0.071893066 -0.042900924 0.9964893
vn 0.071893066 -0.042900924 0.9964893
vn 0.071893066 -0.042900924 0.9964893
vn 0.06899907 -0.036739253 0.99694
vn 0.06899907 -0.036739253 0.99694
vn 0.06899907 -0.036739253 0.99694
vn 0.06899907 -0.036739253 0.99694
g Hatch 2.L_0
f 3/3/3 2/2/2 1/1/1
f 6/6/6 5/5/5 4/4/4
f 9/9/9 8/8/8 7/7/7
f 10/10/10 9/9/9 7/7/7
f 13/13/13 12/12/12 11/11/11
f 14/14/14 13/13/13 11/11/11
f 17/17/17 16/16/16 15/15/15
f 18/18/18 17/17/17 15/15/15
f 21/21/21 20/20/20 19/19/19
f 22/22/22 21/21/21 19/19/19
f 25/25/25 24/24/24 23/23/23
f 26/26/26 25/25/25 23/23/23
f 29/29/29 28/28/28 27/27/27
f 30/30/30 29/29/29 27/27/27
f 33/33/33 32/32/32 31/31/31
f 34/34/34 33/33/33 31/31/31
f 37/37/37 36/36/36 35/35/35
f 38/38/38 37/37/37 35/35/35
f 41/41/41 40/40/40 39/39/39
f 42/42/42 41/41/41 39/39/39
f 45/45/45 44/44/44 43/43/43
f 46/46/46 45/45/45 43/43/43
f 49/49/49 48/48/48 47/47/47
f 50/50/50 49/49/49 47/47/47
f 53/53/53 52/52/52 51/51/51
f 54/54/54 53/53/53 51/51/51
f 57/57/57 56/56/56 55/55/55
f 58/58/58 57/57/57 55/55/55
f 61/61/61 60/60/60 59/59/59
f 60/60/60 62/62/62 59/59/59
f 59/59/59 62/62/62 63/63/63
f 62/62/62 64/64/64 63/63/63
f 67/67/67 66/66/66 65/65/65
f 68/68/68 67/67/67 65/65/65
f 69/69/69 67/67/67 68/68/68
f 70/70/70 69/69/69 68/68/68
f 73/73/73 72/72/72 71/71/71
f 74/74/74 73/73/73 71/71/71
f 77/77/77 76/76/76 75/75/75
f 78/78/78 77/77/77 75/75/75
f 81/81/81 80/80/80 79/79/79
f 82/82/82 81/81/81 79/79/79
f 85/85/85 84/84/84 83/83/83
f 86/86/86 85/85/85 83/83/83
f 89/89/89 88/88/88 87/87/87
f 90/90/90 89/89/89 87/87/87
f 93/93/93 92/92/92 91/91/91
f 94/94/94 93/93/93 91/91/91
