g IceBrick7
v 0.023195386 0.26121277 0.34111604
v 0.0045062304 0.23477358 0.3713251
v -0.014893651 0.24118108 0.33423576
v -0.32675898 -0.22437626 0.39256302
v -0.34206855 -0.26121277 0.36496475
v -0.3443848 -0.20093185 0.3305442
v 0.16965806 0.2338031 -0.24233034
v 0.17103148 0.26121277 -0.20781472
v 0.13408971 0.24137801 -0.21993497
v -0.14474022 -0.26121265 -0.36264756
v -0.12536132 -0.22500998 -0.3937352
v -0.17795789 -0.20525962 -0.35100177
v 0.31115842 0.2298823 -0.17532864
v 0.3443848 0.22653764 -0.1401864
v 0.3250544 0.26121277 -0.14262
v 0.20788634 0.22686166 0.35650334
v 0.16155517 0.23128301 0.37103876
v 0.18945515 0.26121277 0.34794804
v 0.09978449 -0.24095899 -0.27299765
v 0.07733822 -0.2308647 -0.30769268
v 0.06241107 -0.26121265 -0.28479615
v -0.10544431 -0.23056704 0.3937352
v -0.068275094 -0.24065942 0.37357435
v -0.10700309 -0.2612123 0.36733308
v 0.023195386 0.26121277 0.34111604
v 0.18945515 0.26121277 0.34794804
v 0.16155517 0.23128301 0.37103876
v 0.0045062304 0.23477358 0.3713251
v -0.014893651 0.24118108 0.33423576
v 0.13408971 0.24137801 -0.21993497
v 0.17103148 0.26121277 -0.20781472
v 0.023195386 0.26121277 0.34111604
v 0.0045062304 0.23477358 0.3713251
v -0.32675898 -0.22437626 0.39256302
v -0.3443848 -0.20093185 0.3305442
v -0.014893651 0.24118108 0.33423576
v -0.32675898 -0.22437626 0.39256302
v -0.10544431 -0.23056704 0.3937352
v -0.10700309 -0.2612123 0.36733308
v -0.34206855 -0.26121277 0.36496475
v -0.34206855 -0.26121277 0.36496475
v -0.14474022 -0.26121265 -0.36264756
v -0.17795789 -0.20525962 -0.35100177
v -0.3443848 -0.20093185 0.3305442
v 0.16965806 0.2338031 -0.24233034
v 0.31115842 0.2298823 -0.17532864
v 0.3250544 0.26121277 -0.14262
v 0.17103148 0.26121277 -0.20781472
v 0.13408971 0.24137801 -0.21993497
v -0.17795789 -0.20525962 -0.35100177
v -0.12536132 -0.22500998 -0.3937352
v 0.16965806 0.2338031 -0.24233034
v -0.14474022 -0.26121265 -0.36264756
v 0.06241107 -0.26121265 -0.28479615
v 0.07733822 -0.2308647 -0.30769268
v -0.12536132 -0.22500998 -0.3937352
v 0.31115842 0.2298823 -0.17532864
v 0.07733822 -0.2308647 -0.30769268
v 0.09978449 -0.24095899 -0.27299765
v 0.3443848 0.22653764 -0.1401864
v 0.3443848 0.22653764 -0.1401864
v 0.20788634 0.22686166 0.35650334
v 0.18945515 0.26121277 0.34794804
v 0.3250544 0.26121277 -0.14262
v 0.20788634 0.22686166 0.35650334
v -0.068275094 -0.24065942 0.37357435
v -0.10544431 -0.23056704 0.3937352
v 0.16155517 0.23128301 0.37103876
v 0.06241107 -0.26121265 -0.28479615
v -0.10700309 -0.2612123 0.36733308
v -0.068275094 -0.24065942 0.37357435
v 0.09978449 -0.24095899 -0.27299765
v -0.17795789 -0.20525962 -0.35100177
v 0.13408971 0.24137801 -0.21993497
v -0.014893651 0.24118108 0.33423576
v -0.3443848 -0.20093185 0.3305442
v 0.17103148 0.26121277 -0.20781472
v 0.3250544 0.26121277 -0.14262
v 0.18945515 0.26121277 0.34794804
v 0.023195386 0.26121277 0.34111604
v -0.34206855 -0.26121277 0.36496475
v -0.10700309 -0.2612123 0.36733308
v 0.06241107 -0.26121265 -0.28479615
v -0.14474022 -0.26121265 -0.36264756
v 0.3443848 0.22653764 -0.1401864
v 0.09978449 -0.24095899 -0.27299765
v -0.068275094 -0.24065942 0.37357435
v 0.20788634 0.22686166 0.35650334
v -0.12536132 -0.22500998 -0.3937352
v 0.07733822 -0.2308647 -0.30769268
v 0.31115842 0.2298823 -0.17532864
v 0.16965806 0.2338031 -0.24233034
v 0.0045062304 0.23477358 0.3713251
v 0.16155517 0.23128301 0.37103876
v -0.10544431 -0.23056704 0.3937352
v -0.32675898 -0.22437626 0.39256302
vt 0.86372983 0.37210837
vt 0.8608367 0.40810803
vt 0.8865483 0.26548344
vt 0.30994254 0.4261835
vt 0.28149173 0.44590917
vt 0.40603656 0.25887012
vt 0.36329925 0.44488797
vt 0.35470122 0.40402883
vt 0.43004906 0.30207282
vt 0.8544201 0.4853558
vt 0.8545622 0.47073266
vt 0.84060633 0.30644634
vt 0.16179797 0.81816906
vt 0.11063892 1
vt 0.123022065 0.8147788
vt 0.9693252 1
vt 0.9138724 0.80715096
vt 0.93154156 0.8069099
vt 0.9912464 1
vt 0.9398198 0.8442697
vt 0.93872195 0.8983343
vt 0.11128988 0.8320096
vt 0.07910267 1
vt 0.07219107 0.8926178
vt 0.86372983 0.37210837
vt 0.93154156 0.8069099
vt 0.9138724 0.80715096
vt 0.8608367 0.40810803
vt 0.8865483 0.26548344
vt 0.43004906 0.30207282
vt 0.35470122 0.40402883
vt 0.86372983 0.37210837
vt 0.8608367 0.40810803
vt 0.30994254 0.4261835
vt 0.40603656 0.25887012
vt 0.8865483 0.26548344
vt 0.30994254 0.4261835
vt 0.11128988 0.8320096
vt 0.07219107 0.8926178
vt 0.28149173 0.44590917
vt 0.28149173 0.44590917
vt 0.8544201 0.4853558
vt 0.84060633 0.30644634
vt 0.40603656 0.25887012
vt 0.36329925 0.44488797
vt 0.16179797 0.81816906
vt 0.123022065 0.8147788
vt 0.35470122 0.40402883
vt 0.43004906 0.30207282
vt 0.84060633 0.30644634
vt 0.8545622 0.47073266
vt 0.36329925 0.44488797
vt 0.8544201 0.4853558
vt 0.93872195 0.8983343
vt 0.9398198 0.8442697
vt 0.8545622 0.47073266
vt 0.16179797 0.81816906
vt 0.9398198 0.8442697
vt 0.9912464 1
vt 0.11063892 1
vt 0.11063892 1
vt 0.9693252 1
vt 0.93154156 0.8069099
vt 0.123022065 0.8147788
vt 0.9693252 1
vt 0.07910267 1
vt 0.11128988 0.8320096
vt 0.9138724 0.80715096
vt 0.93872195 0.8983343
vt 0.07219107 0.8926178
vt 0.07910267 1
vt 0.9912464 1
vt 0.84060633 0.30644634
vt 0.43004906 0.30207282
vt 0.8865483 0.26548344
vt 0.40603656 0.25887012
vt 0.35470122 0.40402883
vt 0.123022065 0.8147788
vt 0.93154156 0.8069099
vt 0.86372983 0.37210837
vt 0.28149173 0.44590917
vt 0.07219107 0.8926178
vt 0.93872195 0.8983343
vt 0.8544201 0.4853558
vt 0.11063892 1
vt 0.9912464 1
vt 0.07910267 1
vt 0.9693252 1
vt 0.8545622 0.47073266
vt 0.9398198 0.8442697
vt 0.16179797 0.81816906
vt 0.36329925 0.44488797
vt 0.8608367 0.40810803
vt 0.9138724 0.80715096
vt 0.11128988 0.8320096
vt 0.30994254 0.4261835
vn -0.48292193 0.7849122 0.3882
vn -0.48292193 0.7849122 0.38819999
vn -0.48292193 0.7849122 0.38819999
vn -0.9352654 0.14772369 0.32164633
vn -0.9352654 0.14772369 0.3216463
vn -0.9352654 0.1477237 0.32164633
vn -0.2153173 0.76888925 -0.60203636
vn -0.21531731 0.76888925 -0.60203636
vn -0.21531731 0.76888925 -0.60203636
vn -0.66529596 -0.24843474 -0.7040323
vn -0.66529596 -0.24843478 -0.7040323
vn -0.665296 -0.24843477 -0.7040323
vn 0.69815356 0.34517908 -0.6272424
vn 0.6981536 0.34517905 -0.6272424
vn 0.69815356 0.34517905 -0.6272424
vn 0.30959904 0.38288417 0.8703725
vn 0.30959907 0.38288417 0.8703725
vn 0.30959907 0.3828842 0.8703725
vn 0.52696073 -0.6616471 -0.53341866
vn 0.52696073 -0.66164714 -0.5334187
vn 0.5269607 -0.661647 -0.53341866
vn 0.2230005 -0.64275813 0.7328934
vn 0.22300047 -0.64275813 0.73289335
vn 0.2230005 -0.64275813 0.73289335
vn -0.00719891 0.69016576 0.72361547
vn -0.007198911 0.6901658 0.72361547
vn -0.007198911 0.6901658 0.72361547
vn -0.00719891 0.6901658 0.72361547
vn -0.44225204 0.8889824 -0.118841685
vn -0.442252 0.8889824 -0.118841685
vn -0.44225198 0.8889824 -0.1188417
vn -0.44225204 0.8889824 -0.118841715
vn -0.72315496 0.5385955 0.43239066
vn -0.7231551 0.53859556 0.4323907
vn -0.72315496 0.5385955 0.43239066
vn -0.72315496 0.5385955 0.43239066
vn -0.014514061 -0.6225199 0.7824694
vn -0.014514059 -0.6225198 0.7824694
vn -0.014514061 -0.62251985 0.7824694
vn -0.014514061 -0.6225199 0.7824694
vn -0.9155991 -0.3260213 -0.23534779
vn -0.9155991 -0.3260213 -0.23534779
vn -0.9155991 -0.32602134 -0.23534778
vn -0.9155991 -0.32602134 -0.23534778
vn 0.30644703 0.68122256 -0.6648504
vn 0.306447 0.6812225 -0.6648504
vn 0.306447 0.68122256 -0.66485035
vn 0.30644706 0.68122256 -0.6648504
vn -0.40422812 0.5082541 -0.7604455
vn -0.40422812 0.50825405 -0.7604455
vn -0.40422812 0.50825405 -0.7604455
vn -0.40422812 0.5082541 -0.7604455
vn 0.26176262 -0.68579656 -0.6790901
vn 0.26176265 -0.68579656 -0.67909014
vn 0.26176262 -0.68579656 -0.6790901
vn 0.26176262 -0.68579656 -0.6790901
vn 0.7461322 -0.20345576 -0.63395
vn 0.7461322 -0.20345578 -0.63395
vn 0.7461322 -0.2034558 -0.63395005
vn 0.7461322 -0.20345578 -0.63394994
vn 0.8377005 0.495003 0.23071629
vn 0.8377005 0.495003 0.23071629
vn 0.8377005 0.495003 0.23071629
vn 0.8377004 0.495003 0.23071629
vn 0.3533989 -0.1671559 0.9204173
vn 0.35339895 -0.1671559 0.9204173
vn 0.3533989 -0.1671559 0.9204173
vn 0.35339892 -0.16715589 0.9204173
vn 0.44774154 -0.88653445 0.116551414
vn 0.44774148 -0.88653445 0.1165514
vn 0.44774142 -0.88653445 0.1165514
vn 0.44774148 -0.88653445 0.1165514
vn -0.77956945 0.5931988 -0.20096397
vn -0.77956957 0.5931988 -0.200964
vn -0.77956957 0.5931988 -0.20096399
vn -0.77956957 0.5931988 -0.20096399
vn -0 1 0
vn -0 1 0
vn -0 1 0
vn -0 1 0
vn -0 -1 0
vn -0 -1 0
vn -0 -1 0
vn -0 -1 0
vn 0.8394176 -0.49523038 0.2238859
vn 0.8394176 -0.49523038 0.2238859
vn 0.8394176 -0.49523044 0.22388592
vn 0.8394176 -0.49523038 0.2238859
vn 0.4069533 0.04746337 -0.912215
vn 0.4069533 0.047463365 -0.912215
vn 0.4069533 0.047463365 -0.912215
vn 0.4069533 0.047463365 -0.912215
vn -0.0011010462 0.048362277 0.9988293
vn -0.0011010462 0.048362277 0.9988293
vn -0.0011010462 0.04836228 0.9988293
vn -0.0011010461 0.048362277 0.9988293
g IceBrick7_0
f 3/3/3 2/2/2 1/1/1
f 6/6/6 5/5/5 4/4/4
f 9/9/9 8/8/8 7/7/7
f 12/12/12 11/11/11 10/10/10
f 15/15/15 14/14/14 13/13/13
f 18/18/18 17/17/17 16/16/16
f 21/21/21 20/20/20 19/19/19
f 24/24/24 23/23/23 22/22/22
f 27/27/27 26/26/26 25/25/25
f 28/28/28 27/27/27 25/25/25
f 31/31/31 30/30/30 29/29/29
f 32/32/32 31/31/31 29/29/29
f 35/35/35 34/34/34 33/33/33
f 36/36/36 35/35/35 33/33/33
f 39/39/39 38/38/38 37/37/37
f 40/40/40 39/39/39 37/37/37
f 43/43/43 42/42/42 41/41/41
f 44/44/44 43/43/43 41/41/41
f 47/47/47 46/46/46 45/45/45
f 48/48/48 47/47/47 45/45/45
f 51/51/51 50/50/50 49/49/49
f 52/52/52 51/51/51 49/49/49
f 55/55/55 54/54/54 53/53/53
f 56/56/56 55/55/55 53/53/53
f 59/59/59 58/58/58 57/57/57
f 60/60/60 59/59/59 57/57/57
f 63/63/63 62/62/62 61/61/61
f 64/64/64 63/63/63 61/61/61
f 67/67/67 66/66/66 65/65/65
f 68/68/68 67/67/67 65/65/65
f 71/71/71 70/70/70 69/69/69
f 72/72/72 71/71/71 69/69/69
f 75/75/75 74/74/74 73/73/73
f 76/76/76 75/75/75 73/73/73
f 79/79/79 78/78/78 77/77/77
f 80/80/80 79/79/79 77/77/77
f 83/83/83 82/82/82 81/81/81
f 84/84/84 83/83/83 81/81/81
f 87/87/87 86/86/86 85/85/85
f 88/88/88 87/87/87 85/85/85
f 91/91/91 90/90/90 89/89/89
f 92/92/92 91/91/91 89/89/89
f 95/95/95 94/94/94 93/93/93
f 96/96/96 95/95/95 93/93/93
