g IceBrick6
v 0.17631102 0.26121277 0.18585196
v 0.17523026 0.23477358 0.22135839
v 0.13988471 0.24118108 0.19893804
v -0.10103512 -0.22437626 0.40538362
v -0.12809277 -0.26121277 0.3891376
v -0.14730883 -0.20093185 0.36048666
v 0.011428118 0.2338031 -0.39265874
v 0.029875278 0.26121277 -0.3634539
v -0.0081774 0.24137801 -0.35547963
v -0.3210075 -0.26121265 -0.33965734
v -0.31976867 -0.22500998 -0.37626937
v -0.3439517 -0.20525962 -0.31296292
v 0.16747189 0.2298823 -0.40538362
v 0.21381772 0.22653764 -0.39156285
v 0.19586039 0.26121277 -0.3840051
v 0.3439517 0.22686166 0.106832296
v 0.31109548 0.23128301 0.14258596
v 0.3237121 0.26121277 0.10863885
v -0.06441808 -0.24095899 -0.3842806
v -0.10120463 -0.2308647 -0.40310422
v -0.102683306 -0.26121265 -0.3758116
v 0.09121513 -0.23056704 0.2957414
v 0.113324404 -0.24065942 0.25969687
v 0.07666421 -0.2612123 0.27365592
v 0.17631102 0.26121277 0.18585196
v 0.3237121 0.26121277 0.10863885
v 0.31109548 0.23128301 0.14258596
v 0.17523026 0.23477358 0.22135839
v 0.13988471 0.24118108 0.19893804
v -0.0081774 0.24137801 -0.35547963
v 0.029875278 0.26121277 -0.3634539
v 0.17631102 0.26121277 0.18585196
v 0.17523026 0.23477358 0.22135839
v -0.10103512 -0.22437626 0.40538362
v -0.14730883 -0.20093185 0.36048666
v 0.13988471 0.24118108 0.19893804
v -0.10103512 -0.22437626 0.40538362
v 0.09121513 -0.23056704 0.2957414
v 0.07666421 -0.2612123 0.27365592
v -0.12809277 -0.26121277 0.3891376
v -0.12809277 -0.26121277 0.3891376
v -0.3210075 -0.26121265 -0.33965734
v -0.3439517 -0.20525962 -0.31296292
v -0.14730883 -0.20093185 0.36048666
v 0.011428118 0.2338031 -0.39265874
v 0.16747189 0.2298823 -0.40538362
v 0.19586039 0.26121277 -0.3840051
v 0.029875278 0.26121277 -0.3634539
v -0.0081774 0.24137801 -0.35547963
v -0.3439517 -0.20525962 -0.31296292
v -0.31976867 -0.22500998 -0.37626937
v 0.011428118 0.2338031 -0.39265874
v -0.3210075 -0.26121265 -0.33965734
v -0.102683306 -0.26121265 -0.3758116
v -0.10120463 -0.2308647 -0.40310422
v -0.31976867 -0.22500998 -0.37626937
v 0.16747189 0.2298823 -0.40538362
v -0.10120463 -0.2308647 -0.40310422
v -0.06441808 -0.24095899 -0.3842806
v 0.21381772 0.22653764 -0.39156285
v 0.21381772 0.22653764 -0.39156285
v 0.3439517 0.22686166 0.106832296
v 0.3237121 0.26121277 0.10863885
v 0.19586039 0.26121277 -0.3840051
v 0.3439517 0.22686166 0.106832296
v 0.113324404 -0.24065942 0.25969687
v 0.09121513 -0.23056704 0.2957414
v 0.31109548 0.23128301 0.14258596
v -0.102683306 -0.26121265 -0.3758116
v 0.07666421 -0.2612123 0.27365592
v 0.113324404 -0.24065942 0.25969687
v -0.06441808 -0.24095899 -0.3842806
v -0.3439517 -0.20525962 -0.31296292
v -0.0081774 0.24137801 -0.35547963
v 0.13988471 0.24118108 0.19893804
v -0.14730883 -0.20093185 0.36048666
v 0.029875278 0.26121277 -0.3634539
v 0.19586039 0.26121277 -0.3840051
v 0.3237121 0.26121277 0.10863885
v 0.17631102 0.26121277 0.18585196
v -0.12809277 -0.26121277 0.3891376
v 0.07666421 -0.2612123 0.27365592
v -0.102683306 -0.26121265 -0.3758116
v -0.3210075 -0.26121265 -0.33965734
v 0.21381772 0.22653764 -0.39156285
v -0.06441808 -0.24095899 -0.3842806
v 0.113324404 -0.24065942 0.25969687
v 0.3439517 0.22686166 0.106832296
v -0.31976867 -0.22500998 -0.37626937
v -0.10120463 -0.2308647 -0.40310422
v 0.16747189 0.2298823 -0.40538362
v 0.011428118 0.2338031 -0.39265874
v 0.17523026 0.23477358 0.22135839
v 0.31109548 0.23128301 0.14258596
v 0.09121513 -0.23056704 0.2957414
v -0.10103512 -0.22437626 0.40538362
vt 0.86372983 0.37210837
vt 0.8608367 0.40810803
vt 0.8865483 0.26548344
vt 0.30994254 0.4261835
vt 0.28149173 0.44590917
vt 0.40603656 0.25887012
vt 0.36329925 0.44488797
vt 0.35470122 0.40402883
vt 0.43004906 0.30207282
vt 0.8544201 0.4853558
vt 0.8545622 0.47073266
vt 0.84060633 0.30644634
vt 0.16179797 0.81816906
vt 0.11063892 1
vt 0.123022065 0.8147788
vt 0.9693252 1
vt 0.9138724 0.80715096
vt 0.93154156 0.8069099
vt 0.9912464 1
vt 0.9398198 0.8442697
vt 0.93872195 0.8983343
vt 0.11128988 0.8320096
vt 0.07910267 1
vt 0.07219107 0.8926178
vt 0.86372983 0.37210837
vt 0.93154156 0.8069099
vt 0.9138724 0.80715096
vt 0.8608367 0.40810803
vt 0.8865483 0.26548344
vt 0.43004906 0.30207282
vt 0.35470122 0.40402883
vt 0.86372983 0.37210837
vt 0.8608367 0.40810803
vt 0.30994254 0.4261835
vt 0.40603656 0.25887012
vt 0.8865483 0.26548344
vt 0.30994254 0.4261835
vt 0.11128988 0.8320096
vt 0.07219107 0.8926178
vt 0.28149173 0.44590917
vt 0.28149173 0.44590917
vt 0.8544201 0.4853558
vt 0.84060633 0.30644634
vt 0.40603656 0.25887012
vt 0.36329925 0.44488797
vt 0.16179797 0.81816906
vt 0.123022065 0.8147788
vt 0.35470122 0.40402883
vt 0.43004906 0.30207282
vt 0.84060633 0.30644634
vt 0.8545622 0.47073266
vt 0.36329925 0.44488797
vt 0.8544201 0.4853558
vt 0.93872195 0.8983343
vt 0.9398198 0.8442697
vt 0.8545622 0.47073266
vt 0.16179797 0.81816906
vt 0.9398198 0.8442697
vt 0.9912464 1
vt 0.11063892 1
vt 0.11063892 1
vt 0.9693252 1
vt 0.93154156 0.8069099
vt 0.123022065 0.8147788
vt 0.9693252 1
vt 0.07910267 1
vt 0.11128988 0.8320096
vt 0.9138724 0.80715096
vt 0.93872195 0.8983343
vt 0.07219107 0.8926178
vt 0.07910267 1
vt 0.9912464 1
vt 0.84060633 0.30644634
vt 0.43004906 0.30207282
vt 0.8865483 0.26548344
vt 0.40603656 0.25887012
vt 0.35470122 0.40402883
vt 0.123022065 0.8147788
vt 0.93154156 0.8069099
vt 0.86372983 0.37210837
vt 0.28149173 0.44590917
vt 0.07219107 0.8926178
vt 0.93872195 0.8983343
vt 0.8544201 0.4853558
vt 0.11063892 1
vt 0.9912464 1
vt 0.07910267 1
vt 0.9693252 1
vt 0.8545622 0.47073266
vt 0.9398198 0.8442697
vt 0.16179797 0.81816906
vt 0.36329925 0.44488797
vt 0.8608367 0.40810803
vt 0.9138724 0.80715096
vt 0.11128988 0.8320096
vt 0.30994254 0.4261835
vn -0.22412325 0.7849148 0.57764834
vn -0.22412322 0.78491473 0.57764834
vn -0.22412325 0.7849148 0.57764834
vn -0.6491412 0.1477258 0.7461855
vn -0.64914125 0.14772582 0.7461855
vn -0.64914125 0.14772584 0.7461855
vn -0.4874782 0.7688962 -0.41371918
vn -0.48747823 0.7688962 -0.41371918
vn -0.48747823 0.7688962 -0.41371924
vn -0.92818123 -0.24843079 -0.27705896
vn -0.92818123 -0.24843082 -0.27705896
vn -0.92818123 -0.24843082 -0.277059
vn 0.2909973 0.34517843 -0.8922849
vn 0.2909973 0.34517846 -0.8922849
vn 0.29099727 0.34517846 -0.8922849
vn 0.7033055 0.38288367 0.598967
vn 0.7033055 0.38288364 0.59896696
vn 0.7033055 0.38288367 0.598967
vn 0.18965092 -0.6616458 -0.725436
vn 0.18965092 -0.6616458 -0.725436
vn 0.18965088 -0.6616458 -0.725436
vn 0.5595701 -0.6427591 0.5232038
vn 0.55956995 -0.6427591 0.5232037
vn 0.5595701 -0.6427591 0.52320373
vn 0.35557327 0.6901677 0.63026667
vn 0.35557327 0.6901677 0.6302667
vn 0.3555733 0.69016767 0.6302667
vn 0.35557324 0.6901677 0.6302667
vn -0.44242206 0.88898253 0.11820638
vn -0.4424221 0.88898253 0.11820638
vn -0.44242206 0.88898253 0.1182064
vn -0.44242206 0.88898253 0.1182064
vn -0.4100749 0.5385963 0.73603845
vn -0.41007483 0.5385963 0.7360385
vn -0.41007483 0.5385963 0.7360385
vn -0.41007483 0.53859633 0.7360385
vn 0.37866485 -0.6225212 0.6848944
vn 0.3786648 -0.62252116 0.68489444
vn 0.37866485 -0.62252116 0.68489444
vn 0.37866485 -0.6225212 0.68489444
vn -0.910607 -0.326019 0.2539815
vn -0.910607 -0.32601893 0.2539815
vn -0.910607 -0.32601896 0.25398147
vn -0.910607 -0.326019 0.2539815
vn -0.067035705 0.68122256 -0.72900075
vn -0.0670357 0.68122256 -0.72900075
vn -0.0670357 0.68122256 -0.7290007
vn -0.0670357 0.6812226 -0.7290007
vn -0.73029584 0.5082534 -0.45644987
vn -0.73029584 0.5082534 -0.45644987
vn -0.73029584 0.50825346 -0.45644987
vn -0.7302959 0.5082534 -0.45644987
vn -0.11285195 -0.68579626 -0.71899086
vn -0.112851955 -0.68579626 -0.71899086
vn -0.11285197 -0.6857963 -0.71899086
vn -0.112851955 -0.68579626 -0.71899086
vn 0.32919335 -0.20345584 -0.92208326
vn 0.32919332 -0.20345584 -0.92208326
vn 0.32919335 -0.20345585 -0.92208326
vn 0.32919335 -0.20345585 -0.92208326
vn 0.84082735 0.49500412 -0.21904418
vn 0.84082735 0.49500424 -0.21904421
vn 0.84082735 0.49500418 -0.21904418
vn 0.84082735 0.49500412 -0.21904421
vn 0.7662607 -0.16715582 0.6204059
vn 0.76626074 -0.16715582 0.6204059
vn 0.7662607 -0.16715582 0.6204059
vn 0.7662607 -0.16715582 0.6204059
vn 0.44603333 -0.8865336 -0.12293285
vn 0.4460334 -0.8865336 -0.12293285
vn 0.44603333 -0.8865336 -0.12293285
vn 0.44603333 -0.8865336 -0.12293285
vn -0.7756092 0.5931986 0.21574475
vn -0.7756092 0.5931986 0.21574478
vn -0.7756092 0.59319866 0.21574475
vn -0.7756092 0.5931986 0.21574478
vn -0 1 0
vn -0 1 0
vn -0 1 0
vn -0 1 0
vn -0 -1 0
vn -0 -1 0
vn -0 -1 0
vn -0 -1 0
vn 0.8388998 -0.49523038 -0.22581843
vn 0.8388998 -0.49523038 -0.2258184
vn 0.8388998 -0.49523038 -0.22581843
vn 0.8388998 -0.49523038 -0.2258184
vn -0.10367576 0.047463246 -0.99347794
vn -0.10367576 0.047463246 -0.99347794
vn -0.10367576 0.047463246 -0.99347794
vn -0.10367577 0.04746325 -0.99347794
vn 0.49846092 0.048362132 0.8655622
vn 0.49846098 0.048362132 0.8655621
vn 0.49846092 0.048362132 0.8655622
vn 0.49846092 0.048362132 0.8655621
g IceBrick6_0
f 3/3/3 2/2/2 1/1/1
f 6/6/6 5/5/5 4/4/4
f 9/9/9 8/8/8 7/7/7
f 12/12/12 11/11/11 10/10/10
f 15/15/15 14/14/14 13/13/13
f 18/18/18 17/17/17 16/16/16
f 21/21/21 20/20/20 19/19/19
f 24/24/24 23/23/23 22/22/22
f 27/27/27 26/26/26 25/25/25
f 28/28/28 27/27/27 25/25/25
f 31/31/31 30/30/30 29/29/29
f 32/32/32 31/31/31 29/29/29
f 35/35/35 34/34/34 33/33/33
f 36/36/36 35/35/35 33/33/33
f 39/39/39 38/38/38 37/37/37
f 40/40/40 39/39/39 37/37/37
f 43/43/43 42/42/42 41/41/41
f 44/44/44 43/43/43 41/41/41
f 47/47/47 46/46/46 45/45/45
f 48/48/48 47/47/47 45/45/45
f 51/51/51 50/50/50 49/49/49
f 52/52/52 51/51/51 49/49/49
f 55/55/55 54/54/54 53/53/53
f 56/56/56 55/55/55 53/53/53
f 59/59/59 58/58/58 57/57/57
f 60/60/60 59/59/59 57/57/57
f 63/63/63 62/62/62 61/61/61
f 64/64/64 63/63/63 61/61/61
f 67/67/67 66/66/66 65/65/65
f 68/68/68 67/67/67 65/65/65
f 71/71/71 70/70/70 69/69/69
f 72/72/72 71/71/71 69/69/69
f 75/75/75 74/74/74 73/73/73
f 76/76/76 75/75/75 73/73/73
f 79/79/79 78/78/78 77/77/77
f 80/80/80 79/79/79 77/77/77
f 83/83/83 82/82/82 81/81/81
f 84/84/84 83/83/83 81/81/81
f 87/87/87 86/86/86 85/85/85
f 88/88/88 87/87/87 85/85/85
f 91/91/91 90/90/90 89/89/89
f 92/92/92 91/91/91 89/89/89
f 95/95/95 94/94/94 93/93/93
f 96/96/96 95/95/95 93/93/93
