g LIGHT_Plane
v 8.5061565E-08 -0.18957971 -0.5834662
v 8.5061565E-08 2.5708206E-07 7.70372E-34
v 8.5061565E-08 0.4963267 -0.36060196
v -1.5335702E-07 -0.6134927 7.70372E-34
v 8.5061565E-08 0.4963267 0.3606019
v 8.5061565E-08 -0.18957971 0.5834662
vt 0.26749367 0.483827
vt 0.2669735 0.48215866
vt 0.2656116 0.48321545
vt 0.2686569 0.482226
vt 0.2656116 0.48123652
vt 0.26749367 0.48062497
vn 1 0 0
vn 1 0 0
vn 1 0 0
vn 1 0 0
vn 1 0 0
vn 1 0 0
g LIGHT_Plane_0
f 3/3/3 2/2/2 1/1/1
f 1/1/1 2/2/2 4/4/4
f 5/5/5 2/2/2 3/3/3
f 4/4/4 2/2/2 6/6/6
f 6/6/6 2/2/2 5/5/5
