g Log3
v 2.6355245 0.2264409 0.0028563738
v 2.6355245 0 0
v 2.618833 0.15809798 0.16213787
v -2.6355245 -0.1580987 -0.16213775
v -2.6355245 -2.3841858E-07 0
v -2.6188333 -0.22644162 -0.0028563738
v 2.5991788 0.19331145 -0.18849552
v 2.6355245 0.16213751 -0.15809822
v 2.6355245 0.2264409 0.0028563738
v 2.5907507 0.26997852 0.003405571
v 2.5907507 0.26997852 0.003405571
v 2.6355245 0.2264409 0.0028563738
v 2.618833 0.15809798 0.16213787
v 2.5577273 0.1884954 0.19331169
v 2.5577273 0.1884954 0.19331169
v 2.618833 0.15809798 0.16213787
v 2.6244938 -0.002856493 0.22644126
v 2.5907507 -0.003405571 0.26997852
v 2.5907507 -0.003405571 0.26997852
v 2.6244938 -0.002856493 0.22644126
v 2.6355245 -0.16213822 0.15809834
v 2.5907507 -0.19331169 0.18849564
v 2.5907507 -0.19331169 0.18849564
v 2.6355245 -0.16213822 0.15809834
v 2.6355245 -0.22644138 -0.0028563738
v 2.61188 -0.26997852 -0.003405571
v 2.61188 -0.26997852 -0.003405571
v 2.6355245 -0.22644138 -0.0028563738
v 2.6355245 -0.1580987 -0.16213775
v 2.5907507 -0.18849564 -0.19331169
v 2.5907507 -0.18849564 -0.19331169
v 2.6355245 -0.1580987 -0.16213775
v 2.6355245 0.0028562546 -0.22644114
v 2.56137 0.003405571 -0.26997852
v 2.56137 0.003405571 -0.26997852
v 2.6355245 0.0028562546 -0.22644114
v 2.6355245 0.16213751 -0.15809822
v 2.5991788 0.19331145 -0.18849552
v 2.6355245 0.16213751 -0.15809822
v 2.6355245 0 0
v 2.6355245 0.2264409 0.0028563738
v 2.6355245 0.0028562546 -0.22644114
v 2.6355245 -0.1580987 -0.16213775
v 2.6355245 -0.22644138 -0.0028563738
v 2.6355245 -0.16213822 0.15809834
v 2.618833 0.15809798 0.16213787
v 2.6355245 0 0
v 2.6244938 -0.002856493 0.22644126
v 2.6355245 -0.16213822 0.15809834
v 2.61188 -0.26997852 -0.003405571
v -2.5577276 -0.26997852 -0.003405571
v -2.5907505 -0.19331169 0.18849564
v 2.5907507 -0.19331169 0.18849564
v 2.5907507 -0.19331169 0.18849564
v -2.5907505 -0.19331169 0.18849564
v -2.5907505 -0.0034058094 0.2699784
v 2.5907507 -0.003405571 0.26997852
v 2.5907507 -0.003405571 0.26997852
v -2.5907505 -0.0034058094 0.2699784
v -2.61188 0.18849516 0.19331169
v 2.5577273 0.1884954 0.19331169
v 2.5577273 0.1884954 0.19331169
v -2.61188 0.18849516 0.19331169
v -2.5907505 0.26997828 0.0034056902
v 2.5907507 0.26997852 0.003405571
v 2.5907507 0.26997852 0.003405571
v -2.5907505 0.26997828 0.0034056902
v -2.5613697 0.19331145 -0.18849564
v 2.5991788 0.19331145 -0.18849552
v 2.5991788 0.19331145 -0.18849552
v -2.5613697 0.19331145 -0.18849564
v -2.599179 0.0034053326 -0.2699784
v 2.56137 0.003405571 -0.26997852
v 2.56137 0.003405571 -0.26997852
v -2.599179 0.0034053326 -0.2699784
v -2.5907505 -0.18849564 -0.19331169
v 2.5907507 -0.18849564 -0.19331169
v 2.5907507 -0.18849564 -0.19331169
v -2.5907505 -0.18849564 -0.19331169
v -2.5577276 -0.26997852 -0.003405571
v 2.61188 -0.26997852 -0.003405571
v -2.599179 0.0034053326 -0.2699784
v -2.6355245 0.0028560162 -0.22644114
v -2.6355245 -0.1580987 -0.16213775
v -2.5907505 -0.18849564 -0.19331169
v -2.5907505 -0.18849564 -0.19331169
v -2.6355245 -0.1580987 -0.16213775
v -2.6188333 -0.22644162 -0.0028563738
v -2.5577276 -0.26997852 -0.003405571
v -2.5577276 -0.26997852 -0.003405571
v -2.6188333 -0.22644162 -0.0028563738
v -2.6244938 -0.16213822 0.15809834
v -2.5907505 -0.19331169 0.18849564
v -2.5907505 -0.19331169 0.18849564
v -2.6244938 -0.16213822 0.15809834
v -2.6355245 -0.0028567314 0.22644114
v -2.5907505 -0.0034058094 0.2699784
v -2.5907505 -0.0034058094 0.2699784
v -2.6355245 -0.0028567314 0.22644114
v -2.6355245 0.15809774 0.16213787
v -2.61188 0.18849516 0.19331169
v -2.61188 0.18849516 0.19331169
v -2.6355245 0.15809774 0.16213787
v -2.6355245 0.2264409 0.002856493
v -2.5907505 0.26997828 0.0034056902
v -2.5907505 0.26997828 0.0034056902
v -2.6355245 0.2264409 0.002856493
v -2.6355245 0.16213727 -0.15809834
v -2.5613697 0.19331145 -0.18849564
v -2.5613697 0.19331145 -0.18849564
v -2.6355245 0.16213727 -0.15809834
v -2.6355245 0.0028560162 -0.22644114
v -2.599179 0.0034053326 -0.2699784
v -2.6355245 0.0028560162 -0.22644114
v -2.6355245 -2.3841858E-07 0
v -2.6355245 -0.1580987 -0.16213775
v -2.6355245 0.16213727 -0.15809834
v -2.6355245 0.2264409 0.002856493
v -2.6355245 0.15809774 0.16213787
v -2.6355245 -0.0028567314 0.22644114
v -2.6188333 -0.22644162 -0.0028563738
v -2.6355245 -2.3841858E-07 0
v -2.6244938 -0.16213822 0.15809834
v -2.6355245 -0.0028567314 0.22644114
vt 0.48610812 0.22488075
vt 0.48610812 0.21877801
vt 0.48136365 0.2230953
vt 0.48610812 0.22488075
vt 0.48610812 0.21877801
vt 0.48136365 0.2230953
vt 0.49125317 0.22392303
vt 0.49087024 0.22309333
vt 0.48610812 0.22488075
vt 0.48610812 0.22605413
vt 0.48610812 0.22605413
vt 0.48610812 0.22488075
vt 0.48136365 0.2230953
vt 0.48096317 0.22392303
vt 0.47933292 0.22401124
vt 0.48136365 0.2230953
vt 0.48043418 0.21877897
vt 0.4799549 0.21882701
vt 0.4799549 0.21882701
vt 0.48043418 0.21877897
vt 0.4813645 0.21445882
vt 0.4796881 0.21368897
vt 0.48096317 0.213633
vt 0.4813645 0.21445882
vt 0.48610812 0.21267527
vt 0.48610812 0.2115019
vt 0.48610812 0.2115019
vt 0.48610812 0.21267527
vt 0.49087036 0.21446276
vt 0.49125317 0.213633
vt 0.4925239 0.21363306
vt 0.49087036 0.21446276
vt 0.491764 0.21877801
vt 0.49331555 0.21877807
vt 0.49331555 0.21877807
vt 0.491764 0.21877801
vt 0.49087024 0.22309333
vt 0.49229652 0.22392303
vt 0.49087024 0.22309333
vt 0.48610812 0.21877801
vt 0.48610812 0.22488075
vt 0.491764 0.21877801
vt 0.49087036 0.21446276
vt 0.48610812 0.21267527
vt 0.4813645 0.21445882
vt 0.48136365 0.2230953
vt 0.48610812 0.21877801
vt 0.48043418 0.21877897
vt 0.4813645 0.21445882
vt 0.4220394 0.24080056
vt 0.42048287 0.24598473
vt 0.42156678 0.23971868
vt 0.42134595 0.24706662
vt 0.42156678 0.23345268
vt 0.42156678 0.23971868
vt 0.42156678 0.23345268
vt 0.42156678 0.23971868
vt 0.42156678 0.23971868
vt 0.42134595 0.24706662
vt 0.4220394 0.24080056
vt 0.42048287 0.24598473
vt 0.418285 0.24601483
vt 0.4220394 0.24080056
vt 0.42134595 0.2345345
vt 0.41720116 0.23974878
vt 0.41720116 0.23974878
vt 0.42121258 0.24693835
vt 0.4202483 0.24067229
vt 0.41692457 0.23348272
vt 0.4214892 0.23440626
vt 0.4202483 0.24067229
vt 0.4214892 0.23440626
vt 0.4202483 0.24067229
vt 0.4202483 0.24067229
vt 0.41692457 0.23348272
vt 0.41720116 0.23974878
vt 0.42121258 0.24693835
vt 0.42134595 0.2345345
vt 0.41720116 0.23974878
vt 0.418285 0.24601483
vt 0.4220394 0.24080056
vt 0.49125317 0.22392303
vt 0.49087024 0.22309333
vt 0.48610812 0.22488075
vt 0.48610812 0.22605413
vt 0.48610812 0.22605413
vt 0.48610812 0.22488075
vt 0.48136365 0.2230953
vt 0.48096317 0.22392303
vt 0.47933292 0.22401124
vt 0.48136365 0.2230953
vt 0.48043418 0.21877897
vt 0.4799549 0.21882701
vt 0.4799549 0.21882701
vt 0.48043418 0.21877897
vt 0.4813645 0.21445882
vt 0.4796881 0.21368897
vt 0.48096317 0.213633
vt 0.4813645 0.21445882
vt 0.48610812 0.21267527
vt 0.48610812 0.2115019
vt 0.48610812 0.2115019
vt 0.48610812 0.21267527
vt 0.49087036 0.21446276
vt 0.49125317 0.213633
vt 0.4925239 0.21363306
vt 0.49087036 0.21446276
vt 0.491764 0.21877801
vt 0.49331555 0.21877807
vt 0.49331555 0.21877807
vt 0.491764 0.21877801
vt 0.49087024 0.22309333
vt 0.49229652 0.22392303
vt 0.49087024 0.22309333
vt 0.48610812 0.21877801
vt 0.48610812 0.22488075
vt 0.491764 0.21877801
vt 0.49087036 0.21446276
vt 0.48610812 0.21267527
vt 0.4813645 0.21445882
vt 0.48136365 0.2230953
vt 0.48610812 0.21877801
vt 0.48043418 0.21877897
vt 0.4813645 0.21445882
vn 0.99461126 -0.0013083309 0.10366632
vn 0.99461126 -0.0013083309 0.10366632
vn 0.99461126 -0.0013083307 0.103666306
vn -0.99461126 -0.07422734 0.07237899
vn -0.99461126 -0.07422734 0.07237899
vn -0.99461126 -0.074227326 0.07237898
vn 0.7040976 0.6650596 -0.24888189
vn 0.7040976 0.6650596 -0.24888189
vn 0.7040977 0.66505957 -0.24888186
vn 0.7040977 0.66505957 -0.24888186
vn 0.60312146 0.69831276 0.3854917
vn 0.60312146 0.6983127 0.3854917
vn 0.60312146 0.69831264 0.38549167
vn 0.60312146 0.6983127 0.38549167
vn 0.6454623 0.34334004 0.68227273
vn 0.6454623 0.34334004 0.68227273
vn 0.6454623 0.34334 0.68227273
vn 0.6454623 0.34334004 0.68227273
vn 0.7155103 -0.2562518 0.6499077
vn 0.7155103 -0.2562518 0.6499077
vn 0.7155103 -0.2562518 0.6499077
vn 0.71551025 -0.2562518 0.6499077
vn 0.7611017 -0.5853559 0.27943277
vn 0.7611017 -0.5853559 0.27943277
vn 0.76110166 -0.585356 0.27943283
vn 0.7611017 -0.58535594 0.2794328
vn 0.761102 -0.57812077 -0.29410902
vn 0.76110196 -0.57812077 -0.29410896
vn 0.761102 -0.57812077 -0.29410902
vn 0.761102 -0.57812077 -0.29410902
vn 0.5597909 -0.26680803 -0.7845048
vn 0.55979097 -0.2668081 -0.78450465
vn 0.5597909 -0.26680806 -0.7845048
vn 0.5597909 -0.26680803 -0.78450465
vn 0.58759093 0.2644927 -0.7647095
vn 0.5875909 0.26449275 -0.7647095
vn 0.5875909 0.2644927 -0.7647095
vn 0.5875909 0.2644927 -0.7647095
vn 1 0 0
vn 1 0 0
vn 1 0 0
vn 1 0 0
vn 1 0 0
vn 1 0 0
vn 1 0 0
vn 0.9972831 0.054760214 0.049271595
vn 0.9972831 0.05476022 0.049271595
vn 0.9972831 0.05476022 0.0492716
vn 0.99763584 0.047976654 0.049203206
vn -0 -0.92863303 0.3709996
vn -0 -0.92863274 0.37100047
vn -0 -0.92863274 0.37100044
vn -0 -0.92863303 0.3709996
vn -0 -0.3943059 0.9189792
vn -0 -0.39430594 0.9189792
vn -0 -0.39430594 0.9189792
vn -0 -0.3943059 0.9189792
vn -0 0.3709996 0.92863303
vn -0 0.37100044 0.92863274
vn -0 0.37100047 0.92863274
vn -0 0.3709996 0.92863303
vn -0 0.9189792 0.39430597
vn -0 0.9189789 0.39430645
vn -0 0.9189789 0.3943065
vn -0 0.9189792 0.39430597
vn -0 0.928633 -0.37099987
vn -0 0.92863274 -0.37100026
vn -0 0.92863274 -0.37100023
vn -0 0.928633 -0.37099987
vn -0 0.39430618 -0.91897917
vn -0 0.39430565 -0.91897935
vn -0 0.39430568 -0.91897935
vn -0 0.39430618 -0.91897917
vn -0 -0.3709998 -0.928633
vn -0 -0.3710002 -0.92863274
vn -0 -0.3710002 -0.92863274
vn -0 -0.37099978 -0.928633
vn -0 -0.91897947 -0.39430538
vn -0 -0.9189792 -0.39430588
vn -0 -0.9189792 -0.3943059
vn -0 -0.91897947 -0.3943054
vn -0.7040976 -0.27788734 -0.6534716
vn -0.70409757 -0.27788728 -0.6534716
vn -0.7040977 -0.2778873 -0.6534715
vn -0.7040977 -0.2778873 -0.6534715
vn -0.60312146 -0.76054215 -0.2404584
vn -0.60312146 -0.76054215 -0.24045835
vn -0.6031215 -0.7605421 -0.24045838
vn -0.6031215 -0.7605421 -0.24045843
vn -0.6454623 -0.73103225 0.22129236
vn -0.6454623 -0.73103225 0.2212924
vn -0.6454623 -0.73103225 0.2212924
vn -0.6454623 -0.73103225 0.22129236
vn -0.71551025 -0.29443055 0.6335263
vn -0.71551025 -0.29443055 0.6335263
vn -0.71551025 -0.29443055 0.6335263
vn -0.71551025 -0.29443058 0.6335264
vn -0.7611018 0.20082703 0.61675984
vn -0.7611017 0.20082702 0.6167599
vn -0.76110166 0.20082702 0.61675996
vn -0.7611017 0.20082702 0.6167599
vn -0.76110196 0.61149764 0.21631993
vn -0.76110196 0.61149776 0.21631998
vn -0.76110196 0.61149764 0.21631995
vn -0.76110196 0.61149764 0.21631995
vn -0.55979085 0.7523876 -0.34719896
vn -0.55979085 0.7523875 -0.34719887
vn -0.55979085 0.7523875 -0.3471989
vn -0.55979085 0.7523876 -0.34719893
vn -0.587591 0.37195104 -0.7186023
vn -0.58759093 0.37195107 -0.7186023
vn -0.58759093 0.37195113 -0.7186023
vn -0.58759093 0.37195113 -0.7186023
vn -1 0 0
vn -1 0 0
vn -1 0 0
vn -1 0 0
vn -1 0 0
vn -1 0 0
vn -1 0 0
vn -0.9972831 -0.073440306 -0.0057353307
vn -0.9972831 -0.07344031 -0.0057353345
vn -0.9972831 -0.073440306 -0.005735334
vn -0.99763584 -0.06871655 -0.0008662843
g Log3_0
f 3/3/3 2/2/2 1/1/1
f 6/6/6 5/5/5 4/4/4
f 9/9/9 8/8/8 7/7/7
f 10/10/10 9/9/9 7/7/7
f 13/13/13 12/12/12 11/11/11
f 14/14/14 13/13/13 11/11/11
f 17/17/17 16/16/16 15/15/15
f 18/18/18 17/17/17 15/15/15
f 21/21/21 20/20/20 19/19/19
f 22/22/22 21/21/21 19/19/19
f 25/25/25 24/24/24 23/23/23
f 26/26/26 25/25/25 23/23/23
f 29/29/29 28/28/28 27/27/27
f 30/30/30 29/29/29 27/27/27
f 33/33/33 32/32/32 31/31/31
f 34/34/34 33/33/33 31/31/31
f 37/37/37 36/36/36 35/35/35
f 38/38/38 37/37/37 35/35/35
f 41/41/41 40/40/40 39/39/39
f 39/39/39 40/40/40 42/42/42
f 42/42/42 40/40/40 43/43/43
f 43/43/43 40/40/40 44/44/44
f 44/44/44 40/40/40 45/45/45
f 48/48/48 47/47/47 46/46/46
f 49/49/49 47/47/47 48/48/48
f 52/52/52 51/51/51 50/50/50
f 53/53/53 52/52/52 50/50/50
f 56/56/56 55/55/55 54/54/54
f 57/57/57 56/56/56 54/54/54
f 60/60/60 59/59/59 58/58/58
f 61/61/61 60/60/60 58/58/58
f 64/64/64 63/63/63 62/62/62
f 65/65/65 64/64/64 62/62/62
f 68/68/68 67/67/67 66/66/66
f 69/69/69 68/68/68 66/66/66
f 72/72/72 71/71/71 70/70/70
f 73/73/73 72/72/72 70/70/70
f 76/76/76 75/75/75 74/74/74
f 77/77/77 76/76/76 74/74/74
f 80/80/80 79/79/79 78/78/78
f 81/81/81 80/80/80 78/78/78
f 84/84/84 83/83/83 82/82/82
f 85/85/85 84/84/84 82/82/82
f 88/88/88 87/87/87 86/86/86
f 89/89/89 88/88/88 86/86/86
f 92/92/92 91/91/91 90/90/90
f 93/93/93 92/92/92 90/90/90
f 96/96/96 95/95/95 94/94/94
f 97/97/97 96/96/96 94/94/94
f 100/100/100 99/99/99 98/98/98
f 101/101/101 100/100/100 98/98/98
f 104/104/104 103/103/103 102/102/102
f 105/105/105 104/104/104 102/102/102
f 108/108/108 107/107/107 106/106/106
f 109/109/109 108/108/108 106/106/106
f 112/112/112 111/111/111 110/110/110
f 113/113/113 112/112/112 110/110/110
f 116/116/116 115/115/115 114/114/114
f 114/114/114 115/115/115 117/117/117
f 117/117/117 115/115/115 118/118/118
f 118/118/118 115/115/115 119/119/119
f 119/119/119 115/115/115 120/120/120
f 123/123/123 122/122/122 121/121/121
f 124/124/124 122/122/122 123/123/123
