g Mesh2_Group3_Group1_Model
v -0.00270302 0.0135 -0.00170728
v 0.00270302 0.0135 -0.00170728
v 0.00270302 0.0135 0.00369875
v -0.00270302 0.0135 0.00369875
v -0.00270302 0.0135 0.00369875
v -0.00270302 0.0087 0.00369875
v -0.00270302 0.0087 -0.00530728
v -0.00270302 0.0098088 -0.00470728
v -0.00270302 0.0135 -0.00170728
v -0.00270302 0.0098088 -0.00650728
v -0.00270302 -0.00214717 -0.00890728
v -0.00270302 -0.00214717 -0.00770728
v -0.00270302 0.0098088 -0.00470728
v -0.00270302 0.0098088 -0.00650728
v 0.00270302 0.0098088 -0.00650728
v 0.00270302 0.0098088 -0.00470728
v 0.00270302 0.0135 -0.00170728
v -0.00270302 0.0135 -0.00170728
v -0.00270302 0.0098088 -0.00470728
v 0.00270302 0.0098088 -0.00470728
v 0.00270302 0.0098088 -0.00650728
v 0.00270302 -0.00214717 -0.00890728
v 0.00270302 -0.00214717 -0.00770728
v 0.00270302 0.0087 -0.00530728
v 0.00270302 0.0087 0.00369875
v 0.00270302 0.0098088 -0.00470728
v 0.00270302 0.0135 0.00369875
v 0.00270302 0.0135 -0.00170728
v -0.00270302 0.0087 0.00369875
v 0.00270302 0.0087 0.00369875
v 0.00270302 0.0087 -0.00530728
v -0.00270302 0.0087 -0.00530728
v 0.00270302 -0.00214717 -0.00770728
v -0.00270302 -0.00214717 -0.00770728
v -0.00270302 0.0087 -0.00530728
v 0.00270302 0.0087 -0.00530728
v 0.00270302 -0.00214717 -0.00890728
v -0.00270302 -0.00214717 -0.00890728
v -0.00270302 -0.00214717 -0.00770728
v 0.00270302 -0.00214717 -0.00770728
v -0.00270302 -0.00214717 -0.00890728
v 0.00270302 -0.00214717 -0.00890728
v 0.00270302 0.0098088 -0.00650728
v -0.00270302 0.0098088 -0.00650728
v -0.00270302 0.0087 0.00369875
v -0.00270302 0.0135 0.00369875
v 0.00270302 0.0135 0.00369875
v 0.00270302 0.0087 0.00369875
vt 0 3.54726
vt 3.54726 3.54726
vt 3.54726 0
vt 0 0
vt 0 3.14961
vt 0 0
vt -5.90947 0
vt -5.51577 0.727558
vt -3.54726 3.14961
vt -6.69687 0.727558
vt -8.27167 -7.11757
vt -7.48427 -7.11757
vt 0 5.51577
vt 0 6.69687
vt 3.54726 6.69687
vt 3.54726 5.51577
vt -3.54726 0.206879
vt 0 0.206879
vt 0 -2.91423
vt -3.54726 -2.91423
vt 6.69687 0.727558
vt 8.27167 -7.11757
vt 7.48427 -7.11757
vt 5.90947 0
vt 0 0
vt 5.51577 0.727558
vt 0 3.14961
vt 3.54726 3.14961
vt 0 0
vt -3.54726 0
vt -3.54726 5.90947
vt 0 5.90947
vt 3.54726 -8.56633
vt 0 -8.56633
vt 0 -1.27663
vt 3.54726 -1.27663
vt -3.54726 8.27167
vt 0 8.27167
vt 0 7.48427
vt -3.54726 7.48427
vt 0 -8.60631
vt -3.54726 -8.60631
vt -3.54726 -0.604685
vt 0 -0.604685
vt 0 0
vt 0 3.14961
vt 3.54726 3.14961
vt 3.54726 0
vn -0 1 0
vn -0 1 0
vn -0 1 0
vn -0 1 0
vn -1 0 0
vn -1 0 0
vn -1 0 0
vn -1 0 0
vn -1 0 0
vn -1 0 0
vn -1 0 0
vn -1 0 0
vn -0 1 0
vn -0 1 0
vn -0 1 0
vn -0 1 0
vn -0 0.6307064 -0.77602154
vn -0 0.6307064 -0.77602154
vn -0 0.6307064 -0.77602154
vn -0 0.6307064 -0.77602154
vn 1 0 0
vn 1 0 0
vn 1 0 0
vn 1 0 0
vn 1 0 0
vn 1 0 0
vn 1 0 0
vn 1 0 0
vn -0 -1 0
vn -0 -1 0
vn -0 -1 0
vn -0 -1 0
vn -0 -0.2160311 0.9763865
vn -0 -0.2160311 0.9763865
vn -0 -0.2160311 0.9763865
vn -0 -0.2160311 0.9763865
vn -0 -1 0
vn -0 -1 0
vn -0 -1 0
vn -0 -1 0
vn -0 0.19680995 -0.9804417
vn -0 0.19680995 -0.9804417
vn -0 0.19680995 -0.9804417
vn -0 0.19680995 -0.9804417
vn -0 0 1
vn -0 0 1
vn -0 0 1
vn -0 0 1
g Mesh2_Group3_Group1_Model_0
f 3/3/3 2/2/2 1/1/1
f 4/4/4 3/3/3 1/1/1
f 7/7/7 6/6/6 5/5/5
f 5/5/5 8/8/8 7/7/7
f 5/5/5 9/9/9 8/8/8
f 7/7/7 8/8/8 10/10/10
f 7/7/7 10/10/10 11/11/11
f 11/11/11 12/12/12 7/7/7
f 15/15/15 14/14/14 13/13/13
f 16/16/16 15/15/15 13/13/13
f 19/19/19 18/18/18 17/17/17
f 20/20/20 19/19/19 17/17/17
f 23/23/23 22/22/22 21/21/21
f 21/21/21 24/24/24 23/23/23
f 21/21/21 25/25/25 24/24/24
f 21/21/21 26/26/26 25/25/25
f 26/26/26 27/27/27 25/25/25
f 26/26/26 28/28/28 27/27/27
f 31/31/31 30/30/30 29/29/29
f 32/32/32 31/31/31 29/29/29
f 35/35/35 34/34/34 33/33/33
f 36/36/36 35/35/35 33/33/33
f 39/39/39 38/38/38 37/37/37
f 40/40/40 39/39/39 37/37/37
f 43/43/43 42/42/42 41/41/41
f 44/44/44 43/43/43 41/41/41
f 47/47/47 46/46/46 45/45/45
f 48/48/48 47/47/47 45/45/45
