g Monument_005
v 0.25 0.9211079 -0.2499999
v 0.25 0.9999999 -0.17110789
v 0.17110799 0.9999999 -0.2499999
v -0.4570314 0.4570314 -0.24999996
v -0.4570314 0.5429686 -0.24999996
v -0.5 0.5 -0.1892332
v -0.5 0.5 -0.1892332
v -0.4570314 0.5429686 -0.24999996
v -0.56076676 0.5 -0.24999996
v -0.25 1.4125021E-08 -0.16157141
v -0.16157141 2.1855694E-08 -0.25
v -0.25 0.18280384 -0.25
v 0.25 0.24030781 0.25
v 0.18902738 0.5 0.25000006
v 0.25 0.5 0.18902744
v 0.25 0.5 0.18902744
v 0.18902738 0.5 0.25000006
v 0.25 0.67621005 0.25000006
v -0.25 -2.1855694E-08 0.25
v -0.16157141 2.1855694E-08 -0.25
v -0.25 1.4125021E-08 -0.16157141
v 0.25 2.1855694E-08 -0.25
v 0.25 -2.1855694E-08 0.25
v 0.25 0.9999999 0.2500001
v 0.17110799 0.9999999 -0.2499999
v 0.25 0.9999999 -0.17110789
v -0.25 0.9999999 0.2500001
v -0.25 0.9999999 -0.2499999
v -0.7499996 0.9999999 -0.2499999
v -0.7499996 0.9999999 0.2500001
v 0.25 -2.1855694E-08 0.25
v 0.18902738 0.5 0.25000006
v 0.25 0.24030781 0.25
v -0.25 -2.1855694E-08 0.25
v -0.25 0.25 0.25
v -0 0.5 0.25000006
v 0.25 0.67621005 0.25000006
v 0.25 0.9999999 0.2500001
v -0.25 0.9999999 0.2500001
v -0.25 0.75 0.25000006
v -0.5 0.5 0.25000006
v -0.7499996 0.9999999 0.2500001
v -0.7499996 0.5 0.25000006
v 0.25 -2.1855694E-08 0.25
v 0.25 0.5 -0.24999996
v 0.25 2.1855694E-08 -0.25
v 0.25 0.24030781 0.25
v 0.25 0.5 0.18902744
v 0.25 0.9999999 -0.17110789
v 0.25 0.9211079 -0.2499999
v 0.25 0.9999999 0.2500001
v 0.25 0.67621005 0.25000006
v 0.25 2.1855694E-08 -0.25
v -0.25 0.18280384 -0.25
v -0.16157141 2.1855694E-08 -0.25
v -0 0.5 -0.24999996
v 0.25 0.5 -0.24999996
v -0.25 0.25 -0.25
v -0.25 0.75 -0.24999996
v -0.4570314 0.5429686 -0.24999996
v -0.4570314 0.4570314 -0.24999996
v -0.56076676 0.5 -0.24999996
v -0.25 0.9999999 -0.2499999
v 0.25 0.9211079 -0.2499999
v 0.17110799 0.9999999 -0.2499999
v -0.7499996 0.5 -0.24999996
v -0.7499996 0.9999999 -0.2499999
v -0.25 1.4125021E-08 -0.16157141
v -0.25 0.25 0.25
v -0.25 -2.1855694E-08 0.25
v -0.25 0.25 -0.25
v -0.25 0.18280384 -0.25
v -0.7499996 0.5 -0.24999996
v -0.7499996 0.9999999 0.2500001
v -0.7499996 0.5 0.25000006
v -0.7499996 0.9999999 -0.2499999
v -0.5 0.5 -0.1892332
v -0.7499996 0.5 0.25000006
v -0.5 0.5 0.25000006
v -0.7499996 0.5 -0.24999996
v -0.56076676 0.5 -0.24999996
v -0.4570314 0.4570314 -0.24999996
v -0.25 0.25 0.25
v -0.25 0.25 -0.25
v -0.5 0.5 0.25000006
v -0.5 0.5 -0.1892332
vt 0.52822804 0.4491533
vt 0.536175 0.44928014
vt 0.53248453 0.44339716
vt 0.4916794 0.40636522
vt 0.497874 0.40417403
vt 0.49214193 0.40117556
vt 0.49214193 0.40117556
vt 0.497874 0.40417403
vt 0.49452803 0.3968125
vt 0.532552 0.28417075
vt 0.52358747 0.28318667
vt 0.5265496 0.29752874
vt 0.55691075 0.50630736
vt 0.56232476 0.48850977
vt 0.5562928 0.48747766
vt 0.5562928 0.48747766
vt 0.56232476 0.48850977
vt 0.5619619 0.47546685
vt 0.5476258 0.55721986
vt 0.5143473 0.544868
vt 0.5193193 0.5520586
vt 0.5195091 0.516562
vt 0.55389667 0.5228343
vt 0.5645206 0.45310295
vt 0.53248453 0.44339716
vt 0.536175 0.44928014
vt 0.5652964 0.4166922
vt 0.5298917 0.4169348
vt 0.5289314 0.381926
vt 0.564975 0.38091105
vt 0.6376231 0.4533434
vt 0.60121083 0.44882727
vt 0.6201184 0.45330858
vt 0.63769984 0.41692168
vt 0.61948895 0.4168846
vt 0.60126424 0.4350211
vt 0.58828044 0.4532386
vt 0.5645206 0.45310295
vt 0.5652964 0.4166922
vt 0.5832541 0.41677946
vt 0.6013043 0.3986891
vt 0.564975 0.38091105
vt 0.6012585 0.38063115
vt 0.55389667 0.5228343
vt 0.5257809 0.48217416
vt 0.5195091 0.516562
vt 0.55691075 0.50630736
vt 0.5562928 0.48747766
vt 0.536175 0.44928014
vt 0.53005624 0.45379627
vt 0.5645206 0.45310295
vt 0.5619619 0.47546685
vt 0.46933672 0.45567262
vt 0.47723743 0.4229359
vt 0.46638343 0.4298051
vt 0.49903914 0.4361822
vt 0.50080895 0.45208597
vt 0.4814565 0.42242628
vt 0.5133598 0.41814643
vt 0.497874 0.40417403
vt 0.4916794 0.40636522
vt 0.49452803 0.3968125
vt 0.5298917 0.4169348
vt 0.52822804 0.4491533
vt 0.53248453 0.44339716
vt 0.49397227 0.38356405
vt 0.5289314 0.381926
vt 0.532552 0.28417075
vt 0.56273055 0.30135608
vt 0.56222224 0.28333318
vt 0.52668595 0.30237293
vt 0.5265496 0.29752874
vt 0.5279145 0.3458827
vt 0.564975 0.38091105
vt 0.5639579 0.34486562
vt 0.5289314 0.381926
vt 0.53178525 0.3277374
vt 0.5639579 0.34486562
vt 0.5634496 0.32684284
vt 0.5279145 0.3458827
vt 0.527529 0.3322404
vt 0.5272808 0.3234793
vt 0.56273055 0.30135608
vt 0.52668595 0.30237293
vt 0.5634496 0.32684284
vt 0.53178525 0.3277374
vn 0.5773502 0.57735044 -0.5773502
vn 0.57735026 0.5773504 -0.57735026
vn 0.57735026 0.5773504 -0.57735026
vn -0.8164965 0 -0.57735044
vn -0.8164965 0 -0.57735044
vn -0.8164965 0 -0.57735044
vn 0.35740688 -0.86285615 -0.35740677
vn 0.35740688 -0.86285615 -0.35740682
vn 0.35740688 -0.86285615 -0.35740677
vn -0.6690498 -0.32364276 -0.66904986
vn -0.6690498 -0.32364276 -0.66904986
vn -0.6690498 -0.32364276 -0.66904986
vn 0.6975589 0.16377832 0.6975589
vn 0.6975589 0.16377832 0.6975589
vn 0.6975589 0.16377833 0.6975589
vn 0.6868463 -0.2376641 0.6868463
vn 0.6868463 -0.2376641 0.6868463
vn 0.6868463 -0.2376641 0.6868463
vn -0 -1 0
vn -0 -1 0
vn -0 -1 0
vn -0 -1 0
vn -0 -1 0
vn -0 1 0
vn -0 1 0
vn -0 1 0
vn -0 1 0
vn -0 1 0
vn -0 1 0
vn -0 1 0
vn -0 0 1
vn -0 0 1
vn 7.945642E-07 0 1
vn -0 0 1
vn -0 0 1
vn -0 0 1
vn -0 0 1
vn -0 0 1
vn -0 0 1
vn -0 0 1
vn -0 0 1
vn -0 0 1
vn -0 0 1
vn 1 0 0
vn 1 0 0
vn 1 0 0
vn 1 0 0
vn 1 0 0
vn 1 0 0
vn 1 0 0
vn 1 0 0
vn 1 0 0
vn -0 0 -1
vn -0 0 -1
vn -0 0 -1
vn -0 0 -1
vn -0 0 -1
vn -0 0 -1
vn -0 0 -1
vn -0 0 -1
vn -0 0 -1
vn -0 0 -1
vn -0 0 -1
vn -0 0 -1
vn -0 0 -1
vn -0 0 -1
vn -0 0 -1
vn -1 0 0
vn -1 0 0
vn -1 0 0
vn -1 0 0
vn -1 0 0
vn -1 0 0
vn -1 0 0
vn -1 0 0
vn -1 0 0
vn -0 -1 0
vn -0 -1 0
vn -0 -1 0
vn -0 -1 0
vn -0 -1 0
vn -0.70710677 -0.70710677 0
vn -0.70710677 -0.70710677 0
vn -0.70710677 -0.70710677 0
vn -0.70710677 -0.70710677 0
vn -0.70710677 -0.70710677 0
g Monument_005_0
f 3/3/3 2/2/2 1/1/1
f 6/6/6 5/5/5 4/4/4
f 9/9/9 8/8/8 7/7/7
f 12/12/12 11/11/11 10/10/10
f 15/15/15 14/14/14 13/13/13
f 18/18/18 17/17/17 16/16/16
f 21/21/21 20/20/20 19/19/19
f 20/20/20 22/22/22 19/19/19
f 22/22/22 23/23/23 19/19/19
f 26/26/26 25/25/25 24/24/24
f 24/24/24 25/25/25 27/27/27
f 25/25/25 28/28/28 27/27/27
f 28/28/28 29/29/29 27/27/27
f 30/30/30 27/27/27 29/29/29
f 33/33/33 32/32/32 31/31/31
f 31/31/31 32/32/32 34/34/34
f 32/32/32 35/35/35 34/34/34
f 36/36/36 35/35/35 32/32/32
f 32/32/32 37/37/37 36/36/36
f 37/37/37 38/38/38 36/36/36
f 38/38/38 39/39/39 36/36/36
f 36/36/36 40/40/40 35/35/35
f 36/36/36 39/39/39 40/40/40
f 41/41/41 35/35/35 40/40/40
f 39/39/39 42/42/42 40/40/40
f 40/40/40 43/43/43 41/41/41
f 42/42/42 43/43/43 40/40/40
f 46/46/46 45/45/45 44/44/44
f 45/45/45 47/47/47 44/44/44
f 48/48/48 47/47/47 45/45/45
f 45/45/45 49/49/49 48/48/48
f 50/50/50 49/49/49 45/45/45
f 49/49/49 51/51/51 48/48/48
f 48/48/48 51/51/51 52/52/52
f 55/55/55 54/54/54 53/53/53
f 54/54/54 56/56/56 53/53/53
f 56/56/56 57/57/57 53/53/53
f 58/58/58 56/56/56 54/54/54
f 56/56/56 59/59/59 57/57/57
f 59/59/59 56/56/56 58/58/58
f 60/60/60 59/59/59 58/58/58
f 61/61/61 60/60/60 58/58/58
f 60/60/60 62/62/62 59/59/59
f 59/59/59 63/63/63 57/57/57
f 59/59/59 62/62/62 63/63/63
f 63/63/63 64/64/64 57/57/57
f 65/65/65 64/64/64 63/63/63
f 62/62/62 66/66/66 63/63/63
f 66/66/66 67/67/67 63/63/63
f 70/70/70 69/69/69 68/68/68
f 69/69/69 71/71/71 68/68/68
f 68/68/68 71/71/71 72/72/72
f 75/75/75 74/74/74 73/73/73
f 76/76/76 73/73/73 74/74/74
f 79/79/79 78/78/78 77/77/77
f 78/78/78 80/80/80 77/77/77
f 77/77/77 80/80/80 81/81/81
f 84/84/84 83/83/83 82/82/82
f 83/83/83 85/85/85 82/82/82
f 82/82/82 85/85/85 86/86/86
