g Mouth
v -0.08133368 1.4376782 0.12730949
v -0.115576304 1.4510604 0.12059624
v -0.111710794 1.4699538 0.14728951
v -0.07912995 1.4604628 0.15721112
v -0.041956592 1.4290768 0.13252497
v -0.115576304 1.4954901 0.16703388
v -0.040956344 1.453858 0.16410682
v -2.2724271E-07 1.4262097 0.1345853
v -0.08133368 1.4890617 0.18101536
v -0.12264624 1.5231814 0.18101536
v -2.2724271E-07 1.4515144 0.1665549
v 0.041956134 1.4290768 0.13252497
v -0.041956592 1.4840779 0.19000942
v -0.08554881 1.5231814 0.19871457
v -0.12812988 1.5605768 0.19000942
v -0.08929612 1.5605768 0.20975378
v -0.04395391 1.5231814 0.20975378
v -0.045928493 1.5605768 0.2222603
v 0.04095498 1.453858 0.16410682
v 0.08133368 1.4376782 0.12730949
v -2.2724271E-07 1.4821061 0.19300489
v -2.2724271E-07 1.5231814 0.2134183
v -2.2724271E-07 1.5605768 0.22653307
v 0.07912995 1.4604628 0.15721112
v 0.115575396 1.4510604 0.12059624
v 0.111710794 1.4699538 0.14728951
v 0.041956134 1.4840779 0.19000942
v 0.04395391 1.5231814 0.20975378
v 0.04592758 1.5605768 0.2222603
v 0.08133368 1.4890617 0.18101536
v 0.115575396 1.4954901 0.16703388
v 0.08554881 1.5231814 0.19871457
v 0.08929611 1.5605768 0.20975378
v 0.12264624 1.5231814 0.18101536
v 0.12812898 1.5605768 0.19000942
vt 0.18528429 0.2621587
vt 0.052191436 0.31417233
vt 0.06721556 0.38760608
vt 0.19384938 0.3507167
vt 0.33833358 0.22872683
vt 0.052191436 0.48685992
vt 0.3422213 0.32504565
vt 0.5014076 0.21758363
vt 0.18528426 0.46187404
vt 0.024712294 0.5944886
vt 0.5014076 0.31593665
vt 0.66448206 0.22872683
vt 0.33833358 0.44250253
vt 0.16890115 0.5944886
vt 0.0033989549 0.7398355
vt 0.15433627 0.7398355
vt 0.3305704 0.5944886
vt 0.3228956 0.73983544
vt 0.66059077 0.32504565
vt 0.8175327 0.26215872
vt 0.5014076 0.43483946
vt 0.5014076 0.5944886
vt 0.5014076 0.7398355
vt 0.8089676 0.35071668
vt 0.9506219 0.31417236
vt 0.9356014 0.38760608
vt 0.664482 0.44250256
vt 0.6722466 0.59448856
vt 0.6799178 0.73983544
vt 0.8175327 0.461874
vt 0.9506219 0.4868599
vt 0.8339163 0.5944886
vt 0.84848076 0.73983544
vt 0.9781047 0.5944886
vt 0.99941486 0.73983544
vn -0.32505497 -0.7926362 0.51581687
vn -0.4668477 -0.7356773 0.49074653
vn -0.45005846 -0.64756876 0.61489993
vn -0.31801584 -0.6862218 0.65419066
vn -0.1670737 -0.8278224 0.53553385
vn -0.4720701 -0.5186963 0.7128141
vn -0.16399853 -0.7133737 0.681324
vn -0.0007860686 -0.83950967 0.54334426
vn -0.32872945 -0.54809713 0.7691076
vn -0.50637364 -0.36653543 0.7805368
vn -1.592061E-07 -0.72253036 0.6913392
vn 0.16604307 -0.82755524 0.5362666
vn -0.16870485 -0.5694511 0.8045273
vn -0.34915873 -0.38352415 0.8549839
vn -0.5318407 -0.19010073 0.8252316
vn -0.36671987 -0.19765064 0.90909344
vn -0.17808892 -0.39857578 0.8996787
vn -0.18713474 -0.20550701 0.9605974
vn 0.16401133 -0.71212006 0.68263125
vn 0.32403186 -0.7923233 0.51694024
vn 0.00079909054 -0.57725805 0.81656134
vn 0.0010565423 -0.40473863 0.9144318
vn 0.0009491452 -0.20964906 0.9777762
vn 0.3180618 -0.683807 0.6566923
vn 0.46646917 -0.7361379 0.4904157
vn 0.45017913 -0.64281607 0.6197792
vn 0.16976151 -0.56870455 0.804833
vn 0.17925474 -0.39862144 0.89942694
vn 0.1877477 -0.20616633 0.96033657
vn 0.3297919 -0.54694694 0.7694714
vn 0.47243166 -0.5190233 0.7123365
vn 0.34971225 -0.38407376 0.8545107
vn 0.36678356 -0.19891463 0.90879196
vn 0.5052857 -0.36758968 0.7807459
vn 0.531121 -0.1912449 0.8254308
g Mouth_0
f 3/3/3 2/2/2 1/1/1
f 4/4/4 3/3/3 1/1/1
f 4/4/4 1/1/1 5/5/5
f 6/6/6 3/3/3 4/4/4
f 7/7/7 4/4/4 5/5/5
f 7/7/7 5/5/5 8/8/8
f 9/9/9 6/6/6 4/4/4
f 9/9/9 4/4/4 7/7/7
f 10/10/10 6/6/6 9/9/9
f 11/11/11 7/7/7 8/8/8
f 8/8/8 12/12/12 11/11/11
f 13/13/13 9/9/9 7/7/7
f 13/13/13 7/7/7 11/11/11
f 14/14/14 10/10/10 9/9/9
f 14/14/14 9/9/9 13/13/13
f 15/15/15 10/10/10 14/14/14
f 16/16/16 15/15/15 14/14/14
f 16/16/16 14/14/14 17/17/17
f 17/17/17 14/14/14 13/13/13
f 18/18/18 16/16/16 17/17/17
f 12/12/12 19/19/19 11/11/11
f 12/12/12 20/20/20 19/19/19
f 21/21/21 13/13/13 11/11/11
f 17/17/17 13/13/13 21/21/21
f 11/11/11 19/19/19 21/21/21
f 18/18/18 17/17/17 22/22/22
f 22/22/22 17/17/17 21/21/21
f 23/23/23 18/18/18 22/22/22
f 20/20/20 24/24/24 19/19/19
f 20/20/20 25/25/25 24/24/24
f 25/25/25 26/26/26 24/24/24
f 19/19/19 27/27/27 21/21/21
f 21/21/21 27/27/27 22/22/22
f 19/19/19 24/24/24 27/27/27
f 23/23/23 22/22/22 28/28/28
f 27/27/27 28/28/28 22/22/22
f 29/29/29 23/23/23 28/28/28
f 24/24/24 26/26/26 30/30/30
f 24/24/24 30/30/30 27/27/27
f 27/27/27 30/30/30 28/28/28
f 26/26/26 31/31/31 30/30/30
f 29/29/29 28/28/28 32/32/32
f 30/30/30 32/32/32 28/28/28
f 32/32/32 30/30/30 31/31/31
f 33/33/33 29/29/29 32/32/32
f 34/34/34 32/32/32 31/31/31
f 33/33/33 32/32/32 34/34/34
f 35/35/35 33/33/33 34/34/34
