g Oak_Branch2
v -0.7793498 0.43036628 -0.41409796
v -0.79209375 0.46106887 -0.37468785
v -0.9796128 0.9888933 -1.0112216
v -0.81198454 0.39365935 -0.42977995
v -0.7793498 0.43036628 -0.41409796
v -0.9796128 0.9888933 -1.0112216
v -0.83747244 0.4550674 -0.35095996
v -0.8701072 0.41836047 -0.3666429
v -0.9796128 0.9888933 -1.0112216
v -0.8701072 0.41836047 -0.3666429
v -0.8573632 0.38765693 -0.40605277
v -0.9796128 0.9888933 -1.0112216
v 0.52313375 -0.5171392 0.37903422
v 0.4651494 -0.62366223 0.35979408
v 0.9054961 -0.960449 0.8144781
v 0.9796128 -0.83287835 0.8415211
v 0.49349833 -0.44772315 0.4758982
v 0.52313375 -0.5171392 0.37903422
v 0.9796128 -0.83287835 0.8415211
v 0.92487955 -0.73374915 0.9398924
v 0.79602957 -0.76219296 1.0112216
v 0.40587854 -0.48483014 0.5535223
v 0.49349833 -0.44772315 0.4758982
v 0.92487955 -0.73374915 0.9398924
v 0.4651494 -0.62366223 0.35979408
v 0.37752962 -0.6607692 0.43741816
v 0.77664614 -0.9888933 0.8858071
v 0.9054961 -0.960449 0.8144781
v 0.7219138 -0.889765 0.98417896
v 0.34789515 -0.5913522 0.5342811
v 0.40587854 -0.48483014 0.5535223
v 0.79602957 -0.76219296 1.0112216
v 0.77664614 -0.9888933 0.8858071
v 0.37752962 -0.6607692 0.43741816
v 0.34789515 -0.5913522 0.5342811
v 0.7219138 -0.889765 0.98417896
v 0.49349833 -0.44772315 0.4758982
v -0.21009874 -0.028629541 0.08459324
v -0.19467115 -0.075455904 0.0075692534
v 0.52313375 -0.5171392 0.37903422
v -0.19467115 -0.075455904 0.0075692534
v -0.24214125 -0.15164113 -0.009914815
v 0.4651494 -0.62366223 0.35979408
v 0.52313375 -0.5171392 0.37903422
v 0.40587854 -0.48483014 0.5535223
v -0.21009874 -0.028629541 0.08459324
v 0.49349833 -0.44772315 0.4758982
v -0.27299738 -0.05799222 0.1441353
v -0.79209375 0.46106887 -0.37468785
v -0.83747244 0.4550674 -0.35095996
v -0.9796128 0.9888933 -1.0112216
v -0.24214125 -0.15164113 -0.009914815
v -0.30503893 -0.18100333 0.049627244
v 0.37752962 -0.6607692 0.43741816
v 0.4651494 -0.62366223 0.35979408
v 0.34789515 -0.5913522 0.5342811
v -0.32046652 -0.1341765 0.12665123
v -0.27299738 -0.05799222 0.1441353
v 0.40587854 -0.48483014 0.5535223
v -0.30503893 -0.18100333 0.049627244
v -0.32046652 -0.1341765 0.12665123
v 0.34789515 -0.5913522 0.5342811
v 0.37752962 -0.6607692 0.43741816
v -0.21009874 -0.028629541 0.08459324
v -0.79209375 0.46106887 -0.37468785
v -0.7793498 0.43036628 -0.41409796
v -0.19467115 -0.075455904 0.0075692534
v -0.7793498 0.43036628 -0.41409796
v -0.81198454 0.39365935 -0.42977995
v -0.24214125 -0.15164113 -0.009914815
v -0.19467115 -0.075455904 0.0075692534
v -0.81198454 0.39365935 -0.42977995
v -0.30503893 -0.18100333 0.049627244
v -0.24214125 -0.15164113 -0.009914815
v -0.8573632 0.38765693 -0.40605277
v -0.9796128 0.9888933 -1.0112216
v -0.32046652 -0.1341765 0.12665123
v -0.8701072 0.41836047 -0.3666429
v -0.83747244 0.4550674 -0.35095996
v -0.27299738 -0.05799222 0.1441353
v -0.8573632 0.38765693 -0.40605277
v -0.8701072 0.41836047 -0.3666429
v -0.32046652 -0.1341765 0.12665123
v -0.30503893 -0.18100333 0.049627244
v 0.9796128 -0.83287835 0.8415211
v 0.9054961 -0.960449 0.8144781
v 0.77664614 -0.9888933 0.8858071
v 0.92487955 -0.73374915 0.9398924
v 0.7219138 -0.889765 0.98417896
v 0.79602957 -0.76219296 1.0112216
vt 0.18011461 0.5541372
vt 0.1801146 0.5541372
vt 0.18011461 0.5541372
vt 0.1801146 0.5541372
vt 0.18011461 0.5541372
vt 0.18011461 0.5541372
vt 0.1801146 0.5541372
vt 0.1801146 0.5541372
vt 0.18011461 0.5541372
vt 0.1801146 0.5541372
vt 0.1801146 0.5541372
vt 0.18011461 0.5541372
vt 0.1801146 0.5541372
vt 0.18011461 0.5541372
vt 0.1801146 0.5541372
vt 0.18011461 0.5541372
vt 0.18011461 0.5541372
vt 0.1801146 0.5541372
vt 0.18011461 0.5541372
vt 0.1801146 0.5541372
vt 0.18011461 0.5541372
vt 0.18011461 0.5541372
vt 0.18011461 0.5541372
vt 0.1801146 0.5541372
vt 0.18011461 0.5541372
vt 0.1801146 0.5541372
vt 0.18011461 0.5541372
vt 0.1801146 0.5541372
vt 0.18011461 0.5541372
vt 0.18011461 0.5541372
vt 0.18011461 0.5541372
vt 0.18011461 0.5541372
vt 0.18011461 0.5541372
vt 0.1801146 0.5541372
vt 0.18011461 0.5541372
vt 0.18011461 0.5541372
vt 0.18011461 0.5541372
vt 0.18011461 0.5541372
vt 0.18011461 0.5541372
vt 0.1801146 0.5541372
vt 0.18011461 0.5541372
vt 0.18011461 0.5541372
vt 0.18011461 0.5541372
vt 0.1801146 0.5541372
vt 0.18011461 0.5541372
vt 0.18011461 0.5541372
vt 0.18011461 0.5541372
vt 0.18011461 0.5541372
vt 0.1801146 0.5541372
vt 0.1801146 0.5541372
vt 0.18011461 0.5541372
vt 0.18011461 0.5541372
vt 0.18011461 0.5541372
vt 0.1801146 0.5541372
vt 0.18011461 0.5541372
vt 0.18011461 0.5541372
vt 0.18011461 0.5541372
vt 0.18011461 0.5541372
vt 0.18011461 0.5541372
vt 0.18011461 0.5541372
vt 0.18011461 0.5541372
vt 0.18011461 0.5541372
vt 0.1801146 0.5541372
vt 0.18011461 0.5541372
vt 0.1801146 0.5541372
vt 0.18011461 0.5541372
vt 0.18011461 0.5541372
vt 0.18011461 0.5541372
vt 0.1801146 0.5541372
vt 0.18011461 0.5541372
vt 0.18011461 0.5541372
vt 0.1801146 0.5541372
vt 0.18011461 0.5541372
vt 0.18011461 0.5541372
vt 0.1801146 0.5541372
vt 0.18011461 0.5541372
vt 0.18011461 0.5541372
vt 0.1801146 0.5541372
vt 0.1801146 0.5541372
vt 0.18011461 0.5541372
vt 0.1801146 0.5541372
vt 0.1801146 0.5541372
vt 0.18011461 0.5541372
vt 0.18011461 0.5541372
vt 0.48745602 0.19557217
vt 0.48745602 0.19557217
vt 0.48745602 0.19557217
vt 0.48745602 0.19557217
vt 0.48745602 0.19557217
vt 0.48745602 0.19557217
vn 0.9332283 0.35858345 0.022422884
vn 0.9332283 0.3585835 0.022422886
vn 0.9332283 0.35858348 0.022422886
vn 0.7108226 -0.3787625 -0.5926806
vn 0.7108226 -0.3787625 -0.5926806
vn 0.7108225 -0.3787625 -0.5926805
vn -0.7386202 0.43758672 0.51279444
vn -0.7386202 0.43758667 0.51279444
vn -0.7386202 0.43758672 0.51279444
vn -0.9550276 -0.28306514 -0.08829677
vn -0.9550276 -0.28306517 -0.088296786
vn -0.9550276 -0.28306517 -0.08829677
vn 0.62403154 -0.20295647 -0.7545815
vn 0.62403154 -0.2029565 -0.7545815
vn 0.62403154 -0.2029565 -0.7545815
vn 0.62403154 -0.20295647 -0.7545815
vn 0.71150625 0.6539597 -0.25709063
vn 0.71150625 0.65395975 -0.2570906
vn 0.7115063 0.65395975 -0.2570906
vn 0.7115063 0.65395975 -0.2570906
vn 0.06394371 0.875832 0.47836122
vn 0.06394371 0.875832 0.47836122
vn 0.0639437 0.875832 0.47836122
vn 0.0639437 0.875832 0.47836116
vn -0.10502749 -0.844927 -0.5244688
vn -0.10502748 -0.844927 -0.5244688
vn -0.1050275 -0.84492695 -0.52446884
vn -0.10502749 -0.84492695 -0.52446884
vn -0.6649265 0.23504575 0.7089614
vn -0.66492647 0.23504573 0.7089614
vn -0.66492647 0.23504575 0.7089614
vn -0.66492647 0.23504575 0.7089614
vn -0.7524636 -0.6232741 0.21290341
vn -0.7524636 -0.62327415 0.21290344
vn -0.7524636 -0.6232741 0.2129034
vn -0.7524636 -0.62327415 0.21290344
vn 0.61122525 0.7219895 -0.32424483
vn 0.61122525 0.7219896 -0.3242448
vn 0.6112253 0.7219895 -0.32424483
vn 0.61122525 0.7219896 -0.32424483
vn 0.42716587 -0.06528437 -0.9018133
vn 0.42716587 -0.06528437 -0.9018133
vn 0.4271659 -0.06528437 -0.9018133
vn 0.42716587 -0.06528437 -0.9018133
vn 0.1631636 0.80566275 0.56946045
vn 0.1631636 0.80566275 0.56946045
vn 0.1631636 0.80566275 0.56946045
vn 0.16316362 0.80566275 0.5694605
vn 0.19629003 0.7844038 0.5883715
vn 0.19629003 0.7844038 0.5883715
vn 0.20425987 0.7822696 0.58849996
vn -0.20386107 -0.7743915 -0.5989645
vn -0.20386107 -0.7743915 -0.5989646
vn -0.20386107 -0.7743915 -0.5989645
vn -0.20386107 -0.7743915 -0.5989646
vn -0.46996054 0.09484748 0.87757677
vn -0.46996054 0.09484748 0.87757677
vn -0.46996054 0.09484747 0.87757677
vn -0.46996057 0.09484748 0.8775769
vn -0.65567195 -0.69512755 0.2947744
vn -0.655672 -0.69512755 0.2947744
vn -0.655672 -0.69512755 0.29477444
vn -0.655672 -0.69512755 0.29477444
vn 0.73022085 0.63685423 -0.24737445
vn 0.7302208 0.63685423 -0.24737445
vn 0.73022085 0.63685423 -0.24737446
vn 0.7302208 0.6368543 -0.24737445
vn 0.5143837 -0.11534184 -0.849768
vn 0.5143836 -0.11534185 -0.8497681
vn 0.5143836 -0.11534184 -0.849768
vn 0.5143836 -0.11534185 -0.8497681
vn -0.24247259 -0.73863024 -0.6289932
vn -0.24247256 -0.73863024 -0.6289932
vn -0.24247256 -0.73863024 -0.6289933
vn -0.2424726 -0.73863024 -0.6289933
vn -0.24925582 -0.7117269 -0.6567468
vn -0.56364864 0.1619804 0.80997694
vn -0.56364864 0.16198038 0.80997694
vn -0.5636487 0.1619804 0.80997694
vn -0.56364864 0.16198038 0.80997694
vn -0.77932143 -0.5919364 0.20559512
vn -0.77932143 -0.5919364 0.20559512
vn -0.77932143 -0.59193647 0.20559512
vn -0.77932143 -0.5919364 0.20559512
vn 0.5064818 -0.45015126 0.73541826
vn 0.50648177 -0.45015126 0.73541826
vn 0.50648177 -0.45015126 0.73541826
vn 0.50648177 -0.45015126 0.73541826
vn 0.50648606 -0.4501485 0.73541707
vn 0.5064861 -0.4501485 0.73541707
g Oak_Branch2_0
f 3/3/3 2/2/2 1/1/1
f 6/6/6 5/5/5 4/4/4
f 9/9/9 8/8/8 7/7/7
f 12/12/12 11/11/11 10/10/10
f 15/15/15 14/14/14 13/13/13
f 16/16/16 15/15/15 13/13/13
f 19/19/19 18/18/18 17/17/17
f 20/20/20 19/19/19 17/17/17
f 23/23/23 22/22/22 21/21/21
f 24/24/24 23/23/23 21/21/21
f 27/27/27 26/26/26 25/25/25
f 28/28/28 27/27/27 25/25/25
f 31/31/31 30/30/30 29/29/29
f 32/32/32 31/31/31 29/29/29
f 35/35/35 34/34/34 33/33/33
f 36/36/36 35/35/35 33/33/33
f 39/39/39 38/38/38 37/37/37
f 40/40/40 39/39/39 37/37/37
f 43/43/43 42/42/42 41/41/41
f 44/44/44 43/43/43 41/41/41
f 47/47/47 46/46/46 45/45/45
f 46/46/46 48/48/48 45/45/45
f 46/46/46 49/49/49 48/48/48
f 49/49/49 50/50/50 48/48/48
f 51/51/51 50/50/50 49/49/49
f 54/54/54 53/53/53 52/52/52
f 55/55/55 54/54/54 52/52/52
f 58/58/58 57/57/57 56/56/56
f 59/59/59 58/58/58 56/56/56
f 62/62/62 61/61/61 60/60/60
f 63/63/63 62/62/62 60/60/60
f 66/66/66 65/65/65 64/64/64
f 67/67/67 66/66/66 64/64/64
f 70/70/70 69/69/69 68/68/68
f 71/71/71 70/70/70 68/68/68
f 74/74/74 73/73/73 72/72/72
f 73/73/73 75/75/75 72/72/72
f 76/76/76 72/72/72 75/75/75
f 79/79/79 78/78/78 77/77/77
f 80/80/80 79/79/79 77/77/77
f 83/83/83 82/82/82 81/81/81
f 84/84/84 83/83/83 81/81/81
f 87/87/87 86/86/86 85/85/85
f 88/88/88 87/87/87 85/85/85
f 89/89/89 87/87/87 88/88/88
f 90/90/90 89/89/89 88/88/88
