g OldSingleCut
v 1.84444 1.14599 -0.55409
v -0 0 -3.01287
v 1.84444 -1.14599 -0.55409
v 1.84444 -1.14599 -0.55409
v -0 0 -3.01287
v 1.14599 -1.84444 -0.55409
v 1.14599 -1.84444 -0.55409
v -0 0 -3.01287
v -1.14599 -1.84444 -0.55409
v -1.14599 -1.84444 -0.55409
v -0 0 -3.01287
v -1.84444 -1.14599 -0.55409
v -1.84444 -1.14599 -0.55409
v -0 0 -3.01287
v -1.84444 1.14599 -0.55409
v -1.84444 1.14599 -0.55409
v -0 0 -3.01287
v -1.14599 1.84444 -0.55409
v -1.14599 1.84444 -0.55409
v -0 0 -3.01287
v 1.14599 1.84444 -0.55409
v 1.14599 1.84444 -0.55409
v -0 0 -3.01287
v 1.84444 1.14599 -0.55409
v 1.30656 0.81179 0
v -0.81179 1.30656 0
v 0.81179 1.30656 0
v 1.30656 -0.81179 0
v -1.30656 0.81179 0
v -1.30656 -0.81179 0
v 0.81179 -1.30656 0
v -0.81179 -1.30656 0
v 0.81179 1.30656 0
v 1.84444 1.14599 -0.55409
v 1.30656 0.81179 0
v 1.14599 1.84444 -0.55409
v -0.81179 1.30656 0
v 1.14599 1.84444 -0.55409
v 0.81179 1.30656 0
v -1.14599 1.84444 -0.55409
v -1.30656 0.81179 0
v -1.14599 1.84444 -0.55409
v -0.81179 1.30656 0
v -1.84444 1.14599 -0.55409
v -1.30656 -0.81179 0
v -1.84444 1.14599 -0.55409
v -1.30656 0.81179 0
v -1.84444 -1.14599 -0.55409
v -0.81179 -1.30656 0
v -1.84444 -1.14599 -0.55409
v -1.30656 -0.81179 0
v -1.14599 -1.84444 -0.55409
v 0.81179 -1.30656 0
v -1.14599 -1.84444 -0.55409
v -0.81179 -1.30656 0
v 1.14599 -1.84444 -0.55409
v 1.30656 -0.81179 0
v 1.14599 -1.84444 -0.55409
v 0.81179 -1.30656 0
v 1.84444 -1.14599 -0.55409
v 1.30656 0.81179 0
v 1.84444 -1.14599 -0.55409
v 1.30656 -0.81179 0
v 1.84444 1.14599 -0.55409
vt 0 0
vt 0 0
vt 0 0
vt 0 0
vt 0 0
vt 0 0
vt 0 0
vt 0 0
vt 0 0
vt 0 0
vt 0 0
vt 0 0
vt 0 0
vt 0 0
vt 0 0
vt 0 0
vt 0 0
vt 0 0
vt 0 0
vt 0 0
vt 0 0
vt 0 0
vt 0 0
vt 0 0
vt 0 0
vt 0 0
vt 0 0
vt 0 0
vt 0 0
vt 0 0
vt 0 0
vt 0 0
vt 0 0
vt 0 0
vt 0 0
vt 0 0
vt 0 0
vt 0 0
vt 0 0
vt 0 0
vt 0 0
vt 0 0
vt 0 0
vt 0 0
vt 0 0
vt 0 0
vt 0 0
vt 0 0
vt 0 0
vt 0 0
vt 0 0
vt 0 0
vt 0 0
vt 0 0
vt 0 0
vt 0 0
vt 0 0
vt 0 0
vt 0 0
vt 0 0
vt 0 0
vt 0 0
vt 0 0
vt 0 0
vn 0.79994464 0 -0.60007393
vn 0.79994464 0 -0.60007393
vn 0.79994464 0 -0.60007393
vn 0.5361177 -0.5361177 -0.65203977
vn 0.5361177 -0.5361177 -0.65203977
vn 0.5361177 -0.5361177 -0.65203977
vn -0 -0.79994464 -0.60007393
vn -0 -0.79994464 -0.60007393
vn -0 -0.79994464 -0.60007393
vn -0.5361177 -0.5361177 -0.65203977
vn -0.5361177 -0.5361177 -0.65203977
vn -0.5361177 -0.5361177 -0.65203977
vn -0.79994464 0 -0.60007393
vn -0.79994464 0 -0.60007393
vn -0.79994464 0 -0.60007393
vn -0.5361177 0.5361177 -0.65203977
vn -0.5361177 0.5361177 -0.65203977
vn -0.5361177 0.5361177 -0.65203977
vn -0 0.79994464 -0.60007393
vn -0 0.79994464 -0.60007393
vn -0 0.79994464 -0.60007393
vn 0.5361177 0.5361177 -0.65203977
vn 0.5361177 0.5361177 -0.65203977
vn 0.5361177 0.5361177 -0.65203977
vn -0 0 1
vn -0 0 1
vn -0 0 1
vn -0 0 1
vn -0 0 1
vn -0 0 1
vn -0 0 1
vn -0 0 1
vn 0.47260606 0.47260606 0.7438327
vn 0.47260606 0.47260606 0.7438327
vn 0.47260606 0.47260606 0.7438327
vn 0.47260606 0.47260606 0.7438327
vn -0 0.7175245 0.69653314
vn -0 0.7175245 0.69653314
vn -0 0.7175245 0.69653314
vn -0 0.7175245 0.69653314
vn -0.47260606 0.47260606 0.7438327
vn -0.47260606 0.47260606 0.7438327
vn -0.47260606 0.47260606 0.7438327
vn -0.47260606 0.47260606 0.7438327
vn -0.7175245 0 0.69653314
vn -0.7175245 0 0.69653314
vn -0.7175245 0 0.69653314
vn -0.7175245 0 0.69653314
vn -0.47260606 -0.47260606 0.7438327
vn -0.47260606 -0.47260606 0.7438327
vn -0.47260606 -0.47260606 0.7438327
vn -0.47260606 -0.47260606 0.7438327
vn -0 -0.7175245 0.69653314
vn -0 -0.7175245 0.69653314
vn -0 -0.7175245 0.69653314
vn -0 -0.7175245 0.69653314
vn 0.47260606 -0.47260606 0.7438327
vn 0.47260606 -0.47260606 0.7438327
vn 0.47260606 -0.47260606 0.7438327
vn 0.47260606 -0.47260606 0.7438327
vn 0.7175245 0 0.69653314
vn 0.7175245 0 0.69653314
vn 0.7175245 0 0.69653314
vn 0.7175245 0 0.69653314
g OldSingleCut_0
f 3/3/3 2/2/2 1/1/1
f 6/6/6 5/5/5 4/4/4
f 9/9/9 8/8/8 7/7/7
f 12/12/12 11/11/11 10/10/10
f 15/15/15 14/14/14 13/13/13
f 18/18/18 17/17/17 16/16/16
f 21/21/21 20/20/20 19/19/19
f 24/24/24 23/23/23 22/22/22
f 27/27/27 26/26/26 25/25/25
f 25/25/25 26/26/26 28/28/28
f 26/26/26 29/29/29 28/28/28
f 29/29/29 30/30/30 28/28/28
f 28/28/28 30/30/30 31/31/31
f 30/30/30 32/32/32 31/31/31
f 35/35/35 34/34/34 33/33/33
f 36/36/36 33/33/33 34/34/34
f 39/39/39 38/38/38 37/37/37
f 40/40/40 37/37/37 38/38/38
f 43/43/43 42/42/42 41/41/41
f 44/44/44 41/41/41 42/42/42
f 47/47/47 46/46/46 45/45/45
f 48/48/48 45/45/45 46/46/46
f 51/51/51 50/50/50 49/49/49
f 52/52/52 49/49/49 50/50/50
f 55/55/55 54/54/54 53/53/53
f 56/56/56 53/53/53 54/54/54
f 59/59/59 58/58/58 57/57/57
f 60/60/60 57/57/57 58/58/58
f 63/63/63 62/62/62 61/61/61
f 64/64/64 61/61/61 62/62/62
