g Outside
v -17.095728 -10.007187 -26.986078
v -17.095728 -14.400144 -35.89987
v -17.095728 -9.225203 -26.986078
v -17.095728 -10.828608 -26.986078
v -17.095728 -10.007187 -26.986078
v -17.095732 -7.3928385 -28.892378
v -17.12271 -2.861023E-05 -35.89988
v -17.095732 -3.4433799 -28.892378
v -17.095728 -1.6110153 -26.986078
v -17.12271 -2.9563904E-05 -26.986078
v -17.095732 -3.4433799 -28.892378
v -17.12271 -2.861023E-05 -35.89988
v -17.095728 -1.6110153 -26.986078
v -17.095728 -9.225203 -26.986078
v -17.095728 -14.400144 -35.89987
v -17.095732 -7.3928385 -28.892378
v -17.095728 -10.828608 -26.986078
v -17.095728 -14.400143 -26.986078
v -17.095728 -14.400144 -35.89987
v 41.614075 -1.5258789E-05 -26.986101
v 38.037064 -1.7166138E-05 -26.986097
v 41.614075 -2.9563904E-05 -35.89987
v 41.614075 -2.9563904E-05 -35.89987
v 41.614075 -14.400143 -35.89987
v 41.614075 -14.400128 -26.986101
v 41.614075 -1.5258789E-05 -26.986101
v 8.499126 -2.861023E-05 -35.89988
v 41.614075 -14.400143 -35.89987
v 41.614075 -2.9563904E-05 -35.89987
v 8.499126 -14.400143 -35.89987
v -0 -2.861023E-05 -35.89988
v -0 -14.400144 -35.89987
v -17.095728 0 10.33386
v -17.095728 -14.400114 10.33386
v -17.095728 -14.400114 0
v -17.095728 0 0
v 41.614075 -3.8146973E-06 -4.9591064E-05
v 41.614075 -1.5258789E-05 -26.986101
v 41.614075 -14.400128 -26.986101
v 41.614075 -14.400118 -4.9591064E-05
v 38.037064 0 10.33386
v 41.614075 0 10.33386
v 41.614075 -14.400114 10.33386
v 38.037064 -14.400114 10.33386
v 8.499126 -2.861023E-05 -35.89988
v 41.614075 -2.9563904E-05 -35.89987
v 38.037064 -1.7166138E-05 -26.986097
v 8.4988985 -2.670288E-05 -26.986086
v 38.037064 -4.7683716E-06 -4.7683716E-05
v 41.614075 -1.5258789E-05 -26.986101
v 41.614075 -3.8146973E-06 -4.9591064E-05
v 38.037064 0 10.33386
v 41.614075 0 10.33386
v 8.630777 -14.400114 10.33386
v 38.037064 0 10.33386
v 38.037064 -14.400114 10.33386
v 8.506119 0 10.33386
v -0.0049057007 -14.400114 10.33386
v -0.004907608 0 10.33386
v -17.095728 -14.400114 10.33386
v -17.095728 0 10.33386
v 41.614075 0 10.33386
v 41.614075 -3.8146973E-06 -4.9591064E-05
v 41.614075 -14.400118 -4.9591064E-05
v 41.614075 -14.400114 10.33386
v 8.506119 -9.536743E-07 -2.0980835E-05
v 38.037064 -4.7683716E-06 -4.7683716E-05
v 38.037064 0 10.33386
v 8.506119 0 10.33386
v -17.095728 -14.400114 0
v -0.0049057007 -14.400114 0
v -0.004907608 0 -1.5258789E-05
v -17.095728 0 0
v -2.1375904 -10.007187 -26.986078
v -17.095728 -10.007187 -26.986078
v -17.095728 -9.225203 -26.986078
v -2.1375904 -9.225203 -26.986078
v -2.1375904 -10.828608 -26.986078
v -17.095728 -10.828608 -26.986078
v -17.095728 -10.007187 -26.986078
v -2.1375904 -10.007187 -26.986078
v -2.1375904 -1.6110153 -26.986078
v -17.095728 -1.6110153 -26.986078
v -17.12271 -2.9563904E-05 -26.986078
v -0 -2.9563904E-05 -26.986078
v -2.1375942 -3.4433799 -28.892378
v -17.095732 -3.4433799 -28.892378
v -17.095728 -1.6110153 -26.986078
v -2.1375904 -1.6110153 -26.986078
v -2.1375904 -9.225203 -26.986078
v -17.095728 -9.225203 -26.986078
v -17.095732 -7.3928385 -28.892378
v -2.1375942 -7.3928385 -28.892378
v -2.1375942 -7.3928385 -28.892378
v -17.095732 -7.3928385 -28.892378
v -17.095732 -3.4433799 -28.892378
v -2.1375942 -3.4433799 -28.892378
v -0 -2.861023E-05 -35.89988
v -17.12271 -2.861023E-05 -35.89988
v -17.095728 -14.400144 -35.89987
v -0 -14.400144 -35.89987
v -0 -14.400144 -35.89987
v -17.095728 -14.400144 -35.89987
v -17.095728 -14.400143 -26.986078
v -2.1375904 -14.400143 -26.986078
v -2.1375904 -14.400143 -26.986078
v -17.095728 -14.400143 -26.986078
v -17.095728 -10.828608 -26.986078
v -2.1375904 -10.828608 -26.986078
v -4.005432E-05 3.9148483 -8.583069E-05
v 8.506119 3.9148283 -2.0980835E-05
v 8.506119 3.9148293 10.33386
v -0.004907608 3.9148293 10.33386
v -0 3.9148006 -35.89988
v 8.499126 3.9148006 -35.89988
v 8.4988985 3.9148026 -26.986086
v -0 3.9147997 -26.986078
v -17.11033 0 -1.5258789E-05
v -17.105463 3.9148483 -8.583069E-05
v -17.11033 3.9148293 10.33386
v -17.11033 0 10.33386
v -0.004907608 0 10.33386
v 8.506119 3.9148293 10.33386
v 8.506119 0 10.33386
v -0.004907608 3.9148293 10.33386
v -17.11033 3.9148293 10.33386
v -17.11033 0 10.33386
v 8.506119 0 10.33386
v 8.506119 3.9148293 10.33386
v 8.506119 3.9148283 -2.0980835E-05
v 8.506119 -9.536743E-07 -2.0980835E-05
v 8.506119 -9.536743E-07 -2.0980835E-05
v 8.506119 3.9148283 -2.0980835E-05
v -4.005432E-05 3.9148483 -8.583069E-05
v -0.004907608 0 -1.5258789E-05
v -17.12271 -2.861023E-05 -35.89988
v -17.12271 3.9148006 -35.89988
v -17.12271 3.9147997 -26.986078
v -17.12271 -2.9563904E-05 -26.986078
v -0 -2.9563904E-05 -26.986078
v -0 3.9147997 -26.986078
v 8.4988985 3.9148026 -26.986086
v 8.4988985 -2.670288E-05 -26.986086
v 8.4988985 -2.670288E-05 -26.986086
v 8.4988985 3.9148026 -26.986086
v 8.499126 3.9148006 -35.89988
v 8.499126 -2.861023E-05 -35.89988
v 8.499126 -2.861023E-05 -35.89988
v 8.499126 3.9148006 -35.89988
v -0 3.9148006 -35.89988
v -0 -2.861023E-05 -35.89988
v -17.12271 -2.861023E-05 -35.89988
v -17.12271 3.9148006 -35.89988
v -0 -2.861023E-05 -35.89988
v -17.12271 -2.861023E-05 -35.89988
v -17.12271 -2.9563904E-05 -26.986078
v -0 -2.9563904E-05 -26.986078
v -0 -2.9563904E-05 -26.986078
v -17.12271 -2.9563904E-05 -26.986078
v -17.12271 3.9147997 -26.986078
v -0 3.9147997 -26.986078
v -0 3.9147997 -26.986078
v -17.12271 3.9147997 -26.986078
v -17.12271 3.9148006 -35.89988
v -0 3.9148006 -35.89988
v -0.004907608 0 -1.5258789E-05
v -17.11033 0 -1.5258789E-05
v -17.11033 0 10.33386
v -0.004907608 0 10.33386
v -0.004907608 3.9148293 10.33386
v -17.11033 3.9148293 10.33386
v -17.105463 3.9148483 -8.583069E-05
v -4.005432E-05 3.9148483 -8.583069E-05
v -4.005432E-05 3.9148483 -8.583069E-05
v -17.105463 3.9148483 -8.583069E-05
v -17.11033 0 -1.5258789E-05
v -0.004907608 0 -1.5258789E-05
vt 0.28823364 0.15148416
vt 0.291053 0.15900245
vt 0.29575193 0.15148416
vt 0.28823364 0.15148416
vt 0.29575193 0.15148416
vt 0.28823364 0.15148416
vt 0.29324585 0.15900248
vt 0.29575193 0.15148416
vt 0.28823364 0.15148416
vt 0.29575193 0.15148416
vt 0.28823364 0.15148416
vt 0.29324585 0.15900248
vt 0.29575193 0.15148416
vt 0.28823364 0.15148416
vt 0.291053 0.15900245
vt 0.29575193 0.15148416
vt 0.2860737 0.15100172
vt 0.2860737 0.15994504
vt 0.295017 0.15547338
vt 0.29199278 0.15148416
vt 0.29575193 0.15148419
vt 0.29575193 0.15900245
vt 0.29575193 0.15900245
vt 0.2860737 0.15994504
vt 0.295017 0.15994504
vt 0.29199278 0.15148416
vt 0.29377306 0.15900248
vt 0.295017 0.15994504
vt 0.29575193 0.15900245
vt 0.29188693 0.15920076
vt 0.29324585 0.15900248
vt 0.291053 0.15900245
vt 0.2901132 0.15900245
vt 0.29324585 0.15900248
vt 0.295017 0.15994504
vt 0.28823364 0.15148416
vt 0.28926557 0.15693861
vt 0.29199278 0.15148416
vt 0.2860737 0.15994504
vt 0.292562 0.15994504
vt 0.28823364 0.15900245
vt 0.28823364 0.15900245
vt 0.2860737 0.15994504
vt 0.2867921 0.15994504
vt 0.29377306 0.15900248
vt 0.29575193 0.15900245
vt 0.29575193 0.15148419
vt 0.29575193 0.15148416
vt 0.29029745 0.15693864
vt 0.29199278 0.15148416
vt 0.28926557 0.15693861
vt 0.28823364 0.15900245
vt 0.28823364 0.15900245
vt 0.29174593 0.15725178
vt 0.28823364 0.15900245
vt 0.2867921 0.15994504
vt 0.2893657 0.15900245
vt 0.2932007 0.15646085
vt 0.28969815 0.15900245
vt 0.295017 0.15547338
vt 0.2901132 0.15900245
vt 0.28823364 0.15900245
vt 0.28926557 0.15693861
vt 0.292562 0.15994504
vt 0.295017 0.15994504
vt 0.28905442 0.15365344
vt 0.29029745 0.15693864
vt 0.28823364 0.15900245
vt 0.2893657 0.15900245
vt 0.28444105 0.14860967
vt 0.28444105 0.15914938
vt 0.29498076 0.15914938
vt 0.29498076 0.14860967
vt 0.28823364 0.15148416
vt 0.28823364 0.15148416
vt 0.29575193 0.15148416
vt 0.29575193 0.15148416
vt 0.28823364 0.15148416
vt 0.28823364 0.15148416
vt 0.29575193 0.15148416
vt 0.29575193 0.15148416
vt 0.28823364 0.15148416
vt 0.28823364 0.15148416
vt 0.29575193 0.15148416
vt 0.29575193 0.15148416
vt 0.28823364 0.15148416
vt 0.28823364 0.15148416
vt 0.29575193 0.15148416
vt 0.29575193 0.15148416
vt 0.28823364 0.15148416
vt 0.28823364 0.15148416
vt 0.29575193 0.15148416
vt 0.29575193 0.15148416
vt 0.28823364 0.15148416
vt 0.28823364 0.15148416
vt 0.29575193 0.15148416
vt 0.29575193 0.15148416
vt 0.29324585 0.15900248
vt 0.29324585 0.15900248
vt 0.291053 0.15900245
vt 0.291053 0.15900245
vt 0.295017 0.15547338
vt 0.295017 0.15547338
vt 0.2860737 0.15994504
vt 0.2860737 0.15994504
vt 0.2860737 0.15994504
vt 0.2860737 0.15994504
vt 0.2860737 0.15100172
vt 0.2860737 0.15100172
vt 0.44969675 0.14498088
vt 0.4500618 0.14594564
vt 0.45037308 0.15129465
vt 0.45070553 0.15129465
vt 0.45425323 0.15129468
vt 0.45478043 0.15129468
vt 0.4567593 0.14377636
vt 0.4567593 0.14377636
vt 0.44969675 0.14498088
vt 0.44969675 0.14498088
vt 0.45070553 0.15129465
vt 0.45070553 0.15129465
vt 0.45070553 0.15129465
vt 0.45037308 0.15129465
vt 0.45037308 0.15129465
vt 0.45070553 0.15129465
vt 0.45070553 0.15129465
vt 0.45070553 0.15129465
vt 0.45037308 0.15129465
vt 0.45037308 0.15129465
vt 0.4500618 0.14594564
vt 0.4500618 0.14594564
vt 0.28905442 0.15365344
vt 0.28905442 0.15365344
vt 0.28868937 0.15268868
vt 0.28868937 0.15268868
vt 0.45425323 0.15129468
vt 0.45425323 0.15129468
vt 0.4567593 0.14377636
vt 0.4567593 0.14377636
vt 0.29575193 0.15148416
vt 0.29575193 0.15148416
vt 0.29575193 0.15148416
vt 0.29575193 0.15148416
vt 0.4567593 0.14377636
vt 0.4567593 0.14377636
vt 0.45478043 0.15129468
vt 0.45478043 0.15129468
vt 0.45478043 0.15129468
vt 0.45478043 0.15129468
vt 0.45425323 0.15129468
vt 0.45425323 0.15129468
vt 0.45425323 0.15129468
vt 0.45425323 0.15129468
vt 0.45425323 0.15129468
vt 0.45425323 0.15129468
vt 0.4567593 0.14377636
vt 0.4567593 0.14377636
vt 0.4567593 0.14377636
vt 0.4567593 0.14377636
vt 0.4567593 0.14377636
vt 0.4567593 0.14377636
vt 0.4567593 0.14377636
vt 0.4567593 0.14377636
vt 0.45425323 0.15129468
vt 0.45425323 0.15129468
vt 0.44969675 0.14498088
vt 0.44969675 0.14498088
vt 0.45070553 0.15129465
vt 0.45070553 0.15129465
vt 0.45070553 0.15129465
vt 0.45070553 0.15129465
vt 0.44969675 0.14498088
vt 0.44969675 0.14498088
vt 0.44969675 0.14498088
vt 0.44969675 0.14498088
vt 0.44969675 0.14498088
vt 0.44969675 0.14498088
vn -1 0 0
vn -1 0 0
vn -1 0 0
vn -1 0 0
vn -1 0 0
vn -0.9999963 -0.0014705213 0.0022985453
vn -0.9998597 -0.016748313 0
vn -0.9999963 -0.0014705214 0.0022985456
vn -0.9998597 -0.016748315 0
vn -0.9998597 -0.016748315 0
vn -0.9999933 -0.002648439 0.002548162
vn -0.9999933 -0.002648439 0.0025481621
vn -0.9999933 -0.002648439 0.0025481621
vn -1 0 0
vn -1 0 0
vn -1 0 0
vn -1 0 0
vn -1 0 0
vn -1 0 0
vn -0 1 0
vn -0 1 0
vn -0 1 0
vn 1 0 0
vn 1 0 0
vn 1 0 0
vn 1 0 0
vn -0 0 -1
vn -0 0 -1
vn -0 0 -1
vn -0 0 -1
vn -0 0 -1
vn -0 0 -1
vn -1 0 0
vn -1 0 0
vn -1 0 0
vn -1 0 0
vn 1 0 0
vn 1 0 0
vn 1 0 0
vn 1 0 0
vn -0 0 1
vn -0 0 1
vn -0 0 1
vn -0 0 1
vn -0 1 0
vn -0 1 0
vn -0 1 0
vn -0 1 0
vn -0 1 0
vn -0 1 0
vn -0 1 0
vn -0 1 0
vn -0 1 0
vn -0 0 1
vn -0 0 1
vn -0 0 1
vn -0 0 1
vn -0 0 1
vn -0 0 1
vn -0 0 1
vn -0 0 1
vn 1 0 0
vn 1 0 0
vn 1 0 0
vn 1 0 0
vn -0 1 0
vn -0 1 0
vn -0 1 0
vn -0 1 0
vn -0 0 -1
vn -0 0 -1
vn -0 0 -1
vn -0 0 -1
vn -0 0 1
vn -0 0 1
vn -0 0 1
vn -0 0 1
vn -0 0 1
vn -0 0 1
vn -0 0 1
vn -0 0 1
vn -0 0 1
vn -0 0 1
vn -0 0 1
vn -0 0 1
vn -0 -0.7209495 0.6929877
vn -0 -0.7209495 0.6929877
vn -0 -0.7209495 0.6929877
vn -0 -0.7209495 0.6929877
vn -0 0.72094935 0.69298774
vn -0 0.72094935 0.6929878
vn -0 0.72094935 0.69298774
vn -0 0.72094935 0.6929878
vn -0 0 1
vn -0 0 1
vn -0 0 1
vn -0 0 1
vn -0 0 -1
vn -0 0 -1
vn -0 0 -1
vn -0 0 -1
vn -0 -1 0
vn -0 -1 0
vn -0 -1 0
vn -0 -1 0
vn -0 0 1
vn -0 0 1
vn -0 0 1
vn -0 0 1
vn -0 1 0
vn -0 1 0
vn -0 1 0
vn -0 1 0
vn -0 1 0
vn -0 1 0
vn -0 1 0
vn -0 1 0
vn -0.99999976 0.0006219913 -0.00023551298
vn -0.99999976 0.00062199123 -0.000235513
vn -0.99999976 0.00062199123 -0.00023551298
vn -0.99999976 0.0006219912 -0.000235513
vn -0 0 1
vn -0 0 1
vn -0 0 1
vn -0 0 1
vn -0 0 1
vn -0 0 1
vn 1 0 0
vn 1 0 0
vn 1 0 0
vn 1 0 0
vn -0 0 -1
vn -0 0 -1
vn -0 0 -1
vn -0 0 -1
vn -1 0 0
vn -1 0 0
vn -1 0 0
vn -1 0 0
vn -0 0 1
vn -0 0 1
vn -0 0 1
vn -0 0 1
vn 1 0 2.5570289E-05
vn 1 0 2.5570293E-05
vn 1 0 2.5570289E-05
vn 1 0 2.5570293E-05
vn -0 0 -1
vn -0 0 -1
vn -0 0 -1
vn -0 0 -1
vn -0 0 -1
vn -0 0 -1
vn -0 -1 0
vn -0 -1 0
vn -0 -1 0
vn -0 -1 0
vn -0 0 1
vn -0 0 1
vn -0 0 1
vn -0 0 1
vn -0 1 0
vn -0 1 0
vn -0 1 0
vn -0 1 0
vn -0 -1 0
vn -0 -1 0
vn -0 -1 0
vn -0 -1 0
vn -0 1 0
vn -0 1 0
vn -0 1 0
vn -0 1 0
vn -0 -1.8026729E-05 -1
vn -0 -1.8026729E-05 -1
vn -0 -1.8026729E-05 -1
vn -0 -1.8026729E-05 -1
g Outside_0
f 3/3/3 2/2/2 1/1/1
f 5/5/5 2/2/2 4/4/4
f 7/7/7 2/2/2 6/6/6
f 8/8/8 7/7/7 6/6/6
f 10/10/10 7/7/7 9/9/9
f 13/13/13 12/12/12 11/11/11
f 16/16/16 15/15/15 14/14/14
f 19/19/19 18/18/18 17/17/17
f 22/22/22 21/21/21 20/20/20
f 25/25/25 24/24/24 23/23/23
f 26/26/26 25/25/25 23/23/23
f 29/29/29 28/28/28 27/27/27
f 28/28/28 30/30/30 27/27/27
f 27/27/27 30/30/30 31/31/31
f 30/30/30 32/32/32 31/31/31
f 35/35/35 34/34/34 33/33/33
f 36/36/36 35/35/35 33/33/33
f 39/39/39 38/38/38 37/37/37
f 40/40/40 39/39/39 37/37/37
f 43/43/43 42/42/42 41/41/41
f 44/44/44 43/43/43 41/41/41
f 47/47/47 46/46/46 45/45/45
f 48/48/48 47/47/47 45/45/45
f 50/50/50 47/47/47 49/49/49
f 51/51/51 50/50/50 49/49/49
f 51/51/51 49/49/49 52/52/52
f 53/53/53 51/51/51 52/52/52
f 56/56/56 55/55/55 54/54/54
f 55/55/55 57/57/57 54/54/54
f 54/54/54 57/57/57 58/58/58
f 57/57/57 59/59/59 58/58/58
f 58/58/58 59/59/59 60/60/60
f 59/59/59 61/61/61 60/60/60
f 64/64/64 63/63/63 62/62/62
f 65/65/65 64/64/64 62/62/62
f 68/68/68 67/67/67 66/66/66
f 69/69/69 68/68/68 66/66/66
f 72/72/72 71/71/71 70/70/70
f 73/73/73 72/72/72 70/70/70
f 76/76/76 75/75/75 74/74/74
f 77/77/77 76/76/76 74/74/74
f 80/80/80 79/79/79 78/78/78
f 81/81/81 80/80/80 78/78/78
f 84/84/84 83/83/83 82/82/82
f 85/85/85 84/84/84 82/82/82
f 88/88/88 87/87/87 86/86/86
f 89/89/89 88/88/88 86/86/86
f 92/92/92 91/91/91 90/90/90
f 93/93/93 92/92/92 90/90/90
f 96/96/96 95/95/95 94/94/94
f 97/97/97 96/96/96 94/94/94
f 100/100/100 99/99/99 98/98/98
f 101/101/101 100/100/100 98/98/98
f 104/104/104 103/103/103 102/102/102
f 105/105/105 104/104/104 102/102/102
f 108/108/108 107/107/107 106/106/106
f 109/109/109 108/108/108 106/106/106
f 112/112/112 111/111/111 110/110/110
f 113/113/113 112/112/112 110/110/110
f 116/116/116 115/115/115 114/114/114
f 117/117/117 116/116/116 114/114/114
f 120/120/120 119/119/119 118/118/118
f 121/121/121 120/120/120 118/118/118
f 124/124/124 123/123/123 122/122/122
f 123/123/123 125/125/125 122/122/122
f 125/125/125 126/126/126 122/122/122
f 126/126/126 127/127/127 122/122/122
f 130/130/130 129/129/129 128/128/128
f 131/131/131 130/130/130 128/128/128
f 134/134/134 133/133/133 132/132/132
f 135/135/135 134/134/134 132/132/132
f 138/138/138 137/137/137 136/136/136
f 139/139/139 138/138/138 136/136/136
f 142/142/142 141/141/141 140/140/140
f 143/143/143 142/142/142 140/140/140
f 146/146/146 145/145/145 144/144/144
f 147/147/147 146/146/146 144/144/144
f 150/150/150 149/149/149 148/148/148
f 151/151/151 150/150/150 148/148/148
f 151/151/151 152/152/152 150/150/150
f 152/152/152 153/153/153 150/150/150
f 156/156/156 155/155/155 154/154/154
f 157/157/157 156/156/156 154/154/154
f 160/160/160 159/159/159 158/158/158
f 161/161/161 160/160/160 158/158/158
f 164/164/164 163/163/163 162/162/162
f 165/165/165 164/164/164 162/162/162
f 168/168/168 167/167/167 166/166/166
f 169/169/169 168/168/168 166/166/166
f 172/172/172 171/171/171 170/170/170
f 173/173/173 172/172/172 170/170/170
f 176/176/176 175/175/175 174/174/174
f 177/177/177 176/176/176 174/174/174
