g pb_Mesh-142992
v -0.050588697 -0.086549215 0.02255249
v -0.034055658 0.2659242 0.02255249
v -0.038287185 -0.086549215 0.043341428
v -0.021754155 0.2659242 0.043341428
v -0.038287185 -0.086549215 0.043341428
v -0.021754155 0.2659242 0.043341428
v -0.008588739 -0.086549215 0.05195249
v 0.00794433 0.2659242 0.05195249
v -0.008588739 -0.086549215 0.05195249
v 0.00794433 0.2659242 0.05195249
v 0.021109758 -0.086549215 0.043341428
v 0.03764282 0.2659242 0.043341428
v 0.021109758 -0.086549215 0.043341428
v 0.03764282 0.2659242 0.043341428
v 0.03341128 -0.086549215 0.022552487
v 0.049944326 0.2659242 0.022552487
v 0.03341128 -0.086549215 0.022552487
v 0.049944326 0.2659242 0.022552487
v 0.021109758 -0.086549215 0.0017635487
v 0.03764282 0.2659242 0.0017635487
v 0.021109758 -0.086549215 0.0017635487
v 0.03764282 0.2659242 0.0017635487
v -0.008588739 -0.086549215 -0.006847512
v 0.007944328 0.2659242 -0.006847512
v -0.008588739 -0.086549215 -0.006847512
v 0.007944328 0.2659242 -0.006847512
v -0.038287185 -0.086549215 0.001763545
v -0.021754147 0.2659242 0.001763545
v -0.038287185 -0.086549215 0.001763545
v -0.021754147 0.2659242 0.001763545
v -0.050588697 -0.086549215 0.02255249
v -0.034055658 0.2659242 0.02255249
v -0.03419818 -0.33948314 0.04334335
v 0.011700133 -0.33179656 0.02255249
v -0.05320995 -0.34266692 0.02255249
v 0.011700133 -0.33179656 0.051952362
v 0.057598807 -0.32410997 0.04334335
v 0.07661057 -0.32092622 0.02255249
v 0.057598807 -0.32410997 0.0017616283
v 0.011700133 -0.33179656 -0.0068473816
v -0.03419818 -0.33948314 0.0017616283
v -0.034055658 0.2659242 0.02255249
v 0.007944328 0.2659242 0.02255249
v -0.021754155 0.2659242 0.043341428
v 0.00794433 0.2659242 0.05195249
v 0.03764282 0.2659242 0.043341428
v 0.049944326 0.2659242 0.022552487
v 0.03764282 0.2659242 0.0017635487
v 0.007944328 0.2659242 -0.006847512
v -0.021754147 0.2659242 0.001763545
v -0.038287185 -0.086549215 0.043341428
v -0.008588739 -0.086549215 0.05195249
v -0.037039354 -0.13986728 0.043341428
v -0.0073409057 -0.13986728 0.05195249
v -0.050588697 -0.086549215 0.02255249
v -0.038287185 -0.086549215 0.043341428
v -0.049340867 -0.13986728 0.02255249
v -0.037039354 -0.13986728 0.043341428
v -0.008588739 -0.086549215 0.05195249
v 0.021109758 -0.086549215 0.043341428
v -0.0073409057 -0.13986728 0.05195249
v 0.022357594 -0.13986728 0.043341428
v 0.021109758 -0.086549215 0.043341428
v 0.03341128 -0.086549215 0.022552487
v 0.022357594 -0.13986728 0.043341428
v 0.03465911 -0.13986728 0.022552487
v 0.03341128 -0.086549215 0.022552487
v 0.021109758 -0.086549215 0.0017635487
v 0.03465911 -0.13986728 0.022552487
v 0.022357594 -0.13986728 0.0017635487
v 0.021109758 -0.086549215 0.0017635487
v -0.008588739 -0.086549215 -0.006847512
v 0.022357594 -0.13986728 0.0017635487
v -0.0073409057 -0.13986728 -0.006847512
v -0.008588739 -0.086549215 -0.006847512
v -0.038287185 -0.086549215 0.001763545
v -0.0073409057 -0.13986728 -0.006847512
v -0.037039354 -0.13986728 0.001763545
v -0.038287185 -0.086549215 0.001763545
v -0.050588697 -0.086549215 0.02255249
v -0.037039354 -0.13986728 0.001763545
v -0.049340867 -0.13986728 0.02255249
v -0.037039354 -0.13986728 0.043341428
v -0.0073409057 -0.13986728 0.05195249
v -0.03419818 -0.33948314 0.04334335
v 0.011700133 -0.33179656 0.051952362
v -0.049340867 -0.13986728 0.02255249
v -0.037039354 -0.13986728 0.043341428
v -0.05320995 -0.34266692 0.02255249
v -0.03419818 -0.33948314 0.04334335
v -0.0073409057 -0.13986728 0.05195249
v 0.022357594 -0.13986728 0.043341428
v 0.011700133 -0.33179656 0.051952362
v 0.057598807 -0.32410997 0.04334335
v 0.022357594 -0.13986728 0.043341428
v 0.03465911 -0.13986728 0.022552487
v 0.057598807 -0.32410997 0.04334335
v 0.07661057 -0.32092622 0.02255249
v 0.03465911 -0.13986728 0.022552487
v 0.022357594 -0.13986728 0.0017635487
v 0.07661057 -0.32092622 0.02255249
v 0.057598807 -0.32410997 0.0017616283
v 0.022357594 -0.13986728 0.0017635487
v -0.0073409057 -0.13986728 -0.006847512
v 0.057598807 -0.32410997 0.0017616283
v 0.011700133 -0.33179656 -0.0068473816
v -0.0073409057 -0.13986728 -0.006847512
v -0.037039354 -0.13986728 0.001763545
v 0.011700133 -0.33179656 -0.0068473816
v -0.03419818 -0.33948314 0.0017616283
v -0.037039354 -0.13986728 0.001763545
v -0.049340867 -0.13986728 0.02255249
v -0.03419818 -0.33948314 0.0017616283
v -0.05320995 -0.34266692 0.02255249
vt -0.0063535273 -0.08869811
vt 0.0020660073 0.26406237
vt 0.017802365 -0.08869811
vt 0.026221896 0.26406237
vt -0.0247029 -0.08722479
vt -0.008823883 0.26527867
vt 0.006218745 -0.08722479
vt 0.022097798 0.26527867
vt -0.022716695 -0.085921355
vt -0.00683764 0.26658213
vt 0.008204997 -0.085921355
vt 0.024084048 0.26658213
vt -0.026550047 -0.08485573
vt -0.018130496 0.26790476
vt -0.0023941465 -0.08485573
vt 0.0060253963 0.26790476
vt -0.03642389 -0.08578222
vt -0.044843435 0.26697823
vt -0.012267996 -0.08578222
vt -0.020687548 0.26697823
vt -0.020765813 -0.086487174
vt -0.036644865 0.2660163
vt 0.010155879 -0.086487174
vt -0.0057231747 0.2660163
vt 0.0063420907 -0.08665897
vt -0.009536961 0.2658445
vt 0.037263732 -0.08665897
vt 0.021384709 0.2658445
vt 0.021015674 -0.08777162
vt 0.0125961425 0.26498887
vt 0.045171574 -0.08777162
vt 0.03675204 0.26498887
vt -0.08980024 0.04334464
vt -0.04326274 0.022553781
vt -0.109076746 0.022553781
vt -0.043263312 0.051952362
vt 0.0032749702 0.04334335
vt 0.02255207 0.022551157
vt 0.003275567 0.0017629615
vt -0.043262888 -0.0068473816
vt -0.08980081 0.0017616283
vt 0.034055658 0.02255249
vt -0.007944328 0.02255249
vt 0.021754155 0.043341428
vt -0.00794433 0.05195249
vt -0.03764282 0.043341428
vt -0.049944326 0.022552487
vt -0.03764282 0.0017635487
vt -0.007944328 -0.006847512
vt 0.021754147 0.001763545
vt -0.0247029 -0.08620659
vt 0.006218745 -0.08620659
vt -0.02350443 -0.13952579
vt 0.007417216 -0.13952579
vt -0.0063535273 -0.085423656
vt 0.017802365 -0.085423656
vt -0.005718063 -0.13875253
vt 0.018437829 -0.13875253
vt -0.022716694 -0.08685698
vt 0.008204998 -0.08685698
vt -0.021518223 -0.14017618
vt 0.009403473 -0.14017618
vt -0.026550045 -0.08734198
vt -0.0023941451 -0.08734198
vt -0.025914578 -0.14067085
vt -0.0017586808 -0.14067085
vt -0.03642389 -0.086879425
vt -0.012267995 -0.086879425
vt -0.037059356 -0.1402083
vt -0.012903461 -0.1402083
vt -0.020765813 -0.08657465
vt 0.010155879 -0.08657465
vt -0.021964287 -0.13989384
vt 0.008957407 -0.13989384
vt 0.0063420916 -0.08648893
vt 0.037263736 -0.08648893
vt 0.00514362 -0.13980812
vt 0.036065266 -0.13980812
vt 0.021015674 -0.08588621
vt 0.045171574 -0.08588621
vt 0.02038021 -0.13921508
vt 0.04453611 -0.13921508
vt -0.02350443 -0.13966079
vt 0.007417216 -0.13966079
vt -0.020775111 -0.33927822
vt 0.025704995 -0.33160955
vt -0.005718063 -0.14073409
vt 0.018437829 -0.14073409
vt -0.0076884134 -0.34356108
vt 0.019886365 -0.34028295
vt -0.021518223 -0.14113547
vt 0.009403474 -0.14113547
vt -0.0032303706 -0.333138
vt 0.043250088 -0.325579
vt -0.025914587 -0.14472042
vt -0.0017586896 -0.14472042
vt -0.007969471 -0.3314429
vt 0.019605307 -0.3292393
vt -0.03705935 -0.14075392
vt -0.012903459 -0.14075392
vt -0.05842336 -0.32537743
vt -0.030848578 -0.32737058
vt -0.021964287 -0.13991033
vt 0.008957407 -0.13991033
vt -0.0558109 -0.3244143
vt -0.009330445 -0.33184987
vt 0.00514362 -0.13957584
vt 0.036065266 -0.13957584
vt -0.013144158 -0.33157837
vt 0.03333595 -0.33913738
vt 0.02038021 -0.1394775
vt 0.04453611 -0.1394775
vt 0.01893168 -0.33910835
vt 0.046506457 -0.3422212
vn -0.9989017 0.04685426 6.9238425E-08
vn -0.9989017 0.046854254 0
vn -0.6122321 0.02871721 0.7901564
vn -0.61223197 0.02871721 0.7901565
vn -0.6122321 0.02871721 0.7901564
vn -0.61223197 0.02871721 0.7901565
vn -1.2412977E-07 -1.9395276E-09 1
vn -3.1032442E-08 2.4244096E-09 1
vn -1.2412977E-07 -1.9395276E-09 1
vn -3.1032442E-08 2.4244096E-09 1
vn 0.61223173 -0.02871725 0.7901567
vn 0.61223185 -0.02871724 0.7901566
vn 0.61223173 -0.02871725 0.7901567
vn 0.61223185 -0.02871724 0.7901566
vn 0.9989017 -0.0468543 -1.730961E-07
vn 0.9989017 -0.046854287 -1.7309605E-07
vn 0.9989017 -0.0468543 -1.730961E-07
vn 0.9989017 -0.046854287 -1.7309605E-07
vn 0.6122318 -0.028717238 -0.79015666
vn 0.6122319 -0.028717257 -0.7901566
vn 0.6122318 -0.028717238 -0.79015666
vn 0.6122319 -0.028717257 -0.7901566
vn -1.7067843E-07 7.2732287E-09 -1
vn -7.7581106E-08 -2.4244096E-09 -1
vn -1.7067843E-07 7.2732287E-09 -1
vn -7.7581106E-08 -2.4244096E-09 -1
vn -0.6122319 0.028717218 -0.79015654
vn -0.6122319 0.02871721 -0.7901566
vn -0.6122319 0.028717218 -0.79015654
vn -0.6122319 0.02871721 -0.7901566
vn -0.9989017 0.04685426 6.9238425E-08
vn -0.9989017 0.046854254 0
vn 0.165168 -0.9862655 -3.9207644E-06
vn 0.165168 -0.9862655 -3.9207644E-06
vn 0.165168 -0.9862655 -3.9207644E-06
vn 0.16516973 -0.9862652 0
vn 0.16516845 -0.9862654 0
vn 0.16516666 -0.9862657 4.0500404E-06
vn 0.16516666 -0.9862657 -4.05004E-06
vn 0.16516845 -0.9862654 0
vn 0.16516973 -0.9862652 0
vn -0 1 0
vn -0 1 0
vn -0 1 0
vn -0 1 0
vn -0 1 0
vn -0 1 0
vn -0 1 0
vn -0 1 0
vn -0 1 0
vn -0.27847412 -0.0065172766 0.9604216
vn -0.2784741 -0.0065172827 0.9604216
vn -0.2784741 -0.0065172827 0.9604216
vn -0.2784741 -0.0065172883 0.9604216
vn -0.86044115 -0.020137357 0.5091519
vn -0.86044115 -0.020137357 0.5091519
vn -0.86044115 -0.020137357 0.5091519
vn -0.86044115 -0.020137357 0.5091519
vn 0.27847368 0.0065172785 0.96042174
vn 0.27847368 0.006517287 0.96042174
vn 0.27847368 0.006517287 0.96042174
vn 0.27847365 0.0065172953 0.96042174
vn 0.8604409 0.020137442 0.5091521
vn 0.86044097 0.0201374 0.50915205
vn 0.86044097 0.0201374 0.50915205
vn 0.8604411 0.020137357 0.50915194
vn 0.8604409 0.020137351 -0.5091521
vn 0.86044097 0.020137398 -0.50915205
vn 0.86044097 0.020137398 -0.50915205
vn 0.860441 0.020137444 -0.50915194
vn 0.27847368 0.0065172957 -0.96042174
vn 0.27847368 0.006517287 -0.96042174
vn 0.27847368 0.006517287 -0.96042174
vn 0.27847365 0.006517278 -0.96042174
vn -0.278474 -0.0065172864 -0.9604217
vn -0.278474 -0.0065172804 -0.9604217
vn -0.278474 -0.0065172804 -0.9604217
vn -0.278474 -0.0065172743 -0.9604217
vn -0.86044115 -0.020137358 -0.50915176
vn -0.86044115 -0.020137358 -0.50915176
vn -0.86044115 -0.020137358 -0.50915176
vn -0.86044115 -0.020137358 -0.50915176
vn -0.27847785 -0.003954385 0.9604345
vn -0.22994386 -0.010976227 0.9718387
vn -0.22994386 -0.010976227 0.9718387
vn -0.18140987 -0.01799807 0.98324287
vn -0.8604996 0.016416913 0.5091865
vn -0.7988175 0.0029658084 0.5924251
vn -0.7988175 0.0029658084 0.5924251
vn -0.7371354 -0.010485296 0.67566377
vn 0.27837336 0.027616404 0.96007586
vn 0.22854091 0.030904656 0.97169185
vn 0.22854091 0.030904656 0.97169185
vn 0.17870846 0.03419291 0.9833078
vn 0.84918606 0.16243419 0.50249195
vn 0.7820996 0.16405158 0.590845
vn 0.7820996 0.16405158 0.590845
vn 0.71501315 0.16566896 0.679198
vn 0.8439994 0.19555515 -0.4994229
vn 0.782169 0.16667289 -0.58961076
vn 0.782169 0.16667289 -0.58961076
vn 0.7203386 0.1377906 -0.6797986
vn 0.27808517 0.05320103 -0.959082
vn 0.22974692 0.035598833 -0.97116256
vn 0.22974692 0.035598833 -0.97116256
vn 0.18140867 0.017996635 -0.98324317
vn -0.2783737 -0.02761772 -0.96007574
vn -0.23115163 -0.015113096 -0.9715059
vn -0.23115163 -0.015113096 -0.9715059
vn -0.18392956 -0.0026084702 -0.982936
vn -0.8605512 -0.012243517 -0.50921685
vn -0.7997641 0.00092747295 -0.5914
vn -0.7997641 0.00092747295 -0.5914
vn -0.738977 0.014098463 -0.67358315
g pb_Mesh-142992_0
f 3/3/3 2/2/2 1/1/1
f 3/3/3 4/4/4 2/2/2
f 7/7/7 6/6/6 5/5/5
f 7/7/7 8/8/8 6/6/6
f 11/11/11 10/10/10 9/9/9
f 11/11/11 12/12/12 10/10/10
f 15/15/15 14/14/14 13/13/13
f 15/15/15 16/16/16 14/14/14
f 19/19/19 18/18/18 17/17/17
f 19/19/19 20/20/20 18/18/18
f 23/23/23 22/22/22 21/21/21
f 23/23/23 24/24/24 22/22/22
f 27/27/27 26/26/26 25/25/25
f 27/27/27 28/28/28 26/26/26
f 31/31/31 30/30/30 29/29/29
f 31/31/31 32/32/32 30/30/30
f 35/35/35 34/34/34 33/33/33
f 33/33/33 34/34/34 36/36/36
f 36/36/36 34/34/34 37/37/37
f 37/37/37 34/34/34 38/38/38
f 38/38/38 34/34/34 39/39/39
f 39/39/39 34/34/34 40/40/40
f 40/40/40 34/34/34 41/41/41
f 41/41/41 34/34/34 35/35/35
f 44/44/44 43/43/43 42/42/42
f 45/45/45 43/43/43 44/44/44
f 46/46/46 43/43/43 45/45/45
f 47/47/47 43/43/43 46/46/46
f 48/48/48 43/43/43 47/47/47
f 49/49/49 43/43/43 48/48/48
f 50/50/50 43/43/43 49/49/49
f 42/42/42 43/43/43 50/50/50
f 53/53/53 52/52/52 51/51/51
f 53/53/53 54/54/54 52/52/52
f 57/57/57 56/56/56 55/55/55
f 57/57/57 58/58/58 56/56/56
f 61/61/61 60/60/60 59/59/59
f 61/61/61 62/62/62 60/60/60
f 65/65/65 64/64/64 63/63/63
f 65/65/65 66/66/66 64/64/64
f 69/69/69 68/68/68 67/67/67
f 69/69/69 70/70/70 68/68/68
f 73/73/73 72/72/72 71/71/71
f 73/73/73 74/74/74 72/72/72
f 77/77/77 76/76/76 75/75/75
f 77/77/77 78/78/78 76/76/76
f 81/81/81 80/80/80 79/79/79
f 81/81/81 82/82/82 80/80/80
f 85/85/85 84/84/84 83/83/83
f 85/85/85 86/86/86 84/84/84
f 89/89/89 88/88/88 87/87/87
f 89/89/89 90/90/90 88/88/88
f 93/93/93 92/92/92 91/91/91
f 93/93/93 94/94/94 92/92/92
f 97/97/97 96/96/96 95/95/95
f 97/97/97 98/98/98 96/96/96
f 101/101/101 100/100/100 99/99/99
f 101/101/101 102/102/102 100/100/100
f 105/105/105 104/104/104 103/103/103
f 105/105/105 106/106/106 104/104/104
f 109/109/109 108/108/108 107/107/107
f 109/109/109 110/110/110 108/108/108
f 113/113/113 112/112/112 111/111/111
f 113/113/113 114/114/114 112/112/112
