g pb_Mesh367878
v -0.5 0.51499987 0
v -1 0 0
v -0 0 0
v -0.5 0.51499987 0
v -1 0 1
v -1 0 0
v -0.5 0.51499987 1
v -0.5 0.51499987 1
v -0 0 1
v -1 0 1
v -0.5 0.51499987 1
v -0 0 0
v -0 0 1
v -0.5 0.51499987 0
v -0 0 0
v -1 0 0
v -0 0 1
v -1 0 1
vt 0.5 0.51499987
vt 1 0
vt 0 0
vt 0 0.021210682
vt 1 -0.696581
vt 0 -0.696581
vt 1 0.021210682
vt -0.5 0.51499987
vt 0 0
vt -1 0
vt -1 0.7177917
vt 0 0
vt -1 0
vt 0 0.7177917
vt 0 0
vt -1 0
vt 0 1
vt -1 1
vn -0 0 -1
vn -0 0 -1
vn -0 0 -1
vn -0.7174782 0.69658095 0
vn -0.7174782 0.69658095 0
vn -0.7174782 0.69658095 0
vn -0.7174782 0.69658095 0
vn -0 0 1
vn -0 0 1
vn -0 0 1
vn 0.7174782 0.69658095 0
vn 0.7174782 0.69658095 0
vn 0.7174782 0.69658095 0
vn 0.7174782 0.69658095 0
vn -0 -1 0
vn -0 -1 0
vn -0 -1 0
vn -0 -1 0
g pb_Mesh367878_0
f 3/3/3 2/2/2 1/1/1
f 6/6/6 5/5/5 4/4/4
f 5/5/5 7/7/7 4/4/4
f 10/10/10 9/9/9 8/8/8
f 13/13/13 12/12/12 11/11/11
f 12/12/12 14/14/14 11/11/11
f 17/17/17 16/16/16 15/15/15
f 17/17/17 18/18/18 16/16/16
