g pb_Mesh361996
v -9.260632 0 -0.4100833
v -10.646465 20 -0.55408335
v -14.322552 0 15.282415
v -14.770824 20 15.870918
v -14.322552 0 15.282415
v -14.770824 20 15.870918
v -7.360632 0 22.053875
v -7.1464653 20 23.29476
v -7.360632 0 22.053875
v -7.1464653 20 23.29476
v 1.5466678 0 26.835
v 1.7500012 20 28.25
v 1.5466678 0 26.835
v 1.7500012 20 28.25
v 8.321668 0 27.483839
v 8.500002 20 28.99871
v 8.321668 0 27.483839
v 8.500002 20 28.99871
v 16.620506 0 11.560003
v 17.49871 20 12.500004
v 16.620506 0 11.560003
v 17.49871 20 12.500004
v 14.246662 0 -4.015002
v 15.249996 20 -3.250002
v 14.246662 0 -4.015002
v 15.249996 20 -3.250002
v 23.31682 2.3224575E-06 -27.859694
v 24.020025 20 -27.669695
v 23.31682 2.3224575E-06 -27.859694
v 24.020025 20 -27.669695
v 14.84298 2.3224575E-06 -28.333536
v 16.271315 20 -30.918407
v 14.84298 2.3224575E-06 -28.333536
v 16.271315 20 -30.918407
v 5.6106877 2.3224575E-06 -29.75978
v 5.6248546 20 -32.423767
v 5.6106877 2.3224575E-06 -29.75978
v 5.6248546 20 -32.423767
v -2.6893115 2.3224575E-06 -28.521242
v -3.3751442 20 -30.847614
v -2.6893115 2.3224575E-06 -28.521242
v -3.3751442 20 -30.847614
v -8.426235 2.3224575E-06 -21.794788
v -9.624504 20 -23.198788
v -8.426235 2.3224575E-06 -21.794788
v -9.624504 20 -23.198788
v -9.260632 0 -0.4100833
v -10.646465 20 -0.55408335
v -14.322552 0 15.282415
v -0.028333366 0 0.15999997
v -9.260632 0 -0.4100833
v -7.360632 0 22.053875
v -0.028333366 0 0.15999997
v -14.322552 0 15.282415
v 1.5466678 0 26.835
v 8.321668 0 27.483839
v 16.620506 0 11.560003
v 14.246662 0 -4.015002
v 23.31682 2.3224575E-06 -27.859694
v 14.84298 2.3224575E-06 -28.333536
v 5.6106877 2.3224575E-06 -29.75978
v -2.6893115 2.3224575E-06 -28.521242
v -8.426235 2.3224575E-06 -21.794788
v -2.6893115 2.3224575E-06 -28.521242
v -9.260632 0 -0.4100833
v -8.426235 2.3224575E-06 -21.794788
v -10.646465 20 -0.55408335
v -0 20 0
v -14.770824 20 15.870918
v -7.1464653 20 23.29476
v 1.7500012 20 28.25
v 8.500002 20 28.99871
v 17.49871 20 12.500004
v 15.249996 20 -3.250002
v 24.020025 20 -27.669695
v 16.271315 20 -30.918407
v 5.6248546 20 -32.423767
v -3.3751442 20 -30.847614
v -9.624504 20 -23.198788
v -9.624504 20 -23.198788
v -0 20 0
v -10.646465 20 -0.55408335
vt 2.452669 0.6078604
vt 2.7410638 20.654259
vt 18.941378 0.6078604
vt 19.63908 20.578295
vt 0.38837022 0.7684618
vt 0.47735232 20.78194
vt 10.100269 0.7684618
vt 11.11898 20.782154
vt 3.9447565 1.1351295
vt 4.720322 21.15972
vt 14.054115 1.1351295
vt 14.902482 21.167572
vt 4.097899 1.8407547
vt 4.435203 21.88894
vt 10.903897 1.8407547
vt 11.225838 21.895996
vt -20.52661 0.8609693
vt -21.787573 20.879375
vt -2.570014 0.8609693
vt -2.9977307 20.894594
vt -13.932302 0.53325826
vt -14.993894 20.546452
vt 1.8225677 0.53325826
vt 0.9151253 20.551899
vt 8.8178215 0.7177938
vt 8.459521 20.754349
vt 34.32933 0.7177962
vt 34.401756 20.725069
vt -21.725014 -0.21901974
vt -22.43773 19.781544
vt -13.237937 -0.21901974
vt -14.519727 19.7604
vt -10.343198 4.1562934
vt -11.360146 24.347565
vt -1.001388 4.1562934
vt -0.60866916 24.328653
vt -9.941415 3.7333536
vt -10.348597 23.905888
vt -1.5495156 3.7333536
vt -1.2145367 23.875792
vt -19.955322 2.0770729
vt -21.280296 22.179977
vt -11.11465 2.0770729
vt -11.405302 22.158892
vt -21.44969 0.5791895
vt -22.805902 20.618341
vt -0.048711393 0.57918715
vt -0.13857009 20.626984
vt -14.322552 15.282415
vt -0.028333366 0.15999997
vt -9.260632 -0.4100833
vt -7.360632 22.053875
vt -0.028333366 0.15999997
vt -14.322552 15.282415
vt 1.5466678 26.835
vt 8.321668 27.483839
vt 16.620506 11.560003
vt 14.246662 -4.015002
vt 23.31682 -27.859694
vt 14.84298 -28.333536
vt 5.6106877 -29.75978
vt -2.6893115 -28.521242
vt -8.426235 -21.794788
vt -2.6893115 -28.521242
vt -9.260632 -0.4100833
vt -8.426235 -21.794788
vt 10.646465 -0.55408335
vt 0 0
vt 14.770824 15.870918
vt 7.1464653 23.29476
vt -1.7500012 28.25
vt -8.500002 28.99871
vt -17.49871 12.500004
vt -15.249996 -3.250002
vt -24.020025 -27.669695
vt -16.271315 -30.918407
vt -5.6248546 -32.423767
vt 3.3751442 -30.847614
vt 9.624504 -23.198788
vt 9.624504 -23.198788
vt 0 0
vt 10.646465 -0.55408335
vn -0.949509 -0.06799831 -0.30628255
vn -0.96063775 -0.04099448 -0.27476257
vn -0.96063775 -0.04099448 -0.27476257
vn -0.9697874 -0.014570971 -0.24351606
vn -0.69676363 -0.036696043 0.71636146
vn -0.6969636 -0.03683243 0.71615994
vn -0.6969636 -0.03683243 0.71615994
vn -0.69714606 -0.0369569 0.71597594
vn -0.47235966 -0.04954152 0.8800125
vn -0.47913095 -0.0531717 0.8761314
vn -0.47913095 -0.0531717 0.8761314
vn -0.48581532 -0.056770213 0.8722159
vn -0.0951044 -0.06929164 0.9930528
vn -0.102519155 -0.07169319 0.9921441
vn -0.102519155 -0.07169319 0.9921441
vn -0.10994094 -0.074094646 0.99117255
vn 0.88598055 -0.042873576 0.4617361
vn 0.88109124 -0.05212144 0.4700655
vn 0.88109124 -0.05212144 0.4700655
vn 0.87627697 -0.060940623 0.47793818
vn 0.98793185 -0.036303304 -0.15057436
vn 0.9884837 -0.040279116 -0.14586823
vn 0.9884837 -0.040279116 -0.14586823
vn 0.9889927 -0.04421346 -0.1412039
vn 0.93295884 -0.060377754 0.35488334
vn 0.93688136 -0.048238613 0.34630376
vn 0.93688136 -0.048238613 0.34630376
vn 0.94052625 -0.036278024 0.3377783
vn 0.05582949 0.007521867 -0.99841195
vn 0.22310492 -0.07010054 -0.9722706
vn 0.22310492 -0.07010054 -0.9722706
vn 0.38255075 -0.14524832 -0.9124461
vn 0.15122701 -0.13731857 -0.9789147
vn 0.14458318 -0.13386303 -0.9803961
vn 0.14458318 -0.13386303 -0.9803961
vn 0.13879898 -0.1308518 -0.9816377
vn -0.1463251 -0.13051023 -0.98058957
vn -0.15933083 -0.1248517 -0.97929853
vn -0.15933083 -0.1248517 -0.97929853
vn -0.17126404 -0.11962508 -0.97793585
vn -0.7569585 -0.1010529 -0.64560217
vn -0.76453274 -0.09546206 -0.6374767
vn -0.76453274 -0.09546206 -0.6374767
vn -0.7712187 -0.090440266 -0.6301128
vn -0.9972873 -0.062482577 -0.038912527
vn -0.99693197 -0.06603102 -0.042032413
vn -0.99693197 -0.06603102 -0.042032413
vn -0.99657613 -0.069378264 -0.04497573
vn -0 -0.99999994 0
vn -0 -0.99999994 0
vn -0 -0.99999994 0
vn -0 -1 0
vn -0 -1 0
vn -0 -1 0
vn -0 -1 0
vn -0 -1 0
vn -0 -1 0
vn -0 -1 0
vn -3.2052185E-08 -1 -1.09591504E-07
vn 4.428554E-09 -1 -7.919687E-08
vn 1.16522445E-08 -1 -7.54267E-08
vn -1.1918183E-08 -1 -7.986905E-08
vn -8.562713E-08 -0.99999994 -7.3030506E-08
vn -8.562713E-08 -0.99999994 -7.3030506E-08
vn 6.690027E-09 -1 -1.0834264E-07
vn 6.690027E-09 -1 -1.0834264E-07
vn -0 1 0
vn -0 1 0
vn -0 1 0
vn -0 1 0
vn -0 1 0
vn -0 1 0
vn -0 1 0
vn -0 1 0
vn -0 1 0
vn -0 1 0
vn -0 1 0
vn -0 1 0
vn -0 1 0
vn -0 0.99999994 0
vn -0 0.99999994 0
vn -0 0.99999994 0
g pb_Mesh361996_0
f 3/3/3 2/2/2 1/1/1
f 3/3/3 4/4/4 2/2/2
f 7/7/7 6/6/6 5/5/5
f 7/7/7 8/8/8 6/6/6
f 11/11/11 10/10/10 9/9/9
f 11/11/11 12/12/12 10/10/10
f 15/15/15 14/14/14 13/13/13
f 15/15/15 16/16/16 14/14/14
f 19/19/19 18/18/18 17/17/17
f 19/19/19 20/20/20 18/18/18
f 23/23/23 22/22/22 21/21/21
f 23/23/23 24/24/24 22/22/22
f 27/27/27 26/26/26 25/25/25
f 27/27/27 28/28/28 26/26/26
f 31/31/31 30/30/30 29/29/29
f 31/31/31 32/32/32 30/30/30
f 35/35/35 34/34/34 33/33/33
f 35/35/35 36/36/36 34/34/34
f 39/39/39 38/38/38 37/37/37
f 39/39/39 40/40/40 38/38/38
f 43/43/43 42/42/42 41/41/41
f 43/43/43 44/44/44 42/42/42
f 47/47/47 46/46/46 45/45/45
f 47/47/47 48/48/48 46/46/46
f 51/51/51 50/50/50 49/49/49
f 54/54/54 53/53/53 52/52/52
f 52/52/52 53/53/53 55/55/55
f 55/55/55 53/53/53 56/56/56
f 56/56/56 53/53/53 57/57/57
f 57/57/57 53/53/53 58/58/58
f 58/58/58 53/53/53 59/59/59
f 59/59/59 53/53/53 60/60/60
f 60/60/60 53/53/53 61/61/61
f 61/61/61 53/53/53 62/62/62
f 64/64/64 50/50/50 63/63/63
f 66/66/66 53/53/53 65/65/65
f 69/69/69 68/68/68 67/67/67
f 70/70/70 68/68/68 69/69/69
f 71/71/71 68/68/68 70/70/70
f 72/72/72 68/68/68 71/71/71
f 73/73/73 68/68/68 72/72/72
f 74/74/74 68/68/68 73/73/73
f 75/75/75 68/68/68 74/74/74
f 76/76/76 68/68/68 75/75/75
f 77/77/77 68/68/68 76/76/76
f 78/78/78 68/68/68 77/77/77
f 79/79/79 68/68/68 78/78/78
f 82/82/82 81/81/81 80/80/80
