g pb_Mesh-4558498
v -1.4718437 -2.4999952 6.449974
v -1.4718437 4.7683716E-06 6.449974
v -0.864764 -2.4999952 8.053528
v -0.864764 4.7683716E-06 8.053528
v -0.864764 -2.4999952 8.053528
v -0.864764 4.7683716E-06 8.053528
v -0.011210659 -2.4999952 9.449974
v -0.011210659 4.7683716E-06 9.449974
v -0.011210659 -2.4999952 9.449974
v -0.011210659 4.7683716E-06 9.449974
v 0.9280945 -2.4999952 7.9445796
v 0.9280945 4.7683716E-06 7.9445796
v 0.9280945 -2.4999952 7.9445796
v 0.9280945 4.7683716E-06 7.9445796
v 1.437707 -2.4999952 6.449974
v 1.437707 4.7683716E-06 6.449974
v 1.437707 -2.4999952 6.449974
v 1.437707 4.7683716E-06 6.449974
v 1.9824469 -2.4999952 4.5673656
v 1.9824469 4.7683716E-06 4.5673656
v 0.18202576 -2.4999952 -7.8977137
v 0.18202576 4.7683716E-06 -7.8977137
v -0.0032408647 -2.4999952 -7.8977137
v -0.0032408647 4.7683716E-06 -7.8977137
v -0.18524154 -2.4999952 -7.8977137
v -0.18524154 4.7683716E-06 -7.8977137
v -1.9697232 -2.4999952 4.5673656
v -1.9697232 4.7683716E-06 4.5673656
v -1.4718437 -2.4999952 6.449974
v -1.4718437 4.7683716E-06 6.449974
v -0.864764 -2.4999952 8.053528
v -0.01121068 -2.4999952 6.449974
v -1.4718437 -2.4999952 6.449974
v -0.011210659 -2.4999952 9.449974
v 0.9280945 -2.4999952 7.9445796
v 1.437707 -2.4999952 6.449974
v 1.9824469 -2.4999952 4.5673656
v -0.011210686 -2.4999952 4.5673656
v -1.9697232 -2.4999952 4.5673656
v -1.4718437 4.7683716E-06 6.449974
v -0.01121068 4.7683716E-06 6.449974
v -0.864764 4.7683716E-06 8.053528
v -0.011210659 4.7683716E-06 9.449974
v 0.9280945 4.7683716E-06 7.9445796
v 1.437707 4.7683716E-06 6.449974
v 1.9824469 4.7683716E-06 4.5673656
v -0.011210686 4.7683716E-06 4.5673656
v -1.9697232 4.7683716E-06 4.5673656
v 1.9824469 -2.4999952 4.5673656
v 1.9824469 4.7683716E-06 4.5673656
v 2.1809342 -2.4999952 2.5673647
v 2.1809342 4.7683716E-06 2.5673647
v -0.012089312 -2.4999952 2.5673647
v 2.1809342 -2.4999952 2.5673647
v 2.1809342 4.7683716E-06 2.5673647
v -0.012089312 4.7683716E-06 2.5673647
v -2.1664531 -2.4999952 2.5673647
v -2.1664531 4.7683716E-06 2.5673647
v -1.9697232 4.7683716E-06 4.5673656
v -1.9697232 -2.4999952 4.5673656
v -2.1664531 4.7683716E-06 2.5673647
v -2.1664531 -2.4999952 2.5673647
v 2.1809342 -2.4999952 2.5673647
v 2.1809342 4.7683716E-06 2.5673647
v 2.39927 -2.4999952 0.31737137
v 2.39927 4.7683716E-06 0.31737137
v -0.013055796 -2.4999952 0.31737137
v 2.39927 -2.4999952 0.31737137
v 2.39927 4.7683716E-06 0.31737137
v -0.013055796 4.7683716E-06 0.31737137
v -2.3828561 -2.4999952 0.31737137
v -2.3828561 4.7683716E-06 0.31737137
v -2.1664531 4.7683716E-06 2.5673647
v -2.1664531 -2.4999952 2.5673647
v -2.3828561 4.7683716E-06 0.31737137
v -2.3828561 -2.4999952 0.31737137
v 2.39927 -2.4999952 0.31737137
v 2.39927 4.7683716E-06 0.31737137
v 2.159455 -2.4999952 -2.2303438
v 2.159455 4.7683716E-06 -2.2303438
v -0.011638247 -2.4999952 -2.2303438
v 2.159455 -2.4999952 -2.2303438
v 2.159455 4.7683716E-06 -2.2303438
v -0.011638247 4.7683716E-06 -2.2303438
v -2.1444585 -2.4999952 -2.2303438
v -2.1444585 4.7683716E-06 -2.2303438
v -2.3828561 4.7683716E-06 0.31737137
v -2.3828561 -2.4999952 0.31737137
v -2.1444585 4.7683716E-06 -2.2303438
v -2.1444585 -2.4999952 -2.2303438
v 2.159455 -2.4999952 -2.2303438
v 2.159455 4.7683716E-06 -2.2303438
v 1.9189312 -2.4999952 -3.7077923
v 1.9189312 4.7683716E-06 -3.7077923
v -0.010929497 -2.4999952 -3.7077923
v 1.9189312 -2.4999952 -3.7077923
v 1.9189312 4.7683716E-06 -3.7077923
v -0.010929497 4.7683716E-06 -3.7077923
v -1.9067698 -2.4999952 -3.7077923
v -1.9067698 4.7683716E-06 -3.7077923
v -2.1444585 4.7683716E-06 -2.2303438
v -2.1444585 -2.4999952 -2.2303438
v -1.9067698 4.7683716E-06 -3.7077923
v -1.9067698 -2.4999952 -3.7077923
v 1.9189312 -2.4999952 -3.7077923
v 1.9189312 4.7683716E-06 -3.7077923
v 1.5346601 -2.4999952 -5.388198
v 1.5346601 4.7683716E-06 -5.388198
v -0.009228481 -2.4999952 -5.388198
v 1.5346601 -2.4999952 -5.388198
v 1.5346601 4.7683716E-06 -5.388198
v -0.009228481 4.7683716E-06 -5.388198
v -1.5259006 -2.4999952 -5.388198
v -1.5259006 4.7683716E-06 -5.388198
v -1.9067698 4.7683716E-06 -3.7077923
v -1.9067698 -2.4999952 -3.7077923
v -1.5259006 4.7683716E-06 -5.388198
v -1.5259006 -2.4999952 -5.388198
v 1.5346601 -2.4999952 -5.388198
v 1.5346601 4.7683716E-06 -5.388198
v 0.6124094 -2.4999952 -7.388199
v 0.6124094 4.7683716E-06 -7.388199
v -0.005146008 -2.4999952 -7.388199
v 0.6124094 -2.4999952 -7.388199
v 0.6124094 4.7683716E-06 -7.388199
v -0.005146008 4.7683716E-06 -7.388199
v -0.61181486 -2.4999952 -7.388199
v -0.61181486 4.7683716E-06 -7.388199
v -1.5259006 4.7683716E-06 -5.388198
v -1.5259006 -2.4999952 -5.388198
v -0.61181486 4.7683716E-06 -7.388199
v -0.61181486 -2.4999952 -7.388199
v 0.6124094 -2.4999952 -7.388199
v 0.6124094 4.7683716E-06 -7.388199
v 0.18202576 -2.4999952 -7.8977137
v 0.18202576 4.7683716E-06 -7.8977137
v -0.0032408647 -2.4999952 -7.8977137
v 0.18202576 -2.4999952 -7.8977137
v 0.18202576 4.7683716E-06 -7.8977137
v -0.0032408647 4.7683716E-06 -7.8977137
v -0.18524154 -2.4999952 -7.8977137
v -0.18524154 4.7683716E-06 -7.8977137
v -0.61181486 4.7683716E-06 -7.388199
v -0.61181486 -2.4999952 -7.388199
v -0.18524154 4.7683716E-06 -7.8977137
v -0.18524154 -2.4999952 -7.8977137
vt 5.51104 -2.4999952
vt 5.51104 4.7683716E-06
vt 7.2256627 -2.4999952
vt 7.2256627 4.7683716E-06
vt 6.420562 -2.4999952
vt 6.420562 4.7683716E-06
vt 8.057209 -2.4999952
vt 8.057209 4.7683716E-06
vt -8.023244 -2.4999952
vt -8.023244 4.7683716E-06
vt -6.2488403 -2.4999952
vt -6.2488403 4.7683716E-06
vt -7.2199726 -2.4999952
vt -7.2199726 4.7683716E-06
vt -5.6408744 -2.4999952
vt -5.6408744 4.7683716E-06
vt -5.7962 -2.4999952
vt -5.7962 4.7683716E-06
vt -3.8363638 -2.4999952
vt -3.8363638 4.7683716E-06
vt -0.18202576 -2.4999952
vt -0.18202576 4.7683716E-06
vt 0.0032408647 -2.4999952
vt 0.0032408647 4.7683716E-06
vt 0.18524154 -2.4999952
vt 0.18524154 4.7683716E-06
vt 3.9119575 -2.4999952
vt 3.9119575 4.7683716E-06
vt 5.8592887 -2.4999952
vt 5.8592887 4.7683716E-06
vt -0.864764 8.053528
vt -0.01121068 6.449974
vt -1.4718437 6.449974
vt -0.011210659 9.449974
vt 0.9280945 7.9445796
vt 1.437707 6.449974
vt 1.9824469 4.5673656
vt -0.011210686 4.5673656
vt -1.9697232 4.5673656
vt 1.4718437 6.449974
vt 0.01121068 6.449974
vt 0.864764 8.053528
vt 0.011210659 9.449974
vt -0.9280945 7.9445796
vt -1.437707 6.449974
vt -1.9824469 4.5673656
vt 0.011210686 4.5673656
vt 1.9697232 4.5673656
vt -4.3492546 -2.4999952
vt -4.3492546 4.7683716E-06
vt -2.3394284 -2.4999952
vt -2.3394284 4.7683716E-06
vt -0.012089312 2.5673647
vt 2.1809342 2.5673647
vt -2.1809342 2.5673647
vt 0.012089312 2.5673647
vt -2.1664531 2.5673647
vt 2.1664531 2.5673647
vt 4.3526077 4.7683716E-06
vt 4.3526077 -2.4999952
vt 2.3429542 4.7683716E-06
vt 2.3429542 -2.4999952
vt -2.3447168 -2.4999952
vt -2.3447168 4.7683716E-06
vt -0.084154636 -2.4999952
vt -0.084154636 4.7683716E-06
vt -0.013055796 0.31737137
vt 2.39927 0.31737137
vt -2.39927 0.31737137
vt 0.013055796 0.31737137
vt -2.3828561 0.31737137
vt 2.3828561 0.31737137
vt 2.3481607 4.7683716E-06
vt 2.3481607 -2.4999952
vt 0.0877846 4.7683716E-06
vt 0.0877846 -2.4999952
vt -0.5408226 -2.4999952
vt -0.5408226 4.7683716E-06
vt 2.0181544 -2.4999952
vt 2.0181544 4.7683716E-06
vt -0.011638247 -2.2303438
vt 2.159455 -2.2303438
vt -2.159455 -2.2303438
vt 0.011638247 -2.2303438
vt -2.1444585 -2.2303438
vt 2.1444585 -2.2303438
vt 0.5379924 4.7683716E-06
vt 0.5379924 -2.4999952
vt -2.0208523 4.7683716E-06
vt -2.0208523 -2.4999952
vt 1.8543792 -2.4999952
vt 1.8543792 4.7683716E-06
vt 3.351278 -2.4999952
vt 3.351278 4.7683716E-06
vt -0.010929497 -3.7077923
vt 1.9189312 -3.7077923
vt -1.9189312 -3.7077923
vt 0.010929497 -3.7077923
vt -1.9067698 -3.7077923
vt 1.9067698 -3.7077923
vt -1.8614135 4.7683716E-06
vt -1.8614135 -2.4999952
vt -3.3578591 4.7683716E-06
vt -3.3578591 -2.4999952
vt 3.1867151 -2.4999952
vt 3.1867151 4.7683716E-06
vt 4.910498 -2.4999952
vt 4.910498 4.7683716E-06
vt -0.009228481 -5.388198
vt 1.5346601 -5.388198
vt -1.5346601 -5.388198
vt 0.009228481 -5.388198
vt -1.5259006 -5.388198
vt 1.5259006 -5.388198
vt -3.194589 4.7683716E-06
vt -3.194589 -2.4999952
vt -4.917617 4.7683716E-06
vt -4.917617 -2.4999952
vt 4.250397 -2.4999952
vt 4.250397 4.7683716E-06
vt 6.4527936 -2.4999952
vt 6.4527936 4.7683716E-06
vt -0.005146008 -7.388199
vt 0.6124094 -7.388199
vt -0.6124094 -7.388199
vt 0.005146008 -7.388199
vt -0.61181486 -7.388199
vt 0.61181486 -7.388199
vt -4.266321 4.7683716E-06
vt -4.266321 -2.4999952
vt -6.465311 4.7683716E-06
vt -6.465311 -2.4999952
vt 5.2489305 -2.4999952
vt 5.2489305 4.7683716E-06
vt 5.91589 -2.4999952
vt 5.91589 4.7683716E-06
vt -0.0032408647 -7.8977137
vt 0.18202576 -7.8977137
vt -0.18202576 -7.8977137
vt 0.0032408647 -7.8977137
vt -0.18524154 -7.8977137
vt 0.18524154 -7.8977137
vt -5.2721953 4.7683716E-06
vt -5.2721953 -2.4999952
vt -5.9367027 4.7683716E-06
vt -5.9367027 -2.4999952
vn -0.9352226 0 0.3540603
vn -0.9352226 0 0.3540603
vn -0.9352226 0 0.3540603
vn -0.9352226 0 0.3540603
vn -0.8532358 0 0.52152544
vn -0.8532358 0 0.52152544
vn -0.8532358 0 0.52152544
vn -0.8532358 0 0.52152544
vn 0.8483948 0 0.52936405
vn 0.8483948 0 0.52936405
vn 0.8483948 0 0.52936405
vn 0.8483948 0 0.52936405
vn 0.9464932 0 0.32272378
vn 0.9464932 0 0.32272378
vn 0.9464932 0 0.32272378
vn 0.9464932 0 0.32272378
vn 0.960595 0 0.27795187
vn 0.960595 0 0.27795187
vn 0.960595 0 0.27795187
vn 0.960595 0 0.27795187
vn -0 0 -1
vn -0 0 -1
vn -0 0 -1
vn -0 0 -1
vn -0 0 -1
vn -0 0 -1
vn -0.96676344 0 0.25567275
vn -0.96676344 0 0.25567275
vn -0.96676344 0 0.25567275
vn -0.96676344 0 0.25567275
vn -0 -1 0
vn -0 -1 0
vn -0 -1 0
vn -0 -1 0
vn -0 -1 0
vn -0 -1 0
vn -0 -1 0
vn -0 -1 0
vn -0 -1 0
vn -0 1 0
vn -0 1 0
vn -0 1 0
vn -0 1 0
vn -0 1 0
vn -0 1 0
vn -0 1 0
vn -0 1 0
vn -0 1 0
vn 0.99511147 0 0.09875844
vn 0.99511147 0 0.09875844
vn 0.99511147 0 0.09875844
vn 0.99511147 0 0.09875844
vn -0 -1 0
vn -0 -1 0
vn -0 1 0
vn -0 1 0
vn -0 -1 0
vn -0 1 0
vn -0.995197 0 0.097892456
vn -0.995197 0 0.097892456
vn -0.995197 0 0.097892456
vn -0.995197 0 0.097892456
vn 0.9953248 0 0.096584775
vn 0.9953248 0 0.096584775
vn 0.9953248 0 0.096584775
vn 0.9953248 0 0.096584775
vn -0 -1 0
vn -0 -1 0
vn -0 1 0
vn -0 1 0
vn -0 -1 0
vn -0 1 0
vn -0.9954066 0 0.095737614
vn -0.9954066 0 0.095737614
vn -0.9954066 0 0.095737614
vn -0.9954066 0 0.095737614
vn 0.99559903 0 -0.093715176
vn 0.99559903 0 -0.093715176
vn 0.99559903 0 -0.093715176
vn 0.99559903 0 -0.093715176
vn -0 -1 0
vn -0 -1 0
vn -0 1 0
vn -0 1 0
vn -0 -1 0
vn -0 1 0
vn -0.9956506 0 -0.09316611
vn -0.9956506 0 -0.09316611
vn -0.9956506 0 -0.09316611
vn -0.9956506 0 -0.09316611
vn 0.98700637 0 -0.16068143
vn 0.98700637 0 -0.16068143
vn 0.98700637 0 -0.16068143
vn 0.98700637 0 -0.16068143
vn -0 -1 0
vn -0 -1 0
vn -0 1 0
vn -0 1 0
vn -0 -1 0
vn -0 1 0
vn -0.98730505 0 -0.15883555
vn -0.98730505 0 -0.15883555
vn -0.98730505 0 -0.15883555
vn -0.98730505 0 -0.15883555
vn 0.974836 0 -0.22292316
vn 0.974836 0 -0.22292316
vn 0.974836 0 -0.22292316
vn 0.974836 0 -0.22292316
vn -0 -1 0
vn -0 -1 0
vn -0 1 0
vn -0 1 0
vn -0 -1 0
vn -0 1 0
vn -0.9752633 0 -0.22104646
vn -0.9752633 0 -0.22104646
vn -0.9752633 0 -0.22104646
vn -0.9752633 0 -0.22104646
vn 0.90810215 0 -0.4187487
vn 0.90810215 0 -0.4187487
vn 0.90810215 0 -0.4187487
vn 0.90810215 0 -0.4187487
vn -0 -1 0
vn -0 -1 0
vn -0 1 0
vn -0 1 0
vn -0 -1 0
vn -0 1 0
vn -0.90950894 0 -0.4156844
vn -0.90950894 0 -0.4156844
vn -0.90950894 0 -0.4156844
vn -0.90950894 0 -0.4156844
vn 0.7639363 0 -0.6452917
vn 0.7639363 0 -0.6452917
vn 0.7639363 0 -0.6452917
vn 0.7639363 0 -0.6452917
vn -0 -1 0
vn -0 -1 0
vn -0 1 0
vn -0 1 0
vn -0 -1 0
vn -0 1 0
vn -0.76675564 0 -0.6419391
vn -0.76675564 0 -0.6419391
vn -0.76675564 0 -0.6419391
vn -0.76675564 0 -0.6419391
g pb_Mesh-4558498_0
f 3/3/3 2/2/2 1/1/1
f 3/3/3 4/4/4 2/2/2
f 7/7/7 6/6/6 5/5/5
f 7/7/7 8/8/8 6/6/6
f 11/11/11 10/10/10 9/9/9
f 11/11/11 12/12/12 10/10/10
f 15/15/15 14/14/14 13/13/13
f 15/15/15 16/16/16 14/14/14
f 19/19/19 18/18/18 17/17/17
f 19/19/19 20/20/20 18/18/18
f 23/23/23 22/22/22 21/21/21
f 23/23/23 24/24/24 22/22/22
f 25/25/25 24/24/24 23/23/23
f 25/25/25 26/26/26 24/24/24
f 29/29/29 28/28/28 27/27/27
f 29/29/29 30/30/30 28/28/28
f 33/33/33 32/32/32 31/31/31
f 31/31/31 32/32/32 34/34/34
f 34/34/34 32/32/32 35/35/35
f 35/35/35 32/32/32 36/36/36
f 36/36/36 32/32/32 37/37/37
f 37/37/37 32/32/32 38/38/38
f 38/38/38 32/32/32 39/39/39
f 39/39/39 32/32/32 33/33/33
f 42/42/42 41/41/41 40/40/40
f 43/43/43 41/41/41 42/42/42
f 44/44/44 41/41/41 43/43/43
f 45/45/45 41/41/41 44/44/44
f 46/46/46 41/41/41 45/45/45
f 47/47/47 41/41/41 46/46/46
f 48/48/48 41/41/41 47/47/47
f 40/40/40 41/41/41 48/48/48
f 51/51/51 50/50/50 49/49/49
f 51/51/51 52/52/52 50/50/50
f 53/53/53 37/37/37 38/38/38
f 53/53/53 54/54/54 37/37/37
f 55/55/55 47/47/47 46/46/46
f 55/55/55 56/56/56 47/47/47
f 57/57/57 38/38/38 39/39/39
f 57/57/57 53/53/53 38/38/38
f 56/56/56 48/48/48 47/47/47
f 56/56/56 58/58/58 48/48/48
f 61/61/61 60/60/60 59/59/59
f 61/61/61 62/62/62 60/60/60
f 65/65/65 64/64/64 63/63/63
f 65/65/65 66/66/66 64/64/64
f 67/67/67 54/54/54 53/53/53
f 67/67/67 68/68/68 54/54/54
f 69/69/69 56/56/56 55/55/55
f 69/69/69 70/70/70 56/56/56
f 71/71/71 53/53/53 57/57/57
f 71/71/71 67/67/67 53/53/53
f 70/70/70 58/58/58 56/56/56
f 70/70/70 72/72/72 58/58/58
f 75/75/75 74/74/74 73/73/73
f 75/75/75 76/76/76 74/74/74
f 79/79/79 78/78/78 77/77/77
f 79/79/79 80/80/80 78/78/78
f 81/81/81 68/68/68 67/67/67
f 81/81/81 82/82/82 68/68/68
f 83/83/83 70/70/70 69/69/69
f 83/83/83 84/84/84 70/70/70
f 85/85/85 67/67/67 71/71/71
f 85/85/85 81/81/81 67/67/67
f 84/84/84 72/72/72 70/70/70
f 84/84/84 86/86/86 72/72/72
f 89/89/89 88/88/88 87/87/87
f 89/89/89 90/90/90 88/88/88
f 93/93/93 92/92/92 91/91/91
f 93/93/93 94/94/94 92/92/92
f 95/95/95 82/82/82 81/81/81
f 95/95/95 96/96/96 82/82/82
f 97/97/97 84/84/84 83/83/83
f 97/97/97 98/98/98 84/84/84
f 99/99/99 81/81/81 85/85/85
f 99/99/99 95/95/95 81/81/81
f 98/98/98 86/86/86 84/84/84
f 98/98/98 100/100/100 86/86/86
f 103/103/103 102/102/102 101/101/101
f 103/103/103 104/104/104 102/102/102
f 107/107/107 106/106/106 105/105/105
f 107/107/107 108/108/108 106/106/106
f 109/109/109 96/96/96 95/95/95
f 109/109/109 110/110/110 96/96/96
f 111/111/111 98/98/98 97/97/97
f 111/111/111 112/112/112 98/98/98
f 113/113/113 95/95/95 99/99/99
f 113/113/113 109/109/109 95/95/95
f 112/112/112 100/100/100 98/98/98
f 112/112/112 114/114/114 100/100/100
f 117/117/117 116/116/116 115/115/115
f 117/117/117 118/118/118 116/116/116
f 121/121/121 120/120/120 119/119/119
f 121/121/121 122/122/122 120/120/120
f 123/123/123 110/110/110 109/109/109
f 123/123/123 124/124/124 110/110/110
f 125/125/125 112/112/112 111/111/111
f 125/125/125 126/126/126 112/112/112
f 127/127/127 109/109/109 113/113/113
f 127/127/127 123/123/123 109/109/109
f 126/126/126 114/114/114 112/112/112
f 126/126/126 128/128/128 114/114/114
f 131/131/131 130/130/130 129/129/129
f 131/131/131 132/132/132 130/130/130
f 135/135/135 134/134/134 133/133/133
f 135/135/135 136/136/136 134/134/134
f 137/137/137 124/124/124 123/123/123
f 137/137/137 138/138/138 124/124/124
f 139/139/139 126/126/126 125/125/125
f 139/139/139 140/140/140 126/126/126
f 141/141/141 123/123/123 127/127/127
f 141/141/141 137/137/137 123/123/123
f 140/140/140 128/128/128 126/126/126
f 140/140/140 142/142/142 128/128/128
f 145/145/145 144/144/144 143/143/143
f 145/145/145 146/146/146 144/144/144
