g pb_Mesh129540
v -19.02 5.9604645E-08 0
v -19.02 5.9604645E-08 -25.168034
v -6.8555017 5.9604645E-08 -0.05660867
v -6.855501 5.9604645E-08 -11.520027
v -19.02 5.9604645E-08 19.019997
v -6.8555017 5.9604645E-08 6.907791
v -2.2681124E-07 5.9604645E-08 -25.168034
v 8.121779E-08 5.9604645E-08 -11.520027
v 19.02 5.9604645E-08 -25.168032
v 6.855503 5.9604645E-08 -11.520025
v 19.02 5.9604645E-08 -1.6627813E-06
v 6.8555026 5.9604645E-08 -0.056610823
v 19.02 5.9604645E-08 -1.6627813E-06
v 19.02 5.9604645E-08 19.019997
v 6.8555026 5.9604645E-08 6.907781
v 19.02 5.9604645E-08 19.019997
v 8.3139065E-07 5.9604645E-08 19.02
v 4.6263239E-07 5.9604645E-08 6.9077816
v -19.02 5.9604645E-08 19.019997
v 19.02 -2.4659383 19.019997
v 8.3139065E-07 5.9604645E-08 19.02
v 19.02 5.9604645E-08 19.019997
v 8.3139065E-07 -2.4659383 19.02
v -19.02 5.9604645E-08 19.019997
v -19.02 -2.4659383 19.019997
v -19.02 -2.4659383 19.019997
v -19.02 5.9604645E-08 0
v -19.02 5.9604645E-08 19.019997
v -19.02 -2.4659383 0
v -19.02 -2.4659383 0
v -19.02 5.9604645E-08 -25.168034
v -19.02 5.9604645E-08 0
v -19.02 -2.4659383 -25.168034
v -19.02 -2.4659383 -25.168034
v -2.2681124E-07 5.9604645E-08 -25.168034
v -19.02 5.9604645E-08 -25.168034
v -2.2681124E-07 -2.4659383 -25.168034
v 19.02 5.9604645E-08 -25.168032
v 19.02 -2.4659383 -25.168032
v 19.02 -2.4659383 -25.168032
v 19.02 5.9604645E-08 -1.6627813E-06
v 19.02 5.9604645E-08 -25.168032
v 19.02 -2.4659383 -1.6627813E-06
v 19.02 5.9604645E-08 19.019997
v 19.02 -2.4659383 19.019997
v -6.855501 -2.465938 -11.520027
v -6.8555017 5.9604645E-08 -0.05660867
v -6.855501 5.9604645E-08 -11.520027
v -6.8555017 -2.465938 -0.05660867
v -6.8555017 5.9604645E-08 6.907791
v -6.8555017 -2.465938 6.907791
v -6.8555017 -2.465938 6.907791
v 4.6263239E-07 5.9604645E-08 6.9077816
v -6.8555017 5.9604645E-08 6.907791
v 4.6263239E-07 -2.465938 6.9077816
v 6.8555026 5.9604645E-08 6.907781
v 6.8555026 -2.465938 6.907781
v 6.8555026 -2.465938 6.907781
v 6.8555026 5.9604645E-08 -0.056610823
v 6.8555026 5.9604645E-08 6.907781
v 6.8555026 -2.465938 -0.056610823
v 6.855503 5.9604645E-08 -11.520025
v 6.855503 -2.465938 -11.520025
v 6.855503 -2.465938 -11.520025
v 8.121779E-08 5.9604645E-08 -11.520027
v 6.855503 5.9604645E-08 -11.520025
v 8.121779E-08 -2.465938 -11.520027
v -6.855501 5.9604645E-08 -11.520027
v -6.855501 -2.465938 -11.520027
vt 19.02 0
vt 19.02 -25.168034
vt 6.8555017 -0.05660867
vt 6.855501 -11.520027
vt 19.02 19.019997
vt 6.8555017 6.907791
vt 2.2681124E-07 -25.168034
vt -8.121779E-08 -11.520027
vt -19.02 -25.168032
vt -6.855503 -11.520025
vt -19.02 -1.6627813E-06
vt -6.8555026 -0.056610823
vt -19.02 -1.6627813E-06
vt -19.02 19.019997
vt -6.8555026 6.907781
vt -19.02 19.019997
vt -8.3139065E-07 19.02
vt -4.6263239E-07 6.9077816
vt 19.02 19.019997
vt 19.019997 -2.4659383
vt -2.9833066E-06 5.9604645E-08
vt 19.019997 5.9604645E-08
vt -2.9833066E-06 -2.4659383
vt -19.019997 5.9604645E-08
vt -19.019997 -2.4659383
vt 19.019997 -2.4659383
vt 0 5.9604645E-08
vt 19.019997 5.9604645E-08
vt 0 -2.4659383
vt 0 -2.4659383
vt -25.168034 5.9604645E-08
vt 0 5.9604645E-08
vt -25.168034 -2.4659383
vt 19.02 -2.4659383
vt 2.2681124E-07 5.9604645E-08
vt 19.02 5.9604645E-08
vt 2.2681124E-07 -2.4659383
vt -19.019999 5.9604645E-08
vt -19.019999 -2.4659383
vt 25.168032 -2.4659383
vt 1.6627813E-06 5.9604645E-08
vt 25.168032 5.9604645E-08
vt 1.6627813E-06 -2.4659383
vt -19.019997 5.9604645E-08
vt -19.019997 -2.4659383
vt 11.520027 -2.465938
vt 0.056608383 5.9604645E-08
vt 11.520027 5.9604645E-08
vt 0.056608383 -2.465938
vt -6.907791 5.9604645E-08
vt -6.907791 -2.465938
vt 6.855511 -2.465938
vt 9.146838E-06 5.9604645E-08
vt 6.855511 5.9604645E-08
vt 9.146838E-06 -2.465938
vt -6.855502 5.9604645E-08
vt -6.855502 -2.465938
vt 6.907781 -2.465938
vt -0.056610823 5.9604645E-08
vt 6.907781 5.9604645E-08
vt -0.056610823 -2.465938
vt -11.520025 5.9604645E-08
vt -11.520025 -2.465938
vt 6.8554997 -2.465938
vt -3.123902E-06 5.9604645E-08
vt 6.8554997 5.9604645E-08
vt -3.123902E-06 -2.465938
vt -6.855501 5.9604645E-08
vt -6.855501 -2.465938
vn -0 1 0
vn -0 1 0
vn -0 1 0
vn -0 1 0
vn -0 0.99999994 0
vn -0 1 0
vn -0 1 0
vn -0 1 0
vn -0 1 0
vn -0 1 0
vn -0 1 0
vn -0 1 0
vn -0 0.99999994 0
vn -0 1 0
vn -0 1 0
vn -0 0.99999994 0
vn -0 1 0
vn -0 1 0
vn -0 1 0
vn 2.0056241E-07 0 0.99999994
vn 2.0056241E-07 0 0.99999994
vn 2.0056241E-07 0 0.99999994
vn 2.0056241E-07 0 0.99999994
vn -2.0056241E-07 0 0.99999994
vn -2.0056241E-07 0 0.99999994
vn -1 0 0
vn -1 0 0
vn -1 0 0
vn -1 0 0
vn -0.99999994 0 0
vn -0.99999994 0 0
vn -0.99999994 0 0
vn -0.99999994 0 0
vn -0 0 -0.99999994
vn -0 0 -0.99999994
vn -0 0 -0.99999994
vn -0 0 -0.99999994
vn 1.00281206E-07 0 -0.99999994
vn 1.00281206E-07 0 -0.99999994
vn 1 0 0
vn 1 0 0
vn 1 0 0
vn 1 0 0
vn 1 0 0
vn 1 0 0
vn 1 0 4.159642E-08
vn 1 0 4.159642E-08
vn 1 0 4.159642E-08
vn 1 0 4.159642E-08
vn 1 0 0
vn 1 0 0
vn -1.3911081E-06 0 -1
vn -1.3911081E-06 0 -1
vn -1.3911081E-06 0 -1
vn -1.3911081E-06 0 -1
vn -6.95554E-08 0 -1
vn -6.95554E-08 0 -1
vn -1 0 0
vn -1 0 0
vn -1 0 0
vn -1 0 0
vn -1 0 -4.1596433E-08
vn -1 0 -4.1596433E-08
vn -2.7822153E-07 0 1
vn -2.7822153E-07 0 1
vn -2.7822153E-07 0 1
vn -2.7822153E-07 0 1
vn -0 0 1
vn -0 0 1
g pb_Mesh129540_0
f 3/3/3 2/2/2 1/1/1
f 3/3/3 4/4/4 2/2/2
f 6/6/6 1/1/1 5/5/5
f 6/6/6 3/3/3 1/1/1
f 4/4/4 7/7/7 2/2/2
f 4/4/4 8/8/8 7/7/7
f 8/8/8 9/9/9 7/7/7
f 8/8/8 10/10/10 9/9/9
f 10/10/10 11/11/11 9/9/9
f 10/10/10 12/12/12 11/11/11
f 12/12/12 14/14/14 13/13/13
f 12/12/12 15/15/15 14/14/14
f 15/15/15 17/17/17 16/16/16
f 15/15/15 18/18/18 17/17/17
f 18/18/18 19/19/19 17/17/17
f 18/18/18 6/6/6 19/19/19
f 22/22/22 21/21/21 20/20/20
f 21/21/21 23/23/23 20/20/20
f 21/21/21 24/24/24 23/23/23
f 24/24/24 25/25/25 23/23/23
f 28/28/28 27/27/27 26/26/26
f 27/27/27 29/29/29 26/26/26
f 32/32/32 31/31/31 30/30/30
f 31/31/31 33/33/33 30/30/30
f 36/36/36 35/35/35 34/34/34
f 35/35/35 37/37/37 34/34/34
f 35/35/35 38/38/38 37/37/37
f 38/38/38 39/39/39 37/37/37
f 42/42/42 41/41/41 40/40/40
f 41/41/41 43/43/43 40/40/40
f 41/41/41 44/44/44 43/43/43
f 44/44/44 45/45/45 43/43/43
f 48/48/48 47/47/47 46/46/46
f 47/47/47 49/49/49 46/46/46
f 47/47/47 50/50/50 49/49/49
f 50/50/50 51/51/51 49/49/49
f 54/54/54 53/53/53 52/52/52
f 53/53/53 55/55/55 52/52/52
f 53/53/53 56/56/56 55/55/55
f 56/56/56 57/57/57 55/55/55
f 60/60/60 59/59/59 58/58/58
f 59/59/59 61/61/61 58/58/58
f 59/59/59 62/62/62 61/61/61
f 62/62/62 63/63/63 61/61/61
f 66/66/66 65/65/65 64/64/64
f 65/65/65 67/67/67 64/64/64
f 65/65/65 68/68/68 67/67/67
f 68/68/68 69/69/69 67/67/67
