g pb_Mesh-12777626
v -0.4869139 -0.11243354 3.9128146E-05
v -0.4869139 0.050383635 3.9128146E-05
v -0.4703227 -0.11243354 0.12606168
v -0.4703227 0.050383635 0.12606168
v -0.4703227 -0.11243354 0.12606168
v -0.4703227 0.050383635 0.12606168
v -0.4216798 -0.11243354 0.24349599
v -0.4216798 0.050383635 0.24349599
v -0.4216798 -0.11243354 0.24349599
v -0.4216798 0.050383635 0.24349599
v -0.34430015 -0.11243354 0.34433913
v -0.34430015 0.050383635 0.34433913
v -0.34430015 -0.11243354 0.34433913
v -0.34430015 0.050383635 0.34433913
v -0.24345699 -0.11243354 0.42171875
v -0.24345699 0.050383635 0.42171875
v -0.24345699 -0.11243354 0.42171875
v -0.24345699 0.050383635 0.42171875
v -0.12602271 -0.11243354 0.47036168
v -0.12602271 0.050383635 0.47036168
v -0.12602271 -0.11243354 0.47036168
v -0.12602271 0.050383635 0.47036168
v -1.420382E-07 -0.11243354 0.48695287
v -1.420382E-07 0.050383635 0.48695287
v -1.420382E-07 -0.11243354 0.48695287
v -1.420382E-07 0.050383635 0.48695287
v 0.1260224 -0.11243354 0.47036168
v 0.1260224 0.050383635 0.47036168
v 0.1260224 -0.11243354 0.47036168
v 0.1260224 0.050383635 0.47036168
v 0.24345674 -0.11243354 0.42171875
v 0.24345674 0.050383635 0.42171875
v 0.24345674 -0.11243354 0.42171875
v 0.24345674 0.050383635 0.42171875
v 0.34429985 -0.11243354 0.34433913
v 0.34429985 0.050383635 0.34433913
v 0.34429985 -0.11243354 0.34433913
v 0.34429985 0.050383635 0.34433913
v 0.4216795 -0.11243354 0.24349602
v 0.4216795 0.050383635 0.24349602
v 0.4216795 -0.11243354 0.24349602
v 0.4216795 0.050383635 0.24349602
v 0.47032234 -0.11243354 0.1260617
v 0.47032234 0.050383635 0.1260617
v 0.47032234 -0.11243354 0.1260617
v 0.47032234 0.050383635 0.1260617
v 0.48691356 -0.11243354 3.9085582E-05
v 0.48691356 0.050383635 3.9085582E-05
v 0.48691356 -0.11243354 3.9085582E-05
v 0.48691356 0.050383635 3.9085582E-05
v 0.47032234 -0.11243354 -0.12598345
v 0.47032234 0.050383635 -0.12598345
v 0.47032234 -0.11243354 -0.12598345
v 0.47032234 0.050383635 -0.12598345
v 0.4216795 -0.11243354 -0.24341772
v 0.4216795 0.050383635 -0.24341772
v 0.4216795 -0.11243354 -0.24341772
v 0.4216795 0.050383635 -0.24341772
v 0.34429985 -0.11243354 -0.34426087
v 0.34429985 0.050383635 -0.34426087
v 0.34429985 -0.11243354 -0.34426087
v 0.34429985 0.050383635 -0.34426087
v 0.24345665 -0.11243354 -0.42164055
v 0.24345665 0.050383635 -0.42164055
v 0.24345665 -0.11243354 -0.42164055
v 0.24345665 0.050383635 -0.42164055
v 0.12602238 -0.11243354 -0.47028345
v 0.12602238 0.050383635 -0.47028345
v 0.12602238 -0.11243354 -0.47028345
v 0.12602238 0.050383635 -0.47028345
v -1.6912827E-07 -0.11243354 -0.48687458
v -1.6912827E-07 0.050383635 -0.48687458
v -1.6912827E-07 -0.11243354 -0.48687458
v -1.6912827E-07 0.050383635 -0.48687458
v -0.12602268 -0.11243354 -0.47028336
v -0.12602268 0.050383635 -0.47028336
v -0.12602268 -0.11243354 -0.47028336
v -0.12602268 0.050383635 -0.47028336
v -0.24345697 -0.11243354 -0.42164055
v -0.24345697 0.050383635 -0.42164055
v -0.24345697 -0.11243354 -0.42164055
v -0.24345697 0.050383635 -0.42164055
v -0.34430012 -0.11243354 -0.3442609
v -0.34430012 0.050383635 -0.3442609
v -0.34430012 -0.11243354 -0.3442609
v -0.34430012 0.050383635 -0.3442609
v -0.42167976 -0.11243354 -0.24341781
v -0.42167976 0.050383635 -0.24341781
v -0.42167976 -0.11243354 -0.24341781
v -0.42167976 0.050383635 -0.24341781
v -0.4703227 -0.11243354 -0.12598354
v -0.4703227 0.050383635 -0.12598354
v -0.4703227 -0.11243354 -0.12598354
v -0.4703227 0.050383635 -0.12598354
v -0.4869139 -0.11243354 3.9128146E-05
v -0.4869139 0.050383635 3.9128146E-05
v -0.4703227 -0.11243354 0.12606168
v -1.6332186E-07 -0.11243354 3.9128146E-05
v -0.4869139 -0.11243354 3.9128146E-05
v -0.4216798 -0.11243354 0.24349599
v -0.34430015 -0.11243354 0.34433913
v -0.24345699 -0.11243354 0.42171875
v -0.12602271 -0.11243354 0.47036168
v -1.420382E-07 -0.11243354 0.48695287
v 0.1260224 -0.11243354 0.47036168
v 0.24345674 -0.11243354 0.42171875
v 0.34429985 -0.11243354 0.34433913
v 0.4216795 -0.11243354 0.24349602
v 0.47032234 -0.11243354 0.1260617
v 0.48691356 -0.11243354 3.9085582E-05
v 0.47032234 -0.11243354 -0.12598345
v 0.4216795 -0.11243354 -0.24341772
v 0.34429985 -0.11243354 -0.34426087
v 0.24345665 -0.11243354 -0.42164055
v 0.12602238 -0.11243354 -0.47028345
v -1.6912827E-07 -0.11243354 -0.48687458
v -0.12602268 -0.11243354 -0.47028336
v -0.24345697 -0.11243354 -0.42164055
v -0.34430012 -0.11243354 -0.3442609
v -0.42167976 -0.11243354 -0.24341781
v -0.4703227 -0.11243354 -0.12598354
v -0.4869139 0.050383635 3.9128146E-05
v -1.6332186E-07 0.050383635 3.9128146E-05
v -0.4703227 0.050383635 0.12606168
v -0.4216798 0.050383635 0.24349599
v -0.34430015 0.050383635 0.34433913
v -0.24345699 0.050383635 0.42171875
v -0.12602271 0.050383635 0.47036168
v -1.420382E-07 0.050383635 0.48695287
v 0.1260224 0.050383635 0.47036168
v 0.24345674 0.050383635 0.42171875
v 0.34429985 0.050383635 0.34433913
v 0.4216795 0.050383635 0.24349602
v 0.47032234 0.050383635 0.1260617
v 0.48691356 0.050383635 3.9085582E-05
v 0.47032234 0.050383635 -0.12598345
v 0.4216795 0.050383635 -0.24341772
v 0.34429985 0.050383635 -0.34426087
v 0.24345665 0.050383635 -0.42164055
v 0.12602238 0.050383635 -0.47028345
v -1.6912827E-07 0.050383635 -0.48687458
v -0.12602268 0.050383635 -0.47028336
v -0.24345697 0.050383635 -0.42164055
v -0.34430012 0.050383635 -0.3442609
v -0.42167976 0.050383635 -0.24341781
v -0.4703227 0.050383635 -0.12598354
vt -0.06351625 -0.11243354
vt -0.06351625 0.050383635
vt 0.063593745 -0.11243354
vt 0.063593745 0.050383635
vt -0.06351897 -0.11243354
vt -0.06351897 0.050383635
vt 0.06359102 -0.11243354
vt 0.06359102 0.050383635
vt -0.06352397 -0.11243354
vt -0.06352397 0.050383635
vt 0.06358603 -0.11243354
vt 0.06358603 0.050383635
vt -0.06353149 -0.11243354
vt -0.06353149 0.050383635
vt 0.0635785 -0.11243354
vt 0.0635785 0.050383635
vt -0.06353993 -0.11243354
vt -0.06353993 0.050383635
vt 0.063570045 -0.11243354
vt 0.063570045 0.050383635
vt -0.06355003 -0.11243354
vt -0.06355003 0.050383635
vt 0.06355999 -0.11243354
vt 0.06355999 0.050383635
vt -0.06356028 -0.11243354
vt -0.06356028 0.050383635
vt 0.06354971 -0.11243354
vt 0.06354971 0.050383635
vt -0.06357025 -0.11243354
vt -0.06357025 0.050383635
vt 0.06353977 -0.11243354
vt 0.06353977 0.050383635
vt -0.06357881 -0.11243354
vt -0.06357881 0.050383635
vt 0.06353115 -0.11243354
vt 0.06353115 0.050383635
vt -0.06358612 -0.11243354
vt -0.06358612 0.050383635
vt 0.063523844 -0.11243354
vt 0.063523844 0.050383635
vt -0.06359138 -0.11243354
vt -0.06359138 0.050383635
vt 0.0635186 -0.11243354
vt 0.0635186 0.050383635
vt -0.06359372 -0.11243354
vt -0.06359372 0.050383635
vt 0.06351633 -0.11243354
vt 0.06351633 0.050383635
vt -0.06359387 -0.11243354
vt -0.06359387 0.050383635
vt 0.06351611 -0.11243354
vt 0.06351611 0.050383635
vt -0.06359096 -0.11243354
vt -0.06359096 0.050383635
vt 0.063518986 -0.11243354
vt 0.063518986 0.050383635
vt -0.06358588 -0.11243354
vt -0.06358588 0.050383635
vt 0.06352412 -0.11243354
vt 0.06352412 0.050383635
vt -0.06357884 -0.11243354
vt -0.06357884 0.050383635
vt 0.06353122 -0.11243354
vt 0.06353122 0.050383635
vt -0.06356962 -0.11243354
vt -0.06356962 0.050383635
vt 0.06354033 -0.11243354
vt 0.06354033 0.050383635
vt -0.06356013 -0.11243354
vt -0.06356013 0.050383635
vt 0.06354986 -0.11243354
vt 0.06354986 0.050383635
vt -0.063549876 -0.11243354
vt -0.063549876 0.050383635
vt 0.06356009 -0.11243354
vt 0.06356009 0.050383635
vt -0.063539654 -0.11243354
vt -0.063539654 0.050383635
vt 0.06357028 -0.11243354
vt 0.06357028 0.050383635
vt -0.063531026 -0.11243354
vt -0.063531026 0.050383635
vt 0.06357897 -0.11243354
vt 0.06357897 0.050383635
vt -0.06352385 -0.11243354
vt -0.06352385 0.050383635
vt 0.06358609 -0.11243354
vt 0.06358609 0.050383635
vt -0.06351866 -0.11243354
vt -0.06351866 0.050383635
vt 0.06359132 -0.11243354
vt 0.06359132 0.050383635
vt -0.063516326 -0.11243354
vt -0.063516326 0.050383635
vt 0.06359378 -0.11243354
vt 0.06359378 0.050383635
vt -0.4703227 0.12606168
vt -1.6332186E-07 3.9128146E-05
vt -0.4869139 3.9128146E-05
vt -0.4216798 0.24349599
vt -0.34430015 0.34433913
vt -0.24345699 0.42171875
vt -0.12602271 0.47036168
vt -1.420382E-07 0.48695287
vt 0.1260224 0.47036168
vt 0.24345674 0.42171875
vt 0.34429985 0.34433913
vt 0.4216795 0.24349602
vt 0.47032234 0.1260617
vt 0.48691356 3.9085582E-05
vt 0.47032234 -0.12598345
vt 0.4216795 -0.24341772
vt 0.34429985 -0.34426087
vt 0.24345665 -0.42164055
vt 0.12602238 -0.47028345
vt -1.6912827E-07 -0.48687458
vt -0.12602268 -0.47028336
vt -0.24345697 -0.42164055
vt -0.34430012 -0.3442609
vt -0.42167976 -0.24341781
vt -0.4703227 -0.12598354
vt 0.4869139 3.9128146E-05
vt 1.6332186E-07 3.9128146E-05
vt 0.4703227 0.12606168
vt 0.4216798 0.24349599
vt 0.34430015 0.34433913
vt 0.24345699 0.42171875
vt 0.12602271 0.47036168
vt 1.420382E-07 0.48695287
vt -0.1260224 0.47036168
vt -0.24345674 0.42171875
vt -0.34429985 0.34433913
vt -0.4216795 0.24349602
vt -0.47032234 0.1260617
vt -0.48691356 3.9085582E-05
vt -0.47032234 -0.12598345
vt -0.4216795 -0.24341772
vt -0.34429985 -0.34426087
vt -0.24345665 -0.42164055
vt -0.12602238 -0.47028345
vt 1.6912827E-07 -0.48687458
vt 0.12602268 -0.47028336
vt 0.24345697 -0.42164055
vt 0.34430012 -0.3442609
vt 0.42167976 -0.24341781
vt 0.4703227 -0.12598354
vn -1 0 6.011897E-08
vn -1 0 6.011897E-08
vn -0.9659258 0 0.25881913
vn -0.9659258 0 0.25881913
vn -0.9659258 0 0.25881913
vn -0.9659258 0 0.25881913
vn -0.8660254 0 0.5
vn -0.8660254 0 0.5
vn -0.8660254 0 0.5
vn -0.8660254 0 0.5
vn -0.7071067 0 0.7071068
vn -0.7071067 0 0.7071068
vn -0.7071067 0 0.7071068
vn -0.7071067 0 0.7071068
vn -0.50000006 0 0.8660254
vn -0.50000006 0 0.8660254
vn -0.50000006 0 0.8660254
vn -0.50000006 0 0.8660254
vn -0.2588193 0 0.96592575
vn -0.2588193 0 0.96592575
vn -0.2588193 0 0.96592575
vn -0.2588193 0 0.96592575
vn 7.514871E-09 0 1
vn 7.514871E-09 0 1
vn 7.514871E-09 0 1
vn 7.514871E-09 0 1
vn 0.25881922 0 0.96592575
vn 0.25881922 0 0.96592575
vn 0.25881922 0 0.96592575
vn 0.25881922 0 0.96592575
vn 0.50000006 0 0.8660254
vn 0.50000006 0 0.8660254
vn 0.50000006 0 0.8660254
vn 0.50000006 0 0.8660254
vn 0.7071067 0 0.7071068
vn 0.7071067 0 0.7071068
vn 0.7071067 0 0.7071068
vn 0.7071067 0 0.7071068
vn 0.86602545 0 0.49999988
vn 0.86602545 0 0.49999988
vn 0.86602545 0 0.49999988
vn 0.86602545 0 0.49999988
vn 0.9659258 0 0.258819
vn 0.9659258 0 0.258819
vn 0.9659258 0 0.258819
vn 0.9659258 0 0.258819
vn 1 0 -3.757436E-08
vn 1 0 -3.757436E-08
vn 1 0 -3.757436E-08
vn 1 0 -3.757436E-08
vn 0.9659258 0 -0.2588191
vn 0.9659258 0 -0.2588191
vn 0.9659258 0 -0.2588191
vn 0.9659258 0 -0.2588191
vn 0.8660255 0 -0.49999985
vn 0.8660255 0 -0.49999985
vn 0.8660255 0 -0.49999985
vn 0.8660255 0 -0.49999985
vn 0.7071067 0 -0.7071068
vn 0.7071067 0 -0.7071068
vn 0.7071067 0 -0.7071068
vn 0.7071067 0 -0.7071068
vn 0.50000006 0 -0.8660254
vn 0.50000006 0 -0.8660254
vn 0.50000006 0 -0.8660254
vn 0.50000006 0 -0.8660254
vn 0.258819 0 -0.9659258
vn 0.258819 0 -0.9659258
vn 0.258819 0 -0.9659258
vn 0.258819 0 -0.9659258
vn -3.6071384E-07 0 -1
vn -3.6071384E-07 0 -1
vn -3.6071384E-07 0 -1
vn -3.6071384E-07 0 -1
vn -0.25881898 0 -0.9659258
vn -0.25881898 0 -0.9659258
vn -0.25881898 0 -0.9659258
vn -0.25881898 0 -0.9659258
vn -0.49999973 0 -0.86602557
vn -0.49999973 0 -0.86602557
vn -0.49999973 0 -0.86602557
vn -0.49999973 0 -0.86602557
vn -0.7071067 0 -0.7071069
vn -0.7071067 0 -0.7071069
vn -0.7071067 0 -0.7071069
vn -0.7071067 0 -0.7071069
vn -0.86602527 0 -0.50000024
vn -0.86602527 0 -0.50000024
vn -0.86602527 0 -0.50000024
vn -0.86602527 0 -0.50000024
vn -0.96592575 0 -0.25881925
vn -0.96592575 0 -0.25881925
vn -0.96592575 0 -0.25881925
vn -0.96592575 0 -0.25881925
vn -1 0 6.011897E-08
vn -1 0 6.011897E-08
vn -0 -1 0
vn -0 -1 0
vn -0 -1 0
vn -0 -1 0
vn -0 -1 0
vn -0 -1 0
vn -0 -1 0
vn -0 -1 0
vn -0 -1 0
vn -0 -1 0
vn -0 -1 0
vn -0 -1 0
vn -0 -1 0
vn -0 -1 0
vn -0 -1 0
vn -0 -1 0
vn -0 -1 0
vn -0 -1 0
vn -0 -1 0
vn -0 -1 0
vn -0 -1 0
vn -0 -1 0
vn -0 -1 0
vn -0 -1 0
vn -0 -1 0
vn -0 1 0
vn -0 1 0
vn -0 1 0
vn -0 1 0
vn -0 1 0
vn -0 1 0
vn -0 1 0
vn -0 1 0
vn -0 1 0
vn -0 1 0
vn -0 1 0
vn -0 1 0
vn -0 1 0
vn -0 1 0
vn -0 1 0
vn -0 1 0
vn -0 1 0
vn -0 1 0
vn -0 1 0
vn -0 1 0
vn -0 1 0
vn -0 1 0
vn -0 1 0
vn -0 1 0
vn -0 1 0
g pb_Mesh-12777626_0
f 3/3/3 2/2/2 1/1/1
f 3/3/3 4/4/4 2/2/2
f 7/7/7 6/6/6 5/5/5
f 7/7/7 8/8/8 6/6/6
f 11/11/11 10/10/10 9/9/9
f 11/11/11 12/12/12 10/10/10
f 15/15/15 14/14/14 13/13/13
f 15/15/15 16/16/16 14/14/14
f 19/19/19 18/18/18 17/17/17
f 19/19/19 20/20/20 18/18/18
f 23/23/23 22/22/22 21/21/21
f 23/23/23 24/24/24 22/22/22
f 27/27/27 26/26/26 25/25/25
f 27/27/27 28/28/28 26/26/26
f 31/31/31 30/30/30 29/29/29
f 31/31/31 32/32/32 30/30/30
f 35/35/35 34/34/34 33/33/33
f 35/35/35 36/36/36 34/34/34
f 39/39/39 38/38/38 37/37/37
f 39/39/39 40/40/40 38/38/38
f 43/43/43 42/42/42 41/41/41
f 43/43/43 44/44/44 42/42/42
f 47/47/47 46/46/46 45/45/45
f 47/47/47 48/48/48 46/46/46
f 51/51/51 50/50/50 49/49/49
f 51/51/51 52/52/52 50/50/50
f 55/55/55 54/54/54 53/53/53
f 55/55/55 56/56/56 54/54/54
f 59/59/59 58/58/58 57/57/57
f 59/59/59 60/60/60 58/58/58
f 63/63/63 62/62/62 61/61/61
f 63/63/63 64/64/64 62/62/62
f 67/67/67 66/66/66 65/65/65
f 67/67/67 68/68/68 66/66/66
f 71/71/71 70/70/70 69/69/69
f 71/71/71 72/72/72 70/70/70
f 75/75/75 74/74/74 73/73/73
f 75/75/75 76/76/76 74/74/74
f 79/79/79 78/78/78 77/77/77
f 79/79/79 80/80/80 78/78/78
f 83/83/83 82/82/82 81/81/81
f 83/83/83 84/84/84 82/82/82
f 87/87/87 86/86/86 85/85/85
f 87/87/87 88/88/88 86/86/86
f 91/91/91 90/90/90 89/89/89
f 91/91/91 92/92/92 90/90/90
f 95/95/95 94/94/94 93/93/93
f 95/95/95 96/96/96 94/94/94
f 99/99/99 98/98/98 97/97/97
f 97/97/97 98/98/98 100/100/100
f 100/100/100 98/98/98 101/101/101
f 101/101/101 98/98/98 102/102/102
f 102/102/102 98/98/98 103/103/103
f 103/103/103 98/98/98 104/104/104
f 104/104/104 98/98/98 105/105/105
f 105/105/105 98/98/98 106/106/106
f 106/106/106 98/98/98 107/107/107
f 107/107/107 98/98/98 108/108/108
f 108/108/108 98/98/98 109/109/109
f 109/109/109 98/98/98 110/110/110
f 110/110/110 98/98/98 111/111/111
f 111/111/111 98/98/98 112/112/112
f 112/112/112 98/98/98 113/113/113
f 113/113/113 98/98/98 114/114/114
f 114/114/114 98/98/98 115/115/115
f 115/115/115 98/98/98 116/116/116
f 116/116/116 98/98/98 117/117/117
f 117/117/117 98/98/98 118/118/118
f 118/118/118 98/98/98 119/119/119
f 119/119/119 98/98/98 120/120/120
f 120/120/120 98/98/98 121/121/121
f 121/121/121 98/98/98 99/99/99
f 124/124/124 123/123/123 122/122/122
f 125/125/125 123/123/123 124/124/124
f 126/126/126 123/123/123 125/125/125
f 127/127/127 123/123/123 126/126/126
f 128/128/128 123/123/123 127/127/127
f 129/129/129 123/123/123 128/128/128
f 130/130/130 123/123/123 129/129/129
f 131/131/131 123/123/123 130/130/130
f 132/132/132 123/123/123 131/131/131
f 133/133/133 123/123/123 132/132/132
f 134/134/134 123/123/123 133/133/133
f 135/135/135 123/123/123 134/134/134
f 136/136/136 123/123/123 135/135/135
f 137/137/137 123/123/123 136/136/136
f 138/138/138 123/123/123 137/137/137
f 139/139/139 123/123/123 138/138/138
f 140/140/140 123/123/123 139/139/139
f 141/141/141 123/123/123 140/140/140
f 142/142/142 123/123/123 141/141/141
f 143/143/143 123/123/123 142/142/142
f 144/144/144 123/123/123 143/143/143
f 145/145/145 123/123/123 144/144/144
f 146/146/146 123/123/123 145/145/145
f 122/122/122 123/123/123 146/146/146
