g pb_Mesh246092
v -2.2968135 -0.25020027 2.9254568
v -3.1674714 -0.25020027 1.3684201
v -2.2968135 0.25003624 2.9254568
v 1.3938307 -0.25020027 -2.9254558
v 1.3715714 0.25020123 -2.8557208
v -3.202941 0.25003624 1.308649
v 3.194491 -0.25020027 0.43818545
v -2.2968135 -0.25020027 2.9254568
v 3.20294 0.25003624 0.41218185
v -2.2968135 0.25003624 2.9254568
v -3.1674714 -0.25020027 1.3684201
v -3.202941 0.25003624 1.308649
v -3.1674714 -0.25020027 1.3684201
v 1.3938307 -0.25020027 -2.9254558
v -3.202941 0.25003624 1.308649
v 1.3938307 -0.25020027 -2.9254558
v 3.194491 -0.25020027 0.43818545
v 1.3715714 0.25020123 -2.8557208
v 3.20294 0.25003624 0.41218185
v 3.20294 0.25003624 0.41218185
v -2.2968135 0.25003624 2.9254568
v 1.3715714 0.25020123 -2.8557208
v -3.202941 0.25003624 1.308649
v 1.3938307 -0.25020027 -2.9254558
v -3.1674714 -0.25020027 1.3684201
v 3.194491 -0.25020027 0.43818545
v -2.2968135 -0.25020027 2.9254568
vt 0.7230723 0
vt -0.8447412 0
vt 0.7230723 0.5002365
vt -1.0909724 -1.8787029
vt -1.2930124 -1.8366218
vt -2.1533582 -1.0329033
vt 0 0
vt -1.3450822 -5.943371E-13
vt 0.019336658 0.5002365
vt -1.3450822 0.5002365
vt -0.8447412 0
vt -0.680757 0.5002365
vt -0.8447412 0
vt -1.0909724 -1.8787029
vt -0.680757 0.5002365
vt 2.1945348 0
vt 0 0
vt 2.1945348 0.5002365
vt -0.0028935915 0.5002365
vt -0.017621994 -0.007960722
vt 1.2269096 0.55130625
vt 1.1925697 -1.842216
vt 2.1330357 -1
vt -1.1925697 -1.842216
vt -1 -1
vt 0 0
vt -1.2269096 0.55130625
vn -0.87281233 0 0.48805594
vn -0.9746976 -0.040738817 0.21978396
vn -0.87257576 -0.0017187705 0.48847583
vn -0.67898965 -0.030897608 -0.7334974
vn -0.6713887 0.07291284 -0.73750997
vn -0.86126775 0.0023851271 -0.5081458
vn 0.41226006 0.040349994 0.9101723
vn 0.41394848 0.020174997 0.90985143
vn 0.41394848 0.020174997 0.90985143
vn 0.41563687 0 0.90953064
vn -0.9746976 -0.040738817 0.21978396
vn -0.86126775 0.0023851271 -0.5081458
vn -0.9746976 -0.040738817 0.21978396
vn -0.67898965 -0.030897608 -0.7334974
vn -0.86126775 0.0023851271 -0.5081458
vn 0.87680167 0.10441434 -0.4693788
vn 0.87422585 0.032149665 -0.47893155
vn 0.87422585 0.032149665 -0.47893155
vn 0.8716501 -0.040115003 -0.4884843
vn 1.8367537E-05 1 4.0193343E-05
vn -2.757175E-06 1 2.678888E-05
vn -2.757175E-06 1 2.678888E-05
vn -2.3881887E-05 1 1.3384419E-05
vn -0 -1 0
vn -0 -1 0
vn -0 -1 0
vn -0 -1 0
g pb_Mesh246092_0
f 3/3/3 2/2/2 1/1/1
f 6/6/6 5/5/5 4/4/4
f 9/9/9 8/8/8 7/7/7
f 9/9/9 10/10/10 8/8/8
f 3/3/3 12/12/12 11/11/11
f 15/15/15 14/14/14 13/13/13
f 18/18/18 17/17/17 16/16/16
f 18/18/18 19/19/19 17/17/17
f 22/22/22 21/21/21 20/20/20
f 22/22/22 23/23/23 21/21/21
f 26/26/26 25/25/25 24/24/24
f 26/26/26 27/27/27 25/25/25
