g pb_Mesh416176
v 10.507488 15.6118 -0.6194892
v 9.726206 15.611798 -0.61948776
v 10.414225 17.567717 -0.7189388
v 9.819462 17.567717 -0.7189374
v 9.726206 15.611798 -0.61948776
v 9.726202 15.611798 -1.4140515
v 9.819462 17.567717 -0.7189374
v 9.81946 17.567717 -1.3144822
v 9.726202 15.611798 -1.4140515
v 10.507483 15.611798 -1.4140606
v 9.81946 17.567717 -1.3144822
v 10.414223 17.567717 -1.3144836
v 10.507483 15.611798 -1.4140606
v 10.507488 15.6118 -0.6194892
v 10.414223 17.567717 -1.3144836
v 10.414225 17.567717 -0.7189388
v 10.414225 17.567717 -0.7189388
v 9.819462 17.567717 -0.7189374
v 10.414223 17.567717 -1.3144836
v 9.81946 17.567717 -1.3144822
v 10.507483 15.611798 -1.4140606
v 9.726202 15.611798 -1.4140515
v 10.507488 15.6118 -0.6194892
v 9.726206 15.611798 -0.61948776
vt 0 0
vt -0.7812824 -1.9098127E-06
vt -0.093263455 1.9584432
vt -0.68802625 1.9584432
vt -2.32042E-06 -0.037210498
vt -0.7945666 -0.037210498
vt -0.099451505 1.9209298
vt -0.6949968 1.9209298
vt 0.781277 -0.040399052
vt -3.4919904E-06 -0.040399052
vt 0.6880203 1.9180521
vt 0.09325747 1.9180523
vt 0.7945719 -1.9095155E-06
vt 0 0
vt 0.6949956 1.9581386
vt 0.09945032 1.9581387
vt 0.093263626 -0.099449635
vt 0.6880264 -0.099448204
vt 0.09326553 -0.6949949
vt 0.68802834 -0.6949935
vt -5.722046E-06 -0.7945719
vt -0.78128624 -0.7945628
vt 0 0
vt -0.7812824 1.4305069E-06
vn 1.704647E-06 0.05078003 0.9987099
vn 2.0073765E-06 0.050779924 0.99870986
vn 2.0073765E-06 0.050779924 0.99870986
vn 2.4050426E-06 0.05077978 0.99870986
vn -0.99886525 0.04762502 4.7955477E-06
vn -0.99886525 0.047625266 4.10963E-06
vn -0.99886525 0.047625266 4.10963E-06
vn -0.9988653 0.047625594 3.1944926E-06
vn -1.158123E-05 0.050841402 -0.9987067
vn -7.6150322E-06 0.0508428 -0.99870664
vn -7.6150322E-06 0.0508428 -0.99870664
vn -2.4050348E-06 0.05084463 -0.9987066
vn 0.99886525 0.0476271 -7.3075807E-06
vn 0.99886525 0.047627725 -5.5454793E-06
vn 0.99886525 0.047627725 -5.5454793E-06
vn 0.99886507 0.047628548 -3.1944949E-06
vn -0 1 0
vn -0 1 0
vn -0 1 0
vn -0 1 0
vn 2.783645E-11 -1 2.4004748E-06
vn 1.2206619E-06 -1 1.2002358E-06
vn 1.2206619E-06 -1 1.2002358E-06
vn 2.441305E-06 -1 -1.1720695E-11
g pb_Mesh416176_0
f 3/3/3 2/2/2 1/1/1
f 3/3/3 4/4/4 2/2/2
f 7/7/7 6/6/6 5/5/5
f 7/7/7 8/8/8 6/6/6
f 11/11/11 10/10/10 9/9/9
f 11/11/11 12/12/12 10/10/10
f 15/15/15 14/14/14 13/13/13
f 15/15/15 16/16/16 14/14/14
f 19/19/19 18/18/18 17/17/17
f 19/19/19 20/20/20 18/18/18
f 23/23/23 22/22/22 21/21/21
f 23/23/23 24/24/24 22/22/22
