g pb_Mesh240342
v -0.8613202 -0.46221697 0
v -0.8613202 -0.46221697 1.2
v -1.2 -0.31133223 0
v -1.2 0 1.2
v -0.8613202 -0.46221697 1.2
v -0.8613202 -0.46221697 2.4
v -1.2 0 1.2
v -1.2 0 2.4
v -0.8613202 -0.46221697 3.6
v -1.2 0 3.6
v -0.8613202 -0.46221697 4.8
v -1.2 0 4.8
v -0.8613202 -0.46221697 6
v -1.2 0 4.8
v -1.2 -0.18984249 6
v -1.2 -0.31133223 0
v -1.2 0 1.2
v -2.4 -0.31133223 0
v -2.4 0 1.2
v -1.2 0 1.2
v -1.2 0 2.4
v -2.4 0 1.2
v -2.4 0 2.4
v -1.2 0 3.6
v -2.4 0 2.4
v -2.4 0.041660424 3.6
v -1.2 0 3.6
v -1.2 0 4.8
v -2.4 0.041660424 3.6
v -2.4 0.07615968 4.8
v -1.2 0 4.8
v -1.2 -0.18984249 6
v -2.4 0.07615968 4.8
v -2.4 -0.18984249 6
v -3.6 -0.31133223 0
v -3.6 0 1.2
v -3.6 0 1.2
v -3.6 0 2.4
v -2.4 0 2.4
v -2.4 0.041660424 3.6
v -3.6 0 2.4
v -3.6 0 3.6
v -2.4 0.041660424 3.6
v -2.4 0.07615968 4.8
v -3.6 0 3.6
v -3.6 0.058533687 4.8
v -2.4 0.07615968 4.8
v -2.4 -0.18984249 6
v -3.6 0.058533687 4.8
v -3.6 -0.18984249 6
v -4.8 -0.31133223 0
v -4.8 0 1.2
v -4.8 0 1.2
v -4.8 0 2.4
v -3.6 0 3.6
v -4.8 0 3.6
v -3.6 0 3.6
v -3.6 0.058533687 4.8
v -4.8 0 3.6
v -4.8 0.058533687 4.8
v -3.6 0.058533687 4.8
v -4.8 0.058533687 4.8
v -4.8 -0.18984249 6
v -4.8 -0.31133223 0
v -4.8 0 1.2
v -5.2343464 -0.25829223 0
v -5.2343464 -0.25829223 1.2
v -4.8 0 1.2
v -4.8 0 2.4
v -5.2343464 -0.25829223 2.4
v -4.8 0 3.6
v -5.2343464 -0.25829223 3.6
v -4.8 0 3.6
v -4.8 0.058533687 4.8
v -5.2343464 -0.25829223 3.6
v -5.2343464 -0.25829223 4.8
v -4.8 0.058533687 4.8
v -4.8 -0.18984249 6
v -5.2343464 -0.25829223 4.8
v -5.2343464 -0.25829223 6
vt 0.383909 0.21023917
vt 0.383909 0.21325445
vt 0.38476706 0.21024418
vt 0.3847816 0.21326995
vt 0.383909 0.21325445
vt 0.383909 0.21626973
vt 0.3847816 0.21326995
vt 0.3847816 0.21628523
vt 0.383909 0.21928477
vt 0.3847816 0.21930051
vt 0.383909 0.22230005
vt 0.3847816 0.22231579
vt 0.383909 0.22531533
vt 0.3847816 0.22231579
vt 0.38477278 0.22532439
vt 0.38476706 0.21024418
vt 0.3847816 0.21326995
vt 0.3877821 0.21024323
vt 0.38779664 0.21326923
vt 0.3847816 0.21326995
vt 0.3847816 0.21628523
vt 0.38779664 0.21326923
vt 0.38779664 0.21628451
vt 0.3847816 0.21930051
vt 0.38779664 0.21628451
vt 0.38779855 0.21930099
vt 0.3847816 0.21930051
vt 0.3847816 0.22231579
vt 0.38779855 0.21930099
vt 0.38780022 0.22231746
vt 0.3847816 0.22231579
vt 0.38477278 0.22532439
vt 0.38780022 0.22231746
vt 0.38778782 0.22532368
vt 0.3907969 0.21024251
vt 0.39081168 0.21326852
vt 0.39081168 0.21326852
vt 0.39081168 0.21628356
vt 0.38779664 0.21628451
vt 0.38779855 0.21930099
vt 0.39081168 0.21628356
vt 0.39081168 0.21929884
vt 0.38779855 0.21930099
vt 0.38780022 0.22231746
vt 0.39081168 0.21929884
vt 0.39081454 0.22231603
vt 0.38780022 0.22231746
vt 0.38778782 0.22532368
vt 0.39081454 0.22231603
vt 0.39080262 0.22532296
vt 0.39381194 0.2102418
vt 0.39382672 0.21326756
vt 0.39382672 0.21326756
vt 0.39382672 0.21628284
vt 0.39081168 0.21929884
vt 0.39382672 0.21929812
vt 0.39081168 0.21929884
vt 0.39081454 0.22231603
vt 0.39382672 0.21929812
vt 0.39382935 0.22231531
vt 0.39081454 0.22231603
vt 0.39382935 0.22231531
vt 0.39381766 0.22532201
vt 0.39381194 0.2102418
vt 0.39382672 0.21326756
vt 0.3949058 0.21024323
vt 0.3949058 0.2132585
vt 0.39382672 0.21326756
vt 0.39382672 0.21628284
vt 0.3949058 0.21627378
vt 0.39382672 0.21929812
vt 0.3949058 0.21928906
vt 0.39382672 0.21929812
vt 0.39382935 0.22231531
vt 0.3949058 0.21928906
vt 0.3949058 0.22230434
vt 0.39382935 0.22231531
vt 0.39381766 0.22532201
vt 0.3949058 0.22230434
vt 0.3949058 0.22531939
vn 0.40694994 0.91345054 0
vn 0.667983 0.73799306 -0.095733754
vn 0.667983 0.73799306 -0.095733754
vn 0.79731774 0.58421797 -0.15157157
vn 0.80663735 0.5910467 0
vn 0.80663735 0.5910467 0
vn 0.80663735 0.5910467 0
vn 0.80663735 0.5910467 0
vn 0.80663735 0.59104675 0
vn 0.80663735 0.59104675 0
vn 0.80663735 0.5910467 0
vn 0.80663735 0.5910467 0
vn 0.7341101 0.67691594 0.05354477
vn 0.7341101 0.67691594 0.05354477
vn 0.62199134 0.7734056 0.12235441
vn -0 0.96795356 -0.2511293
vn -0 0.96795356 -0.2511293
vn -0 0.96795356 -0.2511293
vn -0 0.96795356 -0.2511293
vn -0 1 0
vn -0 1 0
vn -0 1 0
vn -0 1 0
vn 0.01735328 0.99969876 -0.017353285
vn 0.01735328 0.99969876 -0.017353285
vn 0.034675248 0.9987968 -0.034675255
vn 0.034696113 0.9993979 0
vn 0.04902761 0.99869436 -0.014355916
vn 0.04902761 0.99869436 -0.014355916
vn 0.0633129 0.99758154 -0.02867984
vn 0.062563986 0.9857812 0.15595266
vn 0.0311607 0.981959 0.18650869
vn 0.0311607 0.981959 0.18650869
vn -0 0.9763014 0.21641529
vn -0 0.9679535 -0.25112924
vn -0 0.9679535 -0.25112924
vn -0 1 0
vn -0 1 0
vn -0 0.9993978 -0.03469612
vn -0.017353283 0.99969876 -0.017353283
vn -0.017353283 0.99969876 -0.017353283
vn -0.03469612 0.9993978 0
vn -0.03468181 0.9989856 -0.02872021
vn -0.024676625 0.9989453 -0.038722835
vn -0.024676625 0.9989453 -0.038722835
vn -0.0146693075 0.99870497 -0.048714895
vn -0.014338762 0.97620106 0.21639304
vn -0.0071808994 0.97776943 0.20955978
vn -0.0071808994 0.97776943 0.20955978
vn -0 0.9792442 0.20268413
vn -0 0.96795356 -0.25112927
vn -0 0.96795356 -0.25112927
vn -0 1 0
vn -0 1 0
vn -0 1 0
vn -0 1 0
vn -0 0.9988123 -0.04872013
vn -0 0.9988123 -0.04872013
vn -0 0.9988123 -0.04872013
vn -0 0.9988123 -0.04872013
vn -0 0.9792442 0.20268413
vn -0 0.9792442 0.20268413
vn -0 0.9792442 0.20268413
vn 0.11738407 0.96126175 -0.24939312
vn -0.22813497 0.9655394 -0.12525147
vn -0.22813497 0.9655394 -0.12525147
vn -0.51112264 0.8595077 0
vn -0.51112264 0.8595077 0
vn -0.51112264 0.8595077 0
vn -0.51112264 0.8595077 0
vn -0.51112264 0.8595078 0
vn -0.51112264 0.8595078 0
vn -0.51067406 0.85875344 -0.041888326
vn -0.55191845 0.83365023 -0.020331921
vn -0.55191845 0.83365023 -0.020331921
vn -0.589312 0.8079056 0
vn -0.5812415 0.79684144 0.16493039
vn -0.40362453 0.91006416 0.09418262
vn -0.40362453 0.91006416 0.09418262
vn -0.15567134 0.98780894 0
g pb_Mesh240342_0
f 3/3/3 2/2/2 1/1/1
f 3/3/3 4/4/4 2/2/2
f 7/7/7 6/6/6 5/5/5
f 7/7/7 8/8/8 6/6/6
f 8/8/8 9/9/9 6/6/6
f 8/8/8 10/10/10 9/9/9
f 10/10/10 11/11/11 9/9/9
f 10/10/10 12/12/12 11/11/11
f 14/14/14 13/13/13 11/11/11
f 14/14/14 15/15/15 13/13/13
f 18/18/18 17/17/17 16/16/16
f 18/18/18 19/19/19 17/17/17
f 22/22/22 21/21/21 20/20/20
f 22/22/22 23/23/23 21/21/21
f 25/25/25 24/24/24 21/21/21
f 25/25/25 26/26/26 24/24/24
f 29/29/29 28/28/28 27/27/27
f 29/29/29 30/30/30 28/28/28
f 33/33/33 32/32/32 31/31/31
f 33/33/33 34/34/34 32/32/32
f 35/35/35 19/19/19 18/18/18
f 35/35/35 36/36/36 19/19/19
f 37/37/37 23/23/23 22/22/22
f 37/37/37 38/38/38 23/23/23
f 41/41/41 40/40/40 39/39/39
f 41/41/41 42/42/42 40/40/40
f 45/45/45 44/44/44 43/43/43
f 45/45/45 46/46/46 44/44/44
f 49/49/49 48/48/48 47/47/47
f 49/49/49 50/50/50 48/48/48
f 51/51/51 36/36/36 35/35/35
f 51/51/51 52/52/52 36/36/36
f 53/53/53 38/38/38 37/37/37
f 53/53/53 54/54/54 38/38/38
f 54/54/54 55/55/55 38/38/38
f 54/54/54 56/56/56 55/55/55
f 59/59/59 58/58/58 57/57/57
f 59/59/59 60/60/60 58/58/58
f 62/62/62 50/50/50 61/61/61
f 62/62/62 63/63/63 50/50/50
f 66/66/66 65/65/65 64/64/64
f 66/66/66 67/67/67 65/65/65
f 67/67/67 69/69/69 68/68/68
f 67/67/67 70/70/70 69/69/69
f 70/70/70 71/71/71 69/69/69
f 70/70/70 72/72/72 71/71/71
f 75/75/75 74/74/74 73/73/73
f 75/75/75 76/76/76 74/74/74
f 79/79/79 78/78/78 77/77/77
f 79/79/79 80/80/80 78/78/78
