g pb_Mesh414766
v -4 -8.5 0
v -4 2.5 0
v -2.828427 -8.5 2.828427
v -2.828427 2.5 2.828427
v -2.828427 -8.5 2.828427
v -2.828427 2.5 2.828427
v 1.7484555E-07 -8.5 4
v 1.7484555E-07 2.5 4
v 1.7484555E-07 -8.5 4
v 1.7484555E-07 2.5 4
v 2.828427 -8.5 2.828427
v 2.828427 2.5 2.828427
v 2.828427 -8.5 2.828427
v 2.828427 2.5 2.828427
v 4 -8.5 -3.496911E-07
v 4 2.5 -3.496911E-07
v 4 -8.5 -3.496911E-07
v 4 2.5 -3.496911E-07
v 2.8284273 -8.5 -2.8284268
v 2.8284273 2.5 -2.8284268
v 2.8284273 -8.5 -2.8284268
v 2.8284273 2.5 -2.8284268
v -4.7699523E-08 -8.5 -4
v -4.7699523E-08 2.5 -4
v -4.7699523E-08 -8.5 -4
v -4.7699523E-08 2.5 -4
v -2.8284266 -8.5 -2.8284276
v -2.8284266 2.5 -2.8284276
v -2.8284266 -8.5 -2.8284276
v -2.8284266 2.5 -2.8284276
v -4 -8.5 0
v -4 2.5 0
v -2.828427 -8.5 2.828427
v -0 -8.5 0
v -4 -8.5 0
v 1.7484555E-07 -8.5 4
v 2.828427 -8.5 2.828427
v 4 -8.5 -3.496911E-07
v 2.8284273 -8.5 -2.8284268
v -4.7699523E-08 -8.5 -4
v -2.8284266 -8.5 -2.8284276
v -4 2.5 0
v -0 2.5 0
v -2.828427 2.5 2.828427
v 1.7484555E-07 2.5 4
v 2.828427 2.5 2.828427
v 4 2.5 -3.496911E-07
v 2.8284273 2.5 -2.8284268
v -4.7699523E-08 2.5 -4
v -2.8284266 2.5 -2.8284276
vt 0.45647648 0.48647952
vt 0.45647648 0.56951815
vt 0.47958723 0.48647952
vt 0.47958723 0.56951815
vt 0.45647648 0.48647952
vt 0.45647648 0.56951815
vt 0.47958723 0.48647952
vt 0.47958723 0.56951815
vt 0.45647648 0.48647952
vt 0.45647648 0.56951815
vt 0.47958723 0.48647952
vt 0.47958723 0.56951815
vt 0.45647648 0.48647952
vt 0.45647648 0.56951815
vt 0.4795873 0.48647952
vt 0.4795873 0.56951815
vt 0.45647648 0.48647952
vt 0.45647648 0.56951815
vt 0.47958723 0.48647952
vt 0.47958723 0.56951815
vt 0.45647648 0.48647952
vt 0.45647648 0.56951815
vt 0.4795873 0.48647952
vt 0.4795873 0.56951815
vt 0.45647648 0.48647952
vt 0.45647648 0.56951815
vt 0.47958723 0.48647952
vt 0.47958723 0.56951815
vt 0.45647648 0.48647952
vt 0.45647648 0.56951815
vt 0.4795873 0.48647952
vt 0.4795873 0.56951815
vt 0.4853983 0.5310572
vt 0.49294102 0.52351445
vt 0.482274 0.52351445
vt 0.49294102 0.5341815
vt 0.50048375 0.5310572
vt 0.5036081 0.52351445
vt 0.50048375 0.5159717
vt 0.49294102 0.5128474
vt 0.4853983 0.5159717
vt 0.5036081 0.52351445
vt 0.49294102 0.52351445
vt 0.50048375 0.5310572
vt 0.49294102 0.5341815
vt 0.4853983 0.5310572
vt 0.482274 0.52351445
vt 0.4853983 0.5159717
vt 0.49294102 0.5128474
vt 0.50048375 0.5159717
vn -0.9238795 0 -1.4901161E-08
vn -0.9238795 0 -1.4901161E-08
vn -0.6532815 0 0.6532815
vn -0.6532815 0 0.6532815
vn -0.6532815 0 0.6532815
vn -0.6532815 0 0.6532815
vn 2.9802322E-08 0 0.9238795
vn 2.9802322E-08 0 0.9238795
vn 2.9802322E-08 0 0.9238795
vn 2.9802322E-08 0 0.9238795
vn 0.6532815 0 0.65328145
vn 0.6532815 0 0.65328145
vn 0.6532815 0 0.65328145
vn 0.6532815 0 0.65328145
vn 0.9238795 0 -1.4901161E-08
vn 0.9238795 0 -1.4901161E-08
vn 0.9238795 0 -1.4901161E-08
vn 0.9238795 0 -1.4901161E-08
vn 0.6532815 0 -0.6532815
vn 0.6532815 0 -0.6532815
vn 0.6532815 0 -0.6532815
vn 0.6532815 0 -0.6532815
vn 5.9604645E-08 0 -0.9238795
vn 5.9604645E-08 0 -0.9238795
vn 5.9604645E-08 0 -0.9238795
vn 5.9604645E-08 0 -0.9238795
vn -0.65328145 0 -0.6532815
vn -0.65328145 0 -0.6532815
vn -0.65328145 0 -0.6532815
vn -0.65328145 0 -0.6532815
vn -0.9238795 0 -1.4901161E-08
vn -0.9238795 0 -1.4901161E-08
vn -0 -0.99999994 0
vn -0 -0.99999994 0
vn -0 -0.99999994 0
vn -0 -0.99999994 0
vn -0 -0.99999994 0
vn -0 -0.99999994 0
vn -0 -0.99999994 0
vn -0 -0.99999994 0
vn -0 -0.99999994 0
vn -0 0.99999994 0
vn -0 0.99999994 0
vn -0 0.99999994 0
vn -0 0.99999994 0
vn -0 0.99999994 0
vn -0 0.99999994 0
vn -0 0.99999994 0
vn -0 0.99999994 0
vn -0 0.99999994 0
g pb_Mesh414766_0
f 3/3/3 2/2/2 1/1/1
f 3/3/3 4/4/4 2/2/2
f 7/7/7 6/6/6 5/5/5
f 7/7/7 8/8/8 6/6/6
f 11/11/11 10/10/10 9/9/9
f 11/11/11 12/12/12 10/10/10
f 15/15/15 14/14/14 13/13/13
f 15/15/15 16/16/16 14/14/14
f 19/19/19 18/18/18 17/17/17
f 19/19/19 20/20/20 18/18/18
f 23/23/23 22/22/22 21/21/21
f 23/23/23 24/24/24 22/22/22
f 27/27/27 26/26/26 25/25/25
f 27/27/27 28/28/28 26/26/26
f 31/31/31 30/30/30 29/29/29
f 31/31/31 32/32/32 30/30/30
f 35/35/35 34/34/34 33/33/33
f 33/33/33 34/34/34 36/36/36
f 36/36/36 34/34/34 37/37/37
f 37/37/37 34/34/34 38/38/38
f 38/38/38 34/34/34 39/39/39
f 39/39/39 34/34/34 40/40/40
f 40/40/40 34/34/34 41/41/41
f 41/41/41 34/34/34 35/35/35
f 44/44/44 43/43/43 42/42/42
f 45/45/45 43/43/43 44/44/44
f 46/46/46 43/43/43 45/45/45
f 47/47/47 43/43/43 46/46/46
f 48/48/48 43/43/43 47/47/47
f 49/49/49 43/43/43 48/48/48
f 50/50/50 43/43/43 49/49/49
f 42/42/42 43/43/43 50/50/50
