g pb_Mesh-37670
v -1.3446503 1.4936547 0.19601639
v -1.3446503 0.99140024 0.19601639
v -1.0693207 0.99140024 -1.6938144
v -1.3446503 1.4936547 0.19601639
v -1.0693207 0.99140024 -1.6938144
v -1.0693207 1.4936547 -1.6938144
v -1.0693207 1.4936547 -1.6938144
v -0.87807655 1.4936547 -1.6921577
v -1.1316986 1.4936548 0.19601639
v -1.0693207 1.4936547 -1.6938144
v -1.1316986 1.4936548 0.19601639
v -1.3446503 1.4936547 0.19601639
v -1.0693207 0.99140024 -1.6938144
v -1.3446503 0.99140024 0.19601639
v -1.0770912 0.27311155 0.19601639
v -1.0693207 0.99140024 -1.6938144
v -1.0770912 0.27311155 0.19601639
v -0.80176353 0.27311155 -1.6938144
v -1.1316986 1.4936548 0.19601639
v -0.87807655 1.4936547 -1.6921577
v -0.66109467 0.79685646 -1.6921577
v -1.1316986 1.4936548 0.19601639
v -0.66109467 0.79685646 -1.6921577
v -0.9147148 0.79685664 0.19601639
vt 0.13738994 0.24204099
vt 0.13738994 0.24204099
vt 0.13738994 0.24204099
vt 0.13738994 0.24204099
vt 0.13738994 0.24204099
vt 0.13738994 0.24204099
vt 0.26862776 0.54480743
vt 0.26862776 0.54480743
vt 0.26862776 0.54480743
vt 0.26862776 0.54480743
vt 0.26862776 0.54480743
vt 0.26862776 0.54480743
vt 0.11017047 0.24204099
vt 0.1099917 0.24204099
vt 0.1099917 0.24204099
vt 0.11017047 0.24204099
vt 0.1099917 0.24204099
vt 0.11017047 0.24204099
vt 0.17014432 0.54608226
vt 0.17014432 0.54608226
vt 0.17014432 0.54608226
vt 0.17014432 0.54608226
vt 0.17014432 0.54608226
vt 0.17014432 0.54608226
vn -0.9895532 0 -0.14416808
vn -0.9895532 0 -0.14416808
vn -0.9895532 0 -0.14416808
vn -0.9895532 0 -0.14416808
vn -0.9895532 0 -0.14416808
vn -0.9895532 0 -0.14416808
vn -2.796244E-07 1 -7.230895E-08
vn 5.462684E-10 1 -6.3061314E-08
vn -2.796244E-07 1 -7.230895E-08
vn -2.796244E-07 1 -7.230895E-08
vn -2.796244E-07 1 -7.230895E-08
vn -5.5979507E-07 1 -8.1556585E-08
vn -0.9284859 -0.3458553 -0.13527071
vn -0.92848545 -0.34585634 -0.13527112
vn -0.9284859 -0.3458553 -0.13527071
vn -0.9284859 -0.3458553 -0.13527071
vn -0.9284859 -0.3458553 -0.13527071
vn -0.92848635 -0.34585422 -0.13527031
vn 0.9470224 0.2949026 0.1272048
vn 0.9470227 0.29490137 0.12720531
vn 0.9470224 0.2949026 0.1272048
vn 0.9470224 0.2949026 0.1272048
vn 0.9470224 0.2949026 0.1272048
vn 0.9470221 0.2949038 0.12720428
g pb_Mesh-37670_0
f 3/3/3 2/2/2 1/1/1
f 6/6/6 5/5/5 4/4/4
f 9/9/9 8/8/8 7/7/7
f 12/12/12 11/11/11 10/10/10
f 15/15/15 14/14/14 13/13/13
f 18/18/18 17/17/17 16/16/16
f 21/21/21 20/20/20 19/19/19
f 24/24/24 23/23/23 22/22/22
