g pb_Mesh444218
v -0 0 0
v -0.7812824 -1.9073486E-06 1.4305115E-06
v -0.093263626 2.5278482 -0.099449635
v -0.6880264 2.5278482 -0.099448204
v -0.7812824 -1.9073486E-06 1.4305115E-06
v -0.78128624 -1.9073486E-06 -0.7945628
v -0.6880264 2.5278482 -0.099448204
v -0.68802834 2.5278482 -0.6949935
v -0.78128624 -1.9073486E-06 -0.7945628
v -5.722046E-06 -1.9073486E-06 -0.7945719
v -0.68802834 2.5278482 -0.6949935
v -0.09326553 2.5278482 -0.6949949
v -5.722046E-06 -1.9073486E-06 -0.7945719
v -0 0 0
v -0.09326553 2.5278482 -0.6949949
v -0.093263626 2.5278482 -0.099449635
v -0.093263626 2.5278482 -0.099449635
v -0.6880264 2.5278482 -0.099448204
v -0.09326553 2.5278482 -0.6949949
v -0.68802834 2.5278482 -0.6949935
v -5.722046E-06 -1.9073486E-06 -0.7945719
v -0.78128624 -1.9073486E-06 -0.7945628
v -0 0 0
v -0.7812824 -1.9073486E-06 1.4305115E-06
vt 0 0
vt -0.7812824 -1.9088243E-06
vt -0.093263455 2.5298038
vt -0.68802625 2.5298038
vt -2.32042E-06 -0.028805085
vt -0.7945666 -0.028805085
vt -0.099451505 2.5007646
vt -0.6949968 2.5007648
vt 0.781277 -0.031275332
vt -3.4919897E-06 -0.031275332
vt 0.6880203 2.4985352
vt 0.09325747 2.4985354
vt 0.7945719 -1.9086465E-06
vt 0 0
vt 0.6949956 2.5295682
vt 0.09945031 2.5295682
vt 0.093263626 -0.099449635
vt 0.6880264 -0.099448204
vt 0.09326553 -0.6949949
vt 0.68802834 -0.6949935
vt -5.722046E-06 -0.7945719
vt -0.78128624 -0.7945628
vt 0 0
vt -0.7812824 1.4305069E-06
vn 1.7335925E-06 0.03931127 0.999227
vn 2.0287443E-06 0.03931119 0.999227
vn 2.0287443E-06 0.03931119 0.999227
vn 2.4164567E-06 0.03931109 0.9992271
vn -0.9993202 0.036866535 4.797729E-06
vn -0.99932027 0.03686673 4.1153016E-06
vn -0.99932027 0.03686673 4.1153016E-06
vn -0.9993202 0.036866978 3.2048204E-06
vn -1.1587241E-05 0.03935884 -0.99922514
vn -7.6233805E-06 0.039359923 -0.99922514
vn -7.6233805E-06 0.039359923 -0.99922514
vn -2.4164517E-06 0.039361335 -0.999225
vn 0.99932003 0.036868136 -7.2850244E-06
vn 0.99932015 0.036868624 -5.537011E-06
vn 0.99932015 0.036868624 -5.537011E-06
vn 0.99932015 0.036869265 -3.2048224E-06
vn -0 1 0
vn -0 1 0
vn -0 1 0
vn -0 1 0
vn 2.7836435E-11 -1 2.4004735E-06
vn 1.2206619E-06 -1 1.2002351E-06
vn 1.2206619E-06 -1 1.2002351E-06
vn 2.4413048E-06 -1 -1.1720687E-11
g pb_Mesh444218_0
f 3/3/3 2/2/2 1/1/1
f 3/3/3 4/4/4 2/2/2
f 7/7/7 6/6/6 5/5/5
f 7/7/7 8/8/8 6/6/6
f 11/11/11 10/10/10 9/9/9
f 11/11/11 12/12/12 10/10/10
f 15/15/15 14/14/14 13/13/13
f 15/15/15 16/16/16 14/14/14
f 19/19/19 18/18/18 17/17/17
f 19/19/19 20/20/20 18/18/18
f 23/23/23 22/22/22 21/21/21
f 23/23/23 24/24/24 22/22/22
