g pb_Mesh493486
v -0.09638928 0 2.8601848E-06
v -0.09638928 1.1870966 2.8601848E-06
v -0.06563549 0 0.074249074
v -0.06563549 1.1870966 0.074249074
v 0.008610731 0 0.105002865
v 0.008610731 1.1870966 0.105002865
v 0.008610731 0 0.105002865
v 0.008610731 1.1870966 0.105002865
v 0.08285694 0 0.074249074
v 0.08285694 1.1870966 0.074249074
v 0.11361073 0 2.8510053E-06
v 0.11361073 1.1870966 2.8510053E-06
v 0.11361073 0 2.8510053E-06
v 0.11361073 1.1870966 2.8510053E-06
v 0.082856946 0 -0.074243344
v 0.082856946 1.1870966 -0.074243344
v 0.0086107245 0 -0.10499714
v 0.0086107245 1.1870966 -0.10499714
v 0.0086107245 0 -0.10499714
v 0.0086107245 1.1870966 -0.10499714
v -0.06563547 0 -0.07424337
v -0.06563547 1.1870966 -0.07424337
v -0.09638928 0 2.8601848E-06
v -0.09638928 1.1870966 2.8601848E-06
v -0.06563549 0 0.074249074
v 0.008610726 0 2.8601848E-06
v -0.09638928 0 2.8601848E-06
v 0.008610731 0 0.105002865
v 0.008610726 0 2.8601848E-06
v -0.06563549 0 0.074249074
v 0.08285694 0 0.074249074
v 0.008610726 0 2.8601848E-06
v 0.008610731 0 0.105002865
v 0.11361073 0 2.8510053E-06
v 0.008610726 0 2.8601848E-06
v 0.08285694 0 0.074249074
v 0.082856946 0 -0.074243344
v 0.008610726 0 2.8601848E-06
v 0.11361073 0 2.8510053E-06
v 0.0086107245 0 -0.10499714
v 0.008610726 0 2.8601848E-06
v 0.082856946 0 -0.074243344
v -0.06563547 0 -0.07424337
v 0.008610726 0 2.8601848E-06
v 0.0086107245 0 -0.10499714
v -0.09638928 0 2.8601848E-06
v 0.008610726 0 2.8601848E-06
v -0.06563547 0 -0.07424337
v -0.09638928 1.1870966 2.8601848E-06
v 0.008610726 1.1870966 2.8601848E-06
v -0.06563549 1.1870966 0.074249074
v -0.06563549 1.1870966 0.074249074
v 0.008610726 1.1870966 2.8601848E-06
v 0.008610731 1.1870966 0.105002865
v 0.008610731 1.1870966 0.105002865
v 0.008610726 1.1870966 2.8601848E-06
v 0.08285694 1.1870966 0.074249074
v 0.08285694 1.1870966 0.074249074
v 0.008610726 1.1870966 2.8601848E-06
v 0.11361073 1.1870966 2.8510053E-06
v 0.11361073 1.1870966 2.8510053E-06
v 0.008610726 1.1870966 2.8601848E-06
v 0.082856946 1.1870966 -0.074243344
v 0.082856946 1.1870966 -0.074243344
v 0.008610726 1.1870966 2.8601848E-06
v 0.0086107245 1.1870966 -0.10499714
v 0.0086107245 1.1870966 -0.10499714
v 0.008610726 1.1870966 2.8601848E-06
v -0.06563547 1.1870966 -0.07424337
v -0.06563547 1.1870966 -0.07424337
v 0.008610726 1.1870966 2.8601848E-06
v -0.09638928 1.1870966 2.8601848E-06
vt 0.26162544 0.44278407
vt 0.26162544 0.44619417
vt 0.26171377 0.44278407
vt 0.26171377 0.44619417
vt 0.26192707 0.44278407
vt 0.26192707 0.44619417
vt 0.26192707 0.44278407
vt 0.26192707 0.44619417
vt 0.26214036 0.44278407
vt 0.26214036 0.44619417
vt 0.2622287 0.44278407
vt 0.2622287 0.44619417
vt 0.2622287 0.44278407
vt 0.2622287 0.44619417
vt 0.26214036 0.44278407
vt 0.26214036 0.44619417
vt 0.26192707 0.44278407
vt 0.26192707 0.44619417
vt 0.26192707 0.44278407
vt 0.26192707 0.44619417
vt 0.26171377 0.44278407
vt 0.26171377 0.44619417
vt 0.26162544 0.44278407
vt 0.26162544 0.44619417
vt 0.26171377 0.44278407
vt 0.26192707 0.44278407
vt 0.26162544 0.44278407
vt 0.26192707 0.44278407
vt 0.26192707 0.44278407
vt 0.26171377 0.44278407
vt 0.26214036 0.44278407
vt 0.26192707 0.44278407
vt 0.26192707 0.44278407
vt 0.2622287 0.44278407
vt 0.26192707 0.44278407
vt 0.26214036 0.44278407
vt 0.26214036 0.44278407
vt 0.26192707 0.44278407
vt 0.2622287 0.44278407
vt 0.26192707 0.44278407
vt 0.26192707 0.44278407
vt 0.26214036 0.44278407
vt 0.26171377 0.44278407
vt 0.26192707 0.44278407
vt 0.26192707 0.44278407
vt 0.26162544 0.44278407
vt 0.26192707 0.44278407
vt 0.26171377 0.44278407
vt 0.26162544 0.44619417
vt 0.26192707 0.44619417
vt 0.26171377 0.44619417
vt 0.26171377 0.44619417
vt 0.26192707 0.44619417
vt 0.26192707 0.44619417
vt 0.26192707 0.44619417
vt 0.26192707 0.44619417
vt 0.26214036 0.44619417
vt 0.26214036 0.44619417
vt 0.26192707 0.44619417
vt 0.2622287 0.44619417
vt 0.2622287 0.44619417
vt 0.26192707 0.44619417
vt 0.26214036 0.44619417
vt 0.26214036 0.44619417
vt 0.26192707 0.44619417
vt 0.26192707 0.44619417
vt 0.26192707 0.44619417
vt 0.26192707 0.44619417
vt 0.26171377 0.44619417
vt 0.26171377 0.44619417
vt 0.26192707 0.44619417
vt 0.26162544 0.44619417
vn -0.9238795 0 -1.4901161E-08
vn -0.9238795 0 -1.4901161E-08
vn -0.6532815 0 0.65328145
vn -0.6532815 0 0.65328145
vn 2.9802322E-08 0 0.9238795
vn 2.9802322E-08 0 0.9238795
vn 2.9802322E-08 0 0.9238795
vn 2.9802322E-08 0 0.9238795
vn 0.65328145 0 0.65328145
vn 0.65328145 0 0.65328145
vn 0.9238795 0 -1.4901161E-08
vn 0.9238795 0 -1.4901161E-08
vn 0.9238795 0 -1.4901161E-08
vn 0.9238795 0 -1.4901161E-08
vn 0.65328157 0 -0.65328145
vn 0.65328157 0 -0.65328145
vn 7.4505806E-08 0 -0.9238795
vn 7.4505806E-08 0 -0.9238795
vn 7.4505806E-08 0 -0.9238795
vn 7.4505806E-08 0 -0.9238795
vn -0.6532814 0 -0.65328157
vn -0.6532814 0 -0.65328157
vn -0.9238795 0 -1.4901161E-08
vn -0.9238795 0 -1.4901161E-08
vn -0 -1 0
vn -0 -1 0
vn -0 -1 0
vn -0 -1 0
vn -0 -1 0
vn -0 -1 0
vn -0 -1 0
vn -0 -1 0
vn -0 -1 0
vn -0 -1 0
vn -0 -1 0
vn -0 -1 0
vn -0 -1 0
vn -0 -1 0
vn -0 -1 0
vn -0 -1 0
vn -0 -1 0
vn -0 -1 0
vn -0 -1 0
vn -0 -1 0
vn -0 -1 0
vn -0 -1 0
vn -0 -1 0
vn -0 -1 0
vn -0 1 0
vn -0 1 0
vn -0 1 0
vn -0 1 0
vn -0 1 0
vn -0 1 0
vn -0 1 0
vn -0 1 0
vn -0 1 0
vn -0 1 0
vn -0 1 0
vn -0 1 0
vn -0 1 0
vn -0 1 0
vn -0 1 0
vn -0 1 0
vn -0 1 0
vn -0 1 0
vn -0 1 0
vn -0 1 0
vn -0 1 0
vn -0 1 0
vn -0 1 0
vn -0 1 0
g pb_Mesh493486_0
f 3/3/3 2/2/2 1/1/1
f 3/3/3 4/4/4 2/2/2
f 5/5/5 4/4/4 3/3/3
f 5/5/5 6/6/6 4/4/4
f 9/9/9 8/8/8 7/7/7
f 9/9/9 10/10/10 8/8/8
f 11/11/11 10/10/10 9/9/9
f 11/11/11 12/12/12 10/10/10
f 15/15/15 14/14/14 13/13/13
f 15/15/15 16/16/16 14/14/14
f 17/17/17 16/16/16 15/15/15
f 17/17/17 18/18/18 16/16/16
f 21/21/21 20/20/20 19/19/19
f 21/21/21 22/22/22 20/20/20
f 23/23/23 22/22/22 21/21/21
f 23/23/23 24/24/24 22/22/22
f 27/27/27 26/26/26 25/25/25
f 30/30/30 29/29/29 28/28/28
f 33/33/33 32/32/32 31/31/31
f 36/36/36 35/35/35 34/34/34
f 39/39/39 38/38/38 37/37/37
f 42/42/42 41/41/41 40/40/40
f 45/45/45 44/44/44 43/43/43
f 48/48/48 47/47/47 46/46/46
f 51/51/51 50/50/50 49/49/49
f 54/54/54 53/53/53 52/52/52
f 57/57/57 56/56/56 55/55/55
f 60/60/60 59/59/59 58/58/58
f 63/63/63 62/62/62 61/61/61
f 66/66/66 65/65/65 64/64/64
f 69/69/69 68/68/68 67/67/67
f 72/72/72 71/71/71 70/70/70
