g pb_Mesh232842
v 10.282008 5.989401 -12.599838
v 13.264611 5.989401 -9.2965355
v 8.660659 5.989402 -12.471748
v 11.868405 5.9893827 -11.819801
v 12.739108 5.989402 -11.305353
v 7.1702433 5.989401 -8.895409
v 11.65775 5.989401 -6.903858
v 8.944936 5.989382 -6.9803276
v 7.928857 5.989403 -10.877998
v 7.7480135 5.989403 -11.401878
v 11.177611 5.989402 -11.703312
v 11.541516 2.6142197 -7.169033
v 9.035245 2.6142187 -7.2396774
v 8.944936 5.989382 -6.9803276
v 11.65775 5.989401 -6.903858
v 11.73614 2.6142187 -11.710714
v 12.540549 2.6142197 -11.23543
v 12.739108 5.989402 -11.305353
v 11.868405 5.9893827 -11.819801
v 11.097938 2.6142197 -11.603081
v 11.73614 2.6142187 -11.710714
v 11.868405 5.9893827 -11.819801
v 11.177611 5.989402 -11.703312
v 10.270524 2.6142187 -12.43137
v 11.097938 2.6142197 -11.603081
v 11.177611 5.989402 -11.703312
v 10.282008 5.989401 -12.599838
v 8.772609 2.6142197 -12.31303
v 10.270524 2.6142187 -12.43137
v 10.282008 5.989401 -12.599838
v 8.660659 5.989402 -12.471748
v 7.9294405 2.6142197 -11.324608
v 8.772609 2.6142197 -12.31303
v 8.660659 5.989402 -12.471748
v 7.7480135 5.989403 -11.401878
v 9.035245 2.6142187 -7.2396774
v 7.3956575 2.6142197 -9.008961
v 7.1702433 5.989401 -8.895409
v 8.944936 5.989382 -6.9803276
v 13.0260515 2.6142197 -9.379547
v 11.541516 2.6142197 -7.169033
v 11.65775 5.989401 -6.903858
v 13.264611 5.989401 -9.2965355
v 7.3956575 2.6142197 -9.008961
v 8.09652 2.6142197 -10.840609
v 7.928857 5.989403 -10.877998
v 7.1702433 5.989401 -8.895409
v 12.540549 2.6142197 -11.23543
v 13.0260515 2.6142197 -9.379547
v 13.264611 5.989401 -9.2965355
v 12.739108 5.989402 -11.305353
v 8.09652 2.6142197 -10.840609
v 7.9294405 2.6142197 -11.324608
v 7.7480135 5.989403 -11.401878
v 7.928857 5.989403 -10.877998
vt 0.8154892 0.8328725
vt 0.7620249 0.78459877
vt 0.813416 0.8591142
vt 0.80286413 0.80719656
vt 0.7945378 0.7931041
vt 0.7555326 0.8832367
vt 0.7232992 0.810606
vt 0.7245369 0.85451317
vt 0.787621 0.8709585
vt 0.7961001 0.8738855
vt 0.8009788 0.81837714
vt 0.3331513 0.8931146
vt 0.29258707 0.8931146
vt 0.29112542 0.947742
vt 0.33503258 0.9477422
vt 0.46269387 0.8844132
vt 0.46269396 0.8921057
vt 0.5173216 0.89097404
vt 0.5173213 0.88264763
vt 0.27252004 0.9491251
vt 0.28284937 0.9491251
vt 0.2849901 0.89449775
vt 0.27380952 0.8944975
vt 0.25912827 0.9491251
vt 0.27252004 0.9491251
vt 0.27380952 0.8944975
vt 0.25931412 0.8944975
vt 0.23488434 0.9491251
vt 0.25912827 0.9491251
vt 0.25931412 0.8944975
vt 0.2330724 0.8944975
vt 0.52345693 0.95799935
vt 0.52345693 0.9739971
vt 0.5780846 0.97656596
vt 0.5780846 0.95925003
vt 0.52345693 0.89188445
vt 0.52345693 0.9205204
vt 0.5780846 0.9186825
vt 0.57808423 0.8876868
vt 0.46269396 0.92214334
vt 0.46269396 0.95792073
vt 0.5173216 0.9622126
vt 0.5173216 0.92348695
vt 0.52345693 0.9205204
vt 0.52345693 0.95016575
vt 0.5780846 0.950771
vt 0.5780846 0.9186825
vt 0.46269396 0.8921057
vt 0.46269396 0.92214334
vt 0.5173216 0.92348695
vt 0.5173216 0.89097404
vt 0.52345693 0.95016575
vt 0.52345693 0.95799935
vt 0.5780846 0.95925003
vt 0.5780846 0.950771
vn -5.262651E-06 1 4.751729E-06
vn -1.0669162E-06 1 -1.9810755E-06
vn 5.332529E-07 1 -4.728492E-07
vn -1.0477988E-06 1 -6.6013126E-06
vn -2.6242476E-05 0.99999994 7.339729E-06
vn -3.9363617E-06 1 8.869698E-06
vn -3.738997E-06 1 8.684513E-06
vn -7.507746E-06 1 1.6917002E-05
vn 2.1397986E-07 1 1.5728138E-07
vn 4.8850865E-07 1 -3.7407546E-07
vn 1.9572228E-05 1 -1.6575514E-05
vn -0.028091788 -0.077332065 0.99660957
vn -0.028091447 -0.077331804 0.99660957
vn -0.028091788 -0.077332065 0.99660957
vn -0.028092105 -0.07733231 0.9966095
vn 0.5081102 -0.047706965 -0.85996985
vn 0.508112 -0.04770767 -0.8599687
vn 0.5081102 -0.047706965 -0.85996985
vn 0.50810844 -0.047706317 -0.8599709
vn -0.1662396 -0.02534755 -0.9857595
vn -0.16624923 -0.02534526 -0.98575807
vn -0.1662396 -0.02534755 -0.9857595
vn -0.16623074 -0.02534967 -0.98576105
vn 0.70697373 -0.037658963 -0.7062364
vn 0.7069787 -0.037661392 -0.70623136
vn 0.70697373 -0.037658963 -0.7062364
vn 0.7069691 -0.03765672 -0.7062411
vn -0.07866077 -0.049430564 -0.9956752
vn -0.07866118 -0.049430374 -0.99567515
vn -0.07866077 -0.049430564 -0.9956752
vn -0.07866039 -0.04943073 -0.99567527
vn -0.7596157 -0.055666756 -0.64798546
vn -0.7596155 -0.055666916 -0.64798576
vn -0.7596157 -0.055666756 -0.64798546
vn -0.75961596 -0.055666607 -0.6479852
vn -0.73159355 -0.07166968 0.67796326
vn -0.731593 -0.07166897 0.6779641
vn -0.73159355 -0.07166968 0.67796326
vn -0.73159415 -0.07167036 0.6779626
vn 0.82799757 -0.07220089 0.5560639
vn 0.82799655 -0.07220228 0.5560652
vn 0.82799757 -0.07220089 0.5560639
vn 0.8279985 -0.072199605 0.5560627
vn -0.9327809 -0.050289404 -0.35691845
vn -0.9327804 -0.05029015 -0.35691965
vn -0.9327809 -0.050289404 -0.35691845
vn -0.93278134 -0.050288714 -0.35691735
vn 0.96558106 -0.062036272 -0.252596
vn 0.9655807 -0.062035225 -0.25259763
vn 0.96558106 -0.062036272 -0.252596
vn 0.9655814 -0.062037226 -0.2525944
vn -0.9443769 -0.043300405 0.32600203
vn -0.9443759 -0.043299783 0.32600513
vn -0.9443769 -0.043300405 0.32600203
vn -0.94437796 -0.043300983 0.3259992
g pb_Mesh232842_0
f 3/3/3 2/2/2 1/1/1
f 2/2/2 5/5/5 4/4/4
f 8/8/8 7/7/7 6/6/6
f 9/9/9 6/6/6 7/7/7
f 2/2/2 9/9/9 7/7/7
f 10/10/10 9/9/9 2/2/2
f 3/3/3 10/10/10 2/2/2
f 2/2/2 11/11/11 1/1/1
f 11/11/11 2/2/2 4/4/4
f 14/14/14 13/13/13 12/12/12
f 15/15/15 14/14/14 12/12/12
f 18/18/18 17/17/17 16/16/16
f 19/19/19 18/18/18 16/16/16
f 22/22/22 21/21/21 20/20/20
f 23/23/23 22/22/22 20/20/20
f 26/26/26 25/25/25 24/24/24
f 27/27/27 26/26/26 24/24/24
f 30/30/30 29/29/29 28/28/28
f 31/31/31 30/30/30 28/28/28
f 34/34/34 33/33/33 32/32/32
f 35/35/35 34/34/34 32/32/32
f 38/38/38 37/37/37 36/36/36
f 39/39/39 38/38/38 36/36/36
f 42/42/42 41/41/41 40/40/40
f 43/43/43 42/42/42 40/40/40
f 46/46/46 45/45/45 44/44/44
f 47/47/47 46/46/46 44/44/44
f 50/50/50 49/49/49 48/48/48
f 51/51/51 50/50/50 48/48/48
f 54/54/54 53/53/53 52/52/52
f 55/55/55 54/54/54 52/52/52
