g pb_Mesh-113469394
v 0.030000001 -0.024997711 0
v -0.030000001 -0.024997711 0
v 0.030000001 -0.024997711 1
v -0.030000001 -0.024997711 1
v -0.030000001 -0.024997711 0
v -0.030000001 0.024997711 0
v -0.030000001 -0.024997711 1
v -0.030000001 0.024997711 1
v -0.030000001 0.024997711 0
v 0.030000001 0.024997711 0
v -0.030000001 0.024997711 1
v 0.030000001 0.024997711 1
v 0.030000001 0.024997711 0
v 0.030000001 -0.024997711 0
v 0.030000001 0.024997711 1
v 0.030000001 -0.024997711 1
v 0.0029999912 -0.0024986267 1.1509247
v -0.0029999912 -0.0024986267 1.1509247
v 0.0029999912 0.0024986267 1.1509247
v -0.0029999912 0.0024986267 1.1509247
v 0.030000001 0.024997711 0
v -0.030000001 0.024997711 0
v 0.030000001 -0.024997711 0
v -0.030000001 -0.024997711 0
v 0.030000001 -0.024997711 1
v -0.030000001 -0.024997711 1
v 0.0029999912 -0.0024986267 1.1509247
v -0.0029999912 -0.0024986267 1.1509247
v 0.030000001 0.024997711 1
v 0.030000001 -0.024997711 1
v 0.0029999912 0.0024986267 1.1509247
v 0.0029999912 -0.0024986267 1.1509247
v -0.030000001 -0.024997711 1
v -0.030000001 0.024997711 1
v -0.0029999912 -0.0024986267 1.1509247
v -0.0029999912 0.0024986267 1.1509247
v -0.030000001 0.024997711 1
v 0.030000001 0.024997711 1
v -0.0029999912 0.0024986267 1.1509247
v 0.0029999912 0.0024986267 1.1509247
vt 0.030000001 0
vt -0.030000001 0
vt 0.030000001 1
vt -0.030000001 1
vt 0 -0.024997711
vt 0 0.024997711
vt 1 -0.024997711
vt 1 0.024997711
vt 0.030000001 0
vt -0.030000001 0
vt 0.030000001 1
vt -0.030000001 1
vt 0 0.024997711
vt -0 -0.024997711
vt -1 0.024997711
vt -1 -0.024997711
vt 0.0029999912 -0.0024986267
vt -0.0029999912 -0.0024986267
vt 0.0029999912 0.0024986267
vt -0.0029999912 0.0024986267
vt -0.030000001 0.024997711
vt 0.030000001 0.024997711
vt -0.030000001 -0.024997711
vt 0.030000001 -0.024997711
vt 0.030000001 0.9853844
vt -0.030000001 0.9853844
vt 0.0029999912 1.1379769
vt -0.0029999912 1.1379769
vt -0.97908896 0.024997711
vt -0.97908896 -0.024997711
vt -1.1324098 0.0024986267
vt -1.1324098 -0.0024986267
vt 0.97908896 -0.024997711
vt 0.97908896 0.024997711
vt 1.1324098 -0.0024986267
vt 1.1324098 0.0024986267
vt 0.030000001 0.9853844
vt -0.030000001 0.9853844
vt 0.0029999912 1.1379769
vt -0.0029999912 1.1379769
vn -0 -1 0
vn -0 -1 0
vn -0 -1 0
vn -0 -1 0
vn -1 0 0
vn -1 0 0
vn -1 0 0
vn -1 0 0
vn -0 1 0
vn -0 1 0
vn -0 1 0
vn -0 1 0
vn 1 0 0
vn 1 0 0
vn 1 0 0
vn 1 0 0
vn -0 0 1
vn -0 0 1
vn -0 0 1
vn -0 0 1
vn -0 0 -1
vn -0 0 -1
vn -0 0 -1
vn -0 0 -1
vn -0 -0.9890701 0.14744554
vn -0 -0.98907024 0.14744556
vn -0 -0.98907024 0.14744556
vn -0 -0.9890702 0.14744554
vn 0.9843721 0 0.17610145
vn 0.9843721 0 0.17610143
vn 0.9843721 0 0.17610143
vn 0.98437196 0 0.17610145
vn -0.9843721 0 0.17610145
vn -0.9843721 0 0.17610143
vn -0.9843721 0 0.17610143
vn -0.98437196 0 0.17610145
vn -0 0.9890701 0.14744554
vn -0 0.98907024 0.14744556
vn -0 0.98907024 0.14744556
vn -0 0.9890702 0.14744554
g pb_Mesh-113469394_0
f 3/3/3 2/2/2 1/1/1
f 3/3/3 4/4/4 2/2/2
f 7/7/7 6/6/6 5/5/5
f 7/7/7 8/8/8 6/6/6
f 11/11/11 10/10/10 9/9/9
f 11/11/11 12/12/12 10/10/10
f 15/15/15 14/14/14 13/13/13
f 15/15/15 16/16/16 14/14/14
f 19/19/19 18/18/18 17/17/17
f 19/19/19 20/20/20 18/18/18
f 23/23/23 22/22/22 21/21/21
f 23/23/23 24/24/24 22/22/22
f 27/27/27 26/26/26 25/25/25
f 27/27/27 28/28/28 26/26/26
f 31/31/31 30/30/30 29/29/29
f 31/31/31 32/32/32 30/30/30
f 35/35/35 34/34/34 33/33/33
f 35/35/35 36/36/36 34/34/34
f 39/39/39 38/38/38 37/37/37
f 39/39/39 40/40/40 38/38/38
