g pb_Mesh-573060
v 0.07000031 0.06572366 4.5849733E-06
v 0.07000031 -0.20895755 4.5849733E-06
v 0.049497843 0.06572366 0.049497843
v 0.049497843 -0.20895755 0.049497843
v 0.049497843 0.06572366 0.049497843
v 0.049497843 -0.20895755 0.049497843
v -0 0.06572366 0.07000185
v -0 -0.20895755 0.07000185
v -0 0.06572366 0.07000185
v -0 -0.20895755 0.07000185
v -0.049497843 0.06572366 0.049497843
v -0.049497843 -0.20895755 0.049497843
v -0.049497843 0.06572366 0.049497843
v -0.049497843 -0.20895755 0.049497843
v -0.07000031 0.06572366 4.5849733E-06
v -0.07000031 -0.20895755 4.5849733E-06
v -0.07000031 0.06572366 4.5849733E-06
v -0.07000031 -0.20895755 4.5849733E-06
v -0.049497843 0.06572366 -0.0495009
v -0.049497843 -0.20895755 -0.0495009
v -0.049497843 0.06572366 -0.0495009
v -0.049497843 -0.20895755 -0.0495009
v -0 0.06572366 -0.0700049
v -0 -0.20895755 -0.0700049
v -0 0.06572366 -0.0700049
v -0 -0.20895755 -0.0700049
v 0.049497843 0.06572366 -0.0495009
v 0.049497843 -0.20895755 -0.0495009
v 0.049497843 0.06572366 -0.0495009
v 0.049497843 -0.20895755 -0.0495009
v 0.07000031 0.06572366 4.5849733E-06
v 0.07000031 -0.20895755 4.5849733E-06
v 0.07000031 -0.20895755 4.5849733E-06
v -0 -0.20895755 4.5849733E-06
v 0.049497843 -0.20895755 0.049497843
v -0 -0.20895755 0.07000185
v -0.049497843 -0.20895755 0.049497843
v -0.07000031 -0.20895755 4.5849733E-06
v -0.049497843 -0.20895755 -0.0495009
v -0 -0.20895755 -0.0700049
v 0.049497843 -0.20895755 -0.0495009
v 0.060478855 0.18011412 0.060477328
v -0 0.18011412 4.5849733E-06
v 0.08553115 0.18011412 4.5849733E-06
v -0 0.18011412 0.08552962
v -0.060478855 0.18011412 0.060477328
v -0.08553115 0.18011412 4.5849733E-06
v -0.060478855 0.18011412 -0.060480382
v -0 0.18011412 -0.08553268
v 0.060478855 0.18011412 -0.060480382
v 0.049497843 0.06572366 0.049497843
v -0 0.06572366 0.07000185
v 0.060478855 0.08371662 0.060477328
v -0 0.08371662 0.08552962
v 0.07000031 0.06572366 4.5849733E-06
v 0.049497843 0.06572366 0.049497843
v 0.08553115 0.08371662 4.5849733E-06
v 0.060478855 0.08371662 0.060477328
v -0 0.06572366 0.07000185
v -0.049497843 0.06572366 0.049497843
v -0 0.08371662 0.08552962
v -0.060478855 0.08371662 0.060477328
v -0.049497843 0.06572366 0.049497843
v -0.07000031 0.06572366 4.5849733E-06
v -0.060478855 0.08371662 0.060477328
v -0.08553115 0.08371662 4.5849733E-06
v -0.07000031 0.06572366 4.5849733E-06
v -0.049497843 0.06572366 -0.0495009
v -0.08553115 0.08371662 4.5849733E-06
v -0.060478855 0.08371662 -0.060480382
v -0.049497843 0.06572366 -0.0495009
v -0 0.06572366 -0.0700049
v -0.060478855 0.08371662 -0.060480382
v -0 0.08371662 -0.08553268
v -0 0.06572366 -0.0700049
v 0.049497843 0.06572366 -0.0495009
v -0 0.08371662 -0.08553268
v 0.060478855 0.08371662 -0.060480382
v 0.049497843 0.06572366 -0.0495009
v 0.07000031 0.06572366 4.5849733E-06
v 0.060478855 0.08371662 -0.060480382
v 0.08553115 0.08371662 4.5849733E-06
v 0.060478855 0.08371662 0.060477328
v -0 0.08371662 0.08552962
v 0.060478855 0.18011412 0.060477328
v -0 0.18011412 0.08552962
v 0.08553115 0.08371662 4.5849733E-06
v 0.060478855 0.08371662 0.060477328
v 0.08553115 0.18011412 4.5849733E-06
v 0.060478855 0.18011412 0.060477328
v -0 0.08371662 0.08552962
v -0.060478855 0.08371662 0.060477328
v -0 0.18011412 0.08552962
v -0.060478855 0.18011412 0.060477328
v -0.060478855 0.08371662 0.060477328
v -0.08553115 0.08371662 4.5849733E-06
v -0.060478855 0.18011412 0.060477328
v -0.08553115 0.18011412 4.5849733E-06
v -0.08553115 0.08371662 4.5849733E-06
v -0.060478855 0.08371662 -0.060480382
v -0.08553115 0.18011412 4.5849733E-06
v -0.060478855 0.18011412 -0.060480382
v -0.060478855 0.08371662 -0.060480382
v -0 0.08371662 -0.08553268
v -0.060478855 0.18011412 -0.060480382
v -0 0.18011412 -0.08553268
v -0 0.08371662 -0.08553268
v 0.060478855 0.08371662 -0.060480382
v -0 0.18011412 -0.08553268
v 0.060478855 0.18011412 -0.060480382
v 0.060478855 0.08371662 -0.060480382
v 0.08553115 0.08371662 4.5849733E-06
v 0.060478855 0.18011412 -0.060480382
v 0.08553115 0.18011412 4.5849733E-06
vt 0.026785612 0.06572366
vt 0.026785612 -0.20895755
vt -0.026786152 0.06572366
vt -0.026786152 -0.20895755
vt 0.026786562 0.06572366
vt 0.026786562 -0.20895755
vt -0.026790027 0.06572366
vt -0.026790027 -0.20895755
vt 0.026790027 0.06572366
vt 0.026790027 -0.20895755
vt -0.026786562 0.06572366
vt -0.026786562 -0.20895755
vt 0.026786152 0.06572366
vt 0.026786152 -0.20895755
vt -0.026785612 0.06572366
vt -0.026785612 -0.20895755
vt 0.026788436 0.06572366
vt 0.026788436 -0.20895755
vt -0.026794625 0.06572366
vt -0.026794625 -0.20895755
vt 0.026785394 0.06572366
vt 0.026785394 -0.20895755
vt -0.02679119 0.06572366
vt -0.02679119 -0.20895755
vt 0.02679119 0.06572366
vt 0.02679119 -0.20895755
vt -0.026785394 0.06572366
vt -0.026785394 -0.20895755
vt 0.026794625 0.06572366
vt 0.026794625 -0.20895755
vt -0.026788436 0.06572366
vt -0.026788436 -0.20895755
vt 0.07000031 4.5849733E-06
vt 0 4.5849733E-06
vt 0.049497843 0.049497843
vt 0 0.07000185
vt -0.049497843 0.049497843
vt -0.07000031 4.5849733E-06
vt -0.049497843 -0.0495009
vt -0 -0.0700049
vt 0.049497843 -0.0495009
vt -0.060478855 0.060477328
vt 0 4.5849733E-06
vt -0.08553115 4.5849733E-06
vt 0 0.08552962
vt 0.060478855 0.060477328
vt 0.08553115 4.5849733E-06
vt 0.060478855 -0.060480382
vt 0 -0.08553268
vt -0.060478855 -0.060480382
vt 0.026786558 0.091706656
vt -0.026790027 0.091706656
vt 0.032729696 0.11471878
vt -0.032732576 0.11471849
vt 0.026785612 0.09170752
vt -0.026786152 0.09170752
vt 0.032729425 0.114721105
vt -0.032727204 0.11472018
vt 0.026790027 0.09170651
vt -0.026786558 0.09170651
vt 0.032732576 0.11471834
vt -0.032729696 0.11471862
vt 0.02678615 0.09170704
vt -0.026785614 0.09170704
vt 0.0327272 0.114719704
vt -0.03272943 0.11472063
vt 0.026788434 0.09170696
vt -0.026794627 0.09170696
vt 0.032730997 0.114720866
vt -0.032736927 0.114719294
vt 0.026785392 0.091708414
vt -0.026791193 0.091708414
vt 0.03272853 0.11472053
vt -0.032733742 0.114720255
vt 0.026791194 0.091708265
vt -0.02678539 0.091708265
vt 0.032733746 0.114720106
vt -0.03272853 0.11472038
vt 0.026794627 0.09170614
vt -0.026788434 0.09170615
vt 0.032736927 0.11471848
vt -0.032730997 0.11472005
vt 0.032730248 0.08371662
vt -0.032732025 0.08371662
vt 0.032730248 0.18011412
vt -0.032732025 0.18011412
vt 0.03273121 0.08371662
vt -0.032725416 0.08371662
vt 0.03273121 0.18011412
vt -0.032725416 0.18011412
vt 0.032732025 0.08371662
vt -0.032730248 0.08371662
vt 0.032732025 0.18011412
vt -0.032730248 0.18011412
vt 0.032725416 0.08371662
vt -0.03273121 0.08371662
vt 0.032725416 0.18011412
vt -0.03273121 0.18011412
vt 0.032734033 0.08371662
vt -0.032733887 0.08371662
vt 0.032734033 0.18011412
vt -0.032733887 0.18011412
vt 0.03272907 0.08371662
vt -0.032733206 0.08371662
vt 0.03272907 0.18011412
vt -0.032733206 0.18011412
vt 0.032733206 0.08371662
vt -0.03272907 0.08371662
vt 0.032733206 0.18011412
vt -0.03272907 0.18011412
vt 0.032733887 0.08371662
vt -0.032734033 0.08371662
vt 0.032733887 0.18011412
vt -0.032734033 0.18011412
vn 1 0 4.366067E-05
vn 1 0 4.366067E-05
vn 0.7071045 0 0.70710903
vn 0.7071045 0 0.70710903
vn 0.7071045 0 0.70710903
vn 0.7071045 0 0.70710903
vn -0 0 1
vn -0 0 1
vn -0 0 1
vn -0 0 1
vn -0.7071045 0 0.70710903
vn -0.7071045 0 0.70710903
vn -0.7071045 0 0.70710903
vn -0.7071045 0 0.70710903
vn -1 0 4.366067E-05
vn -1 0 4.366067E-05
vn -1 0 4.366067E-05
vn -1 0 4.366067E-05
vn -0.7071354 0 -0.70707816
vn -0.7071354 0 -0.70707816
vn -0.7071354 0 -0.70707816
vn -0.7071354 0 -0.70707816
vn -0 0 -1
vn -0 0 -1
vn -0 0 -1
vn -0 0 -1
vn 0.7071354 0 -0.70707816
vn 0.7071354 0 -0.70707816
vn 0.7071354 0 -0.70707816
vn 0.7071354 0 -0.70707816
vn 1 0 4.366067E-05
vn 1 0 4.366067E-05
vn -0 -1 0
vn -0 -1 0
vn -0 -1 0
vn -0 -1 0
vn -0 -1 0
vn -0 -1 0
vn -0 -1 0
vn -0 -1 0
vn -0 -1 0
vn -0 1 0
vn -0 1 0
vn -0 1 0
vn -0 1 0
vn -0 1 0
vn -0 1 0
vn -0 1 0
vn -0 1 0
vn -0 1 0
vn 0.29923323 -0.62341535 0.72236615
vn 0.29923236 -0.62340987 0.7223712
vn 0.29923236 -0.62340987 0.7223712
vn 0.29923153 -0.6234043 0.7223763
vn 0.72231835 -0.6234776 0.29921877
vn 0.7223281 -0.6234597 0.29923236
vn 0.7223281 -0.6234597 0.29923236
vn 0.7223379 -0.6234419 0.29924598
vn -0.2992369 -0.62340325 0.72237504
vn -0.29923272 -0.6234088 0.72237206
vn -0.29923272 -0.6234088 0.72237206
vn -0.29922852 -0.6234143 0.722369
vn -0.7223473 -0.62343836 0.29923078
vn -0.7223308 -0.6234562 0.2992335
vn -0.7223308 -0.6234562 0.2992335
vn -0.72231424 -0.623474 0.29923618
vn -0.7223344 -0.6234914 -0.29915148
vn -0.7223511 -0.623461 -0.29917467
vn -0.7223511 -0.623461 -0.29917467
vn -0.7223677 -0.62343055 -0.29919782
vn -0.2992332 -0.6234153 -0.7223662
vn -0.29923236 -0.62340987 -0.7223712
vn -0.29923236 -0.62340987 -0.7223712
vn -0.29923156 -0.6234045 -0.72237617
vn 0.29923683 -0.62340343 -0.7223749
vn 0.29923272 -0.6234088 -0.72237194
vn 0.29923272 -0.6234088 -0.72237194
vn 0.2992286 -0.62341416 -0.722369
vn 0.7223836 -0.6234245 -0.29917186
vn 0.7223555 -0.6234549 -0.29917648
vn 0.7223555 -0.6234549 -0.29917648
vn 0.72232735 -0.6234853 -0.2991811
vn 0.38269812 0 0.9238734
vn 0.38269812 0 0.9238734
vn 0.38269812 0 0.9238734
vn 0.38269812 0 0.9238734
vn 0.92385966 0 0.38273123
vn 0.92385966 0 0.38273123
vn 0.92385966 0 0.38273123
vn 0.92385966 0 0.38273123
vn -0.38269812 0 0.9238734
vn -0.38269812 0 0.9238734
vn -0.38269812 0 0.9238734
vn -0.38269812 0 0.9238734
vn -0.92385966 0 0.38273123
vn -0.92385966 0 0.38273123
vn -0.92385966 0 0.38273123
vn -0.92385966 0 0.38273123
vn -0.9238871 0 -0.38266522
vn -0.9238871 0 -0.38266522
vn -0.9238871 0 -0.38266522
vn -0.9238871 0 -0.38266522
vn -0.38269824 0 -0.9238734
vn -0.38269824 0 -0.9238734
vn -0.38269824 0 -0.9238734
vn -0.38269824 0 -0.9238734
vn 0.38269824 0 -0.9238734
vn 0.38269824 0 -0.9238734
vn 0.38269824 0 -0.9238734
vn 0.38269824 0 -0.9238734
vn 0.9238871 0 -0.38266522
vn 0.9238871 0 -0.38266522
vn 0.9238871 0 -0.38266522
vn 0.9238871 0 -0.38266522
g pb_Mesh-573060_0
f 3/3/3 2/2/2 1/1/1
f 3/3/3 4/4/4 2/2/2
f 7/7/7 6/6/6 5/5/5
f 7/7/7 8/8/8 6/6/6
f 11/11/11 10/10/10 9/9/9
f 11/11/11 12/12/12 10/10/10
f 15/15/15 14/14/14 13/13/13
f 15/15/15 16/16/16 14/14/14
f 19/19/19 18/18/18 17/17/17
f 19/19/19 20/20/20 18/18/18
f 23/23/23 22/22/22 21/21/21
f 23/23/23 24/24/24 22/22/22
f 27/27/27 26/26/26 25/25/25
f 27/27/27 28/28/28 26/26/26
f 31/31/31 30/30/30 29/29/29
f 31/31/31 32/32/32 30/30/30
f 35/35/35 34/34/34 33/33/33
f 36/36/36 34/34/34 35/35/35
f 37/37/37 34/34/34 36/36/36
f 38/38/38 34/34/34 37/37/37
f 39/39/39 34/34/34 38/38/38
f 40/40/40 34/34/34 39/39/39
f 41/41/41 34/34/34 40/40/40
f 33/33/33 34/34/34 41/41/41
g pb_Mesh-573060_1
f 44/44/44 43/43/43 42/42/42
f 42/42/42 43/43/43 45/45/45
f 45/45/45 43/43/43 46/46/46
f 46/46/46 43/43/43 47/47/47
f 47/47/47 43/43/43 48/48/48
f 48/48/48 43/43/43 49/49/49
f 49/49/49 43/43/43 50/50/50
f 50/50/50 43/43/43 44/44/44
f 53/53/53 52/52/52 51/51/51
f 53/53/53 54/54/54 52/52/52
f 57/57/57 56/56/56 55/55/55
f 57/57/57 58/58/58 56/56/56
f 61/61/61 60/60/60 59/59/59
f 61/61/61 62/62/62 60/60/60
f 65/65/65 64/64/64 63/63/63
f 65/65/65 66/66/66 64/64/64
f 69/69/69 68/68/68 67/67/67
f 69/69/69 70/70/70 68/68/68
f 73/73/73 72/72/72 71/71/71
f 73/73/73 74/74/74 72/72/72
f 77/77/77 76/76/76 75/75/75
f 77/77/77 78/78/78 76/76/76
f 81/81/81 80/80/80 79/79/79
f 81/81/81 82/82/82 80/80/80
f 85/85/85 84/84/84 83/83/83
f 85/85/85 86/86/86 84/84/84
f 89/89/89 88/88/88 87/87/87
f 89/89/89 90/90/90 88/88/88
f 93/93/93 92/92/92 91/91/91
f 93/93/93 94/94/94 92/92/92
f 97/97/97 96/96/96 95/95/95
f 97/97/97 98/98/98 96/96/96
f 101/101/101 100/100/100 99/99/99
f 101/101/101 102/102/102 100/100/100
f 105/105/105 104/104/104 103/103/103
f 105/105/105 106/106/106 104/104/104
f 109/109/109 108/108/108 107/107/107
f 109/109/109 110/110/110 108/108/108
f 113/113/113 112/112/112 111/111/111
f 113/113/113 114/114/114 112/112/112
