g pb_Mesh164598
v 1.564505 0.31524384 -4.662093
v 0.114075124 0.45169255 -3.0690978
v -0.20338905 0.61972684 -4.2892647
v 2.890012 0.056075353 2.5483916
v 1.2998317 0.37747148 1.9637709
v 1.6012751 0.2808276 0.4283444
v 0.114075124 0.45169255 -3.0690978
v 1.855209 0.25840238 -3.7305112
v 1.1959727 0.1693317 -2.638403
v 1.564505 0.31524384 -4.662093
v 1.855209 0.25840238 -3.7305112
v 0.114075124 0.45169255 -3.0690978
v -0.20338905 0.61972684 -4.2892647
v 0.7548828 0.5674135 -5.5505786
v 1.564505 0.31524384 -4.662093
v 2.0181818 0.2367301 -5.669749
v 1.564505 0.31524384 -4.662093
v 0.7548828 0.5674135 -5.5505786
v -0.5153146 1.1408777 0.8076299
v 1.6012751 0.2808276 0.4283444
v 1.2998317 0.37747148 1.9637709
v 0.25154728 0.84625286 1.6934415
v -0.5153146 1.1408777 0.8076299
v 1.2998317 0.37747148 1.9637709
vt 0.12229745 0.42009878
vt 0.12229745 0.42009878
vt 0.12229745 0.42009878
vt 0.12229745 0.42009878
vt 0.12229745 0.42009878
vt 0.12229745 0.42009878
vt 0.12229745 0.42009878
vt 0.12229745 0.42009878
vt 0.12229745 0.42009878
vt 0.12229745 0.42009878
vt 0.12229745 0.42009878
vt 0.12229745 0.42009878
vt 0.12229745 0.42009878
vt 0.12229745 0.42009878
vt 0.12229745 0.42009878
vt 0.12229745 0.42009878
vt 0.12229745 0.42009878
vt 0.12229745 0.42009878
vt 0.12229745 0.42009878
vt 0.12229745 0.42009878
vt 0.12229745 0.42009878
vt 0.12229745 0.42009878
vt 0.12229745 0.42009878
vt 0.12229745 0.42009878
vn 0.1741619 0.981432 0.0627741
vn 0.16654709 0.9815122 0.09191053
vn 0.18838784 0.9774425 0.09504398
vn 0.20555495 0.9784153 -0.021228403
vn 0.29635638 0.95021415 -0.010128765
vn 0.29221702 0.9518603 -0.0025429772
vn 0.16654709 0.9815122 0.09191053
vn 0.14637035 0.9844001 0.0976326
vn 0.17802367 0.96623623 0.18626632
vn 0.1741619 0.981432 0.0627741
vn 0.14637035 0.9844001 0.0976326
vn 0.16654709 0.9815122 0.09191053
vn 0.18838784 0.9774425 0.09504398
vn 0.21667773 0.9730634 0.07872948
vn 0.1741619 0.981432 0.0627741
vn 0.2565785 0.96568394 0.04027592
vn 0.1741619 0.981432 0.0627741
vn 0.21667773 0.9730634 0.07872948
vn 0.3871578 0.922013 0.0009708723
vn 0.29221702 0.9518603 -0.0025429772
vn 0.29635638 0.95021415 -0.010128765
vn 0.42101136 0.90482813 -0.06352674
vn 0.3871578 0.922013 0.0009708723
vn 0.29635638 0.95021415 -0.010128765
g pb_Mesh164598_0
f 3/3/3 2/2/2 1/1/1
f 6/6/6 5/5/5 4/4/4
f 9/9/9 8/8/8 7/7/7
f 12/12/12 11/11/11 10/10/10
f 15/15/15 14/14/14 13/13/13
f 18/18/18 17/17/17 16/16/16
f 21/21/21 20/20/20 19/19/19
f 24/24/24 23/23/23 22/22/22
