g pb_Mesh166818
v -0.018756108 -0.21072388 2.4230003
v -0.11684819 -0.21072388 2.4230003
v -0.018756108 0.18943977 2.4230003
v -0.11684819 0.18943977 2.4230003
v -0.11684819 -0.21072388 2.4230003
v -0.11684805 -0.21072388 -0.076937675
v -0.11684819 0.18943977 2.4230003
v -0.11684805 0.18943977 -0.076937675
v -0.11684805 -0.21072388 -0.076937675
v -0.018755972 -0.21072388 -0.07693769
v -0.11684805 0.18943977 -0.076937675
v -0.018755972 0.18943977 -0.07693769
v -0.018755972 -0.21072388 -0.07693769
v -0.018756108 -0.21072388 2.4230003
v -0.018755972 0.18943977 -0.07693769
v -0.018756108 0.18943977 2.4230003
v -0.018756108 0.18943977 2.4230003
v -0.11684819 0.18943977 2.4230003
v -0.018755972 0.18943977 -0.07693769
v -0.11684805 0.18943977 -0.076937675
v -0.018755972 -0.21072388 -0.07693769
v -0.11684805 -0.21072388 -0.076937675
v -0.018756108 -0.21072388 2.4230003
v -0.11684819 -0.21072388 2.4230003
vt -0.018756108 -0.21072388
vt -0.11684819 -0.21072388
vt -0.018756108 0.18943977
vt -0.11684819 0.18943977
vt 2.4230003 -0.21072388
vt -0.07693767 -0.21072388
vt 2.4230003 0.18943977
vt -0.07693767 0.18943977
vt 0.11684804 -0.21072388
vt 0.018755961 -0.21072388
vt 0.11684804 0.18943977
vt 0.018755961 0.18943977
vt 0.07693769 -0.21072388
vt -2.4230003 -0.21072388
vt 0.07693769 0.18943977
vt -2.4230003 0.18943977
vt 0.018756108 2.4230003
vt 0.11684819 2.4230003
vt 0.018755972 -0.07693769
vt 0.11684805 -0.076937675
vt -0.018755972 -0.07693769
vt -0.11684805 -0.076937675
vt -0.018756108 2.4230003
vt -0.11684819 2.4230003
vn -0 0 1
vn -0 0 1
vn -0 0 1
vn -0 0 1
vn -1 0 -5.6625815E-08
vn -1 0 -5.6625815E-08
vn -1 0 -5.6625815E-08
vn -1 0 -5.6625815E-08
vn -1.5190993E-07 0 -0.99999994
vn -1.5190993E-07 0 -0.99999994
vn -1.5190993E-07 0 -0.99999994
vn -1.5190993E-07 0 -0.99999994
vn 1 0 5.4390586E-08
vn 1 0 5.4390586E-08
vn 1 0 5.4390586E-08
vn 1 0 5.4390586E-08
vn -0 0.99999994 0
vn -0 1 0
vn -0 1 0
vn -0 1 0
vn -0 -1 0
vn -0 -1 0
vn -0 -1 0
vn -0 -0.99999994 0
g pb_Mesh166818_0
f 3/3/3 2/2/2 1/1/1
f 3/3/3 4/4/4 2/2/2
f 7/7/7 6/6/6 5/5/5
f 7/7/7 8/8/8 6/6/6
f 11/11/11 10/10/10 9/9/9
f 11/11/11 12/12/12 10/10/10
f 15/15/15 14/14/14 13/13/13
f 15/15/15 16/16/16 14/14/14
f 19/19/19 18/18/18 17/17/17
f 19/19/19 20/20/20 18/18/18
f 23/23/23 22/22/22 21/21/21
f 23/23/23 24/24/24 22/22/22
