g pb_Mesh246138
v -1.2269096 0 0.55130625
v -2.1332138 0 -1.0850503
v -1.2269096 0.5002365 0.55130625
v 2.310733 0 -5.094951
v 2.2498999 0.5002365 -5.0507507
v -2.1330388 0.5002365 -1.0848403
v 4.2639647 0 -1.9362049
v -1.2269096 0 0.55130625
v 4.263964 0.5002365 -1.9362023
v -1.2269096 0.5002365 0.55130625
v -2.1332138 0 -1.0850503
v -2.1330388 0.5002365 -1.0848403
v -2.1332138 0 -1.0850503
v 2.310733 0 -5.094951
v -2.1330388 0.5002365 -1.0848403
v 2.310733 0 -5.094951
v 4.2639647 0 -1.9362049
v 2.2498999 0.5002365 -5.0507507
v 4.263964 0.5002365 -1.9362023
v 4.263964 0.5002365 -1.9362023
v -1.2269096 0.5002365 0.55130625
v 2.2498999 0.5002365 -5.0507507
v -2.1330388 0.5002365 -1.0848403
v 2.310733 0 -5.094951
v -2.1332138 0 -1.0850503
v 4.2639647 0 -1.9362049
v -1.2269096 0 0.55130625
vt 0.7230723 0
vt -0.8447412 0
vt 0.7230723 0.5002365
vt -1.0909724 -1.8787029
vt -1.2930124 -1.8366218
vt -2.1533582 -1.0329033
vt 0 0
vt -1.3450822 -5.943371E-13
vt 0.019336658 0.5002365
vt -1.3450822 0.5002365
vt -0.8447412 0
vt -0.680757 0.5002365
vt -0.8447412 0
vt -1.0909724 -1.8787029
vt -0.680757 0.5002365
vt 2.1945348 0
vt 0 0
vt 2.1945348 0.5002365
vt -0.0028935915 0.5002365
vt -0.017621994 -0.007960722
vt 1.2269096 0.55130625
vt 1.1925697 -1.842216
vt 2.1330357 -1
vt -1.1925697 -1.842216
vt -1 -1
vt 0 0
vt -1.2269096 0.55130625
vn -0.8747881 0 0.48450568
vn -0.97748893 0.00019248537 0.21098664
vn -0.8747948 5.1301504E-05 0.4844937
vn -0.6704147 -0.0077637 -0.74194604
vn -0.67086333 -0.016072964 -0.7414068
vn -0.85628885 -0.009343915 -0.51641273
vn 0.4126559 -4.3821806E-06 0.910887
vn 0.4126557 -2.1910903E-06 0.9108871
vn 0.4126557 -2.1910903E-06 0.9108871
vn 0.41265556 0 0.9108872
vn -0.97748893 0.00019248537 0.21098664
vn -0.85628885 -0.009343915 -0.51641273
vn -0.97748893 0.00019248537 0.21098664
vn -0.6704147 -0.0077637 -0.74194604
vn -0.85628885 -0.009343915 -0.51641273
vn 0.8411302 0.14824608 -0.5201184
vn 0.8404259 0.074124865 -0.5315678
vn 0.8404259 0.074124865 -0.5315678
vn 0.8397216 3.647334E-06 -0.5430172
vn -0 1 0
vn -0 1 0
vn -0 1 0
vn -0 1 0
vn -0 -1 0
vn -0 -1 0
vn -0 -1 0
vn -0 -1 0
g pb_Mesh246138_0
f 3/3/3 2/2/2 1/1/1
f 6/6/6 5/5/5 4/4/4
f 9/9/9 8/8/8 7/7/7
f 9/9/9 10/10/10 8/8/8
f 3/3/3 12/12/12 11/11/11
f 15/15/15 14/14/14 13/13/13
f 18/18/18 17/17/17 16/16/16
f 18/18/18 19/19/19 17/17/17
f 22/22/22 21/21/21 20/20/20
f 22/22/22 23/23/23 21/21/21
f 26/26/26 25/25/25 24/24/24
f 26/26/26 27/27/27 25/25/25
