g pb_Mesh416442
v -0.15 -0.8291187 0
v -0.15 1.1135025 0
v -0.074999996 -0.8291187 0.12990382
v -0.074999996 1.1135025 0.12990382
v -0.074999996 -0.8291187 0.12990382
v -0.074999996 1.1135025 0.12990382
v 0.07500001 -0.8291187 0.12990381
v 0.07500001 1.1135025 0.12990381
v 0.07500001 -0.8291187 0.12990381
v 0.07500001 1.1135025 0.12990381
v 0.15 -0.8291187 -1.3113417E-08
v 0.15 1.1135025 -1.3113417E-08
v 0.15 -0.8291187 -1.3113417E-08
v 0.15 1.1135025 -1.3113417E-08
v 0.07499999 -0.8291187 -0.12990382
v 0.07499999 1.1135025 -0.12990382
v 0.07499999 -0.8291187 -0.12990382
v 0.07499999 1.1135025 -0.12990382
v -0.07499999 -0.8291187 -0.12990382
v -0.07499999 1.1135025 -0.12990382
v -0.07499999 -0.8291187 -0.12990382
v -0.07499999 1.1135025 -0.12990382
v -0.15 -0.8291187 0
v -0.15 1.1135025 0
v -0.074999996 -0.8291187 0.12990382
v -0 -0.8291187 0
v -0.15 -0.8291187 0
v 0.07500001 -0.8291187 0.12990381
v 0.15 -0.8291187 -1.3113417E-08
v 0.07499999 -0.8291187 -0.12990382
v -0.07499999 -0.8291187 -0.12990382
v -0.15 1.1135025 0
v -0 1.1135025 0
v -0.074999996 1.1135025 0.12990382
v 0.07500001 1.1135025 0.12990381
v 0.15 1.1135025 -1.3113417E-08
v 0.07499999 1.1135025 -0.12990382
v -0.07499999 1.1135025 -0.12990382
vt -0.075 -0.8291187
vt -0.075 1.1135025
vt 0.07500002 -0.8291187
vt 0.07500002 1.1135025
vt -0.07500001 -0.8291187
vt -0.07500001 1.1135025
vt 0.074999996 -0.8291187
vt 0.074999996 1.1135025
vt -0.075 -0.8291187
vt -0.075 1.1135025
vt 0.075 -0.8291187
vt 0.075 1.1135025
vt -0.07500001 -0.8291187
vt -0.07500001 1.1135025
vt 0.075 -0.8291187
vt 0.075 1.1135025
vt -0.07499999 -0.8291187
vt -0.07499999 1.1135025
vt 0.07499999 -0.8291187
vt 0.07499999 1.1135025
vt -0.07500002 -0.8291187
vt -0.07500002 1.1135025
vt 0.07500001 -0.8291187
vt 0.07500001 1.1135025
vt -0.074999996 0.12990382
vt 0 0
vt -0.15 0
vt 0.07500001 0.12990381
vt 0.15 -1.3113417E-08
vt 0.07499999 -0.12990382
vt -0.07499999 -0.12990382
vt 0.15 0
vt 0 0
vt 0.074999996 0.12990382
vt -0.07500001 0.12990381
vt -0.15 -1.3113417E-08
vt -0.07499999 -0.12990382
vt 0.07499999 -0.12990382
vn -0.8660254 0 0
vn -0.8660254 0 0
vn -0.43301266 0 0.75
vn -0.43301266 0 0.75
vn -0.43301266 0 0.75
vn -0.43301266 0 0.75
vn 0.43301278 0 0.74999994
vn 0.43301278 0 0.74999994
vn 0.43301278 0 0.74999994
vn 0.43301278 0 0.74999994
vn 0.8660254 0 -7.4505806E-08
vn 0.8660254 0 -7.4505806E-08
vn 0.8660254 0 -7.4505806E-08
vn 0.8660254 0 -7.4505806E-08
vn 0.43301266 0 -0.75
vn 0.43301266 0 -0.75
vn 0.43301266 0 -0.75
vn 0.43301266 0 -0.75
vn -0.43301266 0 -0.75
vn -0.43301266 0 -0.75
vn -0.43301266 0 -0.75
vn -0.43301266 0 -0.75
vn -0.8660254 0 0
vn -0.8660254 0 0
vn -0 -1 0
vn -0 -1 0
vn -0 -1 0
vn -0 -1 0
vn -0 -1 0
vn -0 -1 0
vn -0 -1 0
vn -0 1 0
vn -0 1 0
vn -0 1 0
vn -0 1 0
vn -0 1 0
vn -0 1 0
vn -0 1 0
g pb_Mesh416442_0
f 3/3/3 2/2/2 1/1/1
f 3/3/3 4/4/4 2/2/2
f 7/7/7 6/6/6 5/5/5
f 7/7/7 8/8/8 6/6/6
f 11/11/11 10/10/10 9/9/9
f 11/11/11 12/12/12 10/10/10
f 15/15/15 14/14/14 13/13/13
f 15/15/15 16/16/16 14/14/14
f 19/19/19 18/18/18 17/17/17
f 19/19/19 20/20/20 18/18/18
f 23/23/23 22/22/22 21/21/21
f 23/23/23 24/24/24 22/22/22
f 27/27/27 26/26/26 25/25/25
f 25/25/25 26/26/26 28/28/28
f 28/28/28 26/26/26 29/29/29
f 29/29/29 26/26/26 30/30/30
f 30/30/30 26/26/26 31/31/31
f 31/31/31 26/26/26 27/27/27
f 34/34/34 33/33/33 32/32/32
f 35/35/35 33/33/33 34/34/34
f 36/36/36 33/33/33 35/35/35
f 37/37/37 33/33/33 36/36/36
f 38/38/38 33/33/33 37/37/37
f 32/32/32 33/33/33 38/38/38
