g pb_Mesh-2470786
v -0 0 0.75
v -0.0889225 0 0.75
v -0 0.4967512 0.75
v -0.0889225 0.4967512 0.75
v -0.0889225 0 0.75
v -0.08892255 0 -0.9377799
v -0.0889225 0.4967512 0.75
v -0.08892255 0.4967512 -0.9377799
v -0.08892255 0 -0.9377799
v -4.5667043E-08 0 -0.9377799
v -0.08892255 0.4967512 -0.9377799
v -4.5667043E-08 0.4967512 -0.9377799
v -0 0.4967512 0.75
v -0.0889225 0.4967512 0.75
v -4.5667043E-08 0.4967512 -0.9377799
v -0.08892255 0.4967512 -0.9377799
v -4.5667043E-08 0 -0.9377799
v -0.08892255 0 -0.9377799
v -0 0 0.75
v -0.0889225 0 0.75
v -4.5667043E-08 0 -0.9377799
v -0 0 0.75
v -4.5667043E-08 0.4967512 -0.9377799
v -0 0.4967512 0.75
vt 0 0
vt -0.0889225 0
vt 0 0.4967512
vt -0.0889225 0.4967512
vt 0.75 0
vt -0.9377799 0
vt 0.75 0.4967512
vt -0.9377799 0.4967512
vt 0.08892255 0
vt 4.5667043E-08 0
vt 0.08892255 0.4967512
vt 4.5667043E-08 0.4967512
vt 0 0.75
vt 0.0889225 0.75
vt 4.5667043E-08 -0.9377799
vt 0.08892255 -0.9377799
vt -4.5667043E-08 -0.9377799
vt -0.08892255 -0.9377799
vt 0 0.75
vt -0.0889225 0.75
vt 0.9377799 0
vt -0.75 0
vt 0.9377799 0.4967512
vt -0.75 0.4967512
vn -0 0 1
vn -0 0 1
vn -0 0 1
vn -0 0 1
vn -0.99999994 0 3.0900985E-08
vn -0.99999994 0 3.0900985E-08
vn -0.99999994 0 3.0900985E-08
vn -0.99999994 0 3.0900985E-08
vn -0 0 -1
vn -0 0 -1
vn -0 0 -1
vn -0 0 -1
vn -0 1 0
vn -0 1 0
vn -0 1 0
vn -0 1 0
vn -0 -1 0
vn -0 -1 0
vn -0 -1 0
vn -0 -1 0
vn 0.99999994 0 -2.7057462E-08
vn 0.99999994 0 -2.7057462E-08
vn 0.99999994 0 -2.7057462E-08
vn 0.99999994 0 -2.7057462E-08
g pb_Mesh-2470786_0
f 3/3/3 2/2/2 1/1/1
f 3/3/3 4/4/4 2/2/2
f 7/7/7 6/6/6 5/5/5
f 7/7/7 8/8/8 6/6/6
f 11/11/11 10/10/10 9/9/9
f 11/11/11 12/12/12 10/10/10
f 15/15/15 14/14/14 13/13/13
f 15/15/15 16/16/16 14/14/14
f 19/19/19 18/18/18 17/17/17
f 19/19/19 20/20/20 18/18/18
g pb_Mesh-2470786_1
f 23/23/23 22/22/22 21/21/21
f 23/23/23 24/24/24 22/22/22
