g pb_Mesh-3255748
v -0 0 0
v -0.076120496 0 -0.38268346
v -0 13 0
v -0.076120496 13 -0.38268346
v 0.12387949 0 -0.38268346
v 0.18477589 0 -0.076536685
v 0.12387949 13 -0.38268346
v 0.18477589 13 -0.076536685
v 0.21677274 0 0.3244233
v -0 0 0
v 0.21677274 13 0.3244233
v -0 13 0
v 0.18477589 0 -0.076536685
v 0.35819405 0 0.183002
v 0.18477589 13 -0.076536685
v 0.35819405 13 0.183002
v 0.5411961 0 0.54119605
v 0.21677274 0 0.3244233
v 0.5411961 13 0.54119605
v 0.21677274 13 0.3244233
v 0.35819405 0 0.183002
v 0.61773276 0 0.35642016
v 0.35819405 13 0.183002
v 0.61773276 13 0.35642016
v 0.92387956 0 0.61731654
v 0.5411961 0 0.54119605
v 0.92387956 13 0.61731654
v 0.5411961 13 0.54119605
v 0.61773276 0 0.35642016
v 0.92387956 0 0.41731656
v 0.61773276 13 0.35642016
v 0.92387956 13 0.41731656
v 1.3065629 0 0.5411961
v 0.92387956 0 0.61731654
v 1.3065629 13 0.5411961
v 0.92387956 13 0.61731654
v 0.92387956 0 0.41731656
v 1.2300262 0 0.35642022
v 0.92387956 13 0.41731656
v 1.2300262 13 0.35642022
v 1.6309862 0 0.3244233
v 1.3065629 0 0.5411961
v 1.6309862 13 0.3244233
v 1.3065629 13 0.5411961
v 1.2300262 0 0.35642022
v 1.4895649 0 0.183002
v 1.2300262 13 0.35642022
v 1.4895649 13 0.183002
v 1.847759 0 2.9802322E-08
v 1.6309862 0 0.3244233
v 1.847759 13 2.9802322E-08
v 1.6309862 13 0.3244233
v 1.4895649 0 0.183002
v 1.6629832 0 -0.076536655
v 1.4895649 13 0.183002
v 1.6629832 13 -0.076536655
v 1.9238795 0 -0.38268355
v 1.847759 0 2.9802322E-08
v 1.9238795 13 -0.38268355
v 1.847759 13 2.9802322E-08
v 1.6629832 0 -0.076536655
v 1.7238796 0 -0.38268352
v 1.6629832 13 -0.076536655
v 1.7238796 13 -0.38268352
v 1.847759 0 -0.7653669
v 1.9238795 0 -0.38268355
v 1.847759 13 -0.7653669
v 1.9238795 13 -0.38268355
v 1.7238796 0 -0.38268352
v 1.6629832 0 -0.6888302
v 1.7238796 13 -0.38268352
v 1.6629832 13 -0.6888302
v 1.6309863 0 -1.0897901
v 1.847759 0 -0.7653669
v 1.6309863 13 -1.0897901
v 1.847759 13 -0.7653669
v 1.6629832 0 -0.6888302
v 1.4895649 0 -0.94836885
v 1.6629832 13 -0.6888302
v 1.4895649 13 -0.94836885
v 1.3065631 0 -1.3065629
v 1.6309863 0 -1.0897901
v 1.3065631 13 -1.3065629
v 1.6309863 13 -1.0897901
v 1.4895649 0 -0.94836885
v 1.2300264 0 -1.1217871
v 1.4895649 13 -0.94836885
v 1.2300264 13 -1.1217871
v 0.9238795 0 -1.3826835
v 1.3065631 0 -1.3065629
v 0.9238795 13 -1.3826835
v 1.3065631 13 -1.3065629
v 1.2300264 0 -1.1217871
v 0.9238795 0 -1.1826835
v 1.2300264 13 -1.1217871
v 0.9238795 13 -1.1826835
v 0.54119587 0 -1.3065629
v 0.9238795 0 -1.3826835
v 0.54119587 13 -1.3065629
v 0.9238795 13 -1.3826835
v 0.9238795 0 -1.1826835
v 0.61773264 0 -1.1217871
v 0.9238795 13 -1.1826835
v 0.61773264 13 -1.1217871
v 0.21677285 0 -1.0897903
v 0.54119587 0 -1.3065629
v 0.21677285 13 -1.0897903
v 0.54119587 13 -1.3065629
v 0.61773264 0 -1.1217871
v 0.35819417 0 -0.94836897
v 0.61773264 13 -1.1217871
v 0.35819417 13 -0.94836897
v -5.9604645E-08 0 -0.7653669
v 0.21677285 0 -1.0897903
v -5.9604645E-08 13 -0.7653669
v 0.21677285 13 -1.0897903
v 0.35819417 0 -0.94836897
v 0.18477583 0 -0.6888302
v 0.35819417 13 -0.94836897
v 0.18477583 13 -0.6888302
v -0.076120496 0 -0.38268346
v -5.9604645E-08 0 -0.7653669
v -0.076120496 13 -0.38268346
v -5.9604645E-08 13 -0.7653669
v 0.18477583 0 -0.6888302
v 0.12387949 0 -0.38268346
v 0.18477583 13 -0.6888302
v 0.12387949 13 -0.38268346
v -0.076120496 0 -0.38268346
v -0 0 0
v 0.12387949 0 -0.38268346
v 0.18477589 0 -0.076536685
v -0 13 0
v -0.076120496 13 -0.38268346
v 0.18477589 13 -0.076536685
v 0.12387949 13 -0.38268346
v 0.21677274 0 0.3244233
v 0.35819405 0 0.183002
v 0.21677274 13 0.3244233
v 0.35819405 13 0.183002
v 0.5411961 0 0.54119605
v 0.35819405 0 0.183002
v 0.61773276 0 0.35642016
v 0.5411961 13 0.54119605
v 0.61773276 13 0.35642016
v 0.92387956 0 0.61731654
v 0.92387956 0 0.41731656
v 0.92387956 13 0.61731654
v 0.92387956 13 0.41731656
v 1.3065629 0 0.5411961
v 1.2300262 0 0.35642022
v 1.3065629 13 0.5411961
v 1.2300262 13 0.35642022
v 0.92387956 13 0.41731656
v 1.6309862 0 0.3244233
v 1.2300262 0 0.35642022
v 1.4895649 0 0.183002
v 1.6309862 13 0.3244233
v 1.4895649 13 0.183002
v 1.2300262 13 0.35642022
v 1.847759 0 2.9802322E-08
v 1.6629832 0 -0.076536655
v 1.847759 13 2.9802322E-08
v 1.6629832 13 -0.076536655
v 1.9238795 0 -0.38268355
v 1.6629832 0 -0.076536655
v 1.7238796 0 -0.38268352
v 1.9238795 13 -0.38268355
v 1.7238796 13 -0.38268352
v 1.847759 0 -0.7653669
v 1.6629832 0 -0.6888302
v 1.847759 13 -0.7653669
v 1.6629832 13 -0.6888302
v 1.6309863 0 -1.0897901
v 1.6629832 0 -0.6888302
v 1.4895649 0 -0.94836885
v 1.6309863 13 -1.0897901
v 1.4895649 13 -0.94836885
v 1.6629832 13 -0.6888302
v 1.3065631 0 -1.3065629
v 1.2300264 0 -1.1217871
v 1.3065631 13 -1.3065629
v 1.2300264 13 -1.1217871
v 0.9238795 0 -1.3826835
v 1.2300264 0 -1.1217871
v 0.9238795 0 -1.1826835
v 0.9238795 13 -1.3826835
v 0.9238795 13 -1.1826835
v 0.54119587 0 -1.3065629
v 0.61773264 0 -1.1217871
v 0.54119587 13 -1.3065629
v 0.61773264 13 -1.1217871
v 0.21677285 0 -1.0897903
v 0.35819417 0 -0.94836897
v 0.21677285 13 -1.0897903
v 0.35819417 13 -0.94836897
v 0.61773264 13 -1.1217871
v -5.9604645E-08 0 -0.7653669
v 0.18477583 0 -0.6888302
v -5.9604645E-08 13 -0.7653669
v 0.18477583 13 -0.6888302
vt 0 0
vt -0.39018068 0
vt 0 13
vt -0.39018068 13
vt 0.3511626 0
vt 0.039018057 0
vt 0.3511626 13
vt 0.039018057 13
vt 0.39018062 0
vt 0 0
vt 0.39018062 13
vt 0 13
vt -0.03901804 0
vt -0.35116255 0
vt -0.03901804 13
vt -0.35116255 13
vt 0.75066054 0
vt 0.36047986 0
vt 0.75066054 13
vt 0.36047986 13
vt -0.39949796 0
vt -0.7116425 0
vt -0.39949796 13
vt -0.7116425 13
vt 1.0265601 0
vt 0.63637936 0
vt 1.0265601 13
vt 0.63637936 13
vt -0.67539734 0
vt -0.9875419 0
vt -0.67539734 13
vt -0.9875419 13
vt 1.1758755 0
vt 0.785695 0
vt 1.1758755 13
vt 0.785695 13
vt -0.8247131 0
vt -1.1368575 0
vt -0.8247131 13
vt -1.1368575 13
vt 1.1758754 0
vt 0.7856947 0
vt 1.1758754 13
vt 0.7856947 13
vt -0.8247128 0
vt -1.1368574 0
vt -0.8247128 13
vt -1.1368574 13
vt 1.0265602 0
vt 0.6363796 0
vt 1.0265602 13
vt 0.6363796 13
vt -0.6753977 0
vt -0.9875423 0
vt -0.6753977 13
vt -0.9875423 13
vt 0.75066066 0
vt 0.36047986 0
vt 0.75066066 13
vt 0.36047986 13
vt -0.39949796 0
vt -0.7116426 0
vt -0.39949796 13
vt -0.7116426 13
vt 0.39018047 0
vt -1.2760144E-07 0
vt 0.39018047 13
vt -1.2760144E-07 13
vt -0.03901794 0
vt -0.3511624 0
vt -0.03901794 13
vt -0.3511624 13
vt -1.3782127E-07 0
vt -0.39018062 0
vt -1.3782127E-07 13
vt -0.39018062 13
vt 0.3511631 0
vt 0.03901854 0
vt 0.3511631 13
vt 0.03901854 13
vt -0.3604795 0
vt -0.75066006 0
vt -0.3604795 13
vt -0.75066006 13
vt 0.71164197 0
vt 0.39949754 0
vt 0.71164197 13
vt 0.39949754 13
vt -0.6363789 0
vt -1.0265597 0
vt -0.6363789 13
vt -1.0265597 13
vt 0.987542 0
vt 0.67539734 0
vt 0.987542 13
vt 0.67539734 13
vt -0.785695 0
vt -1.1758759 0
vt -0.785695 13
vt -1.1758759 13
vt 1.1368575 0
vt 0.82471293 0
vt 1.1368575 13
vt 0.82471293 13
vt -0.7856952 0
vt -1.1758754 0
vt -0.7856952 13
vt -1.1758754 13
vt 1.1368575 0
vt 0.82471323 0
vt 1.1368575 13
vt 0.82471323 13
vt -0.6363792 0
vt -1.02656 0
vt -0.6363792 13
vt -1.02656 13
vt 0.987542 0
vt 0.67539734 0
vt 0.987542 13
vt 0.67539734 13
vt -0.36047995 0
vt -0.7506606 0
vt -0.36047995 13
vt -0.7506606 13
vt 0.7116425 0
vt 0.399498 0
vt 0.7116425 13
vt 0.399498 13
vt -0.076120496 -0.38268346
vt 0 0
vt 0.12387949 -0.38268346
vt 0.18477589 -0.076536685
vt 0 0
vt 0.076120496 -0.38268346
vt -0.18477589 -0.076536685
vt -0.12387949 -0.38268346
vt 0.21677274 0.3244233
vt 0.35819405 0.183002
vt -0.21677274 0.3244233
vt -0.35819405 0.183002
vt 0.5411961 0.54119605
vt 0.35819405 0.183002
vt 0.61773276 0.35642016
vt -0.5411961 0.54119605
vt -0.61773276 0.35642016
vt 0.92387956 0.61731654
vt 0.92387956 0.41731656
vt -0.92387956 0.61731654
vt -0.92387956 0.41731656
vt 1.3065629 0.5411961
vt 1.2300262 0.35642022
vt -1.3065629 0.5411961
vt -1.2300262 0.35642022
vt -0.92387956 0.41731656
vt 1.6309862 0.3244233
vt 1.2300262 0.35642022
vt 1.4895649 0.183002
vt -1.6309862 0.3244233
vt -1.4895649 0.183002
vt -1.2300262 0.35642022
vt 1.847759 2.9802322E-08
vt 1.6629832 -0.076536655
vt -1.847759 2.9802322E-08
vt -1.6629832 -0.076536655
vt 1.9238795 -0.38268355
vt 1.6629832 -0.076536655
vt 1.7238796 -0.38268352
vt -1.9238795 -0.38268355
vt -1.7238796 -0.38268352
vt 1.847759 -0.7653669
vt 1.6629832 -0.6888302
vt -1.847759 -0.7653669
vt -1.6629832 -0.6888302
vt 1.6309863 -1.0897901
vt 1.6629832 -0.6888302
vt 1.4895649 -0.94836885
vt -1.6309863 -1.0897901
vt -1.4895649 -0.94836885
vt -1.6629832 -0.6888302
vt 1.3065631 -1.3065629
vt 1.2300264 -1.1217871
vt -1.3065631 -1.3065629
vt -1.2300264 -1.1217871
vt 0.9238795 -1.3826835
vt 1.2300264 -1.1217871
vt 0.9238795 -1.1826835
vt -0.9238795 -1.3826835
vt -0.9238795 -1.1826835
vt 0.54119587 -1.3065629
vt 0.61773264 -1.1217871
vt -0.54119587 -1.3065629
vt -0.61773264 -1.1217871
vt 0.21677285 -1.0897903
vt 0.35819417 -0.94836897
vt -0.21677285 -1.0897903
vt -0.35819417 -0.94836897
vt -0.61773264 -1.1217871
vt -5.9604645E-08 -0.7653669
vt 0.18477583 -0.6888302
vt 5.9604645E-08 -0.7653669
vt -0.18477583 -0.6888302
vn -0.9807852 0 0.19509037
vn -0.9807852 0 0.19509037
vn -0.9807852 0 0.19509037
vn -0.9807852 0 0.19509037
vn 0.9807853 0 -0.19509038
vn 0.9807853 0 -0.19509038
vn 0.9807853 0 -0.19509038
vn 0.9807853 0 -0.19509038
vn -0.8314696 0 0.55557024
vn -0.8314696 0 0.55557024
vn -0.8314696 0 0.55557024
vn -0.8314696 0 0.55557024
vn 0.8314697 0 -0.5555701
vn 0.8314697 0 -0.5555701
vn 0.8314697 0 -0.5555701
vn 0.8314697 0 -0.5555701
vn -0.5555702 0 0.8314697
vn -0.5555702 0 0.8314697
vn -0.5555702 0 0.8314697
vn -0.5555702 0 0.8314697
vn 0.5555701 0 -0.8314698
vn 0.5555701 0 -0.8314698
vn 0.5555701 0 -0.8314698
vn 0.5555701 0 -0.8314698
vn -0.19509037 0 0.9807852
vn -0.19509037 0 0.9807852
vn -0.19509037 0 0.9807852
vn -0.19509037 0 0.9807852
vn 0.19509037 0 -0.9807853
vn 0.19509037 0 -0.9807853
vn 0.19509037 0 -0.9807853
vn 0.19509037 0 -0.9807853
vn 0.19509028 0 0.98078525
vn 0.19509028 0 0.98078525
vn 0.19509028 0 0.98078525
vn 0.19509028 0 0.98078525
vn -0.19509025 0 -0.9807853
vn -0.19509025 0 -0.9807853
vn -0.19509025 0 -0.9807853
vn -0.19509025 0 -0.9807853
vn 0.55557036 0 0.8314696
vn 0.55557036 0 0.8314696
vn 0.55557036 0 0.8314696
vn 0.55557036 0 0.8314696
vn -0.55557036 0 -0.8314696
vn -0.55557036 0 -0.8314696
vn -0.55557036 0 -0.8314696
vn -0.55557036 0 -0.8314696
vn 0.8314695 0 0.55557036
vn 0.8314695 0 0.55557036
vn 0.8314695 0 0.55557036
vn 0.8314695 0 0.55557036
vn -0.8314695 0 -0.5555705
vn -0.8314695 0 -0.5555705
vn -0.8314695 0 -0.5555705
vn -0.8314695 0 -0.5555705
vn 0.9807853 0 0.19509034
vn 0.9807853 0 0.19509034
vn 0.9807853 0 0.19509034
vn 0.9807853 0 0.19509034
vn -0.98078525 0 -0.19509031
vn -0.98078525 0 -0.19509031
vn -0.98078525 0 -0.19509031
vn -0.98078525 0 -0.19509031
vn 0.9807852 0 -0.19509043
vn 0.9807852 0 -0.19509043
vn 0.9807852 0 -0.19509043
vn 0.9807852 0 -0.19509043
vn -0.9807852 0 0.19509043
vn -0.9807852 0 0.19509043
vn -0.9807852 0 0.19509043
vn -0.9807852 0 0.19509043
vn 0.8314696 0 -0.55557024
vn 0.8314696 0 -0.55557024
vn 0.8314696 0 -0.55557024
vn 0.8314696 0 -0.55557024
vn -0.8314695 0 0.5555705
vn -0.8314695 0 0.5555705
vn -0.8314695 0 0.5555705
vn -0.8314695 0 0.5555705
vn 0.5555705 0 -0.8314694
vn 0.5555705 0 -0.8314694
vn 0.5555705 0 -0.8314694
vn 0.5555705 0 -0.8314694
vn -0.5555705 0 0.83146936
vn -0.5555705 0 0.83146936
vn -0.5555705 0 0.83146936
vn -0.5555705 0 0.83146936
vn 0.19509058 0 -0.9807852
vn 0.19509058 0 -0.9807852
vn 0.19509058 0 -0.9807852
vn 0.19509058 0 -0.9807852
vn -0.19509031 0 0.98078525
vn -0.19509031 0 0.98078525
vn -0.19509031 0 0.98078525
vn -0.19509031 0 0.98078525
vn -0.19509058 0 -0.9807852
vn -0.19509058 0 -0.9807852
vn -0.19509058 0 -0.9807852
vn -0.19509058 0 -0.9807852
vn 0.19509031 0 0.98078525
vn 0.19509031 0 0.98078525
vn 0.19509031 0 0.98078525
vn 0.19509031 0 0.98078525
vn -0.55557024 0 -0.8314696
vn -0.55557024 0 -0.8314696
vn -0.55557024 0 -0.8314696
vn -0.55557024 0 -0.8314696
vn 0.5555703 0 0.83146954
vn 0.5555703 0 0.83146954
vn 0.5555703 0 0.83146954
vn 0.5555703 0 0.83146954
vn -0.8314695 0 -0.5555705
vn -0.8314695 0 -0.5555705
vn -0.8314695 0 -0.5555705
vn -0.8314695 0 -0.5555705
vn 0.83146954 0 0.5555704
vn 0.83146954 0 0.5555704
vn 0.83146954 0 0.5555704
vn 0.83146954 0 0.5555704
vn -0.9807853 0 -0.19509023
vn -0.9807853 0 -0.19509023
vn -0.9807853 0 -0.19509023
vn -0.9807853 0 -0.19509023
vn 0.9807853 0 0.19509022
vn 0.9807853 0 0.19509022
vn 0.9807853 0 0.19509022
vn 0.9807853 0 0.19509022
vn -0 -1 0
vn -0 -1 0
vn -0 -1 0
vn -0 -1 0
vn -0 1 0
vn -0 1 0
vn -0 1 0
vn -0 1 0
vn -0 -1 0
vn -0 -0.99999994 0
vn -0 1 0
vn -0 1 0
vn -0 -1 0
vn -0 -1 0
vn -0 -1 0
vn -0 1 0
vn -0 1 0
vn -0 -1 0
vn -0 -1 0
vn -0 1 0
vn -0 1 0
vn -0 -1 0
vn -0 -0.99999994 0
vn -0 1 0
vn -0 1 0
vn -0 0.99999994 0
vn -0 -1 0
vn -0 -1 0
vn -0 -1 0
vn -0 1 0
vn -0 1 0
vn -0 0.99999994 0
vn -0 -1 0
vn -0 -0.99999994 0
vn -0 1 0
vn -0 1 0
vn -0 -1 0
vn -0 -1 0
vn -0 -1 0
vn -0 1 0
vn -0 1 0
vn -0 -1 0
vn -0 -0.99999994 0
vn -0 1 0
vn -0 1 0
vn -0 -1 0
vn -0 -1 0
vn -0 -1 0
vn -0 1 0
vn -0 1 0
vn -0 0.99999994 0
vn -0 -1 0
vn -0 -0.99999994 0
vn -0 1 0
vn -0 1 0
vn -0 -1 0
vn -0 -1 0
vn -0 -1 0
vn -0 1 0
vn -0 1 0
vn -0 -1 0
vn -0 -1 0
vn -0 1 0
vn -0 1 0
vn -0 -1 0
vn -0 -1 0
vn -0 1 0
vn -0 1 0
vn -0 0.99999994 0
vn -0 -1 0
vn -0 -1 0
vn -0 1 0
vn -0 1 0
g pb_Mesh-3255748_0
f 3/3/3 2/2/2 1/1/1
f 3/3/3 4/4/4 2/2/2
f 7/7/7 6/6/6 5/5/5
f 7/7/7 8/8/8 6/6/6
f 11/11/11 10/10/10 9/9/9
f 11/11/11 12/12/12 10/10/10
f 15/15/15 14/14/14 13/13/13
f 15/15/15 16/16/16 14/14/14
f 19/19/19 18/18/18 17/17/17
f 19/19/19 20/20/20 18/18/18
f 23/23/23 22/22/22 21/21/21
f 23/23/23 24/24/24 22/22/22
f 27/27/27 26/26/26 25/25/25
f 27/27/27 28/28/28 26/26/26
f 31/31/31 30/30/30 29/29/29
f 31/31/31 32/32/32 30/30/30
f 35/35/35 34/34/34 33/33/33
f 35/35/35 36/36/36 34/34/34
f 39/39/39 38/38/38 37/37/37
f 39/39/39 40/40/40 38/38/38
f 43/43/43 42/42/42 41/41/41
f 43/43/43 44/44/44 42/42/42
f 47/47/47 46/46/46 45/45/45
f 47/47/47 48/48/48 46/46/46
f 51/51/51 50/50/50 49/49/49
f 51/51/51 52/52/52 50/50/50
f 55/55/55 54/54/54 53/53/53
f 55/55/55 56/56/56 54/54/54
f 59/59/59 58/58/58 57/57/57
f 59/59/59 60/60/60 58/58/58
f 63/63/63 62/62/62 61/61/61
f 63/63/63 64/64/64 62/62/62
f 67/67/67 66/66/66 65/65/65
f 67/67/67 68/68/68 66/66/66
f 71/71/71 70/70/70 69/69/69
f 71/71/71 72/72/72 70/70/70
f 75/75/75 74/74/74 73/73/73
f 75/75/75 76/76/76 74/74/74
f 79/79/79 78/78/78 77/77/77
f 79/79/79 80/80/80 78/78/78
f 83/83/83 82/82/82 81/81/81
f 83/83/83 84/84/84 82/82/82
f 87/87/87 86/86/86 85/85/85
f 87/87/87 88/88/88 86/86/86
f 91/91/91 90/90/90 89/89/89
f 91/91/91 92/92/92 90/90/90
f 95/95/95 94/94/94 93/93/93
f 95/95/95 96/96/96 94/94/94
f 99/99/99 98/98/98 97/97/97
f 99/99/99 100/100/100 98/98/98
f 103/103/103 102/102/102 101/101/101
f 103/103/103 104/104/104 102/102/102
f 107/107/107 106/106/106 105/105/105
f 107/107/107 108/108/108 106/106/106
f 111/111/111 110/110/110 109/109/109
f 111/111/111 112/112/112 110/110/110
f 115/115/115 114/114/114 113/113/113
f 115/115/115 116/116/116 114/114/114
f 119/119/119 118/118/118 117/117/117
f 119/119/119 120/120/120 118/118/118
f 123/123/123 122/122/122 121/121/121
f 123/123/123 124/124/124 122/122/122
f 127/127/127 126/126/126 125/125/125
f 127/127/127 128/128/128 126/126/126
f 131/131/131 130/130/130 129/129/129
f 131/131/131 132/132/132 130/130/130
f 135/135/135 134/134/134 133/133/133
f 135/135/135 136/136/136 134/134/134
f 132/132/132 137/137/137 130/130/130
f 132/132/132 138/138/138 137/137/137
f 140/140/140 133/133/133 139/139/139
f 140/140/140 135/135/135 133/133/133
f 142/142/142 141/141/141 137/137/137
f 142/142/142 143/143/143 141/141/141
f 145/145/145 139/139/139 144/144/144
f 145/145/145 140/140/140 139/139/139
f 143/143/143 146/146/146 141/141/141
f 143/143/143 147/147/147 146/146/146
f 149/149/149 144/144/144 148/148/148
f 149/149/149 145/145/145 144/144/144
f 147/147/147 150/150/150 146/146/146
f 147/147/147 151/151/151 150/150/150
f 153/153/153 148/148/148 152/152/152
f 153/153/153 154/154/154 148/148/148
f 156/156/156 155/155/155 150/150/150
f 156/156/156 157/157/157 155/155/155
f 159/159/159 152/152/152 158/158/158
f 159/159/159 160/160/160 152/152/152
f 157/157/157 161/161/161 155/155/155
f 157/157/157 162/162/162 161/161/161
f 164/164/164 158/158/158 163/163/163
f 164/164/164 159/159/159 158/158/158
f 166/166/166 165/165/165 161/161/161
f 166/166/166 167/167/167 165/165/165
f 169/169/169 163/163/163 168/168/168
f 169/169/169 164/164/164 163/163/163
f 167/167/167 170/170/170 165/165/165
f 167/167/167 171/171/171 170/170/170
f 173/173/173 168/168/168 172/172/172
f 173/173/173 169/169/169 168/168/168
f 175/175/175 174/174/174 170/170/170
f 175/175/175 176/176/176 174/174/174
f 178/178/178 172/172/172 177/177/177
f 178/178/178 179/179/179 172/172/172
f 176/176/176 180/180/180 174/174/174
f 176/176/176 181/181/181 180/180/180
f 183/183/183 177/177/177 182/182/182
f 183/183/183 178/178/178 177/177/177
f 185/185/185 184/184/184 180/180/180
f 185/185/185 186/186/186 184/184/184
f 188/188/188 182/182/182 187/187/187
f 188/188/188 183/183/183 182/182/182
f 186/186/186 189/189/189 184/184/184
f 186/186/186 190/190/190 189/189/189
f 192/192/192 187/187/187 191/191/191
f 192/192/192 188/188/188 187/187/187
f 190/190/190 193/193/193 189/189/189
f 190/190/190 194/194/194 193/193/193
f 196/196/196 191/191/191 195/195/195
f 196/196/196 197/197/197 191/191/191
f 194/194/194 198/198/198 193/193/193
f 194/194/194 199/199/199 198/198/198
f 201/201/201 195/195/195 200/200/200
f 201/201/201 196/196/196 195/195/195
f 199/199/199 129/129/129 198/198/198
f 199/199/199 131/131/131 129/129/129
f 136/136/136 200/200/200 134/134/134
f 136/136/136 201/201/201 200/200/200
