g pb_Mesh-357868
v 0.7355653 -0.40491104 -8.183086
v -8.064929 -0.40491104 -8.1831
v 0.7355653 5.799625 -8.183086
v -8.064929 5.799625 -8.1831
v -8.064929 -0.40491104 -8.1831
v -8.064929 -0.40491104 -13.552915
v -8.064929 5.799625 -8.1831
v -8.064929 5.799625 -13.552915
v -8.064929 -0.40491104 -13.552915
v 0.73555994 -0.40491104 -13.552899
v -8.064929 5.799625 -13.552915
v 0.73555994 5.799625 -13.552899
v 0.73555994 -0.40491104 -13.552899
v 0.7355653 -0.40491104 -8.183086
v 0.73555994 5.799625 -13.552899
v 0.7355653 5.799625 -8.183086
v 0.7355653 5.799625 -8.183086
v -8.064929 5.799625 -8.1831
v 0.73555994 5.799625 -13.552899
v -8.064929 5.799625 -13.552915
v 0.73555994 -0.40491104 -13.552899
v -8.064929 -0.40491104 -13.552915
v 0.7355653 -0.40491104 -8.183086
v -8.064929 -0.40491104 -8.1831
vt 0.7355529 -0.40491104
vt -8.064941 -0.40491104
vt 0.7355529 5.799625
vt -8.064941 5.799625
vt -8.1831 -0.40491104
vt -13.552915 -0.40491104
vt -8.1831 5.799625
vt -13.552915 5.799625
vt 8.064953 -0.40491104
vt -0.73553646 -0.40491104
vt 8.064953 5.799625
vt -0.73553646 5.799625
vt 13.552898 -0.40491104
vt 8.183085 -0.40491104
vt 13.552898 5.799625
vt 8.183085 5.799625
vt -0.7355653 -8.183086
vt 8.064929 -8.1831
vt -0.73555994 -13.552899
vt 8.064929 -13.552915
vt 0.73555994 -13.552899
vt -8.064929 -13.552915
vt 0.7355653 -8.183086
vt -8.064929 -8.1831
vn -1.517124E-06 0 1
vn -1.517124E-06 0 1
vn -1.517124E-06 0 1
vn -1.517124E-06 0 1
vn -1 0 0
vn -1 0 0
vn -1 0 0
vn -1 0 0
vn 1.7338567E-06 0 -0.99999994
vn 1.7338567E-06 0 -0.99999994
vn 1.7338567E-06 0 -0.99999994
vn 1.7338567E-06 0 -0.99999994
vn 0.99999994 0 -9.989953E-07
vn 0.99999994 0 -9.989953E-07
vn 0.99999994 0 -9.989953E-07
vn 0.99999994 0 -9.989953E-07
vn -0 0.99999994 0
vn -0 0.99999994 0
vn -0 0.99999994 0
vn -0 1 0
vn -0 -1 0
vn -0 -0.99999994 0
vn -0 -0.99999994 0
vn -0 -1 0
g pb_Mesh-357868_0
f 3/3/3 2/2/2 1/1/1
f 3/3/3 4/4/4 2/2/2
f 7/7/7 6/6/6 5/5/5
f 7/7/7 8/8/8 6/6/6
f 11/11/11 10/10/10 9/9/9
f 11/11/11 12/12/12 10/10/10
f 15/15/15 14/14/14 13/13/13
f 15/15/15 16/16/16 14/14/14
f 19/19/19 18/18/18 17/17/17
f 19/19/19 20/20/20 18/18/18
f 23/23/23 22/22/22 21/21/21
f 23/23/23 24/24/24 22/22/22
