g pb_Mesh153180
v 2.9999998 -0.4999984 5.8890753
v -3.0000002 -0.4999984 5.8890753
v 2.9999998 0.5000012 5.8890753
v -3.0000002 0.5000012 5.8890753
v -3.0000002 -0.4999984 5.8890753
v -3 -0.49999866 -6.9584427
v -3.0000002 0.5000012 5.8890753
v -3 0.5000015 -6.9584427
v -3 -0.49999866 -6.9584427
v 3 -0.49999866 -6.9584427
v -3 0.5000015 -6.9584427
v 3 0.5000015 -6.9584427
v 3 -0.49999866 -6.9584427
v 2.9999998 -0.4999984 5.8890753
v 3 0.5000015 -6.9584427
v 2.9999998 0.5000012 5.8890753
v 2.9999998 0.5000012 5.8890753
v -3.0000002 0.5000012 5.8890753
v 3 0.5000015 -6.9584427
v -3 0.5000015 -6.9584427
v 3 -0.49999866 -6.9584427
v -3 -0.49999866 -6.9584427
v 2.9999998 -0.4999984 5.8890753
v -3.0000002 -0.4999984 5.8890753
vt 0.110628046 0.44352946
vt 0.1040164 0.44352946
vt 0.110628046 0.44463137
vt 0.1040164 0.44463137
vt 0.11394465 0.44352466
vt 0.09978747 0.44352466
vt 0.11394465 0.4446266
vt 0.09978747 0.4446266
vt 0.110628285 0.44352946
vt 0.10401664 0.44352946
vt 0.110628285 0.4446314
vt 0.10401664 0.4446314
vt 0.11307907 0.4442096
vt 0.107438326 0.4442096
vt 0.11307907 0.44531155
vt 0.107438326 0.44531155
vt 0.1047899 0.45148915
vt 0.11140154 0.45148915
vt 0.1047899 0.43733197
vt 0.11140154 0.43733197
vt 0.111401305 0.43733197
vt 0.10478966 0.43733197
vt 0.111401305 0.45148915
vt 0.10478966 0.45148915
vn -0 0 1
vn -0 0 1
vn -0 0 1
vn -0 0 1
vn -1 0 -1.855756E-08
vn -1 0 -1.855756E-08
vn -1 0 -1.855756E-08
vn -1 0 -1.8557559E-08
vn -0 0 -1
vn -0 0 -1
vn -0 0 -1
vn -0 0 -1
vn 1 0 1.8557559E-08
vn 1 0 1.855756E-08
vn 1 0 1.855756E-08
vn 1 0 1.855756E-08
vn -0 1 2.319695E-08
vn -0 1 2.319695E-08
vn -0 1 2.319695E-08
vn -0 1 2.3196948E-08
vn -0 -1 2.0877254E-08
vn -0 -1 2.0877254E-08
vn -0 -1 2.0877254E-08
vn -0 -1 2.0877255E-08
g pb_Mesh153180_0
f 3/3/3 2/2/2 1/1/1
f 3/3/3 4/4/4 2/2/2
f 7/7/7 6/6/6 5/5/5
f 7/7/7 8/8/8 6/6/6
f 11/11/11 10/10/10 9/9/9
f 11/11/11 12/12/12 10/10/10
f 15/15/15 14/14/14 13/13/13
f 15/15/15 16/16/16 14/14/14
f 19/19/19 18/18/18 17/17/17
f 19/19/19 20/20/20 18/18/18
f 23/23/23 22/22/22 21/21/21
f 23/23/23 24/24/24 22/22/22
