g pb_Mesh-2470780
v 0.53575325 -0.20999981 -0.22696567
v 0.98994565 -0.20999981 0.07651615
v 0.53575325 0.42601287 -0.22696567
v 0.98994565 0.42601287 0.07651615
v 0.982529 -0.20999981 0.35935935
v 0.50513846 -0.20999981 0.36310652
v 0.982529 0.42601287 0.35935935
v 0.50513846 0.42601287 0.36310652
v -3.8146973E-06 -0.20999981 -0.33353436
v 0.53575325 -0.20999981 -0.22696567
v -3.8146973E-06 0.42601287 -0.33353436
v 0.53575325 0.42601287 -0.22696567
v 0.50513846 -0.20999981 0.36310652
v -4.0637733E-06 -0.20999981 0.3656202
v 0.50513846 0.42601287 0.36310652
v -4.0637733E-06 0.42601287 0.3656202
v -0.5357609 -0.20999981 -0.22696555
v -3.8146973E-06 -0.20999981 -0.33353436
v -0.5357609 0.42601287 -0.22696555
v -3.8146973E-06 0.42601287 -0.33353436
v -4.0637733E-06 -0.20999981 0.3656202
v -0.5051463 -0.20999981 0.36310658
v -4.0637733E-06 0.42601287 0.3656202
v -0.5051463 0.42601287 0.36310658
v -0.9899531 -0.20999981 0.07651591
v -0.5357609 -0.20999981 -0.22696555
v -0.9899531 0.42601287 0.07651591
v -0.5357609 0.42601287 -0.22696555
v -0.5051463 -0.20999981 0.36310658
v -0.99376315 -0.20999981 0.35935843
v -0.5051463 0.42601287 0.36310658
v -0.99376315 0.42601287 0.35935843
v 0.98994565 -0.20999981 0.07651615
v 0.53575325 -0.20999981 -0.22696567
v 0.982529 -0.20999981 0.35935935
v 0.50513846 -0.20999981 0.36310652
v 0.53575325 0.42601287 -0.22696567
v 0.98994565 0.42601287 0.07651615
v 0.50513846 0.42601287 0.36310652
v 0.982529 0.42601287 0.35935935
v 0.53575325 -0.20999981 -0.22696567
v -3.8146973E-06 -0.20999981 -0.33353436
v 0.50513846 -0.20999981 0.36310652
v -4.0637733E-06 -0.20999981 0.3656202
v -3.8146973E-06 0.42601287 -0.33353436
v 0.53575325 0.42601287 -0.22696567
v -4.0637733E-06 0.42601287 0.3656202
v 0.50513846 0.42601287 0.36310652
v -3.8146973E-06 -0.20999981 -0.33353436
v -0.5357609 -0.20999981 -0.22696555
v -0.5051463 -0.20999981 0.36310658
v -0.5357609 0.42601287 -0.22696555
v -0.5051463 0.42601287 0.36310658
v -4.0637733E-06 0.42601287 0.3656202
v -0.9899531 -0.20999981 0.07651591
v -0.99376315 -0.20999981 0.35935843
v -0.9899531 0.42601287 0.07651591
v -0.99376315 0.42601287 0.35935843
v 0.98994565 0.42601287 0.07651615
v 0.982529 -0.20999981 0.35935935
v 0.982529 0.42601287 0.35935935
v 0.98994565 -0.20999981 0.07651615
v -0.99376315 -0.20999981 0.35935843
v -0.9899531 -0.20999981 0.07651591
v -0.9899531 0.42601287 0.07651591
v -0.99376315 0.42601287 0.35935843
vt -0.31936705 -0.20999981
vt -0.8656197 -0.20999981
vt -0.31936705 0.42601287
vt -0.8656197 0.42601287
vt 0.9796781 -0.20999981
vt 0.50227284 -0.20999981
vt 0.9796781 0.42601287
vt 0.50227284 0.42601287
vt 0.065073065 -0.20999981
vt -0.4811801 -0.20999981
vt 0.065073065 0.42601287
vt -0.4811801 0.42601287
vt 0.50332534 -0.20999981
vt -0.0018234308 -0.20999981
vt 0.50332534 0.42601287
vt -0.0018234308 0.42601287
vt 0.48118755 -0.20999981
vt -0.06506565 -0.20999981
vt 0.48118755 0.42601287
vt -0.06506565 0.42601287
vt 0.0018152612 -0.20999981
vt -0.5033333 -0.20999981
vt 0.0018152612 0.42601287
vt -0.5033333 0.42601287
vt 0.865626 -0.20999981
vt 0.31937367 -0.20999981
vt 0.865626 0.42601287
vt 0.31937367 0.42601287
vt -0.5023462 -0.20999981
vt -0.9909774 -0.20999981
vt -0.5023462 0.42601287
vt -0.9909774 0.42601287
vt 0.98994565 0.07651615
vt 0.53575325 -0.22696567
vt 0.982529 0.35935935
vt 0.50513846 0.36310652
vt -0.53575325 -0.22696567
vt -0.98994565 0.07651615
vt -0.50513846 0.36310652
vt -0.982529 0.35935935
vt 0.53575325 -0.22696567
vt -3.8146973E-06 -0.33353436
vt 0.50513846 0.36310652
vt -4.0637733E-06 0.3656202
vt 3.8146973E-06 -0.33353436
vt -0.53575325 -0.22696567
vt 4.0637733E-06 0.3656202
vt -0.50513846 0.36310652
vt -3.8146973E-06 -0.33353436
vt -0.5357609 -0.22696555
vt -0.5051463 0.36310658
vt 0.5357609 -0.22696555
vt 0.5051463 0.36310658
vt 4.0637733E-06 0.3656202
vt -0.9899531 0.07651591
vt -0.99376315 0.35935843
vt 0.9899531 0.07651591
vt 0.99376315 0.35935843
vt -0.050540596 0.42601287
vt -0.333481 -0.20999981
vt -0.333481 0.42601287
vt -0.050540596 -0.20999981
vt 0.37271115 -0.20999981
vt 0.08984299 -0.20999981
vt 0.08984299 0.42601287
vt 0.37271115 0.42601287
vn 0.5555704 0 -0.8314694
vn 0.5555704 0 -0.8314694
vn 0.5555704 0 -0.8314694
vn 0.5555704 0 -0.8314694
vn 0.007849024 0 0.9999692
vn 0.007849024 0 0.9999692
vn 0.007849024 0 0.9999692
vn 0.007849024 0 0.9999692
vn 0.19509031 0 -0.98078525
vn 0.19509031 0 -0.98078525
vn 0.19509031 0 -0.98078525
vn 0.19509031 0 -0.98078525
vn 0.004976112 0 0.99998766
vn 0.004976112 0 0.99998766
vn 0.004976112 0 0.99998766
vn 0.004976112 0 0.99998766
vn -0.19509052 0 -0.98078525
vn -0.19509052 0 -0.98078525
vn -0.19509052 0 -0.98078525
vn -0.19509052 0 -0.98078525
vn -0.0049759964 0 0.9999876
vn -0.0049759964 0 0.9999876
vn -0.0049759964 0 0.9999876
vn -0.0049759964 0 0.9999876
vn -0.5555701 0 -0.8314697
vn -0.5555701 0 -0.8314697
vn -0.5555701 0 -0.8314697
vn -0.5555701 0 -0.8314697
vn -0.0076707113 0 0.9999706
vn -0.0076707113 0 0.9999706
vn -0.0076707113 0 0.9999706
vn -0.0076707113 0 0.9999706
vn -0 -1 0
vn -0 -0.99999994 0
vn -0 -0.99999994 0
vn -0 -1 0
vn -0 1 0
vn -0 0.99999994 0
vn -0 0.99999994 0
vn -0 1 0
vn -0 -1 0
vn -0 -0.99999994 0
vn -0 -0.99999994 0
vn -0 -1 0
vn -0 1 0
vn -0 0.99999994 0
vn -0 0.99999994 0
vn -0 1 0
vn -0 -1 0
vn -0 -1 0
vn -0 -1 0
vn -0 1 0
vn -0 1 0
vn -0 1 0
vn -0 -1 0
vn -0 -1 0
vn -0 1 0
vn -0 1 0
vn 0.9996563 0 0.026212817
vn 0.9996563 0 0.026212817
vn 0.9996563 0 0.026212817
vn 0.9996563 0 0.026212817
vn -0.9999093 0 -0.013469342
vn -0.9999093 0 -0.013469342
vn -0.9999093 0 -0.013469342
vn -0.9999093 0 -0.013469342
g pb_Mesh-2470780_0
f 3/3/3 2/2/2 1/1/1
f 3/3/3 4/4/4 2/2/2
f 7/7/7 6/6/6 5/5/5
f 7/7/7 8/8/8 6/6/6
f 11/11/11 10/10/10 9/9/9
f 11/11/11 12/12/12 10/10/10
f 15/15/15 14/14/14 13/13/13
f 15/15/15 16/16/16 14/14/14
f 19/19/19 18/18/18 17/17/17
f 19/19/19 20/20/20 18/18/18
f 23/23/23 22/22/22 21/21/21
f 23/23/23 24/24/24 22/22/22
f 27/27/27 26/26/26 25/25/25
f 27/27/27 28/28/28 26/26/26
f 31/31/31 30/30/30 29/29/29
f 31/31/31 32/32/32 30/30/30
f 35/35/35 34/34/34 33/33/33
f 35/35/35 36/36/36 34/34/34
f 39/39/39 38/38/38 37/37/37
f 39/39/39 40/40/40 38/38/38
f 43/43/43 42/42/42 41/41/41
f 43/43/43 44/44/44 42/42/42
f 47/47/47 46/46/46 45/45/45
f 47/47/47 48/48/48 46/46/46
f 44/44/44 50/50/50 49/49/49
f 44/44/44 51/51/51 50/50/50
f 53/53/53 45/45/45 52/52/52
f 53/53/53 54/54/54 45/45/45
f 51/51/51 55/55/55 50/50/50
f 51/51/51 56/56/56 55/55/55
f 58/58/58 52/52/52 57/57/57
f 58/58/58 53/53/53 52/52/52
f 61/61/61 60/60/60 59/59/59
f 60/60/60 62/62/62 59/59/59
f 65/65/65 64/64/64 63/63/63
f 65/65/65 63/63/63 66/66/66
