g pb_Mesh-1340218
v -0.5973532 0.19752026 1.3018842
v -0.775573 0.19752026 1.3018807
v -0.5973532 0.37238503 1.3018842
v -0.775573 0.37238503 1.3018807
v -1.577561 0 2.3242062E-06
v -1.7613783 0 -0.99999756
v -1.577561 0.37238503 2.3242062E-06
v -1.7613783 0.37238503 -0.99999756
v -1.8339685 0 -4.9421525
v 0.46104488 0 -4.9421496
v -1.8339685 0.37238503 -4.9421525
v 0.46104488 0.37238503 -4.9421496
v 0.38845372 0 -0.9999944
v 0.20463645 0.19752026 5.755905E-06
v 0.38845372 0.37238503 -0.9999944
v 0.20463645 0.37238503 5.755905E-06
v 0.20463645 0.37238503 5.755905E-06
v -1.577561 0.37238503 2.3242062E-06
v 0.38845372 0.37238503 -0.9999944
v -1.7613783 0.37238503 -0.99999756
v 0.38845372 0 -0.9999944
v -1.7613783 0 -0.99999756
v 0.20463645 0.19752026 5.755905E-06
v -1.577561 0 2.3242062E-06
v 0.20463645 0.19752026 5.755905E-06
v -1.577561 0 2.3242062E-06
v -0.5973532 0.19752026 1.3018842
v -0.775573 0.19752026 1.3018807
v 0.20463645 0.37238503 5.755905E-06
v 0.20463645 0.19752026 5.755905E-06
v -0.5973532 0.37238503 1.3018842
v -0.5973532 0.19752026 1.3018842
v -1.577561 0 2.3242062E-06
v -1.577561 0.37238503 2.3242062E-06
v -0.775573 0.19752026 1.3018807
v -0.775573 0.37238503 1.3018807
v -0.775573 0.37238503 1.3018807
v -0.5973532 0.37238503 1.3018842
v -1.7613783 0 -0.99999756
v 0.38845372 0 -0.9999944
v -1.7613782 0 -1.8756632
v 0.38845378 0 -1.8756601
v -1.7613783 0.37238503 -0.99999756
v -1.7613783 0 -0.99999756
v -1.7613782 0.37238503 -1.8756632
v -1.7613782 0 -1.8756632
v 0.38845372 0 -0.9999944
v 0.38845372 0.37238503 -0.9999944
v 0.38845378 0 -1.8756601
v 0.38845378 0.37238503 -1.8756601
v 0.38845378 0.37238503 -1.8756601
v -1.7613782 0.37238503 -1.8756632
v -1.8339686 0 -3.5756676
v 0.4610445 0 -3.5756648
v -1.7613782 0.37238503 -1.8756632
v -1.7613782 0 -1.8756632
v -1.8339686 0.37238503 -3.5756676
v -1.8339686 0 -3.5756676
v 0.38845378 0 -1.8756601
v 0.38845378 0.37238503 -1.8756601
v 0.4610445 0 -3.5756648
v 0.4610445 0.37238503 -3.5756648
v 0.38845378 0.37238503 -1.8756601
v 0.4610445 0.37238503 -3.5756648
v -1.8339686 0.37238503 -3.5756676
v -1.8339685 0 -4.9421525
v 0.46104488 0 -4.9421496
v -1.8339686 0.37238503 -3.5756676
v -1.8339686 0 -3.5756676
v -1.8339685 0.37238503 -4.9421525
v -1.8339685 0 -4.9421525
v 0.4610445 0 -3.5756648
v 0.4610445 0.37238503 -3.5756648
v 0.46104488 0 -4.9421496
v 0.46104488 0.37238503 -4.9421496
v 0.46104488 0.37238503 -4.9421496
v -1.8339685 0.37238503 -4.9421525
vt -0.59732795 0.19752026
vt -0.77554774 0.19752026
vt -0.59732795 0.37238503
vt -0.77554774 0.37238503
vt -0.28520238 0
vt -1.3019564 0
vt -0.28520238 0.37238503
vt -1.3019564 0.37238503
vt 1.8339747 0
vt -0.4610387 0
vt 1.8339747 0.37238503
vt -0.4610387 0.37238503
vt 1.0537444 0
vt 0.036990225 0.19752026
vt 1.0537444 0.37238503
vt 0.036990225 0.37238503
vt -0.20463645 5.755905E-06
vt 1.577561 2.3242062E-06
vt -0.38845372 -0.9999944
vt 1.7613783 -0.99999756
vt 0.38845372 -0.9810402
vt -1.7613783 -0.9810434
vt 0.2046364 0.03828041
vt -1.577561 2.1914268E-06
vt 0.22514898 0.011770854
vt -1.5679606 0.011767414
vt -0.57196015 1.3166434
vt -0.7490954 1.3179691
vt 0.10732546 0.37238503
vt 0.10732546 0.19752026
vt -1.421751 0.37238503
vt -1.421751 0.19752026
vt -0.8274163 0
vt -0.8274163 0.37238503
vt 0.7016593 0.19752026
vt 0.7016593 0.37238503
vt 0.775573 1.3018807
vt 0.5973532 1.3018842
vt -1.7613783 -0.99999756
vt 0.38845372 -0.9999944
vt -1.7613782 -1.8756632
vt 0.38845378 -1.8756601
vt -0.9999973 0.37238503
vt -0.9999973 0
vt -1.8756629 0.37238503
vt -1.8756629 0
vt 0.9999944 0
vt 0.9999944 0.37238503
vt 1.8756601 0
vt 1.8756601 0.37238503
vt -0.38845378 -1.8756601
vt 1.7613782 -1.8756632
vt -1.8339686 -3.5756676
vt 0.4610445 -3.5756648
vt -1.9490982 0.37238503
vt -1.9490982 0
vt -3.6506517 0.37238503
vt -3.6506517 0
vt 1.8905245 0
vt 1.8905245 0.37238503
vt 3.5920782 0
vt 3.5920782 0.37238503
vt -0.38845378 -1.8756601
vt -0.4610445 -3.5756648
vt 1.8339686 -3.5756676
vt -1.8339685 -4.9421525
vt 0.46104488 -4.9421496
vt -3.5756674 0.37238503
vt -3.5756674 0
vt -4.9421525 0.37238503
vt -4.9421525 0
vt 3.575665 0
vt 3.575665 0.37238503
vt 4.9421496 0
vt 4.9421496 0.37238503
vt -0.46104488 -4.9421496
vt 1.8339685 -4.9421525
vn -1.9397785E-05 0 1
vn -1.9397785E-05 0 1
vn -1.9397785E-05 0 1
vn -1.9397785E-05 0 1
vn -0.98352206 0 0.18078835
vn -0.98352206 0 0.18078835
vn -0.98352206 0 0.18078835
vn -0.98352206 0 0.18078835
vn 1.2466259E-06 0 -1
vn 1.2466259E-06 0 -1
vn 1.2466259E-06 0 -1
vn 1.2466259E-06 0 -1
vn 0.98352206 0 0.18078832
vn 0.98352206 0 0.18078832
vn 0.98352206 0 0.18078832
vn 0.983522 0 0.18078832
vn -0 1 0
vn -0 1 0
vn -0 1 0
vn -0 1 0
vn -2.8474244E-07 -0.9810457 0.19377634
vn 0.049927954 -0.99391747 0.098159425
vn 0.049927954 -0.99391747 0.098159425
vn 0.110132605 -0.9937107 -0.020244278
vn 0.10990226 -0.99163383 0.06770254
vn 0.099962056 -0.9921406 0.07526356
vn 0.099962056 -0.9921406 0.07526356
vn -2.9208886E-06 -0.98868525 0.1500046
vn 0.85141486 0 0.52449286
vn 0.85141486 0 0.52449286
vn 0.85141486 0 0.52449286
vn 0.85141486 0 0.52449286
vn -0.8514153 0 0.524492
vn -0.85141534 0 0.524492
vn -0.85141534 0 0.524492
vn -0.85141534 0 0.5244921
vn -0 1 0
vn -0 1 0
vn -0 -1 0
vn -0 -1 0
vn -0 -1 0
vn -0 -1 0
vn -1 0 -1.3613563E-07
vn -1 0 -1.3613563E-07
vn -1 0 -1.3613563E-07
vn -1 0 -1.3613563E-07
vn 1 0 6.806781E-08
vn 1 0 6.806781E-08
vn 1 0 6.806781E-08
vn 1 0 6.806781E-08
vn -0 1 0
vn -0 1 0
vn -0 -1 0
vn -0 -1 0
vn -0.9990896 0 0.04266129
vn -0.9990896 0 0.04266129
vn -0.9990896 0 0.04266129
vn -0.9990896 0 0.04266129
vn 0.99908966 0 0.04266143
vn 0.99908966 0 0.04266143
vn 0.99908966 0 0.04266143
vn 0.99908966 0 0.04266143
vn -0 0.99999994 0
vn -0 1 0
vn -0 1 0
vn -0 -1 0
vn -0 -0.99999994 0
vn -1 0 -8.7237915E-08
vn -1 0 -8.7237915E-08
vn -1 0 -8.7237915E-08
vn -1 0 -8.7237915E-08
vn 1 0 2.8352324E-07
vn 1 0 2.8352324E-07
vn 1 0 2.8352324E-07
vn 1 0 2.8352324E-07
vn -0 1 0
vn -0 0.99999994 0
g pb_Mesh-1340218_0
f 3/3/3 2/2/2 1/1/1
f 3/3/3 4/4/4 2/2/2
f 7/7/7 6/6/6 5/5/5
f 7/7/7 8/8/8 6/6/6
f 11/11/11 10/10/10 9/9/9
f 11/11/11 12/12/12 10/10/10
f 15/15/15 14/14/14 13/13/13
f 15/15/15 16/16/16 14/14/14
f 19/19/19 18/18/18 17/17/17
f 19/19/19 20/20/20 18/18/18
f 23/23/23 22/22/22 21/21/21
f 23/23/23 24/24/24 22/22/22
f 27/27/27 26/26/26 25/25/25
f 27/27/27 28/28/28 26/26/26
f 31/31/31 30/30/30 29/29/29
f 31/31/31 32/32/32 30/30/30
f 35/35/35 34/34/34 33/33/33
f 35/35/35 36/36/36 34/34/34
f 37/37/37 17/17/17 18/18/18
f 37/37/37 38/38/38 17/17/17
f 41/41/41 40/40/40 39/39/39
f 41/41/41 42/42/42 40/40/40
f 45/45/45 44/44/44 43/43/43
f 45/45/45 46/46/46 44/44/44
f 49/49/49 48/48/48 47/47/47
f 49/49/49 50/50/50 48/48/48
f 51/51/51 20/20/20 19/19/19
f 51/51/51 52/52/52 20/20/20
f 53/53/53 42/42/42 41/41/41
f 53/53/53 54/54/54 42/42/42
f 57/57/57 56/56/56 55/55/55
f 57/57/57 58/58/58 56/56/56
f 61/61/61 60/60/60 59/59/59
f 61/61/61 62/62/62 60/60/60
f 64/64/64 52/52/52 63/63/63
f 64/64/64 65/65/65 52/52/52
f 66/66/66 54/54/54 53/53/53
f 66/66/66 67/67/67 54/54/54
f 70/70/70 69/69/69 68/68/68
f 70/70/70 71/71/71 69/69/69
f 74/74/74 73/73/73 72/72/72
f 74/74/74 75/75/75 73/73/73
f 76/76/76 65/65/65 64/64/64
f 76/76/76 77/77/77 65/65/65
