g pb_Mesh253948
v 4.8596286E-07 -0.14250231 0.79669434
v -0.68995124 -0.14250237 -0.39833865
v 4.3847672E-07 0.08012253 0.79669434
v -0.68995136 0.08012253 -0.39833874
v 0.68995 -0.14250237 -0.3983366
v 4.8596286E-07 -0.14250231 0.79669434
v 0.68995 0.08012253 -0.39833668
v 4.3847672E-07 0.08012253 0.79669434
v -0.68995124 -0.14250237 -0.39833865
v 0.68995 -0.14250237 -0.3983366
v -0.68995136 0.08012253 -0.39833874
v 0.68995 0.08012253 -0.39833668
v -0.68995124 -0.14250237 -0.39833865
v 4.8596286E-07 -0.14250231 0.79669434
v -4.8156846E-07 -0.14250237 6.5186355E-06
v 4.3847672E-07 0.08012253 0.79669434
v -0.68995136 0.08012253 -0.39833874
v -5.0531156E-07 0.08012253 6.426631E-06
v 0.68995 -0.14250237 -0.3983366
v 0.68995 0.08012253 -0.39833668
v 4.3847672E-07 0.08012253 0.79669434
v -5.0531156E-07 0.08012253 6.426631E-06
v -0.68995136 0.08012253 -0.39833874
vt 0.689958 -0.14250223
vt -0.68994683 -0.1425023
vt 0.689958 0.080122605
vt -0.68994695 0.080122605
vt 0.68994415 -0.14250244
vt -0.6899578 -0.14250238
vt 0.6899442 0.08012245
vt -0.6899578 0.08012245
vt 0.68995184 -0.1425022
vt -0.6899494 -0.1425022
vt 0.68995196 0.08012269
vt -0.6899494 0.08012269
vt -0.68995124 -0.39833865
vt 4.9211826E-07 0.79669434
vt -4.7541306E-07 6.507974E-06
vt -4.3847672E-07 0.79669434
vt 0.68995136 -0.39833874
vt 5.0531156E-07 6.426631E-06
vt 0.68995 -0.3983366
vt -0.68995 -0.39833668
vt -4.3847672E-07 0.79669434
vt 5.0531156E-07 6.426631E-06
vt 0.68995136 -0.39833874
vn -0.8660256 -1.8472429E-07 0.49999952
vn -0.8660256 -2.2382736E-07 0.4999995
vn -0.8660256 -2.2382736E-07 0.4999995
vn -0.8660257 -2.6293046E-07 0.49999955
vn 0.866026 2.008014E-07 0.49999893
vn 0.86602604 1.927629E-07 0.499999
vn 0.86602604 1.927629E-07 0.499999
vn 0.86602604 1.8472437E-07 0.499999
vn 1.4902229E-06 -4.0160285E-07 -1
vn 1.4902229E-06 -4.0160327E-07 -1
vn 1.4902229E-06 -4.0160327E-07 -1
vn 1.4902225E-06 -4.0160361E-07 -0.99999994
vn -4.3195023E-08 -1 7.481561E-08
vn -4.3195023E-08 -1 7.481561E-08
vn -4.3195023E-08 -1 7.481561E-08
vn -0 0.99999994 0
vn -0 0.99999994 0
vn -0 0.99999994 0
vn 4.3194753E-08 -1 7.48155E-08
vn -0 1 0
vn -0 1 0
vn -0 1 0
vn -0 1 0
g pb_Mesh253948_0
f 3/3/3 2/2/2 1/1/1
f 3/3/3 4/4/4 2/2/2
f 7/7/7 6/6/6 5/5/5
f 7/7/7 8/8/8 6/6/6
f 11/11/11 10/10/10 9/9/9
f 11/11/11 12/12/12 10/10/10
f 15/15/15 14/14/14 13/13/13
f 18/18/18 17/17/17 16/16/16
f 15/15/15 19/19/19 14/14/14
f 22/22/22 21/21/21 20/20/20
f 15/15/15 13/13/13 19/19/19
f 22/22/22 20/20/20 23/23/23
