g pb_Mesh1055684
v -1 -0.3124442 -1.0058616E-07
v -1 0.31244373 -7.822774E-08
v -0.70710677 -0.3124442 0.7071067
v -0.70710677 0.31244373 0.7071067
v -0.70710677 -0.3124442 0.7071067
v -0.70710677 0.31244373 0.7071067
v 4.371139E-08 -0.3124442 0.9999999
v 4.371139E-08 0.31244373 0.99999994
v 4.371139E-08 -0.3124442 0.9999999
v 4.371139E-08 0.31244373 0.99999994
v 0.70710677 -0.3124442 0.7071067
v 0.70710677 0.31244373 0.7071067
v 0.70710677 -0.3124442 0.7071067
v 0.70710677 0.31244373 0.7071067
v 1 -0.3124442 -1.8800887E-07
v 1 0.31244373 -1.6565052E-07
v 1 -0.3124442 -1.8800887E-07
v 1 0.31244373 -1.6565052E-07
v 0.7071068 -0.3124442 -0.70710677
v 0.7071068 0.31244373 -0.70710677
v 0.7071068 -0.3124442 -0.70710677
v 0.7071068 0.31244373 -0.70710677
v -1.1924881E-08 -0.3124442 -1.0000001
v -1.1924881E-08 0.31244373 -1.0000001
v -1.1924881E-08 -0.3124442 -1.0000001
v -1.1924881E-08 0.31244373 -1.0000001
v -0.70710665 -0.3124442 -0.70710695
v -0.70710665 0.31244373 -0.70710695
v -0.70710665 -0.3124442 -0.70710695
v -0.70710665 0.31244373 -0.70710695
v -1 -0.3124442 -1.0058616E-07
v -1 0.31244373 -7.822774E-08
v -0.70710677 -0.3124442 0.7071067
v -0 -0.3124442 -1.0058616E-07
v -1 -0.3124442 -1.0058616E-07
v 4.371139E-08 -0.3124442 0.9999999
v 0.70710677 -0.3124442 0.7071067
v 1 -0.3124442 -1.8800887E-07
v 0.7071068 -0.3124442 -0.70710677
v -1.1924881E-08 -0.3124442 -1.0000001
v -0.70710665 -0.3124442 -0.70710695
v -1 0.31244373 -7.822774E-08
v -0 0.31244373 -7.822774E-08
v -0.70710677 0.31244373 0.7071067
v 4.371139E-08 0.31244373 0.99999994
v 0.70710677 0.31244373 0.7071067
v 1 0.31244373 -1.6565052E-07
v 0.7071068 0.31244373 -0.70710677
v -1.1924881E-08 0.31244373 -1.0000001
v -0.70710665 0.31244373 -0.70710695
vt -0.38268355 -0.3124442
vt -0.38268352 0.31244373
vt 0.38268337 -0.3124442
vt 0.38268337 0.31244373
vt -0.38268355 -0.3124442
vt -0.38268355 0.31244373
vt 0.38268334 -0.3124442
vt 0.38268337 0.31244373
vt -0.3826833 -0.31244412
vt -0.38268334 0.31244382
vt 0.3826835 -0.31244412
vt 0.3826835 0.31244382
vt -0.38268343 -0.3124442
vt -0.38268343 0.31244373
vt 0.38268358 -0.3124442
vt 0.38268355 0.31244373
vt -0.3826833 -0.3124442
vt -0.38268334 0.31244373
vt 0.3826834 -0.3124442
vt 0.3826834 0.31244373
vt -0.38268337 -0.3124442
vt -0.38268337 0.31244373
vt 0.38268363 -0.3124442
vt 0.38268363 0.31244373
vt -0.38268346 -0.3124442
vt -0.38268346 0.31244373
vt 0.38268328 -0.3124442
vt 0.38268328 0.31244373
vt -0.38268352 -0.3124442
vt -0.38268352 0.31244373
vt 0.3826835 -0.3124442
vt 0.38268352 0.31244373
vt -0.70710677 0.7071067
vt 0 -1.0058616E-07
vt -1 -1.0058616E-07
vt 4.371139E-08 0.9999999
vt 0.70710677 0.7071067
vt 1 -1.8800887E-07
vt 0.7071068 -0.70710677
vt -1.1924881E-08 -1.0000001
vt -0.70710665 -0.70710695
vt 1 -7.822774E-08
vt 0 -7.822774E-08
vt 0.70710677 0.7071067
vt -4.371139E-08 0.99999994
vt -0.70710677 0.7071067
vt -1 -1.6565052E-07
vt -0.7071068 -0.70710677
vt 1.1924881E-08 -1.0000001
vt 0.70710665 -0.70710695
vn -0.9238795 9.429333E-10 -8.940697E-08
vn -0.9238795 1.2155142E-08 -5.9604645E-08
vn -0.65328145 -3.4230923E-09 0.65328145
vn -0.65328145 -2.3367356E-08 0.6532815
vn -0.65328145 -3.4230923E-09 0.65328145
vn -0.65328145 -2.3367356E-08 0.6532815
vn -0 -6.742927E-08 0.92387956
vn 1.4901161E-08 -6.876566E-08 0.9238795
vn -0 -6.742927E-08 0.92387956
vn 1.4901161E-08 -6.876566E-08 0.9238795
vn 0.6532815 -2.2030955E-08 0.65328145
vn 0.65328157 0 0.65328145
vn 0.6532815 -2.2030955E-08 0.65328145
vn 0.65328157 0 0.65328145
vn 0.92387956 6.846164E-09 -2.9802322E-08
vn 0.92387956 3.423082E-09 -2.9802322E-08
vn 0.92387956 6.846164E-09 -2.9802322E-08
vn 0.92387956 3.423082E-09 -2.9802322E-08
vn 0.65328157 3.423082E-09 -0.65328145
vn 0.65328157 0 -0.65328145
vn 0.65328157 3.423082E-09 -0.65328145
vn 0.65328157 0 -0.65328145
vn 8.940697E-08 0 -0.9238795
vn 8.940697E-08 0 -0.9238795
vn 8.940697E-08 0 -0.9238795
vn 8.940697E-08 0 -0.9238795
vn -0.65328145 0 -0.65328157
vn -0.65328145 7.789118E-09 -0.65328157
vn -0.65328145 0 -0.65328157
vn -0.65328145 7.789118E-09 -0.65328157
vn -0.9238795 9.429333E-10 -8.940697E-08
vn -0.9238795 1.2155142E-08 -5.9604645E-08
vn -0 -0.99999994 0
vn -0 -0.99999994 0
vn -0 -0.99999994 0
vn -0 -0.99999994 0
vn -0 -0.99999994 0
vn -0 -0.99999994 0
vn -0 -0.99999994 0
vn -0 -0.99999994 0
vn -0 -0.99999994 0
vn -0 0.99999994 0
vn -0 0.99999994 0
vn -0 0.99999994 0
vn -0 0.99999994 0
vn -0 0.99999994 0
vn -0 0.99999994 0
vn -0 0.99999994 0
vn -0 0.99999994 0
vn -0 0.99999994 0
g pb_Mesh1055684_0
f 3/3/3 2/2/2 1/1/1
f 3/3/3 4/4/4 2/2/2
f 7/7/7 6/6/6 5/5/5
f 7/7/7 8/8/8 6/6/6
f 11/11/11 10/10/10 9/9/9
f 11/11/11 12/12/12 10/10/10
f 15/15/15 14/14/14 13/13/13
f 15/15/15 16/16/16 14/14/14
f 19/19/19 18/18/18 17/17/17
f 19/19/19 20/20/20 18/18/18
f 23/23/23 22/22/22 21/21/21
f 23/23/23 24/24/24 22/22/22
f 27/27/27 26/26/26 25/25/25
f 27/27/27 28/28/28 26/26/26
f 31/31/31 30/30/30 29/29/29
f 31/31/31 32/32/32 30/30/30
f 35/35/35 34/34/34 33/33/33
f 33/33/33 34/34/34 36/36/36
f 36/36/36 34/34/34 37/37/37
f 37/37/37 34/34/34 38/38/38
f 38/38/38 34/34/34 39/39/39
f 39/39/39 34/34/34 40/40/40
f 40/40/40 34/34/34 41/41/41
f 41/41/41 34/34/34 35/35/35
f 44/44/44 43/43/43 42/42/42
f 45/45/45 43/43/43 44/44/44
f 46/46/46 43/43/43 45/45/45
f 47/47/47 43/43/43 46/46/46
f 48/48/48 43/43/43 47/47/47
f 49/49/49 43/43/43 48/48/48
f 50/50/50 43/43/43 49/49/49
f 42/42/42 43/43/43 50/50/50
