g pb_Mesh-4674
v 0.034990452 -0.07773486 0.07171102
v -0.035009556 -0.07773486 0.07171102
v 0.034990452 0.02616686 0.07171102
v -0.035009556 0.02616686 0.07171102
v -0.050009556 -0.09999952 0.039140314
v -0.050009556 -0.09999952 -0.0713135
v -0.050009556 0.048431516 0.039140314
v -0.050009556 0.048431516 -0.0713135
v -0.050009556 -0.09999952 -0.0713135
v 0.049990453 -0.09999952 -0.0713135
v -0.050009556 0.048431516 -0.0713135
v 0.049990453 0.048431516 -0.0713135
v 0.049990453 -0.09999952 -0.0713135
v 0.049990453 -0.09999952 0.039140314
v 0.049990453 0.048431516 -0.0713135
v 0.049990453 0.048431516 0.039140314
v 0.049990453 0.048431516 0.039140314
v -0.050009556 0.048431516 0.039140314
v 0.049990453 0.048431516 -0.0713135
v -0.050009556 0.048431516 -0.0713135
v 0.049990453 -0.09999952 -0.0713135
v -0.050009556 -0.09999952 -0.0713135
v 0.049990453 -0.09999952 0.039140314
v -0.050009556 -0.09999952 0.039140314
v 0.049990453 -0.09999952 0.039140314
v -0.050009556 -0.09999952 0.039140314
v 0.034990452 -0.07773486 0.07171102
v -0.035009556 -0.07773486 0.07171102
v 0.049990453 0.048431516 0.039140314
v 0.049990453 -0.09999952 0.039140314
v 0.034990452 0.02616686 0.07171102
v 0.034990452 -0.07773486 0.07171102
v -0.050009556 -0.09999952 0.039140314
v -0.050009556 0.048431516 0.039140314
v -0.035009556 -0.07773486 0.07171102
v -0.035009556 0.02616686 0.07171102
v -0.050009556 0.048431516 0.039140314
v 0.049990453 0.048431516 0.039140314
v -0.035009556 0.02616686 0.07171102
v 0.034990452 0.02616686 0.07171102
vt 0.034990452 -0.07773486
vt -0.035009556 -0.07773486
vt 0.034990452 0.02616686
vt -0.035009556 0.02616686
vt 0.039140314 -0.09999952
vt -0.0713135 -0.09999952
vt 0.039140314 0.048431516
vt -0.0713135 0.048431516
vt 0.050009556 -0.09999952
vt -0.049990453 -0.09999952
vt 0.050009556 0.048431516
vt -0.049990453 0.048431516
vt 0.0713135 -0.09999952
vt -0.039140314 -0.09999952
vt 0.0713135 0.048431516
vt -0.039140314 0.048431516
vt -0.049990453 0.039140314
vt 0.050009556 0.039140314
vt -0.049990453 -0.0713135
vt 0.050009556 -0.0713135
vt 0.049990453 -0.0713135
vt -0.050009556 -0.0713135
vt 0.049990453 0.039140314
vt -0.050009556 0.039140314
vt 0.049990453 -0.024120329
vt -0.050009556 -0.024120329
vt 0.034990452 0.01533301
vt -0.035009556 0.01533301
vt -0.01463996 0.048431516
vt -0.01463996 -0.09999952
vt -0.050498724 0.02616686
vt -0.050498724 -0.07773486
vt 0.014631968 -0.09999952
vt 0.014631968 0.048431516
vt 0.05049073 -0.07773486
vt 0.05049073 0.02616686
vt 0.050009556 0.004980988
vt -0.049990453 0.004980988
vt 0.035009556 0.044434324
vt -0.034990452 0.044434324
vn -0 0 1
vn -0 0 1
vn -0 0 1
vn -0 0 1
vn -1 0 0
vn -1 0 0
vn -1 0 0
vn -1 0 0
vn -0 0 -1
vn -0 0 -1
vn -0 0 -1
vn -0 0 -1
vn 1 0 0
vn 1 0 0
vn 1 0 0
vn 1 0 0
vn -0 1 0
vn -0 1 0
vn -0 1 0
vn -0 1 0
vn -0 -1 0
vn -0 -1 0
vn -0 -1 0
vn -0 -1 0
vn -0 -0.8255501 0.5643289
vn -0 -0.8255501 0.5643289
vn -0 -0.8255501 0.5643289
vn -0 -0.8255501 0.5643289
vn 0.90830535 0 0.4183078
vn 0.90830535 0 0.4183078
vn 0.90830535 0 0.4183078
vn 0.90830535 0 0.4183078
vn -0.90830535 0 0.4183078
vn -0.90830535 0 0.41830784
vn -0.90830535 0 0.41830784
vn -0.90830535 0 0.41830784
vn -0 0.8255501 0.56432885
vn -0 0.8255501 0.56432885
vn -0 0.8255501 0.56432885
vn -0 0.82555014 0.56432885
g pb_Mesh-4674_0
f 3/3/3 2/2/2 1/1/1
f 3/3/3 4/4/4 2/2/2
f 7/7/7 6/6/6 5/5/5
f 7/7/7 8/8/8 6/6/6
f 11/11/11 10/10/10 9/9/9
f 11/11/11 12/12/12 10/10/10
f 15/15/15 14/14/14 13/13/13
f 15/15/15 16/16/16 14/14/14
f 19/19/19 18/18/18 17/17/17
f 19/19/19 20/20/20 18/18/18
f 23/23/23 22/22/22 21/21/21
f 23/23/23 24/24/24 22/22/22
f 27/27/27 26/26/26 25/25/25
f 27/27/27 28/28/28 26/26/26
f 31/31/31 30/30/30 29/29/29
f 31/31/31 32/32/32 30/30/30
f 35/35/35 34/34/34 33/33/33
f 35/35/35 36/36/36 34/34/34
f 39/39/39 38/38/38 37/37/37
f 39/39/39 40/40/40 38/38/38
