g pb_Mesh204024
v 6 0 0.22746891
v -1 0 0.22746891
v 6 0.119048595 0.22746891
v -1 0.119048595 0.22746891
v -1 0 0.22746891
v -1 0 -0.7961411
v -1 0.119048595 0.22746891
v -1 0.119048595 -0.7961411
v -1 0 -0.7961411
v 6 0 -0.7961411
v -1 0.119048595 -0.7961411
v 6 0.119048595 -0.7961411
v 6 0 -0.7961411
v 6 0 0.22746891
v 6 0.119048595 -0.7961411
v 6 0.119048595 0.22746891
v 6 0.119048595 0.22746891
v -1 0.119048595 0.22746891
v 6 0.119048595 -0.7961411
v -1 0.119048595 -0.7961411
v 6 0 -0.7961411
v -1 0 -0.7961411
v 6 0 0.22746891
v -1 0 0.22746891
vt 6 0
vt -1 0
vt 6 0.119048595
vt -1 0.119048595
vt 0.22746891 0
vt -0.7961411 0
vt 0.22746891 0.119048595
vt -0.7961411 0.119048595
vt 1 0
vt -6 0
vt 1 0.119048595
vt -6 0.119048595
vt 0.7961411 0
vt -0.22746891 0
vt 0.7961411 0.119048595
vt -0.22746891 0.119048595
vt -6 0.22746891
vt 1 0.22746891
vt -6 -0.7961411
vt 1 -0.7961411
vt 6 -0.7961411
vt -1 -0.7961411
vt 6 0.22746891
vt -1 0.22746891
vn -0 0 1
vn -0 0 1
vn -0 0 1
vn -0 0 1
vn -1 0 0
vn -1 0 0
vn -1 0 0
vn -1 0 0
vn -0 0 -1
vn -0 0 -1
vn -0 0 -1
vn -0 0 -1
vn 1 0 0
vn 1 0 0
vn 1 0 0
vn 1 0 0
vn -0 1 0
vn -0 1 0
vn -0 1 0
vn -0 1 0
vn -0 -1 0
vn -0 -1 0
vn -0 -1 0
vn -0 -1 0
g pb_Mesh204024_0
f 3/3/3 2/2/2 1/1/1
f 3/3/3 4/4/4 2/2/2
f 7/7/7 6/6/6 5/5/5
f 7/7/7 8/8/8 6/6/6
f 11/11/11 10/10/10 9/9/9
f 11/11/11 12/12/12 10/10/10
f 15/15/15 14/14/14 13/13/13
f 15/15/15 16/16/16 14/14/14
f 19/19/19 18/18/18 17/17/17
f 19/19/19 20/20/20 18/18/18
f 23/23/23 22/22/22 21/21/21
f 23/23/23 24/24/24 22/22/22
