g pb_Mesh623600
v -7.25 0 -0.024134722
v -7.25 -2 -1.6250267
v -7.25 1 -0.024134722
v -7.2499995 1 -1.6249707
v 1.8587639 -2 -1.6250267
v 1.8587651 0 -0.6487301
v 1.8587654 1 -2.5023801
v 1.8587651 1 -0.6487301
v -7.2499995 1 -1.6249707
v -7.250004 1 -3.7528632
v -7.2500057 -3.3971262 -3.8116217
v 1.8587658 -3.3971262 -3.8116202
v 1.8587656 1 -3.7528617
v 1.8587651 0 -0.6487301
v 0.86240554 0 -0.25698867
v 0.86240554 1 -0.25698867
v 1.8587651 1 -0.6487301
v 0.86240554 0 -0.25698867
v -7.25 0 -0.024134722
v -7.25 1 -0.024134722
v 0.86240554 1 -0.25698867
v -7.250004 1 -3.7528632
v -7.2500057 -3.3971262 -3.8116217
v 0.8624034 -3.3971262 -3.8116202
v 0.86240435 1 -3.7528617
v 1.8587658 -3.3971262 -3.8116202
v 1.8587656 1 -3.7528617
v 0.86240554 1 -0.25698867
v 0.86240625 1 -2.0636747
v 1.8587651 1 -0.6487301
v 1.8587654 1 -2.5023801
v -7.25 1 -0.024134722
v -7.2499995 1 -1.6249707
v 0.86240625 1 -2.0636747
v 1.8587651 0 -0.6487301
v 1.8587639 -2 -1.6250267
v 0.86240554 0 -0.25698867
v 0.8624053 -2 -1.6250256
v 0.8624053 -2 -1.6250256
v -7.25 -2 -1.6250267
v -7.25 0 -0.024134722
v 0.86240554 0 -0.25698867
v 0.8624053 -2 -1.6250256
v 0.8624034 -3.3971262 -3.8116202
v -7.25 -2 -1.6250267
v -7.2500057 -3.3971262 -3.8116217
v 1.8587639 -2 -1.6250267
v 1.8587658 -3.3971262 -3.8116202
v 0.86240435 1 -3.7528617
v 1.8587656 1 -3.7528617
v 0.86240435 1 -3.7528617
v -7.250004 1 -3.7528632
vt -0.024134722 0
vt -1.6250267 -2
vt -0.024134722 1
vt -1.6249707 1
vt 1.6250265 -1.999999
vt 0.6487298 9.69344E-07
vt 2.50238 1.000001
vt 0.6487298 1.000001
vt -1.6249853 0.99999887
vt -3.7528777 0.99999887
vt -3.8116362 -3.3971274
vt 3.8116221 -3.397126
vt 3.7528636 1.0000004
vt 1.8873498 -1.578058E-09
vt 0.87358826 -6.083466E-10
vt 0.87358826 1
vt 1.8873498 1
vt 0.87358826 -6.083466E-10
vt -7.240757 -1.0332861E-09
vt -7.240757 1
vt 0.87358826 1
vt -7.2500043 0.949766
vt -7.250006 -3.447753
vt 0.86240274 -3.447753
vt 0.8624037 0.94976604
vt 1.8587652 -3.447753
vt 1.858765 0.949766
vt -0.86240554 -0.25698867
vt -0.86240625 -2.0636747
vt -1.8587651 -0.6487301
vt -1.8587654 -2.5023801
vt 7.25 -0.024134722
vt 7.2499995 -1.6249707
vt -0.86240625 -2.0636747
vt 1.873589 -0.33442312
vt 1.8966794 -2.5404756
vt 0.8682426 -0.13082933
vt 0.9005995 -2.5535104
vt 0.9005995 -2.5535104
vt -7.2095366 -2.6596465
vt -7.247401 -0.10819867
vt 0.8682426 -0.13082933
vt -0.8624055 -2.4462173
vt -0.86240363 -5.0410504
vt 7.25 -2.4462185
vt 7.2500052 -5.041052
vt -1.858764 -2.4462183
vt -1.8587661 -5.0410504
vt -0.86240435 -3.7528617
vt -1.8587656 -3.7528617
vt -0.86240435 -3.7528617
vt 7.250004 -3.7528632
vn -1 0 0
vn -1 1.1921242E-07 -2.2339876E-07
vn -1 1.1921242E-07 -2.2339876E-07
vn -1 1.589513E-07 -2.9786764E-07
vn 1 -5.2149886E-07 -1.5271506E-07
vn 1 -3.7362676E-07 -7.294159E-08
vn 1 -3.7362676E-07 -7.294159E-08
vn 1 0 1.2862114E-07
vn -1 1.5890805E-07 2.0168004E-06
vn -1 3.046432E-07 2.2222698E-06
vn -1 4.02237E-07 2.3598657E-06
vn 1 -8.810542E-08 6.601141E-07
vn 0.99999994 5.1673656E-08 1.906614E-07
vn 0.3659068 0 0.93065155
vn 0.3659068 0 0.93065155
vn 0.3659068 0 0.93065155
vn 0.3659068 0 0.93065155
vn 0.028691625 0 0.9995884
vn 0.028691625 0 0.9995884
vn 0.028691625 0 0.9995884
vn 0.028691625 0 0.9995884
vn 1.7629456E-07 0.013361739 -0.9999107
vn 1.7626861E-07 0.01336174 -0.9999107
vn 1.7629456E-07 0.013361739 -0.9999107
vn 1.763205E-07 0.013361738 -0.9999107
vn -0 0.013361738 -0.9999108
vn -0 0.013361739 -0.9999108
vn -0 1 0
vn -0 0.99999994 0
vn -0 0.99999994 0
vn -0 1 0
vn -0 0.99999994 0
vn -0 1 0
vn -0 1 0
vn 0.33314058 -0.41361487 0.8473135
vn 0.16721636 -0.498521 0.8505972
vn 0.16721636 -0.498521 0.8505972
vn 8.8877425E-07 -0.56457597 0.82538116
vn 0.011523384 -0.59596103 0.8029307
vn -1.03249164E-07 -0.6249073 0.78069896
vn 0.011523384 -0.59596103 0.8029307
vn 0.023684632 -0.5644176 0.8251496
vn -7.120806E-08 -0.8426726 0.5384263
vn -8.090848E-08 -0.8426727 0.5384263
vn -8.090848E-08 -0.8426727 0.5384263
vn -9.060888E-08 -0.84267265 0.53842616
vn 5.7978014E-07 -0.84267247 0.53842646
vn 2.8988947E-07 -0.8426726 0.5384264
vn -0 1 0
vn -0 1 0
vn -0 0.99999994 0
vn -0 0.99999994 0
g pb_Mesh623600_0
f 3/3/3 2/2/2 1/1/1
f 3/3/3 4/4/4 2/2/2
f 7/7/7 6/6/6 5/5/5
f 7/7/7 8/8/8 6/6/6
f 10/10/10 2/2/2 9/9/9
f 10/10/10 11/11/11 2/2/2
f 12/12/12 7/7/7 5/5/5
f 12/12/12 13/13/13 7/7/7
f 16/16/16 15/15/15 14/14/14
f 16/16/16 14/14/14 17/17/17
f 20/20/20 19/19/19 18/18/18
f 20/20/20 18/18/18 21/21/21
f 24/24/24 23/23/23 22/22/22
f 25/25/25 24/24/24 22/22/22
f 26/26/26 24/24/24 25/25/25
f 26/26/26 25/25/25 27/27/27
f 30/30/30 29/29/29 28/28/28
f 30/30/30 31/31/31 29/29/29
f 28/28/28 33/33/33 32/32/32
f 28/28/28 34/34/34 33/33/33
f 37/37/37 36/36/36 35/35/35
f 37/37/37 38/38/38 36/36/36
f 41/41/41 40/40/40 39/39/39
f 41/41/41 39/39/39 42/42/42
f 45/45/45 44/44/44 43/43/43
f 46/46/46 44/44/44 45/45/45
f 48/48/48 47/47/47 43/43/43
f 48/48/48 43/43/43 44/44/44
f 29/29/29 31/31/31 49/49/49
f 31/31/31 50/50/50 49/49/49
f 52/52/52 29/29/29 51/51/51
f 33/33/33 29/29/29 52/52/52
