g pb_Mesh152766
v 3 -0.4999991 6.225889
v -3 -0.4999991 6.225889
v 3 0.5000009 6.225889
v -3 0.5000009 6.225889
v -3 -0.4999991 6.225889
v -3 -0.5000006 -6.8681335
v -3 0.5000009 6.225889
v -3 0.49999928 -6.8681335
v -3 -0.5000006 -6.8681335
v 3 -0.5000006 -6.8681335
v -3 0.49999928 -6.8681335
v 3 0.49999928 -6.8681335
v 3 -0.5000006 -6.8681335
v 3 -0.4999991 6.225889
v 3 0.49999928 -6.8681335
v 3 0.5000009 6.225889
v 3 0.5000009 6.225889
v -3 0.5000009 6.225889
v 3 0.49999928 -6.8681335
v -3 0.49999928 -6.8681335
v 3 -0.5000006 -6.8681335
v -3 -0.5000006 -6.8681335
v 3 -0.4999991 6.225889
v -3 -0.4999991 6.225889
vt 0.2351711 0.41893214
vt 0.22855945 0.41893214
vt 0.2351711 0.4200341
vt 0.22855945 0.4200341
vt 0.24138528 0.41892663
vt 0.22695643 0.4189266
vt 0.24138528 0.42002857
vt 0.22695643 0.42002854
vt 0.2351711 0.41893062
vt 0.22855945 0.41893062
vt 0.2351711 0.42003253
vt 0.22855945 0.42003253
vt 0.23125976 0.4169941
vt 0.22551078 0.41699412
vt 0.23125976 0.41809604
vt 0.22551078 0.41809607
vt 0.23036645 0.42621
vt 0.2369781 0.42621
vt 0.23036645 0.41178113
vt 0.2369781 0.41178113
vt 0.2369781 0.41178113
vt 0.23036645 0.41178113
vt 0.2369781 0.42621
vt 0.23036645 0.42621
vn -0 0 1
vn -0 0 1
vn -0 0 1
vn -0 0 1
vn -1 0 0
vn -1 0 0
vn -1 0 0
vn -1 0 0
vn -0 0 -0.99999994
vn -0 0 -0.99999994
vn -0 0 -0.99999994
vn -0 0 -0.99999994
vn 1 0 0
vn 1 0 0
vn 1 0 0
vn 1 0 0
vn -0 1 -1.2290535E-07
vn -0 1 -1.2290535E-07
vn -0 1 -1.2290535E-07
vn -0 1 -1.2290535E-07
vn -0 -1 1.1380125E-07
vn -0 -1 1.1380125E-07
vn -0 -1 1.1380125E-07
vn -0 -1 1.1380125E-07
g pb_Mesh152766_0
f 3/3/3 2/2/2 1/1/1
f 3/3/3 4/4/4 2/2/2
f 7/7/7 6/6/6 5/5/5
f 7/7/7 8/8/8 6/6/6
f 11/11/11 10/10/10 9/9/9
f 11/11/11 12/12/12 10/10/10
f 15/15/15 14/14/14 13/13/13
f 15/15/15 16/16/16 14/14/14
f 19/19/19 18/18/18 17/17/17
f 19/19/19 20/20/20 18/18/18
f 23/23/23 22/22/22 21/21/21
f 23/23/23 24/24/24 22/22/22
