g pb_Mesh-598374
v -2.143814E-06 0.22211659 2.4967866
v -0.9999967 0.07241682 3.080359
v 0.00971999 1.9370556 2.4966998
v -1 2.0326943 3.0803583
v -1.9423975 0.76089394 0.670302
v -1.9424063 0.760892 -0.7226866
v -1.9424006 1.8789195 0.67030185
v -1.9424134 1.849989 -0.72268754
v -1.0000055 0.07241326 -3.1315598
v 0.000114634044 0.22217554 -2.5739064
v -1.000013 1.9819685 -3.1315637
v 0.009836768 1.937115 -2.5739932
v 1.9129258 1.5223206 -0.26933023
v 1.9129257 1.522321 0.21817338
v 1.9129274 1.7281522 -0.2693301
v 1.9129273 1.7281523 0.2181735
v 0.01890807 2.3749504 0.9323846
v -0.9612964 2.6372883 1.2130401
v 0.01890807 2.3749495 -0.98280793
v -0.965324 2.5869033 -1.2700024
v 0.000114634044 0.22217554 -2.5739064
v -1.0000055 0.07241326 -3.1315598
v -2.143814E-06 0.22211659 2.4967866
v -0.9999967 0.07241682 3.080359
v 0.000114634044 0.22217554 -2.5739064
v -2.143814E-06 0.22211659 2.4967866
v 0.89920837 0.28881112 -1.5042591
v 0.89913124 0.2887531 1.4222515
v 0.009836768 1.937115 -2.5739932
v 0.000114634044 0.22217554 -2.5739064
v 0.9203573 1.8645983 -1.9550331
v 0.89920837 0.28881112 -1.5042591
v -2.143814E-06 0.22211659 2.4967866
v 0.00971999 1.9370556 2.4966998
v 0.89913124 0.2887531 1.4222515
v 0.9202402 1.8645397 1.8698341
v 0.01890807 2.3749504 0.9323846
v 0.01890807 2.3749495 -0.98280793
v 0.90658575 2.1522417 0.64500564
v 0.9065872 2.1522408 -0.69563025
v 0.89920837 0.28881112 -1.5042591
v 0.89913124 0.2887531 1.4222515
v 1.6106606 1.0344678 -0.53741735
v 1.6106603 1.0344687 0.4846483
v 0.9203573 1.8645983 -1.9550331
v 0.89920837 0.28881112 -1.5042591
v 1.8104677 1.7817564 -0.6349563
v 1.6106606 1.0344678 -0.53741735
v 0.89913124 0.2887531 1.4222515
v 0.9202402 1.8645397 1.8698341
v 1.6106603 1.0344687 0.4846483
v 1.8104675 1.7817569 0.58380264
v 0.90658575 2.1522417 0.64500564
v 0.9065872 2.1522408 -0.69563025
v 1.7718147 1.9389535 0.21816541
v 1.7718147 1.9389535 -0.2693374
v 0.00971999 1.9370556 2.4966998
v -1 2.0326943 3.0803583
v 0.01890807 2.3749504 0.9323846
v -0.9612964 2.6372883 1.2130401
v 0.9202402 1.8645397 1.8698341
v 0.00971999 1.9370556 2.4966998
v 0.90658575 2.1522417 0.64500564
v 0.01890807 2.3749504 0.9323846
v -1.9424006 1.8789195 0.67030185
v -1.9424134 1.849989 -0.72268754
v -1.9036967 2.2237465 0.2515659
v -1.9077243 2.19501 -0.30524275
v -1.000013 1.9819685 -3.1315637
v 0.009836768 1.937115 -2.5739932
v -0.965324 2.5869033 -1.2700024
v 0.01890807 2.3749495 -0.98280793
v 0.009836768 1.937115 -2.5739932
v 0.9203573 1.8645983 -1.9550331
v 0.01890807 2.3749495 -0.98280793
v 0.9065872 2.1522408 -0.69563025
v 1.8104675 1.7817569 0.58380264
v 0.9202402 1.8645397 1.8698341
v 1.7718147 1.9389535 0.21816541
v 0.90658575 2.1522417 0.64500564
v 0.9203573 1.8645983 -1.9550331
v 1.8104677 1.7817564 -0.6349563
v 0.9065872 2.1522408 -0.69563025
v 1.7718147 1.9389535 -0.2693374
v 1.9129274 1.7281522 -0.2693301
v 1.9129273 1.7281523 0.2181735
v 1.8974652 1.7910357 -0.12308245
v 1.8974652 1.7910357 0.07191862
v 1.7718147 1.9389535 -0.2693374
v 1.8104677 1.7817564 -0.6349563
v 1.8974652 1.7910357 -0.12308245
v 1.9129274 1.7281522 -0.2693301
v 1.8104675 1.7817569 0.58380264
v 1.7718147 1.9389535 0.21816541
v 1.9129273 1.7281523 0.2181735
v 1.8974652 1.7910357 0.07191862
v 1.7718147 1.9389535 0.21816541
v 1.7718147 1.9389535 -0.2693374
v 1.8974652 1.7910357 0.07191862
v 1.8974652 1.7910357 -0.12308245
v 1.6106606 1.0344678 -0.53741735
v 1.6106603 1.0344687 0.4846483
v 1.9129258 1.5223206 -0.26933023
v 1.9129257 1.522321 0.21817338
v 1.8104677 1.7817564 -0.6349563
v 1.6106606 1.0344678 -0.53741735
v 1.9129274 1.7281522 -0.2693301
v 1.9129258 1.5223206 -0.26933023
v 1.6106603 1.0344687 0.4846483
v 1.8104675 1.7817569 0.58380264
v 1.9129257 1.522321 0.21817338
v 1.9129273 1.7281523 0.2181735
v -0.9999967 0.07241682 3.080359
v -1.0000055 0.07241326 -3.1315598
v -1.2892766 0.15162858 2.656688
v -1.2892854 0.15162507 -2.7082531
v -1 2.0326943 3.0803583
v -0.9999967 0.07241682 3.080359
v -1.2892798 2.0150018 2.6566875
v -1.2892766 0.15162858 2.656688
v -1.0000055 0.07241326 -3.1315598
v -1.000013 1.9819685 -3.1315637
v -1.2892854 0.15162507 -2.7082531
v -1.2892928 1.9667834 -2.708256
v -0.9612964 2.6372883 1.2130401
v -1 2.0326943 3.0803583
v -1.250576 2.5897105 0.90007854
v -1.2892798 2.0150018 2.6566875
v -1.000013 1.9819685 -3.1315637
v -0.965324 2.5869033 -1.2700024
v -1.2892928 1.9667834 -2.708256
v -1.2546036 2.5418162 -0.95595014
v -0.965324 2.5869033 -1.2700024
v -0.9612964 2.6372883 1.2130401
v -1.2546036 2.5418162 -0.95595014
v -1.250576 2.5897105 0.90007854
v -1.2892766 0.15162858 2.656688
v -1.2892854 0.15162507 -2.7082531
v -1.9423975 0.76089394 0.670302
v -1.9424063 0.760892 -0.7226866
v -1.2892798 2.0150018 2.6566875
v -1.2892766 0.15162858 2.656688
v -1.9424006 1.8789195 0.67030185
v -1.9423975 0.76089394 0.670302
v -1.2892854 0.15162507 -2.7082531
v -1.2892928 1.9667834 -2.708256
v -1.9424063 0.760892 -0.7226866
v -1.9424134 1.849989 -0.72268754
v -1.250576 2.5897105 0.90007854
v -1.2892798 2.0150018 2.6566875
v -1.9036967 2.2237465 0.2515659
v -1.9424006 1.8789195 0.67030185
v -1.2892928 1.9667834 -2.708256
v -1.2546036 2.5418162 -0.95595014
v -1.9424134 1.849989 -0.72268754
v -1.9077243 2.19501 -0.30524275
v -1.2546036 2.5418162 -0.95595014
v -1.250576 2.5897105 0.90007854
v -1.9077243 2.19501 -0.30524275
v -1.9036967 2.2237465 0.2515659
vt -1.2592349 0.22818577
vt -2.4170542 0.07848541
vt -1.2507961 1.9431316
vt -2.4170568 2.0387552
vt 0.6702897 0.7608993
vt -0.72269887 0.76089734
vt 0.6702896 1.8789248
vt -0.7226998 1.8499944
vt 2.3984706 0.07241288
vt 1.2533866 0.22217515
vt 2.3984792 1.9819682
vt 1.2449375 1.9371146
vt 0.2693307 1.522335
vt -0.21817292 1.5223354
vt 0.2693306 1.7281666
vt -0.21817304 1.7281667
vt 0.59574634 0.93238574
vt 1.6104492 1.2130412
vt 0.5957461 -0.9828068
vt 1.6013136 -1.2700013
vt 0.033017017 -2.573908
vt -0.97825396 -3.1315615
vt 0.032892797 2.496785
vt -0.9782448 3.0803573
vt 0.016538238 -2.5739086
vt 0.016417423 2.4967844
vt 0.9180979 -1.5042613
vt 0.91801673 1.4222493
vt 1.4384832 1.9439951
vt 1.446476 0.22904672
vt 0.3375023 1.8714781
vt 0.10165399 0.29445717
vt -1.9151791 0.22902825
vt -1.9088751 1.9439833
vt -0.5140844 0.29566538
vt -0.8438627 1.8727467
vt 0.5595976 0.93238574
vt 0.5595974 -0.9828068
vt -0.3555914 0.6450068
vt -0.355593 -0.6956291
vt 1.5042658 0.8296908
vt -1.4222448 0.8296106
vt 0.53742933 1.8603113
vt -0.4846363 1.8603169
vt 1.0896575 2.155569
vt 0.7301769 0.55634326
vt -0.5024145 2.071495
vt -0.4695986 1.2976468
vt -0.7455709 0.52261406
vt -1.1166179 2.1182969
vt 0.4254296 1.2777451
vt 0.4448885 2.0506961
vt -0.365106 0.64500666
vt -0.3651076 -0.69562924
vt -1.2562362 0.21816641
vt -1.2562362 -0.26933637
vt 0.47344786 1.9149001
vt 1.475134 2.519849
vt 0.5737064 0.293522
vt 1.5883627 0.56174535
vt -0.46061775 1.3772486
vt 0.44174823 2.019901
vt -0.38032407 0.121574916
vt 0.5348123 0.39973244
vt 0.6746991 1.6565108
vt -0.71828663 1.6274076
vt 0.25587663 2.0033987
vt -0.30092147 1.9742572
vt 1.412587 -2.4581318
vt 0.41771966 -1.872528
vt 1.512197 -0.5029751
vt 0.5054551 -0.22635521
vt 0.491482 -2.0028799
vt -0.4068154 -1.3621929
vt 0.59595376 -0.3558407
vt -0.31912258 -0.07467227
vt -0.6007992 -0.17274348
vt 0.19958335 1.1735932
vt -0.48515886 -0.5555264
vt 0.36269793 -0.066623926
vt -0.117886335 -1.4961196
vt -0.969508 -0.14834276
vt 0.0072737373 -0.21028988
vt -0.87245905 0.23589447
vt 0.26933047 1.2214102
vt -0.21817315 1.2214103
vt 0.1230828 1.2861667
vt -0.07191827 1.2861667
vt -0.052437283 0.634017
vt 0.30034208 0.44579133
vt -0.21883619 0.45690218
vt -0.07772452 0.3816075
vt -0.25003085 0.4508266
vt 0.102767386 0.63905203
vt 0.12803839 0.38664106
vt 0.2691575 0.46193567
vt -0.21816541 0.33066684
vt 0.2693374 0.33066684
vt -0.07191862 0.13658504
vt 0.12308245 0.13658504
vt 0.53741854 1.7276697
vt -0.4846471 1.7276707
vt 0.26933163 2.3015728
vt -0.21817197 2.3015733
vt 0.043125674 2.2512357
vt 0.012252327 1.4721824
vt -0.33625674 2.1953528
vt -0.33625615 1.9979134
vt 0.31151548 1.463956
vt 0.3155126 2.2438138
vt 0.6872485 1.9730707
vt 0.6872491 2.1703062
vt -0.9836168 3.0803587
vt -0.98362434 -3.13156
vt -1.2835457 2.6566877
vt -1.2835532 -2.7082534
vt 1.9800334 2.0326974
vt 1.9800359 0.07241983
vt 1.467023 2.0150049
vt 1.4670252 0.1516316
vt -2.0212789 0.0724246
vt -2.0212777 1.9819798
vt -1.5085689 0.1516364
vt -1.508567 1.9667947
vt -0.32733643 0.41677684
vt -0.02088905 2.3558486
vt -0.047560662 0.09178941
vt 0.24544786 1.9170543
vt -0.016644264 -2.415652
vt -0.32403958 -0.48224354
vt 0.2475807 -1.9760067
vt -0.04614521 -0.15497623
vt 0.49815738 -1.2162769
vt 0.48538244 1.2672473
vt 0.7908642 -0.90216374
vt 0.7785248 0.9544199
vt -1.0461863 2.6566868
vt -1.0461904 -2.7082543
vt -1.9393668 0.6703007
vt -1.939372 -0.72268784
vt 2.1210632 2.0150049
vt 2.1210647 0.15163179
vt 0.030059958 1.8789227
vt 0.030061038 0.76089716
vt -2.1697965 0.1516341
vt -2.169797 1.9667925
vt -0.07957117 0.76090103
vt -0.07956985 1.8499981
vt -0.7503586 0.24698363
vt -0.34481576 2.0505908
vt -0.017084759 -0.41887993
vt 0.23794392 0.042308893
vt -2.2677615 0.19730175
vt -0.58780617 0.9590052
vt -0.17999834 0.042592946
vt 0.21318188 0.39780656
vt -0.13758941 -0.89486015
vt -0.16436818 0.9615977
vt 0.6017653 -0.24400233
vt 0.58428967 0.31317568
vn 0.5043395 -0.002815446 0.8635009
vn 0.5022579 -0.001307599 0.8647169
vn 0.5022579 -0.001307599 0.8647169
vn 0.5004478 1.1528165E-06 0.8657667
vn -1 -2.772245E-06 6.332782E-06
vn -1 -4.6449572E-06 7.835842E-06
vn -1 -4.6449572E-06 7.835842E-06
vn -1 -6.567411E-06 9.378823E-06
vn 0.48699778 1.705498E-07 -0.8734032
vn 0.48522115 -0.00132238 -0.8743905
vn 0.48522115 -0.00132238 -0.8743905
vn 0.48325443 -0.0027839132 -0.87547547
vn 1 -7.5290736E-06 2.4453558E-07
vn 1 -7.5290786E-06 2.4453382E-07
vn 1 -7.5290786E-06 2.4453382E-07
vn 1 -7.5290827E-06 2.4453206E-07
vn 0.25853655 0.96600145 -4.810225E-07
vn 0.23471606 0.9719977 -0.011350092
vn 0.23471606 0.9719977 -0.011350092
vn 0.21609849 0.97616345 -0.020158477
vn 0.14809752 -0.9889727 -8.086554E-06
vn 0.14807191 -0.98897654 -3.437406E-06
vn 0.14807191 -0.98897654 -3.437406E-06
vn 0.14805104 -0.98897976 3.5817024E-07
vn 0.073923156 -0.9972639 -9.891177E-06
vn 0.0739103 -0.99726486 -1.2794653E-05
vn 0.0739103 -0.99726486 -1.2794653E-05
vn 0.073888026 -0.9972665 -1.7825518E-05
vn 0.5620109 -0.0032279433 -0.8271235
vn 0.67821187 -0.10599333 -0.7271822
vn 0.67821187 -0.10599333 -0.7271822
vn 0.7574757 -0.18893467 -0.6249274
vn 0.7670499 -0.004316004 0.64157283
vn 0.68101734 -0.10493167 0.72471017
vn 0.68101734 -0.10493167 0.72471017
vn 0.5380446 -0.23697144 0.8089207
vn 0.24334711 0.9699393 -4.8298335E-07
vn 0.24334705 0.9699393 -4.5913876E-07
vn 0.24334705 0.9699393 -4.5913876E-07
vn 0.24334697 0.9699393 -4.2507514E-07
vn 0.72350276 -0.69032145 5.380686E-06
vn 0.72350115 -0.6903231 4.178262E-06
vn 0.72350115 -0.6903231 4.178262E-06
vn 0.7234967 -0.6903278 7.355421E-07
vn 0.81197566 -0.17058057 -0.5582094
vn 0.82877177 -0.20200042 -0.5218555
vn 0.82877177 -0.20200042 -0.5218555
vn 0.863682 -0.28517458 -0.4156068
vn 0.8429296 -0.15742284 0.514478
vn 0.82220256 -0.20331167 0.53164583
vn 0.82220256 -0.20331167 0.53164583
vn 0.7800871 -0.28264076 0.5581921
vn 0.23934552 0.9709345 -4.3529255E-07
vn 0.23934543 0.97093457 -3.1921485E-07
vn 0.23934543 0.97093457 -3.1921485E-07
vn 0.23934507 0.9709345 0
vn 0.24050276 0.93434954 0.26296273
vn 0.28719947 0.9153907 0.2820928
vn 0.28719947 0.9153907 0.2820928
vn 0.32537612 0.8976091 0.29736888
vn 0.22720937 0.9486041 0.22028627
vn 0.27559233 0.9304165 0.2416069
vn 0.27559233 0.9304165 0.2416069
vn 0.31279975 0.91418034 0.25774145
vn -0.9940567 0.108840644 -0.0022512793
vn -0.99438775 0.10579118 -0.001068244
vn -0.99438775 0.10579118 -0.001068244
vn -0.9952392 0.09743786 0.00217022
vn 0.21003303 0.92867416 -0.30569673
vn 0.23967108 0.92854863 -0.28347
vn 0.23967108 0.92854863 -0.28347
vn 0.2744398 0.9267441 -0.2565698
vn 0.24985349 0.93322027 -0.2582116
vn 0.27247354 0.9325469 -0.2368848
vn 0.27247354 0.9325469 -0.2368848
vn 0.30109683 0.93036354 -0.2091991
vn 0.50302243 0.8120288 0.29593536
vn 0.3821416 0.8931256 0.23726481
vn 0.3821416 0.8931256 0.23726481
vn 0.331333 0.91933054 0.21224935
vn 0.38302648 0.90144783 -0.20169906
vn 0.38218814 0.89435893 -0.23249583
vn 0.38218814 0.89435893 -0.23249583
vn 0.37674406 0.8647839 -0.33198294
vn 0.97107536 0.23877326 1.7906989E-07
vn 0.9710754 0.23877299 1.2790717E-07
vn 0.9710754 0.23877299 1.2790717E-07
vn 0.9710756 0.23877232 0
vn 0.8216414 0.55001867 -0.149616
vn 0.82164514 0.5500129 -0.14961654
vn 0.82164514 0.5500129 -0.14961654
vn 0.8216546 0.5499984 -0.14961787
vn 0.8216411 0.55002093 0.14960931
vn 0.8216406 0.55002064 0.1496128
vn 0.8216406 0.55002064 0.1496128
vn 0.8216395 0.55001986 0.14962155
vn 0.7621418 0.6474101 0
vn 0.7621418 0.6474101 0
vn 0.7621418 0.6474101 0
vn 0.7621418 0.6474101 0
vn 0.85006136 -0.52668387 6.2830577E-07
vn 0.85006124 -0.5266838 6.145994E-07
vn 0.85006124 -0.5266838 6.145994E-07
vn 0.85006124 -0.52668387 5.858638E-07
vn 0.91207945 -0.28263777 -0.29702997
vn 0.88388234 -0.2271346 -0.40885425
vn 0.88388234 -0.2271346 -0.40885425
vn 0.6635474 -4.56925E-06 -0.74813426
vn 0.8505855 -0.28597692 0.4412726
vn 0.88354135 -0.22779477 0.40922388
vn 0.88354135 -0.22779477 0.40922388
vn 0.9629065 -7.435611E-06 0.26983514
vn -0.26410306 -0.96449447 9.25474E-07
vn -0.26410183 -0.9644948 9.906514E-07
vn -0.26410183 -0.9644948 9.906514E-07
vn -0.2641004 -0.9644952 1.0661184E-06
vn -0.8258521 -1.1753594E-06 0.5638869
vn -0.82585216 -1.2254894E-06 0.5638866
vn -0.82585216 -1.2254894E-06 0.5638866
vn -0.82585233 -1.2782264E-06 0.56388646
vn -0.82562655 -4.3742775E-06 -0.56421703
vn -0.8256266 -4.3142322E-06 -0.5642168
vn -0.8256266 -4.3142322E-06 -0.5642168
vn -0.8256268 -4.2510655E-06 -0.5642167
vn -0.43304643 0.86013496 0.2695159
vn -0.43969402 0.8567847 0.26942402
vn -0.43969402 0.8567847 0.26942402
vn -0.44661102 0.8532348 0.26931205
vn -0.44015747 0.85634136 -0.2700755
vn -0.4357795 0.85803574 -0.27179217
vn -0.4357795 0.85803574 -0.27179217
vn -0.4310711 0.8598293 -0.2736261
vn -0.17480738 0.98440576 -0.019691661
vn -0.15815145 0.9871683 -0.0220656
vn -0.15815145 0.9871683 -0.0220656
vn -0.13556658 0.9904461 -0.025263973
vn -0.68213284 -0.73122823 1.6009341E-06
vn -0.6821307 -0.73123026 2.3818482E-06
vn -0.6821307 -0.73123026 2.3818482E-06
vn -0.68212247 -0.73123795 5.389419E-06
vn -0.94996774 -1.560973E-06 0.31234816
vn -0.9499678 -1.9699562E-06 0.3123478
vn -0.9499678 -1.9699562E-06 0.3123478
vn -0.94996804 -2.651594E-06 0.3123473
vn -0.9499299 -4.3604314E-06 -0.31246313
vn -0.9499297 -5.1602933E-06 -0.31246358
vn -0.9499297 -5.1602933E-06 -0.31246358
vn -0.9499294 -6.4933934E-06 -0.31246433
vn -0.6376855 0.7361526 0.22679631
vn -0.7332302 0.6352884 0.24245016
vn -0.7332302 0.6352884 0.24245016
vn -0.8734106 0.41244915 0.2589203
vn -0.72773504 0.6558052 -0.20080112
vn -0.72752887 0.6396899 -0.24798901
vn -0.72752887 0.6396899 -0.24798901
vn -0.7119727 0.5691737 -0.41126174
vn -0.48549834 0.8739732 -0.021499066
vn -0.47886324 0.87749636 -0.02627028
vn -0.47886324 0.87749636 -0.02627028
vn -0.45586634 0.8890289 -0.042584825
g pb_Mesh-598374_0
f 3/3/3 2/2/2 1/1/1
f 3/3/3 4/4/4 2/2/2
f 7/7/7 6/6/6 5/5/5
f 7/7/7 8/8/8 6/6/6
f 11/11/11 10/10/10 9/9/9
f 11/11/11 12/12/12 10/10/10
f 15/15/15 14/14/14 13/13/13
f 15/15/15 16/16/16 14/14/14
f 19/19/19 18/18/18 17/17/17
f 19/19/19 20/20/20 18/18/18
f 23/23/23 22/22/22 21/21/21
f 23/23/23 24/24/24 22/22/22
f 27/27/27 26/26/26 25/25/25
f 27/27/27 28/28/28 26/26/26
f 31/31/31 30/30/30 29/29/29
f 31/31/31 32/32/32 30/30/30
f 35/35/35 34/34/34 33/33/33
f 35/35/35 36/36/36 34/34/34
f 39/39/39 38/38/38 37/37/37
f 39/39/39 40/40/40 38/38/38
f 43/43/43 42/42/42 41/41/41
f 43/43/43 44/44/44 42/42/42
f 47/47/47 46/46/46 45/45/45
f 47/47/47 48/48/48 46/46/46
f 51/51/51 50/50/50 49/49/49
f 51/51/51 52/52/52 50/50/50
f 55/55/55 54/54/54 53/53/53
f 55/55/55 56/56/56 54/54/54
f 59/59/59 58/58/58 57/57/57
f 59/59/59 60/60/60 58/58/58
f 63/63/63 62/62/62 61/61/61
f 63/63/63 64/64/64 62/62/62
f 67/67/67 66/66/66 65/65/65
f 67/67/67 68/68/68 66/66/66
f 71/71/71 70/70/70 69/69/69
f 71/71/71 72/72/72 70/70/70
f 75/75/75 74/74/74 73/73/73
f 75/75/75 76/76/76 74/74/74
f 79/79/79 78/78/78 77/77/77
f 79/79/79 80/80/80 78/78/78
f 83/83/83 82/82/82 81/81/81
f 83/83/83 84/84/84 82/82/82
f 87/87/87 86/86/86 85/85/85
f 87/87/87 88/88/88 86/86/86
f 91/91/91 90/90/90 89/89/89
f 91/91/91 92/92/92 90/90/90
f 95/95/95 94/94/94 93/93/93
f 95/95/95 96/96/96 94/94/94
f 99/99/99 98/98/98 97/97/97
f 99/99/99 100/100/100 98/98/98
f 103/103/103 102/102/102 101/101/101
f 103/103/103 104/104/104 102/102/102
f 107/107/107 106/106/106 105/105/105
f 107/107/107 108/108/108 106/106/106
f 111/111/111 110/110/110 109/109/109
f 111/111/111 112/112/112 110/110/110
f 115/115/115 114/114/114 113/113/113
f 115/115/115 116/116/116 114/114/114
f 119/119/119 118/118/118 117/117/117
f 119/119/119 120/120/120 118/118/118
f 123/123/123 122/122/122 121/121/121
f 123/123/123 124/124/124 122/122/122
f 127/127/127 126/126/126 125/125/125
f 127/127/127 128/128/128 126/126/126
f 131/131/131 130/130/130 129/129/129
f 131/131/131 132/132/132 130/130/130
f 135/135/135 134/134/134 133/133/133
f 135/135/135 136/136/136 134/134/134
f 139/139/139 138/138/138 137/137/137
f 139/139/139 140/140/140 138/138/138
f 143/143/143 142/142/142 141/141/141
f 143/143/143 144/144/144 142/142/142
f 147/147/147 146/146/146 145/145/145
f 147/147/147 148/148/148 146/146/146
f 151/151/151 150/150/150 149/149/149
f 151/151/151 152/152/152 150/150/150
f 155/155/155 154/154/154 153/153/153
f 155/155/155 156/156/156 154/154/154
f 159/159/159 158/158/158 157/157/157
f 159/159/159 160/160/160 158/158/158
