g pb_Mesh240404
v -0.61179876 3.7801366 0.43295288
v -0.6246338 3.8501315 0.43109703
v -0.74731827 3.716741 -0.16425514
v -0.7699127 3.712666 -0.16147041
v -0.7888794 3.8205276 0.45115566
v -0.7760451 3.7505326 0.45292282
v -0.7435591 3.60636 0.5063219
v -0.7760451 3.7505326 0.45292282
v -0.61179876 3.7801366 0.43295288
v -0.7435591 3.60636 0.5063219
v -0.61179876 3.7801366 0.43295288
v -0.5793104 3.635964 0.48630238
v -0.7888794 3.8205276 0.45115566
v -0.7699127 3.712666 -0.16147041
v -0.74731827 3.716741 -0.16425514
v -0.7888794 3.8205276 0.45115566
v -0.74731827 3.716741 -0.16425514
v -0.6246338 3.8501315 0.43109703
v -0.6246338 3.8501315 0.43109703
v -0.7515962 3.8831563 0.84976864
v -0.7888794 3.8205276 0.45115566
v -0.6246338 3.8501315 0.43109703
v -0.5873523 3.9127584 0.8297596
v -0.7515962 3.8831563 0.84976864
v -0.7699127 3.712666 -0.16147041
v -0.7450557 3.5658154 -0.1747036
v -0.7224579 3.5698905 -0.17745781
v -0.7699127 3.712666 -0.16147041
v -0.7224579 3.5698905 -0.17745781
v -0.74731827 3.716741 -0.16425514
v -0.7450557 3.5658154 -0.1747036
v 0.543391 -3.9086857 -0.85196877
v -0.7224579 3.5698905 -0.17745781
v -0.7450557 3.5658154 -0.1747036
v 0.52079463 -3.912758 -0.84921455
v 0.543391 -3.9086857 -0.85196877
v 0.52079463 -3.912758 -0.84921455
v 0.62464213 -3.8536894 0.6991539
v 0.78888535 -3.824085 0.67909527
v 0.52079463 -3.912758 -0.84921455
v 0.78888535 -3.824085 0.67909527
v 0.543391 -3.9086857 -0.85196877
v -0.5793104 3.635964 0.48630238
v -0.7224579 3.5698905 -0.17745781
v 0.78888535 -3.824085 0.67909527
v -0.7224579 3.5698905 -0.17745781
v 0.543391 -3.9086857 -0.85196877
v -0.7450557 3.5658154 -0.1747036
v -0.7435591 3.60636 0.5063219
v 0.52079463 -3.912758 -0.84921455
v -0.7435591 3.60636 0.5063219
v 0.62464213 -3.8536894 0.6991539
v -0.7359743 3.7979712 0.8519764
v -0.7515962 3.8831563 0.84976864
v -0.5873523 3.9127584 0.8297596
v -0.7359743 3.7979712 0.8519764
v -0.5873523 3.9127584 0.8297596
v -0.5717213 3.827581 0.83197594
v -0.7760451 3.7505326 0.45292282
v -0.7359743 3.7979712 0.8519764
v -0.5717213 3.827581 0.83197594
v -0.7760451 3.7505326 0.45292282
v -0.5717213 3.827581 0.83197594
v -0.61179876 3.7801366 0.43295288
v -0.61179876 3.7801366 0.43295288
v -0.5717213 3.827581 0.83197594
v -0.5873523 3.9127584 0.8297596
v -0.6246338 3.8501315 0.43109703
v -0.7888794 3.8205276 0.45115566
v -0.7515962 3.8831563 0.84976864
v -0.7359743 3.7979712 0.8519764
v -0.7760451 3.7505326 0.45292282
v 0.62464213 -3.8536894 0.6991539
v -0.7435591 3.60636 0.5063219
v -0.5793104 3.635964 0.48630238
v 0.62464213 -3.8536894 0.6991539
v -0.5793104 3.635964 0.48630238
v 0.78888535 -3.824085 0.67909527
vt 0.12238918 0.9800808
vt 0.12238918 0.9833546
vt 0.09429078 0.9790359
vt 0.09429078 0.9790359
vt 0.12238918 0.9833546
vt 0.12238918 0.9800808
vt 0.12238918 0.9732287
vt 0.12238918 0.9800808
vt 0.12238918 0.9800808
vt 0.12238918 0.9732287
vt 0.12238918 0.9800808
vt 0.12238918 0.9732287
vt 0.12238918 0.9833546
vt 0.09429078 0.9790359
vt 0.09429078 0.9790359
vt 0.12238918 0.9833546
vt 0.09429078 0.9790359
vt 0.12238918 0.9833546
vt 0.12238918 0.9833546
vt 0.14091541 0.9854119
vt 0.12238918 0.9833546
vt 0.12238918 0.9833546
vt 0.14091541 0.9854119
vt 0.14091541 0.9854119
vt 0.09429078 0.9790359
vt 0.09350206 0.9722039
vt 0.09350206 0.9722039
vt 0.09429078 0.9790359
vt 0.09350206 0.9722039
vt 0.09429078 0.9790359
vt 0.09350206 0.9722039
vt 0.053337146 0.6242769
vt 0.09350206 0.9722039
vt 0.09350206 0.9722039
vt 0.053337146 0.6242769
vt 0.053337146 0.6242769
vt -0.37941802 0.9084045
vt -0.29202265 0.9084045
vt -0.29202265 0.9084045
vt -0.37941802 0.9084045
vt -0.29202265 0.9084045
vt -0.37941802 0.9084045
vt 0.12238918 0.9732287
vt 0.09350206 0.9722039
vt 0.12238918 0.6242769
vt 0.09350206 0.9722039
vt 0.053337146 0.6242769
vt 0.09350206 0.9722039
vt 0.12238918 0.9732287
vt 0.053337146 0.6242769
vt 0.12238918 0.9732287
vt 0.12238918 0.6242769
vt 0.14091541 0.9814272
vt 0.14091541 0.9854119
vt 0.14091541 0.9854119
vt 0.14091541 0.9814272
vt 0.14091541 0.9854119
vt 0.14091541 0.9814272
vt 0.12238918 0.9800808
vt 0.14091541 0.9814272
vt 0.14091541 0.9814272
vt 0.12238918 0.9800808
vt 0.14091541 0.9814272
vt 0.12238918 0.9800808
vt 0.12238918 0.9800808
vt 0.14091541 0.9814272
vt 0.14091541 0.9854119
vt 0.12238918 0.9833546
vt 0.12238918 0.9833546
vt 0.14091541 0.9854119
vt 0.14091541 0.9814272
vt 0.12238918 0.9800808
vt 0.12238918 0.6242769
vt 0.12238918 0.9732287
vt 0.12238918 0.9732287
vt 0.12238918 0.6242769
vt 0.12238918 0.9732287
vt 0.12238918 0.6242769
vn 0.96040094 0.15018094 -0.23387806
vn 0.95710456 0.1692701 -0.23515642
vn 0.95888793 0.16352837 -0.23183003
vn -0.98478746 -0.17362736 0.0008717581
vn -0.9836068 -0.18032198 0.0012961478
vn -0.982461 -0.18627915 0.004710186
vn 0.04931925 0.35651526 0.93298686
vn 0.04915475 0.3566258 0.9329533
vn 0.04931925 0.35651526 0.93298686
vn 0.04931925 0.35651526 0.93298686
vn 0.04931925 0.35651526 0.93298686
vn 0.049483754 0.3564047 0.93302035
vn -0.19355367 0.96848375 -0.155361
vn -0.1956823 0.9647597 -0.1759179
vn -0.19542041 0.96481436 -0.17590944
vn -0.19355367 0.96848375 -0.155361
vn -0.19542041 0.96481436 -0.17590944
vn -0.19352326 0.9684904 -0.15535688
vn -0.19352326 0.9684904 -0.15535688
vn -0.19166212 0.97215897 -0.13480549
vn -0.19355367 0.96848375 -0.155361
vn -0.19352326 0.9684904 -0.15535688
vn -0.19163728 0.97216487 -0.13479842
vn -0.19166212 0.97215897 -0.13480549
vn -0.1331845 0.06646135 -0.9888603
vn -0.13256127 0.066716485 -0.9889269
vn -0.13287601 0.06660797 -0.98889196
vn -0.1331845 0.06646135 -0.9888603
vn -0.13287601 0.06660797 -0.98889196
vn -0.13381428 0.06624413 -0.98878986
vn -0.13256127 0.066716485 -0.9889269
vn -0.13256788 0.06675444 -0.98892343
vn -0.13287601 0.06660797 -0.98889196
vn -0.13256127 0.066716485 -0.9889269
vn -0.13256827 0.06675428 -0.9889235
vn -0.13256788 0.06675444 -0.98892343
vn 0.18033388 -0.9832769 0.025416566
vn 0.18033716 -0.9832765 0.025415968
vn 0.18033388 -0.9832769 0.025416566
vn 0.18033388 -0.9832769 0.025416566
vn 0.18033388 -0.9832769 0.025416566
vn 0.18031031 -0.98328125 0.025420949
vn 0.9601524 0.164 -0.22620168
vn 0.9621723 0.17933977 -0.20397064
vn 0.9670843 0.17643316 -0.18335563
vn 0.9621723 0.17933977 -0.20397064
vn 0.96983236 0.17907493 -0.16540016
vn -0.9835183 -0.18009011 0.010144391
vn -0.97982967 -0.1948084 0.034596432
vn -0.9830558 -0.17508724 0.05427487
vn -0.97982967 -0.1948084 0.034596432
vn -0.9813292 -0.17810258 0.07261119
vn 0.11252317 0.046417907 0.9925643
vn 0.11256222 0.04636695 0.99256223
vn 0.11252317 0.046417907 0.9925643
vn 0.11252317 0.046417907 0.9925643
vn 0.11252317 0.046417907 0.9925643
vn 0.11248411 0.046468858 0.99256635
vn 0.18801005 -0.97733426 0.09731357
vn 0.18803044 -0.9773315 0.09730206
vn 0.18801005 -0.97733426 0.09731357
vn 0.18801005 -0.97733426 0.09731357
vn 0.18801005 -0.97733426 0.09731357
vn 0.18798973 -0.977337 0.0973251
vn 0.97713965 0.17612922 -0.11906603
vn 0.9771212 0.17621326 -0.11909298
vn 0.97713965 0.17612922 -0.11906603
vn 0.97716206 0.17602694 -0.119033225
vn -0.97713923 -0.17613365 0.11906246
vn -0.9771432 -0.17611034 0.1190643
vn -0.97713923 -0.17613365 0.11906246
vn -0.97713435 -0.176162 0.11906023
vn 0.11274581 0.04633124 0.99254304
vn 0.112630755 0.04631315 0.99255705
vn 0.11274581 0.04633124 0.99254304
vn 0.11274581 0.04633124 0.99254304
vn 0.11274581 0.04633124 0.99254304
vn 0.11286086 0.04634933 0.9925291
g pb_Mesh240404_0
f 3/3/3 2/2/2 1/1/1
f 6/6/6 5/5/5 4/4/4
f 9/9/9 8/8/8 7/7/7
f 12/12/12 11/11/11 10/10/10
f 15/15/15 14/14/14 13/13/13
f 18/18/18 17/17/17 16/16/16
f 21/21/21 20/20/20 19/19/19
f 24/24/24 23/23/23 22/22/22
f 27/27/27 26/26/26 25/25/25
f 30/30/30 29/29/29 28/28/28
f 33/33/33 32/32/32 31/31/31
f 36/36/36 35/35/35 34/34/34
f 39/39/39 38/38/38 37/37/37
f 42/42/42 41/41/41 40/40/40
f 3/3/3 1/1/1 43/43/43
f 44/44/44 3/3/3 43/43/43
f 46/46/46 43/43/43 45/45/45
f 47/47/47 46/46/46 45/45/45
f 6/6/6 4/4/4 48/48/48
f 49/49/49 6/6/6 48/48/48
f 51/51/51 48/48/48 50/50/50
f 52/52/52 51/51/51 50/50/50
f 55/55/55 54/54/54 53/53/53
f 58/58/58 57/57/57 56/56/56
f 61/61/61 60/60/60 59/59/59
f 64/64/64 63/63/63 62/62/62
f 67/67/67 66/66/66 65/65/65
f 68/68/68 67/67/67 65/65/65
f 71/71/71 70/70/70 69/69/69
f 72/72/72 71/71/71 69/69/69
f 75/75/75 74/74/74 73/73/73
f 78/78/78 77/77/77 76/76/76
