g pb_Mesh153814
v 3.0000012 -0.4354333 1.9036597
v -2.9099848 -0.43543327 1.9036597
v 3.0000012 0.5645666 1.9036597
v -2.9099848 0.5645666 1.9036597
v -2.9099848 -0.43543327 1.9036597
v -2.9099867 -0.5000379 -2.7074625
v -2.9099848 0.5645666 1.9036597
v -2.9099867 -0.5000379 -2.7074625
v -2.9099867 0.4999623 -2.7074625
v -2.9099848 0.5645666 1.9036597
v -2.9099867 -0.5000379 -2.7074625
v 2.9999993 -0.5000379 -2.7074625
v -2.9099867 0.4999623 -2.7074625
v 2.9999993 0.49996227 -2.7074625
v 2.9999993 -0.5000379 -2.7074625
v 3.0000012 -0.4354333 1.9036597
v 2.9999993 0.49996227 -2.7074625
v 3.0000012 -0.4354333 1.9036597
v 3.0000012 0.5645666 1.9036597
v 2.9999993 0.49996227 -2.7074625
v 3.0000012 0.5645666 1.9036597
v -2.9099848 0.5645666 1.9036597
v 2.9999993 0.49996227 -2.7074625
v -2.9099867 0.4999623 -2.7074625
v 2.9999993 -0.5000379 -2.7074625
v -2.9099867 -0.5000379 -2.7074625
v 3.0000012 -0.4354333 1.9036597
v -2.9099848 -0.43543327 1.9036597
vt 0.27969557 0.24182704
vt 0.28706843 0.24182704
vt 0.27969557 0.2418445
vt 0.28706843 0.2418445
vt 0.28706843 0.24182704
vt 0.28706843 0.236074
vt 0.28706843 0.2418445
vt 0.28706843 0.236074
vt 0.28706843 0.23609146
vt 0.28706843 0.2418445
vt 0.28706843 0.236074
vt 0.27969557 0.236074
vt 0.28706843 0.23609146
vt 0.27969557 0.23609146
vt 0.27969557 0.236074
vt 0.27969557 0.24182704
vt 0.27969557 0.23609146
vt 0.27969557 0.24182704
vt 0.27969557 0.2418445
vt 0.27969557 0.23609146
vt 0.27969557 0.2418445
vt 0.28706843 0.2418445
vt 0.27969557 0.23609146
vt 0.28706843 0.23609146
vt 0.27969557 0.236074
vt 0.28706843 0.236074
vt 0.27969557 0.24182704
vt 0.28706843 0.24182704
vn -0 0 1
vn -0 0 1
vn -0 0 1
vn -0 0 1
vn -1 0 4.1364086E-07
vn -1 0 4.136409E-07
vn -1 0 4.136409E-07
vn -1 0 4.136409E-07
vn -1 0 4.136409E-07
vn -1 0 4.136409E-07
vn -0 0 -1
vn -0 0 -1
vn -0 0 -1
vn -0 0 -1
vn 1 0 -4.136409E-07
vn 1 0 -4.136409E-07
vn 1 0 -4.136409E-07
vn 1 0 -4.136409E-07
vn 1 0 -4.1364086E-07
vn 1 0 -4.136409E-07
vn -0 0.99990183 -0.014009171
vn 2.186978E-09 0.99990183 -0.014009168
vn 2.186978E-09 0.99990183 -0.014009168
vn 4.373956E-09 0.9999019 -0.014009165
vn -0 -0.99990183 0.01400923
vn -2.186978E-09 -0.99990183 0.014009233
vn -2.186978E-09 -0.99990183 0.014009233
vn -4.373956E-09 -0.99990183 0.014009236
g pb_Mesh153814_0
f 3/3/3 2/2/2 1/1/1
f 3/3/3 4/4/4 2/2/2
f 7/7/7 6/6/6 5/5/5
f 10/10/10 9/9/9 8/8/8
f 13/13/13 12/12/12 11/11/11
f 13/13/13 14/14/14 12/12/12
f 17/17/17 16/16/16 15/15/15
f 20/20/20 19/19/19 18/18/18
f 23/23/23 22/22/22 21/21/21
f 23/23/23 24/24/24 22/22/22
f 27/27/27 26/26/26 25/25/25
f 27/27/27 28/28/28 26/26/26
