g pb_Mesh261042
v 2.5005188 20 0.06669617
v 1.5258789E-05 20 0.15218353
v 1.5258789E-05 20 0
v 2.5005188 20 0.06669617
v 1.5258789E-05 20 0
v 5.0010223 20 0
v 7.501526 20 0.12387848
v 2.5005188 20 0.06669617
v 5.0010223 20 0
v 7.501526 20 0.12387848
v 5.0010223 20 0.18203735
v 2.5005188 20 0.06669617
v 10 20 0
v 7.501526 20 0.12387848
v 5.0010223 20 0
v 10 20 0
v 10 20 0.15218353
v 7.501526 20 0.12387848
v 7.501526 20 0.12387848
v 10 20 0.15218353
v 10 0 0.41712952
v 7.501526 20 0.12387848
v 10 0 0.41712952
v 7.501526 0 0.41712952
v 5.0010223 20 0.18203735
v 7.501526 20 0.12387848
v 7.501526 0 0.41712952
v 5.0010223 20 0.18203735
v 7.501526 0 0.41712952
v 5.0010223 0 0.47528076
v 2.5005188 20 0.06669617
v 5.0010223 20 0.18203735
v 5.0010223 0 0.47528076
v 2.5005188 20 0.06669617
v 5.0010223 0 0.47528076
v 2.5005188 0 0.3599472
v 1.5258789E-05 20 0.15218353
v 2.5005188 20 0.06669617
v 2.5005188 0 0.3599472
v 1.5258789E-05 20 0.15218353
v 2.5005188 0 0.3599472
v 1.5258789E-05 0 0.41712952
v 7.2394257 5.953989 0.7550583
v 6.259552 5.953989 0.70526123
v 5.568741 6.558321 0.27508545
v 7.2394257 5.953989 0.7550583
v 5.568741 6.558321 0.27508545
v 7.1112823 6.558321 0.23062897
v 7.3417664 0 0.84815216
v 6.361923 0 0.79836273
v 6.259552 5.953989 0.70526123
v 7.3417664 0 0.84815216
v 6.259552 5.953989 0.70526123
v 7.2394257 5.953989 0.7550583
v 8.287384 4.913685 0.6780014
v 7.3417664 0 0.84815216
v 7.2394257 5.953989 0.7550583
v 8.287384 4.913685 0.6780014
v 8.3897705 0 0.7711029
v 7.3417664 0 0.84815216
v 5.568741 0 0.44784546
v 5.568741 6.558321 0.27508545
v 6.259552 5.953989 0.70526123
v 5.568741 0 0.44784546
v 6.259552 5.953989 0.70526123
v 6.361923 0 0.79836273
v 8.3897705 0 0.7711029
v 8.287384 4.913685 0.6780014
v 8.814224 5.1333084 0.22812653
v 8.3897705 0 0.7711029
v 8.814224 5.1333084 0.22812653
v 8.665207 0 0.37287903
v 8.814224 5.1333084 0.22812653
v 8.287384 4.913685 0.6780014
v 7.2394257 5.953989 0.7550583
v 8.814224 5.1333084 0.22812653
v 7.2394257 5.953989 0.7550583
v 7.1112823 6.558321 0.23062897
v 2.3296204 8.724813 0.58878326
v 1.3497467 8.724813 0.5567093
v 0.65893555 10.303755 0.041740417
v 2.3296204 8.724813 0.58878326
v 0.65893555 10.303755 0.041740417
v 2.2540436 10.303755 0.013366699
v 3.9044647 9.650695 0.088394165
v 2.3296204 8.724813 0.58878326
v 2.2540436 10.303755 0.013366699
v 3.9044647 9.650695 0.088394165
v 3.377594 8.248059 0.5391464
v 2.3296204 8.724813 0.58878326
v 2.2257996 0 0.77389526
v 1.2459259 0 0.74181366
v 1.3497467 8.724813 0.5567093
v 2.2257996 0 0.77389526
v 1.3497467 8.724813 0.5567093
v 2.3296204 8.724813 0.58878326
v 3.377594 8.248059 0.5391464
v 2.2257996 0 0.77389526
v 2.3296204 8.724813 0.58878326
v 3.377594 8.248059 0.5391464
v 3.2737732 0 0.7242584
v 2.2257996 0 0.77389526
v 0.8886261 0 0.30286407
v 0.65893555 10.303755 0.041740417
v 1.3497467 8.724813 0.5567093
v 0.8886261 0 0.30286407
v 1.3497467 8.724813 0.5567093
v 1.2459259 0 0.74181366
v 3.2737732 0 0.7242584
v 3.377594 8.248059 0.5391464
v 3.9044647 9.650695 0.088394165
v 3.2737732 0 0.7242584
v 3.9044647 9.650695 0.088394165
v 3.9851074 0 0.25457
vt 0.2960768 0.40315917
vt 0.2960768 0.40315917
vt 0.2960768 0.40315917
vt 0.2960768 0.40315917
vt 0.2960768 0.40315917
vt 0.2960768 0.40315917
vt 0.2960768 0.40315917
vt 0.2960768 0.40315917
vt 0.2960768 0.40315917
vt 0.2960768 0.40315917
vt 0.2960768 0.40315917
vt 0.2960768 0.40315917
vt 0.2960768 0.40315917
vt 0.2960768 0.40315917
vt 0.2960768 0.40315917
vt 0.2960768 0.40315917
vt 0.2960768 0.40315917
vt 0.2960768 0.40315917
vt 0.2622253 0.39636135
vt 0.2622253 0.39636135
vt 0.2622253 0.39636135
vt 0.2622253 0.39636135
vt 0.2622253 0.39636135
vt 0.2622253 0.39636135
vt 0.2622253 0.39636135
vt 0.2622253 0.39636135
vt 0.2622253 0.39636135
vt 0.2622253 0.39636135
vt 0.2622253 0.39636135
vt 0.2622253 0.39636135
vt 0.23036066 0.39638245
vt 0.23036066 0.39638245
vt 0.23036066 0.39638245
vt 0.23036066 0.39638245
vt 0.23036066 0.39638245
vt 0.23036066 0.39638245
vt 0.2622253 0.39636135
vt 0.2622253 0.39636135
vt 0.2622253 0.39636135
vt 0.2622253 0.39636135
vt 0.2622253 0.39636135
vt 0.2622253 0.39636135
vt 0.29286996 0.39636013
vt 0.29286996 0.39636013
vt 0.29286996 0.39636013
vt 0.29286996 0.39636013
vt 0.29286996 0.39636013
vt 0.29286996 0.39636013
vt 0.26161215 0.39636013
vt 0.26161215 0.39636013
vt 0.26161215 0.39636013
vt 0.26161215 0.39636013
vt 0.26161215 0.39636013
vt 0.26161215 0.39636013
vt 0.26161215 0.39636013
vt 0.26161215 0.39636013
vt 0.26161215 0.39636013
vt 0.26161215 0.39636013
vt 0.26161215 0.39636013
vt 0.26161215 0.39636013
vt 0.23050985 0.39636013
vt 0.23050985 0.39636013
vt 0.23050985 0.39636013
vt 0.23050985 0.39636013
vt 0.23050985 0.39636013
vt 0.23050985 0.39636013
vt 0.23050985 0.39636013
vt 0.23050985 0.39636013
vt 0.23050985 0.39636013
vt 0.23050985 0.39636013
vt 0.23050985 0.39636013
vt 0.23050985 0.39636013
vt 0.29286996 0.39636013
vt 0.29286996 0.39636013
vt 0.29286996 0.39636013
vt 0.29286996 0.39636013
vt 0.29286996 0.39636013
vt 0.29286996 0.39636013
vt 0.29286996 0.39636013
vt 0.29286996 0.39636013
vt 0.29286996 0.39636013
vt 0.29286996 0.39636013
vt 0.29286996 0.39636013
vt 0.29286996 0.39636013
vt 0.29286996 0.39636013
vt 0.29286996 0.39636013
vt 0.29286996 0.39636013
vt 0.29286996 0.39636013
vt 0.29286996 0.39636013
vt 0.29286996 0.39636013
vt 0.26161215 0.39636013
vt 0.26161215 0.39636013
vt 0.26161215 0.39636013
vt 0.26161215 0.39636013
vt 0.26161215 0.39636013
vt 0.26161215 0.39636013
vt 0.26161215 0.39636013
vt 0.26161215 0.39636013
vt 0.26161215 0.39636013
vt 0.26161215 0.39636013
vt 0.26161215 0.39636013
vt 0.26161215 0.39636013
vt 0.23050985 0.39636013
vt 0.23050985 0.39636013
vt 0.23050985 0.39636013
vt 0.23050985 0.39636013
vt 0.23050985 0.39636013
vt 0.23050985 0.39636013
vt 0.23050985 0.39636013
vt 0.23050985 0.39636013
vt 0.23050985 0.39636013
vt 0.23050985 0.39636013
vt 0.23050985 0.39636013
vt 0.23050985 0.39636013
vn -0 1 0
vn -0 1 0
vn -0 1 0
vn -0 1 0
vn -0 1 0
vn -0 1 0
vn -0 1 0
vn -0 1 0
vn -0 1 0
vn -0 1 0
vn -0 1 0
vn -0 1 0
vn -0 1 0
vn -0 1 0
vn -0 1 0
vn -0 1 0
vn -0 1 0
vn -0 1 0
vn 0.008793127 0.014305178 0.9997544
vn -0.0113272155 0.013245288 0.9998481
vn -0.0056638257 0.013953344 0.9998866
vn 0.008793127 0.014305178 0.9997544
vn -0.0056638257 0.013953344 0.9998866
vn 0.0116242785 0.0146589 0.9997574
vn -0.011412345 0.014650925 0.9992265
vn 0.008793127 0.014305178 0.9997544
vn 0.0116242785 0.0146589 0.9997574
vn -0.011412345 0.014650925 0.9992265
vn 0.0116242785 0.0146589 0.9997574
vn -0.011412348 0.014650926 0.99922657
vn -0.005953649 0.0146488175 0.9990698
vn -0.011412345 0.014650925 0.9992265
vn -0.011412348 0.014650926 0.99922657
vn -0.005953649 0.0146488175 0.9990698
vn -0.011412348 0.014650926 0.99922657
vn -0.008778196 0.014296652 0.9991635
vn 0.028513815 0.013947895 0.99949616
vn -0.005953649 0.0146488175 0.9990698
vn -0.008778196 0.014296652 0.9991635
vn 0.028513815 0.013947895 0.99949616
vn -0.008778196 0.014296652 0.9991635
vn 0.022860337 0.013242675 0.99965096
vn -0.0016626868 0.6191081 0.785304
vn -0.04249856 0.5466859 0.83625865
vn -0.0016626868 0.6191081 0.785304
vn -0.0016626868 0.6191081 0.785304
vn -0.0016626868 0.6191081 0.785304
vn 0.021696243 0.65787816 0.7528118
vn 0.01588034 0.016683895 0.99750966
vn -0.050742686 0.014742528 0.998603
vn -0.050745774 0.01474196 0.9986028
vn 0.01588034 0.016683895 0.99750966
vn -0.050745774 0.01474196 0.9986028
vn 0.019733038 0.015930777 0.9971889
vn 0.082506455 0.018625831 0.9964165
vn 0.01588034 0.016683895 0.99750966
vn 0.019733038 0.015930777 0.9971889
vn 0.082506455 0.018625831 0.9964165
vn 0.07330681 0.020419942 0.9971003
vn 0.01588034 0.016683895 0.99750966
vn -0.46070817 0.01508662 0.8874234
vn -0.5141543 0.022585731 0.8574003
vn -0.46070817 0.01508662 0.8874234
vn -0.46070817 0.01508662 0.8874234
vn -0.46070817 0.01508662 0.8874234
vn -0.4041928 0.0073525584 0.91464424
vn 0.7247227 0.012945931 0.6889189
vn 0.64237016 0.027896622 0.76588666
vn 0.7247227 0.012945931 0.6889189
vn 0.7247227 0.012945931 0.6889189
vn 0.7247227 0.012945931 0.6889189
vn 0.8224153 -0.007833945 0.5688336
vn 0.5072585 0.54446155 0.6680198
vn 0.47864506 0.4252692 0.76814383
vn 0.5072585 0.54446155 0.6680198
vn 0.5072585 0.54446155 0.6680198
vn 0.5072585 0.54446155 0.6680198
vn 0.5197804 0.6201246 0.58760005
vn 0.05912055 0.31647593 0.9447738
vn -0.031233506 0.29754445 0.95419693
vn -0.0013584499 0.32608646 0.945339
vn 0.05912055 0.31647593 0.9447738
vn -0.0013584499 0.32608646 0.945339
vn 0.055353217 0.34395844 0.93655074
vn 0.11959955 0.30686542 0.9442085
vn 0.05912055 0.31647593 0.9447738
vn 0.055353217 0.34395844 0.93655074
vn 0.11959955 0.30686542 0.9442085
vn 0.15801087 0.24781455 0.955835
vn 0.05912055 0.31647593 0.9447738
vn 0.009693479 0.021365032 0.9988249
vn -0.03271539 0.021588845 0.9992316
vn -0.032711502 0.021589238 0.99923164
vn 0.009693479 0.021365032 0.9988249
vn -0.032711502 0.021589238 0.99923164
vn 0.011949616 0.021047141 0.99870884
vn 0.05209846 0.021140827 0.99841815
vn 0.009693479 0.021365032 0.9988249
vn 0.011949616 0.021047141 0.99870884
vn 0.05209846 0.021140827 0.99841815
vn 0.04730029 0.021817246 0.9986424
vn 0.009693479 0.021365032 0.9988249
vn -0.6620931 0.013191935 0.7493055
vn -0.5866555 0.0074447957 0.80980235
vn -0.6620931 0.013191935 0.7493055
vn -0.6620931 0.013191935 0.7493055
vn -0.6620931 0.013191935 0.7493055
vn -0.77535045 0.022616154 0.63112617
vn 0.58540815 0.015151016 0.8105971
vn 0.63560647 0.009324538 0.7719569
vn 0.58540815 0.015151016 0.8105971
vn 0.58540815 0.015151016 0.8105971
vn 0.58540815 0.015151016 0.8105971
vn 0.5509129 0.018970184 0.8343472
g pb_Mesh261042_0
f 3/3/3 2/2/2 1/1/1
f 6/6/6 5/5/5 4/4/4
f 9/9/9 8/8/8 7/7/7
f 12/12/12 11/11/11 10/10/10
f 15/15/15 14/14/14 13/13/13
f 18/18/18 17/17/17 16/16/16
f 21/21/21 20/20/20 19/19/19
f 24/24/24 23/23/23 22/22/22
f 27/27/27 26/26/26 25/25/25
f 30/30/30 29/29/29 28/28/28
f 33/33/33 32/32/32 31/31/31
f 36/36/36 35/35/35 34/34/34
f 39/39/39 38/38/38 37/37/37
f 42/42/42 41/41/41 40/40/40
f 45/45/45 44/44/44 43/43/43
f 48/48/48 47/47/47 46/46/46
f 51/51/51 50/50/50 49/49/49
f 54/54/54 53/53/53 52/52/52
f 57/57/57 56/56/56 55/55/55
f 60/60/60 59/59/59 58/58/58
f 63/63/63 62/62/62 61/61/61
f 66/66/66 65/65/65 64/64/64
f 69/69/69 68/68/68 67/67/67
f 72/72/72 71/71/71 70/70/70
f 75/75/75 74/74/74 73/73/73
f 78/78/78 77/77/77 76/76/76
f 81/81/81 80/80/80 79/79/79
f 84/84/84 83/83/83 82/82/82
f 87/87/87 86/86/86 85/85/85
f 90/90/90 89/89/89 88/88/88
f 93/93/93 92/92/92 91/91/91
f 96/96/96 95/95/95 94/94/94
f 99/99/99 98/98/98 97/97/97
f 102/102/102 101/101/101 100/100/100
f 105/105/105 104/104/104 103/103/103
f 108/108/108 107/107/107 106/106/106
f 111/111/111 110/110/110 109/109/109
f 114/114/114 113/113/113 112/112/112
