g pb_Mesh-1841650
v 9.25 -0.06802809 0.25
v -0 -0.06802809 0.25
v 9.25 -0.003909111 0.29999924
v -0 -0.003909111 0.29999924
v -0 -0.06802809 0.25
v -0 -0.06802809 -0.25
v -0 -0.003909111 0.29999924
v -0 -0.003909111 -0.29999924
v -0 -0.06802809 -0.25
v 9.25 -0.06802809 -0.25
v -0 -0.003909111 -0.29999924
v 9.25 -0.003909111 -0.29999924
v 9.25 -0.06802809 -0.25
v 9.25 -0.06802809 0.25
v 9.25 -0.003909111 -0.29999924
v 9.25 -0.003909111 0.29999924
v 9.25 0.07324016 0.23999786
v -0 0.07324016 0.23999786
v 9.25 0.07324016 -0.23999786
v -0 0.07324016 -0.23999786
v 9.25 -0.06802809 -0.25
v -0 -0.06802809 -0.25
v 9.25 -0.06802809 0.25
v -0 -0.06802809 0.25
v 9.25 -0.003909111 0.29999924
v -0 -0.003909111 0.29999924
v 9.25 0.07324016 0.23999786
v -0 0.07324016 0.23999786
v 9.25 0.07324016 -0.23999786
v 9.25 0.07324016 0.23999786
v -0 0.07324016 0.23999786
v -0 0.07324016 -0.23999786
v -0 -0.003909111 -0.29999924
v 9.25 -0.003909111 -0.29999924
v -0 0.07324016 -0.23999786
v 9.25 0.07324016 -0.23999786
vt 9.25 0.100086205
vt 0 0.100086205
vt 9.25 0.18139529
vt 0 0.18139529
vt 0.25 -0.06802809
vt -0.25 -0.06802809
vt 0.29999924 -0.003909111
vt -0.29999924 -0.003909111
vt 0 0.100086205
vt -9.25 0.100086205
vt 0 0.18139529
vt -9.25 0.18139529
vt 0.25 -0.06802809
vt -0.25 -0.06802809
vt 0.29999924 -0.003909111
vt -0.29999924 -0.003909111
vt -9.25 0.23999786
vt 0 0.23999786
vt -9.25 -0.23999786
vt 0 -0.23999786
vt 9.25 -0.25
vt -0 -0.25
vt 9.25 0.25
vt 0 0.25
vt 9.25 -0.18726052
vt -0 -0.18726052
vt 9.25 -0.0895253
vt 0 -0.0895253
vt 0.23999786 0.07324016
vt -0.23999786 0.07324016
vt 0.23999786 0.07324016
vt -0.23999786 0.07324016
vt 0 -0.18726052
vt -9.25 -0.18726052
vt 0 -0.0895253
vt -9.25 -0.0895253
vn -0 -0.6149281 0.7885832
vn -0 -0.6149281 0.7885832
vn -0 -0.6149281 0.7885832
vn -0 -0.6149281 0.7885832
vn -1 0 0
vn -1 0 0
vn -1 0 0
vn -1 0 0
vn -0 -0.6149281 -0.7885832
vn -0 -0.6149281 -0.7885832
vn -0 -0.6149281 -0.7885832
vn -0 -0.6149281 -0.7885832
vn 1 0 0
vn 1 0 0
vn 1 0 0
vn 1 0 0
vn -0 1 0
vn -0 1 0
vn -0 1 0
vn -0 1 0
vn -0 -1 0
vn -0 -1 0
vn -0 -1 0
vn -0 -1 0
vn -0 0.6139175 0.7893702
vn -0 0.6139175 0.7893702
vn -0 0.6139175 0.7893702
vn -0 0.6139175 0.7893702
vn 1 0 0
vn 1 0 0
vn -1 0 0
vn -1 0 0
vn -0 0.6139175 -0.7893702
vn -0 0.6139175 -0.7893702
vn -0 0.6139175 -0.7893702
vn -0 0.6139175 -0.7893702
g pb_Mesh-1841650_0
f 3/3/3 2/2/2 1/1/1
f 3/3/3 4/4/4 2/2/2
f 7/7/7 6/6/6 5/5/5
f 7/7/7 8/8/8 6/6/6
f 11/11/11 10/10/10 9/9/9
f 11/11/11 12/12/12 10/10/10
f 15/15/15 14/14/14 13/13/13
f 15/15/15 16/16/16 14/14/14
f 19/19/19 18/18/18 17/17/17
f 19/19/19 20/20/20 18/18/18
f 23/23/23 22/22/22 21/21/21
f 23/23/23 24/24/24 22/22/22
f 27/27/27 26/26/26 25/25/25
f 27/27/27 28/28/28 26/26/26
f 29/29/29 16/16/16 15/15/15
f 29/29/29 30/30/30 16/16/16
f 31/31/31 8/8/8 7/7/7
f 31/31/31 32/32/32 8/8/8
f 35/35/35 34/34/34 33/33/33
f 35/35/35 36/36/36 34/34/34
