g pb_Mesh140324
v 1.5 -0.99999785 2.2500045
v -1 -0.99999785 2.2500045
v 1.5 1.0000015 2.250003
v -1 1.0000015 2.250003
v -1 -0.99999785 2.2500045
v -1 -0.99999934 -4.2499986
v -1 1.0000015 2.250003
v -1 0.99999976 -4.2500005
v -1 -0.99999934 -4.2499986
v 1.5 -0.99999934 -4.2499986
v -1 0.99999976 -4.2500005
v 1.5 0.99999976 -4.2500005
v 1.5 -0.99999934 -4.2499986
v 1.5 -0.99999785 2.2500045
v 1.5 0.99999976 -4.2500005
v 1.5 1.0000015 2.250003
v 1.5 1.0000015 2.250003
v -1 1.0000015 2.250003
v 1.5 0.99999976 -4.2500005
v -1 0.99999976 -4.2500005
v 1.5 -0.99999934 -4.2499986
v -1 -0.99999934 -4.2499986
v 1.5 -0.99999785 2.2500045
v -1 -0.99999785 2.2500045
vt 1.5 -0.99999946
vt -1 -0.99999946
vt 1.5 0.99999994
vt -1 0.99999994
vt 2.2500045 -0.99999785
vt -4.2499986 -0.99999934
vt 2.250003 1.0000015
vt -4.2500005 0.99999976
vt 1 -0.9999953
vt -1.5 -0.9999953
vt 1 1.0000038
vt -1.5 1.0000038
vt 4.2499986 -0.99999934
vt -2.2500045 -0.99999785
vt 4.2500005 0.99999976
vt -2.250003 1.0000015
vt -1.5 2.2500033
vt 1 2.2500033
vt -1.5 -4.25
vt 1 -4.25
vt 1.5 -4.2499986
vt -1 -4.2499986
vt 1.5 2.2500043
vt -1 2.2500043
vn -0 7.1525596E-07 1
vn -0 7.1525596E-07 1
vn -0 7.1525596E-07 1
vn -0 7.1525596E-07 1
vn -1 0 0
vn -1 0 0
vn -1 0 0
vn -1 0 0
vn -0 -9.536748E-07 -1
vn -0 -9.536748E-07 -1
vn -0 -9.536748E-07 -1
vn -0 -9.536748E-07 -1
vn 0.99999994 0 0
vn 1 0 0
vn 1 0 0
vn 0.99999994 0 0
vn -0 1 -2.750982E-07
vn -0 1 -2.750982E-07
vn -0 1 -2.750982E-07
vn -0 1 -2.750982E-07
vn -0 -1 2.2924853E-07
vn -0 -1 2.2924853E-07
vn -0 -1 2.2924853E-07
vn -0 -1 2.2924853E-07
g pb_Mesh140324_0
f 3/3/3 2/2/2 1/1/1
f 3/3/3 4/4/4 2/2/2
f 7/7/7 6/6/6 5/5/5
f 7/7/7 8/8/8 6/6/6
f 11/11/11 10/10/10 9/9/9
f 11/11/11 12/12/12 10/10/10
f 15/15/15 14/14/14 13/13/13
f 15/15/15 16/16/16 14/14/14
f 19/19/19 18/18/18 17/17/17
f 19/19/19 20/20/20 18/18/18
f 23/23/23 22/22/22 21/21/21
f 23/23/23 24/24/24 22/22/22
