g pb_Mesh134480
v -0.45392835 -0.11004986 -0.1913904
v -0.45392835 0.18995012 -0.1913904
v -0.45466295 -0.11004986 0.1836096
v -0.45466295 0.18995012 0.1836096
v -0.45466295 -0.11004986 0.1836096
v -0.45466295 0.18995012 0.1836096
v -0.26249963 -0.11004986 0.4581287
v -0.26249963 0.18995012 0.4581287
v -0.26249963 -0.11004986 0.4581287
v -0.26249963 0.18995012 0.4581287
v 3.8215228E-07 -0.11004986 0.55860966
v 3.8215228E-07 0.18995012 0.55860966
v 3.8215228E-07 -0.11004986 0.55860966
v 3.8215228E-07 0.18995012 0.55860966
v 0.26250038 -0.11004986 0.45812863
v 3.8215228E-07 0.18995012 0.55860966
v 0.26250038 0.18995012 0.45812863
v 0.26250038 -0.11004986 0.45812863
v 0.26250038 -0.11004986 0.45812863
v 0.26250038 0.18995012 0.45812863
v 0.45466366 -0.11004986 0.18360966
v 0.45466366 0.18995012 0.18360966
v 0.45466366 -0.11004986 0.18360966
v 0.45466366 0.18995012 0.18360966
v 0.45392904 -0.11004986 -0.19139045
v 0.45392904 0.18995012 -0.19139045
v 0.45392904 -0.11004986 -0.19139045
v 0.45392904 0.18995012 -0.19139045
v 0.58456755 -0.07694037 -0.70281047
v 0.58456755 0.2000738 -0.70281047
v 0.58456755 -0.07694037 -0.70281047
v 0.58456755 0.2000738 -0.70281047
v 0.33750033 -0.07694037 -0.977329
v 0.33750033 0.2000738 -0.977329
v 0.33750033 -0.07694037 -0.977329
v 0.33750033 0.2000738 -0.977329
v 3.8742752E-07 -0.07694037 -1.0778099
v 3.8742752E-07 0.2000738 -1.0778099
v 3.8742752E-07 -0.07694037 -1.0778099
v 3.8742752E-07 0.2000738 -1.0778099
v -0.33749956 -0.07694037 -0.977329
v -0.33749956 0.2000738 -0.977329
v -0.33749956 -0.07694037 -0.977329
v -0.33749956 0.2000738 -0.977329
v -0.58456665 -0.07694037 -0.7028106
v -0.58456665 0.2000738 -0.7028106
v -0.58456665 -0.07694037 -0.7028106
v -0.58456665 0.2000738 -0.7028106
v -0.45392835 -0.11004986 -0.1913904
v -0.45392835 0.18995012 -0.1913904
v -0.41609025 -0.16004986 0.15179536
v 3.6025813E-07 -0.16004986 -0.1913904
v -0.40392834 -0.16004986 -0.1913904
v -0.24376456 -0.16004986 0.41177142
v 3.8069268E-07 -0.16004986 0.50860965
v 0.2437653 -0.16004986 0.41177136
v 0.41609097 -0.16004986 0.15179542
v 0.40392902 -0.16004986 -0.19139045
v 0.5469704 -0.12906985 -0.6699179
v 3.6025813E-07 -0.16004986 -0.1913904
v 0.40392902 -0.16004986 -0.19139045
v 0.3177861 -0.12887438 -0.9314203
v 3.6025813E-07 -0.16004986 -0.1913904
v 0.5469704 -0.12906985 -0.6699179
v 3.8589604E-07 -0.12880667 -1.0278448
v 3.6025813E-07 -0.16004986 -0.1913904
v 0.3177861 -0.12887438 -0.9314203
v -0.31778532 -0.12887438 -0.9314203
v 3.6025813E-07 -0.16004986 -0.1913904
v 3.8589604E-07 -0.12880667 -1.0278448
v -0.54696953 -0.12906985 -0.669918
v 3.6025813E-07 -0.16004986 -0.1913904
v -0.31778532 -0.12887438 -0.9314203
v -0.40392834 -0.16004986 -0.1913904
v -0.54696953 -0.12906985 -0.669918
v -0.40392834 0.23995012 -0.1913904
v 3.6025813E-07 0.23995012 -0.1913904
v -0.41609025 0.23995012 0.15179536
v -0.24376456 0.23995012 0.41177142
v 3.8069268E-07 0.23995012 0.50860965
v 0.2437653 0.23995012 0.41177136
v 0.41609097 0.23995012 0.15179542
v 0.40392902 0.23995012 -0.19139045
v 0.40392902 0.23995012 -0.19139045
v 3.6025813E-07 0.23995012 -0.1913904
v 0.5469395 0.24942213 -0.6698908
v 0.5469395 0.24942213 -0.6698908
v 3.6025813E-07 0.23995012 -0.1913904
v 0.31777272 0.24948204 -0.93138915
v 0.31777272 0.24948204 -0.93138915
v 3.6025813E-07 0.23995012 -0.1913904
v 3.8589508E-07 0.24950278 -1.0278132
v 3.8589508E-07 0.24950278 -1.0278132
v 3.6025813E-07 0.23995012 -0.1913904
v -0.31777194 0.24948204 -0.93138915
v -0.31777194 0.24948204 -0.93138915
v 3.6025813E-07 0.23995012 -0.1913904
v -0.5469386 0.24942213 -0.66989094
v -0.5469386 0.24942213 -0.66989094
v -0.40392834 0.23995012 -0.1913904
v -0.40392834 0.23995012 -0.1913904
v -0.45466295 0.18995012 0.1836096
v -0.45392835 0.18995012 -0.1913904
v -0.41609025 0.23995012 0.15179536
v -0.41609025 0.23995012 0.15179536
v -0.26249963 0.18995012 0.4581287
v -0.45466295 0.18995012 0.1836096
v -0.24376456 0.23995012 0.41177142
v -0.24376456 0.23995012 0.41177142
v 3.8215228E-07 0.18995012 0.55860966
v -0.26249963 0.18995012 0.4581287
v 3.8069268E-07 0.23995012 0.50860965
v 3.8069268E-07 0.23995012 0.50860965
v 0.26250038 0.18995012 0.45812863
v 3.8215228E-07 0.18995012 0.55860966
v 0.2437653 0.23995012 0.41177136
v 0.2437653 0.23995012 0.41177136
v 0.45466366 0.18995012 0.18360966
v 0.26250038 0.18995012 0.45812863
v 0.41609097 0.23995012 0.15179542
v 0.41609097 0.23995012 0.15179542
v 0.45392904 0.18995012 -0.19139045
v 0.45466366 0.18995012 0.18360966
v 0.40392902 0.23995012 -0.19139045
v 0.40392902 0.23995012 -0.19139045
v 0.58456755 0.2000738 -0.70281047
v 0.45392904 0.18995012 -0.19139045
v 0.5469395 0.24942213 -0.6698908
v 0.5469395 0.24942213 -0.6698908
v 0.33750033 0.2000738 -0.977329
v 0.58456755 0.2000738 -0.70281047
v 0.31777272 0.24948204 -0.93138915
v 0.31777272 0.24948204 -0.93138915
v 3.8742752E-07 0.2000738 -1.0778099
v 0.33750033 0.2000738 -0.977329
v 3.8589508E-07 0.24950278 -1.0278132
v 3.8589508E-07 0.24950278 -1.0278132
v -0.33749956 0.2000738 -0.977329
v 3.8742752E-07 0.2000738 -1.0778099
v -0.31777194 0.24948204 -0.93138915
v -0.31777194 0.24948204 -0.93138915
v -0.58456665 0.2000738 -0.7028106
v -0.33749956 0.2000738 -0.977329
v -0.5469386 0.24942213 -0.66989094
v -0.5469386 0.24942213 -0.66989094
v -0.45392835 0.18995012 -0.1913904
v -0.58456665 0.2000738 -0.7028106
v -0.40392834 0.23995012 -0.1913904
v -0.54696953 -0.12906985 -0.669918
v -0.33749956 -0.07694037 -0.977329
v -0.58456665 -0.07694037 -0.7028106
v -0.31778532 -0.12887438 -0.9314203
v -0.31778532 -0.12887438 -0.9314203
v 3.8742752E-07 -0.07694037 -1.0778099
v -0.33749956 -0.07694037 -0.977329
v 3.8589604E-07 -0.12880667 -1.0278448
v 3.8589604E-07 -0.12880667 -1.0278448
v 0.33750033 -0.07694037 -0.977329
v 3.8742752E-07 -0.07694037 -1.0778099
v 0.3177861 -0.12887438 -0.9314203
v 0.3177861 -0.12887438 -0.9314203
v 0.58456755 -0.07694037 -0.70281047
v 0.33750033 -0.07694037 -0.977329
v 0.5469704 -0.12906985 -0.6699179
v 0.5469704 -0.12906985 -0.6699179
v 0.45392904 -0.11004986 -0.19139045
v 0.58456755 -0.07694037 -0.70281047
v 0.40392902 -0.16004986 -0.19139045
v 0.40392902 -0.16004986 -0.19139045
v 0.45466366 -0.11004986 0.18360966
v 0.45392904 -0.11004986 -0.19139045
v 0.41609097 -0.16004986 0.15179542
v 0.41609097 -0.16004986 0.15179542
v 0.26250038 -0.11004986 0.45812863
v 0.45466366 -0.11004986 0.18360966
v 0.2437653 -0.16004986 0.41177136
v 0.2437653 -0.16004986 0.41177136
v 3.8215228E-07 -0.11004986 0.55860966
v 0.26250038 -0.11004986 0.45812863
v 3.8069268E-07 -0.16004986 0.50860965
v 3.8069268E-07 -0.16004986 0.50860965
v -0.26249963 -0.11004986 0.4581287
v 3.8215228E-07 -0.11004986 0.55860966
v -0.24376456 -0.16004986 0.41177142
v -0.24376456 -0.16004986 0.41177142
v -0.45466295 -0.11004986 0.1836096
v -0.26249963 -0.11004986 0.4581287
v -0.24376456 -0.16004986 0.41177142
v -0.41609025 -0.16004986 0.15179536
v -0.45466295 -0.11004986 0.1836096
v -0.41609025 -0.16004986 0.15179536
v -0.45392835 -0.11004986 -0.1913904
v -0.45466295 -0.11004986 0.1836096
v -0.41609025 -0.16004986 0.15179536
v -0.40392834 -0.16004986 -0.1913904
v -0.45392835 -0.11004986 -0.1913904
v -0.40392834 -0.16004986 -0.1913904
v -0.58456665 -0.07694037 -0.7028106
v -0.45392835 -0.11004986 -0.1913904
v -0.54696953 -0.12906985 -0.669918
vt -0.19050083 -0.11004986
vt -0.19050083 0.18995012
vt 0.1844999 -0.11004986
vt 0.1844999 0.18995012
vt -0.1103132 -0.11004986
vt -0.1103132 0.18995012
vt 0.22478004 -0.11004986
vt 0.22478004 0.18995012
vt -0.081376895 -0.11004986
vt -0.081376895 0.18995012
vt 0.19969726 -0.11004986
vt 0.19969726 0.18995012
vt -0.19969667 -0.11004986
vt -0.19969667 0.18995012
vt 0.08137749 -0.11004986
vt -0.19969667 0.18995012
vt 0.08137749 0.18995012
vt 0.08137749 -0.11004986
vt -0.22477955 -0.11004986
vt -0.22477955 0.18995012
vt 0.110313594 -0.11004986
vt 0.110313594 0.18995012
vt -0.1845 -0.11004986
vt -0.1845 0.18995012
vt 0.19050084 -0.11004986
vt 0.19050084 0.18995012
vt 0.29778156 -0.11004986
vt 0.29778156 0.18995012
vt 0.8256232 -0.07694037
vt 0.8256232 0.2000738
vt 0.1313389 -0.07694037
vt 0.1313389 0.2000738
vt 0.5006662 -0.07694037
vt 0.5006662 0.2000738
vt -0.044594258 -0.07694037
vt -0.044594258 0.2000738
vt 0.3075458 -0.07694037
vt 0.3075458 0.2000738
vt -0.30754656 -0.07694037
vt -0.30754656 0.2000738
vt 0.044593513 -0.07694037
vt 0.044593513 0.2000738
vt -0.5006667 -0.07694037
vt -0.5006667 0.2000738
vt -0.13133958 -0.07694037
vt -0.13133958 0.2000738
vt -0.825623 -0.07694037
vt -0.825623 0.2000738
vt -0.29778114 -0.11004986
vt -0.29778114 0.18995012
vt -0.41609025 0.15179536
vt 3.6025813E-07 -0.1913904
vt -0.40392834 -0.1913904
vt -0.24376456 0.41177142
vt 3.8069268E-07 0.50860965
vt 0.2437653 0.41177136
vt 0.41609097 0.15179542
vt 0.40392902 -0.19139045
vt 0.5469704 -0.6601798
vt 3.616187E-07 -0.18065053
vt 0.40392902 -0.18065059
vt 0.31354487 -0.92708516
vt -0.0050688167 -0.18675457
vt 0.5426081 -0.66547644
vt -0.0014319157 -1.0223215
vt -0.0017793587 -0.18528378
vt 0.31633338 -0.92582977
vt -0.3163326 -0.92582977
vt 0.0017800793 -0.18528378
vt 0.0014326875 -1.0223215
vt -0.5426072 -0.66547656
vt 0.0050695376 -0.18675457
vt -0.3135441 -0.92708516
vt -0.40392834 -0.18065053
vt -0.54696953 -0.6601799
vt 0.40392834 -0.1913904
vt -3.6025813E-07 -0.1913904
vt 0.41609025 0.15179536
vt 0.24376456 0.41177142
vt -3.8069268E-07 0.50860965
vt -0.2437653 0.41177136
vt -0.41609097 0.15179542
vt -0.40392902 -0.19139045
vt -0.40392902 -0.1961019
vt -3.5963444E-07 -0.19610184
vt -0.5469395 -0.674696
vt -0.54933035 -0.67199385
vt -0.0023251632 -0.19347526
vt -0.32017493 -0.93350214
vt -0.31861916 -0.9341652
vt -0.0008162415 -0.19411814
vt -0.0008487482 -1.0305955
vt 0.00084797654 -1.0305955
vt 0.00081552105 -0.19411814
vt 0.3186184 -0.9341652
vt 0.3201742 -0.93350214
vt 0.002324443 -0.19347526
vt 0.5493295 -0.671994
vt 0.5469386 -0.6746961
vt 0.40392834 -0.19610184
vt 0.115950175 -0.19075955
vt 0.1871803 0.1842408
vt 0.18666086 -0.19075955
vt 0.12454994 0.15243778
vt 0.16912062 -0.043867987
vt 0.0822036 0.29135674
vt 0.2306668 -0.00905322
vt 0.035983756 0.23813711
vt 0.14874806 0.10577
vt -0.06395213 0.30132422
vt 0.1832232 0.16750705
vt -0.08078596 0.23268609
vt 0.08577925 0.21875924
vt -0.17724848 0.14968687
vt 0.067904785 0.28717345
vt -0.141877 0.08850634
vt -0.00670354 0.21962605
vt -0.19250642 -0.034368392
vt -0.055044323 0.27123195
vt -0.12997499 -0.06681946
vt -0.15261024 -0.06361458
vt 0.19050083 -0.12672593
vt -0.1845 -0.12672593
vt 0.19059879 -0.056603655
vt -0.115950644 -0.27484354
vt -0.27187818 -0.79585934
vt -0.18666133 -0.27484354
vt -0.2103766 -0.7651292
vt -0.29341647 -0.3447375
vt -0.15374988 -0.69303554
vt -0.35294738 -0.3820323
vt -0.108615726 -0.6392486
vt -0.23755611 -0.46544686
vt 0.05464162 -0.6641425
vt -0.2700276 -0.5277881
vt 0.06814113 -0.59515613
vt -0.07045073 -0.5810471
vt 0.26727244 -0.5114688
vt -0.056493815 -0.6499536
vt 0.23439653 -0.44935283
vt 0.09013871 -0.6165409
vt 0.32863244 -0.35388237
vt 0.13655119 -0.6693302
vt 0.26834103 -0.31799293
vt -0.7883118 0.042358246
vt -0.30201328 -0.025938133
vt -0.82982415 -0.014312329
vt -0.28911465 0.04135195
vt -0.353069 -0.3753911
vt -0.21951118 -0.7264737
vt -0.4147277 -0.41295648
vt -0.17210224 -0.6722915
vt 0.03879864 0.58619356
vt -0.30754656 0.65802544
vt 0.044593513 0.65802544
vt -0.29328933 0.5874429
vt 0.29328856 0.57362986
vt -0.044594284 0.6442228
vt 0.30754578 0.6442228
vt -0.038799413 0.57240146
vt 0.15850458 -0.65136045
vt 0.395339 -0.3867071
vt 0.20717505 -0.7045073
vt 0.33292243 -0.35056755
vt 0.7709141 0.08214854
vt 0.28354624 0.10404647
vt 0.81104976 0.14216582
vt 0.2729131 0.036406588
vt 0.17244868 -0.19083786
vt 0.24367882 0.18416263
vt 0.24315937 -0.19083786
vt 0.18104847 0.1523596
vt 0.21985042 -0.01879763
vt 0.13293341 0.316427
vt 0.2813966 0.016017135
vt 0.08671356 0.26320735
vt 0.17564926 0.15545821
vt -0.037050877 0.35101247
vt 0.21012443 0.21719526
vt -0.053884715 0.28237435
vt 0.057216436 0.26969117
vt -0.20581132 0.20061888
vt 0.039341982 0.33810538
vt -0.17043985 0.13943833
vt -0.06253539 0.2447403
vt -0.24833824 -0.009254278
vt -0.110876165 0.29634622
vt -0.06253539 0.2447403
vt -0.18580683 -0.04170534
vt -0.24833824 -0.009254278
vt 0.15261015 0.12691517
vt -0.19050081 0.19002652
vt 0.18449989 0.19002652
vt 0.15261015 0.12691517
vt -0.19059876 0.11990425
vt -0.19050081 0.19002652
vt -0.17244819 -0.24296719
vt -0.35894606 -0.75901616
vt -0.24315888 -0.24296719
vt -0.29549977 -0.72779185
vn -0.9999981 0 -0.0019589227
vn -0.9999981 0 -0.0019589227
vn -0.9999981 0 -0.0019589227
vn -0.9999981 0 -0.0019589227
vn -0.819232 0 0.57346225
vn -0.819232 0 0.57346225
vn -0.819232 0 0.57346225
vn -0.819232 0 0.57346225
vn -0.3574892 0 0.9339173
vn -0.3574892 0 0.9339173
vn -0.3574892 0 0.9339173
vn -0.3574892 0 0.9339173
vn 0.3574894 0 0.9339172
vn 0.3574894 0 0.9339172
vn 0.3574894 0 0.9339172
vn 0.3574894 0 0.9339172
vn 0.3574894 0 0.9339172
vn 0.3574894 0 0.9339172
vn 0.8192319 0 0.57346237
vn 0.8192319 0 0.57346237
vn 0.8192319 0 0.57346237
vn 0.8192319 0 0.57346237
vn 0.99999803 0 -0.0019590016
vn 0.99999803 0 -0.0019590016
vn 0.99999803 0 -0.0019590016
vn 0.99999803 0 -0.0019590016
vn 0.968889 0 0.24749564
vn 0.968889 0 0.24749562
vn 0.968889 0 0.24749562
vn 0.968889 0 0.2474956
vn 0.7432935 0 -0.6689655
vn 0.7432935 0 -0.6689655
vn 0.7432935 0 -0.6689655
vn 0.7432935 0 -0.6689655
vn 0.2853436 0 -0.95842534
vn 0.2853436 0 -0.95842534
vn 0.2853436 0 -0.95842534
vn 0.2853436 0 -0.95842534
vn -0.2853436 0 -0.95842534
vn -0.2853436 0 -0.95842534
vn -0.2853436 0 -0.95842534
vn -0.2853436 0 -0.95842534
vn -0.74329346 0 -0.6689655
vn -0.74329346 0 -0.6689655
vn -0.74329346 0 -0.6689655
vn -0.74329346 0 -0.6689655
vn -0.96888924 0 0.24749517
vn -0.9688891 0 0.24749516
vn -0.9688891 0 0.24749516
vn -0.9688891 0 0.24749516
vn -0 -1 0
vn -0 -1 0
vn -0 -1 0
vn -0 -1 0
vn -0 -1 0
vn -0 -1 0
vn -0 -1 0
vn -0 -1 0
vn -9.616354E-09 -0.997911 -0.06460506
vn -9.616354E-09 -0.997911 -0.06460506
vn -9.616354E-09 -0.997911 -0.06460506
vn 0.031659607 -0.9990925 -0.028493736
vn 0.031659607 -0.9990925 -0.028493736
vn 0.031659607 -0.9990925 -0.028493736
vn 0.011112044 -0.9992414 -0.037323598
vn 0.011112044 -0.9992414 -0.037323598
vn 0.011112044 -0.9992414 -0.037323598
vn -0.011112044 -0.9992415 -0.037323605
vn -0.011112044 -0.9992415 -0.037323605
vn -0.011112044 -0.9992415 -0.037323605
vn -0.03165961 -0.9990925 -0.028493738
vn -0.03165961 -0.9990925 -0.028493738
vn -0.03165961 -0.9990925 -0.028493738
vn -0 -0.997911 -0.06460502
vn -0 -0.997911 -0.06460502
vn -0 1 0
vn -0 1 0
vn -0 1 0
vn -0 1 0
vn -0 1 0
vn -0 1 0
vn -0 1 0
vn -0 1 0
vn 2.9204543E-09 0.9998042 0.019791331
vn 2.9204543E-09 0.9998042 0.019791331
vn 2.9204543E-09 0.9998042 0.019791331
vn -0.009688315 0.99991506 0.008719511
vn -0.009688315 0.99991506 0.008719511
vn -0.009688315 0.99991506 0.008719511
vn -0.003399998 0.999929 0.011420038
vn -0.003399998 0.999929 0.011420038
vn -0.003399998 0.999929 0.011420038
vn 0.003399998 0.999929 0.011420038
vn 0.003399998 0.999929 0.011420038
vn 0.003399998 0.999929 0.011420038
vn 0.009688315 0.99991506 0.0087195095
vn 0.009688315 0.99991506 0.0087195095
vn 0.009688315 0.99991506 0.0087195095
vn -0 0.99980414 0.01979132
vn -0 0.99980414 0.01979132
vn -0.75064 0.66057384 -0.013479292
vn -0.75064 0.66057384 -0.013479292
vn -0.707106 0.70710623 -0.0013851722
vn -0.8000986 0.59919804 -0.028354114
vn -0.60986876 0.67460865 0.4158886
vn -0.60986876 0.67460865 0.4158886
vn -0.5801874 0.70600295 0.40613106
vn -0.6430886 0.6361829 0.4262726
vn -0.26120797 0.69471 0.6701854
vn -0.26120797 0.69471 0.6701854
vn -0.25280467 0.7070463 0.6604357
vn -0.27043837 0.68075824 0.6807579
vn 0.26120815 0.69470996 0.6701853
vn 0.26120815 0.69470996 0.6701853
vn 0.26126838 0.6825464 0.6825462
vn 0.26106274 0.7071006 0.65715677
vn 0.60986865 0.6746087 0.41588867
vn 0.60986865 0.6746087 0.41588867
vn 0.62770677 0.6425857 0.43939477
vn 0.5909881 0.705177 0.39173785
vn 0.75064 0.6605739 -0.01347935
vn 0.75064 0.6605739 -0.01347935
vn 0.7922489 0.61019605 -0.00155202
vn 0.7068848 0.706885 -0.02505083
vn 0.7665332 0.6019426 0.22381243
vn 0.7665332 0.6019426 0.22381243
vn 0.69408363 0.69408387 0.19103813
vn 0.84367317 0.46890163 0.26143247
vn 0.5381054 0.69422406 -0.47801206
vn 0.5381054 0.69422406 -0.47801206
vn 0.5221778 0.711665 -0.46996102
vn 0.5554717 0.6742652 -0.486639
vn 0.20483664 0.7024754 -0.68159384
vn 0.20483664 0.7024754 -0.68159384
vn 0.20125687 0.70889485 -0.6759909
vn 0.20868254 0.69547623 -0.6875786
vn -0.20483664 0.7024754 -0.68159384
vn -0.20483664 0.7024754 -0.68159384
vn -0.20487522 0.69604844 -0.6881444
vn -0.20477812 0.70910823 -0.6747084
vn -0.5381055 0.69422406 -0.47801203
vn -0.5381055 0.69422406 -0.47801203
vn -0.54734373 0.67657214 -0.49261034
vn -0.5283975 0.7116997 -0.4629036
vn -0.7665332 0.6019427 0.22381207
vn -0.7665332 0.6019427 0.22381207
vn -0.8413187 0.49164975 0.22464065
vn -0.68981117 0.6898113 0.21982
vn -0.5514778 -0.6749415 -0.49023092
vn -0.5514778 -0.6749415 -0.49023092
vn -0.5366888 -0.6918496 -0.4830209
vn -0.56760794 -0.65564287 -0.49794942
vn -0.20969774 -0.68461156 -0.698093
vn -0.20969774 -0.68461156 -0.698093
vn -0.20630166 -0.6908546 -0.6929355
vn -0.21334663 -0.6778112 -0.7036016
vn 0.20969774 -0.68461156 -0.698093
vn 0.20969774 -0.68461156 -0.698093
vn 0.20964874 -0.67836636 -0.70417786
vn 0.20973182 -0.6910623 -0.6916976
vn 0.55147773 -0.6749415 -0.49023092
vn 0.55147773 -0.6749415 -0.49023092
vn 0.5597989 -0.65786815 -0.50382006
vn 0.5427292 -0.691885 -0.4761725
vn 0.7744741 -0.60799074 0.17474885
vn 0.7744741 -0.60799074 0.17474885
vn 0.8487063 -0.49555877 0.18471323
vn 0.6976071 -0.6976074 0.1633654
vn 0.75064 -0.6605739 -0.01347935
vn 0.75064 -0.6605739 -0.01347935
vn 0.70710605 -0.7071063 -0.0013852248
vn 0.80009866 -0.599198 -0.028354177
vn 0.60986865 -0.6746087 0.41588867
vn 0.60986865 -0.6746087 0.41588867
vn 0.58018726 -0.70600295 0.4061311
vn 0.64308846 -0.6361831 0.4262727
vn 0.26120815 -0.69470996 0.6701853
vn 0.26120815 -0.69470996 0.6701853
vn 0.2528048 -0.7070463 0.6604356
vn 0.27043855 -0.68075806 0.6807578
vn -0.261208 -0.69471 0.6701854
vn -0.261208 -0.69471 0.6701854
vn -0.2612682 -0.6825464 0.6825462
vn -0.2610626 -0.7071006 0.6571568
vn -0.60986876 -0.6746087 0.4158886
vn -0.60986876 -0.6746087 0.4158886
vn -0.62770694 -0.6425856 0.43939477
vn -0.60986876 -0.6746087 0.4158886
vn -0.59098816 -0.70517707 0.39173773
vn -0.60986876 -0.6746087 0.4158886
vn -0.75064 -0.66057384 -0.01347929
vn -0.75064 -0.66057384 -0.01347929
vn -0.7922489 -0.6101961 -0.0015519565
vn -0.75064 -0.66057384 -0.01347929
vn -0.70688474 -0.706885 -0.025050774
vn -0.75064 -0.66057384 -0.01347929
vn -0.7744741 -0.60799086 0.17474847
vn -0.7744741 -0.60799086 0.17474847
vn -0.7007642 -0.70076436 0.13363706
vn -0.85202605 -0.4731283 0.22405668
g pb_Mesh134480_0
f 3/3/3 2/2/2 1/1/1
f 3/3/3 4/4/4 2/2/2
f 7/7/7 6/6/6 5/5/5
f 7/7/7 8/8/8 6/6/6
f 11/11/11 10/10/10 9/9/9
f 11/11/11 12/12/12 10/10/10
f 15/15/15 14/14/14 13/13/13
f 18/18/18 17/17/17 16/16/16
f 21/21/21 20/20/20 19/19/19
f 21/21/21 22/22/22 20/20/20
f 25/25/25 24/24/24 23/23/23
f 25/25/25 26/26/26 24/24/24
f 29/29/29 28/28/28 27/27/27
f 29/29/29 30/30/30 28/28/28
f 33/33/33 32/32/32 31/31/31
f 33/33/33 34/34/34 32/32/32
f 37/37/37 36/36/36 35/35/35
f 37/37/37 38/38/38 36/36/36
f 41/41/41 40/40/40 39/39/39
f 41/41/41 42/42/42 40/40/40
f 45/45/45 44/44/44 43/43/43
f 45/45/45 46/46/46 44/44/44
f 49/49/49 48/48/48 47/47/47
f 49/49/49 50/50/50 48/48/48
f 53/53/53 52/52/52 51/51/51
f 51/51/51 52/52/52 54/54/54
f 54/54/54 52/52/52 55/55/55
f 55/55/55 52/52/52 56/56/56
f 56/56/56 52/52/52 57/57/57
f 57/57/57 52/52/52 58/58/58
f 61/61/61 60/60/60 59/59/59
f 64/64/64 63/63/63 62/62/62
f 67/67/67 66/66/66 65/65/65
f 70/70/70 69/69/69 68/68/68
f 73/73/73 72/72/72 71/71/71
f 75/75/75 60/60/60 74/74/74
f 78/78/78 77/77/77 76/76/76
f 79/79/79 77/77/77 78/78/78
f 80/80/80 77/77/77 79/79/79
f 81/81/81 77/77/77 80/80/80
f 82/82/82 77/77/77 81/81/81
f 83/83/83 77/77/77 82/82/82
f 86/86/86 85/85/85 84/84/84
f 89/89/89 88/88/88 87/87/87
f 92/92/92 91/91/91 90/90/90
f 95/95/95 94/94/94 93/93/93
f 98/98/98 97/97/97 96/96/96
f 100/100/100 85/85/85 99/99/99
f 103/103/103 102/102/102 101/101/101
f 102/102/102 104/104/104 101/101/101
f 107/107/107 106/106/106 105/105/105
f 106/106/106 108/108/108 105/105/105
f 111/111/111 110/110/110 109/109/109
f 110/110/110 112/112/112 109/109/109
f 115/115/115 114/114/114 113/113/113
f 114/114/114 116/116/116 113/113/113
f 119/119/119 118/118/118 117/117/117
f 118/118/118 120/120/120 117/117/117
f 123/123/123 122/122/122 121/121/121
f 122/122/122 124/124/124 121/121/121
f 127/127/127 126/126/126 125/125/125
f 126/126/126 128/128/128 125/125/125
f 131/131/131 130/130/130 129/129/129
f 130/130/130 132/132/132 129/129/129
f 135/135/135 134/134/134 133/133/133
f 134/134/134 136/136/136 133/133/133
f 139/139/139 138/138/138 137/137/137
f 138/138/138 140/140/140 137/137/137
f 143/143/143 142/142/142 141/141/141
f 142/142/142 144/144/144 141/141/141
f 147/147/147 146/146/146 145/145/145
f 146/146/146 148/148/148 145/145/145
f 151/151/151 150/150/150 149/149/149
f 150/150/150 152/152/152 149/149/149
f 155/155/155 154/154/154 153/153/153
f 154/154/154 156/156/156 153/153/153
f 159/159/159 158/158/158 157/157/157
f 158/158/158 160/160/160 157/157/157
f 163/163/163 162/162/162 161/161/161
f 162/162/162 164/164/164 161/161/161
f 167/167/167 166/166/166 165/165/165
f 166/166/166 168/168/168 165/165/165
f 171/171/171 170/170/170 169/169/169
f 170/170/170 172/172/172 169/169/169
f 175/175/175 174/174/174 173/173/173
f 174/174/174 176/176/176 173/173/173
f 179/179/179 178/178/178 177/177/177
f 178/178/178 180/180/180 177/177/177
f 183/183/183 182/182/182 181/181/181
f 182/182/182 184/184/184 181/181/181
f 187/187/187 186/186/186 185/185/185
f 190/190/190 189/189/189 188/188/188
f 193/193/193 192/192/192 191/191/191
f 196/196/196 195/195/195 194/194/194
f 199/199/199 198/198/198 197/197/197
f 198/198/198 200/200/200 197/197/197
