g pb_Mesh134026
v -0.08 0.05792944 -1.603806E-09
v -0.08 0.3473345 -1.603806E-09
v -0.06472136 0.05792944 0.04702282
v -0.06472136 0.3473345 0.04702282
v -0.06472136 0.05792944 0.04702282
v -0.06472136 0.3473345 0.04702282
v -0.024721358 0.05792944 0.076084524
v -0.024721358 0.3473345 0.076084524
v -0.024721358 0.05792944 0.076084524
v -0.024721358 0.3473345 0.076084524
v 0.024721358 0.05792944 0.076084524
v 0.024721358 0.3473345 0.076084524
v 0.024721358 0.05792944 0.076084524
v 0.024721358 0.3473345 0.076084524
v 0.06472137 0.05792944 0.047022816
v 0.06472137 0.3473345 0.047022816
v 0.06472137 0.05792944 0.047022816
v 0.06472137 0.3473345 0.047022816
v 0.080000006 0.05792944 -8.597628E-09
v 0.080000006 0.3473345 -8.597628E-09
v 0.080000006 0.05792944 -8.597628E-09
v 0.080000006 0.3473345 -8.597628E-09
v 0.06472137 0.05792944 -0.047022812
v 0.06472137 0.3473345 -0.047022812
v 0.06472137 0.05792944 -0.047022812
v 0.06472137 0.3473345 -0.047022812
v 0.02472137 0.05792944 -0.076084524
v 0.02472137 0.3473345 -0.076084524
v 0.02472137 0.05792944 -0.076084524
v 0.02472137 0.3473345 -0.076084524
v -0.02472137 0.05792944 -0.076084524
v -0.02472137 0.3473345 -0.076084524
v -0.02472137 0.05792944 -0.076084524
v -0.02472137 0.3473345 -0.076084524
v -0.06472136 0.05792944 -0.047022827
v -0.06472136 0.3473345 -0.047022827
v -0.06472136 0.05792944 -0.047022827
v -0.06472136 0.3473345 -0.047022827
v -0.08 0.05792944 -1.603806E-09
v -0.08 0.3473345 -1.603806E-09
v -0.06472136 0.05792944 0.04702282
v 1.0397696E-09 0.05792944 -1.603806E-09
v -0.08 0.05792944 -1.603806E-09
v -0.024721358 0.05792944 0.076084524
v 0.024721358 0.05792944 0.076084524
v 1.0397696E-09 0.05792944 -1.603806E-09
v -0.024721358 0.05792944 0.076084524
v 0.06472137 0.05792944 0.047022816
v 0.024721358 0.05792944 0.076084524
v 0.080000006 0.05792944 -8.597628E-09
v 0.06472137 0.05792944 -0.047022812
v 0.080000006 0.05792944 -8.597628E-09
v 0.02472137 0.05792944 -0.076084524
v 0.06472137 0.05792944 -0.047022812
v -0.02472137 0.05792944 -0.076084524
v 0.02472137 0.05792944 -0.076084524
v -0.06472136 0.05792944 -0.047022827
v -0.06472136 0.05792944 -0.047022827
v -0.111999996 0.4190126 -1.4448602E-09
v 8.01351E-10 0.4190126 -1.4448602E-09
v -0.09060991 0.4190126 0.065831944
v -0.034609903 0.4190126 0.106518336
v 0.0346099 0.4190126 0.106518336
v 0.09060991 0.4190126 0.065831944
v 0.09060991 0.4190126 0.065831944
v 8.01351E-10 0.4190126 -1.4448602E-09
v 0.11200001 0.4190126 -1.1236211E-08
v 0.11200001 0.4190126 -1.1236211E-08
v 0.09060991 0.4190126 -0.06583194
v 0.034609914 0.4190126 -0.10651833
v 0.034609914 0.4190126 -0.10651833
v -0.03460992 0.4190126 -0.10651833
v -0.03460992 0.4190126 -0.10651833
v -0.0906099 0.4190126 -0.06583196
v -0.08 0.3473345 -1.603806E-09
v -0.06472136 0.3473345 -0.047022827
v -0.111999996 0.34741446 -1.4448602E-09
v -0.0906099 0.34741446 -0.06583196
v -0.06472136 0.3473345 0.04702282
v -0.08 0.3473345 -1.603806E-09
v -0.09060991 0.34741446 0.065831944
v -0.111999996 0.34741446 -1.4448602E-09
v -0.06472136 0.3473345 -0.047022827
v -0.02472137 0.3473345 -0.076084524
v -0.0906099 0.34741446 -0.06583196
v -0.03460992 0.34741446 -0.10651833
v -0.02472137 0.3473345 -0.076084524
v 0.02472137 0.3473345 -0.076084524
v -0.03460992 0.34741446 -0.10651833
v 0.034609914 0.34741446 -0.10651833
v 0.02472137 0.3473345 -0.076084524
v 0.06472137 0.3473345 -0.047022812
v 0.034609914 0.34741446 -0.10651833
v 0.09060991 0.34741446 -0.06583194
v 0.06472137 0.3473345 -0.047022812
v 0.080000006 0.3473345 -8.597628E-09
v 0.09060991 0.34741446 -0.06583194
v 0.11200001 0.34741446 -1.1236211E-08
v 0.080000006 0.3473345 -8.597628E-09
v 0.06472137 0.3473345 0.047022816
v 0.11200001 0.34741446 -1.1236211E-08
v 0.09060991 0.34741446 0.065831944
v 0.06472137 0.3473345 0.047022816
v 0.024721358 0.3473345 0.076084524
v 0.09060991 0.34741446 0.065831944
v 0.0346099 0.34741446 0.106518336
v 0.024721358 0.3473345 0.076084524
v -0.024721358 0.3473345 0.076084524
v 0.0346099 0.34741446 0.106518336
v -0.034609903 0.34741446 0.106518336
v -0.024721358 0.3473345 0.076084524
v -0.06472136 0.3473345 0.04702282
v -0.034609903 0.34741446 0.106518336
v -0.09060991 0.34741446 0.065831944
v -0.111999996 0.34741446 -1.4448602E-09
v -0.0906099 0.34741446 -0.06583196
v -0.111999996 0.4190126 -1.4448602E-09
v -0.0906099 0.4190126 -0.06583196
v -0.09060991 0.34741446 0.065831944
v -0.111999996 0.34741446 -1.4448602E-09
v -0.09060991 0.4190126 0.065831944
v -0.111999996 0.4190126 -1.4448602E-09
v -0.0906099 0.34741446 -0.06583196
v -0.03460992 0.34741446 -0.10651833
v -0.0906099 0.4190126 -0.06583196
v -0.03460992 0.4190126 -0.10651833
v -0.03460992 0.34741446 -0.10651833
v 0.034609914 0.34741446 -0.10651833
v -0.03460992 0.4190126 -0.10651833
v 0.034609914 0.4190126 -0.10651833
v 0.034609914 0.34741446 -0.10651833
v 0.09060991 0.34741446 -0.06583194
v 0.034609914 0.4190126 -0.10651833
v 0.09060991 0.4190126 -0.06583194
v 0.09060991 0.34741446 -0.06583194
v 0.11200001 0.34741446 -1.1236211E-08
v 0.09060991 0.4190126 -0.06583194
v 0.11200001 0.4190126 -1.1236211E-08
v 0.11200001 0.34741446 -1.1236211E-08
v 0.09060991 0.34741446 0.065831944
v 0.11200001 0.4190126 -1.1236211E-08
v 0.09060991 0.4190126 0.065831944
v 0.09060991 0.34741446 0.065831944
v 0.0346099 0.34741446 0.106518336
v 0.09060991 0.4190126 0.065831944
v 0.0346099 0.4190126 0.106518336
v 0.0346099 0.34741446 0.106518336
v -0.034609903 0.34741446 0.106518336
v 0.0346099 0.4190126 0.106518336
v -0.034609903 0.4190126 0.106518336
v -0.034609903 0.34741446 0.106518336
v -0.09060991 0.34741446 0.065831944
v -0.034609903 0.4190126 0.106518336
v -0.09060991 0.4190126 0.065831944
vt -0.024721356 0.05792944
vt -0.024721356 0.3473345
vt 0.024721364 0.05792944
vt 0.024721364 0.3473345
vt -0.02472136 0.05792944
vt -0.02472136 0.3473345
vt 0.024721365 0.05792944
vt 0.024721365 0.3473345
vt -0.024721358 0.05792944
vt -0.024721358 0.3473345
vt 0.024721358 0.05792944
vt 0.024721358 0.3473345
vt -0.024721365 0.05792944
vt -0.024721365 0.3473345
vt 0.024721367 0.05792944
vt 0.024721367 0.3473345
vt -0.02472136 0.05792944
vt -0.02472136 0.3473345
vt 0.024721364 0.05792944
vt 0.024721364 0.3473345
vt -0.024721356 0.05792944
vt -0.024721356 0.3473345
vt 0.024721349 0.05792944
vt 0.024721349 0.3473345
vt -0.024721356 0.05792944
vt -0.024721356 0.3473345
vt 0.02472137 0.05792944
vt 0.02472137 0.3473345
vt -0.02472137 0.05792944
vt -0.02472137 0.3473345
vt 0.02472137 0.05792944
vt 0.02472137 0.3473345
vt -0.024721358 0.05792944
vt -0.024721358 0.3473345
vt 0.024721354 0.05792944
vt 0.024721354 0.3473345
vt -0.024721375 0.05792944
vt -0.024721375 0.3473345
vt 0.024721349 0.05792944
vt 0.024721349 0.3473345
vt -0.06472136 0.04702282
vt 1.0397696E-09 -1.603806E-09
vt -0.08 -1.603806E-09
vt -0.024721358 0.076084524
vt 0.024721358 0.076084524
vt 1.0397696E-09 -1.603806E-09
vt -0.024721358 0.076084524
vt 0.06472137 0.047022816
vt 0.024721358 0.076084524
vt 0.080000006 -8.597628E-09
vt 0.06472137 -0.047022812
vt 0.080000006 -8.597628E-09
vt 0.02472137 -0.076084524
vt 0.06472137 -0.047022812
vt -0.02472137 -0.076084524
vt 0.02472137 -0.076084524
vt -0.06472136 -0.047022827
vt -0.06472136 -0.047022827
vt 0.111999996 -1.4448602E-09
vt -8.01351E-10 -1.4448602E-09
vt 0.09060991 0.065831944
vt 0.034609903 0.106518336
vt -0.0346099 0.106518336
vt -0.09060991 0.065831944
vt -0.09060991 0.065831944
vt -8.01351E-10 -1.4448602E-09
vt -0.11200001 -1.1236211E-08
vt -0.11200001 -1.1236211E-08
vt -0.09060991 -0.06583194
vt -0.034609914 -0.10651833
vt -0.034609914 -0.10651833
vt 0.03460992 -0.10651833
vt 0.03460992 -0.10651833
vt 0.0906099 -0.06583196
vt -0.08086765 -0.00028183457
vt -0.065589055 -0.047304675
vt -0.11286774 -0.0002818344
vt -0.091477714 -0.066113815
vt -0.065589055 0.047304668
vt -0.08086765 0.00028183134
vt -0.09147772 0.0661138
vt -0.11286774 0.0002818315
vt -0.065257676 -0.047760785
vt -0.025257729 -0.07682255
vt -0.091146305 -0.06656996
vt -0.035146393 -0.10725643
vt -0.02472137 -0.076996826
vt 0.02472137 -0.076996826
vt -0.03460992 -0.107430734
vt 0.034609914 -0.107430734
vt 0.025257729 -0.07682255
vt 0.06525768 -0.04776077
vt 0.035146385 -0.10725642
vt 0.09114631 -0.06656993
vt 0.06558906 -0.04730466
vt 0.080867656 -0.0002818417
vt 0.09147772 -0.06611379
vt 0.11286776 -0.00028184432
vt 0.080867656 0.00028182432
vt 0.06558906 0.047304664
vt 0.11286776 0.00028182167
vt 0.09147772 0.0661138
vt 0.06525768 0.047760773
vt 0.025257718 0.07682255
vt 0.09114631 0.06656995
vt 0.03514637 0.107256435
vt 0.024721358 0.076996826
vt -0.024721358 0.076996826
vt 0.0346099 0.10743074
vt -0.034609903 0.10743074
vt -0.025257718 0.07682255
vt -0.065257676 0.047760777
vt -0.035146374 0.107256435
vt -0.09114631 0.06656995
vt 0.03460989 0.34741446
vt -0.034609925 0.34741446
vt 0.03460989 0.4190126
vt -0.034609925 0.4190126
vt 0.03460991 0.34741446
vt -0.03460989 0.34741446
vt 0.03460991 0.4190126
vt -0.03460989 0.4190126
vt 0.03460989 0.34741446
vt -0.03460989 0.34741446
vt 0.03460989 0.4190126
vt -0.03460989 0.4190126
vt 0.03460992 0.34741446
vt -0.034609914 0.34741446
vt 0.03460992 0.4190126
vt -0.034609914 0.4190126
vt 0.034609914 0.34741446
vt -0.0346099 0.34741446
vt 0.034609914 0.4190126
vt -0.0346099 0.4190126
vt 0.03460987 0.34741446
vt -0.03460992 0.34741446
vt 0.03460987 0.4190126
vt -0.03460992 0.4190126
vt 0.03460992 0.34741446
vt -0.034609895 0.34741446
vt 0.03460992 0.4190126
vt -0.034609895 0.4190126
vt 0.034609906 0.34741446
vt -0.034609914 0.34741446
vt 0.034609906 0.4190126
vt -0.034609914 0.4190126
vt 0.0346099 0.34741446
vt -0.034609903 0.34741446
vt 0.0346099 0.4190126
vt -0.034609903 0.4190126
vt 0.034609914 0.34741446
vt -0.034609906 0.34741446
vt 0.034609914 0.4190126
vt -0.034609906 0.4190126
vn -0.9510566 0 1.4901161E-08
vn -0.9510566 0 1.4901161E-08
vn -0.76942086 0 0.55901694
vn -0.76942086 0 0.55901694
vn -0.76942086 0 0.55901694
vn -0.76942086 0 0.55901694
vn -0.29389262 0 0.9045085
vn -0.29389262 0 0.9045085
vn -0.29389262 0 0.9045085
vn -0.29389262 0 0.9045085
vn 0.29389262 0 0.9045085
vn 0.29389262 0 0.9045085
vn 0.29389262 0 0.9045085
vn 0.29389262 0 0.9045085
vn 0.76942086 0 0.55901694
vn 0.76942086 0 0.55901694
vn 0.76942086 0 0.55901694
vn 0.76942086 0 0.55901694
vn 0.95105654 0 -5.9604645E-08
vn 0.95105654 0 -5.9604645E-08
vn 0.95105654 0 -5.9604645E-08
vn 0.95105654 0 -5.9604645E-08
vn 0.769421 0 -0.559017
vn 0.769421 0 -0.559017
vn 0.769421 0 -0.559017
vn 0.769421 0 -0.559017
vn 0.29389274 0 -0.9045085
vn 0.29389274 0 -0.9045085
vn 0.29389274 0 -0.9045085
vn 0.29389274 0 -0.9045085
vn -0.29389265 0 -0.90450853
vn -0.29389265 0 -0.90450853
vn -0.29389265 0 -0.90450853
vn -0.29389265 0 -0.90450853
vn -0.769421 0 -0.559017
vn -0.769421 0 -0.559017
vn -0.769421 0 -0.559017
vn -0.769421 0 -0.559017
vn -0.9510566 0 1.4901161E-08
vn -0.9510566 0 1.4901161E-08
vn -0 -1 0
vn -0 -1 0
vn -0 -1 0
vn -0 -1 0
vn -0 -0.99999994 0
vn -0 -0.99999994 0
vn -0 -0.99999994 0
vn -0 -1 0
vn -0 -1 0
vn -0 -1 0
vn -0 -0.99999994 0
vn -0 -0.99999994 0
vn -0 -1 0
vn -0 -1 0
vn -0 -0.99999994 0
vn -0 -0.99999994 0
vn -0 -0.99999994 0
vn -0 -1 0
vn -0 1 0
vn -0 1 0
vn -0 1 0
vn -0 1 0
vn -0 1 0
vn -0 1 0
vn -0 0.99999994 0
vn -0 0.99999994 0
vn -0 0.99999994 0
vn -0 1 0
vn -0 1 0
vn -0 1 0
vn -0 0.99999994 0
vn -0 0.99999994 0
vn -0 1 0
vn -0 1 0
vn -0.00249873 -0.99999654 -0.00081188633
vn -0.0024987303 -0.99999654 -0.0008118864
vn -0.0024987303 -0.99999654 -0.0008118864
vn -0.0024987303 -0.99999654 -0.0008118865
vn -0.0024987299 -0.99999654 0.0008118864
vn -0.00249873 -0.99999654 0.00081188633
vn -0.00249873 -0.99999654 0.00081188633
vn -0.00249873 -0.99999654 0.00081188633
vn -0.0015443 -0.99999654 -0.0021255463
vn -0.0015442999 -0.99999654 -0.0021255463
vn -0.0015442999 -0.99999654 -0.0021255463
vn -0.0015443001 -0.9999966 -0.0021255466
vn -0 -0.9999965 -0.0026273204
vn -0 -0.9999965 -0.0026273204
vn -0 -0.9999965 -0.0026273204
vn -0 -0.99999654 -0.0026273206
vn 0.0015443006 -0.99999654 -0.0021255466
vn 0.0015443005 -0.99999654 -0.0021255466
vn 0.0015443005 -0.99999654 -0.0021255466
vn 0.0015443005 -0.99999654 -0.0021255466
vn 0.0024987303 -0.99999654 -0.0008118868
vn 0.0024987299 -0.99999654 -0.0008118868
vn 0.0024987299 -0.99999654 -0.0008118868
vn 0.0024987294 -0.99999654 -0.0008118868
vn 0.0024987294 -0.9999965 0.00081188616
vn 0.0024987299 -0.99999654 0.00081188657
vn 0.0024987299 -0.99999654 0.00081188657
vn 0.00249873 -0.99999654 0.0008118867
vn 0.0015443 -0.9999965 0.0021255466
vn 0.0015443 -0.9999965 0.0021255466
vn 0.0015443 -0.9999965 0.0021255466
vn 0.0015443001 -0.99999654 0.0021255466
vn -0 -0.99999654 0.0026273197
vn -0 -0.99999654 0.0026273197
vn -0 -0.99999654 0.0026273197
vn -0 -0.99999654 0.0026273197
vn -0.0015442999 -0.9999965 0.002125546
vn -0.0015442999 -0.9999965 0.002125546
vn -0.0015442999 -0.9999965 0.002125546
vn -0.0015443 -0.99999654 0.0021255463
vn -0.95105654 0 -0.3090169
vn -0.95105654 0 -0.3090169
vn -0.95105654 0 -0.3090169
vn -0.95105654 0 -0.3090169
vn -0.9510565 0 0.30901688
vn -0.9510565 0 0.30901688
vn -0.9510565 0 0.30901688
vn -0.9510565 0 0.30901688
vn -0.58778524 0 -0.80901694
vn -0.58778524 0 -0.80901694
vn -0.58778524 0 -0.80901694
vn -0.58778524 0 -0.80901694
vn -0 0 -1
vn -0 0 -1
vn -0 0 -1
vn -0 0 -1
vn 0.58778536 0 -0.8090168
vn 0.58778536 0 -0.8090168
vn 0.58778536 0 -0.8090168
vn 0.58778536 0 -0.8090168
vn 0.9510565 0 -0.3090172
vn 0.9510565 0 -0.3090172
vn 0.9510565 0 -0.3090172
vn 0.9510565 0 -0.3090172
vn 0.95105654 0 0.30901703
vn 0.95105654 0 0.30901703
vn 0.95105654 0 0.30901703
vn 0.95105654 0 0.30901703
vn 0.5877853 0 0.80901694
vn 0.5877853 0 0.80901694
vn 0.5877853 0 0.80901694
vn 0.5877853 0 0.80901694
vn -0 0 1
vn -0 0 1
vn -0 0 1
vn -0 0 1
vn -0.5877853 0 0.80901694
vn -0.5877853 0 0.80901694
vn -0.5877853 0 0.80901694
vn -0.5877853 0 0.80901694
g pb_Mesh134026_0
f 3/3/3 2/2/2 1/1/1
f 3/3/3 4/4/4 2/2/2
f 7/7/7 6/6/6 5/5/5
f 7/7/7 8/8/8 6/6/6
f 11/11/11 10/10/10 9/9/9
f 11/11/11 12/12/12 10/10/10
f 15/15/15 14/14/14 13/13/13
f 15/15/15 16/16/16 14/14/14
f 19/19/19 18/18/18 17/17/17
f 19/19/19 20/20/20 18/18/18
f 23/23/23 22/22/22 21/21/21
f 23/23/23 24/24/24 22/22/22
f 27/27/27 26/26/26 25/25/25
f 27/27/27 28/28/28 26/26/26
f 31/31/31 30/30/30 29/29/29
f 31/31/31 32/32/32 30/30/30
f 35/35/35 34/34/34 33/33/33
f 35/35/35 36/36/36 34/34/34
f 39/39/39 38/38/38 37/37/37
f 39/39/39 40/40/40 38/38/38
f 43/43/43 42/42/42 41/41/41
f 41/41/41 42/42/42 44/44/44
f 47/47/47 46/46/46 45/45/45
f 49/49/49 42/42/42 48/48/48
f 48/48/48 42/42/42 50/50/50
f 52/52/52 46/46/46 51/51/51
f 54/54/54 42/42/42 53/53/53
f 56/56/56 46/46/46 55/55/55
f 55/55/55 46/46/46 57/57/57
f 58/58/58 42/42/42 43/43/43
f 61/61/61 60/60/60 59/59/59
f 62/62/62 60/60/60 61/61/61
f 63/63/63 60/60/60 62/62/62
f 64/64/64 60/60/60 63/63/63
f 67/67/67 66/66/66 65/65/65
f 69/69/69 60/60/60 68/68/68
f 70/70/70 60/60/60 69/69/69
f 72/72/72 66/66/66 71/71/71
f 74/74/74 60/60/60 73/73/73
f 59/59/59 60/60/60 74/74/74
f 77/77/77 76/76/76 75/75/75
f 77/77/77 78/78/78 76/76/76
f 81/81/81 80/80/80 79/79/79
f 81/81/81 82/82/82 80/80/80
f 85/85/85 84/84/84 83/83/83
f 85/85/85 86/86/86 84/84/84
f 89/89/89 88/88/88 87/87/87
f 89/89/89 90/90/90 88/88/88
f 93/93/93 92/92/92 91/91/91
f 93/93/93 94/94/94 92/92/92
f 97/97/97 96/96/96 95/95/95
f 97/97/97 98/98/98 96/96/96
f 101/101/101 100/100/100 99/99/99
f 101/101/101 102/102/102 100/100/100
f 105/105/105 104/104/104 103/103/103
f 105/105/105 106/106/106 104/104/104
f 109/109/109 108/108/108 107/107/107
f 109/109/109 110/110/110 108/108/108
f 113/113/113 112/112/112 111/111/111
f 113/113/113 114/114/114 112/112/112
f 117/117/117 116/116/116 115/115/115
f 117/117/117 118/118/118 116/116/116
f 121/121/121 120/120/120 119/119/119
f 121/121/121 122/122/122 120/120/120
f 125/125/125 124/124/124 123/123/123
f 125/125/125 126/126/126 124/124/124
f 129/129/129 128/128/128 127/127/127
f 129/129/129 130/130/130 128/128/128
f 133/133/133 132/132/132 131/131/131
f 133/133/133 134/134/134 132/132/132
f 137/137/137 136/136/136 135/135/135
f 137/137/137 138/138/138 136/136/136
f 141/141/141 140/140/140 139/139/139
f 141/141/141 142/142/142 140/140/140
f 145/145/145 144/144/144 143/143/143
f 145/145/145 146/146/146 144/144/144
f 149/149/149 148/148/148 147/147/147
f 149/149/149 150/150/150 148/148/148
f 153/153/153 152/152/152 151/151/151
f 153/153/153 154/154/154 152/152/152
