g pb_Mesh153336
v 3.500001 -0.5 15.389082
v -12.499999 -0.5 10.722001
v 3.500001 0.5 15.389082
v -12.499999 -0.5 10.722001
v -12.499999 0.5 10.722001
v 3.500001 0.5 15.389082
v -12.499999 -0.5 10.722001
v -12.499997 -0.5 -15.090013
v -12.499999 0.5 10.722001
v -12.499997 -0.5 -15.090013
v -12.499997 0.5 -15.090013
v -12.499999 0.5 10.722001
v -12.499997 -0.5 -15.090013
v 3.5000029 -0.5 -15.089999
v -12.499997 0.5 -15.090013
v 3.5000029 -0.5 -15.089999
v 3.5000029 0.5 -15.089999
v -12.499997 0.5 -15.090013
v 3.5000029 -0.5 -15.089999
v 3.500001 -0.5 15.389082
v 3.5000029 0.5 -15.089999
v 3.500001 -0.5 15.389082
v 3.500001 0.5 15.389082
v 3.5000029 0.5 -15.089999
v 3.500001 0.5 15.389082
v -12.499999 0.5 10.722001
v 3.5000029 0.5 -15.089999
v -12.499997 0.5 -15.090013
v 3.5000029 -0.5 -15.089999
v -12.499997 -0.5 -15.090013
v 3.500001 -0.5 15.389082
v -12.499999 -0.5 10.722001
vt 0.35638 0.27283102
vt 0.3646884 0.2704076
vt 0.35638 0.27283102
vt 0.3646884 0.2704076
vt 0.3646884 0.2704076
vt 0.35638 0.27283102
vt 0.3646884 0.2704076
vt 0.3646884 0.25700444
vt 0.3646884 0.2704076
vt 0.3646884 0.25700444
vt 0.3646884 0.25700444
vt 0.3646884 0.2704076
vt 0.3646884 0.25700444
vt 0.35638 0.25700447
vt 0.3646884 0.25700444
vt 0.35638 0.25700447
vt 0.35638 0.25700447
vt 0.3646884 0.25700444
vt 0.35638 0.25700447
vt 0.35638 0.27283102
vt 0.35638 0.25700447
vt 0.35638 0.27283102
vt 0.35638 0.27283102
vt 0.35638 0.25700447
vt 0.35638 0.27283102
vt 0.3646884 0.2704076
vt 0.35638 0.25700447
vt 0.3646884 0.25700444
vt 0.35638 0.25700447
vt 0.3646884 0.25700444
vt 0.35638 0.27283102
vt 0.3646884 0.2704076
vn -0.28002292 0 0.95999336
vn -0.28002292 0 0.95999336
vn -0.28002292 0 0.95999336
vn -0.28002292 0 0.95999336
vn -0.28002292 0 0.95999336
vn -0.28002292 0 0.95999336
vn -1 0 -7.389384E-08
vn -1 0 -7.389384E-08
vn -1 0 -7.389384E-08
vn -1 0 -7.389384E-08
vn -1 0 -7.389384E-08
vn -1 0 -7.389384E-08
vn 8.34465E-07 0 -1
vn 8.34465E-07 0 -1
vn 8.34465E-07 0 -1
vn 8.34465E-07 0 -1
vn 8.34465E-07 0 -1
vn 8.34465E-07 0 -1
vn 0.99999994 0 6.257894E-08
vn 0.99999994 0 6.257894E-08
vn 0.99999994 0 6.257894E-08
vn 0.99999994 0 6.257894E-08
vn 0.99999994 0 6.257894E-08
vn 0.99999994 0 6.257894E-08
vn -0 0.99999994 0
vn -0 0.99999994 0
vn -0 0.99999994 0
vn -0 1 0
vn -0 -0.99999994 0
vn -0 -0.99999994 0
vn -0 -0.99999994 0
vn -0 -1 0
g pb_Mesh153336_0
f 3/3/3 2/2/2 1/1/1
f 6/6/6 5/5/5 4/4/4
f 9/9/9 8/8/8 7/7/7
f 12/12/12 11/11/11 10/10/10
f 15/15/15 14/14/14 13/13/13
f 18/18/18 17/17/17 16/16/16
f 21/21/21 20/20/20 19/19/19
f 24/24/24 23/23/23 22/22/22
f 27/27/27 26/26/26 25/25/25
f 27/27/27 28/28/28 26/26/26
f 31/31/31 30/30/30 29/29/29
f 31/31/31 32/32/32 30/30/30
