g pb_Mesh-4558660
v -1.4606329 -2.5 0.25
v -1.4606329 0 0.25
v -0.853553 -2.5 2.2464824
v -0.853553 0 2.2464824
v -0.853553 -2.5 2.2464824
v -0.853553 0 2.2464824
v -3.2390652E-08 -2.5 2.892929
v -3.2390652E-08 0 2.892929
v -3.2390652E-08 -2.5 2.892929
v -3.2390652E-08 0 2.892929
v 0.9393055 -2.5 2.1375346
v 0.9393055 0 2.1375346
v 0.9393055 -2.5 2.1375346
v 0.9393055 0 2.1375346
v 1.4489177 -2.5 0.24999996
v 1.4489177 0 0.24999996
v 1.4489177 -2.5 0.24999996
v 1.4489177 0 0.24999996
v 1.9936576 -2.5 -1.8530803
v 1.9936576 0 -1.8530803
v 1.9936576 -2.5 -1.8530803
v 1.9936576 0 -1.8530803
v -5.9624403E-09 -2.5 -1
v -5.9624403E-09 0 -1
v -5.9624403E-09 -2.5 -1
v -5.9624403E-09 0 -1
v -1.9585125 -2.5 -1.6773525
v -1.9585125 0 -1.6773525
v -1.9585125 -2.5 -1.6773525
v -1.9585125 0 -1.6773525
v -1.4606329 -2.5 0.25
v -1.4606329 0 0.25
v -0.853553 -2.5 2.2464824
v 1.2665986E-07 -2.5 0.25
v -1.4606329 -2.5 0.25
v -3.2390652E-08 -2.5 2.892929
v 0.9393055 -2.5 2.1375346
v 1.4489177 -2.5 0.24999996
v 1.9936576 -2.5 -1.8530803
v -5.9624403E-09 -2.5 -1
v -1.9585125 -2.5 -1.6773525
v -1.4606329 0 0.25
v 1.2665986E-07 0 0.25
v -0.853553 0 2.2464824
v -3.2390652E-08 0 2.892929
v 0.9393055 0 2.1375346
v 1.4489177 0 0.24999996
v 1.9936576 0 -1.8530803
v -5.9624403E-09 0 -1
v -1.9585125 0 -1.6773525
vt -0.18574432 -2.5
vt -0.18574432 0
vt 1.9009967 -2.5
vt 1.9009967 0
vt 0.675879 -2.5
vt 0.675879 0
vt 1.7466012 -2.5
vt 1.7466012 0
vt -1.8129733 -2.5
vt -1.8129733 0
vt -0.6076037 -2.5
vt -0.6076037 0
vt -1.8188092 -2.5
vt -1.8188092 0
vt 0.13631022 -2.5
vt 0.13631022 0
vt 0.12129576 -2.5
vt 0.12129576 0
vt 2.29378 -2.5
vt 2.29378 0
vt -2.561901 -2.5
vt -2.561901 0
vt -0.39339545 -2.5
vt -0.39339545 0
vt 0.32685456 -2.5
vt 0.32685456 0
vt 2.399191 -2.5
vt 2.399191 0
vt -2.1138897 -2.5
vt -2.1138897 0
vt -0.12326868 -2.5
vt -0.12326868 0
vt -0.853553 2.2464824
vt 1.2665986E-07 0.25
vt -1.4606329 0.25
vt -3.2390652E-08 2.892929
vt 0.9393055 2.1375346
vt 1.4489177 0.24999996
vt 1.9936576 -1.8530803
vt -5.9624403E-09 -1
vt -1.9585125 -1.6773525
vt 1.4606329 0.25
vt -1.2665986E-07 0.25
vt 0.853553 2.2464824
vt 3.2390652E-08 2.892929
vt -0.9393055 2.1375346
vt -1.4489177 0.24999996
vt -1.9936576 -1.8530803
vt 5.9624403E-09 -1
vt 1.9585125 -1.6773525
vn -0.9626979 0 0.27057838
vn -0.9626979 0 0.27057838
vn -0.82027984 0 0.57196236
vn -0.82027984 0 0.57196236
vn -0.82027984 0 0.57196236
vn -0.82027984 0 0.57196236
vn 0.014552011 0 0.99989414
vn 0.014552011 0 0.99989414
vn 0.014552011 0 0.99989414
vn 0.014552011 0 0.99989414
vn 0.8372298 0 0.5468513
vn 0.8372298 0 0.5468513
vn 0.8372298 0 0.5468513
vn 0.8372298 0 0.5468513
vn 0.9667553 0 0.2557036
vn 0.9667553 0 0.2557036
vn 0.9667553 0 0.2557036
vn 0.9667553 0 0.2557036
vn 0.65180504 0 -0.7583866
vn 0.65180504 0 -0.7583866
vn 0.65180504 0 -0.7583866
vn 0.65180504 0 -0.7583866
vn -0.035666697 0 -0.9993638
vn -0.035666697 0 -0.9993638
vn -0.035666697 0 -0.9993638
vn -0.035666697 0 -0.9993638
vn -0.6781995 0 -0.7348778
vn -0.6781995 0 -0.7348778
vn -0.6781995 0 -0.7348778
vn -0.6781995 0 -0.7348778
vn -0.9626979 0 0.27057838
vn -0.9626979 0 0.27057838
vn -0 -1 0
vn -0 -1 0
vn -0 -1 0
vn -0 -1 0
vn -0 -1 0
vn -0 -1 0
vn -0 -1 0
vn -0 -1 0
vn -0 -1 0
vn -0 1 0
vn -0 1 0
vn -0 1 0
vn -0 1 0
vn -0 1 0
vn -0 1 0
vn -0 1 0
vn -0 1 0
vn -0 1 0
g pb_Mesh-4558660_0
f 3/3/3 2/2/2 1/1/1
f 3/3/3 4/4/4 2/2/2
f 7/7/7 6/6/6 5/5/5
f 7/7/7 8/8/8 6/6/6
f 11/11/11 10/10/10 9/9/9
f 11/11/11 12/12/12 10/10/10
f 15/15/15 14/14/14 13/13/13
f 15/15/15 16/16/16 14/14/14
f 19/19/19 18/18/18 17/17/17
f 19/19/19 20/20/20 18/18/18
f 23/23/23 22/22/22 21/21/21
f 23/23/23 24/24/24 22/22/22
f 27/27/27 26/26/26 25/25/25
f 27/27/27 28/28/28 26/26/26
f 31/31/31 30/30/30 29/29/29
f 31/31/31 32/32/32 30/30/30
f 35/35/35 34/34/34 33/33/33
f 33/33/33 34/34/34 36/36/36
f 36/36/36 34/34/34 37/37/37
f 37/37/37 34/34/34 38/38/38
f 38/38/38 34/34/34 39/39/39
f 39/39/39 34/34/34 40/40/40
f 40/40/40 34/34/34 41/41/41
f 41/41/41 34/34/34 35/35/35
f 44/44/44 43/43/43 42/42/42
f 45/45/45 43/43/43 44/44/44
f 46/46/46 43/43/43 45/45/45
f 47/47/47 43/43/43 46/46/46
f 48/48/48 43/43/43 47/47/47
f 49/49/49 43/43/43 48/48/48
f 50/50/50 43/43/43 49/49/49
f 42/42/42 43/43/43 50/50/50
