g pb_Mesh-747620
v -1.4545776 3.8146972E-08 0.5249944
v 0.0071359253 1.14440915E-07 -0.52499443
v -1.4545776 1.14440915E-07 -0.52499443
v 0.0071359253 3.8146972E-08 0.5249944
v -1.3470426 0.36882517 0.5249943
v 0.0071359253 0.36882526 -0.52499443
v 0.0071359253 0.36882517 0.5249944
v -1.3470426 0.36882526 -0.52499443
v -1.4545776 3.8146972E-08 0.5249944
v 0.0071359253 0.36882517 0.5249944
v 0.0071359253 3.8146972E-08 0.5249944
v -1.3470426 0.36882517 0.5249943
v 0.0071359253 1.14440915E-07 -0.52499443
v -1.3470426 0.36882526 -0.52499443
v -1.4545776 1.14440915E-07 -0.52499443
v 0.0071359253 0.36882526 -0.52499443
v -1.4545776 1.14440915E-07 -0.52499443
v -1.3470426 0.36882517 0.5249943
v -1.4545776 3.8146972E-08 0.5249944
v -1.3470426 0.36882526 -0.52499443
vt 0.024146594 0.9754252
vt 0.014690427 0.98488134
vt 0.024146594 0.98488134
vt 0.014690427 0.9754252
vt 0.8398111 0.9794987
vt 0.8468544 0.98298514
vt 0.8468544 0.9794987
vt 0.8398111 0.98298514
vt 0.014690427 0.9754252
vt 0.024146594 0.98488134
vt 0.024146594 0.9754252
vt 0.014690427 0.98488134
vt 0.014690427 0.9754252
vt 0.024146594 0.98488134
vt 0.024146594 0.9754252
vt 0.014690427 0.98488134
vt 0.014690427 0.9754252
vt 0.024146594 0.98488134
vt 0.024146594 0.9754252
vt 0.014690427 0.98488134
vn -0 -1 -7.266168E-08
vn -0 -1 -7.266168E-08
vn -0 -1 -7.266168E-08
vn -0 -1 -7.266168E-08
vn -1.8739626E-15 0.99999994 8.51504E-08
vn -1.8739626E-15 0.99999994 8.51504E-08
vn -3.7479247E-15 0.99999994 8.515039E-08
vn -0 0.99999994 8.51504E-08
vn -2.1167235E-08 8.388916E-08 1
vn -2.1167235E-08 8.388916E-08 1
vn -0 0 1
vn -4.4015355E-08 1.7443995E-07 1
vn -0 0 -1
vn -0 0 -1
vn -0 0 -1
vn -0 0 -1
vn -0.9600272 0.27990645 2.208631E-08
vn -0.9600272 0.27990645 2.208631E-08
vn -0.9600272 0.27990645 2.0338472E-08
vn -0.9600272 0.27990645 2.3834149E-08
g pb_Mesh-747620_0
f 3/3/3 2/2/2 1/1/1
f 4/4/4 1/1/1 2/2/2
f 7/7/7 6/6/6 5/5/5
f 8/8/8 5/5/5 6/6/6
f 11/11/11 10/10/10 9/9/9
f 12/12/12 9/9/9 10/10/10
f 15/15/15 14/14/14 13/13/13
f 16/16/16 13/13/13 14/14/14
f 19/19/19 18/18/18 17/17/17
f 20/20/20 17/17/17 18/18/18
