g pb_Mesh158086
v -0 0 0
v -16 0 0
v -0 0.1364479 0
v -16 0 0
v -16 0.1364479 0
v -0 0.1364479 0
v -16 0 0
v -16 0 -6
v -16 0.1364479 0
v -16 0 -6
v -16 0.1364479 -6
v -16 0.1364479 0
v -16 0 -6
v -0 0 -6
v -16 0.1364479 -6
v -0 0 -6
v -0 0.1364479 -6
v -16 0.1364479 -6
v -0 0 -6
v -0 0 0
v -0 0.1364479 -6
v -0 0 0
v -0 0.1364479 0
v -0 0.1364479 -6
v -0 0.1364479 0
v -16 0.1364479 0
v -0 0.1364479 -6
v -16 0.1364479 -6
v -0 0 -6
v -16 0 -6
v -0 0 0
v -16 0 0
vt 0.16554642 0.25818443
vt 0.16554642 0.26896524
vt 0.16554642 0.25818443
vt 0.16554642 0.26896524
vt 0.16554642 0.26896524
vt 0.16554642 0.25818443
vt 0.16554642 0.26896524
vt 0.17632723 0.26896524
vt 0.16554642 0.26896524
vt 0.17632723 0.26896524
vt 0.17632723 0.26896524
vt 0.16554642 0.26896524
vt 0.17632723 0.26896524
vt 0.17632723 0.25818443
vt 0.17632723 0.26896524
vt 0.17632723 0.25818443
vt 0.17632723 0.25818443
vt 0.17632723 0.26896524
vt 0.17632723 0.25818443
vt 0.16554642 0.25818443
vt 0.17632723 0.25818443
vt 0.16554642 0.25818443
vt 0.16554642 0.25818443
vt 0.17632723 0.25818443
vt 0.16554642 0.25818443
vt 0.16554642 0.26896524
vt 0.17632723 0.25818443
vt 0.17632723 0.26896524
vt 0.17632723 0.25818443
vt 0.17632723 0.26896524
vt 0.16554642 0.25818443
vt 0.16554642 0.26896524
vn -0 0 1
vn -0 0 1
vn -0 0 1
vn -0 0 1
vn -0 0 1
vn -0 0 1
vn -1 0 0
vn -1 0 0
vn -1 0 0
vn -1 0 0
vn -1 0 0
vn -1 0 0
vn -0 0 -1
vn -0 0 -1
vn -0 0 -1
vn -0 0 -1
vn -0 0 -1
vn -0 0 -1
vn 1 0 0
vn 1 0 0
vn 1 0 0
vn 1 0 0
vn 1 0 0
vn 1 0 0
vn -0 1 0
vn -0 1 0
vn -0 1 0
vn -0 1 0
vn -0 -1 0
vn -0 -1 0
vn -0 -1 0
vn -0 -1 0
g pb_Mesh158086_0
f 3/3/3 2/2/2 1/1/1
f 6/6/6 5/5/5 4/4/4
f 9/9/9 8/8/8 7/7/7
f 12/12/12 11/11/11 10/10/10
f 15/15/15 14/14/14 13/13/13
f 18/18/18 17/17/17 16/16/16
f 21/21/21 20/20/20 19/19/19
f 24/24/24 23/23/23 22/22/22
f 27/27/27 26/26/26 25/25/25
f 27/27/27 28/28/28 26/26/26
f 31/31/31 30/30/30 29/29/29
f 31/31/31 32/32/32 30/30/30
