g pb_Mesh411764
v 2.1344814 -0.39842033 1.6497803
v -2.1344814 -0.39842033 1.6497803
v 2.1344814 0.60157967 1.6497803
v -2.1344814 0.60157967 1.6497803
v -2.1344814 -0.39842033 1.6497803
v -2.1344814 -0.39842033 -1.6497879
v -2.1344814 0.60157967 1.6497803
v -2.1344814 0.60157967 -1.6497879
v -2.1344814 -0.39842033 -1.6497879
v 2.1344814 -0.39842033 -1.6497879
v -2.1344814 0.60157967 -1.6497879
v 2.1344814 0.60157967 -1.6497879
v 2.1344814 -0.39842033 -1.6497879
v 2.1344814 -0.39842033 1.6497803
v 2.1344814 0.60157967 -1.6497879
v 2.1344814 0.60157967 1.6497803
v 2.1344814 0.60157967 1.6497803
v -2.1344814 0.60157967 1.6497803
v 1.8416135 0.6016797 1.3198235
v -1.8416135 0.6016797 1.3198235
v 2.1344814 0.60157967 -1.6497879
v 2.1344814 0.60157967 1.6497803
v 1.8416135 0.6016797 -1.3198311
v 1.8416135 0.6016797 1.3198235
v -2.1344814 0.60157967 1.6497803
v -2.1344814 0.60157967 -1.6497879
v -1.8416135 0.6016797 1.3198235
v -1.8416135 0.6016797 -1.3198311
v -2.1344814 0.60157967 -1.6497879
v 2.1344814 0.60157967 -1.6497879
v -1.8416135 0.6016797 -1.3198311
v 1.8416135 0.6016797 -1.3198311
v 2.1344814 -0.39842033 -1.6497879
v -2.1344814 -0.39842033 -1.6497879
v 1.8416135 -0.39852035 -1.3198311
v -1.8416135 -0.39852035 -1.3198311
v 2.1344814 -0.39842033 1.6497803
v 2.1344814 -0.39842033 -1.6497879
v 1.8416135 -0.39852035 1.3198235
v 1.8416135 -0.39852035 -1.3198311
v -2.1344814 -0.39842033 -1.6497879
v -2.1344814 -0.39842033 1.6497803
v -1.8416135 -0.39852035 -1.3198311
v -1.8416135 -0.39852035 1.3198235
v -2.1344814 -0.39842033 1.6497803
v 2.1344814 -0.39842033 1.6497803
v -1.8416135 -0.39852035 1.3198235
v 1.8416135 -0.39852035 1.3198235
v 1.8416135 0.6016797 1.3198235
v -1.8416135 0.6016797 1.3198235
v 1.8416135 0.3987205 1.3198235
v -1.8416135 0.3987205 1.3198235
v 1.8416135 0.6016797 -1.3198311
v 1.8416135 0.6016797 1.3198235
v 1.8416135 0.3987205 -1.3198311
v 1.8416135 0.3987205 1.3198235
v -1.8416135 0.6016797 1.3198235
v -1.8416135 0.6016797 -1.3198311
v -1.8416135 0.3987205 1.3198235
v -1.8416135 0.3987205 -1.3198311
v -1.8416135 0.6016797 -1.3198311
v 1.8416135 0.6016797 -1.3198311
v -1.8416135 0.3987205 -1.3198311
v 1.8416135 0.3987205 -1.3198311
v 1.8416135 -0.39852035 -1.3198311
v -1.8416135 -0.39852035 -1.3198311
v 1.8416135 -0.60167956 -1.3198311
v -1.8416135 -0.60167956 -1.3198311
v 1.8416135 -0.39852035 1.3198235
v 1.8416135 -0.39852035 -1.3198311
v 1.8416135 -0.60167956 1.3198235
v 1.8416135 -0.60167956 -1.3198311
v -1.8416135 -0.39852035 -1.3198311
v -1.8416135 -0.39852035 1.3198235
v -1.8416135 -0.60167956 -1.3198311
v -1.8416135 -0.60167956 1.3198235
v -1.8416135 -0.39852035 1.3198235
v 1.8416135 -0.39852035 1.3198235
v -1.8416135 -0.60167956 1.3198235
v 1.8416135 -0.60167956 1.3198235
v 1.8416135 0.3987205 1.3198235
v -1.8416135 0.3987205 1.3198235
v 1.8416135 0.3987205 -1.3198311
v -1.8416135 0.3987205 -1.3198311
v 1.8416135 -0.60167956 -1.3198311
v -1.8416135 -0.60167956 -1.3198311
v 1.8416135 -0.60167956 1.3198235
v -1.8416135 -0.60167956 1.3198235
vt 2.1344814 -0.39842033
vt -2.1344814 -0.39842033
vt 2.1344814 0.60157967
vt -2.1344814 0.60157967
vt 1.6497803 -0.39842033
vt -1.6497879 -0.39842033
vt 1.6497803 0.60157967
vt -1.6497879 0.60157967
vt 2.1344814 -0.39842033
vt -2.1344814 -0.39842033
vt 2.1344814 0.60157967
vt -2.1344814 0.60157967
vt 1.6497879 -0.39842033
vt -1.6497803 -0.39842033
vt 1.6497879 0.60157967
vt -1.6497803 0.60157967
vt -2.1344814 1.6495979
vt 2.1344814 1.6495979
vt -1.8416135 1.319641
vt 1.8416135 1.319641
vt -2.134276 -1.6497879
vt -2.134276 1.6497803
vt -1.8414079 -1.3198311
vt -1.8414079 1.3198235
vt 2.134276 1.6497803
vt 2.134276 -1.6497879
vt 1.8414079 1.3198235
vt 1.8414079 -1.3198311
vt 2.1344814 -1.6496055
vt -2.1344814 -1.6496055
vt 1.8416135 -1.3196486
vt -1.8416135 -1.3196486
vt 2.1344814 -1.649667
vt -2.1344814 -1.649667
vt 1.8416135 -1.3197103
vt -1.8416135 -1.3197103
vt 2.1343453 1.6497803
vt 2.1343453 -1.6497879
vt 1.8414773 1.3198235
vt 1.8414773 -1.3198311
vt -2.1343453 -1.6497879
vt -2.1343453 1.6497803
vt -1.8414773 -1.3198311
vt -1.8414773 1.3198235
vt -2.1344814 1.6496594
vt 2.1344814 1.6496594
vt -1.8416135 1.3197026
vt 1.8416135 1.3197026
vt -1.8416135 0.6016797
vt 1.8416135 0.6016797
vt -1.8416135 0.3987205
vt 1.8416135 0.3987205
vt -1.3198311 0.6016797
vt 1.3198235 0.6016797
vt -1.3198311 0.3987205
vt 1.3198235 0.3987205
vt -1.3198235 0.6016797
vt 1.3198311 0.6016797
vt -1.3198235 0.3987205
vt 1.3198311 0.3987205
vt -1.8416135 0.6016797
vt 1.8416135 0.6016797
vt -1.8416135 0.3987205
vt 1.8416135 0.3987205
vt -1.8416135 -0.39852035
vt 1.8416135 -0.39852035
vt -1.8416135 -0.60167956
vt 1.8416135 -0.60167956
vt -1.3198235 -0.39852035
vt 1.3198311 -0.39852035
vt -1.3198235 -0.60167956
vt 1.3198311 -0.60167956
vt -1.3198311 -0.39852035
vt 1.3198235 -0.39852035
vt -1.3198311 -0.60167956
vt 1.3198235 -0.60167956
vt -1.8416135 -0.39852035
vt 1.8416135 -0.39852035
vt -1.8416135 -0.60167956
vt 1.8416135 -0.60167956
vt -1.8416135 1.3198235
vt 1.8416135 1.3198235
vt -1.8416135 -1.3198311
vt 1.8416135 -1.3198311
vt 1.8416135 -1.3198311
vt -1.8416135 -1.3198311
vt 1.8416135 1.3198235
vt -1.8416135 1.3198235
vn -0 0 1
vn -0 0 1
vn -0 0 1
vn -0 0 1
vn -1 0 0
vn -1 0 0
vn -1 0 0
vn -1 0 0
vn -0 0 -1
vn -0 0 -1
vn -0 0 -1
vn -0 0 -1
vn 1 0 0
vn 1 0 0
vn 1 0 0
vn 1 0 0
vn 0.00017075376 1 0.00015156016
vn -0.00017075374 1 0.00015156015
vn 0.00017075374 1 0.00015156015
vn -0.00017075374 1 0.00015156015
vn 0.00017075374 1 -0.00015156015
vn 0.00017075376 1 0.00015156016
vn 0.00017075374 1 -0.00015156015
vn 0.00017075374 1 0.00015156015
vn -0.00017075374 1 0.00015156015
vn -0.00017075376 1 -0.00015156016
vn -0.00017075374 1 0.00015156015
vn -0.00017075374 1 -0.00015156015
vn -0.00017075376 1 -0.00015156016
vn 0.00017075374 1 -0.00015156015
vn -0.00017075374 1 -0.00015156015
vn 0.00017075374 1 -0.00015156015
vn 0.00017075376 -1 -0.00015156016
vn -0.00017075374 -1 -0.00015156015
vn 0.00017075374 -1 -0.00015156015
vn -0.00017075374 -1 -0.00015156015
vn 0.00017075374 -1 0.00015156015
vn 0.00017075376 -1 -0.00015156016
vn 0.00017075374 -1 0.00015156015
vn 0.00017075374 -1 -0.00015156015
vn -0.00017075374 -1 -0.00015156015
vn -0.00017075376 -1 0.00015156016
vn -0.00017075374 -1 -0.00015156015
vn -0.00017075374 -1 0.00015156015
vn -0.00017075376 -1 0.00015156016
vn 0.00017075374 -1 0.00015156015
vn -0.00017075374 -1 0.00015156015
vn 0.00017075374 -1 0.00015156015
vn -0 0 -1
vn -0 0 -1
vn -0 0 -1
vn -0 0 -1
vn -1 0 0
vn -1 0 0
vn -1 0 0
vn -1 0 0
vn 1 0 0
vn 1 0 0
vn 1 0 0
vn 1 0 0
vn -0 0 1
vn -0 0 1
vn -0 0 1
vn -0 0 1
vn -0 0 -1
vn -0 0 -1
vn -0 0 -1
vn -0 0 -1
vn 1 0 0
vn 1 0 0
vn 1 0 0
vn 1 0 0
vn -1 0 0
vn -1 0 0
vn -1 0 0
vn -1 0 0
vn -0 0 1
vn -0 0 1
vn -0 0 1
vn -0 0 1
vn -0 1 0
vn -0 1 0
vn -0 1 0
vn -0 1 0
vn -0 -1 0
vn -0 -1 0
vn -0 -1 0
vn -0 -1 0
g pb_Mesh411764_0
f 3/3/3 2/2/2 1/1/1
f 3/3/3 4/4/4 2/2/2
f 7/7/7 6/6/6 5/5/5
f 7/7/7 8/8/8 6/6/6
f 11/11/11 10/10/10 9/9/9
f 11/11/11 12/12/12 10/10/10
f 15/15/15 14/14/14 13/13/13
f 15/15/15 16/16/16 14/14/14
f 19/19/19 18/18/18 17/17/17
f 19/19/19 20/20/20 18/18/18
f 23/23/23 22/22/22 21/21/21
f 23/23/23 24/24/24 22/22/22
f 27/27/27 26/26/26 25/25/25
f 27/27/27 28/28/28 26/26/26
f 31/31/31 30/30/30 29/29/29
f 31/31/31 32/32/32 30/30/30
f 35/35/35 34/34/34 33/33/33
f 35/35/35 36/36/36 34/34/34
f 39/39/39 38/38/38 37/37/37
f 39/39/39 40/40/40 38/38/38
f 43/43/43 42/42/42 41/41/41
f 43/43/43 44/44/44 42/42/42
f 47/47/47 46/46/46 45/45/45
f 47/47/47 48/48/48 46/46/46
f 51/51/51 50/50/50 49/49/49
f 51/51/51 52/52/52 50/50/50
f 55/55/55 54/54/54 53/53/53
f 55/55/55 56/56/56 54/54/54
f 59/59/59 58/58/58 57/57/57
f 59/59/59 60/60/60 58/58/58
f 63/63/63 62/62/62 61/61/61
f 63/63/63 64/64/64 62/62/62
f 67/67/67 66/66/66 65/65/65
f 67/67/67 68/68/68 66/66/66
f 71/71/71 70/70/70 69/69/69
f 71/71/71 72/72/72 70/70/70
f 75/75/75 74/74/74 73/73/73
f 75/75/75 76/76/76 74/74/74
f 79/79/79 78/78/78 77/77/77
f 79/79/79 80/80/80 78/78/78
g pb_Mesh411764_1
f 83/83/83 82/82/82 81/81/81
f 83/83/83 84/84/84 82/82/82
f 87/87/87 86/86/86 85/85/85
f 87/87/87 88/88/88 86/86/86
