g pb_Mesh252784
v -5.983154 0.12605289 4.5542393E-08
v -5.983154 17.475979 4.5542393E-08
v -5.8092947 0.12605289 1.4318626
v -5.8092947 17.475979 1.4318626
v -5.8092947 0.12605289 1.4318626
v -5.8092947 17.475979 1.4318626
v -5.2978196 0.12605289 2.7805104
v -5.2978196 17.475979 2.7805104
v -5.2978196 0.12605289 2.7805104
v -5.2978196 17.475979 2.7805104
v -4.478455 0.12605289 3.967565
v -4.478455 17.475979 3.967565
v -4.478455 0.12605289 3.967565
v -4.478455 17.475979 3.967565
v -3.3988185 0.12605289 4.924039
v -3.3988185 17.475979 4.924039
v -3.3988185 0.12605289 4.924039
v -3.3988185 17.475979 4.924039
v -2.1216557 0.12605289 5.594346
v -2.1216557 17.475979 5.594346
v -2.1216557 0.12605289 5.594346
v -2.1216557 17.475979 5.594346
v -0.7211896 0.12605289 5.93953
v -0.7211896 17.475979 5.93953
v -0.7211896 0.12605289 5.93953
v -0.7211896 17.475979 5.93953
v 0.72118926 0.12605289 5.93953
v 0.72118926 17.475979 5.93953
v 0.72118926 0.12605289 5.93953
v 0.72118926 17.475979 5.93953
v 2.121656 0.12605289 5.594346
v 2.121656 17.475979 5.594346
v 2.121656 0.12605289 5.594346
v 2.121656 17.475979 5.594346
v 3.3988183 0.12605289 4.9240394
v 3.3988183 17.475979 4.9240394
v 3.3988183 0.12605289 4.9240394
v 3.3988183 17.475979 4.9240394
v 4.478455 0.12605289 3.967565
v 4.478455 17.475979 3.967565
v 4.478455 0.12605289 3.967565
v 4.478455 17.475979 3.967565
v 5.2978196 0.12605289 2.7805095
v 5.2978196 17.475979 2.7805095
v 5.2978196 0.12605289 2.7805095
v 5.2978196 17.475979 2.7805095
v 5.809294 0.12605289 1.4318626
v 5.809294 17.475979 1.4318626
v 5.809294 0.12605289 1.4318626
v 5.809294 17.475979 1.4318626
v 5.9831533 0.12605289 -4.7752155E-07
v 5.9831533 17.475979 -4.7752155E-07
v 5.9831533 0.12605289 -4.7752155E-07
v 5.9831533 17.475979 -4.7752155E-07
v 5.809294 0.12605289 -1.4318621
v 5.809294 17.475979 -1.4318621
v 5.809294 0.12605289 -1.4318621
v 5.809294 17.475979 -1.4318621
v 5.2978196 0.12605289 -2.7805104
v 5.2978196 17.475979 -2.7805104
v 5.2978196 0.12605289 -2.7805104
v 5.2978196 17.475979 -2.7805104
v 4.478454 0.12605289 -3.9675653
v 4.478454 17.475979 -3.9675653
v 4.478454 0.12605289 -3.9675653
v 4.478454 17.475979 -3.9675653
v 3.3988175 0.12605289 -4.92404
v 3.3988175 17.475979 -4.92404
v 3.3988175 0.12605289 -4.92404
v 3.3988175 17.475979 -4.92404
v 2.1216562 0.12605289 -5.594346
v 2.1216562 17.475979 -5.594346
v 2.1216562 0.12605289 -5.594346
v 2.1216562 17.475979 -5.594346
v 0.7211896 0.12605289 -5.93953
v 0.7211896 17.475979 -5.93953
v 0.7211896 0.12605289 -5.93953
v 0.7211896 17.475979 -5.93953
v -0.72119 0.12605289 -5.93953
v -0.72119 17.475979 -5.93953
v -0.72119 0.12605289 -5.93953
v -0.72119 17.475979 -5.93953
v -2.1216567 0.12605289 -5.594346
v -2.1216567 17.475979 -5.594346
v -2.1216567 0.12605289 -5.594346
v -2.1216567 17.475979 -5.594346
v -3.3988204 0.12605289 -4.9240384
v -3.3988204 17.475979 -4.9240384
v -3.3988204 0.12605289 -4.9240384
v -3.3988204 17.475979 -4.9240384
v -4.4784546 0.12605289 -3.9675653
v -4.4784546 17.475979 -3.9675653
v -4.4784546 0.12605289 -3.9675653
v -4.4784546 17.475979 -3.9675653
v -5.2978196 0.12605289 -2.7805104
v -5.2978196 17.475979 -2.7805104
v -5.2978196 0.12605289 -2.7805104
v -5.2978196 17.475979 -2.7805104
v -5.8092947 0.12605289 -1.4318619
v -5.8092947 17.475979 -1.4318619
v -5.8092947 0.12605289 -1.4318619
v -5.8092947 17.475979 -1.4318619
v -5.983154 0.12605289 4.5542393E-08
v -5.983154 17.475979 4.5542393E-08
v -5.8092947 0.12605289 1.4318626
v -1.100415E-07 0.12605289 4.5542393E-08
v -5.983154 0.12605289 4.5542393E-08
v -5.2978196 0.12605289 2.7805104
v -4.478455 0.12605289 3.967565
v -3.3988185 0.12605289 4.924039
v -2.1216557 0.12605289 5.594346
v -0.7211896 0.12605289 5.93953
v 0.72118926 0.12605289 5.93953
v 2.121656 0.12605289 5.594346
v 3.3988183 0.12605289 4.9240394
v 4.478455 0.12605289 3.967565
v 5.2978196 0.12605289 2.7805095
v 5.809294 0.12605289 1.4318626
v 5.9831533 0.12605289 -4.7752155E-07
v 5.809294 0.12605289 -1.4318621
v 5.2978196 0.12605289 -2.7805104
v 4.478454 0.12605289 -3.9675653
v 3.3988175 0.12605289 -4.92404
v 2.1216562 0.12605289 -5.594346
v 0.7211896 0.12605289 -5.93953
v -0.72119 0.12605289 -5.93953
v -2.1216567 0.12605289 -5.594346
v -3.3988204 0.12605289 -4.9240384
v -4.4784546 0.12605289 -3.9675653
v -5.2978196 0.12605289 -2.7805104
v -5.8092947 0.12605289 -1.4318619
v -5.983154 17.475979 4.5542393E-08
v -1.100415E-07 17.475979 4.5542393E-08
v -5.8092947 17.475979 1.4318626
v -5.2978196 17.475979 2.7805104
v -4.478455 17.475979 3.967565
v -3.3988185 17.475979 4.924039
v -2.1216557 17.475979 5.594346
v -0.7211896 17.475979 5.93953
v 0.72118926 17.475979 5.93953
v 2.121656 17.475979 5.594346
v 3.3988183 17.475979 4.9240394
v 4.478455 17.475979 3.967565
v 5.2978196 17.475979 2.7805095
v 5.809294 17.475979 1.4318626
v 5.9831533 17.475979 -4.7752155E-07
v 5.809294 17.475979 -1.4318621
v 5.2978196 17.475979 -2.7805104
v 4.478454 17.475979 -3.9675653
v 3.3988175 17.475979 -4.92404
v 2.1216562 17.475979 -5.594346
v 0.7211896 17.475979 -5.93953
v -0.72119 17.475979 -5.93953
v -2.1216567 17.475979 -5.594346
v -3.3988204 17.475979 -4.9240384
v -4.4784546 17.475979 -3.9675653
v -5.2978196 17.475979 -2.7805104
v -5.8092947 17.475979 -1.4318619
vt -0.7211875 0.12605289
vt -0.7211875 17.475979
vt 0.7211916 0.12605289
vt 0.7211916 17.475979
vt -0.7211911 0.12605289
vt -0.7211911 17.475979
vt 0.7211881 0.12605289
vt 0.7211881 17.475979
vt -0.7211889 0.12605289
vt -0.7211889 17.475979
vt 0.72119004 0.12605289
vt 0.72119004 17.475979
vt -0.7211919 0.12605289
vt -0.7211919 17.475979
vt 0.7211872 0.12605289
vt 0.7211872 17.475979
vt -0.72118783 0.12605289
vt -0.72118783 17.475979
vt 0.72119105 0.12605289
vt 0.72119105 17.475979
vt -0.7211898 0.12605289
vt -0.7211898 17.475979
vt 0.72118926 0.12605289
vt 0.72118926 17.475979
vt -0.7211896 0.12605289
vt -0.7211896 17.475979
vt 0.72118926 0.12605289
vt 0.72118926 17.475979
vt -0.721189 0.12605289
vt -0.721189 17.475979
vt 0.72119063 0.12605289
vt 0.72119063 17.475979
vt -0.7211898 0.12605289
vt -0.7211898 17.475979
vt 0.7211883 0.12605289
vt 0.7211883 17.475979
vt -0.72118866 0.12605289
vt -0.72118866 17.475979
vt 0.72119087 0.12605289
vt 0.72119087 17.475979
vt -0.7211921 0.12605289
vt -0.7211921 17.475979
vt 0.7211876 0.12605289
vt 0.7211876 17.475979
vt -0.7211877 0.12605289
vt -0.7211877 17.475979
vt 0.7211905 0.12605289
vt 0.7211905 17.475979
vt -0.7211919 0.12605289
vt -0.7211919 17.475979
vt 0.7211877 0.12605289
vt 0.7211877 17.475979
vt -0.7211875 0.12605289
vt -0.7211875 17.475979
vt 0.7211907 0.12605289
vt 0.7211907 17.475979
vt -0.72118884 0.12605289
vt -0.72118884 17.475979
vt 0.72119063 0.12605289
vt 0.72119063 17.475979
vt -0.72119176 0.12605289
vt -0.72119176 17.475979
vt 0.721188 0.12605289
vt 0.721188 17.475979
vt -0.7211885 0.12605289
vt -0.7211885 17.475979
vt 0.7211911 0.12605289
vt 0.7211911 17.475979
vt -0.7211874 0.12605289
vt -0.7211874 17.475979
vt 0.7211896 0.12605289
vt 0.7211896 17.475979
vt -0.72119075 0.12605289
vt -0.72119075 17.475979
vt 0.7211887 0.12605289
vt 0.7211887 17.475979
vt -0.7211896 0.12605289
vt -0.7211896 17.475979
vt 0.72119 0.12605289
vt 0.72119 17.475979
vt -0.7211883 0.12605289
vt -0.7211883 17.475979
vt 0.72119135 0.12605289
vt 0.72119135 17.475979
vt -0.72118986 0.12605289
vt -0.72118986 17.475979
vt 0.72119004 0.12605289
vt 0.72119004 17.475979
vt -0.72119 0.12605289
vt -0.72119 17.475979
vt 0.7211869 0.12605289
vt 0.7211869 17.475979
vt -0.72118926 0.12605289
vt -0.72118926 17.475979
vt 0.72119015 0.12605289
vt 0.72119015 17.475979
vt -0.7211891 0.12605289
vt -0.7211891 17.475979
vt 0.7211908 0.12605289
vt 0.7211908 17.475979
vt -0.7211905 0.12605289
vt -0.7211905 17.475979
vt 0.72118795 0.12605289
vt 0.72118795 17.475979
vt -5.8092947 1.4318626
vt -1.100415E-07 4.5542393E-08
vt -5.983154 4.5542393E-08
vt -5.2978196 2.7805104
vt -4.478455 3.967565
vt -3.3988185 4.924039
vt -2.1216557 5.594346
vt -0.7211896 5.93953
vt 0.72118926 5.93953
vt 2.121656 5.594346
vt 3.3988183 4.9240394
vt 4.478455 3.967565
vt 5.2978196 2.7805095
vt 5.809294 1.4318626
vt 5.9831533 -4.7752155E-07
vt 5.809294 -1.4318621
vt 5.2978196 -2.7805104
vt 4.478454 -3.9675653
vt 3.3988175 -4.92404
vt 2.1216562 -5.594346
vt 0.7211896 -5.93953
vt -0.72119 -5.93953
vt -2.1216567 -5.594346
vt -3.3988204 -4.9240384
vt -4.4784546 -3.9675653
vt -5.2978196 -2.7805104
vt -5.8092947 -1.4318619
vt 5.983154 4.5542393E-08
vt 1.100415E-07 4.5542393E-08
vt 5.8092947 1.4318626
vt 5.2978196 2.7805104
vt 4.478455 3.967565
vt 3.3988185 4.924039
vt 2.1216557 5.594346
vt 0.7211896 5.93953
vt -0.72118926 5.93953
vt -2.121656 5.594346
vt -3.3988183 4.9240394
vt -4.478455 3.967565
vt -5.2978196 2.7805095
vt -5.809294 1.4318626
vt -5.9831533 -4.7752155E-07
vt -5.809294 -1.4318621
vt -5.2978196 -2.7805104
vt -4.478454 -3.9675653
vt -3.3988175 -4.92404
vt -2.1216562 -5.594346
vt -0.7211896 -5.93953
vt 0.72119 -5.93953
vt 2.1216567 -5.594346
vt 3.3988204 -4.9240384
vt 4.4784546 -3.9675653
vt 5.2978196 -2.7805104
vt 5.8092947 -1.4318619
vn -0.9927089 0 -3.3527613E-08
vn -0.9927089 0 -3.3527613E-08
vn -0.96386254 0 0.23757075
vn -0.96386254 0 0.23757075
vn -0.96386254 0 0.23757075
vn -0.96386254 0 0.23757075
vn -0.879 0 0.46133494
vn -0.879 0 0.46133494
vn -0.879 0 0.46133494
vn -0.879 0 0.46133494
vn -0.7430531 0 0.6582879
vn -0.7430531 0 0.6582879
vn -0.7430531 0 0.6582879
vn -0.7430531 0 0.6582879
vn -0.5639229 0 0.81698346
vn -0.5639229 0 0.81698346
vn -0.5639229 0 0.81698346
vn -0.5639229 0 0.81698346
vn -0.35201952 0 0.92819893
vn -0.35201952 0 0.92819893
vn -0.35201952 0 0.92819893
vn -0.35201952 0 0.92819893
vn -0.11965782 0 0.98547095
vn -0.11965782 0 0.98547095
vn -0.11965782 0 0.98547095
vn -0.11965782 0 0.98547095
vn 0.11965778 0 0.98547095
vn 0.11965778 0 0.98547095
vn 0.11965778 0 0.98547095
vn 0.11965778 0 0.98547095
vn 0.3520194 0 0.92819893
vn 0.3520194 0 0.92819893
vn 0.3520194 0 0.92819893
vn 0.3520194 0 0.92819893
vn 0.5639229 0 0.81698346
vn 0.5639229 0 0.81698346
vn 0.5639229 0 0.81698346
vn 0.5639229 0 0.81698346
vn 0.7430533 0 0.65828764
vn 0.7430533 0 0.65828764
vn 0.7430533 0 0.65828764
vn 0.7430533 0 0.65828764
vn 0.8790001 0 0.4613347
vn 0.8790001 0 0.4613347
vn 0.8790001 0 0.4613347
vn 0.8790001 0 0.4613347
vn 0.96386254 0 0.23757067
vn 0.96386254 0 0.23757067
vn 0.96386254 0 0.23757067
vn 0.96386254 0 0.23757067
vn 0.9927089 0 -5.5879354E-08
vn 0.9927089 0 -5.5879354E-08
vn 0.9927089 0 -5.5879354E-08
vn 0.9927089 0 -5.5879354E-08
vn 0.9638626 0 -0.23757058
vn 0.9638626 0 -0.23757058
vn 0.9638626 0 -0.23757058
vn 0.9638626 0 -0.23757058
vn 0.87899995 0 -0.46133488
vn 0.87899995 0 -0.46133488
vn 0.87899995 0 -0.46133488
vn 0.87899995 0 -0.46133488
vn 0.7430532 0 -0.65828794
vn 0.7430532 0 -0.65828794
vn 0.7430532 0 -0.65828794
vn 0.7430532 0 -0.65828794
vn 0.563923 0 -0.8169834
vn 0.563923 0 -0.8169834
vn 0.563923 0 -0.8169834
vn 0.563923 0 -0.8169834
vn 0.35201943 0 -0.92819893
vn 0.35201943 0 -0.92819893
vn 0.35201943 0 -0.92819893
vn 0.35201943 0 -0.92819893
vn 0.11965778 0 -0.9854709
vn 0.11965778 0 -0.9854709
vn 0.11965778 0 -0.9854709
vn 0.11965778 0 -0.9854709
vn -0.11965778 0 -0.98547095
vn -0.11965778 0 -0.98547095
vn -0.11965778 0 -0.98547095
vn -0.11965778 0 -0.98547095
vn -0.35201943 0 -0.9281989
vn -0.35201943 0 -0.9281989
vn -0.35201943 0 -0.9281989
vn -0.35201943 0 -0.9281989
vn -0.5639231 0 -0.8169832
vn -0.5639231 0 -0.8169832
vn -0.5639231 0 -0.8169832
vn -0.5639231 0 -0.8169832
vn -0.7430534 0 -0.65828764
vn -0.7430534 0 -0.65828764
vn -0.7430534 0 -0.65828764
vn -0.7430534 0 -0.65828764
vn -0.87899995 0 -0.46133488
vn -0.87899995 0 -0.46133488
vn -0.87899995 0 -0.46133488
vn -0.87899995 0 -0.46133488
vn -0.96386254 0 -0.23757069
vn -0.96386254 0 -0.23757069
vn -0.96386254 0 -0.23757069
vn -0.96386254 0 -0.23757069
vn -0.9927089 0 -3.3527613E-08
vn -0.9927089 0 -3.3527613E-08
vn -0 -1 0
vn -0 -1 0
vn -0 -1 0
vn -0 -1 0
vn -0 -1 0
vn -0 -1 0
vn -0 -1 0
vn -0 -1 0
vn -0 -1 0
vn -0 -1 0
vn -0 -1 0
vn -0 -1 0
vn -0 -1 0
vn -0 -1 0
vn -0 -1 0
vn -0 -1 0
vn -0 -1 0
vn -0 -1 0
vn -0 -1 0
vn -0 -1 0
vn -0 -1 0
vn -0 -1 0
vn -0 -1 0
vn -0 -1 0
vn -0 -1 0
vn -0 -1 0
vn -0 -1 0
vn -0 1 0
vn -0 1 0
vn -0 1 0
vn -0 1 0
vn -0 1 0
vn -0 1 0
vn -0 1 0
vn -0 1 0
vn -0 1 0
vn -0 1 0
vn -0 1 0
vn -0 1 0
vn -0 1 0
vn -0 1 0
vn -0 1 0
vn -0 1 0
vn -0 1 0
vn -0 1 0
vn -0 1 0
vn -0 1 0
vn -0 1 0
vn -0 1 0
vn -0 1 0
vn -0 1 0
vn -0 1 0
vn -0 1 0
vn -0 1 0
g pb_Mesh252784_0
f 3/3/3 2/2/2 1/1/1
f 3/3/3 4/4/4 2/2/2
f 7/7/7 6/6/6 5/5/5
f 7/7/7 8/8/8 6/6/6
f 11/11/11 10/10/10 9/9/9
f 11/11/11 12/12/12 10/10/10
f 15/15/15 14/14/14 13/13/13
f 15/15/15 16/16/16 14/14/14
f 19/19/19 18/18/18 17/17/17
f 19/19/19 20/20/20 18/18/18
f 23/23/23 22/22/22 21/21/21
f 23/23/23 24/24/24 22/22/22
f 27/27/27 26/26/26 25/25/25
f 27/27/27 28/28/28 26/26/26
f 31/31/31 30/30/30 29/29/29
f 31/31/31 32/32/32 30/30/30
f 35/35/35 34/34/34 33/33/33
f 35/35/35 36/36/36 34/34/34
f 39/39/39 38/38/38 37/37/37
f 39/39/39 40/40/40 38/38/38
f 43/43/43 42/42/42 41/41/41
f 43/43/43 44/44/44 42/42/42
f 47/47/47 46/46/46 45/45/45
f 47/47/47 48/48/48 46/46/46
f 51/51/51 50/50/50 49/49/49
f 51/51/51 52/52/52 50/50/50
f 55/55/55 54/54/54 53/53/53
f 55/55/55 56/56/56 54/54/54
f 59/59/59 58/58/58 57/57/57
f 59/59/59 60/60/60 58/58/58
f 63/63/63 62/62/62 61/61/61
f 63/63/63 64/64/64 62/62/62
f 67/67/67 66/66/66 65/65/65
f 67/67/67 68/68/68 66/66/66
f 71/71/71 70/70/70 69/69/69
f 71/71/71 72/72/72 70/70/70
f 75/75/75 74/74/74 73/73/73
f 75/75/75 76/76/76 74/74/74
f 79/79/79 78/78/78 77/77/77
f 79/79/79 80/80/80 78/78/78
f 83/83/83 82/82/82 81/81/81
f 83/83/83 84/84/84 82/82/82
f 87/87/87 86/86/86 85/85/85
f 87/87/87 88/88/88 86/86/86
f 91/91/91 90/90/90 89/89/89
f 91/91/91 92/92/92 90/90/90
f 95/95/95 94/94/94 93/93/93
f 95/95/95 96/96/96 94/94/94
f 99/99/99 98/98/98 97/97/97
f 99/99/99 100/100/100 98/98/98
f 103/103/103 102/102/102 101/101/101
f 103/103/103 104/104/104 102/102/102
f 107/107/107 106/106/106 105/105/105
f 105/105/105 106/106/106 108/108/108
f 108/108/108 106/106/106 109/109/109
f 109/109/109 106/106/106 110/110/110
f 110/110/110 106/106/106 111/111/111
f 111/111/111 106/106/106 112/112/112
f 112/112/112 106/106/106 113/113/113
f 113/113/113 106/106/106 114/114/114
f 114/114/114 106/106/106 115/115/115
f 115/115/115 106/106/106 116/116/116
f 116/116/116 106/106/106 117/117/117
f 117/117/117 106/106/106 118/118/118
f 118/118/118 106/106/106 119/119/119
f 119/119/119 106/106/106 120/120/120
f 120/120/120 106/106/106 121/121/121
f 121/121/121 106/106/106 122/122/122
f 122/122/122 106/106/106 123/123/123
f 123/123/123 106/106/106 124/124/124
f 124/124/124 106/106/106 125/125/125
f 125/125/125 106/106/106 126/126/126
f 126/126/126 106/106/106 127/127/127
f 127/127/127 106/106/106 128/128/128
f 128/128/128 106/106/106 129/129/129
f 129/129/129 106/106/106 130/130/130
f 130/130/130 106/106/106 131/131/131
f 131/131/131 106/106/106 107/107/107
f 134/134/134 133/133/133 132/132/132
f 135/135/135 133/133/133 134/134/134
f 136/136/136 133/133/133 135/135/135
f 137/137/137 133/133/133 136/136/136
f 138/138/138 133/133/133 137/137/137
f 139/139/139 133/133/133 138/138/138
f 140/140/140 133/133/133 139/139/139
f 141/141/141 133/133/133 140/140/140
f 142/142/142 133/133/133 141/141/141
f 143/143/143 133/133/133 142/142/142
f 144/144/144 133/133/133 143/143/143
f 145/145/145 133/133/133 144/144/144
f 146/146/146 133/133/133 145/145/145
f 147/147/147 133/133/133 146/146/146
f 148/148/148 133/133/133 147/147/147
f 149/149/149 133/133/133 148/148/148
f 150/150/150 133/133/133 149/149/149
f 151/151/151 133/133/133 150/150/150
f 152/152/152 133/133/133 151/151/151
f 153/153/153 133/133/133 152/152/152
f 154/154/154 133/133/133 153/153/153
f 155/155/155 133/133/133 154/154/154
f 156/156/156 133/133/133 155/155/155
f 157/157/157 133/133/133 156/156/156
f 158/158/158 133/133/133 157/157/157
f 132/132/132 133/133/133 158/158/158
