g pb_Mesh492770
v -0.19924259 -0.00022362712 0.25000763
v -0.118415 -0.00022362712 0.25000763
v -0.05343187 -0.000223344 0.25000763
v -0.15831566 -0.00022367928 1.0000076
v -0.15834112 4.990115 1.0000342
v -0.053454217 4.990115 1.0000343
v -0.053427577 -0.00022329185 1.0000075
v -0.05345517 4.990115 0.25003427
v -0.053456124 4.990116 0.75003433
v -0.11844049 4.990115 0.7500343
v -0.05345517 4.990115 0.25003427
v -0.11844049 4.990115 0.7500343
v -0.11844049 4.990115 0.25003427
v -0.05345398 4.990115 3.428738E-05
v -0.05345517 4.990115 0.25003427
v -0.19926806 4.990115 0.25003427
v -0.19926806 4.990115 0.25003427
v -0.19926806 4.990115 3.4227134E-05
v -0.05345398 4.990115 3.428738E-05
v -0.11844049 4.990115 0.7500343
v -0.053456124 4.990116 0.75003433
v -0.15834112 4.990115 1.0000342
v -0.15834112 4.990115 1.0000342
v -0.15834112 4.990115 0.7500343
v -0.11844049 4.990115 0.7500343
v -0.053456124 4.990116 0.75003433
v -0.053454217 4.990115 1.0000343
v -0.15834112 4.990115 1.0000342
v -0.19926806 4.990115 3.4227134E-05
v -0.19924259 -0.00022362712 7.62771E-06
v -0.05343187 -0.00022329185 7.687957E-06
v -0.19926806 4.990115 3.4227134E-05
v -0.05343187 -0.00022329185 7.687957E-06
v -0.05345398 4.990115 3.428738E-05
v -0.118415 -0.00022362712 0.25000763
v -0.118415 -0.00022362712 0.7500077
v -0.053429723 -0.000223344 0.75000775
v -0.05343187 -0.000223344 0.25000763
v -0.053429723 -0.000223344 0.75000775
v -0.118415 -0.00022362712 0.7500077
v -0.053427577 -0.00022329185 1.0000075
v -0.118415 -0.00022362712 0.7500077
v -0.15831566 -0.00022367928 0.7500077
v -0.053427577 -0.00022329185 1.0000075
v -0.15831566 -0.00022367928 0.7500077
v -0.15831566 -0.00022367928 1.0000076
v -0.053427577 -0.00022329185 1.0000075
v -0.11844049 4.990115 0.25003427
v -0.11844049 4.990115 0.7500343
v -0.118415 -0.00022362712 0.7500077
v -0.11844049 4.990115 0.25003427
v -0.118415 -0.00022362712 0.7500077
v -0.118415 -0.00022362712 0.25000763
v -0.053427577 -0.00022329185 1.0000075
v -0.053454217 4.990115 1.0000343
v -0.053456124 4.990116 0.75003433
v -0.053429723 -0.000223344 0.75000775
v -0.15834112 4.990115 0.7500343
v -0.15834112 4.990115 1.0000342
v -0.15831566 -0.00022367928 1.0000076
v -0.15834112 4.990115 0.7500343
v -0.15831566 -0.00022367928 1.0000076
v -0.15831566 -0.00022367928 0.7500077
v -0.05345517 4.990115 0.25003427
v -0.05345398 4.990115 3.428738E-05
v -0.05343187 -0.00022329185 7.687957E-06
v -0.05343187 -0.00022329185 7.687957E-06
v -0.05343187 -0.000223344 0.25000763
v -0.19924259 -0.00022362712 7.62771E-06
v -0.19926806 4.990115 3.4227134E-05
v -0.19926806 4.990115 0.25003427
v -0.19924259 -0.00022362712 7.62771E-06
v -0.19926806 4.990115 0.25003427
v -0.19924259 -0.00022362712 0.25000763
v -0.05343187 -0.000223344 0.25000763
v -0.05343187 -0.00022329185 7.687957E-06
v -0.19924259 -0.00022362712 7.62771E-06
v -0.19924259 -0.00022362712 7.62771E-06
v -0.19924259 -0.00022362712 0.25000763
v -0.05343187 -0.000223344 0.25000763
v -0.19926806 4.990115 0.25003427
v -0.11844049 4.990115 0.25003427
v -0.118415 -0.00022362712 0.25000763
v -0.19926806 4.990115 0.25003427
v -0.118415 -0.00022362712 0.25000763
v -0.19924259 -0.00022362712 0.25000763
v -0.15831566 -0.00022367928 0.7500077
v -0.118415 -0.00022362712 0.7500077
v -0.11844049 4.990115 0.7500343
v -0.15831566 -0.00022367928 0.7500077
v -0.11844049 4.990115 0.7500343
v -0.15834112 4.990115 0.7500343
vt 0.20016754 0.061667044
vt 0.20016754 0.061667044
vt 0.20566434 0.061667047
vt 0.26518694 0.061667044
vt 0.26518694 0.06166705
vt 0.26612926 0.06166705
vt 0.2246676 0.06166704
vt 0.27775106 0.06166705
vt 0.2866716 0.06166705
vt 0.3000524 0.061667047
vt 0.27775106 0.06166705
vt 0.3000524 0.061667047
vt 0.3000524 0.061667047
vt 0.26612923 0.06166705
vt 0.27775106 0.06166705
vt 0.3000524 0.061667047
vt 0.3000524 0.061667047
vt 0.3000524 0.061667047
vt 0.26612923 0.06166705
vt 0.3000524 0.061667047
vt 0.2866716 0.06166705
vt 0.3000524 0.06166705
vt 0.3000524 0.06166705
vt 0.3000524 0.061667047
vt 0.3000524 0.061667047
vt 0.2866716 0.06166705
vt 0.26612926 0.06166705
vt 0.3000524 0.06166705
vt 0.26518694 0.061667047
vt 0.26518694 0.061667047
vt 0.23283426 0.061667047
vt 0.26518694 0.061667047
vt 0.23283426 0.061667047
vt 0.26612923 0.06166705
vt 0.20016754 0.061667044
vt 0.20016754 0.06166704
vt 0.20841275 0.06166704
vt 0.20566434 0.061667047
vt 0.20841275 0.06166704
vt 0.20016754 0.06166704
vt 0.2246676 0.06166704
vt 0.20016754 0.06166704
vt 0.20016754 0.06166704
vt 0.2246676 0.06166704
vt 0.20016754 0.06166704
vt 0.20016754 0.061667036
vt 0.2246676 0.06166704
vt 0.20355406 0.06166705
vt 0.20355406 0.06166705
vt 0.20355406 0.061667044
vt 0.20355406 0.06166705
vt 0.20355406 0.061667044
vt 0.20355406 0.061667044
vt 0.2246676 0.06166704
vt 0.26612926 0.06166705
vt 0.2866716 0.06166705
vt 0.20841275 0.06166704
vt 0.2331484 0.06166705
vt 0.2331484 0.06166705
vt 0.2331484 0.061667044
vt 0.2331484 0.06166705
vt 0.2331484 0.061667044
vt 0.2331484 0.061667044
vt 0.27775106 0.06166705
vt 0.26612923 0.06166705
vt 0.23283426 0.061667047
vt 0.23283426 0.061667047
vt 0.20566434 0.061667047
vt 0.2331484 0.061667044
vt 0.2331484 0.06166705
vt 0.2331484 0.06166705
vt 0.2331484 0.061667044
vt 0.2331484 0.06166705
vt 0.2331484 0.061667044
vt 0.20566434 0.061667047
vt 0.23283426 0.061667047
vt 0.20016754 0.061667047
vt 0.20016754 0.061667047
vt 0.20016754 0.061667044
vt 0.20566434 0.061667047
vt 0.17267302 0.06166705
vt 0.17267302 0.06166705
vt 0.17267302 0.061667044
vt 0.17267302 0.06166705
vt 0.17267302 0.061667044
vt 0.17267302 0.061667044
vt 0.17267302 0.061667044
vt 0.17267302 0.061667044
vt 0.17267302 0.06166705
vt 0.17267302 0.061667044
vt 0.17267302 0.06166705
vt 0.17267302 0.06166705
vn 9.708548E-07 -0.5 -0.5
vn 2.1783912E-06 -0.5 -0.5
vn 2.1591352E-06 -0.6666667 -0.33333337
vn 7.87344E-12 -5.3509157E-06 1
vn -1.1365548E-06 -5.3270333E-06 1
vn 7.87344E-12 -5.3509157E-06 1
vn 1.1365579E-06 -5.374798E-06 1
vn -3.6688336E-06 1 -4.768407E-07
vn -9.783628E-06 1 -1.4497255E-07
vn -8.215119E-06 1 -1.2024395E-06
vn -3.6688336E-06 1 -4.768407E-07
vn -8.215119E-06 1 -1.2024395E-06
vn -0 1 0
vn -0 1 0
vn -3.6688336E-06 1 -4.768407E-07
vn -0 1 0
vn -0 1 0
vn -0 1 0
vn -0 1 0
vn -8.215119E-06 1 -1.2024395E-06
vn -9.783628E-06 1 -1.4497255E-07
vn -4.5462875E-06 1 1.1817498E-06
vn -4.5462875E-06 1 1.1817498E-06
vn -0 1 0
vn -8.215119E-06 1 -1.2024395E-06
vn -9.783628E-06 1 -1.4497255E-07
vn -4.335597E-12 1 3.8146973E-06
vn -4.5462875E-06 1 1.1817498E-06
vn 4.1316736E-07 5.3301865E-06 -1
vn 4.1317207E-07 5.330186E-06 -1
vn 4.1316736E-07 5.3301865E-06 -1
vn 4.1316736E-07 5.3301865E-06 -1
vn 4.1316736E-07 5.3301865E-06 -1
vn 4.1316267E-07 5.3301865E-06 -1
vn 2.1783912E-06 -0.5 -0.5
vn 3.340173E-06 -1 4.0330156E-07
vn 4.3567466E-06 -1 1.0428486E-07
vn 2.1591352E-06 -0.6666667 -0.33333337
vn 4.3567466E-06 -1 1.0428486E-07
vn 3.340173E-06 -1 4.0330156E-07
vn 3.696375E-06 -1 2.4226136E-07
vn 3.340173E-06 -1 4.0330156E-07
vn 3.0360393E-06 -1 2.7594368E-07
vn 3.696375E-06 -1 2.4226136E-07
vn 3.0360393E-06 -1 2.7594368E-07
vn 3.6937483E-06 -1 0
vn 3.696375E-06 -1 2.4226136E-07
vn -1 -5.1075563E-06 0
vn -1 -5.1075563E-06 0
vn -1 -5.1075563E-06 0
vn -1 -5.1075563E-06 0
vn -1 -5.1075563E-06 0
vn -1 -5.1075563E-06 0
vn 1 5.3143804E-06 -8.106222E-06
vn 1 5.3382664E-06 -7.6293636E-06
vn 1 5.3143804E-06 -8.106222E-06
vn 1 5.2904943E-06 -8.583079E-06
vn -1 -5.1030775E-06 0
vn -1 -5.1030775E-06 0
vn -1 -5.1030775E-06 0
vn -1 -5.1030775E-06 0
vn -1 -5.1030775E-06 0
vn -1 -5.1030775E-06 0
vn 1 4.549908E-06 2.3841862E-06
vn 1 4.430455E-06 4.768372E-06
vn 1 4.549908E-06 2.3841862E-06
vn 1 4.549908E-06 2.3841862E-06
vn 1 4.669361E-06 0
vn -1 -5.103077E-06 0
vn -1 -5.1030775E-06 0
vn -1 -5.103077E-06 0
vn -1 -5.103077E-06 0
vn -1 -5.103077E-06 0
vn -1 -5.1030775E-06 0
vn 2.1591352E-06 -0.6666667 -0.33333337
vn 2.299393E-06 -1 -2.086163E-07
vn 2.120551E-06 -1 -1.04308135E-07
vn 2.120551E-06 -1 -1.04308135E-07
vn 9.708548E-07 -0.5 -0.5
vn 2.1591352E-06 -0.6666667 -0.33333337
vn -0 -5.3389713E-06 1
vn -0 -5.3389713E-06 0.99999994
vn -0 -5.3389713E-06 1
vn -0 -5.3389713E-06 1
vn -0 -5.3389713E-06 1
vn -0 -5.3389713E-06 0.99999994
vn -3.4814738E-12 5.3270273E-06 -1
vn -6.962946E-12 5.3270273E-06 -1
vn -3.4814738E-12 5.3270273E-06 -1
vn -3.4814738E-12 5.3270273E-06 -1
vn -3.4814738E-12 5.3270273E-06 -1
vn -0 5.327028E-06 -0.99999994
g pb_Mesh492770_0
f 3/3/3 2/2/2 1/1/1
f 6/6/6 5/5/5 4/4/4
f 7/7/7 6/6/6 4/4/4
f 10/10/10 9/9/9 8/8/8
f 13/13/13 12/12/12 11/11/11
f 16/16/16 15/15/15 14/14/14
f 19/19/19 18/18/18 17/17/17
f 22/22/22 21/21/21 20/20/20
f 25/25/25 24/24/24 23/23/23
f 28/28/28 27/27/27 26/26/26
f 31/31/31 30/30/30 29/29/29
f 34/34/34 33/33/33 32/32/32
f 37/37/37 36/36/36 35/35/35
f 38/38/38 37/37/37 35/35/35
f 41/41/41 40/40/40 39/39/39
f 44/44/44 43/43/43 42/42/42
f 47/47/47 46/46/46 45/45/45
f 50/50/50 49/49/49 48/48/48
f 53/53/53 52/52/52 51/51/51
f 56/56/56 55/55/55 54/54/54
f 57/57/57 56/56/56 54/54/54
f 60/60/60 59/59/59 58/58/58
f 63/63/63 62/62/62 61/61/61
f 66/66/66 65/65/65 64/64/64
f 68/68/68 67/67/67 64/64/64
f 71/71/71 70/70/70 69/69/69
f 74/74/74 73/73/73 72/72/72
f 77/77/77 76/76/76 75/75/75
f 80/80/80 79/79/79 78/78/78
f 83/83/83 82/82/82 81/81/81
f 86/86/86 85/85/85 84/84/84
f 89/89/89 88/88/88 87/87/87
f 92/92/92 91/91/91 90/90/90
