g pb_Mesh416048
v 22.273788 15.6118 -0.6195121
v 21.492506 15.611798 -0.61951065
v 22.180523 17.567717 -0.7189617
v 21.58576 17.567717 -0.7189603
v 21.492506 15.611798 -0.61951065
v 21.4925 15.611798 -1.4140749
v 21.58576 17.567717 -0.7189603
v 21.585758 17.567717 -1.3145056
v 21.4925 15.611798 -1.4140749
v 22.27378 15.611798 -1.414084
v 21.585758 17.567717 -1.3145056
v 22.180523 17.567717 -1.314507
v 22.27378 15.611798 -1.414084
v 22.273788 15.6118 -0.6195121
v 22.180523 17.567717 -1.314507
v 22.180523 17.567717 -0.7189617
v 22.180523 17.567717 -0.7189617
v 21.58576 17.567717 -0.7189603
v 22.180523 17.567717 -1.314507
v 21.585758 17.567717 -1.3145056
v 22.27378 15.611798 -1.414084
v 21.4925 15.611798 -1.4140749
v 22.273788 15.6118 -0.6195121
v 21.492506 15.611798 -0.61951065
vt 0 0
vt -0.7812824 -1.9098127E-06
vt -0.093263455 1.9584432
vt -0.68802625 1.9584432
vt -2.32042E-06 -0.037210498
vt -0.7945666 -0.037210498
vt -0.099451505 1.9209298
vt -0.6949968 1.9209298
vt 0.781277 -0.040399052
vt -3.4919904E-06 -0.040399052
vt 0.6880203 1.9180521
vt 0.09325747 1.9180523
vt 0.7945719 -1.9095155E-06
vt 0 0
vt 0.6949956 1.9581386
vt 0.09945032 1.9581387
vt 0.093263626 -0.099449635
vt 0.6880264 -0.099448204
vt 0.09326553 -0.6949949
vt 0.68802834 -0.6949935
vt -5.722046E-06 -0.7945719
vt -0.78128624 -0.7945628
vt 0 0
vt -0.7812824 1.4305069E-06
vn 1.704647E-06 0.05078003 0.9987099
vn 2.0073767E-06 0.050779928 0.99870986
vn 2.0073767E-06 0.050779928 0.99870986
vn 2.4050428E-06 0.050779782 0.9987099
vn -0.9988653 0.04762417 7.1933177E-06
vn -0.9988653 0.047624778 5.480156E-06
vn -0.9988653 0.047624778 5.480156E-06
vn -0.9988653 0.04762559 3.19449E-06
vn -1.158123E-05 0.050841402 -0.9987067
vn -7.615022E-06 0.050842796 -0.9987067
vn -7.615022E-06 0.050842796 -0.9987067
vn -2.4050269E-06 0.050844625 -0.99870646
vn 0.9988652 0.047626246 -9.7053235E-06
vn 0.9988652 0.04762772 -5.547431E-06
vn 0.9988652 0.04762772 -5.547431E-06
vn 0.998865 0.04762968 0
vn -0 1 0
vn -0 1 0
vn -0 1 0
vn -0 1 0
vn 2.7836435E-11 -1 2.4004735E-06
vn 1.2206619E-06 -1 1.2002322E-06
vn 1.2206619E-06 -1 1.2002322E-06
vn 2.4413048E-06 -1 -1.758103E-11
g pb_Mesh416048_0
f 3/3/3 2/2/2 1/1/1
f 3/3/3 4/4/4 2/2/2
f 7/7/7 6/6/6 5/5/5
f 7/7/7 8/8/8 6/6/6
f 11/11/11 10/10/10 9/9/9
f 11/11/11 12/12/12 10/10/10
f 15/15/15 14/14/14 13/13/13
f 15/15/15 16/16/16 14/14/14
f 19/19/19 18/18/18 17/17/17
f 19/19/19 20/20/20 18/18/18
f 23/23/23 22/22/22 21/21/21
f 23/23/23 24/24/24 22/22/22
