g pb_Mesh-2472732
v 0.21127835 -0.15000005 0.19026932
v -0.097177684 -0.15000005 0.19026971
v 0.21127835 0.14999995 0.19026932
v -0.097177684 0.14999995 0.19026971
v -0.097177684 -0.15000005 0.19026971
v -0.09717816 -0.15000005 -0.13892081
v -0.097177684 0.14999995 0.19026971
v -0.09717816 0.14999995 -0.13892081
v -0.09717816 -0.15000005 -0.13892081
v 0.21127787 -0.15000005 -0.13892117
v -0.09717816 0.14999995 -0.13892081
v 0.21127787 0.14999995 -0.13892117
v 0.21127787 -0.15000005 -0.13892117
v 0.21127835 -0.15000005 0.19026932
v 0.21127787 0.14999995 -0.13892117
v 0.21127835 0.14999995 0.19026932
v 0.21127835 0.14999995 0.19026932
v -0.097177684 0.14999995 0.19026971
v 0.21127787 0.14999995 -0.13892117
v -0.09717816 0.14999995 -0.13892081
v 0.21127787 -0.15000005 -0.13892117
v -0.09717816 -0.15000005 -0.13892081
v 0.21127835 -0.15000005 0.19026932
v -0.097177684 -0.15000005 0.19026971
vt 0.21127811 -0.15000005
vt -0.09717792 -0.15000005
vt 0.21127811 0.14999995
vt -0.09717792 0.14999995
vt 0.19026957 -0.15000005
vt -0.13892095 -0.15000005
vt 0.19026957 0.14999995
vt -0.13892095 0.14999995
vt 0.097178 -0.15000005
vt -0.21127804 -0.15000005
vt 0.097178 0.14999995
vt -0.21127804 0.14999995
vt 0.13892086 -0.15000005
vt -0.19026963 -0.15000005
vt 0.13892086 0.14999995
vt -0.19026963 0.14999995
vt -0.21127835 0.19026932
vt 0.097177684 0.19026971
vt -0.21127787 -0.13892117
vt 0.09717816 -0.13892081
vt 0.21127787 -0.13892117
vt -0.09717816 -0.13892081
vt 0.21127835 0.19026932
vt -0.097177684 0.19026971
vn 1.2560305E-06 0 1
vn 1.2560305E-06 0 1
vn 1.2560305E-06 0 1
vn 1.2560305E-06 0 1
vn -1 0 1.4485142E-06
vn -1 0 1.4485142E-06
vn -1 0 1.4485142E-06
vn -1 0 1.4485142E-06
vn -1.1594128E-06 0 -1
vn -1.1594128E-06 0 -1
vn -1.1594128E-06 0 -1
vn -1.1594128E-06 0 -1
vn 1 0 -1.4485144E-06
vn 1 0 -1.4485144E-06
vn 1 0 -1.4485144E-06
vn 1 0 -1.4485144E-06
vn -0 0.99999994 0
vn -0 1 0
vn -0 1 0
vn -0 1 0
vn -0 -0.99999994 0
vn -0 -1 0
vn -0 -1 0
vn -0 -1 0
g pb_Mesh-2472732_0
f 3/3/3 2/2/2 1/1/1
f 3/3/3 4/4/4 2/2/2
f 7/7/7 6/6/6 5/5/5
f 7/7/7 8/8/8 6/6/6
f 11/11/11 10/10/10 9/9/9
f 11/11/11 12/12/12 10/10/10
f 15/15/15 14/14/14 13/13/13
f 15/15/15 16/16/16 14/14/14
f 19/19/19 18/18/18 17/17/17
f 19/19/19 20/20/20 18/18/18
f 23/23/23 22/22/22 21/21/21
f 23/23/23 24/24/24 22/22/22
