g pb_Mesh416094
v 22.273811 26.612 12.380489
v 21.492529 26.612 12.380489
v 22.180548 28.567917 12.281036
v 21.585785 28.567917 12.28104
v 21.492529 26.612 12.380489
v 21.492527 26.612 11.585926
v 21.585785 28.567917 12.28104
v 21.585785 28.567917 11.685495
v 21.492527 26.612 11.585926
v 22.273808 26.612 11.5859165
v 21.585785 28.567917 11.685495
v 22.180546 28.567917 11.685493
v 22.273808 26.612 11.5859165
v 22.273811 26.612 12.380489
v 22.180546 28.567917 11.685493
v 22.180548 28.567917 12.281036
v 22.180548 28.567917 12.281036
v 21.585785 28.567917 12.28104
v 22.180546 28.567917 11.685493
v 21.585785 28.567917 11.685495
v 22.273808 26.612 11.5859165
v 21.492527 26.612 11.585926
v 22.273811 26.612 12.380489
v 21.492529 26.612 12.380489
vt 0 0
vt -0.7812824 -1.9098127E-06
vt -0.093263455 1.9584432
vt -0.68802625 1.9584432
vt -2.32042E-06 -0.037210498
vt -0.7945666 -0.037210498
vt -0.099451505 1.9209298
vt -0.6949968 1.9209298
vt 0.781277 -0.040399052
vt -3.4919904E-06 -0.040399052
vt 0.6880203 1.9180521
vt 0.09325747 1.9180523
vt 0.7945719 -1.9095155E-06
vt 0 0
vt 0.6949956 1.9581386
vt 0.09945032 1.9581387
vt 0.093263626 -0.099449635
vt 0.6880264 -0.099448204
vt 0.09326553 -0.6949949
vt 0.68802834 -0.6949935
vt -5.722046E-06 -0.7945719
vt -0.78128624 -0.7945628
vt 0 0
vt -0.7812824 1.4305069E-06
vn -0 0.050781626 0.99870986
vn 2.7702183E-06 0.050780658 0.99870986
vn 2.7702183E-06 0.050780658 0.99870986
vn 6.4091864E-06 0.050779376 0.99870986
vn -0.9988653 0.04762492 2.3977755E-06
vn -0.99886525 0.047625292 1.3705296E-06
vn -0.99886525 0.047625292 1.3705296E-06
vn -0.99886525 0.047625776 0
vn -1.2190768E-05 0.050841454 -0.9987067
vn -8.303944E-06 0.050842818 -0.99870664
vn -8.303944E-06 0.050842818 -0.99870664
vn -3.1981963E-06 0.050844613 -0.9987066
vn 0.9988651 0.047627963 -4.7954927E-06
vn 0.9988651 0.047628205 -4.109609E-06
vn 0.9988651 0.047628205 -4.109609E-06
vn 0.9988651 0.04762853 -3.1945037E-06
vn -0 1 0
vn -0 1 0
vn -0 1 0
vn -0 1 0
vn -0 -0.99999994 0
vn -0 -1 0
vn -0 -1 0
vn -0 -1 0
g pb_Mesh416094_0
f 3/3/3 2/2/2 1/1/1
f 3/3/3 4/4/4 2/2/2
f 7/7/7 6/6/6 5/5/5
f 7/7/7 8/8/8 6/6/6
f 11/11/11 10/10/10 9/9/9
f 11/11/11 12/12/12 10/10/10
f 15/15/15 14/14/14 13/13/13
f 15/15/15 16/16/16 14/14/14
f 19/19/19 18/18/18 17/17/17
f 19/19/19 20/20/20 18/18/18
f 23/23/23 22/22/22 21/21/21
f 23/23/23 24/24/24 22/22/22
