g pb_Mesh158260
v -7.908751 5.220734 0.8994437
v -7.908751 2.9079494 0.89944375
v -6.5208483 2.9079494 1.3587059
v -6.5208483 8.220734 1.3587058
v -6.5208483 2.5736027 1.3587059
v -6.5208483 2.9079494 1.3587059
v -7.908751 2.573604 0.89944375
v -6.5208483 2.9079494 1.3587059
v -6.5208483 2.5736027 1.3587059
v -5.9432964 2.5873697 1.4507229
v -5.952509 2.907949 1.4507229
vt 0 0
vt 0 0.70284134
vt 1 0.70284134
vt 1 0
vt 1 0.7531191
vt 1 0.70284134
vt 0 0.7531191
vt 0 0
vt 0 0.8660794
vt 1 0.8660794
vt 1 0
vn 0.31415105 -1.8114095E-08 -0.949373
vn 0.31415105 -1.223353E-08 -0.949373
vn 0.31415105 -9.057048E-09 -0.949373
vn 0.31415108 -1.5348496E-08 -0.9493731
vn 0.31415105 0 -0.949373
vn 0.31415105 -9.057048E-09 -0.949373
vn 0.31415102 0 -0.94937295
vn 0.15854493 0.0022301618 -0.9873493
vn 0.15733819 0 -0.9875448
vn 0.15854493 0.0022301618 -0.9873493
vn 0.15982224 0.004592805 -0.9871352
g pb_Mesh158260_0
f 3/3/3 2/2/2 1/1/1
f 4/4/4 3/3/3 1/1/1
f 6/6/6 5/5/5 2/2/2
f 5/5/5 7/7/7 2/2/2
f 10/10/10 9/9/9 8/8/8
f 11/11/11 10/10/10 8/8/8
