g pb_Mesh104268
v 0.13860777 -0.07069191 3.837668
v 0.018426694 -0.07069191 3.837668
v 0.13860777 0.070690304 3.837668
v 0.018426694 0.070690304 3.837668
v 0.018426694 -0.07069191 3.6888323
v 0.018428802 -0.07069111 1.4610632E-06
v 0.018426694 0.070690304 3.6888323
v 0.018428802 0.07069111 1.4610632E-06
v 0.018428802 -0.07069111 1.4610632E-06
v 0.13860989 -0.07069111 1.5497208E-06
v 0.018428802 0.07069111 1.4610632E-06
v 0.13860989 0.07069111 1.5497208E-06
v 0.13860989 -0.07069111 1.5497208E-06
v 0.13860777 -0.07069191 3.6888323
v 0.13860989 0.07069111 1.5497208E-06
v 0.13860777 0.070690304 3.6888323
v 0.13860777 0.070690304 3.6888323
v 0.018426694 0.070690304 3.6888323
v 0.13860989 0.07069111 1.5497208E-06
v 0.018428802 0.07069111 1.4610632E-06
v 0.13860989 -0.07069111 1.5497208E-06
v 0.018428802 -0.07069111 1.4610632E-06
v 0.13860777 -0.07069191 3.6888323
v 0.018426694 -0.07069191 3.6888323
v 0.13860777 -0.07069191 3.837668
v 0.018426694 -0.07069191 3.837668
v 2.5121205 0.07069017 3.6888323
v 2.5121205 -0.07069205 3.6888323
v 2.5121205 0.07069017 3.837668
v 2.5121205 -0.07069205 3.837668
v 0.018426694 -0.07069191 3.837668
v 0.018426694 0.070690304 3.837668
v 0.018426694 0.070690304 3.837668
v 0.13860777 0.070690304 3.837668
v 0.13860777 0.070690304 3.6888323
v 0.13860777 -0.07069191 3.6888323
v 2.3614178 0.07069017 3.6888323
v 2.3614178 -0.07069205 3.6888323
v 2.3614178 0.07069017 3.837668
v 2.3614178 0.07069017 3.6888323
v 2.3614178 -0.07069205 3.6888323
v 2.3614178 -0.07069205 3.837668
v 2.3614178 -0.07069205 3.837668
v 2.3614178 0.07069017 3.837668
v 2.3614178 0.07068995 -0.06324668
v 2.3614178 -0.07069227 -0.06324668
v 2.5121205 0.07068995 -0.06324668
v 2.5121205 -0.07069227 -0.06324668
v 2.5121205 0.07069017 3.837668
v 2.5121205 0.07069017 3.6888323
v 2.5121205 -0.07069205 3.6888323
v 2.5121205 -0.07069205 3.837668
v 2.5121205 -0.07069205 3.837668
v 2.5121205 0.07069017 3.837668
v 2.3614178 0.07069017 3.6888323
v 2.3614178 -0.07069205 3.6888323
v 2.3614178 0.07068995 -0.06324668
v 2.3614178 -0.07069227 -0.06324668
v 2.5121205 0.07068995 -0.06324668
v 2.3614178 0.07068995 -0.06324668
v 2.3614178 -0.07069227 -0.06324668
v 2.5121205 -0.07069227 -0.06324668
v 2.5121205 -0.07069227 -0.06324668
v 2.5121205 0.07068995 -0.06324668
vt 0.13860777 -0.07069191
vt 0.018426694 -0.07069191
vt 0.13860777 0.070690304
vt 0.018426694 0.070690304
vt 3.6888323 -0.07069191
vt 1.4505295E-06 -0.07069111
vt 3.6888323 0.070690304
vt 1.4505295E-06 0.07069111
vt -0.018428802 -0.07069111
vt -0.13860989 -0.07069111
vt -0.018428802 0.07069111
vt -0.13860989 0.07069111
vt -1.4702122E-06 -0.07069111
vt -3.6888323 -0.07069191
vt -1.4702122E-06 0.07069111
vt -3.6888323 0.070690304
vt -0.13860777 3.6888323
vt -0.018426694 3.6888323
vt -0.13860989 1.5343006E-06
vt -0.018428802 1.4456431E-06
vt 0.13860989 1.5651409E-06
vt 0.018428802 1.4764834E-06
vt 0.13860777 3.6888323
vt 0.018426694 3.6888323
vt 0.13860777 3.837668
vt 0.018426694 3.837668
vt -3.6888323 0.07069017
vt -3.6888323 -0.07069205
vt -3.837668 0.07069017
vt -3.837668 -0.07069205
vt 3.837668 -0.07069191
vt 3.837668 0.070690304
vt -0.018426694 3.837668
vt -0.13860777 3.837668
vt -0.13860777 0.070690304
vt -0.13860777 -0.07069191
vt -2.3614178 0.07069017
vt -2.3614178 -0.07069205
vt -2.3614178 3.837668
vt -2.3614178 3.6888323
vt 2.3614178 3.6888323
vt 2.3614178 3.837668
vt 2.3614178 -0.07069205
vt 2.3614178 0.07069017
vt -2.3614178 0.07068995
vt -2.3614178 -0.07069227
vt -2.5121205 0.07068995
vt -2.5121205 -0.07069227
vt -2.5121205 3.837668
vt -2.5121205 3.6888323
vt 2.5121205 3.6888323
vt 2.5121205 3.837668
vt 2.5121205 -0.07069205
vt 2.5121205 0.07069017
vt 3.6888323 0.07069017
vt 3.6888323 -0.07069205
vt -0.06324668 0.07068995
vt -0.06324668 -0.07069227
vt -2.5121205 -0.063246675
vt -2.3614178 -0.063246675
vt 2.3614178 -0.06324669
vt 2.5121205 -0.06324669
vt 0.06324668 -0.07069227
vt 0.06324668 0.07068995
vn -0 0 1
vn -0 0 1
vn -0 0 1
vn -0 0 1
vn -1 0 -5.7159417E-07
vn -1 0 -5.7159417E-07
vn -1 0 -5.7159417E-07
vn -1 0 -5.7159417E-07
vn 7.376996E-07 0 -1
vn 7.376996E-07 0 -1
vn 7.376996E-07 0 -1
vn 7.376996E-07 0 -1
vn 1 0 5.7361393E-07
vn 1 0 5.7361393E-07
vn 1 0 5.7361393E-07
vn 1 0 5.7361393E-07
vn -0 1 2.1813489E-07
vn -0 1 2.181349E-07
vn -0 1 2.181349E-07
vn -0 0.99999994 2.1813487E-07
vn 1.6091802E-13 -0.99999994 -2.1813487E-07
vn 8.045902E-14 -1 -2.181349E-07
vn 8.045902E-14 -1 -2.181349E-07
vn -0 -1 -2.1813489E-07
vn -0 -1 0
vn -0 -1 0
vn 1 0 0
vn 1 0 0
vn 1 0 0
vn 1 0 0
vn -1 0 0
vn -1 0 0
vn -0 1 0
vn -0 1 0
vn -0 0 -1
vn -0 0 -1
vn -0 0 -1
vn -0 0 -1
vn 6.033374E-08 1 0
vn 6.033374E-08 1 0
vn -6.033374E-08 -1 0
vn -6.033374E-08 -1 0
vn -0 0 1
vn -0 0 1
vn -0 0 -1
vn -0 0 -1
vn -0 0 -1
vn -0 0 -1
vn -0 1 0
vn -0 1 0
vn -0 -1 0
vn -0 -1 0
vn -0 0 1
vn -0 0 1
vn -1 0 0
vn -1 0 0
vn -1 0 0
vn -1 0 0
vn -0 1 -5.9571615E-08
vn -0 1 -5.9571615E-08
vn -0 -1 5.9571615E-08
vn -0 -1 5.9571615E-08
vn 1 0 0
vn 1 0 0
g pb_Mesh104268_0
f 3/3/3 2/2/2 1/1/1
f 3/3/3 4/4/4 2/2/2
f 7/7/7 6/6/6 5/5/5
f 7/7/7 8/8/8 6/6/6
f 11/11/11 10/10/10 9/9/9
f 11/11/11 12/12/12 10/10/10
f 15/15/15 14/14/14 13/13/13
f 15/15/15 16/16/16 14/14/14
f 19/19/19 18/18/18 17/17/17
f 19/19/19 20/20/20 18/18/18
f 23/23/23 22/22/22 21/21/21
f 23/23/23 24/24/24 22/22/22
f 25/25/25 24/24/24 23/23/23
f 25/25/25 26/26/26 24/24/24
f 29/29/29 28/28/28 27/27/27
f 29/29/29 30/30/30 28/28/28
f 31/31/31 7/7/7 5/5/5
f 31/31/31 32/32/32 7/7/7
f 33/33/33 17/17/17 18/18/18
f 33/33/33 34/34/34 17/17/17
f 37/37/37 36/36/36 35/35/35
f 37/37/37 38/38/38 36/36/36
f 39/39/39 17/17/17 34/34/34
f 39/39/39 40/40/40 17/17/17
f 41/41/41 25/25/25 23/23/23
f 41/41/41 42/42/42 25/25/25
f 43/43/43 3/3/3 1/1/1
f 43/43/43 44/44/44 3/3/3
f 47/47/47 46/46/46 45/45/45
f 47/47/47 48/48/48 46/46/46
f 49/49/49 40/40/40 39/39/39
f 49/49/49 50/50/50 40/40/40
f 51/51/51 42/42/42 41/41/41
f 51/51/51 52/52/52 42/42/42
f 53/53/53 44/44/44 43/43/43
f 53/53/53 54/54/54 44/44/44
f 57/57/57 56/56/56 55/55/55
f 57/57/57 58/58/58 56/56/56
f 59/59/59 40/40/40 50/50/50
f 59/59/59 60/60/60 40/40/40
f 61/61/61 51/51/51 41/41/41
f 61/61/61 62/62/62 51/51/51
f 63/63/63 27/27/27 28/28/28
f 63/63/63 64/64/64 27/27/27
