g pb_Mesh416418
v 16.390657 15.6118 -0.61950064
v 15.609375 15.611798 -0.6194992
v 16.297394 17.567717 -0.7189503
v 15.702631 17.567717 -0.7189493
v 15.609375 15.611798 -0.6194992
v 15.609371 15.611798 -1.4140639
v 15.702631 17.567717 -0.7189493
v 15.702629 17.567717 -1.3144946
v 15.609371 15.611798 -1.4140639
v 16.390652 15.611798 -1.414073
v 15.702629 17.567717 -1.3144946
v 16.297392 17.567717 -1.3144956
v 16.390652 15.611798 -1.414073
v 16.390657 15.6118 -0.61950064
v 16.297392 17.567717 -1.3144956
v 16.297394 17.567717 -0.7189503
v 16.297394 17.567717 -0.7189503
v 15.702631 17.567717 -0.7189493
v 16.297392 17.567717 -1.3144956
v 15.702629 17.567717 -1.3144946
v 16.390652 15.611798 -1.414073
v 15.609371 15.611798 -1.4140639
v 16.390657 15.6118 -0.61950064
v 15.609375 15.611798 -0.6194992
vt 0 0
vt -0.7812824 -1.9098127E-06
vt -0.093263455 1.9584432
vt -0.68802625 1.9584432
vt -2.32042E-06 -0.037210498
vt -0.7945666 -0.037210498
vt -0.099451505 1.9209298
vt -0.6949968 1.9209298
vt 0.781277 -0.040399052
vt -3.4919904E-06 -0.040399052
vt 0.6880203 1.9180521
vt 0.09325747 1.9180523
vt 0.7945719 -1.9095155E-06
vt 0 0
vt 0.6949956 1.9581386
vt 0.09945032 1.9581387
vt 0.093263626 -0.099449635
vt 0.6880264 -0.099448204
vt 0.09326553 -0.6949949
vt 0.68802834 -0.6949935
vt -5.722046E-06 -0.7945719
vt -0.78128624 -0.7945628
vt 0 0
vt -0.7812824 1.4305069E-06
vn 1.704647E-06 0.05078003 0.9987099
vn 1.6590257E-06 0.050780043 0.99870986
vn 1.6590257E-06 0.050780043 0.99870986
vn 1.5990975E-06 0.05078006 0.99870986
vn -0.9988653 0.04762502 4.7955423E-06
vn -0.99886525 0.047625262 4.1096255E-06
vn -0.99886525 0.047625262 4.1096255E-06
vn -0.9988653 0.04762559 3.19449E-06
vn -1.158123E-05 0.050841402 -0.9987067
vn -7.2666826E-06 0.05084292 -0.99870664
vn -7.2666826E-06 0.05084292 -0.99870664
vn -1.5990923E-06 0.050844908 -0.9987066
vn 0.9988652 0.04762709 -7.307571E-06
vn 0.99886525 0.047627717 -5.5454734E-06
vn 0.99886525 0.047627717 -5.5454734E-06
vn 0.9988651 0.04762855 -3.1944924E-06
vn -0 1 0
vn -0 1 0
vn -0 1 0
vn -0 1 0
vn 2.7836415E-11 -1 2.4004719E-06
vn 1.220662E-06 -1 1.2002345E-06
vn 1.220662E-06 -1 1.2002345E-06
vn 2.441305E-06 -1 -1.1720681E-11
g pb_Mesh416418_0
f 3/3/3 2/2/2 1/1/1
f 3/3/3 4/4/4 2/2/2
f 7/7/7 6/6/6 5/5/5
f 7/7/7 8/8/8 6/6/6
f 11/11/11 10/10/10 9/9/9
f 11/11/11 12/12/12 10/10/10
f 15/15/15 14/14/14 13/13/13
f 15/15/15 16/16/16 14/14/14
f 19/19/19 18/18/18 17/17/17
f 19/19/19 20/20/20 18/18/18
f 23/23/23 22/22/22 21/21/21
f 23/23/23 24/24/24 22/22/22
