g pb_Mesh621058
v -0 0 0
v -1.3397465 0 -5
v -0 1 0
v -1.3397465 1 -5
v 7.230253 0 -5
v 7.421837 0 -4.285
v 7.230253 1 -5
v 7.421837 1 -4.285
v 3.660254 0 -0.18782163
v -0 0 0
v 3.660254 1 -0.18782163
v -0 1 0
v 7.421837 0 -4.285
v 7.9452534 0 -3.7615833
v 7.421837 1 -4.285
v 7.9452534 1 -3.7615833
v 8.660254 0 -0.053847075
v 3.660254 0 -0.18782163
v 8.660254 1 -0.053847075
v 3.660254 1 -0.18782163
v 7.9452534 0 -3.7615833
v 8.660254 0 -3.5699997
v 7.9452534 1 -3.7615833
v 8.660254 1 -3.5699997
v 13.660254 0 -0.18782163
v 8.660254 0 -0.053847075
v 13.660254 1 -0.18782163
v 8.660254 1 -0.053847075
v 8.660254 0 -3.5699997
v 9.375254 0 -3.7615833
v 8.660254 1 -3.5699997
v 9.375254 1 -3.7615833
v 17.320507 0 4.7683716E-07
v 13.660254 0 -0.18782163
v 17.320507 1 4.7683716E-07
v 13.660254 1 -0.18782163
v 9.375254 0 -3.7615833
v 9.89867 0 -4.285
v 9.375254 1 -3.7615833
v 9.89867 1 -4.285
v 18.660254 0 -5.000001
v 17.320507 0 4.7683716E-07
v 18.660254 1 -5.000001
v 17.320507 1 4.7683716E-07
v 9.89867 0 -4.285
v 10.090254 0 -5
v 9.89867 1 -4.285
v 10.090254 1 -5
v 17.320507 0 -10
v 18.660254 0 -5.000001
v 17.320507 1 -10
v 18.660254 1 -5.000001
v 10.090254 0 -5
v 9.89867 0 -5.715
v 10.090254 1 -5
v 9.89867 0 -5.715
v 9.89867 1 -5.715
v 10.090254 1 -5
v 13.660253 0 -13.6602545
v 17.320507 0 -10
v 13.660253 1 -13.6602545
v 17.320507 1 -10
v 9.89867 0 -5.715
v 9.375254 0 -6.2384167
v 9.89867 1 -5.715
v 9.375254 1 -6.2384167
v 8.660254 0 -15
v 13.660253 0 -13.6602545
v 8.660254 1 -15
v 13.660253 1 -13.6602545
v 9.375254 0 -6.2384167
v 8.660254 0 -6.4300003
v 9.375254 1 -6.2384167
v 8.660254 1 -6.4300003
v 3.6602545 0 -13.6602545
v 8.660254 0 -15
v 3.6602545 1 -13.6602545
v 8.660254 1 -15
v 8.660254 0 -6.4300003
v 7.9452534 0 -6.2384167
v 8.660254 1 -6.4300003
v 7.9452534 1 -6.2384167
v -0 0 -10.000002
v 3.6602545 0 -13.6602545
v -0 1 -10.000002
v 3.6602545 1 -13.6602545
v 7.9452534 0 -6.2384167
v 7.421837 0 -5.715
v 7.9452534 1 -6.2384167
v 7.421837 1 -5.715
v -1.3397465 0 -5
v -0 0 -10.000002
v -1.3397465 1 -5
v -0 1 -10.000002
v 7.421837 0 -5.715
v 7.230253 0 -5
v 7.421837 1 -5.715
v 7.230253 1 -5
v -0 2 0
v -1.3397465 2 -5
v 7.230253 2 -5
v 7.421837 2 -4.285
v 3.660254 2 -0.18782163
v -0 2 0
v 7.421837 2 -4.285
v 7.9452534 2 -3.7615833
v 8.660254 2 -0.053847075
v 3.660254 2 -0.18782163
v 7.9452534 2 -3.7615833
v 8.660254 2 -3.5699997
v 13.660254 2 -0.18782163
v 8.660254 2 -0.053847075
v 8.660254 2 -3.5699997
v 9.375254 2 -3.7615833
v 17.320507 2 4.7683716E-07
v 13.660254 2 -0.18782163
v 9.375254 2 -3.7615833
v 9.89867 2 -4.285
v 18.660254 2 -5.000001
v 17.320507 2 4.7683716E-07
v 9.89867 2 -4.285
v 10.090254 2 -5
v 17.320507 2 -10
v 18.660254 2 -5.000001
v 10.090254 2 -5
v 9.89867 2 -5.715
v 13.660253 2 -13.6602545
v 17.320507 2 -10
v 9.89867 2 -5.715
v 9.375254 2 -6.2384167
v 8.660254 2 -15
v 13.660253 2 -13.6602545
v 9.375254 2 -6.2384167
v 8.660254 2 -6.4300003
v 3.6602545 2 -13.6602545
v 8.660254 2 -15
v 8.660254 2 -6.4300003
v 7.9452534 2 -6.2384167
v -0 2 -10.000002
v 3.6602545 2 -13.6602545
v 7.9452534 2 -6.2384167
v 7.421837 2 -5.715
v -1.3397465 2 -5
v -0 2 -10.000002
v 7.421837 2 -5.715
v 7.230253 2 -5
v -1.3397465 0 -5
v -0 0 0
v 7.230253 0 -5
v 7.421837 0 -4.285
v 3.660254 0 -0.18782163
v 7.421837 0 -4.285
v 7.9452534 0 -3.7615833
v 8.660254 0 -0.053847075
v 7.9452534 0 -3.7615833
v 8.660254 0 -3.5699997
v 8.660254 0 -0.053847075
v 13.660254 0 -0.18782163
v 9.375254 0 -3.7615833
v 17.320507 0 4.7683716E-07
v 9.89867 0 -4.285
v 18.660254 0 -5.000001
v 10.090254 0 -5
v 17.320507 0 -10
v 9.89867 0 -5.715
v 17.320507 0 -10
v 13.660253 0 -13.6602545
v 9.375254 0 -6.2384167
v 13.660253 0 -13.6602545
v 8.660254 0 -15
v 8.660254 0 -6.4300003
v 3.6602545 0 -13.6602545
v 7.9452534 0 -6.2384167
v -0 0 -10.000002
v 7.9452534 0 -6.2384167
v 7.421837 0 -5.715
v -0 2 0
v -1.3397465 2 -5
v 7.421837 2 -4.285
v 7.230253 2 -5
v 3.660254 2 -0.18782163
v 7.9452534 2 -3.7615833
v 8.660254 2 -0.053847075
v 8.660254 2 -3.5699997
v 13.660254 2 -0.18782163
v 9.375254 2 -3.7615833
v 17.320507 2 4.7683716E-07
v 9.89867 2 -4.285
v 18.660254 2 -5.000001
v 10.090254 2 -5
v 9.89867 2 -4.285
v 17.320507 2 -10
v 9.89867 2 -5.715
v 13.660253 2 -13.6602545
v 17.320507 2 -10
v 9.375254 2 -6.2384167
v 8.660254 2 -15
v 13.660253 2 -13.6602545
v 8.660254 2 -6.4300003
v 3.6602545 2 -13.6602545
v 7.9452534 2 -6.2384167
v -0 2 -10.000002
v 7.421837 2 -5.715
vt 0 0
vt -5.176381 0
vt 0 1
vt -5.176381 1
vt 2.9583027 0
vt 2.21808 0
vt 2.9583027 1
vt 2.21808 1
vt 3.6650698 0
vt 0 0
vt 3.6650698 1
vt 0 1
vt -2.2180789 0
vt -2.9583015 0
vt -2.2180789 1
vt -2.9583015 1
vt 8.6557045 0
vt 3.65391 0
vt 8.6557045 1
vt 3.65391 1
vt -6.700957 0
vt -7.4411793 0
vt -6.700957 1
vt -7.4411793 1
vt 13.660383 0
vt 8.658588 0
vt 13.660383 1
vt 8.658588 1
vt -9.289146 0
vt -10.029369 0
vt -9.289146 1
vt -10.029369 1
vt 17.297749 0
vt 13.63268 0
vt 17.297749 1
vt 13.63268 1
vt -9.289147 0
vt -10.02937 0
vt -9.289147 1
vt -10.02937 1
vt 9.65926 0
vt 4.4828773 0
vt 9.65926 1
vt 4.4828773 1
vt -6.700956 0
vt -7.4411783 0
vt -6.700956 1
vt -7.4411783 1
vt 5.176378 0
vt -2.3232233E-06 0
vt 5.176378 1
vt -2.3232233E-06 1
vt -2.2180805 0
vt -2.958303 0
vt -2.2180805 1
vt -2.958303 0
vt -2.958303 1
vt -2.2180805 1
vt 1.3486992E-06 0
vt -5.1763806 0
vt 1.3486992E-06 1
vt -5.1763806 1
vt 2.9583015 0
vt 2.2180789 0
vt 2.9583015 1
vt 2.2180789 1
vt -4.4828777 0
vt -9.659258 0
vt -4.4828777 1
vt -9.659258 1
vt 7.4411798 0
vt 6.700957 0
vt 7.4411798 1
vt 6.700957 1
vt -7.0710683 0
vt -12.247448 0
vt -7.0710683 1
vt -12.247448 1
vt 10.029369 0
vt 9.289146 0
vt 10.029369 1
vt 9.289146 1
vt -7.071068 0
vt -12.247448 0
vt -7.071068 1
vt -12.247448 1
vt 10.02937 0
vt 9.289147 0
vt 10.02937 1
vt 9.289147 1
vt -4.4828773 0
vt -9.65926 0
vt -4.4828773 1
vt -9.65926 1
vt 7.441179 0
vt 6.700956 0
vt 7.441179 1
vt 6.700956 1
vt 0 2
vt -5.176381 2
vt 2.9583027 2
vt 2.21808 2
vt 3.6650698 2
vt 0 2
vt -2.2180789 2
vt -2.9583015 2
vt 8.6557045 2
vt 3.65391 2
vt -6.700957 2
vt -7.4411793 2
vt 13.660383 2
vt 8.658588 2
vt -9.289146 2
vt -10.029369 2
vt 17.297749 2
vt 13.63268 2
vt -9.289147 2
vt -10.02937 2
vt 9.65926 2
vt 4.4828773 2
vt -6.700956 2
vt -7.4411783 2
vt 5.176378 2
vt -2.3232233E-06 2
vt -2.2180805 2
vt -2.958303 2
vt 1.3486992E-06 2
vt -5.1763806 2
vt 2.9583015 2
vt 2.2180789 2
vt -4.4828777 2
vt -9.659258 2
vt 7.4411798 2
vt 6.700957 2
vt -7.0710683 2
vt -12.247448 2
vt 10.029369 2
vt 9.289146 2
vt -7.071068 2
vt -12.247448 2
vt 10.02937 2
vt 9.289147 2
vt -4.4828773 2
vt -9.65926 2
vt 7.441179 2
vt 6.700956 2
vt -1.3397465 -5
vt 0 0
vt 7.230253 -5
vt 7.421837 -4.285
vt 3.660254 -0.18782163
vt 7.421837 -4.285
vt 7.9452534 -3.7615833
vt 8.660254 -0.053847075
vt 7.9452534 -3.7615833
vt 8.660254 -3.5699997
vt 8.660254 -0.053847075
vt 13.660254 -0.18782163
vt 9.375254 -3.7615833
vt 17.320507 4.7683716E-07
vt 9.89867 -4.285
vt 18.660254 -5.000001
vt 10.090254 -5
vt 17.320507 -10
vt 9.89867 -5.715
vt 17.320507 -10
vt 13.660253 -13.6602545
vt 9.375254 -6.2384167
vt 13.660253 -13.6602545
vt 8.660254 -15
vt 8.660254 -6.4300003
vt 3.6602545 -13.6602545
vt 7.9452534 -6.2384167
vt 0 -10.000002
vt 7.9452534 -6.2384167
vt 7.421837 -5.715
vt 0 0
vt 1.3397465 -5
vt -7.421837 -4.285
vt -7.230253 -5
vt -3.660254 -0.18782163
vt -7.9452534 -3.7615833
vt -8.660254 -0.053847075
vt -8.660254 -3.5699997
vt -13.660254 -0.18782163
vt -9.375254 -3.7615833
vt -17.320507 4.7683716E-07
vt -9.89867 -4.285
vt -18.660254 -5.000001
vt -10.090254 -5
vt -9.89867 -4.285
vt -17.320507 -10
vt -9.89867 -5.715
vt -13.660253 -13.6602545
vt -17.320507 -10
vt -9.375254 -6.2384167
vt -8.660254 -15
vt -13.660253 -13.6602545
vt -8.660254 -6.4300003
vt -3.6602545 -13.6602545
vt -7.9452534 -6.2384167
vt 0 -10.000002
vt -7.421837 -5.715
vn -0.96592575 0 0.25881913
vn -0.96592575 0 0.25881913
vn -0.96592575 0 0.25881913
vn -0.96592575 0 0.25881913
vn 0.9659258 0 -0.25881892
vn 0.9659258 0 -0.25881892
vn 0.9659258 0 -0.25881892
vn 0.9659258 0 -0.25881892
vn 0.051246397 0 0.998686
vn 0.051246397 0 0.998686
vn 0.051246397 0 0.998686
vn 0.051246397 0 0.998686
vn 0.70710677 0 -0.70710677
vn 0.70710677 0 -0.70710677
vn 0.70710677 0 -0.70710677
vn 0.70710677 0 -0.70710677
vn -0.0267853 0 0.9996412
vn -0.0267853 0 0.9996412
vn -0.0267853 0 0.9996412
vn -0.0267853 0 0.9996412
vn 0.25881892 0 -0.9659258
vn 0.25881892 0 -0.9659258
vn 0.25881892 0 -0.9659258
vn 0.25881892 0 -0.9659258
vn 0.026785295 0 0.9996412
vn 0.026785295 0 0.9996412
vn 0.026785295 0 0.9996412
vn 0.026785295 0 0.9996412
vn -0.25881892 0 -0.9659258
vn -0.25881892 0 -0.9659258
vn -0.25881892 0 -0.9659258
vn -0.25881892 0 -0.9659258
vn -0.051246535 0 0.998686
vn -0.051246535 0 0.998686
vn -0.051246535 0 0.998686
vn -0.051246535 0 0.998686
vn -0.70710677 0 -0.70710677
vn -0.70710677 0 -0.70710677
vn -0.70710677 0 -0.70710677
vn -0.70710677 0 -0.70710677
vn 0.9659258 0 0.25881907
vn 0.9659258 0 0.25881907
vn 0.9659258 0 0.25881907
vn 0.9659258 0 0.25881907
vn -0.9659258 0 -0.25881892
vn -0.9659258 0 -0.25881892
vn -0.9659258 0 -0.25881892
vn -0.9659258 0 -0.25881892
vn 0.9659258 0 -0.2588192
vn 0.9659258 0 -0.2588192
vn 0.9659258 0 -0.2588192
vn 0.9659258 0 -0.2588192
vn -0.9659258 0 0.25881892
vn -0.9659258 0 0.25881892
vn -0.9659258 0 0.25881892
vn -0.9659258 0 0.25881892
vn -0.9659258 0 0.25881892
vn -0.9659258 0 0.25881892
vn 0.70710677 0 -0.70710677
vn 0.70710677 0 -0.70710677
vn 0.70710677 0 -0.70710677
vn 0.70710677 0 -0.70710677
vn -0.70710677 0 0.70710677
vn -0.70710677 0 0.70710677
vn -0.70710677 0 0.70710677
vn -0.70710677 0 0.70710677
vn 0.258819 0 -0.9659259
vn 0.258819 0 -0.9659259
vn 0.258819 0 -0.9659259
vn 0.258819 0 -0.9659259
vn -0.25881892 0 0.9659258
vn -0.25881892 0 0.9659258
vn -0.25881892 0 0.9659258
vn -0.25881892 0 0.9659258
vn -0.258819 0 -0.9659259
vn -0.258819 0 -0.9659259
vn -0.258819 0 -0.9659259
vn -0.258819 0 -0.9659259
vn 0.25881892 0 0.9659258
vn 0.25881892 0 0.9659258
vn 0.25881892 0 0.9659258
vn 0.25881892 0 0.9659258
vn -0.7071066 0 -0.70710695
vn -0.7071066 0 -0.70710695
vn -0.7071066 0 -0.70710695
vn -0.7071066 0 -0.70710695
vn 0.70710677 0 0.70710677
vn 0.70710677 0 0.70710677
vn 0.70710677 0 0.70710677
vn 0.70710677 0 0.70710677
vn -0.9659258 0 -0.25881904
vn -0.9659258 0 -0.25881904
vn -0.9659258 0 -0.25881904
vn -0.9659258 0 -0.25881904
vn 0.9659258 0 0.25881892
vn 0.9659258 0 0.25881892
vn 0.9659258 0 0.25881892
vn 0.9659258 0 0.25881892
vn -0.96592575 0 0.25881913
vn -0.96592575 0 0.25881913
vn 0.9659258 0 -0.25881892
vn 0.9659258 0 -0.25881892
vn 0.051246397 0 0.998686
vn 0.051246397 0 0.998686
vn 0.70710677 0 -0.70710677
vn 0.70710677 0 -0.70710677
vn -0.0267853 0 0.9996412
vn -0.0267853 0 0.9996412
vn 0.25881892 0 -0.9659258
vn 0.25881892 0 -0.9659258
vn 0.026785295 0 0.9996412
vn 0.026785295 0 0.9996412
vn -0.25881892 0 -0.9659258
vn -0.25881892 0 -0.9659258
vn -0.051246535 0 0.998686
vn -0.051246535 0 0.998686
vn -0.70710677 0 -0.70710677
vn -0.70710677 0 -0.70710677
vn 0.9659258 0 0.25881907
vn 0.9659258 0 0.25881907
vn -0.9659258 0 -0.25881892
vn -0.9659258 0 -0.25881892
vn 0.9659258 0 -0.2588192
vn 0.9659258 0 -0.2588192
vn -0.9659258 0 0.25881892
vn -0.9659258 0 0.25881892
vn 0.70710677 0 -0.70710677
vn 0.70710677 0 -0.70710677
vn -0.70710677 0 0.70710677
vn -0.70710677 0 0.70710677
vn 0.258819 0 -0.9659259
vn 0.258819 0 -0.9659259
vn -0.25881892 0 0.9659258
vn -0.25881892 0 0.9659258
vn -0.258819 0 -0.9659259
vn -0.258819 0 -0.9659259
vn 0.25881892 0 0.9659258
vn 0.25881892 0 0.9659258
vn -0.7071066 0 -0.70710695
vn -0.7071066 0 -0.70710695
vn 0.70710677 0 0.70710677
vn 0.70710677 0 0.70710677
vn -0.9659258 0 -0.25881904
vn -0.9659258 0 -0.25881904
vn 0.9659258 0 0.25881892
vn 0.9659258 0 0.25881892
vn -0 -1 0
vn -0 -1 0
vn -0 -1 0
vn -0 -0.99999994 0
vn -0 -1 0
vn -0 -1 0
vn -0 -1 0
vn -0 -0.99999994 0
vn -0 -0.99999994 0
vn -0 -1 0
vn -0 -1 0
vn -0 -1 0
vn -0 -1 0
vn -0 -1 0
vn -0 -1 0
vn -0 -1 0
vn -0 -1 0
vn -0 -1 0
vn -0 -0.99999994 0
vn -0 -0.99999994 0
vn -0 -0.99999994 0
vn -0 -1 0
vn -0 -1 0
vn -0 -1 0
vn -0 -1 0
vn -0 -1 0
vn -0 -0.99999994 0
vn -0 -1 0
vn -0 -1 0
vn -0 -1 0
vn -0 1 0
vn -0 1 0
vn -0 1 0
vn -0 1 0
vn -0 1 0
vn -0 1 0
vn -0 1 0
vn -0 1 0
vn -0 1 0
vn -0 1 0
vn -0 1 0
vn -0 1 0
vn -0 1 0
vn -0 1 0
vn -0 0.99999994 0
vn -0 1 0
vn -0 1 0
vn -0 0.99999994 0
vn -0 0.99999994 0
vn -0 0.99999994 0
vn -0 1 0
vn -0 1 0
vn -0 1 0
vn -0 1 0
vn -0 1 0
vn -0 1 0
vn -0 1 0
g pb_Mesh621058_0
f 3/3/3 2/2/2 1/1/1
f 3/3/3 4/4/4 2/2/2
f 7/7/7 6/6/6 5/5/5
f 7/7/7 8/8/8 6/6/6
f 11/11/11 10/10/10 9/9/9
f 11/11/11 12/12/12 10/10/10
f 15/15/15 14/14/14 13/13/13
f 15/15/15 16/16/16 14/14/14
f 19/19/19 18/18/18 17/17/17
f 19/19/19 20/20/20 18/18/18
f 23/23/23 22/22/22 21/21/21
f 23/23/23 24/24/24 22/22/22
f 27/27/27 26/26/26 25/25/25
f 27/27/27 28/28/28 26/26/26
f 31/31/31 30/30/30 29/29/29
f 31/31/31 32/32/32 30/30/30
f 35/35/35 34/34/34 33/33/33
f 35/35/35 36/36/36 34/34/34
f 39/39/39 38/38/38 37/37/37
f 39/39/39 40/40/40 38/38/38
f 43/43/43 42/42/42 41/41/41
f 43/43/43 44/44/44 42/42/42
f 47/47/47 46/46/46 45/45/45
f 47/47/47 48/48/48 46/46/46
f 51/51/51 50/50/50 49/49/49
f 51/51/51 52/52/52 50/50/50
f 55/55/55 54/54/54 53/53/53
f 58/58/58 57/57/57 56/56/56
f 61/61/61 60/60/60 59/59/59
f 61/61/61 62/62/62 60/60/60
f 65/65/65 64/64/64 63/63/63
f 65/65/65 66/66/66 64/64/64
f 69/69/69 68/68/68 67/67/67
f 69/69/69 70/70/70 68/68/68
f 73/73/73 72/72/72 71/71/71
f 73/73/73 74/74/74 72/72/72
f 77/77/77 76/76/76 75/75/75
f 77/77/77 78/78/78 76/76/76
f 81/81/81 80/80/80 79/79/79
f 81/81/81 82/82/82 80/80/80
f 85/85/85 84/84/84 83/83/83
f 85/85/85 86/86/86 84/84/84
f 89/89/89 88/88/88 87/87/87
f 89/89/89 90/90/90 88/88/88
f 93/93/93 92/92/92 91/91/91
f 93/93/93 94/94/94 92/92/92
f 97/97/97 96/96/96 95/95/95
f 97/97/97 98/98/98 96/96/96
f 99/99/99 4/4/4 3/3/3
f 99/99/99 100/100/100 4/4/4
f 101/101/101 8/8/8 7/7/7
f 101/101/101 102/102/102 8/8/8
f 103/103/103 12/12/12 11/11/11
f 103/103/103 104/104/104 12/12/12
f 105/105/105 16/16/16 15/15/15
f 105/105/105 106/106/106 16/16/16
f 107/107/107 20/20/20 19/19/19
f 107/107/107 108/108/108 20/20/20
f 109/109/109 24/24/24 23/23/23
f 109/109/109 110/110/110 24/24/24
f 111/111/111 28/28/28 27/27/27
f 111/111/111 112/112/112 28/28/28
f 113/113/113 32/32/32 31/31/31
f 113/113/113 114/114/114 32/32/32
f 115/115/115 36/36/36 35/35/35
f 115/115/115 116/116/116 36/36/36
f 117/117/117 40/40/40 39/39/39
f 117/117/117 118/118/118 40/40/40
f 119/119/119 44/44/44 43/43/43
f 119/119/119 120/120/120 44/44/44
f 121/121/121 48/48/48 47/47/47
f 121/121/121 122/122/122 48/48/48
f 123/123/123 52/52/52 51/51/51
f 123/123/123 124/124/124 52/52/52
f 125/125/125 57/57/57 58/58/58
f 125/125/125 126/126/126 57/57/57
f 127/127/127 62/62/62 61/61/61
f 127/127/127 128/128/128 62/62/62
f 129/129/129 66/66/66 65/65/65
f 129/129/129 130/130/130 66/66/66
f 131/131/131 70/70/70 69/69/69
f 131/131/131 132/132/132 70/70/70
f 133/133/133 74/74/74 73/73/73
f 133/133/133 134/134/134 74/74/74
f 135/135/135 78/78/78 77/77/77
f 135/135/135 136/136/136 78/78/78
f 137/137/137 82/82/82 81/81/81
f 137/137/137 138/138/138 82/82/82
f 139/139/139 86/86/86 85/85/85
f 139/139/139 140/140/140 86/86/86
f 141/141/141 90/90/90 89/89/89
f 141/141/141 142/142/142 90/90/90
f 143/143/143 94/94/94 93/93/93
f 143/143/143 144/144/144 94/94/94
f 145/145/145 98/98/98 97/97/97
f 145/145/145 146/146/146 98/98/98
f 149/149/149 148/148/148 147/147/147
f 149/149/149 150/150/150 148/148/148
f 152/152/152 151/151/151 148/148/148
f 152/152/152 153/153/153 151/151/151
f 155/155/155 154/154/154 151/151/151
f 155/155/155 156/156/156 154/154/154
f 156/156/156 158/158/158 157/157/157
f 156/156/156 159/159/159 158/158/158
f 159/159/159 160/160/160 158/158/158
f 159/159/159 161/161/161 160/160/160
f 161/161/161 162/162/162 160/160/160
f 161/161/161 163/163/163 162/162/162
f 163/163/163 164/164/164 162/162/162
f 163/163/163 165/165/165 164/164/164
f 165/165/165 167/167/167 166/166/166
f 165/165/165 168/168/168 167/167/167
f 168/168/168 170/170/170 169/169/169
f 168/168/168 171/171/171 170/170/170
f 171/171/171 172/172/172 170/170/170
f 171/171/171 173/173/173 172/172/172
f 175/175/175 174/174/174 172/172/172
f 175/175/175 176/176/176 174/174/174
f 176/176/176 147/147/147 174/174/174
f 176/176/176 149/149/149 147/147/147
g pb_Mesh621058_1
f 179/179/179 178/178/178 177/177/177
f 179/179/179 180/180/180 178/178/178
f 182/182/182 177/177/177 181/181/181
f 182/182/182 179/179/179 177/177/177
f 184/184/184 181/181/181 183/183/183
f 184/184/184 182/182/182 181/181/181
f 186/186/186 183/183/183 185/185/185
f 186/186/186 184/184/184 183/183/183
f 188/188/188 185/185/185 187/187/187
f 188/188/188 186/186/186 185/185/185
f 190/190/190 187/187/187 189/189/189
f 190/190/190 191/191/191 187/187/187
f 193/193/193 189/189/189 192/192/192
f 193/193/193 190/190/190 189/189/189
f 196/196/196 195/195/195 194/194/194
f 196/196/196 193/193/193 195/195/195
f 199/199/199 198/198/198 197/197/197
f 199/199/199 196/196/196 198/198/198
f 201/201/201 197/197/197 200/200/200
f 201/201/201 199/199/199 197/197/197
f 203/203/203 200/200/200 202/202/202
f 203/203/203 201/201/201 200/200/200
f 180/180/180 202/202/202 178/178/178
f 180/180/180 203/203/203 202/202/202
