g pb_Mesh-382236
v 0.55114675 -0.31335434 0.82818735
v -0.5511469 -0.31335434 0.82818735
v 0.55114675 0.31335476 0.82818735
v -0.5511469 0.31335476 0.82818735
v -0.5511469 -0.31335434 0.82818735
v -0.55114675 -0.31335595 -1.1774709
v -0.5511469 0.31335476 0.82818735
v -0.55114675 0.31335315 -1.1774709
v -0.55114675 -0.31335595 -1.1774709
v 0.5511464 -0.31335595 -1.1774709
v -0.55114675 0.31335315 -1.1774709
v 0.5511464 0.31335315 -1.1774709
v 0.5511464 -0.31335595 -1.1774709
v 0.55114675 -0.31335434 0.82818735
v 0.5511464 0.31335315 -1.1774709
v 0.55114675 0.31335476 0.82818735
v 0.55114675 0.31335476 0.82818735
v -0.5511469 0.31335476 0.82818735
v 0.5511464 0.31335315 -1.1774709
v -0.55114675 0.31335315 -1.1774709
v 0.5511464 -0.31335595 -1.1774709
v -0.55114675 -0.31335595 -1.1774709
v 0.55114675 -0.31335434 0.82818735
v -0.5511469 -0.31335434 0.82818735
vt 0 0
vt -0.85648346 0
vt 0 1.3206711
vt -0.85648346 1.3206711
vt 0 0
vt -4.263895 0
vt 0 1.3206711
vt -4.263895 1.3206711
vt 0.85648346 0
vt 0 0
vt 0.85648346 1.3206711
vt 0 1.3206711
vt 4.263895 0
vt 0 0
vt 4.263895 1.3206711
vt 0 1.3206711
vt 0 0
vt 0.85648346 0
vt 0 -4.263895
vt 0.85648346 -4.263895
vt 0 -4.263895
vt -0.85648346 -4.263895
vt 0 0
vt -0.85648346 0
vn -0 0 1
vn -0 0 1
vn -0 0 1
vn -0 0 1
vn -1 0 -8.9154746E-08
vn -1 0 -8.9154746E-08
vn -1 0 -8.9154746E-08
vn -1 0 -8.9154746E-08
vn -0 0 -1
vn -0 0 -1
vn -0 0 -1
vn -0 0 -1
vn 1 0 -1.7830949E-07
vn 1 0 -1.7830949E-07
vn 1 0 -1.7830949E-07
vn 1 0 -1.7830949E-07
vn -0 1 -8.0239266E-07
vn -0 1 -8.023927E-07
vn -0 1 -8.023927E-07
vn -0 1 -8.023927E-07
vn -0 -1 8.0239266E-07
vn -0 -1 8.0239266E-07
vn -0 -1 8.0239266E-07
vn -0 -1 8.0239266E-07
g pb_Mesh-382236_0
f 3/3/3 2/2/2 1/1/1
f 3/3/3 4/4/4 2/2/2
f 7/7/7 6/6/6 5/5/5
f 7/7/7 8/8/8 6/6/6
f 11/11/11 10/10/10 9/9/9
f 11/11/11 12/12/12 10/10/10
f 15/15/15 14/14/14 13/13/13
f 15/15/15 16/16/16 14/14/14
f 19/19/19 18/18/18 17/17/17
f 19/19/19 20/20/20 18/18/18
f 23/23/23 22/22/22 21/21/21
f 23/23/23 24/24/24 22/22/22
