g pb_Mesh132168
v -0.116107404 1.5389308 0.26675004
v -0.39969307 1.5389308 0.26675004
v -0.116107404 1.5389308 -0.016749993
v -0.39969307 1.5389308 -0.016749993
v -0.102107406 1.5 0.28250003
v -0.41369307 1.5 0.28250003
v -0.116107404 1.5389308 0.26675004
v -0.39969307 1.5389308 0.26675004
v -0.09376 -1.7859424 0.016098976
v -0.40624 -1.7859424 0.26880962
v -0.09376 -1.7859424 0.26880962
v -0.40624 -1.7859424 0.016098976
v -0.3579527 -1.7859424 -0.024140395
v -0.14204723 -1.7859424 -0.024140395
v -0.116107404 1.5389308 -0.016749993
v -0.11579114 1.5380514 -0.017105779
v -0.102107406 1.5 0.010768149
v -0.116107404 1.5389308 0.26675004
v -0.102107406 1.5 0.28250003
v -0.39969307 1.5389308 -0.016749993
v -0.40000933 1.5380514 -0.017105779
v -0.37042493 1.4893494 -0.032499984
v -0.116107404 1.5389308 -0.016749993
v -0.14537553 1.5 -0.032499984
v -0.11579114 1.5380514 -0.017105779
v -0.41369307 1.5 0.28250003
v -0.41369307 1.5 0.010768149
v -0.39969307 1.5389308 0.26675004
v -0.39969307 1.5389308 -0.016749993
v -0.40000933 1.5380514 -0.017105779
v -0.14537553 1.5 -0.032499984
v -0.102107406 1.5 0.010768149
v -0.11579114 1.5380514 -0.017105779
v -0.41369307 1.5 0.010768149
v -0.37042493 1.4893494 -0.032499984
v -0.40000933 1.5380514 -0.017105779
v -0.082 -1.7059193 0.28250003
v -0.41799998 -1.7059193 0.28250003
v -0.39 -0.8073392 0.28250003
v -0.110000014 -0.8073392 0.28250003
v -0.110000014 -0.8073392 0.28250003
v -0.40504515 -0.25 0.28250003
v -0.110000014 -0.25 0.28250003
v -0.41799998 -1.7059193 0.28250003
v -0.41799998 -1.7059193 0.010768153
v -0.39 -0.8073392 0.010768149
v -0.39 -0.8073392 0.28250003
v -0.39 -0.8073392 0.28250003
v -0.39 -0.8073392 0.010768149
v -0.40504515 -0.25 0.010768149
v -0.40504515 -0.25 0.28250003
v -0.34490603 -0.25 -0.032499984
v -0.14709106 -0.8073392 -0.032499984
v -0.17013913 -0.25 -0.032499984
v -0.3529089 -0.8073392 -0.032499984
v -0.3529089 -0.8073392 -0.032499984
v -0.13392176 -1.7059193 -0.032499984
v -0.3660782 -1.7059193 -0.032499984
v -0.110000014 -0.8073392 0.010768149
v -0.082 -1.7059193 0.28250003
v -0.110000014 -0.8073392 0.28250003
v -0.082 -1.7059193 0.010768153
v -0.110000014 -0.25 0.010768149
v -0.110000014 -0.8073392 0.28250003
v -0.110000014 -0.25 0.28250003
v -0.110000014 -0.8073392 0.010768149
v -0.110000014 -0.25 0.010768149
v -0.17013913 -0.25 -0.032499984
v -0.14709106 -0.8073392 -0.032499984
v -0.110000014 -0.25 0.010768149
v -0.14709106 -0.8073392 -0.032499984
v -0.110000014 -0.8073392 0.010768149
v -0.110000014 -0.8073392 0.010768149
v -0.14709106 -0.8073392 -0.032499984
v -0.13392176 -1.7059193 -0.032499984
v -0.110000014 -0.8073392 0.010768149
v -0.13392176 -1.7059193 -0.032499984
v -0.082 -1.7059193 0.010768153
v -0.34490603 -0.25 -0.032499984
v -0.40504515 -0.25 0.010768149
v -0.39 -0.8073392 0.010768149
v -0.34490603 -0.25 -0.032499984
v -0.39 -0.8073392 0.010768149
v -0.3529089 -0.8073392 -0.032499984
v -0.3529089 -0.8073392 -0.032499984
v -0.39 -0.8073392 0.010768149
v -0.41799998 -1.7059193 0.010768153
v -0.3529089 -0.8073392 -0.032499984
v -0.41799998 -1.7059193 0.010768153
v -0.3660782 -1.7059193 -0.032499984
v -0.110000014 -0.25 0.28250003
v -0.40504515 -0.25 0.28250003
v -0.39 0.7187538 0.28250003
v -0.110000014 0.7187538 0.28250003
v -0.41369307 1.5 0.28250003
v -0.102107406 1.5 0.28250003
v -0.40504515 -0.25 0.28250003
v -0.40504515 -0.25 0.010768149
v -0.39 0.7187538 0.010768149
v -0.39 0.7187538 0.28250003
v -0.39 0.7187538 0.28250003
v -0.39 0.7187538 0.010768149
v -0.41369307 1.5 0.010768149
v -0.41369307 1.5 0.28250003
v -0.37042493 1.4893494 -0.032499984
v -0.14344147 0.7187538 -0.032499984
v -0.14537553 1.5 -0.032499984
v -0.35655853 0.7187538 -0.032499984
v -0.14344147 0.7187538 -0.032499984
v -0.110000014 0.7187538 0.010768149
v -0.110000014 0.7187538 0.28250003
v -0.102107406 1.5 0.010768149
v -0.110000014 0.7187538 0.28250003
v -0.102107406 1.5 0.28250003
v -0.110000014 0.7187538 0.010768149
v -0.102107406 1.5 0.010768149
v -0.14537553 1.5 -0.032499984
v -0.14344147 0.7187538 -0.032499984
v -0.110000014 0.7187538 0.010768149
v -0.110000014 0.7187538 0.010768149
v -0.14344147 0.7187538 -0.032499984
v -0.17013913 -0.25 -0.032499984
v -0.110000014 0.7187538 0.010768149
v -0.17013913 -0.25 -0.032499984
v -0.110000014 -0.25 0.010768149
v -0.37042493 1.4893494 -0.032499984
v -0.41369307 1.5 0.010768149
v -0.39 0.7187538 0.010768149
v -0.35655853 0.7187538 -0.032499984
v -0.35655853 0.7187538 -0.032499984
v -0.39 0.7187538 0.010768149
v -0.40504515 -0.25 0.010768149
v -0.35655853 0.7187538 -0.032499984
v -0.40504515 -0.25 0.010768149
v -0.34490603 -0.25 -0.032499984
v -0.41799998 -1.7059193 0.28250003
v -0.082 -1.7059193 0.28250003
v -0.40624 -1.7859424 0.26880962
v -0.09376 -1.7859424 0.26880962
v -0.082 -1.7059193 0.28250003
v -0.082 -1.7059193 0.010768153
v -0.09376 -1.7859424 0.26880962
v -0.09376 -1.7859424 0.016098976
v -0.41799998 -1.7059193 0.010768153
v -0.41799998 -1.7059193 0.28250003
v -0.40624 -1.7859424 0.016098976
v -0.40624 -1.7859424 0.26880962
v -0.3660782 -1.7059193 -0.032499984
v -0.41799998 -1.7059193 0.010768153
v -0.3579527 -1.7859424 -0.024140395
v -0.40624 -1.7859424 0.016098976
v -0.082 -1.7059193 0.010768153
v -0.13392176 -1.7059193 -0.032499984
v -0.09376 -1.7859424 0.016098976
v -0.14204723 -1.7859424 -0.024140395
v -0.13392176 -1.7059193 -0.032499984
v -0.3660782 -1.7059193 -0.032499984
v -0.14204723 -1.7859424 -0.024140395
v -0.3579527 -1.7859424 -0.024140395
vt 0.116107404 0.26675004
vt 0.39969307 0.26675004
vt 0.116107404 -0.016749993
vt 0.39969307 -0.016749993
vt -0.102107406 1.2845684
vt -0.41369307 1.2845684
vt -0.116107404 1.3265644
vt -0.39969307 1.3265644
vt -0.09376 0.016098976
vt -0.40624 0.26880962
vt -0.09376 0.26880962
vt -0.40624 0.016098976
vt -0.3579527 -0.024140395
vt -0.14204723 -0.024140395
vt 0.016749991 1.4874297
vt 0.017105777 1.4864951
vt -0.010768151 1.4460582
vt -0.26675004 1.4874297
vt -0.28250003 1.4460582
vt 0.39962372 1.4467041
vt 0.39993855 1.4457562
vt 0.3702935 1.3947408
vt 0.11604026 1.4470742
vt 0.14524588 1.4050887
vt 0.11572259 1.446127
vt 0.28250003 1.271513
vt 0.010768141 1.271513
vt 0.26675004 1.3128846
vt -0.01675 1.3128846
vt -0.017105786 1.31195
vt 0.12577699 1.4300685
vt 0.06458661 1.4300685
vt 0.09397231 1.4694206
vt 0.2883761 1.5282582
vt 0.22723572 1.5173241
vt 0.25860876 1.5673224
vt -0.082 -1.7059193
vt -0.41799998 -1.7059193
vt -0.39 -0.8073392
vt -0.110000014 -0.8073392
vt -0.110000014 -0.8073392
vt -0.40504515 -0.25
vt -0.110000014 -0.25
vt 0.28250003 -2
vt 0.010768149 -2
vt 0.010768149 -1.125
vt 0.28250003 -1.125
vt 0.28250003 -1.125
vt 0.010768149 -1.125
vt 0.010768149 -0.25
vt 0.28250003 -0.25
vt 0.34673184 -0.25
vt 0.15326814 -1.125
vt 0.15326814 -0.25
vt 0.34673184 -1.125
vt 0.34673184 -1.125
vt 0.15326814 -2
vt 0.34673184 -2
vt -0.010768149 -1.125
vt -0.28250003 -2
vt -0.28250003 -1.125
vt -0.010768149 -2
vt -0.010768149 -0.25
vt -0.28250003 -1.125
vt -0.28250003 -0.25
vt -0.010768149 -1.125
vt -0.07950876 -0.24988014
vt -0.15351489 -0.24987476
vt -0.13545394 -0.8072356
vt -0.07950876 -0.24988014
vt -0.13545394 -0.8072356
vt -0.07950876 -0.8072187
vt -0.07950876 -0.8072187
vt -0.13545394 -0.8072356
vt -0.12513418 -1.7058274
vt -0.07950876 -0.8072187
vt -0.12513418 -1.7058274
vt -0.05756735 -1.7058247
vt -0.24702466 -0.24995346
vt -0.32098103 -0.24995261
vt -0.3093108 -0.80729365
vt -0.24702466 -0.24995346
vt -0.3093108 -0.80729365
vt -0.25323233 -0.8072917
vt -0.25323233 -0.8072917
vt -0.3093108 -0.80729365
vt -0.3310298 -1.7058703
vt -0.25323233 -0.8072917
vt -0.3310298 -1.7058703
vt -0.26344746 -1.7058702
vt -0.110000014 -0.25
vt -0.40504515 -0.25
vt -0.39 0.7187538
vt -0.110000014 0.7187538
vt -0.41369307 1.5
vt -0.102107406 1.5
vt 0.28250003 -0.25
vt 0.010768149 -0.25
vt 0.010768149 0.625
vt 0.28250003 0.625
vt 0.28250003 0.625
vt 0.010768149 0.625
vt 0.010768149 1.5
vt 0.28250003 1.5
vt 0.34673184 1.5
vt 0.15326814 0.625
vt 0.15326814 1.5
vt 0.34673184 0.625
vt 0.15326814 0.625
vt -0.010768149 0.625
vt -0.28250003 0.625
vt -0.010768149 1.5
vt -0.28250003 0.625
vt -0.28250003 1.5
vt -0.010768149 0.625
vt -0.07332394 1.5001101
vt -0.13410962 1.5000992
vt -0.13259403 0.7188521
vt -0.07950876 0.71887255
vt -0.07950876 0.71887255
vt -0.13259403 0.7188521
vt -0.15351489 -0.24987476
vt -0.07950876 0.71887255
vt -0.15351489 -0.24987476
vt -0.07950876 -0.24988014
vt -0.26681912 1.489399
vt -0.32768902 1.5000484
vt -0.3093108 0.71879935
vt -0.25606325 0.71880174
vt -0.25606325 0.71880174
vt -0.3093108 0.71879935
vt -0.32098103 -0.24995261
vt -0.25606325 0.71880174
vt -0.32098103 -0.24995261
vt -0.24702466 -0.24995346
vt -0.41799998 -1.6338512
vt -0.082 -1.6338512
vt -0.40624 -1.715037
vt -0.09376 -1.715037
vt -0.28250003 -1.6997138
vt -0.010768153 -1.6997138
vt -0.26880962 -1.7805965
vt -0.016098976 -1.7805965
vt 0.010768153 -1.627016
vt 0.28250003 -1.627016
vt 0.016098976 -1.7078986
vt 0.26880962 -1.7078986
vt 0.26042315 -1.6509253
vt 0.32801014 -1.6509253
vt 0.25953266 -1.7317882
vt 0.3223886 -1.7317882
vt 0.05610054 -1.6969376
vt 0.12368753 -1.6969376
vt 0.06172211 -1.7778006
vt 0.12457801 -1.7778006
vt 0.13392176 -1.6933098
vt 0.3660782 -1.6933098
vt 0.14204723 -1.7737684
vt 0.3579527 -1.7737684
vn -0 1 0
vn -0 1 0
vn -0 1 0
vn -0 1 0
vn -0 0.3750352 0.92701066
vn -0 0.37503514 0.9270106
vn -0 0.37503514 0.9270106
vn -0 0.3750351 0.92701054
vn -0 -1 0
vn -0 -1 0
vn -0 -1 0
vn -0 -0.99999994 0
vn -0 -1 0
vn -0 -1 0
vn 0.9410035 0.3383968 5.417122E-08
vn 0.941 0.33840665 1.5766875E-05
vn 0.9410035 0.33839676 2.7706275E-08
vn 0.9410035 0.33839676 0
vn 0.9410036 0.3383968 0
vn 0.00025611182 0.30288863 -0.9530258
vn 0.085450284 0.347111 -0.93392307
vn -0.006849279 0.3352999 -0.9420865
vn -0.0070085297 0.33534402 -0.94206965
vn -0.018222498 0.38671538 -0.922019
vn -8.818639E-06 0.37504083 -0.9270083
vn -0.9410035 0.3383968 0
vn -0.9410035 0.33839682 2.7824852E-08
vn -0.94100356 0.33839682 0
vn -0.9410035 0.33839682 5.4403056E-08
vn -0.9409998 0.33840734 1.583438E-05
vn 0.6837344 -0.25497955 -0.68373436
vn 0.6837344 -0.25497955 -0.68373436
vn 0.6837344 -0.25497955 -0.68373436
vn -0.71605456 -0.22623816 -0.6603653
vn -0.71605456 -0.22623816 -0.6603653
vn -0.71605456 -0.22623816 -0.6603653
vn -0 0 1
vn -0 0 1
vn -0 0 1
vn -0 0 1
vn -0 0 0.99999994
vn -0 0 0.99999994
vn -0 0 0.99999994
vn -0.9995149 0.031145152 0
vn -0.9995149 0.031145152 0
vn -0.9995149 0.031145152 0
vn -0.9995149 0.031145152 0
vn -0.9996359 -0.026984802 0
vn -0.9996359 -0.026984802 0
vn -0.9996359 -0.026984802 0
vn -0.9996359 -0.026984802 0
vn -0 0 -1
vn -0 0 -1
vn -0 0 -1
vn -0 0 -0.99999994
vn -0 0 -1
vn -0 0 -1
vn -0 0 -0.99999994
vn 0.9995149 0.03114517 0
vn 0.9995149 0.03114517 0
vn 0.9995149 0.03114517 0
vn 0.9995149 0.03114517 0
vn 1 0 0
vn 1 0 0
vn 1 0 0
vn 1 0 0
vn 0.66477066 0.013745384 -0.7469211
vn 0.58384967 0.02414438 -0.81150264
vn 0.66477066 0.013745384 -0.7469211
vn 0.66477066 0.013745384 -0.7469211
vn 0.66477066 0.013745384 -0.7469211
vn 0.75922126 0 -0.6508326
vn 0.69697315 0.015966248 -0.71691936
vn 0.7591743 0.011126215 -0.6507923
vn 0.69697315 0.015966248 -0.71691936
vn 0.69697315 0.015966248 -0.71691936
vn 0.69697315 0.015966248 -0.71691936
vn 0.64005715 0.01994436 -0.76806843
vn -0.66482747 -0.004200231 -0.7469852
vn -0.58394736 -0.015763443 -0.8116385
vn -0.66482747 -0.004200231 -0.7469852
vn -0.66482747 -0.004200231 -0.7469852
vn -0.66482747 -0.004200231 -0.7469852
vn -0.7591759 0.010901066 -0.6507942
vn -0.69697297 0.015966231 -0.71691966
vn -0.75900865 0.023650913 -0.65065086
vn -0.69697297 0.015966231 -0.71691966
vn -0.69697297 0.015966231 -0.71691966
vn -0.69697297 0.015966231 -0.71691966
vn -0.6401561 0.009381913 -0.7681876
vn -0 0 1
vn -0 0 1
vn -0 0 1
vn -0 0 1
vn -0 0 1
vn -0 0 0.99999994
vn -0.9998794 0.015528562 0
vn -0.9998794 0.015528562 0
vn -0.9998794 0.015528562 0
vn -0.9998794 0.015528562 0
vn -0.9995405 -0.03031336 0
vn -0.9995405 -0.03031336 0
vn -0.9995405 -0.03031336 0
vn -0.9995405 -0.03031336 0
vn -0 0 -1
vn -0 0 -1
vn -0 0 -1
vn -0 0 -1
vn -0 0 -1
vn 1 0 0
vn 1 0 0
vn 0.9999489 -0.010102073 0
vn 0.9999489 -0.010102073 0
vn 0.9999489 -0.010102073 0
vn 0.9999489 -0.010102073 0
vn 0.74831396 -0.0028536848 -0.66333866
vn 0.70710576 0.0017505223 -0.7071057
vn 0.74831396 -0.0028536848 -0.66333866
vn 0.7911979 -0.007993147 -0.61150795
vn 0.67890334 -0.009354871 -0.73416805
vn 0.7910351 -0.021799956 -0.6113822
vn 0.67890334 -0.009354871 -0.73416805
vn 0.67890334 -0.009354871 -0.73416805
vn 0.67890334 -0.009354871 -0.73416805
vn 0.5840199 0 -0.8117393
vn -0.7493008 -0.018135449 -0.66198146
vn -0.7095866 -0.021519843 -0.70428956
vn -0.7493008 -0.018135449 -0.66198146
vn -0.791143 -0.014236134 -0.6114656
vn -0.6789326 0.0011888434 -0.7341997
vn -0.7911634 0.012287111 -0.6114813
vn -0.6789326 0.0011888434 -0.7341997
vn -0.6789326 0.0011888434 -0.7341997
vn -0.6789326 0.0011888434 -0.7341997
vn -0.58400553 -0.0070246165 -0.8117193
vn -0 -0.1686306 0.9856793
vn -0 -0.16863061 0.9856793
vn -0 -0.16863061 0.9856793
vn -0 -0.16863061 0.9856794
vn 0.9893736 -0.14539576 0
vn 0.9893736 -0.14539577 0
vn 0.9893736 -0.14539577 0
vn 0.98937356 -0.14539576 0
vn -0.9893736 -0.14539576 0
vn -0.9893736 -0.14539576 0
vn -0.9893736 -0.14539576 0
vn -0.9893736 -0.14539577 0
vn -0.6335356 -0.14374717 -0.76024306
vn -0.63353556 -0.14374712 -0.76024306
vn -0.63353556 -0.14374712 -0.76024306
vn -0.63353556 -0.14374709 -0.76024306
vn 0.6335358 -0.14374712 -0.7602429
vn 0.63353586 -0.14374706 -0.7602428
vn 0.63353586 -0.14374706 -0.7602428
vn 0.6335359 -0.14374703 -0.7602428
vn -0 -0.10389922 -0.9945878
vn -0 -0.10389922 -0.99458784
vn -0 -0.10389922 -0.99458784
vn -0 -0.103899226 -0.99458784
g pb_Mesh132168_0
f 3/3/3 2/2/2 1/1/1
f 3/3/3 4/4/4 2/2/2
f 7/7/7 6/6/6 5/5/5
f 7/7/7 8/8/8 6/6/6
f 11/11/11 10/10/10 9/9/9
f 12/12/12 9/9/9 10/10/10
f 9/9/9 12/12/12 13/13/13
f 13/13/13 14/14/14 9/9/9
f 17/17/17 16/16/16 15/15/15
f 18/18/18 17/17/17 15/15/15
f 19/19/19 17/17/17 18/18/18
f 22/22/22 21/21/21 20/20/20
f 23/23/23 22/22/22 20/20/20
f 23/23/23 24/24/24 22/22/22
f 25/25/25 24/24/24 23/23/23
f 28/28/28 27/27/27 26/26/26
f 29/29/29 27/27/27 28/28/28
f 29/29/29 30/30/30 27/27/27
f 33/33/33 32/32/32 31/31/31
f 36/36/36 35/35/35 34/34/34
f 39/39/39 38/38/38 37/37/37
f 39/39/39 37/37/37 40/40/40
f 42/42/42 39/39/39 41/41/41
f 42/42/42 41/41/41 43/43/43
f 46/46/46 45/45/45 44/44/44
f 46/46/46 44/44/44 47/47/47
f 50/50/50 49/49/49 48/48/48
f 50/50/50 48/48/48 51/51/51
f 54/54/54 53/53/53 52/52/52
f 53/53/53 55/55/55 52/52/52
f 53/53/53 57/57/57 56/56/56
f 57/57/57 58/58/58 56/56/56
f 61/61/61 60/60/60 59/59/59
f 60/60/60 62/62/62 59/59/59
f 65/65/65 64/64/64 63/63/63
f 64/64/64 66/66/66 63/63/63
f 69/69/69 68/68/68 67/67/67
f 72/72/72 71/71/71 70/70/70
f 75/75/75 74/74/74 73/73/73
f 78/78/78 77/77/77 76/76/76
f 81/81/81 80/80/80 79/79/79
f 84/84/84 83/83/83 82/82/82
f 87/87/87 86/86/86 85/85/85
f 90/90/90 89/89/89 88/88/88
f 93/93/93 92/92/92 91/91/91
f 93/93/93 91/91/91 94/94/94
f 95/95/95 93/93/93 94/94/94
f 95/95/95 94/94/94 96/96/96
f 99/99/99 98/98/98 97/97/97
f 99/99/99 97/97/97 100/100/100
f 103/103/103 102/102/102 101/101/101
f 103/103/103 101/101/101 104/104/104
f 107/107/107 106/106/106 105/105/105
f 106/106/106 108/108/108 105/105/105
f 109/109/109 54/54/54 108/108/108
f 54/54/54 52/52/52 108/108/108
f 111/111/111 65/65/65 110/110/110
f 65/65/65 63/63/63 110/110/110
f 114/114/114 113/113/113 112/112/112
f 113/113/113 115/115/115 112/112/112
f 118/118/118 117/117/117 116/116/116
f 119/119/119 118/118/118 116/116/116
f 122/122/122 121/121/121 120/120/120
f 125/125/125 124/124/124 123/123/123
f 128/128/128 127/127/127 126/126/126
f 129/129/129 128/128/128 126/126/126
f 132/132/132 131/131/131 130/130/130
f 135/135/135 134/134/134 133/133/133
f 138/138/138 137/137/137 136/136/136
f 138/138/138 139/139/139 137/137/137
f 142/142/142 141/141/141 140/140/140
f 142/142/142 143/143/143 141/141/141
f 146/146/146 145/145/145 144/144/144
f 146/146/146 147/147/147 145/145/145
f 150/150/150 149/149/149 148/148/148
f 150/150/150 151/151/151 149/149/149
f 154/154/154 153/153/153 152/152/152
f 154/154/154 155/155/155 153/153/153
f 158/158/158 157/157/157 156/156/156
f 158/158/158 159/159/159 157/157/157
