g pb_Mesh-1861686
v 7.5000033 -0.06802809 0.24999143
v -0 -0.06802809 0.25
v 7.5000024 -0.003909111 0.2999954
v -0 -0.003909111 0.29999924
v -0 -0.06802809 0.25
v -0 -0.06802809 -0.25
v -0 -0.003909111 0.29999924
v -0 -0.003909111 -0.29999924
v -0 -0.06802809 -0.25
v 7.500001 -0.06802809 -0.25000086
v -0 -0.003909111 -0.29999924
v 7.500002 -0.003909111 -0.30000484
v 7.500001 -0.06802809 -0.25000086
v 7.5000033 -0.06802809 0.24999143
v 7.500002 -0.003909111 -0.30000484
v 7.5000024 -0.003909111 0.2999954
v 7.500004 0.07324016 0.23999064
v -0 0.07324016 0.23999786
v 7.500001 0.07324016 -0.24000007
v -0 0.07324016 -0.23999786
v 7.500001 -0.06802809 -0.25000086
v -0 -0.06802809 -0.25
v 7.5000033 -0.06802809 0.24999143
v -0 -0.06802809 0.25
v 7.5000024 -0.003909111 0.2999954
v -0 -0.003909111 0.29999924
v 7.500004 0.07324016 0.23999064
v -0 0.07324016 0.23999786
v 7.500002 -0.003909111 -0.30000484
v 7.5000024 -0.003909111 0.2999954
v 7.500001 0.07324016 -0.24000007
v 7.500004 0.07324016 0.23999064
v -0 0.07324016 0.23999786
v -0 0.07324016 -0.23999786
v -0 -0.003909111 -0.29999924
v 7.500002 -0.003909111 -0.30000484
v -0 0.07324016 -0.23999786
v 7.500001 0.07324016 -0.24000007
vt 7.500003 0.10009715
vt -2.8560547E-07 0.10009715
vt 7.500002 0.18140914
vt -3.4272568E-07 0.18140624
vt 0.25 -0.06802809
vt -0.25 -0.06802809
vt 0.29999924 -0.003909111
vt -0.29999924 -0.003909111
vt -2.8808909E-08 0.100086205
vt -7.500001 0.100086205
vt -3.4570604E-08 0.18139529
vt -7.500002 0.1813982
vt 0.2499651 -0.06788865
vt -0.2500272 -0.06788865
vt 0.29996908 -0.0037696692
vt -0.30003116 -0.0037696692
vt -7.500004 0.23999064
vt 0 0.23999786
vt -7.500001 -0.24000007
vt 0 -0.23999786
vt 7.500001 -0.25000086
vt -0 -0.25
vt 7.5000033 0.24999143
vt 0 0.25
vt 7.5000024 -0.18726693
vt -1.5377955E-07 -0.18726693
vt 7.500004 -0.089529626
vt -1.2302286E-07 -0.089531705
vt 0.29999888 -0.0040064575
vt -0.30000135 -0.0040064575
vt 0.23999411 0.07314281
vt -0.2399966 0.07314281
vt 0.23999786 0.07324016
vt -0.23999786 0.07324016
vt -2.2411284E-07 -0.18726054
vt -7.500002 -0.18726054
vt -1.7928913E-07 -0.08952531
vt -7.500001 -0.089523226
vn 9.008626E-07 -0.6149642 0.7885551
vn 6.525451E-07 -0.6149461 0.78856915
vn 6.525451E-07 -0.6149461 0.78856915
vn 4.0422762E-07 -0.61492807 0.7885832
vn -1 0 0
vn -1 0 0
vn -1 0 0
vn -1 0 0
vn -9.087289E-08 -0.61492807 -0.7885832
vn -3.3997935E-07 -0.6149462 -0.7885691
vn -3.3997935E-07 -0.6149462 -0.7885691
vn -5.890858E-07 -0.6149643 -0.78855497
vn 1 -1.859224E-05 -4.768445E-06
vn 1 -1.5494761E-06 -2.7815865E-06
vn 1 -1.5494761E-06 -2.7815865E-06
vn 1 1.5493288E-05 -7.947283E-07
vn -0 1 0
vn -0 1 0
vn -0 1 0
vn -0 1 0
vn -0 -1 0
vn -0 -1 0
vn -0 -1 0
vn -0 -1 0
vn 4.0462237E-07 0.6139391 0.7893534
vn 5.826329E-07 0.6139283 0.7893618
vn 5.826329E-07 0.6139283 0.7893618
vn 7.6064333E-07 0.6139176 0.7893702
vn 1 1.2979536E-05 -7.947283E-07
vn 1 -5.099289E-06 -3.3776541E-06
vn 1 -5.099289E-06 -3.3776541E-06
vn 1 -2.3178114E-05 -5.96058E-06
vn -1 0 0
vn -1 0 0
vn -5.8969476E-07 0.6139176 -0.7893701
vn -4.109019E-07 0.61392844 -0.7893617
vn -4.109019E-07 0.61392844 -0.7893617
vn -2.32109E-07 0.6139393 -0.7893533
g pb_Mesh-1861686_0
f 3/3/3 2/2/2 1/1/1
f 3/3/3 4/4/4 2/2/2
f 7/7/7 6/6/6 5/5/5
f 7/7/7 8/8/8 6/6/6
f 11/11/11 10/10/10 9/9/9
f 11/11/11 12/12/12 10/10/10
f 15/15/15 14/14/14 13/13/13
f 15/15/15 16/16/16 14/14/14
f 19/19/19 18/18/18 17/17/17
f 19/19/19 20/20/20 18/18/18
f 23/23/23 22/22/22 21/21/21
f 23/23/23 24/24/24 22/22/22
f 27/27/27 26/26/26 25/25/25
f 27/27/27 28/28/28 26/26/26
f 31/31/31 30/30/30 29/29/29
f 31/31/31 32/32/32 30/30/30
f 33/33/33 8/8/8 7/7/7
f 33/33/33 34/34/34 8/8/8
f 37/37/37 36/36/36 35/35/35
f 37/37/37 38/38/38 36/36/36
