g pb_Mesh-8043086
v -1.8918167 1.9073486E-06 -0.62826633
v -1.9628915 0.50000185 -0.62826633
v -1.8273546 0 0.46587422
v -1.8273546 0.5 0.46587422
v -1.8273546 0 0.46587422
v -1.8273546 0.5 0.46587422
v -1.5588456 0 0.9
v -1.5588456 0.5 0.9
v -1.5588456 0 0.9
v -1.5588456 0.5 0.9
v -1.2727921 0 1.2727921
v -1.2727921 0.5 1.2727921
v -1.2727921 0 1.2727921
v -1.2727921 0.5 1.2727921
v -0.8999999 0 1.5588458
v -0.8999999 0.5 1.5588458
v -0.8999999 0 1.5588458
v -0.8999999 0.5 1.5588458
v -0.4658743 0 1.7386664
v -0.4658743 0.5 1.7386664
v -0.4658743 0 1.7386664
v -0.4658743 0.5 1.7386664
v 7.86805E-08 0 1.8
v 7.86805E-08 0.5 1.8
v 7.86805E-08 0 1.8
v 7.86805E-08 0.5 1.8
v 0.46587425 0 1.7386664
v 0.46587425 0.5 1.7386664
v 0.46587425 0 1.7386664
v 0.46587425 0.5 1.7386664
v 0.9000001 0 1.5588456
v 0.9000001 0.5 1.5588456
v 0.9000001 0 1.5588456
v 0.9000001 0.5 1.5588456
v 1.2727921 0 1.2727921
v 1.2727921 0.5 1.2727921
v 1.2727921 0 1.2727921
v 1.2727921 0.5 1.2727921
v 1.5588456 0 0.9000001
v 1.5588456 0.5 0.9000001
v 1.5588456 0 0.9000001
v 1.5588456 0.5 0.9000001
v 1.7538863 0 0.46587446
v 1.8273546 0.5 0.46587446
v 1.7538863 0 0.46587446
v 1.8273546 0.5 0.46587446
v 1.8918167 1.9073486E-06 -0.62826645
v 1.9525276 0.50000185 -0.62826645
v 1.8918167 1.9073486E-06 -0.62826645
v 1.9525276 0.50000185 -0.62826645
v 1.8273546 1.9073486E-06 -1.0941406
v 1.8423315 0.50000185 -1.0941406
v 1.8273546 1.9073486E-06 -1.0941406
v 1.8423315 0.50000185 -1.0941406
v 1.6101981 1.0226888E-06 -1.439869
v 1.6363592 0.50000185 -1.5282662
v 1.6101981 1.0226888E-06 -1.439869
v 1.6363592 0.50000185 -1.5282662
v 1.2727922 2.3588716E-06 -1.8187695
v 1.2727922 0.50000185 -1.9010584
v 1.2727922 2.3588716E-06 -1.8187695
v 1.2727922 0.50000185 -1.9010584
v 0.8999998 1.8484643E-06 -2.052398
v 0.8999998 0.50000185 -2.187112
v 0.8999998 1.8484643E-06 -2.052398
v 0.8999998 0.50000185 -2.187112
v 0.46587417 2.185764E-06 -2.26738
v 0.46587417 0.5000022 -2.4020941
v 0.46587417 2.185764E-06 -2.26738
v 0.46587417 0.5000022 -2.4020941
v -2.1464784E-08 2.185764E-06 -2.3287134
v -2.1464784E-08 0.5000022 -2.4634275
v -2.1464784E-08 2.185764E-06 -2.3287134
v -2.1464784E-08 0.5000022 -2.4634275
v -0.46587422 2.185764E-06 -2.26738
v -0.46587422 0.5000022 -2.4020941
v -0.46587422 2.185764E-06 -2.26738
v -0.46587422 0.5000022 -2.4020941
v -0.8999998 1.8484643E-06 -2.052398
v -0.8999998 0.50000185 -2.187112
v -0.8999998 1.8484643E-06 -2.052398
v -0.8999998 0.50000185 -2.187112
v -1.272792 2.3588716E-06 -1.8187697
v -1.2867593 0.50000185 -1.9010587
v -1.272792 2.3588716E-06 -1.8187697
v -1.2867593 0.50000185 -1.9010587
v -1.6075957 1.0226888E-06 -1.4398695
v -1.621382 0.50000185 -1.5282667
v -1.6075957 1.0226888E-06 -1.4398695
v -1.621382 0.50000185 -1.5282667
v -1.8273544 1.9073486E-06 -1.094141
v -1.8809896 0.50000185 -1.094141
v -1.8273544 1.9073486E-06 -1.094141
v -1.8809896 0.50000185 -1.094141
v -1.8918167 1.9073486E-06 -0.62826633
v -1.9628915 0.50000185 -0.62826633
v -1.8918167 1.9073486E-06 -0.62826633
v -0 1.9048698E-06 -0.62826633
v -1.8273546 0 0.46587422
v -1.9628915 0.50000185 -0.62826633
v -0 0.50000185 -0.62826633
v -1.8273546 0.5 0.46587422
v -1.8273546 0 0.46587422
v -0 1.9048698E-06 -0.62826633
v -1.5588456 0 0.9
v -1.8273546 0.5 0.46587422
v -0 0.50000185 -0.62826633
v -1.5588456 0.5 0.9
v -1.5588456 0 0.9
v -0 1.9048698E-06 -0.62826633
v -1.2727921 0 1.2727921
v -1.5588456 0.5 0.9
v -0 0.50000185 -0.62826633
v -1.2727921 0.5 1.2727921
v -1.2727921 0 1.2727921
v -0 1.9048698E-06 -0.62826633
v -0.8999999 0 1.5588458
v -1.2727921 0.5 1.2727921
v -0 0.50000185 -0.62826633
v -0.8999999 0.5 1.5588458
v -0.8999999 0 1.5588458
v -0 1.9048698E-06 -0.62826633
v -0.4658743 0 1.7386664
v -0.8999999 0.5 1.5588458
v -0 0.50000185 -0.62826633
v -0.4658743 0.5 1.7386664
v -0.4658743 0 1.7386664
v -0 1.9048698E-06 -0.62826633
v 7.86805E-08 0 1.8
v -0.4658743 0.5 1.7386664
v -0 0.50000185 -0.62826633
v 7.86805E-08 0.5 1.8
v 7.86805E-08 0 1.8
v -0 1.9048698E-06 -0.62826633
v 0.46587425 0 1.7386664
v 7.86805E-08 0.5 1.8
v -0 0.50000185 -0.62826633
v 0.46587425 0.5 1.7386664
v 0.46587425 0 1.7386664
v -0 1.9048698E-06 -0.62826633
v 0.9000001 0 1.5588456
v 0.46587425 0.5 1.7386664
v -0 0.50000185 -0.62826633
v 0.9000001 0.5 1.5588456
v 0.9000001 0 1.5588456
v -0 1.9048698E-06 -0.62826633
v 1.2727921 0 1.2727921
v 0.9000001 0.5 1.5588456
v -0 0.50000185 -0.62826633
v 1.2727921 0.5 1.2727921
v 1.2727921 0 1.2727921
v -0 1.9048698E-06 -0.62826633
v 1.5588456 0 0.9000001
v 1.2727921 0.5 1.2727921
v -0 0.50000185 -0.62826633
v 1.5588456 0.5 0.9000001
v 1.5588456 0 0.9000001
v -0 1.9048698E-06 -0.62826633
v 1.7538863 0 0.46587446
v 1.5588456 0.5 0.9000001
v -0 0.50000185 -0.62826633
v 1.8273546 0.5 0.46587446
v 1.7538863 0 0.46587446
v -0 1.9048698E-06 -0.62826633
v 1.8918167 1.9073486E-06 -0.62826645
v 1.8273546 0.5 0.46587446
v -0 0.50000185 -0.62826633
v 1.9525276 0.50000185 -0.62826645
v 1.8918167 1.9073486E-06 -0.62826645
v -0 1.9048698E-06 -0.62826633
v 1.8273546 1.9073486E-06 -1.0941406
v 1.9525276 0.50000185 -0.62826645
v -0 0.50000185 -0.62826633
v 1.8423315 0.50000185 -1.0941406
v 1.8273546 1.9073486E-06 -1.0941406
v -0 1.9048698E-06 -0.62826633
v 1.6101981 1.0226888E-06 -1.439869
v 1.8423315 0.50000185 -1.0941406
v -0 0.50000185 -0.62826633
v 1.6363592 0.50000185 -1.5282662
v 1.6101981 1.0226888E-06 -1.439869
v -0 1.9048698E-06 -0.62826633
v 1.2727922 2.3588716E-06 -1.8187695
v 1.6363592 0.50000185 -1.5282662
v -0 0.50000185 -0.62826633
v 1.2727922 0.50000185 -1.9010584
v 1.2727922 2.3588716E-06 -1.8187695
v -0 1.9048698E-06 -0.62826633
v 0.8999998 1.8484643E-06 -2.052398
v 1.2727922 0.50000185 -1.9010584
v -0 0.50000185 -0.62826633
v 0.8999998 0.50000185 -2.187112
v 0.8999998 1.8484643E-06 -2.052398
v -0 1.9048698E-06 -0.62826633
v 0.46587417 2.185764E-06 -2.26738
v 0.8999998 0.50000185 -2.187112
v -0 0.50000185 -0.62826633
v 0.46587417 0.5000022 -2.4020941
v 0.46587417 2.185764E-06 -2.26738
v -0 1.9048698E-06 -0.62826633
v -2.1464784E-08 2.185764E-06 -2.3287134
v 0.46587417 0.5000022 -2.4020941
v -0 0.50000185 -0.62826633
v -2.1464784E-08 0.5000022 -2.4634275
v -2.1464784E-08 2.185764E-06 -2.3287134
v -0 1.9048698E-06 -0.62826633
v -0.46587422 2.185764E-06 -2.26738
v -2.1464784E-08 0.5000022 -2.4634275
v -0 0.50000185 -0.62826633
v -0.46587422 0.5000022 -2.4020941
v -0.46587422 2.185764E-06 -2.26738
v -0 1.9048698E-06 -0.62826633
v -0.8999998 1.8484643E-06 -2.052398
v -0.46587422 0.5000022 -2.4020941
v -0 0.50000185 -0.62826633
v -0.8999998 0.50000185 -2.187112
v -0.8999998 1.8484643E-06 -2.052398
v -0 1.9048698E-06 -0.62826633
v -1.272792 2.3588716E-06 -1.8187697
v -0.8999998 0.50000185 -2.187112
v -0 0.50000185 -0.62826633
v -1.2867593 0.50000185 -1.9010587
v -1.272792 2.3588716E-06 -1.8187697
v -0 1.9048698E-06 -0.62826633
v -1.6075957 1.0226888E-06 -1.4398695
v -1.2867593 0.50000185 -1.9010587
v -0 0.50000185 -0.62826633
v -1.621382 0.50000185 -1.5282667
v -1.6075957 1.0226888E-06 -1.4398695
v -0 1.9048698E-06 -0.62826633
v -1.8273544 1.9073486E-06 -1.094141
v -1.621382 0.50000185 -1.5282667
v -0 0.50000185 -0.62826633
v -1.8809896 0.50000185 -1.094141
v -1.8273544 1.9073486E-06 -1.094141
v -0 1.9048698E-06 -0.62826633
v -1.8918167 1.9073486E-06 -0.62826633
v -1.8809896 0.50000185 -1.094141
v -0 0.50000185 -0.62826633
v -1.9628915 0.50000185 -0.62826633
vt -0.7384433 0.26014286
vt -0.74262345 0.76515186
vt 0.3575945 0.26014096
vt 0.3575945 0.75518155
vt -0.5650138 0
vt -0.5650138 0.5
vt -0.054560874 0
vt -0.054560874 0.5
vt -0.23494737 0
vt -0.23494737 0.5
vt 0.23494688 0
vt 0.23494688 0.5
vt -0.23494664 0
vt -0.23494664 0.5
vt 0.23494773 0
vt 0.23494773 0.5
vt -0.23494723 0
vt -0.23494723 0.5
vt 0.2349469 0
vt 0.2349469 0.5
vt -0.23494716 0
vt -0.23494716 0.5
vt 0.23494726 0
vt 0.23494726 0.5
vt -0.2349472 0
vt -0.2349472 0.5
vt 0.234947 0
vt 0.234947 0.5
vt -0.23494701 0
vt -0.23494701 0.5
vt 0.2349474 0
vt 0.2349474 0.5
vt -0.23494758 0
vt -0.23494758 0.5
vt 0.23494656 0
vt 0.23494656 0.5
vt -0.23494656 0
vt -0.23494656 0.5
vt 0.23494758 0
vt 0.23494758 0.5
vt -0.182118 0
vt -0.182118 0.5
vt 0.2938084 0
vt 0.3239166 0.5
vt -0.24285312 0.2594306
vt -0.23366426 0.7647158
vt 0.85994744 0.2594325
vt 0.8675407 0.76289177
vt 0.36304027 0.23406465
vt 0.35471907 0.7376682
vt 0.8333531 0.23406467
vt 0.8313003 0.73225844
vt -0.045426246 0.0539973
vt -0.053392395 0.5541581
vt 0.36284456 0.053996418
vt 0.4237854 0.55559045
vt 0.004486351 0.33429715
vt 0.053104848 0.8403955
vt 0.5118405 0.33429852
vt 0.5732953 0.83674324
vt -0.11267335 0.30621603
vt -0.06897513 0.81105405
vt 0.32727718 0.3062155
vt 0.39881492 0.81718963
vt 0.10427604 0.52541035
vt 0.16405866 1.0397779
vt 0.58871627 0.5254107
vt 0.6484989 1.0397782
vt -0.1659365 0.5958422
vt -0.1483528 1.1133736
vt 0.30395767 0.5958422
vt 0.32154137 1.1133736
vt -0.30395764 0.5958422
vt -0.32154134 1.1133736
vt 0.16593656 0.5958422
vt 0.14835286 1.1133736
vt -0.5887164 0.5254107
vt -0.648499 1.0397782
vt -0.10427621 0.5254104
vt -0.16405883 1.0397779
vt -0.32727683 0.49345422
vt -0.39881456 1.0063189
vt 0.112673394 0.49345475
vt 0.08081036 0.9980826
vt -0.52013886 0.27802345
vt -0.57255495 0.7822244
vt -0.01451169 0.2780221
vt -0.07162486 0.78272796
vt -0.3527819 0.24973291
vt -0.4199881 0.7532091
vt 0.056879092 0.2497338
vt 0.08565113 0.7515917
vt -0.8333533 0.20710933
vt -0.8260019 0.70992404
vt -0.36303994 0.20710933
vt -0.35329828 0.7117494
vt -1.8918167 -0.62826633
vt -2.4959312E-15 -0.62826633
vt -1.8273546 0.46587422
vt 1.9628915 -0.62826717
vt 0 -0.62826717
vt 1.8273546 0.4658734
vt -1.8273546 0.46587422
vt 1.4490435E-12 -0.62826633
vt -1.5588456 0.9
vt 1.8273542 0.465874
vt -3.6894718E-07 -0.6282666
vt 1.5588453 0.89999974
vt -1.5588456 0.9
vt 1.328389E-12 -0.62826633
vt -1.2727921 1.2727921
vt 1.5588453 0.89999974
vt -3.3822684E-07 -0.6282666
vt 1.2727917 1.2727919
vt -1.2727921 1.2727921
vt 9.675307E-13 -0.62826633
vt -0.8999999 1.5588458
vt 1.2727919 1.2727917
vt -2.4634718E-07 -0.62826663
vt 0.8999997 1.5588454
vt -0.8999999 1.5588458
vt 5.871256E-13 -0.62826633
vt -0.4658743 1.7386664
vt 0.89999974 1.5588454
vt -1.494906E-07 -0.6282667
vt 0.46587417 1.738666
vt -0.4658743 1.7386664
vt 1.9672676E-13 -0.62826633
vt 7.86805E-08 1.8
vt 0.46587425 1.738666
vt -5.0089444E-08 -0.6282667
vt -1.2876976E-07 1.7999996
vt 7.86805E-08 1.8
vt -1.9672684E-13 -0.62826633
vt 0.46587425 1.7386664
vt -2.8591213E-08 1.7999996
vt 5.0089472E-08 -0.6282667
vt -0.4658742 1.738666
vt 0.46587425 1.7386664
vt -5.871258E-13 -0.62826633
vt 0.9000001 1.5588456
vt -0.4658741 1.738666
vt 1.494906E-07 -0.6282667
vt -0.8999999 1.5588453
vt 0.9000001 1.5588456
vt -9.675307E-13 -0.62826633
vt 1.2727921 1.2727921
vt -0.89999986 1.5588453
vt 2.463472E-07 -0.62826663
vt -1.2727919 1.2727917
vt 1.2727921 1.2727921
vt -1.3283887E-12 -0.62826633
vt 1.5588456 0.9000001
vt -1.2727917 1.2727919
vt 3.3822678E-07 -0.6282666
vt -1.5588453 0.89999986
vt 1.5588456 0.9000001
vt -1.6159448E-12 -0.62826633
vt 1.7538863 0.46587446
vt -1.5588453 0.89999986
vt 3.6894713E-07 -0.6282666
vt -1.8273542 0.46587422
vt 1.7538863 0.46587446
vt 2.4957218E-15 -0.62826633
vt 1.8918167 -0.62826645
vt -1.8273546 0.46587363
vt 5.1552895E-14 -0.62826717
vt -1.9525276 -0.6282673
vt 1.8918167 -0.62826645
vt 2.495931E-15 -0.62826633
vt 1.8273546 -1.0941406
vt -1.9525276 -0.62826645
vt 0 -0.62826633
vt -1.8423315 -1.0941406
vt 1.8273546 -1.0941406
vt 1.0733626E-12 -0.62826633
vt 1.6101981 -1.439869
vt -1.8423315 -1.0941406
vt 0 -0.62826633
vt -1.6363592 -1.5282662
vt 1.6101981 -1.439869
vt -3.0572682E-12 -0.62826633
vt 1.2727922 -1.8187695
vt -1.6363592 -1.5282662
vt 0 -0.62826633
vt -1.2727922 -1.9010584
vt 1.2727922 -1.8187695
vt 1.8342905E-12 -0.62826633
vt 0.8999998 -2.052398
vt -1.2727922 -1.9010584
vt 0 -0.62826633
vt -0.8999998 -2.187112
vt 0.8999998 -2.052398
vt -1.155697E-12 -0.62826633
vt 0.46587417 -2.26738
vt -0.8999995 -2.1871123
vt 3.2031534E-07 -0.6282665
vt -0.46587384 -2.4020944
vt 0.46587417 -2.26738
vt 4.142605E-14 -0.62826633
vt -2.1464736E-08 -2.3287134
vt -0.46587417 -2.4020941
vt -1.2827949E-08 -0.62826645
vt 8.636825E-09 -2.4634275
vt -2.1464832E-08 -2.3287134
vt -4.142605E-14 -0.62826633
vt -0.46587422 -2.26738
vt 3.4292743E-08 -2.4634275
vt 1.2827949E-08 -0.62826645
vt 0.46587422 -2.4020941
vt -0.46587422 -2.26738
vt 1.1556971E-12 -0.62826633
vt -0.8999998 -2.052398
vt 0.4658739 -2.4020944
vt -3.203154E-07 -0.6282665
vt 0.8999995 -2.1871123
vt -0.8999998 -2.052398
vt -1.834292E-12 -0.62826633
vt -1.272792 -1.8187697
vt 0.8999998 -2.187112
vt 0 -0.62826633
vt 1.2867593 -1.9010587
vt -1.272792 -1.8187697
vt 3.0680224E-12 -0.62826633
vt -1.6075957 -1.4398695
vt 1.2867593 -1.9010587
vt 0 -0.62826633
vt 1.621382 -1.5282667
vt -1.6075957 -1.4398695
vt -1.0715905E-12 -0.62826633
vt -1.8273544 -1.094141
vt 1.621382 -1.5282667
vt 0 -0.62826633
vt 1.8809896 -1.094141
vt -1.8273544 -1.094141
vt -2.4959312E-15 -0.62826633
vt -1.8918167 -0.62826633
vt 1.8809896 -1.094141
vt 0 -0.62826633
vt 1.9628915 -0.62826633
vn -0.98442024 -0.13138527 -0.04789388
vn -0.9843738 -0.104626656 -0.04034293
vn -0.9219179 -0.035301544 0.3084049
vn -0.9214431 0 0.32447824
vn -0.9219179 -0.035301544 0.3084049
vn -0.9214431 0 0.32447824
vn -0.82191247 0 0.5673912
vn -0.82191247 0 0.5673912
vn -0.82191247 0 0.5673912
vn -0.82191247 0 0.5673912
vn -0.70105743 0 0.70105743
vn -0.70105743 0 0.70105743
vn -0.70105743 0 0.70105743
vn -0.70105743 0 0.70105743
vn -0.49572247 0 0.85861635
vn -0.49572247 0 0.85861635
vn -0.49572247 0 0.85861635
vn -0.49572247 0 0.85861635
vn -0.25660476 0 0.95766217
vn -0.25660476 0 0.95766217
vn -0.25660476 0 0.95766217
vn -0.25660476 0 0.95766217
vn 3.7252903E-08 0 0.9914448
vn 3.7252903E-08 0 0.9914448
vn 3.7252903E-08 0 0.9914448
vn 3.7252903E-08 0 0.9914448
vn 0.25660482 0 0.9576622
vn 0.25660482 0 0.9576622
vn 0.25660482 0 0.9576622
vn 0.25660482 0 0.9576622
vn 0.49572247 0 0.85861635
vn 0.49572247 0 0.85861635
vn 0.49572247 0 0.85861635
vn 0.49572247 0 0.85861635
vn 0.7010574 0 0.7010574
vn 0.7010574 0 0.7010574
vn 0.7010574 0 0.7010574
vn 0.7010574 0 0.7010574
vn 0.8527614 0 0.5092872
vn 0.8368278 -0.03233712 0.5393726
vn 0.8527614 0 0.5092872
vn 0.8368278 -0.03233712 0.5393726
vn 0.9310362 -0.10446599 0.296874
vn 0.91403127 -0.1280269 0.32014441
vn 0.9310362 -0.10446599 0.296874
vn 0.91403127 -0.1280269 0.32014441
vn 0.98381454 -0.12573415 -0.008877013
vn 0.9832702 -0.096976906 -0.03544604
vn 0.98381454 -0.12573415 -0.008877013
vn 0.9832702 -0.096976906 -0.03544604
vn 0.9133557 -0.049772184 -0.3577287
vn 0.9245042 -0.05360664 -0.35276538
vn 0.9133557 -0.049772184 -0.3577287
vn 0.9245042 -0.05360664 -0.35276538
vn 0.8070465 -0.116418555 -0.56623113
vn 0.810714 -0.12822333 -0.55063397
vn 0.8070465 -0.116418555 -0.56623113
vn 0.810714 -0.12822333 -0.55063397
vn 0.62533355 -0.13621597 -0.7575263
vn 0.6370971 -0.14471291 -0.75065565
vn 0.62533355 -0.13621597 -0.7575263
vn 0.6370971 -0.14471291 -0.75065565
vn 0.49717164 -0.2049853 -0.8393949
vn 0.51334584 -0.22186542 -0.82346755
vn 0.49717164 -0.2049853 -0.8393949
vn 0.51334584 -0.22186542 -0.82346755
vn 0.27874136 -0.24638772 -0.91448355
vn 0.27874136 -0.2463877 -0.91448355
vn 0.27874136 -0.24638772 -0.91448355
vn 0.27874136 -0.2463877 -0.91448355
vn -0 -0.25807446 -0.9578597
vn -0 -0.25807446 -0.9578597
vn -0 -0.25807446 -0.9578597
vn -0 -0.25807446 -0.9578597
vn -0.2787414 -0.24638772 -0.91448355
vn -0.2787414 -0.24638772 -0.91448355
vn -0.2787414 -0.24638772 -0.91448355
vn -0.2787414 -0.24638772 -0.91448355
vn -0.47454578 -0.22863725 -0.8486016
vn -0.493217 -0.20924906 -0.8411803
vn -0.47454578 -0.22863725 -0.8486016
vn -0.493217 -0.20924906 -0.8411803
vn -0.64908886 -0.15631211 -0.7339455
vn -0.6641533 -0.14017737 -0.72718334
vn -0.64908886 -0.15631211 -0.7339455
vn -0.6641533 -0.14017737 -0.72718334
vn -0.7891314 -0.12517145 -0.5959426
vn -0.792253 -0.120238155 -0.5912639
vn -0.7891314 -0.12517145 -0.5959426
vn -0.792253 -0.120238155 -0.5912639
vn -0.9161971 -0.10441896 -0.3285834
vn -0.9175539 -0.106975764 -0.33254516
vn -0.9161971 -0.10441896 -0.3285834
vn -0.9175539 -0.106975764 -0.33254516
vn -0.98442024 -0.13138527 -0.04789388
vn -0.9843738 -0.104626656 -0.04034293
vn -1.3102545E-09 -1 -1.743162E-06
vn -1.3102545E-09 -1 -1.743162E-06
vn -1.3102545E-09 -1 -1.743162E-06
vn -0 1 1.688763E-06
vn -0 1 1.688763E-06
vn -0 1 1.688763E-06
vn 7.607047E-07 -1 -4.704996E-07
vn 7.607047E-07 -1 -4.704996E-07
vn 7.607047E-07 -1 -4.704996E-07
vn -7.3789164E-07 1 4.563896E-07
vn -7.3789164E-07 1 4.563896E-07
vn -7.3789164E-07 1 4.563896E-07
vn 6.9736467E-07 -1 -5.351069E-07
vn 6.9736467E-07 -1 -5.351069E-07
vn 6.9736467E-07 -1 -5.351069E-07
vn -6.764512E-07 1 5.1905937E-07
vn -6.764512E-07 1 5.1905937E-07
vn -6.764512E-07 1 5.1905937E-07
vn 5.079249E-07 -1 -6.619402E-07
vn 5.079249E-07 -1 -6.619402E-07
vn 5.079249E-07 -1 -6.619402E-07
vn -4.9269255E-07 1 6.4208905E-07
vn -4.9269255E-07 1 6.4208905E-07
vn -4.9269255E-07 1 6.4208905E-07
vn 3.082235E-07 -1 -7.441176E-07
vn 3.082235E-07 -1 -7.441176E-07
vn 3.082235E-07 -1 -7.441176E-07
vn -2.9898013E-07 1 7.2180205E-07
vn -2.9898013E-07 1 7.2180205E-07
vn -2.9898013E-07 1 7.2180205E-07
vn 1.032757E-07 -1 -7.8445674E-07
vn 1.032757E-07 -1 -7.8445674E-07
vn 1.032757E-07 -1 -7.8445674E-07
vn -1.00178525E-07 1 7.609313E-07
vn -1.00178525E-07 1 7.609313E-07
vn -1.00178525E-07 1 7.609313E-07
vn -1.0327575E-07 -1 -7.844567E-07
vn -1.0327575E-07 -1 -7.844567E-07
vn -1.0327575E-07 -1 -7.844567E-07
vn 1.0017858E-07 1 7.609314E-07
vn 1.0017858E-07 1 7.609314E-07
vn 1.0017858E-07 1 7.609314E-07
vn -3.0822358E-07 -0.99999994 -7.4411764E-07
vn -3.0822358E-07 -0.99999994 -7.4411764E-07
vn -3.0822358E-07 -0.99999994 -7.4411764E-07
vn 2.989801E-07 1 7.21802E-07
vn 2.989801E-07 1 7.21802E-07
vn 2.989801E-07 1 7.21802E-07
vn -5.079249E-07 -1 -6.619402E-07
vn -5.079249E-07 -1 -6.619402E-07
vn -5.079249E-07 -1 -6.619402E-07
vn 4.9269255E-07 1 6.42089E-07
vn 4.9269255E-07 1 6.42089E-07
vn 4.9269255E-07 1 6.42089E-07
vn -6.9736456E-07 -1 -5.35107E-07
vn -6.9736456E-07 -1 -5.35107E-07
vn -6.9736456E-07 -1 -5.35107E-07
vn 6.76451E-07 1 5.190594E-07
vn 6.76451E-07 1 5.190594E-07
vn 6.76451E-07 1 5.190594E-07
vn -8.483229E-07 -0.99999994 -3.8112813E-07
vn -8.483229E-07 -0.99999994 -3.8112813E-07
vn -8.483229E-07 -0.99999994 -3.8112813E-07
vn 7.378915E-07 1 4.5638967E-07
vn 7.378915E-07 1 4.5638967E-07
vn 7.378915E-07 1 4.5638967E-07
vn 1.3101797E-09 -1 -1.7430733E-06
vn 1.3101797E-09 -1 -1.7430733E-06
vn 1.3101797E-09 -1 -1.7430733E-06
vn 1.0643139E-13 1 1.6887624E-06
vn 1.0643139E-13 1 1.6887624E-06
vn 1.0643139E-13 1 1.6887624E-06
vn 1.3102897E-09 -1 -1.8130245E-10
vn 1.3102897E-09 -1 -1.8130245E-10
vn 1.3102897E-09 -1 -1.8130245E-10
vn -0 1 0
vn -0 1 0
vn -0 1 0
vn 5.6348347E-07 -1 2.2048978E-06
vn 5.6348347E-07 -1 2.2048978E-06
vn 5.6348347E-07 -1 2.2048978E-06
vn -0 1 0
vn -0 1 0
vn -0 1 0
vn -1.6049748E-06 -1 -2.0972657E-06
vn -1.6049748E-06 -1 -2.0972657E-06
vn -1.6049748E-06 -1 -2.0972657E-06
vn -0 1 0
vn -0 1 0
vn -0 1 0
vn 9.62948E-07 -1 6.4815526E-07
vn 9.62948E-07 -1 6.4815526E-07
vn 9.62948E-07 -1 6.4815526E-07
vn -0 1 0
vn -0 1 0
vn -0 1 0
vn -6.067065E-07 -0.99999994 -3.438097E-07
vn -6.067065E-07 -0.99999994 -3.438097E-07
vn -6.067065E-07 -0.99999994 -3.438097E-07
vn 6.406283E-07 1 3.698668E-07
vn 6.406283E-07 1 3.698668E-07
vn 6.406283E-07 1 3.698668E-07
vn 2.1747445E-08 -1 -1.6518845E-07
vn 2.1747445E-08 -1 -1.6518845E-07
vn 2.1747445E-08 -1 -1.6518845E-07
vn -2.5655806E-08 1 1.9487547E-07
vn -2.5655806E-08 1 1.9487547E-07
vn -2.5655806E-08 1 1.9487547E-07
vn -2.1747447E-08 -1 -1.6518848E-07
vn -2.1747447E-08 -1 -1.6518848E-07
vn -2.1747447E-08 -1 -1.6518848E-07
vn 2.5655806E-08 1 1.9487547E-07
vn 2.5655806E-08 1 1.9487547E-07
vn 2.5655806E-08 1 1.9487547E-07
vn 6.067066E-07 -1 -3.4380975E-07
vn 6.067066E-07 -1 -3.4380975E-07
vn 6.067066E-07 -1 -3.4380975E-07
vn -6.4062834E-07 0.99999994 3.6986683E-07
vn -6.4062834E-07 0.99999994 3.6986683E-07
vn -6.4062834E-07 0.99999994 3.6986683E-07
vn -9.629488E-07 -1 6.481558E-07
vn -9.629488E-07 -1 6.481558E-07
vn -9.629488E-07 -1 6.481558E-07
vn -0 0.99999994 0
vn -0 0.99999994 0
vn -0 0.99999994 0
vn 1.6106205E-06 -0.99999994 -2.1033006E-06
vn 1.6106205E-06 -0.99999994 -2.1033006E-06
vn 1.6106205E-06 -0.99999994 -2.1033006E-06
vn -0 1 0
vn -0 1 0
vn -0 1 0
vn -5.6255317E-07 -1 2.201247E-06
vn -5.6255317E-07 -1 2.201247E-06
vn -5.6255317E-07 -1 2.201247E-06
vn -0 0.99999994 0
vn -0 0.99999994 0
vn -0 0.99999994 0
vn -1.3102897E-09 -1 -1.813026E-10
vn -1.3102897E-09 -1 -1.813026E-10
vn -1.3102897E-09 -1 -1.813026E-10
vn -0 1 0
vn -0 1 0
vn -0 1 0
g pb_Mesh-8043086_0
f 3/3/3 2/2/2 1/1/1
f 3/3/3 4/4/4 2/2/2
f 7/7/7 6/6/6 5/5/5
f 7/7/7 8/8/8 6/6/6
f 11/11/11 10/10/10 9/9/9
f 11/11/11 12/12/12 10/10/10
f 15/15/15 14/14/14 13/13/13
f 15/15/15 16/16/16 14/14/14
f 19/19/19 18/18/18 17/17/17
f 19/19/19 20/20/20 18/18/18
f 23/23/23 22/22/22 21/21/21
f 23/23/23 24/24/24 22/22/22
f 27/27/27 26/26/26 25/25/25
f 27/27/27 28/28/28 26/26/26
f 31/31/31 30/30/30 29/29/29
f 31/31/31 32/32/32 30/30/30
f 35/35/35 34/34/34 33/33/33
f 35/35/35 36/36/36 34/34/34
f 39/39/39 38/38/38 37/37/37
f 39/39/39 40/40/40 38/38/38
f 43/43/43 42/42/42 41/41/41
f 43/43/43 44/44/44 42/42/42
f 47/47/47 46/46/46 45/45/45
f 47/47/47 48/48/48 46/46/46
f 51/51/51 50/50/50 49/49/49
f 51/51/51 52/52/52 50/50/50
f 55/55/55 54/54/54 53/53/53
f 55/55/55 56/56/56 54/54/54
f 59/59/59 58/58/58 57/57/57
f 59/59/59 60/60/60 58/58/58
f 63/63/63 62/62/62 61/61/61
f 63/63/63 64/64/64 62/62/62
f 67/67/67 66/66/66 65/65/65
f 67/67/67 68/68/68 66/66/66
f 71/71/71 70/70/70 69/69/69
f 71/71/71 72/72/72 70/70/70
f 75/75/75 74/74/74 73/73/73
f 75/75/75 76/76/76 74/74/74
f 79/79/79 78/78/78 77/77/77
f 79/79/79 80/80/80 78/78/78
f 83/83/83 82/82/82 81/81/81
f 83/83/83 84/84/84 82/82/82
f 87/87/87 86/86/86 85/85/85
f 87/87/87 88/88/88 86/86/86
f 91/91/91 90/90/90 89/89/89
f 91/91/91 92/92/92 90/90/90
f 95/95/95 94/94/94 93/93/93
f 95/95/95 96/96/96 94/94/94
f 97/97/97 98/98/98 99/99/99
f 103/103/103 104/104/104 105/105/105
f 109/109/109 110/110/110 111/111/111
f 115/115/115 116/116/116 117/117/117
f 121/121/121 122/122/122 123/123/123
f 127/127/127 128/128/128 129/129/129
f 133/133/133 134/134/134 135/135/135
f 139/139/139 140/140/140 141/141/141
f 145/145/145 146/146/146 147/147/147
f 151/151/151 152/152/152 153/153/153
f 157/157/157 158/158/158 159/159/159
f 163/163/163 164/164/164 165/165/165
f 169/169/169 170/170/170 171/171/171
f 175/175/175 176/176/176 177/177/177
f 181/181/181 182/182/182 183/183/183
f 187/187/187 188/188/188 189/189/189
f 193/193/193 194/194/194 195/195/195
f 199/199/199 200/200/200 201/201/201
f 205/205/205 206/206/206 207/207/207
f 211/211/211 212/212/212 213/213/213
f 217/217/217 218/218/218 219/219/219
f 223/223/223 224/224/224 225/225/225
f 229/229/229 230/230/230 231/231/231
f 235/235/235 236/236/236 237/237/237
f 102/102/102 101/101/101 100/100/100
f 108/108/108 107/107/107 106/106/106
f 114/114/114 113/113/113 112/112/112
f 120/120/120 119/119/119 118/118/118
f 126/126/126 125/125/125 124/124/124
f 132/132/132 131/131/131 130/130/130
f 138/138/138 137/137/137 136/136/136
f 144/144/144 143/143/143 142/142/142
f 150/150/150 149/149/149 148/148/148
f 156/156/156 155/155/155 154/154/154
f 162/162/162 161/161/161 160/160/160
f 168/168/168 167/167/167 166/166/166
f 174/174/174 173/173/173 172/172/172
f 180/180/180 179/179/179 178/178/178
f 186/186/186 185/185/185 184/184/184
f 192/192/192 191/191/191 190/190/190
f 198/198/198 197/197/197 196/196/196
f 204/204/204 203/203/203 202/202/202
f 210/210/210 209/209/209 208/208/208
f 216/216/216 215/215/215 214/214/214
f 222/222/222 221/221/221 220/220/220
f 228/228/228 227/227/227 226/226/226
f 234/234/234 233/233/233 232/232/232
f 240/240/240 239/239/239 238/238/238
