g pb_Mesh466846
v -9.578472 0 0.8789493
v -9.578474 -3.0892677 -1.2656866
v -9.578472 1 0.8789493
v -9.578473 1 -1.5000005
v 0.6707128 -3.0892677 -1.8993275
v 0.6707133 0 0.24530998
v 0.6707126 1 -1.5
v 0.6707133 1 0.24530998
v -9.578473 1 -1.5000005
v -9.578477 1 -2.4013593
v -9.578478 -3.0892677 -2.167045
v 0.6707128 -3.0892677 -1.8993275
v 0.6707126 1 -1.5
v 0.67071307 -3.0892677 -2.1670446
v 0.67071325 1 -2.4013588
v 0.6707133 0 0.24530998
v -1.6085039 0 0.87894726
v -1.6085039 1 0.87894726
v 0.6707133 1 0.24530998
v -1.6085039 0 0.87894726
v -9.578472 0 0.8789493
v -9.578472 1 0.8789493
v -1.6085039 1 0.87894726
v -9.578477 1 -2.4013593
v -9.578478 -3.0892677 -2.167045
v -1.6085068 -3.0892677 -2.1670454
v -1.6085058 1 -2.4013596
v 0.67071307 -3.0892677 -2.1670446
v 0.67071325 1 -2.4013588
v -1.6085049 1 -1.5000025
v 0.6707126 1 -1.5
v -1.6085039 1 0.87894726
v 0.6707133 1 0.24530998
v -9.578473 1 -1.5000005
v -9.578472 1 0.8789493
v 0.6707133 0 0.24530998
v 0.6707128 -3.0892677 -1.8993275
v -1.6085039 0 0.87894726
v -1.6085049 -3.0892677 -1.2656887
v -1.6085039 0 0.87894726
v -1.6085049 -3.0892677 -1.2656887
v -9.578472 0 0.8789493
v -9.578474 -3.0892677 -1.2656866
v -1.6085049 -3.0892677 -1.2656887
v -1.6085068 -3.0892677 -2.1670454
v -9.578474 -3.0892677 -1.2656866
v -9.578478 -3.0892677 -2.167045
v 0.6707128 -3.0892677 -1.8993275
v 0.67071307 -3.0892677 -2.1670446
v -1.6085068 -3.0892677 -2.1670454
v -1.6085058 1 -2.4013596
v 0.67071325 1 -2.4013588
v -9.578477 1 -2.4013593
vt 0.87894076 0
vt -1.2656951 -3.0892677
vt 0.87894076 1
vt -1.500009 1
vt 1.8993273 -3.0892677
vt -0.24531022 -6.245228E-08
vt 1.4999998 0.99999994
vt -0.24531022 0.99999994
vt -1.500041 0.99999547
vt -2.4013999 0.99999547
vt -2.1670856 -3.0892723
vt 1.8993281 -3.0892677
vt 1.5000006 1
vt 2.1670454 -3.0892677
vt 2.4013596 1
vt 0.6607265 3.1235678E-10
vt -1.6412868 9.404271E-10
vt -1.6412868 1
vt 0.6607265 1
vt -1.6412868 9.404271E-10
vt -9.605295 5.8530913E-10
vt -9.605295 1
vt -1.6412868 1
vt -9.578477 1.1357344
vt -9.578478 -2.9602408
vt -1.6085068 -2.9602408
vt -1.6085058 1.1357346
vt 0.670713 -2.9602408
vt 0.6707132 1.1357344
vt 1.6085049 -1.5000025
vt -0.6707126 -1.5
vt 1.6085039 0.87894726
vt -0.6707133 0.24530998
vt 9.578473 -1.5000005
vt 9.578472 0.8789493
vt 0.6607264 0.15450038
vt 0.74365157 -3.6053095
vt -1.6412868 0.46516135
vt -1.5583622 -3.2946477
vt -1.6412868 0.46516135
vt -1.5583622 -3.2946477
vt -9.605294 0.28950995
vt -9.522371 -3.470299
vt 1.6085049 -1.2656887
vt 1.6085068 -2.1670454
vt 9.578474 -1.2656866
vt 9.578478 -2.167045
vt -0.6707128 -1.8993275
vt -0.67071307 -2.1670446
vt 1.6085068 -2.1670454
vt 1.6085058 -2.4013596
vt -0.67071325 -2.4013588
vt 9.578477 -2.4013593
vn -0.99999994 0 8.8935775E-07
vn -1 2.0990858E-07 4.891162E-07
vn -1 2.0990858E-07 4.891162E-07
vn -1 2.5618428E-07 4.008804E-07
vn 0.99999994 9.3113236E-08 -3.5646528E-07
vn 1 7.560439E-08 -3.6649723E-07
vn 1 7.560439E-08 -3.6649723E-07
vn 1 0 -4.0981587E-07
vn -1 4.7571567E-07 4.2321626E-06
vn -1 4.7571592E-07 4.2321635E-06
vn -0.99999994 4.7571612E-07 4.232164E-06
vn 1 -2.866214E-08 8.905616E-07
vn 1 -8.142282E-09 7.647661E-07
vn 1 -8.142282E-09 7.647661E-07
vn 1 -2.0475766E-09 7.27403E-07
vn 0.26784846 0 0.96346104
vn 0.26784846 0 0.96346104
vn 0.26784846 0 0.96346104
vn 0.26784846 0 0.96346104
vn 2.5427428E-07 0 1
vn 2.5427428E-07 0 1
vn 2.5427428E-07 0 1
vn 2.5427428E-07 0 1
vn -2.953964E-08 -0.057205956 -0.99836236
vn -2.921366E-08 -0.057205956 -0.99836236
vn -2.953964E-08 -0.057205956 -0.99836236
vn -2.986562E-08 -0.057205956 -0.99836236
vn 3.1307485E-07 -0.057205968 -0.9983624
vn 3.1330222E-07 -0.057205964 -0.99836236
vn -0 1 0
vn -0 1 0
vn -0 1 0
vn -0 1 0
vn -0 1 0
vn -0 1 0
vn 0.22263819 -0.55595934 0.80083793
vn 0.22263846 -0.55595917 0.800838
vn 0.22263846 -0.55595917 0.800838
vn 0.22263871 -0.55595905 0.80083805
vn 2.0887508E-07 -0.57027227 0.82145584
vn 2.0887506E-07 -0.57027227 0.82145584
vn 2.0887506E-07 -0.57027227 0.82145584
vn 2.0887504E-07 -0.57027227 0.8214557
vn -0 -1 0
vn -0 -0.99999994 0
vn -0 -0.99999994 0
vn -0 -1 0
vn -0 -1 0
vn -0 -1 0
vn -0 -1 0
vn -0 1 0
vn -0 1 0
vn -0 1 0
g pb_Mesh466846_0
f 3/3/3 2/2/2 1/1/1
f 3/3/3 4/4/4 2/2/2
f 7/7/7 6/6/6 5/5/5
f 7/7/7 8/8/8 6/6/6
f 10/10/10 2/2/2 9/9/9
f 10/10/10 11/11/11 2/2/2
f 14/14/14 13/13/13 12/12/12
f 14/14/14 15/15/15 13/13/13
f 18/18/18 17/17/17 16/16/16
f 18/18/18 16/16/16 19/19/19
f 22/22/22 21/21/21 20/20/20
f 22/22/22 20/20/20 23/23/23
f 26/26/26 25/25/25 24/24/24
f 27/27/27 26/26/26 24/24/24
f 28/28/28 26/26/26 27/27/27
f 29/29/29 28/28/28 27/27/27
f 32/32/32 31/31/31 30/30/30
f 33/33/33 31/31/31 32/32/32
f 35/35/35 30/30/30 34/34/34
f 32/32/32 30/30/30 35/35/35
f 38/38/38 37/37/37 36/36/36
f 38/38/38 39/39/39 37/37/37
f 42/42/42 41/41/41 40/40/40
f 42/42/42 43/43/43 41/41/41
f 46/46/46 45/45/45 44/44/44
f 47/47/47 45/45/45 46/46/46
f 44/44/44 49/49/49 48/48/48
f 50/50/50 49/49/49 44/44/44
f 30/30/30 52/52/52 51/51/51
f 31/31/31 52/52/52 30/30/30
f 34/34/34 51/51/51 53/53/53
f 30/30/30 51/51/51 34/34/34
