g pb_Mesh241300
v -0.43948078 -0.06145823 0.73910666
v -2.120381 0.007214129 0.07499462
v -0.6468172 0.21146023 -0.37059593
v 3.1659198 -0.0059366226 0.56081074
v 2.34896 -0.007900715 1.0584396
v 0.75956136 0.006456852 0.8262026
v 3.507278 -0.20921278 1.1934794
v 1.25174 -0.025147438 1.5878242
v 2.34896 -0.007900715 1.0584396
v 2.655436 -0.05136946 -2.4920492
v 0.4798716 -0.054060757 -1.8116406
v -0.46475285 -0.10562551 -2.668767
v 2.655436 -0.05136946 -2.4920492
v -0.46475285 -0.10562551 -2.668767
v 0.49034256 -0.094433576 -3.6607373
v -0.6468172 0.21146023 -0.37059593
v -2.1752777 -0.20307183 -1.258737
v -0.46475285 -0.10562551 -2.668767
v -0.6468172 0.21146023 -0.37059593
v -2.120381 0.007214129 0.07499462
v -2.1752777 -0.20307183 -1.258737
vt 0.045925464 0.4200988
vt 0.045925464 0.4200988
vt 0.045925464 0.4200988
vt 0.045925464 0.4200988
vt 0.045925464 0.4200988
vt 0.045925464 0.4200988
vt 0.045925464 0.4200988
vt 0.045925464 0.4200988
vt 0.045925464 0.4200988
vt 0.045925464 0.4200988
vt 0.045925464 0.4200988
vt 0.045925464 0.4200988
vt 0.045925464 0.4200988
vt 0.045925464 0.4200988
vt 0.045925464 0.4200988
vt 0.045925464 0.4200988
vt 0.045925464 0.4200988
vt 0.045925464 0.4200988
vt 0.045925464 0.4200988
vt 0.045925464 0.4200988
vt 0.045925464 0.4200988
vn -0.058782674 0.9667819 0.24875171
vn -0.11889951 0.96986485 0.051358975
vn -0.11846346 0.96983385 0.05062297
vn 0.0068195807 0.99986213 0.015142098
vn 0.0068195807 0.99986213 0.015142098
vn 0.0068195807 0.99986213 0.015142098
vn 0.12944081 0.9454068 0.29908353
vn 0.12944081 0.9454068 0.29908353
vn 0.12944081 0.9454068 0.29908353
vn -0.016140947 0.99962944 -0.021917118
vn -0.0148963425 0.9989346 -0.043678932
vn -0.09690635 0.9862402 -0.08510988
vn -0.016140947 0.99962944 -0.021917118
vn -0.09690635 0.9862402 -0.08510988
vn -0.017092746 0.99984056 -0.005176622
vn -0.11846346 0.96983385 0.05062297
vn -0.17814423 0.9728857 -0.14750578
vn -0.09690635 0.9862402 -0.08510988
vn -0.11846346 0.96983385 0.05062297
vn -0.11889951 0.96986485 0.051358975
vn -0.17814423 0.9728857 -0.14750578
g pb_Mesh241300_0
f 3/3/3 2/2/2 1/1/1
f 6/6/6 5/5/5 4/4/4
f 9/9/9 8/8/8 7/7/7
f 12/12/12 11/11/11 10/10/10
f 15/15/15 14/14/14 13/13/13
f 18/18/18 17/17/17 16/16/16
f 21/21/21 20/20/20 19/19/19
