g pb_Mesh373450
v 0.033228725 -1 0.36172435
v -2.639475 -1 0.36172485
v 0.033228725 1 0.36172435
v -2.639475 1 0.36172485
v -2.639475 -1 0.36172485
v -2.639475 -1 0.03322899
v -2.639475 1 0.36172485
v -2.639475 1 0.03322899
v -2.639475 -1 0.03322899
v -0 -1 0.033228487
v -2.639475 1 0.03322899
v 0.033228725 1 0.03322847
v -0 -1 0.033228487
v 0.033228725 -1 0.36172435
v 0.033228725 1 0.03322847
v 0.033228725 1 0.36172435
v 0.033228725 1 0.36172435
v -2.639475 1 0.36172485
v 0.033228725 1 0.03322847
v -2.639475 1 0.03322899
v -0 -1 0.033228487
v -2.639475 -1 0.03322899
v 0.033228725 -1 0.36172435
v -2.639475 -1 0.36172485
vt 0.34999043 0.254896
vt 0.34999046 0.2580698
vt 0.35239533 0.254896
vt 0.35239536 0.2580698
vt 0.34999043 0.25446105
vt 0.34999043 0.25485602
vt 0.35239533 0.25446105
vt 0.35239533 0.25485602
vt 0.35068908 0.25542638
vt 0.3506891 0.25726897
vt 0.3520853 0.25542638
vt 0.3520853 0.25726897
vt 0.34999043 0.25493595
vt 0.34999043 0.25533095
vt 0.35239536 0.25493595
vt 0.35239536 0.25533095
vt 0.35167092 0.257824
vt 0.3516709 0.2546502
vt 0.35127592 0.257824
vt 0.3512759 0.2546502
vt 0.35123283 0.254896
vt 0.35123286 0.2580698
vt 0.35162783 0.254896
vt 0.35162786 0.2580698
vn 1.8956065E-07 0 1
vn 1.8956065E-07 0 1
vn 1.8956065E-07 0 1
vn 1.8956065E-07 0 1
vn -1 0 0
vn -1 0 0
vn -1 0 0
vn -1 0 0
vn -1.9053569E-07 0 -1
vn -1.9283583E-07 -3.0355831E-09 -1
vn -1.9283583E-07 -3.0355831E-09 -1
vn -1.9513597E-07 -6.0711662E-09 -1
vn 0.994787 -0.016527753 -0.10062685
vn 0.9973935 -0.008263877 -0.050313424
vn 0.9973935 -0.008263877 -0.050313424
vn 1 0 0
vn -0 1 0
vn -0 1 0
vn -0 1 0
vn -0 1 0
vn -0 -1 0
vn -0 -1 0
vn -0 -1 0
vn -0 -1 0
g pb_Mesh373450_0
f 3/3/3 2/2/2 1/1/1
f 3/3/3 4/4/4 2/2/2
f 7/7/7 6/6/6 5/5/5
f 7/7/7 8/8/8 6/6/6
f 11/11/11 10/10/10 9/9/9
f 11/11/11 12/12/12 10/10/10
f 15/15/15 14/14/14 13/13/13
f 15/15/15 16/16/16 14/14/14
f 19/19/19 18/18/18 17/17/17
f 19/19/19 20/20/20 18/18/18
f 23/23/23 22/22/22 21/21/21
f 23/23/23 24/24/24 22/22/22
