g pb_Mesh492854
v 1.0685258 1.7121181 0.21161366
v -1.0685306 1.7121181 0.21161366
v -1.0685306 1.9292939 0.21161366
v 1.0685258 1.7121181 0.21161366
v -1.0685306 1.9292939 0.21161366
v 1.0685258 1.9292939 0.21161366
v -1.0685306 1.9292939 0.21161366
v -1.0685306 1.7121181 0.21161366
v -1.309133 1.7121181 0.21161366
v -1.0685306 1.9292939 0.21161366
v -1.309133 1.7121181 0.21161366
v -1.309133 1.9292939 0.21161366
v 1.0685258 1.7121181 0.21161366
v 1.0685258 1.9292939 0.21161366
v 1.3091302 1.9292939 0.21161366
v 1.0685258 1.7121181 0.21161366
v 1.3091302 1.9292939 0.21161366
v 1.3091302 1.7121181 0.21161366
v -1.309133 1.7121181 0.21161366
v -1.0685306 1.7121181 0.21161366
v -1.0685306 -1.9292934 0.21161366
v -1.309133 1.7121181 0.21161366
v -1.0685306 -1.9292934 0.21161366
v -1.309133 -1.9292934 0.21161366
v 1.0685258 1.7121181 0.21161366
v 1.3091302 1.7121181 0.21161366
v 1.3091302 -1.9292934 0.21161366
v 1.0685258 1.7121181 0.21161366
v 1.3091302 -1.9292934 0.21161366
v 1.0685258 -1.9292934 0.21161366
v 1.0685258 1.9292939 0.21161366
v -1.0685306 1.9292939 0.21161366
v -1.0685306 1.9292939 -0.211627
v 1.0685258 1.9292939 0.21161366
v -1.0685306 1.9292939 -0.211627
v 1.0685258 1.9292939 -0.211627
v -1.0685306 1.9292939 -0.211627
v -1.0685306 1.9292939 0.21161366
v -1.309133 1.9292939 0.21161366
v -1.0685306 1.9292939 -0.211627
v -1.309133 1.9292939 0.21161366
v -1.309133 1.9292939 -0.211627
v 1.0685258 1.9292939 0.21161366
v 1.0685258 1.9292939 -0.211627
v 1.3091302 1.9292939 -0.211627
v 1.0685258 1.9292939 0.21161366
v 1.3091302 1.9292939 -0.211627
v 1.3091302 1.9292939 0.21161366
v 1.0685258 1.9292939 -0.211627
v -1.0685306 1.9292939 -0.211627
v -1.0685306 1.7121181 -0.211627
v 1.0685258 1.9292939 -0.211627
v -1.0685306 1.7121181 -0.211627
v 1.0685258 1.7121181 -0.211627
v -1.0685306 1.7121181 -0.211627
v -1.0685306 1.9292939 -0.211627
v -1.309133 1.9292939 -0.211627
v -1.309133 1.7121181 -0.211627
v 1.0685258 1.9292939 -0.211627
v 1.0685258 1.7121181 -0.211627
v 1.3091302 1.7121181 -0.211627
v 1.0685258 1.9292939 -0.211627
v 1.3091302 1.7121181 -0.211627
v 1.3091302 1.9292939 -0.211627
v -1.0685306 1.7121181 -0.211627
v -1.309133 1.7121181 -0.211627
v -1.309133 -1.9292934 -0.211627
v -1.0685306 1.7121181 -0.211627
v -1.309133 -1.9292934 -0.211627
v -1.0685306 -1.9292934 -0.211627
v 1.3091302 1.7121181 -0.211627
v 1.0685258 1.7121181 -0.211627
v 1.0685258 -1.9292934 -0.211627
v 1.3091302 1.7121181 -0.211627
v 1.0685258 -1.9292934 -0.211627
v 1.3091302 -1.9292934 -0.211627
v 1.0685258 1.7121181 -0.211627
v -1.0685306 1.7121181 -0.211627
v -1.0685306 1.7121181 0.21161366
v 1.0685258 1.7121181 -0.211627
v -1.0685306 1.7121181 0.21161366
v 1.0685258 1.7121181 0.21161366
v -1.309133 1.7121181 0.21161366
v -1.309133 1.7121181 -0.211627
v -1.309133 1.9292939 -0.211627
v -1.309133 1.9292939 0.21161366
v -1.309133 1.7121181 -0.211627
v -1.309133 1.7121181 0.21161366
v -1.309133 -1.9292934 0.21161366
v -1.309133 1.7121181 -0.211627
v -1.309133 -1.9292934 0.21161366
v -1.309133 -1.9292934 -0.211627
v 1.3091302 1.7121181 -0.211627
v 1.3091302 1.7121181 0.21161366
v 1.3091302 1.9292939 0.21161366
v 1.3091302 1.7121181 -0.211627
v 1.3091302 1.9292939 0.21161366
v 1.3091302 1.9292939 -0.211627
v 1.3091302 1.7121181 0.21161366
v 1.3091302 1.7121181 -0.211627
v 1.3091302 -1.9292934 -0.211627
v 1.3091302 1.7121181 0.21161366
v 1.3091302 -1.9292934 -0.211627
v 1.3091302 -1.9292934 0.21161366
v -1.0685306 -1.9292934 0.21161366
v -1.0685306 -1.9292934 -0.211627
v -1.309133 -1.9292934 -0.211627
v -1.0685306 -1.9292934 0.21161366
v -1.309133 -1.9292934 -0.211627
v -1.309133 -1.9292934 0.21161366
v 1.0685258 -1.9292934 -0.211627
v 1.0685258 -1.9292934 0.21161366
v 1.3091302 -1.9292934 0.21161366
v 1.0685258 -1.9292934 -0.211627
v 1.3091302 -1.9292934 0.21161366
v 1.3091302 -1.9292934 -0.211627
v -1.0685306 1.7121181 0.21161366
v -1.0685306 1.7121181 -0.211627
v -1.0685306 -1.9292934 -0.211627
v -1.0685306 1.7121181 0.21161366
v -1.0685306 -1.9292934 -0.211627
v -1.0685306 -1.9292934 0.21161366
v 1.0685258 1.7121181 -0.211627
v 1.0685258 1.7121181 0.21161366
v 1.0685258 -1.9292934 0.21161366
v 1.0685258 1.7121181 -0.211627
v 1.0685258 -1.9292934 0.21161366
v 1.0685258 -1.9292934 -0.211627
vt 0.29552945 0.06182234
vt 0.29552945 0.06182234
vt 0.29552945 0.06182231
vt 0.29552945 0.06182234
vt 0.29552945 0.06182231
vt 0.29552945 0.06182231
vt 0.29552945 0.06182231
vt 0.29552945 0.06182234
vt 0.29552945 0.06182234
vt 0.29552945 0.06182231
vt 0.29552945 0.06182234
vt 0.29552945 0.06182231
vt 0.29552945 0.06182234
vt 0.29552945 0.06182231
vt 0.29552945 0.06182231
vt 0.29552945 0.06182234
vt 0.29552945 0.06182231
vt 0.29552945 0.06182234
vt 0.29552945 0.06182234
vt 0.29552945 0.06182234
vt 0.29552945 0.06182234
vt 0.29552945 0.06182234
vt 0.29552945 0.06182234
vt 0.29552945 0.06182234
vt 0.29552945 0.06182234
vt 0.29552945 0.06182234
vt 0.29552945 0.06182234
vt 0.29552945 0.06182234
vt 0.29552945 0.06182234
vt 0.29552945 0.06182234
vt 0.29552945 0.06182231
vt 0.29552945 0.06182231
vt 0.29552945 0.06182237
vt 0.29552945 0.06182231
vt 0.29552945 0.06182237
vt 0.29552945 0.06182237
vt 0.29552945 0.06182237
vt 0.29552945 0.06182231
vt 0.29552945 0.06182231
vt 0.29552945 0.06182237
vt 0.29552945 0.06182231
vt 0.29552943 0.06182231
vt 0.29552945 0.06182231
vt 0.29552945 0.06182237
vt 0.29552945 0.06182231
vt 0.29552945 0.06182231
vt 0.29552945 0.06182231
vt 0.29552945 0.06182231
vt 0.29552945 0.06182237
vt 0.29552945 0.06182237
vt 0.29552945 0.06182234
vt 0.29552945 0.06182237
vt 0.29552945 0.06182234
vt 0.29552945 0.06182234
vt 0.29552945 0.06182234
vt 0.29552945 0.06182237
vt 0.29552943 0.06182231
vt 0.29552943 0.06182234
vt 0.29552945 0.06182237
vt 0.29552945 0.06182234
vt 0.29552945 0.06182234
vt 0.29552945 0.06182237
vt 0.29552945 0.06182234
vt 0.29552945 0.06182231
vt 0.29552945 0.06182234
vt 0.29552943 0.06182234
vt 0.29552943 0.06182234
vt 0.29552945 0.06182234
vt 0.29552943 0.06182234
vt 0.29552943 0.06182234
vt 0.29552945 0.06182234
vt 0.29552945 0.06182234
vt 0.29552945 0.06182234
vt 0.29552945 0.06182234
vt 0.29552945 0.06182234
vt 0.29552945 0.06182234
vt 0.29552945 0.06182234
vt 0.29552945 0.06182234
vt 0.29552945 0.06182237
vt 0.29552945 0.06182234
vt 0.29552945 0.06182237
vt 0.29552945 0.06182237
vt 0.29552945 0.06182234
vt 0.29552943 0.06182234
vt 0.29552943 0.06182231
vt 0.29552945 0.06182231
vt 0.29552943 0.06182234
vt 0.29552945 0.06182234
vt 0.29552945 0.06182234
vt 0.29552943 0.06182234
vt 0.29552945 0.06182234
vt 0.29552943 0.06182234
vt 0.29552945 0.06182234
vt 0.29552945 0.06182234
vt 0.29552945 0.06182231
vt 0.29552945 0.06182234
vt 0.29552945 0.06182231
vt 0.29552945 0.06182231
vt 0.29552945 0.06182234
vt 0.29552945 0.06182234
vt 0.29552945 0.06182234
vt 0.29552945 0.06182234
vt 0.29552945 0.06182234
vt 0.29552945 0.06182234
vt 0.29552945 0.06182234
vt 0.29552943 0.06182234
vt 0.29552943 0.06182234
vt 0.29552945 0.06182234
vt 0.29552943 0.06182234
vt 0.29552945 0.06182234
vt 0.29552945 0.06182234
vt 0.29552945 0.06182234
vt 0.29552945 0.06182234
vt 0.29552945 0.06182234
vt 0.29552945 0.06182234
vt 0.29552945 0.06182234
vt 0.29552945 0.06182234
vt 0.29552943 0.06182234
vt 0.29552943 0.06182234
vt 0.29552945 0.06182234
vt 0.29552943 0.06182234
vt 0.29552945 0.06182234
vt 0.29552945 0.06182234
vt 0.29552945 0.06182234
vt 0.29552945 0.06182234
vt 0.29552945 0.06182234
vt 0.29552945 0.06182234
vt 0.29552945 0.06182234
vn -0 0 1
vn -0 0 0.99999994
vn -0 0 0.99999994
vn -0 0 1
vn -0 0 0.99999994
vn -0 0 1
vn -0 0 0.99999994
vn -0 0 0.99999994
vn -0 0 0.99999994
vn -0 0 0.99999994
vn -0 0 0.99999994
vn -0 0 0.99999994
vn -0 0 1
vn -0 0 1
vn -0 0 1
vn -0 0 1
vn -0 0 1
vn -0 0 1
vn -0 0 0.99999994
vn -0 0 0.99999994
vn -0 0 0.99999994
vn -0 0 0.99999994
vn -0 0 0.99999994
vn -0 0 0.99999994
vn -0 0 1
vn -0 0 1
vn -0 0 1
vn -0 0 1
vn -0 0 1
vn -0 0 1
vn -0 1 0
vn -0 1 0
vn -0 1 0
vn -0 1 0
vn -0 1 0
vn -0 1 0
vn -0 1 0
vn -0 1 0
vn -0 0.99999994 0
vn -0 1 0
vn -0 0.99999994 0
vn -0 0.99999994 0
vn -0 1 0
vn -0 1 0
vn -0 0.99999994 0
vn -0 1 0
vn -0 0.99999994 0
vn -0 0.99999994 0
vn -0 0 -1
vn -0 0 -0.99999994
vn -0 0 -0.99999994
vn -0 0 -1
vn -0 0 -0.99999994
vn -0 0 -1
vn -0 0 -0.99999994
vn -0 0 -0.99999994
vn -0 0 -0.99999994
vn -0 0 -0.99999994
vn -0 0 -1
vn -0 0 -1
vn -0 0 -1
vn -0 0 -1
vn -0 0 -1
vn -0 0 -1
vn -0 0 -0.99999994
vn -0 0 -0.99999994
vn -0 0 -0.99999994
vn -0 0 -0.99999994
vn -0 0 -0.99999994
vn -0 0 -0.99999994
vn -0 0 -1
vn -0 0 -1
vn -0 0 -1
vn -0 0 -1
vn -0 0 -1
vn -0 0 -1
vn -0 -1 0
vn -0 -1 0
vn -0 -1 0
vn -0 -1 0
vn -0 -1 0
vn -0 -1 0
vn -1 0 0
vn -1 0 0
vn -1 0 0
vn -1 0 0
vn -1 0 0
vn -1 0 0
vn -1 0 0
vn -1 0 0
vn -1 0 0
vn -1 0 0
vn 1 0 0
vn 1 0 0
vn 1 0 0
vn 1 0 0
vn 1 0 0
vn 1 0 0
vn 1 0 0
vn 1 0 0
vn 1 0 0
vn 1 0 0
vn 1 0 0
vn 1 0 0
vn -0 -0.99999994 0
vn -0 -0.99999994 0
vn -0 -0.99999994 0
vn -0 -0.99999994 0
vn -0 -0.99999994 0
vn -0 -0.99999994 0
vn -0 -0.99999994 0
vn -0 -0.99999994 0
vn -0 -0.99999994 0
vn -0 -0.99999994 0
vn -0 -0.99999994 0
vn -0 -0.99999994 0
vn 1 0 0
vn 1 0 0
vn 1 0 0
vn 1 0 0
vn 1 0 0
vn 1 0 0
vn -1 0 0
vn -1 0 0
vn -1 0 0
vn -1 0 0
vn -1 0 0
vn -1 0 0
g pb_Mesh492854_0
f 3/3/3 2/2/2 1/1/1
f 6/6/6 5/5/5 4/4/4
f 9/9/9 8/8/8 7/7/7
f 12/12/12 11/11/11 10/10/10
f 15/15/15 14/14/14 13/13/13
f 18/18/18 17/17/17 16/16/16
f 21/21/21 20/20/20 19/19/19
f 24/24/24 23/23/23 22/22/22
f 27/27/27 26/26/26 25/25/25
f 30/30/30 29/29/29 28/28/28
f 33/33/33 32/32/32 31/31/31
f 36/36/36 35/35/35 34/34/34
f 39/39/39 38/38/38 37/37/37
f 42/42/42 41/41/41 40/40/40
f 45/45/45 44/44/44 43/43/43
f 48/48/48 47/47/47 46/46/46
f 51/51/51 50/50/50 49/49/49
f 54/54/54 53/53/53 52/52/52
f 57/57/57 56/56/56 55/55/55
f 58/58/58 57/57/57 55/55/55
f 61/61/61 60/60/60 59/59/59
f 64/64/64 63/63/63 62/62/62
f 67/67/67 66/66/66 65/65/65
f 70/70/70 69/69/69 68/68/68
f 73/73/73 72/72/72 71/71/71
f 76/76/76 75/75/75 74/74/74
f 79/79/79 78/78/78 77/77/77
f 82/82/82 81/81/81 80/80/80
f 85/85/85 84/84/84 83/83/83
f 86/86/86 85/85/85 83/83/83
f 89/89/89 88/88/88 87/87/87
f 92/92/92 91/91/91 90/90/90
f 95/95/95 94/94/94 93/93/93
f 98/98/98 97/97/97 96/96/96
f 101/101/101 100/100/100 99/99/99
f 104/104/104 103/103/103 102/102/102
f 107/107/107 106/106/106 105/105/105
f 110/110/110 109/109/109 108/108/108
f 113/113/113 112/112/112 111/111/111
f 116/116/116 115/115/115 114/114/114
f 119/119/119 118/118/118 117/117/117
f 122/122/122 121/121/121 120/120/120
f 125/125/125 124/124/124 123/123/123
f 128/128/128 127/127/127 126/126/126
