g pb_Mesh362830
v -17.701744 -50.79148 10.368284
v -4.960427 19.70489 12.368543
v -15.003044 -50.791473 31.629782
v -1.3299248 17.206106 34.35913
v -15.003044 -50.791473 31.629782
v -1.3299248 17.206106 34.35913
v -8.041129 -50.791473 38.401237
v 6.289942 15.207189 41.779785
v -8.041129 -50.791473 38.401237
v 6.289942 15.207189 41.779785
v 13.616195 -50.791473 41.18236
v 27.936474 15.207228 44.734253
v 13.616195 -50.791473 41.18236
v 27.936474 15.207228 44.734253
v 10.141189 -50.791473 26.081205
v 24.438354 17.20682 29.732967
v 10.141189 -50.791473 26.081205
v 24.438354 17.20682 29.732967
v 3.190025 -50.79148 15.15737
v 18.185925 19.206926 18.237108
v 3.190025 -50.79148 15.15737
v 18.185925 19.206926 18.237108
v 0.06617433 -50.79148 -6.1676364
v 15.187132 19.70691 -3.2620814
v 0.06617433 -50.79148 -6.1676364
v 15.187132 19.70691 -3.2620814
v 6.865021 -50.79148 -19.87041
v 19.842089 19.706573 -16.649796
v 6.865021 -50.79148 -19.87041
v 19.842089 19.706573 -16.649796
v -1.6088276 -50.79148 -20.344254
v 13.935399 19.707045 -20.7747
v -1.6088276 -50.79148 -20.344254
v 13.935399 19.707045 -20.7747
v -10.841124 -50.79148 -21.770496
v 3.2945511 19.705864 -22.279736
v -10.841124 -50.79148 -21.770496
v 3.2945511 19.705864 -22.279736
v -19.141115 -50.79148 -20.531954
v -5.7026443 19.705309 -20.704977
v -19.141115 -50.79148 -20.531954
v -5.7026443 19.705309 -20.704977
v -19.628027 -50.79148 -2.0277212
v -6.6999297 19.704935 -1.2822095
v -19.628027 -50.79148 -2.0277212
v -6.6999297 19.704935 -1.2822095
v -17.701744 -50.79148 10.368284
v -4.960427 19.70489 12.368543
v -15.003044 -50.791473 31.629782
v -7.4588223 -50.791473 8.507367
v -17.701744 -50.79148 10.368284
v -8.041129 -50.791473 38.401237
v 13.616195 -50.791473 41.18236
v -7.4588223 -50.791473 8.507367
v -8.041129 -50.791473 38.401237
v 10.141189 -50.791473 26.081205
v 3.190025 -50.79148 15.15737
v 0.06617433 -50.79148 -6.1676364
v 3.190025 -50.79148 15.15737
v 6.865021 -50.79148 -19.87041
v -7.4588223 -50.791473 8.507367
v 0.06617433 -50.79148 -6.1676364
v -1.6088276 -50.79148 -20.344254
v 6.865021 -50.79148 -19.87041
v -10.841124 -50.79148 -21.770496
v -19.141115 -50.79148 -20.531954
v -19.628027 -50.79148 -2.0277212
v -19.141115 -50.79148 -20.531954
v -17.701744 -50.79148 10.368284
v -19.628027 -50.79148 -2.0277212
v -4.610905 19.99999 12.3292265
v 6.749998 19.999994 10.5
v -1.1757444 17.529629 34.08794
v -1.1757444 17.529629 34.08794
v 6.749998 19.999994 10.5
v 6.357283 15.542686 41.497852
v 6.357283 15.542686 41.497852
v 6.749998 19.999994 10.5
v 27.842813 15.533287 44.496662
v 27.842813 15.533287 44.496662
v 6.749998 19.999994 10.5
v 24.297544 17.528511 29.529167
v 24.297544 17.528511 29.529167
v 6.749998 19.999994 10.5
v 18.000101 19.51081 18.082441
v 18.000101 19.51081 18.082441
v 6.749998 19.999994 10.5
v 14.973323 20 -2.994821
v 14.973323 20 -2.994821
v 6.749998 19.999994 10.5
v 19.366697 20.000002 -16.369225
v 19.366697 20.000002 -16.369225
v 6.749998 19.999994 10.5
v 13.938721 20.000002 -20.482813
v 13.938721 20.000002 -20.482813
v 6.749998 19.999994 10.5
v 3.3815126 20.000002 -21.983168
v 3.3815126 20.000002 -21.983168
v 6.749998 19.999994 10.5
v -5.5454845 20.000002 -20.423206
v -5.5454845 20.000002 -20.423206
v 6.749998 19.999994 10.5
v -6.420528 19.999998 -1.0809883
v -6.420528 19.999998 -1.0809883
v 6.749998 19.999994 10.5
v -4.610905 19.99999 12.3292265
v 14.973323 20 -2.994821
v 19.842089 19.706573 -16.649796
v 15.187132 19.70691 -3.2620814
v 19.366697 20.000002 -16.369225
v 19.366697 20.000002 -16.369225
v 13.935399 19.707045 -20.7747
v 19.842089 19.706573 -16.649796
v 13.938721 20.000002 -20.482813
v 13.938721 20.000002 -20.482813
v 3.2945511 19.705864 -22.279736
v 13.935399 19.707045 -20.7747
v 3.3815126 20.000002 -21.983168
v 3.3815126 20.000002 -21.983168
v -5.7026443 19.705309 -20.704977
v 3.2945511 19.705864 -22.279736
v -5.5454845 20.000002 -20.423206
v -5.5454845 20.000002 -20.423206
v -6.6999297 19.704935 -1.2822095
v -5.7026443 19.705309 -20.704977
v -6.420528 19.999998 -1.0809883
v -6.420528 19.999998 -1.0809883
v -4.960427 19.70489 12.368543
v -6.6999297 19.704935 -1.2822095
v -4.610905 19.99999 12.3292265
v -4.610905 19.99999 12.3292265
v -1.3299248 17.206106 34.35913
v -4.960427 19.70489 12.368543
v -1.1757444 17.529629 34.08794
v -1.1757444 17.529629 34.08794
v 6.289942 15.207189 41.779785
v -1.3299248 17.206106 34.35913
v 6.357283 15.542686 41.497852
v 6.357283 15.542686 41.497852
v 27.936474 15.207228 44.734253
v 6.289942 15.207189 41.779785
v 27.842813 15.533287 44.496662
v 27.842813 15.533287 44.496662
v 24.438354 17.20682 29.732967
v 27.936474 15.207228 44.734253
v 24.297544 17.528511 29.529167
v 24.297544 17.528511 29.529167
v 18.185925 19.206926 18.237108
v 24.438354 17.20682 29.732967
v 18.000101 19.51081 18.082441
v 18.000101 19.51081 18.082441
v 15.187132 19.70691 -3.2620814
v 18.185925 19.206926 18.237108
v 18.000101 19.51081 18.082441
v 14.973323 20 -2.994821
v 15.187132 19.70691 -3.2620814
vt 8.056779 -53.290264
vt 11.645487 18.286282
vt 29.488865 -53.290257
vt 33.918186 15.969259
vt 11.2984915 -54.148438
vt 23.002981 14.2699795
vt 21.010386 -54.148438
vt 33.639168 12.28262
vt -3.0845087 -49.87398
vt 11.560164 16.142315
vt 18.750654 -49.87398
vt 33.406704 16.14636
vt -43.186966 -49.02224
vt -49.859776 18.275522
vt -27.691141 -49.02224
vt -34.456097 20.227728
vt -27.448397 -51.040375
vt -38.204803 17.70417
vt -14.500467 -51.040382
vt -25.14939 19.814306
vt -15.459678 -49.55771
vt -20.680412 21.90475
vt 6.092917 -49.55771
vt 1.0263997 22.424492
vt 5.7590184 -50.124252
vt 8.622974 21.979193
vt 24.230751 -50.124252
vt 27.5171 21.876307
vt -5.5510736 -51.284485
vt -20.480198 19.229565
vt 2.936012 -51.284485
vt -12.559887 19.170193
vt 5.226096 -49.82763
vt -10.070183 20.726425
vt 14.567908 -49.82763
vt 0.6756973 20.719803
vt 6.9968762 -51.374924
vt -7.059156 19.14018
vt 15.388768 -51.374924
vt 2.0719273 19.144777
vt -23.574295 -53.57503
vt -24.044949 18.189852
vt -1.592447 -53.57503
vt -1.1334862 18.09779
vt -5.0176067 -53.364986
vt -2.2957942 18.259228
vt 7.5271735 -53.364986
vt 11.460171 18.1925
vt -15.003084 31.629768
vt -7.4588623 8.507354
vt -17.701784 10.368271
vt -8.041129 38.401237
vt 13.616195 41.18236
vt -7.4588223 8.507367
vt -8.041129 38.401237
vt 10.141189 26.081205
vt 3.1901221 15.157272
vt 0.06621438 -6.167642
vt 3.1900651 15.157364
vt 6.866611 -19.869621
vt -7.4572325 8.508156
vt 0.06776402 -6.1668477
vt -1.6088269 -20.344267
vt 6.865022 -19.870424
vt -10.841122 -21.77051
vt -19.141117 -20.531967
vt -19.628057 -2.027722
vt -19.141146 -20.531954
vt -17.70178 10.36829
vt -19.628063 -2.0277154
vt 4.9666514 10.063157
vt -6.3924475 8.222755
vt 1.4880046 31.954792
vt 3.2698038 31.273638
vt -4.3024197 7.4414635
vt -4.4471602 38.760273
vt -6.660606 38.88705
vt -7.1405816 7.571588
vt -28.141827 41.916588
vt -27.920101 42.04785
vt -6.8498735 7.745126
vt -24.384848 26.945608
vt -26.161158 25.393322
vt -9.017021 5.8430676
vt -20.135126 13.633143
vt -17.393047 17.69892
vt -6.133233 10.115115
vt -14.471559 -3.3821356
vt -15.092283 -2.9948113
vt -6.750031 10.500012
vt -21.619772 -20.729126
vt -21.619741 -20.729141
vt -6.7499995 10.499997
vt -13.938725 -23.95504
vt -13.9387245 -23.95504
vt -6.7499986 10.499997
vt -3.3815172 -25.455395
vt -3.3815162 -25.455395
vt -6.7499976 10.499997
vt 5.5454817 -23.895433
vt 5.5454855 -23.895432
vt -6.749994 10.499998
vt 6.420532 -1.0809901
vt 6.420523 -1.0810001
vt -6.750003 10.499989
vt 4.6109004 12.329215
vt 7.7460847 13.858992
vt 22.24264 13.5440855
vt 8.068738 13.544446
vt 21.821508 13.947046
vt -12.020634 -4.5190444
vt -6.9628954 -9.357674
vt -12.564561 -4.827202
vt -6.873098 -8.976586
vt -10.935234 -1.3517873
vt -0.14434277 -1.7646444
vt -10.891099 -1.7629873
vt -0.27194983 -1.3575644
vt -6.595699 -3.0229578
vt 2.415039 -1.2767819
vt -6.461964 -3.4281085
vt 2.211954 -0.889884
vt -20.112045 13.977647
vt -0.9370348 13.636301
vt -20.38539 13.636734
vt -0.7504024 14.036836
vt -1.8839339 11.170365
vt 11.642278 10.782455
vt -2.11886 10.782516
vt 11.64746 11.235212
vt -9.075983 8.62857
vt -9.850764 31.06263
vt -8.618607 8.668607
vt -10.174792 30.767391
vt -7.7651606 17.865389
vt -13.062644 27.469105
vt -7.469636 18.203987
vt -13.289015 27.089647
vt 11.910829 -14.459388
vt 33.729458 -14.901787
vt 11.882233 -14.901838
vt 33.604527 -14.509331
vt -49.369804 13.163003
vt -34.220154 14.849984
vt -49.621807 12.834324
vt -33.991234 15.181037
vt -37.443474 16.73704
vt -24.604536 18.422646
vt -37.68939 16.413969
vt -24.381168 18.73377
vt -20.202528 9.71651
vt 1.3262924 9.939619
vt -20.379335 9.370769
vt -20.202528 9.71651
vt 1.0880418 10.314422
vt 1.3262924 9.939619
vn -0.9770695 0.17307395 0.12401836
vn -0.9717344 0.18012387 0.15260287
vn -0.9717344 0.18012387 0.15260287
vn -0.96562135 0.18691812 0.1806572
vn -0.69294477 0.11074264 0.712435
vn -0.6853854 0.110431865 0.719758
vn -0.6853854 0.110431865 0.719758
vn -0.678456 0.110139094 0.726338
vn -0.12733503 -0.023110894 0.99159044
vn -0.13126677 -0.023542607 0.9910674
vn -0.13126677 -0.023542607 0.9910674
vn -0.13519418 -0.0239737 0.9905291
vn 0.9557191 -0.19553433 -0.21992554
vn 0.95339143 -0.19105859 -0.23354109
vn 0.95339143 -0.19105859 -0.23354109
vn 0.95095384 -0.18670005 -0.24663712
vn 0.83451605 -0.14694528 -0.5310274
vn 0.8452439 -0.15446861 -0.5115684
vn 0.8452439 -0.15446861 -0.5115684
vn 0.85488814 -0.16145149 -0.49305132
vn 0.9691697 -0.20138083 -0.14197142
vn 0.96924233 -0.20176284 -0.14092976
vn 0.96924233 -0.20176284 -0.14092976
vn 0.96931255 -0.20213845 -0.1399045
vn 0.8765945 -0.20594342 0.43493614
vn 0.9030904 -0.19655953 0.38182724
vn 0.9030904 -0.19655953 0.38182724
vn 0.92812234 -0.18558882 0.32271618
vn 0.055796195 0.035313252 -0.9978175
vn 0.30431452 -0.042726457 -0.95161283
vn 0.30431452 -0.042726457 -0.95161283
vn 0.5676757 -0.13013025 -0.8129025
vn 0.15255289 -0.039665826 -0.98749906
vn 0.14582139 -0.037284393 -0.9886081
vn 0.14582139 -0.037284393 -0.9886081
vn 0.13996252 -0.035212286 -0.98953044
vn -0.14755082 0.022443326 -0.98879975
vn -0.16047949 0.026610399 -0.9866804
vn -0.16047949 0.026610399 -0.9866804
vn -0.17232877 0.030433754 -0.9845692
vn -0.98199534 0.18712975 -0.025839772
vn -0.9822055 0.18383434 -0.038434837
vn -0.9822055 0.18383434 -0.038434837
vn -0.9822509 0.18066499 -0.050431382
vn -0.9725812 0.17676006 0.1511347
vn -0.97498894 0.17483605 0.13721895
vn -0.97498894 0.17483605 0.13721895
vn -0.97701246 0.17304993 0.12450039
vn 7.917796E-07 -0.99999994 2.583364E-07
vn 7.917796E-07 -0.99999994 2.583364E-07
vn 7.917796E-07 -0.99999994 2.583364E-07
vn -0 -0.99999994 0
vn -0 -1 0
vn -0 -1 0
vn -0 -1 0
vn -0 -1 0
vn -1.9126362E-06 -1 1.9154847E-06
vn -7.8859193E-07 -0.99999994 1.1551901E-07
vn -7.8859193E-07 -0.99999994 1.1551901E-07
vn -3.129845E-05 -1 -1.5529218E-05
vn -3.129845E-05 -1 -1.5529218E-05
vn -3.129845E-05 -1 -1.5529218E-05
vn -1.4620996E-08 -1 2.61471E-07
vn -1.4620996E-08 -1 2.61471E-07
vn -3.961036E-08 -1 2.5640412E-07
vn 3.6984382E-08 -1 2.4784782E-07
vn 6.12979E-07 -0.99999994 1.6129645E-08
vn 6.12979E-07 -0.99999994 1.6129645E-08
vn 7.2439445E-07 -1 -1.125676E-07
vn 7.2439445E-07 -1 -1.125676E-07
vn 0.017715706 0.99377036 0.11003022
vn 0.017715706 0.99377036 0.11003022
vn 0.017715706 0.99377036 0.11003022
vn 0.11871316 0.9826068 0.14279704
vn 0.11871316 0.9826068 0.14279704
vn 0.11871316 0.9826068 0.14279704
vn -0.019395215 0.98966765 0.14206263
vn -0.019395215 0.98966765 0.14206263
vn -0.019395215 0.98966765 0.14206263
vn -0.0049535166 0.9910652 0.13328607
vn -0.0049535166 0.9910652 0.13328607
vn -0.0049535166 0.9910652 0.13328607
vn -0.112532966 0.96681917 0.22934027
vn -0.112532966 0.96681917 0.22934027
vn -0.112532966 0.96681917 0.22934027
vn 0.030802969 0.9993491 0.018770795
vn 0.030802969 0.9993491 0.018770795
vn 0.030802969 0.9993491 0.018770795
vn -1.001881E-06 1 -1.864973E-07
vn -1.001881E-06 1 -1.864973E-07
vn -1.001881E-06 1 -1.864973E-07
vn -1.5871007E-07 1 2.0942166E-07
vn -1.5871007E-07 1 2.0942166E-07
vn -1.5871007E-07 1 2.0942166E-07
vn -3.3878532E-08 1 2.3838541E-07
vn -3.3878532E-08 1 2.3838541E-07
vn -3.3878532E-08 1 2.3838541E-07
vn 4.0312585E-08 0.99999994 2.3069182E-07
vn 4.0312585E-08 0.99999994 2.3069182E-07
vn 4.0312585E-08 0.99999994 2.3069182E-07
vn 1.1177373E-07 1 2.0227793E-07
vn 1.1177373E-07 1 2.0227793E-07
vn 1.1177373E-07 1 2.0227793E-07
vn -2.3897888E-07 1 6.0117276E-07
vn -2.3897888E-07 1 6.0117276E-07
vn -2.3897888E-07 1 6.0117276E-07
vn 0.7346856 0.6312995 0.24839096
vn 0.7346856 0.6312995 0.24839096
vn 0.88010883 0.36299813 0.30600795
vn 0.59616596 0.7786106 0.19583544
vn 0.36498433 0.7840121 -0.50210714
vn 0.36498433 0.7840121 -0.50210714
vn 0.28887108 0.86343944 -0.4135526
vn 0.47458404 0.61855674 -0.6262248
vn 0.100679114 0.6965616 -0.71039826
vn 0.100679114 0.6965616 -0.71039826
vn 0.09969843 0.7017278 -0.7054348
vn 0.10167212 0.69126445 -0.7154133
vn -0.119489595 0.72047526 -0.68310875
vn -0.119489595 0.72047526 -0.68310875
vn -0.11929283 0.7222082 -0.6813109
vn -0.1196878 0.71871823 -0.6849226
vn -0.78801113 0.6144837 -0.038054544
vn -0.78801113 0.6144837 -0.038054544
vn -0.86328673 0.50276446 -0.044316817
vn -0.7146342 0.69875085 -0.032329965
vn -0.69379693 0.7143989 0.090994924
vn -0.69379693 0.7143989 0.090994924
vn -0.754664 0.64902526 0.096168324
vn -0.6370647 0.7660013 0.08596825
vn -0.7117585 0.67575806 0.19170561
vn -0.7117585 0.67575806 0.19170561
vn -0.62099856 0.7606937 0.18896016
vn -0.8143963 0.5480473 0.19079523
vn -0.428827 0.66098785 0.6157941
vn -0.428827 0.66098785 0.6157941
vn -0.40127873 0.6931483 0.5987662
vn -0.458148 0.62395567 0.6330718
vn -0.10807193 0.6113416 0.78395265
vn -0.10807193 0.6113416 0.78395265
vn -0.10254472 0.65193737 0.75130695
vn -0.113956384 0.5634866 0.8182278
vn 0.9571757 0.2124833 -0.19663562
vn 0.9571757 0.2124833 -0.19663562
vn 0.9696927 0.12601517 -0.20932354
vn 0.93793017 0.2946899 -0.18287922
vn 0.8735261 0.20242466 -0.4426922
vn 0.8735261 0.20242466 -0.4426922
vn 0.8813773 0.09227229 -0.4633142
vn 0.8545096 0.31063583 -0.41631562
vn 0.81756145 0.5666384 -0.10253957
vn 0.81756145 0.5666384 -0.10253957
vn 0.87195826 0.47693962 -0.11053256
vn 0.81756145 0.5666384 -0.10253957
vn 0.7613026 0.64148253 -0.09443767
vn 0.81756145 0.5666384 -0.10253957
g pb_Mesh362830_0
f 3/3/3 2/2/2 1/1/1
f 3/3/3 4/4/4 2/2/2
f 7/7/7 6/6/6 5/5/5
f 7/7/7 8/8/8 6/6/6
f 11/11/11 10/10/10 9/9/9
f 11/11/11 12/12/12 10/10/10
f 15/15/15 14/14/14 13/13/13
f 15/15/15 16/16/16 14/14/14
f 19/19/19 18/18/18 17/17/17
f 19/19/19 20/20/20 18/18/18
f 23/23/23 22/22/22 21/21/21
f 23/23/23 24/24/24 22/22/22
f 27/27/27 26/26/26 25/25/25
f 27/27/27 28/28/28 26/26/26
f 31/31/31 30/30/30 29/29/29
f 31/31/31 32/32/32 30/30/30
f 35/35/35 34/34/34 33/33/33
f 35/35/35 36/36/36 34/34/34
f 39/39/39 38/38/38 37/37/37
f 39/39/39 40/40/40 38/38/38
f 43/43/43 42/42/42 41/41/41
f 43/43/43 44/44/44 42/42/42
f 47/47/47 46/46/46 45/45/45
f 47/47/47 48/48/48 46/46/46
f 51/51/51 50/50/50 49/49/49
f 49/49/49 50/50/50 52/52/52
f 55/55/55 54/54/54 53/53/53
f 53/53/53 54/54/54 56/56/56
f 56/56/56 54/54/54 57/57/57
f 59/59/59 50/50/50 58/58/58
f 62/62/62 61/61/61 60/60/60
f 64/64/64 54/54/54 63/63/63
f 63/63/63 54/54/54 65/65/65
f 65/65/65 54/54/54 66/66/66
f 68/68/68 50/50/50 67/67/67
f 70/70/70 54/54/54 69/69/69
f 73/73/73 72/72/72 71/71/71
f 76/76/76 75/75/75 74/74/74
f 79/79/79 78/78/78 77/77/77
f 82/82/82 81/81/81 80/80/80
f 85/85/85 84/84/84 83/83/83
f 88/88/88 87/87/87 86/86/86
f 91/91/91 90/90/90 89/89/89
f 94/94/94 93/93/93 92/92/92
f 97/97/97 96/96/96 95/95/95
f 100/100/100 99/99/99 98/98/98
f 103/103/103 102/102/102 101/101/101
f 106/106/106 105/105/105 104/104/104
f 109/109/109 108/108/108 107/107/107
f 108/108/108 110/110/110 107/107/107
f 113/113/113 112/112/112 111/111/111
f 112/112/112 114/114/114 111/111/111
f 117/117/117 116/116/116 115/115/115
f 116/116/116 118/118/118 115/115/115
f 121/121/121 120/120/120 119/119/119
f 120/120/120 122/122/122 119/119/119
f 125/125/125 124/124/124 123/123/123
f 124/124/124 126/126/126 123/123/123
f 129/129/129 128/128/128 127/127/127
f 128/128/128 130/130/130 127/127/127
f 133/133/133 132/132/132 131/131/131
f 132/132/132 134/134/134 131/131/131
f 137/137/137 136/136/136 135/135/135
f 136/136/136 138/138/138 135/135/135
f 141/141/141 140/140/140 139/139/139
f 140/140/140 142/142/142 139/139/139
f 145/145/145 144/144/144 143/143/143
f 144/144/144 146/146/146 143/143/143
f 149/149/149 148/148/148 147/147/147
f 148/148/148 150/150/150 147/147/147
f 153/153/153 152/152/152 151/151/151
f 156/156/156 155/155/155 154/154/154
