g pb_Mesh-4558682
v 0 1.0816202 0
v 1.0075088 1.0816202 0
v 1.0075088 -1.5 0
v 0 -1.5 0
v 1.0075088 1.0816202 0
v 0.97912693 1.0816202 -2
v 0.97912693 -1.5 -2
v 1.0075088 -1.5 0
v 0.97912693 1.0816202 -2
v 0.13088179 1.0816202 -2
v 0.13088179 -1.5 -2
v 0.97912693 -1.5 -2
v 0.13088179 1.0816202 -2
v 0 1.0816202 0
v 0 -1.5 0
v 0.13088179 -1.5 -2
v 0.13088179 1.0816202 -2
v 0.97912693 1.0816202 -2
v 1.0075088 1.0816202 0
v 0 1.0816202 0
v 0 -1.5 0
v 1.0075088 -1.5 0
v 0.97912693 -1.5 -2
v 0.13088179 -1.5 -2
vt 0 1.0816202
vt 1.0075088 1.0816202
vt 1.0075088 -1.5
vt 0 -1.5
vt -0.014296029 1.0816202
vt 1.9859054 1.0816202
vt 1.9859054 -1.5
vt -0.014296029 -1.5
vt -0.97912693 1.0816202
vt -0.13088179 1.0816202
vt -0.13088179 -1.5
vt -0.97912693 -1.5
vt -2.004278 1.0816202
vt 0 1.0816202
vt 0 -1.5
vt -2.004278 -1.5
vt -0.13088179 -2
vt -0.97912693 -2
vt -1.0075088 0
vt 0 0
vt 0 0
vt 1.0075088 0
vt 0.97912693 -2
vt 0.13088179 -2
vn -0 0 1
vn -0 0 1
vn -0 0 1
vn -0 0 1
vn 0.9998993 0 -0.014189484
vn 0.9998993 0 -0.014189484
vn 0.9998993 0 -0.014189484
vn 0.9998993 0 -0.014189484
vn -0 0 -1
vn -0 0 -1
vn -0 0 -1
vn -0 0 -1
vn -0.9978656 0 -0.06530122
vn -0.9978656 0 -0.06530122
vn -0.9978656 0 -0.06530122
vn -0.9978656 0 -0.06530122
vn -0 1 0
vn -0 1 0
vn -0 1 0
vn -0 1 0
vn -0 -1 0
vn -0 -1 0
vn -0 -1 0
vn -0 -1 0
g pb_Mesh-4558682_0
f 3/3/3 2/2/2 1/1/1
f 4/4/4 3/3/3 1/1/1
f 7/7/7 6/6/6 5/5/5
f 8/8/8 7/7/7 5/5/5
f 11/11/11 10/10/10 9/9/9
f 12/12/12 11/11/11 9/9/9
f 15/15/15 14/14/14 13/13/13
f 16/16/16 15/15/15 13/13/13
f 19/19/19 18/18/18 17/17/17
f 20/20/20 19/19/19 17/17/17
f 23/23/23 22/22/22 21/21/21
f 24/24/24 23/23/23 21/21/21
