g pb_Mesh414838
v -0.099095084 1.5363878 0.099085584
v -9.76598E-07 1.6525635 -8.843958E-06
v -8.367513E-07 1.5363864 0.14013028
v -7.9398575E-07 1.5363867 -0.14014754
v -9.76598E-07 1.6525635 -8.843958E-06
v -0.09909487 1.5363864 -0.09910372
v -0.099093914 0.0153951645 0.09909468
v 2.3841858E-07 -0.107608795 -3.7252903E-07
v -0.14013982 0.015396118 1.5459955E-07
v 2.3841858E-07 0.015396118 0.14013878
v 0.099093914 0.0151968 0.099094294
v 2.3841858E-07 -0.107608795 -3.7252903E-07
v 2.3841858E-07 0.015396118 0.14013878
v 0.1401403 0.015396118 1.5459955E-07
v 0.099093914 0.015394211 -0.09909198
v 2.3841858E-07 -0.107608795 -3.7252903E-07
v 0.1401403 0.015396118 1.5459955E-07
v 2.3841858E-07 0.015394211 -0.14013983
v -0.099093914 0.015394211 -0.09909198
v 2.3841858E-07 -0.107608795 -3.7252903E-07
v 2.3841858E-07 0.015394211 -0.14013983
v -0.14013982 0.015396118 1.5459955E-07
v -0.14014083 1.5363872 -9.083928E-06
v -9.76598E-07 1.6525635 -8.843958E-06
v -0.099095084 1.5363878 0.099085584
v -0.09909487 1.5363864 -0.09910372
v -8.367513E-07 1.5363864 0.14013028
v -9.76598E-07 1.6525635 -8.843958E-06
v 0.09909265 1.5363884 0.099086665
v 0.1401388 1.536386 -8.178794E-06
v 0.1401388 1.536386 -8.178794E-06
v -9.76598E-07 1.6525635 -8.843958E-06
v 0.099092886 1.5363872 -0.099104226
v -7.9398575E-07 1.5363867 -0.14014754
v -0.14013982 0.015396118 1.5459955E-07
v -0.099093914 0.015394211 -0.09909198
v -0.14014083 1.5363872 -9.083928E-06
v -0.09909487 1.5363864 -0.09910372
v -0.099093914 0.0153951645 0.09909468
v -0.14013982 0.015396118 1.5459955E-07
v -0.099095084 1.5363878 0.099085584
v -0.14014083 1.5363872 -9.083928E-06
v -0.099093914 0.015394211 -0.09909198
v 2.3841858E-07 0.015394211 -0.14013983
v -0.09909487 1.5363864 -0.09910372
v -7.9398575E-07 1.5363867 -0.14014754
v 2.3841858E-07 0.015394211 -0.14013983
v 0.099093914 0.015394211 -0.09909198
v -7.9398575E-07 1.5363867 -0.14014754
v 0.099092886 1.5363872 -0.099104226
v 0.099093914 0.015394211 -0.09909198
v 0.1401403 0.015396118 1.5459955E-07
v 0.099092886 1.5363872 -0.099104226
v 0.1401388 1.536386 -8.178794E-06
v 0.1401403 0.015396118 1.5459955E-07
v 0.099093914 0.0151968 0.099094294
v 0.1401388 1.536386 -8.178794E-06
v 0.09909265 1.5363884 0.099086665
v 0.099093914 0.0151968 0.099094294
v 2.3841858E-07 0.015396118 0.14013878
v 0.09909265 1.5363884 0.099086665
v -8.367513E-07 1.5363864 0.14013028
v 2.3841858E-07 0.015396118 0.14013878
v -0.099093914 0.0153951645 0.09909468
v -8.367513E-07 1.5363864 0.14013028
v -0.099095084 1.5363878 0.099085584
vt -0.41054967 -0.83635986
vt -0.47314554 -0.8963233
vt -0.45517957 -0.8115231
vt -0.4551947 0.9067883
vt -0.4731611 0.9915881
vt -0.41056475 0.9316245
vt 0.021857902 0.09084038
vt 0.0959611 0.04192222
vt 0.0071678385 0.0419225
vt 0.057322033 0.11789876
vt 0.19430065 2.3185608
vt 0.13019252 2.3829584
vt 0.15339425 2.3660328
vt 0.20980492 2.2975
vt 0.07338372 0.0044458956
vt -0.0007189177 0.05336204
vt 0.08807421 0.053362302
vt 0.037919573 -0.02261401
vt 0.0007173121 0.029438194
vt 0.06507895 0.09060685
vt 0.045064874 0.004099585
vt -0.017652243 0.070088014
vt -0.89890504 -0.27400622
vt -0.9855875 -0.2740061
vt -0.9139525 -0.22519737
vt -0.9139522 -0.3164389
vt 0.54790205 -0.811528
vt 0.56586754 -0.8963284
vt 0.5032724 -0.83636415
vt 0.4847856 -0.8774142
vt 0.99414784 0.35749197
vt 1.0808307 0.35749164
vt 1.0091956 0.3086825
vt 1.0455229 0.28209049
vt 0.053629834 1.1431661
vt -0.053626854 1.1431651
vt 0.053621687 1.904665
vt -0.053637337 1.9046645
vt 0.05362999 1.1431653
vt -0.053628586 1.1431658
vt 0.053621136 1.9046651
vt -0.05363751 1.9046648
vt 0.053628497 1.1431656
vt -0.05363071 1.1431656
vt 0.053624883 1.904665
vt -0.053632706 1.9046652
vt 0.053630523 1.1431653
vt -0.053628184 1.1431653
vt 0.053634427 1.904665
vt -0.053622544 1.9046652
vt 0.05362636 1.1431651
vt -0.053630546 1.1431661
vt 0.053638063 1.904665
vt -0.053622276 1.9046644
vt 0.09257006 2.5728035
vt -0.014960567 0.47071886
vt 0.014967771 2.5769136
vt -0.09257372 0.47481835
vt 0.014961 0.47081268
vt -0.09256879 2.5728834
vt 0.09258249 0.4747492
vt -0.014957039 2.5768094
vt 0.053627778 1.1431655
vt -0.05363011 1.143165
vt 0.05362353 1.904664
vt -0.053634677 1.9046648
vn -0.45127934 0.7698616 0.4512872
vn -0.068512596 0.9976502 -1.597887E-06
vn -4.5314105E-06 0.7698548 0.6382192
vn -4.1460958E-06 0.7698547 -0.63821924
vn -0.068512596 0.9976502 -1.597887E-06
vn -0.4512812 0.76985806 -0.45129138
vn -0.4664466 -0.75156415 0.46645346
vn -0.00019047422 -1 -0.00018708316
vn -0.6596652 -0.75155956 7.723689E-08
vn -0.0006984265 -0.75155723 0.6596675
vn 0.4660223 -0.7520903 0.4660294
vn -0.00019047422 -1 -0.00018708316
vn -0.0006984265 -0.75155723 0.6596675
vn 0.65966505 -0.7515594 -0.00069966406
vn 0.4664594 -0.75156015 -0.4664471
vn -0.00019047422 -1 -0.00018708316
vn 0.65966505 -0.7515594 -0.00069966406
vn 6.3334585E-07 -0.75156325 -0.659661
vn -0.46645927 -0.75156105 -0.46644592
vn -0.00019047422 -1 -0.00018708316
vn 6.3334585E-07 -0.75156325 -0.659661
vn -0.6596652 -0.75155956 7.723689E-08
vn -0.63821447 0.7698586 -5.795304E-06
vn -0.068512596 0.9976502 -1.597887E-06
vn -0.45127934 0.7698616 0.4512872
vn -0.4512812 0.76985806 -0.45129138
vn -4.5314105E-06 0.7698548 0.6382192
vn -0.068512596 0.9976502 -1.597887E-06
vn 0.45127818 0.76986414 0.45128396
vn 0.6382185 0.76985526 -2.3890132E-06
vn 0.6382185 0.76985526 -2.3890132E-06
vn -0.068512596 0.9976502 -1.597887E-06
vn 0.45128235 0.76986104 -0.451285
vn -4.1460958E-06 0.7698547 -0.63821924
vn -0.9238776 -2.9399391E-06 -0.3826882
vn -0.9238792 -3.2367634E-06 -0.38268432
vn -0.9238792 -3.2367634E-06 -0.38268432
vn -0.9238808 -3.5335877E-06 -0.38268045
vn -0.9238808 1.5783128E-06 0.38268033
vn -0.9238812 1.6436113E-06 0.38267946
vn -0.9238812 1.6436113E-06 0.38267946
vn -0.92388153 1.70891E-06 0.38267863
vn -0.38269708 -7.3722945E-06 -0.9238739
vn -0.38268113 -6.1557844E-06 -0.92388046
vn -0.38268113 -6.1557844E-06 -0.92388046
vn -0.3826652 -4.9392743E-06 -0.9238871
vn 0.38269863 -4.4196977E-06 -0.92387325
vn 0.38268054 -5.8006062E-06 -0.9238807
vn 0.38268054 -5.8006062E-06 -0.9238807
vn 0.38266242 -7.1815143E-06 -0.9238882
vn 0.9238759 -2.4573349E-06 -0.38269195
vn 0.9238794 -1.8244282E-06 -0.3826837
vn 0.9238794 -1.8244282E-06 -0.3826837
vn 0.9238829 -1.1915215E-06 -0.3826754
vn 0.9238787 3.0018311E-06 0.3826854
vn 0.9238796 2.8451946E-06 0.38268334
vn 0.9238796 2.8451946E-06 0.38268334
vn 0.92388046 2.6885582E-06 0.38268128
vn 0.3826718 4.9522823E-06 0.92388433
vn 0.38266864 5.191022E-06 0.9238856
vn 0.38266864 5.191022E-06 0.9238856
vn 0.3826655 5.429761E-06 0.9238869
vn -0.38266712 4.8887528E-06 0.9238863
vn -0.3826694 5.0601343E-06 0.92388535
vn -0.3826694 5.0601343E-06 0.92388535
vn -0.38267162 5.231516E-06 0.92388445
g pb_Mesh414838_0
f 3/3/3 2/2/2 1/1/1
f 6/6/6 5/5/5 4/4/4
f 9/9/9 8/8/8 7/7/7
f 7/7/7 8/8/8 10/10/10
f 13/13/13 12/12/12 11/11/11
f 11/11/11 12/12/12 14/14/14
f 17/17/17 16/16/16 15/15/15
f 15/15/15 16/16/16 18/18/18
f 21/21/21 20/20/20 19/19/19
f 19/19/19 20/20/20 22/22/22
f 25/25/25 24/24/24 23/23/23
f 23/23/23 24/24/24 26/26/26
f 29/29/29 28/28/28 27/27/27
f 30/30/30 28/28/28 29/29/29
f 33/33/33 32/32/32 31/31/31
f 34/34/34 32/32/32 33/33/33
f 37/37/37 36/36/36 35/35/35
f 37/37/37 38/38/38 36/36/36
f 41/41/41 40/40/40 39/39/39
f 41/41/41 42/42/42 40/40/40
f 45/45/45 44/44/44 43/43/43
f 45/45/45 46/46/46 44/44/44
f 49/49/49 48/48/48 47/47/47
f 49/49/49 50/50/50 48/48/48
f 53/53/53 52/52/52 51/51/51
f 53/53/53 54/54/54 52/52/52
f 57/57/57 56/56/56 55/55/55
f 57/57/57 58/58/58 56/56/56
f 61/61/61 60/60/60 59/59/59
f 61/61/61 62/62/62 60/60/60
f 65/65/65 64/64/64 63/63/63
f 65/65/65 66/66/66 64/64/64
