g pb_Mesh154526
v -0 0 0
v -1.013845 0 -1.3740733E-05
v -0 1 0
v -1.013845 1 -1.3740733E-05
v -1.013845 0 -1.3740733E-05
v -1.013845 0 -1.0000137
v -1.013845 1 -1.3740733E-05
v -1.013845 1 -1.0000137
v -1.013845 0 -1.0000137
v -0 0 -1
v -1.013845 1 -1.0000137
v -0 1 -1
v -0 0 -1
v -0 0 0
v -0 1 -1
v -0 1 0
v -0 1 0
v -1.013845 1 -1.3740733E-05
v -0 1 -1
v -1.013845 1 -1.0000137
v -0 0 -1
v -1.013845 0 -1.0000137
v -0 0 0
v -1.013845 0 -1.3740733E-05
vt 0 0
vt -1.013845 0
vt 0 1
vt -1.013845 1
vt -1.3740733E-05 0
vt -1.0000137 0
vt -1.3740733E-05 1
vt -1.0000137 1
vt 1.0138584 0
vt 1.3521859E-05 0
vt 1.0138584 1
vt 1.3521859E-05 1
vt 1 0
vt 0 0
vt 1 1
vt 0 1
vt 0 0
vt 1.013845 -1.3740733E-05
vt 0 -1
vt 1.013845 -1.0000137
vt 0 -1
vt -1.013845 -1.0000137
vt 0 0
vt -1.013845 -1.3740733E-05
vn -1.3553091E-05 0 1
vn -1.3553091E-05 0 1
vn -1.3553091E-05 0 1
vn -1.3553091E-05 0 1
vn -1 0 0
vn -1 0 0
vn -1 0 0
vn -1 0 0
vn 1.3521859E-05 0 -1
vn 1.3521859E-05 0 -1
vn 1.3521859E-05 0 -1
vn 1.3521859E-05 0 -1
vn 1 0 0
vn 1 0 0
vn 1 0 0
vn 1 0 0
vn -0 1 0
vn -0 1 0
vn -0 1 0
vn -0 1 0
vn -0 -1 0
vn -0 -1 0
vn -0 -1 0
vn -0 -1 0
g pb_Mesh154526_0
f 3/3/3 2/2/2 1/1/1
f 3/3/3 4/4/4 2/2/2
f 7/7/7 6/6/6 5/5/5
f 7/7/7 8/8/8 6/6/6
f 11/11/11 10/10/10 9/9/9
f 11/11/11 12/12/12 10/10/10
f 15/15/15 14/14/14 13/13/13
f 15/15/15 16/16/16 14/14/14
f 19/19/19 18/18/18 17/17/17
f 19/19/19 20/20/20 18/18/18
f 23/23/23 22/22/22 21/21/21
f 23/23/23 24/24/24 22/22/22
