g pb_Mesh196766
v 0.50001234 0 0.50000656
v -1.4999777 0 0.4999951
v 0.5000057 1.084919 0.50000274
v -1.4999843 1.084919 0.4999913
v -1.4999777 0 0.4999951
v -1.4999548 0 -1.5000147
v -1.4999843 1.084919 0.4999913
v -1.4999614 1.084919 -1.5000185
v -1.4999548 0 -1.5000147
v 0.5000352 0 -1.5000032
v -1.4999614 1.084919 -1.5000185
v 0.5000286 1.084919 -1.500007
v 0.5000352 0 -1.5000032
v 0.50001234 0 0.50000656
v 0.5000286 1.084919 -1.500007
v 0.5000057 1.084919 0.50000274
v 0.3522261 1.1699228 0.35218644
v -1.3521659 1.1699228 0.35217765
v 0.35224634 1.1699228 -1.3522254
v -1.3521457 1.1699228 -1.3522342
v 0.5000352 0 -1.5000032
v -1.4999548 0 -1.5000147
v 0.50001234 0 0.50000656
v -1.4999777 0 0.4999951
v 0.5000057 1.084919 0.50000274
v -1.4999843 1.084919 0.4999913
v 0.3522261 1.1699228 0.35218644
v -1.3521659 1.1699228 0.35217765
v 0.5000286 1.084919 -1.500007
v 0.5000057 1.084919 0.50000274
v 0.35224634 1.1699228 -1.3522254
v 0.3522261 1.1699228 0.35218644
v -1.4999843 1.084919 0.4999913
v -1.4999614 1.084919 -1.5000185
v -1.3521659 1.1699228 0.35217765
v -1.3521457 1.1699228 -1.3522342
v -1.4999614 1.084919 -1.5000185
v 0.5000286 1.084919 -1.500007
v -1.3521457 1.1699228 -1.3522342
v 0.35224634 1.1699228 -1.3522254
vt 0.5000152 -1.7580519E-06
vt -1.4999748 -1.7580519E-06
vt 0.5000086 1.0849172
vt -1.4999814 1.0849172
vt 0.5000123 9.064869E-06
vt -1.4999975 9.064869E-06
vt 0.50000846 1.084928
vt -1.5000013 1.084928
vt 1.4999634 5.2741384E-06
vt -0.50002664 5.2741384E-06
vt 1.49997 1.0849242
vt -0.50002 1.0849242
vt 1.500009 -3.0492592E-06
vt -0.50000083 -3.0492592E-06
vt 1.5000128 1.0849159
vt -0.49999702 1.0849159
vt -0.3522261 0.35218644
vt 1.3521659 0.35217765
vt -0.35224634 -1.3522254
vt 1.3521457 -1.3522342
vt 0.5000352 -1.5000032
vt -1.4999548 -1.5000147
vt 0.50001234 0.50000656
vt -1.4999777 0.4999951
vt -0.5000093 -0.107404724
vt 1.4999807 -0.107417926
vt -0.35222995 -0.27791983
vt 1.3521621 -0.27793023
vt 0.10750444 -1.5000138
vt 0.10752428 0.49999595
vt 0.2779898 -1.3522322
vt 0.27800733 0.35217965
vt 0.75946534 0.50000095
vt 0.7594455 -1.5000088
vt 0.5889487 0.35218728
vt 0.58893114 -1.3522246
vt 1.499965 -0.7593333
vt -0.50002503 -0.7593201
vt 1.3521495 -0.588846
vt -0.3522425 -0.5888356
vn -5.722075E-06 3.5160779E-06 1
vn -5.722075E-06 3.5160779E-06 1
vn -5.722075E-06 3.5160779E-06 1
vn -5.722075E-06 3.516078E-06 1
vn -1 -6.043359E-06 -1.1444036E-05
vn -1 -6.043359E-06 -1.1444036E-05
vn -1 -6.043359E-06 -1.1444036E-05
vn -1 -6.043359E-06 -1.1444036E-05
vn 5.722075E-06 -3.516078E-06 -1
vn 5.7220745E-06 -3.5160779E-06 -1
vn 5.7220745E-06 -3.5160779E-06 -1
vn 5.722074E-06 -3.5160776E-06 -1
vn 1 6.0982984E-06 1.1444036E-05
vn 1 6.0982984E-06 1.1444036E-05
vn 1 6.0982984E-06 1.1444036E-05
vn 1 6.0982984E-06 1.1444036E-05
vn -0 1 0
vn -0 1 0
vn -0 1 0
vn -0 1 0
vn -0 -1 0
vn -0 -1 0
vn -0 -1 0
vn -0 -1 0
vn -2.8525403E-06 0.8668811 0.49851507
vn -2.7120104E-06 0.8668803 0.49851638
vn -2.7120104E-06 0.8668803 0.49851638
vn -2.5714803E-06 0.8668796 0.4985177
vn 0.49860346 0.8668302 5.706036E-06
vn 0.49860245 0.8668308 5.8128626E-06
vn 0.49860245 0.8668308 5.8128626E-06
vn 0.49860147 0.86683136 5.9196886E-06
vn -0.4985121 0.8668828 -5.70499E-06
vn -0.49851102 0.8668834 -5.816155E-06
vn -0.49851102 0.8668834 -5.816155E-06
vn -0.49850997 0.866884 -5.9273193E-06
vn 2.8530053E-06 0.86683434 -0.49859634
vn 2.7168114E-06 0.86683357 -0.49859762
vn 2.7168114E-06 0.86683357 -0.49859762
vn 2.5806175E-06 0.86683285 -0.49859893
g pb_Mesh196766_0
f 3/3/3 2/2/2 1/1/1
f 3/3/3 4/4/4 2/2/2
f 7/7/7 6/6/6 5/5/5
f 7/7/7 8/8/8 6/6/6
f 11/11/11 10/10/10 9/9/9
f 11/11/11 12/12/12 10/10/10
f 15/15/15 14/14/14 13/13/13
f 15/15/15 16/16/16 14/14/14
f 19/19/19 18/18/18 17/17/17
f 19/19/19 20/20/20 18/18/18
f 23/23/23 22/22/22 21/21/21
f 23/23/23 24/24/24 22/22/22
f 27/27/27 26/26/26 25/25/25
f 27/27/27 28/28/28 26/26/26
f 31/31/31 30/30/30 29/29/29
f 31/31/31 32/32/32 30/30/30
f 35/35/35 34/34/34 33/33/33
f 35/35/35 36/36/36 34/34/34
f 39/39/39 38/38/38 37/37/37
f 39/39/39 40/40/40 38/38/38
