g pb_Mesh288740
v -2.3655465 3.5390682 0.06285336
v -2.8781164 3.243136 0.06285164
v -1.1127089 1.4441432 0.06284753
v -2.5000045 4.330119 -2.8869802E-06
v -3.6742787 3.6521535 2.0956864E-05
v -2.333595 3.70149 -9.953165E-05
v -3.0656743 3.2788248 -8.466665E-05
v -3.6742787 3.6521535 2.0956864E-05
v -0 0 0
v -3.0656743 3.2788248 -8.466665E-05
v -0.7750138 1.0019579 -9.773181E-05
v -0 0 0
v -2.5000045 4.330119 -2.8869802E-06
v -0.7750138 1.0019579 -9.773181E-05
v -2.333595 3.70149 -9.953165E-05
v -2.333595 3.70149 -9.953165E-05
v -3.0656743 3.2788248 -8.466665E-05
v -2.333595 3.70149 -0.07954667
v -3.0656743 3.2788248 -0.079531804
v -3.0656743 3.2788248 -8.466665E-05
v -0.7750138 1.0019579 -9.773181E-05
v -3.0656743 3.2788248 -0.079531804
v -0.7750138 1.0019579 -0.07954487
v -0.7750138 1.0019579 -9.773181E-05
v -2.333595 3.70149 -9.953165E-05
v -0.7750138 1.0019579 -0.07954487
v -2.333595 3.70149 -0.07954667
v -2.333595 3.70149 -0.07954667
v -3.0656743 3.2788248 -0.079531804
v -2.3655465 3.5390682 -0.0796386
v -2.8781164 3.243136 -0.07964032
v -3.0656743 3.2788248 -0.079531804
v -0.7750138 1.0019579 -0.07954487
v -2.8781164 3.243136 -0.07964032
v -1.1127089 1.4441432 -0.07964443
v -0.7750138 1.0019579 -0.07954487
v -2.333595 3.70149 -0.07954667
v -1.1127089 1.4441432 -0.07964443
v -2.3655465 3.5390682 -0.0796386
v -2.3655465 3.5390682 -0.0796386
v -2.8781164 3.243136 -0.07964032
v -2.3655465 3.5390682 0.06285336
v -2.8781164 3.243136 -0.07964032
v -2.8781164 3.243136 0.06285164
v -2.3655465 3.5390682 0.06285336
v -2.8781164 3.243136 -0.07964032
v -1.1127089 1.4441432 -0.07964443
v -2.8781164 3.243136 0.06285164
v -1.1127089 1.4441432 -0.07964443
v -1.1127089 1.4441432 0.06284753
v -2.8781164 3.243136 0.06285164
v -1.1127089 1.4441432 -0.07964443
v -2.3655465 3.5390682 -0.0796386
v -1.1127089 1.4441432 0.06284753
v -2.3655465 3.5390682 0.06285336
vt 2.3655465 3.5390685
vt 2.8781164 3.2431362
vt 1.1127088 1.4441434
vt 0.601992 0.6441139
vt 0.59683895 0.6284393
vt 0.60834587 0.6407114
vt 0.6051333 0.6309396
vt 0.59683895 0.6284393
vt 0.6577637 0.6326839
vt 0.6051333 0.6309396
vt 0.64311576 0.6335858
vt 0.6577637 0.6326839
vt 0.601992 0.6441139
vt 0.64311576 0.6335858
vt 0.60834587 0.6407114
vt 0.6252086 0.67388254
vt 0.63581014 0.6738056
vt 0.6252022 0.6730107
vt 0.6358038 0.67293376
vt 0.6105559 0.6749648
vt 0.65105224 0.6740349
vt 0.61053586 0.6740932
vt 0.6510322 0.6731633
vt 0.64657307 0.6734326
vt 0.612366 0.67366076
vt 0.64657974 0.67442894
vt 0.6123727 0.6746571
vt 0.6601865 0.6746781
vt 0.6704662 0.6750572
vt 0.6613991 0.6733117
vt 0.6685965 0.6735771
vt 0.6367197 0.67570424
vt 0.67470217 0.6730578
vt 0.63865995 0.6743176
vt 0.66827595 0.6726215
vt 0.67095035 0.6727321
vt 0.63552076 0.6748481
vt 0.6646301 0.67397356
vt 0.636864 0.6760862
vt 0.60932267 0.6391679
vt 0.60707355 0.63232577
vt 0.6093229 0.6391679
vt 0.60707355 0.63232577
vt 0.60707355 0.63232577
vt 0.6093229 0.6391679
vt 0.60707355 0.63232577
vt 0.63668954 0.63402236
vt 0.60707355 0.63232577
vt 0.63668954 0.63402236
vt 0.6366898 0.63402236
vt 0.60707355 0.63232577
vt 0.63668954 0.63402236
vt 0.60932267 0.6391679
vt 0.6366898 0.63402236
vt 0.6093229 0.6391679
vn 1.3023677E-06 3.5600365E-06 -1
vn 1.3023677E-06 3.5600365E-06 -1
vn 1.3023677E-06 3.5600365E-06 -1
vn -9.460684E-05 0.0001286946 -1
vn -9.460685E-05 0.00012869459 -1
vn -9.460685E-05 0.00012869459 -1
vn -9.460685E-05 0.00012869458 -1
vn -0.00044409872 -0.00044105094 -0.9999998
vn -0.00044409875 -0.00044105094 -0.9999998
vn -0.00044409875 -0.00044105094 -0.9999998
vn -0.00044409875 -0.00044105097 -0.99999976
vn 0.00049388513 0.00028447903 -0.9999998
vn 0.00049388513 0.00028447903 -0.9999999
vn 0.00049388513 0.00028447903 -0.9999999
vn 0.00049388513 0.000284479 -0.9999999
vn -0.49999905 0.8660259 0
vn -0.49999905 0.8660259 0
vn -0.49999905 0.8660259 0
vn -0.49999905 0.8660259 0
vn -0.70496815 -0.70923895 0
vn -0.70496815 -0.70923895 0
vn -0.70496815 -0.70923895 0
vn -0.7049682 -0.70923895 0
vn 0.86602455 0.5000014 0
vn 0.8660246 0.5000014 0
vn 0.8660246 0.5000014 0
vn 0.8660246 0.5000014 0
vn -0.00039156212 0.00064304005 -0.99999976
vn -0.0004091748 0.000690423 -0.9999997
vn -0.0004091748 0.000690423 -0.9999997
vn -0.0004343299 0.00075809745 -0.99999964
vn -0.0007142155 -0.00071280263 -0.99999946
vn -0.000824674 -0.000816456 -0.9999993
vn -0.000824674 -0.000816456 -0.9999993
vn -0.0010449791 -0.0010231885 -0.999999
vn 0.0012046406 0.00069483696 -0.99999905
vn 0.0009325198 0.0005476604 -0.9999994
vn 0.0009325198 0.0005476604 -0.9999994
vn 0.0007086866 0.00042660025 -0.99999964
vn 0.49999985 -0.86602545 0
vn 0.49999985 -0.86602545 0
vn 0.49999985 -0.86602545 0
vn 0.49999985 -0.86602545 0
vn 0.49999985 -0.86602545 0
vn 0.49999985 -0.86602545 0
vn 0.7137378 0.700413 0
vn 0.7137378 0.700413 0
vn 0.7137378 0.700413 0
vn 0.7137378 0.700413 0
vn 0.7137378 0.700413 0
vn 0.7137378 0.700413 0
vn -0.8582362 -0.5132549 0
vn -0.8582362 -0.5132549 0
vn -0.8582362 -0.5132549 0
vn -0.8582362 -0.5132549 0
g pb_Mesh288740_0
f 3/3/3 2/2/2 1/1/1
g pb_Mesh288740_1
f 6/6/6 5/5/5 4/4/4
f 6/6/6 7/7/7 5/5/5
f 10/10/10 9/9/9 8/8/8
f 10/10/10 11/11/11 9/9/9
f 14/14/14 13/13/13 12/12/12
f 14/14/14 15/15/15 13/13/13
f 18/18/18 17/17/17 16/16/16
f 18/18/18 19/19/19 17/17/17
f 22/22/22 21/21/21 20/20/20
f 22/22/22 23/23/23 21/21/21
f 26/26/26 25/25/25 24/24/24
f 26/26/26 27/27/27 25/25/25
f 30/30/30 29/29/29 28/28/28
f 30/30/30 31/31/31 29/29/29
f 34/34/34 33/33/33 32/32/32
f 34/34/34 35/35/35 33/33/33
f 38/38/38 37/37/37 36/36/36
f 38/38/38 39/39/39 37/37/37
f 42/42/42 41/41/41 40/40/40
f 45/45/45 44/44/44 43/43/43
f 48/48/48 47/47/47 46/46/46
f 51/51/51 50/50/50 49/49/49
f 54/54/54 53/53/53 52/52/52
f 54/54/54 55/55/55 53/53/53
