g pb_Mesh-13559826
v 11.593333 -0.5 6.5
v -6.5 -0.5 6.5
v 11.593333 0.5 6.5
v -6.5 0.5 6.5
v -6.5 -0.5 6.5
v -6.500009 -0.49999988 -6.8333335
v -6.5 0.5 6.5
v -6.500009 0.5000001 -6.8333335
v -6.500009 -0.49999988 -6.8333335
v 11.593325 -0.49999988 -6.8333335
v -6.500009 0.5000001 -6.8333335
v 11.593325 0.5000001 -6.8333335
v 11.593325 -0.49999988 -6.8333335
v 11.593333 -0.5 6.5
v 11.593325 0.5000001 -6.8333335
v 11.593333 0.5 6.5
v 11.593325 -0.49999988 -6.8333335
v -6.500009 -0.49999988 -6.8333335
v 1.9939238 -0.49045813 -1.8891351
v -1.9965318 -0.49045813 -1.8891351
v 11.593333 -0.5 6.5
v 11.593325 -0.49999988 -6.8333335
v 1.9939238 -0.49045813 2.0891783
v 1.9939238 -0.49045813 -1.8891351
v -6.500009 -0.49999988 -6.8333335
v -6.5 -0.5 6.5
v -1.9965318 -0.49045813 -1.8891351
v -1.9965318 -0.49045813 2.0891783
v -6.5 -0.5 6.5
v 11.593333 -0.5 6.5
v -1.9965318 -0.49045813 2.0891783
v 1.9939238 -0.49045813 2.0891783
v 11.593333 0.5 6.5
v -6.5 0.5 6.5
v 1.9939238 0.40420997 2.0891783
v -1.9965318 0.40420997 2.0891783
v 11.593325 0.5000001 -6.8333335
v 11.593333 0.5 6.5
v 1.9939238 0.40420997 -1.8891351
v 1.9939238 0.40420997 2.0891783
v -6.5 0.5 6.5
v -6.500009 0.5000001 -6.8333335
v -1.9965318 0.40420997 2.0891783
v -1.9965318 0.40420997 -1.8891351
v -6.500009 0.5000001 -6.8333335
v 11.593325 0.5000001 -6.8333335
v -1.9965318 0.40420997 -1.8891351
v 1.9939238 0.40420997 -1.8891351
v 1.9939238 0.40420997 2.0891783
v -1.9965318 0.40420997 2.0891783
v 1.9939238 -0.49045813 2.0891783
v -1.9965318 -0.49045813 2.0891783
v 1.9939238 0.40420997 -1.8891351
v 1.9939238 0.40420997 2.0891783
v 1.9939238 -0.49045813 -1.8891351
v 1.9939238 -0.49045813 2.0891783
v -1.9965318 0.40420997 2.0891783
v -1.9965318 0.40420997 -1.8891351
v -1.9965318 -0.49045813 2.0891783
v -1.9965318 -0.49045813 -1.8891351
v -1.9965318 0.40420997 -1.8891351
v 1.9939238 0.40420997 -1.8891351
v -1.9965318 -0.49045813 -1.8891351
v 1.9939238 -0.49045813 -1.8891351
vt 11.593333 -0.5
vt -6.5 -0.5
vt 11.593333 0.5
vt -6.5 0.5
vt 6.5 -0.5
vt -6.5 -0.5
vt 6.5 0.5
vt -6.5 0.5
vt 6.5 -0.5
vt -11.593333 -0.5
vt 6.5 0.5
vt -11.593333 0.5
vt 6.5 -0.5
vt -6.5 -0.5
vt 6.5 0.5
vt -6.5 0.5
vt 11.593333 -6.5010214
vt -6.5 -6.5010214
vt 1.9939238 -1.8901461
vt -1.9965318 -1.8901461
vt 11.593824 6.5
vt 11.593824 -6.5
vt 1.9944104 2.0891783
vt 1.9944104 -1.8891351
vt -6.501045 -6.5
vt -6.501045 6.5
vt -1.9975666 -1.8891351
vt -1.9975666 2.0891783
vt -6.5 6.5010667
vt 11.593333 6.5010667
vt -1.9965318 2.0902345
vt 1.9939238 2.0902345
vt -11.593333 6.5093236
vt 6.5 6.5093236
vt -1.9939238 2.097462
vt 1.9965318 2.097462
vt -11.597745 -6.5
vt -11.597745 6.5
vt -1.9978578 -1.8891351
vt -1.9978578 2.0891783
vt 6.509163 6.5
vt 6.509163 -6.5
vt 2.004676 2.0891783
vt 2.004676 -1.8891351
vt 6.5 -6.508983
vt -11.593333 -6.508983
vt 1.9965318 -1.8971232
vt -1.9939238 -1.8971232
vt -1.9939238 0.40420997
vt 1.9965318 0.40420997
vt -1.9939238 -0.49045813
vt 1.9965318 -0.49045813
vt -1.8891351 0.40420997
vt 2.0891783 0.40420997
vt -1.8891351 -0.49045813
vt 2.0891783 -0.49045813
vt -2.0891783 0.40420997
vt 1.8891351 0.40420997
vt -2.0891783 -0.49045813
vt 1.8891351 -0.49045813
vt -1.9965318 0.40420997
vt 1.9939238 0.40420997
vt -1.9965318 -0.49045813
vt 1.9939238 -0.49045813
vn -0 0 1
vn -0 0 1
vn -0 0 1
vn -0 0 1
vn -1 0 6.794929E-07
vn -1 0 6.794929E-07
vn -1 0 6.794929E-07
vn -1 0 6.794929E-07
vn -0 0 -1
vn -0 0 -1
vn -0 0 -1
vn -0 0 -1
vn 1 0 -6.437301E-07
vn 1 0 -6.437301E-07
vn 1 0 -6.437301E-07
vn 1 0 -6.437301E-07
vn -0.0004969992 -0.9999994 0.0009649407
vn 0.0010593802 -0.999999 0.0009649381
vn -0.0004969972 -0.9999994 0.00096494285
vn 0.0010593851 -0.999999 0.0009649407
vn -0.00049700117 -0.9999993 -0.0010816454
vn -0.0004969992 -0.9999994 0.0009649407
vn -0.00049699924 -0.9999993 -0.0010816434
vn -0.0004969972 -0.9999994 0.00096494285
vn 0.0010593802 -0.999999 0.0009649381
vn 0.0010593854 -0.99999887 -0.0010816442
vn 0.0010593851 -0.999999 0.0009649407
vn 0.0010593901 -0.99999887 -0.0010816416
vn 0.0010593854 -0.99999887 -0.0010816442
vn -0.00049700117 -0.9999993 -0.0010816454
vn 0.0010593901 -0.99999887 -0.0010816416
vn -0.00049699924 -0.9999993 -0.0010816434
vn -0 0.9997643 -0.021711929
vn -0 0.9997643 -0.021711929
vn -0 0.9997643 -0.021711929
vn -0 0.99976426 -0.021711929
vn -0.009978259 0.99995023 1.5363558E-08
vn -0.009978253 0.99995023 7.681779E-09
vn -0.009978253 0.99995023 7.681779E-09
vn -0.009978247 0.99995023 0
vn 0.021265466 0.99977386 -5.5110587E-09
vn 0.021265462 0.99977386 -2.7555294E-09
vn 0.021265462 0.99977386 -2.7555294E-09
vn 0.021265456 0.99977386 0
vn -0 0.9998124 0.019370617
vn -0 0.99981236 0.019370617
vn -0 0.99981236 0.019370617
vn -0 0.99981236 0.019370617
vn -0 0 -1
vn -0 0 -1
vn -0 0 -1
vn -0 0 -1
vn -1 0 0
vn -1 0 0
vn -1 0 0
vn -1 0 0
vn 1 0 0
vn 1 0 0
vn 1 0 0
vn 1 0 0
vn -0 0 1
vn -0 0 1
vn -0 0 1
vn -0 0 1
g pb_Mesh-13559826_0
f 3/3/3 2/2/2 1/1/1
f 3/3/3 4/4/4 2/2/2
f 7/7/7 6/6/6 5/5/5
f 7/7/7 8/8/8 6/6/6
f 11/11/11 10/10/10 9/9/9
f 11/11/11 12/12/12 10/10/10
f 15/15/15 14/14/14 13/13/13
f 15/15/15 16/16/16 14/14/14
f 19/19/19 18/18/18 17/17/17
f 19/19/19 20/20/20 18/18/18
f 23/23/23 22/22/22 21/21/21
f 23/23/23 24/24/24 22/22/22
f 27/27/27 26/26/26 25/25/25
f 27/27/27 28/28/28 26/26/26
f 31/31/31 30/30/30 29/29/29
f 31/31/31 32/32/32 30/30/30
f 35/35/35 34/34/34 33/33/33
f 35/35/35 36/36/36 34/34/34
f 39/39/39 38/38/38 37/37/37
f 39/39/39 40/40/40 38/38/38
f 43/43/43 42/42/42 41/41/41
f 43/43/43 44/44/44 42/42/42
f 47/47/47 46/46/46 45/45/45
f 47/47/47 48/48/48 46/46/46
f 51/51/51 50/50/50 49/49/49
f 51/51/51 52/52/52 50/50/50
f 55/55/55 54/54/54 53/53/53
f 55/55/55 56/56/56 54/54/54
f 59/59/59 58/58/58 57/57/57
f 59/59/59 60/60/60 58/58/58
f 63/63/63 62/62/62 61/61/61
f 63/63/63 64/64/64 62/62/62
