g pb_Mesh542876
v -1.4475003 -4.8893604 1.6411171
v -1.4475 0.67782843 1.6411176
v -1.1350006 -4.8893604 1.9658768
v -1.135 0.67782843 1.9658773
v -1.1350006 -4.8893604 1.9658768
v -1.135 0.67782843 1.9658773
v 0.56545585 -4.8924203 1.7312254
v 0.5824364 0.67463624 1.7656026
v 0.56545585 -4.8924203 1.7312254
v 0.5824364 0.67463624 1.7656026
v 1.3092718 -4.886164 0.3509364
v 1.3262517 0.6808928 0.38531458
v 1.3092718 -4.886164 0.3509364
v 1.3262517 0.6808928 0.38531458
v 0.5334958 -4.8893604 -1.2694558
v 0.5334964 0.67782897 -1.2694554
v 0.5334958 -4.8893604 -1.2694558
v 0.5334964 0.67782897 -1.2694554
v 0.24556394 -4.8893604 -1.2913561
v 0.24556442 0.6778289 -1.2913557
v 0.24556394 -4.8893604 -1.2913561
v 0.24556442 0.6778289 -1.2913557
v -1.4475003 -4.8893604 1.6411171
v -1.4475 0.67782843 1.6411176
v -1.1350006 -4.8893604 1.9658768
v -5.951052E-07 -4.8893604 -4.361955E-07
v -1.4475003 -4.8893604 1.6411171
v 0.56545585 -4.8924203 1.7312254
v -5.951052E-07 -4.8893604 -4.361955E-07
v -1.1350006 -4.8893604 1.9658768
v 1.3092718 -4.886164 0.3509364
v -5.951052E-07 -4.8893604 -4.361955E-07
v 0.56545585 -4.8924203 1.7312254
v 0.5334958 -4.8893604 -1.2694558
v -5.951052E-07 -4.8893604 -4.361955E-07
v 1.3092718 -4.886164 0.3509364
v 0.24556394 -4.8893604 -1.2913561
v 0.5334958 -4.8893604 -1.2694558
v -1.4475 0.67782843 1.6411176
v -0.5005038 0.6778286 0.86689746
v -1.135 0.67782843 1.9658773
v -1.135 0.67782843 1.9658773
v -0.5005038 0.6778286 0.86689746
v 0.5824364 0.67463624 1.7656026
v 0.5824364 0.67463624 1.7656026
v -0.5005038 0.6778286 0.86689746
v 1.3262517 0.6808928 0.38531458
v 1.3262517 0.6808928 0.38531458
v -0.5005038 0.6778286 0.86689746
v 0.5334964 0.67782897 -1.2694554
v 0.5334964 0.67782897 -1.2694554
v 0.24556442 0.6778289 -1.2913557
vt 0.17889133 -4.8893604
vt 0.17889193 0.67782843
vt 0.6295852 -4.8893604
vt 0.629586 0.67782843
vt -1.3930773 -4.8893604
vt -1.3930768 0.6778286
vt 0.323493 -4.8924203
vt 0.33561486 0.6746364
vt -1.2558088 -4.884938
vt -1.2780169 0.6822066
vt 0.3121388 -4.8786817
vt 0.28992954 0.6884633
vt -0.8819007 -4.8860774
vt -0.92024076 0.6809798
vt 0.91462356 -4.8892736
vt 0.91462296 0.6779159
vt -0.43568167 -4.8893604
vt -0.4356823 0.6778289
vt -0.14691815 -4.8893604
vt -0.14691864 0.67782885
vt -1.2411292 -4.8893604
vt -1.241129 0.67782885
vt 2.1449993 -4.8893604
vt 2.1449995 0.6778284
vt -1.1350006 1.9658768
vt -5.951052E-07 -4.361955E-07
vt -1.4475003 1.6411171
vt 0.5750205 1.7367458
vt 0.00955911 0.005518849
vt -1.1254387 1.9713974
vt 1.2936556 0.36468112
vt -0.015620394 0.013742891
vt 0.5498234 1.7449756
vt 0.5227669 -1.2739646
vt -0.01072822 -0.0045087733
vt 1.2985481 0.34642822
vt 0.24556394 -1.2913561
vt 0.5334958 -1.2694558
vt 1.4474999 1.6411175
vt 0.5005037 0.8668974
vt 1.1349999 1.9658772
vt 1.1363486 1.9650987
vt 0.50185364 0.8661181
vt -0.58109075 1.7648239
vt -0.58281565 1.7627347
vt 0.50012255 0.8640215
vt -1.3266345 0.38243428
vt -1.3275584 0.38594556
vt 0.4991996 0.8675287
vt -0.5347986 -1.2688252
vt -0.5334965 -1.2694554
vt -0.24556457 -1.2913557
vn -0.7933013 4.5318792E-08 0.09668738
vn -0.79330117 5.1768755E-08 0.09668741
vn -0.2919396 -4.8562157E-08 0.8419938
vn -0.29717577 -0.0016276706 0.8426857
vn -0.2919396 -4.8562157E-08 0.8419938
vn -0.29717577 -0.0016276706 0.8426857
vn 0.50326896 -0.004434853 0.7331787
vn 0.49806294 -0.0060505075 0.7338054
vn 0.50326896 -0.004434853 0.7331787
vn 0.49806294 -0.0060505075 0.7338054
vn 0.89113605 -0.002849382 0.02127035
vn 0.89110804 -0.0028280634 0.021211937
vn 0.89113605 -0.002849382 0.02127035
vn 0.89110804 -0.0028280634 0.021211937
vn 0.48887268 -2.0873631E-05 -0.7145285
vn 0.4888453 -6.6158776E-09 -0.7145856
vn 0.48887268 -2.0873631E-05 -0.7145285
vn 0.4888453 -6.6158776E-09 -0.7145856
vn -0.3950919 8.154181E-08 -0.74855995
vn -0.3950919 8.069001E-08 -0.74855995
vn -0.3950919 8.154181E-08 -0.74855995
vn -0.3950919 8.069001E-08 -0.74855995
vn -0.7933013 4.5318792E-08 0.09668738
vn -0.79330117 5.1768755E-08 0.09668741
vn -0 -1 0
vn -0 -1 0
vn -0 -1 0
vn -0.0019552044 -0.99999744 -0.0011288378
vn -0.0019552044 -0.99999744 -0.0011288378
vn -0.0019552044 -0.99999744 -0.0011288378
vn 0.003194638 -0.9999909 -0.0028108782
vn 0.003194638 -0.9999909 -0.0028108782
vn 0.003194638 -0.9999909 -0.0028108782
vn 0.0021940744 -0.9999972 0.0009220732
vn 0.0021940744 -0.9999972 0.0009220732
vn 0.0021940744 -0.9999972 0.0009220732
vn -0 -1 0
vn -0 -1 0
vn -1.0568266E-07 1 1.01693125E-07
vn -1.0568266E-07 1 1.01693125E-07
vn -1.0568266E-07 1 1.01693125E-07
vn 0.0019928801 0.9999974 0.0011507523
vn 0.0019928801 0.9999974 0.0011507523
vn 0.0019928801 0.9999974 0.0011507523
vn -0.000562317 0.9999909 0.0042297426
vn -0.000562317 0.9999909 0.0042297426
vn -0.000562317 0.9999909 0.0042297426
vn -0.0019226883 0.9999977 -0.0009304185
vn -0.0019226883 0.9999977 -0.0009304185
vn -0.0019226883 0.9999977 -0.0009304185
vn -2.1193983E-07 1 6.48217E-08
vn -2.1193983E-07 1 6.48217E-08
g pb_Mesh542876_0
f 3/3/3 2/2/2 1/1/1
f 3/3/3 4/4/4 2/2/2
f 7/7/7 6/6/6 5/5/5
f 7/7/7 8/8/8 6/6/6
f 11/11/11 10/10/10 9/9/9
f 11/11/11 12/12/12 10/10/10
f 15/15/15 14/14/14 13/13/13
f 15/15/15 16/16/16 14/14/14
f 19/19/19 18/18/18 17/17/17
f 19/19/19 20/20/20 18/18/18
f 23/23/23 22/22/22 21/21/21
f 23/23/23 24/24/24 22/22/22
f 27/27/27 26/26/26 25/25/25
f 30/30/30 29/29/29 28/28/28
f 33/33/33 32/32/32 31/31/31
f 36/36/36 35/35/35 34/34/34
f 38/38/38 26/26/26 37/37/37
f 37/37/37 26/26/26 27/27/27
f 41/41/41 40/40/40 39/39/39
f 44/44/44 43/43/43 42/42/42
f 47/47/47 46/46/46 45/45/45
f 50/50/50 49/49/49 48/48/48
f 52/52/52 40/40/40 51/51/51
f 39/39/39 40/40/40 52/52/52
