g pb_Mesh611346
v -2.6129665 0.003939867 -2.0109208
v -4.9692903 -0.0038457513 -0.49480763
v -5.30069 0.00037062168 -1.2851903
v 5.3006916 0.0055935383 0.558683
v 3.2540908 0.0022711754 1.2851925
v 2.6536372 -0.0034441948 0.97948855
v 3.2237616 0.0020968914 -1.0790832
v 2.6536372 -0.0034441948 0.97948855
v 0.6259864 0.001065731 0.60353845
v 3.2237616 0.0020968914 -1.0790832
v 5.3006916 0.0055935383 0.558683
v 2.6536372 -0.0034441948 0.97948855
v -3.4488087 0.0015239716 0.004996419
v -4.9692903 -0.0038457513 -0.49480763
v -2.065518 -0.00396204 0.244245
v -2.065518 -0.00396204 0.244245
v -4.9692903 -0.0038457513 -0.49480763
v -2.6129665 0.003939867 -2.0109208
v -2.6129665 0.003939867 -2.0109208
v -0.16669849 0.0013206005 -1.1207361
v -2.065518 -0.00396204 0.244245
v -0.16669849 0.0013206005 -1.1207361
v -0.8453859 -0.0055938363 0.13378328
v -2.065518 -0.00396204 0.244245
v -0.16669849 0.0013206005 -1.1207361
v 0.6259864 0.001065731 0.60353845
v -0.8453859 -0.0055938363 0.13378328
v 0.6259864 0.001065731 0.60353845
v -0.16669849 0.0013206005 -1.1207361
v 3.528504 -0.0021448135 -1.6183017
vt 0.045925464 0.4200988
vt 0.045925464 0.4200988
vt 0.045925464 0.4200988
vt 0.045925464 0.4200988
vt 0.045925464 0.4200988
vt 0.045925464 0.4200988
vt 0.081548534 0.4200988
vt 0.081548534 0.4200988
vt 0.081548534 0.4200988
vt 0.081548534 0.4200988
vt 0.045925464 0.4200988
vt 0.081548534 0.4200988
vt 0.07676334 0.4200988
vt 0.07676334 0.4200988
vt 0.07676334 0.4200988
vt 0.07676334 0.4200988
vt 0.07676334 0.4200988
vt 0.07676334 0.4200988
vt 0.045925464 0.4200988
vt 0.045925464 0.4200988
vt 0.045925464 0.4200988
vt 0.045925464 0.4200988
vt 0.045925464 0.4200988
vt 0.045925464 0.4200988
vt 0.045925464 0.4200988
vt 0.045925464 0.4200988
vt 0.045925464 0.4200988
vt 0.045925464 0.4200988
vt 0.045925464 0.4200988
vt 0.045925464 0.4200988
vn -0.0003436525 0.9999912 0.0041915807
vn 0.0028933764 0.9999602 -0.0084442515
vn 0.00010101195 0.999986 0.005292168
vn -0.003995233 0.99998534 -0.0036548905
vn -0.004866472 0.9999465 -0.009136205
vn -0.0028040444 0.9999905 -0.003325002
vn -0.00074150413 0.99999666 0.0024863444
vn -0.0028040444 0.9999905 -0.003325002
vn 0.0016408678 0.9999937 0.0031461376
vn -0.00074150413 0.99999666 0.0024863444
vn -0.003995233 0.99998534 -0.0036548905
vn -0.0028040444 0.9999905 -0.003325002
vn 0.01227611 0.9987682 -0.048076257
vn 0.0028933764 0.9999602 -0.0084442515
vn 0.003269661 0.99995804 -0.008561753
vn 0.003269661 0.99995804 -0.008561753
vn 0.0028933764 0.9999602 -0.0084442515
vn -0.0003436525 0.9999912 0.0041915807
vn -0.0003436525 0.9999912 0.0041915807
vn -0.00068781164 0.99999493 0.0031148857
vn 0.003269661 0.99995804 -0.008561753
vn -0.00068781164 0.99999493 0.0031148857
vn -0.0017145049 0.999988 0.0045840195
vn 0.003269661 0.99995804 -0.008561753
vn -0.00068781164 0.99999493 0.0031148857
vn -0.0022290107 0.99999684 0.0011725347
vn -0.0017145049 0.999988 0.0045840195
vn -0.0022290107 0.99999684 0.0011725347
vn -0.00068781164 0.99999493 0.0031148857
vn 0.0009018883 0.9999996 -0.00026680433
g pb_Mesh611346_0
f 3/3/3 2/2/2 1/1/1
f 6/6/6 5/5/5 4/4/4
f 9/9/9 8/8/8 7/7/7
f 12/12/12 11/11/11 10/10/10
f 15/15/15 14/14/14 13/13/13
f 18/18/18 17/17/17 16/16/16
f 21/21/21 20/20/20 19/19/19
f 24/24/24 23/23/23 22/22/22
f 27/27/27 26/26/26 25/25/25
f 30/30/30 29/29/29 28/28/28
