g pb_Mesh254708
v -0.99237794 -0.16370285 0.41105574
v -1.0741422 -0.16370285 -6.556511E-07
v -0.99237794 0.16370288 0.41105574
v -1.0741422 0.16370288 -6.556511E-07
v -0.8593138 -0.16370285 -6.556511E-07
v -0.7939024 -0.16370285 0.32884446
v -0.8593138 0.16370288 -6.556511E-07
v -0.7939024 0.16370288 0.32884446
v -0.7595332 -0.16370285 0.7595326
v -0.99237794 -0.16370285 0.41105574
v -0.7595332 0.16370288 0.7595326
v -0.99237794 0.16370288 0.41105574
v -0.7939024 -0.16370285 0.32884446
v -0.6076266 -0.16370285 0.60762596
v -0.7939024 0.16370288 0.32884446
v -0.6076266 0.16370288 0.60762596
v -0.4110564 -0.16370285 0.99237716
v -0.7595332 -0.16370285 0.7595326
v -0.4110564 0.16370288 0.99237716
v -0.7595332 0.16370288 0.7595326
v -0.6076266 -0.16370285 0.60762596
v -0.32884514 -0.16370285 0.7939017
v -0.6076266 0.16370288 0.60762596
v -0.32884514 0.16370288 0.7939017
v -0 -0.16370285 1.0741414
v -0.4110564 -0.16370285 0.99237716
v -0 0.16370288 1.0741414
v -0.4110564 0.16370288 0.99237716
v -0.32884514 -0.16370285 0.7939017
v -0 -0.16370285 0.859313
v -0.32884514 0.16370288 0.7939017
v -0 0.16370288 0.859313
v 0.41105628 -0.16370285 0.9923773
v -0 -0.16370285 1.0741414
v 0.41105628 0.16370288 0.9923773
v -0 0.16370288 1.0741414
v -0 -0.16370285 0.859313
v 0.32884502 -0.16370285 0.7939017
v -0 0.16370288 0.859313
v 0.32884502 0.16370288 0.7939017
v 0.7595329 -0.16370285 0.7595326
v 0.41105628 -0.16370285 0.9923773
v 0.7595329 0.16370288 0.7595326
v 0.41105628 0.16370288 0.9923773
v 0.32884502 -0.16370285 0.7939017
v 0.60762644 -0.16370285 0.60762596
v 0.32884502 0.16370288 0.7939017
v 0.60762644 0.16370288 0.60762596
v 0.99237776 -0.16370285 0.41105577
v 0.7595329 -0.16370285 0.7595326
v 0.99237776 0.16370288 0.41105577
v 0.7595329 0.16370288 0.7595326
v 0.60762644 -0.16370285 0.60762596
v 0.7939023 -0.16370285 0.32884452
v 0.60762644 0.16370288 0.60762596
v 0.7939023 0.16370288 0.32884452
v 1.074142 -0.16370285 -7.4505806E-07
v 0.99237776 -0.16370285 0.41105577
v 1.074142 0.16370288 -7.4505806E-07
v 0.99237776 0.16370288 0.41105577
v 0.7939023 -0.16370285 0.32884452
v 0.8593137 -0.16370285 -7.1525574E-07
v 0.7939023 0.16370288 0.32884452
v 0.8593137 0.16370288 -7.1525574E-07
v 0.99237776 -0.16370285 -0.4110571
v 1.074142 -0.16370285 -7.4505806E-07
v 0.99237776 0.16370288 -0.4110571
v 1.074142 0.16370288 -7.4505806E-07
v 0.8593137 -0.16370285 -7.1525574E-07
v 0.7939023 -0.16370285 -0.32884574
v 0.8593137 0.16370288 -7.1525574E-07
v 0.7939023 0.16370288 -0.32884574
v 0.75953317 -0.16370285 -0.75953364
v 0.99237776 -0.16370285 -0.4110571
v 0.75953317 0.16370288 -0.75953364
v 0.99237776 0.16370288 -0.4110571
v 0.7939023 -0.16370285 -0.32884574
v 0.60762644 -0.16370285 -0.60762715
v 0.7939023 0.16370288 -0.32884574
v 0.60762644 0.16370288 -0.60762715
v 0.41105652 -0.16370285 -0.9923785
v 0.75953317 -0.16370285 -0.75953364
v 0.41105652 0.16370288 -0.9923785
v 0.75953317 0.16370288 -0.75953364
v 0.60762644 -0.16370285 -0.60762715
v 0.32884514 -0.16370285 -0.793903
v 0.60762644 0.16370288 -0.60762715
v 0.32884514 0.16370288 -0.793903
v -5.9604645E-08 -0.16370285 -1.0741428
v 0.41105652 -0.16370285 -0.9923785
v -5.9604645E-08 0.16370288 -1.0741428
v 0.41105652 0.16370288 -0.9923785
v 0.32884514 -0.16370285 -0.793903
v -5.9604645E-08 -0.16370285 -0.8593143
v 0.32884514 0.16370288 -0.793903
v -5.9604645E-08 0.16370288 -0.8593143
v -0.41105664 -0.16370285 -0.9923785
v -5.9604645E-08 -0.16370285 -1.0741428
v -0.41105664 0.16370288 -0.9923785
v -5.9604645E-08 0.16370288 -1.0741428
v -5.9604645E-08 -0.16370285 -0.8593143
v -0.32884526 -0.16370285 -0.793903
v -5.9604645E-08 0.16370288 -0.8593143
v -0.32884526 0.16370288 -0.793903
v -0.7595331 -0.16370285 -0.7595339
v -0.41105664 -0.16370285 -0.9923785
v -0.7595331 0.16370288 -0.7595339
v -0.41105664 0.16370288 -0.9923785
v -0.32884526 -0.16370285 -0.793903
v -0.6076265 -0.16370285 -0.6076273
v -0.32884526 0.16370288 -0.793903
v -0.6076265 0.16370288 -0.6076273
v -0.992378 -0.16370285 -0.4110571
v -0.7595331 -0.16370285 -0.7595339
v -0.992378 0.16370288 -0.4110571
v -0.7595331 0.16370288 -0.7595339
v -0.6076265 -0.16370285 -0.6076273
v -0.79390246 -0.16370285 -0.32884574
v -0.6076265 0.16370288 -0.6076273
v -0.79390246 0.16370288 -0.32884574
v -1.0741422 -0.16370285 -6.556511E-07
v -0.992378 -0.16370285 -0.4110571
v -1.0741422 0.16370288 -6.556511E-07
v -0.992378 0.16370288 -0.4110571
v -0.79390246 -0.16370285 -0.32884574
v -0.8593138 -0.16370285 -6.556511E-07
v -0.79390246 0.16370288 -0.32884574
v -0.8593138 0.16370288 -6.556511E-07
v -1.0741422 -0.16370285 -6.556511E-07
v -0.99237794 -0.16370285 0.41105574
v -0.8593138 -0.16370285 -6.556511E-07
v -0.7939024 -0.16370285 0.32884446
v -0.99237794 0.16370288 0.41105574
v -1.0741422 0.16370288 -6.556511E-07
v -0.7939024 0.16370288 0.32884446
v -0.8593138 0.16370288 -6.556511E-07
v -0.7595332 -0.16370285 0.7595326
v -0.6076266 -0.16370285 0.60762596
v -0.7595332 0.16370288 0.7595326
v -0.6076266 0.16370288 0.60762596
v -0.4110564 -0.16370285 0.99237716
v -0.32884514 -0.16370285 0.7939017
v -0.4110564 0.16370288 0.99237716
v -0.32884514 0.16370288 0.7939017
v -0 -0.16370285 1.0741414
v -0 -0.16370285 0.859313
v -0 0.16370288 1.0741414
v -0 0.16370288 0.859313
v -0.32884514 0.16370288 0.7939017
v 0.41105628 -0.16370285 0.9923773
v 0.32884502 -0.16370285 0.7939017
v 0.41105628 0.16370288 0.9923773
v 0.32884502 0.16370288 0.7939017
v -0 0.16370288 0.859313
v 0.7595329 -0.16370285 0.7595326
v 0.60762644 -0.16370285 0.60762596
v 0.7595329 0.16370288 0.7595326
v 0.41105628 0.16370288 0.9923773
v 0.60762644 0.16370288 0.60762596
v 0.99237776 -0.16370285 0.41105577
v 0.7939023 -0.16370285 0.32884452
v 0.99237776 0.16370288 0.41105577
v 0.7595329 0.16370288 0.7595326
v 0.7939023 0.16370288 0.32884452
v 1.074142 -0.16370285 -7.4505806E-07
v 0.8593137 -0.16370285 -7.1525574E-07
v 1.074142 0.16370288 -7.4505806E-07
v 0.8593137 0.16370288 -7.1525574E-07
v 0.7939023 0.16370288 0.32884452
v 0.99237776 -0.16370285 -0.4110571
v 0.8593137 -0.16370285 -7.1525574E-07
v 0.7939023 -0.16370285 -0.32884574
v 0.99237776 0.16370288 -0.4110571
v 0.7939023 0.16370288 -0.32884574
v 0.75953317 -0.16370285 -0.75953364
v 0.7939023 -0.16370285 -0.32884574
v 0.60762644 -0.16370285 -0.60762715
v 0.75953317 0.16370288 -0.75953364
v 0.60762644 0.16370288 -0.60762715
v 0.41105652 -0.16370285 -0.9923785
v 0.60762644 -0.16370285 -0.60762715
v 0.32884514 -0.16370285 -0.793903
v 0.41105652 0.16370288 -0.9923785
v 0.75953317 0.16370288 -0.75953364
v 0.32884514 0.16370288 -0.793903
v 0.60762644 0.16370288 -0.60762715
v 0.41105652 -0.16370285 -0.9923785
v -5.9604645E-08 -0.16370285 -1.0741428
v 0.32884514 -0.16370285 -0.793903
v -5.9604645E-08 -0.16370285 -0.8593143
v -5.9604645E-08 0.16370288 -1.0741428
v -5.9604645E-08 0.16370288 -0.8593143
v 0.32884514 0.16370288 -0.793903
v -0.41105664 -0.16370285 -0.9923785
v -0.32884526 -0.16370285 -0.793903
v -0.41105664 0.16370288 -0.9923785
v -0.32884526 0.16370288 -0.793903
v -0.7595331 -0.16370285 -0.7595339
v -0.32884526 -0.16370285 -0.793903
v -0.6076265 -0.16370285 -0.6076273
v -0.7595331 0.16370288 -0.7595339
v -0.41105664 0.16370288 -0.9923785
v -0.6076265 0.16370288 -0.6076273
v -0.7595331 -0.16370285 -0.7595339
v -0.992378 -0.16370285 -0.4110571
v -0.79390246 -0.16370285 -0.32884574
v -0.992378 0.16370288 -0.4110571
v -0.79390246 0.16370288 -0.32884574
v -0.6076265 0.16370288 -0.6076273
vt 0.20955391 -0.16370285
vt -0.20955557 -0.16370285
vt 0.20955391 0.16370288
vt -0.20955557 0.16370288
vt 0.16764453 -0.16370285
vt -0.16764307 -0.16370285
vt 0.16764453 0.16370288
vt -0.16764307 0.16370288
vt 0.20955427 -0.16370285
vt -0.20955522 -0.16370285
vt 0.20955427 0.16370288
vt -0.20955522 0.16370288
vt 0.16764425 -0.16370285
vt -0.16764338 -0.16370285
vt 0.16764425 0.16370288
vt -0.16764338 0.16370288
vt 0.20955399 -0.16370285
vt -0.20955545 -0.16370285
vt 0.20955399 0.16370288
vt -0.20955545 0.16370288
vt 0.16764441 -0.16370285
vt -0.16764316 -0.16370285
vt 0.16764441 0.16370288
vt -0.16764316 0.16370288
vt 0.20955464 -0.16370285
vt -0.20955485 -0.16370285
vt 0.20955464 0.16370288
vt -0.20955485 0.16370288
vt 0.16764404 -0.16370285
vt -0.16764355 -0.16370285
vt 0.16764404 0.16370288
vt -0.16764355 0.16370288
vt 0.20955494 -0.16370285
vt -0.20955442 -0.16370285
vt 0.20955494 0.16370288
vt -0.20955442 0.16370288
vt 0.16764364 -0.16370285
vt -0.16764385 -0.16370285
vt 0.16764364 0.16370288
vt -0.16764385 0.16370288
vt 0.20955475 -0.16370285
vt -0.20955461 -0.16370285
vt 0.20955475 0.16370288
vt -0.20955461 0.16370288
vt 0.16764343 -0.16370285
vt -0.16764411 -0.16370285
vt 0.16764343 0.16370288
vt -0.16764411 0.16370288
vt 0.2095553 -0.16370285
vt -0.20955426 -0.16370285
vt 0.2095553 0.16370288
vt -0.20955426 0.16370288
vt 0.16764331 -0.16370285
vt -0.1676443 -0.16370285
vt 0.16764331 0.16370288
vt -0.1676443 0.16370288
vt 0.20955543 -0.16370285
vt -0.20955417 -0.16370285
vt 0.20955543 0.16370288
vt -0.20955417 0.16370288
vt 0.16764304 -0.16370285
vt -0.16764466 -0.16370285
vt 0.16764304 0.16370288
vt -0.16764466 0.16370288
vt 0.2095554 -0.16370285
vt -0.20955406 -0.16370285
vt 0.2095554 0.16370288
vt -0.20955406 0.16370288
vt 0.16764337 -0.16370285
vt -0.16764414 -0.16370285
vt 0.16764337 0.16370288
vt -0.16764414 0.16370288
vt 0.20955506 -0.16370285
vt -0.20955412 -0.16370285
vt 0.20955506 0.16370288
vt -0.20955412 0.16370288
vt 0.16764334 -0.16370285
vt -0.16764426 -0.16370285
vt 0.16764334 0.16370288
vt -0.16764426 0.16370288
vt 0.2095553 -0.16370285
vt -0.20955412 -0.16370285
vt 0.2095553 0.16370288
vt -0.20955412 0.16370288
vt 0.16764309 -0.16370285
vt -0.16764441 -0.16370285
vt 0.16764309 0.16370288
vt -0.16764441 0.16370288
vt 0.20955518 -0.16370285
vt -0.2095545 -0.16370285
vt 0.20955518 0.16370288
vt -0.2095545 0.16370288
vt 0.16764382 -0.16370285
vt -0.16764386 -0.16370285
vt 0.16764382 0.16370288
vt -0.16764386 0.16370288
vt 0.20955461 -0.16370285
vt -0.20955506 -0.16370285
vt 0.20955461 0.16370288
vt -0.20955506 0.16370288
vt 0.16764376 -0.16370285
vt -0.16764392 -0.16370285
vt 0.16764376 0.16370288
vt -0.16764392 0.16370288
vt 0.20955417 -0.16370285
vt -0.20955497 -0.16370285
vt 0.20955417 0.16370288
vt -0.20955497 0.16370288
vt 0.16764414 -0.16370285
vt -0.16764325 -0.16370285
vt 0.16764414 0.16370288
vt -0.16764325 0.16370288
vt 0.20955454 -0.16370285
vt -0.20955501 -0.16370285
vt 0.20955454 0.16370288
vt -0.20955501 0.16370288
vt 0.16764422 -0.16370285
vt -0.16764353 -0.16370285
vt 0.16764422 0.16370288
vt -0.16764353 0.16370288
vt 0.20955414 -0.16370285
vt -0.2095554 -0.16370285
vt 0.20955414 0.16370288
vt -0.2095554 0.16370288
vt 0.16764444 -0.16370285
vt -0.1676431 -0.16370285
vt 0.16764444 0.16370288
vt -0.1676431 0.16370288
vt -1.0741422 -6.556511E-07
vt -0.99237794 0.41105574
vt -0.8593138 -6.556511E-07
vt -0.7939024 0.32884446
vt 0.99237794 0.41105574
vt 1.0741422 -6.556511E-07
vt 0.7939024 0.32884446
vt 0.8593138 -6.556511E-07
vt -0.7595332 0.7595326
vt -0.6076266 0.60762596
vt 0.7595332 0.7595326
vt 0.6076266 0.60762596
vt -0.4110564 0.99237716
vt -0.32884514 0.7939017
vt 0.4110564 0.99237716
vt 0.32884514 0.7939017
vt 0 1.0741414
vt 0 0.859313
vt 0 1.0741414
vt 0 0.859313
vt 0.32884514 0.7939017
vt 0.41105628 0.9923773
vt 0.32884502 0.7939017
vt -0.41105628 0.9923773
vt -0.32884502 0.7939017
vt 0 0.859313
vt 0.7595329 0.7595326
vt 0.60762644 0.60762596
vt -0.7595329 0.7595326
vt -0.41105628 0.9923773
vt -0.60762644 0.60762596
vt 0.99237776 0.41105577
vt 0.7939023 0.32884452
vt -0.99237776 0.41105577
vt -0.7595329 0.7595326
vt -0.7939023 0.32884452
vt 1.074142 -7.4505806E-07
vt 0.8593137 -7.1525574E-07
vt -1.074142 -7.4505806E-07
vt -0.8593137 -7.1525574E-07
vt -0.7939023 0.32884452
vt 0.99237776 -0.4110571
vt 0.8593137 -7.1525574E-07
vt 0.7939023 -0.32884574
vt -0.99237776 -0.4110571
vt -0.7939023 -0.32884574
vt 0.75953317 -0.75953364
vt 0.7939023 -0.32884574
vt 0.60762644 -0.60762715
vt -0.75953317 -0.75953364
vt -0.60762644 -0.60762715
vt 0.41105652 -0.9923785
vt 0.60762644 -0.60762715
vt 0.32884514 -0.793903
vt -0.41105652 -0.9923785
vt -0.75953317 -0.75953364
vt -0.32884514 -0.793903
vt -0.60762644 -0.60762715
vt 0.41105652 -0.9923785
vt -5.9604645E-08 -1.0741428
vt 0.32884514 -0.793903
vt -5.9604645E-08 -0.8593143
vt 5.9604645E-08 -1.0741428
vt 5.9604645E-08 -0.8593143
vt -0.32884514 -0.793903
vt -0.41105664 -0.9923785
vt -0.32884526 -0.793903
vt 0.41105664 -0.9923785
vt 0.32884526 -0.793903
vt -0.7595331 -0.7595339
vt -0.32884526 -0.793903
vt -0.6076265 -0.6076273
vt 0.7595331 -0.7595339
vt 0.41105664 -0.9923785
vt 0.6076265 -0.6076273
vt -0.7595331 -0.7595339
vt -0.992378 -0.4110571
vt -0.79390246 -0.32884574
vt 0.992378 -0.4110571
vt 0.79390246 -0.32884574
vt 0.6076265 -0.6076273
vn -0.98078525 0 0.19509049
vn -0.98078525 0 0.19509049
vn -0.98078525 0 0.19509049
vn -0.98078525 0 0.19509049
vn 0.9807853 0 -0.19509041
vn 0.9807853 0 -0.19509041
vn 0.9807853 0 -0.19509041
vn 0.9807853 0 -0.19509041
vn -0.83146966 0 0.5555701
vn -0.83146966 0 0.5555701
vn -0.83146966 0 0.5555701
vn -0.83146966 0 0.5555701
vn 0.8314697 0 -0.5555701
vn 0.8314697 0 -0.5555701
vn 0.8314697 0 -0.5555701
vn 0.8314697 0 -0.5555701
vn -0.55556995 0 0.8314698
vn -0.55556995 0 0.8314698
vn -0.55556995 0 0.8314698
vn -0.55556995 0 0.8314698
vn 0.55557007 0 -0.8314698
vn 0.55557007 0 -0.8314698
vn 0.55557007 0 -0.8314698
vn 0.55557007 0 -0.8314698
vn -0.19509035 0 0.98078525
vn -0.19509035 0 0.98078525
vn -0.19509035 0 0.98078525
vn -0.19509035 0 0.98078525
vn 0.1950902 0 -0.98078525
vn 0.1950902 0 -0.98078525
vn 0.1950902 0 -0.98078525
vn 0.1950902 0 -0.98078525
vn 0.19509016 0 0.98078537
vn 0.19509016 0 0.98078537
vn 0.19509016 0 0.98078537
vn 0.19509016 0 0.98078537
vn -0.1950903 0 -0.98078525
vn -0.1950903 0 -0.98078525
vn -0.1950903 0 -0.98078525
vn -0.1950903 0 -0.98078525
vn 0.55557036 0 0.83146966
vn 0.55557036 0 0.83146966
vn 0.55557036 0 0.83146966
vn 0.55557036 0 0.83146966
vn -0.5555701 0 -0.8314697
vn -0.5555701 0 -0.8314697
vn -0.5555701 0 -0.8314697
vn -0.5555701 0 -0.8314697
vn 0.8314696 0 0.55557036
vn 0.8314696 0 0.55557036
vn 0.8314696 0 0.55557036
vn 0.8314696 0 0.55557036
vn -0.83146954 0 -0.5555703
vn -0.83146954 0 -0.5555703
vn -0.83146954 0 -0.5555703
vn -0.83146954 0 -0.5555703
vn 0.98078537 0 0.19509034
vn 0.98078537 0 0.19509034
vn 0.98078537 0 0.19509034
vn 0.98078537 0 0.19509034
vn -0.98078525 0 -0.19509052
vn -0.98078525 0 -0.19509052
vn -0.98078525 0 -0.19509052
vn -0.98078525 0 -0.19509052
vn 0.98078525 0 -0.19509038
vn 0.98078525 0 -0.19509038
vn 0.98078525 0 -0.19509038
vn 0.98078525 0 -0.19509038
vn -0.98078525 0 0.19509064
vn -0.98078525 0 0.19509064
vn -0.98078525 0 0.19509064
vn -0.98078525 0 0.19509064
vn 0.8314696 0 -0.5555703
vn 0.8314696 0 -0.5555703
vn 0.8314696 0 -0.5555703
vn 0.8314696 0 -0.5555703
vn -0.83146954 0 0.55557036
vn -0.83146954 0 0.55557036
vn -0.83146954 0 0.55557036
vn -0.83146954 0 0.55557036
vn 0.5555705 0 -0.8314694
vn 0.5555705 0 -0.8314694
vn 0.5555705 0 -0.8314694
vn 0.5555705 0 -0.8314694
vn -0.5555705 0 0.8314694
vn -0.5555705 0 0.8314694
vn -0.5555705 0 0.8314694
vn -0.5555705 0 0.8314694
vn 0.19509055 0 -0.9807852
vn 0.19509055 0 -0.9807852
vn 0.19509055 0 -0.9807852
vn 0.19509055 0 -0.9807852
vn -0.1950902 0 0.98078537
vn -0.1950902 0 0.98078537
vn -0.1950902 0 0.98078537
vn -0.1950902 0 0.98078537
vn -0.19509055 0 -0.9807852
vn -0.19509055 0 -0.9807852
vn -0.19509055 0 -0.9807852
vn -0.19509055 0 -0.9807852
vn 0.1950902 0 0.98078537
vn 0.1950902 0 0.98078537
vn 0.1950902 0 0.98078537
vn 0.1950902 0 0.98078537
vn -0.5555703 0 -0.83146954
vn -0.5555703 0 -0.83146954
vn -0.5555703 0 -0.83146954
vn -0.5555703 0 -0.83146954
vn 0.55557036 0 0.83146954
vn 0.55557036 0 0.83146954
vn 0.55557036 0 0.83146954
vn 0.55557036 0 0.83146954
vn -0.8314694 0 -0.5555705
vn -0.8314694 0 -0.5555705
vn -0.8314694 0 -0.5555705
vn -0.8314694 0 -0.5555705
vn 0.8314695 0 0.5555704
vn 0.8314695 0 0.5555704
vn 0.8314695 0 0.5555704
vn 0.8314695 0 0.5555704
vn -0.98078537 0 -0.19509035
vn -0.98078537 0 -0.19509035
vn -0.98078537 0 -0.19509035
vn -0.98078537 0 -0.19509035
vn 0.98078537 0 0.19509026
vn 0.98078537 0 0.19509026
vn 0.98078537 0 0.19509026
vn 0.98078537 0 0.19509026
vn -0 -1 0
vn -0 -1 0
vn -0 -1 0
vn -0 -1 0
vn -0 1 0
vn -0 1 0
vn -0 1 0
vn -0 1 0
vn -0 -1 0
vn -0 -1 0
vn -0 1 0
vn -0 1 0
vn -0 -1 0
vn -0 -1 0
vn -0 1 0
vn -0 1 0
vn -0 -1 0
vn -0 -1 0
vn -0 1 0
vn -0 1 0
vn -0 0.99999994 0
vn -0 -1 0
vn -0 -1 0
vn -0 1 0
vn -0 1 0
vn -0 0.99999994 0
vn -0 -1 0
vn -0 -1 0
vn -0 1 0
vn -0 0.99999994 0
vn -0 0.99999994 0
vn -0 -1 0
vn -0 -1 0
vn -0 1 0
vn -0 0.99999994 0
vn -0 0.99999994 0
vn -0 -1 0
vn -0 -0.99999994 0
vn -0 1 0
vn -0 1 0
vn -0 1 0
vn -0 -1 0
vn -0 -1 0
vn -0 -0.99999994 0
vn -0 1 0
vn -0 1 0
vn -0 -1 0
vn -0 -1 0
vn -0 -1 0
vn -0 1 0
vn -0 1 0
vn -0 -0.99999994 0
vn -0 -0.99999994 0
vn -0 -0.99999994 0
vn -0 1 0
vn -0 0.99999994 0
vn -0 0.99999994 0
vn -0 0.99999994 0
vn -0 -1 0
vn -0 -1 0
vn -0 -1 0
vn -0 -1 0
vn -0 1 0
vn -0 1 0
vn -0 1 0
vn -0 -1 0
vn -0 -1 0
vn -0 1 0
vn -0 1 0
vn -0 -0.99999994 0
vn -0 -0.99999994 0
vn -0 -1 0
vn -0 1 0
vn -0 0.99999994 0
vn -0 0.99999994 0
vn -0 -1 0
vn -0 -1 0
vn -0 -1 0
vn -0 1 0
vn -0 1 0
vn -0 1 0
g pb_Mesh254708_0
f 3/3/3 2/2/2 1/1/1
f 3/3/3 4/4/4 2/2/2
f 7/7/7 6/6/6 5/5/5
f 7/7/7 8/8/8 6/6/6
f 11/11/11 10/10/10 9/9/9
f 11/11/11 12/12/12 10/10/10
f 15/15/15 14/14/14 13/13/13
f 15/15/15 16/16/16 14/14/14
f 19/19/19 18/18/18 17/17/17
f 19/19/19 20/20/20 18/18/18
f 23/23/23 22/22/22 21/21/21
f 23/23/23 24/24/24 22/22/22
f 27/27/27 26/26/26 25/25/25
f 27/27/27 28/28/28 26/26/26
f 31/31/31 30/30/30 29/29/29
f 31/31/31 32/32/32 30/30/30
f 35/35/35 34/34/34 33/33/33
f 35/35/35 36/36/36 34/34/34
f 39/39/39 38/38/38 37/37/37
f 39/39/39 40/40/40 38/38/38
f 43/43/43 42/42/42 41/41/41
f 43/43/43 44/44/44 42/42/42
f 47/47/47 46/46/46 45/45/45
f 47/47/47 48/48/48 46/46/46
f 51/51/51 50/50/50 49/49/49
f 51/51/51 52/52/52 50/50/50
f 55/55/55 54/54/54 53/53/53
f 55/55/55 56/56/56 54/54/54
f 59/59/59 58/58/58 57/57/57
f 59/59/59 60/60/60 58/58/58
f 63/63/63 62/62/62 61/61/61
f 63/63/63 64/64/64 62/62/62
f 67/67/67 66/66/66 65/65/65
f 67/67/67 68/68/68 66/66/66
f 71/71/71 70/70/70 69/69/69
f 71/71/71 72/72/72 70/70/70
f 75/75/75 74/74/74 73/73/73
f 75/75/75 76/76/76 74/74/74
f 79/79/79 78/78/78 77/77/77
f 79/79/79 80/80/80 78/78/78
f 83/83/83 82/82/82 81/81/81
f 83/83/83 84/84/84 82/82/82
f 87/87/87 86/86/86 85/85/85
f 87/87/87 88/88/88 86/86/86
f 91/91/91 90/90/90 89/89/89
f 91/91/91 92/92/92 90/90/90
f 95/95/95 94/94/94 93/93/93
f 95/95/95 96/96/96 94/94/94
f 99/99/99 98/98/98 97/97/97
f 99/99/99 100/100/100 98/98/98
f 103/103/103 102/102/102 101/101/101
f 103/103/103 104/104/104 102/102/102
f 107/107/107 106/106/106 105/105/105
f 107/107/107 108/108/108 106/106/106
f 111/111/111 110/110/110 109/109/109
f 111/111/111 112/112/112 110/110/110
f 115/115/115 114/114/114 113/113/113
f 115/115/115 116/116/116 114/114/114
f 119/119/119 118/118/118 117/117/117
f 119/119/119 120/120/120 118/118/118
f 123/123/123 122/122/122 121/121/121
f 123/123/123 124/124/124 122/122/122
f 127/127/127 126/126/126 125/125/125
f 127/127/127 128/128/128 126/126/126
f 131/131/131 130/130/130 129/129/129
f 131/131/131 132/132/132 130/130/130
f 135/135/135 134/134/134 133/133/133
f 135/135/135 136/136/136 134/134/134
f 132/132/132 137/137/137 130/130/130
f 132/132/132 138/138/138 137/137/137
f 140/140/140 133/133/133 139/139/139
f 140/140/140 135/135/135 133/133/133
f 138/138/138 141/141/141 137/137/137
f 138/138/138 142/142/142 141/141/141
f 144/144/144 139/139/139 143/143/143
f 144/144/144 140/140/140 139/139/139
f 142/142/142 145/145/145 141/141/141
f 142/142/142 146/146/146 145/145/145
f 148/148/148 143/143/143 147/147/147
f 148/148/148 149/149/149 143/143/143
f 146/146/146 150/150/150 145/145/145
f 146/146/146 151/151/151 150/150/150
f 153/153/153 147/147/147 152/152/152
f 153/153/153 154/154/154 147/147/147
f 151/151/151 155/155/155 150/150/150
f 151/151/151 156/156/156 155/155/155
f 159/159/159 158/158/158 157/157/157
f 159/159/159 153/153/153 158/158/158
f 156/156/156 160/160/160 155/155/155
f 156/156/156 161/161/161 160/160/160
f 164/164/164 163/163/163 162/162/162
f 164/164/164 159/159/159 163/163/163
f 161/161/161 165/165/165 160/160/160
f 161/161/161 166/166/166 165/165/165
f 168/168/168 162/162/162 167/167/167
f 168/168/168 169/169/169 162/162/162
f 171/171/171 170/170/170 165/165/165
f 171/171/171 172/172/172 170/170/170
f 174/174/174 167/167/167 173/173/173
f 174/174/174 168/168/168 167/167/167
f 176/176/176 175/175/175 170/170/170
f 176/176/176 177/177/177 175/175/175
f 179/179/179 173/173/173 178/178/178
f 179/179/179 174/174/174 173/173/173
f 181/181/181 180/180/180 175/175/175
f 181/181/181 182/182/182 180/180/180
f 185/185/185 184/184/184 183/183/183
f 185/185/185 186/186/186 184/184/184
f 189/189/189 188/188/188 187/187/187
f 189/189/189 190/190/190 188/188/188
f 192/192/192 183/183/183 191/191/191
f 192/192/192 193/193/193 183/183/183
f 190/190/190 194/194/194 188/188/188
f 190/190/190 195/195/195 194/194/194
f 197/197/197 191/191/191 196/196/196
f 197/197/197 192/192/192 191/191/191
f 199/199/199 198/198/198 194/194/194
f 199/199/199 200/200/200 198/198/198
f 203/203/203 202/202/202 201/201/201
f 203/203/203 197/197/197 202/202/202
f 200/200/200 205/205/205 204/204/204
f 200/200/200 206/206/206 205/205/205
f 208/208/208 201/201/201 207/207/207
f 208/208/208 209/209/209 201/201/201
f 206/206/206 129/129/129 205/205/205
f 206/206/206 131/131/131 129/129/129
f 136/136/136 207/207/207 134/134/134
f 136/136/136 208/208/208 207/207/207
