g pb_Mesh-794762
v -0.30000305 -2 0
v -0.30000305 0 0
v -0.21213508 -2 0.21213204
v -0.21213508 0 0.21213204
v -0.21213508 -2 0.21213204
v -0.21213508 0 0.21213204
v -3.0398369E-06 -2 0.3
v -3.0398369E-06 0 0.3
v -3.0398369E-06 -2 0.3
v -3.0398369E-06 0 0.3
v 0.212129 -2 0.21213204
v 0.212129 0 0.21213204
v 0.212129 -2 0.21213204
v 0.212129 0 0.21213204
v 0.29999697 -2 -2.6226834E-08
v 0.29999697 0 -2.6226834E-08
v 0.29999697 -2 -2.6226834E-08
v 0.29999697 0 -2.6226834E-08
v 0.212129 -2 -0.21213202
v 0.212129 0 -0.21213202
v 0.212129 -2 -0.21213202
v 0.212129 0 -0.21213202
v -3.0398369E-06 -2 -0.3
v -3.0398369E-06 0 -0.3
v -3.0398369E-06 -2 -0.3
v -3.0398369E-06 0 -0.3
v -0.21213505 -2 -0.21213208
v -0.21213505 0 -0.21213208
v -0.21213505 -2 -0.21213208
v -0.21213505 0 -0.21213208
v -0.30000305 -2 0
v -0.30000305 0 0
v -0.21213508 -2 0.21213204
v -3.0398369E-06 -2 0
v -0.30000305 -2 0
v -3.0398369E-06 -2 0.3
v 0.212129 -2 0.21213204
v 0.29999697 -2 -2.6226834E-08
v 0.212129 -2 -0.21213202
v -3.0398369E-06 -2 -0.3
v -0.21213505 -2 -0.21213208
v -0.30000305 0 0
v -3.0398369E-06 0 0
v -0.21213508 0 0.21213204
v -3.0398369E-06 0 0.3
v 0.212129 0 0.21213204
v 0.29999697 0 -2.6226834E-08
v 0.212129 0 -0.21213202
v -3.0398369E-06 0 -0.3
v -0.21213505 0 -0.21213208
vt -0.114806205 -2
vt -0.114806205 0
vt 0.11480386 -2
vt 0.11480386 0
vt -0.11480783 -2
vt -0.11480783 0
vt 0.114802234 -2
vt 0.114802234 0
vt -0.11480785 -2
vt -0.11480785 0
vt 0.11480221 -2
vt 0.11480221 0
vt -0.114806205 -2
vt -0.114806205 0
vt 0.114803895 -2
vt 0.114803895 0
vt -0.11480387 -2
vt -0.11480387 0
vt 0.11480616 -2
vt 0.11480616 0
vt -0.114802204 -2
vt -0.114802204 0
vt 0.11480787 -2
vt 0.11480787 0
vt -0.1148022 -2
vt -0.1148022 0
vt 0.11480782 -2
vt 0.11480782 0
vt -0.114803895 -2
vt -0.114803895 0
vt 0.11480622 -2
vt 0.11480622 0
vt -0.21213508 0.21213204
vt -3.0398369E-06 0
vt -0.30000305 0
vt -3.0398369E-06 0.3
vt 0.212129 0.21213204
vt 0.29999697 -2.6226834E-08
vt 0.212129 -0.21213202
vt -3.0398369E-06 -0.3
vt -0.21213505 -0.21213208
vt 0.30000305 0
vt 3.0398369E-06 0
vt 0.21213508 0.21213204
vt 3.0398369E-06 0.3
vt -0.212129 0.21213204
vt -0.29999697 -2.6226834E-08
vt -0.212129 -0.21213202
vt 3.0398369E-06 -0.3
vt 0.21213505 -0.21213208
vn -1 0 -3.22578E-08
vn -1 0 -3.22578E-08
vn -0.70710677 0 0.70710677
vn -0.70710677 0 0.70710677
vn -0.70710677 0 0.70710677
vn -0.70710677 0 0.70710677
vn -0 0 1
vn -0 0 1
vn -0 0 1
vn -0 0 1
vn 0.7071068 0 0.70710677
vn 0.7071068 0 0.70710677
vn 0.7071068 0 0.70710677
vn 0.7071068 0 0.70710677
vn 1 0 -4.8386703E-08
vn 1 0 -4.8386703E-08
vn 1 0 -4.8386703E-08
vn 1 0 -4.8386703E-08
vn 0.70710677 0 -0.70710677
vn 0.70710677 0 -0.70710677
vn 0.70710677 0 -0.70710677
vn 0.70710677 0 -0.70710677
vn 9.6773405E-08 0 -1
vn 9.6773405E-08 0 -1
vn 9.6773405E-08 0 -1
vn 9.6773405E-08 0 -1
vn -0.7071067 0 -0.7071068
vn -0.7071067 0 -0.7071068
vn -0.7071067 0 -0.7071068
vn -0.7071067 0 -0.7071068
vn -1 0 -3.22578E-08
vn -1 0 -3.22578E-08
vn -0 -1 0
vn -0 -1 0
vn -0 -1 0
vn -0 -1 0
vn -0 -1 0
vn -0 -1 0
vn -0 -1 0
vn -0 -1 0
vn -0 -1 0
vn -0 1 0
vn -0 1 0
vn -0 1 0
vn -0 1 0
vn -0 1 0
vn -0 1 0
vn -0 1 0
vn -0 1 0
vn -0 1 0
g pb_Mesh-794762_0
f 3/3/3 2/2/2 1/1/1
f 3/3/3 4/4/4 2/2/2
f 7/7/7 6/6/6 5/5/5
f 7/7/7 8/8/8 6/6/6
f 11/11/11 10/10/10 9/9/9
f 11/11/11 12/12/12 10/10/10
f 15/15/15 14/14/14 13/13/13
f 15/15/15 16/16/16 14/14/14
f 19/19/19 18/18/18 17/17/17
f 19/19/19 20/20/20 18/18/18
f 23/23/23 22/22/22 21/21/21
f 23/23/23 24/24/24 22/22/22
f 27/27/27 26/26/26 25/25/25
f 27/27/27 28/28/28 26/26/26
f 31/31/31 30/30/30 29/29/29
f 31/31/31 32/32/32 30/30/30
f 35/35/35 34/34/34 33/33/33
f 33/33/33 34/34/34 36/36/36
f 36/36/36 34/34/34 37/37/37
f 37/37/37 34/34/34 38/38/38
f 38/38/38 34/34/34 39/39/39
f 39/39/39 34/34/34 40/40/40
f 40/40/40 34/34/34 41/41/41
f 41/41/41 34/34/34 35/35/35
f 44/44/44 43/43/43 42/42/42
f 45/45/45 43/43/43 44/44/44
f 46/46/46 43/43/43 45/45/45
f 47/47/47 43/43/43 46/46/46
f 48/48/48 43/43/43 47/47/47
f 49/49/49 43/43/43 48/48/48
f 50/50/50 43/43/43 49/49/49
f 42/42/42 43/43/43 50/50/50
