g pb_Mesh466188
v 0.40984875 0 -0.47598514
v -0 0 0.25
v -0.25 0 0
v -0.25 0 0.25
v -0 0 0.75
v 0.5220206 0 1.4372272
v -0.25 0 0.75
v -0.25 0 1.2096052
v -0.5 0 0.75
v -0.5 0 1
v -0.5 0 -0.4985032
v -0.5 0 0.25
v -0.75 0 0
v -0.75 0 0.25
v -1 0 0
v -1 0 0.25
v -0.75 0 0.5
v -0.75 0 0.75
v -1 0 0.5
v -1 0 0.75
v -0.75 0 1
v -1 0 1
vt -0.40984875 -0.47598514
vt 0 0.25
vt 0.25 0
vt 0.25 0.25
vt 0 0.75
vt -0.5220206 1.4372272
vt 0.25 0.75
vt 0.25 1.2096052
vt 0.5 0.75
vt 0.5 1
vt 0.5 -0.4985032
vt 0.5 0.25
vt 0.75 0
vt 0.75 0.25
vt 1 0
vt 1 0.25
vt 0.75 0.5
vt 0.75 0.75
vt 1 0.5
vt 1 0.75
vt 0.75 1
vt 1 1
vn -0 1 0
vn -0 1 0
vn -0 1 0
vn -0 1 0
vn -0 1 0
vn -0 1 0
vn -0 1 0
vn -0 1 0
vn -0 1 0
vn -0 1 0
vn -0 1 0
vn -0 1 0
vn -0 1 0
vn -0 1 0
vn -0 1 0
vn -0 1 0
vn -0 1 0
vn -0 1 0
vn -0 1 0
vn -0 1 0
vn -0 1 0
vn -0 1 0
g pb_Mesh466188_0
f 3/3/3 2/2/2 1/1/1
f 3/3/3 4/4/4 2/2/2
f 7/7/7 6/6/6 5/5/5
f 7/7/7 8/8/8 6/6/6
f 9/9/9 8/8/8 7/7/7
f 9/9/9 10/10/10 8/8/8
f 13/13/13 12/12/12 11/11/11
f 13/13/13 14/14/14 12/12/12
f 15/15/15 14/14/14 13/13/13
f 15/15/15 16/16/16 14/14/14
f 19/19/19 18/18/18 17/17/17
f 19/19/19 20/20/20 18/18/18
f 20/20/20 21/21/21 18/18/18
f 20/20/20 22/22/22 21/21/21
