g pb_Mesh-359474
v 1.848357E-07 -0.08613968 0
v -2.169401 -0.08614043 0
v -0 0.08721447 0
v -2.1694012 0.08721372 0
v -2.169401 -0.08614043 0
v -2.169401 -0.08614043 -0.16056347
v -2.1694012 0.08721372 0
v -2.1694012 0.08721372 -0.16056347
v -2.169401 -0.08614043 -0.16056347
v 1.848357E-07 -0.08613968 -0.16056347
v -2.1694012 0.08721372 -0.16056347
v -0 0.08721447 -0.16056347
v 1.848357E-07 -0.08613968 -0.16056347
v 1.848357E-07 -0.08613968 0
v -0 0.08721447 -0.16056347
v -0 0.08721447 0
v -0 0.08721447 0
v -2.1694012 0.08721372 0
v -0 0.08721447 -0.16056347
v -2.1694012 0.08721372 -0.16056347
v 1.848357E-07 -0.08613968 -0.16056347
v -2.169401 -0.08614043 -0.16056347
v 1.848357E-07 -0.08613968 0
v -2.169401 -0.08614043 0
vt 1.848357E-07 -0.08613968
vt -2.169401 -0.08614043
vt 0 0.08721447
vt -2.1694012 0.08721372
vt 0 -0.08613745
vt -0.16056347 -0.08613745
vt 0 0.0872167
vt -0.16056347 0.0872167
vt 2.169401 -0.08614043
vt -1.848357E-07 -0.08613968
vt 2.1694012 0.08721372
vt 0 0.08721447
vt 0.16056347 -0.08613968
vt -0 -0.08613968
vt 0.16056347 0.08721447
vt 0 0.08721447
vt -3.0252426E-08 0
vt 2.1694012 0
vt -3.0252426E-08 -0.16056347
vt 2.1694012 -0.16056347
vt 1.549561E-07 -0.16056347
vt -2.169401 -0.16056347
vt 1.549561E-07 0
vt -2.169401 0
vn -0 0 1
vn -0 0 1
vn -0 0 1
vn -0 0 1
vn -1 -1.3753267E-06 0
vn -1 -1.3753267E-06 0
vn -1 -1.3753267E-06 0
vn -1 -1.3753267E-06 0
vn -0 0 -1
vn -0 0 -1
vn -0 0 -1
vn -0 0 -1
vn 1 1.0662318E-06 0
vn 1 1.0662318E-06 0
vn 1 1.0662318E-06 0
vn 1 1.0662318E-06 0
vn -3.4687392E-07 1 0
vn -3.4687392E-07 1 0
vn -3.4687392E-07 1 0
vn -3.4687392E-07 1 0
vn 3.4687392E-07 -1 0
vn 3.4687392E-07 -1 0
vn 3.4687392E-07 -1 0
vn 3.4687392E-07 -1 0
g pb_Mesh-359474_0
f 3/3/3 2/2/2 1/1/1
f 3/3/3 4/4/4 2/2/2
f 7/7/7 6/6/6 5/5/5
f 7/7/7 8/8/8 6/6/6
f 11/11/11 10/10/10 9/9/9
f 11/11/11 12/12/12 10/10/10
f 15/15/15 14/14/14 13/13/13
f 15/15/15 16/16/16 14/14/14
f 19/19/19 18/18/18 17/17/17
f 19/19/19 20/20/20 18/18/18
f 23/23/23 22/22/22 21/21/21
f 23/23/23 24/24/24 22/22/22
