g pb_Mesh494632
v -0.19924259 -0.0007735491 0.25000763
v -0.118415006 -0.0007735491 0.25000763
v -0.05343187 -0.00077328086 0.25000763
v -0.15831566 -0.0007736087 1.0000076
v -0.15832876 1.2214605 0.999979
v -0.05344185 1.2214605 0.99997914
v -0.053427577 -0.00077322125 1.0000075
v -0.053442802 1.2214605 0.24997921
v -0.053443756 1.2214614 0.74997926
v -0.1184281 1.2214605 0.7499792
v -0.053442802 1.2214605 0.24997921
v -0.1184281 1.2214605 0.7499792
v -0.1184281 1.2214605 0.24997921
v -0.05344161 1.2214605 -2.0768459E-05
v -0.053442802 1.2214605 0.24997921
v -0.19925569 1.2214605 0.24997921
v -0.19925569 1.2214605 0.24997921
v -0.19925569 1.2214605 -2.08287E-05
v -0.05344161 1.2214605 -2.0768459E-05
v -0.1184281 1.2214605 0.7499792
v -0.053443756 1.2214614 0.74997926
v -0.15832876 1.2214605 0.999979
v -0.15832876 1.2214605 0.999979
v -0.15832876 1.2214605 0.7499792
v -0.1184281 1.2214605 0.7499792
v -0.053443756 1.2214614 0.74997926
v -0.05344185 1.2214605 0.99997914
v -0.15832876 1.2214605 0.999979
v -0.19925569 1.2214605 -2.08287E-05
v -0.19924259 -0.0007735491 7.623569E-06
v -0.05343187 -0.00077322125 7.683812E-06
v -0.19925569 1.2214605 -2.08287E-05
v -0.05343187 -0.00077322125 7.683812E-06
v -0.05344161 1.2214605 -2.0768459E-05
v -0.118415006 -0.0007735491 0.25000763
v -0.118415006 -0.0007735491 0.7500076
v -0.053429723 -0.00077328086 0.7500077
v -0.05343187 -0.00077328086 0.25000763
v -0.053429723 -0.00077328086 0.7500077
v -0.118415006 -0.0007735491 0.7500076
v -0.053427577 -0.00077322125 1.0000075
v -0.118415006 -0.0007735491 0.7500076
v -0.15831566 -0.0007736087 0.7500076
v -0.053427577 -0.00077322125 1.0000075
v -0.15831566 -0.0007736087 0.7500076
v -0.15831566 -0.0007736087 1.0000076
v -0.053427577 -0.00077322125 1.0000075
v -0.1184281 1.2214605 0.24997921
v -0.1184281 1.2214605 0.7499792
v -0.118415006 -0.0007735491 0.7500076
v -0.1184281 1.2214605 0.24997921
v -0.118415006 -0.0007735491 0.7500076
v -0.118415006 -0.0007735491 0.25000763
v -0.053427577 -0.00077322125 1.0000075
v -0.05344185 1.2214605 0.99997914
v -0.053443756 1.2214614 0.74997926
v -0.053429723 -0.00077328086 0.7500077
v -0.15832876 1.2214605 0.7499792
v -0.15832876 1.2214605 0.999979
v -0.15831566 -0.0007736087 1.0000076
v -0.15832876 1.2214605 0.7499792
v -0.15831566 -0.0007736087 1.0000076
v -0.15831566 -0.0007736087 0.7500076
v -0.053442802 1.2214605 0.24997921
v -0.05344161 1.2214605 -2.0768459E-05
v -0.05343187 -0.00077322125 7.683812E-06
v -0.05343187 -0.00077322125 7.683812E-06
v -0.05343187 -0.00077328086 0.25000763
v -0.19924259 -0.0007735491 7.623569E-06
v -0.19925569 1.2214605 -2.08287E-05
v -0.19925569 1.2214605 0.24997921
v -0.19924259 -0.0007735491 7.623569E-06
v -0.19925569 1.2214605 0.24997921
v -0.19924259 -0.0007735491 0.25000763
v -0.05343187 -0.00077328086 0.25000763
v -0.05343187 -0.00077322125 7.683812E-06
v -0.19924259 -0.0007735491 7.623569E-06
v -0.19924259 -0.0007735491 7.623569E-06
v -0.19924259 -0.0007735491 0.25000763
v -0.05343187 -0.00077328086 0.25000763
v -0.19925569 1.2214605 0.24997921
v -0.1184281 1.2214605 0.24997921
v -0.118415006 -0.0007735491 0.25000763
v -0.19925569 1.2214605 0.24997921
v -0.118415006 -0.0007735491 0.25000763
v -0.19924259 -0.0007735491 0.25000763
v -0.15831566 -0.0007736087 0.7500076
v -0.118415006 -0.0007735491 0.7500076
v -0.1184281 1.2214605 0.7499792
v -0.15831566 -0.0007736087 0.7500076
v -0.1184281 1.2214605 0.7499792
v -0.15832876 1.2214605 0.7499792
vt 0.20016754 0.061667044
vt 0.20016754 0.061667044
vt 0.20566434 0.061667047
vt 0.26518694 0.061667044
vt 0.26518694 0.06166705
vt 0.26612926 0.06166705
vt 0.2246676 0.06166704
vt 0.27775106 0.06166705
vt 0.2866716 0.06166705
vt 0.3000524 0.061667047
vt 0.27775106 0.06166705
vt 0.3000524 0.061667047
vt 0.3000524 0.061667047
vt 0.26612923 0.06166705
vt 0.27775106 0.06166705
vt 0.3000524 0.061667047
vt 0.3000524 0.061667047
vt 0.3000524 0.061667047
vt 0.26612923 0.06166705
vt 0.3000524 0.061667047
vt 0.2866716 0.06166705
vt 0.3000524 0.06166705
vt 0.3000524 0.06166705
vt 0.3000524 0.061667047
vt 0.3000524 0.061667047
vt 0.2866716 0.06166705
vt 0.26612926 0.06166705
vt 0.3000524 0.06166705
vt 0.26518694 0.061667047
vt 0.26518694 0.061667047
vt 0.23283426 0.061667047
vt 0.26518694 0.061667047
vt 0.23283426 0.061667047
vt 0.26612923 0.06166705
vt 0.20016754 0.061667044
vt 0.20016754 0.06166704
vt 0.20841275 0.06166704
vt 0.20566434 0.061667047
vt 0.20841275 0.06166704
vt 0.20016754 0.06166704
vt 0.2246676 0.06166704
vt 0.20016754 0.06166704
vt 0.20016754 0.06166704
vt 0.2246676 0.06166704
vt 0.20016754 0.06166704
vt 0.20016754 0.061667036
vt 0.2246676 0.06166704
vt 0.20355406 0.06166705
vt 0.20355406 0.06166705
vt 0.20355406 0.061667044
vt 0.20355406 0.06166705
vt 0.20355406 0.061667044
vt 0.20355406 0.061667044
vt 0.2246676 0.06166704
vt 0.26612926 0.06166705
vt 0.2866716 0.06166705
vt 0.20841275 0.06166704
vt 0.2331484 0.06166705
vt 0.2331484 0.06166705
vt 0.2331484 0.061667044
vt 0.2331484 0.06166705
vt 0.2331484 0.061667044
vt 0.2331484 0.061667044
vt 0.27775106 0.06166705
vt 0.26612923 0.06166705
vt 0.23283426 0.061667047
vt 0.23283426 0.061667047
vt 0.20566434 0.061667047
vt 0.2331484 0.061667044
vt 0.2331484 0.06166705
vt 0.2331484 0.06166705
vt 0.2331484 0.061667044
vt 0.2331484 0.06166705
vt 0.2331484 0.061667044
vt 0.20566434 0.061667047
vt 0.23283426 0.061667047
vt 0.20016754 0.061667047
vt 0.20016754 0.061667047
vt 0.20016754 0.061667044
vt 0.20566434 0.061667047
vt 0.17267302 0.06166705
vt 0.17267302 0.06166705
vt 0.17267302 0.061667044
vt 0.17267302 0.06166705
vt 0.17267302 0.061667044
vt 0.17267302 0.061667044
vt 0.17267302 0.061667044
vt 0.17267302 0.061667044
vt 0.17267302 0.06166705
vt 0.17267302 0.061667044
vt 0.17267302 0.06166705
vt 0.17267302 0.06166705
vn 9.1975716E-07 -0.5 -0.49999997
vn 2.0637387E-06 -0.5 -0.49999997
vn 2.0571504E-06 -0.6666667 -0.33333337
vn -4.0737982E-11 2.3310613E-05 1
vn -1.1365461E-06 2.340813E-05 0.99999994
vn -4.0737982E-11 2.3310613E-05 1
vn 1.1364523E-06 2.3213099E-05 1
vn -3.6688346E-06 1 -4.768407E-07
vn -9.78363E-06 1 -1.449727E-07
vn -8.21512E-06 1 -1.2024402E-06
vn -3.6688346E-06 1 -4.768407E-07
vn -8.21512E-06 1 -1.2024402E-06
vn -0 1 0
vn -0 1 0
vn -3.6688346E-06 1 -4.768407E-07
vn -0 1 0
vn -0 1 0
vn -0 1 0
vn -0 1 0
vn -8.21512E-06 1 -1.2024402E-06
vn -9.78363E-06 1 -1.449727E-07
vn -4.5462875E-06 1 1.18175E-06
vn -4.5462875E-06 1 1.18175E-06
vn -0 1 0
vn -8.21512E-06 1 -1.2024402E-06
vn -9.78363E-06 1 -1.449727E-07
vn -4.335599E-12 1 3.814699E-06
vn -4.5462875E-06 1 1.18175E-06
vn 4.1318356E-07 -2.3278903E-05 -0.99999994
vn 4.1322937E-07 -2.3278899E-05 -1
vn 4.1318356E-07 -2.3278903E-05 -0.99999994
vn 4.1318356E-07 -2.3278903E-05 -0.99999994
vn 4.1318356E-07 -2.3278903E-05 -0.99999994
vn 4.131377E-07 -2.327891E-05 -1
vn 2.0637387E-06 -0.5 -0.49999997
vn 3.2495484E-06 -1 3.8712201E-07
vn 4.1274434E-06 -1 1.19187234E-07
vn 2.0571504E-06 -0.6666667 -0.33333337
vn 4.1274434E-06 -1 1.19187234E-07
vn 3.2495484E-06 -1 3.8712201E-07
vn 3.6074534E-06 -1 2.463687E-07
vn 3.2495484E-06 -1 3.8712201E-07
vn 3.0874976E-06 -1 2.543541E-07
vn 3.6074534E-06 -1 2.463687E-07
vn 3.0874976E-06 -1 2.543541E-07
vn 3.6937486E-06 -1 0
vn 3.6074534E-06 -1 2.463687E-07
vn -1 -1.07165415E-05 0
vn -1 -1.07165415E-05 0
vn -1 -1.07165415E-05 0
vn -1 -1.07165415E-05 0
vn -1 -1.07165415E-05 0
vn -1 -1.07165415E-05 0
vn 1 1.1578916E-05 -8.1062135E-06
vn 1 1.1676466E-05 -7.6293513E-06
vn 1 1.1578916E-05 -8.1062135E-06
vn 1 1.14813665E-05 -8.583077E-06
vn -1 -1.07165415E-05 0
vn -1 -1.0716541E-05 0
vn -1 -1.07165415E-05 0
vn -1 -1.07165415E-05 0
vn -1 -1.07165415E-05 0
vn -1 -1.07165415E-05 0
vn 1 8.458078E-06 2.3841876E-06
vn 1 7.970464E-06 4.768372E-06
vn 1 8.458078E-06 2.3841876E-06
vn 1 8.458078E-06 2.3841876E-06
vn 1 8.945693E-06 2.9765008E-12
vn -1 -1.0716541E-05 0
vn -1 -1.0716541E-05 0
vn -1 -1.0716541E-05 0
vn -1 -1.0716541E-05 0
vn -1 -1.0716541E-05 0
vn -1 -1.07165415E-05 0
vn 2.0571504E-06 -0.6666667 -0.33333337
vn 2.2482952E-06 -1 -2.3841864E-07
vn 2.0439047E-06 -1 -1.192093E-07
vn 2.0439047E-06 -1 -1.192093E-07
vn 9.1975716E-07 -0.5 -0.49999997
vn 2.0571504E-06 -0.6666667 -0.33333337
vn -0 2.3249651E-05 1
vn -0 2.3249651E-05 1
vn -0 2.3249651E-05 1
vn -0 2.3249651E-05 1
vn -0 2.3249651E-05 1
vn -0 2.3249653E-05 1
vn 1.7374577E-11 -2.3261844E-05 -1
vn 3.4749155E-11 -2.3261844E-05 -1
vn 1.7374577E-11 -2.3261844E-05 -1
vn 1.7374577E-11 -2.3261844E-05 -1
vn 1.7374577E-11 -2.3261844E-05 -1
vn -0 -2.3261842E-05 -0.99999994
g pb_Mesh494632_0
f 3/3/3 2/2/2 1/1/1
f 6/6/6 5/5/5 4/4/4
f 7/7/7 6/6/6 4/4/4
f 10/10/10 9/9/9 8/8/8
f 13/13/13 12/12/12 11/11/11
f 16/16/16 15/15/15 14/14/14
f 19/19/19 18/18/18 17/17/17
f 22/22/22 21/21/21 20/20/20
f 25/25/25 24/24/24 23/23/23
f 28/28/28 27/27/27 26/26/26
f 31/31/31 30/30/30 29/29/29
f 34/34/34 33/33/33 32/32/32
f 37/37/37 36/36/36 35/35/35
f 38/38/38 37/37/37 35/35/35
f 41/41/41 40/40/40 39/39/39
f 44/44/44 43/43/43 42/42/42
f 47/47/47 46/46/46 45/45/45
f 50/50/50 49/49/49 48/48/48
f 53/53/53 52/52/52 51/51/51
f 56/56/56 55/55/55 54/54/54
f 57/57/57 56/56/56 54/54/54
f 60/60/60 59/59/59 58/58/58
f 63/63/63 62/62/62 61/61/61
f 66/66/66 65/65/65 64/64/64
f 68/68/68 67/67/67 64/64/64
f 71/71/71 70/70/70 69/69/69
f 74/74/74 73/73/73 72/72/72
f 77/77/77 76/76/76 75/75/75
f 80/80/80 79/79/79 78/78/78
f 83/83/83 82/82/82 81/81/81
f 86/86/86 85/85/85 84/84/84
f 89/89/89 88/88/88 87/87/87
f 92/92/92 91/91/91 90/90/90
