g pb_Mesh253604
v -0 0 0
v -0 0 0.5
v -0.27290154 -6.6327004E-07 0
v -0.27290154 -6.6327004E-07 0.5
v -0 0 2.6256714
v -0.26358318 -6.9048554E-07 2.6256714
v -2.0047598 2.9345297E-06 0
v -2.0047598 2.9345297E-06 0.5
v -0.31141567 -2.0110967E-06 2.6256714
vt 0 0
vt 0 0.5
vt 0.27290154 0
vt 0.27290154 0.5
vt 0 2.6256714
vt 0.26358318 2.6256714
vt 2.0047598 0
vt 2.0047598 0.5
vt 0.31141567 2.6256714
vn -2.4304372E-06 1 0
vn -2.4304372E-06 1 0
vn -2.4304372E-06 1 0
vn -2.4304372E-06 1 0
vn -2.5233815E-06 1 1.1932536E-08
vn -2.6196117E-06 1 2.4286916E-08
vn 2.0774214E-06 1 0
vn 2.0774214E-06 1 0
vn -2.7609083E-05 1 2.432046E-05
g pb_Mesh253604_0
f 3/3/3 2/2/2 1/1/1
f 3/3/3 4/4/4 2/2/2
f 4/4/4 5/5/5 2/2/2
f 4/4/4 6/6/6 5/5/5
f 7/7/7 4/4/4 3/3/3
f 7/7/7 8/8/8 4/4/4
f 8/8/8 6/6/6 4/4/4
f 8/8/8 9/9/9 6/6/6
