g pb_Mesh311430
v 0.55942583 -1.1009808 0.5820389
v -0.072193384 -1.1009808 0.4953537
v -0.0042096376 -0.59324193 0.5
v 0.63333035 -0.59324193 0.5
v -0.072193384 -1.1009808 0.4953537
v -0.70381284 -1.1009808 0.40866852
v -0.6417496 -0.59324193 0.5
v -0.0042096376 -0.59324193 0.5
v -0.0042096376 -0.59324193 -0.5
v 0.69539356 -1.1009808 -0.40866852
v 0.63333035 -0.59324193 -0.5
v 0.06377435 -1.1009808 -0.4953537
v -0.6417496 -0.59324193 -0.5
v 0.06377435 -1.1009808 -0.4953537
v -0.0042096376 -0.59324193 -0.5
v -0.5678451 -1.1009808 -0.5820389
v 0.63333035 -0.59324193 0.5
v -0.0042096376 -0.59324193 0.5
v -0.026439428 0.16062737 0.4599533
v 0.5600362 0.16062737 0.4882965
v -0.0042096376 -0.59324193 0.5
v -0.6417496 -0.59324193 0.5
v -0.61291504 0.16062737 0.43160248
v -0.026439428 0.16062737 0.4599533
v 0.5600362 0.16062737 0.4882965
v -0.026439428 0.16062737 0.4599533
v -0.0042096376 0.9144969 0.5
v 0.63333035 0.9144969 0.5
v -0.026439428 0.16062737 0.4599533
v -0.61291504 0.16062737 0.43160248
v -0.6417496 0.9144969 0.5
v -0.0042096376 0.9144969 0.5
v 0.018020391 0.16062737 -0.4599533
v 0.63333035 -0.59324193 -0.5
v 0.604496 0.07613039 -0.43160248
v -0.0042096376 -0.59324193 -0.5
v -0.56845546 0.16062737 -0.4882965
v -0.0042096376 -0.59324193 -0.5
v 0.018020391 0.16062737 -0.4599533
v -0.6417496 -0.59324193 -0.5
v -0.049861312 0.8839936 -0.4609909
v 0.604496 0.07613039 -0.43160248
v 0.5876787 0.9144969 -0.4609909
v 0.018020391 0.16062737 -0.4599533
v -0.6874013 0.9144969 -0.4609909
v 0.018020391 0.16062737 -0.4599533
v -0.049861312 0.8839936 -0.4609909
v -0.56845546 0.16062737 -0.4882965
v -0.70381284 -1.1009808 0.40866852
v -0.60888696 -1.1009808 -0.082984924
v -0.6145552 -0.59324193 0
v -0.6417496 -0.59324193 0.5
v -0.60888696 -1.1009808 -0.082984924
v -0.5678451 -1.1009808 -0.5820389
v -0.6417496 -0.59324193 -0.5
v -0.6145552 -0.59324193 0
v 0.6061359 -0.59324193 0
v 0.55942583 -1.1009808 0.5820389
v 0.63333035 -0.59324193 0.5
v 0.6004677 -1.1009808 0.082984924
v 0.63333035 -0.59324193 -0.5
v 0.6004677 -1.1009808 0.082984924
v 0.6061359 -0.59324193 0
v 0.69539356 -1.1009808 -0.40866852
v -0.6417496 -0.59324193 0.5
v -0.6145552 -0.59324193 0
v -0.61291504 0.16062737 0.43160248
v -0.5656688 0.16062737 -0.027137756
v -0.6145552 -0.59324193 0
v -0.6417496 -0.59324193 -0.5
v -0.5656688 0.16062737 -0.027137756
v -0.56845546 0.16062737 -0.4882965
v -0.61291504 0.16062737 0.43160248
v -0.5656688 0.16062737 -0.027137756
v -0.6417496 0.9144969 0.5
v -0.6145552 0.91449696 0
v -0.5656688 0.16062737 -0.027137756
v -0.56845546 0.16062737 -0.4882965
v -0.6145552 0.91449696 0
v -0.6874013 0.9144969 -0.4609909
v 0.5600362 0.16062737 0.4882965
v 0.55725 0.07613039 0.027137756
v 0.6061359 -0.59324193 0
v 0.63333035 -0.59324193 0.5
v 0.55725 0.07613039 0.027137756
v 0.604496 0.07613039 -0.43160248
v 0.63333035 -0.59324193 -0.5
v 0.6061359 -0.59324193 0
v 0.63333035 0.9144969 0.5
v 0.6061359 0.91449696 0
v 0.55725 0.07613039 0.027137756
v 0.5600362 0.16062737 0.4882965
v 0.6061359 0.91449696 0
v 0.5876787 0.9144969 -0.4609909
v 0.604496 0.07613039 -0.43160248
v 0.55725 0.07613039 0.027137756
v -0.049861312 0.8839936 -0.4609909
v 0.5876787 0.9144969 -0.4609909
v 0.6061359 0.91449696 0
v -0.0042096376 0.8839937 0
v -0.0042096376 0.8839937 0
v 0.6061359 0.91449696 0
v 0.63333035 0.9144969 0.5
v -0.0042096376 0.9144969 0.5
v -0.6874013 0.9144969 -0.4609909
v -0.049861312 0.8839936 -0.4609909
v -0.0042096376 0.8839937 0
v -0.6145552 0.91449696 0
v -0.6145552 0.91449696 0
v -0.0042096376 0.8839937 0
v -0.0042096376 0.9144969 0.5
v -0.6417496 0.9144969 0.5
v 0.6004677 -1.1009808 0.082984924
v 0.06377435 -1.1009808 -0.4953537
v -0.0042096376 -1.1009808 0
v 0.69539356 -1.1009808 -0.40866852
v 0.55942583 -1.1009808 0.5820389
v -0.0042096376 -1.1009808 0
v -0.072193384 -1.1009808 0.4953537
v -0.5678451 -1.1009808 -0.5820389
v -0.60888696 -1.1009808 -0.082984924
v -0.70381284 -1.1009808 0.40866852
vt 0.58161044 -1.1061586
vt -0.052899078 -1.1055791
vt 0.015213835 -0.597881
vt 0.65227276 -0.59764993
vt -0.052899078 -1.1055791
vt -0.6874088 -1.1049995
vt -0.62184507 -0.59811217
vt 0.015213835 -0.597881
vt -0.024088504 -0.6062162
vt 0.6785931 -1.1121039
vt 0.6129472 -0.60688525
vt 0.044026464 -1.113727
vt -0.6611242 -0.60554713
vt 0.044026464 -1.113727
vt -0.024088504 -0.6062162
vt -0.5905404 -1.1153501
vt 0.65227276 -0.59764993
vt 0.015213835 -0.597881
vt -0.008554619 0.15632091
vt 0.5785793 0.15626918
vt 0.015213835 -0.597881
vt -0.62184507 -0.59811217
vt -0.5956888 0.15637271
vt -0.008554619 0.15632091
vt 0.5785793 0.15626918
vt -0.008554619 0.15632091
vt 0.015213835 0.9097922
vt 0.65227276 0.91002333
vt -0.008554619 0.15632091
vt -0.5956888 0.15637271
vt -0.62184507 0.90956104
vt 0.015213835 0.9097922
vt -0.000283626 0.14842322
vt 0.6129472 -0.60688525
vt 0.5868555 0.064087845
vt -0.024088504 -0.6062162
vt -0.58742267 0.14829127
vt -0.024088504 -0.6062162
vt -0.000283626 0.14842322
vt -0.6611242 -0.60554713
vt -0.0681529 0.8715814
vt 0.5868555 0.064087845
vt 0.5688828 0.901405
vt -0.000283626 0.14842322
vt -0.70518863 0.9027431
vt -0.000283626 0.14842322
vt -0.0681529 0.8715814
vt -0.58742267 0.14829127
vt 0.43195552 -1.1057256
vt -0.06259502 -1.105183
vt 0.020532958 -0.59747636
vt 0.52116245 -0.59754884
vt -0.06259502 -1.105183
vt -0.56274164 -1.1050147
vt -0.47827932 -0.5977799
vt 0.020532958 -0.59747636
vt -0.019266231 -0.6022622
vt 0.56396323 -1.1095212
vt 0.47961676 -0.60290825
vt 0.06385693 -1.1098984
vt -0.519878 -0.6024315
vt 0.06385693 -1.1098984
vt -0.019266231 -0.6022622
vt -0.43056536 -1.1110872
vt 0.52116245 -0.59754884
vt 0.020532958 -0.59747636
vt 0.4518397 0.15648599
vt -0.008222995 0.15670659
vt 0.020532958 -0.59747636
vt -0.47827932 -0.5977799
vt -0.008222995 0.15670659
vt -0.46903118 0.15658075
vt 0.4518397 0.15648599
vt -0.008222995 0.15670659
vt 0.52116245 0.910154
vt 0.020532958 0.91022646
vt -0.008222995 0.15670659
vt -0.46903118 0.15658075
vt 0.020532958 0.91022646
vt -0.43776673 0.9096163
vt 0.47024885 0.15198062
vt 0.0094116675 0.06775478
vt -0.019266231 -0.6022622
vt 0.47961676 -0.60290825
vt 0.0094116675 0.06775478
vt -0.4505985 0.0672652
vt -0.519878 -0.6024315
vt -0.019266231 -0.6022622
vt 0.47961676 0.904661
vt -0.019266231 0.9053071
vt 0.0094116675 0.06775478
vt 0.47024885 0.15198062
vt -0.019266231 0.9053071
vt -0.47943753 0.90580356
vt -0.4505985 0.0672652
vt 0.0094116675 0.06775478
vt 0.050058212 -0.44662085
vt -0.587475 -0.44612476
vt -0.60593224 0.014805842
vt 0.004406538 0.014309862
vt 0.004406538 0.014309862
vt -0.60593224 0.014805842
vt -0.6331267 0.51474047
vt 0.004413332 0.51473814
vt 0.68760496 -0.44612935
vt 0.050058212 -0.44662085
vt 0.004406538 0.014309862
vt 0.61475885 0.014801441
vt 0.61475885 0.014801441
vt 0.004406538 0.014309862
vt 0.004413332 0.51473814
vt 0.6419533 0.5147359
vt -0.6004677 0.082984924
vt -0.06377435 -0.4953537
vt 0.0042096376 0
vt -0.69539356 -0.40866852
vt -0.55942583 0.5820389
vt 0.0042096376 0
vt 0.072193384 0.4953537
vt 0.5678451 -0.5820389
vt 0.60888696 -0.082984924
vt 0.70381284 0.40866852
vn -0.067894466 0.08524565 0.99404407
vn -0.13596256 0.009139109 0.9906718
vn -0.067894466 0.08524565 0.99404407
vn -0 0.1595082 0.9871966
vn -0.067894384 -0.085257 0.99404305
vn -0.13422708 -0.15951918 0.97802687
vn -0.067894384 -0.085257 0.99404305
vn -0 -0.009150584 0.99995816
vn 0.0678944 -0.085256994 -0.99404305
vn 0.0678944 -0.085256994 -0.99404305
vn -0 -0.1770375 -0.98420405
vn 0.13596256 0.009139181 -0.9906718
vn 0.067894444 0.085245654 -0.99404395
vn 0.067894444 0.085245654 -0.99404395
vn -0 -0.009150584 -0.99995816
vn 0.13382073 0.17702658 -0.97506595
vn -0.02313723 0.032829475 0.9991931
vn -0 0.053046737 0.998592
vn -0.02313723 0.032829475 0.9991931
vn -0.048268855 0.010812668 0.99877584
vn -0.023096139 0.07182127 0.99715006
vn -0 0.09035748 0.9959094
vn -0.023096139 0.07182127 0.99715006
vn -0.048220396 0.05156707 0.99750465
vn -0.02313723 -0.032829463 0.99919313
vn -0.048207447 -0.051567476 0.9975053
vn -0.02313723 -0.032829463 0.99919313
vn -0 -0.015522688 0.99987954
vn -0.023096137 -0.07182125 0.9971501
vn -0.048079513 -0.09207677 0.9945904
vn -0.023096137 -0.07182125 0.9971501
vn -0 -0.053046726 0.9985921
vn 0.028337369 0.076075226 -0.99669933
vn 0.028337369 0.076075226 -0.99669933
vn 0.06298506 0.10413523 -0.99256676
vn -0 0.053046737 -0.998592
vn 0.023137227 0.03282947 -0.99919313
vn 0.023137227 0.03282947 -0.99919313
vn 0.048207432 0.051567473 -0.9975053
vn -0 0.015522692 -0.99987954
vn 0.02234692 -0.018262144 -0.9995834
vn 0.02234692 -0.018262144 -0.9995834
vn 0.0016745499 -0.034999274 -0.99938595
vn 0.048735842 0.00314075 -0.9988068
vn 0.023661926 0.020765597 -0.9995043
vn 0.023661926 0.020765597 -0.9995043
vn -6.893878E-05 -0.0014408693 -0.999999
vn 0.04822543 0.04375275 -0.9978777
vn -0.989641 0.07588072 -0.1218725
vn -0.9816697 0.020018721 -0.18953568
vn -0.989641 0.07588072 -0.1218725
vn -0.9899597 0.13069244 -0.053842798
vn -0.99702114 -0.07588074 -0.013819236
vn -0.9880872 -0.1306925 -0.08125961
vn -0.99702114 -0.07588074 -0.013819236
vn -0.99832416 -0.02001938 0.05429773
vn 0.99702114 -0.07588074 0.013819236
vn 0.99702114 -0.07588074 0.013819236
vn 0.98687285 -0.15231806 -0.05367491
vn 0.99663275 0.0022698788 0.08196239
vn 0.989641 0.07588072 0.1218725
vn 0.989641 0.07588072 0.1218725
vn 0.9985215 -0.002270967 0.054308467
vn 0.9704094 0.15231992 0.18736158
vn -0.99797225 0.0332466 -0.05427859
vn -0.99592364 0.04643815 -0.07732773
vn -0.99592364 0.04643815 -0.07732773
vn -0.9929036 0.060705915 -0.10226035
vn -0.99631006 0.066558644 0.054188184
vn -0.9962256 0.081047855 0.031074906
vn -0.9962256 0.081047855 0.031074906
vn -0.99529797 0.09667344 0.006014277
vn -0.9943273 -0.028740553 -0.102406986
vn -0.9959237 -0.04643814 -0.07732774
vn -0.9959237 -0.04643814 -0.07732774
vn -0.9965612 -0.062673084 -0.054201864
vn -0.9978719 -0.0649263 0.006029824
vn -0.9902516 -0.11316143 0.08121834
vn -0.9902516 -0.11316143 0.08121834
vn -0.97510904 -0.15943424 0.15408745
vn 0.995557 0.085883535 -0.03860371
vn 0.997096 0.07361139 -0.019511737
vn 0.995557 0.085883535 -0.03860371
vn 0.9939321 0.09579478 -0.05405885
vn 0.99563557 0.052284546 0.07730512
vn 0.99421716 0.03236469 0.102395125
vn 0.99563557 0.052284546 0.07730512
vn 0.9960364 0.07054665 0.05417331
vn 0.9967551 -0.076721884 -0.024346191
vn 0.9967327 -0.05987515 -0.054211184
vn 0.9967551 -0.076721884 -0.024346191
vn 0.9952207 -0.09694169 0.01174961
vn 0.99934757 -0.018058594 0.031280838
vn 0.9990259 0.018637953 -0.039999176
vn 0.99934757 -0.018058594 0.031280838
vn 0.99325407 -0.05460621 0.10229593
vn -0.04882934 0.9988014 0.0033951607
vn -0.047790512 0.99885553 0.0019133147
vn -0.04882934 0.9988014 0.0033951607
vn -0.04991415 0.9987414 0.004942842
vn -0.024425805 0.99925697 -0.02981624
vn -0.049914572 0.9987498 0.0027149206
vn -0.024425805 0.99925697 -0.02981624
vn -0 0.99814427 -0.06089321
vn 0.048828654 0.9987874 -0.0062758364
vn 0.04779007 0.9988463 -0.0047327545
vn 0.048828654 0.9987874 -0.0062758364
vn 0.049913205 0.99872243 -0.007887449
vn 0.024425805 0.99925697 -0.029816244
vn 0.04982236 0.9969047 -0.06081759
vn 0.024425805 0.99925697 -0.029816244
vn -0 1 1.1920929E-07
vn -0 -1 0
vn -0 -1 0
vn -0 -0.99999994 0
vn -0 -1 0
vn -0 -1 0
vn -0 -1 0
vn -0 -1 0
vn -0 -1 0
vn -0 -1 0
vn -0 -1 0
g pb_Mesh311430_0
f 3/3/3 2/2/2 1/1/1
f 3/3/3 1/1/1 4/4/4
f 7/7/7 6/6/6 5/5/5
f 7/7/7 5/5/5 8/8/8
f 11/11/11 10/10/10 9/9/9
f 10/10/10 12/12/12 9/9/9
f 15/15/15 14/14/14 13/13/13
f 14/14/14 16/16/16 13/13/13
f 19/19/19 18/18/18 17/17/17
f 19/19/19 17/17/17 20/20/20
f 23/23/23 22/22/22 21/21/21
f 23/23/23 21/21/21 24/24/24
f 27/27/27 26/26/26 25/25/25
f 27/27/27 25/25/25 28/28/28
f 31/31/31 30/30/30 29/29/29
f 31/31/31 29/29/29 32/32/32
f 35/35/35 34/34/34 33/33/33
f 34/34/34 36/36/36 33/33/33
f 39/39/39 38/38/38 37/37/37
f 38/38/38 40/40/40 37/37/37
f 43/43/43 42/42/42 41/41/41
f 42/42/42 44/44/44 41/41/41
f 47/47/47 46/46/46 45/45/45
f 46/46/46 48/48/48 45/45/45
f 51/51/51 50/50/50 49/49/49
f 51/51/51 49/49/49 52/52/52
f 55/55/55 54/54/54 53/53/53
f 55/55/55 53/53/53 56/56/56
f 59/59/59 58/58/58 57/57/57
f 58/58/58 60/60/60 57/57/57
f 63/63/63 62/62/62 61/61/61
f 62/62/62 64/64/64 61/61/61
f 67/67/67 66/66/66 65/65/65
f 67/67/67 68/68/68 66/66/66
f 71/71/71 70/70/70 69/69/69
f 71/71/71 72/72/72 70/70/70
f 75/75/75 74/74/74 73/73/73
f 75/75/75 76/76/76 74/74/74
f 79/79/79 78/78/78 77/77/77
f 79/79/79 80/80/80 78/78/78
f 83/83/83 82/82/82 81/81/81
f 84/84/84 83/83/83 81/81/81
f 87/87/87 86/86/86 85/85/85
f 88/88/88 87/87/87 85/85/85
f 91/91/91 90/90/90 89/89/89
f 92/92/92 91/91/91 89/89/89
f 95/95/95 94/94/94 93/93/93
f 96/96/96 95/95/95 93/93/93
f 99/99/99 98/98/98 97/97/97
f 99/99/99 97/97/97 100/100/100
f 103/103/103 102/102/102 101/101/101
f 103/103/103 101/101/101 104/104/104
f 107/107/107 106/106/106 105/105/105
f 107/107/107 105/105/105 108/108/108
f 111/111/111 110/110/110 109/109/109
f 111/111/111 109/109/109 112/112/112
f 115/115/115 114/114/114 113/113/113
f 114/114/114 116/116/116 113/113/113
f 119/119/119 118/118/118 117/117/117
f 118/118/118 113/113/113 117/117/117
f 121/121/121 120/120/120 118/118/118
f 120/120/120 114/114/114 118/118/118
f 122/122/122 121/121/121 119/119/119
f 121/121/121 118/118/118 119/119/119
