g pb_Mesh291210
v -0.059999943 -0.3000008 2.3257735E-07
v -0.059999943 11.250001 -1.14429E-06
v 0.016151905 -0.30000076 0.18384768
v 0.016151905 11.250001 0.18384631
v 0.016151905 -0.30000076 0.18384768
v 0.016151905 11.250001 0.18384631
v 0.19999981 -0.30000076 0.2600005
v 0.19999981 11.250001 0.25999913
v 0.19999981 -0.30000076 0.2600005
v 0.19999981 11.250001 0.25999913
v 0.3838477 -0.30000076 0.18384768
v 0.3838477 11.250001 0.18384631
v 0.3838477 -0.30000076 0.18384768
v 0.3838477 11.250001 0.18384631
v 0.46000004 -0.3000008 2.3257735E-07
v 0.46000004 11.250001 -1.14429E-06
v 0.46000004 -0.3000008 2.3257735E-07
v 0.46000004 11.250001 -1.14429E-06
v 0.3838477 -0.3000008 -0.18384722
v 0.3838477 11.250001 -0.18384859
v 0.3838477 -0.3000008 -0.18384722
v 0.3838477 11.250001 -0.18384859
v 0.19999981 -0.30000082 -0.26000002
v 0.19999981 11.250001 -0.2600014
v 0.19999981 -0.30000082 -0.26000002
v 0.19999981 11.250001 -0.2600014
v 0.016151905 -0.3000008 -0.18384722
v 0.016151905 11.250001 -0.18384859
v 0.016151905 -0.3000008 -0.18384722
v 0.016151905 11.250001 -0.18384859
v -0.059999943 -0.3000008 2.3257735E-07
v -0.059999943 11.250001 -1.14429E-06
v 0.016151905 -0.30000076 0.18384768
v 0.19999981 -0.3000008 2.3257735E-07
v -0.059999943 -0.3000008 2.3257735E-07
v 0.19999981 -0.30000076 0.2600005
v 0.3838477 -0.30000076 0.18384768
v 0.46000004 -0.3000008 2.3257735E-07
v 0.3838477 -0.3000008 -0.18384722
v 0.19999981 -0.30000082 -0.26000002
v 0.016151905 -0.3000008 -0.18384722
v -0.059999943 11.250001 -1.14429E-06
v 0.19999981 11.250001 -1.14429E-06
v 0.016151905 11.250001 0.18384631
v 0.19999981 11.250001 0.25999913
v 0.3838477 11.250001 0.18384631
v 0.46000004 11.250001 -1.14429E-06
v 0.3838477 11.250001 -0.18384859
v 0.19999981 11.250001 -0.2600014
v 0.016151905 11.250001 -0.18384859
vt -0.0229607 -0.3000008
vt -0.022961972 11.250001
vt 0.17603424 -0.30000076
vt 0.17603298 11.250001
vt 0.08527827 -0.3000008
vt 0.08527774 11.250001
vt 0.284274 -0.3000008
vt 0.28427348 11.250001
vt 0.08527708 -0.3000008
vt 0.08527761 11.250001
vt 0.28427282 -0.3000008
vt 0.28427336 11.250001
vt -0.022960514 -0.3000008
vt -0.022959247 11.250001
vt 0.17603461 -0.30000082
vt 0.17603588 11.250001
vt -0.17603503 -0.30000076
vt -0.17603377 11.250001
vt 0.02296011 -0.30000076
vt 0.022961376 11.250001
vt -0.284273 -0.30000076
vt -0.2842725 11.250001
vt -0.08527728 -0.3000008
vt -0.08527676 11.250001
vt -0.2842738 -0.3000008
vt -0.28427434 11.250001
vt -0.08527809 -0.30000076
vt -0.08527861 11.250001
vt -0.17603382 -0.3000008
vt -0.17603509 11.250001
vt 0.02296113 -0.3000008
vt 0.022959858 11.250001
vt 0.016151905 0.18384764
vt 0.19999981 1.8394616E-07
vt -0.059999943 1.8394616E-07
vt 0.19999982 0.26000047
vt 0.3838477 0.18384765
vt 0.46000004 1.8394616E-07
vt 0.3838477 -0.18384722
vt 0.19999978 -0.26000005
vt 0.016151939 -0.18384725
vt 0.059999943 -1.14429E-06
vt -0.19999981 -1.14429E-06
vt -0.016151905 0.18384631
vt -0.19999981 0.25999913
vt -0.3838477 0.18384631
vt -0.46000004 -1.14429E-06
vt -0.3838477 -0.18384859
vt -0.19999981 -0.2600014
vt -0.016151905 -0.18384859
vn -1 -2.6718032E-11 0
vn -1 -2.137577E-10 0
vn -0.7071081 8.398207E-08 0.7071055
vn -0.7071081 8.392862E-08 0.70710546
vn -0.7071081 8.398207E-08 0.7071055
vn -0.7071081 8.392862E-08 0.70710546
vn -0 1.18693215E-07 1
vn -0 1.18693215E-07 1
vn -0 1.18693215E-07 1
vn -0 1.18693215E-07 1
vn 0.70710725 8.392871E-08 0.7071063
vn 0.7071073 8.4062314E-08 0.7071063
vn 0.70710725 8.392871E-08 0.7071063
vn 0.7071073 8.4062314E-08 0.7071063
vn 1 2.6719979E-11 0
vn 1 2.137579E-10 0
vn 1 2.6719979E-11 0
vn 1 2.137579E-10 0
vn 0.7071073 -8.398216E-08 -0.7071063
vn 0.70710725 -8.392871E-08 -0.7071063
vn 0.7071073 -8.398216E-08 -0.7071063
vn 0.70710725 -8.392871E-08 -0.7071063
vn -0 -1.18693215E-07 -1
vn -0 -1.18693215E-07 -1
vn -0 -1.18693215E-07 -1
vn -0 -1.18693215E-07 -1
vn -0.7071081 -8.3928626E-08 -0.7071055
vn -0.707108 -8.406223E-08 -0.7071055
vn -0.7071081 -8.3928626E-08 -0.7071055
vn -0.707108 -8.406223E-08 -0.7071055
vn -1 -2.6718032E-11 0
vn -1 -2.137577E-10 0
vn -0 -1 1.6210355E-07
vn -0 -1 1.6210355E-07
vn -0 -1 1.6210355E-07
vn -4.7479222E-08 -1 1.146242E-07
vn 4.7479222E-08 -1 1.146242E-07
vn -0 -1 1.6210355E-07
vn -0 -1 0
vn 1.1462392E-07 -1 1.146242E-07
vn -1.1462392E-07 -1 1.146242E-07
vn -0 1 0
vn -0 1 0
vn -0 1 0
vn -0 1 0
vn -0 1 0
vn -0 1 0
vn -0 1 0
vn -0 1 0
vn -0 1 0
g pb_Mesh291210_0
f 3/3/3 2/2/2 1/1/1
f 3/3/3 4/4/4 2/2/2
f 7/7/7 6/6/6 5/5/5
f 7/7/7 8/8/8 6/6/6
f 11/11/11 10/10/10 9/9/9
f 11/11/11 12/12/12 10/10/10
f 15/15/15 14/14/14 13/13/13
f 15/15/15 16/16/16 14/14/14
f 19/19/19 18/18/18 17/17/17
f 19/19/19 20/20/20 18/18/18
f 23/23/23 22/22/22 21/21/21
f 23/23/23 24/24/24 22/22/22
f 27/27/27 26/26/26 25/25/25
f 27/27/27 28/28/28 26/26/26
f 31/31/31 30/30/30 29/29/29
f 31/31/31 32/32/32 30/30/30
f 35/35/35 34/34/34 33/33/33
f 33/33/33 34/34/34 36/36/36
f 36/36/36 34/34/34 37/37/37
f 37/37/37 34/34/34 38/38/38
f 38/38/38 34/34/34 39/39/39
f 39/39/39 34/34/34 40/40/40
f 40/40/40 34/34/34 41/41/41
f 41/41/41 34/34/34 35/35/35
f 44/44/44 43/43/43 42/42/42
f 45/45/45 43/43/43 44/44/44
f 46/46/46 43/43/43 45/45/45
f 47/47/47 43/43/43 46/46/46
f 48/48/48 43/43/43 47/47/47
f 49/49/49 43/43/43 48/48/48
f 50/50/50 43/43/43 49/49/49
f 42/42/42 43/43/43 50/50/50
