g pb_Mesh-2419006
v 0.034990452 -0.07773486 0.017420247
v -0.035009556 -0.07773486 0.017420247
v 0.034990452 -0.03373867 0.017420247
v -0.035009556 -0.03373867 0.017420247
v -0.050009556 -0.09999952 -0.015150458
v -0.050009556 -0.09999952 -0.08439028
v -0.050009556 -0.011474013 -0.015150458
v -0.050009556 -0.011474013 -0.08439028
v -0.050009556 -0.09999952 -0.08439028
v 0.049990453 -0.09999952 -0.08439028
v -0.050009556 -0.011474013 -0.08439028
v 0.049990453 -0.011474013 -0.08439028
v 0.049990453 -0.09999952 -0.08439028
v 0.049990453 -0.09999952 -0.015150458
v 0.049990453 -0.011474013 -0.08439028
v 0.049990453 -0.011474013 -0.015150458
v 0.049990453 -0.011474013 -0.015150458
v -0.050009556 -0.011474013 -0.015150458
v 0.049990453 -0.011474013 -0.08439028
v -0.050009556 -0.011474013 -0.08439028
v 0.028228236 -0.30029887 -0.022447616
v -0.028249217 -0.30029887 -0.022447616
v 0.028228236 -0.25578898 0.030591935
v -0.028249217 -0.25578898 0.030591935
v 0.049990453 -0.09999952 -0.015150458
v -0.050009556 -0.09999952 -0.015150458
v 0.034990452 -0.07773486 0.017420247
v -0.035009556 -0.07773486 0.017420247
v 0.049990453 -0.011474013 -0.015150458
v 0.049990453 -0.09999952 -0.015150458
v 0.034990452 -0.03373867 0.017420247
v 0.034990452 -0.07773486 0.017420247
v -0.050009556 -0.09999952 -0.015150458
v -0.050009556 -0.011474013 -0.015150458
v -0.035009556 -0.07773486 0.017420247
v -0.035009556 -0.03373867 0.017420247
v -0.050009556 -0.011474013 -0.015150458
v 0.049990453 -0.011474013 -0.015150458
v -0.035009556 -0.03373867 0.017420247
v 0.034990452 -0.03373867 0.017420247
v -0.050009556 -0.09999952 -0.08439028
v 0.03657245 -0.10009952 -0.08439028
v -0.036591552 -0.10009952 -0.08439028
v 0.049990453 -0.09999952 -0.015150458
v 0.049990453 -0.09999952 -0.08439028
v 0.03657245 -0.10009952 -0.015150458
v 0.03657245 -0.10009952 -0.08439028
v -0.050009556 -0.09999952 -0.08439028
v -0.050009556 -0.09999952 -0.015150458
v -0.036591552 -0.10009952 -0.08439028
v -0.036591552 -0.10009952 -0.015150458
v -0.050009556 -0.09999952 -0.015150458
v 0.049990453 -0.09999952 -0.015150458
v -0.036591552 -0.10009952 -0.015150458
v 0.03657245 -0.10009952 -0.015150458
v 0.03657245 -0.10009952 -0.08439028
v -0.036591552 -0.10009952 -0.08439028
v 0.03657245 -0.20460874 -0.08439028
v -0.036591552 -0.20460874 -0.08439028
v 0.03657245 -0.10009952 -0.015150458
v 0.03657245 -0.10009952 -0.08439028
v 0.03657245 -0.20460874 -0.015150458
v 0.03657245 -0.20460874 -0.08439028
v -0.036591552 -0.10009952 -0.08439028
v -0.036591552 -0.10009952 -0.015150458
v -0.036591552 -0.20460874 -0.08439028
v -0.036591552 -0.20460874 -0.015150458
v -0.036591552 -0.10009952 -0.015150458
v 0.03657245 -0.10009952 -0.015150458
v -0.036591552 -0.20460874 -0.015150458
v 0.03657245 -0.20460874 -0.015150458
v 0.03657245 -0.20460874 -0.08439028
v -0.036591552 -0.20460874 -0.08439028
v 0.028228236 -0.25542867 -0.060101926
v -0.028249217 -0.25542867 -0.060101926
v 0.03657245 -0.20460874 -0.015150458
v 0.03657245 -0.20460874 -0.08439028
v 0.028228236 -0.21091878 -0.0070623737
v 0.028228236 -0.25542867 -0.060101926
v -0.036591552 -0.20460874 -0.08439028
v -0.036591552 -0.20460874 -0.015150458
v -0.028249217 -0.25542867 -0.060101926
v -0.028249217 -0.21091878 -0.0070623737
v -0.036591552 -0.20460874 -0.015150458
v 0.03657245 -0.20460874 -0.015150458
v -0.028249217 -0.21091878 -0.0070623737
v 0.028228236 -0.21091878 -0.0070623737
v 0.028228236 -0.25542867 -0.060101926
v -0.028249217 -0.25542867 -0.060101926
v 0.028228236 -0.30029887 -0.022447616
v -0.028249217 -0.30029887 -0.022447616
v 0.028228236 -0.21091878 -0.0070623737
v 0.028228236 -0.25542867 -0.060101926
v 0.028228236 -0.25578898 0.030591935
v 0.028228236 -0.30029887 -0.022447616
v -0.028249217 -0.25542867 -0.060101926
v -0.028249217 -0.21091878 -0.0070623737
v -0.028249217 -0.30029887 -0.022447616
v -0.028249217 -0.25578898 0.030591935
v -0.028249217 -0.21091878 -0.0070623737
v 0.028228236 -0.21091878 -0.0070623737
v -0.028249217 -0.25578898 0.030591935
v 0.028228236 -0.25578898 0.030591935
vt 0.034990452 -0.07773486
vt -0.035009556 -0.07773486
vt 0.034990452 -0.03373867
vt -0.035009556 -0.03373867
vt -0.015150458 -0.09999952
vt -0.08439028 -0.09999952
vt -0.015150458 -0.011474013
vt -0.08439028 -0.011474013
vt 0.050009556 -0.09999952
vt -0.049990453 -0.09999952
vt 0.050009556 -0.011474013
vt -0.049990453 -0.011474013
vt 0.08439028 -0.09999952
vt 0.015150458 -0.09999952
vt 0.08439028 -0.011474013
vt 0.015150458 -0.011474013
vt -0.049990453 -0.015150458
vt 0.050009556 -0.015150458
vt -0.049990453 -0.08439028
vt 0.050009556 -0.08439028
vt 0.028228236 -0.21023482
vt -0.028249217 -0.21023482
vt 0.028228236 -0.14099376
vt -0.028249217 -0.14099376
vt 0.049990453 -0.06894008
vt -0.050009556 -0.06894008
vt 0.034990452 -0.029486742
vt -0.035009556 -0.029486742
vt 0.03467264 -0.011474013
vt 0.03467264 -0.09999952
vt -0.0011861242 -0.03373867
vt -0.0011861242 -0.07773486
vt -0.03468063 -0.09999952
vt -0.03468063 -0.011474013
vt 0.0011781332 -0.07773486
vt 0.0011781332 -0.03373867
vt 0.050009556 -0.006032345
vt -0.049990453 -0.006032345
vt 0.035009556 0.03342099
vt -0.034990452 0.03342099
vt 0.050009556 -0.09999952
vt -0.03657245 -0.10009952
vt 0.036591552 -0.10009952
vt 0.049243808 -0.015150458
vt 0.049243808 -0.08439028
vt 0.03582543 -0.015150458
vt 0.03582543 -0.08439028
vt -0.04926291 -0.08439028
vt -0.04926291 -0.015150458
vt -0.035844535 -0.08439028
vt -0.035844535 -0.015150458
vt -0.050009556 -0.09999952
vt 0.049990453 -0.09999952
vt -0.036591552 -0.10009952
vt 0.03657245 -0.10009952
vt -0.03657245 -0.10009952
vt 0.036591552 -0.10009952
vt -0.03657245 -0.20460874
vt 0.036591552 -0.20460874
vt 0.015150458 -0.10009952
vt 0.08439028 -0.10009952
vt 0.015150458 -0.20460874
vt 0.08439028 -0.20460874
vt -0.08439028 -0.10009952
vt -0.015150458 -0.10009952
vt -0.08439028 -0.20460874
vt -0.015150458 -0.20460874
vt -0.036591552 -0.10009952
vt 0.03657245 -0.10009952
vt -0.036591552 -0.20460874
vt 0.03657245 -0.20460874
vt -0.03657245 -0.1482182
vt 0.036591552 -0.1482182
vt -0.028228236 -0.20454395
vt 0.028249217 -0.20454395
vt -0.09424309 -0.015150458
vt -0.09424309 -0.08439028
vt -0.10470457 -0.0070623737
vt -0.13155158 -0.060101926
vt -0.08439028 -0.1959791
vt -0.015150458 -0.1959791
vt -0.060101926 -0.2474792
vt -0.0070623737 -0.20355716
vt 0.036591552 0.11391229
vt -0.03657245 0.11391229
vt 0.028249217 0.12417064
vt -0.028228236 0.12417064
vt -0.028228236 -0.15702663
vt 0.028249217 -0.15702663
vt -0.028228236 -0.21560292
vt 0.028249217 -0.21560292
vt 0.0070623737 -0.21091878
vt 0.060101926 -0.25542867
vt -0.030591935 -0.25578898
vt 0.022447616 -0.30029887
vt -0.060101926 -0.25542867
vt -0.0070623737 -0.21091878
vt -0.022447616 -0.30029887
vt 0.030591935 -0.25578898
vt -0.028249217 -0.15702663
vt 0.028228236 -0.15702663
vt -0.028249217 -0.21560292
vt 0.028228236 -0.21560292
vn -0 0 1
vn -0 0 1
vn -0 0 1
vn -0 0 1
vn -1 0 0
vn -1 0 0
vn -1 0 0
vn -1 0 0
vn -0 0 -1
vn -0 0 -1
vn -0 0 -1
vn -0 0 -1
vn 1 0 0
vn 1 0 0
vn 1 0 0
vn 1 0 0
vn -0 1 0
vn -0 1 0
vn -0 1 0
vn -0 1 0
vn -0 -0.766013 0.6428251
vn -0 -0.766013 0.6428251
vn -0 -0.766013 0.6428251
vn -0 -0.766013 0.6428251
vn -0 -0.8255501 0.5643289
vn -0 -0.8255501 0.5643289
vn -0 -0.8255501 0.5643289
vn -0 -0.8255501 0.5643289
vn 0.90830535 0 0.4183078
vn 0.90830535 0 0.4183078
vn 0.90830535 0 0.4183078
vn 0.90830535 0 0.4183078
vn -0.90830535 0 0.4183078
vn -0.90830535 0 0.4183078
vn -0.90830535 0 0.4183078
vn -0.90830535 0 0.4183078
vn -0 0.8255501 0.56432885
vn -0 0.8255501 0.56432885
vn -0 0.8255501 0.56432885
vn -0 0.82555014 0.56432885
vn -0 0 -0.5
vn -0 0 -0.5
vn -0 0 0
vn 0.0074525927 -0.9999722 0
vn 0.0074525927 -0.9999722 0
vn 0.0074525927 -0.9999722 0
vn 0.0074525927 -0.9999722 0
vn -0.0074525927 -0.9999722 0
vn -0.0074525927 -0.9999722 0
vn -0.0074525927 -0.9999722 0
vn -0.0074525927 -0.9999722 0
vn -0 0 1
vn -0 0 0.5
vn -0 0 0.5
vn -0 0 0
vn -0 0 -1
vn -0 0 -1
vn -0 0 -1
vn -0 0 -1
vn 1 0 0
vn 1 0 0
vn 1 0 0
vn 1 0 0
vn -1 0 0
vn -1 0 0
vn -1 0 0
vn -1 0 0
vn -0 0 1
vn -0 0 1
vn -0 0 1
vn -0 0 1
vn -0 -0.4312123 -0.90225047
vn -0 -0.4312123 -0.90225047
vn -0 -0.4312123 -0.90225047
vn -0 -0.43121234 -0.90225047
vn 0.6031695 -0.797613 0
vn 0.7958342 -0.4567277 0.04860648
vn 0.7958342 -0.4567277 0.04860648
vn 0.9884989 -0.11584239 0.09721296
vn -0.986793 -0.16198678 0
vn -0.87785244 -0.32587048 0.20549667
vn -0.87785244 -0.32587048 0.20549667
vn -0.76891184 -0.48975417 0.41099334
vn -0 0.788439 0.615113
vn -0 0.788439 0.615113
vn -0 0.788439 0.615113
vn -0 0.788439 0.615113
vn -0 -0.6428251 -0.76601297
vn -0 -0.6428251 -0.76601297
vn -0 -0.6428251 -0.76601297
vn -0 -0.6428251 -0.76601297
vn 1 0 0
vn 1 0 0
vn 1 0 0
vn 1 0 0
vn -1 0 0
vn -1 0 0
vn -1 0 0
vn -1 0 0
vn -0 0.6428251 0.76601297
vn -0 0.6428251 0.76601297
vn -0 0.6428251 0.76601297
vn -0 0.6428251 0.76601297
g pb_Mesh-2419006_0
f 3/3/3 2/2/2 1/1/1
f 3/3/3 4/4/4 2/2/2
f 7/7/7 6/6/6 5/5/5
f 7/7/7 8/8/8 6/6/6
f 11/11/11 10/10/10 9/9/9
f 11/11/11 12/12/12 10/10/10
f 15/15/15 14/14/14 13/13/13
f 15/15/15 16/16/16 14/14/14
f 19/19/19 18/18/18 17/17/17
f 19/19/19 20/20/20 18/18/18
f 23/23/23 22/22/22 21/21/21
f 23/23/23 24/24/24 22/22/22
f 27/27/27 26/26/26 25/25/25
f 27/27/27 28/28/28 26/26/26
f 31/31/31 30/30/30 29/29/29
f 31/31/31 32/32/32 30/30/30
f 35/35/35 34/34/34 33/33/33
f 35/35/35 36/36/36 34/34/34
f 39/39/39 38/38/38 37/37/37
f 39/39/39 40/40/40 38/38/38
f 42/42/42 41/41/41 10/10/10
f 42/42/42 43/43/43 41/41/41
f 46/46/46 45/45/45 44/44/44
f 46/46/46 47/47/47 45/45/45
f 50/50/50 49/49/49 48/48/48
f 50/50/50 51/51/51 49/49/49
f 54/54/54 53/53/53 52/52/52
f 54/54/54 55/55/55 53/53/53
f 58/58/58 57/57/57 56/56/56
f 58/58/58 59/59/59 57/57/57
f 62/62/62 61/61/61 60/60/60
f 62/62/62 63/63/63 61/61/61
f 66/66/66 65/65/65 64/64/64
f 66/66/66 67/67/67 65/65/65
f 70/70/70 69/69/69 68/68/68
f 70/70/70 71/71/71 69/69/69
f 74/74/74 73/73/73 72/72/72
f 74/74/74 75/75/75 73/73/73
f 78/78/78 77/77/77 76/76/76
f 78/78/78 79/79/79 77/77/77
f 82/82/82 81/81/81 80/80/80
f 82/82/82 83/83/83 81/81/81
f 86/86/86 85/85/85 84/84/84
f 86/86/86 87/87/87 85/85/85
f 90/90/90 89/89/89 88/88/88
f 90/90/90 91/91/91 89/89/89
f 94/94/94 93/93/93 92/92/92
f 94/94/94 95/95/95 93/93/93
f 98/98/98 97/97/97 96/96/96
f 98/98/98 99/99/99 97/97/97
f 102/102/102 101/101/101 100/100/100
f 102/102/102 103/103/103 101/101/101
