g pb_Mesh-359174
v 0.29000887 -0.3380385 0.35933465
v -0.28999963 -0.3380399 0.3593347
v 0.2900087 0.33804268 0.35933465
v -0.28999987 0.3380413 0.3593347
v -0.28999963 -0.3380399 0.3593347
v -0.29000038 -0.3380406 -0.42928386
v -0.28999987 0.3380413 0.3593347
v -0.29000062 0.3380406 -0.42928386
v -0.29000038 -0.3380406 -0.42928386
v 0.2900082 -0.33803922 -0.42928398
v -0.29000062 0.3380406 -0.42928386
v 0.290008 0.338042 -0.42928398
v 0.2900082 -0.33803922 -0.42928398
v 0.29000887 -0.3380385 0.35933465
v 0.290008 0.338042 -0.42928398
v 0.2900087 0.33804268 0.35933465
v 0.2900087 0.33804268 0.35933465
v -0.28999987 0.3380413 0.3593347
v 0.290008 0.338042 -0.42928398
v -0.29000062 0.3380406 -0.42928386
v 0.2900082 -0.33803922 -0.42928398
v -0.29000038 -0.3380406 -0.42928386
v 0.29000887 -0.3380385 0.35933465
v -0.28999963 -0.3380399 0.3593347
vt 0.29000884 -0.3380385
vt -0.28999966 -0.3380399
vt 0.29000866 0.33804268
vt -0.2899999 0.3380413
vt 0.35933444 -0.33803982
vt -0.42928413 -0.3380405
vt 0.35933444 0.3380414
vt -0.42928413 0.33804068
vt 0.2900003 -0.3380406
vt -0.29000828 -0.33803922
vt 0.29000053 0.3380406
vt -0.2900081 0.338042
vt 0.42928374 -0.3380393
vt -0.3593349 -0.3380386
vt 0.42928374 0.3380419
vt -0.3593349 0.3380426
vt -0.2900095 0.35933495
vt 0.28999907 0.359335
vt -0.2900088 -0.42928368
vt 0.2899998 -0.42928356
vt 0.29000738 -0.42928427
vt -0.29000118 -0.42928416
vt 0.29000807 0.35933435
vt -0.29000044 0.3593344
vn 1.02765114E-07 2.7179924E-14 1
vn 1.0276511E-07 3.1709908E-14 0.99999994
vn 1.0276511E-07 3.1709908E-14 0.99999994
vn 1.0276511E-07 3.6239895E-14 0.99999994
vn -1 -3.5264787E-07 9.447639E-07
vn -1 -3.5264787E-07 9.447639E-07
vn -1 -3.5264787E-07 9.447639E-07
vn -1 -3.5264787E-07 9.447639E-07
vn -2.0553021E-07 -7.247979E-14 -0.99999994
vn -2.0553021E-07 -6.3419817E-14 -0.99999994
vn -2.0553021E-07 -6.3419817E-14 -0.99999994
vn -2.0553021E-07 -5.4359844E-14 -1
vn 1 2.644859E-07 -8.691826E-07
vn 1 2.644859E-07 -8.691826E-07
vn 1 2.644859E-07 -8.691826E-07
vn 1 2.644859E-07 -8.691826E-07
vn -2.3635973E-06 0.99999994 -8.6918027E-07
vn -2.389289E-06 0.99999994 -8.880755E-07
vn -2.389289E-06 0.99999994 -8.880755E-07
vn -2.4149801E-06 1 -9.0697074E-07
vn 2.3635976E-06 -0.99999994 9.0697085E-07
vn 2.3892894E-06 -1 8.8807553E-07
vn 2.3892894E-06 -1 8.8807553E-07
vn 2.4149808E-06 -1 8.6918016E-07
g pb_Mesh-359174_0
f 3/3/3 2/2/2 1/1/1
f 3/3/3 4/4/4 2/2/2
f 7/7/7 6/6/6 5/5/5
f 7/7/7 8/8/8 6/6/6
f 11/11/11 10/10/10 9/9/9
f 11/11/11 12/12/12 10/10/10
f 15/15/15 14/14/14 13/13/13
f 15/15/15 16/16/16 14/14/14
f 19/19/19 18/18/18 17/17/17
f 19/19/19 20/20/20 18/18/18
f 23/23/23 22/22/22 21/21/21
f 23/23/23 24/24/24 22/22/22
