g pb_Mesh-4558690
v -0 -1.5 0
v -1.0978742 -1.5 0
v -0 1.0816202 0
v -1.0978742 1.0816202 0
v -1.0978742 -1.5 0
v -0.8231468 -1.5 -2
v -1.0978742 1.0816202 0
v -0.8231468 1.0816202 -2
v -0.8231468 -1.5 -2
v 0.11911821 -1.5 -2
v -0.8231468 1.0816202 -2
v 0.11911821 1.0816202 -2
v 0.11911821 -1.5 -2
v -0 -1.5 0
v 0.11911821 1.0816202 -2
v -0 1.0816202 0
v -0 1.0816202 0
v -1.0978742 1.0816202 0
v 0.11911821 1.0816202 -2
v -0.8231468 1.0816202 -2
v 0.11911821 -1.5 -2
v -0.8231468 -1.5 -2
v -0 -1.5 0
v -1.0978742 -1.5 0
vt 0 -1.5
vt -1.0978742 -1.5
vt 0 1.0816202
vt -1.0978742 1.0816202
vt 0.14940508 -1.5
vt -1.8693756 -1.5
vt 0.14940508 1.0816202
vt -1.8693756 1.0816202
vt 0.8231468 -1.5
vt -0.11911821 -1.5
vt 0.8231468 1.0816202
vt -0.11911821 1.0816202
vt 2.003544 -1.5
vt -0 -1.5
vt 2.003544 1.0816202
vt 0 1.0816202
vt 0 0
vt 1.0978742 0
vt -0.11911821 -2
vt 0.8231468 -2
vt 0.11911821 -2
vt -0.8231468 -2
vt 0 0
vt -1.0978742 0
vn -0 0 1
vn -0 0 1
vn -0 0 1
vn -0 0 1
vn -0.9906971 0 -0.1360858
vn -0.9906971 0 -0.1360858
vn -0.9906971 0 -0.1360858
vn -0.9906971 0 -0.1360858
vn -0 0 -1
vn -0 0 -1
vn -0 0 -1
vn -0 0 -1
vn 0.99823105 0 0.05945375
vn 0.99823105 0 0.05945375
vn 0.99823105 0 0.05945375
vn 0.99823105 0 0.05945375
vn -0 1 0
vn -0 1 0
vn -0 1 0
vn -0 1 0
vn -0 -1 0
vn -0 -1 0
vn -0 -1 0
vn -0 -1 0
g pb_Mesh-4558690_0
f 3/3/3 2/2/2 1/1/1
f 3/3/3 4/4/4 2/2/2
f 7/7/7 6/6/6 5/5/5
f 7/7/7 8/8/8 6/6/6
f 11/11/11 10/10/10 9/9/9
f 11/11/11 12/12/12 10/10/10
f 15/15/15 14/14/14 13/13/13
f 15/15/15 16/16/16 14/14/14
f 19/19/19 18/18/18 17/17/17
f 19/19/19 20/20/20 18/18/18
f 23/23/23 22/22/22 21/21/21
f 23/23/23 24/24/24 22/22/22
