g pb_Mesh255430
v -6.4 0.66679525 3.6129578E-08
v -6.4 0.9 3.6129578E-08
v -6.214028 0.66679525 1.5316204
v -6.214028 0.9 1.5316204
v -6.214028 0.66679525 1.5316204
v -6.214028 0.9 1.5316204
v -5.6669188 0.66679525 2.9742286
v -5.6669188 0.9 2.9742286
v -5.6669188 0.66679525 2.9742286
v -5.6669188 0.9 2.9742286
v -4.790469 0.66679525 4.243985
v -4.790469 0.9 4.243985
v -4.790469 0.66679525 4.243985
v -4.790469 0.9 4.243985
v -3.6356142 0.66679525 5.267097
v -3.6356142 0.9 5.267097
v -2.2694714 0.66679525 5.984104
v -2.2694714 0.9 5.984104
v -2.2694714 0.66679525 5.984104
v -2.2694714 0.9 5.984104
v -0.7714349 0.66679525 6.353337
v -0.7714349 0.9 6.353337
v -0.7714349 0.66679525 6.353337
v -0.7714349 0.9 6.353337
v 0.77143455 0.66679525 6.353337
v 0.77143455 0.9 6.353337
v 0.77143455 0.66679525 6.353337
v 0.77143455 0.9 6.353337
v 2.2694716 0.66679525 5.9841037
v 2.2694716 0.9 5.9841037
v 2.2694716 0.66679525 5.9841037
v 2.2694716 0.9 5.9841037
v 3.635614 0.66679525 5.267097
v 3.635614 0.9 5.267097
v 4.790469 0.66679525 4.243985
v 4.790469 0.9 4.243985
v 4.790469 0.66679525 4.243985
v 4.790469 0.9 4.243985
v 5.6669188 0.66679525 2.9742277
v 5.6669188 0.9 2.9742277
v 6.214028 0.66679525 1.5316204
v 6.214028 0.9 1.5316204
v 6.214028 0.66679525 1.5316204
v 6.214028 0.9 1.5316204
v 6.3999996 0.66679525 -5.233762E-07
v 6.3999996 0.9 -5.233762E-07
v 6.3999996 0.66679525 -5.233762E-07
v 6.3999996 0.9 -5.233762E-07
v 6.214028 0.66679525 -1.5316199
v 6.214028 0.9 -1.5316199
v 6.214028 0.66679525 -1.5316199
v 6.214028 0.9 -1.5316199
v 5.6669188 0.66679525 -2.9742284
v 5.6669188 0.9 -2.9742284
v 4.790468 0.66679525 -4.2439857
v 4.790468 0.9 -4.2439857
v 4.790468 0.66679525 -4.2439857
v 4.790468 0.9 -4.2439857
v 3.6356132 0.66679525 -5.2670975
v 3.6356132 0.9 -5.2670975
v 2.2694721 0.66679525 -5.9841037
v 2.2694721 0.9 -5.9841037
v 2.2694721 0.66679525 -5.9841037
v 2.2694721 0.9 -5.9841037
v 0.7714349 0.66679525 -6.353337
v 0.7714349 0.9 -6.353337
v 0.7714349 0.66679525 -6.353337
v 0.7714349 0.9 -6.353337
v -0.77143526 0.66679525 -6.353337
v -0.77143526 0.9 -6.353337
v -0.77143526 0.66679525 -6.353337
v -0.77143526 0.9 -6.353337
v -2.2694724 0.66679525 -5.9841037
v -2.2694724 0.9 -5.9841037
v -2.2694724 0.66679525 -5.9841037
v -2.2694724 0.9 -5.9841037
v -3.635616 0.66679525 -5.267096
v -3.635616 0.9 -5.267096
v -4.790468 0.66679525 -4.2439857
v -4.790468 0.9 -4.2439857
v -4.790468 0.66679525 -4.2439857
v -4.790468 0.9 -4.2439857
v -5.6669188 0.66679525 -2.9742284
v -5.6669188 0.9 -2.9742284
v -6.214028 0.66679525 -1.5316197
v -6.214028 0.9 -1.5316197
v -6.214028 0.66679525 -1.5316197
v -6.214028 0.9 -1.5316197
v -6.4 0.66679525 3.6129578E-08
v -6.4 0.9 3.6129578E-08
v -6.214028 0.66679525 1.5316204
v -8.729788E-08 0.66679525 3.6129578E-08
v -6.4 0.66679525 3.6129578E-08
v -5.6669188 0.66679525 2.9742286
v -4.790469 0.66679525 4.243985
v -8.729788E-08 0.66679525 3.6129578E-08
v -5.6669188 0.66679525 2.9742286
v -3.6356142 0.66679525 5.267097
v -4.790469 0.66679525 4.243985
v -2.2694714 0.66679525 5.984104
v -0.7714349 0.66679525 6.353337
v -2.2694714 0.66679525 5.984104
v 0.77143455 0.66679525 6.353337
v 2.2694716 0.66679525 5.9841037
v 0.77143455 0.66679525 6.353337
v 3.635614 0.66679525 5.267097
v 2.2694716 0.66679525 5.9841037
v 4.790469 0.66679525 4.243985
v -8.729788E-08 0.66679525 3.6129578E-08
v 3.635614 0.66679525 5.267097
v 5.6669188 0.66679525 2.9742277
v 6.214028 0.66679525 1.5316204
v 6.3999996 0.66679525 -5.233762E-07
v 6.214028 0.66679525 -1.5316199
v 6.3999996 0.66679525 -5.233762E-07
v 5.6669188 0.66679525 -2.9742284
v 6.214028 0.66679525 -1.5316199
v 4.790468 0.66679525 -4.2439857
v 3.6356132 0.66679525 -5.2670975
v 2.2694721 0.66679525 -5.9841037
v 0.7714349 0.66679525 -6.353337
v -8.729788E-08 0.66679525 3.6129578E-08
v 2.2694721 0.66679525 -5.9841037
v -0.77143526 0.66679525 -6.353337
v 0.7714349 0.66679525 -6.353337
v -2.2694724 0.66679525 -5.9841037
v -3.635616 0.66679525 -5.267096
v -2.2694724 0.66679525 -5.9841037
v -4.790468 0.66679525 -4.2439857
v -3.635616 0.66679525 -5.267096
v -5.6669188 0.66679525 -2.9742284
v -6.214028 0.66679525 -1.5316197
v -6.4 0.66679525 3.6129578E-08
v -6.214028 0.66679525 -1.5316197
v -6.4 0.9 3.6129578E-08
v -8.729788E-08 0.9 3.6129578E-08
v -6.214028 0.9 1.5316204
v -8.729788E-08 0.9 3.6129578E-08
v -5.6669188 0.9 2.9742286
v -4.790469 0.9 4.243985
v -3.6356142 0.9 5.267097
v -2.2694714 0.9 5.984104
v -2.2694714 0.9 5.984104
v -8.729788E-08 0.9 3.6129578E-08
v -0.7714349 0.9 6.353337
v 0.77143455 0.9 6.353337
v 0.77143455 0.9 6.353337
v 2.2694716 0.9 5.9841037
v 3.635614 0.9 5.267097
v 4.790469 0.9 4.243985
v 5.6669188 0.9 2.9742277
v 6.214028 0.9 1.5316204
v 6.214028 0.9 1.5316204
v 6.3999996 0.9 -5.233762E-07
v 6.214028 0.9 -1.5316199
v 5.6669188 0.9 -2.9742284
v 5.6669188 0.9 -2.9742284
v 4.790468 0.9 -4.2439857
v 4.790468 0.9 -4.2439857
v 3.6356132 0.9 -5.2670975
v 2.2694721 0.9 -5.9841037
v 2.2694721 0.9 -5.9841037
v 0.7714349 0.9 -6.353337
v -0.77143526 0.9 -6.353337
v -2.2694724 0.9 -5.9841037
v -3.635616 0.9 -5.267096
v -4.790468 0.9 -4.2439857
v -5.6669188 0.9 -2.9742284
v -6.214028 0.9 -1.5316197
v -6.214028 0.9 -1.5316197
v -8.729788E-08 0.9 3.6129578E-08
v -6.4 0.9 3.6129578E-08
vt -0.0056245923 0.66679525
vt -0.0056245923 0.9
vt 1.537245 0.66679525
vt 1.537245 0.9
vt 1.5316203 0.66679525
vt 1.5316203 0.9
vt 2.9742286 0.66679525
vt 2.9742286 0.9
vt 2.9742289 0.66679525
vt 2.9742289 0.9
vt 4.243985 0.66679525
vt 4.243985 0.9
vt -4.7904696 0.66679525
vt -4.7904696 0.9
vt -3.6356144 0.66679525
vt -3.6356144 0.9
vt -2.2694716 0.66679525
vt -2.2694716 0.9
vt -2.291888 0.66679525
vt -2.291888 0.9
vt -0.74901855 0.66679525
vt -0.74901855 0.9
vt -0.7714349 0.66679525
vt -0.7714349 0.9
vt 0.77143455 0.66679525
vt 0.77143455 0.9
vt 0.7490181 0.66679525
vt 0.7490181 0.9
vt 2.2918882 0.66679525
vt 2.2918882 0.9
vt 2.2694716 0.66679525
vt 2.2694716 0.9
vt 3.635614 0.66679525
vt 3.635614 0.9
vt 4.790469 0.66679525
vt 4.790469 0.9
vt -4.2439857 0.66679525
vt -4.2439857 0.9
vt -2.974228 0.66679525
vt -2.974228 0.9
vt -1.5316203 0.66679525
vt -1.5316203 0.9
vt -1.537245 0.66679525
vt -1.537245 0.9
vt 0.0056251287 0.66679525
vt 0.0056251287 0.9
vt -0.0056241155 0.66679525
vt -0.0056241155 0.9
vt 1.5372446 0.66679525
vt 1.5372446 0.9
vt 1.53162 0.66679525
vt 1.53162 0.9
vt 2.9742284 0.66679525
vt 2.9742284 0.9
vt 4.2439857 0.66679525
vt 4.2439857 0.9
vt -4.7904687 0.66679525
vt -4.7904687 0.9
vt -3.6356134 0.66679525
vt -3.6356134 0.9
vt -2.2694721 0.66679525
vt -2.2694721 0.9
vt -2.2918887 0.66679525
vt -2.2918887 0.9
vt -0.74901843 0.66679525
vt -0.74901843 0.9
vt -0.7714349 0.66679525
vt -0.7714349 0.9
vt 0.77143526 0.66679525
vt 0.77143526 0.9
vt 0.7490188 0.66679525
vt 0.7490188 0.9
vt 2.2918887 0.66679525
vt 2.2918887 0.9
vt 2.2694721 0.66679525
vt 2.2694721 0.9
vt 3.6356158 0.66679525
vt 3.6356158 0.9
vt 4.790468 0.66679525
vt 4.790468 0.9
vt -4.2439857 0.66679525
vt -4.2439857 0.9
vt -2.9742284 0.66679525
vt -2.9742284 0.9
vt -1.5316195 0.66679525
vt -1.5316195 0.9
vt -1.5372443 0.66679525
vt -1.5372443 0.9
vt 0.005624652 0.66679525
vt 0.005624652 0.9
vt -1.1894037 -0.58183837
vt 6.6234435E-08 -0.8750002
vt -1.2249999 -0.87500006
vt -1.0846834 -0.30571407
vt -0.9169255 -0.0626747
vt 6.6234435E-08 -0.8750002
vt -1.0846834 -0.30571407
vt -0.69587904 0.13315517
vt -0.9169255 -0.0626747
vt -0.43439078 0.27039486
vt -0.14765723 0.3410682
vt -0.43439078 0.27039486
vt 0.14765774 0.3410682
vt 0.43439135 0.27039462
vt 0.14765774 0.3410682
vt 0.69587946 0.13315517
vt 0.4343913 0.27039462
vt 0.91692597 -0.06267488
vt -3.509981E-07 -0.87499976
vt 0.6958796 0.13315517
vt 1.0846839 -0.30571437
vt 1.1894039 -0.5818385
vt 1.2250001 -0.8750001
vt 1.1894039 -1.1681616
vt 1.2250001 -0.8750001
vt 1.0846839 -1.444286
vt 1.1894039 -1.1681616
vt 0.91692585 -1.6873255
vt 0.6958792 -1.8831553
vt 0.43439135 -2.020395
vt 0.1476576 -2.0910683
vt 5.8777505E-07 -0.87499976
vt 0.4343913 -2.020395
vt -0.14765729 -2.0910683
vt 0.14765769 -2.0910683
vt -0.43439108 -2.0203946
vt -0.6958794 -1.8831551
vt -0.434391 -2.020395
vt -0.9169254 -1.6873252
vt -0.6958795 -1.8831549
vt -1.0846834 -1.4442859
vt -1.1894037 -1.1681616
vt -1.2249999 -0.87500006
vt -1.1894037 -1.1681616
vt 1.2250001 -0.87500006
vt 6.6234435E-08 -0.8750002
vt 1.1894039 -0.58183837
vt -1.4238182E-07 -0.8749997
vt 1.0846839 -0.3057142
vt 0.91692597 -0.0626747
vt 0.6958796 0.13315517
vt 0.43439132 0.27039486
vt 0.43439132 0.27039486
vt -4.5530624E-07 -0.875
vt 0.14765778 0.3410682
vt -0.14765705 0.34106845
vt -0.14765704 0.3410682
vt -0.43439075 0.27039486
vt -0.695879 0.13315517
vt -0.9169255 -0.0626747
vt -1.0846834 -0.3057143
vt -1.1894037 -0.58183837
vt -1.1894037 -0.58183837
vt -1.2249997 -0.8750001
vt -1.1894037 -1.1681615
vt -1.0846834 -1.4442859
vt -1.0846834 -1.4442859
vt -0.9169255 -1.6873252
vt -0.9169254 -1.6873252
vt -0.6958789 -1.8831553
vt -0.43439093 -2.020395
vt -0.43439102 -2.0203946
vt -0.14765735 -2.0910683
vt 0.14765777 -2.0910683
vt 0.43439132 -2.020395
vt 0.6958799 -1.8831551
vt 0.91692585 -1.6873255
vt 1.0846839 -1.444286
vt 1.1894039 -1.1681616
vt 1.1894039 -1.1681617
vt 2.748507E-07 -0.8749997
vt 1.2250004 -0.8750001
vn -0.9927089 0 -2.2351742E-08
vn -0.9927089 0 -2.2351742E-08
vn -0.9638626 0 0.23757075
vn -0.9638626 0 0.23757075
vn -0.9638626 0 0.23757075
vn -0.9638626 0 0.23757075
vn -0.87900007 0 0.46133482
vn -0.87900007 0 0.46133482
vn -0.87900007 0 0.46133482
vn -0.87900007 0 0.46133482
vn -0.7430532 0 0.6582878
vn -0.7430532 0 0.6582878
vn -0.7430532 0 0.6582878
vn -0.7430532 0 0.6582878
vn -0.5639229 0 0.81698346
vn -0.5639229 0 0.81698346
vn -0.3520194 0 0.92819893
vn -0.3520194 0 0.92819893
vn -0.3520194 0 0.92819893
vn -0.3520194 0 0.92819893
vn -0.11965778 0 0.98547095
vn -0.11965778 0 0.98547095
vn -0.11965778 0 0.98547095
vn -0.11965778 0 0.98547095
vn 0.11965788 0 0.9854709
vn 0.11965788 0 0.9854709
vn 0.11965788 0 0.9854709
vn 0.11965788 0 0.9854709
vn 0.35201946 0 0.92819893
vn 0.35201946 0 0.92819893
vn 0.35201946 0 0.92819893
vn 0.35201946 0 0.92819893
vn 0.5639228 0 0.81698346
vn 0.5639228 0 0.81698346
vn 0.7430533 0 0.6582877
vn 0.7430533 0 0.6582877
vn 0.7430533 0 0.6582877
vn 0.7430533 0 0.6582877
vn 0.8790001 0 0.46133476
vn 0.8790001 0 0.46133476
vn 0.96386254 0 0.23757066
vn 0.96386254 0 0.23757066
vn 0.96386254 0 0.23757066
vn 0.96386254 0 0.23757066
vn 0.9927089 0 -4.8428774E-08
vn 0.9927089 0 -4.8428774E-08
vn 0.9927089 0 -4.8428774E-08
vn 0.9927089 0 -4.8428774E-08
vn 0.9638626 0 -0.2375706
vn 0.9638626 0 -0.2375706
vn 0.9638626 0 -0.2375706
vn 0.9638626 0 -0.2375706
vn 0.879 0 -0.46133488
vn 0.879 0 -0.46133488
vn 0.74305314 0 -0.6582879
vn 0.74305314 0 -0.6582879
vn 0.74305314 0 -0.6582879
vn 0.74305314 0 -0.6582879
vn 0.5639229 0 -0.81698346
vn 0.5639229 0 -0.81698346
vn 0.3520195 0 -0.9281989
vn 0.3520195 0 -0.9281989
vn 0.3520195 0 -0.9281989
vn 0.3520195 0 -0.9281989
vn 0.119657874 0 -0.9854709
vn 0.119657874 0 -0.9854709
vn 0.119657874 0 -0.9854709
vn 0.119657874 0 -0.9854709
vn -0.11965788 0 -0.9854709
vn -0.11965788 0 -0.9854709
vn -0.11965788 0 -0.9854709
vn -0.11965788 0 -0.9854709
vn -0.3520195 0 -0.92819893
vn -0.3520195 0 -0.92819893
vn -0.3520195 0 -0.92819893
vn -0.3520195 0 -0.92819893
vn -0.56392306 0 -0.8169833
vn -0.56392306 0 -0.8169833
vn -0.7430533 0 -0.6582877
vn -0.7430533 0 -0.6582877
vn -0.7430533 0 -0.6582877
vn -0.7430533 0 -0.6582877
vn -0.87900007 0 -0.46133482
vn -0.87900007 0 -0.46133482
vn -0.9638626 0 -0.23757072
vn -0.9638626 0 -0.23757072
vn -0.9638626 0 -0.23757072
vn -0.9638626 0 -0.23757072
vn -0.9927089 0 -2.2351742E-08
vn -0.9927089 0 -2.2351742E-08
vn -0 -1 0
vn -0 -1 0
vn -0 -1 0
vn -0 -1 0
vn -0 -0.99999994 0
vn -0 -0.99999994 0
vn -0 -0.99999994 0
vn -0 -1 0
vn -0 -1 0
vn -0 -1 0
vn -0 -0.99999994 0
vn -0 -0.99999994 0
vn -0 -0.99999994 0
vn -0 -1 0
vn -0 -1 0
vn -0 -0.99999994 0
vn -0 -0.99999994 0
vn -0 -1 0
vn -0 -1 0
vn -0 -1 0
vn -0 -1 0
vn -0 -1 0
vn -0 -1 0
vn -0 -0.99999994 0
vn -0 -0.99999994 0
vn -0 -1 0
vn -0 -1 0
vn -0 -1 0
vn -0 -1 0
vn -0 -1 0
vn -0 -0.99999994 0
vn -0 -0.99999994 0
vn -0 -0.99999994 0
vn -0 -1 0
vn -0 -1 0
vn -0 -1 0
vn -0 -0.99999994 0
vn -0 -0.99999994 0
vn -0 -1 0
vn -0 -1 0
vn -0 -1 0
vn -0 -1 0
vn -0 -0.99999994 0
vn -0 -0.99999994 0
vn -0 1 0
vn -0 1 0
vn -0 1 0
vn -0 1 0
vn -0 1 0
vn -0 1 0
vn -0 1 0
vn -0 1 0
vn -0 0.99999994 0
vn -0 0.99999994 0
vn -0 0.99999994 0
vn -0 0.99999994 0
vn -0 1 0
vn -0 1 0
vn -0 1 0
vn -0 1 0
vn -0 1 0
vn -0 1 0
vn -0 0.99999994 0
vn -0 0.99999994 0
vn -0 0.99999994 0
vn -0 0.99999994 0
vn -0 1 0
vn -0 1 0
vn -0 0.99999994 0
vn -0 0.99999994 0
vn -0 0.99999994 0
vn -0 1 0
vn -0 1 0
vn -0 1 0
vn -0 1 0
vn -0 1 0
vn -0 1 0
vn -0 1 0
vn -0 1 0
vn -0 0.99999994 0
vn -0 0.99999994 0
vn -0 0.99999994 0
g pb_Mesh255430_0
f 3/3/3 2/2/2 1/1/1
f 3/3/3 4/4/4 2/2/2
f 7/7/7 6/6/6 5/5/5
f 7/7/7 8/8/8 6/6/6
f 11/11/11 10/10/10 9/9/9
f 11/11/11 12/12/12 10/10/10
f 15/15/15 14/14/14 13/13/13
f 15/15/15 16/16/16 14/14/14
f 17/17/17 16/16/16 15/15/15
f 17/17/17 18/18/18 16/16/16
f 21/21/21 20/20/20 19/19/19
f 21/21/21 22/22/22 20/20/20
f 25/25/25 24/24/24 23/23/23
f 25/25/25 26/26/26 24/24/24
f 29/29/29 28/28/28 27/27/27
f 29/29/29 30/30/30 28/28/28
f 33/33/33 32/32/32 31/31/31
f 33/33/33 34/34/34 32/32/32
f 35/35/35 34/34/34 33/33/33
f 35/35/35 36/36/36 34/34/34
f 39/39/39 38/38/38 37/37/37
f 39/39/39 40/40/40 38/38/38
f 41/41/41 40/40/40 39/39/39
f 41/41/41 42/42/42 40/40/40
f 45/45/45 44/44/44 43/43/43
f 45/45/45 46/46/46 44/44/44
f 49/49/49 48/48/48 47/47/47
f 49/49/49 50/50/50 48/48/48
f 53/53/53 52/52/52 51/51/51
f 53/53/53 54/54/54 52/52/52
f 55/55/55 54/54/54 53/53/53
f 55/55/55 56/56/56 54/54/54
f 59/59/59 58/58/58 57/57/57
f 59/59/59 60/60/60 58/58/58
f 61/61/61 60/60/60 59/59/59
f 61/61/61 62/62/62 60/60/60
f 65/65/65 64/64/64 63/63/63
f 65/65/65 66/66/66 64/64/64
f 69/69/69 68/68/68 67/67/67
f 69/69/69 70/70/70 68/68/68
f 73/73/73 72/72/72 71/71/71
f 73/73/73 74/74/74 72/72/72
f 77/77/77 76/76/76 75/75/75
f 77/77/77 78/78/78 76/76/76
f 79/79/79 78/78/78 77/77/77
f 79/79/79 80/80/80 78/78/78
f 83/83/83 82/82/82 81/81/81
f 83/83/83 84/84/84 82/82/82
f 85/85/85 84/84/84 83/83/83
f 85/85/85 86/86/86 84/84/84
f 89/89/89 88/88/88 87/87/87
f 89/89/89 90/90/90 88/88/88
f 93/93/93 92/92/92 91/91/91
f 91/91/91 92/92/92 94/94/94
f 97/97/97 96/96/96 95/95/95
f 99/99/99 92/92/92 98/98/98
f 98/98/98 92/92/92 100/100/100
f 102/102/102 96/96/96 101/101/101
f 101/101/101 96/96/96 103/103/103
f 105/105/105 92/92/92 104/104/104
f 107/107/107 96/96/96 106/106/106
f 110/110/110 109/109/109 108/108/108
f 108/108/108 109/109/109 111/111/111
f 111/111/111 109/109/109 112/112/112
f 112/112/112 92/92/92 113/113/113
f 115/115/115 96/96/96 114/114/114
f 117/117/117 92/92/92 116/116/116
f 116/116/116 92/92/92 118/118/118
f 118/118/118 109/109/109 119/119/119
f 119/119/119 92/92/92 120/120/120
f 123/123/123 122/122/122 121/121/121
f 125/125/125 92/92/92 124/124/124
f 124/124/124 92/92/92 126/126/126
f 128/128/128 96/96/96 127/127/127
f 130/130/130 92/92/92 129/129/129
f 129/129/129 92/92/92 131/131/131
f 131/131/131 92/92/92 132/132/132
f 134/134/134 96/96/96 133/133/133
f 137/137/137 136/136/136 135/135/135
f 139/139/139 138/138/138 137/137/137
f 140/140/140 138/138/138 139/139/139
f 141/141/141 138/138/138 140/140/140
f 142/142/142 136/136/136 141/141/141
f 145/145/145 144/144/144 143/143/143
f 146/146/146 144/144/144 145/145/145
f 148/148/148 136/136/136 147/147/147
f 149/149/149 136/136/136 148/148/148
f 150/150/150 136/136/136 149/149/149
f 151/151/151 136/136/136 150/150/150
f 152/152/152 136/136/136 151/151/151
f 154/154/154 144/144/144 153/153/153
f 155/155/155 144/144/144 154/154/154
f 156/156/156 144/144/144 155/155/155
f 158/158/158 136/136/136 157/157/157
f 160/160/160 144/144/144 159/159/159
f 161/161/161 144/144/144 160/160/160
f 163/163/163 136/136/136 162/162/162
f 164/164/164 136/136/136 163/163/163
f 165/165/165 138/138/138 164/164/164
f 166/166/166 136/136/136 165/165/165
f 167/167/167 138/138/138 166/166/166
f 168/168/168 136/136/136 167/167/167
f 169/169/169 136/136/136 168/168/168
f 172/172/172 171/171/171 170/170/170
