g pb_Mesh546634
v -4.085623 0.24401766 -0.50281084
v -2.0098214 0.98087585 0.35311058
v -2.3276927 0.040892642 3.4164946
v -1.3251351 0.98087585 1.4301176
v -2.3276927 0.040892642 3.4164946
v -1.3251351 0.98087585 1.4301176
v -0.5085186 0.040892642 4.179801
v 0.27748343 0.98087585 2.0481815
v -0.5085186 0.040892642 4.179801
v 0.27748343 0.98087585 2.0481815
v 3.3863175 0.2828532 2.6367435
v 1.3419461 0.98087585 1.7517953
v 3.3863175 0.2828532 2.6367435
v 1.3419461 0.98087585 1.7517953
v 4.183772 0.2828532 0.8823622
v 2.0621178 0.98087585 -0.011655409
v 4.183772 0.2828532 0.8823622
v 2.0621178 0.98087585 -0.011655409
v 2.3801494 0.1792913 -3.4201443
v 1.4023803 0.98087585 -1.2414563
v 2.3801494 0.1792913 -3.4201443
v 1.4023803 0.98087585 -1.2414563
v 0.48165685 0.1792913 -4.266538
v -0.23361342 0.98087585 -1.8854765
v 0.48165685 0.1792913 -4.266538
v -0.23361342 0.98087585 -1.8854765
v -3.2661934 0.24401766 -2.2823324
v -1.3566748 0.98087585 -1.3638041
v -3.2661934 0.24401766 -2.2823324
v -1.3566748 0.98087585 -1.3638041
v -4.085623 0.24401766 -0.50281084
v -2.0098214 0.98087585 0.35311058
v -2.3276927 0.040892642 3.4164946
v 0.0031883395 0.019124072 -0.094731815
v -4.085623 0.24401766 -0.50281084
v -0.5085186 0.040892642 4.179801
v 0.0031883395 0.019124072 -0.094731815
v -2.3276927 0.040892642 3.4164946
v 3.3863175 0.2828532 2.6367435
v 0.0031883395 0.019124072 -0.094731815
v -0.5085186 0.040892642 4.179801
v 4.183772 0.2828532 0.8823622
v 0.0031883395 0.019124072 -0.094731815
v 3.3863175 0.2828532 2.6367435
v 2.3801494 0.1792913 -3.4201443
v 0.0031883395 0.019124072 -0.094731815
v 4.183772 0.2828532 0.8823622
v 0.48165685 0.1792913 -4.266538
v 0.0031883395 0.019124072 -0.094731815
v 2.3801494 0.1792913 -3.4201443
v -3.2661934 0.24401766 -2.2823324
v 0.0031883395 0.019124072 -0.094731815
v 0.48165685 0.1792913 -4.266538
v -4.085623 0.24401766 -0.50281084
v 0.0031883395 0.019124072 -0.094731815
v -3.2661934 0.24401766 -2.2823324
v -2.0098214 0.98087585 0.35311058
v 8.614187E-05 0.98087585 0.004233286
v -1.3251351 0.98087585 1.4301176
v -1.3251351 0.98087585 1.4301176
v 8.614187E-05 0.98087585 0.004233286
v 0.27748343 0.98087585 2.0481815
v 0.27748343 0.98087585 2.0481815
v 1.3419461 0.98087585 1.7517953
v 2.0621178 0.98087585 -0.011655409
v 1.4023803 0.98087585 -1.2414563
v -0.23361342 0.98087585 -1.8854765
v -1.3566748 0.98087585 -1.3638041
vt 3.606998 -0.93211424
vt 1.413502 -0.052860245
vt 2.0961444 3.094032
vt 0.7918827 1.0612508
vt 2.2904482 3.0380995
vt 1.1490895 0.9093242
vt 0.4952142 3.8561254
vt -0.43243873 1.5792313
vt 0.5095009 3.771572
vt -0.14689283 1.4021174
vt -3.3202937 2.056348
vt -1.2022232 1.0747254
vt -3.1787798 2.4678488
vt -1.0213482 1.5760456
vt -3.9456353 0.6998779
vt -1.7138863 -0.19830097
vt -3.7607298 1.200107
vt -1.5331295 0.29141724
vt -2.1324818 -3.17301
vt -0.923114 -0.9634972
vt -2.3339436 -3.1271908
vt -1.2566298 -0.85020894
vt -0.45293993 -4.0117707
vt 0.36429325 -1.5308195
vt -0.5067742 -3.9479225
vt 0.045054995 -1.3946719
vt 3.1620886 -1.8202269
vt 1.1480936 -0.83196265
vt 3.0409687 -2.0935314
vt 0.9981795 -1.1662084
vt 3.8223348 -0.29697117
vt 1.6209869 0.5614565
vt -2.3266625 3.417401
vt 0.0021877608 -0.09524037
vt -4.0927873 -0.50348383
vt -0.5086008 4.1799455
vt 0.003149423 -0.094637945
vt -2.3277712 3.41663
vt 3.3976698 2.6372347
vt 0.0044659367 -0.09447609
vt -0.50462246 4.180425
vt 4.19309 0.8832103
vt 0.0042719673 -0.09421086
vt 3.3969285 2.638179
vt 2.3867328 -3.420205
vt 0.0043976237 -0.0947811
vt 4.193291 0.8823163
vt 0.48451218 -4.2699523
vt 0.0034992883 -0.09536467
vt 2.3827531 -3.4229941
vt -3.2733395 -2.2850873
vt 0.0024209255 -0.09546999
vt 0.47410077 -4.2711225
vt -4.0927997 -0.50336814
vt 0.0021796788 -0.09516984
vt -3.2745008 -2.2834098
vt 2.0098214 0.35311058
vt -8.614187E-05 0.004233286
vt 1.3251351 1.4301176
vt 1.3251351 1.4301176
vt -8.614187E-05 0.004233286
vt -0.27748343 2.0481815
vt -0.27748343 2.0481815
vt -1.3419461 1.7517953
vt -2.0621178 -0.011655409
vt -1.4023803 -1.2414563
vt 0.23361342 -1.8854765
vt 1.3566748 -1.3638041
vn -0.351547 0.91558945 0.05229818
vn -0.34508914 0.9188267 0.06003387
vn -0.27476296 0.90418637 0.29528487
vn -0.2584951 0.9098711 0.29749075
vn -0.27476296 0.90418637 0.29528487
vn -0.2584951 0.9098711 0.29749075
vn -0.013519555 0.90712893 0.39746222
vn -0.009812199 0.9082453 0.39607304
vn -0.013519555 0.90712893 0.39746222
vn -0.009812199 0.9082453 0.39607304
vn 0.19509912 0.9233545 0.2795793
vn 0.19502415 0.92534614 0.2731476
vn 0.19509912 0.9233545 0.2795793
vn 0.19502415 0.92534614 0.2731476
vn 0.32256538 0.9326756 -0.031156264
vn 0.3177061 0.9348111 -0.035352048
vn 0.32256538 0.9326756 -0.031156264
vn 0.3177061 0.9348111 -0.035352048
vn 0.24818404 0.93033016 -0.23552415
vn 0.23278253 0.93519485 -0.23657042
vn 0.24818404 0.93033016 -0.23552415
vn 0.23278253 0.93519485 -0.23657042
vn -0.026788369 0.93279326 -0.32485116
vn -0.031018741 0.9332661 -0.32491505
vn -0.026788369 0.93279326 -0.32485116
vn -0.031018741 0.9332661 -0.32491505
vn -0.2365869 0.9297976 -0.25039807
vn -0.23394217 0.92965263 -0.24820821
vn -0.2365869 0.9297976 -0.25039807
vn -0.23394217 0.92965263 -0.24820821
vn -0.351547 0.91558945 0.05229818
vn -0.34508914 0.9188267 0.06003387
vn -0.052073028 -0.9982399 -0.028379198
vn -0.052073028 -0.9982399 -0.028379198
vn -0.052073028 -0.9982399 -0.028379198
vn -0.002034584 -0.99998605 0.0048489873
vn -0.002034584 -0.99998605 0.0048489873
vn -0.002034584 -0.99998605 0.0048489873
vn 0.06717658 -0.99765474 0.013122425
vn 0.06717658 -0.99765474 0.013122425
vn 0.06717658 -0.99765474 0.013122425
vn 0.056914385 -0.9980438 0.025870452
vn 0.056914385 -0.9980438 0.025870452
vn 0.056914385 -0.9980438 0.025870452
vn 0.063570604 -0.9979739 -0.002627609
vn 0.063570604 -0.9979739 -0.002627609
vn 0.063570604 -0.9979739 -0.002627609
vn 0.0162708 -0.9992014 -0.036496002
vn 0.0162708 -0.9992014 -0.036496002
vn 0.0162708 -0.9992014 -0.036496002
vn -0.039957937 -0.9982796 -0.042909533
vn -0.039957937 -0.9982796 -0.042909533
vn -0.039957937 -0.9982796 -0.042909533
vn -0.052497603 -0.99832845 -0.024173958
vn -0.052497603 -0.99832845 -0.024173958
vn -0.052497603 -0.99832845 -0.024173958
vn -0 1 0
vn -0 1 0
vn -0 1 0
vn -0 0.99999994 0
vn -0 0.99999994 0
vn -0 0.99999994 0
vn -0 1 0
vn -0 1 0
vn -0 1 0
vn -0 1 0
vn -0 1 0
vn -0 1 0
g pb_Mesh546634_0
f 3/3/3 2/2/2 1/1/1
f 3/3/3 4/4/4 2/2/2
f 7/7/7 6/6/6 5/5/5
f 7/7/7 8/8/8 6/6/6
f 11/11/11 10/10/10 9/9/9
f 11/11/11 12/12/12 10/10/10
f 15/15/15 14/14/14 13/13/13
f 15/15/15 16/16/16 14/14/14
f 19/19/19 18/18/18 17/17/17
f 19/19/19 20/20/20 18/18/18
f 23/23/23 22/22/22 21/21/21
f 23/23/23 24/24/24 22/22/22
f 27/27/27 26/26/26 25/25/25
f 27/27/27 28/28/28 26/26/26
f 31/31/31 30/30/30 29/29/29
f 31/31/31 32/32/32 30/30/30
f 35/35/35 34/34/34 33/33/33
f 38/38/38 37/37/37 36/36/36
f 41/41/41 40/40/40 39/39/39
f 44/44/44 43/43/43 42/42/42
f 47/47/47 46/46/46 45/45/45
f 50/50/50 49/49/49 48/48/48
f 53/53/53 52/52/52 51/51/51
f 56/56/56 55/55/55 54/54/54
f 59/59/59 58/58/58 57/57/57
f 62/62/62 61/61/61 60/60/60
f 64/64/64 58/58/58 63/63/63
f 65/65/65 58/58/58 64/64/64
f 66/66/66 58/58/58 65/65/65
f 67/67/67 58/58/58 66/66/66
f 68/68/68 58/58/58 67/67/67
f 57/57/57 58/58/58 68/68/68
