g pb_Mesh147930
v -0 0 0
v -18.303316 0 2.8774557E-06
v -0 1 0
v -18.249454 1 -0.0004944414
v -18.303316 0 2.8774557E-06
v -18.249859 0 -1.0000061
v -18.249454 1 -0.0004944414
v -18.249414 1 -1.000013
v -7.99724 -1.3590147E-09 -18.343819
v 0.002904196 -1.3590147E-09 -18.343956
v -7.9967957 1 -18.343826
v 0.002904196 1 -18.343956
v -0 0 -1
v -0 0 0
v -0 1 -1
v -0 1 0
v -0 1 0
v -18.249454 1 -0.0004944414
v -0 1 -1
v -18.249414 1 -1.000013
v -0 0 -1
v -18.249859 0 -1.0000061
v -0 0 0
v -18.303316 0 2.8774557E-06
v -18.249859 0 -1.0000061
v -0 0 -1
v -18.249868 -6.914287E-10 -7.9905944
v 1.0464513E-05 -6.914287E-10 -7.9905887
v -18.249414 1 -1.000013
v -18.249859 0 -1.0000061
v -18.249424 1 -7.990601
v -18.249868 -6.914287E-10 -7.9905944
v -0 0 -1
v -0 1 -1
v 1.0464513E-05 -6.914287E-10 -7.9905887
v 0.0029457058 1 -7.990591
v -18.249414 1 -1.000013
v 0.0029457058 1 -7.990591
v -18.249424 1 -7.990601
v -18.249868 -6.914287E-10 -7.9905944
v -7.99724 -1.3590147E-09 -18.343819
v 0.002904196 -1.3590147E-09 -18.343956
v -18.249424 1 -7.990601
v -18.249868 -6.914287E-10 -7.9905944
v -7.9967957 1 -18.343826
v -7.99724 -1.3590147E-09 -18.343819
v 1.0464513E-05 -6.914287E-10 -7.9905887
v 0.0029457058 1 -7.990591
v 0.002904196 -1.3590147E-09 -18.343956
v 0.002904196 1 -18.343956
v 0.002904196 1 -18.343956
v -7.9967957 1 -18.343826
vt 0 0
vt -18.303316 0
vt 0 1
vt -18.249454 1
vt 0.9770442 -0.98113525
vt -0.024392571 -0.98113525
vt 0.97367245 0.020308778
vt -0.024423199 0.017446794
vt 7.9969254 0.00013981198
vt -0.0032190853 0.00013981198
vt 7.996481 1.0001398
vt -0.0032190853 1.0001398
vt 1 0
vt 0 0
vt 1 1
vt 0 1
vt 0 0
vt 18.249454 -0.0004944414
vt 0 -1
vt 18.249414 -1.000013
vt 0 -1
vt -18.249859 -1.0000061
vt 0 0
vt -18.303316 2.8774557E-06
vt -18.249859 -1.0000061
vt -0 -1
vt -18.249868 -7.9905944
vt 1.0464513E-05 -7.9905887
vt -1.0000379 0.99188966
vt -1.000031 -0.00811046
vt -7.990626 0.99188966
vt -7.990619 -0.008110461
vt 1 0
vt 1 1
vt 7.9905887 -6.914287E-10
vt 7.990591 1
vt 18.249414 -1.000013
vt -0.0029457058 -7.990591
vt 18.249424 -7.990601
vt -18.249868 -7.9905944
vt -7.99724 -18.343819
vt 0.002904196 -18.343956
vt 7.163415 0.99421704
vt 7.1637325 -0.005782978
vt -7.4072967 0.99421704
vt -7.4069786 -0.005782978
vt 7.9905887 -6.5253457E-06
vt 7.990592 0.9999978
vt 18.343956 -6.526014E-06
vt 18.343956 0.9999892
vt -0.002904196 -18.343956
vt 7.9967957 -18.343826
vn 1.5720953E-07 0 1
vn -1.34480615E-05 0.00024902157 0.9999999
vn -1.34480615E-05 0.00024902157 0.9999999
vn -2.7093485E-05 0.0004987781 0.9999998
vn -0.9971345 0.05368077 -0.0533036
vn -0.9992745 0.027126575 -0.026735568
vn -0.9992745 0.027126575 -0.026735568
vn -0.9999998 0.00044441188 -4.0073606E-05
vn -1.7165828E-05 -7.6217657E-06 -1
vn -1.6689464E-05 -3.8109888E-06 -1
vn -1.6689464E-05 -3.8109888E-06 -1
vn -1.6213073E-05 0 -1
vn 1 0 0
vn 1 0 0
vn 1 0 0
vn 1 0 0
vn -0 1 0
vn -0 1 0
vn -0 1 0
vn -0 0.99999994 0
vn -0 -1 0
vn -0 -1 0
vn -0 -1 0
vn -0 -1 0
vn -3.2949926E-17 -0.99999994 9.890851E-11
vn -3.213919E-17 -0.99999994 9.89085E-11
vn -3.213919E-17 -0.99999994 9.89085E-11
vn -3.1328453E-17 -1 9.89085E-11
vn -0.9999999 0.00044441217 1.364226E-06
vn -0.9999999 0.0004444122 1.364226E-06
vn -0.9999999 0.0004444122 1.364226E-06
vn -0.9999999 0.0004444122 1.364226E-06
vn 0.99999994 0 1.496943E-06
vn 0.9999988 -0.0014676186 0.00021143901
vn 0.9999988 -0.0014676186 0.00021143901
vn 0.9999956 -0.0029352275 0.00042137966
vn -0 1 0
vn -0 1 0
vn -0 1 0
vn -2.0217285E-17 -1 6.4480955E-11
vn 3.2419088E-16 -1 6.448069E-11
vn 1.109842E-15 -1 6.448008E-11
vn -0.7105503 0.00031107987 -0.70364624
vn -0.7105503 0.00031079078 -0.7036463
vn -0.7105503 0.00031079078 -0.7036463
vn -0.71055025 0.0003105017 -0.7036463
vn 0.99999565 -0.0029352277 0.00027949543
vn 0.99999887 -0.0014676187 0.00013774354
vn 0.99999887 -0.0014676187 0.00013774354
vn 1 0 -4.0093E-06
vn -0 1 0
vn -0 1 0
g pb_Mesh147930_0
f 3/3/3 2/2/2 1/1/1
f 3/3/3 4/4/4 2/2/2
f 7/7/7 6/6/6 5/5/5
f 7/7/7 8/8/8 6/6/6
f 11/11/11 10/10/10 9/9/9
f 11/11/11 12/12/12 10/10/10
f 15/15/15 14/14/14 13/13/13
f 15/15/15 16/16/16 14/14/14
f 19/19/19 18/18/18 17/17/17
f 19/19/19 20/20/20 18/18/18
f 23/23/23 22/22/22 21/21/21
f 23/23/23 24/24/24 22/22/22
f 27/27/27 26/26/26 25/25/25
f 27/27/27 28/28/28 26/26/26
f 31/31/31 30/30/30 29/29/29
f 31/31/31 32/32/32 30/30/30
f 35/35/35 34/34/34 33/33/33
f 35/35/35 36/36/36 34/34/34
f 38/38/38 37/37/37 19/19/19
f 38/38/38 39/39/39 37/37/37
f 41/41/41 28/28/28 40/40/40
f 41/41/41 42/42/42 28/28/28
f 45/45/45 44/44/44 43/43/43
f 45/45/45 46/46/46 44/44/44
f 49/49/49 48/48/48 47/47/47
f 49/49/49 50/50/50 48/48/48
f 51/51/51 39/39/39 38/38/38
f 51/51/51 52/52/52 39/39/39
