g pb_Mesh295784
v 0.16012977 0.16654563 -0.16011551
v -9.972184E-07 0.16654563 1.5258798E-05
v -1.002266E-06 0.16654563 -0.22644393
v -1.002266E-06 0.16654563 -0.22644393
v -9.972184E-07 0.16654563 1.5258798E-05
v -0.16013189 0.14985418 -0.16011551
v 0.19091782 0.13019991 -0.19090356
v 0.16012977 0.16654563 -0.16011551
v -1.002266E-06 0.16654563 -0.22644393
v 0.19091782 0.13019991 -0.19090356
v -1.002266E-06 0.16654563 -0.22644393
v -9.972184E-07 0.12177181 -0.26998472
v -9.972184E-07 0.12177181 -0.26998472
v -1.002266E-06 0.16654563 -0.22644393
v -0.16013189 0.14985418 -0.16011551
v -0.19091982 0.088748455 -0.19090356
v -0.19091982 0.088748455 -0.19090356
v -0.16013189 0.14985418 -0.16011551
v -0.22646019 0.15551496 1.5258798E-05
v -0.19091982 0.088748455 -0.19090356
v -0.22646019 0.15551496 1.5258798E-05
v -0.27000096 0.12177181 1.5258798E-05
v -0.27000096 0.12177181 1.5258798E-05
v -0.22646019 0.15551496 1.5258798E-05
v -0.16013189 0.16654563 0.16014603
v -0.27000096 0.12177181 1.5258798E-05
v -0.16013189 0.16654563 0.16014603
v -0.19091982 0.12177181 0.19093408
v -0.19091982 0.12177181 0.19093408
v -0.16013189 0.16654563 0.16014603
v -1.002266E-06 0.16654563 0.22647445
v -9.972184E-07 0.14290118 0.27001524
v -9.972184E-07 0.14290118 0.27001524
v -1.002266E-06 0.16654563 0.22647445
v 0.16012977 0.16654563 0.16014615
v -9.972184E-07 0.14290118 0.27001524
v 0.16012977 0.16654563 0.16014615
v 0.19091783 0.12177181 0.19093409
v 0.19091783 0.12177181 0.19093409
v 0.16012977 0.16654563 0.16014615
v 0.2264582 0.16654563 1.5258798E-05
v 0.26999903 0.092391014 1.5258798E-05
v 0.26999903 0.092391014 1.5258798E-05
v 0.2264582 0.16654563 1.5258798E-05
v 0.16012977 0.16654563 -0.16011551
v 0.19091782 0.13019991 -0.19090356
v 0.2264582 0.16654563 1.5258798E-05
v 0.16012977 0.16654563 0.16014615
v -1.002266E-06 0.16654563 0.22647445
v -9.972184E-07 0.16654563 1.5258798E-05
v -0.16013189 0.16654563 0.16014603
v -0.16013189 0.14985418 -0.16011551
v -9.972184E-07 0.16654563 1.5258798E-05
v -0.22646019 0.15551496 1.5258798E-05
v -0.16013189 0.16654563 0.16014603
v -0.19091982 -2.0684435 0.19093408
v -0.19091982 0.12177181 0.19093408
v -9.972184E-07 0.14290118 0.27001524
v -9.972184E-07 -2.0684435 0.27001524
v -0.27000096 -2.0684435 1.5258798E-05
v -0.27000096 0.12177181 1.5258798E-05
v -0.19091982 0.12177181 0.19093408
v -0.19091982 -2.0684435 0.19093408
v -0.19091982 -2.0684435 -0.19090356
v -0.19091982 0.088748455 -0.19090356
v -0.27000096 0.12177181 1.5258798E-05
v -0.27000096 -2.0684435 1.5258798E-05
v -9.972184E-07 -2.0684435 -0.26998472
v -9.972184E-07 0.12177181 -0.26998472
v -0.19091982 0.088748455 -0.19090356
v -0.19091982 -2.0684435 -0.19090356
v 0.19091782 -2.0684435 -0.19090356
v 0.19091782 0.13019991 -0.19090356
v -9.972184E-07 0.12177181 -0.26998472
v -9.972184E-07 -2.0684435 -0.26998472
v 0.26999903 -2.0684435 1.5258798E-05
v 0.26999903 0.092391014 1.5258798E-05
v 0.19091782 0.13019991 -0.19090356
v 0.19091782 -2.0684435 -0.19090356
v 0.19091783 -2.0684435 0.19093409
v 0.19091783 0.12177181 0.19093409
v 0.26999903 0.092391014 1.5258798E-05
v 0.26999903 -2.0684435 1.5258798E-05
v -9.972184E-07 -2.0684435 0.27001524
v -9.972184E-07 0.14290118 0.27001524
v 0.19091783 0.12177181 0.19093409
v 0.19091783 -2.0684435 0.19093409
vt 0.3063078 0.90978944
vt 0.30154568 0.90547407
vt 0.30154568 0.91157687
vt 0.30154568 0.91157687
vt 0.30154568 0.90547407
vt 0.2968012 0.90979135
vt 0.30669072 0.91061914
vt 0.3063078 0.90978944
vt 0.30154568 0.91157687
vt 0.30669072 0.91061914
vt 0.30154568 0.91157687
vt 0.30154568 0.91275024
vt 0.30154568 0.91275024
vt 0.30154568 0.91157687
vt 0.2968012 0.90979135
vt 0.29640073 0.91061914
vt 0.29477048 0.91070735
vt 0.2968012 0.90979135
vt 0.29587173 0.905475
vt 0.29477048 0.91070735
vt 0.29587173 0.905475
vt 0.29539245 0.90552306
vt 0.29539245 0.90552306
vt 0.29587173 0.905475
vt 0.29680204 0.9011549
vt 0.29539245 0.90552306
vt 0.29680204 0.9011549
vt 0.29512566 0.900385
vt 0.29640073 0.9003291
vt 0.29680204 0.9011549
vt 0.30154568 0.8993714
vt 0.30154568 0.898198
vt 0.30154568 0.898198
vt 0.30154568 0.8993714
vt 0.3063079 0.9011588
vt 0.30154568 0.898198
vt 0.3063079 0.9011588
vt 0.30669072 0.9003291
vt 0.30796146 0.9003291
vt 0.3063079 0.9011588
vt 0.30720156 0.90547407
vt 0.3087531 0.9054742
vt 0.3087531 0.9054742
vt 0.30720156 0.90547407
vt 0.3063078 0.90978944
vt 0.30773407 0.91061914
vt 0.30720156 0.90547407
vt 0.3063079 0.9011588
vt 0.30154568 0.8993714
vt 0.30154568 0.90547407
vt 0.29680204 0.9011549
vt 0.2968012 0.90979135
vt 0.30154568 0.90547407
vt 0.29587173 0.905475
vt 0.29680204 0.9011549
vt 0.31217968 0.8028161
vt 0.3161763 0.8028161
vt 0.31686974 0.7965501
vt 0.31217968 0.7965501
vt 0.31240043 0.79546815
vt 0.31639713 0.79546815
vt 0.31639713 0.78920215
vt 0.31240043 0.78920215
vt 0.31240043 0.80173427
vt 0.31531322 0.80173427
vt 0.31639713 0.79546815
vt 0.31240043 0.79546815
vt 0.31602818 0.7954983
vt 0.3120315 0.7954983
vt 0.31311536 0.8017643
vt 0.31602818 0.8017643
vt 0.31602818 0.7892322
vt 0.3117549 0.7892322
vt 0.3120315 0.7954983
vt 0.31602818 0.7954983
vt 0.31204632 0.7964218
vt 0.31507865 0.7964218
vt 0.31631956 0.79015577
vt 0.31204632 0.79015577
vt 0.31204632 0.8026878
vt 0.31604293 0.8026878
vt 0.31507865 0.7964218
vt 0.31204632 0.7964218
vt 0.31217968 0.7965501
vt 0.31686974 0.7965501
vt 0.3161763 0.790284
vt 0.31217968 0.790284
vn -0 1 0
vn -0 1 0
vn -0 1 0
vn -0.10367457 0.99461126 2.3108173E-09
vn -0.10367457 0.99461126 2.3108173E-09
vn -0.10367457 0.99461126 2.3108173E-09
vn 0.25725046 0.7040977 -0.66186744
vn 0.2565547 0.74199176 -0.61937696
vn 0.25725046 0.7040977 -0.66186744
vn 0.25725046 0.7040977 -0.66186744
vn 0.25725046 0.7040977 -0.66186744
vn 0.25722107 0.67370856 -0.69278723
vn -0.37665385 0.6031226 -0.703118
vn -0.34669843 0.6539257 -0.6724442
vn -0.37665385 0.6031226 -0.703118
vn -0.39730996 0.56466454 -0.72339386
vn -0.67788804 0.6454626 -0.35191745
vn -0.7625411 0.55320036 -0.33541083
vn -0.67788804 0.6454626 -0.35191745
vn -0.67788804 0.6454626 -0.35191745
vn -0.67788804 0.6454626 -0.35191745
vn -0.5706079 0.73628914 -0.3637099
vn -0.65308785 0.71551025 0.24803501
vn -0.6007481 0.7751808 0.19543923
vn -0.65308785 0.71551025 0.24803501
vn -0.65308785 0.71551025 0.24803501
vn -0.65308785 0.71551025 0.24803501
vn -0.68724847 0.6683217 0.28466758
vn -0.28679356 0.76110125 0.58178556
vn -0.28466758 0.66832244 0.6872479
vn -0.28679356 0.76110125 0.58178556
vn -0.28288043 0.84289175 0.45772496
vn 0.28679347 0.7611011 0.58178574
vn 0.19391738 0.86210436 0.46815825
vn 0.28679347 0.7611011 0.58178574
vn 0.28679347 0.7611011 0.58178574
vn 0.28679347 0.7611011 0.58178574
vn 0.34331653 0.68091273 0.6469093
vn 0.781077 0.55979085 0.27668166
vn 0.68724763 0.66832256 0.2846675
vn 0.781077 0.55979085 0.27668166
vn 0.83055747 0.4876724 0.2689796
vn 0.7679849 0.5875912 -0.2548251
vn 0.8120872 0.47682726 -0.33637804
vn 0.7679849 0.5875912 -0.2548251
vn 0.6905666 0.7084318 -0.14574687
vn -0 1 0
vn -0 1 0
vn -0 1 0
vn -0 1 0
vn -0 1 0
vn -0.048576985 0.99728316 -0.055376127
vn -0.048585854 0.9974652 -0.051986065
vn -0.048585854 0.9974652 -0.051986065
vn -0.048594162 0.9976357 -0.0485942
vn -0.38268343 0 0.9238795
vn -0.38268346 0 0.92387956
vn -0.38268343 0 0.9238795
vn -0.3826834 0 0.9238795
vn -0.92387956 0 0.3826834
vn -0.92387956 0 0.3826834
vn -0.92387956 0 0.3826834
vn -0.92387956 0 0.3826834
vn -0.9238795 0 -0.3826834
vn -0.9238796 0 -0.38268337
vn -0.9238795 0 -0.3826834
vn -0.92387956 0 -0.3826834
vn -0.38268346 0 -0.9238795
vn -0.38268346 0 -0.92387956
vn -0.38268346 0 -0.9238795
vn -0.3826834 0 -0.9238795
vn 0.38268346 0 -0.92387956
vn 0.38268343 0 -0.9238795
vn 0.38268346 0 -0.92387956
vn 0.38268346 0 -0.92387956
vn 0.92387944 0 -0.3826836
vn 0.9238795 0 -0.3826836
vn 0.92387944 0 -0.3826836
vn 0.92387944 0 -0.3826836
vn 0.92387944 0 0.38268352
vn 0.92387956 0 0.38268355
vn 0.92387944 0 0.38268352
vn 0.92387956 0 0.38268355
vn 0.38268334 0 0.92387956
vn 0.38268334 0 0.9238796
vn 0.38268334 0 0.92387956
vn 0.38268337 0 0.92387956
g pb_Mesh295784_0
f 3/3/3 2/2/2 1/1/1
f 6/6/6 5/5/5 4/4/4
f 9/9/9 8/8/8 7/7/7
f 12/12/12 11/11/11 10/10/10
f 15/15/15 14/14/14 13/13/13
f 16/16/16 15/15/15 13/13/13
f 19/19/19 18/18/18 17/17/17
f 22/22/22 21/21/21 20/20/20
f 25/25/25 24/24/24 23/23/23
f 28/28/28 27/27/27 26/26/26
f 31/31/31 30/30/30 29/29/29
f 32/32/32 31/31/31 29/29/29
f 35/35/35 34/34/34 33/33/33
f 38/38/38 37/37/37 36/36/36
f 41/41/41 40/40/40 39/39/39
f 42/42/42 41/41/41 39/39/39
f 45/45/45 44/44/44 43/43/43
f 46/46/46 45/45/45 43/43/43
f 1/1/1 2/2/2 47/47/47
f 47/47/47 2/2/2 48/48/48
f 48/48/48 50/50/50 49/49/49
f 49/49/49 50/50/50 51/51/51
f 54/54/54 53/53/53 52/52/52
f 55/55/55 53/53/53 54/54/54
f 58/58/58 57/57/57 56/56/56
f 59/59/59 58/58/58 56/56/56
f 62/62/62 61/61/61 60/60/60
f 63/63/63 62/62/62 60/60/60
f 66/66/66 65/65/65 64/64/64
f 67/67/67 66/66/66 64/64/64
f 70/70/70 69/69/69 68/68/68
f 71/71/71 70/70/70 68/68/68
f 74/74/74 73/73/73 72/72/72
f 75/75/75 74/74/74 72/72/72
f 78/78/78 77/77/77 76/76/76
f 79/79/79 78/78/78 76/76/76
f 82/82/82 81/81/81 80/80/80
f 83/83/83 82/82/82 80/80/80
f 86/86/86 85/85/85 84/84/84
f 87/87/87 86/86/86 84/84/84
