g pb_Mesh444288
v 1.7007861 -0.65981674 1.1952782
v -9.814602 -0.65981674 1.1952782
v 1.7007861 10.677662 0
v -9.814602 10.677662 0
v -9.814602 -0.65981674 1.1952782
v -10.395786 -0.6598168 -1
v -9.814602 10.677662 0
v -10.395786 10.677662 -1
v -10.395786 -0.6598168 -1
v 2.281971 -0.6598168 -1
v -10.395786 10.677662 -1
v 2.281971 10.677662 -1
v 2.281971 -0.6598168 -1
v 1.7007861 -0.65981674 1.1952782
v 2.281971 10.677662 -1
v 1.7007861 10.677662 0
v 1.7007861 10.677662 0
v -9.814602 10.677662 0
v 2.281971 10.677662 -1
v -10.395786 10.677662 -1
v 2.281971 -0.6598168 -1
v -10.395786 -0.6598168 -1
v 1.7007861 -0.65981674 1.1952782
v -9.814602 -0.65981674 1.1952782
vt 1.7007861 -0.7815004
vt -9.814602 -0.7815004
vt 1.7007861 10.618812
vt -9.814602 10.618812
vt -1.3563411 -0.9237283
vt -3.6272488 -0.92372835
vt -2.5118122 10.417877
vt -3.6272488 10.409626
vt 10.395786 -0.6598168
vt -2.281971 -0.6598168
vt 10.395786 10.677662
vt -2.281971 10.677662
vt 1.5507126 -0.6598168
vt -0.72019523 -0.65981674
vt 1.5507126 10.677662
vt 0.43527576 10.677662
vt -1.7007861 0
vt 9.814602 0
vt -2.281971 -1
vt 10.395786 -1
vt 2.281971 -1
vt -10.395786 -1
vt 1.7007861 1.1952782
vt -9.814602 1.1952782
vn -0 0.10484609 0.9944884
vn -0 0.10484609 0.9944884
vn -0 0.10484609 0.9944884
vn -0 0.10484609 0.9944884
vn -0.9663447 0.026971739 0.25583294
vn -0.9395984 0.018017728 0.3418043
vn -0.9395984 0.018017728 0.3418043
vn -0.8645864 0 0.50248414
vn -0 0 -1
vn -0 0 -1
vn -0 0 -1
vn -0 0 -1
vn 0.9666963 0 0.25592622
vn 0.9395984 0.018017743 0.34180456
vn 0.9395984 0.018017743 0.34180456
vn 0.86337566 0.052901328 0.5017808
vn -0 1 0
vn -0 1 0
vn -0 1 0
vn -0 1 0
vn -0 -1 2.7151296E-08
vn -0 -1 2.7151296E-08
vn -0 -1 2.7151296E-08
vn -0 -1 2.7151296E-08
g pb_Mesh444288_0
f 3/3/3 2/2/2 1/1/1
f 3/3/3 4/4/4 2/2/2
f 7/7/7 6/6/6 5/5/5
f 7/7/7 8/8/8 6/6/6
f 11/11/11 10/10/10 9/9/9
f 11/11/11 12/12/12 10/10/10
f 15/15/15 14/14/14 13/13/13
f 15/15/15 16/16/16 14/14/14
f 19/19/19 18/18/18 17/17/17
f 19/19/19 20/20/20 18/18/18
f 23/23/23 22/22/22 21/21/21
f 23/23/23 24/24/24 22/22/22
