g pb_Mesh494594
v -0.06300103 -0.2694792 2.8604527E-06
v -0.06299773 5.958286 2.8604527E-06
v -0.04454875 -0.2694792 0.04455059
v -0.044545446 5.958286 0.04455059
v -1.0385081E-06 -0.2694792 0.06300287
v 2.2843644E-06 5.958286 0.06300287
v -1.0385081E-06 -0.2694792 0.06300287
v 2.2843644E-06 5.958286 0.06300287
v 0.04454671 -0.2694792 0.04455059
v 0.044550013 5.958286 0.04455059
v 0.04454671 -0.2694792 0.04455059
v 0.044550013 5.958286 0.04455059
v 0.06299899 -0.2694792 2.8549448E-06
v 0.06300229 5.958286 2.8549448E-06
v 0.06299899 -0.2694792 2.8549448E-06
v 0.06300229 5.958286 2.8549448E-06
v 0.044546712 -0.2694792 -0.044544864
v 0.044550017 5.958286 -0.044544864
v 0.044546712 -0.2694792 -0.044544864
v 0.044550017 5.958286 -0.044544864
v -1.0420133E-06 -0.2694792 -0.06299715
v 2.2808592E-06 5.958286 -0.06299715
v -1.0420133E-06 -0.2694792 -0.06299715
v 2.2808592E-06 5.958286 -0.06299715
v -0.044548742 -0.2694792 -0.044544876
v -0.04454544 5.958286 -0.044544876
v -0.06300103 -0.2694792 2.8604527E-06
v -0.06299773 5.958286 2.8604527E-06
v -0.04454875 -0.2694792 0.04455059
v -1.0412621E-06 -0.2694792 2.8604527E-06
v -0.06300103 -0.2694792 2.8604527E-06
v -1.0385081E-06 -0.2694792 0.06300287
v -1.0412621E-06 -0.2694792 2.8604527E-06
v -0.04454875 -0.2694792 0.04455059
v 0.04454671 -0.2694792 0.04455059
v -1.0412621E-06 -0.2694792 2.8604527E-06
v -1.0385081E-06 -0.2694792 0.06300287
v 0.06299899 -0.2694792 2.8549448E-06
v -1.0412621E-06 -0.2694792 2.8604527E-06
v 0.04454671 -0.2694792 0.04455059
v 0.044546712 -0.2694792 -0.044544864
v -1.0412621E-06 -0.2694792 2.8604527E-06
v 0.06299899 -0.2694792 2.8549448E-06
v -1.0420133E-06 -0.2694792 -0.06299715
v -1.0412621E-06 -0.2694792 2.8604527E-06
v 0.044546712 -0.2694792 -0.044544864
v -0.044548742 -0.2694792 -0.044544876
v -1.0412621E-06 -0.2694792 2.8604527E-06
v -1.0420133E-06 -0.2694792 -0.06299715
v -0.06300103 -0.2694792 2.8604527E-06
v -1.0412621E-06 -0.2694792 2.8604527E-06
v -0.044548742 -0.2694792 -0.044544876
v -0.06299773 5.958286 2.8604527E-06
v 2.2816105E-06 5.958286 2.8604527E-06
v -0.044545446 5.958286 0.04455059
v -0.044545446 5.958286 0.04455059
v 2.2816105E-06 5.958286 2.8604527E-06
v 2.2843644E-06 5.958286 0.06300287
v 2.2843644E-06 5.958286 0.06300287
v 2.2816105E-06 5.958286 2.8604527E-06
v 0.044550013 5.958286 0.04455059
v 0.044550013 5.958286 0.04455059
v 2.2816105E-06 5.958286 2.8604527E-06
v 0.06300229 5.958286 2.8549448E-06
v 0.06300229 5.958286 2.8549448E-06
v 2.2816105E-06 5.958286 2.8604527E-06
v 0.044550017 5.958286 -0.044544864
v 0.044550017 5.958286 -0.044544864
v 2.2816105E-06 5.958286 2.8604527E-06
v 2.2808592E-06 5.958286 -0.06299715
v 2.2808592E-06 5.958286 -0.06299715
v 2.2816105E-06 5.958286 2.8604527E-06
v -0.04454544 5.958286 -0.044544876
v -0.04454544 5.958286 -0.044544876
v 2.2816105E-06 5.958286 2.8604527E-06
v -0.06299773 5.958286 2.8604527E-06
vt 0.2978885 0.435812
vt 0.29788852 0.45370197
vt 0.2979415 0.435812
vt 0.2979415 0.45370197
vt 0.29806948 0.435812
vt 0.29806948 0.45370197
vt 0.29806948 0.435812
vt 0.29806948 0.45370197
vt 0.29819745 0.435812
vt 0.29819745 0.45370197
vt 0.29819745 0.435812
vt 0.29819745 0.45370197
vt 0.29825047 0.435812
vt 0.29825047 0.45370197
vt 0.29825047 0.435812
vt 0.29825047 0.45370197
vt 0.29819745 0.435812
vt 0.29819745 0.45370197
vt 0.29819745 0.435812
vt 0.29819745 0.45370197
vt 0.29806948 0.435812
vt 0.29806948 0.45370197
vt 0.29806948 0.435812
vt 0.29806948 0.45370197
vt 0.2979415 0.435812
vt 0.2979415 0.45370197
vt 0.2978885 0.435812
vt 0.29788852 0.45370197
vt 0.2979415 0.435812
vt 0.29806948 0.435812
vt 0.2978885 0.435812
vt 0.29806948 0.435812
vt 0.29806948 0.435812
vt 0.2979415 0.435812
vt 0.29819745 0.435812
vt 0.29806948 0.435812
vt 0.29806948 0.435812
vt 0.29825047 0.435812
vt 0.29806948 0.435812
vt 0.29819745 0.435812
vt 0.29819745 0.435812
vt 0.29806948 0.435812
vt 0.29825047 0.435812
vt 0.29806948 0.435812
vt 0.29806948 0.435812
vt 0.29819745 0.435812
vt 0.2979415 0.435812
vt 0.29806948 0.435812
vt 0.29806948 0.435812
vt 0.2978885 0.435812
vt 0.29806948 0.435812
vt 0.2979415 0.435812
vt 0.29788852 0.45370197
vt 0.29806948 0.45370197
vt 0.2979415 0.45370197
vt 0.2979415 0.45370197
vt 0.29806948 0.45370197
vt 0.29806948 0.45370197
vt 0.29806948 0.45370197
vt 0.29806948 0.45370197
vt 0.29819745 0.45370197
vt 0.29819745 0.45370197
vt 0.29806948 0.45370197
vt 0.29825047 0.45370197
vt 0.29825047 0.45370197
vt 0.29806948 0.45370197
vt 0.29819745 0.45370197
vt 0.29819745 0.45370197
vt 0.29806948 0.45370197
vt 0.29806948 0.45370197
vt 0.29806948 0.45370197
vt 0.29806948 0.45370197
vt 0.2979415 0.45370197
vt 0.2979415 0.45370197
vt 0.29806948 0.45370197
vt 0.29788852 0.45370197
vn -0.9238795 4.8977654E-07 -8.940697E-08
vn -0.9238794 4.897803E-07 -5.9604645E-08
vn -0.65328157 3.46486E-07 0.6532815
vn -0.6532815 3.468963E-07 0.6532815
vn -1.0430813E-07 -3.0298963E-10 0.9238795
vn -1.4901161E-08 2.7252156E-10 0.9238795
vn -1.0430813E-07 -3.0298963E-10 0.9238795
vn -1.4901161E-08 2.7252156E-10 0.9238795
vn 0.6532815 -3.4687926E-07 0.6532815
vn 0.6532815 -3.464304E-07 0.65328145
vn 0.6532815 -3.4687926E-07 0.6532815
vn 0.6532815 -3.464304E-07 0.65328145
vn 0.9238795 -4.8977654E-07 -4.4703484E-08
vn 0.92387956 -4.8978046E-07 -7.4505806E-08
vn 0.9238795 -4.8977654E-07 -4.4703484E-08
vn 0.92387956 -4.8978046E-07 -7.4505806E-08
vn 0.65328145 -3.46486E-07 -0.65328157
vn 0.6532815 -3.4694483E-07 -0.65328157
vn 0.65328145 -3.46486E-07 -0.65328157
vn 0.6532815 -3.4694483E-07 -0.65328157
vn -7.4505806E-08 2.546372E-10 -0.9238795
vn -0 -3.6939696E-10 -0.9238795
vn -7.4505806E-08 2.546372E-10 -0.9238795
vn -0 -3.6939696E-10 -0.9238795
vn -0.6532815 3.468793E-07 -0.65328157
vn -0.6532815 3.4643045E-07 -0.6532816
vn -0.9238795 4.8977654E-07 -8.940697E-08
vn -0.9238794 4.897803E-07 -5.9604645E-08
vn -0 -1 0
vn -0 -1 0
vn -0 -1 0
vn -0 -1 0
vn -0 -1 0
vn -0 -1 0
vn -0 -1 0
vn -0 -1 0
vn -0 -1 0
vn -0 -1 0
vn -0 -1 0
vn -0 -1 0
vn -0 -0.99999994 0
vn -0 -0.99999994 0
vn -0 -0.99999994 0
vn -0 -1 0
vn -0 -1 0
vn -0 -1 0
vn -0 -1 0
vn -0 -1 0
vn -0 -1 0
vn -0 -0.99999994 0
vn -0 -0.99999994 0
vn -0 -0.99999994 0
vn -0 0.99999994 0
vn -0 0.99999994 0
vn -0 0.99999994 0
vn -0 0.99999994 0
vn -0 0.99999994 0
vn -0 0.99999994 0
vn -0 0.99999994 0
vn -0 0.99999994 0
vn -0 0.99999994 0
vn -0 0.99999994 0
vn -0 0.99999994 0
vn -0 0.99999994 0
vn -0 1 0
vn -0 1 0
vn -0 1 0
vn -0 0.99999994 0
vn -0 0.99999994 0
vn -0 0.99999994 0
vn -0 1 0
vn -0 1 0
vn -0 1 0
vn -0 1 0
vn -0 1 0
vn -0 1 0
g pb_Mesh494594_0
f 3/3/3 2/2/2 1/1/1
f 3/3/3 4/4/4 2/2/2
f 5/5/5 4/4/4 3/3/3
f 5/5/5 6/6/6 4/4/4
f 9/9/9 8/8/8 7/7/7
f 9/9/9 10/10/10 8/8/8
f 13/13/13 12/12/12 11/11/11
f 13/13/13 14/14/14 12/12/12
f 17/17/17 16/16/16 15/15/15
f 17/17/17 18/18/18 16/16/16
f 21/21/21 20/20/20 19/19/19
f 21/21/21 22/22/22 20/20/20
f 25/25/25 24/24/24 23/23/23
f 25/25/25 26/26/26 24/24/24
f 27/27/27 26/26/26 25/25/25
f 27/27/27 28/28/28 26/26/26
f 31/31/31 30/30/30 29/29/29
f 34/34/34 33/33/33 32/32/32
f 37/37/37 36/36/36 35/35/35
f 40/40/40 39/39/39 38/38/38
f 43/43/43 42/42/42 41/41/41
f 46/46/46 45/45/45 44/44/44
f 49/49/49 48/48/48 47/47/47
f 52/52/52 51/51/51 50/50/50
f 55/55/55 54/54/54 53/53/53
f 58/58/58 57/57/57 56/56/56
f 61/61/61 60/60/60 59/59/59
f 64/64/64 63/63/63 62/62/62
f 67/67/67 66/66/66 65/65/65
f 70/70/70 69/69/69 68/68/68
f 73/73/73 72/72/72 71/71/71
f 76/76/76 75/75/75 74/74/74
