g pb_Mesh414928
v -0.34235382 -5 -2.3425487E-06
v -1 -5 -2.3425487E-06
v -0.34235382 -9.536743E-07 -4.7683716E-07
v -1 -9.536743E-07 -4.7683716E-07
v -1 -5 -2.3425487E-06
v -1 -5 -5.328499
v -1 -9.536743E-07 -4.7683716E-07
v -1 -9.536743E-07 -5.328497
v -1 -5 -5.328499
v -0.34235382 -5 -5.328499
v -1 -9.536743E-07 -5.328497
v -0.34235382 -9.536743E-07 -5.328497
v -0.34235382 -5 -5.328499
v -0.34235382 -5 -2.3425487E-06
v -0.34235382 -9.536743E-07 -5.328497
v -0.34235382 -9.536743E-07 -4.7683716E-07
v -0.34235382 -9.536743E-07 -4.7683716E-07
v -1 -9.536743E-07 -4.7683716E-07
v -0.34235382 -9.536743E-07 -5.328497
v -1 -9.536743E-07 -5.328497
v -0.34235382 -5 -5.328499
v -1 -5 -5.328499
v -0.34235382 -5 -2.3425487E-06
v -1 -5 -2.3425487E-06
vt -0.34235382 -5
vt -1 -5
vt -0.34235382 -9.536745E-07
vt -1 -9.536745E-07
vt -2.3425487E-06 -5
vt -5.328499 -5
vt -4.7683716E-07 -9.536743E-07
vt -5.328497 -9.536743E-07
vt 1 -5.000002
vt 0.34235382 -5.000002
vt 1 -2.9863352E-06
vt 0.34235382 -2.9863352E-06
vt 5.328499 -5
vt 2.3425487E-06 -5
vt 5.328497 -9.536743E-07
vt 4.7683716E-07 -9.536743E-07
vt 0.34235382 -4.7683716E-07
vt 1 -4.7683716E-07
vt 0.34235382 -5.328497
vt 1 -5.328497
vt -0.34235382 -5.328499
vt -1 -5.328499
vt -0.34235382 -2.3425487E-06
vt -1 -2.3425487E-06
vn -0 -3.731424E-07 1
vn -0 -3.731424E-07 1
vn -0 -3.731424E-07 1
vn -0 -3.731424E-07 1
vn -1 0 0
vn -1 0 0
vn -1 0 0
vn -1 0 0
vn -0 3.8146982E-07 -1
vn -0 3.8146982E-07 -1
vn -0 3.8146982E-07 -1
vn -0 3.8146982E-07 -1
vn 1 0 0
vn 1 0 0
vn 1 0 0
vn 1 0 0
vn -0 1 0
vn -0 1 0
vn -0 1 0
vn -0 1 0
vn -0 -1 0
vn -0 -1 0
vn -0 -1 0
vn -0 -1 0
g pb_Mesh414928_0
f 3/3/3 2/2/2 1/1/1
f 3/3/3 4/4/4 2/2/2
f 7/7/7 6/6/6 5/5/5
f 7/7/7 8/8/8 6/6/6
f 11/11/11 10/10/10 9/9/9
f 11/11/11 12/12/12 10/10/10
f 15/15/15 14/14/14 13/13/13
f 15/15/15 16/16/16 14/14/14
f 19/19/19 18/18/18 17/17/17
f 19/19/19 20/20/20 18/18/18
f 23/23/23 22/22/22 21/21/21
f 23/23/23 24/24/24 22/22/22
