g pb_Mesh541950
v -0 0.6315838 0.32533383
v -1 0.6315838 0.32533383
v -0 1.6315838 0.32533383
v -1 1.6315838 0.32533383
v -1 0 0
v -1 0 -1
v -1 1 0
v -1 1 -1
v -1 0 -1
v -0 0 -1
v -1 1 -1
v -0 1 -1
v -0 0 -1
v -0 0 0
v -0 1 -1
v -0 1 0
v -0 1 0
v -1 1 0
v -0 1 -1
v -1 1 -1
v -0 0 -1
v -1 0 -1
v -0 0 0
v -1 0 0
v -0 0 0
v -1 0 0
v -0 0.6315838 0.32533383
v -1 0.6315838 0.32533383
v -0 1 0
v -0 0 0
v -0 1.6315838 0.32533383
v -0 0.6315838 0.32533383
v -1 0 0
v -1 1 0
v -1 0.6315838 0.32533383
v -1 1.6315838 0.32533383
v -1 1 0
v -0 1 0
v -1 1.6315838 0.32533383
v -0 1.6315838 0.32533383
vt 0.14077303 0.47595954
vt 0.13590479 0.47595954
vt 0.14077303 0.4808278
vt 0.13590479 0.4808278
vt 0.14206025 0.4689391
vt 0.13719201 0.4689391
vt 0.14206025 0.47380733
vt 0.13719201 0.47380733
vt 0.14205408 0.46966824
vt 0.13718584 0.46966824
vt 0.14205408 0.47453648
vt 0.13718584 0.47453648
vt 0.14205408 0.46966824
vt 0.13718584 0.46966824
vt 0.14205408 0.47453648
vt 0.13718584 0.47453648
vt 0.13495699 0.47754213
vt 0.13982522 0.47754213
vt 0.13495699 0.4726739
vt 0.13982522 0.4726739
vt 0.14077303 0.4664606
vt 0.13590479 0.4664606
vt 0.14077303 0.47132882
vt 0.13590479 0.47132882
vt 0.1409873 0.46875474
vt 0.13611907 0.46875474
vt 0.1409873 0.47221336
vt 0.13611907 0.47221336
vt 0.13671689 0.47740877
vt 0.13671689 0.47254056
vt 0.1351331 0.48048347
vt 0.1351331 0.47561526
vt 0.13682911 0.4684282
vt 0.13682911 0.4732964
vt 0.1384129 0.4715029
vt 0.1384129 0.4763711
vt 0.14162564 0.4703039
vt 0.1367574 0.4703039
vt 0.14162564 0.47376263
vt 0.1367574 0.47376263
vn -0 0 1
vn -0 0 1
vn -0 0 1
vn -0 0 1
vn -1 0 0
vn -1 0 0
vn -1 0 0
vn -1 0 0
vn -0 0 -1
vn -0 0 -1
vn -0 0 -1
vn -0 0 -1
vn 1 0 0
vn 1 0 0
vn 1 0 0
vn 1 0 0
vn -0 1 0
vn -0 1 0
vn -0 1 0
vn -0 1 0
vn -0 -1 0
vn -0 -1 0
vn -0 -1 0
vn -0 -1 0
vn -0 -0.45792595 0.8889903
vn -0 -0.45792595 0.8889903
vn -0 -0.45792595 0.8889903
vn -0 -0.45792595 0.8889903
vn 1 0 0
vn 1 0 0
vn 1 0 0
vn 1 0 0
vn -1 0 0
vn -1 0 0
vn -1 0 0
vn -1 0 0
vn -0 0.45792595 -0.8889903
vn -0 0.45792595 -0.8889903
vn -0 0.45792595 -0.8889903
vn -0 0.45792595 -0.8889903
g pb_Mesh541950_0
f 3/3/3 2/2/2 1/1/1
f 3/3/3 4/4/4 2/2/2
f 7/7/7 6/6/6 5/5/5
f 7/7/7 8/8/8 6/6/6
f 11/11/11 10/10/10 9/9/9
f 11/11/11 12/12/12 10/10/10
f 15/15/15 14/14/14 13/13/13
f 15/15/15 16/16/16 14/14/14
f 19/19/19 18/18/18 17/17/17
f 19/19/19 20/20/20 18/18/18
f 23/23/23 22/22/22 21/21/21
f 23/23/23 24/24/24 22/22/22
f 27/27/27 26/26/26 25/25/25
f 27/27/27 28/28/28 26/26/26
f 31/31/31 30/30/30 29/29/29
f 31/31/31 32/32/32 30/30/30
f 35/35/35 34/34/34 33/33/33
f 35/35/35 36/36/36 34/34/34
f 39/39/39 38/38/38 37/37/37
f 39/39/39 40/40/40 38/38/38
