g pb_Mesh179678
v -6.9750004 0 26.25
v -8.970626 0 19.4375
v -8.970626 5.3125 19.4375
v -6.9750004 6.75 26.25
v -10.966251 0 12.625
v -10.966251 3.875 12.625
v -12.961876 0 5.8125
v -12.961876 2.4375 5.8125
v -14.957501 0 -1
v -14.957501 0.91651535 -1
v 5.211876 2.4375 5.8125
v 7.2075014 1 -1
v 7.2075014 0 -1
v -0.77499986 0 26.25
v 3.216251 3.875 12.625
v 1.2206255 5.3125 19.4375
v -0.77499986 6.75 26.25
v -0.77499986 6.75 26.25
v -0.77499986 0 26.25
v -3.875 6.75 26.25
v -6.9750004 0 26.25
v -6.9750004 6.75 26.25
v -9.41625 1 -0.8439808
v -3.875 0 -3.5
v -3.875 1 -3.5
v -9.41625 0 -0.8439808
v -14.957501 0.91651535 -1
v -9.41625 0 -0.8439808
v -9.41625 1 -0.8439808
v -14.957501 0 -1
v -8.970626 5.3125 19.4375
v -6.422813 5.3125 19.4375
v -6.9750004 6.75 26.25
v -3.8750002 5.3125 19.4375
v -3.875 6.75 26.25
v -10.966251 3.875 12.625
v -7.4206257 3.875 12.625
v -3.8750002 3.875 12.625
v -12.961876 2.4375 5.8125
v -8.418438 2.4375 5.8125
v -3.875 2.4375 5.8125
v -14.957501 0.91651535 -1
v -9.41625 1 -0.8439808
v -12.961876 2.4375 5.8125
v -8.418438 2.4375 5.8125
v -3.875 1 -3.5
v -8.418438 2.4375 5.8125
v -9.41625 1 -0.8439808
v -3.875 2.4375 5.8125
v 1.6662507 1 -2.75
v 7.2075014 0 -1
v 7.2075014 1 -1
v 1.6662507 0 -2.75
v -3.875 1 -3.5
v 1.6662507 0 -2.75
v 1.6662507 1 -2.75
v -3.875 0 -3.5
v -1.3271873 5.3125 19.4375
v -0.77499986 6.75 26.25
v 1.2206255 5.3125 19.4375
v -0.32937467 3.875 12.625
v 3.216251 3.875 12.625
v 0.66843796 2.4375 5.8125
v 5.211876 2.4375 5.8125
v -3.875 1 -3.5
v 0.66843796 2.4375 5.8125
v 1.6662507 1 -2.75
v 0.66843796 2.4375 5.8125
v 1.6662507 1 -2.75
v 5.211876 2.4375 5.8125
v 7.2075014 1 -1
v 7.2075014 0 -1
v 1.6662507 0 -2.75
v -0.77499986 0 26.25
v -8.970626 0 19.4375
v -10.966251 0 12.625
v -3.875 0 -3.5
v -12.961876 0 5.8125
v -9.41625 0 -0.8439808
v -14.957501 0 -1
v -6.9750004 0 26.25
vt 23.230562 -8.516385E-07
vt 16.13178 -8.516385E-07
vt 16.13178 5.312499
vt 23.230562 6.749999
vt 9.033001 -8.5163856E-07
vt 9.033001 3.874999
vt 1.9342214 -8.516385E-07
vt 1.9342214 2.437499
vt -5.164559 -8.5163856E-07
vt -5.164559 0.9165145
vt -4.112919 2.4375
vt 2.9858613 0.99999994
vt 2.9858613 -4.788513E-08
vt -25.40926 -4.7885127E-08
vt -11.211699 3.875
vt -18.310478 5.3125
vt -25.40926 6.75
vt -0.77499986 6.75
vt -0.77499986 0
vt -3.875 6.75
vt -6.9750004 0
vt -6.9750004 6.75
vt 9.415091 -0.8457828
vt 3.8749974 -3.5000026
vt 3.8738441 -3.5017865
vt 9.4162445 -0.84399885
vt 14.956434 -1.0016643
vt 9.4162445 -0.84399885
vt 9.415091 -0.8457828
vt 14.957492 -1.0000292
vt 8.949559 20.114983
vt 6.4017663 20.112965
vt 6.9482684 27.075779
vt 3.8539739 20.110945
vt 3.8482924 27.073322
vt 10.9508505 13.154185
vt 7.4052525 13.151377
vt 3.8596551 13.148568
vt 12.952141 6.193389
vt 8.408738 6.18979
vt 3.8653362 6.18619
vt 14.953761 -0.78414184
vt 9.412224 -0.61894476
vt 12.952141 6.193389
vt 8.408738 6.18979
vt 3.8710172 -3.2254477
vt 8.408738 6.18979
vt 9.412224 -0.61894476
vt 3.8653362 6.18619
vt -1.6674029 -2.7517762
vt -7.2074966 -0.9999836
vt -7.20865 -1.0017675
vt -1.6662496 -2.7499924
vt 3.8738441 -3.5017865
vt -1.6662496 -2.7499924
vt -1.6674029 -2.7517762
vt 3.8749974 -3.5000026
vt 1.3061808 20.108927
vt 0.7483165 27.070868
vt -1.2416118 20.106909
vt 0.31405738 13.145759
vt -3.2315402 13.14295
vt -0.67806613 6.182591
vt -5.2214684 6.178992
vt 3.8710172 -3.2254477
vt -0.67806613 6.182591
vt -1.6701897 -2.4950595
vt -0.67806613 6.182591
vt -1.6701897 -2.4950595
vt -5.2214684 6.178992
vt -7.2113967 -0.78496695
vt 7.2075014 -1
vt 1.6662507 -2.75
vt -0.77499986 26.25
vt -8.970626 19.4375
vt -10.966251 12.625
vt -3.875 -3.5
vt -12.961876 5.8125
vt -9.41625 -0.8439808
vt -14.957501 -1
vt -6.9750004 26.25
vn -0.95967203 0 0.28112236
vn -0.959672 0 0.28112233
vn -0.95967203 0 0.28112236
vn -0.959672 0 0.28112233
vn -0.9596719 0 0.28112233
vn -0.959672 0 0.28112236
vn -0.95967203 0 0.28112224
vn -0.95967203 0 0.2811222
vn -0.959672 0 0.28112233
vn -0.959672 0 0.28112233
vn 0.959672 -3.0707067E-08 0.28112227
vn 0.9596719 0 0.2811223
vn 0.959672 0 0.2811223
vn 0.959672 -1.7912456E-08 0.2811223
vn 0.959672 -3.9805457E-08 0.2811223
vn 0.959672 0 0.28112233
vn 0.959672 0 0.28112233
vn -0 0 1
vn -0 0 1
vn -0 0 1
vn -0 0 1
vn -0 0 1
vn -0.43223092 0 -0.90176296
vn -0.43223092 0 -0.90176296
vn -0.43223092 0 -0.90176296
vn -0.43223092 0 -0.90176296
vn 0.0281448 0 -0.99960387
vn 0.0281448 0 -0.99960387
vn 0.028144801 0 -0.99960387
vn 0.0281448 0 -0.9996038
vn -0 0.9784544 -0.20646286
vn -0 0.9784544 -0.20646285
vn -0 0.9784544 -0.20646286
vn -0 0.9784545 -0.20646288
vn -0 0.9784544 -0.20646288
vn -0 0.9784545 -0.20646288
vn -0 0.9784545 -0.20646288
vn -0 0.97845453 -0.20646288
vn -0 0.9784544 -0.20646286
vn -0 0.9784545 -0.20646286
vn -0 0.9784544 -0.20646286
vn -0.008644536 0.97647035 -0.21547818
vn -0.0047839954 0.97692686 -0.21352042
vn -0.0047839954 0.97692686 -0.21352042
vn -0 0.9774668 -0.2110888
vn -0.045885466 0.98363644 -0.17422336
vn -0.045885466 0.98363644 -0.17422336
vn -0.0942485 0.9759373 -0.19663057
vn -0 0.98829496 -0.1525556
vn 0.30115193 0 -0.9535762
vn 0.30115193 0 -0.9535762
vn 0.30115193 0 -0.9535762
vn 0.30115193 0 -0.9535762
vn 0.13412555 0 -0.9909644
vn 0.13412555 0 -0.9909644
vn 0.13412555 0 -0.9909644
vn 0.13412555 0 -0.9909644
vn -0 0.9784544 -0.20646286
vn -0 0.9784544 -0.20646286
vn -0 0.9784544 -0.20646286
vn -0 0.9784545 -0.20646288
vn -0 0.9784545 -0.20646288
vn -0 0.9784544 -0.20646286
vn -0 0.9784544 -0.20646286
vn 0.01176144 0.9873455 -0.15814728
vn 0.01176144 0.9873455 -0.15814728
vn 0.022065127 0.9863753 -0.16302453
vn -0 0.98619866 -0.16556619
vn 0.030872367 0.9835628 -0.17790756
vn 0.030872367 0.9835628 -0.17790756
vn 0.059782572 0.98009825 -0.18929727
vn -0 -1 0
vn -0 -1 0
vn -0 -1 0
vn -0 -0.99999994 0
vn -0 -1 0
vn -0 -1 0
vn -0 -1 0
vn -0 -1 0
vn -0 -1 0
vn -0 -1 0
g pb_Mesh179678_0
f 3/3/3 2/2/2 1/1/1
f 3/3/3 1/1/1 4/4/4
f 6/6/6 5/5/5 2/2/2
f 6/6/6 2/2/2 3/3/3
f 8/8/8 7/7/7 5/5/5
f 8/8/8 5/5/5 6/6/6
f 10/10/10 9/9/9 7/7/7
f 10/10/10 7/7/7 8/8/8
f 13/13/13 12/12/12 11/11/11
f 13/13/13 11/11/11 14/14/14
f 14/14/14 11/11/11 15/15/15
f 14/14/14 15/15/15 16/16/16
f 17/17/17 14/14/14 16/16/16
f 20/20/20 19/19/19 18/18/18
f 19/19/19 20/20/20 21/21/21
f 20/20/20 22/22/22 21/21/21
f 25/25/25 24/24/24 23/23/23
f 24/24/24 26/26/26 23/23/23
f 29/29/29 28/28/28 27/27/27
f 28/28/28 30/30/30 27/27/27
f 33/33/33 32/32/32 31/31/31
f 35/35/35 34/34/34 32/32/32
f 33/33/33 35/35/35 32/32/32
f 31/31/31 37/37/37 36/36/36
f 32/32/32 37/37/37 31/31/31
f 37/37/37 32/32/32 38/38/38
f 32/32/32 34/34/34 38/38/38
f 36/36/36 40/40/40 39/39/39
f 37/37/37 40/40/40 36/36/36
f 40/40/40 37/37/37 41/41/41
f 37/37/37 38/38/38 41/41/41
f 44/44/44 43/43/43 42/42/42
f 45/45/45 43/43/43 44/44/44
f 48/48/48 47/47/47 46/46/46
f 47/47/47 49/49/49 46/46/46
f 52/52/52 51/51/51 50/50/50
f 51/51/51 53/53/53 50/50/50
f 56/56/56 55/55/55 54/54/54
f 55/55/55 57/57/57 54/54/54
f 35/35/35 58/58/58 34/34/34
f 59/59/59 58/58/58 35/35/35
f 59/59/59 60/60/60 58/58/58
f 58/58/58 38/38/38 34/34/34
f 58/58/58 61/61/61 38/38/38
f 60/60/60 61/61/61 58/58/58
f 60/60/60 62/62/62 61/61/61
f 61/61/61 41/41/41 38/38/38
f 61/61/61 63/63/63 41/41/41
f 62/62/62 63/63/63 61/61/61
f 62/62/62 64/64/64 63/63/63
f 66/66/66 65/65/65 49/49/49
f 66/66/66 67/67/67 65/65/65
f 70/70/70 69/69/69 68/68/68
f 70/70/70 71/71/71 69/69/69
f 74/74/74 73/73/73 72/72/72
f 73/73/73 74/74/74 75/75/75
f 73/73/73 75/75/75 76/76/76
f 73/73/73 76/76/76 77/77/77
f 77/77/77 76/76/76 78/78/78
f 79/79/79 77/77/77 78/78/78
f 80/80/80 79/79/79 78/78/78
f 75/75/75 74/74/74 81/81/81
