g pb_Mesh-639812
v 0.5467365 -1.0392164 -0.3460057
v -0 -1 0
v 0.5467365 -0.5392162 -0.3460057
v -0 -0.5 0
v -0 -1 0
v -0.5 -1 0
v -0 -0.5 0
v -0.5 -0.5 0
v 0.5467367 -0.039216176 -0.34600756
v -0 0 0
v -0 0 0
v -0.5 0 0
vt 1 0
vt 0.5 0
vt 1 0.5
vt 0.5 0.5
vt 0.5 0
vt 0 0
vt 0.5 0.5
vt 0 0.5
vt 1 1
vt 0.5 1
vt 0.5 1
vt 0 1
vn 0.5347644 0 0.84500116
vn 0.5347644 0 0.84500116
vn 0.5347644 0 0.84500116
vn 0.53476447 0 0.8450012
vn -0 0 1
vn -0 0 1
vn -0 0 1
vn -0 0 1
vn 0.5347655 1.4338467E-06 0.8450005
vn 0.5347663 0 0.84499997
vn -0 0 1
vn -0 0 1
g pb_Mesh-639812_0
f 3/3/3 2/2/2 1/1/1
f 3/3/3 4/4/4 2/2/2
f 7/7/7 6/6/6 5/5/5
f 7/7/7 8/8/8 6/6/6
f 9/9/9 4/4/4 3/3/3
f 9/9/9 10/10/10 4/4/4
f 11/11/11 8/8/8 7/7/7
f 11/11/11 12/12/12 8/8/8
