g pb_Mesh391956
v -0.75058126 16.056889 -7.272885
v -1.0040482 16.460924 -8.2034235
v -0.11959058 16.364887 -6.5949035
v -2.5110478 16.80357 -5.1497808
v -2.7867267 15.718456 -6.0428123
v -0.7965797 16.79456 -5.431385
v -1.0040482 16.460924 -8.2034235
v 1.5104055 16.554575 -8.645977
v 1.4959475 16.584835 -6.080755
v -1.0040482 16.460924 -8.2034235
v 1.4959475 16.584835 -6.080755
v -0.11959058 16.364887 -6.5949035
v -2.1165357 15.999538 -7.212084
v -1.0040482 16.460924 -8.2034235
v -0.75058126 16.056889 -7.272885
v 4.1552763 1.2833881 -4.841054
v 1.0944601 -2.5502615 -4.7321806
v 1.4959475 16.584835 -6.080755
v 1.4959475 16.584835 -6.080755
v 2.478429 16.846712 -6.5156665
v 4.1552763 1.2833881 -4.841054
v 6.973027 16.79012 -1.7233548
v 8.085985 16.765518 -1.6666328
v 8.830492 9.207968 0.47871363
v 7.993359 16.809368 -0.20727547
v 8.830492 9.207968 0.47871363
v 8.085985 16.765518 -1.6666328
v -2.1165357 15.999538 -7.212084
v -0.7965797 16.79456 -5.431385
v -2.7867267 15.718456 -6.0428123
v 1.4959475 16.584835 -6.080755
v 1.5104055 16.554575 -8.645977
v 2.9306154 16.597935 -8.450307
v 1.4959475 16.584835 -6.080755
v 2.9306154 16.597935 -8.450307
v 2.478429 16.846712 -6.5156665
v -0.7965797 16.79456 -5.431385
v -0.75058126 16.056889 -7.272885
v -0.11959058 16.364887 -6.5949035
v -0.7965797 16.79456 -5.431385
v -2.1165357 15.999538 -7.212084
v -0.75058126 16.056889 -7.272885
v 4.0098753 16.025768 -7.582489
v 6.22799 15.995739 -7.33485
v 5.143661 16.77995 -5.384751
v 4.0098753 16.025768 -7.582489
v 5.143661 16.77995 -5.384751
v 3.7184067 16.774208 -5.9903116
v -0.7965797 16.79456 -5.431385
v -0.7338658 -3.0408716 -3.857838
v -2.0769858 0.524868 -3.2853189
v -2.0769858 0.524868 -3.2853189
v -2.5110478 16.80357 -5.1497808
v -0.7965797 16.79456 -5.431385
v 6.22799 15.995739 -7.33485
v 5.8308764 16.398878 -5.724574
v 5.143661 16.77995 -5.384751
v 5.8308764 16.398878 -5.724574
v 6.22799 15.995739 -7.33485
v 6.518091 16.017807 -6.064397
v 6.973027 16.79012 -1.7233548
v 7.8203974 16.404558 -2.29212
v 8.085985 16.765518 -1.6666328
v 7.8203974 16.404558 -2.29212
v 8.667768 16.018997 -2.860885
v 8.085985 16.765518 -1.6666328
v 6.003569 16.848206 -3.2807875
v 6.9661245 16.414227 -4.103366
v 7.393261 16.409393 -3.197743
v 6.003569 16.848206 -3.2807875
v 7.393261 16.409393 -3.197743
v 6.523595 15.995984 -2.5441363
v 6.523595 15.995984 -2.5441363
v 7.393261 16.409393 -3.197743
v 7.8203974 16.404558 -2.29212
v 6.523595 15.995984 -2.5441363
v 7.8203974 16.404558 -2.29212
v 6.973027 16.79012 -1.7233548
v 5.8308764 16.398878 -5.724574
v 6.3985004 16.406551 -4.91397
v 5.143661 16.77995 -5.384751
v 5.143661 16.77995 -5.384751
v 6.3985004 16.406551 -4.91397
v 5.610304 16.403845 -4.376494
v 6.3985004 16.406551 -4.91397
v 6.9661245 16.414227 -4.103366
v 5.610304 16.403845 -4.376494
v 5.610304 16.403845 -4.376494
v 6.9661245 16.414227 -4.103366
v 6.003569 16.848206 -3.2807875
v 2.478429 16.846712 -6.5156665
v 4.6494684 9.031669 -5.1129026
v 4.1552763 1.2833881 -4.841054
v 4.6494684 9.031669 -5.1129026
v 2.478429 16.846712 -6.5156665
v 3.014951 16.0413 -6.3161297
v 6.530776 4.558584 -1.8547397
v 5.9528394 4.7773004 -3.0418208
v 6.5285397 10.67895 -2.2010517
v 5.9782043 10.812753 -3.161304
v 7.108713 4.3398685 -0.6676586
v 6.530776 4.558584 -1.8547397
v 7.04087 10.564994 -1.1955067
v 6.5285397 10.67895 -2.2010517
v 5.9528394 4.7773004 -3.0418208
v 5.054058 3.0303442 -3.9414372
v 5.332839 9.912288 -4.15975
v 5.9528394 4.7773004 -3.0418208
v 5.332839 9.912288 -4.15975
v 5.9782043 10.812753 -3.161304
v 5.054058 3.0303442 -3.9414372
v 4.6494684 9.031669 -5.1129026
v 5.332839 9.912288 -4.15975
v 5.054058 3.0303442 -3.9414372
v 4.1552763 1.2833881 -4.841054
v 4.6494684 9.031669 -5.1129026
v 2.478429 16.846712 -6.5156665
v 2.9306154 16.597935 -8.450307
v 3.2268858 16.410599 -7.163289
v 2.9306154 16.597935 -8.450307
v 4.0098753 16.025768 -7.582489
v 3.2268858 16.410599 -7.163289
v 2.478429 16.846712 -6.5156665
v 3.2268858 16.410599 -7.163289
v 3.014951 16.0413 -6.3161297
v 3.014951 16.0413 -6.3161297
v 3.2268858 16.410599 -7.163289
v 3.7184067 16.774208 -5.9903116
v 3.2268858 16.410599 -7.163289
v 4.0098753 16.025768 -7.582489
v 3.7184067 16.774208 -5.9903116
v 8.830492 9.207968 0.47871363
v 7.9696026 6.773918 -0.0944725
v 6.9951186 14.767388 -1.3606081
v 8.830492 9.207968 0.47871363
v 6.9951186 14.767388 -1.3606081
v 6.973027 16.79012 -1.7233548
v 7.9696026 6.773918 -0.0944725
v 7.108713 4.3398685 -0.6676586
v 7.04087 10.564994 -1.1955067
v 7.9696026 6.773918 -0.0944725
v 7.04087 10.564994 -1.1955067
v 6.9951186 14.767388 -1.3606081
v 4.8847346 13.995641 -5.150003
v 3.7184067 16.774208 -5.9903116
v 5.143661 16.77995 -5.384751
v 3.014951 16.0413 -6.3161297
v 4.8847346 13.995641 -5.150003
v 4.6494684 9.031669 -5.1129026
v 3.7184067 16.774208 -5.9903116
v 6.5285397 10.67895 -2.2010517
v 5.9782043 10.812753 -3.161304
v 6.512883 14.02563 -2.272157
v 5.979057 14.92031 -3.1222224
v 6.512883 14.02563 -2.272157
v 5.979057 14.92031 -3.1222224
v 6.523595 15.995984 -2.5441363
v 6.003569 16.848206 -3.2807875
v 7.04087 10.564994 -1.1955067
v 6.5285397 10.67895 -2.2010517
v 6.9951186 14.767388 -1.3606081
v 6.512883 14.02563 -2.272157
v 6.9951186 14.767388 -1.3606081
v 6.512883 14.02563 -2.272157
v 6.973027 16.79012 -1.7233548
v 6.523595 15.995984 -2.5441363
v 5.9782043 10.812753 -3.161304
v 5.332839 9.912288 -4.15975
v 5.4590836 14.052703 -4.168514
v 5.9782043 10.812753 -3.161304
v 5.4590836 14.052703 -4.168514
v 5.979057 14.92031 -3.1222224
v 5.979057 14.92031 -3.1222224
v 5.4590836 14.052703 -4.168514
v 5.610304 16.403845 -4.376494
v 5.979057 14.92031 -3.1222224
v 5.610304 16.403845 -4.376494
v 6.003569 16.848206 -3.2807875
v 5.4590836 14.052703 -4.168514
v 4.8847346 13.995641 -5.150003
v 5.143661 16.77995 -5.384751
v 5.4590836 14.052703 -4.168514
v 5.143661 16.77995 -5.384751
v 5.610304 16.403845 -4.376494
v 5.332839 9.912288 -4.15975
v 4.8847346 13.995641 -5.150003
v 5.4590836 14.052703 -4.168514
v 5.332839 9.912288 -4.15975
v 4.6494684 9.031669 -5.1129026
v 4.8847346 13.995641 -5.150003
v -0.7965797 16.79456 -5.431385
v -0.11959058 16.364887 -6.5949035
v 0.25935733 16.770529 -5.6484237
v -0.11959058 16.364887 -6.5949035
v 1.4959475 16.584835 -6.080755
v 0.25935733 16.770529 -5.6484237
v 1.4959475 16.584835 -6.080755
v 1.0944601 -2.5502615 -4.7321806
v 0.25935733 16.770529 -5.6484237
v 1.0944601 -2.5502615 -4.7321806
v 0.18029717 -2.7955666 -4.295009
v 0.25935733 16.770529 -5.6484237
v 0.25935733 16.770529 -5.6484237
v 0.18029717 -2.7955666 -4.295009
v -0.7965797 16.79456 -5.431385
v 0.18029717 -2.7955666 -4.295009
v -0.7338658 -3.0408716 -3.857838
v -0.7965797 16.79456 -5.431385
vt 0.10637707 0.43048456
vt 0.10637707 0.43048456
vt 0.10637707 0.4304845
vt 0.10637707 0.43048456
vt 0.10637707 0.43048456
vt 0.10637707 0.43048456
vt 0.10637707 0.43048456
vt 0.10637707 0.43048456
vt 0.10637707 0.43048456
vt 0.10637707 0.43048456
vt 0.10637707 0.43048456
vt 0.10637707 0.4304845
vt 0.10637707 0.43048456
vt 0.10637707 0.43048456
vt 0.10637707 0.43048456
vt 0.38110873 0.21762186
vt 0.38110873 0.21762186
vt 0.38110873 0.21762186
vt 0.38110873 0.21762186
vt 0.38110873 0.21762186
vt 0.38110873 0.21762186
vt 0.38085282 0.21807578
vt 0.38085282 0.21807578
vt 0.38085282 0.21807578
vt 0.38092163 0.21748763
vt 0.38092163 0.21748763
vt 0.38092163 0.21748763
vt 0.10637707 0.43048456
vt 0.10637707 0.43048456
vt 0.10637707 0.43048456
vt 0.10637707 0.43048456
vt 0.10637707 0.43048456
vt 0.10637707 0.43048456
vt 0.10637707 0.43048456
vt 0.10637707 0.43048456
vt 0.10637707 0.43048456
vt 0.10637707 0.43048456
vt 0.10637707 0.43048456
vt 0.10637707 0.4304845
vt 0.10637707 0.43048456
vt 0.10637707 0.43048456
vt 0.10637707 0.43048456
vt 0.10514759 0.42187813
vt 0.10514759 0.42187813
vt 0.10514759 0.42187813
vt 0.10514759 0.42187813
vt 0.10514759 0.42187813
vt 0.1101943 0.4191925
vt 0.38110873 0.21762186
vt 0.38110873 0.21762186
vt 0.38110873 0.21762186
vt 0.38110873 0.21762186
vt 0.38110873 0.21762186
vt 0.38110873 0.21762186
vt 0.10637707 0.43048456
vt 0.10637707 0.43048456
vt 0.10637707 0.43048456
vt 0.10637707 0.43048456
vt 0.10637707 0.43048456
vt 0.10637707 0.43048456
vt 0.10637707 0.43048456
vt 0.10637707 0.43048456
vt 0.10637707 0.43048456
vt 0.10637707 0.43048456
vt 0.10637707 0.43048456
vt 0.10637707 0.43048456
vt 0.10637707 0.43048456
vt 0.10637707 0.43048456
vt 0.10637707 0.43048456
vt 0.10637707 0.43048456
vt 0.10637707 0.43048456
vt 0.10637707 0.43048456
vt 0.10637707 0.43048456
vt 0.10637707 0.43048456
vt 0.10637707 0.43048456
vt 0.10637707 0.43048456
vt 0.10637707 0.43048456
vt 0.10637707 0.43048456
vt 0.10637707 0.43048456
vt 0.10637707 0.43048456
vt 0.10637707 0.43048456
vt 0.10637707 0.43048456
vt 0.10637707 0.43048456
vt 0.10637707 0.43048456
vt 0.10637707 0.43048456
vt 0.10637707 0.43048456
vt 0.10637707 0.43048456
vt 0.10637707 0.43048456
vt 0.10637707 0.43048456
vt 0.10637707 0.43048456
vt 0.38110873 0.21762186
vt 0.38755715 0.22004297
vt 0.38110873 0.21762186
vt 0.38755715 0.22004297
vt 0.38110873 0.21762186
vt 0.38110873 0.21762186
vt 0.38960412 0.21540311
vt 0.38611612 0.21533202
vt 0.38964358 0.21950299
vt 0.38606256 0.21919845
vt 0.39309213 0.21547422
vt 0.38960412 0.21540311
vt 0.3932246 0.21980754
vt 0.38964358 0.21950299
vt 0.38110873 0.21762186
vt 0.38110873 0.21762186
vt 0.38110873 0.21762186
vt 0.38110873 0.21762186
vt 0.38110873 0.21762186
vt 0.38110873 0.21762186
vt 0.38110873 0.21762186
vt 0.38110873 0.21762186
vt 0.38110873 0.21762186
vt 0.38110873 0.21762186
vt 0.38110873 0.21762186
vt 0.38110873 0.21762186
vt 0.10637707 0.43048456
vt 0.10637707 0.43048456
vt 0.10637707 0.43048456
vt 0.10637707 0.43048456
vt 0.10637707 0.43048456
vt 0.10637707 0.43048456
vt 0.10514759 0.42187813
vt 0.10514759 0.42187813
vt 0.10514759 0.42187813
vt 0.10514759 0.42187813
vt 0.10514759 0.42187813
vt 0.1101943 0.4191925
vt 0.10514759 0.42187813
vt 0.10514759 0.42187813
vt 0.1101943 0.4191925
vt 0.38110873 0.21762186
vt 0.38110873 0.21762186
vt 0.38110873 0.21762186
vt 0.38110873 0.21762186
vt 0.38110873 0.21762186
vt 0.38110873 0.21762186
vt 0.38110873 0.21762186
vt 0.38110873 0.21762186
vt 0.38110873 0.21762186
vt 0.38110873 0.21762186
vt 0.38110873 0.21762186
vt 0.38110873 0.21762186
vt 0.38941205 0.21855995
vt 0.38339087 0.22126395
vt 0.39011735 0.21882477
vt 0.38729617 0.21776554
vt 0.38941205 0.21855995
vt 0.38870677 0.21829516
vt 0.38339087 0.22126395
vt 0.38964358 0.21950299
vt 0.38606256 0.21919845
vt 0.3896633 0.22155292
vt 0.3860358 0.22113167
vt 0.3896633 0.22155292
vt 0.3860358 0.22113167
vt 0.38968304 0.22360286
vt 0.38600904 0.22306488
vt 0.3932246 0.21980754
vt 0.38964358 0.21950299
vt 0.39329082 0.2219742
vt 0.3896633 0.22155292
vt 0.39329082 0.2219742
vt 0.3896633 0.22155292
vt 0.39335704 0.22414084
vt 0.38968304 0.22360286
vt 0.38110873 0.21762186
vt 0.38110873 0.21762186
vt 0.38110873 0.21762186
vt 0.38110873 0.21762186
vt 0.38110873 0.21762186
vt 0.38110873 0.21762186
vt 0.38110873 0.21762186
vt 0.38110873 0.21762186
vt 0.38110873 0.21762186
vt 0.38110873 0.21762186
vt 0.38110873 0.21762186
vt 0.38110873 0.21762186
vt 0.38110873 0.21762186
vt 0.38110873 0.21762186
vt 0.38110873 0.21762186
vt 0.38110873 0.21762186
vt 0.38110873 0.21762186
vt 0.38110873 0.21762186
vt 0.38110873 0.21762186
vt 0.38110873 0.21762186
vt 0.38110873 0.21762186
vt 0.38110873 0.21762186
vt 0.38110873 0.21762186
vt 0.38110873 0.21762186
vt 0.10637707 0.43048456
vt 0.10637707 0.4304845
vt 0.10637707 0.43048456
vt 0.10637707 0.4304845
vt 0.10637707 0.43048456
vt 0.10637707 0.43048456
vt 0.38110873 0.21762186
vt 0.38110873 0.21762186
vt 0.38110873 0.21762186
vt 0.38110873 0.21762186
vt 0.38110873 0.21762186
vt 0.38110873 0.21762186
vt 0.38110873 0.21762186
vt 0.38110873 0.21762186
vt 0.38110873 0.21762186
vt 0.38110873 0.21762186
vt 0.38110873 0.21762186
vt 0.38110873 0.21762186
vn -0.725109 0.53725433 0.43078384
vn -0.725109 0.53725433 0.43078384
vn -0.725109 0.53725433 0.43078384
vn -0.12000566 0.6488637 -0.7513819
vn -0.12000566 0.6488637 -0.7513819
vn -0.12000566 0.6488637 -0.7513819
vn -0.11090629 0.9847696 0.0731351
vn -0.03932694 0.9991542 -0.012007964
vn -0.11090629 0.9847696 0.0731351
vn -0.11090629 0.9847696 0.0731351
vn -0.11090629 0.9847696 0.0731351
vn -0.18248564 0.970385 0.15827817
vn -0.020484809 0.915024 0.40287897
vn -0.020484809 0.915024 0.40287897
vn -0.020484809 0.915024 0.40287897
vn -0.05390684 0.07132532 0.99599534
vn -0.05390684 0.07132532 0.99599534
vn -0.05390684 0.07132532 0.99599534
vn 0.36972404 0.1386909 0.91873235
vn 0.36972404 0.1386909 0.91873235
vn 0.36972404 0.1386909 0.91873235
vn -0.043095246 0.26889384 0.9622053
vn -0.043095246 0.26889384 0.9622053
vn -0.043095246 0.26889384 0.9622053
vn -0.9916312 -0.1145764 -0.059496574
vn -0.9916312 -0.1145764 -0.059496574
vn -0.9916312 -0.1145764 -0.059496574
vn -0.25898597 0.9057284 -0.21240151
vn -0.19091718 0.912378 -0.26637632
vn -0.4624978 0.885075 -0.05232583
vn -0.13302435 0.98826504 -0.07507742
vn -0.028868757 0.9995117 -0.011953235
vn -0.13302435 0.98826504 -0.07507742
vn -0.13302435 0.98826504 -0.07507742
vn -0.13302435 0.98826504 -0.07507742
vn -0.33277637 0.9223304 -0.19638371
vn -0.19091718 0.912378 -0.26637632
vn -0.054378834 0.92644733 -0.37247607
vn -0.038427696 0.9244981 -0.37893856
vn -0.19091718 0.912378 -0.26637632
vn -0.25898597 0.9057284 -0.21240151
vn -0.054378834 0.92644733 -0.37247607
vn 0.09170059 0.926397 -0.36521176
vn 0.051505845 0.9361451 -0.34782097
vn 0.09170059 0.926397 -0.36521176
vn 0.09170059 0.926397 -0.36521176
vn 0.09170059 0.926397 -0.36521176
vn 0.16413389 0.9039535 -0.39487737
vn 0.36740622 0.093149066 0.92538416
vn 0.5391393 0.06829771 0.8394428
vn 0.36740622 0.093149066 0.92538416
vn 0.36740622 0.093149066 0.92538416
vn 0.16157185 0.11654619 0.97995496
vn 0.36740622 0.093149066 0.92538416
vn 0.4374623 0.8918035 -0.11538306
vn 0.4374623 0.8918035 -0.11538306
vn 0.4374621 0.8918037 -0.11538312
vn 0.4374623 0.8918035 -0.11538306
vn 0.4374623 0.8918035 -0.11538306
vn 0.43746248 0.8918034 -0.115383
vn -0.030250624 0.79988134 -0.58730125
vn -0.09337071 0.8903233 -0.40913004
vn 0.04511633 0.8568299 -0.5136215
vn -0.09337071 0.8903233 -0.40913004
vn 0.045116387 0.8568299 -0.51362157
vn 0.04511633 0.8568299 -0.5136215
vn 0.1704379 0.9118254 -0.038701385
vn 0.17445117 0.95444965 -0.19511726
vn -0.028335154 0.92070377 0.23892516
vn 0.1704379 0.9118254 -0.038701385
vn -0.028335154 0.92070377 0.23892516
vn -0.025279582 0.81395555 0.19096698
vn -0.025279582 0.81395555 0.19096698
vn -0.028335154 0.92070377 0.23892516
vn -0.09337071 0.8903233 -0.40913004
vn -0.025279582 0.81395555 0.19096698
vn -0.09337071 0.8903233 -0.40913004
vn -0.030250624 0.79988134 -0.58730125
vn 0.36469898 0.8929652 -0.26383272
vn 0.13209541 0.98085696 0.01799893
vn 0.2708846 0.96174777 0.04077869
vn 0.2708846 0.96174777 0.04077869
vn 0.13209541 0.98085696 0.01799893
vn 0.11180301 0.9564956 0.00915122
vn 0.13209541 0.98085696 0.01799893
vn 0.17445117 0.95444965 -0.19511726
vn 0.11180301 0.9564956 0.00915122
vn 0.11180301 0.9564956 0.00915122
vn 0.17445117 0.95444965 -0.19511726
vn 0.1704379 0.9118254 -0.038701385
vn -0.36795026 0.06428604 0.9276206
vn -0.36795026 0.06428604 0.9276206
vn -0.38876364 0.057058796 0.91956896
vn -0.36795026 0.06428604 0.9276206
vn -0.36795026 0.06428604 0.9276206
vn -0.17167677 0.12764747 0.97684866
vn -0.8970374 0.024640698 0.4412673
vn -0.88374305 0.01959784 0.46756184
vn -0.88374305 0.01959784 0.46756184
vn -0.8667193 0.013513511 0.4986132
vn -0.8967435 0.027678877 0.44168437
vn -0.89347476 0.026672902 0.44832084
vn -0.89347476 0.026672902 0.44832084
vn -0.8895532 0.025483854 0.45612013
vn -0.7982863 0.034519967 0.6012881
vn -0.7545692 0.051320095 0.6542107
vn -0.7982863 0.034519967 0.6012881
vn -0.7982863 0.034519967 0.6012881
vn -0.7982863 0.034519967 0.6012881
vn -0.845508 0.01412048 0.533776
vn -0.8008722 0.06226749 0.5955891
vn -0.8008722 0.06226749 0.5955891
vn -0.833444 0.05121656 0.55022544
vn -0.8008722 0.06226749 0.5955891
vn -0.77152544 0.07138864 0.6321806
vn -0.8008722 0.06226749 0.5955891
vn 0.50872374 0.86089075 0.0082019195
vn 0.48142084 0.8763299 0.016734319
vn 0.48142084 0.8763299 0.016734319
vn 0.48142084 0.8763299 0.016734319
vn 0.4520093 0.891642 0.025733639
vn 0.48142084 0.8763299 0.016734319
vn 0.7012473 0.5724151 0.42496255
vn -0.10510612 0.9209731 0.37518173
vn -0.10510612 0.9209731 0.37518173
vn -0.10510612 0.9209731 0.37518173
vn -0.10510612 0.9209731 0.37518173
vn -0.7402809 0.6641539 0.10432514
vn 0.23797286 0.89504695 -0.3771735
vn 0.23797286 0.89504695 -0.3771735
vn 0.23797286 0.89504695 -0.3771735
vn -0.5877264 0.07256625 0.8057989
vn -0.6372196 0.044188894 0.76941437
vn -0.5877264 0.07256625 0.8057989
vn -0.5877264 0.07256625 0.8057989
vn -0.5877264 0.07256625 0.8057989
vn -0.42358136 0.15541723 0.8924261
vn -0.69076437 0.04045125 0.7219476
vn -0.6589325 0.056420706 0.7500831
vn -0.69076437 0.04045125 0.7219476
vn -0.69076437 0.04045125 0.7219476
vn -0.69076437 0.04045125 0.7219476
vn -0.7313703 0.018820642 0.6817207
vn -0.38891694 0.113251604 0.91428536
vn -0.38891694 0.113251604 0.91428536
vn -0.38891694 0.113251604 0.91428536
vn -0.4983587 0.038223326 0.8661279
vn -0.4983587 0.038223326 0.8661279
vn -0.50480783 0.030372964 0.8626972
vn -0.47510487 0.06593514 0.87745535
vn -0.86720127 0.0065220073 0.49791518
vn -0.85779035 0.0005046143 0.5139995
vn -0.85779035 0.0005046143 0.5139995
vn -0.8491417 -0.0048487936 0.5281429
vn -0.80030316 0.08625555 0.593359
vn -0.7911244 0.07420413 0.6071376
vn -0.7911244 0.07420413 0.6071376
vn -0.7807721 0.061070777 0.6218241
vn -0.8906093 0.0081677595 0.4546958
vn -0.8885857 0.007122878 0.4586553
vn -0.8885857 0.007122878 0.4586553
vn -0.88582796 0.0057138386 0.46397883
vn -0.9032438 0.066172384 0.42399508
vn -0.90183914 0.06532104 0.42710575
vn -0.90183914 0.06532104 0.42710575
vn -0.9002119 0.06434213 0.4306725
vn -0.87305224 0.011661401 0.48748717
vn -0.85046977 0.027043434 0.52532834
vn -0.87305224 0.011661401 0.48748717
vn -0.87305224 0.011661401 0.48748717
vn -0.87305224 0.011661401 0.48748717
vn -0.89415264 -0.0040744883 0.4477439
vn -0.9322032 0.06872355 0.3553509
vn -0.92018193 0.092827454 0.38032645
vn -0.9322032 0.06872355 0.3553509
vn -0.9322032 0.06872355 0.3553509
vn -0.9322032 0.06872355 0.3553509
vn -0.94538957 0.038639195 0.32364428
vn -0.8732219 0.11065531 0.47459346
vn -0.85973096 0.12177041 0.4960188
vn -0.8732219 0.11065531 0.47459346
vn -0.8732219 0.11065531 0.47459346
vn -0.8732219 0.11065531 0.47459346
vn -0.8890081 0.0967689 0.4475491
vn -0.8457932 0.036265567 0.53227687
vn -0.8457932 0.036265567 0.53227687
vn -0.8634535 0.027393503 0.50368404
vn -0.8457932 0.036265567 0.53227687
vn -0.83053815 0.04351311 0.55525935
vn -0.8457932 0.036265567 0.53227687
vn -0.19091718 0.912378 -0.26637632
vn -0.038427696 0.9244981 -0.37893856
vn -0.024783818 0.9224147 -0.38540494
vn -0.038427696 0.9244981 -0.37893856
vn 0.0002643293 0.91910404 -0.39401472
vn -0.024783818 0.9224147 -0.38540494
vn 0.33735117 0.05913584 0.93951964
vn 0.3727014 0.060023036 0.92600805
vn 0.3727014 0.060023036 0.92600805
vn 0.3727014 0.060023036 0.92600805
vn 0.41724482 0.06103471 0.90674233
vn 0.3727014 0.060023036 0.92600805
vn 0.20234078 0.06676541 0.9770366
vn 0.30723894 0.07037147 0.94902694
vn 0.30723894 0.07037147 0.94902694
vn 0.30723894 0.07037147 0.94902694
vn 0.41419366 0.07328054 0.907234
vn 0.30723894 0.07037147 0.94902694
g pb_Mesh391956_0
f 3/3/3 2/2/2 1/1/1
f 6/6/6 5/5/5 4/4/4
f 9/9/9 8/8/8 7/7/7
f 12/12/12 11/11/11 10/10/10
f 15/15/15 14/14/14 13/13/13
f 18/18/18 17/17/17 16/16/16
f 21/21/21 20/20/20 19/19/19
f 24/24/24 23/23/23 22/22/22
f 27/27/27 26/26/26 25/25/25
f 30/30/30 29/29/29 28/28/28
f 33/33/33 32/32/32 31/31/31
f 36/36/36 35/35/35 34/34/34
f 39/39/39 38/38/38 37/37/37
f 42/42/42 41/41/41 40/40/40
f 45/45/45 44/44/44 43/43/43
f 48/48/48 47/47/47 46/46/46
f 51/51/51 50/50/50 49/49/49
f 54/54/54 53/53/53 52/52/52
f 57/57/57 56/56/56 55/55/55
f 60/60/60 59/59/59 58/58/58
f 63/63/63 62/62/62 61/61/61
f 66/66/66 65/65/65 64/64/64
f 69/69/69 68/68/68 67/67/67
f 72/72/72 71/71/71 70/70/70
f 75/75/75 74/74/74 73/73/73
f 78/78/78 77/77/77 76/76/76
f 81/81/81 80/80/80 79/79/79
f 84/84/84 83/83/83 82/82/82
f 87/87/87 86/86/86 85/85/85
f 90/90/90 89/89/89 88/88/88
f 93/93/93 92/92/92 91/91/91
f 96/96/96 95/95/95 94/94/94
f 99/99/99 98/98/98 97/97/97
f 100/100/100 98/98/98 99/99/99
f 103/103/103 102/102/102 101/101/101
f 104/104/104 102/102/102 103/103/103
f 107/107/107 106/106/106 105/105/105
f 110/110/110 109/109/109 108/108/108
f 113/113/113 112/112/112 111/111/111
f 116/116/116 115/115/115 114/114/114
f 119/119/119 118/118/118 117/117/117
f 122/122/122 121/121/121 120/120/120
f 125/125/125 124/124/124 123/123/123
f 128/128/128 127/127/127 126/126/126
f 131/131/131 130/130/130 129/129/129
f 134/134/134 133/133/133 132/132/132
f 137/137/137 136/136/136 135/135/135
f 140/140/140 139/139/139 138/138/138
f 143/143/143 142/142/142 141/141/141
f 146/146/146 145/145/145 144/144/144
f 149/149/149 148/148/148 147/147/147
f 150/150/150 147/147/147 148/148/148
f 153/153/153 152/152/152 151/151/151
f 154/154/154 152/152/152 153/153/153
f 157/157/157 156/156/156 155/155/155
f 158/158/158 156/156/156 157/157/157
f 161/161/161 160/160/160 159/159/159
f 162/162/162 160/160/160 161/161/161
f 165/165/165 164/164/164 163/163/163
f 166/166/166 164/164/164 165/165/165
f 169/169/169 168/168/168 167/167/167
f 172/172/172 171/171/171 170/170/170
f 175/175/175 174/174/174 173/173/173
f 178/178/178 177/177/177 176/176/176
f 181/181/181 180/180/180 179/179/179
f 184/184/184 183/183/183 182/182/182
f 187/187/187 186/186/186 185/185/185
f 190/190/190 189/189/189 188/188/188
f 193/193/193 192/192/192 191/191/191
f 196/196/196 195/195/195 194/194/194
f 199/199/199 198/198/198 197/197/197
f 202/202/202 201/201/201 200/200/200
f 205/205/205 204/204/204 203/203/203
f 208/208/208 207/207/207 206/206/206
