g pb_Mesh-572448
v 1.2025547 0.99140024 3.4926467
v 1.2025547 1.4936547 3.4926467
v 1.391058 1.4936547 1.9093211
v 1.2025547 0.99140024 3.4926467
v 1.391058 1.4936547 1.9093211
v 1.391058 0.99140024 1.9093211
v 1.1823063 1.4936547 1.9093211
v 1.391058 1.4936547 1.9093211
v 1.2025547 1.4936547 3.4926467
v 1.1823063 1.4936547 1.9093211
v 1.2025547 1.4936547 3.4926467
v 1.0198021 1.4936548 3.2835603
v 0.93499374 0.43206465 3.4926467
v 1.2025547 0.99140024 3.4926467
v 1.391058 0.99140024 1.9093211
v 0.93499374 0.43206465 3.4926467
v 1.391058 0.99140024 1.9093211
v 1.1234989 0.32446238 1.9093211
v 1.0198021 1.4936548 3.2835603
v 0.9653244 0.79685646 1.9093211
v 1.1823063 1.4936547 1.9093211
v 1.0198021 1.4936548 3.2835603
v 0.8028183 0.79685664 3.2835603
v 0.9653244 0.79685646 1.9093211
vt 0.13738994 0.24204099
vt 0.13738994 0.24204099
vt 0.13738994 0.24204099
vt 0.13738994 0.24204099
vt 0.13738994 0.24204099
vt 0.13738994 0.24204099
vt 0.26862776 0.54480743
vt 0.26862776 0.54480743
vt 0.26862776 0.54480743
vt 0.26862776 0.54480743
vt 0.26862776 0.54480743
vt 0.26862776 0.54480743
vt 0.11017047 0.24204099
vt 0.11017047 0.24204099
vt 0.11017047 0.24204099
vt 0.11017047 0.24204099
vt 0.11017047 0.24204099
vt 0.11017047 0.24204099
vt 0.17014432 0.54608226
vt 0.17014432 0.54608226
vt 0.17014432 0.54608226
vt 0.17014432 0.54608226
vt 0.17014432 0.54608226
vt 0.17014432 0.54608226
vn 0.9929874 0 0.11822039
vn 0.9929874 0 0.11822039
vn 0.9929874 0 0.11822039
vn 0.9929874 0 0.11822039
vn 0.9929874 0 0.11822039
vn 0.9929874 0 0.11822039
vn 3.065843E-07 1 -3.9207637E-09
vn -0 0.99999994 0
vn 3.065843E-07 1 -3.9207637E-09
vn 3.065843E-07 1 -3.9207637E-09
vn 3.065843E-07 1 -3.9207637E-09
vn 6.619844E-07 1 -8.465809E-09
vn 0.90971076 -0.3969787 0.121795684
vn 0.896943 -0.42905712 0.10678579
vn 0.90971076 -0.3969787 0.121795684
vn 0.90971076 -0.3969787 0.121795684
vn 0.90971076 -0.3969787 0.121795684
vn 0.9196588 -0.36894447 0.13456468
vn -0.9487508 0.29544082 -0.11219075
vn -0.9487508 0.29544082 -0.11219075
vn -0.94875115 0.29543966 -0.11219014
vn -0.9487508 0.29544082 -0.11219075
vn -0.9487504 0.29544201 -0.11219137
vn -0.9487508 0.29544082 -0.11219075
g pb_Mesh-572448_0
f 3/3/3 2/2/2 1/1/1
f 6/6/6 5/5/5 4/4/4
f 9/9/9 8/8/8 7/7/7
f 12/12/12 11/11/11 10/10/10
f 15/15/15 14/14/14 13/13/13
f 18/18/18 17/17/17 16/16/16
f 21/21/21 20/20/20 19/19/19
f 24/24/24 23/23/23 22/22/22
