g pb_Mesh-29714778
v -0.07071259 4.7683716E-06 0.07068779
v -1.9073486E-06 4.7683716E-06 -2.2888184E-05
v -1.9029776E-06 4.7683716E-06 0.09997711
v -1.908541E-06 4.7683716E-06 -0.10002289
v -0.070712574 4.7683716E-06 -0.07073358
v -0.07071259 -1.4999962 0.07068779
v -1.9073486E-06 -1.4999962 -2.2888184E-05
v -0.10000191 -1.4999962 -2.2888184E-05
v -1.9029776E-06 -1.4999962 0.09997711
v 0.070708774 -1.4999962 0.07068779
v 0.099998094 -1.4999962 -2.2896926E-05
v 0.070708774 -1.4999962 -0.07073356
v -1.908541E-06 -1.4999962 -0.10002289
v -0.070712574 -1.4999962 -0.07073358
v -0.10000191 4.7683716E-06 -2.2888184E-05
v 0.070708774 4.7683716E-06 0.07068779
v 0.099998094 4.7683716E-06 -2.2896926E-05
v 0.070708774 4.7683716E-06 -0.07073356
v -0.10000191 -1.4999962 -2.2888184E-05
v -0.070712574 -1.4999962 -0.07073358
v -0.10000191 4.7683716E-06 -2.2888184E-05
v -0.070712574 4.7683716E-06 -0.07073358
v -0.07071259 -1.4999962 0.07068779
v -0.10000191 -1.4999962 -2.2888184E-05
v -0.07071259 4.7683716E-06 0.07068779
v -0.10000191 4.7683716E-06 -2.2888184E-05
v -0.070712574 -1.4999962 -0.07073358
v -1.908541E-06 -1.4999962 -0.10002289
v -0.070712574 4.7683716E-06 -0.07073358
v -1.908541E-06 4.7683716E-06 -0.10002289
v -1.908541E-06 -1.4999962 -0.10002289
v 0.070708774 -1.4999962 -0.07073356
v -1.908541E-06 4.7683716E-06 -0.10002289
v 0.070708774 4.7683716E-06 -0.07073356
v 0.070708774 -1.4999962 -0.07073356
v 0.099998094 -1.4999962 -2.2896926E-05
v 0.070708774 4.7683716E-06 -0.07073356
v 0.099998094 4.7683716E-06 -2.2896926E-05
v 0.099998094 -1.4999962 -2.2896926E-05
v 0.070708774 -1.4999962 0.07068779
v 0.099998094 4.7683716E-06 -2.2896926E-05
v 0.070708774 4.7683716E-06 0.07068779
v 0.070708774 -1.4999962 0.07068779
v -1.9029776E-06 -1.4999962 0.09997711
v 0.070708774 4.7683716E-06 0.07068779
v -1.9029776E-06 4.7683716E-06 0.09997711
v -1.9029776E-06 -1.4999962 0.09997711
v -0.07071259 -1.4999962 0.07068779
v -1.9029776E-06 4.7683716E-06 0.09997711
v -0.07071259 4.7683716E-06 0.07068779
vt 0.081290804 0.081290804
vt 0.047619052 0.04761905
vt 0.04761905 0.0952381
vt 0.047619052 0
vt 0.0812908 0.0139472885
vt 0.013947296 0.081290804
vt 0.047619052 0.04761905
vt 0 0.04761905
vt 0.047619052 0.0952381
vt 0.081290804 0.081290804
vt 0.095238104 0.04761905
vt 0.081290804 0.013947303
vt 0.047619052 0
vt 0.013947303 0.0139472885
vt 0.095238104 0.04761905
vt 0.013947296 0.081290804
vt 0 0.04761905
vt 0.013947296 0.013947303
vt 0.038247935 -1.4999962
vt -0.038288765 -1.4999962
vt 0.038247935 4.7683716E-06
vt -0.038288765 4.7683716E-06
vt 0.038246475 -1.4999962
vt -0.038290214 -1.4999962
vt 0.038246475 4.7683716E-06
vt -0.038290214 4.7683716E-06
vt 0.03826134 -1.4999962
vt -0.03827533 -1.4999962
vt 0.03826134 4.7683716E-06
vt -0.03827533 4.7683716E-06
vt 0.038278867 -1.4999962
vt -0.038257826 -1.4999962
vt 0.038278867 4.7683716E-06
vt -0.038257826 4.7683716E-06
vt 0.038290214 -1.4999962
vt -0.038246464 -1.4999962
vt 0.038290214 4.7683716E-06
vt -0.038246464 4.7683716E-06
vt 0.038288757 -1.4999962
vt -0.03824794 -1.4999962
vt 0.038288757 4.7683716E-06
vt -0.03824794 4.7683716E-06
vt 0.038275346 -1.4999962
vt -0.038261343 -1.4999962
vt 0.038275346 4.7683716E-06
vt -0.038261343 4.7683716E-06
vt 0.03825782 -1.4999962
vt -0.038278874 -1.4999962
vt 0.03825782 4.7683716E-06
vt -0.038278874 4.7683716E-06
vn -0 1 0
vn -0 1 0
vn -0 1 0
vn -0 1 0
vn -0 1 0
vn -0 -1 0
vn -0 -1 0
vn -0 -1 0
vn -0 -1 0
vn -0 -1 0
vn -0 -1 0
vn -0 -1 0
vn -0 -1 0
vn -0 -1 0
vn -0 1 0
vn -0 1 0
vn -0 1 0
vn -0 1 0
vn -0.9238795 0 -0.38268352
vn -0.9238795 0 -0.38268352
vn -0.9238795 0 -0.38268352
vn -0.9238795 0 -0.38268352
vn -0.92387956 0 0.38268337
vn -0.92387956 0 0.38268337
vn -0.92387956 0 0.38268337
vn -0.92387956 0 0.38268337
vn -0.38268337 0 -0.92387956
vn -0.38268337 0 -0.92387956
vn -0.38268337 0 -0.92387956
vn -0.38268337 0 -0.92387956
vn 0.38268346 0 -0.92387956
vn 0.38268346 0 -0.92387956
vn 0.38268346 0 -0.92387956
vn 0.38268346 0 -0.92387956
vn 0.9238795 0 -0.38268346
vn 0.9238795 0 -0.38268346
vn 0.9238795 0 -0.38268346
vn 0.9238795 0 -0.38268346
vn 0.92387956 0 0.38268334
vn 0.92387956 0 0.38268334
vn 0.92387956 0 0.38268334
vn 0.92387956 0 0.38268334
vn 0.38268343 0 0.92387956
vn 0.38268343 0 0.92387956
vn 0.38268343 0 0.92387956
vn 0.38268343 0 0.92387956
vn -0.38268334 0 0.92387956
vn -0.38268334 0 0.92387956
vn -0.38268334 0 0.92387956
vn -0.38268334 0 0.92387956
g pb_Mesh-29714778_0
f 3/3/3 2/2/2 1/1/1
f 5/5/5 2/2/2 4/4/4
f 8/8/8 7/7/7 6/6/6
f 6/6/6 7/7/7 9/9/9
f 9/9/9 7/7/7 10/10/10
f 10/10/10 7/7/7 11/11/11
f 11/11/11 7/7/7 12/12/12
f 12/12/12 7/7/7 13/13/13
f 13/13/13 7/7/7 14/14/14
f 14/14/14 7/7/7 8/8/8
f 1/1/1 2/2/2 15/15/15
f 15/15/15 2/2/2 5/5/5
f 16/16/16 2/2/2 3/3/3
f 17/17/17 2/2/2 16/16/16
f 18/18/18 2/2/2 17/17/17
f 4/4/4 2/2/2 18/18/18
f 21/21/21 20/20/20 19/19/19
f 21/21/21 22/22/22 20/20/20
f 25/25/25 24/24/24 23/23/23
f 25/25/25 26/26/26 24/24/24
f 29/29/29 28/28/28 27/27/27
f 29/29/29 30/30/30 28/28/28
f 33/33/33 32/32/32 31/31/31
f 33/33/33 34/34/34 32/32/32
f 37/37/37 36/36/36 35/35/35
f 37/37/37 38/38/38 36/36/36
f 41/41/41 40/40/40 39/39/39
f 41/41/41 42/42/42 40/40/40
f 45/45/45 44/44/44 43/43/43
f 45/45/45 46/46/46 44/44/44
f 49/49/49 48/48/48 47/47/47
f 49/49/49 50/50/50 48/48/48
