g pb_Mesh354834
v -0.25865054 105.24951 0.21034023
v -0.3883028 757.6705 -0.362908
v 0.49967885 -757.6706 0.42316875
v 0.49967885 -757.6706 0.42316875
v -0.3883028 757.6705 -0.362908
v 0.1809926 660.36237 -0.60698676
v 0.1809926 660.36237 -0.60698676
v 0.95720005 -272.11224 -0.18008143
v 0.49967885 -757.6706 0.42316875
v -0.95719993 -101.7229 0.6069871
v -0.3883028 757.6705 -0.362908
v -0.25865054 105.24951 0.21034023
vt 0.10079575 0.30327109
vt 0.10079575 0.30327109
vt 0.10079575 0.30327109
vt 0.1791269 0.27836776
vt 0.1791269 0.27836776
vt 0.1791269 0.27836776
vt 0.1791269 0.27836776
vt 0.1791269 0.27836776
vt 0.1791269 0.27836776
vt 0.1791269 0.27836776
vt 0.1791269 0.27836776
vt 0.10079575 0.30327109
vn 0.6807499 0.00077890506 0.7325155
vn 0.6807499 0.00077890506 0.7325155
vn 0.6807499 0.00077890506 0.7325155
vn 0.45140475 0.0007485548 0.89075756
vn 0.49847066 0.00074180507 0.8669062
vn 0.45140475 0.0007485548 0.89075756
vn 0.45140475 0.0007485548 0.89075756
vn 0.40433887 0.0007553046 0.91460896
vn 0.45140475 0.0007485548 0.89075756
vn 0.27886423 0.0008992091 0.96033007
vn 0.27886423 0.0008992091 0.96033007
vn 0.27886423 0.0008992091 0.96033007
g pb_Mesh354834_0
f 3/3/3 2/2/2 1/1/1
f 6/6/6 5/5/5 4/4/4
f 9/9/9 8/8/8 7/7/7
f 12/12/12 11/11/11 10/10/10
