g pb_Mesh131438
v -7.5 0 0
v -7.5 0.049672127 -0.75
v -7.5 1.5 0
v -7.5 1.5 -0.75
v -0 0.049672127 -0.75
v -0 0 0
v -0 1.5 -0.75
v -0 1.5 0
v -0 0 0
v -0.9375 0 0
v -0.9375 1.5 0
v -0 1.5 0
v -1.875 0 0
v -1.875 1.5 0
v -2.8125 0 0
v -2.8125 1.5 0
v -3.75 0 0
v -3.75 1.5 0
v -1.875 1.4194063 -0.73059374
v -0.9375 0 -0.75
v -0.9375 1.4 -0.75
v -1.875 0.053530693 -0.75
v -2.8125 1.406118 -0.74388194
v -1.875 0.053530693 -0.75
v -1.875 1.4194063 -0.73059374
v -2.8125 0 -0.75
v -3.75 1.4 -0.75
v -2.8125 0 -0.75
v -2.8125 1.406118 -0.74388194
v -3.75 0 -0.75
v -3.75 1.5 -0.65
v -2.8125 1.493882 -0.65611804
v -2.8125 1.5 0
v -3.75 1.5 0
v -2.8125 1.493882 -0.65611804
v -1.875 1.4805937 -0.6694063
v -1.875 1.5 0
v -2.8125 1.5 0
v -1.875 1.4805937 -0.6694063
v -0.9375 1.5 -0.65
v -0.9375 1.5 0
v -1.875 1.5 0
v -2.8125 0 0
v -3.75 0 -0.75
v -3.75 0 0
v -2.8125 0 -0.75
v -1.875 0 0
v -2.8125 0 -0.75
v -1.875 0.053530693 -0.75
v -0.9375 0 0
v -1.875 0.053530693 -0.75
v -1.875 0 0
v -0.9375 0 -0.75
v -0 0 0
v -0.9375 0 -0.75
v -0.9375 0 0
v -0 0.049672127 -0.75
v -4.6875 0 0
v -4.6875 1.5 0
v -5.625 0 0
v -5.625 1.5 0
v -6.5625 0 0
v -6.5625 1.5 0
v -7.5 0 0
v -7.5 1.5 0
v -4.6875 1.4105 -0.7395
v -3.75 0 -0.75
v -3.75 1.4 -0.75
v -4.6875 0.053530693 -0.75
v -5.625 1.397458 -0.75254196
v -4.6875 0.053530693 -0.75
v -4.6875 1.4105 -0.7395
v -5.625 0.04177189 -0.75
v -6.5625 1.4 -0.75
v -5.625 0.04177189 -0.75
v -5.625 1.397458 -0.75254196
v -6.5625 0.04177189 -0.75
v -6.5625 1.5 -0.65
v -5.625 1.502542 -0.6474581
v -5.625 1.5 0
v -6.5625 1.5 0
v -5.625 1.502542 -0.6474581
v -4.6875 1.4895 -0.6605
v -4.6875 1.5 0
v -5.625 1.5 0
v -4.6875 1.4895 -0.6605
v -3.75 1.5 -0.65
v -3.75 1.5 0
v -4.6875 1.5 0
v -6.5625 0 0
v -7.5 0.049672127 -0.75
v -7.5 0 0
v -6.5625 0.04177189 -0.75
v -5.625 0 0
v -6.5625 0.04177189 -0.75
v -6.5625 0 0
v -5.625 0.04177189 -0.75
v -4.6875 0 0
v -5.625 0.04177189 -0.75
v -4.6875 0.053530693 -0.75
v -3.75 0 0
v -4.6875 0.053530693 -0.75
v -4.6875 0 0
v -3.75 0 -0.75
v -0.9375 1.5 -0.65
v -1.875 1.4194063 -0.73059374
v -0.9375 1.4 -0.75
v -1.875 1.4805937 -0.6694063
v -1.875 1.4805937 -0.6694063
v -2.8125 1.406118 -0.74388194
v -1.875 1.4194063 -0.73059374
v -2.8125 1.493882 -0.65611804
v -3.75 1.4 -0.75
v -3.75 1.5 -0.65
v -4.6875 1.4105 -0.7395
v -4.6875 1.4895 -0.6605
v -5.625 1.397458 -0.75254196
v -5.625 1.502542 -0.6474581
v -6.5625 1.4 -0.75
v -6.5625 1.5 -0.65
v -0 1.5 -0.75
v -0.13045728 1.5 -0.75
v -0.9375 1.4 -0.75
v -0 0.049672127 -0.75
v -0.9375 0 -0.75
v -0.13045728 1.5 -0.75
v -0 1.5 -0.75
v -0 1.5 0
v -0.9375 1.5 0
v -0.9375 1.5 -0.65
v -7.2497077 1.5 -0.75
v -7.5 1.5 -0.75
v -6.5625 1.4 -0.75
v -7.5 0.049672127 -0.75
v -6.5625 0.04177189 -0.75
v -7.2497077 1.5 -0.75
v -6.5625 1.5 -0.65
v -6.5625 1.5 0
v -7.5 1.5 0
v -7.5 1.5 -0.75
v -0.13045728 1.5 -0.75
v -0.9375 1.5 -0.65
v -0.9375 1.4 -0.75
v -6.5625 1.4 -0.75
v -6.5625 1.5 -0.65
v -7.2497077 1.5 -0.75
vt 0 0
vt -0.75 0.049672127
vt 0 1.5
vt -0.75 1.5
vt 0.75 0.049672127
vt 0 0
vt 0.75 1.5
vt 0 1.5
vt 0 0
vt -0.9375 0
vt -0.9375 1.5
vt 0 1.5
vt -1.875 0
vt -1.875 1.5
vt -2.8125 0
vt -2.8125 1.5
vt -3.75 0
vt -3.75 1.5
vt -1.875 1.4
vt -0.9375 0
vt -0.9375 1.4
vt -1.875 0
vt -2.8125 1.4
vt -1.875 0
vt -1.875 1.4
vt -2.8125 0
vt -3.75 1.4
vt -2.8125 0
vt -2.8125 1.4
vt -3.75 0
vt 3.75 -0.15
vt 2.8125 -0.15
vt 2.8125 0.5
vt 3.75 0.5
vt 2.8125 -0.15
vt 1.875 -0.15
vt 1.875 0.5
vt 2.8125 0.5
vt 1.875 -0.15
vt 0.9375 -0.15
vt 0.9375 0.5
vt 1.875 0.5
vt 2.812495 0.00021188612
vt 3.7499933 -0.74911684
vt 3.7499933 0.00028251484
vt 2.812495 -0.74918747
vt 1.8749967 0.00014125742
vt 2.812495 -0.74918747
vt 1.8750974 -0.7514001
vt 0.93749833 7.062871E-05
vt 1.8750974 -0.7514001
vt 1.8749967 0.00014125742
vt 0.93749833 -0.74932873
vt 0 0
vt 0.93749833 -0.74932873
vt 0.93749833 7.062871E-05
vt 9.3521165E-05 -0.75138694
vt -4.6875 0
vt -4.6875 1.5
vt -5.625 0
vt -5.625 1.5
vt -6.5625 0
vt -6.5625 1.5
vt -7.5 0
vt -7.5 1.5
vt -4.6875 1.4
vt -3.75 0
vt -3.75 1.4
vt -4.6875 0
vt -5.625 1.4
vt -4.6875 0
vt -4.6875 1.4
vt -5.625 0
vt -6.5625 1.4
vt -5.625 0
vt -5.625 1.4
vt -6.5625 0
vt 6.5625 -0.15
vt 5.625 -0.15
vt 5.625 0.5
vt 6.5625 0.5
vt 5.625 -0.15
vt 4.6875 -0.15
vt 4.6875 0.5
vt 5.625 0.5
vt 4.6875 -0.15
vt 3.75 -0.15
vt 3.75 0.5
vt 4.6875 0.5
vt 6.562488 0.00049440097
vt 7.50008 -0.7508219
vt 7.4999866 0.0005650297
vt 6.5625668 -0.75057644
vt 5.62499 0.00042377223
vt 6.5625668 -0.75057644
vt 6.562488 0.00049440097
vt 5.6250687 -0.75064707
vt 4.6874914 0.00035314355
vt 5.6250687 -0.75064707
vt 4.6875925 -0.7511882
vt 3.7499933 0.00028251484
vt 4.6875925 -0.7511882
vt 4.6874914 0.00035314355
vt 3.7499933 -0.74911684
vt 0.93750006 0.60104084
vt 1.875 0.48706415
vt 0.93750006 0.45961946
vt 1.875 0.57359624
vt 1.8749999 0.57359546
vt 2.8125 0.46827105
vt 1.8749999 0.4870634
vt 2.8125 0.592388
vt 3.75 0.45961943
vt 3.75 0.60104084
vt 4.6875 0.47446895
vt 4.6875 0.58619183
vt 5.625 0.456024
vt 5.625 0.6046352
vt 6.5625 0.45962098
vt 6.5625 0.6010424
vt 0 1.5
vt -0.13045728 1.5
vt -0.9375 1.4
vt 0 0.049672127
vt -0.9375 0
vt 0.13045728 -0.75
vt 0 -0.75
vt 0 0
vt 0.9375 0
vt 0.9375 -0.65
vt -7.2497077 1.5
vt -7.5 1.5
vt -6.5625 1.4
vt -7.5 0.049672127
vt -6.5625 0.04177189
vt 7.2497077 -0.75
vt 6.5625 -0.65
vt 6.5625 0
vt 7.5 0
vt 7.5 -0.75
vt 0.037240583 0.52909595
vt 0.8504551 0.52909595
vt 0.83815825 0.38821018
vt 6.602103 1.1377807
vt 6.587703 1.278467
vt 7.2821484 1.278467
vn -1 0 0
vn -1 0 0
vn -1 0 0
vn -1 0 0
vn 1 0 0
vn 1 0 0
vn 1 0 0
vn 1 0 0
vn -0 0 1
vn -0 0 1
vn -0 0 1
vn -0 0 1
vn -0 0 1
vn -0 0 1
vn -0 0 1
vn -0 0 1
vn -0 0 1
vn -0 0 1
vn -0.010076311 0.007015787 -0.9999246
vn -0.010076311 0.007015787 -0.9999246
vn -0.020695576 0 -0.99978584
vn 0.00081118214 0.014206487 -0.99989873
vn 0.0067584575 0.009207328 -0.99993473
vn 0.0067584575 0.009207328 -0.99993473
vn 0.0139699215 0.014205106 -0.9998016
vn -0.000248439 0.004350987 -0.9999905
vn 0.0032558255 0.0021802403 -0.99999225
vn 0.0032558255 0.0021802403 -0.99999225
vn 0.006497337 0.0043508955 -0.9999695
vn -0 0 -1
vn 0.0032476278 0.9999837 -0.004684079
vn 0.006464661 0.9999357 -0.009324032
vn 0.0032476278 0.9999837 -0.004684079
vn -0 1 0
vn 0.0069491477 0.99979055 -0.01925203
vn 0.01375615 0.9994855 -0.028975429
vn 0.0069491477 0.99979055 -0.01925203
vn -0 0.9999565 -0.0093242265
vn -0.010196171 0.9998399 -0.014706016
vn -0.02069564 0.99978584 0
vn -0.010196171 0.9998399 -0.014706016
vn -0 0.99958 -0.028978167
vn -0 -1 0
vn -0 -1 0
vn -0 -1 0
vn -0 -1 0
vn 0.028519934 -0.99895734 -0.035649918
vn 0.028519934 -0.99895734 -0.035649918
vn 0.05686237 -0.9958487 -0.071077965
vn -0.028519934 -0.99895734 -0.035649918
vn -0.028519934 -0.99895734 -0.035649918
vn -0 -0.9974626 -0.07119315
vn -0.05700655 -0.99837375 0
vn 0.02646801 -0.999102 -0.033085015
vn 0.02646801 -0.999102 -0.033085015
vn -0 -1 0
vn 0.052794054 -0.9964225 -0.06599257
vn -0 0 1
vn -0 0 1
vn -0 0 1
vn -0 0 1
vn -0 0 1
vn -0 0 1
vn -0 0 1
vn -0 0 1
vn -0.005469826 0.0038084507 -0.9999779
vn -0.005469826 0.0038084507 -0.9999779
vn -0.011199312 0 -0.9999373
vn 0.00044181265 0.007737609 -0.99996996
vn 0.00691672 0.0029335942 -0.9999718
vn 0.00691672 0.0029335942 -0.9999718
vn 0.0138020655 0.0077368733 -0.99987483
vn 2.3518138E-05 -0.001875032 -0.9999982
vn -0.0013569796 -0.0009366383 -0.9999986
vn -0.0013569796 -0.0009366383 -0.9999986
vn -0.0027164926 -0.0018750251 -0.9999946
vn -0 0 -1
vn -0.0013583956 0.9999972 0.0019592245
vn -0.0027221008 0.9999885 0.003926107
vn -0.0013583956 0.9999972 0.0019592245
vn -0 1 0
vn 0.006913106 0.9999576 -0.0060839853
vn 0.013687277 0.99978006 -0.015893482
vn 0.006913106 0.9999576 -0.0060839853
vn -0 0.99999225 0.0039261216
vn -0.0055548428 0.99995244 -0.008011793
vn -0.011199249 0.9999373 0
vn -0.0055548428 0.99995244 -0.008011793
vn -0 0.9998737 -0.01589497
vn -0.0042056153 -0.99813807 -0.060849167
vn -0.0042056153 -0.99813807 -0.060849167
vn -0 -0.997814 -0.06608473
vn -0.008413582 -0.9984172 -0.055607695
vn -0 -0.99845266 -0.05560967
vn -0 -0.99845266 -0.05560967
vn -0 -0.99845266 -0.05560967
vn -0 -0.99845266 -0.05560967
vn 0.00625862 -0.9979682 -0.06340596
vn 0.00625862 -0.9979682 -0.06340596
vn 0.012509919 -0.9973844 -0.07118758
vn -0.028519934 -0.99895734 -0.035649918
vn -0.028519934 -0.99895734 -0.035649918
vn -0 -0.9974626 -0.07119315
vn -0.05700655 -0.99837375 0
vn 2.5058235E-08 0.7071068 -0.70710665
vn 2.5058235E-08 0.7071068 -0.70710665
vn 4.917131E-08 0.7071067 -0.7071067
vn -1.4350326E-08 0.7071071 -0.7071065
vn -2.122179E-08 0.70710695 -0.70710665
vn -2.122179E-08 0.70710695 -0.70710665
vn -5.166117E-08 0.7071071 -0.7071064
vn -0 0.7071068 -0.7071068
vn -0 0.70710677 -0.70710677
vn -0 0.7071067 -0.7071067
vn 4.7336712E-08 0.7071068 -0.7071068
vn 4.501444E-08 0.70710677 -0.70710677
vn -2.194147E-08 0.7071065 -0.7071072
vn 2.8409678E-08 0.7071062 -0.7071074
vn -2.3333968E-08 0.7071065 -0.70710707
vn -9.000105E-08 0.7071067 -0.7071067
vn -0 0 -1
vn -0 0 -1
vn -0 0 -1
vn -0 0 -1
vn -0 0 -1
vn -0 0.99999994 0
vn -0 1 0
vn -0 0.99999994 0
vn -0 1 0
vn -0 1 0
vn -0 0 -1
vn -0 0 -1
vn -0 0 -1
vn -0 0 -1
vn -0 0 -1
vn -0 1 0
vn -0 1 0
vn -0 1 0
vn -0 1 0
vn -0 1 0
vn -0.08728265 0.70440817 -0.70440817
vn -0.08728265 0.70440817 -0.70440817
vn -0.08728265 0.70440817 -0.70440817
vn 0.10235525 0.70339304 -0.70339304
vn 0.10235525 0.70339304 -0.70339304
vn 0.10235525 0.70339304 -0.70339304
g pb_Mesh131438_0
f 3/3/3 2/2/2 1/1/1
f 3/3/3 4/4/4 2/2/2
f 7/7/7 6/6/6 5/5/5
f 7/7/7 8/8/8 6/6/6
f 11/11/11 10/10/10 9/9/9
f 11/11/11 9/9/9 12/12/12
f 14/14/14 13/13/13 10/10/10
f 14/14/14 10/10/10 11/11/11
f 16/16/16 15/15/15 13/13/13
f 16/16/16 13/13/13 14/14/14
f 18/18/18 17/17/17 15/15/15
f 18/18/18 15/15/15 16/16/16
f 21/21/21 20/20/20 19/19/19
f 20/20/20 22/22/22 19/19/19
f 25/25/25 24/24/24 23/23/23
f 24/24/24 26/26/26 23/23/23
f 29/29/29 28/28/28 27/27/27
f 28/28/28 30/30/30 27/27/27
f 33/33/33 32/32/32 31/31/31
f 33/33/33 31/31/31 34/34/34
f 37/37/37 36/36/36 35/35/35
f 37/37/37 35/35/35 38/38/38
f 41/41/41 40/40/40 39/39/39
f 41/41/41 39/39/39 42/42/42
f 45/45/45 44/44/44 43/43/43
f 44/44/44 46/46/46 43/43/43
f 43/43/43 48/48/48 47/47/47
f 48/48/48 49/49/49 47/47/47
f 52/52/52 51/51/51 50/50/50
f 51/51/51 53/53/53 50/50/50
f 56/56/56 55/55/55 54/54/54
f 55/55/55 57/57/57 54/54/54
f 59/59/59 58/58/58 17/17/17
f 59/59/59 17/17/17 18/18/18
f 61/61/61 60/60/60 58/58/58
f 61/61/61 58/58/58 59/59/59
f 63/63/63 62/62/62 60/60/60
f 63/63/63 60/60/60 61/61/61
f 65/65/65 64/64/64 62/62/62
f 65/65/65 62/62/62 63/63/63
f 68/68/68 67/67/67 66/66/66
f 67/67/67 69/69/69 66/66/66
f 72/72/72 71/71/71 70/70/70
f 71/71/71 73/73/73 70/70/70
f 76/76/76 75/75/75 74/74/74
f 75/75/75 77/77/77 74/74/74
f 80/80/80 79/79/79 78/78/78
f 80/80/80 78/78/78 81/81/81
f 84/84/84 83/83/83 82/82/82
f 84/84/84 82/82/82 85/85/85
f 88/88/88 87/87/87 86/86/86
f 88/88/88 86/86/86 89/89/89
f 92/92/92 91/91/91 90/90/90
f 91/91/91 93/93/93 90/90/90
f 96/96/96 95/95/95 94/94/94
f 95/95/95 97/97/97 94/94/94
f 94/94/94 99/99/99 98/98/98
f 99/99/99 100/100/100 98/98/98
f 103/103/103 102/102/102 101/101/101
f 102/102/102 104/104/104 101/101/101
f 107/107/107 106/106/106 105/105/105
f 106/106/106 108/108/108 105/105/105
f 111/111/111 110/110/110 109/109/109
f 110/110/110 112/112/112 109/109/109
f 110/110/110 113/113/113 112/112/112
f 113/113/113 114/114/114 112/112/112
f 113/113/113 115/115/115 114/114/114
f 115/115/115 116/116/116 114/114/114
f 115/115/115 117/117/117 116/116/116
f 117/117/117 118/118/118 116/116/116
f 117/117/117 119/119/119 118/118/118
f 119/119/119 120/120/120 118/118/118
f 123/123/123 122/122/122 121/121/121
f 124/124/124 123/123/123 121/121/121
f 124/124/124 125/125/125 123/123/123
f 128/128/128 127/127/127 126/126/126
f 126/126/126 130/130/130 129/129/129
f 128/128/128 126/126/126 129/129/129
f 133/133/133 132/132/132 131/131/131
f 133/133/133 134/134/134 132/132/132
f 133/133/133 135/135/135 134/134/134
f 138/138/138 137/137/137 136/136/136
f 136/136/136 140/140/140 139/139/139
f 138/138/138 136/136/136 139/139/139
f 143/143/143 142/142/142 141/141/141
f 146/146/146 145/145/145 144/144/144
