g pb_Mesh-570334
v -0 0.02730298 0
v -0.21789432 0.02730298 0
v -0 0.13098073 0
v -0.21789432 0.13098073 0
v -0.21789432 0.02730298 0
v -0.21789432 0.02730298 -0.06575012
v -0.21789432 0.13098073 0
v -0.21789432 0.13098073 -0.06575012
v -0.21789432 0.02730298 -0.06575012
v -0 0.02730298 -0.06575012
v -0.21789432 0.13098073 -0.06575012
v -0 0.13098073 -0.06575012
v -0 0.02730298 -0.06575012
v -0 0.02730298 0
v -0 0.13098073 -0.06575012
v -0 0.13098073 0
v -0 0.13098073 0
v -0.21789432 0.13098073 0
v -0 0.13098073 -0.06575012
v -0.21789432 0.13098073 -0.06575012
v -0.05447358 -0.08251211 -0.06575012
v -0.16342074 -0.08251211 -0.06575012
v -0.05447358 -0.08251211 0
v -0.16342074 -0.08251211 0
v -0.05447358 -0.024310214 -0.06575012
v -0.16342074 -0.024310214 -0.06575012
v -0 0.02730298 0
v -0 0.02730298 -0.06575012
v -0.05447358 -0.024310214 0
v -0.05447358 -0.024310214 -0.06575012
v -0.21789432 0.02730298 -0.06575012
v -0.21789432 0.02730298 0
v -0.16342074 -0.024310214 -0.06575012
v -0.16342074 -0.024310214 0
v -0.16342074 -0.024310214 0
v -0.05447358 -0.024310214 0
v -0.05447358 -0.08251211 -0.06575012
v -0.16342074 -0.08251211 -0.06575012
v -0.05447358 -0.024310214 0
v -0.05447358 -0.024310214 -0.06575012
v -0.05447358 -0.08251211 0
v -0.05447358 -0.08251211 -0.06575012
v -0.16342074 -0.024310214 -0.06575012
v -0.16342074 -0.024310214 0
v -0.16342074 -0.08251211 -0.06575012
v -0.16342074 -0.08251211 0
v -0.16342074 -0.08251211 0
v -0.05447358 -0.08251211 0
vt 0 0.02730298
vt -0.21789432 0.02730298
vt 0 0.13098073
vt -0.21789432 0.13098073
vt 0 0.02730298
vt -0.06575012 0.02730298
vt 0 0.13098073
vt -0.06575012 0.13098073
vt 0.21789432 0.02730298
vt 0 0.02730298
vt 0.21789432 0.13098073
vt 0 0.13098073
vt 0.06575012 0.02730298
vt 0 0.02730298
vt 0.06575012 0.13098073
vt 0 0.13098073
vt 0 0
vt 0.21789432 0
vt 0 -0.06575012
vt 0.21789432 -0.06575012
vt -0.05447358 -0.06575012
vt -0.16342074 -0.06575012
vt -0.05447358 0
vt -0.16342074 0
vt 0.05447358 -0.024310214
vt 0.16342074 -0.024310214
vt 0.018778754 0
vt 0.018778754 -0.06575012
vt -0.056263186 0
vt -0.056263186 -0.06575012
vt -0.17695008 -0.06575012
vt -0.17695008 0
vt -0.10190814 -0.06575012
vt -0.10190814 0
vt -0.16342074 -0.024310214
vt -0.05447358 -0.024310214
vt 0.05447358 -0.08251211
vt 0.16342074 -0.08251211
vt 0 -0.024310214
vt 0.06575012 -0.024310214
vt 0 -0.08251211
vt 0.06575012 -0.08251211
vt -0.06575012 -0.024310214
vt 0 -0.024310214
vt -0.06575012 -0.08251211
vt 0 -0.08251211
vt -0.16342074 -0.08251211
vt -0.05447358 -0.08251211
vn -0 0 1
vn -0 0 1
vn -0 0 1
vn -0 0 1
vn -1 0 0
vn -1 0 0
vn -1 0 0
vn -1 0 0
vn -0 0 -1
vn -0 0 -1
vn -0 0 -1
vn -0 0 -1
vn 1 0 0
vn 1 0 0
vn 1 0 0
vn 1 0 0
vn -0 1 0
vn -0 1 0
vn -0 1 0
vn -0 1 0
vn -0 -1 0
vn -0 -1 0
vn -0 -1 0
vn -0 -1 0
vn -0 0 -1
vn -0 0 -1
vn 0.68779135 -0.72590846 0
vn 0.68779135 -0.72590846 0
vn 0.68779135 -0.72590846 0
vn 0.68779135 -0.72590846 0
vn -0.68779135 -0.72590846 0
vn -0.68779135 -0.72590846 0
vn -0.68779135 -0.72590846 0
vn -0.68779135 -0.72590846 0
vn -0 0 1
vn -0 0 1
vn -0 0 -1
vn -0 0 -1
vn 1 0 0
vn 1 0 0
vn 1 0 0
vn 1 0 0
vn -1 0 0
vn -1 0 0
vn -1 0 0
vn -1 0 0
vn -0 0 1
vn -0 0 1
g pb_Mesh-570334_0
f 3/3/3 2/2/2 1/1/1
f 3/3/3 4/4/4 2/2/2
f 7/7/7 6/6/6 5/5/5
f 7/7/7 8/8/8 6/6/6
f 11/11/11 10/10/10 9/9/9
f 11/11/11 12/12/12 10/10/10
f 15/15/15 14/14/14 13/13/13
f 15/15/15 16/16/16 14/14/14
f 19/19/19 18/18/18 17/17/17
f 19/19/19 20/20/20 18/18/18
f 23/23/23 22/22/22 21/21/21
f 23/23/23 24/24/24 22/22/22
f 25/25/25 9/9/9 10/10/10
f 25/25/25 26/26/26 9/9/9
f 29/29/29 28/28/28 27/27/27
f 29/29/29 30/30/30 28/28/28
f 33/33/33 32/32/32 31/31/31
f 33/33/33 34/34/34 32/32/32
f 35/35/35 1/1/1 2/2/2
f 35/35/35 36/36/36 1/1/1
f 37/37/37 26/26/26 25/25/25
f 37/37/37 38/38/38 26/26/26
f 41/41/41 40/40/40 39/39/39
f 41/41/41 42/42/42 40/40/40
f 45/45/45 44/44/44 43/43/43
f 45/45/45 46/46/46 44/44/44
f 47/47/47 36/36/36 35/35/35
f 47/47/47 48/48/48 36/36/36
