g pb_Mesh-2470806
v 1.567236 -0.05000007 8.9006227E-07
v -0.1399231 -0.05000007 -2.1462235E-08
v 1.567236 0.049999923 8.9006227E-07
v -0.1399231 0.049999923 -2.1462235E-08
v -0.1399231 -0.05000007 -2.1462235E-08
v -0.13992305 -0.056483775 -0.25000012
v -0.1399231 0.049999923 -2.1462235E-08
v 1.567236 -0.05000007 8.9006227E-07
v 1.567236 0.049999923 8.9006227E-07
v 1.567236 -0.04934092 -0.2499992
v 1.567236 0.049999923 8.9006227E-07
v -0.1399231 0.049999923 -2.1462235E-08
v 1.567236 -0.04934092 -0.2499992
v -0.13992305 -0.056483775 -0.25000012
v 1.567236 -0.04934092 -0.2499992
v 1.567236 -0.04934092 -0.2499992
v -0.13992305 -0.056483775 -0.25000012
v 1.567236 -0.05000007 8.9006227E-07
v -0.1399231 -0.05000007 -2.1462235E-08
vt 1.567236 -0.05000007
vt -0.1399231 -0.05000007
vt 1.567236 0.049999923
vt -0.1399231 0.049999923
vt 3.5579546E-09 -0.05000007
vt -0.2500001 -0.056483775
vt 3.5579546E-09 0.049999923
vt -8.9006227E-07 -0.05000007
vt -8.9006227E-07 0.049999923
vt 0.2499992 -0.04934092
vt -1.567236 0.018464787
vt 0.13992311 0.018463807
vt -1.567236 -0.25054944
vt 0.13992304 -0.2531881
vt -1.567236 -0.25054944
vt 1.5670158 -0.24985096
vt -0.14015816 -0.24985188
vt 1.567013 0.00015000699
vt -0.14013107 0.00013026292
vn -5.339423E-07 0 1
vn -5.339423E-07 0 1
vn -5.339423E-07 0 1
vn -5.339423E-07 0 1
vn -1 0 -1.7881388E-07
vn -1 0 -1.7881388E-07
vn -1 0 -1.7881388E-07
vn 1 0 0
vn 1 0 0
vn 1 0 0
vn 1.971728E-07 0.92931926 -0.36927733
vn -0.001934326 0.924714 -0.38065755
vn -0.001934326 0.924714 -0.38065755
vn -0.003849185 0.9200142 -0.39186594
vn -0.001934326 0.924714 -0.38065755
vn 0.0041840104 -0.9999878 -0.0026365782
vn 0.0020918774 -0.99992996 0.011648282
vn 0.0020918774 -0.99992996 0.011648282
vn -1.3906574E-08 -0.9996638 0.025926087
g pb_Mesh-2470806_0
f 3/3/3 2/2/2 1/1/1
f 3/3/3 4/4/4 2/2/2
f 7/7/7 6/6/6 5/5/5
f 10/10/10 9/9/9 8/8/8
f 13/13/13 12/12/12 11/11/11
f 15/15/15 14/14/14 12/12/12
f 18/18/18 17/17/17 16/16/16
f 18/18/18 19/19/19 17/17/17
