g pb_Mesh-2470828
v 1.067235 -0.05000036 1.4099669E-07
v -0.6399239 -0.049996644 -1.3393247E-06
v 1.067235 0.049999636 1.4099669E-07
v -0.6399239 0.05000335 -1.3393247E-06
v -0.6399239 -0.049996644 -1.3393247E-06
v -0.6399238 -0.06428161 -0.25000262
v -0.6399239 0.05000335 -1.3393247E-06
v -0.6399238 0.05000411 -0.25000262
v -0.6399238 -0.06428161 -0.25000262
v 1.067235 -0.0499996 -0.25000113
v -0.6399238 0.05000411 -0.25000262
v 1.067235 0.050000396 -0.25000113
v 1.067235 -0.0499996 -0.25000113
v 1.067235 -0.05000036 1.4099669E-07
v 1.067235 0.050000396 -0.25000113
v 1.067235 0.049999636 1.4099669E-07
v 1.067235 0.049999636 1.4099669E-07
v -0.6399239 0.05000335 -1.3393247E-06
v 1.067235 0.050000396 -0.25000113
v -0.6399238 0.05000411 -0.25000262
v 1.067235 -0.0499996 -0.25000113
v -0.6399238 -0.06428161 -0.25000262
v 1.067235 -0.05000036 1.4099669E-07
v -0.6399239 -0.049996644 -1.3393247E-06
vt 1.067235 -0.05000036
vt -0.6399239 -0.049996644
vt 1.067235 0.049999636
vt -0.6399239 0.05000335
vt -1.1867558E-06 -0.049996644
vt -0.25000247 -0.06428161
vt -1.1867558E-06 0.05000335
vt -0.25000247 0.05000411
vt 0.63992405 -0.06428161
vt -1.0672348 -0.0499996
vt 0.63992405 0.05000411
vt -1.0672348 0.050000396
vt 0.25000113 -0.0499996
vt -1.4099669E-07 -0.05000036
vt 0.25000113 0.050000396
vt -1.4099669E-07 0.049999636
vt -1.0672349 -1.1000332E-08
vt 0.639924 -1.4913218E-06
vt -1.0672349 -0.25000128
vt 0.63992393 -0.25000277
vt 1.0667794 -0.25000095
vt -0.64043915 -0.25000244
vt 1.0667794 3.2011718E-07
vt -0.64031976 -1.2036272E-06
vn -8.671257E-07 0 0.99999994
vn -8.671257E-07 0 0.99999994
vn -8.671257E-07 0 0.99999994
vn -8.671257E-07 0 0.99999994
vn -1 0 -2.3841736E-07
vn -1 0 -2.3841736E-07
vn -1 0 -2.3841736E-07
vn -1 0 -2.3841734E-07
vn 8.728632E-07 0 -1
vn 8.7286327E-07 0 -1
vn 8.7286327E-07 0 -1
vn 8.7286315E-07 0 -0.99999994
vn 1 0 0
vn 1 0 0
vn 1 0 0
vn 1 0 0
vn 2.175609E-06 1 3.0398214E-06
vn 2.175609E-06 1 3.0398216E-06
vn 2.175609E-06 1 3.0398216E-06
vn 2.175609E-06 1 3.039822E-06
vn 0.008365663 -0.999965 -3.039715E-06
vn 0.004180123 -0.9995835 0.02855637
vn 0.004180123 -0.9995835 0.02855637
vn -2.2216202E-06 -0.9983715 0.057046525
g pb_Mesh-2470828_0
f 3/3/3 2/2/2 1/1/1
f 3/3/3 4/4/4 2/2/2
f 7/7/7 6/6/6 5/5/5
f 7/7/7 8/8/8 6/6/6
f 11/11/11 10/10/10 9/9/9
f 11/11/11 12/12/12 10/10/10
f 15/15/15 14/14/14 13/13/13
f 15/15/15 16/16/16 14/14/14
f 19/19/19 18/18/18 17/17/17
f 19/19/19 20/20/20 18/18/18
f 23/23/23 22/22/22 21/21/21
f 23/23/23 24/24/24 22/22/22
