g pb_Mesh109394
v 0.13861017 -0.07069111 8.748577
v 0.01842908 -0.07069111 8.748577
v 0.13861017 0.07069111 8.748577
v 0.01842908 0.07069111 8.748577
v 0.01842908 -0.07069111 8.748577
v 0.018431852 -0.07069111 -2.5600636
v 0.01842908 0.07069111 8.748577
v 0.018431852 0.07069111 -2.5600636
v 0.018431852 -0.07069111 -2.5600636
v 0.13861299 -0.07069111 -2.5600636
v 0.018431852 0.07069111 -2.5600636
v 0.13861299 0.07069111 -2.5600636
v 0.13861299 -0.07069111 -2.5600636
v 0.13861017 -0.07069111 8.748577
v 0.13861299 0.07069111 -2.5600636
v 0.13861017 0.07069111 8.748577
v 0.13861017 0.07069111 8.748577
v 0.01842908 0.07069111 8.748577
v 0.13861299 0.07069111 -2.5600636
v 0.018431852 0.07069111 -2.5600636
v 0.13861299 -0.07069111 -2.5600636
v 0.018431852 -0.07069111 -2.5600636
v 0.13861017 -0.07069111 8.748577
v 0.01842908 -0.07069111 8.748577
vt 0.13861017 -0.07069111
vt 0.01842908 -0.07069111
vt 0.13861017 0.07069111
vt 0.01842908 0.07069111
vt 8.748577 -0.07069111
vt -2.5600636 -0.07069111
vt 8.748577 0.07069111
vt -2.5600636 0.07069111
vt -0.018431852 -0.07069111
vt -0.13861299 -0.07069111
vt -0.018431852 0.07069111
vt -0.13861299 0.07069111
vt 2.5600636 -0.07069111
vt -8.748577 -0.07069111
vt 2.5600636 0.07069111
vt -8.748577 0.07069111
vt -0.13861017 8.748577
vt -0.01842908 8.748577
vt -0.13861299 -2.5600636
vt -0.018431852 -2.5600636
vt 0.13861299 -2.5600636
vt 0.018431852 -2.5600636
vt 0.13861017 8.748577
vt 0.01842908 8.748577
vn -0 0 0.99999994
vn -0 0 0.99999994
vn -0 0 0.99999994
vn -0 0 0.99999994
vn -1 0 -2.4508833E-07
vn -1 0 -2.4508833E-07
vn -1 0 -2.4508833E-07
vn -1 0 -2.4508833E-07
vn -0 0 -1
vn -0 0 -1
vn -0 0 -1
vn -0 0 -1
vn 1 0 2.4904136E-07
vn 1 0 2.4904136E-07
vn 1 0 2.4904136E-07
vn 1 0 2.4904136E-07
vn -0 1 0
vn -0 1 0
vn -0 1 0
vn -0 1 0
vn -0 -1 0
vn -0 -1 0
vn -0 -1 0
vn -0 -1 0
g pb_Mesh109394_0
f 3/3/3 2/2/2 1/1/1
f 3/3/3 4/4/4 2/2/2
f 7/7/7 6/6/6 5/5/5
f 7/7/7 8/8/8 6/6/6
f 11/11/11 10/10/10 9/9/9
f 11/11/11 12/12/12 10/10/10
f 15/15/15 14/14/14 13/13/13
f 15/15/15 16/16/16 14/14/14
f 19/19/19 18/18/18 17/17/17
f 19/19/19 20/20/20 18/18/18
f 23/23/23 22/22/22 21/21/21
f 23/23/23 24/24/24 22/22/22
