g pb_Mesh253112
v 6.7621994 0 0
v 6.7621994 0 0.5
v -0.5 0 0
v -0.5 0 0.5
v 6.7621994 1.2447839E-07 2.0442004
v -0.5 1.2447839E-07 2.0442004
v -1 0 0
v -1 0 0.5
v -1 1.2447839E-07 2.0442004
vt -6.7621994 0
vt -6.7621994 0.5
vt 0.5 0
vt 0.5 0.5
vt -6.7621994 2.0442004
vt 0.5 2.0442004
vt 1 0
vt 1 0.5
vt 1 2.0442004
vn -0 1 0
vn -0 1 0
vn -0 1 0
vn -0 1 0
vn -0 1 -8.0610256E-08
vn -0 1 -8.0610256E-08
vn -0 1 0
vn -0 1 0
vn -0 1 -8.0610256E-08
g pb_Mesh253112_0
f 3/3/3 2/2/2 1/1/1
f 3/3/3 4/4/4 2/2/2
f 4/4/4 5/5/5 2/2/2
f 4/4/4 6/6/6 5/5/5
f 7/7/7 4/4/4 3/3/3
f 7/7/7 8/8/8 4/4/4
f 8/8/8 6/6/6 4/4/4
f 8/8/8 9/9/9 6/6/6
