g pb_Mesh-113467934
v 1.0289833E-08 0 0.8628873
v -0.8628878 0 -3.5232986E-07
v -0.6101537 0 0.61015344
v -0.8628878 0 -3.5232986E-07
v -3.7718024E-08 0 -0.8628882
v -0.6101538 0 -0.6101542
v -3.7718024E-08 0 -0.8628882
v 0.8628878 0 -4.277659E-07
v 0.6101538 0 -0.6101542
v 0.61015373 0 0.61015344
v 0.8628878 0 -4.277659E-07
v 1.0289833E-08 0 0.8628873
v 0.5095039 0.12518433 -0.5095043
v -0.5095039 0.12518433 -0.5095043
v -3.3126433E-08 0.12518433 -0.7205478
v -0.5095038 0.12518433 0.5095035
v -0.7205474 0.12518433 -3.7768368E-07
v 0.5095038 0.12518433 0.5095035
v 1.0289833E-08 0.12518433 0.720547
v 0.7205474 0.12518433 -4.4393653E-07
v 0.8628878 0 -4.277659E-07
v 0.723076 1.7021252 -0.7230764
v 0.6101538 0 -0.6101542
v 1.0225838 1.7021252 -3.5336367E-07
v 0.61015373 0 0.61015344
v 0.7230759 1.7021252 0.7230757
v 0.6101538 0 -0.6101542
v -4.4698563E-08 1.7021252 -1.0225843
v -3.7718024E-08 0 -0.8628882
v 0.723076 1.7021252 -0.7230764
v -0.723076 1.7021252 -0.7230764
v -3.7718024E-08 0 -0.8628882
v -4.4698563E-08 1.7021252 -1.0225843
v -0.6101538 0 -0.6101542
v -0.6101538 0 -0.6101542
v -1.0225838 1.7021252 -2.6396654E-07
v -0.8628878 0 -3.5232986E-07
v -0.723076 1.7021252 -0.7230764
v -0.72307587 1.7021252 0.7230757
v -0.8628878 0 -3.5232986E-07
v -1.0225838 1.7021252 -2.6396654E-07
v -0.6101537 0 0.61015344
v -0.6101537 0 0.61015344
v 1.21941905E-08 1.7021252 1.0225835
v 1.0289833E-08 0 0.8628873
v -0.72307587 1.7021252 0.7230757
v 0.7230759 1.7021252 0.7230757
v 1.0289833E-08 0 0.8628873
v 1.21941905E-08 1.7021252 1.0225835
v 0.61015373 0 0.61015344
v 1.0225838 1.7021252 -3.5336367E-07
v 0.6037986 1.7021252 -0.603799
v 0.723076 1.7021252 -0.7230764
v 0.85390013 1.7021252 -3.5880504E-07
v -3.9257195E-08 1.7021252 -0.8539005
v 0.723076 1.7021252 -0.7230764
v 0.6037986 1.7021252 -0.603799
v -4.4698563E-08 1.7021252 -1.0225843
v -4.4698563E-08 1.7021252 -1.0225843
v -0.6037986 1.7021252 -0.603799
v -0.723076 1.7021252 -0.7230764
v -3.9257195E-08 1.7021252 -0.8539005
v -0.85390013 1.7021252 -2.8029066E-07
v -0.723076 1.7021252 -0.7230764
v -0.6037986 1.7021252 -0.603799
v -1.0225838 1.7021252 -2.6396654E-07
v -0.6037985 1.7021252 0.6037984
v -1.0225838 1.7021252 -2.6396654E-07
v -0.85390013 1.7021252 -2.8029066E-07
v -0.72307587 1.7021252 0.7230757
v 1.21941905E-08 1.7021252 0.8538997
v -0.72307587 1.7021252 0.7230757
v -0.6037985 1.7021252 0.6037984
v 1.21941905E-08 1.7021252 1.0225835
v 0.60379857 1.7021252 0.6037984
v 1.21941905E-08 1.7021252 1.0225835
v 1.21941905E-08 1.7021252 0.8538997
v 0.7230759 1.7021252 0.7230757
v 0.7230759 1.7021252 0.7230757
v 0.85390013 1.7021252 -3.5880504E-07
v 1.0225838 1.7021252 -3.5336367E-07
v 0.85390013 1.7021252 -3.5880504E-07
v 0.7230759 1.7021252 0.7230757
v 0.60379857 1.7021252 0.6037984
v 0.85390013 1.7021252 -3.5880504E-07
v 0.5095039 0.12518433 -0.5095043
v 0.6037986 1.7021252 -0.603799
v 0.5095039 0.12518433 -0.5095043
v 0.85390013 1.7021252 -3.5880504E-07
v 0.7205474 0.12518433 -4.4393653E-07
v -3.3126433E-08 0.12518433 -0.7205478
v 0.6037986 1.7021252 -0.603799
v 0.5095039 0.12518433 -0.5095043
v 0.6037986 1.7021252 -0.603799
v -3.3126433E-08 0.12518433 -0.7205478
v -3.9257195E-08 1.7021252 -0.8539005
v -0.5095039 0.12518433 -0.5095043
v -3.9257195E-08 1.7021252 -0.8539005
v -3.3126433E-08 0.12518433 -0.7205478
v -3.9257195E-08 1.7021252 -0.8539005
v -0.5095039 0.12518433 -0.5095043
v -0.6037986 1.7021252 -0.603799
v -0.7205474 0.12518433 -3.7768368E-07
v -0.6037986 1.7021252 -0.603799
v -0.5095039 0.12518433 -0.5095043
v -0.6037986 1.7021252 -0.603799
v -0.7205474 0.12518433 -3.7768368E-07
v -0.85390013 1.7021252 -2.8029066E-07
v -0.5095038 0.12518433 0.5095035
v -0.85390013 1.7021252 -2.8029066E-07
v -0.7205474 0.12518433 -3.7768368E-07
v -0.85390013 1.7021252 -2.8029066E-07
v -0.5095038 0.12518433 0.5095035
v -0.6037985 1.7021252 0.6037984
v 1.0289833E-08 0.12518433 0.720547
v -0.6037985 1.7021252 0.6037984
v -0.5095038 0.12518433 0.5095035
v -0.6037985 1.7021252 0.6037984
v 1.0289833E-08 0.12518433 0.720547
v 1.21941905E-08 1.7021252 0.8538997
v 0.5095038 0.12518433 0.5095035
v 1.21941905E-08 1.7021252 0.8538997
v 1.0289833E-08 0.12518433 0.720547
v 1.21941905E-08 1.7021252 0.8538997
v 0.5095038 0.12518433 0.5095035
v 0.60379857 1.7021252 0.6037984
v 0.60379857 1.7021252 0.6037984
v 0.7205474 0.12518433 -4.4393653E-07
v 0.85390013 1.7021252 -3.5880504E-07
v 0.7205474 0.12518433 -4.4393653E-07
v 0.60379857 1.7021252 0.6037984
v 0.5095038 0.12518433 0.5095035
v -0.030414628 1.6221691 -0.87827605
v 0.03718265 3.8685539 -1.2854588
v 0.030414628 1.6221691 -0.87827605
v -0.03718265 3.8685539 -1.2854588
v 0.030414628 1.6221691 -0.87827605
v 0.03718265 3.8685539 -1.371052
v 0.030414628 1.6221691 -0.9482897
v 0.03718265 3.8685539 -1.2854588
v 0.030414628 1.6221691 -0.9482897
v -0.03718265 3.8685539 -1.371052
v -0.030414628 1.6221691 -0.9482897
v 0.03718265 3.8685539 -1.371052
v -0.030414628 1.6221691 -0.9482897
v -0.03718265 3.8685539 -1.2854588
v -0.030414628 1.6221691 -0.87827605
v -0.03718265 3.8685539 -1.371052
v -0.87827563 1.6221691 0.030414313
v -1.2854584 3.8685539 -0.037182853
v -0.87827563 1.6221691 -0.030414948
v -1.2854584 3.8685539 0.037182447
v -0.87827563 1.6221691 -0.030414948
v -1.3710518 3.8685539 -0.037182845
v -0.94828933 1.6221691 -0.03041494
v -1.2854584 3.8685539 -0.037182853
v -0.94828933 1.6221691 -0.03041494
v -1.3710518 3.8685539 0.03718245
v -0.94828933 1.6221691 0.030414317
v -1.3710518 3.8685539 -0.037182845
v -0.94828933 1.6221691 0.030414317
v -1.2854584 3.8685539 0.037182447
v -0.87827563 1.6221691 0.030414313
v -1.3710518 3.8685539 0.03718245
v 0.03041471 1.6221691 0.8782753
v -0.037182536 3.8685539 1.2854582
v -0.030414551 1.6221691 0.8782753
v 0.037182763 3.8685539 1.2854582
v -0.030414551 1.6221691 0.8782753
v -0.037182532 3.8685539 1.3710514
v -0.030414548 1.6221691 0.9482889
v -0.037182536 3.8685539 1.2854582
v -0.030414548 1.6221691 0.9482889
v 0.03718277 3.8685539 1.3710514
v 0.030414714 1.6221691 0.9482889
v -0.037182532 3.8685539 1.3710514
v 0.030414714 1.6221691 0.9482889
v 0.037182763 3.8685539 1.2854582
v 0.03041471 1.6221691 0.8782753
v 0.03718277 3.8685539 1.3710514
v 0.87827563 1.6221691 -0.030414993
v 1.2854584 3.8685539 0.037182376
v 0.87827563 1.6221691 0.030414267
v 1.2854584 3.8685539 -0.03718292
v 0.87827563 1.6221691 0.030414267
v 1.3710518 3.8685539 0.037182376
v 0.94828933 1.6221691 0.03041426
v 1.2854584 3.8685539 0.037182376
v 0.94828933 1.6221691 0.03041426
v 1.3710518 3.8685539 -0.03718292
v 0.94828933 1.6221691 -0.030414999
v 1.3710518 3.8685539 0.037182376
v 0.94828933 1.6221691 -0.030414999
v 1.2854584 3.8685539 -0.03718292
v 0.87827563 1.6221691 -0.030414993
v 1.3710518 3.8685539 -0.03718292
vt 0.30014613 0.7994571
vt 0.29491216 0.79911685
vt 0.29861313 0.7992165
vt 0.29491216 0.79911685
vt 0.2896782 0.7994571
vt 0.29121116 0.7992165
vt 0.2896782 0.7994571
vt 0.29491216 0.7997973
vt 0.29121116 0.79969764
vt 0.29861313 0.79969764
vt 0.29491216 0.7997973
vt 0.30014613 0.7994571
vt 0.29121116 0.79969764
vt 0.29121116 0.7992165
vt 0.2896782 0.7994571
vt 0.29861313 0.7992165
vt 0.29491216 0.79911685
vt 0.29861313 0.79969764
vt 0.30014613 0.7994571
vt 0.29491216 0.7997973
vt 0.31825384 0.79956686
vt 0.17859988 0.80096334
vt 0.31825384 0.8007453
vt 0.17859988 0.79956686
vt 0.31825384 0.7983884
vt 0.1785998 0.7981703
vt 0.31825384 0.7983884
vt 0.17859988 0.79956686
vt 0.31825384 0.79956686
vt 0.17859988 0.7981703
vt 0.17859988 0.80096334
vt 0.31825384 0.79956686
vt 0.17859988 0.79956686
vt 0.31825384 0.8007453
vt 0.31825384 0.7983884
vt 0.17859988 0.79956686
vt 0.31825384 0.79956686
vt 0.17859988 0.7981703
vt 0.17859988 0.80096334
vt 0.31825384 0.79956686
vt 0.17859988 0.79956686
vt 0.31825384 0.8007453
vt 0.31825384 0.7983884
vt 0.17859988 0.79956686
vt 0.31825384 0.79956686
vt 0.17859988 0.7981703
vt 0.17859988 0.80096334
vt 0.31825384 0.79956686
vt 0.17859988 0.79956686
vt 0.31825384 0.8007453
vt 0.29752913 0.7997973
vt 0.29121116 0.79969764
vt 0.29883763 0.7997973
vt 0.29491216 0.7997973
vt 0.2896782 0.7994571
vt 0.29883763 0.7997973
vt 0.29121116 0.79969764
vt 0.30014613 0.7997973
vt 0.2896782 0.7997973
vt 0.29121116 0.7992165
vt 0.2909867 0.7997973
vt 0.2896782 0.7994571
vt 0.29491216 0.79911685
vt 0.2909867 0.7997973
vt 0.29121116 0.7992165
vt 0.2922952 0.7997973
vt 0.29861313 0.7992165
vt 0.2922952 0.7997973
vt 0.29491216 0.79911685
vt 0.29360366 0.7997973
vt 0.30014613 0.7994571
vt 0.29360366 0.7997973
vt 0.29861313 0.7992165
vt 0.29491216 0.7997973
vt 0.29861313 0.79969764
vt 0.29491216 0.7997973
vt 0.30014613 0.7994571
vt 0.29622063 0.7997973
vt 0.29622063 0.7997973
vt 0.29491216 0.7997973
vt 0.29752913 0.7997973
vt 0.29491216 0.7997973
vt 0.29622063 0.7997973
vt 0.29861313 0.79969764
vt 0.29491216 0.7997973
vt 0.29121116 0.79969764
vt 0.29121116 0.79969764
vt 0.29121116 0.79969764
vt 0.29491216 0.7997973
vt 0.29491216 0.7997973
vt 0.2896782 0.7994571
vt 0.29121116 0.79969764
vt 0.29121116 0.79969764
vt 0.29121116 0.79969764
vt 0.2896782 0.7994571
vt 0.2896782 0.7994571
vt 0.29121116 0.7992165
vt 0.2896782 0.7994571
vt 0.2896782 0.7994571
vt 0.2896782 0.7994571
vt 0.29121116 0.7992165
vt 0.29121116 0.7992165
vt 0.29491216 0.79911685
vt 0.29121116 0.7992165
vt 0.29121116 0.7992165
vt 0.29121116 0.7992165
vt 0.29491216 0.79911685
vt 0.29491216 0.79911685
vt 0.29861313 0.7992165
vt 0.29491216 0.79911685
vt 0.29491216 0.79911685
vt 0.29491216 0.79911685
vt 0.29861313 0.7992165
vt 0.29861313 0.7992165
vt 0.30014613 0.7994571
vt 0.29861313 0.7992165
vt 0.29861313 0.7992165
vt 0.29861313 0.7992165
vt 0.30014613 0.7994571
vt 0.30014613 0.7994571
vt 0.29861313 0.79969764
vt 0.30014613 0.7994571
vt 0.30014613 0.7994571
vt 0.30014613 0.7994571
vt 0.29861313 0.79969764
vt 0.29861313 0.79969764
vt 0.29861313 0.79969764
vt 0.29491216 0.7997973
vt 0.29491216 0.7997973
vt 0.29491216 0.7997973
vt 0.29861313 0.79969764
vt 0.29861313 0.79969764
vt 0.081353195 0.77785474
vt 0.08421759 0.78071916
vt 0.08421759 0.77785474
vt 0.081353195 0.78071916
vt 0.081353195 0.77785474
vt 0.08421759 0.78071916
vt 0.08421759 0.77785474
vt 0.081353195 0.78071916
vt 0.081353195 0.77785474
vt 0.08421759 0.78071916
vt 0.08421759 0.77785474
vt 0.081353195 0.78071916
vt 0.081353195 0.77785474
vt 0.08421759 0.78071916
vt 0.08421759 0.77785474
vt 0.081353195 0.78071916
vt 0.081353195 0.77785474
vt 0.08421759 0.78071916
vt 0.08421759 0.77785474
vt 0.081353195 0.78071916
vt 0.081353195 0.77785474
vt 0.08421759 0.78071916
vt 0.08421759 0.77785474
vt 0.081353195 0.78071916
vt 0.081353195 0.77785474
vt 0.08421759 0.78071916
vt 0.08421759 0.77785474
vt 0.081353195 0.78071916
vt 0.081353195 0.77785474
vt 0.08421759 0.78071916
vt 0.08421759 0.77785474
vt 0.081353195 0.78071916
vt 0.081353195 0.77785474
vt 0.08421759 0.78071916
vt 0.08421759 0.77785474
vt 0.081353195 0.78071916
vt 0.081353195 0.77785474
vt 0.08421759 0.78071916
vt 0.08421759 0.77785474
vt 0.081353195 0.78071916
vt 0.081353195 0.77785474
vt 0.08421759 0.78071916
vt 0.08421759 0.77785474
vt 0.081353195 0.78071916
vt 0.081353195 0.77785474
vt 0.08421759 0.78071916
vt 0.08421759 0.77785474
vt 0.081353195 0.78071916
vt 0.081353195 0.77785474
vt 0.08421759 0.78071916
vt 0.08421759 0.77785474
vt 0.081353195 0.78071916
vt 0.081353195 0.77785474
vt 0.08421759 0.78071916
vt 0.08421759 0.77785474
vt 0.081353195 0.78071916
vt 0.081353195 0.77785474
vt 0.08421759 0.78071916
vt 0.08421759 0.77785474
vt 0.081353195 0.78071916
vt 0.081353195 0.77785474
vt 0.08421759 0.78071916
vt 0.08421759 0.77785474
vt 0.081353195 0.78071916
vn -0 -1 0
vn -0 -1 0
vn -0 -1 0
vn -0 -1 0
vn -0 -1 0
vn -0 -1 0
vn -0 -1 0
vn -0 -1 0
vn -0 -1 0
vn -0 -1 0
vn -0 -1 0
vn -0 -1 0
vn -0 1 0
vn -0 1 0
vn -0 1 0
vn -0 1 0
vn -0 1 0
vn -0 1 0
vn -0 1 0
vn -0 1 0
vn 0.9204283 -0.08635603 4.4703484E-08
vn 0.65084106 -0.08635604 -0.65084106
vn 0.650841 -0.086356044 -0.65084106
vn 0.9204282 -0.08635603 5.9604645E-08
vn 0.650841 -0.08635606 0.65084106
vn 0.650841 -0.086356066 0.65084106
vn 0.650841 -0.086356044 -0.65084106
vn -2.9802322E-08 -0.086356044 -0.9204282
vn -2.9802322E-08 -0.086356044 -0.92042816
vn 0.65084106 -0.08635604 -0.65084106
vn -0.6508411 -0.086356044 -0.65084094
vn -2.9802322E-08 -0.086356044 -0.92042816
vn -2.9802322E-08 -0.086356044 -0.9204282
vn -0.65084106 -0.08635603 -0.650841
vn -0.65084106 -0.08635603 -0.650841
vn -0.92042816 -0.08635603 8.940697E-08
vn -0.92042816 -0.086356014 7.4505806E-08
vn -0.6508411 -0.086356044 -0.65084094
vn -0.650841 -0.08635606 0.6508411
vn -0.92042816 -0.086356014 7.4505806E-08
vn -0.92042816 -0.08635603 8.940697E-08
vn -0.650841 -0.08635607 0.6508411
vn -0.650841 -0.08635607 0.6508411
vn -0 -0.08635607 0.9204282
vn -2.9802322E-08 -0.08635607 0.9204283
vn -0.650841 -0.08635606 0.6508411
vn 0.650841 -0.086356066 0.65084106
vn -2.9802322E-08 -0.08635607 0.9204283
vn -0 -0.08635607 0.9204282
vn 0.650841 -0.08635606 0.65084106
vn -0 1 0
vn -0 1 0
vn -0 1 0
vn -0 1 0
vn -0 1 0
vn -0 1 0
vn -0 1 0
vn -0 1 0
vn -0 1 0
vn -0 1 0
vn -0 1 0
vn -0 1 0
vn -0 1 0
vn -0 1 0
vn -0 1 0
vn -0 1 0
vn -0 1 0
vn -0 1 0
vn -0 1 0
vn -0 1 0
vn -0 1 0
vn -0 1 0
vn -0 1 0
vn -0 1 0
vn -0 1 0
vn -0 1 0
vn -0 1 0
vn -0 1 0
vn -0 1 0
vn -0 1 0
vn -0 1 0
vn -0 1 0
vn -0 1 0
vn -0 1 0
vn -0.9210728 0.0778898 2.9802322E-08
vn -0.65129685 0.077889815 0.65129673
vn -0.6512968 0.077889815 0.65129673
vn -0.65129685 0.077889815 0.65129673
vn -0.9210728 0.0778898 2.9802322E-08
vn -0.9210727 0.07788983 0
vn 8.940697E-08 0.07788977 0.9210727
vn -0.6512968 0.077889815 0.65129673
vn -0.65129685 0.077889815 0.65129673
vn -0.6512968 0.077889815 0.65129673
vn 8.940697E-08 0.07788977 0.9210727
vn 5.9604645E-08 0.07788977 0.92107284
vn 0.65129673 0.077889815 0.65129685
vn 5.9604645E-08 0.07788977 0.92107284
vn 8.940697E-08 0.07788977 0.9210727
vn 5.9604645E-08 0.07788977 0.92107284
vn 0.65129673 0.077889815 0.65129685
vn 0.65129673 0.077889815 0.6512968
vn 0.9210727 0.0778898 -1.7881393E-07
vn 0.65129673 0.077889815 0.6512968
vn 0.65129673 0.077889815 0.65129685
vn 0.65129673 0.077889815 0.6512968
vn 0.9210727 0.0778898 -1.7881393E-07
vn 0.9210728 0.077889815 -1.3411045E-07
vn 0.6512969 0.07788991 -0.6512968
vn 0.9210728 0.077889815 -1.3411045E-07
vn 0.9210727 0.0778898 -1.7881393E-07
vn 0.9210728 0.077889815 -1.3411045E-07
vn 0.6512969 0.07788991 -0.6512968
vn 0.6512968 0.077889875 -0.6512968
vn -1.3411045E-07 0.0778898 -0.92107266
vn 0.6512968 0.077889875 -0.6512968
vn 0.6512969 0.07788991 -0.6512968
vn 0.6512968 0.077889875 -0.6512968
vn -1.3411045E-07 0.0778898 -0.92107266
vn -1.0430813E-07 0.077889815 -0.92107284
vn -0.65129673 0.077889904 -0.6512969
vn -1.0430813E-07 0.077889815 -0.92107284
vn -1.3411045E-07 0.0778898 -0.92107266
vn -1.0430813E-07 0.077889815 -0.92107284
vn -0.65129673 0.077889904 -0.6512969
vn -0.6512966 0.07788992 -0.65129685
vn -0.6512966 0.07788992 -0.65129685
vn -0.9210727 0.07788983 0
vn -0.9210728 0.0778898 2.9802322E-08
vn -0.9210727 0.07788983 0
vn -0.6512966 0.07788992 -0.65129685
vn -0.65129673 0.077889904 -0.6512969
vn -0 0.17835508 0.98396623
vn -0 0.17835508 0.98396623
vn -0 0.17835508 0.98396623
vn -0 0.17835505 0.9839662
vn 0.99999547 -0.003012838 0
vn 0.99999547 -0.003012838 0
vn 0.9999954 -0.0030128378 0
vn 0.99999547 -0.003012838 0
vn -0 -0.18495002 -0.982748
vn -0 -0.18495002 -0.982748
vn -0 -0.18495001 -0.982748
vn -0 -0.18494998 -0.9827479
vn -0.99999547 -0.003012838 0
vn -0.99999547 -0.003012838 0
vn -0.9999954 -0.0030128378 0
vn -0.99999547 -0.003012838 0
vn 0.9839662 0.17835508 0
vn 0.9839662 0.17835508 0
vn 0.98396623 0.17835508 0
vn 0.9839662 0.17835508 0
vn -9.5761045E-08 -0.0030128025 -0.99999547
vn -9.5761045E-08 -0.0030128025 -0.99999547
vn -1.0641555E-07 -0.0030128048 -0.99999547
vn -8.704587E-08 -0.0030128008 -0.99999547
vn -0.982748 -0.18495005 0
vn -0.982748 -0.18495005 0
vn -0.982748 -0.18495004 0
vn -0.98274785 -0.18495002 0
vn 4.7880523E-08 -0.003012878 0.99999547
vn 4.7880523E-08 -0.003012878 0.99999547
vn 5.3207774E-08 -0.0030128772 0.99999547
vn 4.3522935E-08 -0.0030128786 0.99999547
vn -0 0.17835514 -0.9839662
vn -0 0.17835514 -0.9839662
vn -0 0.17835514 -0.98396623
vn -0 0.17835514 -0.9839662
vn -0.99999547 -0.0030128295 4.788058E-08
vn -0.99999547 -0.0030128295 4.788058E-08
vn -0.9999954 -0.0030128304 5.320782E-08
vn -0.99999547 -0.0030128285 4.3522995E-08
vn -0 -0.18495005 0.98274785
vn -0 -0.18495005 0.98274785
vn -0 -0.18495007 0.982748
vn -0 -0.18495005 0.9827479
vn 0.99999547 -0.0030128388 -7.1820864E-08
vn 0.99999547 -0.0030128388 -7.1820864E-08
vn 0.9999954 -0.0030128416 -5.320782E-08
vn 0.99999547 -0.0030128364 -8.704599E-08
vn -0.98396623 0.1783551 0
vn -0.98396623 0.1783551 0
vn -0.98396623 0.17835508 0
vn -0.9839662 0.17835507 0
vn 3.5910393E-08 -0.0030128837 0.99999547
vn 3.5910393E-08 -0.0030128837 0.99999547
vn 7.981166E-08 -0.0030128937 0.99999547
vn -0 -0.0030128763 0.99999547
vn 0.982748 -0.18495005 0
vn 0.982748 -0.18495005 0
vn 0.982748 -0.18495004 0
vn 0.98274785 -0.18495002 0
vn -3.5910393E-08 -0.0030127869 -0.99999547
vn -3.5910393E-08 -0.0030127869 -0.99999547
vn -7.981166E-08 -0.0030127803 -0.99999547
vn -0 -0.0030127924 -0.99999547
g pb_Mesh-113467934_0
f 3/3/3 2/2/2 1/1/1
f 6/6/6 5/5/5 4/4/4
f 9/9/9 8/8/8 7/7/7
f 12/12/12 11/11/11 10/10/10
f 15/15/15 14/14/14 13/13/13
f 17/17/17 16/16/16 14/14/14
f 19/19/19 18/18/18 16/16/16
f 13/13/13 18/18/18 20/20/20
f 23/23/23 22/22/22 21/21/21
f 24/24/24 21/21/21 22/22/22
f 21/21/21 24/24/24 25/25/25
f 26/26/26 25/25/25 24/24/24
f 29/29/29 28/28/28 27/27/27
f 30/30/30 27/27/27 28/28/28
f 33/33/33 32/32/32 31/31/31
f 34/34/34 31/31/31 32/32/32
f 37/37/37 36/36/36 35/35/35
f 38/38/38 35/35/35 36/36/36
f 41/41/41 40/40/40 39/39/39
f 42/42/42 39/39/39 40/40/40
f 45/45/45 44/44/44 43/43/43
f 46/46/46 43/43/43 44/44/44
f 49/49/49 48/48/48 47/47/47
f 50/50/50 47/47/47 48/48/48
f 4/4/4 11/11/11 12/12/12
f 7/7/7 11/11/11 4/4/4
f 14/14/14 18/18/18 13/13/13
f 16/16/16 18/18/18 14/14/14
f 53/53/53 52/52/52 51/51/51
f 54/54/54 51/51/51 52/52/52
f 57/57/57 56/56/56 55/55/55
f 58/58/58 55/55/55 56/56/56
f 61/61/61 60/60/60 59/59/59
f 62/62/62 59/59/59 60/60/60
f 65/65/65 64/64/64 63/63/63
f 66/66/66 63/63/63 64/64/64
f 69/69/69 68/68/68 67/67/67
f 70/70/70 67/67/67 68/68/68
f 73/73/73 72/72/72 71/71/71
f 74/74/74 71/71/71 72/72/72
f 77/77/77 76/76/76 75/75/75
f 78/78/78 75/75/75 76/76/76
f 81/81/81 80/80/80 79/79/79
f 84/84/84 83/83/83 82/82/82
f 87/87/87 86/86/86 85/85/85
f 90/90/90 89/89/89 88/88/88
f 93/93/93 92/92/92 91/91/91
f 96/96/96 95/95/95 94/94/94
f 99/99/99 98/98/98 97/97/97
f 102/102/102 101/101/101 100/100/100
f 105/105/105 104/104/104 103/103/103
f 108/108/108 107/107/107 106/106/106
f 111/111/111 110/110/110 109/109/109
f 114/114/114 113/113/113 112/112/112
f 117/117/117 116/116/116 115/115/115
f 120/120/120 119/119/119 118/118/118
f 123/123/123 122/122/122 121/121/121
f 126/126/126 125/125/125 124/124/124
f 129/129/129 128/128/128 127/127/127
f 132/132/132 131/131/131 130/130/130
f 135/135/135 134/134/134 133/133/133
f 136/136/136 133/133/133 134/134/134
f 139/139/139 138/138/138 137/137/137
f 140/140/140 137/137/137 138/138/138
f 143/143/143 142/142/142 141/141/141
f 144/144/144 141/141/141 142/142/142
f 147/147/147 146/146/146 145/145/145
f 148/148/148 145/145/145 146/146/146
f 151/151/151 150/150/150 149/149/149
f 152/152/152 149/149/149 150/150/150
f 155/155/155 154/154/154 153/153/153
f 156/156/156 153/153/153 154/154/154
f 159/159/159 158/158/158 157/157/157
f 160/160/160 157/157/157 158/158/158
f 163/163/163 162/162/162 161/161/161
f 164/164/164 161/161/161 162/162/162
f 167/167/167 166/166/166 165/165/165
f 168/168/168 165/165/165 166/166/166
f 171/171/171 170/170/170 169/169/169
f 172/172/172 169/169/169 170/170/170
f 175/175/175 174/174/174 173/173/173
f 176/176/176 173/173/173 174/174/174
f 179/179/179 178/178/178 177/177/177
f 180/180/180 177/177/177 178/178/178
f 183/183/183 182/182/182 181/181/181
f 184/184/184 181/181/181 182/182/182
f 187/187/187 186/186/186 185/185/185
f 188/188/188 185/185/185 186/186/186
f 191/191/191 190/190/190 189/189/189
f 192/192/192 189/189/189 190/190/190
f 195/195/195 194/194/194 193/193/193
f 196/196/196 193/193/193 194/194/194
