g pb_Mesh160850
v -5.865861 8.220734 -3.078644
v -5.865861 2.907949 -3.078644
v -6.292663 2.907949 -1.968147
v -5.865861 8.220734 -3.078644
v -6.292663 2.907949 -1.968147
v -6.292663 8.220734 -1.968147
v -4.958642 8.220734 -4.392975
v -5.865861 2.907949 -3.078644
v -5.865861 8.220734 -3.078644
v -4.958642 8.220734 -4.392975
v -4.958642 2.907949 -4.392975
v -5.865861 2.907949 -3.078644
v -3.763248 8.220734 -5.452003
v -4.958642 2.907949 -4.392975
v -4.958642 8.220734 -4.392975
v -3.763248 8.220734 -5.452003
v -3.763248 2.907949 -5.452003
v -4.958642 2.907949 -4.392975
v -2.349146 8.220734 -6.194176
v -2.349146 2.907949 -6.194176
v -3.763248 2.907949 -5.452003
v -2.349146 8.220734 -6.194176
v -3.763248 2.907949 -5.452003
v -3.763248 8.220734 -5.452003
v -1.197232 8.220734 -6.483543
v -2.349146 2.907949 -6.194176
v -2.349146 8.220734 -6.194176
v -1.197232 8.220734 -6.483543
v -1.197232 2.907949 -6.483543
v -2.349146 2.907949 -6.194176
vt 0.5 1
vt 0.5 1
vt 0.5 1
vt 0.5 1
vt 0.5 1
vt 0.5 1
vt 0.5 1
vt 0.5 1
vt 0.5 1
vt 0.5 1
vt 0.5 1
vt 0.5 1
vt 0.5 1
vt 0.5 1
vt 0.5 1
vt 0.5 1
vt 0.5 1
vt 0.5 1
vt 0.5 1
vt 0.5 1
vt 0.5 1
vt 0.5 1
vt 0.5 1
vt 0.5 1
vt 0.5 1
vt 0.5 1
vt 0.5 1
vt 0.5 1
vt 0.5 1
vt 0.5 1
vn 0.8782084 0 0.46340808
vn 0.8782084 0 0.46340808
vn 0.9334335 0 0.35875058
vn 0.8782084 0 0.46340808
vn 0.9334335 0 0.35875058
vn 0.9334335 0 0.35875058
vn 0.74305326 0 0.65828794
vn 0.8782084 0 0.46340808
vn 0.8782084 0 0.46340808
vn 0.74305326 0 0.65828794
vn 0.74305326 0 0.65828794
vn 0.8782084 0 0.46340808
vn 0.5639219 0 0.81698376
vn 0.74305326 0 0.65828794
vn 0.74305326 0 0.65828794
vn 0.5639219 0 0.81698376
vn 0.5639219 0 0.81698376
vn 0.74305326 0 0.65828794
vn 0.3541782 0 0.9276621
vn 0.3541782 0 0.9276621
vn 0.5639219 0 0.81698376
vn 0.3541782 0 0.9276621
vn 0.5639219 0 0.81698376
vn 0.5639219 0 0.81698376
vn 0.24363561 0 0.96986693
vn 0.3541782 0 0.9276621
vn 0.3541782 0 0.9276621
vn 0.24363561 0 0.96986693
vn 0.24363561 0 0.96986693
vn 0.3541782 0 0.9276621
g pb_Mesh160850_0
f 3/3/3 2/2/2 1/1/1
f 6/6/6 5/5/5 4/4/4
f 9/9/9 8/8/8 7/7/7
f 12/12/12 11/11/11 10/10/10
f 15/15/15 14/14/14 13/13/13
f 18/18/18 17/17/17 16/16/16
f 21/21/21 20/20/20 19/19/19
f 24/24/24 23/23/23 22/22/22
f 27/27/27 26/26/26 25/25/25
f 30/30/30 29/29/29 28/28/28
