g pb_Mesh298864
v -3.8605895 -0.066046715 2.2136757
v -4.6775503 -0.06801081 2.711304
v -6.2669497 -0.05365324 2.4790666
v -2.4012668 0.130368 1.0018644
v -3.4621322 0.012527585 0.2324744
v -2.0192978 0.007214129 0.38370514
v -2.0192978 0.007214129 0.38370514
v -1.9843183 -0.21146035 2.0132136
v -2.4012668 0.130368 1.0018644
v -2.4012668 0.130368 1.0018644
v -1.9843183 -0.21146035 2.0132136
v -3.0933743 -0.13313115 1.9856057
v -3.5192304 -0.26932287 2.8463435
v -5.7747707 -0.08525753 3.2406888
v -4.6775503 -0.06801081 2.711304
v 3.7726781 -0.05136946 -2.1393156
v 1.5971136 0.11684817 -1.4589071
v 0.65248936 0.0049005747 -2.3160336
v 3.7726781 -0.05136946 -2.1393156
v 0.65248936 0.0049005747 -2.3160336
v 1.7865082 -0.094433576 -2.7615736
v -0.6468172 0.21146023 -0.37059593
v -2.4133265 -0.14441323 -1.2408993
v 0.65248936 0.0049005747 -2.3160336
v -0.6468172 0.21146023 -0.37059593
v -2.0192978 0.007214129 0.38370514
v -2.4133265 -0.14441323 -1.2408993
v -2.4012668 0.130368 1.0018644
v -3.5754948 0.009533286 1.3273153
v -3.4621322 0.012527585 0.2324744
v -2.4012668 0.130368 1.0018644
v -3.0933743 -0.13313115 1.9856057
v -3.5754948 0.009533286 1.3273153
vt 0.045925464 0.4200988
vt 0.045925464 0.4200988
vt 0.045925464 0.4200988
vt 0.045925464 0.4200988
vt 0.045925464 0.4200988
vt 0.045925464 0.4200988
vt 0.07889009 0.4200988
vt 0.07889009 0.4200988
vt 0.07889009 0.4200988
vt 0.07889009 0.4200988
vt 0.07889009 0.4200988
vt 0.07889009 0.4200988
vt 0.045925464 0.4200988
vt 0.045925464 0.4200988
vt 0.045925464 0.4200988
vt 0.045925464 0.4200988
vt 0.045925464 0.4200988
vt 0.045925464 0.4200988
vt 0.045925464 0.4200988
vt 0.045925464 0.4200988
vt 0.045925464 0.4200988
vt 0.045925464 0.4200988
vt 0.045925464 0.4200988
vt 0.045925464 0.4200988
vt 0.045925464 0.4200988
vt 0.045925464 0.4200988
vt 0.045925464 0.4200988
vt 0.07889009 0.4200988
vt 0.07889009 0.4200988
vt 0.07889009 0.4200988
vt 0.07889009 0.4200988
vt 0.07889009 0.4200988
vt 0.07889009 0.4200988
vn 0.006819571 0.9998621 0.015142115
vn 0.006819571 0.9998621 0.015142115
vn 0.006819571 0.9998621 0.015142115
vn 0.1358131 0.9522877 0.008261673
vn -0.040952865 0.9887748 -0.09497413
vn 0.24116947 0.9322596 -0.03670917
vn 0.24116947 0.9322596 -0.03670917
vn 0.4596592 0.8814525 0.10842071
vn 0.1358131 0.9522877 0.008261673
vn 0.05989647 0.9528808 0.29737297
vn 0.05989647 0.9528808 0.29737297
vn 0.05989647 0.9528808 0.29737297
vn 0.12944071 0.945407 0.2990833
vn 0.12944071 0.945407 0.2990833
vn 0.12944071 0.945407 0.2990833
vn 0.02665653 0.9873553 -0.15626529
vn 0.026772127 0.9870094 -0.15841645
vn -0.04155022 0.98270005 -0.1667072
vn 0.02665653 0.9873553 -0.15626529
vn -0.04155022 0.98270005 -0.1667072
vn 0.026473884 0.9878917 -0.15286958
vn -0.13274929 0.98229146 -0.13221665
vn -0.13274929 0.98229146 -0.13221665
vn -0.04155022 0.98270005 -0.1667072
vn -0.13274929 0.98229146 -0.13221665
vn -0.17366843 0.98355055 -0.049675364
vn -0.13274929 0.98229146 -0.13221665
vn 0.1358131 0.9522877 0.008261673
vn -0.074899614 0.99234384 0.09820336
vn -0.040952865 0.9887748 -0.09497413
vn 0.1358131 0.9522877 0.008261673
vn -0.034584623 0.97118497 0.23580404
vn -0.074899614 0.99234384 0.09820336
g pb_Mesh298864_0
f 3/3/3 2/2/2 1/1/1
f 6/6/6 5/5/5 4/4/4
f 9/9/9 8/8/8 7/7/7
f 12/12/12 11/11/11 10/10/10
f 15/15/15 14/14/14 13/13/13
f 18/18/18 17/17/17 16/16/16
f 21/21/21 20/20/20 19/19/19
f 24/24/24 23/23/23 22/22/22
f 27/27/27 26/26/26 25/25/25
f 30/30/30 29/29/29 28/28/28
f 33/33/33 32/32/32 31/31/31
