g pb_Mesh466876
v -9.846347 0 -0.16251995
v -9.846352 0 -2.6195414
v -9.846347 1 -0.16251995
v -9.846352 1 -2.6195414
v 0.93464583 0 -2.543263
v 0.9346438 0 -0.16252209
v 0.93464434 1 -2.619544
v 0.9346438 1 -0.16252209
v -9.0894575 0 0.70418537
v -9.846347 0 -0.16251995
v -9.846347 1 -0.16251995
v -9.0894575 1 0.70418537
v -9.08946 1 -2.6195433
v -9.846352 1 -2.6195414
v -9.846352 0 -2.6195414
v -10.121033 -0.8030071 -2.68056
v -9.846352 1 -2.6195414
v -9.08946 1 -2.6195433
v -9.846347 1 -0.16251995
v -9.0894575 1 0.70418537
v -9.0894575 0 0.70418537
v -10.121033 -0.8030071 -2.68056
v -9.846347 0 -0.16251995
v -9.846347 0 -0.16251995
v -10.121033 -0.8030071 -2.68056
v -9.846352 0 -2.6195414
v 0.9346438 0 -0.16252209
v 0.26050916 0 0.7041856
v 0.9346438 1 -0.16252209
v 0.26050916 1 0.7041856
v 0.26050916 0 0.7041856
v -9.0894575 0 0.70418537
v 0.26050916 1 0.7041856
v -9.0894575 1 0.70418537
v -9.08946 1 -2.6195433
v -10.121033 -0.8030071 -2.68056
v 0.26050726 1 -2.6195438
v 0.7811185 -1.0749502 -2.4006739
v 0.26050726 1 -2.6195438
v 0.7811185 -1.0749502 -2.4006739
v 0.93464434 1 -2.619544
v 0.93464583 0 -2.543263
v -9.08946 1 -2.6195433
v 0.26050726 1 -2.6195438
v 0.26050916 1 0.7041856
v 0.93464434 1 -2.619544
v 0.26050916 1 0.7041856
v 0.9346438 1 -0.16252209
v 0.26050916 0 0.7041856
v 0.9346438 0 -0.16252209
v 0.93464583 0 -2.543263
v 0.7811185 -1.0749502 -2.4006739
v 0.26050916 0 0.7041856
v 0.93464583 0 -2.543263
v 0.26050916 0 0.7041856
v 0.7811185 -1.0749502 -2.4006739
v 0.26051018 -2.7342548 -2.8882196
v -9.0894575 0 0.70418537
v 0.26050916 0 0.7041856
v -9.089458 -2.7342548 -3.2752917
v 0.26051018 -2.7342548 -2.8882196
v 0.7811185 -1.0749502 -2.4006739
v -10.121033 -0.8030071 -2.68056
v 0.26051018 -2.7342548 -2.8882196
v -9.089458 -2.7342548 -3.2752917
v -10.121033 -0.8030071 -2.68056
v -9.0894575 0 0.70418537
v -9.089458 -2.7342548 -3.2752917
vt -0.16253905 0
vt -2.6195605 0
vt -0.16253905 1
vt -2.6195605 1
vt 2.5432637 -1.4534166E-06
vt 0.16252288 -1.4534166E-06
vt 2.6195447 0.99999857
vt 0.16252288 0.99999857
vt -9.089226 1.8460835E-11
vt -9.8464 -4.158181E-12
vt -9.8464 1
vt -9.089226 1
vt -9.116016 1.1161408
vt -9.872867 1.1157781
vt -9.872867 0.11685572
vt -10.148163 -0.68258584
vt 9.846352 -2.6195414
vt 9.08946 -2.6195433
vt 9.846347 -0.16251995
vt 9.0894575 0.70418537
vt 9.089223 0.68594515
vt 10.115002 -2.7828696
vt 9.846093 -0.17141952
vt 9.846093 -0.17141952
vt 10.115002 -2.7828696
vt 9.846098 -2.5996063
vt 0.9345904 -4.2506844E-12
vt 0.26074046 1.8380665E-11
vt 0.9345904 1
vt 0.26074046 1
vt 0.26074046 1.8380665E-11
vt -9.089226 1.8460835E-11
vt 0.26074046 1
vt -9.089226 1
vt -9.116016 1.1161408
vt -10.148163 -0.68258584
vt 0.23345335 1.1206204
vt 0.75629616 -0.9620023
vt 0.23345335 1.1206204
vt 0.75629616 -0.9620023
vt 0.9075545 1.1209433
vt 0.90834343 0.11848069
vt 9.08946 -2.6195433
vt -0.26050726 -2.6195438
vt -0.26050916 0.7041856
vt -0.93464434 -2.619544
vt -0.26050916 0.7041856
vt -0.9346438 -0.16252209
vt -0.26050243 0.6962074
vt -0.93461967 -0.15958896
vt -0.9346217 -2.5123901
vt -0.78882194 -2.5358415
vt -0.26050243 0.6962074
vt -0.9346217 -2.5123901
vt -0.59647584 0.16431616
vt 2.524226 -0.98804045
vt 2.8371675 -2.7668304
vt -9.0894575 0.5803895
vt 0.26050916 0.5803898
vt -9.089458 -4.247901
vt 0.26051024 -3.928876
vt -0.702131 -1.6954116
vt 10.20334 -1.4127587
vt -0.16584517 -3.4200633
vt 9.191783 -3.4421105
vt -6.7014384 3.5259535
vt -3.1975286 4.468336
vt -6.8052692 1.2595052
vn -1 0 1.940712E-06
vn -1 0 1.940712E-06
vn -1 0 1.940712E-06
vn -1 0 1.940712E-06
vn 1 1.5550487E-06 8.512299E-07
vn 1 7.6526453E-07 5.2979027E-07
vn 1 7.6526453E-07 5.2979027E-07
vn 0.99999994 0 2.1833007E-07
vn -0.75321287 0 0.65777695
vn -0.75321287 0 0.65777695
vn -0.75321287 0 0.65777695
vn -0.75321287 0 0.65777695
vn -0.055846177 0.042267583 -0.99754435
vn -2.5199772E-06 0 -1
vn -0.055846177 0.042267583 -0.99754435
vn -0.17853358 0.13512865 -0.9746106
vn -0 1 0
vn -0 0.99999994 0
vn -0 0.99999994 0
vn -0 1 0
vn -0.36502045 -0.8747258 0.31877053
vn -0.91659975 -0.34099227 0.20873223
vn -0.91659975 -0.34099227 0.20873223
vn -0.91659975 -0.34099227 0.20873223
vn -0.91659975 -0.34099227 0.20873223
vn -0.94617546 0.3236539 1.8362542E-06
vn 0.7893396 0 0.61395687
vn 0.7893396 0 0.61395687
vn 0.7893396 0 0.61395687
vn 0.7893396 0 0.61395687
vn -2.5499403E-08 0 1
vn -2.5499403E-08 0 1
vn -2.5499403E-08 0 1
vn -2.5499403E-08 0 1
vn -5.096962E-08 0.033822346 -0.9994278
vn 0.013236963 -0.042409144 -0.99901265
vn 0.013236963 -0.042409144 -0.99901265
vn 0.0230661 -0.09914674 -0.9948055
vn -3.5171357E-07 -0.10490012 -0.99448276
vn -0.0387994 -0.10198154 -0.99402934
vn -0.0387994 -0.10198154 -0.99402934
vn -0.36617893 -0.070777856 -0.9278488
vn -0 1 0
vn -0 1 0
vn -0 1 0
vn -0 0.99999994 0
vn -0 0.99999994 0
vn -0 1 0
vn 0.85318524 -0.49061802 0.17711242
vn -0 -0.99999994 0
vn 0.85318524 -0.49061802 0.17711242
vn 0.9729466 -0.11216765 0.20197363
vn 0.85318524 -0.49061802 0.17711242
vn 0.85318524 -0.49061802 0.17711242
vn 0.8916025 -0.36032254 0.27424926
vn 0.8916025 -0.36032254 0.27424926
vn 0.8916025 -0.36032254 0.27424926
vn -1.444028E-08 -0.8242 0.5662988
vn -0.012118143 -0.81062335 0.5854424
vn -0.012118143 -0.81062335 0.5854424
vn -0.025064886 -0.7954823 0.6054582
vn 0.031487864 0.27266148 -0.9615946
vn 0.035400312 0.29303205 -0.955447
vn 0.035400312 0.29303205 -0.955447
vn 0.039281838 0.31319103 -0.94887733
vn -0.77250516 -0.52337396 0.3596046
vn -0.77250516 -0.52337396 0.3596046
vn -0.77250516 -0.52337396 0.3596046
g pb_Mesh466876_0
f 3/3/3 2/2/2 1/1/1
f 3/3/3 4/4/4 2/2/2
f 7/7/7 6/6/6 5/5/5
f 7/7/7 8/8/8 6/6/6
f 11/11/11 10/10/10 9/9/9
f 11/11/11 9/9/9 12/12/12
f 15/15/15 14/14/14 13/13/13
f 15/15/15 13/13/13 16/16/16
f 19/19/19 18/18/18 17/17/17
f 20/20/20 18/18/18 19/19/19
f 23/23/23 22/22/22 21/21/21
f 26/26/26 25/25/25 24/24/24
f 29/29/29 28/28/28 27/27/27
f 29/29/29 30/30/30 28/28/28
f 33/33/33 32/32/32 31/31/31
f 33/33/33 34/34/34 32/32/32
f 37/37/37 36/36/36 35/35/35
f 38/38/38 36/36/36 37/37/37
f 41/41/41 40/40/40 39/39/39
f 42/42/42 40/40/40 41/41/41
f 20/20/20 44/44/44 43/43/43
f 45/45/45 44/44/44 20/20/20
f 47/47/47 46/46/46 44/44/44
f 48/48/48 46/46/46 47/47/47
f 51/51/51 50/50/50 49/49/49
f 54/54/54 53/53/53 52/52/52
f 57/57/57 56/56/56 55/55/55
f 60/60/60 59/59/59 58/58/58
f 60/60/60 61/61/61 59/59/59
f 64/64/64 63/63/63 62/62/62
f 64/64/64 65/65/65 63/63/63
f 68/68/68 67/67/67 66/66/66
