g pb_Mesh-18234920
v -0.7500012 1.749985 0.49999857
v 0.49999234 1.7499859 0.50000095
v -1.2499983 -1.7500014 0.4999953
v 8.940697E-08 -1.749995 0.4999959
v 0.49999234 1.7499859 0.50000095
v 0.49999234 1.7499859 -0.49999914
v 8.940697E-08 -1.749995 0.4999959
v 8.940697E-08 -1.749995 -0.50000405
v 0.49999234 1.7499859 -0.49999914
v -0.7500012 1.749985 -0.50000143
v 8.940697E-08 -1.749995 -0.50000405
v -1.2499983 -1.7500014 -0.50000477
v -6.596613 -0.54300356 -0.33959705
v -6.5723505 -0.5406656 0.25978726
v -6.52966 -1.1568022 -0.25979125
v -6.50539 -1.15446 0.3395892
v -1.2499983 -1.7500014 0.4999953
v 8.940697E-08 -1.749995 0.4999959
v -1.2499983 -1.7500014 -0.50000477
v 8.940697E-08 -1.749995 -0.50000405
v -0.7500012 1.749985 -0.50000143
v 0.49999234 1.7499859 -0.49999914
v -0.7500012 1.749985 0.49999857
v 0.49999234 1.7499859 0.50000095
v -0.7500012 1.749985 -0.50000143
v -0.7500012 1.749985 0.49999857
v -2.7719889 1.2497859 -0.33959574
v -2.7484975 1.2808264 0.25978726
v -1.2499983 -1.7500014 -0.50000477
v -0.7500012 1.749985 -0.50000143
v -2.5994644 -1.5732548 -0.25979203
v -2.7719889 1.2497859 -0.33959574
v -0.7500012 1.749985 0.49999857
v -1.2499983 -1.7500014 0.4999953
v -2.7484975 1.2808264 0.25978726
v -2.5759726 -1.5422151 0.33958888
v -1.2499983 -1.7500014 0.4999953
v -1.2499983 -1.7500014 -0.50000477
v -2.5759726 -1.5422151 0.33958888
v -2.5994644 -1.5732548 -0.25979203
v -2.7719889 1.2497859 -0.33959574
v -2.7484975 1.2808264 0.25978726
v -4.7224464 0.6451746 -0.3395971
v -4.6989555 0.66690326 0.25978577
v -2.5994644 -1.5732548 -0.25979203
v -2.7719889 1.2497859 -0.33959574
v -4.5499215 -1.3309536 -0.2597934
v -4.7224464 0.6451746 -0.3395971
v -2.7484975 1.2808264 0.25978726
v -2.5759726 -1.5422151 0.33958888
v -4.6989555 0.66690326 0.25978577
v -4.526429 -1.3092258 0.3395874
v -2.5759726 -1.5422151 0.33958888
v -2.5994644 -1.5732548 -0.25979203
v -4.526429 -1.3092258 0.3395874
v -4.5499215 -1.3309536 -0.2597934
v -4.7224464 0.6451746 -0.3395971
v -4.6989555 0.66690326 0.25978577
v -6.596613 -0.54300356 -0.33959705
v -6.5723505 -0.5406656 0.25978726
v -4.5499215 -1.3309536 -0.2597934
v -4.7224464 0.6451746 -0.3395971
v -6.52966 -1.1568022 -0.25979125
v -6.596613 -0.54300356 -0.33959705
v -4.6989555 0.66690326 0.25978577
v -4.526429 -1.3092258 0.3395874
v -6.5723505 -0.5406656 0.25978726
v -6.50539 -1.15446 0.3395892
v -4.526429 -1.3092258 0.3395874
v -4.5499215 -1.3309536 -0.2597934
v -6.50539 -1.15446 0.3395892
v -6.52966 -1.1568022 -0.25979125
vt -0.75000024 1.7499853
vt 0.4999933 1.7499863
vt -1.2499974 -1.7500011
vt 1.0430781E-06 -1.7499946
vt -0.50000095 1.8031069
vt 0.49999914 1.8031069
vt -0.4999959 -1.732407
vt 0.50000405 -1.732407
vt -0.49999142 1.7499853
vt 0.7500021 1.7499844
vt 8.285163E-07 -1.7499956
vt 1.2499993 -1.750002
vt -0.6087821 0.13816382
vt -0.008907008 0.14051428
vt -0.52630794 -0.4789248
vt 0.07356363 -0.4765709
vt -1.2500074 0.4999953
vt -8.922801E-06 0.4999959
vt -1.2500074 -0.50000477
vt -8.922801E-06 -0.50000405
vt 0.7499999 -0.50000143
vt -0.49999368 -0.49999914
vt 0.7499999 0.49999857
vt -0.49999368 0.50000095
vt 0.3078114 -0.50000143
vt 0.3078114 0.49999857
vt 2.39075 -0.33959574
vt 2.360492 0.25978726
vt 1.1452765 -1.7668701
vt 0.65274274 1.7341744
vt 2.5159485 -1.5900701
vt 2.6721616 1.2294549
vt -0.6825597 1.7393354
vt -1.1787348 -1.7611951
vt -2.6954236 1.2701039
vt -2.5143688 -1.5535197
vt -0.96400064 0.4999953
vt -0.96400064 -0.50000477
vt -2.3061566 0.33958888
vt -2.32456 -0.25979203
vt 2.2776542 -0.26313636
vt 2.2460253 0.3366761
vt 4.3196726 -0.26313773
vt 4.2908015 0.3363381
vt 2.598529 -1.5649581
vt 2.77077 1.2592278
vt 4.548974 -1.3225585
vt 4.7212152 0.65505815
vt -2.7461247 1.2724673
vt -2.5729098 -1.5516598
vt -4.6965084 0.658308
vt -4.523292 -1.319232
vt -2.3748655 0.23622572
vt -2.3945098 -0.3640966
vt -4.3391886 0.23622423
vt -4.3599377 -0.36358038
vt 3.6430001 -0.30997792
vt 3.6115258 0.2894328
vt 5.862069 -0.30997786
vt 5.840326 0.28927255
vt 4.548962 -1.3186265
vt 4.7212 0.6591375
vt 6.5286884 -1.1443309
vt 6.5953546 -0.5277851
vt -4.6911297 0.65207696
vt -4.51669 -1.3254949
vt -6.563956 -0.55637366
vt -6.49505 -1.172704
vt -4.410573 0.27438378
vt -4.4322996 -0.3254573
vt -6.3955765 0.2743856
vt -6.41959 -0.32470056
vn -1.907358E-06 -6.641689E-07 1
vn -1.1920937E-06 -1.0218002E-06 1
vn -1.1920937E-06 -1.0218002E-06 1
vn -4.7683073E-07 -1.3794312E-06 1
vn 0.9899496 -0.14141995 0
vn 0.98994964 -0.14141996 0
vn 0.98994964 -0.14141996 0
vn 0.9899497 -0.14141996 0
vn 1.8358317E-06 1.1427152E-06 -1
vn 1.2040147E-06 1.0073248E-06 -1
vn 1.2040147E-06 1.0073248E-06 -1
vn 5.722007E-07 8.719352E-07 -1
vn -0.9938382 -0.103124216 0.040631734
vn -0.99383736 -0.10312991 0.04063855
vn -0.99383736 -0.10312991 0.04063855
vn -0.99383646 -0.10313559 0.040645365
vn 5.1498473E-06 -0.99999994 0
vn 5.149848E-06 -1 0
vn 5.149848E-06 -1 0
vn 5.1498478E-06 -1 0
vn -7.629434E-07 1 0
vn -7.629434E-07 1 0
vn -7.629434E-07 1 0
vn -7.6294344E-07 1 0
vn -0.24014105 0.970738 0
vn -0.23407093 0.9720971 -0.0154283075
vn -0.23407093 0.9720971 -0.0154283075
vn -0.22359489 0.9737912 -0.04166694
vn -0.17207617 0.024583206 -0.9847769
vn -0.11738346 -0.0064537316 -0.99306566
vn -0.11738346 -0.0064537316 -0.99306566
vn -0.07104241 -0.0325239 -0.99694294
vn -0.12339667 0.017627135 0.99220085
vn -0.12107549 0.018795732 0.99246526
vn -0.12107549 0.018795732 0.99246526
vn -0.11683779 0.020927794 0.9929305
vn -0.15481533 -0.9879434 0
vn -0.14161065 -0.98969346 0.021287307
vn -0.14161065 -0.98969346 0.021287307
vn -0.11985052 -0.9912097 0.05602846
vn -0.29587308 0.9544776 -0.037833977
vn -0.29802606 0.9540761 -0.030317761
vn -0.29802606 0.9540761 -0.030317761
vn -0.30015886 0.95361656 -0.02280647
vn -0.003536462 -0.028473187 -0.99958825
vn 0.0030674 -0.033018474 -0.99945
vn 0.0030674 -0.033018474 -0.99945
vn 0.012178878 -0.039286427 -0.9991538
vn -0.008726719 0.027722701 0.9995776
vn -0.0032239128 0.033006333 0.9994499
vn -0.0032239128 0.033006333 0.9994499
vn 0.004869831 0.0407739 0.9991566
vn -0.11842453 -0.9913838 0.055981565
vn -0.1208048 -0.9914967 0.048378862
vn -0.1208048 -0.9914967 0.048378862
vn -0.12317781 -0.9915467 0.040771842
vn -0.53541505 0.8445341 -0.009631885
vn -0.5386187 0.8425374 0.0045412527
vn -0.5386187 0.8425374 0.0045412527
vn -0.5416927 0.8403697 0.018649306
vn -0.0035780438 -0.04066259 -0.99916655
vn 0.01579887 -0.06004728 -0.99807054
vn 0.01579887 -0.06004728 -0.99807054
vn 0.07631072 -0.120368354 -0.989792
vn -0.024617247 0.03819187 0.9989671
vn -0.0163936 0.059989642 0.99806434
vn -0.0163936 0.059989642 0.99806434
vn 0.01016867 0.13001318 0.99146014
vn -0.0779077 -0.996191 0.03916588
vn -0.08277937 -0.99629533 0.023302885
vn -0.08277937 -0.99629533 0.023302885
vn -0.08762603 -0.9961256 0.007440747
g pb_Mesh-18234920_0
f 3/3/3 2/2/2 1/1/1
f 3/3/3 4/4/4 2/2/2
f 7/7/7 6/6/6 5/5/5
f 7/7/7 8/8/8 6/6/6
f 11/11/11 10/10/10 9/9/9
f 11/11/11 12/12/12 10/10/10
f 15/15/15 14/14/14 13/13/13
f 15/15/15 16/16/16 14/14/14
f 19/19/19 18/18/18 17/17/17
f 19/19/19 20/20/20 18/18/18
f 23/23/23 22/22/22 21/21/21
f 23/23/23 24/24/24 22/22/22
f 27/27/27 26/26/26 25/25/25
f 27/27/27 28/28/28 26/26/26
f 31/31/31 30/30/30 29/29/29
f 31/31/31 32/32/32 30/30/30
f 35/35/35 34/34/34 33/33/33
f 35/35/35 36/36/36 34/34/34
f 39/39/39 38/38/38 37/37/37
f 39/39/39 40/40/40 38/38/38
f 43/43/43 42/42/42 41/41/41
f 43/43/43 44/44/44 42/42/42
f 47/47/47 46/46/46 45/45/45
f 47/47/47 48/48/48 46/46/46
f 51/51/51 50/50/50 49/49/49
f 51/51/51 52/52/52 50/50/50
f 55/55/55 54/54/54 53/53/53
f 55/55/55 56/56/56 54/54/54
f 59/59/59 58/58/58 57/57/57
f 59/59/59 60/60/60 58/58/58
f 63/63/63 62/62/62 61/61/61
f 63/63/63 64/64/64 62/62/62
f 67/67/67 66/66/66 65/65/65
f 67/67/67 68/68/68 66/66/66
f 71/71/71 70/70/70 69/69/69
f 71/71/71 72/72/72 70/70/70
