g pb_Mesh153780
v 2.2148325 -0.5 7.635147
v -12.499997 -0.5 -0.27799904
v 2.2148325 0.5 7.635147
v -12.499997 -0.5 -0.27799904
v -12.499997 0.5 -0.27799904
v 2.2148325 0.5 7.635147
v -12.499997 -0.5 -0.27799904
v -12.500001 -0.5 -10.280487
v -12.499997 0.5 -0.27799904
v -12.500001 -0.5 -10.280487
v -12.500001 0.5 -10.280487
v -12.499997 0.5 -0.27799904
v -12.500001 -0.5 -10.280487
v 2.1143188 -0.4999869 -18.294207
v -12.500001 0.5 -10.280487
v 2.1143188 -0.4999869 -18.294207
v 2.1143146 0.5000131 -18.294207
v -12.500001 0.5 -10.280487
v 2.1143188 -0.4999869 -18.294207
v 2.2148325 -0.5 7.635147
v 2.1143146 0.5000131 -18.294207
v 2.2148325 -0.5 7.635147
v 2.2148325 0.5 7.635147
v 2.1143146 0.5000131 -18.294207
v 2.2148325 0.5 7.635147
v -12.499997 0.5 -0.27799904
v 2.1143146 0.5000131 -18.294207
v -12.500001 0.5 -10.280487
v 2.1143188 -0.4999869 -18.294207
v -12.500001 -0.5 -10.280487
v 2.2148325 -0.5 7.635147
v -12.499997 -0.5 -0.27799904
vt 0.35196447 0.27269697
vt 0.3596053 0.26858807
vt 0.35196447 0.27269697
vt 0.3596053 0.26858807
vt 0.3596053 0.26858807
vt 0.35196447 0.27269697
vt 0.3596053 0.26858807
vt 0.3596053 0.26339436
vt 0.3596053 0.26858807
vt 0.3596053 0.26339436
vt 0.3596053 0.26339436
vt 0.3596053 0.26858807
vt 0.3596053 0.26339436
vt 0.35201645 0.259233
vt 0.3596053 0.26339436
vt 0.35201645 0.259233
vt 0.35201645 0.259233
vt 0.3596053 0.26339436
vt 0.35201645 0.259233
vt 0.35196447 0.27269697
vt 0.35201645 0.259233
vt 0.35196447 0.27269697
vt 0.35196447 0.27269697
vt 0.35201645 0.259233
vt 0.35196447 0.27269697
vt 0.3596053 0.26858807
vt 0.35201645 0.259233
vt 0.3596053 0.26339436
vt 0.35201645 0.259233
vt 0.3596053 0.26339436
vt 0.35196447 0.27269697
vt 0.3596053 0.26858807
vn -0.47362536 0 0.8807264
vn -0.47362536 0 0.8807264
vn -0.47362536 0 0.8807264
vn -0.47362536 0 0.8807264
vn -0.47362536 0 0.8807264
vn -0.47362536 0 0.8807264
vn -1 0 3.8137483E-07
vn -1 0 3.8137483E-07
vn -1 0 3.8137483E-07
vn -1 0 3.8137483E-07
vn -1 0 3.8137483E-07
vn -1 0 3.8137483E-07
vn -0.48080564 0 -0.87682724
vn -0.4808057 -1.031697E-06 -0.8768272
vn -0.4808057 -1.031697E-06 -0.8768272
vn -0.4808057 -1.031697E-06 -0.8768272
vn -0.4808057 -2.063394E-06 -0.87682706
vn -0.4808057 -1.031697E-06 -0.8768272
vn 0.99999255 4.291502E-06 -0.0038764153
vn 0.99999255 2.145751E-06 -0.0038764982
vn 0.99999255 2.145751E-06 -0.0038764982
vn 0.99999255 2.145751E-06 -0.0038764982
vn 0.99999255 0 -0.0038765809
vn 0.99999255 2.145751E-06 -0.0038764982
vn -2.7252815E-07 1 5.067776E-07
vn -4.4584294E-07 1 3.661888E-07
vn -4.4584294E-07 1 3.661888E-07
vn -8.9727223E-07 1 3.4219706E-13
vn 6.186464E-07 -0.99999994 -5.0811923E-07
vn 4.4584291E-07 -1 -3.6618877E-07
vn 4.4584291E-07 -1 -3.6618877E-07
vn -0 -1 0
g pb_Mesh153780_0
f 3/3/3 2/2/2 1/1/1
f 6/6/6 5/5/5 4/4/4
f 9/9/9 8/8/8 7/7/7
f 12/12/12 11/11/11 10/10/10
f 15/15/15 14/14/14 13/13/13
f 18/18/18 17/17/17 16/16/16
f 21/21/21 20/20/20 19/19/19
f 24/24/24 23/23/23 22/22/22
f 27/27/27 26/26/26 25/25/25
f 27/27/27 28/28/28 26/26/26
f 31/31/31 30/30/30 29/29/29
f 31/31/31 32/32/32 30/30/30
