g pb_Mesh245948
v 0.16086996 0 -0.035558913
v -1.6399217 0 -0.035558913
v 0.16086996 0.7104784 -0.035558913
v -1.6399217 1 -0.035558913
v -1.6399217 0 -0.035558913
v -1 0 -1
v -1.6399217 1 -0.035558913
v -1 1.2125025 -1
v -1 0 -1
v -0 0 -1
v -1 1.2125025 -1
v -0 1.2125025 -1
v -0 0 -1
v 0.16086996 0 -0.035558913
v -0 1.2125025 -1
v 0.16086996 0.7104784 -0.035558913
v 0.16086996 0.7104784 -0.035558913
v -1.6399217 1 -0.035558913
v -0 1.2125025 -1
v -1 1.2125025 -1
v -0 0 -1
v -1 0 -1
v 0.16086996 0 -0.035558913
v -1.6399217 0 -0.035558913
vt 0.16086996 0
vt -1.6399217 0
vt 0.16086996 0.7104784
vt -1.6399217 1
vt 0.8770519 0
vt -0.28037906 0
vt 0.8770519 1
vt -0.28037906 1.2125025
vt 1 0
vt 0 0
vt 1 1.2125025
vt 0 1.2125025
vt 0.9863724 0
vt 0.008606697 0
vt 0.9863724 1.2125025
vt 0.008606697 0.7104784
vt -0.046051696 -0.35051635
vt 1.7778654 -0.35051638
vt 0.19246796 -1.4234387
vt 1.1797891 -1.3538852
vt 0 -1
vt -1 -1
vt 0.16086996 -0.035558913
vt -1.6399217 -0.035558913
vn -0 0 1
vn -0 0 1
vn -0 0 1
vn -0 0 1
vn -0.8332602 0 -0.5528811
vn -0.8332602 0 -0.5528811
vn -0.8332602 0 -0.5528811
vn -0.8332602 0 -0.55288106
vn -0 0 -1
vn -0 0 -1
vn -0 0 -1
vn -0 0 -1
vn 0.9863724 0 -0.16452813
vn 0.9863724 0 -0.16452812
vn 0.9863724 0 -0.16452812
vn 0.9863724 0 -0.16452813
vn 0.14268662 0.8874948 0.4381706
vn 0.09566549 0.92545485 0.36658058
vn 0.09566549 0.92545485 0.36658058
vn -0 0.97657526 0.21517608
vn -0 -1 0
vn -0 -1 0
vn -0 -1 0
vn -0 -0.99999994 0
g pb_Mesh245948_0
f 3/3/3 2/2/2 1/1/1
f 3/3/3 4/4/4 2/2/2
f 7/7/7 6/6/6 5/5/5
f 7/7/7 8/8/8 6/6/6
f 11/11/11 10/10/10 9/9/9
f 11/11/11 12/12/12 10/10/10
f 15/15/15 14/14/14 13/13/13
f 15/15/15 16/16/16 14/14/14
f 19/19/19 18/18/18 17/17/17
f 19/19/19 20/20/20 18/18/18
f 23/23/23 22/22/22 21/21/21
f 23/23/23 24/24/24 22/22/22
