g pb_Mesh288190
v -0 0.5191941 0
v -0 1 -0.62078214
v -0 1 -1
v -0.9999995 1 -1
v -0.9999995 1 -0.62078214
v -0.9999995 0.5191941 0
v -0.9999995 0 0
v -0 0 0
v -0 2.2351742E-08 -1
v -0.9999995 0 0
v -0 2.2351742E-08 -1
v -0.9999995 2.2351742E-08 -1
v -0 2.2351742E-08 -1
v -0 0 0
v -0 0.5191941 0
v -0 1 -1
v -0.8663802 0.4498198 -0.070730686
v -0.13361931 0.4498198 -0.070730686
v -0.13361931 0.069374315 -0.070730686
v -0.8663802 0.069374315 -0.070730686
v -0.9999995 1 -0.62078214
v -0 1 -0.62078214
v -0 0.5191941 0
v -0.9999995 0.5191941 0
v -0.9999995 1 -1
v -0 1 -1
v -0 1 -0.62078214
v -0.9999995 1 -1
v -0 1 -0.62078214
v -0.9999995 1 -0.62078214
v -0.9999995 2.2351742E-08 -1
v -0 2.2351742E-08 -1
v -0 1 -1
v -0.9999995 2.2351742E-08 -1
v -0 1 -1
v -0.9999995 1 -1
v -0.9999995 0.5191941 0
v -0.9999995 0 0
v -0.9999995 2.2351742E-08 -1
v -0.9999995 2.2351742E-08 -1
v -0.9999995 1 -1
v -0.9999995 0.5191941 0
v -0.9999995 0.5191941 0
v -0.8663802 0.4498198 0
v -0.8663802 0.069374315 0
v -0.9999995 0.5191941 0
v -0.8663802 0.069374315 0
v -0.9999995 0 0
v -0.9999995 0 0
v -0.8663802 0.069374315 0
v -0.13361931 0.069374315 0
v -0.9999995 0 0
v -0.13361931 0.069374315 0
v -0 0 0
v -0 0 0
v -0.13361931 0.069374315 0
v -0.13361931 0.4498198 0
v -0 0 0
v -0.13361931 0.4498198 0
v -0 0.5191941 0
v -0 0.5191941 0
v -0.13361931 0.4498198 0
v -0.8663802 0.4498198 0
v -0 0.5191941 0
v -0.8663802 0.4498198 0
v -0.9999995 0.5191941 0
v -0.8663802 0.4498198 0
v -0.8663802 0.4498198 -0.070730686
v -0.8663802 0.069374315 -0.070730686
v -0.8663802 0.4498198 0
v -0.8663802 0.069374315 -0.070730686
v -0.8663802 0.069374315 0
v -0.8663802 0.069374315 0
v -0.8663802 0.069374315 -0.070730686
v -0.13361931 0.069374315 -0.070730686
v -0.8663802 0.069374315 0
v -0.13361931 0.069374315 -0.070730686
v -0.13361931 0.069374315 0
v -0.13361931 0.069374315 0
v -0.13361931 0.069374315 -0.070730686
v -0.13361931 0.4498198 -0.070730686
v -0.13361931 0.069374315 0
v -0.13361931 0.4498198 -0.070730686
v -0.13361931 0.4498198 0
v -0.13361931 0.4498198 0
v -0.13361931 0.4498198 -0.070730686
v -0.8663802 0.4498198 -0.070730686
v -0.13361931 0.4498198 0
v -0.8663802 0.4498198 -0.070730686
v -0.8663802 0.4498198 0
vt 0.2331484 0.061667047
vt 0.2331484 0.06166705
vt 0.23314834 0.06166705
vt 0.2364769 0.060738444
vt 0.2364769 0.060738444
vt 0.2364769 0.060738444
vt 0.20016754 0.061667036
vt 0.20016754 0.061667036
vt 0.20016754 0.061667047
vt 0.20016754 0.061667036
vt 0.20016754 0.061667047
vt 0.20016754 0.06166705
vt 0.23314834 0.061667047
vt 0.2331484 0.061667044
vt 0.2331484 0.061667047
vt 0.23314834 0.06166705
vt 0.50901216 0.99093187
vt 0.6450664 0.99093187
vt 0.6450664 0.93725264
vt 0.50901216 0.93725264
vt 0.75051117 0.8808437
vt 0.506956 0.8808437
vt 0.506956 0.67259055
vt 0.75051117 0.67259055
vt 0.3000524 0.061667047
vt 0.3000524 0.061667047
vt 0.3000524 0.06166705
vt 0.3000524 0.061667047
vt 0.3000524 0.06166705
vt 0.3000524 0.06166705
vt 0.26518694 0.061667047
vt 0.26518694 0.061667047
vt 0.26518694 0.061667047
vt 0.26518694 0.061667047
vt 0.26518694 0.061667047
vt 0.26518694 0.061667047
vt 0.2364769 0.060738444
vt 0.2364769 0.060738504
vt 0.2364769 0.060738504
vt 0.2364769 0.060738504
vt 0.2364769 0.060738444
vt 0.2364769 0.060738444
vt 0.26518694 0.061667047
vt 0.26518694 0.061667047
vt 0.26518694 0.061667044
vt 0.26518694 0.061667047
vt 0.26518694 0.061667044
vt 0.26518694 0.061667044
vt 0.26518694 0.061667044
vt 0.26518694 0.061667044
vt 0.26518694 0.061667044
vt 0.26518694 0.061667044
vt 0.26518694 0.061667044
vt 0.26518694 0.061667044
vt 0.26518694 0.061667044
vt 0.26518694 0.061667044
vt 0.26518694 0.061667047
vt 0.26518694 0.061667044
vt 0.26518694 0.061667047
vt 0.26518694 0.061667047
vt 0.26518694 0.061667047
vt 0.26518694 0.061667047
vt 0.26518694 0.061667047
vt 0.26518694 0.061667047
vt 0.26518694 0.061667047
vt 0.26518694 0.061667047
vt 0.20590219 0.061667047
vt 0.20590219 0.061667047
vt 0.20590219 0.061667044
vt 0.20590219 0.061667047
vt 0.20590219 0.061667044
vt 0.20590219 0.061667044
vt 0.29779357 0.061667044
vt 0.29779357 0.061667044
vt 0.29779357 0.061667044
vt 0.29779357 0.061667044
vt 0.29779357 0.061667044
vt 0.29779357 0.061667044
vt 0.20590219 0.061667044
vt 0.20590219 0.061667044
vt 0.20590219 0.061667047
vt 0.20590219 0.061667044
vt 0.20590219 0.061667047
vt 0.20590219 0.061667047
vt 0.16934326 0.061667047
vt 0.16934326 0.061667047
vt 0.16934326 0.061667047
vt 0.16934326 0.061667047
vt 0.16934326 0.061667047
vt 0.16934326 0.061667047
vn 1 0 0
vn 1 0 0
vn 1 0 0
vn -1 0 0
vn -1 0 0
vn -1 0 0
vn -0 -1 -2.2351742E-08
vn -0 -1 -2.2351742E-08
vn -0 -1 -2.2351742E-08
vn -0 -1 -2.2351742E-08
vn -0 -1 -2.2351742E-08
vn -0 -1 -2.2351742E-08
vn 1 0 0
vn 1 0 0
vn 1 0 0
vn 1 0 0
vn -0 0 1
vn -0 0 1
vn -0 0 1
vn -0 0 1
vn -0 0.7906002 0.6123327
vn -0 0.7906002 0.6123327
vn -0 0.7906002 0.6123327
vn -0 0.7906002 0.6123327
vn -0 0.99999994 0
vn -0 0.99999994 0
vn -0 0.99999994 0
vn -0 0.99999994 0
vn -0 0.99999994 0
vn -0 0.99999994 0
vn -0 0 -1
vn -0 0 -1
vn -0 0 -1
vn -0 0 -1
vn -0 0 -1
vn -0 0 -1
vn -1 0 0
vn -1 0 0
vn -1 0 0
vn -1 0 0
vn -1 0 0
vn -1 0 0
vn -0 0 1
vn -0 0 1
vn -0 0 1
vn -0 0 1
vn -0 0 1
vn -0 0 1
vn -0 0 1
vn -0 0 1
vn -0 0 1
vn -0 0 1
vn -0 0 1
vn -0 0 1
vn -0 0 1
vn -0 0 1
vn -0 0 1
vn -0 0 1
vn -0 0 1
vn -0 0 1
vn -0 0 1
vn -0 0 1
vn -0 0 1
vn -0 0 1
vn -0 0 1
vn -0 0 1
vn 1 0 0
vn 1 0 0
vn 1 0 0
vn 1 0 0
vn 1 0 0
vn 1 0 0
vn -0 1 0
vn -0 1 0
vn -0 1 0
vn -0 1 0
vn -0 1 0
vn -0 1 0
vn -1 0 0
vn -1 0 0
vn -1 0 0
vn -1 0 0
vn -1 0 0
vn -1 0 0
vn -0 -1 0
vn -0 -1 0
vn -0 -1 0
vn -0 -1 0
vn -0 -1 0
vn -0 -1 0
g pb_Mesh288190_0
f 3/3/3 2/2/2 1/1/1
f 6/6/6 5/5/5 4/4/4
f 9/9/9 8/8/8 7/7/7
f 12/12/12 11/11/11 10/10/10
f 15/15/15 14/14/14 13/13/13
f 13/13/13 16/16/16 15/15/15
f 19/19/19 18/18/18 17/17/17
f 20/20/20 19/19/19 17/17/17
f 23/23/23 22/22/22 21/21/21
f 24/24/24 23/23/23 21/21/21
f 27/27/27 26/26/26 25/25/25
f 30/30/30 29/29/29 28/28/28
f 33/33/33 32/32/32 31/31/31
f 36/36/36 35/35/35 34/34/34
f 39/39/39 38/38/38 37/37/37
f 42/42/42 41/41/41 40/40/40
f 45/45/45 44/44/44 43/43/43
f 48/48/48 47/47/47 46/46/46
f 51/51/51 50/50/50 49/49/49
f 54/54/54 53/53/53 52/52/52
f 57/57/57 56/56/56 55/55/55
f 60/60/60 59/59/59 58/58/58
f 63/63/63 62/62/62 61/61/61
f 66/66/66 65/65/65 64/64/64
f 69/69/69 68/68/68 67/67/67
f 72/72/72 71/71/71 70/70/70
f 75/75/75 74/74/74 73/73/73
f 78/78/78 77/77/77 76/76/76
f 81/81/81 80/80/80 79/79/79
f 84/84/84 83/83/83 82/82/82
f 87/87/87 86/86/86 85/85/85
f 90/90/90 89/89/89 88/88/88
