g pb_Mesh1056364
v 7.046875 0.8755586 -18.224997
v 7.046873 0.8755586 18.224998
v 7.046875 1.5792333 -18.224997
v 7.046873 1.5792333 18.224998
v 7.046873 0.8755586 18.224998
v -7.046874 0.8755586 18.224997
v 7.046873 1.5792333 18.224998
v -7.046874 1.5792333 18.224997
v -7.046874 0.8755586 18.224997
v -7.046872 0.8755586 -18.224998
v -7.046874 1.5792333 18.224997
v -7.046872 1.5792333 -18.224998
v -7.046872 0.8755586 -18.224998
v 7.046875 0.8755586 -18.224997
v -7.046872 1.5792333 -18.224998
v 7.046875 1.5792333 -18.224997
v 7.046875 1.5792333 -18.224997
v 7.046873 1.5792333 18.224998
v -7.046872 1.5792333 -18.224998
v -7.046874 1.5792333 18.224997
v -7.046872 -2.3335042 -15.513004
v -7.046874 -2.3335042 15.513004
v 7.046875 -2.3335042 -15.513004
v 7.046873 -2.3335042 15.513004
v -7.046872 0.8755586 -18.224998
v -7.046872 -2.3335042 -15.513004
v -7.046874 -2.3335042 15.513004
v 7.046875 0.8755586 -18.224997
v -7.046872 0.8755586 -18.224998
v 7.046875 -2.3335042 -15.513004
v -7.046872 -2.3335042 -15.513004
v -7.046874 0.8755586 18.224997
v 7.046873 0.8755586 18.224998
v -7.046874 -2.3335042 15.513004
v 7.046873 -2.3335042 15.513004
v 7.046873 0.8755586 18.224998
v 7.046873 -2.3335042 15.513004
v 7.046875 -2.3335042 -15.513004
vt 18.224997 0.8755586
vt -18.224998 0.8755586
vt 18.224997 1.5792333
vt -18.224998 1.5792333
vt 7.0468755 0.8755586
vt -7.0468717 0.8755586
vt 7.0468755 1.5792333
vt -7.0468717 1.5792333
vt 18.224997 0.8755586
vt -18.224998 0.8755586
vt 18.224997 1.5792333
vt -18.224998 1.5792333
vt 7.0468745 0.8755586
vt -7.0468726 0.8755586
vt 7.0468745 1.5792333
vt -7.0468726 1.5792333
vt -7.046875 -18.224997
vt -7.046873 18.224998
vt 7.046872 -18.224998
vt 7.046874 18.224997
vt -7.046872 -15.513004
vt -7.046874 15.513004
vt 7.046875 -15.513004
vt 7.046873 15.513004
vt -18.224998 0.8755589
vt -15.513004 -2.333504
vt 15.513004 -2.333504
vt -7.0468726 12.432514
vt 7.0468745 12.432514
vt -7.046873 8.230968
vt 7.046874 8.2309675
vt -7.0468717 12.432514
vt 7.0468755 12.432514
vt -7.046872 8.230968
vt 7.046875 8.2309675
vt -18.224998 0.8755589
vt -15.513004 -2.333504
vt 15.513004 -2.333504
vn 1 0 5.2327817E-08
vn 1 0 5.2327817E-08
vn 1 0 5.2327817E-08
vn 1 0 5.2327817E-08
vn -1.3533297E-07 0 1
vn -1.3533297E-07 0 1
vn -1.3533297E-07 0 1
vn -1.3533297E-07 0 1
vn -1 0 -5.2327817E-08
vn -1 0 -5.2327817E-08
vn -1 0 -5.2327817E-08
vn -1 0 -5.2327817E-08
vn 1.3533297E-07 0 -1
vn 1.3533297E-07 0 -1
vn 1.3533297E-07 0 -1
vn 1.3533297E-07 0 -1
vn -0 1 0
vn -0 1 0
vn -0 1 0
vn -0 1 0
vn -0 -1 0
vn -0 -1 0
vn -0 -1 0
vn -0 -1 0
vn -0.99999994 -4.422248E-08 -5.232781E-08
vn -1 -1.6800902E-14 -5.653413E-08
vn -1 5.1953453E-08 -6.1475795E-08
vn 1.0336481E-07 -0.6454749 -0.7637814
vn 5.1682402E-08 -0.64547503 -0.76378137
vn 5.1682402E-08 -0.64547503 -0.76378137
vn -0 -0.6454752 -0.7637813
vn -1.0336481E-07 -0.6454749 0.7637814
vn -5.1682402E-08 -0.64547503 0.76378137
vn -5.1682402E-08 -0.64547503 0.76378137
vn -0 -0.6454752 0.7637813
vn 0.99999994 -4.422248E-08 5.232781E-08
vn 1 -1.6800902E-14 5.653413E-08
vn 1 5.1953453E-08 6.1475795E-08
g pb_Mesh1056364_0
f 3/3/3 2/2/2 1/1/1
f 3/3/3 4/4/4 2/2/2
f 7/7/7 6/6/6 5/5/5
f 7/7/7 8/8/8 6/6/6
f 11/11/11 10/10/10 9/9/9
f 11/11/11 12/12/12 10/10/10
f 15/15/15 14/14/14 13/13/13
f 15/15/15 16/16/16 14/14/14
f 19/19/19 18/18/18 17/17/17
f 19/19/19 20/20/20 18/18/18
f 23/23/23 22/22/22 21/21/21
f 23/23/23 24/24/24 22/22/22
f 26/26/26 9/9/9 25/25/25
f 26/26/26 27/27/27 9/9/9
f 30/30/30 29/29/29 28/28/28
f 30/30/30 31/31/31 29/29/29
f 34/34/34 33/33/33 32/32/32
f 34/34/34 35/35/35 33/33/33
f 37/37/37 1/1/1 36/36/36
f 37/37/37 38/38/38 1/1/1
