g pb_Mesh153544
v 3 -0.50000006 7.306927
v -3.0000002 -0.49999774 6.824974
v 2.9999998 0.5000022 6.824974
v -3.0000002 0.5000022 6.824974
v -3.0000002 -0.49999774 6.824974
v -2.9999998 -0.4999965 -6.7009497
v -3.0000002 0.5000022 6.824974
v -2.9999998 0.5000032 -6.7009497
v -2.9999998 -0.4999965 -6.7009497
v 3.0000002 -0.4999965 -6.7009497
v -2.9999998 0.5000032 -6.7009497
v 3.0000002 0.5000032 -6.7009497
v 3.0000002 -0.4999965 -6.7009497
v 3 -0.50000006 7.306927
v 3.0000002 0.5000032 -6.7009497
v 2.9999998 0.5000022 6.824974
v 2.9999998 0.5000022 6.824974
v -3.0000002 0.5000022 6.824974
v 3.0000002 0.5000032 -6.7009497
v -2.9999998 0.5000032 -6.7009497
v 3.0000002 -0.4999965 -6.7009497
v -2.9999998 -0.4999965 -6.7009497
v 3 -0.50000006 7.306927
v -3.0000002 -0.49999774 6.824974
vt 0.58321303 -2.5011413
vt 0.5765801 -2.5011413
vt 0.58317053 -2.4999187
vt 0.5765801 -2.500148
vt 0.08331922 0.44482982
vt 0.06841445 0.44482985
vt 0.08331922 0.44593176
vt 0.06841445 0.4459318
vt 0.08444442 0.44483525
vt 0.07783277 0.44483525
vt 0.08444442 0.4459372
vt 0.07783277 0.4459372
vt 0.08336115 0.44483468
vt 0.0772109 0.44483465
vt 0.08336115 0.44593662
vt 0.07742253 0.44593662
vt 0.074314274 0.45023793
vt 0.08092592 0.45023793
vt 0.074314274 0.4353332
vt 0.08092592 0.4353332
vt 0.017449886 0.7406537
vt 0.01083824 0.7406537
vt 0.017449886 0.75608957
vt 0.01083824 0.7555585
vn -0.072171256 0.43302757 0.8984868
vn -0.03901532 0.23409192 0.9714313
vn -0.03901532 0.23409192 0.9714313
vn -0 0 1
vn -1 0 -3.5253574E-08
vn -0.99999994 0 -3.5253574E-08
vn -0.99999994 0 -3.5253574E-08
vn -1 0 -3.5253574E-08
vn -0 0 -0.99999994
vn -0 0 -0.99999994
vn -0 0 -0.99999994
vn -0 0 -0.99999994
vn 1 0 1.7020323E-08
vn 0.99999994 1.254691E-07 2.5977391E-08
vn 0.99999994 1.254691E-07 2.5977391E-08
vn 1 2.554086E-07 3.5253596E-08
vn -0 1 7.491385E-08
vn -0 1 7.491385E-08
vn -0 1 7.491385E-08
vn -0 1 7.491385E-08
vn -0 -0.99999994 -2.531773E-07
vn -1.8675959E-07 -1 -1.7318247E-07
vn -1.8675959E-07 -1 -1.7318247E-07
vn -3.8017376E-07 -0.99999994 -9.0337295E-08
g pb_Mesh153544_0
f 3/3/3 2/2/2 1/1/1
f 3/3/3 4/4/4 2/2/2
f 7/7/7 6/6/6 5/5/5
f 7/7/7 8/8/8 6/6/6
f 11/11/11 10/10/10 9/9/9
f 11/11/11 12/12/12 10/10/10
f 15/15/15 14/14/14 13/13/13
f 15/15/15 16/16/16 14/14/14
f 19/19/19 18/18/18 17/17/17
f 19/19/19 20/20/20 18/18/18
f 23/23/23 22/22/22 21/21/21
f 23/23/23 24/24/24 22/22/22
