g pb_Mesh669530
v 0.0038775618 -0.05782491 -0.49810818
v 0.0038775732 -0.05782491 0.0018919789
v 0.15838616 -0.05782491 -0.4736365
v -0.4006311 -0.05782491 -0.29200074
v -0.2900152 -0.05782491 -0.4026168
v -0.15063094 -0.05782491 0.47742045
v -0.2900151 -0.05782491 0.40640044
v -0.400631 -0.05782491 0.2957848
v 0.15838619 0.059237182 -0.4736364
v 0.003877605 0.059237182 0.0018921293
v 0.003877605 0.059237182 -0.49810812
v -0.47165078 0.059237182 -0.1526164
v -0.4961225 0.059237182 0.0018921293
v 0.47940618 -0.05782491 -0.15261665
v 0.47940618 0.059237182 -0.15261646
v 0.40838638 0.059237182 -0.29200068
v 0.40838635 -0.05782491 -0.29200086
v 0.2977704 0.059237182 -0.40261662
v 0.29777038 -0.05782491 -0.4026169
v 0.15838619 0.059237182 -0.4736364
v 0.15838616 -0.05782491 -0.4736365
v 0.003877605 0.059237182 -0.49810812
v 0.0038775618 -0.05782491 -0.49810818
v -0.15063097 0.059237182 -0.47363636
v -0.15063098 -0.05782491 -0.47363663
v -0.29001513 0.059237182 -0.40261653
v -0.2900152 -0.05782491 -0.4026168
v -0.400631 0.059237182 -0.2920006
v -0.4006311 -0.05782491 -0.29200074
v -0.47165078 0.059237182 -0.1526164
v -0.47165084 -0.05782491 -0.15261647
v -0.4961225 0.059237182 0.0018921293
v -0.49612257 -0.05782491 0.0018918258
v -0.49612257 -0.05782491 0.0018918258
v -0.4961225 0.059237182 0.0018921293
v -0.47165078 0.059237182 0.15640067
v -0.47165084 -0.05782491 0.15640062
v -0.40063098 0.059237182 0.2957848
v -0.400631 -0.05782491 0.2957848
v -0.29001507 0.059237182 0.40640068
v -0.2900151 -0.05782491 0.40640044
v -0.15063092 0.059237182 0.47742045
v -0.15063094 -0.05782491 0.47742045
v 0.0038775902 0.059237182 0.5018922
v 0.003877561 -0.05782491 0.50189215
v 0.1583861 0.059237182 0.47742042
v 0.15838607 -0.05782491 0.47742018
v 0.29777023 0.059237182 0.40640065
v 0.2977702 -0.05782491 0.40640035
v 0.4083861 0.059237182 0.29578477
v 0.40838608 -0.05782491 0.29578468
v 0.47940588 0.059237182 0.15640064
v 0.47940588 -0.05782491 0.15640043
v 0.5038776 0.059237182 0.0018921293
v 0.5038776 -0.05782491 0.001892132
v 0.5038776 -0.05782491 0.001892132
v 0.5038776 0.059237182 0.0018921293
v 0.40838635 -0.05782491 -0.29200086
v 0.47940618 -0.05782491 -0.15261665
v 0.5038776 -0.05782491 0.001892132
v 0.29777038 -0.05782491 -0.4026169
v 0.47940588 -0.05782491 0.15640043
v 0.40838608 -0.05782491 0.29578468
v -0.15063098 -0.05782491 -0.47363663
v 0.2977702 -0.05782491 0.40640035
v 0.15838607 -0.05782491 0.47742018
v 0.003877561 -0.05782491 0.50189215
v -0.47165084 -0.05782491 -0.15261647
v -0.49612257 -0.05782491 0.0018918258
v -0.47165084 -0.05782491 0.15640062
v 0.47940618 0.059237182 -0.15261646
v 0.40838638 0.059237182 -0.29200068
v 0.5038776 0.059237182 0.0018921293
v 0.2977704 0.059237182 -0.40261662
v 0.47940588 0.059237182 0.15640064
v 0.4083861 0.059237182 0.29578477
v 0.29777023 0.059237182 0.40640065
v 0.1583861 0.059237182 0.47742042
v -0.15063097 0.059237182 -0.47363636
v -0.29001513 0.059237182 -0.40261653
v 0.0038775902 0.059237182 0.5018922
v -0.15063092 0.059237182 0.47742045
v -0.400631 0.059237182 -0.2920006
v -0.29001507 0.059237182 0.40640068
v -0.40063098 0.059237182 0.2957848
v -0.47165078 0.059237182 0.15640067
vt 0.500224 0.99606085
vt 0.5002239 0.49994427
vt 0.34691536 0.97177905
vt 0.901591 0.79155356
vt 0.7918344 0.9013106
vt 0.65353197 0.028109442
vt 0.7918337 0.09857755
vt 0.9015904 0.20833413
vt 0.653533 0.97177905
vt 0.5002245 0.49994415
vt 0.5002243 0.99606085
vt 0.028389595 0.6532522
vt 0.0041080266 0.49994385
vt 0.100599855 0.00045373812
vt 0.100599565 0.9994308
vt 0.20050527 0.9994308
vt 0.20050539 0.00045373812
vt 0.300411 0.9994308
vt 0.300411 0.00045373812
vt 0.4003165 0.9994308
vt 0.4003165 0.00045373812
vt 0.50022197 0.9994308
vt 0.50022197 0.00045373812
vt 0.6001273 0.9994308
vt 0.6001273 0.00045373812
vt 0.7000328 0.9994308
vt 0.7000327 0.00045373812
vt 0.79993814 0.9994308
vt 0.79993796 0.00045373812
vt 0.89984345 0.9994308
vt 0.8998432 0.00045373812
vt 0.9997491 0.9994308
vt 0.999749 0.00045373812
vt 0.0006936856 0.00045373812
vt 0.00069404463 0.9994308
vt 0.10059965 0.9994308
vt 0.10059935 0.00045373812
vt 0.2005051 0.9994308
vt 0.20050502 0.00045373812
vt 0.30041057 0.9994308
vt 0.30041057 0.00045373812
vt 0.400316 0.9994308
vt 0.400316 0.00045373812
vt 0.5002215 0.9994308
vt 0.5002215 0.00045373812
vt 0.6001268 0.9994308
vt 0.6001268 0.00045373812
vt 0.7000321 0.9994308
vt 0.7000322 0.00045373812
vt 0.7999371 0.9994308
vt 0.7999375 0.00045373812
vt 0.89984244 0.9994308
vt 0.8998428 0.00045373812
vt 0.9997478 0.9994308
vt 0.99974805 0.00045373812
vt 0.00069427 0.00045373812
vt 0.0006939089 0.9994308
vt 0.0988569 0.7915539
vt 0.028388768 0.6532523
vt 0.004107505 0.49994415
vt 0.20861363 0.90131074
vt 0.028389134 0.34663606
vt 0.09885708 0.20833468
vt 0.6535327 0.97177905
vt 0.20861363 0.09857795
vt 0.346915 0.028109718
vt 0.5002234 0.0038278755
vt 0.97205883 0.65325207
vt 0.99634045 0.49994373
vt 0.9720586 0.3466355
vt 0.9720596 0.6532523
vt 0.9015915 0.7915539
vt 0.9963408 0.4999439
vt 0.79183465 0.90131074
vt 0.9720591 0.34663567
vt 0.901591 0.20833425
vt 0.7918344 0.09857755
vt 0.6535327 0.028109413
vt 0.34691566 0.97177905
vt 0.20861419 0.9013106
vt 0.5002242 0.0038277227
vt 0.34691587 0.028109383
vt 0.098857604 0.7915537
vt 0.20861442 0.09857755
vt 0.09885782 0.20833413
vt 0.028389715 0.34663555
vn -0 -1 0
vn -0 -1 0
vn -0 -1 0
vn -0 -1 0
vn -0 -1 0
vn -0 -1 0
vn -0 -1 0
vn -0 -1 0
vn -0 1 0
vn -0 1 0
vn -0 1 0
vn -0 1 0
vn -0 1 0
vn 0.95105684 4.3931757E-07 -0.30901584
vn 0.95105684 4.4493274E-07 -0.30901584
vn 0.80901694 7.6392973E-07 -0.58778536
vn 0.809017 8.285832E-07 -0.58778524
vn 0.5877852 1.5673378E-06 -0.80901706
vn 0.58778507 1.4169539E-06 -0.8090171
vn 0.3090166 1.1769114E-06 -0.95105666
vn 0.3090163 7.5749716E-07 -0.9510568
vn -2.0367321E-07 6.4055934E-07 -1
vn 2.2630358E-08 9.4414304E-07 -1
vn -0.30901685 1.7825469E-06 -0.95105654
vn -0.3090165 2.2623462E-06 -0.95105666
vn -0.5877854 2.109077E-06 -0.8090168
vn -0.5877855 2.0162622E-06 -0.8090168
vn -0.8090172 1.5027977E-06 -0.587785
vn -0.80901736 1.2355465E-06 -0.5877848
vn -0.95105654 8.114825E-07 -0.30901676
vn -0.9510566 7.615736E-07 -0.30901676
vn -1 4.349058E-07 -6.0347624E-08
vn -1 6.0308645E-07 -1.7349942E-07
vn -1 6.0308645E-07 -1.7349942E-07
vn -1 4.349058E-07 -6.0347624E-08
vn -0.9510565 2.7870792E-07 0.30901697
vn -0.9510565 3.527101E-07 0.30901694
vn -0.8090169 2.1949772E-07 0.5877854
vn -0.8090167 -1.5856278E-07 0.5877856
vn -0.58778495 -1.1335451E-06 0.8090172
vn -0.58778507 -1.0533694E-06 0.8090171
vn -0.30901736 -4.0536682E-07 0.95105636
vn -0.30901757 -8.291681E-08 0.9510563
vn 1.8858633E-07 -3.8644623E-07 1
vn 5.5821556E-07 -8.908134E-07 1
vn 0.30901742 -1.6335589E-06 0.9510564
vn 0.30901778 -2.130506E-06 0.95105624
vn 0.5877853 -2.0944499E-06 0.80901694
vn 0.5877852 -1.8903216E-06 0.80901706
vn 0.8090168 -9.738496E-07 0.5877854
vn 0.8090167 -7.144931E-07 0.58778566
vn 0.95105654 -4.9109474E-07 0.30901682
vn 0.95105654 -4.801345E-07 0.30901682
vn 1 -7.23754E-08 1.0334528E-06
vn 1 6.461721E-08 1.1239742E-06
vn 1 6.461721E-08 1.1239742E-06
vn 1 -7.23754E-08 1.0334528E-06
vn -0 -1 0
vn -0 -1 0
vn -0 -1 0
vn -0 -1 0
vn -0 -1 0
vn -0 -1 0
vn -0 -1 0
vn -0 -1 0
vn -0 -1 0
vn -0 -1 0
vn -0 -1 0
vn -0 -1 0
vn -0 -1 0
vn -0 1 0
vn -0 1 0
vn -0 1 0
vn -0 1 0
vn -0 1 0
vn -0 1 0
vn -0 1 0
vn -0 1 0
vn -0 1 0
vn -0 1 0
vn -0 1 0
vn -0 1 0
vn -0 1 0
vn -0 1 0
vn -0 1 0
vn -0 1 0
g pb_Mesh669530_0
f 3/3/3 2/2/2 1/1/1
f 5/5/5 2/2/2 4/4/4
f 7/7/7 2/2/2 6/6/6
f 8/8/8 2/2/2 7/7/7
f 11/11/11 10/10/10 9/9/9
f 13/13/13 10/10/10 12/12/12
f 16/16/16 15/15/15 14/14/14
f 17/17/17 16/16/16 14/14/14
f 18/18/18 16/16/16 17/17/17
f 19/19/19 18/18/18 17/17/17
f 20/20/20 18/18/18 19/19/19
f 21/21/21 20/20/20 19/19/19
f 22/22/22 20/20/20 21/21/21
f 23/23/23 22/22/22 21/21/21
f 24/24/24 22/22/22 23/23/23
f 25/25/25 24/24/24 23/23/23
f 26/26/26 24/24/24 25/25/25
f 27/27/27 26/26/26 25/25/25
f 28/28/28 26/26/26 27/27/27
f 29/29/29 28/28/28 27/27/27
f 30/30/30 28/28/28 29/29/29
f 31/31/31 30/30/30 29/29/29
f 32/32/32 30/30/30 31/31/31
f 33/33/33 32/32/32 31/31/31
f 36/36/36 35/35/35 34/34/34
f 37/37/37 36/36/36 34/34/34
f 38/38/38 36/36/36 37/37/37
f 39/39/39 38/38/38 37/37/37
f 40/40/40 38/38/38 39/39/39
f 41/41/41 40/40/40 39/39/39
f 42/42/42 40/40/40 41/41/41
f 43/43/43 42/42/42 41/41/41
f 44/44/44 42/42/42 43/43/43
f 45/45/45 44/44/44 43/43/43
f 46/46/46 44/44/44 45/45/45
f 47/47/47 46/46/46 45/45/45
f 48/48/48 46/46/46 47/47/47
f 49/49/49 48/48/48 47/47/47
f 50/50/50 48/48/48 49/49/49
f 51/51/51 50/50/50 49/49/49
f 52/52/52 50/50/50 51/51/51
f 53/53/53 52/52/52 51/51/51
f 54/54/54 52/52/52 53/53/53
f 55/55/55 54/54/54 53/53/53
f 15/15/15 57/57/57 56/56/56
f 14/14/14 15/15/15 56/56/56
f 59/59/59 2/2/2 58/58/58
f 60/60/60 2/2/2 59/59/59
f 58/58/58 2/2/2 61/61/61
f 61/61/61 2/2/2 3/3/3
f 62/62/62 2/2/2 60/60/60
f 63/63/63 2/2/2 62/62/62
f 1/1/1 2/2/2 64/64/64
f 64/64/64 2/2/2 5/5/5
f 65/65/65 2/2/2 63/63/63
f 66/66/66 2/2/2 65/65/65
f 67/67/67 2/2/2 66/66/66
f 6/6/6 2/2/2 67/67/67
f 4/4/4 2/2/2 68/68/68
f 68/68/68 2/2/2 69/69/69
f 69/69/69 2/2/2 70/70/70
f 70/70/70 2/2/2 8/8/8
f 72/72/72 10/10/10 71/71/71
f 71/71/71 10/10/10 73/73/73
f 74/74/74 10/10/10 72/72/72
f 9/9/9 10/10/10 74/74/74
f 73/73/73 10/10/10 75/75/75
f 75/75/75 10/10/10 76/76/76
f 76/76/76 10/10/10 77/77/77
f 77/77/77 10/10/10 78/78/78
f 79/79/79 10/10/10 11/11/11
f 80/80/80 10/10/10 79/79/79
f 78/78/78 10/10/10 81/81/81
f 81/81/81 10/10/10 82/82/82
f 83/83/83 10/10/10 80/80/80
f 12/12/12 10/10/10 83/83/83
f 82/82/82 10/10/10 84/84/84
f 84/84/84 10/10/10 85/85/85
f 86/86/86 10/10/10 13/13/13
f 85/85/85 10/10/10 86/86/86
