g pistol_shell
v -0.036143687 0.02625992 -0.09841636
v 9E-08 0 -0.09841636
v -0.013805669 0.04248945 -0.09841636
v -0.013805669 0.04248945 -0.09841636
v 9E-08 0 -0.09841636
v 0.01380584 0.04248945 -0.09841636
v 0.01380584 0.04248945 -0.09841636
v 9E-08 0 -0.09841636
v 0.03614386 0.026259929 -0.09841636
v 0.03614386 0.026259929 -0.09841636
v 9E-08 0 -0.09841636
v 0.04467614 0 -0.09841636
v 0.04467614 0 -0.09841636
v 9E-08 0 -0.09841636
v 0.03614386 -0.02625992 -0.09841636
v 0.03614386 -0.02625992 -0.09841636
v 9E-08 0 -0.09841636
v 0.01380584 -0.04248945 -0.09841636
v 0.01380584 -0.04248945 -0.09841636
v 9E-08 0 -0.09841636
v -0.013805669 -0.04248945 -0.09841636
v -0.013805669 -0.04248945 -0.09841636
v 9E-08 0 -0.09841636
v -0.036143687 -0.026259929 -0.09841636
v -0.036143687 -0.026259929 -0.09841636
v 9E-08 0 -0.09841636
v -0.04467597 0 -0.09841636
v -0.04467597 0 -0.09841636
v 9E-08 0 -0.09841636
v -0.036143687 0.02625992 -0.09841636
v -0.011856169 0.03648945 -0.08955697
v -0.01185608 0.03648945 -0.06463501
v -0.031039791 0.02255174 -0.06463501
v -0.031039791 0.02255166 -0.08955697
v 0.01185642 0.03648945 -0.08955697
v 0.01185642 0.03648945 -0.06463501
v -0.01185608 0.03648945 -0.06463501
v -0.011856169 0.03648945 -0.08955697
v 0.031040039 0.022551669 -0.08955697
v 0.031039959 0.02255176 -0.06463501
v 0.01185642 0.03648945 -0.06463501
v 0.01185642 0.03648945 -0.08955697
v 0.03836741 4.9999997E-08 -0.08955697
v 0.03836741 -4E-08 -0.06463501
v 0.031039959 0.02255176 -0.06463501
v 0.031040039 0.022551669 -0.08955697
v 0.031039959 -0.02255174 -0.08955697
v 0.031039959 -0.02255172 -0.06463501
v 0.03836741 -4E-08 -0.06463501
v 0.03836741 4.9999997E-08 -0.08955697
v 0.01185642 -0.03648945 -0.08955697
v 0.01185642 -0.03648945 -0.06463501
v 0.031039959 -0.02255172 -0.06463501
v 0.031039959 -0.02255174 -0.08955697
v -0.011856169 -0.03648945 -0.08955697
v -0.011856169 -0.03648945 -0.06463501
v 0.01185642 -0.03648945 -0.06463501
v 0.01185642 -0.03648945 -0.08955697
v -0.031039791 -0.02255176 -0.08955697
v -0.031039791 -0.02255177 -0.06463501
v -0.011856169 -0.03648945 -0.06463501
v -0.011856169 -0.03648945 -0.08955697
v -0.038367238 -4.9999997E-08 -0.08955697
v -0.038367238 4.9999997E-08 -0.06463501
v -0.031039791 -0.02255177 -0.06463501
v -0.031039791 -0.02255176 -0.08955697
v -0.031039791 0.02255166 -0.08955697
v -0.031039791 0.02255174 -0.06463501
v -0.038367238 4.9999997E-08 -0.06463501
v -0.038367238 -4.9999997E-08 -0.08955697
v -0.013805669 0.04248945 -0.09841636
v -0.013805669 0.04248945 -0.090416364
v -0.036143687 0.02625992 -0.090416364
v -0.036143687 0.02625992 -0.09841636
v -0.013805669 0.04248945 0.09841634
v -0.036143687 0.02625992 0.09841634
v -0.036143687 0.02625992 -0.06377563
v -0.013805669 0.04248945 -0.06377563
v 0.01380584 0.04248945 -0.09841636
v 0.01380584 0.04248945 -0.090416364
v -0.013805669 0.04248945 -0.090416364
v -0.013805669 0.04248945 -0.09841636
v 0.01380584 0.04248946 0.09841634
v -0.013805669 0.04248945 0.09841634
v -0.013805669 0.04248945 -0.06377563
v 0.01380584 0.04248945 -0.06377563
v 0.03614386 0.026259929 -0.09841636
v 0.03614386 0.026259929 -0.090416364
v 0.01380584 0.04248945 -0.090416364
v 0.01380584 0.04248945 -0.09841636
v 0.03614386 0.026259929 0.09841634
v 0.01380584 0.04248946 0.09841634
v 0.01380584 0.04248945 -0.06377563
v 0.03614386 0.026259929 -0.06377563
v 0.04467614 0 -0.09841636
v 0.04467614 0 -0.090416364
v 0.03614386 0.026259929 -0.090416364
v 0.03614386 0.026259929 -0.09841636
v 0.04467614 0 0.09841634
v 0.03614386 0.026259929 0.09841634
v 0.03614386 0.026259929 -0.06377563
v 0.04467614 0 -0.06377563
v 0.03614386 -0.02625992 -0.09841636
v 0.03614386 -0.02625992 -0.090416364
v 0.04467614 0 -0.090416364
v 0.04467614 0 -0.09841636
v 0.03614386 -0.02625992 0.09841634
v 0.04467614 0 0.09841634
v 0.04467614 0 -0.06377563
v 0.03614386 -0.02625992 -0.06377563
v 0.01380584 -0.04248945 -0.09841636
v 0.01380584 -0.04248945 -0.090416364
v 0.03614386 -0.02625992 -0.090416364
v 0.03614386 -0.02625992 -0.09841636
v 0.01380584 -0.04248945 0.09841634
v 0.03614386 -0.02625992 0.09841634
v 0.03614386 -0.02625992 -0.06377563
v 0.01380584 -0.04248945 -0.06377563
v -0.013805669 -0.04248945 -0.09841636
v -0.013805669 -0.04248945 -0.090416364
v 0.01380584 -0.04248945 -0.090416364
v 0.01380584 -0.04248945 -0.09841636
v -0.013805669 -0.04248945 0.09841634
v 0.01380584 -0.04248945 0.09841634
v 0.01380584 -0.04248945 -0.06377563
v -0.013805669 -0.04248945 -0.06377563
v -0.036143687 -0.026259929 -0.09841636
v -0.036143687 -0.026259929 -0.090416364
v -0.013805669 -0.04248945 -0.090416364
v -0.013805669 -0.04248945 -0.09841636
v -0.036143687 -0.026259929 0.09841634
v -0.013805669 -0.04248945 0.09841634
v -0.013805669 -0.04248945 -0.06377563
v -0.036143687 -0.026259929 -0.06377563
v -0.04467597 0 -0.09841636
v -0.04467597 0 -0.090416364
v -0.036143687 -0.026259929 -0.090416364
v -0.036143687 -0.026259929 -0.09841636
v -0.04467597 0 0.09841634
v -0.036143687 -0.026259929 0.09841634
v -0.036143687 -0.026259929 -0.06377563
v -0.04467597 0 -0.06377563
v -0.036143687 0.02625992 -0.09841636
v -0.036143687 0.02625992 -0.090416364
v -0.04467597 0 -0.090416364
v -0.04467597 0 -0.09841636
v -0.036143687 0.02625992 0.09841634
v -0.04467597 0 0.09841634
v -0.04467597 0 -0.06377563
v -0.036143687 0.02625992 -0.06377563
v 0.03614386 0.026259929 -0.090416364
v 0.031040039 0.022551669 -0.08955697
v 0.01185642 0.03648945 -0.08955697
v 0.01380584 0.04248945 -0.090416364
v -0.011856169 0.03648945 -0.08955697
v -0.013805669 0.04248945 -0.090416364
v -0.031039791 0.02255166 -0.08955697
v -0.036143687 0.02625992 -0.090416364
v -0.038367238 -4.9999997E-08 -0.08955697
v -0.04467597 0 -0.090416364
v -0.031039791 -0.02255176 -0.08955697
v -0.036143687 -0.026259929 -0.090416364
v -0.011856169 -0.03648945 -0.08955697
v -0.013805669 -0.04248945 -0.090416364
v 0.01185642 -0.03648945 -0.08955697
v 0.01380584 -0.04248945 -0.090416364
v 0.031039959 -0.02255174 -0.08955697
v 0.03614386 -0.02625992 -0.090416364
v 0.03836741 4.9999997E-08 -0.08955697
v 0.04467614 0 -0.090416364
v 0.031040039 0.022551669 -0.08955697
v 0.03614386 0.026259929 -0.090416364
v 0.01380584 0.04248945 -0.06377563
v 0.031039959 0.02255176 -0.06463501
v 0.03614386 0.026259929 -0.06377563
v 0.01185642 0.03648945 -0.06463501
v -0.013805669 0.04248945 -0.06377563
v -0.01185608 0.03648945 -0.06463501
v -0.036143687 0.02625992 -0.06377563
v -0.031039791 0.02255174 -0.06463501
v -0.04467597 0 -0.06377563
v -0.038367238 4.9999997E-08 -0.06463501
v -0.036143687 -0.026259929 -0.06377563
v -0.031039791 -0.02255177 -0.06463501
v -0.013805669 -0.04248945 -0.06377563
v -0.011856169 -0.03648945 -0.06463501
v 0.01380584 -0.04248945 -0.06377563
v 0.01185642 -0.03648945 -0.06463501
v 0.03614386 -0.02625992 -0.06377563
v 0.031039959 -0.02255172 -0.06463501
v 0.04467614 0 -0.06377563
v 0.03836741 -4E-08 -0.06463501
v 0.03614386 0.026259929 -0.06377563
v 0.031039959 0.02255176 -0.06463501
v 0.03614386 0.026259929 0.09841634
v -0 0 0.09841634
v 0.01380584 0.04248946 0.09841634
v 0.04467614 0 0.09841634
v -0.013805669 0.04248945 0.09841634
v 0.03614386 -0.02625992 0.09841634
v -0.036143687 0.02625992 0.09841634
v 0.01380584 -0.04248945 0.09841634
v -0.04467597 0 0.09841634
v -0.013805669 -0.04248945 0.09841634
v -0.036143687 -0.026259929 0.09841634
vt 0 0
vt 0.5 1
vt 1 0
vt 0 0
vt 0.5 1
vt 1 0
vt 0 0
vt 0.5 1
vt 1 0
vt 0 0
vt 0.5 1
vt 1 0
vt 0 0
vt 0.5 1
vt 1 0
vt 0 0
vt 0.5 1
vt 1 0
vt 0 0
vt 0.5 1
vt 1 0
vt 0 0
vt 0.5 1
vt 1 0
vt 0 0
vt 0.5 1
vt 1 0
vt 0 0
vt 0.5 1
vt 1 0
vt 0.425 0.369774
vt 0.425 0.411984
vt 0.45 0.411984
vt 0.45 0.369774
vt 0.4 0.369774
vt 0.4 0.411984
vt 0.425 0.411984
vt 0.425 0.369774
vt 0.375 0.369774
vt 0.375 0.411984
vt 0.4 0.411984
vt 0.4 0.369774
vt 0.6 0.369774
vt 0.6 0.411984
vt 0.625 0.411984
vt 0.625 0.369774
vt 0.575 0.369774
vt 0.575 0.411984
vt 0.6 0.411984
vt 0.6 0.369774
vt 0.55 0.369774
vt 0.55 0.411984
vt 0.575 0.411984
vt 0.575 0.369774
vt 0.525 0.369774
vt 0.525 0.411984
vt 0.55 0.411984
vt 0.55 0.369774
vt 0.5 0.369774
vt 0.5 0.411984
vt 0.525 0.411984
vt 0.525 0.369774
vt 0.475 0.369774
vt 0.475 0.411984
vt 0.5 0.411984
vt 0.5 0.369774
vt 0.45 0.369774
vt 0.45 0.411984
vt 0.475 0.411984
vt 0.475 0.369774
vt 0.425 0.369774
vt 0.425 0.369774
vt 0.45 0.369774
vt 0.45 0.369774
vt 0.425 0.68844
vt 0.45 0.68844
vt 0.45 0.411984
vt 0.425 0.411984
vt 0.4 0.369774
vt 0.4 0.369774
vt 0.425 0.369774
vt 0.425 0.369774
vt 0.4 0.68844
vt 0.425 0.68844
vt 0.425 0.411984
vt 0.4 0.411984
vt 0.375 0.369774
vt 0.375 0.369774
vt 0.4 0.369774
vt 0.4 0.369774
vt 0.375 0.68844
vt 0.4 0.68844
vt 0.4 0.411984
vt 0.375 0.411984
vt 0.6 0.369774
vt 0.6 0.369774
vt 0.625 0.369774
vt 0.625 0.369774
vt 0.6 0.68844
vt 0.625 0.68844
vt 0.625 0.411984
vt 0.6 0.411984
vt 0.575 0.369774
vt 0.575 0.369774
vt 0.6 0.369774
vt 0.6 0.369774
vt 0.575 0.68844
vt 0.6 0.68844
vt 0.6 0.411984
vt 0.575 0.411984
vt 0.55 0.369774
vt 0.55 0.369774
vt 0.575 0.369774
vt 0.575 0.369774
vt 0.55 0.68844
vt 0.575 0.68844
vt 0.575 0.411984
vt 0.55 0.411984
vt 0.525 0.369774
vt 0.525 0.369774
vt 0.55 0.369774
vt 0.55 0.369774
vt 0.525 0.68844
vt 0.55 0.68844
vt 0.55 0.411984
vt 0.525 0.411984
vt 0.5 0.369774
vt 0.5 0.369774
vt 0.525 0.369774
vt 0.525 0.369774
vt 0.5 0.68844
vt 0.525 0.68844
vt 0.525 0.411984
vt 0.5 0.411984
vt 0.475 0.369774
vt 0.475 0.369774
vt 0.5 0.369774
vt 0.5 0.369774
vt 0.475 0.68844
vt 0.5 0.68844
vt 0.5 0.411984
vt 0.475 0.411984
vt 0.45 0.369774
vt 0.45 0.369774
vt 0.475 0.369774
vt 0.475 0.369774
vt 0.45 0.68844
vt 0.475 0.68844
vt 0.475 0.411984
vt 0.45 0.411984
vt 0.375 0.369774
vt 0.375 0.369774
vt 0.4 0.369774
vt 0.4 0.369774
vt 0.425 0.369774
vt 0.425 0.369774
vt 0.45 0.369774
vt 0.45 0.369774
vt 0.475 0.369774
vt 0.475 0.369774
vt 0.5 0.369774
vt 0.5 0.369774
vt 0.525 0.369774
vt 0.525 0.369774
vt 0.55 0.369774
vt 0.55 0.369774
vt 0.575 0.369774
vt 0.575 0.369774
vt 0.6 0.369774
vt 0.6 0.369774
vt 0.625 0.369774
vt 0.625 0.369774
vt 0.4 0.411984
vt 0.375 0.411984
vt 0.375 0.411984
vt 0.4 0.411984
vt 0.425 0.411984
vt 0.425 0.411984
vt 0.45 0.411984
vt 0.45 0.411984
vt 0.475 0.411984
vt 0.475 0.411984
vt 0.5 0.411984
vt 0.5 0.411984
vt 0.525 0.411984
vt 0.525 0.411984
vt 0.55 0.411984
vt 0.55 0.411984
vt 0.575 0.411984
vt 0.575 0.411984
vt 0.6 0.411984
vt 0.6 0.411984
vt 0.625 0.411984
vt 0.625 0.411984
vt 0.626409 0.935591
vt 0.5 0.8375
vt 0.548284 0.992353
vt 0.65625 0.84375
vt 0.451716 0.992353
vt 0.626409 0.751909
vt 0.373591 0.935591
vt 0.548284 0.695147
vt 0.34375 0.84375
vt 0.451716 0.695147
vt 0.373591 0.751909
vn -0 0 -1
vn -0 0 -1
vn -0 0 -1
vn -0 0 -1
vn -0 0 -1
vn -0 0 -1
vn -0 0 -1
vn -0 0 -1
vn -0 0 -1
vn -0 0 -1
vn -0 0 -1
vn -0 0 -1
vn -0 0 -1
vn -0 0 -1
vn -0 0 -1
vn -0 0 -1
vn -0 0 -1
vn -0 0 -1
vn -0 0 -1
vn -0 0 -1
vn -0 0 -1
vn -0 0 -1
vn -0 0 -1
vn -0 0 -1
vn -0 0 -1
vn -0 0 -1
vn -0 0 -1
vn -0 0 -1
vn -0 0 -1
vn -0 0 -1
vn -0.5877857 0.80901664 0
vn -0.5877857 0.80901664 0
vn -0.5877857 0.80901664 0
vn -0.5877857 0.80901664 0
vn -0 1 0
vn -0 1 0
vn -0 1 0
vn -0 1 0
vn 0.58778685 0.8090158 0
vn 0.58778685 0.8090158 0
vn 0.58778685 0.8090158 0
vn 0.58778685 0.8090158 0
vn 0.95105755 0.30901384 1.999999E-06
vn 0.95105755 0.30901384 1.999999E-06
vn 0.95105755 0.30901384 1.999999E-06
vn 0.95105755 0.30901384 1.999999E-06
vn 0.9510571 -0.30901504 0
vn 0.9510571 -0.30901504 0
vn 0.9510571 -0.30901504 0
vn 0.9510571 -0.30901504 0
vn 0.58778685 -0.8090158 0
vn 0.58778685 -0.8090158 0
vn 0.58778685 -0.8090158 0
vn 0.58778685 -0.8090158 0
vn -0 -1 0
vn -0 -1 0
vn -0 -1 0
vn -0 -1 0
vn -0.58778507 -0.8090171 0
vn -0.58778507 -0.8090171 0
vn -0.58778507 -0.8090171 0
vn -0.58778507 -0.8090171 0
vn -0.9510571 -0.30901504 1E-06
vn -0.9510571 -0.30901504 1E-06
vn -0.9510571 -0.30901504 1E-06
vn -0.9510571 -0.30901504 1E-06
vn -0.9510569 0.30901596 -9.999998E-07
vn -0.9510571 0.30901504 -1E-06
vn -0.9510571 0.30901504 -1E-06
vn -0.9510569 0.30901596 -9.999998E-07
vn -0.58778507 0.8090171 0
vn -0.58778507 0.8090171 0
vn -0.58778507 0.8090171 0
vn -0.58778507 0.8090171 0
vn -0.58778507 0.8090171 0
vn -0.58778507 0.8090171 0
vn -0.58778507 0.8090171 0
vn -0.58778507 0.8090171 0
vn -0 1 0
vn -0 1 0
vn -0 1 0
vn -0 1 0
vn -0 1 0
vn -0 1 0
vn -0 1 0
vn -0 1 0
vn 0.58778507 0.8090171 0
vn 0.58778507 0.8090171 0
vn 0.58778507 0.8090171 0
vn 0.58778507 0.8090171 0
vn 0.58778507 0.8090171 0
vn 0.58778507 0.8090171 0
vn 0.58778507 0.8090171 0
vn 0.58778507 0.8090171 0
vn 0.95105755 0.30901384 0
vn 0.95105755 0.30901384 0
vn 0.95105755 0.30901384 0
vn 0.95105755 0.30901384 0
vn 0.95105755 0.30901384 0
vn 0.95105755 0.30901384 0
vn 0.95105755 0.30901384 0
vn 0.95105755 0.30901384 0
vn 0.95105755 -0.30901384 0
vn 0.95105755 -0.30901384 0
vn 0.95105755 -0.30901384 0
vn 0.95105755 -0.30901384 0
vn 0.95105755 -0.30901384 0
vn 0.95105755 -0.30901384 0
vn 0.95105755 -0.30901384 0
vn 0.95105755 -0.30901384 0
vn 0.58778507 -0.8090171 0
vn 0.58778507 -0.8090171 0
vn 0.58778507 -0.8090171 0
vn 0.58778507 -0.8090171 0
vn 0.58778507 -0.8090171 0
vn 0.58778507 -0.8090171 0
vn 0.58778507 -0.8090171 0
vn 0.58778507 -0.8090171 0
vn -0 -1 0
vn -0 -1 0
vn -0 -1 0
vn -0 -1 0
vn -0 -1 0
vn -0 -1 0
vn -0 -1 0
vn -0 -1 0
vn -0.58778507 -0.8090171 0
vn -0.58778507 -0.8090171 0
vn -0.58778507 -0.8090171 0
vn -0.58778507 -0.8090171 0
vn -0.58778507 -0.8090171 0
vn -0.58778507 -0.8090171 0
vn -0.58778507 -0.8090171 0
vn -0.58778507 -0.8090171 0
vn -0.95105755 -0.30901384 0
vn -0.95105755 -0.30901384 0
vn -0.95105755 -0.30901384 0
vn -0.95105755 -0.30901384 0
vn -0.95105755 -0.30901384 0
vn -0.95105755 -0.30901384 0
vn -0.95105755 -0.30901384 0
vn -0.95105755 -0.30901384 0
vn -0.95105755 0.30901384 0
vn -0.95105755 0.30901384 0
vn -0.95105755 0.30901384 0
vn -0.95105755 0.30901384 0
vn -0.95105743 0.3090141 0
vn -0.95105743 0.3090141 0
vn -0.95105743 0.3090141 0
vn -0.95105743 0.3090141 0
vn 0.10919799 0.07933699 0.9908489
vn 0.10919799 0.07933699 0.9908489
vn 0.041709997 0.12836999 0.9908489
vn 0.041708995 0.12836999 0.9908489
vn -0.04171 0.128369 0.990849
vn -0.041709002 0.128369 0.990849
vn -0.10919799 0.079335995 0.9908489
vn -0.109197 0.079337 0.990849
vn -0.13497598 0 0.9908489
vn -0.13497598 0 0.9908489
vn -0.10919799 -0.07933699 0.9908489
vn -0.10919799 -0.07933699 0.9908489
vn -0.041708995 -0.12836999 0.9908489
vn -0.041708995 -0.12836999 0.9908489
vn 0.041709997 -0.12836999 0.9908489
vn 0.041709997 -0.12836999 0.9908489
vn 0.10919897 -0.079336986 0.9908488
vn 0.10919897 -0.079336986 0.9908488
vn 0.13497697 0 0.9908488
vn 0.13497697 0 0.9908488
vn 0.10919799 0.07933699 0.9908489
vn 0.10919799 0.07933699 0.9908489
vn 0.041709002 0.128369 -0.990849
vn 0.109197 0.07933601 -0.990849
vn 0.109197 0.07933601 -0.990849
vn 0.041709006 0.12836803 -0.99084914
vn -0.041709006 0.12836803 -0.99084914
vn -0.041709006 0.12836803 -0.99084914
vn -0.10919601 0.07933602 -0.99084914
vn -0.10919601 0.07933602 -0.99084914
vn -0.13497502 0 -0.990849
vn -0.13497502 0 -0.990849
vn -0.109197 -0.07933601 -0.990849
vn -0.109197 -0.07933601 -0.990849
vn -0.041709006 -0.12836803 -0.99084914
vn -0.041709006 -0.12836803 -0.99084914
vn 0.041709006 -0.12836803 -0.99084914
vn 0.041710008 -0.12836803 -0.99084914
vn 0.109197 -0.07933601 -0.990849
vn 0.109197 -0.07933601 -0.990849
vn 0.13497502 0 -0.990849
vn 0.13497502 0 -0.990849
vn 0.109197 0.07933601 -0.990849
vn 0.109197 0.07933601 -0.990849
vn -0 0 1
vn -0 0 1
vn -0 0 1
vn -0 0 1
vn -0 0 1
vn -0 0 1
vn -0 0 1
vn -0 0 1
vn -0 0 1
vn -0 0 1
vn -0 0 1
g pistol_shell_0
f 3/3/3 2/2/2 1/1/1
f 6/6/6 5/5/5 4/4/4
f 9/9/9 8/8/8 7/7/7
f 12/12/12 11/11/11 10/10/10
f 15/15/15 14/14/14 13/13/13
f 18/18/18 17/17/17 16/16/16
f 21/21/21 20/20/20 19/19/19
f 24/24/24 23/23/23 22/22/22
f 27/27/27 26/26/26 25/25/25
f 30/30/30 29/29/29 28/28/28
f 33/33/33 32/32/32 31/31/31
f 34/34/34 33/33/33 31/31/31
f 37/37/37 36/36/36 35/35/35
f 38/38/38 37/37/37 35/35/35
f 41/41/41 40/40/40 39/39/39
f 42/42/42 41/41/41 39/39/39
f 45/45/45 44/44/44 43/43/43
f 46/46/46 45/45/45 43/43/43
f 49/49/49 48/48/48 47/47/47
f 50/50/50 49/49/49 47/47/47
f 53/53/53 52/52/52 51/51/51
f 54/54/54 53/53/53 51/51/51
f 57/57/57 56/56/56 55/55/55
f 58/58/58 57/57/57 55/55/55
f 61/61/61 60/60/60 59/59/59
f 62/62/62 61/61/61 59/59/59
f 65/65/65 64/64/64 63/63/63
f 66/66/66 65/65/65 63/63/63
f 69/69/69 68/68/68 67/67/67
f 70/70/70 69/69/69 67/67/67
f 73/73/73 72/72/72 71/71/71
f 74/74/74 73/73/73 71/71/71
f 77/77/77 76/76/76 75/75/75
f 78/78/78 77/77/77 75/75/75
f 81/81/81 80/80/80 79/79/79
f 82/82/82 81/81/81 79/79/79
f 85/85/85 84/84/84 83/83/83
f 86/86/86 85/85/85 83/83/83
f 89/89/89 88/88/88 87/87/87
f 90/90/90 89/89/89 87/87/87
f 93/93/93 92/92/92 91/91/91
f 94/94/94 93/93/93 91/91/91
f 97/97/97 96/96/96 95/95/95
f 98/98/98 97/97/97 95/95/95
f 101/101/101 100/100/100 99/99/99
f 102/102/102 101/101/101 99/99/99
f 105/105/105 104/104/104 103/103/103
f 106/106/106 105/105/105 103/103/103
f 109/109/109 108/108/108 107/107/107
f 110/110/110 109/109/109 107/107/107
f 113/113/113 112/112/112 111/111/111
f 114/114/114 113/113/113 111/111/111
f 117/117/117 116/116/116 115/115/115
f 118/118/118 117/117/117 115/115/115
f 121/121/121 120/120/120 119/119/119
f 122/122/122 121/121/121 119/119/119
f 125/125/125 124/124/124 123/123/123
f 126/126/126 125/125/125 123/123/123
f 129/129/129 128/128/128 127/127/127
f 130/130/130 129/129/129 127/127/127
f 133/133/133 132/132/132 131/131/131
f 134/134/134 133/133/133 131/131/131
f 137/137/137 136/136/136 135/135/135
f 138/138/138 137/137/137 135/135/135
f 141/141/141 140/140/140 139/139/139
f 142/142/142 141/141/141 139/139/139
f 145/145/145 144/144/144 143/143/143
f 146/146/146 145/145/145 143/143/143
f 149/149/149 148/148/148 147/147/147
f 150/150/150 149/149/149 147/147/147
f 153/153/153 152/152/152 151/151/151
f 154/154/154 153/153/153 151/151/151
f 155/155/155 153/153/153 154/154/154
f 156/156/156 155/155/155 154/154/154
f 157/157/157 155/155/155 156/156/156
f 158/158/158 157/157/157 156/156/156
f 159/159/159 157/157/157 158/158/158
f 160/160/160 159/159/159 158/158/158
f 161/161/161 159/159/159 160/160/160
f 162/162/162 161/161/161 160/160/160
f 163/163/163 161/161/161 162/162/162
f 164/164/164 163/163/163 162/162/162
f 165/165/165 163/163/163 164/164/164
f 166/166/166 165/165/165 164/164/164
f 167/167/167 165/165/165 166/166/166
f 168/168/168 167/167/167 166/166/166
f 169/169/169 167/167/167 168/168/168
f 170/170/170 169/169/169 168/168/168
f 171/171/171 169/169/169 170/170/170
f 172/172/172 171/171/171 170/170/170
f 175/175/175 174/174/174 173/173/173
f 174/174/174 176/176/176 173/173/173
f 173/173/173 176/176/176 177/177/177
f 176/176/176 178/178/178 177/177/177
f 177/177/177 178/178/178 179/179/179
f 178/178/178 180/180/180 179/179/179
f 179/179/179 180/180/180 181/181/181
f 180/180/180 182/182/182 181/181/181
f 181/181/181 182/182/182 183/183/183
f 182/182/182 184/184/184 183/183/183
f 183/183/183 184/184/184 185/185/185
f 184/184/184 186/186/186 185/185/185
f 185/185/185 186/186/186 187/187/187
f 186/186/186 188/188/188 187/187/187
f 187/187/187 188/188/188 189/189/189
f 188/188/188 190/190/190 189/189/189
f 189/189/189 190/190/190 191/191/191
f 190/190/190 192/192/192 191/191/191
f 191/191/191 192/192/192 193/193/193
f 192/192/192 194/194/194 193/193/193
f 197/197/197 196/196/196 195/195/195
f 195/195/195 196/196/196 198/198/198
f 199/199/199 196/196/196 197/197/197
f 198/198/198 196/196/196 200/200/200
f 201/201/201 196/196/196 199/199/199
f 200/200/200 196/196/196 202/202/202
f 203/203/203 196/196/196 201/201/201
f 202/202/202 196/196/196 204/204/204
f 205/205/205 196/196/196 203/203/203
f 204/204/204 196/196/196 205/205/205
