g Plank2
v 1.5468271 -0.125 0.2104218
v 1.4351951 -0.125 0.09878993
v -1.4531729 -0.125 0.09878993
v -1.4531729 -0.125 0.09878993
v -1.4531729 -0.125 1.5677702
v 1.5468271 -0.125 0.2104218
v -1.4531729 -0.125 1.5677702
v 1.5468271 -0.125 1.4943287
v 1.5468271 -0.125 0.2104218
v -1.4531729 -0.125 1.5677702
v 1.4733853 -0.125 1.5677702
v 1.5468271 -0.125 1.4943287
v 1.4532709 0.10000253 0.05319667
v 1.4530123 0.125 0.028200388
v 1.4532219 0.125 -1.5338056
v 1.4532219 0.091035366 -1.5677702
v 1.4532709 -0.125 0.05319667
v 1.4532219 -0.125 -1.5677702
v -1.546778 0.125 -1.4828503
v -1.5468271 0.125 0.05924058
v -1.5465684 0.10000253 0.08423686
v -1.546778 0.07557428 -1.4828503
v -1.546778 -0.125 -1.4828503
v -1.5465684 -0.125 0.08423686
v 1.4532709 0.10000253 0.05319667
v 1.4532709 -0.125 0.05319667
v -1.5465684 -0.125 0.08423686
v -1.5465684 0.10000253 0.08423686
v -1.461858 -0.125 -1.5677702
v 1.4532219 -0.125 -1.5677702
v 1.4532219 0.091035366 -1.5677702
v -1.461858 0.091035366 -1.5677702
v 1.4532219 0.125 -1.5338056
v 1.4530123 0.125 0.028200388
v -1.5468271 0.125 0.05924058
v -1.4958227 0.125 -1.5338056
v -1.546778 0.125 -1.4828503
v -1.546778 -0.125 -1.4828503
v -1.5465684 -0.125 0.08423686
v 1.4532709 -0.125 0.05319667
v 1.4532219 -0.125 -1.5677702
v -1.461858 -0.125 -1.5677702
v -1.546778 0.125 -1.4828503
v -1.461858 0.091035366 -1.5677702
v -1.4958227 0.125 -1.5338056
v -1.546778 0.07557428 -1.4828503
v -1.461858 -0.125 -1.5677702
v -1.546778 -0.125 -1.4828503
v -1.5468271 0.125 0.05924058
v 1.4530123 0.125 0.028200388
v 1.4532709 0.10000253 0.05319667
v -1.5465684 0.10000253 0.08423686
v 1.4532219 0.125 -1.5338056
v -1.4958227 0.125 -1.5338056
v -1.461858 0.091035366 -1.5677702
v 1.4532219 0.091035366 -1.5677702
v -1.4531729 0.125 1.5383966
v -1.4531729 0.125 0.15460038
v 1.4910055 0.125 0.15460038
v 1.5027591 0.125 1.5383966
v 1.5468271 0.125 1.4943287
v 1.5468271 0.125 0.2104218
v 1.5468271 0.125 1.4943287
v 1.5468271 0.125 0.2104218
v 1.5468271 0.07379353 0.2104218
v 1.5468271 0.08586502 1.4943287
v 1.5468271 -0.125 1.4943287
v 1.5468271 -0.125 0.2104218
v -1.4531729 0.06918967 0.09878993
v -1.4531729 0.125 0.15460038
v -1.4531729 0.125 1.5383966
v -1.4531729 0.095626354 1.5677702
v -1.4531729 -0.125 0.09878993
v -1.4531729 -0.125 1.5677702
v 1.4733853 -0.125 1.5677702
v -1.4531729 -0.125 1.5677702
v -1.4531729 0.095626354 1.5677702
v 1.4733853 0.095626354 1.5677702
v 1.5468271 0.125 1.4943287
v 1.4733853 0.095626354 1.5677702
v 1.5027591 0.125 1.5383966
v 1.5468271 0.08586502 1.4943287
v 1.4733853 -0.125 1.5677702
v 1.5468271 -0.125 1.4943287
v -1.4531729 0.06918967 0.09878993
v -1.4531729 -0.125 0.09878993
v 1.4351951 -0.125 0.09878993
v 1.4351951 0.06918967 0.09878993
v -1.4531729 0.125 1.5383966
v 1.5027591 0.125 1.5383966
v 1.4733853 0.095626354 1.5677702
v -1.4531729 0.095626354 1.5677702
v 1.4351951 0.06918967 0.09878993
v 1.5468271 0.125 0.2104218
v 1.4910055 0.125 0.15460038
v 1.5468271 0.07379353 0.2104218
v 1.5468271 -0.125 0.2104218
v 1.4351951 -0.125 0.09878993
v -1.4531729 0.06918967 0.09878993
v 1.4351951 0.06918967 0.09878993
v 1.4910055 0.125 0.15460038
v -1.4531729 0.125 0.15460038
vt 0.24325182 0.6508526
vt 0.23814394 0.651107
vt 0.1054345 0.6511065
vt 0.1054345 0.6511065
vt 0.1054345 0.6511067
vt 0.24325182 0.6508526
vt 0.1054345 0.6511067
vt 0.24300823 0.64792645
vt 0.24325182 0.6508526
vt 0.1054345 0.6511067
vt 0.23989889 0.651107
vt 0.24300823 0.64792645
vt 0.20451693 0.5798519
vt 0.20346773 0.5808867
vt 0.20302169 0.6459975
vt 0.20442776 0.647423
vt 0.21389598 0.5799162
vt 0.21343304 0.6474847
vt 0.039762866 0.61857533
vt 0.039650843 0.58350754
vt 0.039080583 0.58294094
vt 0.038638894 0.618579
vt 0.034077726 0.6185936
vt 0.033963915 0.58295727
vt 0.18751904 0.5739634
vt 0.19229001 0.57531977
vt 0.054451503 0.57531977
vt 0.059222903 0.5739634
vt 0.05835325 0.64298093
vt 0.19229001 0.64298093
vt 0.18770869 0.65103495
vt 0.0626751 0.6510349
vt 0.18698843 0.6497144
vt 0.18698898 0.5765259
vt 0.059753 0.5765259
vt 0.06191411 0.64971423
vt 0.059753 0.64743954
vt 0.054451503 0.67236394
vt 0.054451503 0.6723645
vt 0.19229001 0.6723645
vt 0.19229001 0.6723639
vt 0.05835325 0.6723639
vt 0.039762866 0.61857533
vt 0.038999226 0.62130886
vt 0.0397681 0.6202141
vt 0.038638894 0.618579
vt 0.03408648 0.62132454
vt 0.034077726 0.6185936
vt 0.059753 0.57282907
vt 0.18698898 0.57282907
vt 0.18751904 0.5747916
vt 0.059222903 0.5747916
vt 0.18698843 0.65070707
vt 0.06191411 0.6507069
vt 0.0626751 0.6510349
vt 0.18770869 0.65103495
vt 0.110736 0.6536684
vt 0.11073599 0.712358
vt 0.2356045 0.712357
vt 0.23610313 0.653668
vt 0.237972 0.65553683
vt 0.237972 0.7099895
vt 0.007912859 0.59189695
vt 0.0074148923 0.63681704
vt 0.009206429 0.63683695
vt 0.009282067 0.5919121
vt 0.016659558 0.59199387
vt 0.016161636 0.636914
vt 0.03289371 0.7173335
vt 0.035198487 0.71508825
vt 0.035936497 0.6586802
vt 0.03475479 0.6574672
vt 0.024977915 0.71722996
vt 0.025761351 0.6573495
vt 0.23989889 0.651107
vt 0.1054345 0.6511067
vt 0.1101131 0.652268
vt 0.23554802 0.65224195
vt 0.007912859 0.59189695
vt 0.008980855 0.58827454
vt 0.007937044 0.5897165
vt 0.009282067 0.5919121
vt 0.016699865 0.58836013
vt 0.016659558 0.59199387
vt 0.10955249 0.7005227
vt 0.1054345 0.6511065
vt 0.23814394 0.651107
vt 0.23433279 0.7005221
vt 0.110736 0.6536684
vt 0.23610313 0.653668
vt 0.23554802 0.65224195
vt 0.1101131 0.652268
vt 0.009306341 0.64236206
vt 0.0074148923 0.63681704
vt 0.0073842406 0.639579
vt 0.009206429 0.63683695
vt 0.016161636 0.636914
vt 0.016100392 0.6424375
vt 0.10955249 0.7005227
vt 0.23433279 0.7005221
vt 0.2356045 0.712357
vt 0.11073599 0.712358
vn -0 -1 0
vn -0 -1 0
vn -0 -1 0
vn -0 -1 0
vn -0 -1 0
vn -0 -1 0
vn -0 -1 0
vn -0 -1 0
vn -0 -1 0
vn -0 -1 0
vn -0 -1 0
vn -0 -1 0
vn 1 0.00027239433 -2.599845E-05
vn 0.99999046 0.0043808264 3.8108174E-05
vn 0.99999046 0.0043808264 3.8108177E-05
vn 1 0.00026703015 -2.6082145E-05
vn 1 0 -3.0248779E-05
vn 1 0 -3.0248779E-05
vn -0.99999404 -0.0034528559 7.870811E-05
vn -0.99999404 -0.0034528559 7.870811E-05
vn -1 -0.00028390775 0.00012920795
vn -0.9999999 -0.0005030136 0.00012571635
vn -1 0 0.00013373217
vn -1 0 0.00013373217
vn 0.010346719 0 0.9999465
vn 0.010346719 0 0.9999465
vn 0.010346719 0 0.9999465
vn 0.010346719 0 0.9999465
vn -0 0 -1
vn -0 0 -1
vn -0 0 -1
vn -0 0 -1
vn -0 1 0
vn -0 1 0
vn -0 1 0
vn -0 1 0
vn -0 1 0
vn -0 -1 0
vn -0 -1 0
vn -0 -1 0
vn -0 -1 0
vn -0 -1 0
vn -0.7071076 0 -0.70710593
vn -0.70710677 0 -0.7071067
vn -0.70710754 0 -0.70710593
vn -0.70710677 0 -0.7071067
vn -0.7071067 0 -0.7071068
vn -0.7071067 0 -0.7071068
vn 0.0073161465 0.7071088 0.70706683
vn 0.0073161465 0.7071088 0.70706683
vn 0.0073161465 0.70710886 0.70706683
vn 0.0073161465 0.7071088 0.70706683
vn -0 0.70710677 -0.70710677
vn -0 0.70710677 -0.70710677
vn -0 0.70710677 -0.70710677
vn -0 0.70710677 -0.70710677
vn -0 1 0
vn -0 1 0
vn -0 1 0
vn -0 1 0
vn -0 1 0
vn -0 1 0
vn 1 0 0
vn 1 0 0
vn 1 0 0
vn 1 0 0
vn 1 0 0
vn 1 0 0
vn -1 0 0
vn -1 0 0
vn -1 0 0
vn -1 0 0
vn -1 0 0
vn -1 0 0
vn -0 0 1
vn -0 0 1
vn -0 0 1
vn -0 0 1
vn 0.7071064 0 0.7071071
vn 0.7071063 0 0.70710725
vn 0.70710635 0 0.7071071
vn 0.70710623 0 0.70710725
vn 0.7071063 0 0.7071072
vn 0.7071063 0 0.7071072
vn -0 0 -1
vn -0 0 -1
vn -0 0 -1
vn -0 0 -1
vn -0 0.70710677 0.70710677
vn -0 0.70710677 0.70710677
vn -0 0.70710677 0.70710677
vn -0 0.70710677 0.70710677
vn 0.707107 0 -0.70710653
vn 0.70710886 0 -0.7071046
vn 0.70710886 0 -0.7071047
vn 0.70710725 0 -0.70710623
vn 0.7071069 0 -0.70710665
vn 0.7071069 0 -0.70710665
vn -0 0.7071075 -0.707106
vn -0 0.7071075 -0.707106
vn -0 0.7071075 -0.707106
vn -0 0.7071075 -0.707106
g Plank2_0
f 3/3/3 2/2/2 1/1/1
f 6/6/6 5/5/5 4/4/4
f 9/9/9 8/8/8 7/7/7
f 12/12/12 11/11/11 10/10/10
f 15/15/15 14/14/14 13/13/13
f 16/16/16 15/15/15 13/13/13
f 16/16/16 13/13/13 17/17/17
f 18/18/18 16/16/16 17/17/17
f 21/21/21 20/20/20 19/19/19
f 22/22/22 21/21/21 19/19/19
f 22/22/22 23/23/23 21/21/21
f 23/23/23 24/24/24 21/21/21
f 27/27/27 26/26/26 25/25/25
f 28/28/28 27/27/27 25/25/25
f 31/31/31 30/30/30 29/29/29
f 32/32/32 31/31/31 29/29/29
f 35/35/35 34/34/34 33/33/33
f 36/36/36 35/35/35 33/33/33
f 36/36/36 37/37/37 35/35/35
f 40/40/40 39/39/39 38/38/38
f 41/41/41 40/40/40 38/38/38
f 42/42/42 41/41/41 38/38/38
f 45/45/45 44/44/44 43/43/43
f 44/44/44 46/46/46 43/43/43
f 44/44/44 47/47/47 46/46/46
f 47/47/47 48/48/48 46/46/46
f 51/51/51 50/50/50 49/49/49
f 52/52/52 51/51/51 49/49/49
f 55/55/55 54/54/54 53/53/53
f 56/56/56 55/55/55 53/53/53
f 59/59/59 58/58/58 57/57/57
f 60/60/60 59/59/59 57/57/57
f 60/60/60 61/61/61 59/59/59
f 61/61/61 62/62/62 59/59/59
f 65/65/65 64/64/64 63/63/63
f 66/66/66 65/65/65 63/63/63
f 66/66/66 67/67/67 65/65/65
f 67/67/67 68/68/68 65/65/65
f 71/71/71 70/70/70 69/69/69
f 72/72/72 71/71/71 69/69/69
f 72/72/72 69/69/69 73/73/73
f 74/74/74 72/72/72 73/73/73
f 77/77/77 76/76/76 75/75/75
f 78/78/78 77/77/77 75/75/75
f 81/81/81 80/80/80 79/79/79
f 80/80/80 82/82/82 79/79/79
f 80/80/80 83/83/83 82/82/82
f 83/83/83 84/84/84 82/82/82
f 87/87/87 86/86/86 85/85/85
f 88/88/88 87/87/87 85/85/85
f 91/91/91 90/90/90 89/89/89
f 92/92/92 91/91/91 89/89/89
f 95/95/95 94/94/94 93/93/93
f 94/94/94 96/96/96 93/93/93
f 96/96/96 97/97/97 93/93/93
f 97/97/97 98/98/98 93/93/93
f 101/101/101 100/100/100 99/99/99
f 102/102/102 101/101/101 99/99/99
