g Plank4
v -3.0510404 3.75 0.025401115
v -3.0510404 3.9750025 0.025401115
v -0.051040467 3.9750025 0.025401115
v -0.051040467 3.75 0.025401115
v -3.0510404 4 -1.2879848
v -0.051040467 4 -1.2879848
v -0.051040467 4 0.0004043579
v -3.0510404 4 0.0004043579
v -0.051040467 3.9750025 0.025401115
v -0.051040467 4 0.0004043579
v -0.051040467 4 -1.2879848
v -0.051040467 3.75 0.025401115
v -0.051040467 3.75 -1.2879848
v -3.0510404 3.75 -1.2879848
v -3.0510404 3.75 0.025401115
v -0.051040467 3.75 0.025401115
v -0.051040467 3.75 -1.2879848
v -3.0510404 4 -1.2879848
v -3.0510404 4 0.0004043579
v -3.0510404 3.9750025 0.025401115
v -3.0510404 3.75 0.025401115
v -3.0510404 3.75 -1.2879848
v -0.051040467 3.9750025 0.025401115
v -3.0510404 3.9750025 0.025401115
v -3.0510404 4 0.0004043579
v -0.051040467 4 0.0004043579
v -3.0510404 4 -1.2879848
v -3.0510404 3.75 -1.2879848
v -0.051040467 3.75 -1.2879848
v -0.051040467 4 -1.2879848
vt 0.05869281 0.504983
vt 0.05869281 0.5099548
vt 0.1880491 0.5099548
vt 0.1880491 0.504983
vt 0.05869281 0.57337105
vt 0.1880491 0.57337105
vt 0.1880491 0.5122018
vt 0.05869281 0.5122018
vt 0.1880491 0.5122018
vt 0.1880491 0.5122018
vt 0.1880491 0.57337105
vt 0.19296128 0.5122018
vt 0.19296128 0.57337105
vt 0.05869281 0.58223075
vt 0.05869281 0.653447
vt 0.1880491 0.653447
vt 0.1880491 0.58223075
vt 0.052440356 0.5679001
vt 0.052440356 0.50673085
vt 0.052440356 0.50673085
vt 0.047527287 0.50673085
vt 0.047527287 0.5679001
vt 0.1880491 0.5099548
vt 0.05869281 0.5099548
vt 0.05869281 0.5122018
vt 0.1880491 0.5122018
vt 0.0586928 0.5732081
vt 0.0586928 0.5737965
vt 0.1880491 0.5737965
vt 0.1880491 0.5732081
vn -0 0 1
vn -0 0 1
vn -0 0 1
vn -0 0 1
vn -0 1 0
vn -0 1 0
vn -0 1 0
vn -0 1 0
vn 1 0 0
vn 1 0 0
vn 1 0 0
vn 1 0 0
vn 1 0 0
vn -0 -1 0
vn -0 -1 0
vn -0 -1 0
vn -0 -1 0
vn -1 0 0
vn -1 0 0
vn -1 0 0
vn -1 0 0
vn -1 0 0
vn -0 0.7070977 0.7071158
vn -0 0.7070977 0.7071158
vn -0 0.7070977 0.7071158
vn -0 0.7070977 0.7071158
vn -0 0 -1
vn -0 0 -1
vn -0 0 -1
vn -0 0 -1
g Plank4_0
f 3/3/3 2/2/2 1/1/1
f 4/4/4 3/3/3 1/1/1
f 7/7/7 6/6/6 5/5/5
f 8/8/8 7/7/7 5/5/5
f 11/11/11 10/10/10 9/9/9
f 11/11/11 9/9/9 12/12/12
f 13/13/13 11/11/11 12/12/12
f 16/16/16 15/15/15 14/14/14
f 17/17/17 16/16/16 14/14/14
f 20/20/20 19/19/19 18/18/18
f 21/21/21 20/20/20 18/18/18
f 22/22/22 21/21/21 18/18/18
f 25/25/25 24/24/24 23/23/23
f 26/26/26 25/25/25 23/23/23
f 29/29/29 28/28/28 27/27/27
f 30/30/30 29/29/29 27/27/27
