g Plank1
v 0.053068154 -0.038378596 -1.8275406
v 0.05993014 -0.038378596 -1.8275406
v 0.05993014 -0.035690665 -1.9021577
v 0.053068154 -0.035690665 -1.9021577
v 0.05993014 0.0461843 -1.8370576
v 0.053068154 0.0461843 -1.8370576
v 0.053068154 0.036666393 -1.9216206
v 0.05993014 0.036666393 -1.9216206
v 0.053068154 -0.035690665 -1.9021577
v 0.05993014 -0.035690665 -1.9021577
v 0.05993014 0.036666393 -1.9216206
v 0.053068154 0.036666393 -1.9216206
v 0.053068154 0.0461843 -1.8370576
v 0.05993014 0.0461843 -1.8370576
v 0.05993014 -0.038378596 -1.8275406
v 0.053068154 -0.038378596 -1.8275406
v 0.053068154 0.097524405 2.1369052
v 0.05993014 0.097524405 2.1369052
v 0.05993014 0.022408366 2.1876254
v 0.053068154 0.022408366 2.1876254
v 0.05993014 0.057536364 2.0617895
v 0.053068154 0.057536364 2.0617895
v 0.053068154 -0.0015646219 2.1017776
v 0.05993014 -0.0015646219 2.1017776
v 0.053068154 0.022408366 2.1876254
v 0.05993014 0.022408366 2.1876254
v 0.05993014 -0.0015646219 2.1017776
v 0.053068154 -0.0015646219 2.1017776
v 0.053068154 0.057536364 2.0617895
v 0.05993014 0.057536364 2.0617895
v 0.05993014 0.097524405 2.1369052
v 0.053068154 0.097524405 2.1369052
v 0.05993014 0.0461843 -1.8370576
v 0.05993014 0.036666393 -1.9216206
v 0.07848515 -0.00085663795 -1.8745806
v 0.05993014 -0.038378596 -1.8275406
v 0.05993014 -0.035690665 -1.9021577
v 0.05993014 0.057536364 2.0617895
v 0.05993014 -0.0015646219 2.1017776
v 0.07848515 0.039972425 2.1193414
v 0.05993014 0.097524405 2.1369052
v 0.05993014 0.022408366 2.1876254
v -0.06536699 -0.2910707 2.8382983
v 0.039594017 -0.2910707 2.803852
v 0.039594017 -0.26370454 1.6167283
v -0.065366365 -0.2910707 1.6167283
v -0.06536668 -0.2910707 -1.4241725
v 0.039594017 -0.2910707 -1.4241725
v -0.07848453 0.2866807 2.87892
v -0.058806963 0.31667757 2.8084908
v 0.03303524 0.31667757 2.8140097
v 0.05271279 0.2866807 2.8444734
v 0.05271279 -0.27107263 2.8444734
v 0.05271279 -0.22408319 1.6167283
v 0.039594017 -0.26370454 1.6167283
v 0.039594017 -0.2910707 2.803852
v -0.06536699 -0.2910707 2.8382983
v -0.07848515 -0.27107263 1.6167283
v -0.07848453 -0.27107263 2.87892
v -0.065366365 -0.2910707 1.6167283
v -0.07848484 -0.27107263 -1.4241725
v -0.06536668 -0.2910707 -1.4241725
v -0.07848484 -0.27107263 -2.87892
v -0.06536668 -0.31667757 -2.8283653
v 0.039594017 -0.2910707 -1.4241725
v 0.039594017 -0.31667757 -2.8283653
v -0.06536668 -0.31667757 -2.8283653
v -0.06536668 -0.2910707 -1.4241725
v 0.052712493 -0.24181294 -1.4241725
v 0.052712493 -0.27107263 -2.8626676
v 0.039594017 -0.31667757 -2.8283653
v 0.039594017 -0.2910707 -1.4241725
v 0.05271279 -0.22408319 1.6167283
v 0.052712493 -0.24181294 -1.4241725
v 0.039594017 -0.2910707 -1.4241725
v 0.039594017 -0.26370454 1.6167283
v 0.052712493 0.2866807 -2.8500247
v 0.03303493 0.31667757 -1.4241725
v 0.03303493 0.31667757 -2.8184848
v 0.052712493 0.2866807 -1.4241725
v 0.03303524 0.31667757 1.6167283
v 0.05271279 0.2866807 1.6167283
v 0.03303524 0.31667757 2.8140097
v 0.05271279 0.2866807 2.8444734
v -0.07848453 0.2866807 2.87892
v -0.05880759 0.31667757 1.6167283
v -0.058806963 0.31667757 2.8084908
v -0.07848515 0.2866807 1.6167283
v -0.058807276 0.31667757 -1.4241725
v -0.07848484 0.2866807 -1.4241725
v -0.058807276 0.31667757 -2.8184848
v -0.07848484 0.2866807 -2.87892
v 0.05271279 -0.27107263 2.8444734
v 0.05271279 0.2866807 2.8444734
v 0.05271279 0.2866807 1.6167283
v 0.05271279 -0.22408319 1.6167283
v 0.052712493 -0.24181294 -1.4241725
v 0.052712493 0.2866807 -1.4241725
v 0.052712493 -0.27107263 -2.8626676
v 0.052712493 0.2866807 -2.8500247
v -0.07848453 0.2866807 2.87892
v -0.07848453 -0.27107263 2.87892
v -0.07848515 -0.27107263 1.6167283
v -0.07848515 0.2866807 1.6167283
v -0.07848484 -0.27107263 -1.4241725
v -0.07848484 0.2866807 -1.4241725
v -0.07848484 -0.27107263 -2.87892
v -0.07848484 0.2866807 -2.87892
v 0.03303493 0.31667757 -1.4241725
v -0.058807276 0.31667757 -2.8184848
v 0.03303493 0.31667757 -2.8184848
v -0.058807276 0.31667757 -1.4241725
v 0.03303524 0.31667757 1.6167283
v -0.05880759 0.31667757 1.6167283
v 0.03303524 0.31667757 2.8140097
v -0.058806963 0.31667757 2.8084908
v -0.07848453 -0.27107263 2.87892
v -0.07848453 0.2866807 2.87892
v 0.05271279 0.2866807 2.8444734
v 0.05271279 -0.27107263 2.8444734
v -0.07848453 -0.27107263 2.87892
v 0.05271279 -0.27107263 2.8444734
v 0.039594017 -0.2910707 2.803852
v -0.06536699 -0.2910707 2.8382983
v 0.052712493 0.2866807 -2.8500247
v -0.07848484 0.2866807 -2.87892
v -0.07848484 -0.27107263 -2.87892
v 0.052712493 -0.27107263 -2.8626676
v -0.058807276 0.31667757 -2.8184848
v -0.07848484 0.2866807 -2.87892
v 0.052712493 0.2866807 -2.8500247
v 0.03303493 0.31667757 -2.8184848
v 0.039594017 -0.31667757 -2.8283653
v 0.052712493 -0.27107263 -2.8626676
v -0.07848484 -0.27107263 -2.87892
v -0.06536668 -0.31667757 -2.8283653
vt 0.260125 0.469661
vt 0.260125 0.475325
vt 0.265789 0.475325
vt 0.265789 0.469661
vt 0.260125 0.48099
vt 0.260125 0.486654
vt 0.265789 0.486654
vt 0.265789 0.48099
vt 0.265789 0.469661
vt 0.265789 0.475325
vt 0.271454 0.475325
vt 0.271454 0.469661
vt 0.25446 0.469661
vt 0.25446 0.475325
vt 0.260125 0.475325
vt 0.260125 0.469661
vt 0.260125 0.469661
vt 0.260125 0.475325
vt 0.265789 0.475325
vt 0.265789 0.469661
vt 0.260125 0.48099
vt 0.260125 0.486654
vt 0.265789 0.486654
vt 0.265789 0.48099
vt 0.265789 0.469661
vt 0.265789 0.475325
vt 0.271454 0.475325
vt 0.271454 0.469661
vt 0.25446 0.469661
vt 0.25446 0.475325
vt 0.260125 0.475325
vt 0.260125 0.469661
vt 0.260125 0.48099
vt 0.265789 0.48099
vt 0.262957 0.478158
vt 0.260125 0.475325
vt 0.265789 0.475325
vt 0.260125 0.48099
vt 0.265789 0.48099
vt 0.262957 0.478158
vt 0.260125 0.475325
vt 0.265789 0.475325
vt 0.431384 0.24148871
vt 0.431384 0.24031028
vt 0.4259873 0.24031028
vt 0.42598733 0.2414887
vt 0.42059067 0.2414887
vt 0.42059064 0.24031028
vt 0.415646 0.23582022
vt 0.41536292 0.23542
vt 0.41326007 0.23542
vt 0.412977 0.23582022
vt 0.431384 0.24001577
vt 0.42598733 0.24001577
vt 0.4259873 0.24031028
vt 0.431384 0.24031028
vt 0.431384 0.24148871
vt 0.42598733 0.2417832
vt 0.431384 0.24178322
vt 0.42598733 0.2414887
vt 0.42059067 0.2417832
vt 0.42059067 0.2414887
vt 0.415194 0.24178322
vt 0.415194 0.24148871
vt 0.42059064 0.24031028
vt 0.41519397 0.24031028
vt 0.415194 0.24148871
vt 0.42059067 0.2414887
vt 0.42059067 0.24001577
vt 0.415194 0.24001577
vt 0.41519397 0.24031028
vt 0.42059064 0.24031028
vt 0.42598733 0.24001577
vt 0.42059067 0.24001577
vt 0.42059064 0.24031028
vt 0.4259873 0.24031028
vt 0.415194 0.23670283
vt 0.42059067 0.23780711
vt 0.415194 0.23780711
vt 0.42059067 0.23671716
vt 0.42598733 0.23780711
vt 0.42598733 0.23672679
vt 0.43138403 0.23714456
vt 0.431384 0.23670283
vt 0.431384 0.24509616
vt 0.42598733 0.24399187
vt 0.431384 0.24465445
vt 0.42598733 0.24509616
vt 0.42059067 0.24399187
vt 0.42059067 0.24509616
vt 0.41519397 0.24399187
vt 0.415194 0.24509616
vt 0.431384 0.24001577
vt 0.431384 0.23670283
vt 0.42598733 0.23672679
vt 0.42598733 0.24001577
vt 0.42059067 0.24001577
vt 0.42059067 0.23671716
vt 0.415194 0.24001577
vt 0.415194 0.23670283
vt 0.431384 0.24509616
vt 0.431384 0.24178322
vt 0.42598733 0.2417832
vt 0.42598733 0.24509616
vt 0.42059067 0.2417832
vt 0.42059067 0.24509616
vt 0.415194 0.24178322
vt 0.415194 0.24509616
vt 0.42059067 0.23780711
vt 0.41519397 0.24399187
vt 0.415194 0.23780711
vt 0.42059067 0.24399187
vt 0.42598733 0.23780711
vt 0.42598733 0.24399187
vt 0.43138403 0.23714456
vt 0.431384 0.24465445
vt 0.415646 0.24182418
vt 0.415646 0.23582022
vt 0.412977 0.23582022
vt 0.412977 0.2418242
vt 0.415646 0.24182418
vt 0.412977 0.2418242
vt 0.4132439 0.242091
vt 0.4153791 0.242091
vt 0.415194 0.23670283
vt 0.415194 0.24509616
vt 0.415194 0.24178322
vt 0.415194 0.24001577
vt 0.41519397 0.24399187
vt 0.415194 0.24509616
vt 0.415194 0.23670283
vt 0.415194 0.23780711
vt 0.41519397 0.24031028
vt 0.415194 0.24001577
vt 0.415194 0.24178322
vt 0.415194 0.24148871
vn -0 -0.99935156 -0.036005985
vn -0 -0.99935156 -0.036005985
vn -0 -0.99935156 -0.036005985
vn -0 -0.99935156 -0.036005985
vn -0 0.99372596 -0.11184299
vn -0 0.99372596 -0.11184299
vn -0 0.99372596 -0.11184299
vn -0 0.99372596 -0.11184299
vn -0 -0.25975302 -0.9656751
vn -0 -0.25975302 -0.9656751
vn -0 -0.25975302 -0.9656751
vn -0 -0.25975302 -0.9656751
vn -0 0.111844964 0.9937257
vn -0 0.111844964 0.9937257
vn -0 0.111844964 0.9937257
vn -0 0.111844964 0.9937257
vn -0 0.5595958 0.8287657
vn -0 0.5595958 0.8287657
vn -0 0.5595958 0.8287657
vn -0 0.5595958 0.8287657
vn -0 -0.5603839 -0.828233
vn -0 -0.5603839 -0.828233
vn -0 -0.5603839 -0.828233
vn -0 -0.5603839 -0.828233
vn -0 -0.9631502 0.26896402
vn -0 -0.9631502 0.26896402
vn -0 -0.9631502 0.26896402
vn -0 -0.9631502 0.26896402
vn -0 0.88271385 -0.46991095
vn -0 0.88271385 -0.46991095
vn -0 0.88271385 -0.46991095
vn -0 0.88271385 -0.46991095
vn 0.95560014 0.23035704 0.18375
vn 0.95518506 0.20672801 -0.21186101
vn 0.99999475 0.0027099994 0.0017909996
vn 0.9551765 -0.16038589 0.24882588
vn 0.9227634 -0.3016418 -0.23983283
vn 0.9550886 0.11727396 -0.27212587
vn 0.9241525 -0.3646388 -0.11393294
vn 0.99995303 -0.0066410005 0.0070570004
vn 0.9555738 0.27964294 0.093157984
vn 0.96677274 -0.039232988 0.25260895
vn 0.12926571 -0.9915759 -0.008220392
vn 0.12926571 -0.9915759 -0.008220391
vn 0.12926573 -0.9915759 -0.008220392
vn 0.12926573 -0.9915759 -0.008220392
vn 0.12926888 -0.99159956 0.0044618747
vn 0.12926888 -0.99159956 0.0044618743
vn -0 0 1
vn -0 0 1
vn -0 0 1
vn -0 0 1
vn 0.91524875 -0.4027871 -0.009072837
vn 0.91524875 -0.40278712 -0.0090728365
vn 0.91524875 -0.40278712 -0.009072838
vn 0.91524875 -0.40278706 -0.009072836
vn -0.83615476 -0.5484936 0
vn -0.83615476 -0.5484936 0
vn -0.83615476 -0.5484936 0
vn -0.83615476 -0.5484936 0
vn -0.83615476 -0.5484937 0
vn -0.83615476 -0.5484937 0
vn -0.83615476 -0.5484937 0
vn -0.83615476 -0.5484937 0
vn -0 -1 0
vn -0 -1 0
vn -0 -1 0
vn -0 -1 0
vn 0.9351389 -0.35426924 0.0029258684
vn 0.9351389 -0.35426924 0.0029258684
vn 0.9351389 -0.35426924 0.002925868
vn 0.9351389 -0.35426924 0.002925868
vn 0.9590815 -0.28312257 0.002099273
vn 0.9590815 -0.2831225 0.0020992728
vn 0.9590815 -0.28312254 0.0020992728
vn 0.9590815 -0.28312254 0.002099273
vn 0.8361487 0.5485029 0
vn 0.8361487 0.5485029 0
vn 0.8361487 0.5485029 0
vn 0.8361487 0.5485029 0
vn 0.8361487 0.54850286 0
vn 0.8361487 0.5485029 0
vn 0.8361487 0.548503 0
vn 0.8361487 0.548503 0
vn -0.83614874 0.54850274 0
vn -0.83614874 0.54850274 0
vn -0.83614874 0.5485028 0
vn -0.83614874 0.5485028 0
vn -0.8361487 0.5485029 0
vn -0.8361487 0.54850286 0
vn -0.8361487 0.5485029 0
vn -0.8361487 0.5485029 0
vn 1 0 0
vn 1 0 0
vn 1 0 0
vn 1 0 0
vn 1 0 0
vn 1 0 0
vn 1 0 0
vn 1 0 0
vn -1 0 0
vn -1 0 0
vn -1 0 0
vn -1 0 0
vn -1 0 0
vn -1 0 0
vn -1 0 0
vn -1 0 0
vn -0 1 0
vn -0 1 0
vn -0 1 0
vn -0 1 0
vn -0 1 0
vn -0 1 0
vn -0 1 0
vn -0 1 0
vn -0 0 1
vn -0 0 1
vn -0 0 1
vn -0 0 1
vn -0 1.6558237E-05 1
vn -0 1.6558237E-05 1
vn -0 1.6558237E-05 1
vn -0 1.6558237E-05 1
vn -0 0 -1
vn -0 0 -1
vn -0 0 -1
vn -0 0 -1
vn -0 0 -1
vn -0 0 -1
vn -0 0 -1
vn -0 0 -1
vn -0 -1.4488477E-05 -1
vn -0 -1.4488478E-05 -1
vn -0 -1.4488477E-05 -1
vn -0 -1.4488477E-05 -1
g Plank1_0
f 3/3/3 2/2/2 1/1/1
f 4/4/4 3/3/3 1/1/1
f 7/7/7 6/6/6 5/5/5
f 8/8/8 7/7/7 5/5/5
f 11/11/11 10/10/10 9/9/9
f 12/12/12 11/11/11 9/9/9
f 15/15/15 14/14/14 13/13/13
f 16/16/16 15/15/15 13/13/13
f 19/19/19 18/18/18 17/17/17
f 20/20/20 19/19/19 17/17/17
f 23/23/23 22/22/22 21/21/21
f 24/24/24 23/23/23 21/21/21
f 27/27/27 26/26/26 25/25/25
f 28/28/28 27/27/27 25/25/25
f 31/31/31 30/30/30 29/29/29
f 32/32/32 31/31/31 29/29/29
f 35/35/35 34/34/34 33/33/33
f 35/35/35 33/33/33 36/36/36
f 37/37/37 34/34/34 35/35/35
f 37/37/37 35/35/35 36/36/36
f 40/40/40 39/39/39 38/38/38
f 40/40/40 38/38/38 41/41/41
f 42/42/42 39/39/39 40/40/40
f 42/42/42 40/40/40 41/41/41
g Plank1_1
f 45/45/45 44/44/44 43/43/43
f 46/46/46 45/45/45 43/43/43
f 46/46/46 47/47/47 45/45/45
f 47/47/47 48/48/48 45/45/45
f 51/51/51 50/50/50 49/49/49
f 52/52/52 51/51/51 49/49/49
f 55/55/55 54/54/54 53/53/53
f 56/56/56 55/55/55 53/53/53
f 59/59/59 58/58/58 57/57/57
f 58/58/58 60/60/60 57/57/57
f 58/58/58 61/61/61 60/60/60
f 61/61/61 62/62/62 60/60/60
f 61/61/61 63/63/63 62/62/62
f 63/63/63 64/64/64 62/62/62
f 67/67/67 66/66/66 65/65/65
f 68/68/68 67/67/67 65/65/65
f 71/71/71 70/70/70 69/69/69
f 72/72/72 71/71/71 69/69/69
f 75/75/75 74/74/74 73/73/73
f 76/76/76 75/75/75 73/73/73
f 79/79/79 78/78/78 77/77/77
f 78/78/78 80/80/80 77/77/77
f 78/78/78 81/81/81 80/80/80
f 81/81/81 82/82/82 80/80/80
f 81/81/81 83/83/83 82/82/82
f 83/83/83 84/84/84 82/82/82
f 87/87/87 86/86/86 85/85/85
f 86/86/86 88/88/88 85/85/85
f 86/86/86 89/89/89 88/88/88
f 89/89/89 90/90/90 88/88/88
f 90/90/90 89/89/89 91/91/91
f 92/92/92 90/90/90 91/91/91
f 95/95/95 94/94/94 93/93/93
f 96/96/96 95/95/95 93/93/93
f 96/96/96 97/97/97 95/95/95
f 97/97/97 98/98/98 95/95/95
f 97/97/97 99/99/99 98/98/98
f 99/99/99 100/100/100 98/98/98
f 103/103/103 102/102/102 101/101/101
f 104/104/104 103/103/103 101/101/101
f 105/105/105 103/103/103 104/104/104
f 106/106/106 105/105/105 104/104/104
f 107/107/107 105/105/105 106/106/106
f 108/108/108 107/107/107 106/106/106
f 111/111/111 110/110/110 109/109/109
f 110/110/110 112/112/112 109/109/109
f 109/109/109 112/112/112 113/113/113
f 112/112/112 114/114/114 113/113/113
f 115/115/115 113/113/113 114/114/114
f 116/116/116 115/115/115 114/114/114
f 119/119/119 118/118/118 117/117/117
f 120/120/120 119/119/119 117/117/117
f 123/123/123 122/122/122 121/121/121
f 124/124/124 123/123/123 121/121/121
f 127/127/127 126/126/126 125/125/125
f 128/128/128 127/127/127 125/125/125
f 131/131/131 130/130/130 129/129/129
f 132/132/132 131/131/131 129/129/129
f 135/135/135 134/134/134 133/133/133
f 136/136/136 135/135/135 133/133/133
