g Plank2
v -0.07070917 -0.23627234 -1.521862
v -0.07070929 -0.23627234 1.521862
v 0.07070929 -0.23627234 -1.521862
v 0.07070917 -0.23627234 1.521862
v -0.07070929 -0.23627234 1.521862
v -0.07070929 0.23627234 1.521862
v 0.07070917 -0.23627234 1.521862
v 0.07070917 0.23627234 1.521862
v -0.07070929 0.23627234 1.521862
v -0.07070917 0.23627234 -1.521862
v 0.07070917 0.23627234 1.521862
v 0.07070929 0.23627234 -1.521862
v -0.07070917 0.23627234 -1.521862
v -0.07070917 -0.23627234 -1.521862
v 0.07070929 0.23627234 -1.521862
v 0.07070929 -0.23627234 -1.521862
v 0.07070929 -0.23627234 -1.521862
v 0.07070917 -0.23627234 1.521862
v 0.07070929 0.23627234 -1.521862
v 0.07070917 0.23627234 1.521862
v -0.07070917 0.23627234 -1.521862
v -0.07070929 0.23627234 1.521862
v -0.07070917 -0.23627234 -1.521862
v -0.07070929 -0.23627234 1.521862
vt 0.33142012 0.24388468
vt 0.33142012 0.24432221
vt 0.33144045 0.24388468
vt 0.33144045 0.24432221
vt 0.33122152 0.2455714
vt 0.33122152 0.24563935
vt 0.33124185 0.2455714
vt 0.33124185 0.24563935
vt 0.3278107 0.23662926
vt 0.3278107 0.23619175
vt 0.32779038 0.23662926
vt 0.32779038 0.23619175
vt 0.3312024 0.24563935
vt 0.3312024 0.2455714
vt 0.33118206 0.24563935
vt 0.33118206 0.2455714
vt 0.33127952 0.24567012
vt 0.33127952 0.24610764
vt 0.33134747 0.24567012
vt 0.33134747 0.24610764
vt 0.33137065 0.24567012
vt 0.33137065 0.24610764
vt 0.3314386 0.24567012
vt 0.3314386 0.24610764
vn -0 -1 0
vn -0 -1 0
vn -0 -1 0
vn -0 -1 0
vn -0 0 1
vn -0 0 1
vn -0 0 1
vn -0 0 1
vn -0 1 0
vn -0 1 0
vn -0 1 0
vn -0 1 0
vn -0 0 -1
vn -0 0 -1
vn -0 0 -1
vn -0 0 -1
vn 1 0 0
vn 1 0 0
vn 1 0 0
vn 1 0 0
vn -1 0 0
vn -1 0 0
vn -1 0 0
vn -1 0 0
g Plank2_0
f 3/3/3 2/2/2 1/1/1
f 3/3/3 4/4/4 2/2/2
f 7/7/7 6/6/6 5/5/5
f 7/7/7 8/8/8 6/6/6
f 11/11/11 10/10/10 9/9/9
f 11/11/11 12/12/12 10/10/10
f 15/15/15 14/14/14 13/13/13
f 15/15/15 16/16/16 14/14/14
f 19/19/19 18/18/18 17/17/17
f 19/19/19 20/20/20 18/18/18
f 23/23/23 22/22/22 21/21/21
f 23/23/23 24/24/24 22/22/22
