g Plank5
v -0.06112952 4 -9.117096
v -0.07189079 4 -7.733342
v -3.0159802 4 -7.756238
v -3.0169723 4 -9.140083
v -3.0613816 4 -9.096359
v -3.071366 4 -7.8124914
v -0.060901117 3.75 -9.146469
v -2.987371 3.75 -9.169228
v -2.9606056 3.75 -7.699995
v -0.07232495 3.75 -7.677533
v -3.0613816 4 -9.096359
v -3.071366 4 -7.8124914
v -3.071366 3.9487934 -7.8124914
v -3.0613816 3.960865 -9.096359
v -3.0613816 3.75 -9.096359
v -3.071366 3.75 -7.8124914
v -0.07232495 3.9441895 -7.677533
v -0.07189079 4 -7.733342
v -0.06112952 4 -9.117096
v -0.060901117 3.9706264 -9.146469
v -0.07232495 3.75 -7.677533
v -0.060901117 3.9706264 -9.146469
v -0.060901117 3.75 -9.146469
v -2.987371 3.75 -9.169228
v -0.060901117 3.75 -9.146469
v -0.060901117 3.9706264 -9.146469
v -2.987371 3.9706264 -9.169228
v -3.0613816 4 -9.096359
v -2.987371 3.9706264 -9.169228
v -3.0169723 4 -9.140083
v -3.0613816 3.960865 -9.096359
v -2.987371 3.75 -9.169228
v -3.0613816 3.75 -9.096359
v -0.07232495 3.9441895 -7.677533
v -0.07232495 3.75 -7.677533
v -2.9606056 3.75 -7.699995
v -2.9606056 3.9441895 -7.699995
v -0.06112952 4 -9.117096
v -3.0169723 4 -9.140083
v -2.987371 3.9706264 -9.169228
v -0.060901117 3.9706264 -9.146469
v -2.9606056 3.9441895 -7.699995
v -3.071366 4 -7.8124914
v -3.0159802 4 -7.756238
v -3.071366 3.9487934 -7.8124914
v -3.071366 3.75 -7.8124914
v -2.9606056 3.75 -7.699995
v -0.07232495 3.9441895 -7.677533
v -2.9606056 3.9441895 -7.699995
v -3.0159802 4 -7.756238
v -0.07189079 4 -7.733342
v -2.987371 3.75 -9.169228
v -3.0613816 3.75 -9.096359
v -3.071366 3.75 -7.8124914
v -2.9606056 3.75 -7.699995
vt 0.110736 0.6536684
vt 0.11073599 0.712358
vt 0.2356045 0.712357
vt 0.23610313 0.653668
vt 0.237972 0.65553683
vt 0.237972 0.7099895
vt 0.1054345 0.6511067
vt 0.23989889 0.651107
vt 0.23814394 0.651107
vt 0.1054345 0.6511065
vt 0.22585787 0.66413397
vt 0.22585787 0.7185866
vt 0.226948 0.7065781
vt 0.22677694 0.66392773
vt 0.23142414 0.6628847
vt 0.23118009 0.65995854
vt 0.09238916 0.7083516
vt 0.09357266 0.7201869
vt 0.09357267 0.6614973
vt 0.09294977 0.6600969
vt 0.08827117 0.65893537
vt 0.09294977 0.6600969
vt 0.08827117 0.6589356
vt 0.23989889 0.651107
vt 0.1054345 0.6511067
vt 0.1101131 0.652268
vt 0.23554802 0.65224195
vt 0.22585787 0.66413397
vt 0.22343388 0.6608391
vt 0.223989 0.6622651
vt 0.22677694 0.66392773
vt 0.22778475 0.65970415
vt 0.23142414 0.6628847
vt 0.10955249 0.7005227
vt 0.1054345 0.6511065
vt 0.23814394 0.651107
vt 0.23433279 0.7005221
vt 0.110736 0.6536684
vt 0.23610313 0.653668
vt 0.23554802 0.65224195
vt 0.1101131 0.652268
vt 0.22221865 0.70911926
vt 0.22585787 0.7185866
vt 0.22349036 0.7209541
vt 0.226948 0.7065781
vt 0.23118009 0.65995854
vt 0.2260298 0.65970415
vt 0.10955249 0.7005227
vt 0.23433279 0.7005221
vt 0.2356045 0.712357
vt 0.11073599 0.712358
vt 0.23989889 0.651107
vt 0.24300823 0.64792645
vt 0.24325182 0.6508526
vt 0.23814394 0.651107
vn -0 1 0
vn -0 1 0
vn -0 1 0
vn -0 1 0
vn -0 1 0
vn -0 1 0
vn -0 -1 0
vn -0 -1 0
vn -0 -1 0
vn -0 -1 0
vn -0.99996984 0 -0.007776626
vn -0.99996984 0 -0.007776626
vn -0.99996984 0 -0.0077766534
vn -0.99996984 0 -0.007776654
vn -0.99996984 0 -0.007776659
vn -0.99996984 0 -0.007776659
vn 0.99996984 0 0.0077767
vn 0.99996984 0 0.0077766767
vn 0.99996984 0 0.007776677
vn 0.99996984 0 0.0077767
vn 0.99996984 0 0.0077767023
vn 0.99996984 0 0.0077767
vn 0.99996984 0 0.0077767023
vn 0.007776504 0 -0.99996984
vn 0.007776504 0 -0.99996984
vn 0.007776504 0 -0.99996984
vn 0.007776504 0 -0.99996984
vn -0.7015903 0 -0.71258056
vn -0.70158803 0 -0.71258277
vn -0.70159036 0 -0.71258056
vn -0.70158815 0 -0.71258265
vn -0.70158786 0 -0.71258295
vn -0.70158786 0 -0.71258295
vn -0.007776692 0 0.99996984
vn -0.007776692 0 0.99996984
vn -0.007776692 0 0.99996984
vn -0.007776692 0 0.99996984
vn 0.0054989005 0.7071093 -0.70708287
vn 0.0054989005 0.7071093 -0.70708287
vn 0.0054989 0.7071093 -0.7070828
vn 0.0054989 0.7071093 -0.7070828
vn -0.71258396 0 0.70158684
vn -0.7125818 0 0.701589
vn -0.7125818 0 0.70158905
vn -0.7125838 0 0.701587
vn -0.7125842 0 0.70158666
vn -0.7125842 0 0.70158666
vn -0.0054988535 0.70710707 0.707085
vn -0.0054988535 0.70710707 0.707085
vn -0.005498854 0.70710707 0.7070851
vn -0.0054988544 0.70710707 0.7070851
vn -0 -1 0
vn -0 -1 0
vn -0 -1 0
vn -0 -1 0
g Plank5_0
f 3/3/3 2/2/2 1/1/1
f 4/4/4 3/3/3 1/1/1
f 4/4/4 5/5/5 3/3/3
f 5/5/5 6/6/6 3/3/3
f 9/9/9 8/8/8 7/7/7
f 10/10/10 9/9/9 7/7/7
f 13/13/13 12/12/12 11/11/11
f 14/14/14 13/13/13 11/11/11
f 14/14/14 15/15/15 13/13/13
f 15/15/15 16/16/16 13/13/13
f 19/19/19 18/18/18 17/17/17
f 20/20/20 19/19/19 17/17/17
f 22/22/22 17/17/17 21/21/21
f 23/23/23 22/22/22 21/21/21
f 26/26/26 25/25/25 24/24/24
f 27/27/27 26/26/26 24/24/24
f 30/30/30 29/29/29 28/28/28
f 29/29/29 31/31/31 28/28/28
f 29/29/29 32/32/32 31/31/31
f 32/32/32 33/33/33 31/31/31
f 36/36/36 35/35/35 34/34/34
f 37/37/37 36/36/36 34/34/34
f 40/40/40 39/39/39 38/38/38
f 41/41/41 40/40/40 38/38/38
f 44/44/44 43/43/43 42/42/42
f 43/43/43 45/45/45 42/42/42
f 45/45/45 46/46/46 42/42/42
f 46/46/46 47/47/47 42/42/42
f 50/50/50 49/49/49 48/48/48
f 51/51/51 50/50/50 48/48/48
f 54/54/54 53/53/53 52/52/52
f 55/55/55 54/54/54 52/52/52
