g Plane
v 0.009238794 0.0038268364 1.2469412E-09
v 0.010918687 0.00452267 1.4736729E-09
v 0.011818302 1.5701042E-09 3.432771E-16
v 0.01 1.3113416E-09 2.8485954E-16
v 0.010918687 -0.0045226673 -1.4736723E-09
v 0.0064377747 2.8336242E-10 0.001599057
v 0.0059477286 0.0024636302 0.0015990577
v 0.009238794 -0.0038268336 -1.2469407E-09
v 0.008356803 -0.0083568 -2.7229916E-09
v 0.0059477286 -0.0024636297 0.0015990562
v 0.0034606617 -8.223833E-10 0.0038605644
v 0.0031972348 0.0013243371 0.0038605647
v 0.0070710685 -0.007071066 -2.304046E-09
v 0.0045226696 -0.010918687 -3.5577596E-09
v 0.004552195 -0.004552195 0.0015990555
v 0.0031972348 -0.0013243386 0.0038605642
v 0.001299861 -2.2393762E-09 0.0073032854
v 0.0012009152 0.00049743283 0.0073032854
v 8.3353396E-10 -5.3464433E-09 0.016236626
v 0.0012009152 -0.0004974373 0.0073032854
v 0.0009191407 -0.0009191425 0.007303285
v 0.0024470575 -0.0024470582 0.0038605635
v 0.0038268357 -0.009238794 -3.0103813E-09
v 9.654517E-10 -0.011818303 -3.8508916E-09
v 0.0004974359 -0.0012009167 0.007303285
v 0.0024636306 -0.005947728 0.001599055
v 0.0013243386 -0.003197235 0.0038605635
v 8.7422775E-10 -0.01 -3.2584133E-09
v -0.004522662 -0.010918691 -3.557761E-09
v 8.2105406E-10 -0.0012998626 0.007303285
v 6.955113E-10 -0.0064377747 0.0015990549
v 7.383817E-10 -0.0034606622 0.0038605633
v -0.0038268284 -0.009238797 -3.0103822E-09
v -0.008356798 -0.008356805 -2.7229925E-09
v -0.0004974336 -0.0012009172 0.007303285
v -0.002463626 -0.005947731 0.001599055
v -0.0013243353 -0.0031972362 0.0038605635
v -0.007071064 -0.0070710713 -2.304047E-09
v -0.010918687 -0.0045226715 -1.4736733E-09
v -0.0009191392 -0.0009191428 0.007303285
v -0.0045521925 -0.0045521967 0.0015990555
v -0.0024470557 -0.0024470591 0.0038605635
v -0.009238793 -0.0038268366 -1.2469416E-09
v -0.011818303 -1.1537995E-09 -2.0762777E-16
v -0.0012009135 -0.0004974378 0.0073032854
v -0.0059477272 -0.0024636318 0.0015990562
v -0.003197233 -0.0013243398 0.0038605642
v -0.0012998594 -2.5389704E-09 0.0073032854
v -0.0012009136 0.00049743266 0.0073032854
v -0.00346066 -1.6200027E-09 0.0038605644
v -0.0031972332 0.0013243366 0.0038605647
v -0.0064377743 -1.2004275E-09 0.001599057
v -0.005947728 0.0024636297 0.0015990577
v -0.01 -9.934765E-10 -1.8128596E-16
v -0.010918689 0.004522669 1.4736729E-09
v -0.009238794 0.0038268345 1.2469411E-09
vt 0 0
vt 0 0
vt 0 0
vt 0 0
vt 0 0
vt 0 0
vt 0 0
vt 0 0
vt 0 0
vt 0 0
vt 0 0
vt 0 0
vt 0 0
vt 0 0
vt 0 0
vt 0 0
vt 0 0
vt 0 0
vt 0 0
vt 0 0
vt 0 0
vt 0 0
vt 0 0
vt 0 0
vt 0 0
vt 0 0
vt 0 0
vt 0 0
vt 0 0
vt 0 0
vt 0 0
vt 0 0
vt 0 0
vt 0 0
vt 0 0
vt 0 0
vt 0 0
vt 0 0
vt 0 0
vt 0 0
vt 0 0
vt 0 0
vt 0 0
vt 0 0
vt 0 0
vt 0 0
vt 0 0
vt 0 0
vt 0 0
vt 0 0
vt 0 0
vt 0 0
vt 0 0
vt 0 0
vt 0 0
vt 0 0
vn 0.18400224 0.03659997 0.9822442
vn -0 -3.2584123E-07 1
vn -0 -3.258412E-07 1
vn 0.18412562 -3.187412E-07 0.98290277
vn -0 -3.258413E-07 1
vn 0.49988356 -2.6911258E-07 0.8660927
vn 0.4974304 0.09894473 0.8618427
vn 0.17010988 -0.07046215 0.98290277
vn -0 -3.258413E-07 1
vn 0.4618321 -0.1912974 0.86609256
vn 0.72739434 -1.6290444E-07 0.68621975
vn 0.7198979 0.1431963 0.6791477
vn 0.13019648 -0.13019678 0.98290277
vn -0 -3.2584128E-07 1
vn 0.35347098 -0.35347125 0.86609256
vn 0.6720247 -0.27836192 0.68621975
vn 0.9353032 0 0.35384744
vn 0.91952515 0.18290462 0.3478784
vn 2.8435494E-07 -0.95746744 0.28854117
vn 0.86410743 -0.35792518 0.3538473
vn 0.66135925 -0.6613593 0.35384724
vn 0.51434547 -0.51434565 0.6862197
vn 0.07046181 -0.17011014 0.98290277
vn -0 -3.2584146E-07 1
vn 0.35792512 -0.8641076 0.35384712
vn 0.19129713 -0.4618323 0.86609256
vn 0.2783618 -0.67202497 0.6862195
vn -0 -0.1841259 0.98290277
vn -0 -3.2584146E-07 1
vn 1.9727163E-07 -0.9353033 0.35384703
vn 1.643254E-07 -0.49988374 0.86609256
vn 2.1560884E-07 -0.7273945 0.6862196
vn -0.07046173 -0.17011021 0.98290277
vn -0 -3.2584143E-07 1
vn -0.35792446 -0.8641078 0.35384715
vn -0.19129688 -0.46183237 0.86609256
vn -0.2783614 -0.67202497 0.6862196
vn -0.13019639 -0.13019684 0.98290277
vn -0 -3.258414E-07 1
vn -0.66135895 -0.6613595 0.35384732
vn -0.35347086 -0.35347134 0.86609256
vn -0.5143452 -0.51434577 0.6862197
vn -0.17010985 -0.07046219 0.98290277
vn -0 -3.258414E-07 1
vn -0.86410743 -0.35792515 0.3538473
vn -0.46183208 -0.1912975 0.8660927
vn -0.6720246 -0.27836204 0.68621975
vn -0.9353032 0 0.35384744
vn -0.9195252 0.18290462 0.34787837
vn -0.7273942 -2.4435667E-07 0.68621975
vn -0.7198978 0.14319628 0.6791479
vn -0.49988344 -3.8580743E-07 0.86609274
vn -0.49743044 0.09894463 0.8618428
vn -0.18412554 -3.6099857E-07 0.98290277
vn -0 -3.2584146E-07 1
vn -0.18400219 0.03659993 0.9822442
g Plane_0
f 3/3/3 2/2/2 1/1/1
f 4/4/4 3/3/3 1/1/1
f 5/5/5 3/3/3 4/4/4
f 6/6/6 4/4/4 1/1/1
f 7/7/7 6/6/6 1/1/1
f 8/8/8 5/5/5 4/4/4
f 9/9/9 5/5/5 8/8/8
f 6/6/6 10/10/10 4/4/4
f 10/10/10 8/8/8 4/4/4
f 11/11/11 6/6/6 7/7/7
f 12/12/12 11/11/11 7/7/7
f 13/13/13 9/9/9 8/8/8
f 14/14/14 9/9/9 13/13/13
f 10/10/10 15/15/15 8/8/8
f 15/15/15 13/13/13 8/8/8
f 16/16/16 10/10/10 6/6/6
f 11/11/11 16/16/16 6/6/6
f 17/17/17 11/11/11 12/12/12
f 18/18/18 17/17/17 12/12/12
f 19/19/19 17/17/17 18/18/18
f 19/19/19 20/20/20 17/17/17
f 17/17/17 20/20/20 11/11/11
f 20/20/20 16/16/16 11/11/11
f 19/19/19 21/21/21 20/20/20
f 20/20/20 21/21/21 16/16/16
f 16/16/16 22/22/22 10/10/10
f 21/21/21 22/22/22 16/16/16
f 22/22/22 15/15/15 10/10/10
f 23/23/23 14/14/14 13/13/13
f 24/24/24 14/14/14 23/23/23
f 21/21/21 25/25/25 22/22/22
f 19/19/19 25/25/25 21/21/21
f 15/15/15 26/26/26 13/13/13
f 26/26/26 23/23/23 13/13/13
f 22/22/22 27/27/27 15/15/15
f 25/25/25 27/27/27 22/22/22
f 27/27/27 26/26/26 15/15/15
f 28/28/28 24/24/24 23/23/23
f 29/29/29 24/24/24 28/28/28
f 25/25/25 30/30/30 27/27/27
f 19/19/19 30/30/30 25/25/25
f 26/26/26 31/31/31 23/23/23
f 31/31/31 28/28/28 23/23/23
f 27/27/27 32/32/32 26/26/26
f 30/30/30 32/32/32 27/27/27
f 32/32/32 31/31/31 26/26/26
f 33/33/33 29/29/29 28/28/28
f 34/34/34 29/29/29 33/33/33
f 30/30/30 35/35/35 32/32/32
f 19/19/19 35/35/35 30/30/30
f 31/31/31 36/36/36 28/28/28
f 36/36/36 33/33/33 28/28/28
f 32/32/32 37/37/37 31/31/31
f 35/35/35 37/37/37 32/32/32
f 37/37/37 36/36/36 31/31/31
f 38/38/38 34/34/34 33/33/33
f 39/39/39 34/34/34 38/38/38
f 35/35/35 40/40/40 37/37/37
f 19/19/19 40/40/40 35/35/35
f 36/36/36 41/41/41 33/33/33
f 41/41/41 38/38/38 33/33/33
f 37/37/37 42/42/42 36/36/36
f 40/40/40 42/42/42 37/37/37
f 42/42/42 41/41/41 36/36/36
f 43/43/43 39/39/39 38/38/38
f 44/44/44 39/39/39 43/43/43
f 19/19/19 45/45/45 40/40/40
f 40/40/40 45/45/45 42/42/42
f 41/41/41 46/46/46 38/38/38
f 46/46/46 43/43/43 38/38/38
f 42/42/42 47/47/47 41/41/41
f 45/45/45 47/47/47 42/42/42
f 47/47/47 46/46/46 41/41/41
f 19/19/19 48/48/48 45/45/45
f 45/45/45 48/48/48 47/47/47
f 19/19/19 49/49/49 48/48/48
f 48/48/48 50/50/50 47/47/47
f 48/48/48 49/49/49 50/50/50
f 47/47/47 50/50/50 46/46/46
f 49/49/49 51/51/51 50/50/50
f 50/50/50 52/52/52 46/46/46
f 50/50/50 51/51/51 52/52/52
f 46/46/46 52/52/52 43/43/43
f 51/51/51 53/53/53 52/52/52
f 54/54/54 44/44/44 43/43/43
f 52/52/52 54/54/54 43/43/43
f 52/52/52 53/53/53 54/54/54
f 55/55/55 44/44/44 54/54/54
f 53/53/53 56/56/56 54/54/54
f 56/56/56 55/55/55 54/54/54
