g Plate_Large
v -0.09395397 0.030560613 0.28916016
v 0.09395397 0.030560613 0.28916016
v 0.046976354 0 0.14458008
v 0.24597332 0.030560613 0.17871018
v -0.04697666 0 0.14458008
v -0.24597354 0.030560613 0.17871018
v -0 0 0
v 0.12298664 0 0.08935516
v -0.12298664 0 0.08935516
v -0.3040405 0.030560613 0
v 0.15201999 0 0
v 0.3040399 0.030560613 0
v -0.15202026 0 0
v -0.24597354 0.030560613 -0.17871018
v 0.12298664 0 -0.08935516
v 0.24597332 0.030560613 -0.17871018
v -0.12298664 0 -0.08935516
v -0.09395397 0.030560613 -0.28915894
v 0.046976354 0 -0.14457886
v 0.09395397 0.030560613 -0.28915894
v -0.04697666 0 -0.14457886
v 0.24597332 0.030560613 -0.17871018
v 0.25355288 0.050375957 -0.1842166
v 0.09684879 0.050375957 -0.29806945
v 0.09395397 0.030560613 -0.28915894
v 0.3040399 0.030560613 0
v -0.09684879 0.050375957 -0.29806945
v -0.09395397 0.030560613 -0.28915894
v 0.31340846 0.050375957 0
v 0.24597332 0.030560613 0.17871018
v -0.25355282 0.050375957 -0.1842166
v -0.24597354 0.030560613 -0.17871018
v 0.25355288 0.050375957 0.1842166
v 0.09395397 0.030560613 0.28916016
v 0.09684879 0.050375957 0.29806945
v -0.09395397 0.030560613 0.28916016
v 0.24597332 0.05848096 0.17871018
v 0.3040399 0.05848096 0
v 0.24597332 0.05848096 -0.17871018
v 0.09395366 0.05848096 -0.28915894
v -0.313409 0.050375957 0
v -0.3040405 0.030560613 0
v -0.09395397 0.05848096 -0.28915894
v -0.25355282 0.050375957 0.1842166
v -0.24597354 0.030560613 0.17871018
v -0.24597354 0.05848096 -0.17871018
v -0.09684879 0.050375957 0.29806945
v -0.3040405 0.05848096 0
v -0.24597354 0.05848096 0.17871018
v -0.09395397 0.05848096 0.28916016
v 0.09395366 0.05848096 0.28916016
v -0.07875576 0.053338636 -0.24238509
v -0.20618457 0.053338636 -0.14980118
v -0.25485888 0.053338636 6.1035155E-07
v -0.20618457 0.053338636 0.14980316
v -0.07875576 0.053338636 0.2423857
v 0.07875671 0.053338636 0.2423857
v 0.07875671 0.053338636 -0.24238509
v 0.20618561 0.053338636 0.14980316
v 0.20618561 0.053338636 -0.14980118
v 0.25485867 0.053338636 6.1035155E-07
v -0.19192393 0.036923263 0.13944083
v -0.07330837 0.036923263 0.22562057
v -0 0.025030997 0
v -0.23723148 0.036923263 0
v 0.073308066 0.036923263 0.22562057
v 0.19192402 0.036923263 0.13944083
v -0.19192393 0.036923263 -0.13944083
v 0.23723125 0.036923263 0
v -0.07330837 0.036923263 -0.22562057
v 0.19192402 0.036923263 -0.13944083
v 0.073308066 0.036923263 -0.22562057
vt 0.26672935 0.47345683
vt 0.3039402 0.47345683
vt 0.29463786 0.44482577
vt 0.33404487 0.45158464
vt 0.27603227 0.44482577
vt 0.23662496 0.45158464
vt 0.28533494 0.41378677
vt 0.30968982 0.43388987
vt 0.26098007 0.43388987
vt 0.22512627 0.41619465
vt 0.31543976 0.41619465
vt 0.34554368 0.41619465
vt 0.25523043 0.41619465
vt 0.23662496 0.38080513
vt 0.30968982 0.3985
vt 0.33404487 0.38080513
vt 0.26098007 0.3985
vt 0.26672935 0.35893303
vt 0.29463786 0.3875637
vt 0.3039402 0.35893303
vt 0.27603227 0.3875637
vt 0.36693323 0.44084445
vt 0.37276748 0.43659055
vt 0.3516246 0.37099227
vt 0.34440452 0.37100223
vt 0.4262393 0.4841042
vt 0.37307984 0.30551317
vt 0.36723292 0.301276
vt 0.4284544 0.47723308
vt 0.49965066 0.48417562
vt 0.42891443 0.26516178
vt 0.42667496 0.2582967
vt 0.4973837 0.4773201
vt 0.55901575 0.4411066
vt 0.5531534 0.4368914
vt 0.581736 0.3714392
vt 0.4958493 0.47260246
vt 0.42999056 0.4724969
vt 0.3767971 0.43366602
vt 0.3566038 0.37099665
vt 0.49778706 0.26533434
vt 0.5000101 0.25846455
vt 0.3771049 0.30844343
vt 0.55339295 0.30594358
vt 0.55922854 0.30169022
vt 0.4304479 0.26989856
vt 0.5745144 0.37145388
vt 0.4962439 0.2700685
vt 0.5493629 0.30886737
vt 0.5695358 0.37145388
vt 0.5491125 0.43395343
vt 0.38936 0.317388
vt 0.43510488 0.28433824
vt 0.49152583 0.28448805
vt 0.5370721 0.31776288
vt 0.5543644 0.37144098
vt 0.5368348 0.42504796
vt 0.3717754 0.37102708
vt 0.4911496 0.45817387
vt 0.38908574 0.42476818
vt 0.43468907 0.45806977
vt 0.526389 0.3255131
vt 0.54116523 0.37145197
vt 0.46306804 0.37126872
vt 0.4874334 0.29703298
vt 0.5261417 0.4173272
vt 0.4870366 0.44563252
vt 0.43916848 0.2968937
vt 0.43875605 0.4455145
vt 0.4000296 0.32515737
vt 0.399766 0.41701537
vt 0.38497508 0.37103888
vn -0.11005241 -0.9398864 0.32326785
vn 0.1027249 -0.94390285 0.31383914
vn 0.043129485 -0.99021214 0.13273889
vn 0.28748557 -0.93496644 0.20782119
vn -0.049469717 -0.991331 0.12171957
vn -0.27904594 -0.9398864 0.19684291
vn -0 -1 0
vn 0.096750505 -0.99282336 0.07029358
vn -0.1115667 -0.991331 0.069395974
vn -0.3414543 -0.9398863 -0.0047703134
vn 0.13104959 -0.991331 0.009434874
vn 0.3414547 -0.93988615 0.004770225
vn -0.13104932 -0.991331 -0.009435048
vn -0.2734382 -0.9398864 -0.20456123
vn 0.11156683 -0.991331 -0.06939587
vn 0.27904627 -0.9398863 -0.1968427
vn -0.100475326 -0.991331 -0.08466182
vn -0.10097891 -0.9398863 -0.3262164
vn 0.049469717 -0.991331 -0.12171957
vn 0.11005241 -0.9398864 -0.32326785
vn -0.031523243 -0.991331 -0.1275509
vn 0.27904627 -0.9398863 -0.1968427
vn 0.8060714 -0.02478633 -0.591299
vn 0.30456313 -0.024786735 -0.95216954
vn 0.11005241 -0.9398864 -0.32326785
vn 0.3414547 -0.93988615 0.004770225
vn -0.31327108 -0.024786536 -0.9493403
vn -0.10097891 -0.9398863 -0.3262164
vn 0.9996823 -0.024786538 -0.004577847
vn 0.28748557 -0.93496644 0.20782119
vn -0.8114524 -0.024786472 -0.58389276
vn -0.2734382 -0.9398864 -0.20456123
vn 0.81077594 -0.020117057 0.5850109
vn 0.1027249 -0.94390285 0.31383914
vn 0.31201762 -0.029491933 0.9496185
vn -0.11005241 -0.9398864 0.32326785
vn 0.095097095 0.99291307 0.07127643
vn 0.11638344 0.993204 0.00083808263
vn 0.094649084 0.9932039 -0.067731455
vn 0.036762234 0.9932039 -0.110428445
vn -0.9996823 -0.024786985 0.0045777718
vn -0.3414543 -0.9398863 -0.0047703134
vn -0.035168298 0.993204 -0.11094623
vn -0.80607074 -0.024786226 0.59129995
vn -0.27904594 -0.9398864 0.19684291
vn -0.093662106 0.9932041 -0.069086105
vn -0.30456313 -0.024786735 0.95216954
vn -0.11638288 0.993204 -0.0008377578
vn -0.09464773 0.993204 0.06773104
vn -0.0367618 0.9932039 0.110428706
vn 0.03351162 0.9934883 0.10889435
vn 0.08091515 0.9681773 0.23682359
vn 0.20466319 0.96817714 0.14403455
vn 0.25023633 0.96817744 -0.003772773
vn 0.20022896 0.968177 -0.1501386
vn 0.07374004 0.968177 -0.23915598
vn -0.08091722 0.96817714 -0.2368236
vn -0.0737422 0.96817714 0.23915517
vn -0.20466407 0.96817714 -0.14403324
vn -0.20023039 0.968177 0.15013699
vn -0.2502397 0.96817654 0.0037711228
vn 0.11345122 0.99001735 -0.0836323
vn 0.042625982 0.99001735 -0.1343452
vn -0 1 0
vn 0.14094222 0.99001735 -0.0009752557
vn -0.04448064 0.9900175 -0.13374206
vn -0.11459724 0.9900175 -0.082053974
vn 0.114597954 0.99001735 0.0820544
vn -0.14094238 0.99001735 0.0009752559
vn 0.044481374 0.99001735 0.13374214
vn -0.11345053 0.9900175 0.083632655
vn -0.04262526 0.99001735 0.1343455
g Plate_Large_0
f 3/3/3 2/2/2 1/1/1
f 2/2/2 3/3/3 4/4/4
f 5/5/5 3/3/3 1/1/1
f 5/5/5 1/1/1 6/6/6
f 5/5/5 7/7/7 3/3/3
f 7/7/7 8/8/8 3/3/3
f 3/3/3 8/8/8 4/4/4
f 9/9/9 7/7/7 5/5/5
f 9/9/9 5/5/5 6/6/6
f 9/9/9 6/6/6 10/10/10
f 8/8/8 11/11/11 4/4/4
f 8/8/8 7/7/7 11/11/11
f 11/11/11 12/12/12 4/4/4
f 13/13/13 9/9/9 10/10/10
f 7/7/7 9/9/9 13/13/13
f 13/13/13 10/10/10 14/14/14
f 11/11/11 15/15/15 12/12/12
f 7/7/7 15/15/15 11/11/11
f 15/15/15 16/16/16 12/12/12
f 17/17/17 13/13/13 14/14/14
f 17/17/17 7/7/7 13/13/13
f 17/17/17 14/14/14 18/18/18
f 15/15/15 19/19/19 16/16/16
f 15/15/15 7/7/7 19/19/19
f 19/19/19 20/20/20 16/16/16
f 21/21/21 18/18/18 20/20/20
f 21/21/21 17/17/17 18/18/18
f 7/7/7 17/17/17 21/21/21
f 19/19/19 21/21/21 20/20/20
f 19/19/19 7/7/7 21/21/21
f 24/24/24 23/23/23 22/22/22
f 25/25/25 24/24/24 22/22/22
f 22/22/22 23/23/23 26/26/26
f 27/27/27 24/24/24 25/25/25
f 28/28/28 27/27/27 25/25/25
f 23/23/23 29/29/29 26/26/26
f 26/26/26 29/29/29 30/30/30
f 31/31/31 27/27/27 28/28/28
f 32/32/32 31/31/31 28/28/28
f 29/29/29 33/33/33 30/30/30
f 30/30/30 33/33/33 34/34/34
f 33/33/33 35/35/35 34/34/34
f 34/34/34 35/35/35 36/36/36
f 33/33/33 29/29/29 37/37/37
f 33/33/33 37/37/37 35/35/35
f 29/29/29 23/23/23 38/38/38
f 29/29/29 38/38/38 37/37/37
f 23/23/23 24/24/24 39/39/39
f 23/23/23 39/39/39 38/38/38
f 24/24/24 27/27/27 40/40/40
f 24/24/24 40/40/40 39/39/39
f 41/41/41 31/31/31 32/32/32
f 42/42/42 41/41/41 32/32/32
f 27/27/27 31/31/31 43/43/43
f 27/27/27 43/43/43 40/40/40
f 44/44/44 41/41/41 42/42/42
f 45/45/45 44/44/44 42/42/42
f 31/31/31 41/41/41 46/46/46
f 31/31/31 46/46/46 43/43/43
f 47/47/47 44/44/44 45/45/45
f 36/36/36 47/47/47 45/45/45
f 35/35/35 47/47/47 36/36/36
f 41/41/41 44/44/44 48/48/48
f 41/41/41 48/48/48 46/46/46
f 44/44/44 47/47/47 49/49/49
f 44/44/44 49/49/49 48/48/48
f 47/47/47 35/35/35 50/50/50
f 47/47/47 50/50/50 49/49/49
f 35/35/35 51/51/51 50/50/50
f 37/37/37 51/51/51 35/35/35
f 43/43/43 46/46/46 52/52/52
f 46/46/46 48/48/48 53/53/53
f 46/46/46 53/53/53 52/52/52
f 48/48/48 49/49/49 54/54/54
f 48/48/48 54/54/54 53/53/53
f 49/49/49 50/50/50 55/55/55
f 49/49/49 55/55/55 54/54/54
f 50/50/50 51/51/51 56/56/56
f 50/50/50 56/56/56 55/55/55
f 51/51/51 37/37/37 57/57/57
f 51/51/51 57/57/57 56/56/56
f 43/43/43 52/52/52 58/58/58
f 40/40/40 43/43/43 58/58/58
f 37/37/37 59/59/59 57/57/57
f 37/37/37 38/38/38 59/59/59
f 40/40/40 58/58/58 60/60/60
f 39/39/39 40/40/40 60/60/60
f 38/38/38 39/39/39 61/61/61
f 38/38/38 61/61/61 59/59/59
f 39/39/39 60/60/60 61/61/61
f 55/55/55 56/56/56 62/62/62
f 56/56/56 57/57/57 63/63/63
f 56/56/56 63/63/63 62/62/62
f 62/62/62 63/63/63 64/64/64
f 65/65/65 62/62/62 64/64/64
f 55/55/55 62/62/62 65/65/65
f 63/63/63 66/66/66 64/64/64
f 57/57/57 66/66/66 63/63/63
f 57/57/57 59/59/59 66/66/66
f 54/54/54 55/55/55 65/65/65
f 59/59/59 67/67/67 66/66/66
f 59/59/59 61/61/61 67/67/67
f 66/66/66 67/67/67 64/64/64
f 54/54/54 65/65/65 68/68/68
f 68/68/68 65/65/65 64/64/64
f 53/53/53 54/54/54 68/68/68
f 61/61/61 69/69/69 67/67/67
f 67/67/67 69/69/69 64/64/64
f 61/61/61 60/60/60 69/69/69
f 53/53/53 68/68/68 70/70/70
f 70/70/70 68/68/68 64/64/64
f 52/52/52 53/53/53 70/70/70
f 60/60/60 71/71/71 69/69/69
f 64/64/64 69/69/69 71/71/71
f 60/60/60 58/58/58 71/71/71
f 72/72/72 70/70/70 64/64/64
f 52/52/52 70/70/70 72/72/72
f 72/72/72 64/64/64 71/71/71
f 58/58/58 52/52/52 72/72/72
f 58/58/58 72/72/72 71/71/71
