g Pole1
v 0.18209457 -0.9144684 0.18208814
v 0.18209457 4.309942 0.18208814
v 0.18209457 -0.9144684 -0.18208814
v 0.18209457 4.309942 0.18208814
v 0.18209457 4.309942 -0.18208814
v 0.18209457 -0.9144684 -0.18208814
v -0.18209457 -0.9144684 0.18208814
v -0.18209457 4.309942 0.18208814
v 0.18209457 -0.9144684 0.18208814
v -0.18209457 4.309942 0.18208814
v 0.18209457 4.309942 0.18208814
v 0.18209457 -0.9144684 0.18208814
v -0.18209457 4.309942 0.18208814
v -0.18209457 -0.9144684 0.18208814
v -0.18209457 4.309942 -0.18208814
v -0.18209457 -0.9144684 -0.18208814
v -0.18209457 -0.9144684 0.18208814
v 0.18209457 -0.9144684 0.18208814
v -0.18209457 -0.9144684 -0.18208814
v 0.18209457 -0.9144684 -0.18208814
v 0.18209457 -0.9144684 -0.18208814
v 0.18209457 4.309942 -0.18208814
v -0.18209457 -0.9144684 -0.18208814
v -0.18209457 4.309942 -0.18208814
v 0.18209457 4.309942 -0.18208814
v 0.18209457 4.309942 0.18208814
v -0.18209457 4.309942 0.18208814
v -0.18209457 4.309942 -0.18208814
vt 0.16326399 0.6389628
vt 0.16211204 0.63656384
vt 0.16331638 0.6389628
vt 0.16211204 0.63656384
vt 0.16207565 0.63656384
vt 0.16331638 0.6389628
vt 0.1609077 0.6315765
vt 0.1621223 0.6359167
vt 0.1609601 0.6315765
vt 0.1621223 0.6359167
vt 0.16211204 0.63656384
vt 0.1609601 0.6315765
vt 0.1621223 0.6359167
vt 0.16333689 0.64025694
vt 0.16213824 0.6359167
vt 0.16338928 0.64025694
vt 0.16794194 0.633853
vt 0.16794194 0.63390535
vt 0.16799428 0.633853
vt 0.16799428 0.63390535
vt 0.16083492 0.6315765
vt 0.16207565 0.63656384
vt 0.1608872 0.6315765
vt 0.16213824 0.6359167
vt 0.16207565 0.63656384
vt 0.16211204 0.63656384
vt 0.1621223 0.6359167
vt 0.16213824 0.6359167
vn 1 0 0
vn 1 0 0
vn 1 0 0
vn 1 0 0
vn 1 0 0
vn 1 0 0
vn -0 0 1
vn -0 0 1
vn -0 0 1
vn -0 0 1
vn -0 0 1
vn -0 0 1
vn -1 0 0
vn -1 0 0
vn -1 0 0
vn -1 0 0
vn -0 -1 0
vn -0 -1 0
vn -0 -1 0
vn -0 -1 0
vn -0 0 -1
vn -0 0 -1
vn -0 0 -1
vn -0 0 -1
vn -0 1 0
vn -0 1 0
vn -0 1 0
vn -0 1 0
g Pole1_0
f 3/3/3 2/2/2 1/1/1
f 6/6/6 5/5/5 4/4/4
f 9/9/9 8/8/8 7/7/7
f 12/12/12 11/11/11 10/10/10
f 15/15/15 14/14/14 13/13/13
f 15/15/15 16/16/16 14/14/14
f 19/19/19 18/18/18 17/17/17
f 19/19/19 20/20/20 18/18/18
f 23/23/23 22/22/22 21/21/21
f 23/23/23 24/24/24 22/22/22
f 27/27/27 26/26/26 25/25/25
f 28/28/28 27/27/27 25/25/25
