g Pole4
v 0.18209457 -4.3099413 0.18209267
v 0.18209457 4.3099413 0.18209267
v 0.18209457 -4.3099413 -0.18209267
v 0.18209457 4.3099413 -0.18209267
v -0.18209457 4.3099413 0.18209267
v -0.18209457 4.3099413 -0.18209267
v 0.18209457 4.3099413 -0.18209267
v 0.18209457 4.3099413 0.18209267
v -0.18209457 4.3099413 0.18209267
v -0.18209457 -4.3099413 0.18209267
v -0.18209457 4.3099413 -0.18209267
v -0.18209457 -4.3099413 -0.18209267
v -0.18209457 -4.3099413 0.18209267
v 0.18209457 -4.3099413 0.18209267
v -0.18209457 -4.3099413 -0.18209267
v 0.18209457 -4.3099413 -0.18209267
v 0.18209457 -4.3099413 -0.18209267
v 0.18209457 4.3099413 -0.18209267
v -0.18209457 -4.3099413 -0.18209267
v -0.18209457 4.3099413 -0.18209267
v -0.18209457 -4.3099413 0.18209267
v -0.18209457 4.3099413 0.18209267
v 0.18209457 -4.3099413 0.18209267
v 0.18209457 4.3099413 0.18209267
vt 0.1626813 0.6389628
vt 0.1626813 0.64029354
vt 0.16273369 0.6389628
vt 0.16273369 0.64029354
vt 0.16815628 0.63333136
vt 0.16820867 0.63333136
vt 0.16820867 0.633279
vt 0.16815628 0.633279
vt 0.1627542 0.6389628
vt 0.1627542 0.64029354
vt 0.16280647 0.6389628
vt 0.16280647 0.64029354
vt 0.16808487 0.633279
vt 0.16808487 0.63333136
vt 0.16813721 0.633279
vt 0.16813721 0.63333136
vt 0.16025205 0.6315765
vt 0.16025205 0.6329073
vt 0.16030444 0.6315765
vt 0.16030444 0.6329073
vt 0.16032495 0.6315765
vt 0.16032495 0.6329073
vt 0.16037734 0.6315765
vt 0.16037734 0.6329073
vn 1 0 0
vn 1 0 0
vn 1 0 0
vn 1 0 0
vn -0 1 0
vn -0 1 0
vn -0 1 0
vn -0 1 0
vn -1 0 0
vn -1 0 0
vn -1 0 0
vn -1 0 0
vn -0 -1 0
vn -0 -1 0
vn -0 -1 0
vn -0 -1 0
vn -0 0 -1
vn -0 0 -1
vn -0 0 -1
vn -0 0 -1
vn -0 0 1
vn -0 0 1
vn -0 0 1
vn -0 0 1
g Pole4_0
f 3/3/3 2/2/2 1/1/1
f 3/3/3 4/4/4 2/2/2
f 7/7/7 6/6/6 5/5/5
f 8/8/8 7/7/7 5/5/5
f 11/11/11 10/10/10 9/9/9
f 11/11/11 12/12/12 10/10/10
f 15/15/15 14/14/14 13/13/13
f 15/15/15 16/16/16 14/14/14
f 19/19/19 18/18/18 17/17/17
f 19/19/19 20/20/20 18/18/18
f 23/23/23 22/22/22 21/21/21
f 23/23/23 24/24/24 22/22/22
