g Prop_BoxingBag
v 0.5641775 -2.3138118 -0.40989864
v 0.67482626 -2.214641 -0.49029005
v 0.25776073 -2.214641 -0.79330575
v 0.21549666 -2.3138118 -0.6632303
v -0.25776064 -2.214641 -0.79330575
v -0.21549658 -2.3138118 -0.6632303
v -0.67482615 -2.214641 -0.49028957
v -0.56417733 -2.3138118 -0.40989864
v -0.56417733 -2.3138118 -0.40989864
v -0.67482615 -2.214641 -0.49028957
v -0.83413094 -2.214641 1.1920929E-07
v -0.6973616 -2.3138118 1.1920929E-07
v -0.674826 -2.214641 0.49029028
v -0.56417716 -2.3138118 0.40989888
v -0.56417716 -2.3138118 0.40989888
v -0.674826 -2.214641 0.49029028
v -0.25776052 -2.214641 0.793306
v -0.21549644 -2.3138118 0.66323054
v 0.2577608 -2.214641 0.793306
v 0.21549678 -2.3138118 0.66323054
v 0.67482626 -2.214641 0.4902898
v 0.5641775 -2.3138118 0.40989888
v 0.5641775 -2.3138118 0.40989888
v 0.67482626 -2.214641 0.4902898
v 0.83413106 -2.214641 1.1920929E-07
v 0.6973618 -2.3138118 1.1920929E-07
v 0.67482626 -2.214641 -0.49029005
v 0.5641775 -2.3138118 -0.40989864
v 0.67482626 -2.214641 -0.49029005
v 0.24960512 1.1110302 -0.7682053
v 0.25776073 -2.214641 -0.79330575
v 0.65347457 1.1110302 -0.4747771
v 0.83413106 -2.214641 1.1920929E-07
v 0.8077389 1.1110302 1.1920929E-07
v 0.67482626 -2.214641 0.4902898
v 0.65347457 1.1110302 0.47477686
v 0.2577608 -2.214641 0.793306
v 0.24960518 1.1110302 0.7682053
v 0.25776073 -2.214641 -0.79330575
v 0.24960512 1.1110302 -0.7682053
v -0.24960503 1.1110302 -0.7682053
v -0.25776064 -2.214641 -0.79330575
v -0.25776064 -2.214641 -0.79330575
v -0.24960503 1.1110302 -0.7682053
v -0.6534745 1.1110302 -0.47477663
v -0.67482615 -2.214641 -0.49028957
v -0.80773884 1.1110302 1.1920929E-07
v -0.83413094 -2.214641 1.1920929E-07
v -0.65347433 1.1110302 0.47477734
v -0.674826 -2.214641 0.49029028
v -0.2496049 1.1110302 0.7682053
v -0.25776052 -2.214641 0.793306
v -0.25776052 -2.214641 0.793306
v -0.2496049 1.1110302 0.7682053
v 0.24960518 1.1110302 0.7682053
v 0.2577608 -2.214641 0.793306
v 0.64721376 2.0862007 -0.47022808
v 0.5647538 2.239009 -0.4103173
v 0.21571669 2.239009 -0.6639074
v 0.24721366 2.0862007 -0.7608453
v -0.21571666 2.239009 -0.6639074
v -0.2472136 2.0862007 -0.76084507
v -0.56475353 2.239009 -0.4103173
v -0.64721364 2.0862007 -0.47022808
v -0.64721364 2.0862007 -0.47022808
v -0.56475353 2.239009 -0.4103173
v -0.69807374 2.239009 1.1920929E-07
v -0.8 2.0862007 1.1920929E-07
v -0.56475353 2.239009 0.41031754
v -0.6472135 2.0862007 0.4702283
v -0.6472135 2.0862007 0.4702283
v -0.56475353 2.239009 0.41031754
v -0.21571645 2.239009 0.66390765
v -0.24721347 2.0862007 0.7608453
v 0.21571684 2.239009 0.66390765
v 0.24721375 2.0862007 0.7608453
v 0.5647538 2.239009 0.41031754
v 0.64721376 2.0862007 0.4702283
v 0.64721376 2.0862007 0.4702283
v 0.5647538 2.239009 0.41031754
v 0.698074 2.239009 1.1920929E-07
v 0.80000013 2.0862007 1.1920929E-07
v 0.5647538 2.239009 -0.4103173
v 0.64721376 2.0862007 -0.47022808
v -0.65107 1.57313 0.4730302
v -0.24721347 2.0862007 0.7608453
v -0.24868652 1.57313 0.7653791
v -0.6472135 2.0862007 0.4702283
v -0.8047669 1.57313 1.1920929E-07
v -0.8 2.0862007 1.1920929E-07
v -0.6510701 1.57313 -0.47302997
v -0.64721364 2.0862007 -0.47022808
v -0.24868664 1.57313 -0.76537883
v -0.2472136 2.0862007 -0.76084507
v 0.24868673 1.57313 -0.76537883
v 0.24721366 2.0862007 -0.7608453
v -0.2472136 2.0862007 -0.76084507
v -0.24868664 1.57313 -0.76537883
v 0.65107024 1.57313 -0.47302997
v 0.24721366 2.0862007 -0.7608453
v 0.24868673 1.57313 -0.76537883
v 0.64721376 2.0862007 -0.47022808
v 0.804767 1.57313 1.1920929E-07
v 0.80000013 2.0862007 1.1920929E-07
v 0.65107024 1.57313 0.4730302
v 0.64721376 2.0862007 0.4702283
v 0.24868679 1.57313 0.7653791
v 0.24721375 2.0862007 0.7608453
v -0.24868652 1.57313 0.7653791
v -0.24721347 2.0862007 0.7608453
v 0.24721375 2.0862007 0.7608453
v 0.24868679 1.57313 0.7653791
v -0.6834218 1.111324 0.49653542
v -0.26012546 1.5734237 0.80058444
v -0.26104382 1.111324 0.80341065
v -0.68101746 1.5734237 0.4947883
v -0.84475595 1.111324 1.1920929E-07
v -0.841784 1.5734237 1.1920929E-07
v -0.68342197 1.111324 -0.4965347
v -0.6810176 1.5734237 -0.49478805
v -0.26104397 1.111324 -0.80341065
v -0.26012558 1.5734237 -0.8005842
v 0.26104403 1.111324 -0.80341065
v 0.26012564 1.5734237 -0.8005842
v -0.26012558 1.5734237 -0.8005842
v -0.26104397 1.111324 -0.80341065
v 0.683422 1.111324 -0.49653518
v 0.26012564 1.5734237 -0.8005842
v 0.26104403 1.111324 -0.80341065
v 0.6810177 1.5734237 -0.49478805
v 0.84475595 1.111324 1.1920929E-07
v 0.84178406 1.5734237 1.1920929E-07
v 0.683422 1.111324 0.49653494
v 0.6810177 1.5734237 0.4947883
v 0.2610441 1.111324 0.80341065
v 0.26012573 1.5734237 0.80058444
v -0.26104382 1.111324 0.80341065
v -0.26012546 1.5734237 0.80058444
v 0.26012573 1.5734237 0.80058444
v 0.2610441 1.111324 0.80341065
v 0.21549666 -2.3138118 -0.6632303
v 1.1920929E-07 -2.352683 1.1920929E-07
v 0.5641775 -2.3138118 -0.40989864
v -0.21549658 -2.3138118 -0.6632303
v 1.1920929E-07 -2.352683 1.1920929E-07
v 0.6973618 -2.3138118 1.1920929E-07
v 0.5641775 -2.3138118 0.40989888
v -0.56417733 -2.3138118 -0.40989864
v 1.1920929E-07 -2.352683 1.1920929E-07
v -0.6973616 -2.3138118 1.1920929E-07
v 1.1920929E-07 -2.352683 1.1920929E-07
v 0.21549678 -2.3138118 0.66323054
v -0.21549644 -2.3138118 0.66323054
v -0.56417716 -2.3138118 0.40989888
v 1.1920929E-07 -2.352683 1.1920929E-07
v 0.5647538 2.239009 -0.4103173
v 1.1920929E-07 2.352683 1.1920929E-07
v 0.21571669 2.239009 -0.6639074
v 0.698074 2.239009 1.1920929E-07
v -0.21571666 2.239009 -0.6639074
v 0.5647538 2.239009 0.41031754
v -0.56475353 2.239009 -0.4103173
v 0.21571684 2.239009 0.66390765
v -0.69807374 2.239009 1.1920929E-07
v -0.21571645 2.239009 0.66390765
v -0.56475353 2.239009 0.41031754
v -0.65347433 1.1110302 0.47477734
v -0.6834218 1.111324 0.49653542
v -0.26104382 1.111324 0.80341065
v -0.2496049 1.1110302 0.7682053
v -0.80773884 1.1110302 1.1920929E-07
v 0.2610441 1.111324 0.80341065
v -0.84475595 1.111324 1.1920929E-07
v 0.24960518 1.1110302 0.7682053
v -0.6534745 1.1110302 -0.47477663
v 0.683422 1.111324 0.49653494
v -0.68342197 1.111324 -0.4965347
v 0.65347457 1.1110302 0.47477686
v -0.24960503 1.1110302 -0.7682053
v 0.84475595 1.111324 1.1920929E-07
v -0.26104397 1.111324 -0.80341065
v 0.8077389 1.1110302 1.1920929E-07
v 0.24960512 1.1110302 -0.7682053
v 0.683422 1.111324 -0.49653518
v 0.26104403 1.111324 -0.80341065
v 0.65347457 1.1110302 -0.4747771
v -0.24868652 1.57313 0.7653791
v -0.26012546 1.5734237 0.80058444
v -0.68101746 1.5734237 0.4947883
v -0.65107 1.57313 0.4730302
v 0.24868679 1.57313 0.7653791
v -0.841784 1.5734237 1.1920929E-07
v 0.26012573 1.5734237 0.80058444
v -0.8047669 1.57313 1.1920929E-07
v 0.65107024 1.57313 0.4730302
v -0.6810176 1.5734237 -0.49478805
v 0.6810177 1.5734237 0.4947883
v -0.6510701 1.57313 -0.47302997
v 0.804767 1.57313 1.1920929E-07
v -0.26012558 1.5734237 -0.8005842
v 0.84178406 1.5734237 1.1920929E-07
v -0.24868664 1.57313 -0.76537883
v 0.65107024 1.57313 -0.47302997
v 0.26012564 1.5734237 -0.8005842
v 0.6810177 1.5734237 -0.49478805
v 0.24868673 1.57313 -0.76537883
vt 0.36443722 0.28780162
vt 0.36465675 0.28764212
vt 0.36382926 0.28704092
vt 0.3637454 0.28729898
vt 0.3628064 0.28704092
vt 0.36289024 0.28729898
vt 0.3619789 0.28764212
vt 0.3621984 0.28780162
vt 0.35877138 0.28022194
vt 0.35861188 0.2804187
vt 0.35958463 0.2804187
vt 0.35958463 0.28022194
vt 0.3605574 0.2804187
vt 0.36039793 0.28022194
vt 0.3621984 0.2894282
vt 0.3619789 0.2895877
vt 0.3628064 0.29018888
vt 0.36289024 0.2899308
vt 0.36382926 0.29018888
vt 0.3637454 0.2899308
vt 0.36465675 0.2895877
vt 0.36443722 0.2894282
vt 0.36198997 0.28022194
vt 0.36183047 0.2804187
vt 0.36280328 0.2804187
vt 0.36280328 0.28022194
vt 0.3637761 0.2804187
vt 0.3636166 0.28022194
vt 0.29663658 0.2804187
vt 0.29718798 0.2870172
vt 0.29723778 0.2804187
vt 0.2966058 0.2870172
vt 0.29566377 0.2804187
vt 0.29566377 0.2870172
vt 0.29469097 0.2804187
vt 0.29472172 0.2870172
vt 0.29408976 0.2804187
vt 0.29413956 0.2870172
vt 0.29832894 0.28682044
vt 0.29831272 0.28022194
vt 0.29732227 0.28022194
vt 0.29730606 0.28682044
vt 0.29087114 0.2804187
vt 0.29092094 0.2870172
vt 0.29150316 0.2870172
vt 0.29147238 0.2804187
vt 0.29244512 0.2870172
vt 0.29244512 0.2804187
vt 0.29338717 0.2870172
vt 0.2934179 0.2804187
vt 0.29396933 0.2870172
vt 0.29401916 0.2804187
vt 0.2983936 0.28022194
vt 0.29840982 0.28682044
vt 0.29940027 0.28682044
vt 0.29941648 0.28022194
vt 0.35254177 0.29254434
vt 0.35237813 0.29242548
vt 0.3516856 0.29292867
vt 0.3517481 0.293121
vt 0.35082963 0.29292867
vt 0.3507671 0.293121
vt 0.35013708 0.29242548
vt 0.34997347 0.29254434
vt 0.3534437 0.28949246
vt 0.35374692 0.2893736
vt 0.35374692 0.2885595
vt 0.3534437 0.2885595
vt 0.35374692 0.2877454
vt 0.3534437 0.2876265
vt 0.34997347 0.2906784
vt 0.35013708 0.29079726
vt 0.35082963 0.29029414
vt 0.35076714 0.2901018
vt 0.3516856 0.29029414
vt 0.3517481 0.2901018
vt 0.35237813 0.29079726
vt 0.35254177 0.2906784
vt 0.3520734 0.28949246
vt 0.3523766 0.2893736
vt 0.3523766 0.2885595
vt 0.3520734 0.2885595
vt 0.3523766 0.2877454
vt 0.3520734 0.2876265
vt 0.29342434 0.28762093
vt 0.2944423 0.28704992
vt 0.29342434 0.28704092
vt 0.2944423 0.2876265
vt 0.29342434 0.2885595
vt 0.2944423 0.2885595
vt 0.29342434 0.28949803
vt 0.2944423 0.28949246
vt 0.29342434 0.29007807
vt 0.2944423 0.29006907
vt 0.29662693 0.2912306
vt 0.296624 0.2902126
vt 0.295643 0.2902126
vt 0.29564005 0.2912306
vt 0.29205403 0.28762093
vt 0.293072 0.28704992
vt 0.29205403 0.28704092
vt 0.293072 0.2876265
vt 0.29205403 0.2885595
vt 0.293072 0.2885595
vt 0.29205403 0.28949803
vt 0.293072 0.28949246
vt 0.29205403 0.29007807
vt 0.293072 0.29006907
vt 0.29668134 0.2902126
vt 0.29668427 0.2912306
vt 0.29766524 0.2912306
vt 0.29766816 0.2902126
vt 0.2041561 0.287453
vt 0.20507294 0.28684977
vt 0.2041561 0.28684416
vt 0.20507294 0.28745648
vt 0.2041561 0.28843817
vt 0.20507294 0.28843817
vt 0.2041561 0.28942338
vt 0.20507294 0.28941992
vt 0.2041561 0.29003224
vt 0.20507294 0.29002663
vt 0.20019221 0.2901018
vt 0.19927537 0.29010358
vt 0.19927537 0.29113582
vt 0.20019221 0.29113767
vt 0.20319009 0.287453
vt 0.20410693 0.28684977
vt 0.20319009 0.28684416
vt 0.20410693 0.28745648
vt 0.20319009 0.28843817
vt 0.20410693 0.28843817
vt 0.20319009 0.28942338
vt 0.20410693 0.28941992
vt 0.20319009 0.29003224
vt 0.20410693 0.29002663
vt 0.2002472 0.29124847
vt 0.20116407 0.29124668
vt 0.20116407 0.29021445
vt 0.2002472 0.2902126
vt 0.29660589 0.28729898
vt 0.29617828 0.2886149
vt 0.29729772 0.28780162
vt 0.29575074 0.28729898
vt 0.29617828 0.2886149
vt 0.29756197 0.2886149
vt 0.29729772 0.2894282
vt 0.2950589 0.28780162
vt 0.29617828 0.2886149
vt 0.29479468 0.2886149
vt 0.29617828 0.2886149
vt 0.29660589 0.2899308
vt 0.29575074 0.2899308
vt 0.2950589 0.2894282
vt 0.29617828 0.2886149
vt 0.38137016 0.2959859
vt 0.38024965 0.29517177
vt 0.38067767 0.2964891
vt 0.38163474 0.29517177
vt 0.3798217 0.2964891
vt 0.38137016 0.2943577
vt 0.37912914 0.2959859
vt 0.38067767 0.29385456
vt 0.37886462 0.29517177
vt 0.3798217 0.29385456
vt 0.37912914 0.2943577
vt 0.30201715 0.2831946
vt 0.3020603 0.283254
vt 0.30266917 0.28241596
vt 0.30259937 0.28239328
vt 0.3010752 0.28350067
vt 0.30266917 0.2813801
vt 0.3010752 0.2835741
vt 0.30259937 0.2814028
vt 0.30013317 0.2831946
vt 0.3020603 0.28054205
vt 0.30009001 0.283254
vt 0.30201715 0.28060147
vt 0.299551 0.28239328
vt 0.3010752 0.28022194
vt 0.29948115 0.28241596
vt 0.3010752 0.28029534
vt 0.299551 0.2814028
vt 0.30009001 0.28054205
vt 0.29948115 0.2813801
vt 0.30013317 0.28060147
vt 0.23399937 0.28576145
vt 0.23392951 0.28578413
vt 0.23453623 0.28661922
vt 0.23457938 0.2865598
vt 0.23399937 0.2847746
vt 0.23551792 0.28693822
vt 0.23392951 0.2847519
vt 0.23551792 0.28686473
vt 0.23457938 0.28397623
vt 0.23649961 0.28661922
vt 0.23453623 0.2839168
vt 0.23645645 0.2865598
vt 0.23551792 0.28367126
vt 0.23710632 0.28578413
vt 0.23551792 0.2835978
vt 0.23703653 0.28576145
vt 0.23645645 0.28397623
vt 0.23710632 0.2847519
vt 0.23649961 0.2839168
vt 0.23703653 0.2847746
vn 0.47490704 -0.8095743 -0.34504023
vn 0.4749068 -0.8095743 -0.3450406
vn 0.18139833 -0.80957437 -0.5582866
vn 0.18139835 -0.80957437 -0.5582866
vn -0.18139854 -0.8095743 -0.5582867
vn -0.18139862 -0.8095743 -0.5582867
vn -0.4749073 -0.8095743 -0.34504
vn -0.4749072 -0.8095743 -0.34504008
vn -0.4749072 -0.8095743 -0.34504008
vn -0.4749073 -0.8095743 -0.34504
vn -0.5870173 -0.80957437 0
vn -0.5870173 -0.80957437 0
vn -0.47490665 -0.8095744 0.3450405
vn -0.47490686 -0.80957437 0.34504023
vn -0.47490686 -0.80957437 0.34504023
vn -0.47490665 -0.8095744 0.3450405
vn -0.18139836 -0.8095742 0.5582868
vn -0.18139835 -0.8095742 0.55828685
vn 0.18139866 -0.80957437 0.55828655
vn 0.18139875 -0.8095743 0.55828655
vn 0.47490752 -0.8095742 0.3450398
vn 0.4749075 -0.8095741 0.34503987
vn 0.4749075 -0.8095741 0.34503987
vn 0.47490752 -0.8095742 0.3450398
vn 0.58701754 -0.8095742 0
vn 0.5870176 -0.8095742 0
vn 0.4749068 -0.8095743 -0.3450406
vn 0.47490704 -0.8095743 -0.34504023
vn 0.80899155 0.007935651 -0.58776665
vn 0.3090071 0.007935647 -0.95102656
vn 0.3090071 0.007935647 -0.95102656
vn 0.80899155 0.007935651 -0.58776665
vn 0.9999685 0.00793565 0
vn 0.9999685 0.00793565 0
vn 0.8089916 0.00793566 0.58776665
vn 0.80899155 0.007935659 0.58776665
vn 0.30900753 0.0079357 0.9510265
vn 0.30900756 0.007935702 0.9510265
vn 0.3090071 0.007935647 -0.95102656
vn 0.3090071 0.007935647 -0.95102656
vn -0.30900753 0.007935649 -0.9510265
vn -0.30900759 0.007935651 -0.9510265
vn -0.30900759 0.007935651 -0.9510265
vn -0.30900753 0.007935649 -0.9510265
vn -0.80899155 0.007935637 -0.58776665
vn -0.80899155 0.007935636 -0.58776665
vn -0.9999685 0.007935631 0
vn -0.9999685 0.007935631 0
vn -0.80899155 0.007935654 0.5877668
vn -0.80899143 0.007935653 0.5877668
vn -0.30900702 0.0079357 0.9510267
vn -0.30900702 0.007935699 0.9510267
vn -0.30900702 0.007935699 0.9510267
vn -0.30900702 0.0079357 0.9510267
vn 0.30900756 0.007935702 0.9510265
vn 0.30900753 0.0079357 0.9510265
vn 0.6730327 0.55490434 -0.48898703
vn 0.67303276 0.5549042 -0.48898694
vn 0.25707558 0.55490464 -0.7911971
vn 0.25707552 0.5549047 -0.7911971
vn -0.25707567 0.5549045 -0.79119724
vn -0.25707564 0.5549045 -0.79119724
vn -0.6730327 0.5549042 -0.48898703
vn -0.6730327 0.5549042 -0.488987
vn -0.6730327 0.5549042 -0.488987
vn -0.6730327 0.5549042 -0.48898703
vn -0.8319144 0.55490404 0
vn -0.8319144 0.55490404 0
vn -0.67303276 0.554904 0.48898736
vn -0.6730327 0.5549039 0.48898745
vn -0.6730327 0.5549039 0.48898745
vn -0.67303276 0.554904 0.48898736
vn -0.25707534 0.55490404 0.7911977
vn -0.2570755 0.55490404 0.79119766
vn 0.2570755 0.5549039 0.7911977
vn 0.25707546 0.5549039 0.7911977
vn 0.6730327 0.55490386 0.48898736
vn 0.6730327 0.55490386 0.48898745
vn 0.6730327 0.55490386 0.48898745
vn 0.6730327 0.55490386 0.48898736
vn 0.8319145 0.55490386 0
vn 0.8319145 0.55490386 0
vn 0.67303276 0.5549042 -0.48898694
vn 0.6730327 0.55490434 -0.48898703
vn -0.8089821 0.009290579 0.58775985
vn -0.3090038 0.009290786 0.9510155
vn -0.3090038 0.009290787 0.9510155
vn -0.8089821 0.009290579 0.58775985
vn -0.99995685 0.009290491 0
vn -0.99995685 0.00929049 0
vn -0.8089821 0.009290573 -0.5877599
vn -0.8089821 0.009290574 -0.58775985
vn -0.30900386 0.009290638 -0.95101535
vn -0.3090039 0.009290639 -0.95101535
vn 0.30900377 0.009290571 -0.9510155
vn 0.30900374 0.009290571 -0.9510155
vn -0.3090039 0.009290639 -0.95101535
vn -0.30900386 0.009290638 -0.95101535
vn 0.8089821 0.009290486 -0.5877598
vn 0.30900374 0.009290571 -0.9510155
vn 0.30900377 0.009290571 -0.9510155
vn 0.8089821 0.0092904875 -0.58775985
vn 0.99995685 0.009290489 0
vn 0.99995685 0.009290492 0
vn 0.8089821 0.009290572 0.5877599
vn 0.8089821 0.009290571 0.58775985
vn 0.3090038 0.009290761 0.9510155
vn 0.3090038 0.009290761 0.95101535
vn -0.3090038 0.009290787 0.9510155
vn -0.3090038 0.009290786 0.9510155
vn 0.3090038 0.009290761 0.95101535
vn 0.3090038 0.009290761 0.9510155
vn -0.8090002 0.006431341 0.58777314
vn -0.30901057 0.0064309235 0.9510368
vn -0.30901065 0.006430924 0.9510368
vn -0.8090004 0.0064313407 0.5877731
vn -0.9999794 0.0064313766 0
vn -0.9999794 0.0064313775 0
vn -0.8090004 0.0064311572 -0.58777297
vn -0.80900025 0.006431157 -0.587773
vn -0.30901086 0.0064311083 -0.95103675
vn -0.30901083 0.006431108 -0.95103675
vn 0.30901068 0.006431292 -0.9510368
vn 0.30901065 0.0064312913 -0.9510368
vn -0.30901083 0.006431108 -0.95103675
vn -0.30901086 0.0064311083 -0.95103675
vn 0.80900025 0.0064313747 -0.5877731
vn 0.30901065 0.0064312913 -0.9510368
vn 0.30901068 0.006431292 -0.9510368
vn 0.80900043 0.0064313747 -0.5877729
vn 0.9999794 0.0064312466 0
vn 0.9999794 0.006431247 0
vn 0.80900043 0.006430967 0.5877729
vn 0.80900025 0.006430967 0.587773
vn 0.30901086 0.0064307135 0.95103675
vn 0.30901083 0.0064307135 0.95103675
vn -0.30901065 0.006430924 0.9510368
vn -0.30901057 0.0064309235 0.9510368
vn 0.30901083 0.0064307135 0.95103675
vn 0.30901086 0.0064307135 0.95103675
vn 0.034390528 -0.9982869 -0.047334693
vn 0.034390524 -0.9982869 -0.04733469
vn 0.034390528 -0.9982869 -0.04733469
vn -0 -0.9982869 -0.058508385
vn 0.055645 -0.9982869 0.01808009
vn 0.055644996 -0.9982869 0.018080086
vn 0.034390535 -0.9982869 0.047334287
vn -0.034390524 -0.9982868 -0.0473351
vn -0.034390524 -0.9982868 -0.047335103
vn -0.055645 -0.9982869 -0.018080087
vn -0 -0.9982869 0.058508817
vn -0 -0.9982869 0.058508817
vn -0.034390528 -0.9982869 0.047333866
vn -0.055645008 -0.9982869 0.018080924
vn -0.055645004 -0.9982869 0.018080924
vn 0.13002744 0.9869996 -0.0944704
vn -0 1 0
vn 0.049666055 0.9869996 -0.15285634
vn 0.16072275 0.9869996 0
vn -0.04966607 0.9869996 -0.15285635
vn 0.13002744 0.9869997 0.09447021
vn -0.13002744 0.9869996 -0.094470404
vn 0.049666077 0.9869997 0.15285619
vn -0.16072275 0.9869996 0
vn -0.04966606 0.9869996 0.15285635
vn -0.13002743 0.9869996 0.09447039
vn -0.006419367 -0.9999685 0.0046637245
vn -0.006419368 -0.9999685 0.0046637217
vn -0.0024519789 -0.9999685 0.007546072
vn -0.0024519775 -0.9999685 0.0075460724
vn -0.007934773 -0.9999685 0
vn 0.0024519833 -0.9999685 0.007547133
vn -0.007934773 -0.9999685 0
vn 0.002451982 -0.9999685 0.007547133
vn -0.0064193676 -0.9999685 -0.004664163
vn 0.006419376 -0.9999685 0.004664585
vn -0.0064193686 -0.9999685 -0.004664162
vn 0.0064193746 -0.9999685 0.004664585
vn -0.0024519814 -0.9999685 -0.0075467653
vn 0.007934787 -0.9999685 0
vn -0.0024519823 -0.9999685 -0.007546766
vn 0.007934787 -0.9999685 0
vn 0.0024519807 -0.9999685 -0.0075473655
vn 0.006419374 -0.9999685 -0.0046643484
vn 0.00245198 -0.9999685 -0.007547367
vn 0.0064193723 -0.9999685 -0.0046643494
vn 0.0024519812 0.9999685 -0.007544796
vn 0.0024519823 0.9999685 -0.007544796
vn 0.006419379 0.9999685 -0.004664861
vn 0.0064193774 0.9999685 -0.004664862
vn -0.0024519826 0.9999685 -0.0075440686
vn 0.007934782 0.9999685 0
vn -0.002451984 0.9999685 -0.007544068
vn 0.007934782 0.9999685 0
vn -0.0064193755 0.9999685 -0.0046642395
vn 0.006419368 0.9999685 0.004664025
vn -0.006419377 0.9999685 -0.004664239
vn 0.0064193686 0.9999685 0.0046640257
vn -0.007934788 0.9999685 0
vn 0.0024519833 0.9999685 0.007547393
vn -0.007934788 0.9999685 0
vn 0.0024519817 0.9999685 0.007547392
vn -0.006419374 0.9999685 0.0046652253
vn -0.002451981 0.9999685 0.0075484836
vn -0.0064193755 0.9999685 0.0046652243
vn -0.002451982 0.9999685 0.007548483
g Prop_BoxingBag_0
f 3/3/3 2/2/2 1/1/1
f 4/4/4 3/3/3 1/1/1
f 5/5/5 3/3/3 4/4/4
f 6/6/6 5/5/5 4/4/4
f 7/7/7 5/5/5 6/6/6
f 8/8/8 7/7/7 6/6/6
f 11/11/11 10/10/10 9/9/9
f 12/12/12 11/11/11 9/9/9
f 13/13/13 11/11/11 12/12/12
f 14/14/14 13/13/13 12/12/12
f 17/17/17 16/16/16 15/15/15
f 18/18/18 17/17/17 15/15/15
f 19/19/19 17/17/17 18/18/18
f 20/20/20 19/19/19 18/18/18
f 21/21/21 19/19/19 20/20/20
f 22/22/22 21/21/21 20/20/20
f 25/25/25 24/24/24 23/23/23
f 26/26/26 25/25/25 23/23/23
f 27/27/27 25/25/25 26/26/26
f 28/28/28 27/27/27 26/26/26
f 31/31/31 30/30/30 29/29/29
f 30/30/30 32/32/32 29/29/29
f 29/29/29 32/32/32 33/33/33
f 32/32/32 34/34/34 33/33/33
f 33/33/33 34/34/34 35/35/35
f 34/34/34 36/36/36 35/35/35
f 35/35/35 36/36/36 37/37/37
f 36/36/36 38/38/38 37/37/37
f 41/41/41 40/40/40 39/39/39
f 42/42/42 41/41/41 39/39/39
f 45/45/45 44/44/44 43/43/43
f 46/46/46 45/45/45 43/43/43
f 47/47/47 45/45/45 46/46/46
f 48/48/48 47/47/47 46/46/46
f 49/49/49 47/47/47 48/48/48
f 50/50/50 49/49/49 48/48/48
f 51/51/51 49/49/49 50/50/50
f 52/52/52 51/51/51 50/50/50
f 55/55/55 54/54/54 53/53/53
f 56/56/56 55/55/55 53/53/53
f 59/59/59 58/58/58 57/57/57
f 60/60/60 59/59/59 57/57/57
f 61/61/61 59/59/59 60/60/60
f 62/62/62 61/61/61 60/60/60
f 63/63/63 61/61/61 62/62/62
f 64/64/64 63/63/63 62/62/62
f 67/67/67 66/66/66 65/65/65
f 68/68/68 67/67/67 65/65/65
f 69/69/69 67/67/67 68/68/68
f 70/70/70 69/69/69 68/68/68
f 73/73/73 72/72/72 71/71/71
f 74/74/74 73/73/73 71/71/71
f 75/75/75 73/73/73 74/74/74
f 76/76/76 75/75/75 74/74/74
f 77/77/77 75/75/75 76/76/76
f 78/78/78 77/77/77 76/76/76
f 81/81/81 80/80/80 79/79/79
f 82/82/82 81/81/81 79/79/79
f 83/83/83 81/81/81 82/82/82
f 84/84/84 83/83/83 82/82/82
f 87/87/87 86/86/86 85/85/85
f 86/86/86 88/88/88 85/85/85
f 85/85/85 88/88/88 89/89/89
f 88/88/88 90/90/90 89/89/89
f 89/89/89 90/90/90 91/91/91
f 90/90/90 92/92/92 91/91/91
f 91/91/91 92/92/92 93/93/93
f 92/92/92 94/94/94 93/93/93
f 97/97/97 96/96/96 95/95/95
f 98/98/98 97/97/97 95/95/95
f 101/101/101 100/100/100 99/99/99
f 100/100/100 102/102/102 99/99/99
f 99/99/99 102/102/102 103/103/103
f 102/102/102 104/104/104 103/103/103
f 103/103/103 104/104/104 105/105/105
f 104/104/104 106/106/106 105/105/105
f 105/105/105 106/106/106 107/107/107
f 106/106/106 108/108/108 107/107/107
f 111/111/111 110/110/110 109/109/109
f 112/112/112 111/111/111 109/109/109
f 115/115/115 114/114/114 113/113/113
f 114/114/114 116/116/116 113/113/113
f 113/113/113 116/116/116 117/117/117
f 116/116/116 118/118/118 117/117/117
f 117/117/117 118/118/118 119/119/119
f 118/118/118 120/120/120 119/119/119
f 119/119/119 120/120/120 121/121/121
f 120/120/120 122/122/122 121/121/121
f 125/125/125 124/124/124 123/123/123
f 126/126/126 125/125/125 123/123/123
f 129/129/129 128/128/128 127/127/127
f 128/128/128 130/130/130 127/127/127
f 127/127/127 130/130/130 131/131/131
f 130/130/130 132/132/132 131/131/131
f 131/131/131 132/132/132 133/133/133
f 132/132/132 134/134/134 133/133/133
f 133/133/133 134/134/134 135/135/135
f 134/134/134 136/136/136 135/135/135
f 139/139/139 138/138/138 137/137/137
f 140/140/140 139/139/139 137/137/137
f 143/143/143 142/142/142 141/141/141
f 141/141/141 142/142/142 144/144/144
f 146/146/146 145/145/145 143/143/143
f 147/147/147 145/145/145 146/146/146
f 144/144/144 149/149/149 148/148/148
f 148/148/148 149/149/149 150/150/150
f 152/152/152 151/151/151 147/147/147
f 153/153/153 151/151/151 152/152/152
f 150/150/150 155/155/155 154/154/154
f 154/154/154 155/155/155 153/153/153
f 158/158/158 157/157/157 156/156/156
f 156/156/156 157/157/157 159/159/159
f 160/160/160 157/157/157 158/158/158
f 159/159/159 157/157/157 161/161/161
f 162/162/162 157/157/157 160/160/160
f 161/161/161 157/157/157 163/163/163
f 164/164/164 157/157/157 162/162/162
f 163/163/163 157/157/157 165/165/165
f 166/166/166 157/157/157 164/164/164
f 165/165/165 157/157/157 166/166/166
f 169/169/169 168/168/168 167/167/167
f 170/170/170 169/169/169 167/167/167
f 167/167/167 168/168/168 171/171/171
f 172/172/172 169/169/169 170/170/170
f 168/168/168 173/173/173 171/171/171
f 174/174/174 172/172/172 170/170/170
f 171/171/171 173/173/173 175/175/175
f 176/176/176 172/172/172 174/174/174
f 173/173/173 177/177/177 175/175/175
f 178/178/178 176/176/176 174/174/174
f 175/175/175 177/177/177 179/179/179
f 180/180/180 176/176/176 178/178/178
f 177/177/177 181/181/181 179/179/179
f 182/182/182 180/180/180 178/178/178
f 179/179/179 181/181/181 183/183/183
f 184/184/184 180/180/180 182/182/182
f 181/181/181 185/185/185 183/183/183
f 186/186/186 184/184/184 182/182/182
f 183/183/183 185/185/185 186/186/186
f 185/185/185 184/184/184 186/186/186
f 189/189/189 188/188/188 187/187/187
f 190/190/190 189/189/189 187/187/187
f 187/187/187 188/188/188 191/191/191
f 192/192/192 189/189/189 190/190/190
f 188/188/188 193/193/193 191/191/191
f 194/194/194 192/192/192 190/190/190
f 191/191/191 193/193/193 195/195/195
f 196/196/196 192/192/192 194/194/194
f 193/193/193 197/197/197 195/195/195
f 198/198/198 196/196/196 194/194/194
f 195/195/195 197/197/197 199/199/199
f 200/200/200 196/196/196 198/198/198
f 197/197/197 201/201/201 199/199/199
f 202/202/202 200/200/200 198/198/198
f 199/199/199 201/201/201 203/203/203
f 204/204/204 200/200/200 202/202/202
f 201/201/201 205/205/205 203/203/203
f 206/206/206 204/204/204 202/202/202
f 203/203/203 205/205/205 206/206/206
f 205/205/205 204/204/204 206/206/206
