g Props_Docks_SeaWeedRail
v -0.232871 -0.879258 0.220266
v -0.25159 -0.938453 0.268672
v -0.346854 -0.767837 0.201823
v -0.237758 -0.717695 0.216488
v -0.341377 -0.625438 0.211403
v -0.258537 -0.625438 0.21345
v -0.305086 -0.487984 0.215746
v -0.2159 -0.494639 0.205654
v -0.350182 -0.334405 0.248338
v -0.219363 -0.335158 0.25018
v -0.351456 -0.178183 0.286895
v -0.200703 -0.178072 0.290826
v -0.275477 -0.053506 0.269075
v -0.157285 -0.051454 0.275786
v -0.157285 -0.051454 0.275786
v -0.275477 -0.053506 0.269075
v -0.295456 0.018573 0.151692
v -0.145537 0.019323 0.156782
v -0.35986 0.029882 -0.009097
v -0.175133 0.029882 -0.004532
v -0.04967 -1.134479 0.306177
v -0.125028 -1.193521 0.354034
v -0.122753 -1.022072 0.224372
v 0.026552 -1.014679 0.236769
v -0.160727 -0.861905 0.23089
v -0.077877 -0.861905 0.232479
v -0.238943 -0.676 0.2333
v -0.088735 -0.685001 0.223885
v -0.188068 -0.468287 0.267978
v -0.05724 -0.469306 0.269095
v -0.189128 -0.257 0.306541
v -0.038356 -0.256849 0.309637
v -0.113249 -0.088375 0.288301
v 0.004978 -0.085601 0.294357
v 0.004978 -0.085601 0.294357
v -0.113249 -0.088375 0.288301
v -0.133878 0.00911 0.171029
v 0.016067 0.010124 0.17529
v -0.176946 0.024405 -0.003543
v -0.037422 0.024405 0
v 0.192859 -0.900322 0.246044
v 0.142896 -0.938287 0.251591
v 0.151997 -0.786695 0.245237
v 0.28772 -0.794575 0.24791
v 0.129677 -0.649589 0.253529
v 0.212083 -0.649589 0.244827
v 0.118425 -0.54736 0.260093
v 0.186688 -0.554799 0.237632
v 0.107148 -0.375706 0.293722
v 0.237103 -0.376548 0.2786
v 0.146806 -0.201099 0.328325
v 0.224946 -0.200974 0.32028
v 0.114534 -0.061747 0.311932
v 0.271757 -0.059454 0.299139
v 0.271757 -0.059454 0.299139
v 0.114534 -0.061747 0.311932
v 0.148891 0.030403 0.1908
v 0.298207 0.031241 0.176424
v 0.055133 0.015898 0.000606
v 0.238894 0.015898 -0.018799
v -0.35092 -0.640558 0.323578
v -0.374937 -0.684764 0.359572
v -0.43529 -0.611172 0.253296
v -0.343958 -0.580484 0.283278
v -0.454086 -0.52965 0.273738
v -0.388308 -0.511054 0.290826
v -0.46921 -0.424992 0.295049
v -0.399059 -0.439852 0.283183
v -0.484846 -0.24921 0.300819
v -0.350897 -0.261498 0.294516
v -0.425661 -0.099095 0.31018
v -0.350066 -0.105091 0.308906
v -0.386123 -0.022757 0.275826
v -0.325907 -0.024748 0.277988
v -0.325907 -0.024748 0.277988
v -0.386123 -0.022757 0.275826
v -0.419749 0.039371 0.148449
v -0.306288 0.030945 0.146045
v -0.412 0.031303 -0.020374
v -0.307255 0.022694 -0.022849
v 0.349504 -0.622651 0.220266
v 0.306722 -0.635227 0.268672
v 0.331733 -0.48671 0.201823
v 0.429392 -0.546208 0.216488
v 0.300754 -0.418173 0.211403
v 0.383594 -0.418173 0.21345
v 0.337045 -0.324193 0.215746
v 0.426231 -0.328743 0.205654
v 0.386255 -0.219188 0.248338
v 0.445591 -0.219703 0.25018
v 0.385678 -0.112376 0.286895
v 0.454056 -0.1123 0.290826
v 0.366654 -0.027132 0.269075
v 0.484846 -0.025729 0.275786
v 0.484846 -0.025729 0.275786
v 0.366654 -0.027132 0.269075
v 0.325615 0.02215 0.151692
v 0.475536 0.022663 0.156782
v 0.268558 0.029882 -0.009097
v 0.453284 0.029882 -0.004532
v 0.028612 -0.729847 0.325296
v -0.020899 -0.763879 0.358049
v -0.022532 -0.676646 0.262894
v 0.076761 -0.663515 0.275164
v 0.022905 -0.589532 0.283688
v 0.092791 -0.583554 0.288297
v 0.020491 -0.504558 0.301623
v 0.08977 -0.507023 0.295861
v -0.015291 -0.33329 0.320156
v 0.11718 -0.322966 0.327074
v -0.051364 -0.185872 0.323861
v 0.023908 -0.179187 0.330196
v -0.038003 -0.047398 0.294473
v 0.04315 -0.037797 0.303831
v 0.04315 -0.037797 0.303831
v -0.038003 -0.047398 0.294473
v -0.059024 0.02081 0.169796
v 0.053912 0.031455 0.178861
v -0.095946 0.018048 0.002288
v 0.008482 0.027084 0.01034
vt 0.322343 0.309412
vt 0.322343 0.305175
vt 0.290737 0.305175
vt 0.290737 0.309412
vt 0.259132 0.305175
vt 0.259132 0.309412
vt 0.227527 0.305175
vt 0.227527 0.309412
vt 0.195923 0.305175
vt 0.195923 0.309412
vt 0.164318 0.305175
vt 0.164318 0.309412
vt 0.132713 0.305175
vt 0.132713 0.309412
vt 0.132713 0.309412
vt 0.132713 0.305175
vt 0.101108 0.305175
vt 0.101108 0.309412
vt 0.069503 0.305175
vt 0.069502 0.309412
vt 0.393376 0.309412
vt 0.393376 0.305175
vt 0.361771 0.305175
vt 0.361771 0.309412
vt 0.330166 0.305175
vt 0.330166 0.309412
vt 0.298561 0.305175
vt 0.298561 0.309412
vt 0.266956 0.305175
vt 0.266956 0.309412
vt 0.235351 0.305175
vt 0.235351 0.309412
vt 0.203746 0.305175
vt 0.203746 0.309412
vt 0.203746 0.309412
vt 0.203746 0.305175
vt 0.172141 0.305175
vt 0.172141 0.309412
vt 0.140536 0.305175
vt 0.140536 0.309412
vt 0.452952 0.309412
vt 0.452952 0.305175
vt 0.421347 0.305175
vt 0.421347 0.309412
vt 0.389742 0.305175
vt 0.389742 0.309412
vt 0.358137 0.305175
vt 0.358137 0.309412
vt 0.326532 0.305175
vt 0.326532 0.309412
vt 0.294927 0.305175
vt 0.294927 0.309412
vt 0.263322 0.305175
vt 0.263322 0.309412
vt 0.263322 0.309412
vt 0.263322 0.305175
vt 0.231717 0.305175
vt 0.231717 0.309412
vt 0.200112 0.305175
vt 0.200112 0.309412
vt 0.393376 0.309412
vt 0.393376 0.305175
vt 0.361771 0.305175
vt 0.361771 0.309412
vt 0.330166 0.305175
vt 0.330166 0.309412
vt 0.298561 0.305175
vt 0.298561 0.309412
vt 0.266956 0.305175
vt 0.266956 0.309412
vt 0.235351 0.305175
vt 0.235351 0.309412
vt 0.203746 0.305175
vt 0.203746 0.309412
vt 0.203746 0.309412
vt 0.203746 0.305175
vt 0.172141 0.305175
vt 0.172141 0.309412
vt 0.140536 0.305175
vt 0.140536 0.309412
vt 0.322343 0.309412
vt 0.322343 0.305175
vt 0.290737 0.305175
vt 0.290737 0.309412
vt 0.259132 0.305175
vt 0.259132 0.309412
vt 0.227527 0.305175
vt 0.227527 0.309412
vt 0.195923 0.305175
vt 0.195923 0.309412
vt 0.164318 0.305175
vt 0.164318 0.309412
vt 0.132713 0.305175
vt 0.132713 0.309412
vt 0.132713 0.309412
vt 0.132713 0.305175
vt 0.101108 0.305175
vt 0.101108 0.309412
vt 0.069503 0.305175
vt 0.069502 0.309412
vt 0.350224 0.309412
vt 0.350224 0.305175
vt 0.318619 0.305175
vt 0.318619 0.309412
vt 0.287014 0.305175
vt 0.287014 0.309412
vt 0.255408 0.305175
vt 0.255408 0.309412
vt 0.223804 0.305175
vt 0.223804 0.309412
vt 0.192199 0.305175
vt 0.192199 0.309412
vt 0.160594 0.305175
vt 0.160594 0.309412
vt 0.160594 0.309412
vt 0.160594 0.305175
vt 0.128989 0.305175
vt 0.128989 0.309412
vt 0.097384 0.305175
vt 0.097384 0.309412
vn 0.063446976 0.22581193 0.97210264
vn 0.063446976 0.22581193 0.97210264
vn 0.008809997 0.12717095 0.9918417
vn -0.015735993 0.082380965 0.9964766
vn -0.021672009 -0.01842201 0.99959546
vn -0.013729008 -0.01638601 0.99977154
vn 0.035538003 -0.14848402 0.98827606
vn 0.035611983 -0.14754094 0.98841465
vn -0.0014830006 -0.2405351 0.97063935
vn 0.00028399998 -0.24020997 0.9707209
vn -0.027455013 -0.11664205 0.99279445
vn -0.030867012 -0.050787024 0.9982324
vn -0.040009983 0.5328877 0.8452396
vn -0.03881099 0.62015086 0.7835219
vn -0.03881099 0.62015086 0.7835219
vn -0.040009983 0.5328877 0.8452396
vn -0.013576003 0.97505116 0.22156504
vn -0.01665599 0.96219945 0.27183586
vn -0.0042260014 0.99761033 0.06896302
vn -0.0042260014 0.99761033 0.06896302
vn -0.039450005 0.5710711 0.81995213
vn -0.039450005 0.5710711 0.81995213
vn -0.052460987 0.26481593 0.96287084
vn -0.051674996 0.28941497 0.9558079
vn -0.0005289998 0.0032259987 0.99999464
vn -0.017796993 -0.007750997 0.9998116
vn 0.026705004 -0.11431901 0.99308515
vn 0.027474985 -0.10107394 0.99449944
vn 0.0047430005 -0.18646003 0.98245114
vn 0.0022060007 -0.18601006 0.9825454
vn -0.022528004 -0.079199016 0.9966042
vn -0.025038999 -0.042258993 0.9987929
vn -0.03787002 0.42943522 0.9023034
vn -0.037944015 0.49482414 0.8681643
vn -0.037944015 0.49482414 0.8681643
vn -0.03787002 0.42943522 0.9023034
vn -0.017910993 0.9506566 0.30972785
vn -0.021398997 0.9270018 0.37444592
vn -0.0058030025 0.99629337 0.08582504
vn -0.0058030025 0.99629337 0.08582504
vn 0.013538999 0.011963997 0.9998368
vn 0.013538999 0.011963997 0.9998368
vn 0.021904994 -0.0007579998 0.99975973
vn 0.021939 -0.00080900005 0.999759
vn 0.09365104 0.009739005 0.9955575
vn 0.07032799 0.0031519998 0.9975189
vn 0.181227 -0.162141 0.969983
vn 0.18418597 -0.13974898 0.9729058
vn 0.140482 -0.22188099 0.9649009
vn 0.137805 -0.22171 0.965326
vn 0.098766945 -0.056477975 0.99350655
vn 0.09807998 -0.04506199 0.9941578
vn 0.06858498 0.5429698 0.8369468
vn 0.06327799 0.61583495 0.78532994
vn 0.06327799 0.61583495 0.78532994
vn 0.06858498 0.5429698 0.8369468
vn 0.013111997 0.97721183 0.21186095
vn 0.0129999975 0.97751176 0.21047994
vn -0.009940995 0.9972615 -0.07328396
vn -0.009940995 0.9972615 -0.07328396
vn -0.36490896 0.61792594 0.6964259
vn -0.36490914 0.6179252 0.6964263
vn -0.3069721 0.13793205 0.9416703
vn -0.31972796 0.203014 0.9255049
vn -0.13395205 -0.18760307 0.97306836
vn -0.130405 -0.183822 0.974271
vn 0.060951 -0.060295 0.996318
vn 0.04860901 -0.063189015 0.9968172
vn 0.057480976 -0.06791897 0.9960336
vn 0.055802 -0.068794 0.99606895
vn 0.026892995 0.0035869996 0.9996319
vn 0.025858 0.047171 0.998552
vn 0.044922 0.781072 0.622823
vn 0.047017008 0.8084941 0.5866231
vn 0.047017008 0.8084941 0.5866231
vn 0.044922 0.781072 0.622823
vn 0.07051198 0.9894638 0.12644897
vn 0.07037801 0.98906624 0.12959503
vn 0.07670798 0.99596477 -0.04658299
vn 0.07670798 0.99596477 -0.04658299
vn 0.28220388 0.16510393 0.9450405
vn 0.28220388 0.16510393 0.9450405
vn 0.030217007 0.011149003 0.99948126
vn 0.16768909 0.09505605 0.98124653
vn -0.03301999 -0.039020993 0.9986927
vn -0.032663994 -0.038852997 0.9987109
vn 0.044622995 -0.14774798 0.9880179
vn 0.043351017 -0.21425009 0.9758164
vn 0.0064740027 -0.34831715 0.93735445
vn -0.0016929997 -0.34784397 0.9375509
vn -0.053243995 -0.046804998 0.99748397
vn -0.05365302 -0.029447012 0.9981254
vn -0.03519899 0.80860376 0.5872999
vn -0.03692901 0.78578824 0.6173921
vn -0.03692901 0.78578824 0.6173921
vn -0.03519899 0.80860376 0.5872999
vn -0.008928 0.98924303 0.146008
vn -0.011999998 0.9804638 0.19633298
vn -0.0028889999 0.998887 0.047079
vn -0.0028889999 0.998887 0.047079
vn -0.12584396 0.70164275 0.70132774
vn -0.12584396 0.70164275 0.70132774
vn -0.12116702 0.42891005 0.89518416
vn -0.106840976 0.16354297 0.98073375
vn -0.045431975 -0.16516191 0.9852195
vn -0.032325003 -0.16301903 0.98609316
vn 0.002267999 -0.14212193 0.9898465
vn 0.0026739999 -0.14267597 0.9897658
vn -0.030480994 -0.093560986 0.9951468
vn -0.024628993 -0.10232797 0.9944457
vn -0.084771 0.056664992 0.99478793
vn -0.08279299 0.048190996 0.99540097
vn -0.14069602 0.62817204 0.76524806
vn -0.14110802 0.6566921 0.7408401
vn -0.14110802 0.6566921 0.7408401
vn -0.14069602 0.62817204 0.76524806
vn -0.110345975 0.97685677 0.18323396
vn -0.116399966 0.9626187 0.24457392
vn -0.09025195 0.99591845 0.0009759994
vn -0.09025204 0.99591845 0.00097600045
g Props_Docks_SeaWeedRail_0
f 3/3/3 2/2/2 1/1/1
f 4/4/4 3/3/3 1/1/1
f 5/5/5 3/3/3 4/4/4
f 6/6/6 5/5/5 4/4/4
f 7/7/7 5/5/5 6/6/6
f 8/8/8 7/7/7 6/6/6
f 9/9/9 7/7/7 8/8/8
f 10/10/10 9/9/9 8/8/8
f 11/11/11 9/9/9 10/10/10
f 12/12/12 11/11/11 10/10/10
f 13/13/13 11/11/11 12/12/12
f 14/14/14 13/13/13 12/12/12
f 17/17/17 16/16/16 15/15/15
f 18/18/18 17/17/17 15/15/15
f 19/19/19 17/17/17 18/18/18
f 20/20/20 19/19/19 18/18/18
f 23/23/23 22/22/22 21/21/21
f 24/24/24 23/23/23 21/21/21
f 25/25/25 23/23/23 24/24/24
f 26/26/26 25/25/25 24/24/24
f 27/27/27 25/25/25 26/26/26
f 28/28/28 27/27/27 26/26/26
f 29/29/29 27/27/27 28/28/28
f 30/30/30 29/29/29 28/28/28
f 31/31/31 29/29/29 30/30/30
f 32/32/32 31/31/31 30/30/30
f 33/33/33 31/31/31 32/32/32
f 34/34/34 33/33/33 32/32/32
f 37/37/37 36/36/36 35/35/35
f 38/38/38 37/37/37 35/35/35
f 39/39/39 37/37/37 38/38/38
f 40/40/40 39/39/39 38/38/38
f 43/43/43 42/42/42 41/41/41
f 44/44/44 43/43/43 41/41/41
f 45/45/45 43/43/43 44/44/44
f 46/46/46 45/45/45 44/44/44
f 47/47/47 45/45/45 46/46/46
f 48/48/48 47/47/47 46/46/46
f 49/49/49 47/47/47 48/48/48
f 50/50/50 49/49/49 48/48/48
f 51/51/51 49/49/49 50/50/50
f 52/52/52 51/51/51 50/50/50
f 53/53/53 51/51/51 52/52/52
f 54/54/54 53/53/53 52/52/52
f 57/57/57 56/56/56 55/55/55
f 58/58/58 57/57/57 55/55/55
f 59/59/59 57/57/57 58/58/58
f 60/60/60 59/59/59 58/58/58
f 63/63/63 62/62/62 61/61/61
f 64/64/64 63/63/63 61/61/61
f 65/65/65 63/63/63 64/64/64
f 66/66/66 65/65/65 64/64/64
f 67/67/67 65/65/65 66/66/66
f 68/68/68 67/67/67 66/66/66
f 69/69/69 67/67/67 68/68/68
f 70/70/70 69/69/69 68/68/68
f 71/71/71 69/69/69 70/70/70
f 72/72/72 71/71/71 70/70/70
f 73/73/73 71/71/71 72/72/72
f 74/74/74 73/73/73 72/72/72
f 77/77/77 76/76/76 75/75/75
f 78/78/78 77/77/77 75/75/75
f 79/79/79 77/77/77 78/78/78
f 80/80/80 79/79/79 78/78/78
f 83/83/83 82/82/82 81/81/81
f 84/84/84 83/83/83 81/81/81
f 85/85/85 83/83/83 84/84/84
f 86/86/86 85/85/85 84/84/84
f 87/87/87 85/85/85 86/86/86
f 88/88/88 87/87/87 86/86/86
f 89/89/89 87/87/87 88/88/88
f 90/90/90 89/89/89 88/88/88
f 91/91/91 89/89/89 90/90/90
f 92/92/92 91/91/91 90/90/90
f 93/93/93 91/91/91 92/92/92
f 94/94/94 93/93/93 92/92/92
f 97/97/97 96/96/96 95/95/95
f 98/98/98 97/97/97 95/95/95
f 99/99/99 97/97/97 98/98/98
f 100/100/100 99/99/99 98/98/98
f 103/103/103 102/102/102 101/101/101
f 104/104/104 103/103/103 101/101/101
f 105/105/105 103/103/103 104/104/104
f 106/106/106 105/105/105 104/104/104
f 107/107/107 105/105/105 106/106/106
f 108/108/108 107/107/107 106/106/106
f 109/109/109 107/107/107 108/108/108
f 110/110/110 109/109/109 108/108/108
f 111/111/111 109/109/109 110/110/110
f 112/112/112 111/111/111 110/110/110
f 113/113/113 111/111/111 112/112/112
f 114/114/114 113/113/113 112/112/112
f 117/117/117 116/116/116 115/115/115
f 118/118/118 117/117/117 115/115/115
f 119/119/119 117/117/117 118/118/118
f 120/120/120 119/119/119 118/118/118
