g Prop_Coconut
v 1.276302 5.917125 6.031007
v 1.1902024 6.026918 5.9058914
v 1.1731675 5.919586 5.954951
v 1.3214449 6.0237865 6.0026755
v 1.3150154 5.912181 6.1530895
v 1.1960883 6.153337 5.890677
v 1.3707092 6.017494 6.15803
v 1.2745206 5.906641 6.274567
v 1.3381443 6.149947 5.9954357
v 1.1881323 6.2909503 5.9172416
v 1.319178 6.010445 6.312615
v 1.1702852 5.9026227 6.3490396
v 1.1865345 6.0053315 6.4073834
v 1.3914676 6.143137 6.16359
v 1.3193748 6.287819 6.0140257
v 1.1675212 6.421882 5.981672
v 1.26797 6.419485 6.0557475
v 1.3356906 6.1355066 6.330911
v 1.1921183 6.1299715 6.4334884
v 1.3686392 6.2815266 6.16938
v 1.3171079 6.2744775 6.3239646
v 1.1844645 6.269364 6.4187336
v 1.3056753 6.4146695 6.1746507
v 1.191819 6.516818 6.113902
v 1.212225 6.5142117 6.1782517
v 1.266235 6.409274 6.2929645
v 1.1647141 6.40536 6.3654976
v 1.1908801 6.511292 6.242283
v 1.1731675 5.919586 5.954951
v 1.0271118 6.025693 5.904646
v 1.0450057 5.9186234 5.9539723
v 1.1902024 6.026918 5.9058914
v 1.0195603 6.152011 5.889329
v 1.1960883 6.153337 5.890677
v 1.0250417 6.2897253 5.915996
v 1.1881323 6.2909503 5.9172416
v 1.0426972 6.420944 5.9807186
v 1.1675212 6.421882 5.981672
v 0.93898886 5.904121 6.2720046
v 1.0234439 6.0041065 6.406138
v 1.0421234 5.90166 6.3480606
v 0.89220136 6.007238 6.309354
v 0.9002754 5.9090652 6.149922
v 1.0155904 6.1286454 6.4321404
v 0.842937 6.01353 6.1539993
v 0.9407702 5.9146047 6.0284443
v 0.87353444 6.1320353 6.3273816
v 1.0213739 6.268139 6.417488
v 0.8944682 6.020579 5.9994144
v 1.0450057 5.9186234 5.9539723
v 1.0271118 6.025693 5.904646
v 0.82021105 6.1388454 6.1592274
v 0.89013135 6.2712703 6.320704
v 1.0398899 6.4044228 6.3645444
v 0.9394412 6.4068193 6.2904687
v 0.875988 6.146476 5.991906
v 1.0195603 6.152011 5.889329
v 0.84086704 6.277562 6.1653495
v 0.8923982 6.2846117 6.0107646
v 1.0250417 6.2897253 5.915996
v 0.9017359 6.4116354 6.1715655
v 1.0140204 6.5099635 6.2409325
v 0.99361455 6.5125694 6.1765823
v 0.9411762 6.4170303 6.0532517
v 1.0426972 6.420944 5.9807186
v 1.0149595 6.5154896 6.112551
v 1.0421234 5.90166 6.3480606
v 1.1865345 6.0053315 6.4073834
v 1.1702852 5.9026227 6.3490396
v 1.0234439 6.0041065 6.406138
v 1.1921183 6.1299715 6.4334884
v 1.0155904 6.1286454 6.4321404
v 1.1844645 6.269364 6.4187336
v 1.0213739 6.268139 6.417488
v 1.1647141 6.40536 6.3654976
v 1.0398899 6.4044228 6.3645444
v 1.0426972 6.420944 5.9807186
v 1.0149595 6.5154896 6.112551
v 0.9411762 6.4170303 6.0532517
v 1.0699022 6.5176077 6.0732965
v 1.1675212 6.421882 5.981672
v 1.102538 6.5620894 6.1795106
v 0.99361455 6.5125694 6.1765823
v 1.0140204 6.5099635 6.2409325
v 1.1374565 6.518115 6.0738125
v 1.26797 6.419485 6.0557475
v 1.191819 6.516818 6.113902
v 1.212225 6.5142117 6.1782517
v 1.1908801 6.511292 6.242283
v 1.068383 6.508666 6.2810216
v 0.9394412 6.4068193 6.2904687
v 1.0398899 6.4044228 6.3645444
v 1.1359372 6.5091734 6.2815375
v 1.1647141 6.40536 6.3654976
v 1.266235 6.409274 6.2929645
v 1.2123892 5.8445554 6.07405
v 1.276302 5.917125 6.031007
v 1.1731675 5.919586 5.954951
v 1.1486738 5.8460755 6.0270634
v 1.0450057 5.9186234 5.9539723
v 1.0694968 5.845481 6.0264587
v 0.9407702 5.9146047 6.0284443
v 1.2363061 5.8415008 6.1494713
v 1.3150154 5.912181 6.1530895
v 1.1293627 5.820711 6.1182604
v 1.0051011 5.8429985 6.072467
v 0.9002754 5.9090652 6.149922
v 1.2112888 5.8380785 6.2245193
v 1.2745206 5.906641 6.274567
v 1.14192 5.8191075 6.15786
v 1.0877916 5.820399 6.1179433
v 0.98008376 5.8395762 6.147515
v 0.93898886 5.904121 6.2720046
v 1.1081097 5.817804 6.182016
v 1.1468931 5.835596 6.2705274
v 1.1702852 5.9026227 6.3490396
v 1.0677161 5.835001 6.2699227
v 1.0421234 5.90166 6.3480606
v 1.0040005 5.836521 6.222936
v 1.0746565 5.818602 6.1573462
vt 0.9917666 0.042552754
vt 0.99347496 0.043942206
vt 0.9927635 0.042552754
vt 0.9922061 0.043942206
vt 0.9901533 0.042552754
vt 0.99374855 0.045604408
vt 0.9901533 0.043942206
vt 0.9885401 0.042552754
vt 0.9923754 0.045604408
vt 0.99347496 0.047439784
vt 0.98810047 0.043942206
vt 0.9875431 0.042552754
vt 0.9868317 0.043942206
vt 0.9901533 0.045604408
vt 0.9922061 0.047439784
vt 0.99269545 0.049209684
vt 0.9917245 0.049209684
vt 0.9879314 0.045604408
vt 0.9865581 0.045604408
vt 0.9901533 0.047439784
vt 0.98810047 0.047439784
vt 0.9868317 0.047439784
vt 0.9901533 0.049209684
vt 0.99100363 0.050537527
vt 0.9901533 0.050537527
vt 0.98858213 0.049209684
vt 0.98761106 0.049209684
vt 0.989303 0.050537527
vt 0.99021435 0.049209714
vt 0.9882869 0.04782027
vt 0.98851806 0.049209714
vt 0.9904454 0.04782027
vt 0.988198 0.046158016
vt 0.9905343 0.046158016
vt 0.9882869 0.04432261
vt 0.9904454 0.04432261
vt 0.9885401 0.04255277
vt 0.9901922 0.04255277
vt 0.9917666 0.042552754
vt 0.9934749 0.043942206
vt 0.9927635 0.042552754
vt 0.99220616 0.043942206
vt 0.9901533 0.042552754
vt 0.99374855 0.045604408
vt 0.9901533 0.043942206
vt 0.9885402 0.042552754
vt 0.9923753 0.045604408
vt 0.9934749 0.047439784
vt 0.98810047 0.043942206
vt 0.9875431 0.042552754
vt 0.9868317 0.043942206
vt 0.9901533 0.045604408
vt 0.99220616 0.047439784
vt 0.99269557 0.049209684
vt 0.9917245 0.049209684
vt 0.9879314 0.045604408
vt 0.9865581 0.045604408
vt 0.9901533 0.047439784
vt 0.98810047 0.047439784
vt 0.9868317 0.047439784
vt 0.9901533 0.049209684
vt 0.99100363 0.050537527
vt 0.9901533 0.050537527
vt 0.98858213 0.049209684
vt 0.9876111 0.049209684
vt 0.989303 0.050537527
vt 0.9900703 0.04255277
vt 0.9919977 0.043942213
vt 0.9917666 0.04255277
vt 0.98983914 0.043942213
vt 0.9920865 0.045604408
vt 0.98975027 0.045604408
vt 0.9919977 0.047439814
vt 0.98983914 0.047439814
vt 0.9917445 0.049209714
vt 0.9900924 0.049209714
vt 0.98935354 0.04872054
vt 0.98900914 0.04702866
vt 0.988017 0.04774952
vt 0.9897325 0.047554195
vt 0.99100566 0.04872054
vt 0.99017966 0.04617834
vt 0.98873293 0.04617834
vt 0.9890092 0.04532802
vt 0.99062663 0.047554195
vt 0.9923421 0.04774952
vt 0.99135 0.04702866
vt 0.99162626 0.04617834
vt 0.99135 0.04532802
vt 0.98973256 0.044802487
vt 0.988017 0.044607162
vt 0.98935354 0.043636084
vt 0.99062663 0.044802487
vt 0.9910056 0.043636084
vt 0.9923421 0.044607162
vt 0.9761385 0.069150984
vt 0.99126816 0.059467793
vt 0.9721564 0.04388708
vt 0.9658332 0.060612142
vt 0.9475776 0.042602956
vt 0.95243204 0.059847772
vt 0.9269719 0.056167066
vt 0.979306 0.08219957
vt 0.9971354 0.08293837
vt 0.9616302 0.07621461
vt 0.941138 0.06704205
vt 0.91871303 0.078918934
vt 0.97471666 0.094816506
vt 0.98888445 0.10569447
vt 0.9633336 0.082942724
vt 0.9547783 0.07578331
vt 0.9365457 0.079666674
vt 0.924584 0.102390945
vt 0.9575962 0.08670616
vt 0.96342623 0.102007985
vt 0.96827614 0.1192531
vt 0.9500152 0.10123265
vt 0.943696 0.11796051
vt 0.93971145 0.09270549
vt 0.95232916 0.08227587
vn 0.6713031 -0.54621303 -0.5010025
vn 0.3037764 -0.25813866 -0.9171065
vn 0.26353878 -0.5364835 -0.80170614
vn 0.77824026 -0.26945978 -0.56721556
vn 0.8243649 -0.56576204 -0.018323742
vn 0.3159462 0.043482497 -0.9477802
vn 0.9563389 -0.29220653 -0.0055833394
vn 0.6642601 -0.58766353 0.4619633
vn 0.8132634 0.031616125 -0.5810362
vn 0.30163732 0.31604508 -0.89951676
vn 0.7700452 -0.31769055 0.5532658
vn 0.2521432 -0.6035518 0.75640535
vn 0.29051685 -0.33617765 0.8958708
vn 0.9999405 0.0077737165 0.0076481164
vn 0.7798155 0.30463538 -0.5468867
vn 0.26754478 0.5478426 -0.79264635
vn 0.6949748 0.53764385 -0.47744033
vn 0.8046737 -0.018937746 0.5934152
vn 0.30204797 -0.038315423 0.95252246
vn 0.9593085 0.2817105 0.019142427
vn 0.7715563 0.25602695 0.58236676
vn 0.28827387 0.2373951 0.9276539
vn 0.85541844 0.5171519 0.028517053
vn 0.55012256 0.7507147 -0.3657767
vn 0.67771024 0.73441917 0.036569525
vn 0.6875921 0.49419406 0.5319674
vn 0.2555996 0.47753957 0.84060985
vn 0.5442517 0.7161628 0.43692216
vn 0.26353878 -0.5364835 -0.80170614
vn -0.28582275 -0.26256758 -0.9216092
vn -0.24317555 -0.5402898 -0.80557585
vn 0.3037764 -0.25813866 -0.9171065
vn -0.3020522 0.03884025 -0.95249987
vn 0.3159462 0.043482497 -0.9477802
vn -0.29257798 0.31158143 -0.9040548
vn 0.30163732 0.31604508 -0.89951676
vn -0.26360744 0.5438527 -0.7967028
vn 0.26754478 0.5478426 -0.79264635
vn -0.6623353 -0.59762853 0.45183194
vn -0.2990824 -0.34060654 0.891368
vn -0.2545712 -0.60735804 0.7525356
vn -0.7735459 -0.3292856 0.5414773
vn -0.8153972 -0.57807946 -0.03084691
vn -0.31595048 -0.04295768 0.94780266
vn -0.9516448 -0.30653882 -0.020154977
vn -0.65529245 -0.55617815 -0.51113385
vn -0.8132674 -0.031091308 0.5810589
vn -0.30594146 0.23293152 0.9231158
vn -0.76535106 -0.28105485 -0.5790043
vn -0.24317555 -0.5402898 -0.80557585
vn -0.28582275 -0.26256758 -0.9216092
vn -0.9999447 -0.0072488794 -0.007625376
vn -0.78411937 0.24434122 0.5704859
vn -0.2755526 0.47354966 0.8365533
vn -0.70298237 0.48374844 0.52134734
vn -0.8046778 0.019462593 -0.59339267
vn -0.3020522 0.03884025 -0.95249987
vn -0.9636125 0.2672661 0.004456769
vn -0.7758603 0.2929495 -0.55876774
vn -0.29257798 0.31158143 -0.9040548
vn -0.8634262 0.5042404 0.015390004
vn -0.56155765 0.70785624 0.428477
vn -0.6891454 0.72415173 0.026130633
vn -0.69559985 0.5271981 -0.48806047
vn -0.26360744 0.5438527 -0.7967028
vn -0.555687 0.74240816 -0.37422195
vn -0.2545712 -0.60735804 0.7525356
vn 0.29051685 -0.33617765 0.8958708
vn 0.2521432 -0.6035518 0.75640535
vn -0.2990824 -0.34060654 0.891368
vn 0.30204797 -0.038315423 0.95252246
vn -0.31595048 -0.04295768 0.94780266
vn 0.28827387 0.2373951 0.9276539
vn -0.30594146 0.23293152 0.9231158
vn 0.2555996 0.47753957 0.84060985
vn -0.2755526 0.47354966 0.8365533
vn -0.26360744 0.5438527 -0.7967028
vn -0.555687 0.74240816 -0.37422195
vn -0.69559985 0.5271981 -0.48806047
vn -0.21215898 0.7556522 -0.61965996
vn 0.26754478 0.5478426 -0.79264635
vn -0.007832569 0.9990466 0.042946357
vn -0.6891454 0.72415173 0.026130633
vn -0.56155765 0.70785624 0.428477
vn 0.21022265 0.758825 -0.61643404
vn 0.6949748 0.53764385 -0.47744033
vn 0.55012256 0.7507147 -0.3657767
vn 0.67771024 0.73441917 0.036569525
vn 0.5442517 0.7161628 0.43692216
vn -0.22165799 0.6997459 0.6791342
vn -0.70298237 0.48374844 0.52134734
vn -0.2755526 0.47354966 0.8365533
vn 0.20072365 0.7029188 0.68236
vn 0.2555996 0.47753957 0.84060985
vn 0.6875921 0.49419406 0.5319674
vn 0.47206774 -0.80398226 -0.36161363
vn 0.6713031 -0.54621303 -0.5010025
vn 0.26353878 -0.5364835 -0.80170614
vn 0.18155497 -0.79656935 -0.57664126
vn -0.24317555 -0.5402898 -0.80557585
vn -0.16074081 -0.79914063 -0.57925534
vn -0.65529245 -0.55617815 -0.51113385
vn 0.5750969 -0.8172955 -0.035939887
vn 0.8243649 -0.56576204 -0.018323742
vn 0.11068275 -0.9770124 -0.18219808
vn -0.4543594 -0.81094146 -0.36868876
vn -0.8153972 -0.57807946 -0.03084691
vn 0.46012378 -0.83359754 0.30561623
vn 0.6642601 -0.58766353 0.4619633
vn 0.17558224 -0.98437715 0.013134842
vn -0.09319828 -0.9785438 -0.1837555
vn -0.56213874 -0.82583815 -0.044625226
vn -0.6623353 -0.59762853 0.45183194
vn 0.0064446656 -0.9913352 0.13119838
vn 0.1826522 -0.8443605 0.50368017
vn 0.2521432 -0.6035518 0.75640535
vn -0.17761897 -0.8470667 0.50092876
vn -0.2545712 -0.60735804 0.7525356
vn -0.45216367 -0.8404504 0.29864895
vn -0.16095547 -0.98690516 0.010563839
g Prop_Coconut_0
f 3/3/3 2/2/2 1/1/1
f 2/2/2 4/4/4 1/1/1
f 1/1/1 4/4/4 5/5/5
f 2/2/2 6/6/6 4/4/4
f 4/4/4 7/7/7 5/5/5
f 5/5/5 7/7/7 8/8/8
f 6/6/6 9/9/9 4/4/4
f 4/4/4 9/9/9 7/7/7
f 6/6/6 10/10/10 9/9/9
f 7/7/7 11/11/11 8/8/8
f 8/8/8 11/11/11 12/12/12
f 11/11/11 13/13/13 12/12/12
f 9/9/9 14/14/14 7/7/7
f 7/7/7 14/14/14 11/11/11
f 10/10/10 15/15/15 9/9/9
f 9/9/9 15/15/15 14/14/14
f 10/10/10 16/16/16 15/15/15
f 16/16/16 17/17/17 15/15/15
f 11/11/11 18/18/18 13/13/13
f 14/14/14 18/18/18 11/11/11
f 18/18/18 19/19/19 13/13/13
f 15/15/15 20/20/20 14/14/14
f 15/15/15 17/17/17 20/20/20
f 14/14/14 20/20/20 18/18/18
f 18/18/18 21/21/21 19/19/19
f 20/20/20 21/21/21 18/18/18
f 21/21/21 22/22/22 19/19/19
f 17/17/17 23/23/23 20/20/20
f 20/20/20 23/23/23 21/21/21
f 17/17/17 24/24/24 23/23/23
f 24/24/24 25/25/25 23/23/23
f 21/21/21 26/26/26 22/22/22
f 23/23/23 26/26/26 21/21/21
f 23/23/23 25/25/25 26/26/26
f 26/26/26 27/27/27 22/22/22
f 25/25/25 28/28/28 26/26/26
f 31/31/31 30/30/30 29/29/29
f 30/30/30 32/32/32 29/29/29
f 30/30/30 33/33/33 32/32/32
f 33/33/33 34/34/34 32/32/32
f 33/33/33 35/35/35 34/34/34
f 35/35/35 36/36/36 34/34/34
f 35/35/35 37/37/37 36/36/36
f 37/37/37 38/38/38 36/36/36
f 41/41/41 40/40/40 39/39/39
f 40/40/40 42/42/42 39/39/39
f 39/39/39 42/42/42 43/43/43
f 40/40/40 44/44/44 42/42/42
f 42/42/42 45/45/45 43/43/43
f 43/43/43 45/45/45 46/46/46
f 44/44/44 47/47/47 42/42/42
f 42/42/42 47/47/47 45/45/45
f 44/44/44 48/48/48 47/47/47
f 45/45/45 49/49/49 46/46/46
f 46/46/46 49/49/49 50/50/50
f 49/49/49 51/51/51 50/50/50
f 47/47/47 52/52/52 45/45/45
f 45/45/45 52/52/52 49/49/49
f 48/48/48 53/53/53 47/47/47
f 47/47/47 53/53/53 52/52/52
f 48/48/48 54/54/54 53/53/53
f 54/54/54 55/55/55 53/53/53
f 49/49/49 56/56/56 51/51/51
f 52/52/52 56/56/56 49/49/49
f 56/56/56 57/57/57 51/51/51
f 53/53/53 58/58/58 52/52/52
f 53/53/53 55/55/55 58/58/58
f 52/52/52 58/58/58 56/56/56
f 56/56/56 59/59/59 57/57/57
f 58/58/58 59/59/59 56/56/56
f 59/59/59 60/60/60 57/57/57
f 55/55/55 61/61/61 58/58/58
f 58/58/58 61/61/61 59/59/59
f 55/55/55 62/62/62 61/61/61
f 62/62/62 63/63/63 61/61/61
f 59/59/59 64/64/64 60/60/60
f 61/61/61 64/64/64 59/59/59
f 61/61/61 63/63/63 64/64/64
f 64/64/64 65/65/65 60/60/60
f 63/63/63 66/66/66 64/64/64
f 69/69/69 68/68/68 67/67/67
f 68/68/68 70/70/70 67/67/67
f 68/68/68 71/71/71 70/70/70
f 71/71/71 72/72/72 70/70/70
f 71/71/71 73/73/73 72/72/72
f 73/73/73 74/74/74 72/72/72
f 73/73/73 75/75/75 74/74/74
f 75/75/75 76/76/76 74/74/74
f 79/79/79 78/78/78 77/77/77
f 78/78/78 80/80/80 77/77/77
f 77/77/77 80/80/80 81/81/81
f 78/78/78 82/82/82 80/80/80
f 83/83/83 82/82/82 78/78/78
f 84/84/84 82/82/82 83/83/83
f 80/80/80 85/85/85 81/81/81
f 80/80/80 82/82/82 85/85/85
f 81/81/81 85/85/85 86/86/86
f 85/85/85 87/87/87 86/86/86
f 85/85/85 82/82/82 87/87/87
f 87/87/87 82/82/82 88/88/88
f 88/88/88 82/82/82 89/89/89
f 90/90/90 82/82/82 84/84/84
f 90/90/90 84/84/84 91/91/91
f 92/92/92 90/90/90 91/91/91
f 93/93/93 82/82/82 90/90/90
f 93/93/93 90/90/90 92/92/92
f 89/89/89 82/82/82 93/93/93
f 94/94/94 93/93/93 92/92/92
f 89/89/89 93/93/93 94/94/94
f 95/95/95 89/89/89 94/94/94
f 98/98/98 97/97/97 96/96/96
f 99/99/99 98/98/98 96/96/96
f 100/100/100 98/98/98 99/99/99
f 101/101/101 100/100/100 99/99/99
f 102/102/102 100/100/100 101/101/101
f 96/96/96 97/97/97 103/103/103
f 97/97/97 104/104/104 103/103/103
f 96/96/96 105/105/105 99/99/99
f 99/99/99 105/105/105 101/101/101
f 106/106/106 102/102/102 101/101/101
f 107/107/107 102/102/102 106/106/106
f 103/103/103 104/104/104 108/108/108
f 104/104/104 109/109/109 108/108/108
f 103/103/103 110/110/110 96/96/96
f 110/110/110 105/105/105 96/96/96
f 108/108/108 110/110/110 103/103/103
f 101/101/101 111/111/111 106/106/106
f 105/105/105 111/111/111 101/101/101
f 112/112/112 107/107/107 106/106/106
f 106/106/106 111/111/111 112/112/112
f 113/113/113 107/107/107 112/112/112
f 114/114/114 105/105/105 110/110/110
f 114/114/114 110/110/110 108/108/108
f 114/114/114 111/111/111 105/105/105
f 108/108/108 109/109/109 115/115/115
f 115/115/115 114/114/114 108/108/108
f 109/109/109 116/116/116 115/115/115
f 115/115/115 116/116/116 117/117/117
f 117/117/117 114/114/114 115/115/115
f 116/116/116 118/118/118 117/117/117
f 118/118/118 113/113/113 119/119/119
f 119/119/119 113/113/113 112/112/112
f 117/117/117 118/118/118 119/119/119
f 114/114/114 120/120/120 111/111/111
f 111/111/111 120/120/120 112/112/112
f 112/112/112 120/120/120 119/119/119
f 120/120/120 114/114/114 117/117/117
f 119/119/119 120/120/120 117/117/117
