g Prop_RopeHolder
v 0.66945124 0.6574576 -0.9741144
v -0 0.71209526 -1.0373683
v 0.66945124 0.60149145 -1.0373673
v 1.1321988 0.712095 -1.0373683
v 0.66945124 0.6574576 -0.9741144
v 0.66945124 0.60149145 -1.0373673
v 1.6311016 -2.3841858E-07 -0.95847845
v 1.5065694 0.440099 -1.0373673
v 1.5701051 -2.3841858E-07 -1.0373683
v 1.5065694 -0.44009924 -1.0373673
v 1.6311016 -2.3841858E-07 -0.95847845
v 1.5701051 -2.3841858E-07 -1.0373683
v 0.6694517 0.6574576 0.9741144
v 0.6694517 0.60149145 1.0373673
v -0 0.71209526 1.0373683
v 1.1321993 0.712095 1.0373683
v 0.6694517 0.60149145 1.0373673
v 0.6694517 0.6574576 0.9741144
v 1.6311021 -2.3841858E-07 0.95847845
v 1.5701056 -2.3841858E-07 1.0373683
v 1.5065699 0.440099 1.0373673
v 1.5065699 -0.44009924 1.0373673
v 1.5701056 -2.3841858E-07 1.0373683
v 1.6311021 -2.3841858E-07 0.95847845
v 1.5065694 0.440099 -1.0373673
v 1.5065694 0.44009876 -0.81184673
v 1.1321988 0.7120948 -0.81184673
v 1.1321988 0.712095 -1.0373683
v 1.1321988 0.7120948 -0.81184673
v 0.66945124 0.68133473 -0.81184673
v 0.66945124 0.6574576 -0.9741144
v 1.1321988 0.712095 -1.0373683
v 0.66945124 0.68133473 -0.81184673
v -0 0.7120948 -0.81184816
v -0 0.71209526 -1.0373683
v 0.66945124 0.6574576 -0.9741144
v -0 0.7120948 -0.81184816
v -0 -2.3841858E-07 -1.0373683
v -0 0.71209526 -1.0373683
v -0 -2.3841858E-07 -0.81184673
v -0 -0.7120955 -1.0373683
v -0 -0.71209526 -0.81184816
v -0 -0.71209526 -0.81184816
v 0.66945124 -0.71209526 -0.81184816
v 0.66945124 -0.7120954 -1.0373683
v -0 -0.7120955 -1.0373683
v 0.66945124 -0.71209526 -0.81184816
v 1.1321988 -0.71209526 -0.81184816
v 1.1321988 -0.67027473 -1.0373683
v 0.66945124 -0.7120954 -1.0373683
v 1.1321988 -0.71209526 -0.81184816
v 1.5065694 -0.44009912 -0.81184673
v 1.5065694 -0.44009924 -1.0373673
v 1.1321988 -0.67027473 -1.0373683
v 1.5065694 -0.44009912 -0.81184673
v 1.6495662 -2.3841858E-07 -0.81184673
v 1.6311016 -2.3841858E-07 -0.95847845
v 1.5065694 -0.44009924 -1.0373673
v 1.6495662 -2.3841858E-07 -0.81184673
v 1.5065694 0.44009876 -0.81184673
v 1.5065694 0.440099 -1.0373673
v 1.6311016 -2.3841858E-07 -0.95847845
v 1.2768116 -0.37598622 0.81184673
v 1.2768116 -0.37598622 -0.81184673
v 0.9008255 -0.5317247 -0.81184673
v 0.9008255 -0.5317247 0.81184673
v 0.9008255 -0.5317247 0.81184673
v 0.9008255 -0.5317247 -0.81184673
v 0.5248394 -0.37598622 -0.81184673
v 0.5248394 -0.37598622 0.81184673
v 0.5248394 -0.37598622 0.81184673
v 0.5248394 -0.37598622 -0.81184673
v 0.36910105 -2.3841858E-07 -0.81184673
v 0.36910105 -2.3841858E-07 0.81184673
v 0.36910105 -2.3841858E-07 0.81184673
v 0.36910105 -2.3841858E-07 -0.81184673
v 0.5248394 0.37598562 -0.81184673
v 0.5248394 0.37598562 0.81184673
v 0.5248394 0.37598562 0.81184673
v 0.5248394 0.37598562 -0.81184673
v 0.9008255 0.5317242 -0.81184673
v 0.9008255 0.5317242 0.81184673
v 0.9008255 0.5317242 0.81184673
v 0.9008255 0.5317242 -0.81184673
v 1.2768116 0.37598586 -0.81184673
v 1.2768116 0.37598586 0.81184673
v 1.2768116 0.37598586 0.81184673
v 1.2768116 0.37598586 -0.81184673
v 1.43255 -2.3841858E-07 -0.81184673
v 1.43255 -2.3841858E-07 0.81184673
v 1.43255 -2.3841858E-07 0.81184673
v 1.43255 -2.3841858E-07 -0.81184673
v 1.2768116 -0.37598622 -0.81184673
v 1.2768116 -0.37598622 0.81184673
v 1.5065699 0.440099 1.0373673
v 1.1321993 0.712095 1.0373683
v 1.1321993 0.7120948 0.8118472
v 1.5065699 0.44009876 0.8118472
v 1.1321993 0.7120948 0.8118472
v 1.1321993 0.712095 1.0373683
v 0.6694517 0.6574576 0.9741144
v 0.6694517 0.68133473 0.8118472
v 0.6694517 0.68133473 0.8118472
v 0.6694517 0.6574576 0.9741144
v -0 0.71209526 1.0373683
v -0 0.7120948 0.81184816
v -0 0.7120948 0.81184816
v -0 0.71209526 1.0373683
v -0 -2.3841858E-07 1.0373683
v -0 -2.3841858E-07 0.8118472
v -0 -0.7120955 1.0373683
v -0 -0.71209526 0.81184816
v -0 -0.71209526 0.81184816
v -0 -0.7120955 1.0373683
v 0.6694517 -0.7120954 1.0373683
v 0.6694517 -0.71209526 0.81184816
v 0.6694517 -0.71209526 0.81184816
v 0.6694517 -0.7120954 1.0373683
v 1.1321993 -0.67027473 1.0373683
v 1.1321993 -0.71209526 0.81184816
v 1.1321993 -0.71209526 0.81184816
v 1.1321993 -0.67027473 1.0373683
v 1.5065699 -0.44009924 1.0373673
v 1.5065699 -0.44009912 0.8118472
v 1.5065699 -0.44009912 0.8118472
v 1.5065699 -0.44009924 1.0373673
v 1.6311021 -2.3841858E-07 0.95847845
v 1.6495667 -2.3841858E-07 0.8118472
v 1.6495667 -2.3841858E-07 0.8118472
v 1.6311021 -2.3841858E-07 0.95847845
v 1.5065699 0.440099 1.0373673
v 1.5065699 0.44009876 0.8118472
v 1.1321988 0.712095 -1.0373683
v 0.66945124 0.60149145 -1.0373673
v 0.900825 -2.3841858E-07 -1.0373683
v 1.5065694 0.440099 -1.0373673
v -0 0.71209526 -1.0373683
v 1.5701051 -2.3841858E-07 -1.0373683
v -0 -2.3841858E-07 -1.0373683
v 1.5065694 -0.44009924 -1.0373673
v -0 -0.7120955 -1.0373683
v 1.1321988 -0.67027473 -1.0373683
v 0.66945124 -0.7120954 -1.0373683
v 1.1321993 0.712095 1.0373683
v 0.9008255 -2.3841858E-07 1.0373683
v 0.6694517 0.60149145 1.0373673
v 1.5065699 0.440099 1.0373673
v -0 0.71209526 1.0373683
v 1.5701056 -2.3841858E-07 1.0373683
v -0 -2.3841858E-07 1.0373683
v 1.5065699 -0.44009924 1.0373673
v -0 -0.7120955 1.0373683
v 1.1321993 -0.67027473 1.0373683
v 0.6694517 -0.7120954 1.0373683
v 1.1321988 0.7120948 -0.81184673
v 1.5065694 0.44009876 -0.81184673
v 0.900825 -2.3841858E-07 -0.81184673
v 0.66945124 0.68133473 -0.81184673
v 1.6495662 -2.3841858E-07 -0.81184673
v -0 0.7120948 -0.81184816
v 1.5065694 -0.44009912 -0.81184673
v -0 -2.3841858E-07 -0.81184673
v 1.1321988 -0.71209526 -0.81184816
v -0 -0.71209526 -0.81184816
v 0.66945124 -0.71209526 -0.81184816
v 0.9008255 -0.5317247 0.81184673
v 0.9008255 -2.3841858E-07 0.81184673
v 1.2768116 -0.37598622 0.81184673
v 0.5248394 -0.37598622 0.81184673
v 1.43255 -2.3841858E-07 0.81184673
v 0.36910105 -2.3841858E-07 0.81184673
v 1.2768116 0.37598586 0.81184673
v 0.5248394 0.37598562 0.81184673
v 0.9008255 0.5317242 0.81184673
v 1.2768116 -0.37598622 -0.81184673
v 0.9008255 -2.3841858E-07 -0.81184673
v 0.9008255 -0.5317247 -0.81184673
v 1.43255 -2.3841858E-07 -0.81184673
v 0.5248394 -0.37598622 -0.81184673
v 1.2768116 0.37598586 -0.81184673
v 0.36910105 -2.3841858E-07 -0.81184673
v 0.9008255 0.5317242 -0.81184673
v 0.5248394 0.37598562 -0.81184673
v 1.1321993 0.7120948 0.8118472
v 0.9008255 -2.3841858E-07 0.8118472
v 1.5065699 0.44009876 0.8118472
v 0.6694517 0.68133473 0.8118472
v 1.6495667 -2.3841858E-07 0.8118472
v -0 0.7120948 0.81184816
v 1.5065699 -0.44009912 0.8118472
v -0 -2.3841858E-07 0.8118472
v 1.1321993 -0.71209526 0.81184816
v -0 -0.71209526 0.81184816
v 0.6694517 -0.71209526 0.81184816
vt 0.4810372 0.24588954
vt 0.4812346 0.24797922
vt 0.48123455 0.24588954
vt 0.4812346 0.24444515
vt 0.4810372 0.24588954
vt 0.48123455 0.24588954
vt 0.4804639 0.24173573
vt 0.48071012 0.24310943
vt 0.48071012 0.24173573
vt 0.48071012 0.24036199
vt 0.4804639 0.24173573
vt 0.48071012 0.24173573
vt 0.48231345 0.24588954
vt 0.48211604 0.24588954
vt 0.48211604 0.24797916
vt 0.48211604 0.24444515
vt 0.48211604 0.24588954
vt 0.48231345 0.24588954
vt 0.47918844 0.24621242
vt 0.47894222 0.24621242
vt 0.47894222 0.24758619
vt 0.47894222 0.24483868
vt 0.47894222 0.24621242
vt 0.47918844 0.24621242
vt 0.48071012 0.24310943
vt 0.48000622 0.24310943
vt 0.48000622 0.24395844
vt 0.48071012 0.24395847
vt 0.48053065 0.24444515
vt 0.48053065 0.24588954
vt 0.4810372 0.24588954
vt 0.4812346 0.24444515
vt 0.48053065 0.24588954
vt 0.48053065 0.24797922
vt 0.4812346 0.24797922
vt 0.4810372 0.24588954
vt 0.47994143 0.24395844
vt 0.4792375 0.24173573
vt 0.4792375 0.24395847
vt 0.47994143 0.24173573
vt 0.4792375 0.239513
vt 0.47994143 0.239513
vt 0.4820273 0.24797922
vt 0.4820273 0.2458896
vt 0.48132336 0.2458896
vt 0.48132336 0.24797922
vt 0.4820273 0.2458896
vt 0.4820273 0.24444515
vt 0.48132336 0.24444515
vt 0.48132336 0.2458896
vt 0.48000622 0.239513
vt 0.48000622 0.24036199
vt 0.48071012 0.24036199
vt 0.48071012 0.23964353
vt 0.48000622 0.24036199
vt 0.48000622 0.24173573
vt 0.4804639 0.24173573
vt 0.48071012 0.24036199
vt 0.48000622 0.24173573
vt 0.48000622 0.24310943
vt 0.48071012 0.24310943
vt 0.4804639 0.24173573
vt 0.48766676 0.21819855
vt 0.48766676 0.21313033
vt 0.48649314 0.21313033
vt 0.48649314 0.21819855
vt 0.48649314 0.21819855
vt 0.48649314 0.21313033
vt 0.48531953 0.21313033
vt 0.48531953 0.21819855
vt 0.4877586 0.21313033
vt 0.4877586 0.21819855
vt 0.4889322 0.21819855
vt 0.4889322 0.21313033
vt 0.4889322 0.21313033
vt 0.4889322 0.21819855
vt 0.4901058 0.21819855
vt 0.4901058 0.21313033
vt 0.48955703 0.21822979
vt 0.48955703 0.22329798
vt 0.49073064 0.22329798
vt 0.49073064 0.21822979
vt 0.49073064 0.21822979
vt 0.49073064 0.22329798
vt 0.49190426 0.22329798
vt 0.49190426 0.21822979
vt 0.4894923 0.22329798
vt 0.4894923 0.21822979
vt 0.48831868 0.21822979
vt 0.48831868 0.22329798
vt 0.48831868 0.22329798
vt 0.48831868 0.21822979
vt 0.4871451 0.21822979
vt 0.4871451 0.22329798
vt 0.47894222 0.24758619
vt 0.47894222 0.2484352
vt 0.47964615 0.2484352
vt 0.47964615 0.24758619
vt 0.48281997 0.24444515
vt 0.48211604 0.24444515
vt 0.48231345 0.24588954
vt 0.48281997 0.24588954
vt 0.48281997 0.24588954
vt 0.48231345 0.24588954
vt 0.48211604 0.24797916
vt 0.48282003 0.24797916
vt 0.47973797 0.2484352
vt 0.4804419 0.2484352
vt 0.4804419 0.24621242
vt 0.47973794 0.24621242
vt 0.4804419 0.24398968
vt 0.47973797 0.24398968
vt 0.4829088 0.24797916
vt 0.48361272 0.24797916
vt 0.48361272 0.2458896
vt 0.4829088 0.2458896
vt 0.4829088 0.2458896
vt 0.48361272 0.2458896
vt 0.48361272 0.24444515
vt 0.4829088 0.24444515
vt 0.47964615 0.24398968
vt 0.47894222 0.24412021
vt 0.47894222 0.24483868
vt 0.47964615 0.24483868
vt 0.47964615 0.24483868
vt 0.47894222 0.24483868
vt 0.47918844 0.24621242
vt 0.47964615 0.24621242
vt 0.47964615 0.24621242
vt 0.47918844 0.24621242
vt 0.47894222 0.24758619
vt 0.47964615 0.24758619
vt 0.48528516 0.24087986
vt 0.4856304 0.2423243
vt 0.48750788 0.24160206
vt 0.48613414 0.2397113
vt 0.48528516 0.24441391
vt 0.48750788 0.239513
vt 0.48750788 0.24441391
vt 0.48888165 0.2397113
vt 0.48973066 0.24441391
vt 0.48960012 0.24087986
vt 0.48973066 0.2423243
vt 0.48522043 0.24087986
vt 0.48299766 0.24160206
vt 0.48487514 0.2423243
vt 0.48437136 0.2397113
vt 0.48522043 0.24441391
vt 0.48299766 0.239513
vt 0.48299766 0.24441391
vt 0.48162392 0.2397113
vt 0.4807749 0.24441391
vt 0.4809054 0.24087986
vt 0.4807749 0.2423243
vt 0.4833877 0.2359477
vt 0.4825387 0.23477912
vt 0.48116493 0.23666994
vt 0.4832917 0.23739213
vt 0.48116493 0.23433277
vt 0.4833877 0.23948176
vt 0.47979122 0.23477912
vt 0.48116493 0.23948176
vt 0.47894222 0.2359477
vt 0.47894222 0.23948176
vt 0.47894222 0.23739213
vt 0.48370147 0.24610484
vt 0.48536116 0.24610484
vt 0.4841876 0.24493125
vt 0.4841876 0.24727845
vt 0.48536116 0.24444515
vt 0.48536116 0.24776465
vt 0.48653477 0.24493125
vt 0.48653477 0.24727845
vt 0.4870209 0.24610484
vt 0.48994946 0.24501777
vt 0.48877585 0.24619138
vt 0.4904356 0.24619138
vt 0.48877585 0.24453166
vt 0.48994946 0.247365
vt 0.4876023 0.24501777
vt 0.48877585 0.24785113
vt 0.48711616 0.24619138
vt 0.4876023 0.247365
vt 0.48345757 0.2359477
vt 0.48568028 0.23666994
vt 0.48430657 0.23477912
vt 0.4835536 0.23739213
vt 0.48568028 0.23433277
vt 0.48345757 0.23948176
vt 0.487054 0.23477912
vt 0.48568028 0.23948176
vt 0.48790306 0.2359477
vt 0.48790306 0.23948176
vt 0.48790306 0.23739213
vn 0.122799076 0.7432601 -0.65763575
vn 0.12279909 0.74326015 -0.65763575
vn 0.12279909 0.74326015 -0.65763575
vn -0.17620565 0.7372097 -0.65228325
vn -0.1762056 0.73720974 -0.65228325
vn -0.17620562 0.73720974 -0.65228325
vn 0.7859994 0.11347385 -0.6077241
vn 0.7859994 0.11347385 -0.6077241
vn 0.7859994 0.11347385 -0.6077241
vn 0.7859996 -0.11347388 -0.60772383
vn 0.7859996 -0.11347388 -0.60772383
vn 0.78599966 -0.11347386 -0.60772383
vn 0.122798964 0.74325985 0.65763617
vn 0.122798964 0.74325985 0.6576361
vn 0.12279897 0.74325985 0.6576361
vn -0.17620577 0.7372097 0.65228325
vn -0.17620578 0.73720974 0.65228313
vn -0.17620575 0.73720974 0.6522832
vn 0.7859994 0.11347385 0.6077241
vn 0.7859994 0.11347385 0.6077241
vn 0.7859994 0.11347385 0.6077241
vn 0.7859996 -0.11347391 0.60772383
vn 0.78599966 -0.11347391 0.60772383
vn 0.7859996 -0.11347391 0.60772383
vn 0.5877852 0.80901706 0
vn 0.5877852 0.80901706 0
vn 0.5877851 0.8090171 0
vn 0.5877851 0.80901706 0
vn -0.095854595 0.9935138 -0.061172448
vn -0.09585459 0.9935138 -0.06117245
vn -0.09585459 0.9935138 -0.061172448
vn -0.09585459 0.9935138 -0.061172448
vn 0.06641773 0.9959059 -0.06131951
vn 0.066417746 0.9959059 -0.06131952
vn 0.06641774 0.9959059 -0.061319515
vn 0.06641774 0.9959059 -0.061319508
vn -1 0 0
vn -1 0 0
vn -1 0 0
vn -1 0 0
vn -1 0 0
vn -1 0 0
vn -0 -1 0
vn -0 -1 0
vn -0 -1 0
vn -0 -1 0
vn 0.04494882 -0.9947227 -0.09223042
vn 0.04494882 -0.9947227 -0.09223042
vn 0.044948827 -0.9947227 -0.09223043
vn 0.04494882 -0.9947227 -0.09223042
vn 0.5553662 -0.82805413 -0.07677698
vn 0.55536616 -0.8280542 -0.07677699
vn 0.5553663 -0.82805413 -0.07677698
vn 0.5553662 -0.82805413 -0.07677698
vn 0.95687914 -0.28658056 -0.04747606
vn 0.95687914 -0.28658056 -0.047476064
vn 0.95687914 -0.28658053 -0.04747606
vn 0.95687914 -0.28658056 -0.047476064
vn 0.95687914 0.28658062 -0.047475953
vn 0.95687914 0.28658062 -0.047475953
vn 0.95687914 0.28658062 -0.047475953
vn 0.95687914 0.28658062 -0.04747596
vn 0.3826833 -0.9238796 0
vn 0.3826833 -0.9238796 0
vn 0.3826833 -0.9238796 0
vn 0.3826833 -0.9238796 0
vn -0.3826833 -0.9238796 0
vn -0.3826833 -0.9238796 0
vn -0.3826833 -0.9238796 0
vn -0.3826833 -0.9238796 0
vn -0.9238796 -0.3826832 0
vn -0.9238796 -0.3826832 0
vn -0.9238796 -0.3826832 0
vn -0.9238796 -0.3826832 0
vn -0.9238796 0.3826833 0
vn -0.9238796 0.3826833 0
vn -0.9238796 0.3826833 0
vn -0.9238796 0.3826833 0
vn -0.38268355 0.9238795 0
vn -0.38268355 0.9238795 0
vn -0.38268355 0.9238795 0
vn -0.38268355 0.9238795 0
vn 0.38268304 0.92387974 0
vn 0.38268304 0.92387974 0
vn 0.38268304 0.92387974 0
vn 0.38268304 0.92387974 0
vn 0.92387974 0.38268298 0
vn 0.92387974 0.38268298 0
vn 0.92387974 0.38268298 0
vn 0.92387974 0.38268298 0
vn 0.92387974 -0.38268307 0
vn 0.92387974 -0.38268307 0
vn 0.92387974 -0.38268307 0
vn 0.92387974 -0.38268307 0
vn 0.58778524 0.809017 0
vn 0.5877852 0.80901706 0
vn 0.5877852 0.809017 0
vn 0.5877853 0.809017 0
vn -0.095854566 0.9935138 0.061172593
vn -0.09585457 0.9935138 0.061172593
vn -0.095854566 0.9935138 0.061172593
vn -0.095854566 0.9935138 0.061172593
vn 0.06641767 0.9959059 0.061319545
vn 0.066417664 0.9959059 0.061319545
vn 0.066417664 0.9959059 0.06131955
vn 0.06641767 0.9959059 0.06131955
vn -1 0 0
vn -1 0 0
vn -1 0 0
vn -1 0 0
vn -1 0 0
vn -1 0 0
vn -0 -1 0
vn -0 -1 0
vn -0 -1 0
vn -0 -1 0
vn 0.044948842 -0.9947227 0.09223043
vn 0.04494884 -0.9947227 0.09223042
vn 0.044948842 -0.9947227 0.09223042
vn 0.044948842 -0.9947227 0.09223043
vn 0.5553661 -0.82805425 0.07677707
vn 0.55536604 -0.82805425 0.07677707
vn 0.5553661 -0.8280542 0.07677707
vn 0.5553661 -0.8280542 0.07677707
vn 0.95687914 -0.28658068 0.047476176
vn 0.95687914 -0.28658074 0.04747618
vn 0.95687914 -0.28658074 0.04747618
vn 0.95687914 -0.28658074 0.04747618
vn 0.95687914 0.28658068 0.047476087
vn 0.95687914 0.28658065 0.047476087
vn 0.95687914 0.28658065 0.047476083
vn 0.95687914 0.28658065 0.04747608
vn -0 0 -1
vn -0 0 -1
vn -0 0 -1
vn -0 0 -1
vn -0 0 -1
vn -0 0 -1
vn -0 0 -1
vn -0 0 -1
vn -0 0 -1
vn -0 0 -1
vn -0 0 -1
vn -0 0 1
vn -0 0 1
vn -0 0 1
vn -0 0 1
vn -0 0 1
vn -0 0 1
vn -0 0 1
vn -0 0 1
vn -0 0 1
vn -0 0 1
vn -0 0 1
vn -0 0 1
vn -0 0 1
vn -0 0 1
vn -0 0 1
vn -0 0 1
vn -0 0 1
vn -0 0 1
vn -0 0 1
vn -0 0 1
vn -0 0 1
vn -0 0 1
vn -0 0 1
vn -0 0 1
vn -0 0 1
vn -0 0 1
vn -0 0 1
vn -0 0 1
vn -0 0 1
vn -0 0 1
vn -0 0 1
vn -0 0 -1
vn -0 0 -1
vn -0 0 -1
vn -0 0 -1
vn -0 0 -1
vn -0 0 -1
vn -0 0 -1
vn -0 0 -1
vn -0 0 -1
vn -0 0 -1
vn -0 0 -1
vn -0 0 -1
vn -0 0 -1
vn -0 0 -1
vn -0 0 -1
vn -0 0 -1
vn -0 0 -1
vn -0 0 -1
vn -0 0 -1
vn -0 0 -1
g Prop_RopeHolder_0
f 3/3/3 2/2/2 1/1/1
f 6/6/6 5/5/5 4/4/4
f 9/9/9 8/8/8 7/7/7
f 12/12/12 11/11/11 10/10/10
f 15/15/15 14/14/14 13/13/13
f 18/18/18 17/17/17 16/16/16
f 21/21/21 20/20/20 19/19/19
f 24/24/24 23/23/23 22/22/22
f 27/27/27 26/26/26 25/25/25
f 28/28/28 27/27/27 25/25/25
f 31/31/31 30/30/30 29/29/29
f 32/32/32 31/31/31 29/29/29
f 35/35/35 34/34/34 33/33/33
f 36/36/36 35/35/35 33/33/33
f 39/39/39 38/38/38 37/37/37
f 38/38/38 40/40/40 37/37/37
f 38/38/38 41/41/41 40/40/40
f 41/41/41 42/42/42 40/40/40
f 45/45/45 44/44/44 43/43/43
f 46/46/46 45/45/45 43/43/43
f 49/49/49 48/48/48 47/47/47
f 50/50/50 49/49/49 47/47/47
f 53/53/53 52/52/52 51/51/51
f 54/54/54 53/53/53 51/51/51
f 57/57/57 56/56/56 55/55/55
f 58/58/58 57/57/57 55/55/55
f 61/61/61 60/60/60 59/59/59
f 62/62/62 61/61/61 59/59/59
f 65/65/65 64/64/64 63/63/63
f 66/66/66 65/65/65 63/63/63
f 69/69/69 68/68/68 67/67/67
f 70/70/70 69/69/69 67/67/67
f 73/73/73 72/72/72 71/71/71
f 74/74/74 73/73/73 71/71/71
f 77/77/77 76/76/76 75/75/75
f 78/78/78 77/77/77 75/75/75
f 81/81/81 80/80/80 79/79/79
f 82/82/82 81/81/81 79/79/79
f 85/85/85 84/84/84 83/83/83
f 86/86/86 85/85/85 83/83/83
f 89/89/89 88/88/88 87/87/87
f 90/90/90 89/89/89 87/87/87
f 93/93/93 92/92/92 91/91/91
f 94/94/94 93/93/93 91/91/91
f 97/97/97 96/96/96 95/95/95
f 98/98/98 97/97/97 95/95/95
f 101/101/101 100/100/100 99/99/99
f 102/102/102 101/101/101 99/99/99
f 105/105/105 104/104/104 103/103/103
f 106/106/106 105/105/105 103/103/103
f 109/109/109 108/108/108 107/107/107
f 110/110/110 109/109/109 107/107/107
f 111/111/111 109/109/109 110/110/110
f 112/112/112 111/111/111 110/110/110
f 115/115/115 114/114/114 113/113/113
f 116/116/116 115/115/115 113/113/113
f 119/119/119 118/118/118 117/117/117
f 120/120/120 119/119/119 117/117/117
f 123/123/123 122/122/122 121/121/121
f 124/124/124 123/123/123 121/121/121
f 127/127/127 126/126/126 125/125/125
f 128/128/128 127/127/127 125/125/125
f 131/131/131 130/130/130 129/129/129
f 132/132/132 131/131/131 129/129/129
f 135/135/135 134/134/134 133/133/133
f 135/135/135 133/133/133 136/136/136
f 135/135/135 137/137/137 134/134/134
f 135/135/135 136/136/136 138/138/138
f 135/135/135 139/139/139 137/137/137
f 135/135/135 138/138/138 140/140/140
f 135/135/135 141/141/141 139/139/139
f 135/135/135 140/140/140 142/142/142
f 135/135/135 143/143/143 141/141/141
f 135/135/135 142/142/142 143/143/143
f 146/146/146 145/145/145 144/144/144
f 144/144/144 145/145/145 147/147/147
f 148/148/148 145/145/145 146/146/146
f 147/147/147 145/145/145 149/149/149
f 150/150/150 145/145/145 148/148/148
f 149/149/149 145/145/145 151/151/151
f 152/152/152 145/145/145 150/150/150
f 151/151/151 145/145/145 153/153/153
f 154/154/154 145/145/145 152/152/152
f 153/153/153 145/145/145 154/154/154
f 157/157/157 156/156/156 155/155/155
f 157/157/157 155/155/155 158/158/158
f 157/157/157 159/159/159 156/156/156
f 157/157/157 158/158/158 160/160/160
f 157/157/157 161/161/161 159/159/159
f 157/157/157 160/160/160 162/162/162
f 157/157/157 163/163/163 161/161/161
f 157/157/157 162/162/162 164/164/164
f 157/157/157 165/165/165 163/163/163
f 157/157/157 164/164/164 165/165/165
f 168/168/168 167/167/167 166/166/166
f 166/166/166 167/167/167 169/169/169
f 170/170/170 167/167/167 168/168/168
f 169/169/169 167/167/167 171/171/171
f 172/172/172 167/167/167 170/170/170
f 171/171/171 167/167/167 173/173/173
f 174/174/174 167/167/167 172/172/172
f 173/173/173 167/167/167 174/174/174
f 177/177/177 176/176/176 175/175/175
f 175/175/175 176/176/176 178/178/178
f 179/179/179 176/176/176 177/177/177
f 178/178/178 176/176/176 180/180/180
f 181/181/181 176/176/176 179/179/179
f 180/180/180 176/176/176 182/182/182
f 183/183/183 176/176/176 181/181/181
f 182/182/182 176/176/176 183/183/183
f 186/186/186 185/185/185 184/184/184
f 184/184/184 185/185/185 187/187/187
f 188/188/188 185/185/185 186/186/186
f 187/187/187 185/185/185 189/189/189
f 190/190/190 185/185/185 188/188/188
f 189/189/189 185/185/185 191/191/191
f 192/192/192 185/185/185 190/190/190
f 191/191/191 185/185/185 193/193/193
f 194/194/194 185/185/185 192/192/192
f 193/193/193 185/185/185 194/194/194
