g Prop_Floating_BouySmall_01
v -0.33556148 -0.13587764 0.33556148
v -0.6436783 0.6521373 0.6436783
v -0 0.6521373 0.8582378
v -0 -0.25332418 0.4530082
v -0 -0.25332418 0.4530082
v -0 0.6521373 0.8582378
v 0.6436783 0.6521373 0.6436783
v 0.33556148 -0.13587764 0.33556148
v -0 0.6521373 0.8582378
v -0 1.3978587 0.6436783
v 0.4767986 1.2309793 0.4767986
v 0.6436783 0.6521373 0.6436783
v -0.6436783 0.6521373 0.6436783
v -0.4767986 1.2309793 0.4767986
v -0 1.3978587 0.6436783
v -0 0.6521373 0.8582378
v -0.4767986 1.2309793 0.4767986
v -0.6436783 1.3978587 0
v -0 1.6124184 0
v -0 1.3978587 0.6436783
v -0 1.3978587 0.6436783
v -0 1.6124184 0
v 0.6436783 1.3978587 0
v 0.4767986 1.2309793 0.4767986
v -0 1.6124184 0
v -0 1.3978587 -0.6436783
v 0.4767986 1.2309793 -0.4767986
v 0.6436783 1.3978587 0
v -0.6436783 1.3978587 0
v -0.4767986 1.2309793 -0.4767986
v -0 1.3978587 -0.6436783
v -0 1.6124184 0
v -0.4767986 1.2309793 -0.4767986
v -0.6436783 0.6521373 -0.6436783
v -0 0.6521373 -0.8582378
v -0 1.3978587 -0.6436783
v -0 1.3978587 -0.6436783
v -0 0.6521373 -0.8582378
v 0.6436783 0.6521373 -0.6436783
v 0.4767986 1.2309793 -0.4767986
v -0 0.6521373 -0.8582378
v -0 -0.25332418 -0.4530082
v 0.33556148 -0.13587764 -0.33556148
v 0.6436783 0.6521373 -0.6436783
v -0.6436783 0.6521373 -0.6436783
v -0.33556148 -0.13587764 -0.33556148
v -0 -0.25332418 -0.4530082
v -0 0.6521373 -0.8582378
v -0.33556148 -0.13587764 -0.33556148
v -0.4530082 -0.25332418 0
v -0 -0.40432703 0
v -0 -0.25332418 -0.4530082
v -0 -0.25332418 -0.4530082
v -0 -0.40432703 0
v 0.4530082 -0.25332418 0
v 0.33556148 -0.13587764 -0.33556148
v -0 -0.40432703 0
v -0 -0.25332418 0.4530082
v 0.33556148 -0.13587764 0.33556148
v 0.4530082 -0.25332418 0
v -0.4530082 -0.25332418 0
v -0.33556148 -0.13587764 0.33556148
v -0 -0.25332418 0.4530082
v -0 -0.40432703 0
v 0.33556148 -0.13587764 0.33556148
v 0.6436783 0.6521373 0.6436783
v 0.8582386 0.6521373 0
v 0.4530082 -0.25332418 0
v 0.4530082 -0.25332418 0
v 0.8582386 0.6521373 0
v 0.6436783 0.6521373 -0.6436783
v 0.33556148 -0.13587764 -0.33556148
v 0.8582386 0.6521373 0
v 0.6436783 1.3978587 0
v 0.4767986 1.2309793 -0.4767986
v 0.6436783 0.6521373 -0.6436783
v 0.6436783 0.6521373 0.6436783
v 0.4767986 1.2309793 0.4767986
v 0.6436783 1.3978587 0
v 0.8582386 0.6521373 0
v -0.33556148 -0.13587764 -0.33556148
v -0.6436783 0.6521373 -0.6436783
v -0.8582382 0.6521373 0
v -0.4530082 -0.25332418 0
v -0.4530082 -0.25332418 0
v -0.8582382 0.6521373 0
v -0.6436783 0.6521373 0.6436783
v -0.33556148 -0.13587764 0.33556148
v -0.8582382 0.6521373 0
v -0.6436783 1.3978587 0
v -0.4767986 1.2309793 0.4767986
v -0.6436783 0.6521373 0.6436783
v -0.6436783 0.6521373 -0.6436783
v -0.4767986 1.2309793 -0.4767986
v -0.6436783 1.3978587 0
v -0.8582382 0.6521373 0
v -0.1577271 -0.2335411 -0.15772763
v -0.1577271 -0.54899544 -0.15772757
v 0.15772751 -0.54899544 -0.15772757
v 0.15772751 -0.2335411 -0.15772763
v -0.1577271 -0.54899544 -0.15772757
v -0.1577271 -0.54899544 0.15772757
v 0.15772751 -0.54899544 0.15772757
v 0.15772751 -0.54899544 -0.15772757
v -0.1577271 -0.54899544 0.15772757
v -0.1577271 -0.23354131 0.15772757
v 0.15772751 -0.23354131 0.15772757
v 0.15772751 -0.54899544 0.15772757
v 0.15772751 -0.2335411 -0.15772763
v 0.15772751 -0.54899544 -0.15772757
v 0.15772751 -0.54899544 0.15772757
v 0.15772751 -0.23354131 0.15772757
v -0.1577271 -0.23354131 0.15772757
v -0.1577271 -0.54899544 0.15772757
v -0.1577271 -0.54899544 -0.15772757
v -0.1577271 -0.2335411 -0.15772763
vt 0.26471496 0.18133663
vt 0.26471496 0.18133663
vt 0.26471496 0.18133663
vt 0.26471496 0.18133663
vt 0.26471496 0.18133663
vt 0.26471496 0.18133663
vt 0.26471496 0.18133663
vt 0.26471496 0.18133663
vt 0.32792443 0.18133622
vt 0.32792443 0.18133622
vt 0.32792443 0.18133622
vt 0.32792443 0.18133622
vt 0.32792443 0.18133622
vt 0.32792443 0.18133622
vt 0.32792443 0.18133622
vt 0.32792443 0.18133622
vt 0.35893622 0.18133615
vt 0.35893622 0.18133615
vt 0.35893622 0.18133615
vt 0.35893622 0.18133615
vt 0.35893622 0.18133615
vt 0.35893622 0.18133615
vt 0.35893622 0.18133615
vt 0.35893622 0.18133615
vt 0.35893622 0.18133615
vt 0.35893622 0.18133615
vt 0.35893622 0.18133615
vt 0.35893622 0.18133615
vt 0.35893622 0.18133615
vt 0.35893622 0.18133615
vt 0.35893622 0.18133615
vt 0.35893622 0.18133615
vt 0.32792443 0.18133622
vt 0.32792443 0.18133622
vt 0.32792443 0.18133622
vt 0.32792443 0.18133622
vt 0.32792443 0.18133622
vt 0.32792443 0.18133622
vt 0.32792443 0.18133622
vt 0.32792443 0.18133622
vt 0.26471496 0.18133663
vt 0.26471496 0.18133663
vt 0.26471496 0.18133663
vt 0.26471496 0.18133663
vt 0.26471496 0.18133663
vt 0.26471496 0.18133663
vt 0.26471496 0.18133663
vt 0.26471496 0.18133663
vt 0.26537278 0.1813371
vt 0.26537278 0.1813371
vt 0.2653728 0.1813371
vt 0.2653728 0.1813371
vt 0.2653728 0.1813371
vt 0.2653728 0.1813371
vt 0.2653728 0.1813371
vt 0.2653728 0.1813371
vt 0.2653728 0.1813371
vt 0.2653728 0.1813371
vt 0.2653728 0.1813371
vt 0.2653728 0.1813371
vt 0.26537278 0.1813371
vt 0.26537278 0.1813371
vt 0.2653728 0.1813371
vt 0.2653728 0.1813371
vt 0.26471496 0.18133663
vt 0.26471496 0.18133663
vt 0.26471496 0.18133663
vt 0.26471496 0.18133663
vt 0.26471496 0.18133663
vt 0.26471496 0.18133663
vt 0.26471496 0.18133663
vt 0.26471496 0.18133663
vt 0.32792443 0.18133622
vt 0.32792443 0.18133622
vt 0.32792443 0.18133622
vt 0.32792443 0.18133622
vt 0.32792443 0.18133622
vt 0.32792443 0.18133622
vt 0.32792443 0.18133622
vt 0.32792443 0.18133622
vt 0.26471496 0.18133663
vt 0.26471496 0.18133663
vt 0.26471496 0.18133663
vt 0.26471496 0.18133663
vt 0.26471496 0.18133663
vt 0.26471496 0.18133663
vt 0.26471496 0.18133663
vt 0.26471496 0.18133663
vt 0.32792443 0.18133622
vt 0.32792443 0.18133622
vt 0.32792443 0.18133622
vt 0.32792443 0.18133622
vt 0.32792443 0.18133622
vt 0.32792443 0.18133622
vt 0.32792443 0.18133622
vt 0.32792443 0.18133622
vt 0.2031885 0.084682226
vt 0.2031885 0.084682226
vt 0.2031885 0.084682226
vt 0.2031885 0.084682226
vt 0.2799573 0.08468422
vt 0.2799573 0.08468422
vt 0.2799573 0.08468422
vt 0.2799573 0.08468422
vt 0.2031885 0.084682226
vt 0.2031885 0.084682226
vt 0.2031885 0.084682226
vt 0.2031885 0.084682226
vt 0.13866569 0.08468209
vt 0.13866569 0.08468209
vt 0.13866569 0.08468209
vt 0.13866569 0.08468209
vt 0.13866569 0.08468209
vt 0.13866569 0.08468209
vt 0.13866569 0.08468209
vt 0.13866569 0.08468209
vn -0.3363072 -0.4168977 0.84444875
vn -0.3363072 -0.4168977 0.84444875
vn -0.3363072 -0.41689774 0.84444875
vn -0.3363072 -0.41689768 0.84444875
vn 0.3363072 -0.41689768 0.84444875
vn 0.3363072 -0.4168977 0.84444875
vn 0.3363072 -0.4168977 0.84444875
vn 0.33630717 -0.41689774 0.84444886
vn 0.34714773 0.29964474 0.8886515
vn 0.3471477 0.2996447 0.8886515
vn 0.3471477 0.2996447 0.8886515
vn 0.3471477 0.2996447 0.8886515
vn -0.3471477 0.2996447 0.8886515
vn -0.3471477 0.2996447 0.8886515
vn -0.3471477 0.2996447 0.8886515
vn -0.34714773 0.29964474 0.8886515
vn -0.34815544 0.87038815 0.34815553
vn -0.3481554 0.87038815 0.3481555
vn -0.3481554 0.87038815 0.3481555
vn -0.3481554 0.87038815 0.3481555
vn 0.3481554 0.87038815 0.34815556
vn 0.3481554 0.87038815 0.34815553
vn 0.3481554 0.87038815 0.34815556
vn 0.3481554 0.87038815 0.34815556
vn 0.3481554 0.87038815 -0.34815553
vn 0.3481554 0.87038815 -0.34815556
vn 0.3481554 0.87038815 -0.34815556
vn 0.3481554 0.87038815 -0.34815556
vn -0.3481554 0.87038815 -0.3481555
vn -0.34815544 0.87038815 -0.34815553
vn -0.3481554 0.87038815 -0.3481555
vn -0.3481554 0.87038815 -0.3481555
vn -0.3471477 0.2996447 -0.8886515
vn -0.3471477 0.2996447 -0.8886515
vn -0.34714773 0.29964474 -0.8886515
vn -0.3471477 0.2996447 -0.8886515
vn 0.34714773 0.29964474 -0.8886515
vn 0.34714773 0.29964474 -0.8886515
vn 0.34714773 0.29964477 -0.8886515
vn 0.34714773 0.2996447 -0.8886515
vn 0.3363072 -0.4168977 -0.84444875
vn 0.3363072 -0.41689768 -0.84444875
vn 0.33630717 -0.41689774 -0.84444886
vn 0.3363072 -0.4168977 -0.84444875
vn -0.3363072 -0.4168977 -0.84444875
vn -0.3363072 -0.4168977 -0.84444875
vn -0.3363072 -0.41689768 -0.84444875
vn -0.3363072 -0.41689774 -0.84444875
vn -0.3481555 -0.8703881 -0.3481555
vn -0.3481555 -0.8703881 -0.3481555
vn -0.3481555 -0.8703881 -0.3481555
vn -0.3481555 -0.8703881 -0.3481555
vn 0.3481555 -0.8703881 -0.3481555
vn 0.3481555 -0.8703881 -0.3481555
vn 0.3481555 -0.8703881 -0.3481555
vn 0.3481555 -0.8703881 -0.3481555
vn 0.3481555 -0.8703881 0.3481555
vn 0.3481555 -0.8703881 0.3481555
vn 0.3481555 -0.8703881 0.3481555
vn 0.3481555 -0.8703881 0.3481555
vn -0.3481555 -0.8703881 0.3481555
vn -0.3481555 -0.8703881 0.3481555
vn -0.3481555 -0.8703881 0.3481555
vn -0.3481555 -0.8703881 0.3481555
vn 0.8444483 -0.41689804 0.33630782
vn 0.84444845 -0.41689804 0.33630785
vn 0.8444483 -0.416898 0.3363078
vn 0.8444483 -0.41689804 0.33630782
vn 0.8444483 -0.41689804 -0.33630782
vn 0.8444483 -0.416898 -0.3363078
vn 0.84444845 -0.41689804 -0.33630785
vn 0.8444483 -0.41689804 -0.33630782
vn 0.88865113 0.29964513 -0.3471483
vn 0.88865113 0.2996451 -0.3471483
vn 0.88865113 0.2996451 -0.3471483
vn 0.88865113 0.29964507 -0.3471483
vn 0.88865113 0.29964516 0.3471483
vn 0.88865113 0.2996452 0.34714836
vn 0.88865113 0.29964513 0.3471483
vn 0.88865113 0.29964516 0.34714836
vn -0.8444486 -0.41689792 -0.3363076
vn -0.8444486 -0.4168979 -0.33630756
vn -0.8444486 -0.4168979 -0.3363076
vn -0.8444486 -0.41689792 -0.3363076
vn -0.8444486 -0.41689792 0.3363076
vn -0.8444486 -0.4168979 0.3363076
vn -0.8444486 -0.4168979 0.33630756
vn -0.8444486 -0.41689792 0.3363076
vn -0.8886513 0.29964486 0.34714803
vn -0.8886513 0.29964486 0.34714806
vn -0.8886513 0.29964486 0.34714803
vn -0.8886513 0.29964486 0.34714803
vn -0.8886513 0.2996449 -0.34714803
vn -0.8886513 0.29964492 -0.34714803
vn -0.8886513 0.29964498 -0.34714806
vn -0.8886513 0.2996449 -0.34714803
vn -0 0 -1
vn -0 0 -1
vn -0 0 -1
vn -0 0 -1
vn -0 -1 0
vn -0 -1 0
vn -0 -1 0
vn -0 -1 0
vn -0 0 1
vn -0 0 1
vn -0 0 1
vn -0 0 1
vn 1 0 0
vn 1 0 0
vn 1 0 0
vn 1 0 0
vn -1 0 0
vn -1 0 0
vn -1 0 0
vn -1 0 0
g Prop_Floating_BouySmall_01_0
f 3/3/3 2/2/2 1/1/1
f 4/4/4 3/3/3 1/1/1
f 7/7/7 6/6/6 5/5/5
f 8/8/8 7/7/7 5/5/5
f 11/11/11 10/10/10 9/9/9
f 12/12/12 11/11/11 9/9/9
f 15/15/15 14/14/14 13/13/13
f 16/16/16 15/15/15 13/13/13
f 19/19/19 18/18/18 17/17/17
f 20/20/20 19/19/19 17/17/17
f 23/23/23 22/22/22 21/21/21
f 24/24/24 23/23/23 21/21/21
f 27/27/27 26/26/26 25/25/25
f 28/28/28 27/27/27 25/25/25
f 31/31/31 30/30/30 29/29/29
f 32/32/32 31/31/31 29/29/29
f 35/35/35 34/34/34 33/33/33
f 36/36/36 35/35/35 33/33/33
f 39/39/39 38/38/38 37/37/37
f 40/40/40 39/39/39 37/37/37
f 43/43/43 42/42/42 41/41/41
f 44/44/44 43/43/43 41/41/41
f 47/47/47 46/46/46 45/45/45
f 48/48/48 47/47/47 45/45/45
f 51/51/51 50/50/50 49/49/49
f 52/52/52 51/51/51 49/49/49
f 55/55/55 54/54/54 53/53/53
f 56/56/56 55/55/55 53/53/53
f 59/59/59 58/58/58 57/57/57
f 60/60/60 59/59/59 57/57/57
f 63/63/63 62/62/62 61/61/61
f 64/64/64 63/63/63 61/61/61
f 67/67/67 66/66/66 65/65/65
f 68/68/68 67/67/67 65/65/65
f 71/71/71 70/70/70 69/69/69
f 72/72/72 71/71/71 69/69/69
f 75/75/75 74/74/74 73/73/73
f 76/76/76 75/75/75 73/73/73
f 79/79/79 78/78/78 77/77/77
f 80/80/80 79/79/79 77/77/77
f 83/83/83 82/82/82 81/81/81
f 84/84/84 83/83/83 81/81/81
f 87/87/87 86/86/86 85/85/85
f 88/88/88 87/87/87 85/85/85
f 91/91/91 90/90/90 89/89/89
f 92/92/92 91/91/91 89/89/89
f 95/95/95 94/94/94 93/93/93
f 96/96/96 95/95/95 93/93/93
f 99/99/99 98/98/98 97/97/97
f 100/100/100 99/99/99 97/97/97
f 103/103/103 102/102/102 101/101/101
f 104/104/104 103/103/103 101/101/101
f 107/107/107 106/106/106 105/105/105
f 108/108/108 107/107/107 105/105/105
f 111/111/111 110/110/110 109/109/109
f 112/112/112 111/111/111 109/109/109
f 115/115/115 114/114/114 113/113/113
f 116/116/116 115/115/115 113/113/113
