g Ramp5
v 0.5080517 -0.38409567 -0.31858417
v 0.5080517 -0.38409567 -0.7038801
v -1.1279919E-06 -4.7683716E-07 2.9802322E-08
v 2.4018333 -4.7683716E-07 -9.23872E-07
v 2.909887 -0.38409567 -0.70387983
v 2.9098852 -0.38409567 -0.31858394
v 0.5080517 -0.38409567 -0.7038801
v 2.909887 -0.38409567 -0.70387983
v 2.4018333 -4.7683716E-07 -9.23872E-07
v -1.1279919E-06 -4.7683716E-07 2.9802322E-08
v 2.9098852 -0.38409567 -0.31858394
v 0.5080517 -0.38409567 -0.31858417
v -1.1279919E-06 -4.7683716E-07 2.9802322E-08
v 2.4018333 -4.7683716E-07 -9.23872E-07
vt 0.035229456 0.005824428
vt 0.035229456 0.00831314
vt 0.037710413 0.003766615
vt 0.03058165 0.0070482474
vt 0.03512816 0.003766615
vt 0.032639448 0.0037666261
vt 0.03512816 0.019280624
vt 0.03512816 0.003766615
vt 0.03058165 0.0070482474
vt 0.03058163 0.022562262
vt 0.035229456 0.0058244225
vt 0.035229456 0.005824428
vt 0.037710413 0.003766615
vt 0.037710413 0.0037666261
vn -0.60306597 -0.7976913 0
vn -0.60306597 -0.7976913 0
vn -0.60306597 -0.7976913 0
vn 0.6030667 0.79769087 0
vn 0.6030667 0.79769087 0
vn 0.6030666 0.79769087 0
vn -0 0.8778112 -0.4790067
vn -0 0.8778112 -0.4790067
vn -0 0.8778112 -0.4790067
vn -0 0.8778112 -0.47900677
vn -0 -0.63841367 0.7696934
vn -0 -0.6384138 0.7696934
vn -0 -0.6384138 0.7696934
vn -0 -0.63841367 0.7696934
g Ramp5_0
f 3/3/3 2/2/2 1/1/1
f 6/6/6 5/5/5 4/4/4
f 9/9/9 8/8/8 7/7/7
f 10/10/10 9/9/9 7/7/7
f 13/13/13 12/12/12 11/11/11
f 14/14/14 13/13/13 11/11/11
