g Ramp2
v 13.202704 2.8716758E-07 0.8156869
v 13.250912 0.7294298 -2.5990087E-07
v 13.250912 2.8716758E-07 8.3200185E-09
v 3.1357558E-07 2.8716758E-07 8.3200185E-09
v -3.5011217E-06 0.72942764 -1.4221914E-06
v 0.4706119 2.8716758E-07 0.8156869
v 0.4706119 2.8716758E-07 0.8156869
v -3.5011217E-06 0.72942764 -1.4221914E-06
v 13.250912 0.7294298 -2.5990087E-07
v 13.202704 2.8716758E-07 0.8156869
v -3.5011217E-06 0.72942764 -1.4221914E-06
v 3.1357558E-07 2.8716758E-07 8.3200185E-09
v 13.250912 2.8716758E-07 8.3200185E-09
v 13.250912 0.7294298 -2.5990087E-07
v 3.1357558E-07 2.8716758E-07 8.3200185E-09
v 0.4706119 2.8716758E-07 0.8156869
v 13.202704 2.8716758E-07 0.8156869
v 13.250912 2.8716758E-07 8.3200185E-09
vt 0.011539821 0.007428471
vt 0.012325437 0.006549948
vt 0.011539821 0.006549948
vt 0.012381314 0.007428471
vt 0.013166948 0.007428471
vt 0.012381314 0.006549948
vt 0.008802413 0.020210914
vt 0.009680936 0.020717757
vt 0.009680936 0.006549948
vt 0.008802413 0.006549948
vt 0.009751711 0.020717792
vt 0.01053731 0.020717792
vt 0.01053731 0.006549948
vt 0.009751711 0.006549948
vt 0.01059317 0.020717757
vt 0.011471693 0.020210914
vt 0.011471693 0.006549948
vt 0.01059317 0.006549948
vn 0.9982582 0 0.05899729
vn 0.9982582 0 0.058997292
vn 0.9982582 0 0.05899729
vn -0.866175 0 0.49974072
vn -0.866175 0 0.49974075
vn -0.866175 0 0.49974072
vn -0 0.7454218 0.66659313
vn -0 0.74542177 0.66659313
vn -0 0.74542177 0.66659313
vn -0 0.74542177 0.6665932
vn -0 0 -1
vn -0 0 -1
vn -0 0 -1
vn -0 0 -1
vn -0 -1 0
vn -0 -1 0
vn -0 -1 0
vn -0 -1 0
g Ramp2_0
f 3/3/3 2/2/2 1/1/1
f 6/6/6 5/5/5 4/4/4
f 9/9/9 8/8/8 7/7/7
f 10/10/10 9/9/9 7/7/7
f 13/13/13 12/12/12 11/11/11
f 14/14/14 13/13/13 11/11/11
f 17/17/17 16/16/16 15/15/15
f 18/18/18 17/17/17 15/15/15
