g Ramp4
v 12.761555 -0.7294293 0.8156872
v 13.250907 -5.9403433E-08 8.3200185E-09
v 13.250907 -0.7294293 2.7654093E-07
v 0.096409634 -0.7294293 2.7654093E-07
v 0.09640868 1.7901515E-07 8.3200185E-09
v -0.02159707 -0.7294293 0.8156872
v -0.02159707 -0.7294293 0.8156872
v 0.09640868 1.7901515E-07 8.3200185E-09
v 13.250907 -5.9403433E-08 8.3200185E-09
v 12.761555 -0.7294293 0.8156872
v 0.09640868 1.7901515E-07 8.3200185E-09
v 0.096409634 -0.7294293 2.7654093E-07
v 13.250907 -0.7294293 2.7654093E-07
v 13.250907 -5.9403433E-08 8.3200185E-09
v 0.096409634 -0.7294293 2.7654093E-07
v -0.02159707 -0.7294293 0.8156872
v 12.761555 -0.7294293 0.8156872
v 13.250907 -0.7294293 2.7654093E-07
vt 0.010594829 0.007420652
vt 0.011373456 0.006549948
vt 0.010594829 0.006549948
vt 0.01145129 0.007420652
vt 0.012229917 0.007420652
vt 0.01145129 0.006549948
vt 0.010594829 0.007420652
vt 0.011373456 0.006549948
vt 0.011373456 0.006549948
vt 0.010594829 0.007420652
vt 0.009738386 0.020591808
vt 0.010516995 0.020591808
vt 0.010516995 0.006549948
vt 0.009738386 0.006549948
vt 0.008801478 0.020591844
vt 0.009672182 0.020717792
vt 0.009672182 0.0070723034
vt 0.008801478 0.006549948
vn 0.8575207 0 0.5144494
vn 0.8575208 0 0.5144494
vn 0.8575207 0 0.51444936
vn -0.9896966 0 -0.14318097
vn -0.9896966 0 -0.14318098
vn -0.9896966 0 -0.14318097
vn -0 0.7454212 0.66659385
vn -0 0.7454212 0.6665939
vn -0 0.7454212 0.6665938
vn -0 0.7454212 0.6665938
vn -0 0 -1
vn -0 0 -1
vn -0 0 -1
vn -0 0 -1
vn -0 -1 0
vn -0 -1 0
vn -0 -1 0
vn -0 -1 0
g Ramp4_0
f 3/3/3 2/2/2 1/1/1
f 6/6/6 5/5/5 4/4/4
f 9/9/9 8/8/8 7/7/7
f 10/10/10 9/9/9 7/7/7
f 13/13/13 12/12/12 11/11/11
f 14/14/14 13/13/13 11/11/11
f 17/17/17 16/16/16 15/15/15
f 18/18/18 17/17/17 15/15/15
