g Rock_004
v 1.1097698 0.4730284 -0.0009447057
v 0.8037976 0.81796694 -0.003835855
v 0.28802672 0.7320953 0.01454959
v 0.8608215 0.73598707 -0.1279095
v 0.696087 0.7960933 -0.11481439
v 0.78203976 0.80090106 -0.23637035
v 0.028154906 0.08061368 1.0245148
v -0.03253967 -0.10974705 1.0904118
v -0.11881409 0.036478855 1.0139471
v -0.13100524 0.10482594 0.99662715
v -0.042388305 0.33642566 1.009171
v 0.04022888 0.14766209 1.0057826
v 0.23612854 0.6818182 -0.81050974
v -0.24810913 0.6050133 -0.5924876
v -0.1830127 0.5677634 -0.74229896
v 0.9843665 -0.39416653 -0.89603156
v 0.9884259 -0.8552449 -0.42225808
v 1.1237439 -0.8238709 -0.07473561
v 1.3535931 0.13946414 -0.12480479
v 1.2208637 0.169177 -0.5770409
v -0.16425842 0.18474035 -0.87916195
v 0.62298524 0.51272357 -0.9573308
v 0.4518237 0.7166703 -0.8526198
v 0.23612854 0.6818182 -0.81050974
v -0.1830127 0.5677634 -0.74229896
v 0.8592352 -0.8700352 -0.5832388
v -0.17284667 -0.8841244 -0.73790455
v -0.36303648 -0.8815651 -0.6949083
v -0.58747494 -0.7994832 0.13856241
v 0.9884259 -0.8552449 -0.42225808
v 1.1237439 -0.8238709 -0.07473561
v 1.0515966 -0.80482095 0.06020762
v -0.024569701 -0.74513453 0.8418102
v -0.52318907 -0.76512104 0.53646594
v -0.21509095 -0.7447728 0.771446
v 0.23612854 0.6818182 -0.81050974
v 0.4518237 0.7166703 -0.8526198
v 0.6793786 0.76940775 -0.7559723
v -0.24810913 0.6050133 -0.5924876
v 0.78203976 0.80090106 -0.23637035
v -0.33137205 0.59967625 -0.41765434
v -0.3785382 0.62204814 0.09267257
v 0.696087 0.7960933 -0.11481439
v 0.28802672 0.7320953 0.01454959
v 0.6901916 0.8238998 0.29487246
v 0.8037976 0.81796694 -0.003835855
v -0.3997351 0.6304528 0.32945386
v 0.11130676 0.7418276 0.8010479
v 0.89722097 0.32131433 -0.97242355
v 0.9637115 0.39469612 -0.8734642
v 0.6793786 0.76940775 -0.7559723
v 0.62298524 0.51272357 -0.9573308
v 0.4518237 0.7166703 -0.8526198
v 0.09340515 0.6942865 0.8736581
v 0.11130676 0.7418276 0.8010479
v 0.6901916 0.8238998 0.29487246
v 0.7351629 0.67296183 0.5550336
v 1.1097698 0.4730284 -0.0009447057
v 1.2872528 0.25891128 0.04074164
v 1.2166883 0.27467006 0.18961966
v 0.7351629 0.67296183 0.5550336
v 0.8037976 0.81796694 -0.003835855
v 0.6901916 0.8238998 0.29487246
v 0.8608215 0.73598707 -0.1279095
v 1.1097698 0.4730284 -0.0009447057
v 0.28802672 0.7320953 0.01454959
v 0.696087 0.7960933 -0.11481439
v 0.69222283 -0.82279396 -0.9112085
v 0.9478345 -0.40622464 -0.9462876
v 0.89722097 0.32131433 -0.97242355
v 0.62298524 0.51272357 -0.9573308
v 0.19676818 -0.8572365 -0.87257296
v -0.16425842 0.18474035 -0.87916195
v -0.27961424 -0.62616414 -0.8469496
v 0.69222283 -0.82279396 -0.9112085
v 0.19676818 -0.8572365 -0.87257296
v -0.17284667 -0.8841244 -0.73790455
v 0.8592352 -0.8700352 -0.5832388
v 0.5917944 0.00034694513 0.76817036
v 0.94120115 -0.20144033 0.49199608
v 0.8736572 -0.6975843 0.43068808
v 0.08091735 -0.678866 0.9526282
v -0.01878479 -0.29208338 1.1096699
v 0.0038122558 -0.6230499 1.0216132
v -0.039194334 -0.46800715 1.0825957
v 0.0038122558 -0.6230499 1.0216132
v 0.08091735 -0.678866 0.9526282
v -0.024569701 -0.74513453 0.8418102
v -0.21509095 -0.7447728 0.771446
v -0.17284667 -0.8841244 -0.73790455
v 0.19676818 -0.8572365 -0.87257296
v -0.27961424 -0.62616414 -0.8469496
v -0.36303648 -0.8815651 -0.6949083
v -0.3752246 -0.85423553 -0.7064946
v 1.3535931 0.13946414 -0.12480479
v 1.1237439 -0.8238709 -0.07473561
v 1.0515966 -0.80482095 0.06020762
v 0.8736572 -0.6975843 0.43068808
v 0.94120115 -0.20144033 0.49199608
v 1.2166883 0.27467006 0.18961966
v 1.2872528 0.25891128 0.04074164
v 0.8736572 -0.6975843 0.43068808
v 1.0515966 -0.80482095 0.06020762
v -0.024569701 -0.74513453 0.8418102
v 0.08091735 -0.678866 0.9526282
v 1.2166883 0.27467006 0.18961966
v 0.94120115 -0.20144033 0.49199608
v 0.5917944 0.00034694513 0.76817036
v 0.7351629 0.67296183 0.5550336
v -0.5946356 0.4236564 0.58843523
v -0.021722412 0.5977564 0.9488637
v -0.042388305 0.33642566 1.009171
v -0.13100524 0.10482594 0.99662715
v -0.26849854 -0.048255384 0.9192431
v -0.57197326 -0.32266313 0.73498917
v -0.11881409 0.036478855 1.0139471
v -0.7464398 -0.31969404 0.59537894
v -0.6616608 0.33014175 0.5524418
v -0.039194334 -0.46800715 1.0825957
v -0.03253967 -0.10974705 1.0904118
v -0.01878479 -0.29208338 1.1096699
v -0.01878479 -0.29208338 1.1096699
v -0.03253967 -0.10974705 1.0904118
v 0.028154906 0.08061368 1.0245148
v 0.16685791 0.09218145 0.95552653
v 0.5917944 0.00034694513 0.76817036
v 0.09340515 0.6942865 0.8736581
v 0.7351629 0.67296183 0.5550336
v 0.04022888 0.14766209 1.0057826
v -0.021722412 0.5977564 0.9488637
v -0.042388305 0.33642566 1.009171
v 0.028154906 0.08061368 1.0245148
v -0.11881409 0.036478855 1.0139471
v -0.26849854 -0.048255384 0.9192431
v 0.16685791 0.09218145 0.95552653
v -0.13100524 0.10482594 0.99662715
v 0.04022888 0.14766209 1.0057826
v 0.16685791 0.09218145 0.95552653
v -0.26849854 -0.048255384 0.9192431
v 1.2208637 0.169177 -0.5770409
v 1.3535931 0.13946414 -0.12480479
v 1.2872528 0.25891128 0.04074164
v 0.9637115 0.39469612 -0.8734642
v 1.1097698 0.4730284 -0.0009447057
v 0.6793786 0.76940775 -0.7559723
v 0.8608215 0.73598707 -0.1279095
v 0.78203976 0.80090106 -0.23637035
v 0.69222283 -0.82279396 -0.9112085
v 0.8592352 -0.8700352 -0.5832388
v 0.9884259 -0.8552449 -0.42225808
v 0.9843665 -0.39416653 -0.89603156
v 0.9478345 -0.40622464 -0.9462876
v 0.89722097 0.32131433 -0.97242355
v 0.9478345 -0.40622464 -0.9462876
v 0.9843665 -0.39416653 -0.89603156
v 1.2208637 0.169177 -0.5770409
v 0.9637115 0.39469612 -0.8734642
v -0.5946356 0.4236564 0.58843523
v -0.3997351 0.6304528 0.32945386
v 0.11130676 0.7418276 0.8010479
v -0.021722412 0.5977564 0.9488637
v 0.09340515 0.6942865 0.8736581
v -0.5946356 0.4236564 0.58843523
v -0.6616608 0.33014175 0.5524418
v -0.5979742 0.34263897 0.0798008
v -0.33137205 0.59967625 -0.41765434
v -0.3997351 0.6304528 0.32945386
v -0.3785382 0.62204814 0.09267257
v -0.58747494 -0.7994832 0.13856241
v -0.36303648 -0.8815651 -0.6949083
v -0.3752246 -0.85423553 -0.7064946
v -0.7076251 -0.584986 0.06921753
v -0.7469897 -0.61541903 0.36360702
v -0.039194334 -0.46800715 1.0825957
v 0.0038122558 -0.6230499 1.0216132
v -0.21509095 -0.7447728 0.771446
v -0.57197326 -0.32266313 0.73498917
v -0.52318907 -0.76512104 0.53646594
v -0.74940366 -0.5875968 0.44153467
v -0.7464398 -0.31969404 0.59537894
v -0.74940366 -0.5875968 0.44153467
v -0.52318907 -0.76512104 0.53646594
v -0.58747494 -0.7994832 0.13856241
v -0.7469897 -0.61541903 0.36360702
v -0.7076251 -0.584986 0.06921753
v -0.3752246 -0.85423553 -0.7064946
v -0.27961424 -0.62616414 -0.8469496
v -0.16425842 0.18474035 -0.87916195
v -0.5979742 0.34263897 0.0798008
v -0.1830127 0.5677634 -0.74229896
v -0.33137205 0.59967625 -0.41765434
v -0.24810913 0.6050133 -0.5924876
v -0.74940366 -0.5875968 0.44153467
v -0.7469897 -0.61541903 0.36360702
v -0.7076251 -0.584986 0.06921753
v -0.7464398 -0.31969404 0.59537894
v -0.5979742 0.34263897 0.0798008
v -0.6616608 0.33014175 0.5524418
vt 0.87928796 0.45378157
vt 0.89327914 0.42727843
vt 0.87729055 0.3889211
vt 0.8645618 0.43212625
vt 0.8648425 0.4195557
vt 0.85586965 0.42544314
vt 0.95354885 0.058716837
vt 0.96074706 0.07272617
vt 0.96493834 0.059479307
vt 0.96462214 0.054937433
vt 0.955764 0.03851371
vt 0.951558 0.05343533
vt 0.81510335 0.37957314
vt 0.8352045 0.34371266
vt 0.8228884 0.34475937
vt 0.7791073 0.110791564
vt 0.8184143 0.13337055
vt 0.84033936 0.12078998
vt 0.82749647 0.06327069
vt 0.79669535 0.06639717
vt 0.8069493 0.3172296
vt 0.7570011 0.35967875
vt 0.7770845 0.37122408
vt 0.79312706 0.36342564
vt 0.8228884 0.34475937
vt 0.8077466 0.14161077
vt 0.80093485 0.2167246
vt 0.8073762 0.2311793
vt 0.8740225 0.23231287
vt 0.8184143 0.13337055
vt 0.84033936 0.12078998
vt 0.8506924 0.12256571
vt 0.9217854 0.1834059
vt 0.90384996 0.22552228
vt 0.92006123 0.19883895
vt 0.81510335 0.37957314
vt 0.81029457 0.39625704
vt 0.816596 0.41441548
vt 0.8352045 0.34371266
vt 0.85586965 0.42544314
vt 0.848919 0.33894232
vt 0.88575494 0.33730555
vt 0.8648425 0.4195557
vt 0.87729055 0.3889211
vt 0.90609425 0.41505358
vt 0.89327914 0.42727843
vt 0.90225255 0.33651388
vt 0.93961746 0.3689677
vt 0.77810603 0.42889842
vt 0.786532 0.43528852
vt 0.816596 0.41441548
vt 0.7920934 0.40784308
vt 0.81029457 0.39625704
vt 0.94586307 0.36656737
vt 0.93961746 0.3689677
vt 0.90609425 0.41505358
vt 0.9295312 0.4168123
vt 0.8348043 0.036171358
vt 0.8382205 0.055163685
vt 0.84825313 0.053102124
vt 0.8856299 0.018473566
vt 0.84293336 0.003290468
vt 0.8673224 0.0027285898
vt 0.8645618 0.43212625
vt 0.87928796 0.45378157
vt 0.87729055 0.3889211
vt 0.8648425 0.4195557
vt 0.72331786 0.2572437
vt 0.7123168 0.29541862
vt 0.73120385 0.35150078
vt 0.7570011 0.35967875
vt 0.7602105 0.24565989
vt 0.8069493 0.3172296
vt 0.79871243 0.2549802
vt 0.7840008 0.15113614
vt 0.7890292 0.18906331
vt 0.80093485 0.2167246
vt 0.8077466 0.14161077
vt 0.9087753 0.06822592
vt 0.8782651 0.08602434
vt 0.8797238 0.12438751
vt 0.950489 0.11707003
vt 0.9614505 0.086561404
vt 0.95786583 0.112134315
vt 0.9623576 0.10000538
vt 0.93697524 0.17739612
vt 0.92942154 0.17311706
vt 0.9217854 0.1834059
vt 0.92006123 0.19883895
vt 0.7903703 0.23468201
vt 0.7602105 0.24565989
vt 0.79871243 0.2549802
vt 0.80582994 0.23149428
vt 0.8068636 0.23378515
vt 0.82749647 0.06327069
vt 0.84033936 0.12078998
vt 0.8506924 0.12256571
vt 0.8797238 0.12438751
vt 0.8782651 0.08602434
vt 0.84825313 0.053102124
vt 0.8382205 0.055163685
vt 0.8797238 0.12438751
vt 0.8506924 0.12256571
vt 0.9217854 0.1834059
vt 0.92942154 0.17311706
vt 0.84825313 0.053102124
vt 0.8782651 0.08602434
vt 0.9087753 0.06822592
vt 0.8856299 0.018473566
vt 0.92072546 0.31284374
vt 0.97781456 0.3196191
vt 0.9771565 0.29788
vt 0.96934426 0.28145656
vt 0.95550185 0.27054924
vt 0.9245099 0.25645134
vt 0.9714571 0.26607072
vt 0.9103221 0.26059616
vt 0.9153348 0.3060097
vt 0.96107733 0.2283458
vt 0.97299993 0.25230718
vt 0.9688598 0.23910269
vt 0.9614505 0.086561404
vt 0.96074706 0.07272617
vt 0.95354885 0.058716837
vt 0.94199413 0.058495898
vt 0.9087753 0.06822592
vt 0.9394456 0.012423747
vt 0.8856299 0.018473566
vt 0.951558 0.05343533
vt 0.9504582 0.018856533
vt 0.955764 0.03851371
vt 0.98265207 0.26761854
vt 0.9714571 0.26607072
vt 0.95550185 0.27054924
vt 0.99133664 0.2751281
vt 0.96934426 0.28145656
vt 0.982975 0.2821139
vt 0.99133664 0.2751281
vt 0.95550185 0.27054924
vt 0.79669535 0.06639717
vt 0.82749647 0.06327069
vt 0.8382205 0.055163685
vt 0.76853555 0.050641425
vt 0.8348043 0.036171358
vt 0.7704365 0.013180339
vt 0.8208935 0.012181752
vt 0.8115406 0.006236193
vt 0.7840008 0.15113614
vt 0.8077466 0.14161077
vt 0.8184143 0.13337055
vt 0.7791073 0.110791564
vt 0.7752001 0.11310602
vt 0.76102126 0.058156203
vt 0.7752001 0.11310602
vt 0.7791073 0.110791564
vt 0.79669535 0.06639717
vt 0.76853555 0.050641425
vt 0.92072546 0.31284374
vt 0.90225255 0.33651388
vt 0.93961746 0.3689677
vt 0.95139176 0.35519895
vt 0.94586307 0.36656737
vt 0.92072546 0.31284374
vt 0.9153348 0.3060097
vt 0.8816184 0.31167108
vt 0.848919 0.33894232
vt 0.90225255 0.33651388
vt 0.88575494 0.33730555
vt 0.8740225 0.23231287
vt 0.8073762 0.2311793
vt 0.8068636 0.23378515
vt 0.87222475 0.24912944
vt 0.89152604 0.24417102
vt 0.96107733 0.2283458
vt 0.9557619 0.21635097
vt 0.9295333 0.21580625
vt 0.9245099 0.25645134
vt 0.90384996 0.22552228
vt 0.89687645 0.245161
vt 0.9103221 0.26059616
vt 0.89687645 0.245161
vt 0.90384996 0.22552228
vt 0.8740225 0.23231287
vt 0.89152604 0.24417102
vt 0.87222475 0.24912944
vt 0.8068636 0.23378515
vt 0.79871243 0.2549802
vt 0.8069493 0.3172296
vt 0.8816184 0.31167108
vt 0.8228884 0.34475937
vt 0.848919 0.33894232
vt 0.8352045 0.34371266
vt 0.89687645 0.245161
vt 0.89152604 0.24417102
vt 0.87222475 0.24912944
vt 0.9103221 0.26059616
vt 0.8816184 0.31167108
vt 0.9153348 0.3060097
vn -0.029812267 -0.03481733 -0.998949
vn -0.02981227 -0.03481733 -0.998949
vn -0.02981227 -0.03481733 -0.998949
vn 0.34856218 0.8939119 0.2818259
vn 0.34856218 0.8939119 0.2818259
vn 0.34856215 0.8939119 0.2818259
vn -0.17720808 0.37192708 0.91119015
vn -0.17720807 0.37192705 0.91119015
vn -0.17720807 0.37192705 0.91119015
vn -0.044070102 -0.037209313 0.9983353
vn -0.044070102 -0.037209317 0.9983353
vn -0.044070102 -0.037209317 0.9983353
vn -0.29859227 0.887702 -0.35046807
vn -0.29859227 0.887702 -0.35046807
vn -0.29859227 0.887702 -0.35046807
vn 0.9249665 -0.24716467 -0.28869838
vn 0.9249665 -0.24716467 -0.28869835
vn 0.9249665 -0.24716467 -0.28869832
vn 0.9249665 -0.24716464 -0.28869838
vn 0.9249665 -0.24716464 -0.28869838
vn -0.22565895 0.3067713 -0.92464554
vn -0.22565901 0.30677134 -0.92464554
vn -0.22565901 0.30677134 -0.92464554
vn -0.22565901 0.30677134 -0.92464554
vn -0.22565901 0.30677134 -0.92464554
vn -0.0012417543 -0.99579877 0.09156048
vn -0.0012417542 -0.99579877 0.09156049
vn -0.0012417543 -0.99579877 0.09156048
vn -0.0012417542 -0.99579877 0.091560476
vn -0.0012417543 -0.99579877 0.09156048
vn -0.0012417543 -0.99579877 0.09156048
vn -0.0012417542 -0.99579877 0.091560476
vn -0.0012417543 -0.99579877 0.09156048
vn -0.0012417542 -0.99579877 0.091560476
vn -0.0012417543 -0.99579877 0.09156048
vn -0.17371044 0.98353404 -0.049855474
vn -0.17371044 0.98353404 -0.04985547
vn -0.17371044 0.98353404 -0.049855474
vn -0.17371044 0.98353404 -0.049855474
vn -0.17371044 0.98353404 -0.049855474
vn -0.17371044 0.98353404 -0.049855478
vn -0.17377773 0.98335314 -0.05308418
vn -0.17371042 0.98353404 -0.04985547
vn -0.17377138 0.9833709 -0.052774493
vn -0.17382872 0.9832056 -0.055589564
vn -0.17382874 0.9832056 -0.05558957
vn -0.17382874 0.9832056 -0.055589564
vn -0.17382872 0.9832056 -0.055589568
vn 0.32448158 0.555618 -0.7655067
vn 0.3244816 0.555618 -0.7655067
vn 0.3244816 0.555618 -0.7655067
vn 0.32448155 0.555618 -0.7655067
vn 0.32448158 0.555618 -0.7655067
vn 0.27941835 0.834459 0.47497734
vn 0.27941835 0.834459 0.47497728
vn 0.27941835 0.834459 0.47497734
vn 0.27941835 0.834459 0.47497728
vn 0.7211577 0.6429772 0.25789866
vn 0.7211577 0.6429772 0.2578987
vn 0.7211577 0.6429772 0.25789866
vn 0.72115785 0.64297724 0.2578987
vn 0.7211577 0.6429772 0.2578987
vn 0.7211577 0.6429772 0.25789866
vn 0.19924362 0.5427216 0.81593823
vn 0.19924363 0.54272157 0.81593823
vn 0.19924365 0.5427216 0.81593823
vn 0.19924362 0.5427216 0.81593823
vn -0.077800944 -0.03615577 -0.99631304
vn -0.077800944 -0.03615577 -0.99631304
vn -0.077800944 -0.036155775 -0.99631304
vn -0.077800944 -0.036155775 -0.99631304
vn -0.077800944 -0.03615577 -0.99631304
vn -0.07780095 -0.036155775 -0.99631304
vn -0.077800944 -0.036155775 -0.99631304
vn 0.042070284 -0.9892454 -0.14008428
vn 0.04207028 -0.9892454 -0.14008427
vn 0.042070284 -0.9892454 -0.14008427
vn 0.042070277 -0.9892454 -0.14008425
vn 0.5426066 -0.18214953 0.8199998
vn 0.5426066 -0.18214956 0.8199998
vn 0.5426066 -0.18214956 0.8199998
vn 0.5426066 -0.18214956 0.8199998
vn 0.5426066 -0.18214956 0.8199998
vn 0.5426066 -0.18214956 0.8199998
vn 0.5426066 -0.18214956 0.8199998
vn -0.17135815 -0.8022965 0.57180125
vn -0.17135817 -0.8022965 0.5718013
vn -0.17135815 -0.8022965 0.57180125
vn -0.17135815 -0.8022965 0.57180125
vn -0.24784195 -0.46264783 -0.8511941
vn -0.24784198 -0.46264783 -0.8511941
vn -0.24784195 -0.4626478 -0.8511941
vn -0.24784195 -0.4626478 -0.8511941
vn -0.24784195 -0.4626478 -0.8511941
vn 0.86220676 -0.18385404 0.47201395
vn 0.86220676 -0.18385401 0.47201392
vn 0.86220676 -0.18385404 0.472014
vn 0.86220676 -0.18385404 0.47201395
vn 0.86220676 -0.18385404 0.472014
vn 0.86220676 -0.18385404 0.47201395
vn 0.86220676 -0.18385404 0.47201395
vn 0.21266425 -0.90857 0.35954762
vn 0.21266422 -0.90857 0.35954762
vn 0.21266422 -0.90857 0.35954762
vn 0.21266425 -0.90857 0.35954762
vn 0.6521367 0.09948459 0.7515454
vn 0.6521367 0.09948459 0.7515455
vn 0.6521367 0.099484585 0.7515454
vn 0.6521367 0.09948459 0.7515454
vn -0.5941846 0.15986626 0.7882814
vn -0.5941846 0.15986626 0.7882814
vn -0.5941845 0.15986623 0.78828126
vn -0.5941846 0.15986624 0.7882814
vn -0.5811365 0.09442597 0.8083094
vn -0.5875386 0.124831125 0.7995096
vn -0.56469184 0.026329292 0.8248817
vn -0.5941846 0.15986626 0.7882814
vn -0.5941846 0.15986626 0.7882814
vn -0.56469184 0.026329296 0.8248817
vn -0.5646918 0.026329294 0.8248818
vn -0.56469184 0.026329292 0.8248817
vn 0.43237635 0.15002236 0.88912535
vn 0.43237635 0.15002236 0.88912535
vn 0.43237635 0.15002236 0.88912535
vn 0.4341556 0.16447866 0.88569504
vn 0.43493518 0.17106326 0.8840638
vn 0.4357938 0.17851272 0.8821661
vn 0.43579382 0.17851272 0.8821661
vn 0.43579382 0.17851272 0.8821661
vn 0.4357938 0.1785127 0.8821661
vn 0.43579382 0.17851272 0.8821661
vn -0.25138724 0.8898048 -0.38085663
vn -0.25138727 0.8898048 -0.3808567
vn -0.25138724 0.8898048 -0.38085666
vn -0.25138724 0.8898048 -0.38085666
vn 0.094649084 -0.5232412 0.84691215
vn 0.09464909 -0.5232412 0.84691215
vn 0.09464908 -0.5232412 0.84691215
vn 0.09464909 -0.5232412 0.84691215
vn 0.7584002 0.626032 -0.18141961
vn 0.7584002 0.62603194 -0.1814196
vn 0.7584002 0.62603194 -0.18141963
vn 0.7584002 0.62603194 -0.1814196
vn 0.7584002 0.62603194 -0.1814196
vn 0.7584002 0.626032 -0.18141964
vn 0.7584002 0.6260319 -0.18141963
vn 0.7584002 0.62603194 -0.18141963
vn 0.72748876 -0.5010152 -0.46876842
vn 0.7274888 -0.5010152 -0.46876842
vn 0.7274888 -0.5010151 -0.4687684
vn 0.72748876 -0.5010152 -0.46876842
vn 0.7274888 -0.5010152 -0.46876842
vn 0.78291947 0.037920006 -0.6209664
vn 0.78291947 0.037920006 -0.6209663
vn 0.78291947 0.037920006 -0.6209663
vn 0.78291947 0.037920002 -0.62096626
vn 0.78291947 0.037920006 -0.6209663
vn -0.46729112 0.8196714 0.33132726
vn -0.4672911 0.81967145 0.33132726
vn -0.46729103 0.81967145 0.33132726
vn -0.4672911 0.81967145 0.3313273
vn -0.46729103 0.81967145 0.33132726
vn -0.78188497 0.61614084 -0.09500697
vn -0.78188497 0.61614084 -0.09500697
vn -0.78188497 0.61614084 -0.09500697
vn -0.78188497 0.61614084 -0.09500697
vn -0.78188497 0.6161408 -0.095006965
vn -0.7818849 0.61614084 -0.095006965
vn -0.8371405 -0.51847154 -0.17430742
vn -0.8371405 -0.51847154 -0.17430744
vn -0.8371405 -0.5184716 -0.17430744
vn -0.8371405 -0.5184716 -0.17430744
vn -0.8371405 -0.51847154 -0.17430742
vn -0.5686375 -0.40663165 0.7150539
vn -0.56863743 -0.40663165 0.71505386
vn -0.5686375 -0.40663165 0.7150539
vn -0.5686375 -0.4066317 0.7150539
vn -0.5686375 -0.40663165 0.7150539
vn -0.5686375 -0.4066317 0.7150539
vn -0.5686375 -0.40663165 0.7150539
vn -0.6394853 -0.7472402 0.1808053
vn -0.63948524 -0.74724025 0.18080531
vn -0.63948524 -0.74724025 0.18080531
vn -0.6394853 -0.74724025 0.18080531
vn -0.89856696 0.111122854 -0.42453393
vn -0.89856696 0.11112287 -0.42453393
vn -0.89856696 0.111122854 -0.42453387
vn -0.89856696 0.111122854 -0.42453393
vn -0.89856696 0.11112287 -0.42453393
vn -0.89856696 0.11112287 -0.42453393
vn -0.89856696 0.111122854 -0.42453393
vn -0.89856696 0.111122854 -0.42453396
vn -0.9850211 0.11494837 -0.12853174
vn -0.9850211 0.11494834 -0.12853172
vn -0.9850211 0.114948355 -0.12853174
vn -0.9850211 0.11494834 -0.12853172
vn -0.9850211 0.114948355 -0.12853174
vn -0.9850211 0.114948355 -0.12853174
g Rock_004_0
f 3/3/3 2/2/2 1/1/1
f 6/6/6 5/5/5 4/4/4
f 9/9/9 8/8/8 7/7/7
f 12/12/12 11/11/11 10/10/10
f 15/15/15 14/14/14 13/13/13
f 18/18/18 17/17/17 16/16/16
f 16/16/16 19/19/19 18/18/18
f 16/16/16 20/20/20 19/19/19
f 23/23/23 22/22/22 21/21/21
f 21/21/21 24/24/24 23/23/23
f 21/21/21 25/25/25 24/24/24
f 28/28/28 27/27/27 26/26/26
f 26/26/26 29/29/29 28/28/28
f 26/26/26 30/30/30 29/29/29
f 30/30/30 31/31/31 29/29/29
f 31/31/31 32/32/32 29/29/29
f 32/32/32 33/33/33 29/29/29
f 33/33/33 34/34/34 29/29/29
f 33/33/33 35/35/35 34/34/34
f 38/38/38 37/37/37 36/36/36
f 36/36/36 39/39/39 38/38/38
f 39/39/39 40/40/40 38/38/38
f 39/39/39 41/41/41 40/40/40
f 41/41/41 42/42/42 40/40/40
f 42/42/42 43/43/43 40/40/40
f 42/42/42 44/44/44 43/43/43
f 44/44/44 42/42/42 45/45/45
f 45/45/45 46/46/46 44/44/44
f 42/42/42 47/47/47 45/45/45
f 47/47/47 48/48/48 45/45/45
f 51/51/51 50/50/50 49/49/49
f 49/49/49 52/52/52 51/51/51
f 52/52/52 53/53/53 51/51/51
f 56/56/56 55/55/55 54/54/54
f 57/57/57 56/56/56 54/54/54
f 60/60/60 59/59/59 58/58/58
f 58/58/58 61/61/61 60/60/60
f 58/58/58 62/62/62 61/61/61
f 62/62/62 63/63/63 61/61/61
f 66/66/66 65/65/65 64/64/64
f 67/67/67 66/66/66 64/64/64
f 70/70/70 69/69/69 68/68/68
f 68/68/68 71/71/71 70/70/70
f 68/68/68 72/72/72 71/71/71
f 72/72/72 73/73/73 71/71/71
f 72/72/72 74/74/74 73/73/73
f 77/77/77 76/76/76 75/75/75
f 78/78/78 77/77/77 75/75/75
f 81/81/81 80/80/80 79/79/79
f 79/79/79 82/82/82 81/81/81
f 79/79/79 83/83/83 82/82/82
f 83/83/83 84/84/84 82/82/82
f 83/83/83 85/85/85 84/84/84
f 88/88/88 87/87/87 86/86/86
f 89/89/89 88/88/88 86/86/86
f 92/92/92 91/91/91 90/90/90
f 90/90/90 93/93/93 92/92/92
f 93/93/93 94/94/94 92/92/92
f 97/97/97 96/96/96 95/95/95
f 95/95/95 98/98/98 97/97/97
f 95/95/95 99/99/99 98/98/98
f 95/95/95 100/100/100 99/99/99
f 95/95/95 101/101/101 100/100/100
f 104/104/104 103/103/103 102/102/102
f 105/105/105 104/104/104 102/102/102
f 108/108/108 107/107/107 106/106/106
f 109/109/109 108/108/108 106/106/106
f 112/112/112 111/111/111 110/110/110
f 110/110/110 113/113/113 112/112/112
f 110/110/110 114/114/114 113/113/113
f 110/110/110 115/115/115 114/114/114
f 116/116/116 114/114/114 115/115/115
f 110/110/110 117/117/117 115/115/115
f 110/110/110 118/118/118 117/117/117
f 116/116/116 115/115/115 119/119/119
f 120/120/120 116/116/116 119/119/119
f 119/119/119 121/121/121 120/120/120
f 124/124/124 123/123/123 122/122/122
f 125/125/125 124/124/124 122/122/122
f 122/122/122 126/126/126 125/125/125
f 127/127/127 125/125/125 126/126/126
f 126/126/126 128/128/128 127/127/127
f 127/127/127 129/129/129 125/125/125
f 127/127/127 130/130/130 129/129/129
f 130/130/130 131/131/131 129/129/129
f 134/134/134 133/133/133 132/132/132
f 135/135/135 134/134/134 132/132/132
f 138/138/138 137/137/137 136/136/136
f 139/139/139 138/138/138 136/136/136
f 142/142/142 141/141/141 140/140/140
f 140/140/140 143/143/143 142/142/142
f 143/143/143 144/144/144 142/142/142
f 143/143/143 145/145/145 144/144/144
f 145/145/145 146/146/146 144/144/144
f 145/145/145 147/147/147 146/146/146
f 150/150/150 149/149/149 148/148/148
f 148/148/148 151/151/151 150/150/150
f 148/148/148 152/152/152 151/151/151
f 155/155/155 154/154/154 153/153/153
f 153/153/153 156/156/156 155/155/155
f 153/153/153 157/157/157 156/156/156
f 160/160/160 159/159/159 158/158/158
f 158/158/158 161/161/161 160/160/160
f 161/161/161 162/162/162 160/160/160
f 165/165/165 164/164/164 163/163/163
f 163/163/163 166/166/166 165/165/165
f 163/163/163 167/167/167 166/166/166
f 167/167/167 168/168/168 166/166/166
f 171/171/171 170/170/170 169/169/169
f 169/169/169 172/172/172 171/171/171
f 169/169/169 173/173/173 172/172/172
f 176/176/176 175/175/175 174/174/174
f 174/174/174 177/177/177 176/176/176
f 177/177/177 178/178/178 176/176/176
f 177/177/177 179/179/179 178/178/178
f 177/177/177 180/180/180 179/179/179
f 183/183/183 182/182/182 181/181/181
f 184/184/184 183/183/183 181/181/181
f 187/187/187 186/186/186 185/185/185
f 185/185/185 188/188/188 187/187/187
f 185/185/185 189/189/189 188/188/188
f 189/189/189 190/190/190 188/188/188
f 189/189/189 191/191/191 190/190/190
f 191/191/191 192/192/192 190/190/190
f 195/195/195 194/194/194 193/193/193
f 193/193/193 196/196/196 195/195/195
f 196/196/196 197/197/197 195/195/195
f 196/196/196 198/198/198 197/197/197
