g scp_mw_pipe_wrench_01
v -0.02717174 0.59778565 0.05003148
v 0.02717174 0.6289143 0.10453436
v 0.02717174 0.59778565 0.05003148
v 0.02717174 0.6289143 0.10453436
v -0.02717174 0.59778565 0.05003148
v -0.02717174 0.6289143 0.10453436
v 0.02717174 0.59778565 0.05003148
v 0.02717174 0.6289143 0.10453436
v 0.02717174 0.62891424 0.050031483
v -0.02717174 0.62891424 0.050031483
v -0.02717174 0.6289143 0.10453436
v -0.02717174 0.59778565 0.05003148
v 0.027171738 0.65698004 0.05003148
v 0.02717174 0.6289143 0.10453436
v 0.02717174 0.6569801 0.10453436
v 0.02717174 0.6289143 0.10453436
v 0.02717174 0.62891424 0.050031483
v -0.027171738 0.65698004 0.05003148
v 0.027171738 0.65698004 -0.05003148
v 0.027171738 0.65698004 0.05003148
v -0.027171738 0.65698004 -0.05003148
v -0.02717174 -0.12218891 0.05003148
v 0.027171738 -0.23318131 0.05003148
v -0.027171738 -0.23318131 0.05003148
v 0.02717174 -0.12218891 0.05003148
v 0.02717174 0.59778565 0.05003148
v -0.02717174 0.59778565 0.05003148
v 0.02717174 -0.25712118 0.016677162
v 0.027171738 -0.23318131 -0.05003148
v 0.02717174 -0.25712118 -0.016677158
v 0.02717174 -0.12218891 0.05003148
v 0.027171738 -0.23318131 0.05003148
v 0.02717174 -0.12218891 -0.05003148
v 0.02717174 0.60206544 -0.05003148
v 0.02717174 0.59778565 0.05003148
v 0.02717174 -0.12218891 -0.05003148
v -0.027171738 -0.23318131 -0.05003148
v 0.027171738 -0.23318131 -0.05003148
v -0.02717174 -0.12218891 -0.05003148
v -0.02717174 0.60206544 -0.05003148
v 0.02717174 0.60206544 -0.05003148
v -0.02717174 0.62891424 -0.05003147
v 0.02717174 0.62891424 -0.05003147
v -0.02717174 -0.25712118 -0.016677162
v -0.027171738 -0.23318131 0.05003148
v -0.02717174 -0.25712118 0.016677158
v -0.02717174 -0.12218891 -0.05003148
v -0.027171738 -0.23318131 -0.05003148
v -0.02717174 -0.12218891 0.05003148
v -0.02717174 0.59778565 0.05003148
v -0.02717174 0.60206544 -0.05003148
v 0.02717174 0.62891424 -0.05003147
v 0.02717174 0.59778565 0.05003148
v 0.02717174 0.62891424 0.050031483
v 0.02717174 0.60206544 -0.05003148
v -0.02717174 0.62891424 0.050031483
v -0.02717174 0.60206544 -0.05003148
v -0.02717174 0.62891424 -0.05003147
v -0.02717174 0.59778565 0.05003148
v 0.027171738 0.65698004 0.05003148
v -0.02717174 0.6569801 0.10453436
v -0.027171738 0.65698004 0.05003148
v 0.02717174 0.6569801 0.10453436
v -0.02717174 0.62891424 0.050031483
v -0.02717174 0.6569801 0.10453436
v -0.02717174 0.6289143 0.10453436
v -0.027171738 0.65698004 0.05003148
v 0.02717174 0.6569801 0.10453436
v -0.02717174 0.6289143 0.10453436
v -0.02717174 0.6569801 0.10453436
v 0.02717174 0.6289143 0.10453436
v 0.027171738 0.65698004 -0.05003148
v 0.02717174 0.62891424 0.050031483
v 0.027171738 0.65698004 0.05003148
v 0.02717174 0.62891424 -0.05003147
v -0.027171738 0.65698004 -0.05003148
v 0.02717174 0.62891424 -0.05003147
v 0.027171738 0.65698004 -0.05003148
v -0.02717174 0.62891424 -0.05003147
v -0.027171738 0.65698004 0.05003148
v -0.02717174 0.62891424 -0.05003147
v -0.027171738 0.65698004 -0.05003148
v -0.02717174 0.62891424 0.050031483
v -0.027171738 -0.23318131 -0.05003148
v 0.02717174 -0.25712118 -0.016677158
v 0.027171738 -0.23318131 -0.05003148
v -0.02717174 -0.25712118 -0.016677162
v 0.02717174 -0.25712118 0.016677162
v -0.02717174 -0.25712118 0.016677158
v 0.027171738 -0.23318131 0.05003148
v -0.027171738 -0.23318131 0.05003148
v 0.027171738 0.7462807 0.1045344
v -0.027171738 0.7173978 0.104534425
v -0.027171738 0.7462807 0.104534395
v 0.027171738 0.7173978 0.104534425
v 0.027171738 0.717398 -0.05509259
v 0.02717174 0.75975287 -0.12901646
v 0.027171738 0.717398 -0.12901646
v 0.027171738 0.7462807 -0.0550926
v 0.02717174 0.7897462 -0.10360237
v 0.02717174 0.7864135 -0.117721304
v 0.02717174 0.7764158 -0.12619267
v -0.027171738 0.717398 -0.12901646
v -0.027171738 0.7462807 -0.0550926
v -0.027171738 0.717398 -0.05509259
v -0.02717174 0.75975287 -0.12901646
v -0.02717174 0.7897462 -0.10360237
v -0.02717174 0.7764158 -0.12619267
v -0.02717174 0.7864135 -0.117721304
v 0.02717174 0.7897462 -0.10360237
v -0.027171738 0.789746 0.010178791
v -0.02717174 0.7897462 -0.10360237
v 0.027171738 0.789746 0.010178791
v -0.027171738 0.7462807 -0.0550926
v -0.027171738 0.789746 0.010178791
v -0.027171738 0.7462807 0.104534395
v -0.02717174 0.7897462 -0.10360237
v -0.027171738 0.717398 -0.05509259
v 0.027171738 0.7173978 0.104534425
v 0.027171738 0.717398 -0.05509259
v -0.027171738 0.7173978 0.104534425
v 0.027171738 0.7462807 -0.0550926
v 0.027171738 0.7173978 0.104534425
v 0.027171738 0.7462807 0.1045344
v 0.027171738 0.717398 -0.05509259
v 0.027171738 0.717398 -0.05509259
v -0.02717174 0.37897208 -0.0550926
v -0.027171738 0.717398 -0.05509259
v 0.02717174 0.37897208 -0.0550926
v 0.027171738 0.717398 -0.12901646
v 0.02717174 0.37897208 -0.0550926
v 0.027171738 0.717398 -0.05509259
v 0.02717174 0.36253405 -0.07973389
v 0.02717174 0.36253405 -0.10437517
v 0.02717174 0.37897208 -0.12901646
v 0.02717174 0.37897208 -0.12901646
v -0.027171738 0.717398 -0.12901646
v -0.02717174 0.37897208 -0.12901646
v 0.027171738 0.717398 -0.12901646
v -0.02717174 0.75975287 -0.12901646
v 0.02717174 0.75975287 -0.12901646
v 0.02717174 0.7764158 -0.12619267
v -0.02717174 0.7764158 -0.12619267
v 0.02717174 0.7864135 -0.117721304
v -0.02717174 0.7864135 -0.117721304
v 0.02717174 0.7897462 -0.10360237
v -0.02717174 0.7897462 -0.10360237
v -0.027171738 0.717398 -0.05509259
v -0.02717174 0.37897208 -0.12901646
v -0.027171738 0.717398 -0.12901646
v -0.02717174 0.36253405 -0.10437517
v -0.02717174 0.36253405 -0.079733886
v -0.02717174 0.37897208 -0.0550926
v 0.027171738 0.789746 0.010178791
v -0.027171738 0.7462807 0.104534395
v -0.027171738 0.789746 0.010178791
v 0.027171738 0.7462807 0.1045344
v -0.027171738 0.717398 -0.05509259
v -0.027171738 0.7462807 0.104534395
v -0.027171738 0.7173978 0.104534425
v -0.027171738 0.7462807 -0.0550926
v 0.02717174 0.7897462 -0.10360237
v 0.027171738 0.7462807 0.1045344
v 0.027171738 0.789746 0.010178791
v 0.027171738 0.7462807 -0.0550926
v -0.036771055 0.43199763 -0.14107983
v 0.03677105 0.43199763 -0.05224572
v 0.036771055 0.43199763 -0.14107983
v -0.03677105 0.43199763 -0.05224572
v 0.03677105 0.4871778 0.06358465
v -0.03677105 0.4871778 0.06358465
v 0.03677105 0.5611017 -0.052245777
v 0.036771055 0.43199763 -0.14107983
v 0.03677105 0.43199763 -0.05224572
v 0.036771055 0.47503233 -0.15587081
v 0.036771055 0.51806694 -0.15587083
v 0.036771055 0.5611017 -0.14107983
v 0.036771055 0.5611017 -0.14107983
v -0.03677105 0.5611017 -0.052245777
v -0.036771055 0.5611017 -0.14107983
v 0.03677105 0.5611017 -0.052245777
v -0.03677105 0.5611017 0.06358463
v 0.03677105 0.5611017 0.06358463
v -0.03677105 0.43199763 -0.05224572
v -0.036771055 0.5611017 -0.14107983
v -0.03677105 0.5611017 -0.052245777
v -0.036771055 0.51806694 -0.15587083
v -0.036771055 0.47503233 -0.15587081
v -0.036771055 0.43199763 -0.14107983
v 0.03677105 0.5611017 0.06358463
v -0.03677105 0.4871778 0.06358465
v -0.03677105 0.5611017 0.06358463
v 0.03677105 0.4871778 0.06358465
v 0.03677105 0.5611017 0.06358463
v 0.03677105 0.43199763 -0.05224572
v 0.03677105 0.4871778 0.06358465
v 0.03677105 0.5611017 -0.052245777
v -0.03677105 0.4871778 0.06358465
v -0.03677105 0.5611017 -0.052245777
v -0.03677105 0.5611017 0.06358463
v -0.03677105 0.43199763 -0.05224572
v -0.060017128 0.474423 -0.092054546
v -0.04243851 0.5186759 -0.049616005
v -0.04243851 0.474423 -0.049616005
v -0.060017128 0.5186759 -0.092054546
v -0.042438522 0.474423 -0.13449307
v -0.042438522 0.5186759 -0.13449307
v -2.623432E-09 0.474423 -0.15207168
v -2.623432E-09 0.5186759 -0.15207168
v 0.042438515 0.474423 -0.13449307
v 0.042438515 0.5186759 -0.13449307
v 0.060017128 0.474423 -0.092054546
v 0.060017128 0.5186759 -0.092054546
v 0.04243851 0.474423 -0.049616016
v 0.04243851 0.5186759 -0.049616016
v 7.1569706E-10 0.474423 -0.03203741
v 7.1569706E-10 0.5186759 -0.03203741
v -0.04243851 0.474423 -0.049616005
v -0.04243851 0.5186759 -0.049616005
v 7.1569706E-10 0.474423 -0.03203741
v -0.060017128 0.474423 -0.092054546
v -0.04243851 0.474423 -0.049616005
v 0.060017128 0.474423 -0.092054546
v 0.04243851 0.474423 -0.049616016
v -2.623432E-09 0.474423 -0.15207168
v -0.042438522 0.474423 -0.13449307
v 0.042438515 0.474423 -0.13449307
v 0.042438515 0.5186759 -0.13449307
v -0.042438522 0.5186759 -0.13449307
v -2.623432E-09 0.5186759 -0.15207168
v 0.04243851 0.5186759 -0.049616016
v 0.060017128 0.5186759 -0.092054546
v -0.04243851 0.5186759 -0.049616005
v -0.060017128 0.5186759 -0.092054546
v 7.1569706E-10 0.5186759 -0.03203741
v -0.02717174 0.37897208 -0.12901646
v 0.02717174 0.36253405 -0.10437517
v 0.02717174 0.37897208 -0.12901646
v -0.02717174 0.36253405 -0.10437517
v 0.02717174 0.36253405 -0.07973389
v -0.02717174 0.36253405 -0.079733886
v 0.02717174 0.37897208 -0.0550926
v -0.02717174 0.37897208 -0.0550926
v -0.036771055 0.5611017 -0.14107983
v 0.036771055 0.51806694 -0.15587083
v 0.036771055 0.5611017 -0.14107983
v -0.036771055 0.51806694 -0.15587083
v 0.036771055 0.47503233 -0.15587081
v -0.036771055 0.47503233 -0.15587081
v 0.036771055 0.43199763 -0.14107983
v -0.036771055 0.43199763 -0.14107983
vt 0.7375443 0.9692036
vt 0.7391736 0.9692036
vt 0.7391736 0.9692036
vt 0.7391736 0.9692036
vt 0.7375443 0.9692036
vt 0.7375443 0.9696109
vt 0.7375443 0.9692036
vt 0.7391736 0.9692036
vt 0.7375443 0.9696109
vt 0.7391736 0.9696109
vt 0.7375443 0.9696109
vt 0.7391736 0.9692036
vt 0.25446936 0.31966785
vt 0.25609595 0.31885454
vt 0.25609595 0.31966785
vt 0.25609595 0.31885454
vt 0.25446936 0.3192612
vt 0.25446936 0.31804127
vt 0.25609595 0.31966785
vt 0.25609595 0.31804127
vt 0.25446936 0.31966785
vt 0.7375443 0.96879625
vt 0.7391736 0.9683889
vt 0.7375443 0.9683889
vt 0.7391736 0.96879625
vt 0.7391736 0.9692036
vt 0.7375443 0.9692036
vt 0.7358445 0.96435225
vt 0.7429858 0.94445306
vt 0.7358445 0.9544027
vt 0.77609485 0.9743019
vt 0.7429858 0.9743019
vt 0.77609485 0.94445306
vt 0.9921405 0.94445306
vt 0.99086374 0.9743019
vt 0.7375443 0.96879625
vt 0.7391736 0.9683889
vt 0.7375443 0.9683889
vt 0.7391736 0.96879625
vt 0.7391736 0.9692036
vt 0.7375443 0.9692036
vt 0.7391736 0.9696109
vt 0.7375443 0.9696109
vt 0.7358445 0.9544027
vt 0.7429858 0.9743019
vt 0.7358445 0.96435225
vt 0.77609485 0.94445306
vt 0.7429858 0.94445306
vt 0.77609485 0.9743019
vt 0.99086374 0.9743019
vt 0.9921405 0.94445306
vt 0.7391736 0.9696109
vt 0.7375443 0.9692036
vt 0.7375443 0.9696109
vt 0.7391736 0.9692036
vt 0.7391736 0.9696109
vt 0.7375443 0.9692036
vt 0.7375443 0.9696109
vt 0.7391736 0.9692036
vt 0.25609595 0.31804127
vt 0.25446936 0.31966785
vt 0.25446936 0.31804127
vt 0.25609595 0.31966785
vt 0.25609595 0.3192612
vt 0.25446936 0.31966785
vt 0.25446936 0.3192612
vt 0.25609595 0.31966785
vt 0.25609595 0.31966785
vt 0.25446936 0.3192612
vt 0.25446936 0.31966785
vt 0.25609595 0.31885454
vt 0.25609595 0.31966785
vt 0.25446936 0.3192612
vt 0.25446936 0.31966785
vt 0.25609595 0.3192612
vt 0.25609595 0.31966785
vt 0.25446936 0.3192612
vt 0.25446936 0.31966785
vt 0.25609595 0.3192612
vt 0.25609595 0.31966785
vt 0.25446936 0.3192612
vt 0.25446936 0.31966785
vt 0.25609595 0.3192612
vt 0.7391736 0.97001827
vt 0.7375443 0.96947515
vt 0.7375443 0.97001827
vt 0.7391736 0.96947515
vt 0.7375443 0.96893203
vt 0.7391736 0.96893203
vt 0.7375443 0.9683889
vt 0.7391736 0.9683889
vt 0.25609595 0.3192612
vt 0.25446936 0.31885454
vt 0.25446936 0.3192612
vt 0.25609595 0.31885454
vt 0.7407131 0.934112
vt 0.7417544 0.9343723
vt 0.7417544 0.934112
vt 0.7407131 0.9343723
vt 0.7407131 0.93463266
vt 0.7413595 0.93460774
vt 0.74165565 0.9345329
vt 0.7407131 0.934112
vt 0.7417544 0.9343723
vt 0.7417544 0.934112
vt 0.7407131 0.9343723
vt 0.74160177 0.93463266
vt 0.7408118 0.9345329
vt 0.74110806 0.93460774
vt 0.7417544 0.93359137
vt 0.7407131 0.93463266
vt 0.7407131 0.933744
vt 0.7417544 0.93463266
vt 0.7417544 0.9343723
vt 0.7407131 0.93463266
vt 0.7407131 0.9343723
vt 0.74160177 0.93463266
vt 0.25446936 0.31885454
vt 0.25609595 0.31885454
vt 0.25609595 0.31885454
vt 0.25446936 0.31885454
vt 0.25446936 0.3192612
vt 0.25609595 0.31885454
vt 0.25609595 0.3192612
vt 0.25446936 0.31885454
vt 0.7417544 0.934112
vt 0.7407131 0.93385166
vt 0.7407131 0.934112
vt 0.7417544 0.93385166
vt 0.86218584 0.910255
vt 0.74054027 0.93682665
vt 0.86218584 0.93682665
vt 0.73463166 0.9279694
vt 0.73463166 0.91911227
vt 0.74054027 0.910255
vt 0.7407131 0.93385166
vt 0.7417544 0.934112
vt 0.7417544 0.93385166
vt 0.7407131 0.934112
vt 0.7417544 0.9343723
vt 0.7407131 0.9343723
vt 0.7407131 0.9345662
vt 0.7417544 0.9345662
vt 0.7407131 0.9347242
vt 0.7417544 0.9347242
vt 0.7407131 0.93488216
vt 0.7417544 0.93488216
vt 0.86218584 0.93682665
vt 0.74054027 0.910255
vt 0.86218584 0.910255
vt 0.73463166 0.91911227
vt 0.73463166 0.9279694
vt 0.74054027 0.93682665
vt 0.7417544 0.93463266
vt 0.7407131 0.9343723
vt 0.7407131 0.93463266
vt 0.7417544 0.9343723
vt 0.25609595 0.31885454
vt 0.25446936 0.3192612
vt 0.25446936 0.31885454
vt 0.25609595 0.3192612
vt 0.7407131 0.93463266
vt 0.7417544 0.9343723
vt 0.7417544 0.93463266
vt 0.7407131 0.9343723
vt 0.7353606 0.9682437
vt 0.74118245 0.9706695
vt 0.74118245 0.9682437
vt 0.7353606 0.9706695
vt 0.74118245 0.9730953
vt 0.7353606 0.9730953
vt 0.74118245 0.9706695
vt 0.7353606 0.9682437
vt 0.7353606 0.9706695
vt 0.73730123 0.9682437
vt 0.73924184 0.9682437
vt 0.74118245 0.9682437
vt 0.7353606 0.9682437
vt 0.74118245 0.9706695
vt 0.74118245 0.9682437
vt 0.7353606 0.9706695
vt 0.74118245 0.9730953
vt 0.7353606 0.9730953
vt 0.74118245 0.9706695
vt 0.7353606 0.9682437
vt 0.7353606 0.9706695
vt 0.73730123 0.9682437
vt 0.73924184 0.9682437
vt 0.74118245 0.9682437
vt 0.74118245 0.9730953
vt 0.74118245 0.9730953
vt 0.74118245 0.9730953
vt 0.74118245 0.9730953
vt 0.9871643 0.9407343
vt 0.94850403 0.9754198
vt 0.96502763 0.9407343
vt 0.9871643 0.9754198
vt 0.96502763 0.9407343
vt 0.9871643 0.9754198
vt 0.9871643 0.9407343
vt 0.94850403 0.9754198
vt 0.741105 0.9339291
vt 0.74239975 0.9337045
vt 0.741105 0.9337045
vt 0.74239975 0.9339291
vt 0.741105 0.9341536
vt 0.74239975 0.9341536
vt 0.741105 0.93437815
vt 0.74239975 0.93437815
vt 0.741105 0.93460274
vt 0.74239975 0.93460274
vt 0.741105 0.93482727
vt 0.74239975 0.93482727
vt 0.741105 0.9350518
vt 0.74239975 0.9350518
vt 0.741105 0.9352763
vt 0.74239975 0.9352763
vt 0.741105 0.9355009
vt 0.74239975 0.9355009
vt 0.74267346 0.93430907
vt 0.7421134 0.9356246
vt 0.74266595 0.9350828
vt 0.741358 0.93374896
vt 0.7421317 0.93375653
vt 0.7407979 0.9350645
vt 0.7413397 0.935617
vt 0.74080545 0.9342907
vt 0.7421041 0.9337617
vt 0.74263835 0.935088
vt 0.742646 0.9343142
vt 0.74077785 0.9342959
vt 0.7413304 0.9337541
vt 0.7413121 0.9356221
vt 0.7420858 0.9356297
vt 0.74077034 0.9350697
vt 0.7407131 0.93385166
vt 0.7407131 0.93385166
vt 0.7407131 0.93385166
vt 0.7407131 0.93385166
vt 0.7407131 0.93385166
vt 0.7407131 0.93385166
vt 0.7407131 0.93385166
vt 0.7407131 0.93385166
vt 0.7353606 0.9682437
vt 0.7353606 0.9682437
vt 0.7353606 0.9682437
vt 0.7353606 0.9682437
vt 0.7353606 0.9682437
vt 0.7353606 0.9682437
vt 0.7353606 0.9682437
vt 0.7353606 0.9682437
vn -0 -0.8683521 0.4959482
vn -0 -0.8683521 0.4959482
vn -0 -0.8683521 0.49594814
vn -0 -0.8683521 0.4959482
vn -0 -0.8683521 0.4959482
vn -0 -0.8683521 0.49594814
vn 1 0 0
vn 1 0 0
vn 1 0 0
vn -1 0 0
vn -1 0 0
vn -1 0 0
vn 1 0 0
vn 1 0 0
vn 1 0 0
vn 1 0 0
vn 1 0 0
vn -0 1 0
vn -0 1 0
vn -0 1 0
vn -0 1 0
vn -0 0 1
vn -0 0 1
vn -0 0 1
vn -0 0 1
vn -0 0 1
vn -0 0 1
vn 1 0 0
vn 1 0 0
vn 1 0 0
vn 1 0 0
vn 1 0 0
vn 1 0 0
vn 1 0 0
vn 1 0 0
vn -0 0 -1
vn -0 0 -1
vn -0 0 -1
vn -0 0 -1
vn -0 1.7760127E-07 -1
vn -0 1.7760121E-07 -1
vn -0 0 -1
vn -0 0 -1
vn -1 0 0
vn -1 0 0
vn -1 0 0
vn -1 0 0
vn -1 0 0
vn -1 0 0
vn -1 0 0
vn -1 0 0
vn 1 0 0
vn 1 0 0
vn 1 0 0
vn 1 0 0
vn -1 0 0
vn -1 0 0
vn -1 0 0
vn -1 0 0
vn -0 1 -1.3998149E-06
vn -0 1 -1.3998149E-06
vn -0 1 -1.3998149E-06
vn -0 1 -1.3998149E-06
vn -1 0 0
vn -1 0 0
vn -1 0 0
vn -1 0 0
vn -0 0 1
vn -0 0 1
vn -0 0 1
vn -0 0 1
vn 1 0 0
vn 1 0 0
vn 1 0 0
vn 1 0 0
vn -0 -3.3979907E-07 -1
vn -0 0 -1
vn -0 -3.3979896E-07 -1
vn -0 0 -1
vn -1 0 0
vn -1 0 0
vn -1 0 0
vn -1 0 0
vn -0 -0.81240255 -0.5830969
vn -0 -0.9519461 -0.30626574
vn -0 -0.81240255 -0.5830969
vn -0 -0.9519461 -0.3062657
vn -0 -0.9519461 0.3062657
vn -0 -0.9519461 0.30626574
vn -0 -0.81240255 0.5830969
vn -0 -0.81240255 0.5830969
vn -1.754901E-07 9.905592E-07 1
vn -1.7549013E-07 9.905593E-07 1
vn -1.7549011E-07 9.905593E-07 1
vn -0 6.6037285E-07 1
vn 1 0 0
vn 1 0 0
vn 1 0 0
vn 1 0 0
vn 1 0 0
vn 1 0 0
vn 1 0 0
vn -1 0 0
vn -1 0 0
vn -1 0 0
vn -1 0 0
vn -1 0 0
vn -1 0 0
vn -1 0 0
vn -0 0.9932909 -0.11564216
vn -0 1 2.011597E-06
vn -0 0.9932909 -0.11564216
vn -0 1 2.011597E-06
vn -1 0 0
vn -1 0 0
vn -1 0 0
vn -1 0 0
vn -0 -1 -9.559027E-07
vn -0 -1 -9.559028E-07
vn -0 -1 -9.559027E-07
vn -0 -1 -9.559027E-07
vn 1 0 0
vn 1 0 0
vn 1 0 0
vn 1 0 0
vn -0 0 1
vn -0 0 1
vn -0 0 1
vn -0 0 1
vn 1 0 0
vn 1 0 0
vn 1 0 0
vn 1 0 0
vn 1 0 0
vn 1 0 0
vn -0 0 -1
vn -0 0 -1
vn -0 0 -1
vn -0 0 -1
vn -0 0.08383654 -0.9964796
vn -0 0.08383655 -0.9964796
vn -0 0.42178044 -0.90669805
vn -0 0.42178044 -0.90669805
vn -0 0.8526146 -0.5225403
vn -0 0.8526146 -0.5225403
vn -0 0.9932909 -0.11564216
vn -0 0.9932909 -0.11564216
vn -1 0 0
vn -1 0 0
vn -1 0 0
vn -1 0 0
vn -1 0 0
vn -1 0 0
vn -0 0.9082649 0.41839567
vn -0 0.9082649 0.41839567
vn -0 0.9082649 0.4183957
vn -0 0.9082649 0.41839567
vn -1 0 0
vn -1 0 0
vn -1 0 0
vn -1 0 0
vn 1 0 0
vn 1 0 0
vn 1 0 0
vn 1 0 0
vn -0 -1 0
vn -0 -0.97539514 0.22046387
vn -0 -1 0
vn -0 -0.97539514 0.22046384
vn -0 -0.9027913 0.43007872
vn -0 -0.9027913 0.43007872
vn 1 0 0
vn 1 0 0
vn 1 0 0
vn 1 0 0
vn 1 0 0
vn 1 0 0
vn -0 1 0
vn -0 1 0
vn -0 1 0
vn -0 1 0
vn -0 1 0
vn -0 1 0
vn -1 0 0
vn -1 0 0
vn -1 0 0
vn -1 0 0
vn -1 0 0
vn -1 0 0
vn -0 2.5801526E-07 1
vn -0 2.5801523E-07 1
vn -0 2.5801523E-07 1
vn -0 2.5801523E-07 1
vn 1 0 0
vn 1 0 0
vn 1 0 0
vn 1 0 0
vn -1 0 0
vn -1 0 0
vn -1 0 0
vn -1 0 0
vn -1 0 0
vn -0.70710677 0 0.7071068
vn -0.70710677 0 0.7071068
vn -1 0 0
vn -0.7071069 0 -0.7071066
vn -0.7071069 0 -0.7071066
vn -0 0 -1
vn -0 0 -1
vn 0.7071069 0 -0.70710665
vn 0.7071069 0 -0.70710665
vn 1 0 0
vn 1 0 0
vn 0.70710677 0 0.7071068
vn 0.70710677 0 0.7071068
vn -0 0 1
vn 1.0267976E-07 0 1
vn -0.70710677 0 0.7071068
vn -0.70710677 0 0.7071068
vn -0 -1 0
vn -0 -1 0
vn -0 -1 0
vn -0 -1 0
vn -0 -1 0
vn -0 -1 0
vn -0 -1 0
vn -0 -1 0
vn -0 1 0
vn -0 1 0
vn -0 1 0
vn -0 1 0
vn -0 1 0
vn -0 1 0
vn -0 1 0
vn -0 1 0
vn -0 -0.83188665 -0.5549456
vn -0 -0.9570493 -0.28992525
vn -0 -0.83188665 -0.5549456
vn -0 -0.9570493 -0.28992528
vn -0 -0.9570493 0.28992528
vn -0 -0.9570493 0.28992534
vn -0 -0.8318866 0.5549456
vn -0 -0.8318866 0.55494565
vn -0 0.32503676 -0.9457014
vn -0 0.16477036 -0.98633194
vn -0 0.3250368 -0.9457014
vn -0 0.16477036 -0.98633194
vn -0 -0.16477059 -0.98633194
vn -0 -0.16477059 -0.98633194
vn -0 -0.32503676 -0.9457014
vn -0 -0.3250368 -0.9457014
g scp_mw_pipe_wrench_01_0
f 3/3/3 2/2/2 1/1/1
f 6/6/6 5/5/5 4/4/4
f 9/9/9 8/8/8 7/7/7
f 12/12/12 11/11/11 10/10/10
f 15/15/15 14/14/14 13/13/13
f 17/17/17 13/13/13 16/16/16
f 20/20/20 19/19/19 18/18/18
f 21/21/21 18/18/18 19/19/19
f 24/24/24 23/23/23 22/22/22
f 25/25/25 22/22/22 23/23/23
f 25/25/25 26/26/26 22/22/22
f 27/27/27 22/22/22 26/26/26
f 30/30/30 29/29/29 28/28/28
f 29/29/29 31/31/31 28/28/28
f 28/28/28 31/31/31 32/32/32
f 33/33/33 31/31/31 29/29/29
f 33/33/33 34/34/34 31/31/31
f 35/35/35 31/31/31 34/34/34
f 38/38/38 37/37/37 36/36/36
f 39/39/39 36/36/36 37/37/37
f 39/39/39 40/40/40 36/36/36
f 41/41/41 36/36/36 40/40/40
f 40/40/40 42/42/42 41/41/41
f 43/43/43 41/41/41 42/42/42
f 46/46/46 45/45/45 44/44/44
f 45/45/45 47/47/47 44/44/44
f 44/44/44 47/47/47 48/48/48
f 49/49/49 47/47/47 45/45/45
f 49/49/49 50/50/50 47/47/47
f 51/51/51 47/47/47 50/50/50
f 54/54/54 53/53/53 52/52/52
f 55/55/55 52/52/52 53/53/53
f 58/58/58 57/57/57 56/56/56
f 59/59/59 56/56/56 57/57/57
f 62/62/62 61/61/61 60/60/60
f 63/63/63 60/60/60 61/61/61
f 66/66/66 65/65/65 64/64/64
f 67/67/67 64/64/64 65/65/65
f 70/70/70 69/69/69 68/68/68
f 71/71/71 68/68/68 69/69/69
f 74/74/74 73/73/73 72/72/72
f 75/75/75 72/72/72 73/73/73
f 78/78/78 77/77/77 76/76/76
f 79/79/79 76/76/76 77/77/77
f 82/82/82 81/81/81 80/80/80
f 83/83/83 80/80/80 81/81/81
f 86/86/86 85/85/85 84/84/84
f 87/87/87 84/84/84 85/85/85
f 85/85/85 88/88/88 87/87/87
f 89/89/89 87/87/87 88/88/88
f 88/88/88 90/90/90 89/89/89
f 91/91/91 89/89/89 90/90/90
f 94/94/94 93/93/93 92/92/92
f 95/95/95 92/92/92 93/93/93
f 98/98/98 97/97/97 96/96/96
f 99/99/99 96/96/96 97/97/97
f 100/100/100 99/99/99 97/97/97
f 101/101/101 100/100/100 97/97/97
f 102/102/102 101/101/101 97/97/97
f 105/105/105 104/104/104 103/103/103
f 106/106/106 103/103/103 104/104/104
f 107/107/107 106/106/106 104/104/104
f 108/108/108 106/106/106 107/107/107
f 109/109/109 108/108/108 107/107/107
f 112/112/112 111/111/111 110/110/110
f 113/113/113 110/110/110 111/111/111
f 116/116/116 115/115/115 114/114/114
f 117/117/117 114/114/114 115/115/115
f 120/120/120 119/119/119 118/118/118
f 121/121/121 118/118/118 119/119/119
f 124/124/124 123/123/123 122/122/122
f 125/125/125 122/122/122 123/123/123
f 128/128/128 127/127/127 126/126/126
f 129/129/129 126/126/126 127/127/127
f 132/132/132 131/131/131 130/130/130
f 131/131/131 133/133/133 130/130/130
f 133/133/133 134/134/134 130/130/130
f 130/130/130 134/134/134 135/135/135
f 138/138/138 137/137/137 136/136/136
f 139/139/139 136/136/136 137/137/137
f 137/137/137 140/140/140 139/139/139
f 141/141/141 139/139/139 140/140/140
f 141/141/141 140/140/140 142/142/142
f 143/143/143 142/142/142 140/140/140
f 142/142/142 143/143/143 144/144/144
f 145/145/145 144/144/144 143/143/143
f 144/144/144 145/145/145 146/146/146
f 147/147/147 146/146/146 145/145/145
f 150/150/150 149/149/149 148/148/148
f 149/149/149 151/151/151 148/148/148
f 151/151/151 152/152/152 148/148/148
f 148/148/148 152/152/152 153/153/153
f 156/156/156 155/155/155 154/154/154
f 157/157/157 154/154/154 155/155/155
f 160/160/160 159/159/159 158/158/158
f 161/161/161 158/158/158 159/159/159
f 164/164/164 163/163/163 162/162/162
f 165/165/165 162/162/162 163/163/163
f 168/168/168 167/167/167 166/166/166
f 169/169/169 166/166/166 167/167/167
f 167/167/167 170/170/170 169/169/169
f 171/171/171 169/169/169 170/170/170
f 174/174/174 173/173/173 172/172/172
f 173/173/173 175/175/175 172/172/172
f 175/175/175 176/176/176 172/172/172
f 172/172/172 176/176/176 177/177/177
f 180/180/180 179/179/179 178/178/178
f 181/181/181 178/178/178 179/179/179
f 179/179/179 182/182/182 181/181/181
f 183/183/183 181/181/181 182/182/182
f 186/186/186 185/185/185 184/184/184
f 185/185/185 187/187/187 184/184/184
f 187/187/187 188/188/188 184/184/184
f 184/184/184 188/188/188 189/189/189
f 192/192/192 191/191/191 190/190/190
f 193/193/193 190/190/190 191/191/191
f 196/196/196 195/195/195 194/194/194
f 197/197/197 194/194/194 195/195/195
f 200/200/200 199/199/199 198/198/198
f 201/201/201 198/198/198 199/199/199
f 204/204/204 203/203/203 202/202/202
f 205/205/205 202/202/202 203/203/203
f 202/202/202 205/205/205 206/206/206
f 207/207/207 206/206/206 205/205/205
f 206/206/206 207/207/207 208/208/208
f 209/209/209 208/208/208 207/207/207
f 208/208/208 209/209/209 210/210/210
f 211/211/211 210/210/210 209/209/209
f 210/210/210 211/211/211 212/212/212
f 213/213/213 212/212/212 211/211/211
f 212/212/212 213/213/213 214/214/214
f 215/215/215 214/214/214 213/213/213
f 214/214/214 215/215/215 216/216/216
f 217/217/217 216/216/216 215/215/215
f 216/216/216 217/217/217 218/218/218
f 219/219/219 218/218/218 217/217/217
f 222/222/222 221/221/221 220/220/220
f 221/221/221 223/223/223 220/220/220
f 220/220/220 223/223/223 224/224/224
f 225/225/225 223/223/223 221/221/221
f 226/226/226 225/225/225 221/221/221
f 227/227/227 223/223/223 225/225/225
f 230/230/230 229/229/229 228/228/228
f 229/229/229 231/231/231 228/228/228
f 228/228/228 231/231/231 232/232/232
f 233/233/233 231/231/231 229/229/229
f 234/234/234 233/233/233 229/229/229
f 235/235/235 231/231/231 233/233/233
f 238/238/238 237/237/237 236/236/236
f 239/239/239 236/236/236 237/237/237
f 237/237/237 240/240/240 239/239/239
f 241/241/241 239/239/239 240/240/240
f 240/240/240 242/242/242 241/241/241
f 243/243/243 241/241/241 242/242/242
f 246/246/246 245/245/245 244/244/244
f 247/247/247 244/244/244 245/245/245
f 245/245/245 248/248/248 247/247/247
f 249/249/249 247/247/247 248/248/248
f 248/248/248 250/250/250 249/249/249
f 251/251/251 249/249/249 250/250/250
