g scp_ip_factory_pipe_01
v 15.358486 -0.41960636 -1.337749
v 2.4414062E-06 -0.6491296 -0.7836328
v 15.358486 -0.6491284 -0.7836328
v 2.4414062E-06 -0.41960758 -1.337749
v 15.358486 0.13451107 -1.5672729
v 2.4414062E-06 0.13450924 -1.5672729
v 15.358486 0.6886273 -1.337749
v 1.2207031E-06 0.68862486 -1.337749
v 15.358486 0.91815 -0.7836328
v 1.2207031E-06 0.91814756 -0.7836328
v 15.358486 0.6886273 -0.2295166
v 2.4414062E-06 0.68862486 -0.2295166
v 15.358486 0.13451014 4.8828124E-06
v 2.4414062E-06 0.13450833 4.8828124E-06
v 15.358487 -0.41960573 -0.2295166
v 2.4414062E-06 -0.41960695 -0.2295166
v 15.358486 -0.6491284 -0.7836328
v 2.4414062E-06 -0.6491296 -0.7836328
v 7.517248 -0.55450565 -1.4726465
v 7.517248 -0.55450505 -0.09461914
v 7.517248 -0.83990234 -0.7836328
v 7.517248 0.8235229 -1.4726465
v 7.517248 0.13450985 -1.7580444
v 7.517248 0.8235229 -0.09461914
v 7.517248 0.13450894 0.1907788
v 7.517248 1.1089209 -0.7836328
v 7.841249 0.8235229 -1.4726465
v 7.841249 0.8235229 -0.09461914
v 7.841249 1.1089209 -0.7836328
v 7.84125 -0.55450565 -1.4726465
v 7.841249 0.13450985 -1.7580444
v 7.84125 -0.55450505 -0.09461914
v 7.841249 0.13450894 0.1907788
v 7.84125 -0.83990234 -0.7836328
v 13.530793 -0.37356326 -1.268794
v 13.346572 -0.37356326 -1.3468213
v 13.530793 -0.37356326 -1.3468213
v 13.346572 -0.37356326 -1.268794
v 13.530793 -0.9530987 -1.268794
v 13.530793 -0.37356326 -1.3468213
v 13.530793 -0.9530987 -1.3468213
v 13.530793 -0.37356326 -1.268794
v 13.530793 -0.9530987 -1.3468213
v 13.346572 -0.37356326 -1.3468213
v 13.346572 -0.9530987 -1.3468213
v 13.530793 -0.37356326 -1.3468213
v 13.346572 -0.9530987 -1.3468213
v 13.346572 -0.37356326 -1.268794
v 13.346572 -0.9530987 -1.268794
v 13.346572 -0.37356326 -1.3468213
v 13.346572 -0.9530987 -1.268794
v 13.530793 -0.37356326 -1.268794
v 13.530793 -0.9530987 -1.268794
v 13.346572 -0.37356326 -1.268794
v 9.691169 -0.37356326 -1.268794
v 9.506947 -0.37356326 -1.3468213
v 9.691169 -0.37356326 -1.3468213
v 9.506947 -0.37356326 -1.268794
v 9.691169 -0.95309937 -1.268794
v 9.691169 -0.37356326 -1.3468213
v 9.691169 -0.95309937 -1.3468213
v 9.691169 -0.37356326 -1.268794
v 9.691169 -0.95309937 -1.3468213
v 9.506947 -0.37356326 -1.3468213
v 9.5069475 -0.95309937 -1.3468213
v 9.691169 -0.37356326 -1.3468213
v 9.5069475 -0.95309937 -1.3468213
v 9.506947 -0.37356326 -1.268794
v 9.5069475 -0.95309937 -1.268794
v 9.506947 -0.37356326 -1.3468213
v 9.5069475 -0.95309937 -1.268794
v 9.691169 -0.37356326 -1.268794
v 9.691169 -0.95309937 -1.268794
v 9.506947 -0.37356326 -1.268794
v 5.8515453 -0.3735639 -1.268794
v 5.6673255 -0.3735639 -1.3468213
v 5.8515463 -0.3735639 -1.3468213
v 5.6673255 -0.3735639 -1.268794
v 5.8515453 -0.95309997 -1.268794
v 5.8515463 -0.3735639 -1.3468213
v 5.8515453 -0.95309997 -1.3468213
v 5.8515453 -0.3735639 -1.268794
v 5.8515453 -0.95309997 -1.3468213
v 5.6673255 -0.3735639 -1.3468213
v 5.6673255 -0.95309997 -1.3468213
v 5.8515463 -0.3735639 -1.3468213
v 5.6673255 -0.95309997 -1.3468213
v 5.6673255 -0.3735639 -1.268794
v 5.6673255 -0.95309997 -1.268794
v 5.6673255 -0.3735639 -1.3468213
v 5.6673255 -0.95309997 -1.268794
v 5.8515453 -0.3735639 -1.268794
v 5.8515453 -0.95309997 -1.268794
v 5.6673255 -0.3735639 -1.268794
v 2.011923 -0.37356448 -1.268794
v 1.8277019 -0.37356448 -1.3468213
v 2.011923 -0.37356448 -1.3468213
v 1.8277019 -0.37356448 -1.268794
v 2.011923 -0.95309997 -1.268794
v 2.011923 -0.37356448 -1.3468213
v 2.011923 -0.95309997 -1.3468213
v 2.011923 -0.37356448 -1.268794
v 2.011923 -0.95309997 -1.3468213
v 1.8277019 -0.37356448 -1.3468213
v 1.8277019 -0.95309997 -1.3468213
v 2.011923 -0.37356448 -1.3468213
v 1.8277019 -0.95309997 -1.3468213
v 1.8277019 -0.37356448 -1.268794
v 1.8277019 -0.95309997 -1.268794
v 1.8277019 -0.37356448 -1.3468213
v 1.8277019 -0.95309997 -1.268794
v 2.011923 -0.37356448 -1.268794
v 2.011923 -0.95309997 -1.268794
v 1.8277019 -0.37356448 -1.268794
v 2.011923 -0.3735639 -0.22045165
v 1.8277019 -0.3735639 -0.298479
v 2.011923 -0.3735639 -0.298479
v 1.8277019 -0.3735639 -0.22045165
v 2.0119238 -0.95309997 -0.22045165
v 2.011923 -0.3735639 -0.298479
v 2.011923 -0.95309997 -0.298479
v 2.011923 -0.3735639 -0.22045165
v 2.011923 -0.95309997 -0.298479
v 1.8277019 -0.3735639 -0.298479
v 1.8277019 -0.95309997 -0.298479
v 2.011923 -0.3735639 -0.298479
v 1.8277019 -0.95309997 -0.298479
v 1.8277019 -0.3735639 -0.22045165
v 1.8277026 -0.95309997 -0.22045165
v 1.8277019 -0.3735639 -0.298479
v 1.8277026 -0.95309997 -0.22045165
v 2.011923 -0.3735639 -0.22045165
v 2.0119238 -0.95309997 -0.22045165
v 1.8277019 -0.3735639 -0.22045165
v 5.8515453 -0.37356326 -0.22045165
v 5.6673255 -0.37356326 -0.298479
v 5.8515453 -0.37356326 -0.298479
v 5.6673255 -0.37356326 -0.22045165
v 5.8515463 -0.95309937 -0.22045165
v 5.8515453 -0.37356326 -0.298479
v 5.8515453 -0.95309937 -0.298479
v 5.8515453 -0.37356326 -0.22045165
v 5.8515453 -0.95309937 -0.298479
v 5.6673255 -0.37356326 -0.298479
v 5.6673255 -0.95309937 -0.298479
v 5.8515453 -0.37356326 -0.298479
v 5.6673255 -0.95309937 -0.298479
v 5.6673255 -0.37356326 -0.22045165
v 5.6673255 -0.95309937 -0.22045165
v 5.6673255 -0.37356326 -0.298479
v 5.6673255 -0.95309937 -0.22045165
v 5.8515453 -0.37356326 -0.22045165
v 5.8515463 -0.95309937 -0.22045165
v 5.6673255 -0.37356326 -0.22045165
v 9.691169 -0.37356266 -0.22045165
v 9.5069475 -0.37356266 -0.298479
v 9.691169 -0.37356266 -0.298479
v 9.5069475 -0.37356266 -0.22045165
v 9.691169 -0.9530987 -0.22045165
v 9.691169 -0.37356266 -0.298479
v 9.691169 -0.9530987 -0.298479
v 9.691169 -0.37356266 -0.22045165
v 9.691169 -0.9530987 -0.298479
v 9.5069475 -0.37356266 -0.298479
v 9.506948 -0.9530987 -0.298479
v 9.691169 -0.37356266 -0.298479
v 9.506948 -0.9530987 -0.298479
v 9.5069475 -0.37356266 -0.22045165
v 9.506948 -0.9530987 -0.22045165
v 9.5069475 -0.37356266 -0.298479
v 9.506948 -0.9530987 -0.22045165
v 9.691169 -0.37356266 -0.22045165
v 9.691169 -0.9530987 -0.22045165
v 9.5069475 -0.37356266 -0.22045165
v 13.530793 -0.37356266 -0.22045165
v 13.346572 -0.37356266 -0.298479
v 13.530793 -0.37356266 -0.298479
v 13.346572 -0.37356266 -0.22045165
v 13.530794 -0.9530987 -0.22045165
v 13.530793 -0.37356266 -0.298479
v 13.530794 -0.9530987 -0.298479
v 13.530793 -0.37356266 -0.22045165
v 13.530794 -0.9530987 -0.298479
v 13.346572 -0.37356266 -0.298479
v 13.346572 -0.9530987 -0.298479
v 13.530793 -0.37356266 -0.298479
v 13.346572 -0.9530987 -0.298479
v 13.346572 -0.37356266 -0.22045165
v 13.346572 -0.9530987 -0.22045165
v 13.346572 -0.37356266 -0.298479
v 13.346572 -0.9530987 -0.22045165
v 13.530793 -0.37356266 -0.22045165
v 13.530794 -0.9530987 -0.22045165
v 13.346572 -0.37356266 -0.22045165
v -0 -0.9247003 -1.3999194
v 15.35849 -0.9246985 -1.2156934
v -0 -0.9247003 -1.2156934
v 15.35849 -0.9246985 -1.399917
v -0 -1.1089209 -1.3999194
v 15.35849 -0.9246985 -1.399917
v -0 -0.9247003 -1.3999194
v 15.35849 -1.1089196 -1.399917
v -0 -1.1089209 -1.2156934
v 15.35849 -1.1089196 -1.399917
v -0 -1.1089209 -1.3999194
v 15.35849 -1.1089196 -1.2156934
v -0 -0.9247003 -1.2156934
v 15.35849 -1.1089196 -1.2156934
v -0 -1.1089209 -1.2156934
v 15.35849 -0.9246985 -1.2156934
v -0 -0.92469966 -0.35157713
v 15.358491 -0.9246979 -0.16735351
v -0 -0.92469966 -0.16735351
v 15.358491 -0.9246979 -0.35157713
v -0 -1.1089202 -0.35157713
v 15.358491 -0.9246979 -0.35157713
v -0 -0.92469966 -0.35157713
v 15.358491 -1.108919 -0.35157713
v -0 -1.1089202 -0.16735351
v 15.358491 -1.108919 -0.35157713
v -0 -1.1089202 -0.35157713
v 15.358491 -1.108919 -0.16735351
v -0 -0.92469966 -0.16735351
v 15.358491 -1.108919 -0.16735351
v -0 -1.1089202 -0.16735351
v 15.358491 -0.9246979 -0.16735351
v 7.517248 -0.55450565 -1.4726465
v 7.841249 0.13450985 -1.7580444
v 7.517248 0.13450985 -1.7580444
v 7.84125 -0.55450565 -1.4726465
v 7.841249 0.8235229 -1.4726465
v 7.517248 -0.83990234 -0.7836328
v 7.517248 0.8235229 -1.4726465
v 7.84125 -0.83990234 -0.7836328
v 7.841249 1.1089209 -0.7836328
v 7.517248 -0.55450505 -0.09461914
v 7.517248 1.1089209 -0.7836328
v 7.84125 -0.55450505 -0.09461914
v 7.841249 0.8235229 -0.09461914
v 7.517248 0.13450894 0.1907788
v 7.517248 0.8235229 -0.09461914
v 7.841249 0.13450894 0.1907788
vt 0.54722536 0.77431065
vt 0.54819244 0.78204745
vt 0.54819244 0.77431065
vt 0.54722536 0.78204745
vt 0.5462583 0.77431065
vt 0.5462583 0.78204745
vt 0.5452911 0.77431065
vt 0.5452911 0.78204745
vt 0.54432404 0.77431065
vt 0.54432404 0.78204745
vt 0.54335696 0.77431065
vt 0.54335696 0.78204745
vt 0.54238987 0.77431065
vt 0.54238987 0.78204745
vt 0.5414227 0.77431065
vt 0.5414227 0.78204745
vt 0.54045564 0.77431065
vt 0.54045564 0.78204745
vt 0.5663842 0.78039974
vt 0.5663842 0.77673835
vt 0.5656259 0.77856904
vt 0.5700456 0.78039974
vt 0.5682149 0.781158
vt 0.5700456 0.77673835
vt 0.5682149 0.77598
vt 0.5708039 0.77856904
vt 0.5700456 0.78039974
vt 0.5700456 0.77673835
vt 0.5708039 0.77856904
vt 0.5663842 0.78039974
vt 0.5682149 0.781158
vt 0.5663842 0.77673835
vt 0.5682149 0.77598
vt 0.5656259 0.77856904
vt 0.5887166 0.77607536
vt 0.59322244 0.7805812
vt 0.59322244 0.77607536
vt 0.5887166 0.7805812
vt 0.5887166 0.77607536
vt 0.59322244 0.7805812
vt 0.59322244 0.77607536
vt 0.5887166 0.7805812
vt 0.5887166 0.77607536
vt 0.59322244 0.7805812
vt 0.59322244 0.77607536
vt 0.5887166 0.7805812
vt 0.5887166 0.77607536
vt 0.59322244 0.7805812
vt 0.59322244 0.77607536
vt 0.5887166 0.7805812
vt 0.5887166 0.77607536
vt 0.59322244 0.7805812
vt 0.59322244 0.77607536
vt 0.5887166 0.7805812
vt 0.5887166 0.77607536
vt 0.59322244 0.7805812
vt 0.59322244 0.77607536
vt 0.5887166 0.7805812
vt 0.5887166 0.77607536
vt 0.59322244 0.7805812
vt 0.59322244 0.77607536
vt 0.5887166 0.7805812
vt 0.5887166 0.77607536
vt 0.59322244 0.7805812
vt 0.59322244 0.77607536
vt 0.5887166 0.7805812
vt 0.5887166 0.77607536
vt 0.59322244 0.7805812
vt 0.59322244 0.77607536
vt 0.5887166 0.7805812
vt 0.5887166 0.77607536
vt 0.59322244 0.7805812
vt 0.59322244 0.77607536
vt 0.5887166 0.7805812
vt 0.5887166 0.77607536
vt 0.59322244 0.7805812
vt 0.59322244 0.77607536
vt 0.5887166 0.7805812
vt 0.5887166 0.77607536
vt 0.59322244 0.7805812
vt 0.59322244 0.77607536
vt 0.5887166 0.7805812
vt 0.5887166 0.77607536
vt 0.59322244 0.7805812
vt 0.59322244 0.77607536
vt 0.5887166 0.7805812
vt 0.5887166 0.77607536
vt 0.59322244 0.7805812
vt 0.59322244 0.77607536
vt 0.5887166 0.7805812
vt 0.5887166 0.77607536
vt 0.59322244 0.7805812
vt 0.59322244 0.77607536
vt 0.5887166 0.7805812
vt 0.5887166 0.77607536
vt 0.59322244 0.7805812
vt 0.59322244 0.77607536
vt 0.5887166 0.7805812
vt 0.5887166 0.77607536
vt 0.59322244 0.7805812
vt 0.59322244 0.77607536
vt 0.5887166 0.7805812
vt 0.5887166 0.77607536
vt 0.59322244 0.7805812
vt 0.59322244 0.77607536
vt 0.5887166 0.7805812
vt 0.5887166 0.77607536
vt 0.59322244 0.7805812
vt 0.59322244 0.77607536
vt 0.5887166 0.7805812
vt 0.5887166 0.77607536
vt 0.59322244 0.7805812
vt 0.59322244 0.77607536
vt 0.5887166 0.7805812
vt 0.5887166 0.77607536
vt 0.59322244 0.7805812
vt 0.59322244 0.77607536
vt 0.5887166 0.7805812
vt 0.5887166 0.77607536
vt 0.59322244 0.7805812
vt 0.59322244 0.77607536
vt 0.5887166 0.7805812
vt 0.5887166 0.77607536
vt 0.59322244 0.7805812
vt 0.59322244 0.77607536
vt 0.5887166 0.7805812
vt 0.5887166 0.77607536
vt 0.59322244 0.7805812
vt 0.59322244 0.77607536
vt 0.5887166 0.7805812
vt 0.5887166 0.77607536
vt 0.59322244 0.7805812
vt 0.59322244 0.77607536
vt 0.5887166 0.7805812
vt 0.5887166 0.77607536
vt 0.59322244 0.7805812
vt 0.59322244 0.77607536
vt 0.5887166 0.7805812
vt 0.5887166 0.77607536
vt 0.59322244 0.7805812
vt 0.59322244 0.77607536
vt 0.5887166 0.7805812
vt 0.5887166 0.77607536
vt 0.59322244 0.7805812
vt 0.59322244 0.77607536
vt 0.5887166 0.7805812
vt 0.5887166 0.77607536
vt 0.59322244 0.7805812
vt 0.59322244 0.77607536
vt 0.5887166 0.7805812
vt 0.5887166 0.77607536
vt 0.59322244 0.7805812
vt 0.59322244 0.77607536
vt 0.5887166 0.7805812
vt 0.5887166 0.77607536
vt 0.59322244 0.7805812
vt 0.59322244 0.77607536
vt 0.5887166 0.7805812
vt 0.5887166 0.77607536
vt 0.59322244 0.7805812
vt 0.59322244 0.77607536
vt 0.5887166 0.7805812
vt 0.5887166 0.77607536
vt 0.59322244 0.7805812
vt 0.59322244 0.77607536
vt 0.5887166 0.7805812
vt 0.5887166 0.77607536
vt 0.59322244 0.7805812
vt 0.59322244 0.77607536
vt 0.5887166 0.7805812
vt 0.5887166 0.77607536
vt 0.59322244 0.7805812
vt 0.59322244 0.77607536
vt 0.5887166 0.7805812
vt 0.5887166 0.77607536
vt 0.59322244 0.7805812
vt 0.59322244 0.77607536
vt 0.5887166 0.7805812
vt 0.5887166 0.77607536
vt 0.59322244 0.7805812
vt 0.59322244 0.77607536
vt 0.5887166 0.7805812
vt 0.5887166 0.77607536
vt 0.59322244 0.7805812
vt 0.59322244 0.77607536
vt 0.5887166 0.7805812
vt 0.5887166 0.77607536
vt 0.59322244 0.7805812
vt 0.59322244 0.77607536
vt 0.5887166 0.7805812
vt 0.5887166 0.77607536
vt 0.59322244 0.7805812
vt 0.59322244 0.77607536
vt 0.5887166 0.7805812
vt 0.59322244 0.7789712
vt 0.5887166 0.7772744
vt 0.5887166 0.7789712
vt 0.59322244 0.7772744
vt 0.59322244 0.7789712
vt 0.5887166 0.7772744
vt 0.5887166 0.7789712
vt 0.59322244 0.7772744
vt 0.59322244 0.7789712
vt 0.5887166 0.7772744
vt 0.5887166 0.7789712
vt 0.59322244 0.7772744
vt 0.59322244 0.7789712
vt 0.5887166 0.7772744
vt 0.5887166 0.7789712
vt 0.59322244 0.7772744
vt 0.59322244 0.7789712
vt 0.5887166 0.7772744
vt 0.5887166 0.7789712
vt 0.59322244 0.7772744
vt 0.59322244 0.7789712
vt 0.5887166 0.7772744
vt 0.5887166 0.7789712
vt 0.59322244 0.7772744
vt 0.59322244 0.7789712
vt 0.5887166 0.7772744
vt 0.5887166 0.7789712
vt 0.59322244 0.7772744
vt 0.59322244 0.7789712
vt 0.5887166 0.7772744
vt 0.5887166 0.7789712
vt 0.59322244 0.7772744
vt 0.5663842 0.78039974
vt 0.5682149 0.781158
vt 0.5682149 0.781158
vt 0.5663842 0.78039974
vt 0.5700456 0.78039974
vt 0.5656259 0.77856904
vt 0.5700456 0.78039974
vt 0.5656259 0.77856904
vt 0.5708039 0.77856904
vt 0.5663842 0.77673835
vt 0.5708039 0.77856904
vt 0.5663842 0.77673835
vt 0.5700456 0.77673835
vt 0.5682149 0.77598
vt 0.5700456 0.77673835
vt 0.5682149 0.77598
vn -0 -0.7071075 -0.70710605
vn -0 -1 5.133989E-07
vn -0 -1 5.94259E-07
vn -0 -0.70710766 -0.7071059
vn -0 4.3125536E-07 -1
vn -0 5.955428E-07 -1
vn -1.0437677E-07 0.7071075 -0.70710605
vn -1.12402844E-07 0.7071079 -0.70710564
vn -1.589614E-07 1 -1.5915361E-07
vn -1.589614E-07 1 -1.02679785E-07
vn -1.1240257E-07 0.70710605 0.7071074
vn -1.04376646E-07 0.7071061 0.70710737
vn -0 -6.026012E-07 1
vn -0 -5.7500614E-07 1
vn -0 -0.70710605 0.7071075
vn -0 -0.70710635 0.7071072
vn -0 -1 5.94259E-07
vn -0 -1 5.133989E-07
vn -1 -1.8454868E-07 0
vn -1 -1.8454875E-07 0
vn -1 0 0
vn -1 -1.8454867E-07 0
vn -1 -2.2145827E-07 5.346487E-07
vn -1 -1.8454867E-07 0
vn -1 -2.2145834E-07 -5.3464953E-07
vn -1 0 0
vn 1 1.8454863E-07 0
vn 1 1.8454867E-07 0
vn 1 0 0
vn 1 1.845487E-07 0
vn 1 2.2145827E-07 -5.346487E-07
vn 1 1.845488E-07 0
vn 1 2.2145834E-07 5.3464953E-07
vn 1 0 0
vn -0 1 0
vn -0 1 0
vn -0 1 0
vn -0 1 0
vn 1 0 0
vn 1 0 0
vn 1 0 0
vn 1 0 0
vn -0 0 -1
vn -0 0 -1
vn -0 0 -1
vn -0 0 -1
vn -1 -5.265869E-07 0
vn -1 -5.265869E-07 0
vn -1 -5.2658686E-07 0
vn -1 -5.2658686E-07 0
vn -0 0 1
vn -0 0 1
vn -0 0 1
vn -0 0 1
vn -0 1 0
vn -0 1 0
vn -0 1 0
vn -0 1 0
vn 1 2.6329315E-07 0
vn 1 2.6329315E-07 0
vn 1 2.6329315E-07 0
vn 1 2.6329315E-07 0
vn -0 0 -1
vn -0 0 -1
vn -0 0 -1
vn -0 0 -1
vn -1 -2.6329315E-07 0
vn -1 -2.6329315E-07 0
vn -1 -2.6329315E-07 0
vn -1 -2.6329315E-07 0
vn -0 0 1
vn -0 0 1
vn -0 0 1
vn -0 0 1
vn -0 1 0
vn -0 1 0
vn -0 1 0
vn -0 1 0
vn 1 -9.634416E-07 6.6646265E-07
vn 1 0 7.155815E-06
vn 1 -1.0531726E-06 0
vn 1 0 7.822278E-06
vn -0 0 -1
vn -0 0 -1
vn -0 0 -1
vn -0 0 -1
vn -1 0 0
vn -1 0 0
vn -1 0 0
vn -1 0 0
vn -0 0 1
vn -0 0 1
vn -0 0 1
vn -0 0 1
vn -0 1 0
vn -0 1 0
vn -0 1 0
vn -0 1 0
vn 1 0 0
vn 1 0 0
vn 1 0 0
vn 1 0 0
vn -0 0 -1
vn -0 0 -1
vn -0 0 -1
vn -0 0 -1
vn -1 0 0
vn -1 0 0
vn -1 0 0
vn -1 0 0
vn -0 0 1
vn -0 0 1
vn -0 0 1
vn -0 0 1
vn -0 1 0
vn -0 1 0
vn -0 1 0
vn -0 1 0
vn 1 0 -7.155815E-06
vn 1 9.634416E-07 -6.6646265E-07
vn 1 0 -7.822278E-06
vn 1 1.0531726E-06 0
vn -0 0 -1
vn -0 0 -1
vn -0 0 -1
vn -0 0 -1
vn -1 -9.634416E-07 7.155815E-06
vn -1 0 6.6646265E-07
vn -1 -1.0531726E-06 7.822278E-06
vn -1 0 0
vn -0 0 1
vn -0 0 1
vn -0 0 1
vn -0 0 1
vn -0 1 0
vn -0 1 0
vn -0 1 0
vn -0 1 0
vn 1 0 -7.155815E-06
vn 1 9.634416E-07 -6.6646265E-07
vn 1 0 -7.822278E-06
vn 1 1.0531726E-06 0
vn -0 0 -1
vn -0 0 -1
vn -0 0 -1
vn -0 0 -1
vn -1 -9.634416E-07 7.155815E-06
vn -1 0 6.6646265E-07
vn -1 -1.0531726E-06 7.822278E-06
vn -1 0 0
vn -0 0 1
vn -0 0 1
vn -0 0 1
vn -0 0 1
vn -0 1 0
vn -0 1 0
vn -0 1 0
vn -0 1 0
vn 1 2.6329315E-07 0
vn 1 2.6329315E-07 0
vn 1 2.6329315E-07 0
vn 1 2.6329315E-07 0
vn -0 0 -1
vn -0 0 -1
vn -0 0 -1
vn -0 0 -1
vn -1 -2.6329315E-07 0
vn -1 -2.6329315E-07 0
vn -1 -2.6329315E-07 0
vn -1 -2.6329315E-07 0
vn -0 0 1
vn -0 0 1
vn -0 0 1
vn -0 0 1
vn -0 1 0
vn -0 1 0
vn -0 1 0
vn -0 1 0
vn 1 5.265863E-07 0
vn 1 5.265863E-07 0
vn 1 5.265863E-07 0
vn 1 5.265863E-07 0
vn -0 0 -1
vn -0 0 -1
vn -0 0 -1
vn -0 0 -1
vn -1 -5.265863E-07 0
vn -1 -5.265863E-07 0
vn -1 -5.265863E-07 0
vn -1 -5.265863E-07 0
vn -0 0 1
vn -0 0 1
vn -0 0 1
vn -0 0 1
vn -1.1922101E-07 1 0
vn -1.1922101E-07 1 0
vn -1.1922101E-07 1 0
vn -1.1922103E-07 1 0
vn 1.5896136E-07 0 -1
vn 1.5896136E-07 0 -1
vn 1.5896137E-07 0 -1
vn 1.5896134E-07 0 -1
vn -0 -1 0
vn -0 -1 0
vn -0 -1 0
vn -0 -1 0
vn -0 0 1
vn -0 0 1
vn -0 0 1
vn -0 0 1
vn -1.1922099E-07 1 0
vn -1.1922099E-07 1 0
vn -1.19221E-07 1 0
vn -1.19221E-07 1 0
vn -0 0 -1
vn -0 0 -1
vn -0 0 -1
vn -0 0 -1
vn -0 -1 0
vn -0 -1 0
vn -0 -1 0
vn -0 -1 0
vn -0 0 1
vn -0 0 1
vn -0 0 1
vn -0 0 1
vn -0 -0.70710695 -0.7071066
vn -0 5.9554225E-07 -1
vn -0 7.700979E-07 -1
vn -0 -0.707107 -0.70710653
vn -0 0.7071068 -0.70710665
vn -0 -1 3.2857497E-07
vn -0 0.7071069 -0.70710665
vn -0 -1 3.3370895E-07
vn -0 1 0
vn -0 -0.7071069 0.70710665
vn -0 1 0
vn -0 -0.70710695 0.7071066
vn -0 0.70710665 0.7071068
vn -0 0 1
vn -0 0.70710665 0.7071069
vn -0 0 1
g scp_ip_factory_pipe_01_0
f 3/3/3 2/2/2 1/1/1
f 4/4/4 1/1/1 2/2/2
f 1/1/1 4/4/4 5/5/5
f 6/6/6 5/5/5 4/4/4
f 5/5/5 6/6/6 7/7/7
f 8/8/8 7/7/7 6/6/6
f 7/7/7 8/8/8 9/9/9
f 10/10/10 9/9/9 8/8/8
f 9/9/9 10/10/10 11/11/11
f 12/12/12 11/11/11 10/10/10
f 11/11/11 12/12/12 13/13/13
f 14/14/14 13/13/13 12/12/12
f 13/13/13 14/14/14 15/15/15
f 16/16/16 15/15/15 14/14/14
f 15/15/15 16/16/16 17/17/17
f 18/18/18 17/17/17 16/16/16
f 21/21/21 20/20/20 19/19/19
f 20/20/20 22/22/22 19/19/19
f 19/19/19 22/22/22 23/23/23
f 24/24/24 22/22/22 20/20/20
f 25/25/25 24/24/24 20/20/20
f 26/26/26 22/22/22 24/24/24
f 29/29/29 28/28/28 27/27/27
f 28/28/28 30/30/30 27/27/27
f 27/27/27 30/30/30 31/31/31
f 32/32/32 30/30/30 28/28/28
f 33/33/33 32/32/32 28/28/28
f 34/34/34 30/30/30 32/32/32
f 37/37/37 36/36/36 35/35/35
f 38/38/38 35/35/35 36/36/36
f 41/41/41 40/40/40 39/39/39
f 42/42/42 39/39/39 40/40/40
f 45/45/45 44/44/44 43/43/43
f 46/46/46 43/43/43 44/44/44
f 49/49/49 48/48/48 47/47/47
f 50/50/50 47/47/47 48/48/48
f 53/53/53 52/52/52 51/51/51
f 54/54/54 51/51/51 52/52/52
f 57/57/57 56/56/56 55/55/55
f 58/58/58 55/55/55 56/56/56
f 61/61/61 60/60/60 59/59/59
f 62/62/62 59/59/59 60/60/60
f 65/65/65 64/64/64 63/63/63
f 66/66/66 63/63/63 64/64/64
f 69/69/69 68/68/68 67/67/67
f 70/70/70 67/67/67 68/68/68
f 73/73/73 72/72/72 71/71/71
f 74/74/74 71/71/71 72/72/72
f 77/77/77 76/76/76 75/75/75
f 78/78/78 75/75/75 76/76/76
f 81/81/81 80/80/80 79/79/79
f 82/82/82 79/79/79 80/80/80
f 85/85/85 84/84/84 83/83/83
f 86/86/86 83/83/83 84/84/84
f 89/89/89 88/88/88 87/87/87
f 90/90/90 87/87/87 88/88/88
f 93/93/93 92/92/92 91/91/91
f 94/94/94 91/91/91 92/92/92
f 97/97/97 96/96/96 95/95/95
f 98/98/98 95/95/95 96/96/96
f 101/101/101 100/100/100 99/99/99
f 102/102/102 99/99/99 100/100/100
f 105/105/105 104/104/104 103/103/103
f 106/106/106 103/103/103 104/104/104
f 109/109/109 108/108/108 107/107/107
f 110/110/110 107/107/107 108/108/108
f 113/113/113 112/112/112 111/111/111
f 114/114/114 111/111/111 112/112/112
f 117/117/117 116/116/116 115/115/115
f 118/118/118 115/115/115 116/116/116
f 121/121/121 120/120/120 119/119/119
f 122/122/122 119/119/119 120/120/120
f 125/125/125 124/124/124 123/123/123
f 126/126/126 123/123/123 124/124/124
f 129/129/129 128/128/128 127/127/127
f 130/130/130 127/127/127 128/128/128
f 133/133/133 132/132/132 131/131/131
f 134/134/134 131/131/131 132/132/132
f 137/137/137 136/136/136 135/135/135
f 138/138/138 135/135/135 136/136/136
f 141/141/141 140/140/140 139/139/139
f 142/142/142 139/139/139 140/140/140
f 145/145/145 144/144/144 143/143/143
f 146/146/146 143/143/143 144/144/144
f 149/149/149 148/148/148 147/147/147
f 150/150/150 147/147/147 148/148/148
f 153/153/153 152/152/152 151/151/151
f 154/154/154 151/151/151 152/152/152
f 157/157/157 156/156/156 155/155/155
f 158/158/158 155/155/155 156/156/156
f 161/161/161 160/160/160 159/159/159
f 162/162/162 159/159/159 160/160/160
f 165/165/165 164/164/164 163/163/163
f 166/166/166 163/163/163 164/164/164
f 169/169/169 168/168/168 167/167/167
f 170/170/170 167/167/167 168/168/168
f 173/173/173 172/172/172 171/171/171
f 174/174/174 171/171/171 172/172/172
f 177/177/177 176/176/176 175/175/175
f 178/178/178 175/175/175 176/176/176
f 181/181/181 180/180/180 179/179/179
f 182/182/182 179/179/179 180/180/180
f 185/185/185 184/184/184 183/183/183
f 186/186/186 183/183/183 184/184/184
f 189/189/189 188/188/188 187/187/187
f 190/190/190 187/187/187 188/188/188
f 193/193/193 192/192/192 191/191/191
f 194/194/194 191/191/191 192/192/192
f 197/197/197 196/196/196 195/195/195
f 198/198/198 195/195/195 196/196/196
f 201/201/201 200/200/200 199/199/199
f 202/202/202 199/199/199 200/200/200
f 205/205/205 204/204/204 203/203/203
f 206/206/206 203/203/203 204/204/204
f 209/209/209 208/208/208 207/207/207
f 210/210/210 207/207/207 208/208/208
f 213/213/213 212/212/212 211/211/211
f 214/214/214 211/211/211 212/212/212
f 217/217/217 216/216/216 215/215/215
f 218/218/218 215/215/215 216/216/216
f 221/221/221 220/220/220 219/219/219
f 222/222/222 219/219/219 220/220/220
f 225/225/225 224/224/224 223/223/223
f 226/226/226 223/223/223 224/224/224
f 229/229/229 228/228/228 227/227/227
f 230/230/230 227/227/227 228/228/228
f 228/228/228 229/229/229 231/231/231
f 227/227/227 230/230/230 232/232/232
f 233/233/233 231/231/231 229/229/229
f 234/234/234 232/232/232 230/230/230
f 231/231/231 233/233/233 235/235/235
f 232/232/232 234/234/234 236/236/236
f 237/237/237 235/235/235 233/233/233
f 238/238/238 236/236/236 234/234/234
f 235/235/235 237/237/237 239/239/239
f 236/236/236 238/238/238 240/240/240
f 241/241/241 239/239/239 237/237/237
f 242/242/242 240/240/240 238/238/238
f 239/239/239 241/241/241 242/242/242
f 240/240/240 242/242/242 241/241/241
