g scp_we2_flamethrower_trigger
v -0.018022504 -0.1849818 -0.24336669
v -0.018022766 -0.24879028 -0.27259812
v -0.018022703 -0.1639969 -0.2597172
v -0.018022766 -0.24879028 -0.27259812
v -0.018022504 -0.1849818 -0.24336669
v -0.018022595 -0.25411323 -0.25702876
v 0.018022766 -0.24879028 -0.27259812
v 0.018022504 -0.1849818 -0.24336669
v 0.018022705 -0.1639969 -0.2597172
v 0.018022504 -0.1849818 -0.24336669
v 0.018022766 -0.24879028 -0.27259812
v 0.018022595 -0.25411323 -0.25702876
v -0.018022595 -0.25411323 -0.25702876
v 0.018022766 -0.24879028 -0.27259812
v -0.018022766 -0.24879028 -0.27259812
v 0.018022766 -0.24879028 -0.27259812
v -0.018022595 -0.25411323 -0.25702876
v 0.018022595 -0.25411323 -0.25702876
v -0.018022703 -0.1639969 -0.2597172
v 0.018022766 -0.24879028 -0.27259812
v 0.018022705 -0.1639969 -0.2597172
v -0.018022766 -0.24879028 -0.27259812
v -0.018022504 -0.1849818 -0.24336669
v 0.018022465 -0.0153777925 0.032678727
v 0.018022504 -0.1849818 -0.24336669
v -0.018022465 -0.0153777925 0.032678727
v -0.018022465 -0.0153777925 0.032678727
v -0.018022703 -0.1639969 -0.2597172
v -0.018022677 0.024446998 -0.013894052
v -0.018022504 -0.1849818 -0.24336669
v 0.018022679 0.024446998 -0.013894052
v 0.018022504 -0.1849818 -0.24336669
v 0.018022465 -0.0153777925 0.032678727
v 0.018022705 -0.1639969 -0.2597172
v -0.018022677 0.024446998 -0.013894052
v 0.018022705 -0.1639969 -0.2597172
v 0.018022679 0.024446998 -0.013894052
v -0.018022703 -0.1639969 -0.2597172
v -0.018022595 -0.25411323 -0.25702876
v 0.018022504 -0.1849818 -0.24336669
v 0.018022595 -0.25411323 -0.25702876
v -0.018022504 -0.1849818 -0.24336669
vt 0.29519975 0.37604553
vt 0.29324904 0.37384242
vt 0.29388207 0.3757345
vt 0.29324904 0.37384242
vt 0.29519975 0.37604553
vt 0.2929908 0.3730705
vt 0.29324904 0.37384242
vt 0.29685095 0.3765856
vt 0.29388207 0.3757345
vt 0.29685095 0.3765856
vt 0.29324904 0.37384242
vt 0.29610807 0.37409014
vt 0.29603386 0.3782193
vt 0.29606098 0.37826312
vt 0.29324904 0.37384242
vt 0.29606098 0.37826312
vt 0.29603386 0.3782193
vt 0.29610807 0.37409014
vt 0.2961274 0.37826312
vt 0.29606098 0.37826312
vt 0.2961274 0.37826312
vt 0.29606098 0.37826312
vt 0.29613858 0.3782193
vt 0.296196 0.3782193
vt 0.29615757 0.3782193
vt 0.2961844 0.3782193
vt 0.29616636 0.37734735
vt 0.29388207 0.3757345
vt 0.29415905 0.37656242
vt 0.29519975 0.37604553
vt 0.29415905 0.37656242
vt 0.29685095 0.3765856
vt 0.29717603 0.3776776
vt 0.29388207 0.3757345
vt 0.2961565 0.37826312
vt 0.2961274 0.37826312
vt 0.2961565 0.37826312
vt 0.2961274 0.37826312
vt 0.29603386 0.3782193
vt 0.29615757 0.3782193
vt 0.2960697 0.3782193
vt 0.29613858 0.3782193
vn -1 -9.3355766E-07 1.1050489E-05
vn -1 -9.3355754E-07 1.1050489E-05
vn -1 -9.335576E-07 1.1050489E-05
vn -1 -8.276051E-07 1.0819208E-05
vn -1 -8.276051E-07 1.0819209E-05
vn -1 -8.276051E-07 1.0819208E-05
vn 1 -9.54591E-07 1.1096402E-05
vn 1 -9.54591E-07 1.1096404E-05
vn 1 -9.54591E-07 1.1096402E-05
vn 1 -8.276051E-07 1.0819209E-05
vn 1 -8.276051E-07 1.0819208E-05
vn 1 -8.276051E-07 1.0819208E-05
vn -0 -0.94622743 -0.32350224
vn -0 -0.94622743 -0.32350224
vn -0 -0.94622743 -0.3235022
vn -0 -0.94622743 -0.3235022
vn -0 -0.94622743 -0.32350224
vn -0 -0.94622743 -0.32350224
vn -0 0.15018646 -0.98865765
vn -0 0.15018645 -0.98865765
vn -0 0.15018646 -0.98865765
vn -0 0.15018648 -0.98865765
vn -0 -0.8520302 0.52349263
vn -0 -0.8520302 0.52349263
vn -0 -0.8520302 0.52349263
vn -0 -0.8520302 0.52349263
vn -1 -2.7407264E-06 2.212531E-06
vn -1 -2.7407261E-06 2.2125307E-06
vn -1 -2.7407261E-06 2.2125307E-06
vn -1 -6.3788834E-06 4.0617347E-06
vn 1 -3.038304E-06 2.009262E-06
vn 1 -3.038304E-06 2.0092623E-06
vn 1 -3.0383044E-06 2.0092623E-06
vn 1 -5.9584063E-06 4.674301E-06
vn -0 0.79363835 -0.60838985
vn -0 0.7936383 -0.60838985
vn -0 0.7936383 -0.60838985
vn -0 0.7936383 -0.60838985
vn -0 -0.19387467 0.98102635
vn -0 -0.19387466 0.98102635
vn -0 -0.19387466 0.98102635
vn -0 -0.19387466 0.98102635
g scp_we2_flamethrower_trigger_0
f 3/3/3 2/2/2 1/1/1
f 6/6/6 5/5/5 4/4/4
f 9/9/9 8/8/8 7/7/7
f 12/12/12 11/11/11 10/10/10
f 15/15/15 14/14/14 13/13/13
f 18/18/18 17/17/17 16/16/16
f 21/21/21 20/20/20 19/19/19
f 22/22/22 19/19/19 20/20/20
f 25/25/25 24/24/24 23/23/23
f 26/26/26 23/23/23 24/24/24
f 29/29/29 28/28/28 27/27/27
f 30/30/30 27/27/27 28/28/28
f 33/33/33 32/32/32 31/31/31
f 34/34/34 31/31/31 32/32/32
f 37/37/37 36/36/36 35/35/35
f 38/38/38 35/35/35 36/36/36
f 41/41/41 40/40/40 39/39/39
f 42/42/42 39/39/39 40/40/40
