g scp_we2_crossbow_cocking_stirrup
v -0.028050981 0.018712442 -0.20957749
v -0.028050989 7.7269605E-18 -0.12619084
v -0.028050993 1.283292E-17 -0.20957749
v -0.028050989 7.7269605E-18 -0.12619084
v -0.028050981 0.018712442 -0.20957749
v -0.028050985 0.018712442 -0.12619084
v -0.014422114 -7.2819266E-09 -0.11256197
v -0.0144221075 0.018712435 -0.20957749
v -0.014422117 -7.498562E-09 -0.20957749
v -0.0144221075 0.018712435 -0.20957749
v -0.014422114 -7.2819266E-09 -0.11256197
v -0.014422111 0.018712439 -0.11256197
v 0.12366534 0.018712442 -0.12619084
v 0.12366534 3.013494E-18 -0.049214095
v 0.12366534 0.018712442 -0.049214095
v 0.12366534 7.7269605E-18 -0.12619084
v -0.12366534 7.7269605E-18 -0.12619084
v -0.028050985 0.018712442 -0.12619084
v -0.12366534 0.018712442 -0.12619084
v -0.028050989 7.7269605E-18 -0.12619084
v 0.028050985 7.7269605E-18 -0.12619084
v 0.12366534 0.018712442 -0.12619084
v 0.028050989 0.018712442 -0.12619084
v 0.12366534 7.7269605E-18 -0.12619084
v 0.028050981 1.283292E-17 -0.20957749
v 0.028050989 0.018712442 -0.12619084
v 0.028050993 0.018712442 -0.20957749
v 0.028050985 7.7269605E-18 -0.12619084
v -0.11003646 0.018712442 -0.049214095
v -0.11003646 6.8924324E-18 -0.11256197
v -0.11003646 3.0134938E-18 -0.04921409
v -0.11003646 0.018712442 -0.11256197
v -0.014422111 0.018712439 -0.11256197
v -0.11003646 6.8924324E-18 -0.11256197
v -0.11003646 0.018712442 -0.11256197
v -0.014422114 -7.2819266E-09 -0.11256197
v 0.11003646 0.018712442 -0.11256197
v 0.014422111 3.6409626E-09 -0.11256197
v 0.014422114 0.01871245 -0.11256197
v 0.11003646 6.8924324E-18 -0.11256197
v 0.014422114 0.01871245 -0.11256197
v 0.0144221075 6.248802E-09 -0.20957749
v 0.014422117 0.01871245 -0.20957749
v 0.014422111 3.6409626E-09 -0.11256197
v 0.12366534 3.013494E-18 -0.049214095
v 0.11003646 6.8924324E-18 -0.11256197
v 0.11003646 3.013494E-18 -0.049214095
v 0.12366534 7.7269605E-18 -0.12619084
v -0.12366534 0.018712442 -0.049214095
v -0.11003646 0.018712442 -0.11256197
v -0.11003646 0.018712442 -0.049214095
v -0.12366534 0.018712442 -0.12619084
v -0.014422111 0.018712439 -0.11256197
v -0.028050981 0.018712442 -0.20957749
v -0.0144221075 0.018712435 -0.20957749
v -0.028050985 0.018712442 -0.12619084
v -0.11003646 0.018712442 -0.11256197
v -0.12366534 0.018712442 -0.12619084
v -0.0144221075 0.018712435 -0.20957749
v -0.028050993 1.283292E-17 -0.20957749
v -0.014422117 -7.498562E-09 -0.20957749
v -0.028050981 0.018712442 -0.20957749
v -0.028050989 7.7269605E-18 -0.12619084
v -0.014422117 -7.498562E-09 -0.20957749
v -0.028050993 1.283292E-17 -0.20957749
v -0.014422114 -7.2819266E-09 -0.11256197
v -0.12366534 7.7269605E-18 -0.12619084
v -0.11003646 6.8924324E-18 -0.11256197
v 0.028050985 7.7269605E-18 -0.12619084
v 0.11003646 6.8924324E-18 -0.11256197
v 0.12366534 7.7269605E-18 -0.12619084
v 0.014422111 3.6409626E-09 -0.11256197
v 0.028050981 1.283292E-17 -0.20957749
v 0.0144221075 6.248802E-09 -0.20957749
v 0.014422114 0.01871245 -0.11256197
v 0.12366534 0.018712442 -0.12619084
v 0.11003646 0.018712442 -0.11256197
v 0.028050989 0.018712442 -0.12619084
v 0.014422117 0.01871245 -0.20957749
v 0.028050993 0.018712442 -0.20957749
v 0.0144221075 6.248802E-09 -0.20957749
v 0.028050993 0.018712442 -0.20957749
v 0.014422117 0.01871245 -0.20957749
v 0.028050981 1.283292E-17 -0.20957749
v -0.12366534 0.018712442 -0.12619084
v -0.12366534 3.013494E-18 -0.049214095
v -0.12366534 7.7269605E-18 -0.12619084
v -0.12366534 0.018712442 -0.049214095
v 0.11003646 0.018712442 -0.11256197
v 0.11003646 3.013494E-18 -0.049214095
v 0.11003646 6.8924324E-18 -0.11256197
v 0.11003646 0.018712442 -0.04921409
v 0.12366534 0.018712442 -0.049214095
v 0.11003646 0.018712442 -0.11256197
v 0.12366534 0.018712442 -0.12619084
v 0.11003646 0.018712442 -0.04921409
v -0.12366534 3.013494E-18 -0.049214095
v -0.11003646 6.8924324E-18 -0.11256197
v -0.12366534 7.7269605E-18 -0.12619084
v -0.11003646 3.0134938E-18 -0.04921409
v -0.12785825 0.022010798 0.027762659
v 0.12789282 -0.0032983434 0.027762659
v -0.12785825 -0.0032983434 0.027762659
v 0.12789282 0.022010798 0.027762659
v -0.12785825 0.022010798 0.027762659
v -0.12785825 -0.0032983446 -0.049214095
v -0.12785825 0.022010796 -0.049214095
v -0.12785825 -0.0032983434 0.027762659
v 0.105807856 -0.0032983434 0.014133785
v -0.105842404 0.022010796 0.014133779
v -0.105842404 -0.0032983434 0.014133785
v 0.105807856 0.022010796 0.014133779
v 0.105807856 0.022010796 -0.04921409
v 0.105807856 -0.0032983434 0.014133785
v 0.105807856 -0.0032983446 -0.049214095
v 0.105807856 0.022010796 0.014133779
v 0.105807856 0.022010796 0.014133779
v -0.12785825 0.022010798 0.027762659
v -0.105842404 0.022010796 0.014133779
v 0.12789282 0.022010798 0.027762659
v -0.105842404 -0.0032983434 0.014133785
v 0.12789282 -0.0032983434 0.027762659
v 0.105807856 -0.0032983434 0.014133785
v -0.12785825 -0.0032983434 0.027762659
v 0.12789282 0.022010796 -0.049214095
v 0.105807856 0.022010796 0.014133779
v 0.105807856 0.022010796 -0.04921409
v 0.12789282 0.022010798 0.027762659
v -0.12785825 -0.0032983446 -0.049214095
v -0.105842404 -0.0032983434 0.014133785
v -0.105842404 -0.0032983446 -0.04921409
v -0.12785825 -0.0032983434 0.027762659
v 0.12789282 0.022010798 0.027762659
v 0.12789282 -0.0032983446 -0.049214095
v 0.12789282 -0.0032983434 0.027762659
v 0.12789282 0.022010796 -0.049214095
v -0.105842404 0.022010796 0.014133779
v -0.105842404 -0.0032983446 -0.04921409
v -0.105842404 -0.0032983434 0.014133785
v -0.105842404 0.022010796 -0.049214095
v 0.12789282 -0.0032983446 -0.049214095
v 0.105807856 -0.0032983434 0.014133785
v 0.12789282 -0.0032983434 0.027762659
v 0.105807856 -0.0032983446 -0.049214095
v -0.12785825 0.022010796 -0.049214095
v -0.105842404 0.022010796 0.014133779
v -0.12785825 0.022010798 0.027762659
v -0.105842404 0.022010796 -0.049214095
v -0.105842404 0.022010796 -0.049214095
v -0.12785825 -0.0032983446 -0.049214095
v -0.105842404 -0.0032983446 -0.04921409
v -0.12785825 0.022010796 -0.049214095
v 0.105807856 -0.0032983446 -0.049214095
v 0.12789282 0.022010796 -0.049214095
v 0.105807856 0.022010796 -0.04921409
v 0.12789282 -0.0032983446 -0.049214095
vt 0.35234272 0.10315545
vt 0.34885955 0.094672814
vt 0.3438601 0.094672814
vt 0.34885955 0.094672814
vt 0.35234272 0.10315545
vt 0.34885955 0.10315545
vt 0.34885955 0.094672814
vt 0.35234272 0.10315545
vt 0.3438601 0.094672814
vt 0.35234272 0.10315545
vt 0.34885955 0.094672814
vt 0.34885955 0.10315545
vt 0.347519 0.103098825
vt 0.34462315 0.09461619
vt 0.34462315 0.103098825
vt 0.347519 0.09461619
vt 0.34885955 0.094672814
vt 0.34885955 0.10315545
vt 0.34734327 0.094672814
vt 0.34885955 0.094672814
vt 0.34521046 0.09461619
vt 0.34672672 0.09461619
vt 0.34521046 0.103098825
vt 0.34521046 0.09461619
vt 0.3502099 0.09461619
vt 0.34521046 0.103098825
vt 0.3502099 0.09461619
vt 0.34521046 0.09461619
vt 0.34731406 0.103098825
vt 0.34441817 0.09461619
vt 0.34731406 0.09461619
vt 0.34441817 0.103098825
vt 0.34885955 0.10315545
vt 0.34885955 0.094672814
vt 0.34734327 0.094672814
vt 0.34885955 0.094672814
vt 0.34672672 0.09461619
vt 0.34521046 0.09461619
vt 0.34521046 0.103098825
vt 0.34521046 0.09461619
vt 0.34521046 0.103098825
vt 0.3502099 0.09461619
vt 0.3502099 0.09461619
vt 0.34521046 0.09461619
vt 0.34462315 0.09461619
vt 0.347519 0.09461619
vt 0.34462315 0.09461619
vt 0.347519 0.09461619
vt 0.34731406 0.103098825
vt 0.34441817 0.103098825
vt 0.34731406 0.103098825
vt 0.34441817 0.103098825
vt 0.34885955 0.10315545
vt 0.35234272 0.10315545
vt 0.35234272 0.10315545
vt 0.34885955 0.10315545
vt 0.34734327 0.094672814
vt 0.34734327 0.094672814
vt 0.35234272 0.10315545
vt 0.3438601 0.094672814
vt 0.3438601 0.094672814
vt 0.35234272 0.10315545
vt 0.34885955 0.094672814
vt 0.3438601 0.094672814
vt 0.3438601 0.094672814
vt 0.34885955 0.094672814
vt 0.34885955 0.094672814
vt 0.34885955 0.094672814
vt 0.34521046 0.09461619
vt 0.34521046 0.09461619
vt 0.34521046 0.09461619
vt 0.34521046 0.09461619
vt 0.3502099 0.09461619
vt 0.3502099 0.09461619
vt 0.34521046 0.103098825
vt 0.34672672 0.09461619
vt 0.34672672 0.09461619
vt 0.34521046 0.103098825
vt 0.3502099 0.09461619
vt 0.3502099 0.09461619
vt 0.3502099 0.09461619
vt 0.3502099 0.09461619
vt 0.3502099 0.09461619
vt 0.3502099 0.09461619
vt 0.34441817 0.103098825
vt 0.34731406 0.09461619
vt 0.34441817 0.09461619
vt 0.34731406 0.103098825
vt 0.347519 0.103098825
vt 0.34462315 0.09461619
vt 0.347519 0.09461619
vt 0.34462315 0.103098825
vt 0.34462315 0.103098825
vt 0.347519 0.103098825
vt 0.347519 0.103098825
vt 0.34462315 0.103098825
vt 0.34731406 0.09461619
vt 0.34441817 0.09461619
vt 0.34441817 0.09461619
vt 0.34731406 0.09461619
vt 0.66340166 0.0097227115
vt 0.5529537 0.0098319
vt 0.66340166 0.0098319
vt 0.5529537 0.0097227115
vt 0.5490169 0.05802782
vt 0.54630077 0.05007179
vt 0.54630077 0.05802782
vt 0.5490169 0.05007179
vt 0.65389395 0.0096639125
vt 0.5624913 0.009554724
vt 0.5624913 0.0096639125
vt 0.65389395 0.009554724
vt 0.55041546 0.05769141
vt 0.5476994 0.04973544
vt 0.55041546 0.04973544
vt 0.5476994 0.05769141
vt 0.5624913 0.0096639125
vt 0.66340166 0.0097227115
vt 0.65389395 0.0096639125
vt 0.5529537 0.0097227115
vt 0.65389395 0.009554724
vt 0.5529537 0.009495925
vt 0.5624913 0.009554724
vt 0.66340166 0.009495925
vt 0.55041546 0.05769141
vt 0.5476994 0.05769141
vt 0.55041546 0.05769141
vt 0.5476994 0.05769141
vt 0.54630077 0.05007179
vt 0.5490169 0.05007179
vt 0.54630077 0.05007179
vt 0.5490169 0.05007179
vt 0.5476994 0.05769141
vt 0.55041546 0.04973544
vt 0.5476994 0.04973544
vt 0.55041546 0.05769141
vt 0.5490169 0.05802782
vt 0.54630077 0.05007179
vt 0.5490169 0.05007179
vt 0.54630077 0.05802782
vt 0.55041546 0.04973544
vt 0.5476994 0.04973544
vt 0.5476994 0.04973544
vt 0.55041546 0.04973544
vt 0.54630077 0.05802782
vt 0.5490169 0.05802782
vt 0.5490169 0.05802782
vt 0.54630077 0.05802782
vt 0.54630077 0.05802782
vt 0.54630077 0.05007179
vt 0.54630077 0.05007179
vt 0.54630077 0.05802782
vt 0.55041546 0.04973544
vt 0.55041546 0.05769141
vt 0.55041546 0.05769141
vt 0.55041546 0.04973544
vn -1 4.7383605E-07 0
vn -1 2.9063472E-07 0
vn -1 5.096472E-07 0
vn -1 2.9063472E-07 0
vn -1 4.7383605E-07 0
vn -1 2.548236E-07 0
vn 1 -1.7377786E-07 0
vn 1 -4.6328105E-07 0
vn 1 -5.096472E-07 0
vn 1 -4.6328105E-07 0
vn 1 -1.7377786E-07 0
vn 1 -1.2741177E-07 0
vn 1 0 0
vn 1 0 0
vn 1 0 0
vn 1 0 0
vn -0 0 -1
vn -0 0 -1
vn -0 0 -1
vn -0 0 -1
vn -0 0 -1
vn -0 0 -1
vn -0 0 -1
vn -0 0 -1
vn 1 -4.7383605E-07 0
vn 1 -2.9063472E-07 0
vn 1 -5.096472E-07 0
vn 1 -2.548236E-07 0
vn 1 0 0
vn 1 0 0
vn 1 0 0
vn 1 0 0
vn -0 0 1
vn -0 0 1
vn -0 0 1
vn -0 0 1
vn -0 0 1
vn -0 0 1
vn -0 0 1
vn -0 0 1
vn -1 1.7377785E-07 0
vn -1 4.6328103E-07 0
vn -1 5.0964707E-07 0
vn -1 1.2741177E-07 0
vn -0 -1 0
vn -0 -1 0
vn -0 -1 0
vn -0 -1 0
vn -0 1 0
vn -0 1 0
vn -0 1 0
vn -0 1 0
vn 2.1541524E-07 1 1.4781739E-07
vn 5.092657E-07 1 0
vn 5.248091E-07 1 0
vn 1.981285E-07 1 1.3951393E-07
vn -0 1 0
vn -0 1 0
vn -0 0 -1
vn -0 0 -1
vn -0 0 -1
vn -0 0 -1
vn -2.687369E-07 -1 -2.6611096E-07
vn -5.487876E-07 -1 0
vn -5.501967E-07 -1 0
vn -2.7428496E-07 -1 -2.177989E-07
vn -0 -1 0
vn -0 -1 0
vn -1.5128404E-07 -1 1.0652797E-07
vn -0 -1 0
vn -0 -1 0
vn -1.696167E-07 -1 1.1214709E-07
vn -4.4149587E-07 -1 0
vn -4.584973E-07 -1 0
vn 2.683154E-07 1 -2.1502616E-07
vn -0 1 0
vn -0 1 0
vn 2.624045E-07 1 -2.6240457E-07
vn 5.248091E-07 1 0
vn 5.248091E-07 1 0
vn -0 0 -1
vn -0 0 -1
vn -0 0 -1
vn -0 0 -1
vn -1 0 0
vn -1 0 0
vn -1 0 0
vn -1 0 0
vn -1 0 0
vn -1 0 0
vn -1 0 0
vn -1 0 0
vn -0 1 0
vn -0 1 0
vn -0 1 0
vn -0 1 0
vn -0 -1 0
vn -0 -1 0
vn -0 -1 0
vn -0 -1 0
vn -0 0 1
vn -0 0 1
vn -0 0 1
vn -0 0 1
vn -1 0 0
vn -1 0 0
vn -1 0 0
vn -1 0 0
vn -0 -1.8840514E-07 -1
vn -0 -1.8840514E-07 -1
vn -0 -1.8840514E-07 -1
vn -0 -1.8840514E-07 -1
vn -1 0 0
vn -1 0 0
vn -1 0 0
vn -1 0 0
vn -0 1 -1.07852394E-07
vn -0 1 0
vn -0 1 -1.0781592E-07
vn -0 1 0
vn -0 -1 0
vn -0 -1 0
vn -0 -1 0
vn -0 -1 0
vn -0 1 0
vn -0 1 -1.07852394E-07
vn -0 1 0
vn -0 1 0
vn -0 -1 0
vn -0 -1 0
vn -0 -1 0
vn -0 -1 0
vn 1 0 0
vn 1 0 0
vn 1 0 0
vn 1 0 0
vn 1 0 0
vn 1 0 0
vn 1 0 0
vn 1 0 0
vn -0 -1 0
vn -0 -1 0
vn -0 -1 0
vn -0 -1 0
vn -0 1 0
vn -0 1 -1.0781592E-07
vn -0 1 0
vn -0 1 0
vn 2.1658822E-07 -1.884051E-07 -1
vn 2.1658823E-07 -1.884051E-07 -1
vn 2.1658823E-07 -1.884051E-07 -1
vn -0 0 -1
vn -2.1591036E-07 1.8840512E-07 -1
vn -2.1591036E-07 1.8840514E-07 -1
vn -2.1591035E-07 1.8840512E-07 -1
vn -0 0 -1
g scp_we2_crossbow_cocking_stirrup_0
f 3/3/3 2/2/2 1/1/1
f 6/6/6 5/5/5 4/4/4
f 9/9/9 8/8/8 7/7/7
f 12/12/12 11/11/11 10/10/10
f 15/15/15 14/14/14 13/13/13
f 16/16/16 13/13/13 14/14/14
f 19/19/19 18/18/18 17/17/17
f 20/20/20 17/17/17 18/18/18
f 23/23/23 22/22/22 21/21/21
f 24/24/24 21/21/21 22/22/22
f 27/27/27 26/26/26 25/25/25
f 28/28/28 25/25/25 26/26/26
f 31/31/31 30/30/30 29/29/29
f 32/32/32 29/29/29 30/30/30
f 35/35/35 34/34/34 33/33/33
f 36/36/36 33/33/33 34/34/34
f 39/39/39 38/38/38 37/37/37
f 40/40/40 37/37/37 38/38/38
f 43/43/43 42/42/42 41/41/41
f 44/44/44 41/41/41 42/42/42
f 47/47/47 46/46/46 45/45/45
f 48/48/48 45/45/45 46/46/46
f 51/51/51 50/50/50 49/49/49
f 52/52/52 49/49/49 50/50/50
f 55/55/55 54/54/54 53/53/53
f 56/56/56 53/53/53 54/54/54
f 53/53/53 56/56/56 57/57/57
f 58/58/58 57/57/57 56/56/56
f 61/61/61 60/60/60 59/59/59
f 62/62/62 59/59/59 60/60/60
f 65/65/65 64/64/64 63/63/63
f 66/66/66 63/63/63 64/64/64
f 63/63/63 66/66/66 67/67/67
f 68/68/68 67/67/67 66/66/66
f 71/71/71 70/70/70 69/69/69
f 72/72/72 69/69/69 70/70/70
f 69/69/69 72/72/72 73/73/73
f 74/74/74 73/73/73 72/72/72
f 77/77/77 76/76/76 75/75/75
f 78/78/78 75/75/75 76/76/76
f 75/75/75 78/78/78 79/79/79
f 80/80/80 79/79/79 78/78/78
f 83/83/83 82/82/82 81/81/81
f 84/84/84 81/81/81 82/82/82
f 87/87/87 86/86/86 85/85/85
f 88/88/88 85/85/85 86/86/86
f 91/91/91 90/90/90 89/89/89
f 92/92/92 89/89/89 90/90/90
f 95/95/95 94/94/94 93/93/93
f 96/96/96 93/93/93 94/94/94
f 99/99/99 98/98/98 97/97/97
f 100/100/100 97/97/97 98/98/98
f 103/103/103 102/102/102 101/101/101
f 104/104/104 101/101/101 102/102/102
f 107/107/107 106/106/106 105/105/105
f 108/108/108 105/105/105 106/106/106
f 111/111/111 110/110/110 109/109/109
f 112/112/112 109/109/109 110/110/110
f 115/115/115 114/114/114 113/113/113
f 116/116/116 113/113/113 114/114/114
f 119/119/119 118/118/118 117/117/117
f 120/120/120 117/117/117 118/118/118
f 123/123/123 122/122/122 121/121/121
f 124/124/124 121/121/121 122/122/122
f 127/127/127 126/126/126 125/125/125
f 128/128/128 125/125/125 126/126/126
f 131/131/131 130/130/130 129/129/129
f 132/132/132 129/129/129 130/130/130
f 135/135/135 134/134/134 133/133/133
f 136/136/136 133/133/133 134/134/134
f 139/139/139 138/138/138 137/137/137
f 140/140/140 137/137/137 138/138/138
f 143/143/143 142/142/142 141/141/141
f 144/144/144 141/141/141 142/142/142
f 147/147/147 146/146/146 145/145/145
f 148/148/148 145/145/145 146/146/146
f 151/151/151 150/150/150 149/149/149
f 152/152/152 149/149/149 150/150/150
f 155/155/155 154/154/154 153/153/153
f 156/156/156 153/153/153 154/154/154
