g scp_we2_rocket_launcher_front_cover
v 0.15268938 2.3112894E-07 -1.5258789E-07
v 0.09266036 -0.09266012 -1.487636E-07
v 0.1079677 -0.10796746 -1.5258789E-07
v 0.09266036 -0.09266012 -1.487636E-07
v 0.15268938 2.3112894E-07 -1.5258789E-07
v 0.13104154 2.2763737E-07 -1.5258789E-07
v 0.1079677 -0.10796746 -1.5258789E-07
v -6.3251084E-09 -0.13104129 -2.997674E-07
v -6.6742647E-09 -0.15268914 -3.0517577E-07
v -6.3251084E-09 -0.13104129 -2.997674E-07
v 0.1079677 -0.10796746 -1.5258789E-07
v 0.09266036 -0.09266012 -1.487636E-07
v -0.15268938 2.4447743E-07 -1.5258789E-07
v -0.09266033 0.092660606 -1.5641218E-07
v -0.10796766 0.10796794 -1.5258789E-07
v -0.09266033 0.092660606 -1.5641218E-07
v -0.15268938 2.4447743E-07 -1.5258789E-07
v -0.13104154 2.4063672E-07 -1.5258789E-07
v -0.10796766 0.10796794 -1.5258789E-07
v 4.2417866E-10 0.13104177 -1.5799625E-07
v 1.8208024E-09 0.15268962 -1.5258789E-07
v 4.2417866E-10 0.13104177 -1.5799625E-07
v -0.10796766 0.10796794 -1.5258789E-07
v -0.09266033 0.092660606 -1.5641218E-07
v 0.10796766 0.10796793 -1.5258789E-07
v 0.13104154 2.2763737E-07 -1.5258789E-07
v 0.15268938 2.3112894E-07 -1.5258789E-07
v 0.13104154 2.2763737E-07 -1.5258789E-07
v 0.10796766 0.10796793 -1.5258789E-07
v 0.09266033 0.09266058 -1.5641218E-07
v 0.09266036 -0.09266012 -1.487636E-07
v -0.09266036 -0.09266012 -1.487636E-07
v -6.3251084E-09 -0.13104129 -2.997674E-07
v 0.09266033 0.09266058 -1.5641218E-07
v 0.13104154 2.2763737E-07 -1.5258789E-07
v -0.09266033 0.092660606 -1.5641218E-07
v -0.13104154 2.4063672E-07 -1.5258789E-07
v 4.2417866E-10 0.13104177 -1.5799625E-07
v 0.1526894 2.386334E-07 0.044602204
v 0.1079677 -0.10796746 -1.5258789E-07
v 0.107967705 -0.10796748 0.044602204
v 0.15268938 2.3112894E-07 -1.5258789E-07
v 0.10796769 0.10796794 0.044602204
v 0.10796766 0.10796793 -1.5258789E-07
v -6.6742647E-09 -0.15268914 -3.0517577E-07
v 0.107967705 -0.10796748 0.044602204
v 0.1079677 -0.10796746 -1.5258789E-07
v -6.674265E-09 -0.15268917 0.044602204
v -0.1079677 -0.10796746 -1.5258789E-07
v -0.107967705 -0.10796748 0.044602204
v -0.15268938 2.4447743E-07 -1.5258789E-07
v -0.107967705 -0.10796748 0.044602204
v -0.1079677 -0.10796746 -1.5258789E-07
v -0.1526894 2.519819E-07 0.044602204
v -0.10796766 0.10796794 -1.5258789E-07
v -0.10796769 0.10796796 0.044602204
v 1.8208024E-09 0.15268962 -1.5258789E-07
v -0.10796769 0.10796796 0.044602204
v -0.10796766 0.10796794 -1.5258789E-07
v 1.8208025E-09 0.15268962 0.044602353
v 0.10796766 0.10796793 -1.5258789E-07
v 0.10796769 0.10796794 0.044602204
v 0.10796769 0.10796794 0.044602204
v -0.10796769 0.10796796 0.044602204
v 1.8208025E-09 0.15268962 0.044602353
v 0.107967705 -0.10796748 0.044602204
v 0.1526894 2.386334E-07 0.044602204
v -0.107967705 -0.10796748 0.044602204
v -0.1526894 2.519819E-07 0.044602204
v -6.674265E-09 -0.15268917 0.044602204
v -6.6742647E-09 -0.15268914 -3.0517577E-07
v -0.09266036 -0.09266012 -1.487636E-07
v -0.1079677 -0.10796746 -1.5258789E-07
v -6.3251084E-09 -0.13104129 -2.997674E-07
v -0.1079677 -0.10796746 -1.5258789E-07
v -0.13104154 2.4063672E-07 -1.5258789E-07
v -0.15268938 2.4447743E-07 -1.5258789E-07
v -0.09266036 -0.09266012 -1.487636E-07
v 1.8208024E-09 0.15268962 -1.5258789E-07
v 0.09266033 0.09266058 -1.5641218E-07
v 0.10796766 0.10796793 -1.5258789E-07
v 4.2417866E-10 0.13104177 -1.5799625E-07
vt 0.40125388 0.7317827
vt 0.40074223 0.7303051
vt 0.40073675 0.7317827
vt 0.40074223 0.7303051
vt 0.40125388 0.7317827
vt 0.40073675 0.7308648
vt 0.39933732 0.7315263
vt 0.40114188 0.72991323
vt 0.39985442 0.7315263
vt 0.40114188 0.72991323
vt 0.39933732 0.7315263
vt 0.40074223 0.7303051
vt 0.39985442 0.73186815
vt 0.402088 0.73087806
vt 0.40037155 0.73186815
vt 0.402088 0.73087806
vt 0.39985442 0.73186815
vt 0.40209347 0.73031837
vt 0.401771 0.73144084
vt 0.40168834 0.73126996
vt 0.40125388 0.73144084
vt 0.40168834 0.73126996
vt 0.401771 0.73144084
vt 0.402088 0.73087806
vt 0.401771 0.7317827
vt 0.40073675 0.7308648
vt 0.40125388 0.7317827
vt 0.40073675 0.7308648
vt 0.401771 0.7317827
vt 0.40112865 0.7312645
vt 0.59958124 0.45007053
vt 0.60235906 0.4489517
vt 0.6007384 0.44893578
vt 0.6007 0.4528484
vt 0.59956527 0.45169118
vt 0.60347795 0.45172957
vt 0.6034938 0.4501089
vt 0.6023208 0.45286432
vt 0.40125388 0.7319963
vt 0.40073675 0.7317827
vt 0.40073675 0.7319963
vt 0.40125388 0.7317827
vt 0.401771 0.7319963
vt 0.401771 0.7317827
vt 0.39985442 0.7315263
vt 0.39933732 0.7313127
vt 0.39933732 0.7315263
vt 0.39985442 0.7313127
vt 0.40037155 0.7315263
vt 0.40037155 0.7313127
vt 0.39985442 0.73186815
vt 0.39933732 0.73165447
vt 0.39933732 0.73186815
vt 0.39985442 0.73165447
vt 0.40037155 0.73186815
vt 0.40037155 0.73165447
vt 0.40125388 0.73144084
vt 0.401771 0.73165447
vt 0.401771 0.73144084
vt 0.40125388 0.73165447
vt 0.40073675 0.73144084
vt 0.40073675 0.73165447
vt 0.3997292 0.7312645
vt 0.3993428 0.7303051
vt 0.39933732 0.7308648
vt 0.40068853 0.73087806
vt 0.40028888 0.73126996
vt 0.40030214 0.7299187
vt 0.39974242 0.72991323
vt 0.40069404 0.73031837
vt 0.39985442 0.7315263
vt 0.4017016 0.7299187
vt 0.40037155 0.7315263
vt 0.40114188 0.72991323
vt 0.39933732 0.73186815
vt 0.40209347 0.73031837
vt 0.39985442 0.73186815
vt 0.4017016 0.7299187
vt 0.40125388 0.73144084
vt 0.40112865 0.7312645
vt 0.40073675 0.73144084
vt 0.40168834 0.73126996
vn -1.7665906E-07 0 -1
vn -1.7665907E-07 0 -1
vn -1.7665907E-07 0 -1
vn -0 0 -1
vn -0 0 -1
vn -0 0 -1
vn 1.3097889E-06 2.4983385E-07 -1
vn 1.3097889E-06 2.4983385E-07 -1
vn 1.3097889E-06 2.4983385E-07 -1
vn 1.0791609E-06 1.3289947E-06 -1
vn 1.0791609E-06 1.3289946E-06 -1
vn 1.0791609E-06 1.3289947E-06 -1
vn -1.7665953E-07 0 -1
vn -1.7665953E-07 0 -1
vn -1.7665954E-07 0 -1
vn -0 0 -1
vn -0 0 -1
vn -0 0 -1
vn -1.0348458E-07 2.4983387E-07 -1
vn -1.0348459E-07 2.4983387E-07 -1
vn -1.0348459E-07 2.4983387E-07 -1
vn -0 1.6457125E-07 -1
vn -0 1.6457126E-07 -1
vn -0 1.6457125E-07 -1
vn -0 0 -1
vn -0 0 -1
vn -0 0 -1
vn 2.0584339E-07 0 -1
vn 2.0584339E-07 0 -1
vn 2.0584339E-07 0 -1
vn -0 6.213263E-07 -1
vn -0 6.2132625E-07 -1
vn -0 3.9343195E-06 -1
vn -0 0 -1
vn -0 0 -1
vn -0 0 -1
vn -0 0 -1
vn -0 0 -1
vn 1 1.0267978E-07 -2.4246233E-07
vn 0.70710665 -0.7071068 -4.2492914E-07
vn 0.70710677 -0.7071068 -4.6811022E-07
vn 1 0 -2.7591514E-07
vn 0.7071066 0.7071069 -6.9385914E-07
vn 0.7071066 0.7071069 -7.0030654E-07
vn -0 -1 -6.269131E-07
vn 0.70710677 -0.7071068 -4.6811022E-07
vn 0.70710665 -0.7071068 -4.2492914E-07
vn -0 -1 -6.2691305E-07
vn -0.70710665 -0.7071069 -4.681103E-07
vn -0.70710677 -0.70710677 -4.2492908E-07
vn -1 1.6428766E-07 -2.4246233E-07
vn -0.70710677 -0.70710677 -4.2492908E-07
vn -0.70710665 -0.7071069 -4.681103E-07
vn -1 2.2076152E-07 -2.656367E-07
vn -0.70710665 0.7071069 -5.5294623E-07
vn -0.70710665 0.7071069 -5.739301E-07
vn 1.2321571E-07 1 -2.4465203E-07
vn -0.70710665 0.7071069 -5.739301E-07
vn -0.70710665 0.7071069 -5.5294623E-07
vn -0 1 -2.6946668E-07
vn 0.7071066 0.7071069 -7.0030654E-07
vn 0.7071066 0.7071069 -6.9385914E-07
vn -0 -3.4119453E-06 1
vn -0 -3.4119453E-06 1
vn -0 -3.4119453E-06 1
vn -0 0 1
vn -0 0 1
vn -0 0 1
vn -0 0 1
vn -0 0 1
vn -9.2616096E-07 1.1759947E-06 -1
vn -9.2616085E-07 1.1759946E-06 -1
vn -9.2616096E-07 1.1759946E-06 -1
vn -1.5261642E-06 2.4983393E-07 -1
vn -0 0 -1
vn -0 0 -1
vn -0 0 -1
vn 2.0584288E-07 0 -1
vn -0 1.7665948E-07 -1
vn -0 1.766595E-07 -1
vn -0 1.766595E-07 -1
vn 1.2058007E-07 2.4983387E-07 -1
g scp_we2_rocket_launcher_front_cover_0
f 3/3/3 2/2/2 1/1/1
f 6/6/6 5/5/5 4/4/4
f 9/9/9 8/8/8 7/7/7
f 12/12/12 11/11/11 10/10/10
f 15/15/15 14/14/14 13/13/13
f 18/18/18 17/17/17 16/16/16
f 21/21/21 20/20/20 19/19/19
f 24/24/24 23/23/23 22/22/22
f 27/27/27 26/26/26 25/25/25
f 30/30/30 29/29/29 28/28/28
f 33/33/33 32/32/32 31/31/31
f 32/32/32 34/34/34 31/31/31
f 31/31/31 34/34/34 35/35/35
f 36/36/36 34/34/34 32/32/32
f 37/37/37 36/36/36 32/32/32
f 38/38/38 34/34/34 36/36/36
f 41/41/41 40/40/40 39/39/39
f 42/42/42 39/39/39 40/40/40
f 39/39/39 42/42/42 43/43/43
f 44/44/44 43/43/43 42/42/42
f 47/47/47 46/46/46 45/45/45
f 48/48/48 45/45/45 46/46/46
f 45/45/45 48/48/48 49/49/49
f 50/50/50 49/49/49 48/48/48
f 53/53/53 52/52/52 51/51/51
f 54/54/54 51/51/51 52/52/52
f 51/51/51 54/54/54 55/55/55
f 56/56/56 55/55/55 54/54/54
f 59/59/59 58/58/58 57/57/57
f 60/60/60 57/57/57 58/58/58
f 57/57/57 60/60/60 61/61/61
f 62/62/62 61/61/61 60/60/60
f 65/65/65 64/64/64 63/63/63
f 64/64/64 66/66/66 63/63/63
f 63/63/63 66/66/66 67/67/67
f 68/68/68 66/66/66 64/64/64
f 69/69/69 68/68/68 64/64/64
f 70/70/70 66/66/66 68/68/68
f 73/73/73 72/72/72 71/71/71
f 74/74/74 71/71/71 72/72/72
f 77/77/77 76/76/76 75/75/75
f 78/78/78 75/75/75 76/76/76
f 81/81/81 80/80/80 79/79/79
f 82/82/82 79/79/79 80/80/80
