g scp_we2_minigun_button
v 0.0059903082 0.012912285 0.0054275403
v -0.005990641 -0.004142264 0.01338012
v -0.0059906784 0.012912285 0.0054275403
v 0.005990336 -0.004142226 0.013380195
v 0.01198079 0.008527265 -0.003976177
v 0.011980823 -0.008527265 0.003976477
v 0.005990299 0.004142226 -0.013379894
v 0.0059903315 -0.012912285 -0.0054272404
v -0.005990683 0.004142226 -0.013379894
v -0.005990646 -0.012912303 -0.005427315
v -0.011981151 0.008527246 -0.003976177
v -0.0119811315 -0.008527246 0.003976477
v -0.0059906784 0.012912285 0.0054275403
v -0.005990641 -0.004142264 0.01338012
v -0.005990683 0.004142226 -0.013379894
v -0.0059906784 0.012912285 0.0054275403
v -0.011981151 0.008527246 -0.003976177
v 0.01198079 0.008527265 -0.003976177
v 0.005990299 0.004142226 -0.013379894
v 0.0059903082 0.012912285 0.0054275403
vt 0.8452053 0.013592662
vt 0.84545 0.015060553
vt 0.84545 0.013592662
vt 0.8452053 0.015060553
vt 0.8449607 0.013592662
vt 0.8449607 0.015060553
vt 0.844716 0.013592662
vt 0.844716 0.015060553
vt 0.8444714 0.013592662
vt 0.8444714 0.015060553
vt 0.8442267 0.013592662
vt 0.8442267 0.015060553
vt 0.8439821 0.013592662
vt 0.8439821 0.015060553
vt 0.8452293 0.013959635
vt 0.8439581 0.013959635
vt 0.8445937 0.013592662
vt 0.8445937 0.015060553
vt 0.8452293 0.014693581
vt 0.8439581 0.014693581
vn 0.49999923 0.36599773 0.7848863
vn -0.5000008 0.36599526 0.78488654
vn -0.4999999 0.36599502 0.784887
vn 0.499998 0.36599958 0.78488624
vn 1 1.5773635E-06 -7.4486604E-07
vn 1 1.303517E-06 -1.1720699E-06
vn 0.5000001 -0.3659974 -0.7848858
vn 0.5000028 -0.36599553 -0.78488505
vn -0.5000011 -0.36599723 -0.78488535
vn -0.49999776 -0.3659971 -0.7848875
vn -1 -3.5052483E-07 4.4910993E-07
vn -1 -7.120037E-07 3.7900509E-06
vn -0.4999999 0.36599502 0.784887
vn -0.5000008 0.36599526 0.78488654
vn -6.053344E-07 0.9063076 -0.42261878
vn -6.0533415E-07 0.90630776 -0.4226184
vn -1.4623963E-06 0.9063077 -0.42261857
vn -2.3973652E-07 0.9063077 -0.42261863
vn -0 0.9063073 -0.4226193
vn -0 0.906308 -0.42261785
g scp_we2_minigun_button_0
f 3/3/3 2/2/2 1/1/1
f 4/4/4 1/1/1 2/2/2
f 1/1/1 4/4/4 5/5/5
f 6/6/6 5/5/5 4/4/4
f 5/5/5 6/6/6 7/7/7
f 8/8/8 7/7/7 6/6/6
f 7/7/7 8/8/8 9/9/9
f 10/10/10 9/9/9 8/8/8
f 9/9/9 10/10/10 11/11/11
f 12/12/12 11/11/11 10/10/10
f 11/11/11 12/12/12 13/13/13
f 14/14/14 13/13/13 12/12/12
f 17/17/17 16/16/16 15/15/15
f 16/16/16 18/18/18 15/15/15
f 15/15/15 18/18/18 19/19/19
f 20/20/20 18/18/18 16/16/16
