g scp_we2_sniper_rifle_02_bipod_leg_01
v -0.009968447 0.016777214 0.40625533
v -0.019653955 9.229457E-07 0.38723427
v -0.00996843 0.01677721 0.38723427
v -0.019653868 9.2432373E-07 0.40625533
v -0.00996843 -0.016775364 0.38723427
v -0.009968447 -0.01677536 0.40625533
v 0.0094033135 -0.016775364 0.38723543
v 0.00940333 -0.01677536 0.40625656
v -0.00996843 0.01677721 0.38723427
v 0.00940333 0.016777214 0.40625656
v -0.009968447 0.016777214 0.40625533
v 0.0094033135 0.01677721 0.38723543
v 0.019089684 9.2432396E-07 0.4062564
v 0.019089665 9.22946E-07 0.3872353
v 0.00940333 -0.01677536 0.40625656
v 0.0094033135 -0.016775364 0.38723543
v 0.00940333 -0.01677536 0.40625656
v 0.00940333 0.016777214 0.40625656
v 0.019089684 9.2432396E-07 0.4062564
v -0.019653868 9.2432373E-07 0.40625533
v -0.009968447 -0.01677536 0.40625533
v -0.009968447 0.016777214 0.40625533
v 0.0069180196 0.012472059 0.31069654
v 0.0069180196 -0.012470225 0.31069654
v 0.014118655 9.171308E-07 0.3106964
v -0.014682746 9.171306E-07 0.3106955
v -0.0074824276 0.012472059 0.3106955
v -0.0074824276 -0.012470225 0.3106955
v -0.009340033 8.727023E-07 0.3127664
v -0.0048110196 0.007845342 -1.5816879E-07
v -0.0048107663 0.007845452 0.31276673
v -0.009340286 7.6055517E-07 -3.089704E-07
v -0.0048107663 -0.007843712 0.31276673
v -0.0048110196 -0.007843824 -1.5322851E-07
v -0.0048107663 0.007845452 0.31276673
v 0.0042472077 0.007845342 -4.2131365E-09
v 0.0042470032 0.007845452 0.31276703
v -0.0048110196 0.007845342 -1.5816879E-07
v 0.008776321 7.605552E-07 -1.059122E-09
v 0.0042470032 0.007845452 0.31276703
v 0.0042472077 0.007845342 -4.2131365E-09
v 0.008776574 8.7270234E-07 0.31276718
v 0.0042472077 -0.007843824 7.2713896E-10
v 0.0042470032 -0.007843712 0.31276703
v 0.0042470032 -0.007843712 0.31276703
v -0.0048110196 -0.007843824 -1.5322851E-07
v -0.0048107663 -0.007843712 0.31276673
v 0.0042472077 -0.007843824 7.2713896E-10
v -0.007482474 0.012472061 0.38723364
v 0.0069180196 0.012472059 0.31069654
v 0.0069180643 0.012472061 0.38723484
v -0.0074824276 0.012472059 0.3106955
v -0.014682523 9.2082206E-07 0.38723364
v -0.014682746 9.171306E-07 0.3106955
v -0.007482474 -0.012470221 0.38723364
v -0.0074824276 -0.012470225 0.3106955
v 0.014118655 9.171308E-07 0.3106964
v 0.0069180643 0.012472061 0.38723484
v 0.0069180196 0.012472059 0.31069654
v 0.014118697 9.208221E-07 0.38723472
v 0.0069180196 -0.012470225 0.31069654
v 0.0069180643 -0.012470221 0.38723484
v -0.0074824276 -0.012470225 0.3106955
v -0.007482474 -0.012470221 0.38723364
v -0.007482474 -0.012470221 0.38723364
v 0.0094033135 -0.016775364 0.38723543
v 0.0069180643 -0.012470221 0.38723484
v -0.00996843 -0.016775364 0.38723427
v 0.019089665 9.22946E-07 0.3872353
v -0.014682523 9.2082206E-07 0.38723364
v 0.014118697 9.208221E-07 0.38723472
v -0.019653955 9.229457E-07 0.38723427
v 0.0094033135 0.01677721 0.38723543
v -0.007482474 0.012472061 0.38723364
v 0.0069180643 0.012472061 0.38723484
v -0.00996843 0.01677721 0.38723427
vt 0.7839785 0.4905212
vt 0.7838934 0.4906177
vt 0.7839785 0.4906177
vt 0.7838934 0.4905212
vt 0.784074 0.4901769
vt 0.784074 0.4900804
vt 0.7839757 0.49017686
vt 0.7839757 0.4900804
vt 0.78413796 0.4905212
vt 0.7840397 0.4906177
vt 0.78413796 0.4906177
vt 0.7840397 0.4905212
vt 0.7836621 0.4906177
vt 0.7836621 0.4905212
vt 0.78357697 0.4906177
vt 0.78357697 0.4905212
vt 0.78338367 0.49063906
vt 0.78338367 0.49046886
vt 0.78333455 0.49055398
vt 0.78353107 0.49055398
vt 0.78348196 0.49063906
vt 0.78348196 0.49046886
vt 0.78407 0.48973557
vt 0.78407 0.4898621
vt 0.78410655 0.48979884
vt 0.7839604 0.48979884
vt 0.78399694 0.48973557
vt 0.78399694 0.4898621
vt 0.58211935 0.5522472
vt 0.5852883 0.5521231
vt 0.58211935 0.5521231
vt 0.5852883 0.5522472
vt 0.58211935 0.55237126
vt 0.5852883 0.55237126
vt 0.58211935 0.55346245
vt 0.5852883 0.5533192
vt 0.58211935 0.5533192
vt 0.5852883 0.55346245
vt 0.58211935 0.551417
vt 0.5852883 0.55129296
vt 0.58211935 0.55129296
vt 0.5852883 0.551417
vt 0.58211935 0.5515411
vt 0.5852883 0.55154103
vt 0.5852883 0.5536851
vt 0.58211935 0.55382836
vt 0.5852883 0.55382836
vt 0.58211935 0.5536851
vt 0.7835263 0.48973557
vt 0.78396523 0.490387
vt 0.78357697 0.490387
vt 0.78391457 0.48973557
vt 0.7835263 0.48979884
vt 0.78391457 0.48979884
vt 0.7835263 0.4898621
vt 0.78391457 0.4898621
vt 0.78309214 0.48979884
vt 0.7834804 0.48973557
vt 0.78309214 0.48973557
vt 0.7834804 0.48979884
vt 0.78309214 0.4898621
vt 0.7834804 0.4898621
vt 0.78357697 0.49032584
vt 0.78396523 0.49032584
vt 0.7831539 0.49040115
vt 0.78323954 0.490423
vt 0.7832269 0.49040115
vt 0.78314126 0.490423
vt 0.78328866 0.49033788
vt 0.78311735 0.49033788
vt 0.78326344 0.49033788
vt 0.78309214 0.49033788
vt 0.78323954 0.49025276
vt 0.7831539 0.4902746
vt 0.7832269 0.4902746
vt 0.78314126 0.49025276
vn -0.49999633 0.8660275 7.6223006E-07
vn -1 -1.1611085E-06 3.2113028E-06
vn -0.5000148 0.86601686 -6.01544E-07
vn -1 -1.2268266E-06 3.244276E-06
vn -0.50001574 -0.8660163 1.0549442E-06
vn -0.49999738 -0.86602694 -2.7587586E-07
vn 0.49998018 -0.8660369 -2.601907E-07
vn 0.49999815 -0.8660265 -2.9992557E-07
vn -0.5000148 0.86601686 -6.01544E-07
vn 0.49999815 0.8660264 -5.8586227E-07
vn -0.49999633 0.8660275 7.6223006E-07
vn 0.49998024 0.8660368 -5.9258906E-07
vn 1 0 -9.333429E-07
vn 1 -1.09541176E-07 -9.003655E-07
vn 0.49999815 -0.8660265 -2.9992557E-07
vn 0.49998018 -0.8660369 -2.601907E-07
vn -3.2820033E-05 -9.094951E-06 1
vn -3.2820033E-05 9.09495E-06 1
vn 1.5752872E-05 0 1
vn -5.251255E-05 0 1
vn -6.301451E-05 -3.638005E-05 1
vn -6.3014515E-05 3.638005E-05 1
vn -2.1190895E-05 0 -1
vn -2.1190895E-05 0 -1
vn -2.1190895E-05 0 -1
vn 7.417236E-05 4.282403E-05 -1
vn 7.417236E-05 -4.282404E-05 -1
vn 7.417236E-05 4.282403E-05 -1
vn -1 -3.7242972E-07 8.121739E-07
vn -0.49999696 0.8660271 0
vn -0.49998087 0.86603653 1.01272285E-07
vn -1 -3.7244115E-07 8.0984995E-07
vn -0.4999816 -0.86603606 7.153125E-07
vn -0.4999976 -0.86602676 7.152399E-07
vn -0.49998087 0.86603653 1.01272285E-07
vn 0.4999954 0.86602813 0
vn 0.4999879 0.8660324 -6.9738417E-07
vn -0.49999696 0.8660271 0
vn 1 9.420386E-07 0
vn 0.4999879 0.8660324 -6.9738417E-07
vn 0.4999954 0.86602813 0
vn 1 1.6979213E-07 0
vn 0.4999957 -0.86602783 0
vn 0.4999875 -0.8660326 6.371012E-07
vn 0.4999875 -0.8660326 6.371012E-07
vn -0.4999976 -0.86602676 7.152399E-07
vn -0.4999816 -0.86603606 7.153125E-07
vn 0.4999957 -0.86602783 0
vn -0.49999154 0.86603034 -3.4417573E-07
vn 0.4999789 0.8660376 -3.324871E-07
vn 0.50000113 0.86602473 -3.15718E-07
vn -0.5000099 0.8660197 1.2070794E-06
vn -1 9.858468E-07 1.3613158E-06
vn -1 9.666874E-07 1.3605498E-06
vn -0.4999906 -0.8660308 1.2887297E-06
vn -0.50000906 -0.86602014 -2.6325569E-07
vn 1 0 -5.6191044E-07
vn 0.50000113 0.86602473 -3.15718E-07
vn 0.4999789 0.8660376 -3.324871E-07
vn 1 0 -5.6267544E-07
vn 0.49997896 -0.8660376 -2.340095E-07
vn 0.50000113 -0.86602473 -2.5156882E-07
vn -0.50000906 -0.86602014 -2.6325569E-07
vn -0.4999906 -0.8660308 1.2887297E-06
vn -2.9604093E-05 -0.00011902694 -1
vn 9.698457E-05 -9.4187766E-05 -1
vn 9.9849545E-05 -8.4678904E-05 -1
vn -3.0868097E-05 -0.00012394834 -1
vn 0.00012207906 -4.901769E-07 -1
vn -0.0001227717 0 -1
vn 0.0001223096 -1.3105839E-06 -1
vn -0.00012277167 0 -1
vn 8.8886634E-05 9.127356E-05 -1
vn -2.0323112E-05 0.00013003722 -1
vn 8.919706E-05 9.5932366E-05 -1
vn -2.2843618E-05 0.00012018006 -1
g scp_we2_sniper_rifle_02_bipod_leg_01_0
f 3/3/3 2/2/2 1/1/1
f 4/4/4 1/1/1 2/2/2
f 2/2/2 5/5/5 4/4/4
f 6/6/6 4/4/4 5/5/5
f 5/5/5 7/7/7 6/6/6
f 8/8/8 6/6/6 7/7/7
f 11/11/11 10/10/10 9/9/9
f 12/12/12 9/9/9 10/10/10
f 10/10/10 13/13/13 12/12/12
f 14/14/14 12/12/12 13/13/13
f 13/13/13 15/15/15 14/14/14
f 16/16/16 14/14/14 15/15/15
f 19/19/19 18/18/18 17/17/17
f 18/18/18 20/20/20 17/17/17
f 17/17/17 20/20/20 21/21/21
f 22/22/22 20/20/20 18/18/18
f 25/25/25 24/24/24 23/23/23
f 24/24/24 26/26/26 23/23/23
f 23/23/23 26/26/26 27/27/27
f 28/28/28 26/26/26 24/24/24
f 31/31/31 30/30/30 29/29/29
f 32/32/32 29/29/29 30/30/30
f 29/29/29 32/32/32 33/33/33
f 34/34/34 33/33/33 32/32/32
f 37/37/37 36/36/36 35/35/35
f 38/38/38 35/35/35 36/36/36
f 41/41/41 40/40/40 39/39/39
f 42/42/42 39/39/39 40/40/40
f 39/39/39 42/42/42 43/43/43
f 44/44/44 43/43/43 42/42/42
f 47/47/47 46/46/46 45/45/45
f 48/48/48 45/45/45 46/46/46
f 51/51/51 50/50/50 49/49/49
f 52/52/52 49/49/49 50/50/50
f 49/49/49 52/52/52 53/53/53
f 54/54/54 53/53/53 52/52/52
f 53/53/53 54/54/54 55/55/55
f 56/56/56 55/55/55 54/54/54
f 59/59/59 58/58/58 57/57/57
f 60/60/60 57/57/57 58/58/58
f 57/57/57 60/60/60 61/61/61
f 62/62/62 61/61/61 60/60/60
f 61/61/61 62/62/62 63/63/63
f 64/64/64 63/63/63 62/62/62
f 67/67/67 66/66/66 65/65/65
f 68/68/68 65/65/65 66/66/66
f 66/66/66 67/67/67 69/69/69
f 65/65/65 68/68/68 70/70/70
f 71/71/71 69/69/69 67/67/67
f 72/72/72 70/70/70 68/68/68
f 69/69/69 71/71/71 73/73/73
f 70/70/70 72/72/72 74/74/74
f 75/75/75 73/73/73 71/71/71
f 76/76/76 74/74/74 72/72/72
f 73/73/73 75/75/75 76/76/76
f 74/74/74 76/76/76 75/75/75
