g scp_we2_crossbow_bolts_holder
v -0.009363299 -0.029267773 0.020962954
v 0.009363299 -0.029267773 -0.020962954
v -0.009363299 -0.029267773 -0.020962954
v 0.009363299 -0.029267773 0.020962954
v -0.025319442 0.007781913 0.029171998
v 0.025321884 0.007781913 -0.029171998
v 0.025321884 0.007781913 0.029171998
v -0.025319442 0.007781913 -0.029171998
v 0.009363299 -0.029267773 0.020962954
v -0.009363299 -0.010972863 0.020962954
v 0.009363299 -0.010972863 0.020962954
v -0.009363299 -0.029267773 0.020962954
v 0.009363299 -0.029267773 -0.020962954
v 0.009363299 -0.010972863 0.020962954
v 0.009363299 -0.010972863 -0.020962954
v 0.009363299 -0.029267773 0.020962954
v -0.009363299 -0.029267773 -0.020962954
v 0.009363299 -0.010972863 -0.020962954
v -0.009363299 -0.010972863 -0.020962954
v 0.009363299 -0.029267773 -0.020962954
v -0.009363299 -0.029267773 0.020962954
v -0.009363299 -0.010972863 -0.020962954
v -0.009363299 -0.010972863 0.020962954
v -0.009363299 -0.029267773 -0.020962954
v 0.025321884 0.007781913 0.029171998
v -0.025319442 -0.0065114745 0.029171998
v -0.025319442 0.007781913 0.029171998
v 0.025321884 -0.0065114745 0.029171998
v 0.025321884 0.007781913 -0.029171998
v 0.025321884 -0.0065114745 0.029171998
v 0.025321884 0.007781913 0.029171998
v 0.025321884 -0.0065114745 -0.029171998
v -0.025319442 0.007781913 -0.029171998
v 0.025321884 -0.0065114745 -0.029171998
v 0.025321884 0.007781913 -0.029171998
v -0.025319442 -0.0065114745 -0.029171998
v -0.025319442 0.007781913 0.029171998
v -0.025319442 -0.0065114745 -0.029171998
v -0.025319442 0.007781913 -0.029171998
v -0.025319442 -0.0065114745 0.029171998
v 0.025321884 -0.0065114745 0.029171998
v -0.009363299 -0.010972863 0.020962954
v -0.025319442 -0.0065114745 0.029171998
v 0.009363299 -0.010972863 0.020962954
v 0.025321884 -0.0065114745 -0.029171998
v 0.009363299 -0.010972863 0.020962954
v 0.025321884 -0.0065114745 0.029171998
v 0.009363299 -0.010972863 -0.020962954
v -0.025319442 -0.0065114745 -0.029171998
v 0.009363299 -0.010972863 -0.020962954
v 0.025321884 -0.0065114745 -0.029171998
v -0.009363299 -0.010972863 -0.020962954
v -0.025319442 -0.0065114745 0.029171998
v -0.009363299 -0.010972863 -0.020962954
v -0.025319442 -0.0065114745 -0.029171998
v -0.009363299 -0.010972863 0.020962954
v 0.1762897 -0.07263295 0.101466976
v 0.1970375 -0.07263295 -0.101466976
v 0.1762897 -0.07263295 -0.101466976
v 0.1970375 -0.07263295 0.101466976
v 0.1762897 -0.026020907 0.101466976
v 0.1970375 -0.026020907 -0.101466976
v 0.1970375 -0.026020907 0.101466976
v 0.1762897 -0.026020907 -0.101466976
v 0.1762897 -0.07263295 0.101466976
v 0.1970375 -0.026020907 0.101466976
v 0.1970375 -0.07263295 0.101466976
v 0.1762897 -0.026020907 0.101466976
v 0.1970375 -0.07263295 -0.101466976
v 0.1762897 -0.026020907 -0.101466976
v 0.1762897 -0.07263295 -0.101466976
v 0.1970375 -0.026020907 -0.101466976
v -0.48222712 -0.06265768 0.09125219
v -0.33957118 -0.07263295 -0.101466976
v -0.48222712 -0.06265768 -0.09125219
v -0.33957118 -0.07263295 0.101466976
v -0.48222712 -0.0359962 0.09125219
v -0.33957118 -0.026020907 -0.101466976
v -0.33957118 -0.026020907 0.101466976
v -0.48222712 -0.0359962 -0.09125219
v -0.48222712 -0.06265768 0.09125219
v -0.33957118 -0.026020907 0.101466976
v -0.33957118 -0.07263295 0.101466976
v -0.48222712 -0.0359962 0.09125219
v -0.33957118 -0.07263295 0.101466976
v -0.33957118 -0.026020907 -0.101466976
v -0.33957118 -0.07263295 -0.101466976
v -0.33957118 -0.026020907 0.101466976
v -0.33957118 -0.07263295 -0.101466976
v -0.48222712 -0.0359962 -0.09125219
v -0.48222712 -0.06265768 -0.09125219
v -0.33957118 -0.026020907 -0.101466976
v -0.48222712 -0.06265768 -0.09125219
v -0.48222712 -0.0359962 0.09125219
v -0.48222712 -0.06265768 0.09125219
v -0.48222712 -0.0359962 -0.09125219
v -0.35981587 -0.008283167 0.0211293
v -0.37907362 -0.008283167 -0.02112932
v -0.35981587 -0.008283167 -0.021129297
v -0.37907362 -0.008283167 0.02112928
v -0.35981587 -0.028321514 0.021129297
v -0.35981587 -0.008283167 -0.021129297
v -0.35981587 -0.028321514 -0.0211293
v -0.35981587 -0.008283167 0.0211293
v -0.35981587 -0.028321514 -0.0211293
v -0.37907362 -0.008283167 -0.02112932
v -0.4007615 -0.033343483 -0.02112932
v -0.35981587 -0.008283167 -0.021129297
v -0.4007615 -0.033343483 -0.02112932
v -0.37907362 -0.008283167 0.02112928
v -0.4007615 -0.033343483 0.021129284
v -0.37907362 -0.008283167 -0.02112932
v -0.4007615 -0.033343483 0.021129284
v -0.35981587 -0.008283167 0.0211293
v -0.35981587 -0.028321514 0.021129297
v -0.37907362 -0.008283167 0.02112928
v 0.18281761 -0.026020907 0.013006067
v -0.36456224 -0.026020907 -0.013006065
v -0.36456224 -0.026020907 0.013006079
v 0.18281761 -0.026020907 -0.013006076
v 0.18281639 -0.014221792 0.013006068
v -0.36456224 -0.014221792 -0.013006065
v 0.18281639 -0.014221792 -0.013006076
v -0.36456224 -0.014221792 0.013006079
v 0.18281761 -0.026020907 0.013006067
v 0.18281639 -0.014221792 -0.013006076
v 0.18281761 -0.026020907 -0.013006076
v 0.18281639 -0.014221792 0.013006068
v 0.18281761 -0.026020907 -0.013006076
v -0.36456224 -0.014221792 -0.013006065
v -0.36456224 -0.026020907 -0.013006065
v 0.18281639 -0.014221792 -0.013006076
v -0.36456224 -0.026020907 0.013006079
v 0.18281639 -0.014221792 0.013006068
v 0.18281761 -0.026020907 0.013006067
v -0.36456224 -0.014221792 0.013006079
v 0.1928353 -0.0102914525 0.0211293
v 0.18049282 -0.0102914525 -0.02112932
v 0.1928353 -0.0102914525 -0.021129297
v 0.18049282 -0.0102914525 0.02112928
v 0.1928353 -0.0303298 0.036569458
v 0.1928353 -0.0102914525 -0.021129297
v 0.1928353 -0.0303298 -0.03656946
v 0.1928353 -0.0102914525 0.0211293
v 0.1928353 -0.0303298 -0.03656946
v 0.18049282 -0.0102914525 -0.02112932
v 0.18049212 -0.030329794 -0.03656949
v 0.1928353 -0.0102914525 -0.021129297
v 0.18049212 -0.030329794 -0.03656949
v 0.18049282 -0.0102914525 0.02112928
v 0.18049212 -0.030329794 0.03656943
v 0.18049282 -0.0102914525 -0.02112932
v 0.18049212 -0.030329794 0.03656943
v 0.1928353 -0.0102914525 0.0211293
v 0.1928353 -0.0303298 0.036569458
v 0.18049282 -0.0102914525 0.02112928
v 0.1970375 -0.07263295 0.101466976
v 0.1970375 -0.026020907 -0.101466976
v 0.1970375 -0.07263295 -0.101466976
v 0.1970375 -0.026020907 0.101466976
v 0.1762897 -0.07263295 0.101466976
v 0.1762897 -0.026020907 -0.101466976
v 0.1762897 -0.026020907 0.101466976
v 0.1762897 -0.07263295 -0.101466976
vt 0.12997966 0.38610423
vt 0.12602715 0.39005673
vt 0.12997966 0.39005673
vt 0.12602715 0.38610423
vt 0.12602715 0.38610423
vt 0.12997966 0.39005673
vt 0.12997966 0.38610423
vt 0.12602715 0.39005673
vt 0.12997966 0.38610423
vt 0.12602715 0.38746363
vt 0.12997966 0.38746363
vt 0.12602715 0.38610423
vt 0.12997966 0.38610423
vt 0.12602715 0.38746363
vt 0.12997966 0.38746363
vt 0.12602715 0.38610423
vt 0.12997966 0.38610423
vt 0.12602715 0.38746363
vt 0.12997966 0.38746363
vt 0.12602715 0.38610423
vt 0.12997966 0.38610423
vt 0.12602715 0.38746363
vt 0.12997966 0.38746363
vt 0.12602715 0.38610423
vt 0.12997966 0.39005673
vt 0.12602715 0.38808048
vt 0.12602715 0.39005673
vt 0.12997966 0.38808048
vt 0.12997966 0.39005673
vt 0.12602715 0.38808048
vt 0.12602715 0.39005673
vt 0.12997966 0.38808048
vt 0.12997966 0.39005673
vt 0.12602715 0.38808048
vt 0.12602715 0.39005673
vt 0.12997966 0.38808048
vt 0.12997966 0.39005673
vt 0.12602715 0.38808048
vt 0.12602715 0.39005673
vt 0.12997966 0.38808048
vt 0.12997966 0.38808048
vt 0.12602715 0.38746363
vt 0.12602715 0.38808048
vt 0.12997966 0.38746363
vt 0.12997966 0.38808048
vt 0.12602715 0.38746363
vt 0.12602715 0.38808048
vt 0.12997966 0.38746363
vt 0.12997966 0.38808048
vt 0.12602715 0.38746363
vt 0.12602715 0.38808048
vt 0.12997966 0.38746363
vt 0.12997966 0.38808048
vt 0.12602715 0.38746363
vt 0.12602715 0.38808048
vt 0.12997966 0.38746363
vt 0.061104987 0.10052833
vt 0.056240868 0.105392516
vt 0.061104987 0.105392516
vt 0.056240868 0.10052833
vt 0.056240868 0.10052833
vt 0.061104987 0.105392516
vt 0.061104987 0.10052833
vt 0.056240868 0.105392516
vt 0.056240868 0.10052833
vt 0.061104987 0.105392516
vt 0.061104987 0.10052833
vt 0.056240868 0.105392516
vt 0.056240868 0.10052833
vt 0.061104987 0.105392516
vt 0.061104987 0.10052833
vt 0.056240868 0.105392516
vt 0.0872668 0.11381358
vt 0.086538434 0.105176404
vt 0.08657706 0.11381358
vt 0.08730537 0.105176404
vt 0.08734399 0.11381358
vt 0.0880723 0.105176404
vt 0.08730537 0.105176404
vt 0.088033736 0.11381358
vt 0.08811003 0.11381358
vt 0.08824846 0.105176404
vt 0.0880723 0.105176404
vt 0.08821076 0.11381358
vt 0.08480791 0.16100326
vt 0.004228841 0.14249492
vt 0.004228841 0.16100326
vt 0.08480791 0.14249492
vt 0.08842462 0.105176404
vt 0.08828616 0.11381358
vt 0.08838695 0.11381358
vt 0.08824846 0.105176404
vt 0.056240868 0.10052833
vt 0.061104987 0.105392516
vt 0.061104987 0.10052833
vt 0.056240868 0.105392516
vt 0.12700795 0.38829008
vt 0.12849897 0.38978112
vt 0.12849897 0.38829008
vt 0.12700795 0.38978112
vt 0.12700795 0.38829008
vt 0.12849897 0.38978112
vt 0.12849897 0.38829008
vt 0.12700795 0.38978112
vt 0.12700795 0.38829008
vt 0.12849897 0.38978112
vt 0.12849897 0.38829008
vt 0.12700795 0.38978112
vt 0.12700795 0.38829008
vt 0.12849897 0.38978112
vt 0.12849897 0.38829008
vt 0.12700795 0.38978112
vt 0.12700795 0.38829008
vt 0.12849897 0.38978112
vt 0.12849897 0.38829008
vt 0.12700795 0.38978112
vt 0.1567176 0.1029402
vt 0.15661758 0.10304022
vt 0.1567176 0.10304022
vt 0.15661758 0.1029402
vt 0.15661758 0.1029402
vt 0.1567176 0.10304022
vt 0.1567176 0.1029402
vt 0.15661758 0.10304022
vt 0.15661758 0.1029402
vt 0.1567176 0.10304022
vt 0.1567176 0.1029402
vt 0.15661758 0.10304022
vt 0.15661758 0.1029402
vt 0.1567176 0.10304022
vt 0.1567176 0.1029402
vt 0.15661758 0.10304022
vt 0.15661758 0.1029402
vt 0.1567176 0.10304022
vt 0.1567176 0.1029402
vt 0.15661758 0.10304022
vt 0.12700795 0.38829008
vt 0.12849897 0.38978112
vt 0.12849897 0.38829008
vt 0.12700795 0.38978112
vt 0.12700795 0.38829008
vt 0.12849897 0.38978112
vt 0.12849897 0.38829008
vt 0.12700795 0.38978112
vt 0.12700795 0.38829008
vt 0.12849897 0.38978112
vt 0.12849897 0.38829008
vt 0.12700795 0.38978112
vt 0.12700795 0.38829008
vt 0.12849897 0.38978112
vt 0.12849897 0.38829008
vt 0.12700795 0.38978112
vt 0.12700795 0.38829008
vt 0.12849897 0.38978112
vt 0.12849897 0.38829008
vt 0.12700795 0.38978112
vt 0.08480791 0.16100326
vt 0.004228841 0.14249492
vt 0.004228841 0.16100326
vt 0.08480791 0.14249492
vt 0.08480791 0.16100326
vt 0.004228841 0.14249492
vt 0.08480791 0.14249492
vt 0.004228841 0.16100326
vn -0 -1 0
vn -0 -1 0
vn -0 -1 0
vn -0 -1 0
vn -0 1 0
vn -0 1 0
vn -0 1 0
vn -0 1 0
vn -0 0 1
vn -0 0 1
vn -0 0 1
vn -0 0 1
vn 1 0 0
vn 1 0 0
vn 1 0 0
vn 1 0 0
vn -0 0 -1
vn -0 0 -1
vn -0 0 -1
vn -0 0 -1
vn -1 0 0
vn -1 0 0
vn -1 0 0
vn -1 0 0
vn -0 0 1
vn -0 0 1
vn -0 0 1
vn -0 0 1
vn 1 0 0
vn 1 0 0
vn 1 0 0
vn 1 0 0
vn -0 0 -1
vn -0 0 -1
vn -0 0 -1
vn -0 0 -1
vn -1 0 0
vn -1 0 0
vn -1 0 0
vn -1 0 0
vn -0 -0.87862676 0.4775093
vn -0 -0.87862676 0.4775093
vn -0 -0.87862664 0.4775093
vn -0 -0.87862676 0.4775093
vn 0.26923737 -0.96307385 0
vn 0.26923734 -0.96307385 0
vn 0.26923737 -0.96307385 0
vn 0.26923734 -0.96307385 0
vn -0 -0.87862664 -0.4775093
vn -0 -0.87862664 -0.4775093
vn -0 -0.87862664 -0.4775093
vn -0 -0.87862664 -0.4775093
vn -0.26927552 -0.9630632 0
vn -0.26927552 -0.9630632 0
vn -0.26927555 -0.9630632 0
vn -0.26927552 -0.9630632 0
vn -0 -1 0
vn -0 -1 0
vn -0 -1 0
vn -0 -1 0
vn -0 1 0
vn -0 1 0
vn -0 1 0
vn -0 1 0
vn -0 0 1
vn -0 0 1
vn -0 0 1
vn -0 0 1
vn -0 0 -1
vn -0 0 -1
vn -0 0 -1
vn -0 0 -1
vn -0.06975509 -0.9975642 0
vn -0.06975509 -0.9975642 0
vn -0.06975508 -0.9975642 0
vn -0.06975509 -0.9975642 0
vn -0.06975518 0.9975642 0
vn -0.06975519 0.9975642 0
vn -0.06975519 0.9975642 0
vn -0.06975518 0.9975642 0
vn -0.07142149 0 0.9974462
vn -0.07142148 0 0.9974462
vn -0.07142148 0 0.9974462
vn -0.07142148 0 0.9974462
vn 1 0 0
vn 1 0 0
vn 1 0 0
vn 1 0 0
vn -0.07142148 0 -0.9974462
vn -0.07142148 0 -0.9974462
vn -0.07142148 0 -0.9974462
vn -0.07142149 0 -0.9974462
vn -1 0 0
vn -1 0 0
vn -1 0 0
vn -1 0 0
vn -0 1 0
vn -0 1 0
vn -0 1 0
vn -0 1 0
vn 1 0 0
vn 1 0 0
vn 1 0 0
vn 1 0 0
vn 7.8935045E-07 -1.9324722E-07 -1
vn 7.302288E-07 -2.5006577E-07 -1
vn 5.2114086E-07 -4.5100896E-07 -1
vn 1.1142342E-06 1.1898116E-07 -1
vn -0.75615317 0.65439475 0
vn -0.75615317 0.65439475 0
vn -0.75615317 0.6543947 0
vn -0.75615317 0.6543947 0
vn -6.0955585E-07 3.2997764E-07 1
vn -5.640236E-07 2.555832E-07 1
vn -3.3477556E-07 -1.1898116E-07 1
vn -9.904304E-07 9.522823E-07 1
vn -0 -1 0
vn -0 -1 0
vn -0 -1 0
vn -0 -1 0
vn -0 1 0
vn -0 1 0
vn -0 1 0
vn -0 1 0
vn 1 0.000103457154 0
vn 1 0.000103457154 0
vn 1 0.000103457154 0
vn 1 0.00010345717 0
vn -0 0 -1
vn -0 0 -1
vn -0 0 -1
vn -0 0 -1
vn -0 0 1
vn -0 0 1
vn -0 -1.0103014E-07 1
vn -0 0 1
vn -0 1 0
vn -0 1 0
vn -0 1 0
vn -0 1 0
vn 1 0 0
vn 1 0 0
vn 1 0 0
vn 1 0 0
vn 1.9798845E-06 0.61035776 -0.7921258
vn 1.6221137E-06 0.61035764 -0.792126
vn 2.2248603E-06 0.6103578 -0.79212576
vn 1.3771272E-06 0.61035746 -0.7921262
vn -1 3.5218436E-05 0
vn -1 3.521843E-05 0
vn -1 3.521843E-05 0
vn -1 3.5218432E-05 0
vn -1.3827818E-06 0.61035734 0.79212624
vn -1.2886036E-06 0.6103572 0.7921263
vn -1.447269E-06 0.61035734 0.79212624
vn -1.2241136E-06 0.6103572 0.7921263
vn 1 0 0
vn 1 0 0
vn 1 0 0
vn 1 0 0
vn -1 0 0
vn -1 0 0
vn -1 0 0
vn -1 0 0
g scp_we2_crossbow_bolts_holder_0
f 3/3/3 2/2/2 1/1/1
f 4/4/4 1/1/1 2/2/2
f 7/7/7 6/6/6 5/5/5
f 8/8/8 5/5/5 6/6/6
f 11/11/11 10/10/10 9/9/9
f 12/12/12 9/9/9 10/10/10
f 15/15/15 14/14/14 13/13/13
f 16/16/16 13/13/13 14/14/14
f 19/19/19 18/18/18 17/17/17
f 20/20/20 17/17/17 18/18/18
f 23/23/23 22/22/22 21/21/21
f 24/24/24 21/21/21 22/22/22
f 27/27/27 26/26/26 25/25/25
f 28/28/28 25/25/25 26/26/26
f 31/31/31 30/30/30 29/29/29
f 32/32/32 29/29/29 30/30/30
f 35/35/35 34/34/34 33/33/33
f 36/36/36 33/33/33 34/34/34
f 39/39/39 38/38/38 37/37/37
f 40/40/40 37/37/37 38/38/38
f 43/43/43 42/42/42 41/41/41
f 44/44/44 41/41/41 42/42/42
f 47/47/47 46/46/46 45/45/45
f 48/48/48 45/45/45 46/46/46
f 51/51/51 50/50/50 49/49/49
f 52/52/52 49/49/49 50/50/50
f 55/55/55 54/54/54 53/53/53
f 56/56/56 53/53/53 54/54/54
f 59/59/59 58/58/58 57/57/57
f 60/60/60 57/57/57 58/58/58
f 63/63/63 62/62/62 61/61/61
f 64/64/64 61/61/61 62/62/62
f 67/67/67 66/66/66 65/65/65
f 68/68/68 65/65/65 66/66/66
f 71/71/71 70/70/70 69/69/69
f 72/72/72 69/69/69 70/70/70
f 75/75/75 74/74/74 73/73/73
f 76/76/76 73/73/73 74/74/74
f 79/79/79 78/78/78 77/77/77
f 80/80/80 77/77/77 78/78/78
f 83/83/83 82/82/82 81/81/81
f 84/84/84 81/81/81 82/82/82
f 87/87/87 86/86/86 85/85/85
f 88/88/88 85/85/85 86/86/86
f 91/91/91 90/90/90 89/89/89
f 92/92/92 89/89/89 90/90/90
f 95/95/95 94/94/94 93/93/93
f 96/96/96 93/93/93 94/94/94
f 99/99/99 98/98/98 97/97/97
f 100/100/100 97/97/97 98/98/98
f 103/103/103 102/102/102 101/101/101
f 104/104/104 101/101/101 102/102/102
f 107/107/107 106/106/106 105/105/105
f 108/108/108 105/105/105 106/106/106
f 111/111/111 110/110/110 109/109/109
f 112/112/112 109/109/109 110/110/110
f 115/115/115 114/114/114 113/113/113
f 116/116/116 113/113/113 114/114/114
f 119/119/119 118/118/118 117/117/117
f 120/120/120 117/117/117 118/118/118
f 123/123/123 122/122/122 121/121/121
f 124/124/124 121/121/121 122/122/122
f 127/127/127 126/126/126 125/125/125
f 128/128/128 125/125/125 126/126/126
f 131/131/131 130/130/130 129/129/129
f 132/132/132 129/129/129 130/130/130
f 135/135/135 134/134/134 133/133/133
f 136/136/136 133/133/133 134/134/134
f 139/139/139 138/138/138 137/137/137
f 140/140/140 137/137/137 138/138/138
f 143/143/143 142/142/142 141/141/141
f 144/144/144 141/141/141 142/142/142
f 147/147/147 146/146/146 145/145/145
f 148/148/148 145/145/145 146/146/146
f 151/151/151 150/150/150 149/149/149
f 152/152/152 149/149/149 150/150/150
f 155/155/155 154/154/154 153/153/153
f 156/156/156 153/153/153 154/154/154
f 159/159/159 158/158/158 157/157/157
f 160/160/160 157/157/157 158/158/158
f 163/163/163 162/162/162 161/161/161
f 164/164/164 161/161/161 162/162/162
