g scp_we2_exp_detonator
v 0.0637556 0.0993455 -0.03520795
v 0.116796836 0.1576533 -0.035207808
v 0.0637556 0.1576533 -0.0352079
v 0.116796836 0.1576533 -0.035207808
v 0.0637556 0.0993455 -0.03520795
v 0.11679685 0.11104646 -0.035207856
v 0.0637556 0.15765323 0.0352083
v 0.11679685 0.1110464 0.035208248
v 0.0637556 0.09934548 0.03520824
v 0.11679685 0.1110464 0.035208248
v 0.0637556 0.15765323 0.0352083
v 0.116796836 0.15765326 0.0352083
v -0.016176438 0.15765323 0.0352083
v -0.0637556 0.0993455 -0.035207935
v -0.016176438 0.15765329 -0.0352079
v -0.0637556 0.0993455 -0.035207935
v -0.016176438 0.15765323 0.0352083
v -0.0637556 0.09934546 0.035208236
v -0.0637556 0.09934546 0.035208236
v -0.0637556 -0.099345416 -0.03520806
v -0.0637556 0.0993455 -0.035207935
v -0.0637556 -0.099345416 -0.03520806
v -0.0637556 0.09934546 0.035208236
v -0.0637556 -0.099345475 0.035208043
v 0.044062957 0.17929456 2.022105E-07
v 0.030395845 0.17929454 -0.011024132
v 0.034046955 0.17929456 -0.017348036
v 0.030395845 0.17929454 -0.011024132
v 0.044062957 0.17929456 2.022105E-07
v 0.036760766 0.17929453 2.0198026E-07
v 0.034046955 0.17929456 -0.017348036
v 0.017666036 0.17929454 -0.011024131
v 0.014014926 0.17929456 -0.017348036
v 0.017666036 0.17929454 -0.011024131
v 0.034046955 0.17929456 -0.017348036
v 0.030395845 0.17929454 -0.011024132
v 0.014014926 0.17929456 -0.017348036
v 0.011301117 0.17929453 2.0332953E-07
v 0.0039989245 0.17929456 2.0396173E-07
v 0.011301117 0.17929453 2.0332953E-07
v 0.014014926 0.17929456 -0.017348036
v 0.017666036 0.17929454 -0.011024131
v 0.0039989245 0.17929456 2.0396173E-07
v 0.017666036 0.17929454 0.011024538
v 0.014014926 0.17929454 0.017348442
v 0.017666036 0.17929454 0.011024538
v 0.0039989245 0.17929456 2.0396173E-07
v 0.011301117 0.17929453 2.0332953E-07
v 0.014014926 0.17929454 0.017348442
v 0.030395845 0.17929454 0.011024538
v 0.034046955 0.17929454 0.017348442
v 0.030395845 0.17929454 0.011024538
v 0.014014926 0.17929454 0.017348442
v 0.017666036 0.17929454 0.011024538
v 0.034046955 0.17929454 0.017348442
v 0.036760766 0.17929453 2.0198026E-07
v 0.044062957 0.17929456 2.022105E-07
v 0.036760766 0.17929453 2.0198026E-07
v 0.034046955 0.17929454 0.017348442
v 0.030395845 0.17929454 0.011024538
v 0.0637556 -0.0920087 -0.022210665
v 0.07866479 -0.010106632 -0.022210557
v 0.0637556 0.0011561571 -0.022210607
v 0.07866479 -0.010106632 -0.022210557
v 0.0637556 -0.0920087 -0.022210665
v 0.071628466 -0.0920087 -0.02221061
v 0.0637556 0.0011561167 0.022210833
v 0.071628466 -0.09200874 0.02221077
v 0.0637556 -0.09200871 0.02221077
v 0.071628466 -0.09200874 0.02221077
v 0.0637556 0.0011561167 0.022210833
v 0.07866479 -0.010106658 0.022210829
v -0.0637556 0.09934546 0.035208236
v 0.0637556 -0.09934548 0.035208043
v -0.0637556 -0.099345475 0.035208043
v 0.0637556 0.09934548 0.03520824
v 0.0637556 0.15765323 0.0352083
v -0.016176438 0.15765323 0.0352083
v -0.0637556 -0.099345416 -0.03520806
v 0.0637556 -0.09934548 0.035208043
v 0.0637556 -0.099345416 -0.035208054
v -0.0637556 -0.099345475 0.035208043
v 0.0637556 0.0993455 -0.03520795
v 0.0637556 -0.09934548 0.035208043
v 0.0637556 0.09934548 0.03520824
v 0.0637556 -0.099345416 -0.035208054
v 0.0637556 0.1576533 -0.0352079
v -0.016176438 0.15765323 0.0352083
v -0.016176438 0.15765329 -0.0352079
v 0.0637556 0.15765323 0.0352083
v 0.116796836 0.1576533 -0.035207808
v 0.11679685 0.1110464 0.035208248
v 0.116796836 0.15765326 0.0352083
v 0.11679685 0.11104646 -0.035207856
v 0.0637556 0.1576533 -0.0352079
v 0.116796836 0.15765326 0.0352083
v 0.0637556 0.15765323 0.0352083
v 0.116796836 0.1576533 -0.035207808
v 0.0637556 0.09934548 0.03520824
v 0.11679685 0.11104646 -0.035207856
v 0.0637556 0.0993455 -0.03520795
v 0.11679685 0.1110464 0.035208248
v 0.06945874 0.021516157 0.023844194
v 0.06945876 0.071393564 -0.023843534
v 0.06945874 0.021516196 -0.023843557
v 0.06945876 0.071393535 0.023844218
v 0.061037887 0.021516152 0.023844194
v 0.06945874 0.021516196 -0.023843557
v 0.061037887 0.021516189 -0.023843529
v 0.06945874 0.021516157 0.023844194
v 0.061037887 0.021516189 -0.023843529
v 0.06945876 0.071393564 -0.023843534
v 0.061037917 0.07139357 -0.023843503
v 0.06945874 0.021516196 -0.023843557
v 0.061037917 0.07139357 -0.023843503
v 0.06945876 0.071393535 0.023844218
v 0.061037917 0.071393535 0.023844218
v 0.06945876 0.071393564 -0.023843534
v 0.061037917 0.071393535 0.023844218
v 0.06945874 0.021516157 0.023844194
v 0.061037887 0.021516152 0.023844194
v 0.06945876 0.071393535 0.023844218
v 0.09042761 0.02556344 0.019235022
v 0.09042761 0.067346275 -0.019234907
v 0.09042761 0.025563465 -0.019234922
v 0.09042762 0.06734626 0.019235037
v 0.06945871 0.025563454 0.019235024
v 0.09042761 0.025563465 -0.019234922
v 0.06945871 0.025563478 -0.01923495
v 0.09042761 0.02556344 0.019235022
v 0.06945871 0.025563478 -0.01923495
v 0.09042761 0.067346275 -0.019234907
v 0.06945874 0.067346275 -0.019234937
v 0.09042761 0.025563465 -0.019234922
v 0.06945874 0.067346275 -0.019234937
v 0.09042762 0.06734626 0.019235037
v 0.06945874 0.06734626 0.019235037
v 0.09042761 0.067346275 -0.019234907
v 0.06945874 0.06734626 0.019235037
v 0.09042761 0.02556344 0.019235022
v 0.06945871 0.025563454 0.019235024
v 0.09042762 0.06734626 0.019235037
v 0.034046955 0.15765335 -0.017348051
v 0.014014926 0.17929456 -0.017348036
v 0.014014926 0.15765335 -0.017348051
v 0.034046955 0.17929456 -0.017348036
v 0.044062957 0.15765335 1.8758942E-07
v 0.044062957 0.17929456 2.022105E-07
v 0.034046955 0.15765333 0.01734843
v 0.034046955 0.17929454 0.017348442
v 0.014014926 0.15765333 0.01734843
v 0.014014926 0.17929454 0.017348442
v 0.0039989245 0.15765335 1.893407E-07
v 0.0039989245 0.17929456 2.0396173E-07
v 0.014014926 0.15765335 -0.017348051
v 0.014014926 0.17929456 -0.017348036
v 0.0286995 0.26477724 -0.008085912
v 0.014693808 0.26477724 2.6078442E-07
v 0.019362355 0.26477724 -0.008085912
v 0.0286995 0.26477724 0.008086434
v 0.033368047 0.26477724 2.5979475E-07
v 0.019362355 0.26477724 0.008086434
v 0.10134632 0.13165602 -0.041179936
v 0.095810525 0.14124417 0.041181196
v 0.095810525 0.14124426 -0.04117993
v 0.10134632 0.13165593 0.041181188
v 0.095810525 0.12206776 -0.041179918
v 0.095810525 0.12206767 0.041181233
v 0.08473898 0.12206776 -0.041179918
v 0.08473898 0.12206767 0.041181233
v 0.095810525 0.14124426 -0.04117993
v 0.08473898 0.14124417 0.041181196
v 0.08473898 0.14124426 -0.04117993
v 0.095810525 0.14124417 0.041181196
v 0.0792032 0.13165593 0.041181188
v 0.08473898 0.14124426 -0.04117993
v 0.08473898 0.14124417 0.041181196
v 0.0792032 0.131656 -0.041179936
v 0.08473898 0.12206767 0.041181233
v 0.08473898 0.12206776 -0.041179918
v 0.095810525 0.12206776 -0.041179918
v 0.0792032 0.131656 -0.041179936
v 0.08473898 0.12206776 -0.041179918
v 0.095810525 0.14124426 -0.04117993
v 0.10134632 0.13165602 -0.041179936
v 0.08473898 0.14124426 -0.04117993
v 0.08473898 0.14124417 0.041181196
v 0.08473898 0.12206767 0.041181233
v 0.0792032 0.13165593 0.041181188
v 0.10134632 0.13165593 0.041181188
v 0.095810525 0.14124417 0.041181196
v 0.095810525 0.12206767 0.041181233
v 0.0637556 -0.099345416 -0.035208054
v -0.0637556 0.0993455 -0.035207935
v -0.0637556 -0.099345416 -0.03520806
v 0.0637556 0.0993455 -0.03520795
v 0.0637556 0.1576533 -0.0352079
v -0.016176438 0.15765329 -0.0352079
v 0.07866479 -0.010106632 -0.022210557
v 0.071628466 -0.09200874 0.02221077
v 0.07866479 -0.010106658 0.022210829
v 0.071628466 -0.0920087 -0.02221061
v 0.0637556 0.0011561571 -0.022210607
v 0.07866479 -0.010106658 0.022210829
v 0.0637556 0.0011561167 0.022210833
v 0.07866479 -0.010106632 -0.022210557
v 0.0637556 -0.09200871 0.02221077
v 0.071628466 -0.0920087 -0.02221061
v 0.0637556 -0.0920087 -0.022210665
v 0.071628466 -0.09200874 0.02221077
v 0.036760766 0.17929453 2.0198026E-07
v 0.0286995 0.26477724 -0.008085912
v 0.030395845 0.17929454 -0.011024132
v 0.033368047 0.26477724 2.5979475E-07
v 0.019362355 0.26477724 -0.008085912
v 0.030395845 0.17929454 0.011024538
v 0.017666036 0.17929454 -0.011024131
v 0.0286995 0.26477724 0.008086434
v 0.014693808 0.26477724 2.6078442E-07
v 0.017666036 0.17929454 0.011024538
v 0.011301117 0.17929453 2.0332953E-07
v 0.019362355 0.26477724 0.008086434
vt 0.4580467 0.20526645
vt 0.45581105 0.20420685
vt 0.45794922 0.20526645
vt 0.45581105 0.20420685
vt 0.4580467 0.20526645
vt 0.45581105 0.20563373
vt 0.46393356 0.2081841
vt 0.46570316 0.20563379
vt 0.46390522 0.2081841
vt 0.46570316 0.20563379
vt 0.46393356 0.2081841
vt 0.46570316 0.20420685
vt 0.45581105 0.21165946
vt 0.45581105 0.20661655
vt 0.46390614 0.20961568
vt 0.45581105 0.20661655
vt 0.45581105 0.21165946
vt 0.46393356 0.2081841
vt 0.46393356 0.2081841
vt 0.4584583 0.21005109
vt 0.45581105 0.20661655
vt 0.4584583 0.21005109
vt 0.46393356 0.2081841
vt 0.4584583 0.20526645
vt 0.4118464 0.4314816
vt 0.40797558 0.4300648
vt 0.41279095 0.4314816
vt 0.40797558 0.4300648
vt 0.4118464 0.4314816
vt 0.4104296 0.4314816
vt 0.41279095 0.4314816
vt 0.40797558 0.42723113
vt 0.4137355 0.4314816
vt 0.40797558 0.42723113
vt 0.41279095 0.4314816
vt 0.40797558 0.4300648
vt 0.40806824 0.4314816
vt 0.4104296 0.42581433
vt 0.40901276 0.4314816
vt 0.4104296 0.42581433
vt 0.40806824 0.4314816
vt 0.40797558 0.42723113
vt 0.40901276 0.4314816
vt 0.41288358 0.42723113
vt 0.4099573 0.4314816
vt 0.41288358 0.42723113
vt 0.40901276 0.4314816
vt 0.4104296 0.42581433
vt 0.4099573 0.4314816
vt 0.41288358 0.4300648
vt 0.41090184 0.4314816
vt 0.41288358 0.4300648
vt 0.4099573 0.4314816
vt 0.41288358 0.42723113
vt 0.41090184 0.4314816
vt 0.4104296 0.4314816
vt 0.4118464 0.4314816
vt 0.4104296 0.4314816
vt 0.41090184 0.4314816
vt 0.41288358 0.4300648
vt 0.4580467 0.20526645
vt 0.45581105 0.20420685
vt 0.45794922 0.20526645
vt 0.45581105 0.20420685
vt 0.4580467 0.20526645
vt 0.45581105 0.20563373
vt 0.46393356 0.2081841
vt 0.46570316 0.20563379
vt 0.46390522 0.2081841
vt 0.46570316 0.20563379
vt 0.46393356 0.2081841
vt 0.46570316 0.20420685
vt 0.4392689 0.21624275
vt 0.34011415 0.15260953
vt 0.34011415 0.21624275
vt 0.4392689 0.15260953
vt 0.4683668 0.15260953
vt 0.4683668 0.19249882
vt 0.45581105 0.21165946
vt 0.46570316 0.20661655
vt 0.45581105 0.20661655
vt 0.46570316 0.21165946
vt 0.45581105 0.20563373
vt 0.46570316 0.21165946
vt 0.46570316 0.20563379
vt 0.45581105 0.21165946
vt 0.45581105 0.21165946
vt 0.46570316 0.20799628
vt 0.45581105 0.20799628
vt 0.46570316 0.21165946
vt 0.45581105 0.20420685
vt 0.46570316 0.20563379
vt 0.46570316 0.20420685
vt 0.45581105 0.20563373
vt 0.45581105 0.21165946
vt 0.46570316 0.20420685
vt 0.46570316 0.21165946
vt 0.45581105 0.20420685
vt 0.46570316 0.20563379
vt 0.45581105 0.20563373
vt 0.45581105 0.20563373
vt 0.46570316 0.20563379
vt 0.3720421 0.26040003
vt 0.38079205 0.26915
vt 0.38079205 0.26040003
vt 0.3720421 0.26915
vt 0.3720421 0.26040003
vt 0.38079205 0.26915
vt 0.38079205 0.26040003
vt 0.3720421 0.26915
vt 0.3720421 0.26040003
vt 0.38079205 0.26915
vt 0.38079205 0.26040003
vt 0.3720421 0.26915
vt 0.3720421 0.26040003
vt 0.38079205 0.26915
vt 0.38079205 0.26040003
vt 0.3720421 0.26915
vt 0.3720421 0.26040003
vt 0.38079205 0.26915
vt 0.38079205 0.26040003
vt 0.3720421 0.26915
vt 0.36550558 0.7135431
vt 0.37361857 0.7216561
vt 0.37361857 0.7135431
vt 0.36550558 0.7216561
vt 0.36550558 0.7135431
vt 0.37361857 0.7216561
vt 0.37361857 0.7135431
vt 0.36550558 0.7216561
vt 0.36550558 0.7135431
vt 0.37361857 0.7216561
vt 0.37361857 0.7135431
vt 0.36550558 0.7216561
vt 0.36550558 0.7135431
vt 0.37361857 0.7216561
vt 0.37361857 0.7135431
vt 0.36550558 0.7216561
vt 0.36550558 0.7135431
vt 0.37361857 0.7216561
vt 0.37361857 0.7135431
vt 0.36550558 0.7216561
vt 0.41279095 0.42581433
vt 0.4137355 0.4314816
vt 0.4137355 0.42581433
vt 0.41279095 0.4314816
vt 0.4118464 0.42581433
vt 0.4118464 0.4314816
vt 0.41090184 0.42581433
vt 0.41090184 0.4314816
vt 0.4099573 0.42581433
vt 0.4099573 0.4314816
vt 0.40901276 0.42581433
vt 0.40901276 0.4314816
vt 0.40806824 0.42581433
vt 0.40806824 0.4314816
vt 0.40797558 0.4300648
vt 0.4104296 0.42581433
vt 0.40797558 0.42723113
vt 0.41288358 0.4300648
vt 0.4104296 0.4314816
vt 0.41288358 0.42723113
vt 0.15905073 0.43905544
vt 0.16374603 0.43850884
vt 0.15905073 0.43850884
vt 0.16374603 0.43905544
vt 0.15905073 0.43986326
vt 0.16374603 0.43986326
vt 0.15905073 0.44049442
vt 0.16374603 0.44049442
vt 0.16374603 0.44084275
vt 0.15905073 0.4414739
vt 0.16374603 0.4414739
vt 0.15905073 0.44084275
vt 0.15905076 0.43770105
vt 0.16374603 0.4371544
vt 0.15905076 0.4371544
vt 0.16374603 0.43770105
vt 0.15905073 0.43824762
vt 0.16374603 0.43824762
vt 0.16152108 0.44291538
vt 0.16057429 0.4423688
vt 0.1608899 0.44291538
vt 0.16152108 0.44182217
vt 0.16183665 0.4423688
vt 0.1608899 0.44182217
vt 0.1599975 0.44182217
vt 0.1599975 0.44291538
vt 0.1603131 0.4423688
vt 0.15905073 0.4423688
vt 0.15936634 0.44182217
vt 0.15936634 0.44291538
vt 0.34011415 0.15260953
vt 0.4392689 0.21624275
vt 0.34011415 0.21624275
vt 0.4392689 0.15260953
vt 0.4683668 0.15260953
vt 0.4683668 0.19249882
vt 0.45581105 0.20420685
vt 0.46570316 0.20563379
vt 0.46570316 0.20420685
vt 0.45581105 0.20563373
vt 0.45581105 0.21165946
vt 0.46570316 0.20420685
vt 0.46570316 0.21165946
vt 0.45581105 0.20420685
vt 0.46570316 0.20563379
vt 0.45581105 0.20563373
vt 0.45581105 0.20563373
vt 0.46570316 0.20563379
vt 0.4104296 0.4314816
vt 0.40797558 0.4300648
vt 0.40797558 0.4300648
vt 0.4104296 0.4314816
vt 0.40797558 0.42723113
vt 0.41288358 0.4300648
vt 0.40797558 0.42723113
vt 0.41288358 0.4300648
vt 0.4104296 0.42581433
vt 0.41288358 0.42723113
vt 0.4104296 0.42581433
vt 0.41288358 0.42723113
vn 1.7080872E-06 7.9788157E-07 -1
vn 1.7080872E-06 7.9788157E-07 -1
vn 1.7080872E-06 7.978815E-07 -1
vn 1.505148E-06 9.824906E-07 -1
vn 1.5051481E-06 9.824905E-07 -1
vn 1.5051481E-06 9.824905E-07 -1
vn -0 -1.0023305E-06 1
vn -0 -1.0023305E-06 1
vn -0 -1.0023306E-06 1
vn -0 -1.0336453E-06 1
vn -0 -1.0336452E-06 1
vn -0 -1.0336452E-06 1
vn -0.774785 0.6322248 5.96495E-07
vn -0.77478504 0.63222474 5.96495E-07
vn -0.77478504 0.63222474 5.9649506E-07
vn -0.7747849 0.63222486 3.8243348E-07
vn -0.7747849 0.6322249 3.8243354E-07
vn -0.7747849 0.63222486 3.8243348E-07
vn -1 0 0
vn -1 0 0
vn -1 0 0
vn -1 0 0
vn -1 0 0
vn -1 0 0
vn -3.918021E-06 1 2.5283841E-06
vn -3.918021E-06 1 2.5283841E-06
vn -3.918021E-06 1 2.5283841E-06
vn -3.918033E-06 1 2.5283998E-06
vn -3.9180336E-06 1 2.5284003E-06
vn -3.918033E-06 1 2.5283998E-06
vn -0 1 4.790456E-06
vn -0 1 4.790456E-06
vn -0 1 4.790456E-06
vn -0 1 4.7904564E-06
vn -0 1 4.7904564E-06
vn -0 1 4.7904564E-06
vn 3.9180327E-06 1 2.5283912E-06
vn 3.9180322E-06 1 2.5283912E-06
vn 3.9180327E-06 1 2.5283912E-06
vn 3.918014E-06 1 2.5283884E-06
vn 3.918014E-06 1 2.5283882E-06
vn 3.9180136E-06 1 2.5283882E-06
vn 9.521502E-07 1 8.160405E-07
vn 9.521502E-07 1 8.160405E-07
vn 9.521502E-07 1 8.1604054E-07
vn 3.918032E-06 1 -2.8608292E-06
vn 3.9180322E-06 1 -2.8608292E-06
vn 3.9180322E-06 1 -2.8608292E-06
vn -0 1 2.6631614E-07
vn -0 1 2.663161E-07
vn -0 1 2.663161E-07
vn -0 1 2.663161E-07
vn -0 1 2.663161E-07
vn -0 1 2.663161E-07
vn -3.9180336E-06 1 -8.963112E-07
vn -3.9180336E-06 1 -8.963112E-07
vn -3.9180336E-06 1 -8.963112E-07
vn 7.491651E-07 1 -1.662149E-07
vn 7.4916517E-07 1 -1.6621492E-07
vn 7.491651E-07 1 -1.6621492E-07
vn 3.7887553E-06 6.245907E-07 -1
vn 3.7887555E-06 6.245907E-07 -1
vn 3.7887553E-06 6.245907E-07 -1
vn 6.9652224E-06 0 -1
vn 6.965223E-06 0 -1
vn 6.9652224E-06 0 -1
vn -0 -7.0136394E-07 1
vn -0 -7.0136394E-07 1
vn -0 -7.0136394E-07 1
vn -1.8023795E-07 -7.165948E-07 1
vn -1.8023795E-07 -7.165948E-07 1
vn -1.8023796E-07 -7.1659474E-07 1
vn -0 -9.862842E-07 1
vn -0 -9.862842E-07 1
vn -0 -9.862842E-07 1
vn -0 -9.862842E-07 1
vn -0 -1.0432202E-06 1
vn -0 -1.0432202E-06 1
vn -0 -1 -9.4348684E-07
vn -0 -1 -9.4348684E-07
vn -0 -1 -9.4348684E-07
vn -0 -1 -8.080526E-07
vn 1 0 0
vn 1 0 0
vn 1 0 0
vn 1 0 0
vn -2.386213E-07 1 9.434858E-07
vn -2.386213E-07 1 9.434859E-07
vn -2.386213E-07 1 9.434858E-07
vn -1.1931066E-07 1 1.0789197E-06
vn 1 4.092422E-07 0
vn 1 4.0924218E-07 0
vn 1 4.0924218E-07 0
vn 1 4.0924218E-07 0
vn -3.595973E-07 1 1.0789197E-06
vn -3.5959732E-07 1 1.0789198E-06
vn -3.595973E-07 1 1.0789197E-06
vn -0 1 8.0805256E-07
vn 0.21542172 -0.9765211 -3.261903E-07
vn 0.21542169 -0.9765211 -3.261903E-07
vn 0.21542172 -0.9765211 -3.2619033E-07
vn 0.21542113 -0.9765213 -7.890805E-07
vn 1 -4.780096E-07 0
vn 1 -4.7800955E-07 0
vn 1 -4.7800955E-07 0
vn 1 -4.7800955E-07 0
vn 7.7860443E-07 -1 -8.0377066E-07
vn 7.78603E-07 -1 -8.0377094E-07
vn 7.786028E-07 -1 -8.03771E-07
vn 7.7860454E-07 -1 -8.0377066E-07
vn -3.427694E-06 4.6261127E-07 -1
vn -3.650531E-06 5.0023317E-07 -1
vn -3.6806775E-06 5.0532293E-07 -1
vn -3.397547E-06 4.5752154E-07 -1
vn 5.662598E-07 1 7.662739E-07
vn 5.662584E-07 1 7.6627407E-07
vn 5.6625817E-07 1 7.662742E-07
vn 5.6626E-07 1 7.662739E-07
vn -0 -4.5751992E-07 1
vn -0 -4.5751986E-07 1
vn -0 -4.5751986E-07 1
vn -0 -4.5751992E-07 1
vn 1 -1.08127864E-07 -1.174395E-07
vn 1 -1.2011762E-07 -1.3046177E-07
vn 1 0 0
vn 1 -2.2824547E-07 -2.4790126E-07
vn -6.169908E-07 -1 -6.6459603E-07
vn -5.910819E-07 -1 -6.504739E-07
vn -5.6850456E-07 -1 -6.3816753E-07
vn -6.3956827E-07 -1 -6.769024E-07
vn 1.381247E-06 3.4345967E-07 -1
vn 1.4044301E-06 3.318251E-07 -1
vn 1.4212648E-06 3.2337655E-07 -1
vn 1.3644121E-06 3.5190823E-07 -1
vn -0 1 4.0995658E-07
vn -0 1 4.3255196E-07
vn -1.1370112E-07 1 4.522418E-07
vn -0 1 3.9026668E-07
vn -0 -3.6354243E-07 1
vn -0 -3.4027408E-07 1
vn 1.1370097E-07 -3.233776E-07 1
vn -0 -3.8043888E-07 1
vn 0.5000001 5.645678E-07 -0.8660253
vn -0.50000024 5.645677E-07 -0.86602527
vn -0.5000001 5.681573E-07 -0.8660253
vn 0.50000024 5.681574E-07 -0.86602527
vn 1 0 0
vn 1 0 0
vn 0.5000001 -5.2879443E-07 0.8660253
vn 0.50000024 -5.168632E-07 0.86602527
vn -0.50000006 -5.168632E-07 0.8660253
vn -0.50000036 -5.287943E-07 0.86602527
vn -1 0 0
vn -1 0 0
vn -0.5000001 5.681573E-07 -0.8660253
vn -0.50000024 5.645677E-07 -0.86602527
vn -0 1 2.663161E-07
vn -0 1 2.663161E-07
vn -0 1 2.663161E-07
vn -0 1 2.663161E-07
vn -0 1 2.663161E-07
vn -0 1 2.663161E-07
vn 1 8.544069E-07 0
vn 0.4999996 0.8660256 9.325872E-07
vn 0.49999958 0.8660257 9.3258734E-07
vn 1 -8.5440456E-07 0
vn 0.50000024 -0.86602527 -9.325867E-07
vn 0.49999887 -0.86602604 -9.3258734E-07
vn -0.50000066 -0.8660251 -9.3258654E-07
vn -0.49999934 -0.8660258 -9.020047E-07
vn 0.49999958 0.8660257 9.3258734E-07
vn -0.5 0.86602545 9.32587E-07
vn -0.5000002 0.86602527 9.020042E-07
vn 0.4999996 0.8660256 9.325872E-07
vn -1 -7.2295734E-07 0
vn -0.5000002 0.86602527 9.020042E-07
vn -0.5 0.86602545 9.32587E-07
vn -1 2.1086312E-07 0
vn -0.49999934 -0.8660258 -9.020047E-07
vn -0.50000066 -0.8660251 -9.3258654E-07
vn -0 -2.2202535E-06 -1
vn -0 -2.2202537E-06 -1
vn -0 -2.2202537E-06 -1
vn -0 1.2609431E-06 -1
vn -3.0147974E-06 -4.7965443E-07 -1
vn -0 1.2609431E-06 -1
vn -5.598924E-06 1.971596E-06 1
vn -5.5989244E-06 1.971596E-06 1
vn -5.5989244E-06 1.971596E-06 1
vn -0 5.204133E-06 1
vn -0 -1.2609439E-06 1
vn -0 5.204133E-06 1
vn -0 6.263002E-07 -1
vn -0 6.263002E-07 -1
vn -0 6.263002E-07 -1
vn -0 5.4230395E-07 -1
vn -0 7.9788157E-07 -1
vn -0 5.934335E-07 -1
vn 0.99632996 -0.08559605 0
vn 0.99632996 -0.08559604 0
vn 0.99632996 -0.08559605 0
vn 0.99632996 -0.08559605 0
vn 0.6027669 0.79791737 7.2640773E-07
vn 0.6027669 0.79791737 7.2640773E-07
vn 0.6027669 0.79791737 7.2640773E-07
vn 0.60276735 0.79791695 4.6945308E-07
vn -0 -1 0
vn -0 -1 0
vn -0 -1 0
vn -3.634029E-06 -1 -6.9569234E-07
vn 0.99921334 0.039657626 -3.00009E-07
vn 0.49960694 0.039658196 -0.865344
vn 0.4996062 0.039658044 -0.8653444
vn 0.99921334 0.039657593 1.4034421E-07
vn -0.49960724 0.039657887 -0.8653438
vn 0.49960643 0.03965699 0.86534435
vn -0.499606 0.039657976 -0.8653445
vn 0.49960697 0.03965688 0.86534405
vn -0.99921334 0.039657265 1.6197463E-07
vn -0.49960625 0.039656725 0.8653444
vn -0.99921334 0.039657295 -4.760915E-07
vn -0.49960697 0.039656863 0.86534405
g scp_we2_exp_detonator_0
f 3/3/3 2/2/2 1/1/1
f 6/6/6 5/5/5 4/4/4
f 9/9/9 8/8/8 7/7/7
f 12/12/12 11/11/11 10/10/10
f 15/15/15 14/14/14 13/13/13
f 18/18/18 17/17/17 16/16/16
f 21/21/21 20/20/20 19/19/19
f 24/24/24 23/23/23 22/22/22
f 27/27/27 26/26/26 25/25/25
f 30/30/30 29/29/29 28/28/28
f 33/33/33 32/32/32 31/31/31
f 36/36/36 35/35/35 34/34/34
f 39/39/39 38/38/38 37/37/37
f 42/42/42 41/41/41 40/40/40
f 45/45/45 44/44/44 43/43/43
f 48/48/48 47/47/47 46/46/46
f 51/51/51 50/50/50 49/49/49
f 54/54/54 53/53/53 52/52/52
f 57/57/57 56/56/56 55/55/55
f 60/60/60 59/59/59 58/58/58
f 63/63/63 62/62/62 61/61/61
f 66/66/66 65/65/65 64/64/64
f 69/69/69 68/68/68 67/67/67
f 72/72/72 71/71/71 70/70/70
f 75/75/75 74/74/74 73/73/73
f 76/76/76 73/73/73 74/74/74
f 76/76/76 77/77/77 73/73/73
f 78/78/78 73/73/73 77/77/77
f 81/81/81 80/80/80 79/79/79
f 82/82/82 79/79/79 80/80/80
f 85/85/85 84/84/84 83/83/83
f 86/86/86 83/83/83 84/84/84
f 89/89/89 88/88/88 87/87/87
f 90/90/90 87/87/87 88/88/88
f 93/93/93 92/92/92 91/91/91
f 94/94/94 91/91/91 92/92/92
f 97/97/97 96/96/96 95/95/95
f 98/98/98 95/95/95 96/96/96
f 101/101/101 100/100/100 99/99/99
f 102/102/102 99/99/99 100/100/100
f 105/105/105 104/104/104 103/103/103
f 106/106/106 103/103/103 104/104/104
f 109/109/109 108/108/108 107/107/107
f 110/110/110 107/107/107 108/108/108
f 113/113/113 112/112/112 111/111/111
f 114/114/114 111/111/111 112/112/112
f 117/117/117 116/116/116 115/115/115
f 118/118/118 115/115/115 116/116/116
f 121/121/121 120/120/120 119/119/119
f 122/122/122 119/119/119 120/120/120
f 125/125/125 124/124/124 123/123/123
f 126/126/126 123/123/123 124/124/124
f 129/129/129 128/128/128 127/127/127
f 130/130/130 127/127/127 128/128/128
f 133/133/133 132/132/132 131/131/131
f 134/134/134 131/131/131 132/132/132
f 137/137/137 136/136/136 135/135/135
f 138/138/138 135/135/135 136/136/136
f 141/141/141 140/140/140 139/139/139
f 142/142/142 139/139/139 140/140/140
f 145/145/145 144/144/144 143/143/143
f 146/146/146 143/143/143 144/144/144
f 143/143/143 146/146/146 147/147/147
f 148/148/148 147/147/147 146/146/146
f 147/147/147 148/148/148 149/149/149
f 150/150/150 149/149/149 148/148/148
f 149/149/149 150/150/150 151/151/151
f 152/152/152 151/151/151 150/150/150
f 151/151/151 152/152/152 153/153/153
f 154/154/154 153/153/153 152/152/152
f 153/153/153 154/154/154 155/155/155
f 156/156/156 155/155/155 154/154/154
f 159/159/159 158/158/158 157/157/157
f 158/158/158 160/160/160 157/157/157
f 157/157/157 160/160/160 161/161/161
f 162/162/162 160/160/160 158/158/158
f 165/165/165 164/164/164 163/163/163
f 166/166/166 163/163/163 164/164/164
f 163/163/163 166/166/166 167/167/167
f 168/168/168 167/167/167 166/166/166
f 167/167/167 168/168/168 169/169/169
f 170/170/170 169/169/169 168/168/168
f 173/173/173 172/172/172 171/171/171
f 174/174/174 171/171/171 172/172/172
f 177/177/177 176/176/176 175/175/175
f 178/178/178 175/175/175 176/176/176
f 175/175/175 178/178/178 179/179/179
f 180/180/180 179/179/179 178/178/178
f 183/183/183 182/182/182 181/181/181
f 182/182/182 184/184/184 181/181/181
f 181/181/181 184/184/184 185/185/185
f 186/186/186 184/184/184 182/182/182
f 189/189/189 188/188/188 187/187/187
f 188/188/188 190/190/190 187/187/187
f 187/187/187 190/190/190 191/191/191
f 192/192/192 190/190/190 188/188/188
f 195/195/195 194/194/194 193/193/193
f 196/196/196 193/193/193 194/194/194
f 196/196/196 194/194/194 197/197/197
f 198/198/198 197/197/197 194/194/194
f 201/201/201 200/200/200 199/199/199
f 202/202/202 199/199/199 200/200/200
f 205/205/205 204/204/204 203/203/203
f 206/206/206 203/203/203 204/204/204
f 209/209/209 208/208/208 207/207/207
f 210/210/210 207/207/207 208/208/208
f 213/213/213 212/212/212 211/211/211
f 214/214/214 211/211/211 212/212/212
f 212/212/212 213/213/213 215/215/215
f 211/211/211 214/214/214 216/216/216
f 217/217/217 215/215/215 213/213/213
f 218/218/218 216/216/216 214/214/214
f 215/215/215 217/217/217 219/219/219
f 216/216/216 218/218/218 220/220/220
f 221/221/221 219/219/219 217/217/217
f 222/222/222 220/220/220 218/218/218
f 219/219/219 221/221/221 222/222/222
f 220/220/220 222/222/222 221/221/221
