g scp_we2_rocket_launcher_rear_cover
v 0.107967705 0.032015678 -0.14352827
v 0.13104156 0.13998337 -0.14352825
v 0.1526894 0.13998337 -0.14352825
v 0.13104156 0.13998337 -0.14352825
v 0.107967705 0.032015678 -0.14352827
v 0.09266037 0.04732301 -0.14352827
v 0.10796769 0.24795108 -0.14352824
v 1.8208025E-09 0.2710249 -0.14352809
v 1.8208025E-09 0.29267275 -0.14352807
v 1.8208025E-09 0.2710249 -0.14352809
v 0.10796769 0.24795108 -0.14352824
v 0.092660345 0.23264375 -0.14352824
v 1.8208025E-09 0.29267275 -0.14352807
v -0.092660345 0.23264375 -0.14352824
v -0.10796769 0.24795108 -0.14352824
v -0.092660345 0.23264375 -0.14352824
v 1.8208025E-09 0.29267275 -0.14352807
v 1.8208025E-09 0.2710249 -0.14352809
v -0.10796769 0.24795108 -0.14352824
v -0.13104156 0.1399834 -0.14352825
v -0.1526894 0.1399834 -0.14352825
v -0.13104156 0.1399834 -0.14352825
v -0.10796769 0.24795108 -0.14352824
v -0.092660345 0.23264375 -0.14352824
v -0.1526894 0.1399834 -0.14352825
v -0.09266037 0.04732301 -0.14352827
v -0.107967705 0.032015678 -0.14352827
v -0.09266037 0.04732301 -0.14352827
v -0.1526894 0.1399834 -0.14352825
v -0.13104156 0.1399834 -0.14352825
v -0.107967705 0.032015678 -0.14352827
v -5.9759535E-09 0.008941833 -0.14352827
v -6.674265E-09 -0.012706007 -0.14352828
v -5.9759535E-09 0.008941833 -0.14352827
v -0.107967705 0.032015678 -0.14352827
v -0.09266037 0.04732301 -0.14352827
v -6.674265E-09 -0.012706007 -0.14352828
v 0.09266037 0.04732301 -0.14352827
v 0.107967705 0.032015678 -0.14352827
v 0.09266037 0.04732301 -0.14352827
v -6.674265E-09 -0.012706007 -0.14352828
v -5.9759535E-09 0.008941833 -0.14352827
v 0.1079677 0.032015696 -0.18813062
v -0.1079677 0.032015696 -0.18813062
v -6.6742647E-09 -0.01270598 -0.18813078
v 0.10796766 0.24795106 -0.18813059
v 0.15268938 0.13998337 -0.1881306
v -0.10796766 0.2479511 -0.18813059
v -0.15268938 0.13998339 -0.1881306
v 1.8208024E-09 0.29267275 -0.18813059
v -0.02658133 -0.025876833 -0.17656553
v 0.02658133 -0.025876855 -0.15509291
v 0.02658133 -0.025876833 -0.17656553
v -0.02658133 -0.025876855 -0.15509291
v -0.02658133 0.0038065147 -0.17656553
v 0.02658133 0.0038065207 -0.15509291
v -0.02658133 0.0038065207 -0.15509291
v 0.02658133 0.0038065147 -0.17656553
v -0.02658133 -0.025876833 -0.17656553
v 0.02658133 0.0038065147 -0.17656553
v -0.02658133 0.0038065147 -0.17656553
v 0.02658133 -0.025876833 -0.17656553
v 0.02658133 -0.025876833 -0.17656553
v 0.02658133 0.0038065207 -0.15509291
v 0.02658133 0.0038065147 -0.17656553
v 0.02658133 -0.025876855 -0.15509291
v 0.02658133 -0.025876855 -0.15509291
v -0.02658133 0.0038065207 -0.15509291
v 0.02658133 0.0038065207 -0.15509291
v -0.02658133 -0.025876855 -0.15509291
v -0.02658133 -0.025876855 -0.15509291
v -0.02658133 0.0038065147 -0.17656553
v -0.02658133 0.0038065207 -0.15509291
v -0.02658133 -0.025876833 -0.17656553
v 0.092660345 0.23264375 -0.14352824
v -0.092660345 0.23264375 -0.14352824
v 1.8208025E-09 0.2710249 -0.14352809
v 0.09266037 0.04732301 -0.14352827
v 0.13104156 0.13998337 -0.14352825
v -0.09266037 0.04732301 -0.14352827
v -0.13104156 0.1399834 -0.14352825
v -5.9759535E-09 0.008941833 -0.14352827
v 0.1526894 0.13998337 -0.14352825
v 0.092660345 0.23264375 -0.14352824
v 0.10796769 0.24795108 -0.14352824
v 0.13104156 0.13998337 -0.14352825
v -0.019593753 -0.020182984 -3.2882257E-09
v 0.019591616 -0.020182995 -0.16792352
v -0.019593753 -0.020182995 -0.16792352
v 0.019591616 -0.020182984 -3.2882257E-09
v -0.019593753 -0.0062243543 -1.014076E-09
v 0.019591616 -0.006224374 -0.16792352
v 0.019591616 -0.0062243543 -1.014076E-09
v -0.019593753 -0.006224374 -0.16792352
v -0.019593753 -0.020182984 -3.2882257E-09
v 0.019591616 -0.0062243543 -1.014076E-09
v 0.019591616 -0.020182984 -3.2882257E-09
v -0.019593753 -0.0062243543 -1.014076E-09
v 0.019591616 -0.020182984 -3.2882257E-09
v 0.019591616 -0.006224374 -0.16792352
v 0.019591616 -0.020182995 -0.16792352
v 0.019591616 -0.0062243543 -1.014076E-09
v -0.019593753 -0.020182995 -0.16792352
v -0.019593753 -0.0062243543 -1.014076E-09
v -0.019593753 -0.020182984 -3.2882257E-09
v -0.019593753 -0.006224374 -0.16792352
v -0.107967705 0.032015678 -0.14352827
v -0.15268938 0.13998339 -0.1881306
v -0.1526894 0.1399834 -0.14352825
v -0.1079677 0.032015696 -0.18813062
v -0.10796766 0.2479511 -0.18813059
v -6.674265E-09 -0.012706007 -0.14352828
v -0.10796769 0.24795108 -0.14352824
v -6.6742647E-09 -0.01270598 -0.18813078
v 1.8208024E-09 0.29267275 -0.18813059
v 0.107967705 0.032015678 -0.14352827
v 1.8208025E-09 0.29267275 -0.14352807
v 0.1079677 0.032015696 -0.18813062
v 0.10796766 0.24795106 -0.18813059
v 0.1526894 0.13998337 -0.14352825
v 0.10796769 0.24795108 -0.14352824
v 0.15268938 0.13998337 -0.1881306
vt 0.40073302 0.7306644
vt 0.40069336 0.7311644
vt 0.40048483 0.7306644
vt 0.40069336 0.7311644
vt 0.40073302 0.7306644
vt 0.40088516 0.73097634
vt 0.40071645 0.73056185
vt 0.40023664 0.73096997
vt 0.40046826 0.73056185
vt 0.40023664 0.73096997
vt 0.40071645 0.73056185
vt 0.40042472 0.7311618
vt 0.40046826 0.73056185
vt 0.40023926 0.7307013
vt 0.40022007 0.73056185
vt 0.40023926 0.7307013
vt 0.40046826 0.73056185
vt 0.40023664 0.73096997
vt 0.40071645 0.7307295
vt 0.40043107 0.7305132
vt 0.40046826 0.7307295
vt 0.40043107 0.7305132
vt 0.40071645 0.7307295
vt 0.40023926 0.7307013
vt 0.40046826 0.7307295
vt 0.4006997 0.73051584
vt 0.40022007 0.7307295
vt 0.4006997 0.73051584
vt 0.40046826 0.7307295
vt 0.40043107 0.7305132
vt 0.40073302 0.73049664
vt 0.40088782 0.73070765
vt 0.40048483 0.73049664
vt 0.40088782 0.73070765
vt 0.40073302 0.73049664
vt 0.4006997 0.73051584
vt 0.40048483 0.73049664
vt 0.40088516 0.73097634
vt 0.40023664 0.73049664
vt 0.40088516 0.73097634
vt 0.40048483 0.73049664
vt 0.40088782 0.73070765
vt 0.40086862 0.73097634
vt 0.40040815 0.7311618
vt 0.4006768 0.7311644
vt 0.40068316 0.73051584
vt 0.40087125 0.73070765
vt 0.4002227 0.7307013
vt 0.40022007 0.73096997
vt 0.40041453 0.7305132
vt 0.982304 0.11781659
vt 0.9814611 0.11747615
vt 0.9814611 0.11781659
vt 0.982304 0.11747615
vt 0.9811998 0.118150845
vt 0.9820427 0.117810406
vt 0.9811998 0.117810406
vt 0.9820427 0.118150845
vt 0.9820427 0.11689043
vt 0.9811998 0.11736104
vt 0.9820427 0.11736104
vt 0.9811998 0.11689043
vt 0.9825669 0.114917845
vt 0.9820963 0.11457741
vt 0.9820963 0.114917845
vt 0.9825669 0.11457741
vt 0.9782234 0.118803054
vt 0.97906625 0.118332446
vt 0.9782234 0.118332446
vt 0.97906625 0.118803054
vt 0.9820963 0.11573393
vt 0.9825669 0.11607435
vt 0.9825669 0.11573393
vt 0.9820963 0.11607435
vt 0.60235906 0.44903117
vt 0.60347795 0.45180908
vt 0.6034938 0.4501884
vt 0.59958124 0.45015004
vt 0.6007384 0.4490153
vt 0.6007 0.45292795
vt 0.6023208 0.4529438
vt 0.59956527 0.45177072
vt 0.40048483 0.7306644
vt 0.40042472 0.7311618
vt 0.40023664 0.7306644
vt 0.40069336 0.7311644
vt 0.8809929 0.11181927
vt 0.87946445 0.11334775
vt 0.8809929 0.11334775
vt 0.87946445 0.11181927
vt 0.87946445 0.11181927
vt 0.8809929 0.11334775
vt 0.8809929 0.11181927
vt 0.87946445 0.11334775
vt 0.87946445 0.11181927
vt 0.8809929 0.11334775
vt 0.8809929 0.11181927
vt 0.87946445 0.11334775
vt 0.87946445 0.11181927
vt 0.8809929 0.11334775
vt 0.8809929 0.11181927
vt 0.87946445 0.11334775
vt 0.87946445 0.11181927
vt 0.8809929 0.11334775
vt 0.8809929 0.11181927
vt 0.87946445 0.11334775
vt 0.40073302 0.73049664
vt 0.40046826 0.73083204
vt 0.40046826 0.7307295
vt 0.40073302 0.7305992
vt 0.40071645 0.73083204
vt 0.40048483 0.73049664
vt 0.40071645 0.7307295
vt 0.40048483 0.7305992
vt 0.40046826 0.7306644
vt 0.40073302 0.7306644
vt 0.40046826 0.73056185
vt 0.40073302 0.7307669
vt 0.40071645 0.7306644
vt 0.40048483 0.7306644
vt 0.40071645 0.73056185
vt 0.40048483 0.7307669
vn -0 0 1
vn -0 0 1
vn -0 0 1
vn -0 0 1
vn -0 0 1
vn -0 0 1
vn 1.3191255E-06 -4.4054028E-07 1
vn 1.3191255E-06 -4.405403E-07 1
vn 1.3191255E-06 -4.4054028E-07 1
vn 1.1644237E-06 -1.1644246E-06 1
vn 1.1644237E-06 -1.1644245E-06 1
vn 1.1644237E-06 -1.1644245E-06 1
vn -1.0617938E-06 -1.0617944E-06 1
vn -1.0617937E-06 -1.0617944E-06 1
vn -1.0617937E-06 -1.0617944E-06 1
vn -1.4642663E-06 -4.4054028E-07 1
vn -1.4642663E-06 -4.405403E-07 1
vn -1.4642663E-06 -4.405403E-07 1
vn -0 -1.7665923E-07 1
vn -0 -1.7665923E-07 1
vn -0 -1.7665921E-07 1
vn -1.4555289E-07 -1.4555297E-07 1
vn -1.4555289E-07 -1.4555297E-07 1
vn -1.4555289E-07 -1.4555296E-07 1
vn -0 0 1
vn -0 0 1
vn -0 0 1
vn -0 -1.0292146E-07 1
vn -0 -1.0292146E-07 1
vn -0 -1.0292146E-07 1
vn -0 -4.4054016E-07 1
vn -0 -4.4054016E-07 1
vn -0 -4.4054016E-07 1
vn -0 0 1
vn -0 0 1
vn -0 0 1
vn -0 0 1
vn -0 0 1
vn -0 0 1
vn 1.8247769E-07 -4.4054022E-07 1
vn 1.8247766E-07 -4.4054022E-07 1
vn 1.8247769E-07 -4.4054022E-07 1
vn -0 7.158734E-07 -1
vn -0 7.158734E-07 -1
vn -0 3.4119448E-06 -1
vn -0 1.47216E-07 -1
vn -0 1.7665926E-07 -1
vn -0 1.4721596E-07 -1
vn -0 1.7665917E-07 -1
vn -0 0 -1
vn -0 -1 -9.993042E-07
vn -0 -1 -9.993042E-07
vn -0 -1 -9.993041E-07
vn -0 -1 -9.993041E-07
vn -0 1 -2.7758446E-07
vn -0 1 -2.7758446E-07
vn -0 1 -2.7758446E-07
vn -0 1 -2.7758446E-07
vn -0 0 -1
vn -0 0 -1
vn -0 0 -1
vn -0 0 -1
vn 1 0 0
vn 1 0 0
vn 1 0 0
vn 1 0 0
vn -0 0 1
vn -0 0 1
vn -0 0 1
vn -0 0 1
vn -1 0 0
vn -1 0 0
vn -1 0 0
vn -1 0 0
vn -0 -3.975592E-06 1
vn -0 -3.975592E-06 1
vn -0 -3.975592E-06 1
vn -0 0 1
vn 1.2423713E-07 -1.5438222E-07 1
vn -1.2423725E-07 -1.5438222E-07 1
vn -1.2423725E-07 -1.5438222E-07 1
vn -0 0 1
vn 1.2491684E-07 -1.2491692E-07 1
vn 1.2491684E-07 -1.2491691E-07 1
vn 1.2491684E-07 -1.2491692E-07 1
vn -0 -2.0584295E-07 1
vn -0 -1 0
vn -0 -1 0
vn -0 -1 0
vn -0 -1 0
vn -0 1 -1.17133865E-07
vn -0 1 -1.17133865E-07
vn -0 1 -1.17133865E-07
vn -0 1 -1.17133865E-07
vn -0 -1.6292071E-07 1
vn -0 -1.6292071E-07 1
vn -0 -1.629207E-07 1
vn -0 -1.629207E-07 1
vn 1 0 0
vn 1 0 0
vn 1 0 0
vn 1 0 0
vn -1 0 0
vn -1 0 0
vn -1 0 0
vn -1 0 0
vn -0.7071068 -0.70710677 -3.8751054E-07
vn -1 0 -2.4208308E-07
vn -1 1.7455564E-07 -2.3261066E-07
vn -0.7071066 -0.7071069 -4.3031244E-07
vn -0.70710653 0.707107 -1.3239769E-07
vn -0 -1 -5.734591E-07
vn -0.70710665 0.7071068 -1.6998504E-07
vn -0 -1 -5.734591E-07
vn 1.2321573E-07 1 0
vn 0.70710665 -0.7071069 -4.3031244E-07
vn -0 1 0
vn 0.70710665 -0.7071069 -3.977891E-07
vn 0.70710665 0.7071069 -6.754924E-07
vn 1 0 -2.3180456E-07
vn 0.7071065 0.70710707 -6.8577117E-07
vn 1 0 -2.8400336E-07
g scp_we2_rocket_launcher_rear_cover_0
f 3/3/3 2/2/2 1/1/1
f 6/6/6 5/5/5 4/4/4
f 9/9/9 8/8/8 7/7/7
f 12/12/12 11/11/11 10/10/10
f 15/15/15 14/14/14 13/13/13
f 18/18/18 17/17/17 16/16/16
f 21/21/21 20/20/20 19/19/19
f 24/24/24 23/23/23 22/22/22
f 27/27/27 26/26/26 25/25/25
f 30/30/30 29/29/29 28/28/28
f 33/33/33 32/32/32 31/31/31
f 36/36/36 35/35/35 34/34/34
f 39/39/39 38/38/38 37/37/37
f 42/42/42 41/41/41 40/40/40
f 45/45/45 44/44/44 43/43/43
f 44/44/44 46/46/46 43/43/43
f 43/43/43 46/46/46 47/47/47
f 48/48/48 46/46/46 44/44/44
f 49/49/49 48/48/48 44/44/44
f 50/50/50 46/46/46 48/48/48
f 53/53/53 52/52/52 51/51/51
f 54/54/54 51/51/51 52/52/52
f 57/57/57 56/56/56 55/55/55
f 58/58/58 55/55/55 56/56/56
f 61/61/61 60/60/60 59/59/59
f 62/62/62 59/59/59 60/60/60
f 65/65/65 64/64/64 63/63/63
f 66/66/66 63/63/63 64/64/64
f 69/69/69 68/68/68 67/67/67
f 70/70/70 67/67/67 68/68/68
f 73/73/73 72/72/72 71/71/71
f 74/74/74 71/71/71 72/72/72
f 77/77/77 76/76/76 75/75/75
f 76/76/76 78/78/78 75/75/75
f 75/75/75 78/78/78 79/79/79
f 80/80/80 78/78/78 76/76/76
f 81/81/81 80/80/80 76/76/76
f 82/82/82 78/78/78 80/80/80
f 85/85/85 84/84/84 83/83/83
f 86/86/86 83/83/83 84/84/84
f 89/89/89 88/88/88 87/87/87
f 90/90/90 87/87/87 88/88/88
f 93/93/93 92/92/92 91/91/91
f 94/94/94 91/91/91 92/92/92
f 97/97/97 96/96/96 95/95/95
f 98/98/98 95/95/95 96/96/96
f 101/101/101 100/100/100 99/99/99
f 102/102/102 99/99/99 100/100/100
f 105/105/105 104/104/104 103/103/103
f 106/106/106 103/103/103 104/104/104
f 109/109/109 108/108/108 107/107/107
f 110/110/110 107/107/107 108/108/108
f 108/108/108 109/109/109 111/111/111
f 107/107/107 110/110/110 112/112/112
f 113/113/113 111/111/111 109/109/109
f 114/114/114 112/112/112 110/110/110
f 111/111/111 113/113/113 115/115/115
f 112/112/112 114/114/114 116/116/116
f 117/117/117 115/115/115 113/113/113
f 118/118/118 116/116/116 114/114/114
f 115/115/115 117/117/117 119/119/119
f 116/116/116 118/118/118 120/120/120
f 121/121/121 119/119/119 117/117/117
f 122/122/122 120/120/120 118/118/118
f 119/119/119 121/121/121 122/122/122
f 120/120/120 122/122/122 121/121/121
