g scp_we2_exp_c4_detonator_knob
v 0.018927513 -0.046688583 0.028276721
v 0.018927498 -0.23100133 -0.028276764
v 0.018927498 -0.23100135 0.028276626
v 0.018927498 -0.23100133 -0.028276764
v 0.018927513 -0.046688583 0.028276721
v 0.018927513 -0.046688557 -0.028276661
v -0.018620154 -0.046688557 0.02827672
v -0.018620167 0.010446759 -0.028276635
v -0.018620167 0.010446776 0.028276749
v -0.018620167 0.010446759 -0.028276635
v -0.018620154 -0.046688557 0.02827672
v -0.018620154 -0.046688564 -0.028276661
v 0.00015367224 0.010446766 0.028276749
v 0.018927526 0.010446797 -0.028276635
v 0.018927526 0.010446766 0.028276749
v 0.018927526 0.010446797 -0.028276635
v 0.00015367224 0.010446766 0.028276749
v 0.00015367224 0.010446769 -0.028276635
v 0.018927526 0.010446766 0.028276749
v 0.018927513 -0.046688557 -0.028276661
v 0.018927513 -0.046688583 0.028276721
v 0.018927513 -0.046688557 -0.028276661
v 0.018927526 0.010446766 0.028276749
v 0.018927526 0.010446797 -0.028276635
v -0.018620167 0.010446776 0.028276749
v 0.00015367224 0.010446769 -0.028276635
v 0.00015367224 0.010446766 0.028276749
v 0.00015367224 0.010446769 -0.028276635
v -0.018620167 0.010446776 0.028276749
v -0.018620167 0.010446759 -0.028276635
v -0.015573071 -0.15346101 -0.013517189
v -0.020665528 -0.21521838 0.013517145
v -0.020665528 -0.21521835 -0.013517241
v -0.020665528 -0.21521838 0.013517145
v -0.015573071 -0.15346101 -0.013517189
v -0.015573071 -0.15346101 0.013517193
v 0.0001536588 -0.23100133 -0.028276764
v 0.0001536588 -0.2207281 0.013517143
v 0.0001536588 -0.23100135 0.028276626
v 0.0001536588 -0.2207281 0.013517143
v 0.0001536588 -0.23100133 -0.028276764
v 0.0001536588 -0.22072807 -0.013517242
v 0.018927513 -0.046688557 -0.028276661
v 0.0001536588 -0.23100133 -0.028276764
v 0.018927498 -0.23100133 -0.028276764
v 0.0001536588 -0.046688557 -0.028276661
v 0.018927526 0.010446797 -0.028276635
v 0.00015367224 0.010446769 -0.028276635
v -0.018620167 0.010446759 -0.028276635
v -0.018620154 -0.046688564 -0.028276661
v 0.0001536588 -0.23100135 0.028276626
v 0.018927513 -0.046688583 0.028276721
v 0.018927498 -0.23100135 0.028276626
v 0.0001536588 -0.046688564 0.028276721
v 0.018927526 0.010446766 0.028276749
v 0.00015367224 0.010446766 0.028276749
v -0.018620167 0.010446776 0.028276749
v -0.018620154 -0.046688557 0.02827672
v 0.0001536588 -0.23100133 -0.028276764
v 0.018927498 -0.23100135 0.028276626
v 0.018927498 -0.23100133 -0.028276764
v 0.0001536588 -0.23100135 0.028276626
v -0.018620154 -0.046688564 -0.028276661
v 0.0001536588 -0.046688564 0.028276721
v 0.0001536588 -0.046688557 -0.028276661
v -0.018620154 -0.046688557 0.02827672
v 0.0001536588 -0.046688557 -0.028276661
v 0.0001536588 -0.22072807 -0.013517242
v 0.0001536588 -0.23100133 -0.028276764
v 0.0001536588 -0.14500564 -0.013517185
v 0.0001536588 -0.23100135 0.028276626
v 0.0001536588 -0.14500564 0.013517196
v 0.0001536588 -0.046688564 0.028276721
v 0.0001536588 -0.2207281 0.013517143
v 0.0001536588 -0.046688564 0.028276721
v 0.0001536588 -0.14500564 -0.013517185
v 0.0001536588 -0.046688557 -0.028276661
v 0.0001536588 -0.14500564 0.013517196
v 0.0001536588 -0.14500564 -0.013517185
v -0.020665528 -0.21521835 -0.013517241
v 0.0001536588 -0.22072807 -0.013517242
v -0.015573071 -0.15346101 -0.013517189
v 0.0001536588 -0.22072807 -0.013517242
v -0.020665528 -0.21521838 0.013517145
v 0.0001536588 -0.2207281 0.013517143
v -0.020665528 -0.21521835 -0.013517241
v 0.0001536588 -0.2207281 0.013517143
v -0.015573071 -0.15346101 0.013517193
v 0.0001536588 -0.14500564 0.013517196
v -0.020665528 -0.21521838 0.013517145
v 0.0001536588 -0.14500564 0.013517196
v -0.015573071 -0.15346101 -0.013517189
v 0.0001536588 -0.14500564 -0.013517185
v -0.015573071 -0.15346101 0.013517193
vt 0.41228667 0.4394014
vt 0.41107938 0.44066718
vt 0.41107938 0.4381552
vt 0.41107938 0.44066718
vt 0.41228667 0.4394014
vt 0.41049564 0.4392002
vt 0.4125496 0.43968698
vt 0.4109678 0.4381552
vt 0.41255566 0.43968698
vt 0.4109678 0.4381552
vt 0.4125496 0.43968698
vt 0.4109886 0.4381552
vt 0.41255578 0.4400628
vt 0.4109678 0.44066718
vt 0.4125559 0.44043857
vt 0.4109678 0.44066718
vt 0.41255578 0.4400628
vt 0.4109678 0.4394112
vt 0.41256335 0.43968698
vt 0.41049564 0.4392002
vt 0.41228667 0.4394014
vt 0.41049564 0.4392002
vt 0.41256335 0.43968698
vt 0.41036186 0.43886402
vt 0.41255566 0.43968698
vt 0.4109678 0.4394112
vt 0.41255578 0.4400628
vt 0.4109678 0.4394112
vt 0.41255566 0.43968698
vt 0.4109678 0.4381552
vt 0.4109886 0.44066718
vt 0.4125498 0.44043857
vt 0.4125496 0.43968698
vt 0.4125498 0.44043857
vt 0.4109886 0.44066718
vt 0.41049564 0.4392002
vt 0.41036186 0.44018778
vt 0.4125498 0.44043857
vt 0.41304296 0.44018778
vt 0.4125498 0.44043857
vt 0.41036186 0.44018778
vt 0.4125496 0.43968698
vt 0.4109886 0.44066718
vt 0.41107938 0.4394112
vt 0.41107938 0.44066718
vt 0.4109886 0.4394112
vt 0.4109678 0.44066718
vt 0.4109678 0.4394112
vt 0.4109678 0.4381552
vt 0.4109886 0.4381552
vt 0.41252318 0.4400628
vt 0.4125498 0.44043857
vt 0.41252318 0.44043857
vt 0.4125497 0.4400628
vt 0.4125559 0.44043857
vt 0.41255578 0.4400628
vt 0.41255566 0.43968698
vt 0.4125496 0.43968698
vt 0.41036186 0.44018778
vt 0.41304296 0.44151154
vt 0.41036186 0.44151154
vt 0.41304296 0.44018778
vt 0.41304296 0.44151154
vt 0.41049564 0.4392002
vt 0.4109886 0.44066718
vt 0.4125559 0.44043857
vt 0.4109886 0.4394112
vt 0.4125496 0.43968698
vt 0.41107938 0.4394112
vt 0.4109886 0.44066718
vt 0.41252318 0.4400628
vt 0.41049564 0.4392002
vt 0.4125497 0.4400628
vt 0.4125498 0.44043857
vt 0.41049564 0.4392002
vt 0.4109886 0.44066718
vt 0.4109886 0.44066718
vt 0.41049564 0.4392002
vt 0.4109886 0.44066718
vt 0.4125496 0.43968698
vt 0.4125496 0.43968698
vt 0.4109886 0.44066718
vt 0.4125496 0.43968698
vt 0.4125498 0.44043857
vt 0.4125498 0.44043857
vt 0.4125496 0.43968698
vt 0.4125498 0.44043857
vt 0.41049564 0.4392002
vt 0.41049564 0.4392002
vt 0.4125498 0.44043857
vt 0.41049564 0.4392002
vt 0.4109886 0.44066718
vt 0.4109886 0.44066718
vt 0.41049564 0.4392002
vn 1 0 0
vn 1 0 0
vn 1 0 0
vn 1 0 0
vn 1 0 0
vn 1 0 0
vn -1 -2.2950809E-07 0
vn -1 -2.2950809E-07 0
vn -1 -2.2950809E-07 0
vn -1 -2.2950815E-07 0
vn -1 -2.2950817E-07 0
vn -1 -2.2950815E-07 0
vn -0 1 5.480559E-07
vn -0 1 5.480559E-07
vn -0 1 5.480559E-07
vn -1.5239401E-06 1 0
vn -1.5239401E-06 1 0
vn -1.5239401E-06 1 0
vn 1 -2.2950805E-07 0
vn 1 -2.2950805E-07 0
vn 1 -2.2950805E-07 0
vn 1 -2.2950805E-07 0
vn 1 -2.2950805E-07 0
vn 1 -2.2950805E-07 0
vn 5.079804E-07 1 0
vn 5.079804E-07 1 0
vn 5.079804E-07 1 0
vn -5.079804E-07 1 -2.9510704E-07
vn -5.079804E-07 1 -2.9510701E-07
vn -5.079804E-07 1 -2.9510701E-07
vn -0.9966175 0.082180195 0
vn -0.9966175 0.08218022 0
vn -0.9966175 0.08218023 1.1596072E-07
vn -0.9966175 0.08218022 0
vn -0.9966175 0.082180195 0
vn -0.9966175 0.08218018 0
vn -1 0 0
vn -1 0 0
vn -1 0 0
vn -1 0 0
vn -1 0 0
vn -1 0 0
vn -0 5.562283E-07 -1
vn -0 5.562283E-07 -1
vn -0 5.562283E-07 -1
vn -0 5.562283E-07 -1
vn -0 4.590161E-07 -1
vn -0 4.590163E-07 -1
vn -0 4.5901626E-07 -1
vn -0 4.590163E-07 -1
vn -0 -5.1742165E-07 1
vn -0 -5.1742165E-07 1
vn -0 -5.1742165E-07 1
vn -0 -5.174217E-07 1
vn -0 -4.5901618E-07 1
vn -0 -4.5901618E-07 1
vn -1.2699554E-07 -5.00745E-07 1
vn -1.2699554E-07 -5.00745E-07 1
vn -0 -1 -3.372651E-07
vn -0 -1 -3.372651E-07
vn -0 -1 -3.372651E-07
vn -0 -1 -3.372651E-07
vn 3.006749E-07 -1 0
vn -3.006749E-07 -1 0
vn 5.0798116E-07 -1 -1.6863261E-07
vn -5.0798116E-07 -1 1.6863258E-07
vn -1 0 0
vn -1 0 0
vn -1 0 0
vn -1 0 0
vn -1 0 0
vn -1 0 0
vn -1 0 0
vn -1 0 0
vn -1 0 0
vn -1 0 0
vn -1 0 0
vn -1 0 0
vn 1.4272342E-07 7.5566066E-07 -1
vn 1.4272342E-07 7.5566066E-07 -1
vn 1.4272342E-07 7.5566066E-07 -1
vn -2.3986715E-07 8.691048E-07 -1
vn -0.2558387 -0.9667195 -1.3640932E-06
vn -0.2558387 -0.9667195 -1.3640932E-06
vn -0.25583866 -0.9667195 -1.3640931E-06
vn -0.25583866 -0.9667195 -1.3640931E-06
vn 1.4501813E-07 -6.926887E-07 1
vn 1.4501813E-07 -6.926886E-07 1
vn 1.4501813E-07 -6.926886E-07 1
vn -1.4393662E-07 -7.6024486E-07 1
vn -0.47354105 0.8807717 0
vn -0.47354105 0.8807717 0
vn -0.47354105 0.8807717 0
vn -0.47354105 0.8807717 0
g scp_we2_exp_c4_detonator_knob_0
f 3/3/3 2/2/2 1/1/1
f 6/6/6 5/5/5 4/4/4
f 9/9/9 8/8/8 7/7/7
f 12/12/12 11/11/11 10/10/10
f 15/15/15 14/14/14 13/13/13
f 18/18/18 17/17/17 16/16/16
f 21/21/21 20/20/20 19/19/19
f 24/24/24 23/23/23 22/22/22
f 27/27/27 26/26/26 25/25/25
f 30/30/30 29/29/29 28/28/28
f 33/33/33 32/32/32 31/31/31
f 36/36/36 35/35/35 34/34/34
f 39/39/39 38/38/38 37/37/37
f 42/42/42 41/41/41 40/40/40
f 45/45/45 44/44/44 43/43/43
f 46/46/46 43/43/43 44/44/44
f 43/43/43 46/46/46 47/47/47
f 48/48/48 47/47/47 46/46/46
f 48/48/48 46/46/46 49/49/49
f 50/50/50 49/49/49 46/46/46
f 53/53/53 52/52/52 51/51/51
f 54/54/54 51/51/51 52/52/52
f 52/52/52 55/55/55 54/54/54
f 56/56/56 54/54/54 55/55/55
f 56/56/56 57/57/57 54/54/54
f 58/58/58 54/54/54 57/57/57
f 61/61/61 60/60/60 59/59/59
f 62/62/62 59/59/59 60/60/60
f 65/65/65 64/64/64 63/63/63
f 66/66/66 63/63/63 64/64/64
f 69/69/69 68/68/68 67/67/67
f 70/70/70 67/67/67 68/68/68
f 73/73/73 72/72/72 71/71/71
f 74/74/74 71/71/71 72/72/72
f 77/77/77 76/76/76 75/75/75
f 78/78/78 75/75/75 76/76/76
f 81/81/81 80/80/80 79/79/79
f 82/82/82 79/79/79 80/80/80
f 85/85/85 84/84/84 83/83/83
f 86/86/86 83/83/83 84/84/84
f 89/89/89 88/88/88 87/87/87
f 90/90/90 87/87/87 88/88/88
f 93/93/93 92/92/92 91/91/91
f 94/94/94 91/91/91 92/92/92
