g scp_cy_gravel_pile
v 0.9934707 3.8146972E-08 1.1859602
v 1.6889806 7.6293944E-08 0.20442851
v 1.5799528 3.8146972E-08 0.83295184
v 0.679727 0.5471936 0.77971727
v 1.4881386 1.14440915E-07 -0.6099953
v 0.25809413 -8.810617E-17 1.4388831
v 0.6511582 0.9370982 0.0761955
v 1.4215852 1.14440915E-07 -1.0396261
v -0.15690003 0.6667331 0.7950552
v -0.54343927 -1.0549766E-16 1.7229075
v 0.67996055 0.48779413 -0.88611114
v 0.93865746 1.5258789E-07 -1.5363308
v 0.24665023 1.5258789E-07 -1.722905
v -0.90864253 0.6380066 0.73522663
v -1.0642154 -9.404653E-17 1.5358964
v -1.4415741 3.8146972E-08 1.0352936
v -0.12096449 1.2007416 0.108296104
v -0.026617117 0.6543974 -0.8419419
v -0.5304375 1.5258789E-07 -1.6144437
v -0.81429553 1.1081556 -0.21500948
v -1.6623092 1.14440915E-07 0.25073475
v -0.77835965 0.6286118 -0.9017705
v -1.1219934 1.5258789E-07 -1.5582358
v -1.6889753 7.6293944E-08 -0.3260352
v -1.6174711 1.14440915E-07 -1.1602519
vt 0.02071783 0.7511878
vt 0.021425962 0.7518959
vt 0.021425962 0.7511878
vt 0.02071783 0.7518959
vt 0.021425962 0.752604
vt 0.020009726 0.7511878
vt 0.02071783 0.752604
vt 0.021425962 0.7533121
vt 0.020009726 0.7518959
vt 0.019301593 0.7511878
vt 0.02071783 0.7533121
vt 0.021425962 0.7540202
vt 0.02071783 0.7540202
vt 0.019301593 0.7518959
vt 0.01859346 0.7511878
vt 0.01859346 0.7518959
vt 0.020009726 0.752604
vt 0.020009726 0.7533121
vt 0.020009726 0.7540202
vt 0.019301593 0.752604
vt 0.01859346 0.752604
vt 0.019301593 0.7533121
vt 0.019301593 0.7540202
vt 0.01859346 0.7533121
vt 0.01859346 0.7540202
vn 0.39388937 0.755063 0.5241479
vn 0.4188205 0.9077024 0.025800224
vn -0 1 0
vn 0.3922823 0.7763317 0.49337983
vn 0.6642512 0.7455838 -0.053620297
vn 0.1989718 0.7193779 0.66551155
vn 0.5054364 0.85853726 0.086299784
vn 0.54350644 0.7819834 -0.30512732
vn 0.065504305 0.79553074 0.6023621
vn -0.014725762 0.7946868 0.6068411
vn 0.30552134 0.8340023 -0.45945275
vn 0.2828018 0.81789565 -0.50106853
vn 0.050434437 0.81026405 -0.5838909
vn -0.4050836 0.7944094 0.45257148
vn -0.35530594 0.7634689 0.53932637
vn -0.6497372 0.681025 0.3377077
vn 0.095079884 0.9879931 0.12177604
vn 0.08933244 0.8275903 -0.5541787
vn -0.05180635 0.76131606 -0.64630806
vn -0.43632314 0.8821273 -0.17740817
vn -0.7257806 0.68542594 0.058598857
vn -0.34229377 0.7783286 -0.52634543
vn -0.31089956 0.8309481 -0.46137482
vn -0.5388126 0.84029603 -0.059864085
vn -0 1 0
g scp_cy_gravel_pile_0
f 3/3/3 2/2/2 1/1/1
f 4/4/4 1/1/1 2/2/2
f 2/2/2 5/5/5 4/4/4
f 1/1/1 4/4/4 6/6/6
f 7/7/7 4/4/4 5/5/5
f 5/5/5 8/8/8 7/7/7
f 9/9/9 6/6/6 4/4/4
f 4/4/4 7/7/7 9/9/9
f 6/6/6 9/9/9 10/10/10
f 11/11/11 7/7/7 8/8/8
f 8/8/8 12/12/12 11/11/11
f 13/13/13 11/11/11 12/12/12
f 14/14/14 10/10/10 9/9/9
f 10/10/10 14/14/14 15/15/15
f 16/16/16 15/15/15 14/14/14
f 17/17/17 9/9/9 7/7/7
f 7/7/7 11/11/11 17/17/17
f 9/9/9 17/17/17 14/14/14
f 11/11/11 13/13/13 18/18/18
f 18/18/18 17/17/17 11/11/11
f 19/19/19 18/18/18 13/13/13
f 14/14/14 20/20/20 16/16/16
f 20/20/20 14/14/14 17/17/17
f 17/17/17 18/18/18 20/20/20
f 21/21/21 16/16/16 20/20/20
f 18/18/18 19/19/19 22/22/22
f 22/22/22 20/20/20 18/18/18
f 20/20/20 22/22/22 21/21/21
f 23/23/23 22/22/22 19/19/19
f 24/24/24 21/21/21 22/22/22
f 22/22/22 23/23/23 24/24/24
f 25/25/25 24/24/24 23/23/23
