g scp_we2_crossbow_bolt_01_trigger
v -0.01324752 -0.06433385 0.022773001
v -0.013247518 0.012065147 0.0058186804
v -0.013247516 0.012065143 0.027246961
v -0.01324752 -0.06433385 0.010025639
v 0.013246942 0.012065147 0.005818672
v 0.013246959 -0.06433385 0.022773046
v 0.01324696 0.012065143 0.027247006
v 0.013246959 -0.06433385 0.010025652
v 0.013246942 0.012065147 0.005818672
v -0.01324752 -0.06433385 0.010025639
v 0.013246959 -0.06433385 0.010025652
v -0.013247518 0.012065147 0.0058186804
v 0.013246959 -0.06433385 0.010025652
v -0.01324752 -0.06433385 0.022773001
v 0.013246959 -0.06433385 0.022773046
v -0.01324752 -0.06433385 0.010025639
v 0.013246959 -0.06433385 0.022773046
v -0.013247516 0.012065143 0.027246961
v 0.01324696 0.012065143 0.027247006
v -0.01324752 -0.06433385 0.022773001
vt 0.055248022 0.10604912
vt 0.055245876 0.10604864
vt 0.055246055 0.10604918
vt 0.055247962 0.10604876
vt 0.055248022 0.106051564
vt 0.055245876 0.10605192
vt 0.055247903 0.1060521
vt 0.055245996 0.106051624
vt 0.055247366 0.10605508
vt 0.0552454 0.106054485
vt 0.0552454 0.10605508
vt 0.055247366 0.106054485
vt 0.05524856 0.10605043
vt 0.055249214 0.10605013
vt 0.05524856 0.10605013
vt 0.055249214 0.10605043
vt 0.055245996 0.106053054
vt 0.055247962 0.10605365
vt 0.055247962 0.106053054
vt 0.055245996 0.10605365
vn -1 0 1.11263525E-07
vn -1 0 1.1126353E-07
vn -1 0 1.1126353E-07
vn -1 0 0
vn 1 0 -8.3447435E-07
vn 1 0 -8.344743E-07
vn 1 0 -8.344743E-07
vn 1 2.1844922E-07 0
vn 4.9418543E-07 -0.054982617 -0.99848735
vn 4.941855E-07 -0.05498262 -0.99848735
vn 4.9418543E-07 -0.054982617 -0.99848735
vn -3.1448184E-07 -0.05498233 -0.99848735
vn -0 -1 -3.7406642E-07
vn -0 -1 -3.7406642E-07
vn -0 -1 -3.7406636E-07
vn -0 -1 -3.7406735E-07
vn -1.7068484E-06 -0.05846031 0.99828976
vn -1.7068486E-06 -0.05846031 0.99828976
vn -1.7068485E-06 -0.058460318 0.99828976
vn -1.7068481E-06 -0.05846031 0.99828976
g scp_we2_crossbow_bolt_01_trigger_0
f 3/3/3 2/2/2 1/1/1
f 4/4/4 1/1/1 2/2/2
f 7/7/7 6/6/6 5/5/5
f 8/8/8 5/5/5 6/6/6
f 11/11/11 10/10/10 9/9/9
f 12/12/12 9/9/9 10/10/10
f 15/15/15 14/14/14 13/13/13
f 16/16/16 13/13/13 14/14/14
f 19/19/19 18/18/18 17/17/17
f 20/20/20 17/17/17 18/18/18
