g SectionBridge_Right
v 8.109901 -4.1503124 -8.904491
v 8.109901 -1.66893E-06 -8.904488
v 6.6254544 -1.66893E-06 -11.475626
v 6.6254544 -4.1503124 -11.475626
v 8.109901 -1.66893E-06 -8.904488
v 8.109901 -4.1503124 -8.904491
v 3.0057387 -4.1503124 -0.06382036
v 3.0057397 -1.66893E-06 -0.063819885
v 6.225721 -1.66893E-06 5.537528
v 3.0057397 -1.66893E-06 -0.063819885
v 3.0057387 -4.1503124 -0.06382036
v 6.225721 -4.1503124 5.537528
v 16.448008 -4.1503124 5.537529
v 16.448008 -1.66893E-06 5.537529
v 6.225721 -1.66893E-06 5.537528
v 6.225721 -4.1503124 5.537528
v 16.448008 -1.66893E-06 5.537529
v 16.448008 -4.1503124 5.537529
v 17.602709 -4.1503124 7.5375257
v 17.602709 -1.66893E-06 7.5375257
v -0 -4.1503153 0
v 0.82071686 -4.1503153 0.41817617
v 0.9067273 -4.1503153 -1.5704961
v 2.7675562 -4.1503153 2.365016
v 4.0175033 -4.1503153 4.818177
v 6.1652455 -4.1503153 7.5375266
v 4.4482064 -4.1503153 7.5375266
v 0.9067273 -4.1503153 -1.5704961
v 0.9067273 -2.6226044E-06 -1.5704961
v -0 -7.1525574E-07 0
v -0 -4.1503153 0
v 4.4482064 -4.1503153 7.5375266
v 4.4482064 -7.1525574E-07 7.5375266
v 6.1652455 -2.6226044E-06 7.5375266
v 6.1652455 -4.1503153 7.5375266
v 4.0175033 -4.1503153 4.818177
v 4.4482064 -7.1525574E-07 7.5375266
v 4.4482064 -4.1503153 7.5375266
v 4.0175033 -2.6226044E-06 4.818177
v 2.7675562 -4.1503153 2.365016
v 2.7675562 -2.6226044E-06 2.365016
v 0.82071686 -4.1503153 0.41817617
v 0.82071686 -2.6226044E-06 0.41817617
v -0 -4.1503153 0
v -0 -7.1525574E-07 0
v 0.82071686 -2.6226044E-06 0.41817617
v 0.82071686 -4.1503153 0.41817617
v 1.5212932 -1.66893E-06 -2.634955
v 6.6254544 -1.66893E-06 -11.475626
v 8.109901 -1.66893E-06 -8.904488
v 3.0057397 -1.66893E-06 -0.063819885
v 0.9067278 -1.66893E-06 -1.5704961
v 6.225721 -1.66893E-06 5.537528
v 6.1652513 -1.66893E-06 7.537527
v 7.38042 -1.66893E-06 7.537527
v 17.602709 -1.66893E-06 7.5375257
v 16.448008 -1.66893E-06 5.537529
v 3.0057387 -4.1503124 -0.06382036
v 8.109901 -4.1503124 -8.904491
v 6.6254544 -4.1503124 -11.475626
v 1.5212932 -4.1503124 -2.634955
v 0.9067278 -4.1503134 -1.5704961
v 6.225721 -4.1503124 5.537528
v 6.1652513 -4.1503134 7.537527
v 7.38042 -4.1503124 7.537527
v 16.448008 -4.1503124 5.537529
v 17.602709 -4.1503124 7.5375257
v 7.38042 -1.66893E-06 7.537527
v 17.602709 -1.66893E-06 7.5375257
v 17.602709 -4.1503124 7.5375257
v 7.38042 -4.1503124 7.537527
v 6.1652513 -1.66893E-06 7.537527
v 6.1652513 -4.1503134 7.537527
v 1.5212932 -4.1503124 -2.634955
v 6.6254544 -4.1503124 -11.475626
v 6.6254544 -1.66893E-06 -11.475626
v 1.5212932 -1.66893E-06 -2.634955
v 0.9067278 -4.1503134 -1.5704961
v 0.9067278 -1.66893E-06 -1.5704961
v -0 -7.1525574E-07 0
v 0.9067273 -2.6226044E-06 -1.5704961
v 0.82071686 -2.6226044E-06 0.41817617
v 2.7675562 -2.6226044E-06 2.365016
v 4.0175033 -2.6226044E-06 4.818177
v 6.1652455 -2.6226044E-06 7.5375266
v 4.4482064 -7.1525574E-07 7.5375266
vt 0.1409396 0.44186252
vt 0.14218515 0.44186252
vt 0.14218515 0.44109088
vt 0.1409396 0.44109088
vt 0.14218515 0.44186252
vt 0.1409396 0.44186252
vt 0.1409396 0.4445157
vt 0.14218515 0.4445157
vt 0.14218515 0.44619673
vt 0.14218515 0.4445157
vt 0.1409396 0.4445157
vt 0.1409396 0.44619673
vt 0.13959774 0.44143742
vt 0.13835219 0.44143742
vt 0.13835219 0.44450527
vt 0.13959774 0.44450527
vt 0.13835219 0.44143742
vt 0.13959774 0.44143742
vt 0.13959774 0.44109088
vt 0.13835219 0.44109088
vt 0.1467197 0.4515861
vt 0.14707506 0.45147684
vt 0.14697 0.45273742
vt 0.14842811 0.44985244
vt 0.14938241 0.4480541
vt 0.15082487 0.44606063
vt 0.14995846 0.44606063
vt 0.14697 0.45273742
vt 0.14532292 0.45198873
vt 0.14507255 0.45083746
vt 0.1467197 0.4515861
vt 0.14995846 0.44606063
vt 0.14831135 0.44531193
vt 0.14917773 0.44531193
vt 0.15082487 0.44606063
vt 0.14938241 0.4480541
vt 0.14831135 0.44531193
vt 0.14995846 0.44606063
vt 0.14773533 0.4473054
vt 0.14842811 0.44985244
vt 0.146781 0.44910374
vt 0.14707506 0.45147684
vt 0.14542797 0.45072815
vt 0.1467197 0.4515861
vt 0.14507255 0.45083746
vt 0.14542797 0.45072815
vt 0.14707506 0.45147684
vt -14.343356 -7.665343
vt -11.94086 -3.5041647
vt -11.24219 -4.7143416
vt -13.644685 -8.875563
vt -14.632592 -8.166365
vt -12.12905 -11.512001
vt -12.1575575 -12.453367
vt -11.58554 -12.453367
vt -6.7740088 -12.453367
vt -7.3175077 -11.512001
vt 16.998058 -8.499626
vt 19.400448 -12.660803
vt 18.701778 -13.870981
vt 16.299282 -9.709801
vt 16.010052 -9.208784
vt 18.51369 -5.8630986
vt 18.485184 -4.92173
vt 19.057209 -4.92173
vt 23.32513 -5.8630986
vt 23.86863 -4.92173
vt 24.21967 -0.07378739
vt 24.21967 -4.885321
vt 22.26616 -4.885321
vt 22.26616 -0.07378739
vt 24.21967 0.49813822
vt 22.26616 0.49813822
vt 23.974094 -9.082909
vt 23.974094 -4.92173
vt 25.927586 -4.92173
vt 25.927586 -9.082909
vt 23.974094 -9.583973
vt 25.927586 -9.583973
vt -9.816035 -3.9290266
vt -9.423324 -2.123367
vt -9.258594 -4.100427
vt -7.13655 -6.6481023
vt -5.6398115 -9.468601
vt -3.3775396 -12.595068
vt -4.736388 -12.595068
vn 0.86602545 0 -0.50000006
vn 0.8660253 0 -0.5000001
vn 0.8660253 0 -0.5000001
vn 0.8660253 0 -0.5000001
vn 0.86602545 0 0.5
vn 0.86602545 0 0.5
vn 0.86602545 0 0.5
vn 0.86602545 0 0.5
vn 0.8669593 0 -0.49837884
vn 0.8669594 0 -0.49837887
vn 0.8669594 0 -0.49837887
vn 0.8669593 0 -0.49837884
vn -0 0 -1
vn -0 0 -1
vn -0 0 -1
vn -0 0 -1
vn 0.8660249 0 -0.50000083
vn 0.8660249 0 -0.5000009
vn 0.8660249 0 -0.5000009
vn 0.8660249 0 -0.5000009
vn -0 -1 0
vn -0 -1 0
vn -0 -1 0
vn -0 -1 0
vn -0 -1 0
vn -0 -1 0
vn -0 -1 0
vn -0.8660251 0 -0.50000054
vn -0.86602515 0 -0.50000054
vn -0.8660251 0 -0.50000054
vn -0.8660251 0 -0.50000054
vn -0 0 1
vn -0 0 1
vn -0 0 1
vn -0 0 1
vn -0.95105654 0 0.30901688
vn -0.98768836 0 0.15643464
vn -0.98768836 0 0.15643463
vn -0.95105654 0 0.30901688
vn -0.8090171 0 0.5877851
vn -0.8090171 0 0.5877851
vn -0.6496545 0 0.7602296
vn -0.64965445 0 0.7602296
vn -0.4539908 0 0.8910064
vn -0.45399073 0 0.8910064
vn -0.64965445 0 0.7602296
vn -0.6496545 0 0.7602296
vn -0 1 0
vn -0 1 0
vn -0 1 0
vn -0 1 0
vn -0 1 0
vn -0 1 0
vn -0 1 0
vn -0 1 0
vn -0 1 0
vn -0 1 0
vn -0 -1 0
vn -0 -1 0
vn -0 -1 0
vn -0 -1 0
vn -0 -1 0
vn -0 -1 0
vn -0 -1 0
vn -0 -1 0
vn -0 -1 0
vn -0 -1 0
vn -0 0 1
vn -0 0 1
vn -0 0 1
vn -0 0 1
vn -0 0 1
vn -0 0 1
vn -0.8660256 0 -0.49999976
vn -0.8660256 0 -0.49999976
vn -0.8660256 0 -0.49999976
vn -0.8660256 0 -0.49999976
vn -0.86602527 0 -0.5000002
vn -0.86602527 0 -0.50000024
vn -0 1 0
vn -0 1 0
vn -0 1 0
vn -0 1 0
vn -0 1 0
vn -0 1 0
vn -0 1 0
g SectionBridge_Right_0
f 3/3/3 2/2/2 1/1/1
f 4/4/4 3/3/3 1/1/1
f 7/7/7 6/6/6 5/5/5
f 8/8/8 7/7/7 5/5/5
f 11/11/11 10/10/10 9/9/9
f 12/12/12 11/11/11 9/9/9
f 15/15/15 14/14/14 13/13/13
f 16/16/16 15/15/15 13/13/13
f 19/19/19 18/18/18 17/17/17
f 20/20/20 19/19/19 17/17/17
f 23/23/23 22/22/22 21/21/21
f 23/23/23 24/24/24 22/22/22
f 24/24/24 23/23/23 25/25/25
f 23/23/23 26/26/26 25/25/25
f 25/25/25 26/26/26 27/27/27
f 30/30/30 29/29/29 28/28/28
f 31/31/31 30/30/30 28/28/28
f 34/34/34 33/33/33 32/32/32
f 35/35/35 34/34/34 32/32/32
f 38/38/38 37/37/37 36/36/36
f 37/37/37 39/39/39 36/36/36
f 36/36/36 39/39/39 40/40/40
f 39/39/39 41/41/41 40/40/40
f 40/40/40 41/41/41 42/42/42
f 41/41/41 43/43/43 42/42/42
f 46/46/46 45/45/45 44/44/44
f 47/47/47 46/46/46 44/44/44
g SectionBridge_Right_1
f 50/50/50 49/49/49 48/48/48
f 51/51/51 50/50/50 48/48/48
f 51/51/51 48/48/48 52/52/52
f 53/53/53 51/51/51 52/52/52
f 54/54/54 53/53/53 52/52/52
f 54/54/54 55/55/55 53/53/53
f 55/55/55 56/56/56 53/53/53
f 56/56/56 57/57/57 53/53/53
f 60/60/60 59/59/59 58/58/58
f 61/61/61 60/60/60 58/58/58
f 62/62/62 61/61/61 58/58/58
f 62/62/62 58/58/58 63/63/63
f 64/64/64 62/62/62 63/63/63
f 65/65/65 64/64/64 63/63/63
f 65/65/65 63/63/63 66/66/66
f 67/67/67 65/65/65 66/66/66
f 70/70/70 69/69/69 68/68/68
f 71/71/71 70/70/70 68/68/68
f 68/68/68 72/72/72 71/71/71
f 72/72/72 73/73/73 71/71/71
f 76/76/76 75/75/75 74/74/74
f 77/77/77 76/76/76 74/74/74
f 74/74/74 78/78/78 77/77/77
f 78/78/78 79/79/79 77/77/77
f 82/82/82 81/81/81 80/80/80
f 83/83/83 81/81/81 82/82/82
f 81/81/81 83/83/83 84/84/84
f 85/85/85 81/81/81 84/84/84
f 85/85/85 84/84/84 86/86/86
