g SM_Bld_Trailer_Glass_01
v -1.5413208 2.9021394 1.7658844
v -1.5413208 2.9021394 3.736761
v -1.5413208 2.4894319 3.736761
v -1.5413208 2.4894319 1.7658844
v -1.4851172 2.8395183 4.2563734
v -1.2784982 2.8395183 4.4530163
v -1.2784982 1.8404948 4.4530163
v -1.4851172 1.8404948 4.2563734
v -1.1114581 2.8395183 4.5143194
v 1.0952674 2.8395183 4.5143194
v 1.0952674 1.8404948 4.5143194
v -1.1114581 1.8404948 4.5143194
v 1.2762268 2.8395183 4.446106
v 1.4915388 2.8395183 4.2590213
v 1.4915388 1.8404948 4.2590213
v 1.2762268 1.8404948 4.446106
v 1.5503935 2.7837138 1.2830855
v 1.5503935 2.7837138 0.40195295
v 1.5503935 2.0393126 0.40195295
v 1.5503935 2.0393126 1.2830855
v 1.5503935 2.9021394 -2.6478014
v 1.5503935 2.9021394 -4.0754786
v 1.5503935 1.7964396 -4.0754786
v 1.5503935 1.7964396 -2.6478014
v 1.226217 2.9021394 -4.585824
v -1.2336618 2.9021394 -4.585824
v -1.2336618 2.4894319 -4.585824
v 1.226217 2.4894319 -4.585824
vt 0.18515286 0.13589863
vt 0.18515286 0.18370628
vt 0.22389895 0.18370628
vt 0.22389895 0.13589863
vt 0.18515286 0.13589863
vt 0.18515286 0.18370628
vt 0.22389895 0.18370628
vt 0.22389895 0.13589863
vt 0.18515286 0.13589863
vt 0.18515286 0.18370628
vt 0.22389895 0.18370628
vt 0.22389895 0.13589863
vt 0.18515286 0.13589863
vt 0.18515286 0.18370628
vt 0.22389895 0.18370628
vt 0.22389895 0.13589863
vt 0.18515286 0.13589863
vt 0.18515286 0.18370628
vt 0.22389895 0.18370628
vt 0.22389895 0.13589863
vt 0.18515286 0.13589863
vt 0.18515286 0.18370628
vt 0.22389895 0.18370628
vt 0.22389895 0.13589863
vt 0.18515286 0.13589863
vt 0.18515286 0.18370628
vt 0.22389895 0.18370628
vt 0.22389895 0.13589863
vn -1 0 0
vn -1 0 0
vn -1 0 0
vn -1 0 0
vn -0.6894036 0 0.72437745
vn -0.6894036 0 0.72437745
vn -0.6894036 0 0.72437745
vn -0.6894036 0 0.72437745
vn -0 0 1
vn -0 0 1
vn -0 0 1
vn -0 0 1
vn 0.6558934 0 0.75485355
vn 0.6558934 0 0.75485355
vn 0.6558934 0 0.75485355
vn 0.6558934 0 0.75485355
vn 1 0 0
vn 1 0 0
vn 1 0 0
vn 1 0 0
vn 1 0 0
vn 1 0 0
vn 1 0 0
vn 1 0 0
vn -0 0 -1
vn -0 0 -1
vn -0 0 -1
vn -0 0 -1
g SM_Bld_Trailer_Glass_01_0
f 3/3/3 2/2/2 1/1/1
f 4/4/4 3/3/3 1/1/1
f 7/7/7 6/6/6 5/5/5
f 8/8/8 7/7/7 5/5/5
f 11/11/11 10/10/10 9/9/9
f 12/12/12 11/11/11 9/9/9
f 15/15/15 14/14/14 13/13/13
f 16/16/16 15/15/15 13/13/13
f 19/19/19 18/18/18 17/17/17
f 20/20/20 19/19/19 17/17/17
f 23/23/23 22/22/22 21/21/21
f 24/24/24 23/23/23 21/21/21
f 27/27/27 26/26/26 25/25/25
f 28/28/28 27/27/27 25/25/25
