g SM_Bld_IndustrialWalkway_Beam_01
v -0.10623474 7.6293944E-08 0.14019366
v 0.087971486 0.5388003 0.11609188
v 0.10623474 7.6293944E-08 0.14019366
v -0.08797393 1.1180645 0.11609188
v 0.10623474 2.8311722 0.14019366
v -0.10623474 2.8311722 0.14019366
v -0.10623474 2.8311722 -0.14019366
v 0.087971486 1.6459931 -0.116091885
v 0.10623474 2.8311722 -0.14019366
v -0.08797393 2.2252562 -0.116091885
v 0.10623474 7.6293944E-08 -0.14019366
v -0.10623474 7.6293944E-08 -0.14019366
v 0.031576782 2.8311722 -0.07652353
v 0.10623474 2.8311722 -0.09526877
v 0.087971486 1.4685925 -0.07889136
v 0.026148135 1.5981216 -0.063370265
v 0.031576782 7.7486035E-08 -0.07652354
v 0.10623474 7.6293944E-08 -0.09526878
v -0.10623474 2.8311722 -0.09526877
v -0.031576782 2.8311722 -0.07652353
v -0.026148135 1.770294 -0.063370265
v -0.08797393 2.0478563 -0.07889136
v -0.10623474 7.6293944E-08 -0.09526878
v -0.031576782 7.7486035E-08 -0.07652354
v -0.10623474 2.8311722 0.09054462
v -0.10623474 2.8311722 0.14019366
v -0.08797393 1.1180645 0.11609188
v -0.08797393 1.3141177 0.0749808
v -0.10623474 7.6293944E-08 0.09054462
v -0.10623474 7.6293944E-08 0.14019366
v -0.10623474 2.8311722 0.14019366
v 0.10623474 2.8311722 0.09054462
v 0.10623474 2.8311722 0.14019366
v -0.10623474 2.8311722 0.09054462
v 0.031576782 2.8311722 0.06458287
v -0.031576782 2.8311722 0.06458287
v 0.10623474 7.6293944E-08 0.14019366
v 0.087971486 0.7348546 0.0749808
v 0.10623474 7.6293944E-08 0.09054462
v 0.087971486 0.5388003 0.11609188
v 0.10623474 2.8311722 0.09054462
v 0.10623474 2.8311722 0.14019366
v -0.10623474 7.6293944E-08 0.09054462
v -0.10623474 7.6293944E-08 0.14019366
v 0.10623474 7.6293944E-08 0.14019366
v 0.10623474 7.6293944E-08 0.09054462
v -0.031576782 7.7486035E-08 0.064582855
v 0.031576782 7.7486035E-08 0.064582855
v -0.10623474 2.8311722 -0.09526877
v -0.10623474 2.8311722 -0.14019366
v 0.10623474 2.8311722 -0.14019366
v 0.10623474 2.8311722 -0.09526877
v -0.031576782 2.8311722 -0.07652353
v 0.031576782 2.8311722 -0.07652353
v -0.031576782 2.8311722 0.06458287
v 0.031576782 2.8311722 0.06458287
v -0.10623474 7.6293944E-08 -0.14019366
v -0.08797393 2.0478563 -0.07889136
v -0.10623474 7.6293944E-08 -0.09526878
v -0.08797393 2.2252562 -0.116091885
v -0.10623474 2.8311722 -0.09526877
v -0.10623474 2.8311722 -0.14019366
v -0.10623474 7.6293944E-08 -0.14019366
v 0.10623474 7.6293944E-08 -0.09526878
v 0.10623474 7.6293944E-08 -0.14019366
v -0.10623474 7.6293944E-08 -0.09526878
v 0.031576782 7.7486035E-08 -0.07652354
v -0.031576782 7.7486035E-08 -0.07652354
v 0.031576782 7.7486035E-08 0.064582855
v -0.031576782 7.7486035E-08 0.064582855
v 0.10623474 2.8311722 -0.09526877
v 0.10623474 2.8311722 -0.14019366
v 0.087971486 1.6459931 -0.116091885
v 0.087971486 1.4685925 -0.07889136
v 0.10623474 7.6293944E-08 -0.09526878
v 0.10623474 7.6293944E-08 -0.14019366
v -0.031576782 2.8311722 -0.07652353
v -0.031576782 2.8311722 0.06458287
v -0.026148135 1.2130824 0.0534805
v -0.026148135 1.770294 -0.063370265
v -0.031576782 7.7486035E-08 -0.07652354
v -0.031576782 7.7486035E-08 0.064582855
v 0.031576782 2.8311722 0.06458287
v 0.031576782 2.8311722 -0.07652353
v 0.026148135 1.5981216 -0.063370265
v 0.026148135 1.0409107 0.0534805
v 0.031576782 7.7486035E-08 0.064582855
v 0.031576782 7.7486035E-08 -0.07652354
v -0.031576782 2.8311722 0.06458287
v -0.10623474 2.8311722 0.09054462
v -0.08797393 1.3141177 0.0749808
v -0.026148135 1.2130824 0.0534805
v -0.031576782 7.7486035E-08 0.064582855
v -0.10623474 7.6293944E-08 0.09054462
v 0.10623474 2.8311722 0.09054462
v 0.031576782 2.8311722 0.06458287
v 0.026148135 1.0409107 0.0534805
v 0.087971486 0.7348546 0.0749808
v 0.10623474 7.6293944E-08 0.09054462
v 0.031576782 7.7486035E-08 0.064582855
vt 0.02656126 0.2219276
vt 0.026561202 0.25058287
vt 0.0265612 0.2219276
vt 0.02656126 0.25058287
vt 0.0265612 0.2779156
vt 0.02656126 0.2779156
vt 0.02656126 0.27791566
vt 0.0265612 0.2779156
vt 0.0265612 0.27791566
vt 0.02656126 0.27791563
vt 0.0265612 0.22192757
vt 0.02656126 0.22192757
vt 0.0265612 0.2779156
vt 0.026561141 0.2779156
vt 0.026561141 0.2779156
vt 0.0265612 0.2779156
vt 0.0265612 0.2219276
vt 0.026561141 0.2219276
vt 0.0265612 0.2779156
vt 0.0265612 0.2779156
vt 0.0265612 0.2779156
vt 0.0265612 0.2779156
vt 0.0265612 0.2219276
vt 0.0265612 0.2219276
vt 0.0265612 0.2779156
vt 0.02656126 0.2779156
vt 0.02656126 0.25058287
vt 0.0265612 0.25058287
vt 0.0265612 0.2219276
vt 0.02656126 0.2219276
vt 0.02656126 0.2779156
vt 0.0265612 0.27791554
vt 0.0265612 0.2779156
vt 0.02656126 0.27791554
vt 0.0265612 0.27791554
vt 0.02656126 0.27791554
vt 0.0265612 0.2219276
vt 0.0265612 0.25058287
vt 0.0265612 0.2219276
vt 0.026561202 0.25058287
vt 0.0265612 0.2779156
vt 0.0265612 0.2779156
vt 0.02656126 0.22192754
vt 0.02656126 0.22192754
vt 0.0265612 0.22192754
vt 0.0265612 0.22192754
vt 0.02656126 0.22192748
vt 0.0265612 0.22192748
vt 0.02656126 0.2779156
vt 0.02656126 0.27791566
vt 0.0265612 0.27791566
vt 0.0265612 0.2779156
vt 0.02656126 0.2779156
vt 0.0265612 0.2779156
vt 0.02656126 0.27791554
vt 0.0265612 0.27791554
vt 0.0265612 0.2219276
vt 0.0265612 0.2779156
vt 0.0265612 0.2219276
vt 0.0265612 0.2779156
vt 0.0265612 0.2779156
vt 0.0265612 0.2779156
vt 0.02656126 0.22192757
vt 0.0265612 0.22192754
vt 0.0265612 0.22192757
vt 0.02656126 0.22192754
vt 0.0265612 0.22192754
vt 0.02656126 0.22192754
vt 0.0265612 0.22192748
vt 0.02656126 0.22192748
vt 0.026561141 0.2779156
vt 0.0265612 0.2779156
vt 0.0265612 0.2779156
vt 0.026561141 0.2779156
vt 0.026561141 0.2219276
vt 0.0265612 0.2219276
vt 0.0265612 0.2779156
vt 0.0265612 0.2779156
vt 0.0265612 0.25058287
vt 0.0265612 0.2779156
vt 0.0265612 0.2219276
vt 0.0265612 0.2219276
vt 0.026561141 0.2779156
vt 0.0265612 0.2779156
vt 0.0265612 0.2779156
vt 0.026561141 0.25058287
vt 0.026561141 0.2219276
vt 0.0265612 0.2219276
vt 0.0265612 0.2779156
vt 0.0265612 0.2779156
vt 0.0265612 0.25058287
vt 0.0265612 0.25058287
vt 0.0265612 0.2219276
vt 0.0265612 0.2219276
vt 0.0265612 0.2779156
vt 0.026561141 0.2779156
vt 0.026561141 0.25058287
vt 0.0265612 0.25058287
vt 0.0265612 0.2219276
vt 0.026561141 0.2219276
vn 0.04332935 0.029053686 0.99863833
vn 0.012701642 0.008516846 0.99988306
vn 0.04332935 0.029053686 0.99863833
vn 0.012701642 0.008516846 0.99988306
vn -0.017943356 -0.012031588 0.99976665
vn -0.017943356 -0.012031588 0.99976665
vn -0.040089715 -0.02688147 -0.99883443
vn -0.0107689705 -0.007220951 -0.99991596
vn -0.040089715 -0.02688147 -0.99883443
vn -0.0107689705 -0.007220951 -0.99991596
vn 0.018565211 0.012448577 -0.9997502
vn 0.018565211 0.012448577 -0.9997502
vn 0.25127834 0.008718021 0.9678756
vn 0.25127834 0.008718021 0.9678756
vn 0.24404413 0.00059601193 0.9697639
vn 0.24404413 0.00059601193 0.9697639
vn 0.23678021 -0.00752607 0.9715341
vn 0.23678021 -0.00752607 0.9715341
vn -0.21890149 0.012811192 0.9756629
vn -0.21890149 0.012811192 0.9756629
vn -0.23688696 0.0034572242 0.97153115
vn -0.23688696 0.0034572242 0.97153115
vn -0.25477102 -0.0058982237 0.9669834
vn -0.25477102 -0.0058982237 0.9669834
vn -0.99965644 -0.011010492 -0.023784038
vn -0.99965644 -0.011010492 -0.023784038
vn -0.99998534 0.0022727065 0.004909336
vn -0.99998534 0.0022727065 0.004909336
vn -0.9993144 0.015553632 0.0335978
vn -0.9993144 0.015553632 0.0335978
vn -0 1 0
vn -0 1 0
vn -0 1 0
vn -0 1 0
vn -0 1 0
vn -0 1 0
vn 0.99733245 0.030664934 0.06624045
vn 0.99964046 0.011263532 0.024330772
vn 0.99733245 0.030664934 0.06624045
vn 0.99964046 0.011263532 0.024330772
vn 0.99981123 -0.008161952 -0.017630927
vn 0.99981123 -0.008161952 -0.017630927
vn -0 -1 0
vn -0 -1 0
vn -0 -1 0
vn -0 -1 0
vn -0 -1 0
vn -0 -1 0
vn -0 1 0
vn -0 1 0
vn -0 1 0
vn -0 1 0
vn -0 1 0
vn -0 1 0
vn -0 1 0
vn -0 1 0
vn -0.99980134 0.008373793 0.018088344
vn -0.99972683 -0.0098185735 -0.0212092
vn -0.99980134 0.008373793 0.018088344
vn -0.99972683 -0.0098185735 -0.0212092
vn -0.99777764 -0.027992532 -0.060466975
vn -0.99777764 -0.027992532 -0.060466975
vn -0 -1 0
vn -0 -1 0
vn -0 -1 0
vn -0 -1 0
vn -0 -1 0
vn -0 -1 0
vn -0 -1 0
vn -0 -1 0
vn 0.99937624 -0.01483699 -0.03204965
vn 0.99937624 -0.01483699 -0.03204965
vn 0.99999166 -0.0017177772 -0.0037106045
vn 0.99999166 -0.0017177772 -0.0037106045
vn 0.9996315 0.011403112 0.024632057
vn 0.9996315 0.011403112 0.024632057
vn -0.9999534 -0.0040593147 -0.008768501
vn -0.9999534 -0.0040593147 -0.008768501
vn -0.9999999 -0.00021279993 -0.0004596698
vn -0.9999999 -0.00021279993 -0.0004596698
vn -0.99996257 0.003633733 0.007849201
vn -0.99996257 0.003633733 0.007849201
vn 0.9999634 -0.003596331 -0.007768403
vn 0.9999634 -0.003596331 -0.007768403
vn 0.9999999 0.00025535986 0.0005516004
vn 0.9999999 0.00025535986 0.0005516004
vn 0.9999522 0.004107029 0.008871558
vn 0.9999522 0.004107029 0.008871558
vn -0.32475585 0.005590521 -0.9457814
vn -0.32475585 0.005590521 -0.9457814
vn -0.3288642 -0.0006189184 -0.944377
vn -0.3288642 -0.0006189184 -0.944377
vn -0.3329537 -0.0068283225 -0.9429185
vn -0.3329537 -0.0068283225 -0.9429185
vn 0.33725214 0.004403232 -0.9414041
vn 0.33725214 0.004403232 -0.9414041
vn 0.32267764 -0.0028870287 -0.9465045
vn 0.32267764 -0.0028870287 -0.9465045
vn 0.30800912 -0.010176448 -0.951329
vn 0.30800912 -0.010176448 -0.951329
g SM_Bld_IndustrialWalkway_Beam_01_0
f 3/3/3 2/2/2 1/1/1
f 2/2/2 4/4/4 1/1/1
f 2/2/2 5/5/5 4/4/4
f 5/5/5 6/6/6 4/4/4
f 9/9/9 8/8/8 7/7/7
f 8/8/8 10/10/10 7/7/7
f 8/8/8 11/11/11 10/10/10
f 11/11/11 12/12/12 10/10/10
f 15/15/15 14/14/14 13/13/13
f 16/16/16 15/15/15 13/13/13
f 16/16/16 17/17/17 15/15/15
f 17/17/17 18/18/18 15/15/15
f 21/21/21 20/20/20 19/19/19
f 22/22/22 21/21/21 19/19/19
f 22/22/22 23/23/23 21/21/21
f 23/23/23 24/24/24 21/21/21
f 27/27/27 26/26/26 25/25/25
f 28/28/28 27/27/27 25/25/25
f 28/28/28 29/29/29 27/27/27
f 29/29/29 30/30/30 27/27/27
f 33/33/33 32/32/32 31/31/31
f 32/32/32 34/34/34 31/31/31
f 32/32/32 35/35/35 34/34/34
f 35/35/35 36/36/36 34/34/34
f 39/39/39 38/38/38 37/37/37
f 38/38/38 40/40/40 37/37/37
f 38/38/38 41/41/41 40/40/40
f 41/41/41 42/42/42 40/40/40
f 45/45/45 44/44/44 43/43/43
f 46/46/46 45/45/45 43/43/43
f 46/46/46 43/43/43 47/47/47
f 48/48/48 46/46/46 47/47/47
f 51/51/51 50/50/50 49/49/49
f 52/52/52 51/51/51 49/49/49
f 52/52/52 49/49/49 53/53/53
f 54/54/54 52/52/52 53/53/53
f 54/54/54 53/53/53 55/55/55
f 56/56/56 54/54/54 55/55/55
f 59/59/59 58/58/58 57/57/57
f 58/58/58 60/60/60 57/57/57
f 58/58/58 61/61/61 60/60/60
f 61/61/61 62/62/62 60/60/60
f 65/65/65 64/64/64 63/63/63
f 64/64/64 66/66/66 63/63/63
f 64/64/64 67/67/67 66/66/66
f 67/67/67 68/68/68 66/66/66
f 67/67/67 69/69/69 68/68/68
f 69/69/69 70/70/70 68/68/68
f 73/73/73 72/72/72 71/71/71
f 74/74/74 73/73/73 71/71/71
f 74/74/74 75/75/75 73/73/73
f 75/75/75 76/76/76 73/73/73
f 79/79/79 78/78/78 77/77/77
f 80/80/80 79/79/79 77/77/77
f 80/80/80 81/81/81 79/79/79
f 81/81/81 82/82/82 79/79/79
f 85/85/85 84/84/84 83/83/83
f 86/86/86 85/85/85 83/83/83
f 86/86/86 87/87/87 85/85/85
f 87/87/87 88/88/88 85/85/85
f 91/91/91 90/90/90 89/89/89
f 92/92/92 91/91/91 89/89/89
f 92/92/92 93/93/93 91/91/91
f 93/93/93 94/94/94 91/91/91
f 97/97/97 96/96/96 95/95/95
f 98/98/98 97/97/97 95/95/95
f 98/98/98 99/99/99 97/97/97
f 99/99/99 100/100/100 97/97/97
