g SM_Env_Construction_Wall_01
v 9.736516 4.5923405 0.21315002
v 0.34758854 0.24351464 0.21315002
v 0.2634821 0.40765914 0.21315002
v 9.652408 4.756485 0.21315002
v 0.2634821 0.40765914 0.018882751
v 9.652408 4.756485 0.018882751
v 9.652408 4.756485 0.21315002
v 0.2634821 0.40765914 0.21315002
v 0.34758854 0.24351464 0.21315002
v 9.736516 4.5923405 0.21315002
v 9.736516 4.5923405 0.018882751
v 0.34758854 0.24351464 0.018882751
v 9.65241 0.24351464 0.21315765
v 0.2634821 4.5923405 0.21315765
v 0.34759045 4.756485 0.21315765
v 9.736516 0.40765914 0.21315765
v 9.736516 0.40765914 0.21315765
v 0.34759045 4.756485 0.21315765
v 0.34759045 4.756485 0.01889038
v 9.736516 0.40765914 0.01889038
v 9.65241 0.24351464 0.01889038
v 0.2634821 4.5923405 0.01889038
v 0.2634821 4.5923405 0.21315765
v 9.65241 0.24351464 0.21315765
v -0 5 0
v 10 5 0
v 10 -1.5641852E-08 0
v -0 -1.5641852E-08 0
v -0 5 0.32182312
v -0 5 0
v 10 5 0
v 10 5 0.32182312
v -0 0 0
v -0 0 0.32182312
v 10 0 0.32182312
v 10 0 0
v 10 0 0.32182312
v 10 5 0.32182312
v 10 5 0
v 10 0 0
v -0 0 0
v -0 5 0
v -0 5 0.32182312
v -0 0 0.32182312
v 0.30553722 0.32558694 0.32182312
v 0.30553722 0.32558694 0
v 9.694463 0.32558694 0
v 9.694463 0.32558694 0.32182312
v 9.694463 0.32558694 0.32182312
v 9.694463 0.32558694 0
v 9.694463 4.674413 0
v 9.694463 4.674413 0.32182312
v 9.694463 4.674413 0.32182312
v 9.694463 4.674413 0
v 0.30553722 4.674413 0
v 0.30553722 4.674413 0.32182312
v 0.30553722 4.674413 0.32182312
v 0.30553722 4.674413 0
v 0.30553722 0.32558694 0
v 0.30553722 0.32558694 0.32182312
v -0 0 0.32182312
v 0.30553722 0.32558694 0.32182312
v 9.694463 0.32558694 0.32182312
v 10 0 0.32182312
v -0 5 0.32182312
v 9.694463 4.674413 0.32182312
v 0.30553722 4.674413 0.32182312
v 10 5 0.32182312
vt 0.20563829 0.08843662
vt 0.20563829 0.08843662
vt 0.20563829 0.08843662
vt 0.20563829 0.08843662
vt 0.17359975 0.08843662
vt 0.17359975 0.088436626
vt 0.17359969 0.088436626
vt 0.17359969 0.08843662
vt 0.17359975 0.08843662
vt 0.17359975 0.088436626
vt 0.17359975 0.088436626
vt 0.17359975 0.08843662
vt 0.20563829 0.08843662
vt 0.20563829 0.088436626
vt 0.20563829 0.088436626
vt 0.20563829 0.08843662
vt 0.17359975 0.08843662
vt 0.17359975 0.088436626
vt 0.17359969 0.088436626
vt 0.17359969 0.08843662
vt 0.17359975 0.08843662
vt 0.17359975 0.088436626
vt 0.17359975 0.088436626
vt 0.17359975 0.08843662
vt 0.3919292 0.06246385
vt 0.3919292 0.06246385
vt 0.3919292 0.06246385
vt 0.3919292 0.06246385
vt 0.24050376 0.088436626
vt 0.24050376 0.08843662
vt 0.24050376 0.08843662
vt 0.24050376 0.088436626
vt 0.14061889 0.08843662
vt 0.14061889 0.08843661
vt 0.14061889 0.08843661
vt 0.14061889 0.08843662
vt 0.17359975 0.08843662
vt 0.17359975 0.088436626
vt 0.17359969 0.088436626
vt 0.17359969 0.08843662
vt 0.17359975 0.08843662
vt 0.17359975 0.088436626
vt 0.17359975 0.088436626
vt 0.17359975 0.08843662
vt 0.23721424 0.08843662
vt 0.23721424 0.08843662
vt 0.23721424 0.08843662
vt 0.23721424 0.08843662
vt 0.17591974 0.08843662
vt 0.17591974 0.08843662
vt 0.17591974 0.088436626
vt 0.17591974 0.088436626
vt 0.20563829 0.088436626
vt 0.20563829 0.088436626
vt 0.20563829 0.088436626
vt 0.20563829 0.088436626
vt 0.17591974 0.088436626
vt 0.17591974 0.088436626
vt 0.17591974 0.08843662
vt 0.17591974 0.08843662
vt 0.20563829 0.08843662
vt 0.20563829 0.08843662
vt 0.20563829 0.08843662
vt 0.20563829 0.08843662
vt 0.20563829 0.088436626
vt 0.20563829 0.088436626
vt 0.20563829 0.088436626
vt 0.20563829 0.088436626
vn -0 0 1
vn -0 0 1
vn -0 0 1
vn -0 0 1
vn -0.42029077 0.90738946 0
vn -0.42029077 0.90738946 0
vn -0.42029077 0.90738946 0
vn -0.42029077 0.90738946 0
vn 0.42029068 -0.90738946 0
vn 0.42029068 -0.90738946 0
vn 0.42029068 -0.90738946 0
vn 0.42029068 -0.90738946 0
vn -0 0 1
vn -0 0 1
vn -0 0 1
vn -0 0 1
vn 0.42029077 0.90738946 0
vn 0.42029077 0.90738946 0
vn 0.42029077 0.90738946 0
vn 0.42029077 0.90738946 0
vn -0.42029068 -0.90738946 0
vn -0.42029068 -0.90738946 0
vn -0.42029068 -0.90738946 0
vn -0.42029068 -0.90738946 0
vn -0 0 1
vn -0 0 1
vn -0 0 1
vn -0 0 1
vn -0 1 0
vn -0 1 0
vn -0 1 0
vn -0 1 0
vn -0 -1 0
vn -0 -1 0
vn -0 -1 0
vn -0 -1 0
vn 1 0 0
vn 1 0 0
vn 1 0 0
vn 1 0 0
vn -1 0 0
vn -1 0 0
vn -1 0 0
vn -1 0 0
vn -0 1 0
vn -0 1 0
vn -0 1 0
vn -0 1 0
vn -1 0 0
vn -1 0 0
vn -1 0 0
vn -1 0 0
vn -0 -1 0
vn -0 -1 0
vn -0 -1 0
vn -0 -1 0
vn 1 0 0
vn 1 0 0
vn 1 0 0
vn 1 0 0
vn -0 0 1
vn -0 0 1
vn -0 0 1
vn -0 0 1
vn -0 0 1
vn -0 0 1
vn -0 0 1
vn -0 0 1
g SM_Env_Construction_Wall_01_0
f 3/3/3 2/2/2 1/1/1
f 4/4/4 3/3/3 1/1/1
f 7/7/7 6/6/6 5/5/5
f 8/8/8 7/7/7 5/5/5
f 11/11/11 10/10/10 9/9/9
f 12/12/12 11/11/11 9/9/9
f 15/15/15 14/14/14 13/13/13
f 16/16/16 15/15/15 13/13/13
f 19/19/19 18/18/18 17/17/17
f 20/20/20 19/19/19 17/17/17
f 23/23/23 22/22/22 21/21/21
f 24/24/24 23/23/23 21/21/21
f 27/27/27 26/26/26 25/25/25
f 28/28/28 27/27/27 25/25/25
f 31/31/31 30/30/30 29/29/29
f 32/32/32 31/31/31 29/29/29
f 35/35/35 34/34/34 33/33/33
f 36/36/36 35/35/35 33/33/33
f 39/39/39 38/38/38 37/37/37
f 40/40/40 39/39/39 37/37/37
f 43/43/43 42/42/42 41/41/41
f 44/44/44 43/43/43 41/41/41
f 47/47/47 46/46/46 45/45/45
f 48/48/48 47/47/47 45/45/45
f 51/51/51 50/50/50 49/49/49
f 52/52/52 51/51/51 49/49/49
f 55/55/55 54/54/54 53/53/53
f 56/56/56 55/55/55 53/53/53
f 59/59/59 58/58/58 57/57/57
f 60/60/60 59/59/59 57/57/57
f 63/63/63 62/62/62 61/61/61
f 64/64/64 63/63/63 61/61/61
f 61/61/61 62/62/62 65/65/65
f 66/66/66 63/63/63 64/64/64
f 62/62/62 67/67/67 65/65/65
f 68/68/68 66/66/66 64/64/64
f 65/65/65 67/67/67 68/68/68
f 67/67/67 66/66/66 68/68/68
