g SM_Env_Road_Straight_Damaged_03
v 5 0 0
v -5 0 0
v 5 0 5
v -5 0 5
v 5.7903123 -0.21063384 0
v -5.7903028 -0.21063384 0
v 5.7903123 -0.21063384 5
v -5.7903028 -0.21063384 5
v 4.2898536 0 5
v 4.2898536 0 0
v -4.2898536 0 0
v -4.2898536 0 5
v 4.5499997 0 5
v 4.5499997 0 0
v -4.5499997 0 0
v -4.5499997 0 5
v 4.5499997 0 4.5720067
v 4.5499997 0 3.6267235
v 4.4628806 0 4.1048093
v -4.5499997 0 1.6252588
v -4.5499997 0 2.7531786
v -4.4371676 0 2.3926318
v -0 0 0
v -0 0 5
v 1.4930176 0 0.7460254
v 0.73680663 0 1.3742529
v 0.9049121 0 2.0967333
v 1.7586426 0 2.7940624
v 2.9458787 0 2.278872
v 3.2491307 0 1.6293652
v 2.732207 0 1.1587695
v 2.5921972 0 0.6000732
v 2.0403223 0 0.5092285
v -0.862998 0 3.586787
v -0.5155859 0 3.2284617
v -0.62865233 0 2.8199658
v -1.199834 0 2.5684228
v -1.833916 0 3.031416
v -1.6044335 0 3.539419
v 2.0225406 -0.08854304 0.8727783
v 1.6514926 -0.14174382 1.0333105
v 2.3966677 -0.08854304 0.9343652
v 2.4915986 -0.14174382 1.313125
v 2.8420475 -0.08854304 1.6321582
v 2.6364434 -0.14174382 2.0724902
v 1.8315707 -0.08854304 2.421753
v 1.2528133 -0.14174382 1.9490136
v 1.1388315 -0.08854304 1.4592139
v -1.4307361 -0.064708464 3.3666747
v -0.9839056 -0.11084612 3.3952196
v -1.5690337 -0.064708464 3.0605273
v -1.1868975 -0.11084612 2.781504
v -0.84268796 -0.064708464 2.9330907
v -0.77455014 -0.064708464 3.1792772
v 5 0 0
v 5 0 5
v -5 0 5
v -5 0 0
v -4.5499997 0 1.6252588
v 4.4628806 0 4.1048093
v 4.5499997 0 0
v 4.5499997 0 3.6267235
v 4.5499997 0 5
v 4.5499997 0 4.5720067
v -4.2898536 0 0
v -4.4371676 0 2.3926318
v -4.5499997 0 2.7531786
v -4.5499997 0 0
v -4.5499997 0 5
v 4.2898536 0 0
v -4.2898536 0 5
v -0 0 5
v -0 0 0
v 4.2898536 0 5
v 1.4930176 0 0.7460254
v 2.0403223 0 0.5092285
v 2.0225406 -0.08854304 0.8727783
v 1.6514926 -0.14174382 1.0333105
v 2.0403223 0 0.5092285
v 2.5921972 0 0.6000732
v 2.5921972 0 0.6000732
v 2.732207 0 1.1587695
v 2.4915986 -0.14174382 1.313125
v 2.3966677 -0.08854304 0.9343652
v 2.732207 0 1.1587695
v 3.2491307 0 1.6293652
v 2.4915986 -0.14174382 1.313125
v 3.2491307 0 1.6293652
v 2.9458787 0 2.278872
v 2.8420475 -0.08854304 1.6321582
v 2.9458787 0 2.278872
v 1.7586426 0 2.7940624
v 2.6364434 -0.14174382 2.0724902
v 1.7586426 0 2.7940624
v 0.9049121 0 2.0967333
v 1.8315707 -0.08854304 2.421753
v 0.9049121 0 2.0967333
v 0.73680663 0 1.3742529
v 1.2528133 -0.14174382 1.9490136
v 0.73680663 0 1.3742529
v 1.4930176 0 0.7460254
v 1.6514926 -0.14174382 1.0333105
v 1.1388315 -0.08854304 1.4592139
v -0.862998 0 3.586787
v -1.6044335 0 3.539419
v -1.4307361 -0.064708464 3.3666747
v -0.9839056 -0.11084612 3.3952196
v -1.6044335 0 3.539419
v -1.833916 0 3.031416
v -1.5690337 -0.064708464 3.0605273
v -1.4307361 -0.064708464 3.3666747
v -1.833916 0 3.031416
v -1.199834 0 2.5684228
v -1.1868975 -0.11084612 2.781504
v -1.5690337 -0.064708464 3.0605273
v -1.199834 0 2.5684228
v -0.62865233 0 2.8199658
v -1.1868975 -0.11084612 2.781504
v -0.62865233 0 2.8199658
v -0.5155859 0 3.2284617
v -0.84268796 -0.064708464 2.9330907
v -0.5155859 0 3.2284617
v -0.862998 0 3.586787
v -0.9839056 -0.11084612 3.3952196
v -0.77455014 -0.064708464 3.1792772
v 1.6514926 -0.14174382 1.0333105
v 1.2528133 -0.14174382 1.9490136
v 1.1388315 -0.08854304 1.4592139
v 1.2528133 -0.14174382 1.9490136
v 2.6364434 -0.14174382 2.0724902
v 1.8315707 -0.08854304 2.421753
v 2.6364434 -0.14174382 2.0724902
v 2.4915986 -0.14174382 1.313125
v 2.8420475 -0.08854304 1.6321582
v 1.6514926 -0.14174382 1.0333105
v 2.4915986 -0.14174382 1.313125
v 2.6364434 -0.14174382 2.0724902
v 1.2528133 -0.14174382 1.9490136
v -0.9839056 -0.11084612 3.3952196
v -1.1868975 -0.11084612 2.781504
v -0.84268796 -0.064708464 2.9330907
v -0.77455014 -0.064708464 3.1792772
vt 0.14546373 0.98710775
vt 0.8545364 0.98710775
vt 0.14546373 0.028051823
vt 0.8545364 0.028051823
vt 0.012345672 0.98710775
vt 0.9876543 0.98710775
vt 0.012345672 0.028051823
vt 0.9876543 0.028051823
vt 0.009744212 0.00785014
vt 0.009744212 0.00785014
vt 0.009736583 0.00785014
vt 0.009736583 0.00785014
vt 0.22126088 0.028051823
vt 0.22126088 0.98710775
vt 0.009736583 0.00785014
vt 0.009736583 0.00785014
vt 0.22126088 0.11014599
vt 0.22126088 0.29146165
vt 0.009744212 0.00785014
vt 0.009736583 0.00785014
vt 0.7787392 0.45901674
vt 0.009736583 0.00785014
vt 0.9876543 0.98710775
vt 0.9876543 0.028051823
vt 0.73617375 0.8440118
vt 0.8635488 0.7235106
vt 0.8352319 0.58493084
vt 0.69703907 0.4591865
vt 0.49706385 0.55800575
vt 0.44037718 0.6745773
vt 0.5274461 0.7648428
vt 0.55102944 0.872007
vt 0.6439866 0.8894321
vt 0.14809468 0.3287631
vt 0.09918948 0.36785263
vt 0.11823511 0.44620675
vt 0.21444377 0.49445552
vt 0.32124734 0.40564823
vt 0.2729805 0.33784887
vt 0.6439866 0.8894321
vt 0.73617375 0.8440118
vt 0.55102944 0.872007
vt 0.5274461 0.7648428
vt 0.44037718 0.6745773
vt 0.5186939 0.59005034
vt 0.7186692 0.49123108
vt 0.8352319 0.58493084
vt 0.8635488 0.7235106
vt 0.2729805 0.33784887
vt 0.14809468 0.3287631
vt 0.32124734 0.40564823
vt 0.21444377 0.49445552
vt 0.11823511 0.44620675
vt 0.09918948 0.36785263
vt 0.14546373 0.98710775
vt 0.14546373 0.028051823
vt 0.8545364 0.028051823
vt 0.8545364 0.98710775
vt 0.7787392 0.6753645
vt 0.23593467 0.1997593
vt 0.009744212 0.00785014
vt 0.009744212 0.00785014
vt 0.009744212 0.00785014
vt 0.009744212 0.00785014
vt 0.734921 0.98710775
vt 0.7597335 0.52817446
vt 0.009736583 0.00785014
vt 0.7787392 0.98710775
vt 0.7787392 0.028051823
vt 0.26507902 0.98710775
vt 0.734921 0.028051823
vt 0.012345672 0.028051823
vt 0.012345672 0.98710775
vt 0.26507902 0.028051823
vt 0.73617375 0.8440118
vt 0.6439866 0.8894321
vt 0.6439866 0.8894321
vt 0.73617375 0.8440118
vt 0.6439866 0.8894321
vt 0.55102944 0.872007
vt 0.55102944 0.872007
vt 0.5274461 0.7648428
vt 0.5274461 0.7648428
vt 0.55102944 0.872007
vt 0.5274461 0.7648428
vt 0.44037718 0.6745773
vt 0.5274461 0.7648428
vt 0.44037718 0.6745773
vt 0.49706385 0.55800575
vt 0.44037718 0.6745773
vt 0.49706385 0.55800575
vt 0.69703907 0.4591865
vt 0.5186939 0.59005034
vt 0.69703907 0.4591865
vt 0.8352319 0.58493084
vt 0.7186692 0.49123108
vt 0.8352319 0.58493084
vt 0.8635488 0.7235106
vt 0.8352319 0.58493084
vt 0.8635488 0.7235106
vt 0.73617375 0.8440118
vt 0.73617375 0.8440118
vt 0.8635488 0.7235106
vt 0.14809468 0.3287631
vt 0.2729805 0.33784887
vt 0.2729805 0.33784887
vt 0.14809468 0.3287631
vt 0.2729805 0.33784887
vt 0.32124734 0.40564823
vt 0.32124734 0.40564823
vt 0.2729805 0.33784887
vt 0.32124734 0.40564823
vt 0.21444377 0.49445552
vt 0.21444377 0.49445552
vt 0.32124734 0.40564823
vt 0.21444377 0.49445552
vt 0.11823511 0.44620675
vt 0.21444377 0.49445552
vt 0.11823511 0.44620675
vt 0.09918948 0.36785263
vt 0.11823511 0.44620675
vt 0.09918948 0.36785263
vt 0.14809468 0.3287631
vt 0.14809468 0.3287631
vt 0.09918948 0.36785263
vt 0.73617375 0.8440118
vt 0.8352319 0.58493084
vt 0.8635488 0.7235106
vt 0.8352319 0.58493084
vt 0.5186939 0.59005034
vt 0.7186692 0.49123108
vt 0.5186939 0.59005034
vt 0.5274461 0.7648428
vt 0.44037718 0.6745773
vt 0.73617375 0.8440118
vt 0.5274461 0.7648428
vt 0.5186939 0.59005034
vt 0.8352319 0.58493084
vt 0.14809468 0.3287631
vt 0.21444377 0.49445552
vt 0.11823511 0.44620675
vt 0.09918948 0.36785263
vn 0.25753006 0.9662703 0
vn -0.2575331 0.96626955 0
vn 0.25753006 0.9662703 0
vn -0.2575331 0.96626955 0
vn 0.25753006 0.9662703 0
vn -0.2575331 0.96626955 0
vn 0.25753006 0.9662703 0
vn -0.2575331 0.96626955 0
vn -0 1 0
vn -0 1 0
vn -0 1 0
vn -0 1 0
vn -0 1 0
vn -0 1 0
vn -0 1 0
vn -0 1 0
vn -0 1 0
vn -0 1 0
vn -0 1 0
vn -0 1 0
vn -0 1 0
vn -0 1 0
vn -0 1 0
vn -0 1 0
vn -0 1 0
vn -0 1 0
vn -0 1 0
vn -0 1 0
vn -0 1 0
vn -0 1 0
vn -0 1 0
vn -0 1 0
vn -0 1 0
vn -0 1 0
vn -0 1 0
vn -0 1 0
vn -0 1 0
vn -0 1 0
vn -0 1 0
vn -0.043205593 0.97836316 0.20233306
vn -0.047732823 0.9843275 0.16976729
vn -0.043205593 0.97836316 0.20233306
vn -0.047732823 0.9843275 0.16976729
vn -0.27365962 0.9319634 0.23781256
vn -0.28278866 0.9553729 -0.08539985
vn -0.116331674 0.9382456 -0.32582536
vn 0.1847061 0.9452321 -0.26910937
vn 0.29147416 0.95622915 -0.025859576
vn 0.09952699 0.9943494 -0.036926724
vn 0.09952699 0.9943494 -0.036926724
vn 0.09952699 0.9943494 -0.036926724
vn 0.09952699 0.9943494 -0.036926724
vn -0.20547765 0.9090335 0.3625426
vn -0.25438747 0.9645359 0.07040982
vn -0 1 0
vn -0 1 0
vn -0 1 0
vn -0 1 0
vn -0 1 0
vn -0 1 0
vn -0 1 0
vn -0 1 0
vn -0 1 0
vn -0 1 0
vn -0 1 0
vn -0 1 0
vn -0 1 0
vn -0 1 0
vn -0 1 0
vn -0 1 0
vn -0 1 0
vn -0 1 0
vn -0 1 0
vn -0 1 0
vn 0.08223118 0.94499063 0.3165926
vn 0.08223118 0.94499063 0.3165926
vn 0.08223118 0.94499063 0.3165926
vn 0.08223118 0.94499063 0.3165926
vn -0.038630124 0.9713065 0.23467298
vn -0.038630124 0.9713065 0.23467298
vn -0.3376574 0.93117696 0.13746648
vn -0.3376574 0.93117696 0.13746648
vn -0.3376574 0.93117696 0.13746648
vn -0.3376574 0.93117696 0.13746648
vn -0.27365962 0.9319634 0.23781256
vn -0.27365962 0.9319634 0.23781256
vn -0.27365962 0.9319634 0.23781256
vn -0.28278866 0.9553729 -0.08539985
vn -0.28278866 0.9553729 -0.08539985
vn -0.28278866 0.9553729 -0.08539985
vn -0.116331674 0.9382456 -0.32582536
vn -0.116331674 0.9382456 -0.32582536
vn -0.116331674 0.9382456 -0.32582536
vn 0.1847061 0.9452321 -0.26910937
vn 0.1847061 0.9452321 -0.26910937
vn 0.1847061 0.9452321 -0.26910937
vn 0.29147416 0.95622915 -0.025859576
vn 0.29147416 0.95622915 -0.025859576
vn 0.29147416 0.95622915 -0.025859576
vn 0.23315379 0.94411296 0.23300219
vn 0.23315379 0.94411296 0.23300219
vn 0.23315379 0.94411296 0.23300219
vn 0.23315379 0.94411296 0.23300219
vn 0.06225713 0.90261173 -0.42592964
vn 0.06225713 0.90261173 -0.42592964
vn 0.06225713 0.90261173 -0.42592964
vn 0.06225713 0.90261173 -0.42592964
vn 0.24739991 0.96244645 -0.111759186
vn 0.24739991 0.96244645 -0.111759186
vn 0.24739991 0.96244645 -0.111759186
vn 0.24739991 0.96244645 -0.111759186
vn 0.28177047 0.90099376 0.3298721
vn 0.28177047 0.90099376 0.3298721
vn 0.28177047 0.90099376 0.3298721
vn 0.28177047 0.90099376 0.3298721
vn -0.20547765 0.9090335 0.3625426
vn -0.20547765 0.9090335 0.3625426
vn -0.20547765 0.9090335 0.3625426
vn -0.25438747 0.9645359 0.07040982
vn -0.25438747 0.9645359 0.07040982
vn -0.25438747 0.9645359 0.07040982
vn -0.29597268 0.93134433 -0.21212748
vn -0.29597268 0.93134433 -0.21212748
vn -0.29597268 0.93134433 -0.21212748
vn -0.29597268 0.93134433 -0.21212748
vn 0.1600814 0.98464024 0.06969629
vn 0.1600814 0.98464024 0.06969629
vn 0.1600814 0.98464024 0.06969629
vn 0.011185138 0.9920513 -0.12533627
vn 0.011185138 0.9920513 -0.12533627
vn 0.011185138 0.9920513 -0.12533627
vn -0.18057677 0.98295754 0.034444038
vn -0.18057677 0.98295754 0.034444038
vn -0.18057677 0.98295754 0.034444038
vn -0 1 0
vn -0 1 0
vn -0 1 0
vn -0 1 0
vn -0.15856068 0.9860826 0.049994655
vn -0.15856068 0.9860826 0.049994655
vn -0.15856068 0.9860826 0.049994655
vn -0.15856068 0.9860826 0.049994655
g SM_Env_Road_Straight_Damaged_03_0
f 128/128/128 127/127/127 126/126/126
f 131/131/131 130/130/130 129/129/129
f 134/134/134 133/133/133 132/132/132
f 7/7/7 5/5/5 1/1/1
f 3/3/3 7/7/7 1/1/1
f 6/6/6 8/8/8 4/4/4
f 2/2/2 6/6/6 4/4/4
f 15/15/15 20/20/20 11/11/11
f 20/20/20 22/22/22 11/11/11
f 11/11/11 22/22/22 12/12/12
f 12/12/12 22/22/22 16/16/16
f 22/22/22 67/67/67 16/16/16
f 55/55/55 14/14/14 18/18/18
f 18/18/18 56/56/56 55/55/55
f 18/18/18 17/17/17 56/56/56
f 17/17/17 13/13/13 56/56/56
f 18/18/18 60/60/60 17/17/17
f 62/62/62 61/61/61 19/19/19
f 61/61/61 10/10/10 19/19/19
f 10/10/10 9/9/9 19/19/19
f 19/19/19 9/9/9 63/63/63
f 64/64/64 19/19/19 63/63/63
f 21/21/21 66/66/66 59/59/59
f 59/59/59 58/58/58 21/21/21
f 68/68/68 58/58/58 59/59/59
f 58/58/58 57/57/57 21/21/21
f 21/21/21 57/57/57 69/69/69
f 43/43/43 42/42/42 41/41/41
f 42/42/42 40/40/40 41/41/41
f 40/40/40 42/42/42 79/79/79
f 42/42/42 80/80/80 79/79/79
f 51/51/51 49/49/49 50/50/50
f 52/52/52 51/51/51 50/50/50
f 77/77/77 76/76/76 75/75/75
f 78/78/78 77/77/77 75/75/75
f 83/83/83 82/82/82 81/81/81
f 84/84/84 83/83/83 81/81/81
f 44/44/44 86/86/86 85/85/85
f 87/87/87 44/44/44 85/85/85
f 45/45/45 89/89/89 88/88/88
f 90/90/90 45/45/45 88/88/88
f 46/46/46 92/92/92 91/91/91
f 93/93/93 46/46/46 91/91/91
f 47/47/47 95/95/95 94/94/94
f 96/96/96 47/47/47 94/94/94
f 48/48/48 98/98/98 97/97/97
f 99/99/99 48/48/48 97/97/97
f 102/102/102 101/101/101 100/100/100
f 103/103/103 102/102/102 100/100/100
f 106/106/106 105/105/105 104/104/104
f 107/107/107 106/106/106 104/104/104
f 110/110/110 109/109/109 108/108/108
f 111/111/111 110/110/110 108/108/108
f 114/114/114 113/113/113 112/112/112
f 115/115/115 114/114/114 112/112/112
f 53/53/53 117/117/117 116/116/116
f 118/118/118 53/53/53 116/116/116
f 54/54/54 120/120/120 119/119/119
f 121/121/121 54/54/54 119/119/119
f 124/124/124 123/123/123 122/122/122
f 125/125/125 124/124/124 122/122/122
f 137/137/137 136/136/136 135/135/135
f 138/138/138 137/137/137 135/135/135
f 141/141/141 140/140/140 139/139/139
f 142/142/142 141/141/141 139/139/139
f 26/26/26 23/23/23 27/27/27
f 25/25/25 23/23/23 26/26/26
f 23/23/23 24/24/24 27/27/27
f 27/27/27 24/24/24 28/28/28
f 23/23/23 25/25/25 70/70/70
f 28/28/28 24/24/24 74/74/74
f 29/29/29 28/28/28 74/74/74
f 30/30/30 29/29/29 74/74/74
f 70/70/70 30/30/30 74/74/74
f 25/25/25 33/33/33 70/70/70
f 31/31/31 30/30/30 70/70/70
f 33/33/33 32/32/32 70/70/70
f 32/32/32 31/31/31 70/70/70
f 37/37/37 36/36/36 73/73/73
f 36/36/36 35/35/35 73/73/73
f 35/35/35 72/72/72 73/73/73
f 34/34/34 72/72/72 35/35/35
f 72/72/72 34/34/34 71/71/71
f 34/34/34 39/39/39 71/71/71
f 65/65/65 37/37/37 73/73/73
f 71/71/71 39/39/39 65/65/65
f 38/38/38 37/37/37 65/65/65
f 39/39/39 38/38/38 65/65/65
