g SM_Env_Port_Concrete_Slab_01
v -0 0 1.9073485E-07
v 2 0 1.9073485E-07
v -0 0 -2
v 2 0 -2
v 0.05224733 0.031769276 -0.052247237
v 1.9477526 0.031769276 -0.052247237
v 1.9477526 0.031769276 -1.9477525
v 0.05224733 0.031769276 -1.9477525
v -0 -3.6194093 1.9073485E-07
v -0 -3.6194093 -2
v 2 -3.6194093 -2
v 2 -3.6194093 1.9073485E-07
v 0.052247237 0.031769276 -0.6892359
v -0 0 -0.6721042
v -0 -3.6194093 -0.6721042
v 2 -3.6194093 -0.6721042
v 2 0 -0.6721042
v 1.8334135 0.031769276 -0.6528323
v 1.0243851 0.031769276 -1.0368413
v 0.45903853 0.031769276 -0.13699703
v 0.40088657 0 1.9073485E-07
v 0.9325366 -3.6194093 1.9073485E-07
v 0.9325366 -3.6194093 -0.6721042
v 0.45460403 -3.6194093 -2
v 0.45460403 0 -2
v 0.40255156 0.031769276 -1.8716177
v 0.15287551 0.031769276 -0.5397611
v -0 0 -0.572722
v -0 -0.89745057 -0.6721042
v 0.45903853 0.031769276 -0.13699703
v 1.9477526 0.031769276 -0.052247237
v 2 0 1.9073485E-07
v 1.9477526 0.031769276 -0.052247237
v 1.8334135 0.031769276 -0.6528323
v -0 0 1.9073485E-07
v -0 0 -0.572722
v 0.45460403 0 -2
v 2 0 -2
v 2 0 -0.6721042
v 2 -3.6194093 -0.6721042
v 2 -3.6194093 1.9073485E-07
v 2 0 1.9073485E-07
v 2 0 1.9073485E-07
v 2 -3.6194093 1.9073485E-07
v 0.9325366 -3.6194093 1.9073485E-07
v 0.40088657 0 1.9073485E-07
v -0 0 -2
v -0 0 -0.6721042
v 2 -3.6194093 -2
v 0.45460403 -3.6194093 -2
v 2 0 -2
v 2 -3.6194093 -2
v 1.9477526 0.031769276 -1.9477525
v 2 0 -2
v 0.40255156 0.031769276 -1.8716177
v 1.9477526 0.031769276 -1.9477525
v 0.05224733 0.031769276 -0.052247237
v 0.15287551 0.031769276 -0.5397611
v -0 0 1.9073485E-07
v 0.05224733 0.031769276 -0.052247237
v -0 -3.6194093 1.9073485E-07
v -0 0 1.9073485E-07
v -0 -3.6194093 1.9073485E-07
v -0 -3.6194093 -0.6721042
v -0 -3.6194093 -2
v -0 0 -2
v -0 -3.6194093 -2
v 0.05224733 0.031769276 -1.9477525
v -0 0 -2
v 0.052247237 0.031769276 -0.6892359
v 0.05224733 0.031769276 -1.9477525
v -0 0 -0.6721042
v 0.052247237 0.031769276 -0.6892359
v 0.15287551 0.031769276 -0.5397611
v -0 0 -0.572722
vt 0.34457064 0.8058661
vt 0.34457064 0.8058661
vt 0.34457064 0.8058661
vt 0.34457064 0.8058661
vt 0.34457064 0.8058661
vt 0.34457064 0.8058661
vt 0.34457064 0.8058661
vt 0.34457064 0.8058661
vt 0.34457064 0.8058661
vt 0.34457064 0.8058661
vt 0.34457064 0.8058661
vt 0.34457064 0.8058661
vt 0.34457064 0.8058661
vt 0.34457064 0.8058661
vt 0.34457064 0.8058661
vt 0.34457064 0.8058661
vt 0.34457064 0.8058661
vt 0.34457064 0.8058661
vt 0.34457064 0.8058661
vt 0.34457064 0.8058661
vt 0.34457064 0.8058661
vt 0.34457064 0.8058661
vt 0.34457064 0.8058661
vt 0.34457064 0.8058661
vt 0.34457064 0.8058661
vt 0.34457064 0.8058661
vt 0.34457064 0.8058661
vt 0.34457064 0.8058661
vt 0.34457064 0.8058661
vt 0.34457064 0.8058661
vt 0.34457064 0.8058661
vt 0.34457064 0.8058661
vt 0.34457064 0.8058661
vt 0.34457064 0.8058661
vt 0.34457064 0.8058661
vt 0.34457064 0.8058661
vt 0.34457064 0.8058661
vt 0.34457064 0.8058661
vt 0.34457064 0.8058661
vt 0.34457064 0.8058661
vt 0.34457064 0.8058661
vt 0.34457064 0.8058661
vt 0.34457064 0.8058661
vt 0.34457064 0.8058661
vt 0.34457064 0.8058661
vt 0.34457064 0.8058661
vt 0.34457064 0.8058661
vt 0.34457064 0.8058661
vt 0.34457064 0.8058661
vt 0.34457064 0.8058661
vt 0.34457064 0.8058661
vt 0.34457064 0.8058661
vt 0.34457064 0.8058661
vt 0.34457064 0.8058661
vt 0.34457064 0.8058661
vt 0.34457064 0.8058661
vt 0.34457064 0.8058661
vt 0.34457064 0.8058661
vt 0.34457064 0.8058661
vt 0.34457064 0.8058661
vt 0.34457064 0.8058661
vt 0.34457064 0.8058661
vt 0.34457064 0.8058661
vt 0.34457064 0.8058661
vt 0.34457064 0.8058661
vt 0.34457064 0.8058661
vt 0.34457064 0.8058661
vt 0.34457064 0.8058661
vt 0.34457064 0.8058661
vt 0.34457064 0.8058661
vt 0.34457064 0.8058661
vt 0.34457064 0.8058661
vt 0.34457064 0.8058661
vt 0.34457064 0.8058661
vt 0.34457064 0.8058661
vn -0.29819694 0.95408463 -0.028302202
vn -0.008728797 0.94804037 0.3180305
vn -0.5195481 0.85444117 0
vn -0.008278846 0.94180083 -0.33606943
vn -0.29819694 0.95408463 -0.028302202
vn -0 1 0
vn -0.008278846 0.94180083 -0.33606943
vn -0.5195481 0.85444117 0
vn -1 0 0
vn -1 0 0
vn -0 0 -1
vn -0 -1 0
vn -0.5195481 0.85444117 0
vn -0.5195481 0.85444117 0
vn -1 0 0
vn -0 -1 0
vn 0.28244612 0.959261 -0.0065225204
vn -0 1 0
vn -0 1 0
vn -0 1 0
vn 0.0132961795 0.9447986 0.32738158
vn -0 -1 0
vn -0 -1 0
vn -0 0 -1
vn 0.011550177 0.9425201 -0.3339497
vn 0.011550177 0.9425201 -0.3339497
vn -0.29819694 0.95408463 -0.028302202
vn -0.29819694 0.95408463 -0.028302202
vn -1 0 0
vn 0.0132961795 0.9447986 0.32738158
vn -0.008728797 0.94804037 0.3180305
vn 0.2822678 0.95900047 -0.025359098
vn 0.2822678 0.95900047 -0.025359098
vn 0.28244612 0.959261 -0.0065225204
vn -1 0 0
vn -1 0 0
vn -0 0 -1
vn -0 0 -1
vn 1 0 0
vn 1 0 0
vn 1 0 0
vn 1 0 0
vn -0 0 1
vn -0 0 1
vn -0 0 1
vn -0 0 1
vn -1 0 0
vn -1 0 0
vn -0 -1 0
vn -0 -1 0
vn 1 0 0
vn 1 0 0
vn 0.2825242 0.9591811 0.01231637
vn 0.2825242 0.9591811 0.01231637
vn -0 1 0
vn -0 1 0
vn -0 1 0
vn -0 1 0
vn 0.035313405 0.94100606 0.33654183
vn 0.035313405 0.94100606 0.33654183
vn -0 0 1
vn -0 0 1
vn -0 -1 0
vn -0 -1 0
vn -0 -1 0
vn -0 0 -1
vn -0 0 -1
vn 0.031374604 0.9428642 -0.33169696
vn 0.031374604 0.9428642 -0.33169696
vn -0 1 0
vn -0 1 0
vn -0.3022641 0.9453558 0.12222408
vn -0.3022641 0.9453558 0.12222408
vn -0.3022641 0.9453558 0.12222408
vn -0.3022641 0.9453558 0.12222408
g SM_Env_Port_Concrete_Slab_01_0
f 6/6/6 18/18/18 20/20/20
f 18/18/18 19/19/19 20/20/20
f 20/20/20 19/19/19 57/57/57
f 19/19/19 58/58/58 57/57/57
f 19/19/19 70/70/70 58/58/58
f 19/19/19 18/18/18 55/55/55
f 19/19/19 55/55/55 70/70/70
f 18/18/18 56/56/56 55/55/55
f 55/55/55 71/71/71 70/70/70
f 16/16/16 12/12/12 22/22/22
f 23/23/23 16/16/16 22/22/22
f 23/23/23 22/22/22 63/63/63
f 64/64/64 23/23/23 63/63/63
f 23/23/23 50/50/50 16/16/16
f 23/23/23 64/64/64 50/50/50
f 50/50/50 49/49/49 16/16/16
f 64/64/64 65/65/65 50/50/50
f 2/2/2 31/31/31 21/21/21
f 31/31/31 30/30/30 21/21/21
f 21/21/21 30/30/30 59/59/59
f 30/30/30 60/60/60 59/59/59
f 34/34/34 33/33/33 32/32/32
f 17/17/17 34/34/34 32/32/32
f 17/17/17 54/54/54 34/34/34
f 54/54/54 53/53/53 34/34/34
f 26/26/26 7/7/7 4/4/4
f 25/25/25 26/26/26 4/4/4
f 25/25/25 69/69/69 26/26/26
f 69/69/69 68/68/68 26/26/26
f 1/1/1 5/5/5 27/27/27
f 28/28/28 1/1/1 27/27/27
f 15/15/15 9/9/9 35/35/35
f 35/35/35 29/29/29 15/15/15
f 10/10/10 15/15/15 29/29/29
f 35/35/35 36/36/36 29/29/29
f 29/29/29 47/47/47 10/10/10
f 36/36/36 48/48/48 29/29/29
f 29/29/29 48/48/48 47/47/47
f 38/38/38 11/11/11 37/37/37
f 11/11/11 24/24/24 37/37/37
f 37/37/37 24/24/24 66/66/66
f 24/24/24 67/67/67 66/66/66
f 42/42/42 41/41/41 39/39/39
f 41/41/41 40/40/40 39/39/39
f 39/39/39 40/40/40 51/51/51
f 40/40/40 52/52/52 51/51/51
f 45/45/45 44/44/44 43/43/43
f 46/46/46 45/45/45 43/43/43
f 46/46/46 62/62/62 45/45/45
f 62/62/62 61/61/61 45/45/45
f 13/13/13 8/8/8 3/3/3
f 14/14/14 13/13/13 3/3/3
f 74/74/74 73/73/73 72/72/72
f 75/75/75 74/74/74 72/72/72
