g SM_Env_Road_Corner_01
v 4.1446095 0 7.330156
v -5.628227 0 3.5468848
v 5 0 0
v -5 0 0
v 4.8923144 -0.21063384 7.586162
v -6.256621 -0.21063384 2.9435546
v 5.7903075 -0.21063384 0
v -5.7903075 -0.21063384 0
v 4.2898583 0 0
v 3.4727538 0 7.1001368
v -4.8856153 2.2737367E-15 3.8671484
v -4.2898583 0 0
v 4.5499997 0 0
v 3.718872 0 7.1843944
v -5.085073 0 3.761162
v -4.5499997 0 0
v -4.2429295 0 13.936425
v -1.2550098 0 12.576699
v -4.130869 0 14.637666
v -0.865249 0 13.333047
v -4.006152 -0.21063384 15.418076
v -0.4163037 -0.21063384 14.041767
v -1.0707763 0 12.895137
v -4.20188 0 14.1933
v -5.869155 0 4.9226365
v -5.9805665 0 4.655254
v -10 0 5.0000095
v -10 0 15.00001
v -10 -0.21063384 4.2096972
v -10 -0.21063384 15.790312
v -10 0 5.710156
v -10 0 14.289863
v -10 0 5.45001
v -10 0 14.55001
v -8.184609 0 5
v -7.601704 0 15.00001
v -8.192876 -0.21063384 4.2096972
v -7.6155124 -0.21063384 15.790312
v -8.187099 0 5.710156
v -8.186181 0 5.45001
v -7.5992136 0 14.289863
v -7.6001267 0 14.55001
v -7.599956 0 14.50205
v 4.999995 0 2.4570508
v -4.999995 0 1.8531543
v 5.7903075 -0.21063384 2.4978418
v -5.7903075 -0.21063384 1.8085351
v 4.2898583 0 2.4186718
v 4.5499997 0 2.4327245
v -4.2898583 0 1.8915331
v -4.5499997 0 1.8774706
v 1.6606445 0 10.168262
v 1.8813866 0 10.341182
v 2.2632372 0 10.640312
v 2.9360743 -0.21063384 11.157978
v -6.307856 0 4.2851954
v -6.831587 -0.21063384 3.658574
v 3.9067626 0 6.1101756
v 3.5952 0 7.1420507
v 3.6061864 0 7.377998
v -4.619028 1.256301E-15 2.9831152
v -4.5844483 0 2.4103222
v -0.5038965 0 11.95625
v 0.060986325 0 11.489638
v -0.24799316 0 11.934707
v -3.1526318 0 13.758281
v -3.8267772 0 14.037783
v -3.6240673 0 13.81292
v -7.257153 0 14.253838
v -7.5995164 0 14.377402
v -8.152802 0 14.289863
v -7.7185006 0 5.550947
v -8.186708 0 5.5989842
v -8.555303 0 5.710156
v -0 0 0
v -0 0 2.1550977
v -0.7064307 1.1368684E-15 5.4836426
v -2.1042528 0 7.5454493
v -3.562085 0 8.749668
v -5.05604 0 9.429531
v -7.893159 0 10.00001
v -10 0 10.00001
v 4.5499997 0 2.4327245
v 4.999995 0 2.4570508
v 4.1446095 0 7.330156
v -4.999995 0 1.8531543
v -4.5499997 0 1.8774706
v 4.2898583 0 0
v 4.2898583 0 2.4186718
v -0.865249 0 13.333047
v -4.130869 0 14.637666
v -3.1526318 0 13.758281
v -5.085073 0 3.761162
v 4.1446095 0 7.330156
v 4.8923144 -0.21063384 7.586162
v 3.718872 0 7.1843944
v 4.1446095 0 7.330156
v 2.2632372 0 10.640312
v -1.2550098 0 12.576699
v -5.9805665 0 4.655254
v -8.184609 0 5
v -6.307856 0 4.2851954
v -10 0 15.00001
v -7.601704 0 15.00001
v -10 0 14.55001
v -10 0 14.289863
v -8.152802 0 14.289863
v -7.6001267 0 14.55001
v -8.184609 0 5
v -8.192876 -0.21063384 4.2096972
v -4.130869 0 14.637666
v -4.006152 -0.21063384 15.418076
v -10 0 5.0000095
v -4.130869 0 14.637666
v -5.05604 0 9.429531
v -4.2429295 0 13.936425
v -7.257153 0 14.253838
v -4.2429295 0 13.936425
v -4.20188 0 14.1933
v -4.999995 0 1.8531543
v -5.628227 0 3.5468848
v -5.7903075 -0.21063384 1.8085351
v 3.5952 0 7.1420507
v 4.5499997 0 0
v 5 0 0
v -5 0 0
v -4.5499997 0 0
v 3.4727538 0 7.1001368
v -0.7064307 1.1368684E-15 5.4836426
v 1.8813866 0 10.341182
v -0.865249 0 13.333047
v -1.0707763 0 12.895137
v -0.865249 0 13.333047
v 2.2632372 0 10.640312
v 2.9360743 -0.21063384 11.157978
v -0.4163037 -0.21063384 14.041767
v -5.628227 0 3.5468848
v -5.085073 0 3.761162
v -5.9805665 0 4.655254
v -6.307856 0 4.2851954
v -5.628227 0 3.5468848
v -6.307856 0 4.2851954
v -6.831587 -0.21063384 3.658574
v -6.256621 -0.21063384 2.9435546
v 3.4727538 0 7.1001368
v 3.9067626 0 6.1101756
v 3.5952 0 7.1420507
v 1.6606445 0 10.168262
v 3.6061864 0 7.377998
v -4.2898583 0 1.8915331
v -4.5844483 0 2.4103222
v -0.24799316 0 11.934707
v -3.6240673 0 13.81292
v -7.5995164 0 14.377402
v -8.186181 0 5.45001
v -7.7185006 0 5.550947
v -8.186708 0 5.5989842
v -10 0 5.45001
v -8.555303 0 5.710156
v -4.619028 1.256301E-15 2.9831152
v 0.060986325 0 11.489638
v -0.5038965 0 11.95625
v -3.8267772 0 14.037783
v -3.562085 0 8.749668
v -1.2550098 0 12.576699
v -1.0707763 0 12.895137
v -4.20188 0 14.1933
v -0 0 2.1550977
v -4.2898583 0 0
v -0 0 0
v -0.7064307 1.1368684E-15 5.4836426
v -4.8856153 2.2737367E-15 3.8671484
v -2.1042528 0 7.5454493
v -5.869155 0 4.9226365
v -4.8856153 2.2737367E-15 3.8671484
v -0.7064307 1.1368684E-15 5.4836426
v -3.562085 0 8.749668
v -5.05604 0 9.429531
v -5.869155 0 4.9226365
v -3.562085 0 8.749668
v -7.893159 0 10.00001
v -10 0 10.00001
v -10 0 5.710156
vt 0.74059683 0.07049528
vt 0.11030245 0.3717909
vt 0.86901104 0.9818651
vt 0.20823362 0.98186237
vt 0.85284454 0.038665384
vt 0.012345672 0.47556505
vt 0.9876543 0.9818651
vt 0.08503649 0.98186237
vt 0.009978682 0.008143097
vt 0.8238925 0.8037082
vt 0.009978682 0.008143097
vt 0.009978682 0.008143097
vt 0.009978682 0.008143097
vt 0.6766841 0.08861759
vt 0.19497189 0.3349346
vt 0.009978682 0.008143097
vt 0.18326762 0.24823302
vt 0.009978682 0.008143097
vt 0.20682403 0.14904818
vt 0.8932828 0.33357632
vt 0.23304057 0.03866449
vt 0.9876543 0.23333362
vt 0.009978682 0.008143097
vt 0.9558063 0.2754755
vt 0.009978682 0.008143097
vt 0.009978682 0.008143097
vt 0.012345195 0.7823449
vt 0.012345672 0.15585202
vt 0.012345195 0.89989316
vt 0.012345672 0.03866449
vt 0.009978682 0.008143097
vt 0.012345672 0.2611553
vt 0.012345195 0.7154136
vt 0.012345672 0.22258094
vt 0.287367 0.7823467
vt 0.402592 0.15585202
vt 0.28611454 0.89989316
vt 0.40034574 0.03866449
vt 0.2869898 0.67672044
vt 0.28712887 0.7154136
vt 0.40299755 0.2611553
vt 0.40284872 0.22258094
vt 0.009978682 0.008143097
vt 0.86901015 0.676376
vt 0.20823362 0.6631155
vt 0.9876543 0.6713046
vt 0.08503649 0.67079
vt 0.009978682 0.008143097
vt 0.009978682 0.008143097
vt 0.009978682 0.008143097
vt 0.009978682 0.008143097
vt 0.6148456 0.46556705
vt 0.6403105 0.44650924
vt 0.68436134 0.41354236
vt 0.7619804 0.35648942
vt 0.5716849 0.88866377
vt 0.49234274 0.9818642
vt 0.70489115 0.22217706
vt 0.8380178 0.7990892
vt 0.8392856 0.77308536
vt 0.26762038 0.46875942
vt 0.009978682 0.008143097
vt 0.36514184 0.26851147
vt 0.43030745 0.3199371
vt 0.009978682 0.008143097
vt 0.009978682 0.008143097
vt 0.27074605 0.2338967
vt 0.009978682 0.008143097
vt 0.45865726 0.26649842
vt 0.009978682 0.008143097
vt 0.31291848 0.2611553
vt 0.35797986 0.7004008
vt 0.28704888 0.6932561
vt 0.23120916 0.67672044
vt 0.11839688 0.9818651
vt 0.11839688 0.7139186
vt 0.34177706 0.9818642
vt 0.18052283 0.7546302
vt 0.32638717 0.98186326
vt 0.012345672 0.88570166
vt 0.35516763 0.8972711
vt 0.012345672 0.8972711
vt 0.801455 0.679401
vt 0.86901015 0.676376
vt 0.74059683 0.07049528
vt 0.20823362 0.6631155
vt 0.278381 0.6589328
vt 0.7624018 0.9818651
vt 0.7624018 0.6811478
vt 0.8932828 0.33357632
vt 0.20682403 0.14904818
vt 0.4124574 0.27343
vt 0.009978682 0.008143097
vt 0.90139854 0.7783574
vt 0.9876543 0.7501435
vt 0.852285 0.79442257
vt 0.90139854 0.7783574
vt 0.68436134 0.41354236
vt 0.81135154 0.44055718
vt 0.6212676 0.8336221
vt 0.287367 0.7823467
vt 0.5716849 0.88866377
vt 0.012345672 0.15585202
vt 0.402592 0.15585202
vt 0.009978682 0.008143097
vt 0.009978682 0.008143097
vt 0.009978682 0.008143097
vt 0.009978682 0.008143097
vt 0.287367 0.7823467
vt 0.28611454 0.89989316
vt 0.9673604 0.20958307
vt 0.98765385 0.09385991
vt 0.012345195 0.7823449
vt 0.9673604 0.20958307
vt 0.81681836 0.9818642
vt 0.9491261 0.31356412
vt 0.009978682 0.008143097
vt 0.009978682 0.008143097
vt 0.009978682 0.008143097
vt 0.20823362 0.6631155
vt 0.11030245 0.3717909
vt 0.08503649 0.67079
vt 0.65811783 0.09388238
vt 0.801455 0.9818651
vt 0.86901104 0.9818651
vt 0.20823362 0.98186237
vt 0.278381 0.98186237
vt 0.63973665 0.09909412
vt 0.012345672 0.30007514
vt 0.009978682 0.008143097
vt 0.32345587 0.11677301
vt 0.29974604 0.16503596
vt 0.32345587 0.11677301
vt 0.68436134 0.41354236
vt 0.7619804 0.35648942
vt 0.37524673 0.03866449
vt 0.20395645 0.8838541
vt 0.29044336 0.84904504
vt 0.147854 0.7038001
vt 0.09573898 0.7639158
vt 0.20395645 0.8838541
vt 0.09573898 0.7639158
vt 0.012345672 0.8657093
vt 0.10389712 0.9818642
vt 0.009978682 0.008143097
vt 0.009978682 0.008143097
vt 0.009978682 0.008143097
vt 0.009978682 0.008143097
vt 0.009978682 0.008143097
vt 0.3189336 0.6565149
vt 0.2730114 0.5672822
vt 0.39466316 0.27088532
vt 0.31335795 0.26570147
vt 0.40294826 0.24817547
vt 0.009978682 0.008143097
vt 0.009978682 0.008143097
vt 0.009978682 0.008143097
vt 0.009978682 0.008143097
vt 0.009978682 0.008143097
vt 0.009978682 0.008143097
vt 0.009978682 0.008143097
vt 0.009978682 0.008143097
vt 0.009978682 0.008143097
vt 0.012345672 0.62191176
vt 0.27849263 0.20013109
vt 0.8500793 0.39551628
vt 0.19189736 0.2119002
vt 0.9876548 0.6111816
vt 0.3189336 0.98186237
vt 0.9876548 0.98186237
vt 0.8775333 0.038662672
vt 0.22606418 0.3167034
vt 0.76507866 0.2342889
vt 0.16559336 0.66036296
vt 0.32220253 0.8318267
vt 0.9876543 0.5692287
vt 0.5329488 0.03866449
vt 0.761328 0.1235148
vt 0.6381457 0.79385316
vt 0.9876543 0.22463539
vt 0.33152008 0.03866449
vt 0.012345195 0.03866449
vt 0.012345195 0.67672044
vn 0.25581288 0.9656772 0.04502737
vn -0 1 0
vn 0.2575308 0.9662701 0
vn -0.2575308 0.9662701 0
vn 0.25581288 0.9656772 0.04502737
vn -0.24358454 0.9652892 -0.094251685
vn 0.2575308 0.9662701 0
vn -0.2575308 0.9662701 0
vn -0 1 0
vn -0 1 0
vn -0 1 0
vn -0 1 0
vn -0 1 0
vn -0 1 0
vn -0 1 0
vn -0 1 0
vn -0 1 0
vn -0 1 0
vn 0.09296103 0.96687686 0.23771298
vn 0.09296103 0.96687686 0.23771298
vn 0.09296103 0.96687686 0.23771298
vn 0.09296103 0.96687686 0.23771298
vn -0 1 0
vn -0 1 0
vn -0 1 0
vn -0 1 0
vn -0 0.96626985 -0.25753152
vn -0 0.96626955 0.25753304
vn -0 0.96626985 -0.25753152
vn -0 0.96626955 0.25753304
vn -0 1 0
vn -0 1 0
vn -0 1 0
vn -0 1 0
vn -0.097644806 0.963372 -0.24975985
vn 0.013343412 0.9662161 0.2573875
vn -0.097644806 0.963372 -0.24975985
vn 0.013343412 0.9662161 0.2573875
vn -0 1 0
vn -0 1 0
vn -0 1 0
vn -0 1 0
vn -0 1 0
vn 0.25673705 0.9662189 0.02251953
vn -0.2575308 0.9662701 0
vn 0.25673705 0.9662189 0.02251953
vn -0.2575308 0.9662701 0
vn -0 1 0
vn -0 1 0
vn -0 1 0
vn -0 1 0
vn -0 1 0
vn -0 1 0
vn 0.22012708 0.9677172 0.12275003
vn 0.22012708 0.9677172 0.12275003
vn -0.097644806 0.963372 -0.24975985
vn -0.097644806 0.963372 -0.24975985
vn -0 1 0
vn -0 1 0
vn -0 1 0
vn -0 1 0
vn -0 1 0
vn -0 1 0
vn -0 1 0
vn -0 1 0
vn -0 1 0
vn -0 1 0
vn -0 1 0
vn -0 1 0
vn -0 1 0
vn -0 1 0
vn -0 1 0
vn -0 1 0
vn -0 1 0
vn -0 1 0
vn -0 1 0
vn -0 1 0
vn -0 1 0
vn -0 1 0
vn -0 1 0
vn -0 1 0
vn -0 1 0
vn -0 1 0
vn -0 1 0
vn -0 1 0
vn -0 1 0
vn -0 1 0
vn -0 1 0
vn -0 1 0
vn -0 1 0
vn -0 1 0
vn -0 1 0
vn -0 1 0
vn 0.22012708 0.9677172 0.12275003
vn 0.22012708 0.9677172 0.12275003
vn -0 1 0
vn -0 1 0
vn -0 1 0
vn -0 1 0
vn -0 1 0
vn -0 1 0
vn -0 1 0
vn -0 1 0
vn -0 1 0
vn -0 1 0
vn -0 1 0
vn -0 1 0
vn -0 1 0
vn -0 0.96626985 -0.25753152
vn -0 0.96626985 -0.25753152
vn 0.026684452 0.9659908 0.25719607
vn 0.026684452 0.9659908 0.25719607
vn -0 1 0
vn -0 1 0
vn -0 1 0
vn -0 1 0
vn -0 1 0
vn -0 1 0
vn -0 1 0
vn -0.24358454 0.9652892 -0.094251685
vn -0.24358454 0.9652892 -0.094251685
vn -0.24358454 0.9652892 -0.094251685
vn -0 1 0
vn -0 1 0
vn -0 1 0
vn -0 1 0
vn -0 1 0
vn -0 1 0
vn -0 1 0
vn -0 1 0
vn -0 1 0
vn -0 1 0
vn 0.16032012 0.9693207 0.1863191
vn 0.16032012 0.9693207 0.1863191
vn 0.16032012 0.9693207 0.1863191
vn 0.16032012 0.9693207 0.1863191
vn -0 1 0
vn -0 1 0
vn -0 1 0
vn -0 1 0
vn -0.18454292 0.96982735 -0.15930763
vn -0.18454292 0.96982735 -0.15930763
vn -0.18454292 0.96982735 -0.15930763
vn -0.18454292 0.96982735 -0.15930763
vn -0 1 0
vn -0 1 0
vn -0 1 0
vn -0 1 0
vn -0 1 0
vn -0 1 0
vn -0 1 0
vn -0 1 0
vn -0 1 0
vn -0 1 0
vn -0 1 0
vn -0 1 0
vn -0 1 0
vn -0 1 0
vn -0 1 0
vn -0 1 0
vn -0 1 0
vn -0 1 0
vn -0 1 0
vn -0 1 0
vn -0 1 0
vn -0 1 0
vn -0 1 0
vn -0 1 0
vn -0 1 0
vn -0 1 0
vn -0 1 0
vn -0 1 0
vn -0 1 0
vn -0 1 0
vn -0 1 0
vn -0 1 0
vn -0 1 0
vn -0 1 0
vn -0 1 0
vn -0 1 0
vn -0 1 0
vn -0 1 0
vn -0 1 0
g SM_Env_Road_Corner_01_0
f 5/5/5 46/46/46 1/1/1
f 46/46/46 44/44/44 1/1/1
f 46/46/46 7/7/7 44/44/44
f 7/7/7 3/3/3 44/44/44
f 47/47/47 45/45/45 4/4/4
f 8/8/8 47/47/47 4/4/4
f 49/49/49 13/13/13 9/9/9
f 48/48/48 49/49/49 9/9/9
f 49/49/49 48/48/48 145/145/145
f 145/145/145 146/146/146 49/49/49
f 145/145/145 147/147/147 146/146/146
f 147/147/147 145/145/145 148/148/148
f 148/148/148 149/149/149 147/147/147
f 148/148/148 130/130/130 149/149/149
f 65/65/65 130/130/130 148/148/148
f 161/161/161 65/65/65 148/148/148
f 65/65/65 23/23/23 130/130/130
f 65/65/65 162/162/162 23/23/23
f 162/162/162 18/18/18 23/23/23
f 18/18/18 68/68/68 23/23/23
f 68/68/68 66/66/66 23/23/23
f 18/18/18 118/118/118 68/68/68
f 118/118/118 119/119/119 68/68/68
f 119/119/119 163/163/163 68/68/68
f 119/119/119 118/118/118 117/117/117
f 117/117/117 108/108/108 119/119/119
f 117/117/117 43/43/43 108/108/108
f 117/117/117 70/70/70 43/43/43
f 105/105/105 108/108/108 43/43/43
f 105/105/105 43/43/43 70/70/70
f 105/105/105 70/70/70 107/107/107
f 107/107/107 106/106/106 105/105/105
f 2/2/2 15/15/15 86/86/86
f 15/15/15 87/87/87 86/86/86
f 86/86/86 87/87/87 126/126/126
f 87/87/87 127/127/127 126/126/126
f 75/75/75 76/76/76 88/88/88
f 76/76/76 89/89/89 88/88/88
f 76/76/76 129/129/129 89/89/89
f 129/129/129 128/128/128 89/89/89
f 16/16/16 51/51/51 12/12/12
f 51/51/51 50/50/50 12/12/12
f 62/62/62 50/50/50 51/51/51
f 93/93/93 62/62/62 51/51/51
f 93/93/93 11/11/11 62/62/62
f 11/11/11 160/160/160 62/62/62
f 93/93/93 26/26/26 11/11/11
f 26/26/26 25/25/25 11/11/11
f 25/25/25 26/26/26 155/155/155
f 155/155/155 156/156/156 25/25/25
f 155/155/155 157/157/157 156/156/156
f 31/31/31 157/157/157 155/155/155
f 155/155/155 158/158/158 31/31/31
f 31/31/31 159/159/159 157/157/157
f 20/20/20 19/19/19 21/21/21
f 22/22/22 20/20/20 21/21/21
f 77/77/77 78/78/78 10/10/10
f 78/78/78 52/52/52 10/10/10
f 64/64/64 52/52/52 78/78/78
f 64/64/64 78/78/78 164/164/164
f 164/164/164 63/63/63 64/64/64
f 152/152/152 64/64/64 63/63/63
f 164/164/164 165/165/165 63/63/63
f 95/95/95 94/94/94 54/54/54
f 55/55/55 95/95/95 54/54/54
f 60/60/60 96/96/96 59/59/59
f 97/97/97 96/96/96 60/60/60
f 60/60/60 98/98/98 97/97/97
f 60/60/60 53/53/53 98/98/98
f 98/98/98 53/53/53 131/131/131
f 53/53/53 132/132/132 131/131/131
f 80/80/80 17/17/17 99/99/99
f 79/79/79 80/80/80 99/99/99
f 37/37/37 35/35/35 56/56/56
f 57/57/57 37/37/37 56/56/56
f 30/30/30 38/38/38 28/28/28
f 38/38/38 36/36/36 28/28/28
f 38/38/38 112/112/112 36/36/36
f 112/112/112 111/111/111 36/36/36
f 102/102/102 101/101/101 100/100/100
f 101/101/101 40/40/40 100/100/100
f 101/101/101 113/113/113 40/40/40
f 113/113/113 33/33/33 40/40/40
f 42/42/42 34/34/34 103/103/103
f 104/104/104 42/42/42 103/103/103
f 42/42/42 104/104/104 24/24/24
f 104/104/104 114/114/114 24/24/24
f 81/81/81 82/82/82 32/32/32
f 32/32/32 41/41/41 81/81/81
f 32/32/32 71/71/71 41/41/41
f 154/154/154 41/41/41 71/71/71
f 69/69/69 41/41/41 154/154/154
f 81/81/81 41/41/41 69/69/69
f 81/81/81 69/69/69 116/116/116
f 116/116/116 115/115/115 81/81/81
f 29/29/29 27/27/27 109/109/109
f 110/110/110 29/29/29 109/109/109
f 6/6/6 121/121/121 120/120/120
f 122/122/122 6/6/6 120/120/120
f 123/123/123 14/14/14 58/58/58
f 58/58/58 14/14/14 85/85/85
f 58/58/58 85/85/85 84/84/84
f 84/84/84 83/83/83 58/58/58
f 84/84/84 125/125/125 83/83/83
f 125/125/125 124/124/124 83/83/83
f 135/135/135 134/134/134 133/133/133
f 136/136/136 135/135/135 133/133/133
f 139/139/139 138/138/138 137/137/137
f 140/140/140 139/139/139 137/137/137
f 143/143/143 142/142/142 141/141/141
f 144/144/144 143/143/143 141/141/141
f 151/151/151 61/61/61 150/150/150
f 150/150/150 61/61/61 168/168/168
f 169/169/169 150/150/150 168/168/168
f 170/170/170 169/169/169 168/168/168
f 168/168/168 61/61/61 171/171/171
f 61/61/61 172/172/172 171/171/171
f 153/153/153 67/67/67 92/92/92
f 92/92/92 67/67/67 90/90/90
f 166/166/166 92/92/92 90/90/90
f 67/67/67 91/91/91 90/90/90
f 67/67/67 167/167/167 91/91/91
f 176/176/176 175/175/175 173/173/173
f 175/175/175 174/174/174 173/173/173
f 177/177/177 173/173/173 174/174/174
f 180/180/180 179/179/179 178/178/178
f 178/178/178 179/179/179 72/72/72
f 72/72/72 39/39/39 178/178/178
f 39/39/39 181/181/181 178/178/178
f 72/72/72 73/73/73 39/39/39
f 182/182/182 181/181/181 39/39/39
f 74/74/74 39/39/39 73/73/73
f 182/182/182 39/39/39 74/74/74
f 74/74/74 183/183/183 182/182/182
