g SM_Env_Road_Straight_03_Dirt
v -10 -0.6706734 5.001525
v 10 -0.6706734 5.001525
v -10 -0.6706734 1.8310546E-06
v 10 -0.6706734 1.8310546E-06
v 4.5910525 -0.092048414 1.8310546E-06
v 4.5910525 -0.092048414 5.001525
v -4.591052 -0.092048414 1.8310546E-06
v -4.591052 -0.092048414 5.001525
v 6.6570263 -0.1315015 1.8310546E-06
v 6.6570263 -0.1315015 5.001525
v -6.6570263 -0.1315015 1.8310546E-06
v -6.6570263 -0.1315015 5.001525
v 10.113364 -0.6706734 1.3781842
v 6.8270907 -0.0969746 1.3933746
v 4.761117 -0.057521515 1.3933746
v -4.45066 -0.11797252 3.498348
v -6.3983436 -0.15742561 3.498348
v -9.881709 -0.6706734 3.498348
v 6.8270907 -0.0969746 1.3933746
v 6.6570263 -0.1315015 5.001525
v -6.3983436 -0.15742561 3.498348
v -6.6570263 -0.1315015 5.001525
v 6.6570263 -0.1315015 1.8310546E-06
v -6.6570263 -0.1315015 1.8310546E-06
vt 0.1687248 0.211267
vt 0.16872479 0.211267
vt 0.1687248 0.211267
vt 0.16872479 0.211267
vt 0.16872479 0.211267
vt 0.16872479 0.211267
vt 0.1687248 0.211267
vt 0.1687248 0.211267
vt 0.16872479 0.211267
vt 0.16872479 0.211267
vt 0.1687248 0.211267
vt 0.1687248 0.211267
vt 0.16872479 0.211267
vt 0.16872479 0.211267
vt 0.16872479 0.211267
vt 0.1687248 0.211267
vt 0.1687248 0.211267
vt 0.1687248 0.211267
vt 0.16872479 0.211267
vt 0.16872479 0.211267
vt 0.1687248 0.211267
vt 0.1687248 0.211267
vt 0.16872479 0.211267
vt 0.1687248 0.211267
vn -0.15231211 0.98794645 -0.02761791
vn 0.16557084 0.98613435 0.0111976685
vn -0.1523595 0.98825383 0.011870616
vn 0.1654206 0.98579085 -0.029197106
vn 0.019086117 0.9994506 -0.027095264
vn 0.01909208 0.99976295 0.010466748
vn -0.01965491 0.99977046 0.008529759
vn -0.01965175 0.9996099 -0.019848133
vn 0.1654206 0.98579085 -0.029197106
vn 0.16557084 0.98613435 0.0111976685
vn -0.01965491 0.99977046 0.008529759
vn -0.01965175 0.9996099 -0.019848133
vn 0.16552947 0.9861638 -0.009001555
vn 0.16552947 0.9861638 -0.009001555
vn 0.019092463 0.9997832 -0.008315725
vn -0.019655306 0.99979085 -0.0056597567
vn -0.019655306 0.99979085 -0.0056597567
vn -0.15236554 0.9882929 -0.0078751845
vn 0.019092463 0.9997832 -0.008315725
vn 0.01909208 0.99976295 0.010466748
vn -0.15236554 0.9882929 -0.0078751845
vn -0.15231211 0.98794645 -0.02761791
vn 0.019086117 0.9994506 -0.027095264
vn -0.1523595 0.98825383 0.011870616
g SM_Env_Road_Straight_03_Dirt_0
f 10/10/10 2/2/2 13/13/13
f 14/14/14 10/10/10 13/13/13
f 14/14/14 13/13/13 9/9/9
f 13/13/13 4/4/4 9/9/9
f 12/12/12 8/8/8 16/16/16
f 17/17/17 12/12/12 16/16/16
f 17/17/17 16/16/16 11/11/11
f 16/16/16 7/7/7 11/11/11
f 6/6/6 20/20/20 19/19/19
f 15/15/15 6/6/6 19/19/19
f 15/15/15 19/19/19 5/5/5
f 19/19/19 23/23/23 5/5/5
f 22/22/22 21/21/21 1/1/1
f 21/21/21 18/18/18 1/1/1
f 21/21/21 24/24/24 18/18/18
f 24/24/24 3/3/3 18/18/18
