g SM_Env_Road_Straight_03
v -5 0 0
v 5 0 0
v -5 0 5
v 5 0 5
v -5.790308 -0.21063384 0
v 5.7903075 -0.21063384 0
v -5.790308 -0.21063384 5
v 5.7903075 -0.21063384 5
v -4.289856 0 5
v -4.289856 0 0
v 4.289856 0 0
v 4.289856 0 5
v -4.5499997 0 5
v -4.5499997 0 0
v 4.5499997 0 0
v 4.5499997 0 5
v -4.5499997 0 4.5720067
v -4.5499997 0 3.6267235
v -4.462883 0 4.1048093
v 4.5499997 0 1.6252588
v 4.5499997 0 2.7531786
v 4.4371653 0 2.3926318
v -0 0 0
v -0 0 5
v -5 0 5
v -5 0 0
v 4.5499997 0 1.6252588
v 5 0 0
v 5 0 5
v -4.462883 0 4.1048093
v -4.5499997 0 3.6267235
v -4.5499997 0 0
v -4.5499997 0 5
v -4.5499997 0 4.5720067
v 4.289856 0 0
v 4.4371653 0 2.3926318
v 4.289856 0 5
v 4.5499997 0 2.7531786
v 4.5499997 0 0
v 4.5499997 0 5
v -4.289856 0 5
v -4.289856 0 0
v -0 0 0
v -0 0 5
vt 0.14546373 0.98710775
vt 0.8545364 0.98710775
vt 0.14546373 0.028051823
vt 0.8545364 0.028051823
vt 0.012345672 0.98710775
vt 0.9876543 0.98710775
vt 0.012345672 0.028051823
vt 0.9876543 0.028051823
vt 0.009744212 0.00785014
vt 0.009744212 0.00785014
vt 0.009736583 0.00785014
vt 0.734921 0.028051823
vt 0.22126088 0.028051823
vt 0.22126088 0.98710775
vt 0.009736583 0.00785014
vt 0.009736583 0.00785014
vt 0.22126088 0.11014599
vt 0.22126088 0.29146165
vt 0.009744212 0.00785014
vt 0.009736583 0.00785014
vt 0.7787392 0.45901674
vt 0.009736583 0.00785014
vt 0.012345672 0.98710775
vt 0.012345672 0.028051823
vt 0.14546373 0.028051823
vt 0.14546373 0.98710775
vt 0.7787392 0.6753645
vt 0.8545364 0.98710775
vt 0.8545364 0.028051823
vt 0.23593467 0.1997593
vt 0.009744212 0.00785014
vt 0.009744212 0.00785014
vt 0.009744212 0.00785014
vt 0.009744212 0.00785014
vt 0.734921 0.98710775
vt 0.7597335 0.52817446
vt 0.009736583 0.00785014
vt 0.009736583 0.00785014
vt 0.7787392 0.98710775
vt 0.7787392 0.028051823
vt 0.26507902 0.028051823
vt 0.26507902 0.98710775
vt 0.9876543 0.98710775
vt 0.9876543 0.028051823
vn -0.25753137 0.96626997 0
vn 0.25753152 0.96626985 0
vn -0.25753137 0.96626997 0
vn 0.25753152 0.96626985 0
vn -0.25753137 0.96626997 0
vn 0.25753152 0.96626985 0
vn -0.25753137 0.96626997 0
vn 0.25753152 0.96626985 0
vn -0 1 0
vn -0 1 0
vn -0 1 0
vn -0 1 0
vn -0 1 0
vn -0 1 0
vn -0 1 0
vn -0 1 0
vn -0 1 0
vn -0 1 0
vn -0 1 0
vn -0 1 0
vn -0 1 0
vn -0 1 0
vn -0 1 0
vn -0 1 0
vn -0 1 0
vn -0 1 0
vn -0 1 0
vn -0 1 0
vn -0 1 0
vn -0 1 0
vn -0 1 0
vn -0 1 0
vn -0 1 0
vn -0 1 0
vn -0 1 0
vn -0 1 0
vn -0 1 0
vn -0 1 0
vn -0 1 0
vn -0 1 0
vn -0 1 0
vn -0 1 0
vn -0 1 0
vn -0 1 0
g SM_Env_Road_Straight_03_0
f 7/7/7 3/3/3 1/1/1
f 5/5/5 7/7/7 1/1/1
f 6/6/6 2/2/2 4/4/4
f 8/8/8 6/6/6 4/4/4
f 20/20/20 15/15/15 11/11/11
f 22/22/22 20/20/20 11/11/11
f 22/22/22 11/11/11 37/37/37
f 22/22/22 37/37/37 16/16/16
f 38/38/38 22/22/22 16/16/16
f 14/14/14 26/26/26 25/25/25
f 25/25/25 18/18/18 14/14/14
f 25/25/25 17/17/17 18/18/18
f 30/30/30 18/18/18 17/17/17
f 25/25/25 13/13/13 17/17/17
f 32/32/32 31/31/31 19/19/19
f 10/10/10 32/32/32 19/19/19
f 9/9/9 10/10/10 19/19/19
f 9/9/9 19/19/19 33/33/33
f 19/19/19 34/34/34 33/33/33
f 12/12/12 35/35/35 23/23/23
f 24/24/24 12/12/12 23/23/23
f 36/36/36 21/21/21 27/27/27
f 28/28/28 27/27/27 21/21/21
f 28/28/28 39/39/39 27/27/27
f 29/29/29 28/28/28 21/21/21
f 29/29/29 21/21/21 40/40/40
f 43/43/43 42/42/42 41/41/41
f 44/44/44 43/43/43 41/41/41
