g SM_Env_Road_Straight_01
v -5 0 5
v 5 0 5
v -5 0 -0.0015234374
v 5 0 -0.0015234374
v -5.790308 -0.21063384 5
v 5.7903075 -0.21063384 5
v -5.790308 -0.21063384 -0.0015234374
v 5.7903075 -0.21063384 -0.0015234374
v -4.289856 0 -0.0015234374
v -4.289856 0 5
v 4.289856 0 5
v 4.289856 0 -0.0015234374
v -4.5499997 0 -0.0015234374
v -4.5499997 0 5
v 4.5499997 0 5
v 4.5499997 0 -0.0015234374
v 4.5499997 0 1.4532909
v 4.5499997 0 0.4454736
v 4.476062 0 1.0050244
v 4.289856 0 3.1801903
v 4.289856 0 3.9703417
v 4.362323 0 3.6041746
v 4.5499997 0 4.7194967
v 4.5499997 0 4.3902783
v 4.4971514 0 4.5052295
v -4.289856 0 2.0928514
v -4.289856 0 0.9969336
v -4.4222336 0 1.5000292
v -0 0 -0.0015234374
v -0 0 0
v -0 0 5
v -5 0 5
v -5 0 -0.0015234374
v -4.5499997 0 -0.0015234374
v 4.5499997 0 0.4454736
v 4.5499997 0 -0.0015234374
v 5 0 -0.0015234374
v 4.289856 0 -0.0015234374
v 4.476062 0 1.0050244
v 4.362323 0 3.6041746
v 4.5499997 0 1.4532909
v 4.5499997 0 4.3902783
v 4.4971514 0 4.5052295
v 4.289856 0 3.1801903
v 4.5499997 0 4.7194967
v 4.289856 0 3.9703417
v -4.289856 0 0.9969336
v -4.4222336 0 1.5000292
v -4.289856 0 2.0928514
v -4.5499997 0 5
v 4.289856 0 -0.0015234374
v -0 0 0
v 4.289856 0 5
v 5 0 5
v 4.5499997 0 5
v -4.289856 0 -0.0015234374
v -0 0 -0.0015234374
v -0 0 0
v -0 0 5
v -4.289856 0 5
vt 0.14546373 0.023946337
vt 0.8545364 0.023946337
vt 0.14546373 0.98267204
vt 0.8545364 0.98267204
vt 0.012345672 0.023946337
vt 0.9876543 0.023946337
vt 0.012345672 0.98267204
vt 0.9876543 0.98267204
vt 0.009234086 0.005460548
vt 0.009234086 0.005460548
vt 0.009226456 0.005460548
vt 0.009226456 0.005460548
vt 0.009234086 0.005460548
vt 0.22126088 0.023946337
vt 0.009226456 0.005460548
vt 0.009226456 0.005460548
vt 0.7787392 0.7037181
vt 0.009226456 0.005460548
vt 0.009226456 0.005460548
vt 0.734921 0.37259364
vt 0.734921 0.22108576
vt 0.74712723 0.29129672
vt 0.7787392 0.077439085
vt 0.7787392 0.140565
vt 0.7698375 0.1185237
vt 0.26507902 0.5810861
vt 0.009234086 0.005460548
vt 0.009234086 0.005460548
vt 0.11306393 0.2443341
vt 0.012345672 0.9823795
vt 0.012345672 0.023946337
vt 0.14546373 0.023946337
vt 0.14546373 0.98267204
vt 0.22126088 0.98267204
vt 0.7787392 0.8969626
vt 0.7787392 0.98267204
vt 0.8545364 0.98267204
vt 0.734921 0.98267204
vt 0.7662853 0.7896717
vt 0.009226456 0.005460548
vt 0.009226456 0.005460548
vt 0.009226456 0.005460548
vt 0.009226456 0.005460548
vt 0.009226456 0.005460548
vt 0.009226456 0.005460548
vt 0.009226456 0.005460548
vt 0.26507902 0.7912223
vt 0.24278167 0.69475704
vt 0.009234086 0.005460548
vt 0.009234086 0.005460548
vt 0.11306393 0.2443341
vt 0.11306393 0.2443341
vt 0.734921 0.023946337
vt 0.8545364 0.023946337
vt 0.7787392 0.023946337
vt 0.26507902 0.98267204
vt 0.9876543 0.98267204
vt 0.9876543 0.9823795
vt 0.9876543 0.023946337
vt 0.26507902 0.023946337
vn -0.25753137 0.96626997 0
vn 0.25753152 0.96626985 0
vn -0.25753137 0.96626997 0
vn 0.25753152 0.96626985 0
vn -0.25753137 0.96626997 0
vn 0.25753152 0.96626985 0
vn -0.25753137 0.96626997 0
vn 0.25753152 0.96626985 0
vn -0 1 0
vn -0 1 0
vn -0 1 0
vn -0 1 0
vn -0 1 0
vn -0 1 0
vn -0 1 0
vn -0 1 0
vn -0 1 0
vn -0 1 0
vn -0 1 0
vn -0 1 0
vn -0 1 0
vn -0 1 0
vn -0 1 0
vn -0 1 0
vn -0 1 0
vn -0 1 0
vn -0 1 0
vn -0 1 0
vn -0 1 0
vn -0 1 0
vn -0 1 0
vn -0 1 0
vn -0 1 0
vn -0 1 0
vn -0 1 0
vn -0 1 0
vn -0 1 0
vn -0 1 0
vn -0 1 0
vn -0 1 0
vn -0 1 0
vn -0 1 0
vn -0 1 0
vn -0 1 0
vn -0 1 0
vn -0 1 0
vn -0 1 0
vn -0 1 0
vn -0 1 0
vn -0 1 0
vn -0 1 0
vn -0 1 0
vn -0 1 0
vn -0 1 0
vn -0 1 0
vn -0 1 0
vn -0 1 0
vn -0 1 0
vn -0 1 0
vn -0 1 0
g SM_Env_Road_Straight_01_0
f 52/52/52 51/51/51 29/29/29
f 7/7/7 5/5/5 1/1/1
f 3/3/3 7/7/7 1/1/1
f 6/6/6 8/8/8 4/4/4
f 2/2/2 6/6/6 4/4/4
f 27/27/27 9/9/9 13/13/13
f 28/28/28 27/27/27 13/13/13
f 50/50/50 28/28/28 13/13/13
f 50/50/50 10/10/10 28/28/28
f 10/10/10 49/49/49 28/28/28
f 18/18/18 16/16/16 12/12/12
f 19/19/19 18/18/18 12/12/12
f 40/40/40 19/19/19 12/12/12
f 44/44/44 40/40/40 12/12/12
f 41/41/41 19/19/19 40/40/40
f 40/40/40 42/42/42 41/41/41
f 40/40/40 43/43/43 42/42/42
f 40/40/40 46/46/46 43/43/43
f 46/46/46 11/11/11 43/43/43
f 11/11/11 15/15/15 43/43/43
f 15/15/15 45/45/45 43/43/43
f 34/34/34 33/33/33 32/32/32
f 14/14/14 34/34/34 32/32/32
f 37/37/37 36/36/36 35/35/35
f 17/17/17 37/37/37 35/35/35
f 39/39/39 17/17/17 35/35/35
f 17/17/17 24/24/24 37/37/37
f 24/24/24 54/54/54 37/37/37
f 24/24/24 23/23/23 54/54/54
f 23/23/23 55/55/55 54/54/54
f 25/25/25 23/23/23 24/24/24
f 20/20/20 38/38/38 30/30/30
f 21/21/21 20/20/20 30/30/30
f 22/22/22 20/20/20 21/21/21
f 31/31/31 21/21/21 30/30/30
f 53/53/53 21/21/21 31/31/31
f 48/48/48 26/26/26 47/47/47
f 47/47/47 26/26/26 58/58/58
f 58/58/58 57/57/57 47/47/47
f 57/57/57 56/56/56 47/47/47
f 26/26/26 59/59/59 58/58/58
f 26/26/26 60/60/60 59/59/59
