g SM_Env_StormCanal_Divider_01
v -0.27829865 6.9643624E-09 -4.000003
v -0.27829862 -2.5 -3.6358833E-06
v -0.27829865 -2.5 -4.000003
v -0.27829865 -2.5 -4.000003
v -0.27829862 -2.5 -3.6358833E-06
v -0.27829865 6.9643624E-09 -4.000003
v -0.27829865 0.31926203 -4.000003
v -0.27829862 -2.1807377 -3.6358833E-06
v 0.27829865 6.9643624E-09 -4.000003
v 0.27829865 -2.5 -4.000003
v 0.27829865 -2.5 -4.000003
v 0.27829865 -2.5 -3.6358833E-06
v 0.27829865 -2.5 -3.6358833E-06
v 0.27829865 -2.1807377 -3.6358833E-06
v 0.27829865 0.31926203 -4.000003
v 0.27829865 6.9643624E-09 -4.000003
v 0.27829865 -2.5 -3.6358833E-06
v 0.27829865 -2.5 -4.000003
v -0.27829865 -2.5 -4.000003
v -0.27829862 -2.5 -3.6358833E-06
v 0.27829865 -2.5 -4.000003
v 0.27829865 -2.5 -4.000003
v -0.27829865 -2.5 -4.000003
v -0.27829865 -2.5 -4.000003
v 0.27829865 -2.5 -4.000003
v -0.27829865 6.9643624E-09 -4.000003
v -0.27829865 -2.5 -4.000003
v 0.27829865 6.9643624E-09 -4.000003
v -0.27829865 0.31926203 -4.000003
v 0.27829865 0.31926203 -4.000003
v 0.27829865 0.31926203 -4.000003
v 0.27829865 -2.1807377 -3.6358833E-06
v -0.27829862 -2.1807377 -3.6358833E-06
v -0.27829865 0.31926203 -4.000003
v 0.27829865 -2.1807377 -3.6358833E-06
v 0.27829865 -2.5 -3.6358833E-06
v -0.27829862 -2.5 -3.6358833E-06
v -0.27829862 -2.1807377 -3.6358833E-06
vt 0.10240978 0.29907638
vt 0.10240978 0.2873346
vt 0.10240978 0.2873346
vt 0.10240978 0.2873346
vt 0.10240975 0.2873346
vt 0.10240972 0.29907638
vt 0.10240972 0.29907632
vt 0.10240975 0.28733453
vt 0.10240978 0.29907638
vt 0.10240978 0.2873346
vt 0.10240978 0.2873346
vt 0.10240978 0.2873346
vt 0.10240975 0.2873346
vt 0.10240975 0.28733453
vt 0.10240972 0.29907632
vt 0.10240972 0.29907638
vt 0.10240978 0.2873346
vt 0.10240978 0.2873346
vt 0.10240978 0.2873346
vt 0.10240978 0.2873346
vt 0.10240978 0.2873346
vt 0.10240978 0.2873346
vt 0.10240978 0.2873346
vt 0.10240978 0.2873346
vt 0.10240978 0.2873346
vt 0.10240978 0.29907638
vt 0.10240978 0.2873346
vt 0.10240978 0.29907638
vt 0.10240972 0.29907632
vt 0.10240972 0.29907632
vt 0.10240972 0.29907632
vt 0.10240975 0.28733453
vt 0.10240975 0.28733453
vt 0.10240972 0.29907632
vt 0.10240975 0.28733453
vt 0.10240975 0.2873346
vt 0.10240975 0.2873346
vt 0.10240975 0.28733453
vn -1 0 0
vn -1 0 0
vn -1 0 0
vn -1 0 0
vn -1 0 0
vn -1 0 0
vn -1 0 0
vn -1 0 0
vn 1 0 0
vn 1 0 0
vn 1 0 0
vn 1 0 0
vn 1 0 0
vn 1 0 0
vn 1 0 0
vn 1 0 0
vn -0 -1 0
vn -0 -1 0
vn -0 -1 0
vn -0 -1 0
vn -0 1 0
vn -0 1 0
vn -0 1 0
vn -0 1 0
vn -0 0 -1
vn -0 0 -1
vn -0 0 -1
vn -0 0 -1
vn -0 0 -1
vn -0 0 -1
vn -0 0.84799826 0.529999
vn -0 0.84799826 0.529999
vn -0 0.84799826 0.529999
vn -0 0.84799826 0.529999
vn -0 0 1
vn -0 0 1
vn -0 0 1
vn -0 0 1
g SM_Env_StormCanal_Divider_01_0
f 3/3/3 2/2/2 1/1/1
f 4/4/4 3/3/3 1/1/1
f 7/7/7 6/6/6 5/5/5
f 8/8/8 7/7/7 5/5/5
f 11/11/11 10/10/10 9/9/9
f 12/12/12 11/11/11 9/9/9
f 15/15/15 14/14/14 13/13/13
f 16/16/16 15/15/15 13/13/13
f 19/19/19 18/18/18 17/17/17
f 20/20/20 19/19/19 17/17/17
f 23/23/23 22/22/22 21/21/21
f 24/24/24 23/23/23 21/21/21
f 27/27/27 26/26/26 25/25/25
f 26/26/26 28/28/28 25/25/25
f 26/26/26 29/29/29 28/28/28
f 29/29/29 30/30/30 28/28/28
f 33/33/33 32/32/32 31/31/31
f 34/34/34 33/33/33 31/31/31
f 37/37/37 36/36/36 35/35/35
f 38/38/38 37/37/37 35/35/35
