g SM_Env_Road_Corner_01_Dirt
v -7.566113 -0.6706734 20.465614
v -10 -0.6706734 0
v -10 -0.6706734 20.00001
v -10 -0.092048414 5.408955
v -6.7537255 -0.092048414 5.026328
v -10 -0.092048414 14.591064
v -7.601704 -0.092048414 14.591064
v -10 -0.1315015 3.3429785
v -8.017768 -0.1315015 2.9110253
v -10 -0.1315015 16.65703
v -7.566113 -0.1315015 17.122637
v -10 -0.6706734 9.765625E-06
v 10 -0.6706734 2.5944335
v 10 -0.6706734 0
v 4.5910497 -0.092048414 0
v 4.5910544 -0.092048414 2.5944335
v -4.5910544 -0.092048414 0
v 6.6570263 -0.1315015 0
v 6.6570263 -0.1315015 2.5944335
v -6.6570263 -0.1315015 0
v 3.7574413 -0.092048414 7.2248535
v 6.055571 -0.1315015 8.042754
v 9.160522 -0.6706734 9.151611
v 1.9008447 -0.092048414 10.445273
v 3.7276123 -0.1315015 12.617383
v 6.3401413 -0.6706734 14.551601
v -1.0157177 -0.092048414 13.071943
v 0.048950195 -0.1315015 14.842451
v 1.8691162 -0.6706734 17.447344
v -4.119658 -0.092048414 14.441982
v -3.8591747 -0.1315015 16.491455
v -3.374204 -0.6706734 19.53208
v -4.929888 -0.092048414 3.0309277
v -7.0133004 -0.1315015 1.871084
v 9.860209 -0.62370855 5.564814
v 6.6752977 -0.084536664 4.828467
v 4.037485 -0.092048414 5.6693063
v -0.29638672 -0.71663654 17.882011
v -1.587168 -0.1774647 15.104355
v -2.2463818 -0.092048414 13.615147
v -10 -0.1315015 3.3429785
v -8.017768 -0.1315015 2.9110253
v -10 -0.1315015 16.65703
v -7.566113 -0.1315015 17.122637
v 6.6570263 -0.1315015 0
v 6.6570263 -0.1315015 2.5944335
v -7.0133004 -0.1315015 1.871084
v -8.017768 -0.1315015 2.9110253
v 6.055571 -0.1315015 8.042754
v 6.6752977 -0.084536664 4.828467
v 3.7276123 -0.1315015 12.617383
v 6.3401413 -0.6706734 14.551601
v 0.048950195 -0.1315015 14.842451
v 3.7276123 -0.1315015 12.617383
v -3.8591747 -0.1315015 16.491455
v -1.587168 -0.1774647 15.104355
v -3.374204 -0.6706734 19.53208
v -7.566113 -0.6706734 20.465614
v -7.566113 -0.1315015 17.122637
v -3.8591747 -0.1315015 16.491455
v -10 -0.6706734 9.765625E-06
v -6.6570263 -0.1315015 0
v -7.0133004 -0.1315015 1.871084
v 9.860209 -0.62370855 5.564814
v 6.6752977 -0.084536664 4.828467
v 1.8691162 -0.6706734 17.447344
v -0.29638672 -0.71663654 17.882011
v -1.587168 -0.1774647 15.104355
v 0.048950195 -0.1315015 14.842451
vt 0.16848648 0.21112075
vt 0.1684902 0.21114132
vt 0.16848648 0.21112075
vt 0.1684902 0.21114132
vt 0.1684902 0.21114132
vt 0.16848648 0.21112075
vt 0.16848648 0.21112075
vt 0.1684902 0.21114132
vt 0.1684902 0.21114132
vt 0.16848648 0.21112075
vt 0.16848648 0.21112075
vt 0.1684902 0.21114132
vt 0.1684902 0.21114132
vt 0.1684902 0.21114132
vt 0.1684902 0.21114132
vt 0.1684902 0.21114132
vt 0.1684902 0.21114132
vt 0.1684902 0.21114132
vt 0.1684902 0.21114132
vt 0.1684902 0.21114132
vt 0.16848648 0.21112075
vt 0.16848648 0.21112075
vt 0.16848648 0.21112075
vt 0.16848648 0.21112075
vt 0.16848648 0.21112075
vt 0.16848648 0.21112075
vt 0.16848648 0.21112075
vt 0.16848648 0.21112075
vt 0.16848648 0.21112075
vt 0.16848648 0.21112075
vt 0.16848648 0.21112075
vt 0.16848648 0.21112075
vt 0.1684902 0.21114132
vt 0.1684902 0.21114132
vt 0.16848648 0.21112075
vt 0.16848648 0.21112075
vt 0.16848648 0.21112075
vt 0.16848648 0.21112075
vt 0.16848648 0.21112075
vt 0.16848648 0.21112075
vt 0.1684902 0.21114132
vt 0.1684902 0.21114132
vt 0.16848648 0.21112075
vt 0.16848648 0.21112075
vt 0.1684902 0.21114132
vt 0.1684902 0.21114132
vt 0.1684902 0.21114132
vt 0.1684902 0.21114132
vt 0.16848648 0.21112075
vt 0.16848648 0.21112075
vt 0.16848648 0.21112075
vt 0.16848648 0.21112075
vt 0.16848648 0.21112075
vt 0.16848648 0.21112075
vt 0.16848648 0.21112075
vt 0.16848648 0.21112075
vt 0.16848648 0.21112075
vt 0.16848648 0.21112075
vt 0.16848648 0.21112075
vt 0.16848648 0.21112075
vt 0.1684902 0.21114132
vt 0.1684902 0.21114132
vt 0.1684902 0.21114132
vt 0.16848648 0.21112075
vt 0.16848648 0.21112075
vt 0.16848648 0.21112075
vt 0.16848648 0.21112075
vt 0.16848648 0.21112075
vt 0.16848648 0.21112075
vn -0.030446228 0.9867843 0.15915337
vn -0.03467674 0.98664826 -0.15913145
vn -0.030446228 0.9867843 0.15915337
vn -0.002807361 0.9998337 -0.018019471
vn -0.0075682374 0.99986255 -0.014753945
vn -0.0016547015 0.9998511 0.017172951
vn 0.00010073963 0.99985313 0.017137492
vn -0.03467674 0.98664826 -0.15913145
vn -0.03467674 0.98664826 -0.15913145
vn -0.0016547015 0.9998511 0.017172951
vn 0.00010073963 0.99985313 0.017137492
vn -0.11111901 0.98799455 -0.107328616
vn 0.1618674 0.9867878 -0.006979965
vn 0.15922739 0.98724186 0
vn 0.019093122 0.9998178 0
vn 0.0121992305 0.9999169 -0.004155711
vn -0.01828823 0.9998294 -0.0025932796
vn 0.15922739 0.98724186 0
vn 0.1618674 0.9867878 -0.006979965
vn -0.01828823 0.9998294 -0.0025932796
vn 0.010145653 0.99990594 0.009233698
vn 0.010145653 0.99990594 0.009233698
vn 0.15113305 0.98671234 0.059646234
vn 0.011665666 0.99987996 0.010194999
vn 0.011665666 0.99987996 0.010194999
vn 0.14594927 0.98641986 0.075330846
vn 0.0024869044 0.9996363 0.026853183
vn 0.0024869044 0.9996363 0.026853183
vn 0.09114163 0.9852175 0.14505045
vn 0.01406235 0.9996419 0.022770077
vn 0.01406235 0.9996419 0.022770077
vn 0.1025737 0.98320997 0.15091965
vn -0.015308766 0.999858 -0.007040704
vn -0.015308766 0.999858 -0.007040704
vn 0.15627554 0.98673546 0.043945335
vn 0.00591361 0.99998164 0.001382359
vn 0.00591361 0.99998164 0.001382359
vn 0.1025737 0.98320997 0.15091965
vn 0.0108400015 0.99934334 0.03457254
vn 0.0108400015 0.99934334 0.03457254
vn -0.002807361 0.9998337 -0.018019471
vn -0.0075682374 0.99986255 -0.014753945
vn -0.030446228 0.9867843 0.15915337
vn -0.030446228 0.9867843 0.15915337
vn 0.019093122 0.9998178 0
vn 0.0121992305 0.9999169 -0.004155711
vn -0.11111901 0.98799455 -0.107328616
vn -0.11111901 0.98799455 -0.107328616
vn 0.15113305 0.98671234 0.059646234
vn 0.15627554 0.98673546 0.043945335
vn 0.14594927 0.98641986 0.075330846
vn 0.09114163 0.9852175 0.14505045
vn 0.09114163 0.9852175 0.14505045
vn 0.09114163 0.9852175 0.14505045
vn 0.1025737 0.98320997 0.15091965
vn 0.1025737 0.98320997 0.15091965
vn 0.032502312 0.98591226 0.164075
vn 0.032502312 0.98591226 0.164075
vn 0.032502312 0.98591226 0.164075
vn 0.032502312 0.98591226 0.164075
vn -0.15915437 0.9867885 -0.030304683
vn -0.15915437 0.9867885 -0.030304683
vn -0.15915437 0.9867885 -0.030304683
vn 0.16449834 0.9862786 -0.013959541
vn 0.16449834 0.9862786 -0.013959541
vn 0.011120411 0.9816743 0.19024211
vn 0.011120411 0.9816743 0.19024211
vn 0.011120411 0.9816743 0.19024211
vn 0.011120411 0.9816743 0.19024211
g SM_Env_Road_Corner_01_Dirt_0
f 9/9/9 2/2/2 8/8/8
f 48/48/48 47/47/47 12/12/12
f 63/63/63 62/62/62 61/61/61
f 7/7/7 6/6/6 10/10/10
f 11/11/11 7/7/7 10/10/10
f 7/7/7 11/11/11 31/31/31
f 30/30/30 7/7/7 31/31/31
f 30/30/30 31/31/31 39/39/39
f 40/40/40 30/30/30 39/39/39
f 40/40/40 39/39/39 28/28/28
f 27/27/27 40/40/40 28/28/28
f 27/27/27 28/28/28 25/25/25
f 24/24/24 27/27/27 25/25/25
f 24/24/24 25/25/25 22/22/22
f 21/21/21 24/24/24 22/22/22
f 21/21/21 22/22/22 36/36/36
f 37/37/37 21/21/21 36/36/36
f 37/37/37 36/36/36 46/46/46
f 16/16/16 37/37/37 46/46/46
f 16/16/16 46/46/46 15/15/15
f 46/46/46 45/45/45 15/15/15
f 42/42/42 41/41/41 4/4/4
f 5/5/5 42/42/42 4/4/4
f 42/42/42 5/5/5 33/33/33
f 34/34/34 42/42/42 33/33/33
f 34/34/34 33/33/33 20/20/20
f 33/33/33 17/17/17 20/20/20
f 43/43/43 3/3/3 1/1/1
f 44/44/44 43/43/43 1/1/1
f 13/13/13 14/14/14 18/18/18
f 19/19/19 13/13/13 18/18/18
f 19/19/19 65/65/65 13/13/13
f 65/65/65 64/64/64 13/13/13
f 50/50/50 49/49/49 35/35/35
f 49/49/49 23/23/23 35/35/35
f 49/49/49 51/51/51 23/23/23
f 51/51/51 26/26/26 23/23/23
f 53/53/53 29/29/29 52/52/52
f 54/54/54 53/53/53 52/52/52
f 55/55/55 32/32/32 38/38/38
f 56/56/56 55/55/55 38/38/38
f 59/59/59 58/58/58 57/57/57
f 60/60/60 59/59/59 57/57/57
f 68/68/68 67/67/67 66/66/66
f 69/69/69 68/68/68 66/66/66
