g SM_Env_StormCanal_Flat_Hole_01
v 2.5255127 -0.46464613 0.17315237
v 1.3082237 -0.8391909 0.17315237
v 0.12520975 0.101744026 0.13176243
v 1.3082237 -0.8391909 0.17315237
v 0.5068283 -1.857019 0.17315237
v 0.12520975 0.101744026 0.13176243
v 0.5041466 -2.5 0.17315237
v 0.12520975 -2.5 0.17315237
v 0.5068283 -1.857019 0.17315237
v 0.5041466 -2.5 0.17315237
v 0.12520975 0.101744026 0.13176243
v 4.5137973 -1.8969929 0.17315237
v 3.776142 -0.86088467 0.17315237
v 4.87479 0.101744026 0.13176243
v 4.87479 -2.5 0.17315237
v 4.539039 -2.5 0.17315237
v 3.776142 -0.86088467 0.17315237
v 2.5255127 -0.46464613 0.17315237
v 4.87479 0.101744026 0.13176243
v 0.12520975 0.101744026 0.13176243
v 0.12520975 0.101744026 0.13176243
v 0.12520975 0.101744026 -1.1317624
v 4.87479 0.101744026 -1.1317624
v 4.87479 0.101744026 0.13176243
v 4.185787 -2.04279 -0.85993195
v 4.206875 -2.5 -0.85993195
v 0.83631516 -2.5 -0.85993195
v 3.5695837 -1.1740981 -0.85993195
v 2.5248642 -0.7778597 -0.85993195
v 1.5080032 -1.1524047 -0.85993195
v 0.8385544 -2.0028162 -0.85993195
v 4.539039 -2.5 0
v 4.206875 -2.5 -0.85993195
v 4.185787 -2.04279 -0.85993195
v 4.5137973 -1.8969929 0
v 4.5137973 -1.8969929 0
v 4.185787 -2.04279 -0.85993195
v 3.5695837 -1.1740981 -0.85993195
v 3.776142 -0.86088467 0
v 3.776142 -0.86088467 0
v 3.5695837 -1.1740981 -0.85993195
v 2.5248642 -0.7778597 -0.85993195
v 2.5255127 -0.46464613 0
v 2.5255127 -0.46464613 0
v 2.5248642 -0.7778597 -0.85993195
v 1.5080032 -1.1524047 -0.85993195
v 1.3082237 -0.8391909 0
v 1.3082237 -0.8391909 0
v 1.5080032 -1.1524047 -0.85993195
v 0.8385544 -2.0028162 -0.85993195
v 0.5068283 -1.857019 0
v 0.5068283 -1.857019 0
v 0.8385544 -2.0028162 -0.85993195
v 0.83631516 -2.5 -0.85993195
v 0.5041466 -2.5 0
v 0.5041466 -2.5 0
v 0.83631516 -2.5 -0.85993195
v 4.206875 -2.5 -0.85993195
v 4.539039 -2.5 0
v 4.3282623 -1.9104182 0.38328552
v 4.616314 -1.8168243 0.38328543
v 4.616314 -2.5000002 0.38328543
v 4.3282623 -2.4999995 0.38328552
v 3.635166 -0.95645523 0.38328543
v 3.8131945 -0.71142346 0.38328558
v 4.616314 -1.8168243 0.38328543
v 4.3282623 -1.9104182 0.38328552
v 2.5137174 -0.5920743 0.38328558
v 2.5137174 -0.28919837 0.38328558
v 3.8131945 -0.71142346 0.38328558
v 3.635166 -0.95645523 0.38328543
v 1.3922653 -0.9564554 0.38328552
v 1.214241 -0.71142375 0.38328552
v 2.5137174 -0.28919837 0.38328558
v 2.5137174 -0.5920743 0.38328558
v 0.699173 -1.9104186 0.38328552
v 0.41111755 -1.8168244 0.38328552
v 1.214241 -0.71142375 0.38328552
v 1.3922653 -0.9564554 0.38328552
v 0.699173 -2.4999995 0.38328552
v 0.41112137 -2.5000002 0.38328552
v 0.41111755 -1.8168244 0.38328552
v 0.699173 -1.9104186 0.38328552
v 4.3282623 -1.9104182 0.38328552
v 4.3282623 -2.4999995 0.38328552
v 4.3282623 -2.4999995 0
v 4.3282623 -1.9104182 0
v 4.616314 -2.5000002 0.38328543
v 4.616314 -1.8168243 0.38328543
v 4.616314 -1.8168243 0
v 4.616314 -2.5000002 0
v 3.635166 -0.95645523 0.38328543
v 4.3282623 -1.9104182 0.38328552
v 4.3282623 -1.9104182 0
v 3.635166 -0.95645523 0
v 4.616314 -1.8168243 0.38328543
v 3.8131945 -0.71142346 0.38328558
v 3.8131945 -0.71142346 0
v 4.616314 -1.8168243 0
v 2.5137174 -0.5920743 0.38328558
v 3.635166 -0.95645523 0.38328543
v 3.635166 -0.95645523 0
v 2.5137177 -0.5920743 0
v 3.8131945 -0.71142346 0.38328558
v 2.5137174 -0.28919837 0.38328558
v 2.5137177 -0.28919837 0
v 3.8131945 -0.71142346 0
v 1.3922653 -0.9564554 0.38328552
v 2.5137174 -0.5920743 0.38328558
v 2.5137177 -0.5920743 0
v 1.3922653 -0.9564554 0
v 2.5137174 -0.28919837 0.38328558
v 1.214241 -0.71142375 0.38328552
v 1.214241 -0.71142375 0
v 2.5137177 -0.28919837 0
v 0.699173 -1.9104186 0.38328552
v 1.3922653 -0.9564554 0.38328552
v 1.3922653 -0.9564554 0
v 0.699173 -1.9104186 0
v 1.214241 -0.71142375 0.38328552
v 0.41111755 -1.8168244 0.38328552
v 0.41111755 -1.8168244 0
v 1.214241 -0.71142375 0
v 0.699173 -2.4999995 0.38328552
v 0.699173 -1.9104186 0.38328552
v 0.699173 -1.9104186 0
v 0.699173 -2.4999995 0
v 0.41111755 -1.8168244 0.38328552
v 0.41112137 -2.5000002 0.38328552
v 0.41112137 -2.5000002 0
v 0.41111755 -1.8168244 0
v 0.12520975 0.101744026 -1.1317624
v 0.12520975 -2.5 -1.1731523
v 4.87479 -2.5 -1.1731523
v 4.87479 0.101744026 -1.1317624
v -0 -2.5 0
v 0.12520975 -2.5 0.17315237
v 0.5041466 -2.5 0.17315237
v 0.5041466 -2.5 0
v 0.5041466 -2.5 0
v 0.5041466 -2.5 0.17315237
v 0.5068283 -1.857019 0.17315237
v 0.5068283 -1.857019 0
v 0.5068283 -1.857019 0
v 0.5068283 -1.857019 0.17315237
v 1.3082237 -0.8391909 0.17315237
v 1.3082237 -0.8391909 0
v 1.3082237 -0.8391909 0
v 1.3082237 -0.8391909 0.17315237
v 2.5255127 -0.46464613 0.17315237
v 2.5255127 -0.46464613 0
v 2.5255127 -0.46464613 0
v 2.5255127 -0.46464613 0.17315237
v 3.776142 -0.86088467 0.17315237
v 3.776142 -0.86088467 0
v 3.776142 -0.86088467 0
v 3.776142 -0.86088467 0.17315237
v 4.5137973 -1.8969929 0.17315237
v 4.5137973 -1.8969929 0
v 4.5137973 -1.8969929 0
v 4.5137973 -1.8969929 0.17315237
v 4.539039 -2.5 0.17315237
v 4.539039 -2.5 0
v 4.539039 -2.5 0
v 4.539039 -2.5 0.17315237
v 4.87479 -2.5 0.17315237
v 5 -2.5 0
v 5 -2.5 0
v 4.87479 -2.5 0.17315237
v 4.87479 0.101744026 0.13176243
v 5 0 0
v -0 0 0
v 0.12520975 0.101744026 0.13176243
v 0.12520975 -2.5 0.17315237
v -0 -2.5 0
v 5 0 0
v 4.87479 0.101744026 0.13176243
v 4.87479 0.101744026 -1.1317624
v 5 0 -1
v -0 0 -1
v 0.12520975 0.101744026 -1.1317624
v 0.12520975 0.101744026 0.13176243
v -0 0 0
v 5 0 -1
v 4.87479 0.101744026 -1.1317624
v 4.87479 -2.5 -1.1731523
v 5 -2.5 -1
v 5 -2.5 -1
v 4.87479 -2.5 -1.1731523
v 0.12520975 -2.5 -1.1731523
v -0 -2.5 -1
v -0 -2.5 -1
v 0.12520975 -2.5 -1.1731523
v 0.12520975 0.101744026 -1.1317624
v -0 0 -1
vt 0.1027689 0.30435282
vt 0.10276884 0.30435285
vt 0.1027689 0.30435288
vt 0.10276884 0.30435285
vt 0.10276887 0.30435282
vt 0.1027689 0.30435288
vt 0.10276887 0.28351548
vt 0.1027689 0.28351548
vt 0.10276887 0.30435282
vt 0.10276887 0.28351548
vt 0.1027689 0.30435288
vt 0.1027689 0.30435282
vt 0.10276884 0.30435282
vt 0.1027689 0.30435288
vt 0.1027689 0.28351548
vt 0.10276884 0.28351548
vt 0.10276884 0.30435282
vt 0.1027689 0.30435282
vt 0.1027689 0.30435288
vt 0.1027689 0.30435288
vt 0.10276888 0.30435285
vt 0.10276888 0.30435282
vt 0.10276884 0.30435282
vt 0.10276884 0.30435285
vt 0.008678436 0.011094928
vt 0.008678436 0.011095047
vt 0.008678436 0.011095047
vt 0.008678436 0.011094928
vt 0.008678436 0.011094928
vt 0.008678436 0.011094928
vt 0.008678436 0.011094928
vt 0.10276884 0.28351548
vt 0.10276884 0.28351548
vt 0.1027689 0.30435282
vt 0.1027689 0.30435282
vt 0.1027689 0.30435282
vt 0.1027689 0.30435282
vt 0.10276884 0.30435282
vt 0.10276884 0.30435282
vt 0.10276884 0.30435282
vt 0.10276884 0.30435282
vt 0.1027689 0.30435282
vt 0.1027689 0.30435282
vt 0.1027689 0.30435282
vt 0.1027689 0.30435282
vt 0.10276884 0.30435285
vt 0.10276884 0.30435285
vt 0.10276884 0.30435285
vt 0.10276884 0.30435285
vt 0.10276887 0.30435282
vt 0.10276887 0.30435282
vt 0.10276887 0.30435282
vt 0.10276887 0.30435282
vt 0.10276887 0.28351548
vt 0.10276887 0.28351548
vt 0.10276887 0.28351548
vt 0.10276887 0.28351548
vt 0.10276884 0.28351548
vt 0.10276884 0.28351548
vt 0.10276888 0.30435285
vt 0.10276888 0.30435282
vt 0.10276884 0.28351542
vt 0.10276884 0.28351545
vt 0.10276888 0.30435285
vt 0.10276888 0.30435282
vt 0.10276884 0.30435282
vt 0.10276884 0.30435285
vt 0.10276888 0.30435285
vt 0.10276888 0.30435282
vt 0.10276884 0.30435282
vt 0.10276884 0.30435285
vt 0.10276888 0.30435285
vt 0.10276888 0.30435282
vt 0.10276884 0.30435282
vt 0.10276884 0.30435285
vt 0.10276888 0.30435285
vt 0.10276888 0.30435282
vt 0.10276884 0.30435282
vt 0.10276884 0.30435285
vt 0.10276888 0.28351545
vt 0.10276888 0.28351542
vt 0.10276884 0.30435282
vt 0.10276884 0.30435285
vt 0.10276888 0.30435285
vt 0.10276884 0.28351545
vt 0.10276884 0.28351545
vt 0.10276888 0.30435285
vt 0.10276884 0.28351542
vt 0.10276888 0.30435282
vt 0.10276888 0.30435282
vt 0.10276884 0.28351542
vt 0.10276888 0.30435285
vt 0.10276884 0.30435285
vt 0.10276884 0.30435285
vt 0.10276888 0.30435285
vt 0.10276884 0.30435282
vt 0.10276888 0.30435282
vt 0.10276888 0.30435282
vt 0.10276884 0.30435282
vt 0.10276888 0.30435285
vt 0.10276884 0.30435285
vt 0.10276884 0.30435285
vt 0.10276888 0.30435285
vt 0.10276884 0.30435282
vt 0.10276888 0.30435282
vt 0.10276888 0.30435282
vt 0.10276884 0.30435282
vt 0.10276888 0.30435285
vt 0.10276884 0.30435285
vt 0.10276884 0.30435285
vt 0.10276888 0.30435285
vt 0.10276884 0.30435282
vt 0.10276888 0.30435282
vt 0.10276888 0.30435282
vt 0.10276884 0.30435282
vt 0.10276888 0.30435285
vt 0.10276884 0.30435285
vt 0.10276884 0.30435285
vt 0.10276888 0.30435285
vt 0.10276884 0.30435282
vt 0.10276888 0.30435282
vt 0.10276888 0.30435282
vt 0.10276884 0.30435282
vt 0.10276888 0.28351545
vt 0.10276884 0.30435285
vt 0.10276884 0.30435285
vt 0.10276888 0.28351545
vt 0.10276884 0.30435282
vt 0.10276888 0.28351542
vt 0.10276888 0.28351542
vt 0.10276884 0.30435282
vt 0.10177231 0.3030056
vt 0.10177231 0.2821683
vt 0.10177231 0.2821683
vt 0.10177231 0.3030056
vt 0.1027689 0.28351548
vt 0.1027689 0.28351548
vt 0.10276887 0.28351548
vt 0.10276887 0.28351548
vt 0.10276887 0.28351548
vt 0.10276887 0.28351548
vt 0.10276887 0.30435282
vt 0.10276887 0.30435282
vt 0.10276887 0.30435282
vt 0.10276887 0.30435282
vt 0.10276884 0.30435285
vt 0.10276884 0.30435285
vt 0.10276884 0.30435285
vt 0.10276884 0.30435285
vt 0.1027689 0.30435282
vt 0.1027689 0.30435282
vt 0.1027689 0.30435282
vt 0.1027689 0.30435282
vt 0.10276884 0.30435282
vt 0.10276884 0.30435282
vt 0.10276884 0.30435282
vt 0.10276884 0.30435282
vt 0.1027689 0.30435282
vt 0.1027689 0.30435282
vt 0.1027689 0.30435282
vt 0.1027689 0.30435282
vt 0.10276884 0.28351548
vt 0.10276884 0.28351548
vt 0.10276884 0.28351548
vt 0.10276884 0.28351548
vt 0.1027689 0.28351548
vt 0.1027689 0.28351548
vt 0.1027689 0.28351548
vt 0.1027689 0.28351548
vt 0.1027689 0.30435288
vt 0.1027689 0.30435288
vt 0.1027689 0.30435288
vt 0.1027689 0.30435288
vt 0.1027689 0.28351548
vt 0.1027689 0.28351548
vt 0.10276884 0.30435285
vt 0.10276884 0.30435285
vt 0.10276884 0.30435282
vt 0.10276884 0.30435282
vt 0.10276888 0.30435282
vt 0.10276888 0.30435282
vt 0.10276888 0.30435285
vt 0.10276888 0.30435285
vt 0.10177231 0.3030056
vt 0.10177231 0.3030056
vt 0.10177231 0.2821683
vt 0.10177231 0.2821683
vt 0.10177231 0.2821683
vt 0.10177231 0.2821683
vt 0.10177231 0.2821683
vt 0.10177231 0.2821683
vt 0.10177231 0.2821683
vt 0.10177231 0.2821683
vt 0.10177231 0.3030056
vt 0.10177231 0.3030056
vn 8.187927E-05 0.045391355 0.9989693
vn -0.01563057 0.024317792 0.9995821
vn -0.007817334 0.03436612 0.9993787
vn -0.01563057 0.024317792 0.9995821
vn -0.063607596 0.008694627 0.9979371
vn -0.027400631 0.027603034 0.9992434
vn -0 0.015906526 0.9998735
vn -0 0.015906526 0.9998735
vn -0.063607596 0.008694627 0.9979371
vn -0.10559208 0.00044040135 0.9944094
vn -0.063607596 0.008694627 0.9979371
vn 0.016585791 0.010805057 0.9998041
vn 0.01659624 0.024037145 0.9995733
vn 0.014942846 0.034224946 0.9993025
vn 0.013282134 0.007951409 0.9998802
vn -0 0 1
vn 0.01659624 0.024037145 0.9995733
vn 8.187927E-05 0.045391355 0.9989693
vn 0.014942846 0.034224946 0.9993025
vn -0.007817334 0.03436612 0.9993787
vn -0 1 0
vn -0 1 0
vn -0 1 0
vn -0 1 0
vn -0 0 1
vn -0 0 1
vn -0 0 1
vn -0 0 1
vn -0 0 1
vn -0 0 1
vn -0 0 1
vn -0.93165046 -0.040711246 0.36106786
vn -0.93165046 -0.040711246 0.36106786
vn -0.93165046 -0.040711246 0.36106786
vn -0.93165046 -0.040711246 0.36106786
vn -0.7547016 -0.53641313 0.37773862
vn -0.7547016 -0.53641313 0.37773862
vn -0.7547016 -0.53641313 0.37773862
vn -0.7547016 -0.53641313 0.37773862
vn -0.30470052 -0.8825418 0.35815856
vn -0.30470052 -0.8825418 0.35815856
vn -0.30470052 -0.8825418 0.35815856
vn -0.30470052 -0.8825418 0.35815856
vn 0.29695353 -0.8856599 0.35696673
vn 0.29695353 -0.8856599 0.35696673
vn 0.29695353 -0.8856599 0.35696673
vn 0.29695353 -0.8856599 0.35696673
vn 0.7275185 -0.57276714 0.37769645
vn 0.7275185 -0.57276714 0.37769645
vn 0.7275185 -0.57276714 0.37769645
vn 0.7275185 -0.57276714 0.37769645
vn 0.932785 -0.004025906 0.36041102
vn 0.932785 -0.004025906 0.36041102
vn 0.932785 -0.004025906 0.36041102
vn 0.932785 -0.004025906 0.36041102
vn -0 1 0
vn -0 1 0
vn -0 1 0
vn -0 1 0
vn -0 0 1
vn -0 0 1
vn -0 0 1
vn -0 0 1
vn -0 0 1
vn -0 0 1
vn -0 0 1
vn -0 0 1
vn -0 0 1
vn -0 0 1
vn -0 0 1
vn -0 0 1
vn -0 0 1
vn -0 0 1
vn -0 0 1
vn -0 0 1
vn -0 0 1
vn -0 0 1
vn -0 0 1
vn -0 0 1
vn -0 0 1
vn -0 0 1
vn -0 0 1
vn -0 0 1
vn -1 0 0
vn -1 0 0
vn -1 0 0
vn -1 0 0
vn 1 0 0
vn 1 0 0
vn 1 0 0
vn 1 0 0
vn -0.80901635 -0.58778614 0
vn -0.80901635 -0.58778614 0
vn -0.80901635 -0.58778614 0
vn -0.80901635 -0.58778614 0
vn 0.8090174 0.58778465 0
vn 0.8090174 0.58778465 0
vn 0.8090174 0.58778465 0
vn 0.8090174 0.58778465 0
vn -0.30901712 -0.9510565 0
vn -0.30901712 -0.9510565 0
vn -0.30901712 -0.9510565 0
vn -0.30901712 -0.9510565 0
vn 0.30901662 0.95105654 0
vn 0.30901662 0.95105654 0
vn 0.30901662 0.95105654 0
vn 0.30901662 0.95105654 0
vn 0.3090164 -0.95105666 0
vn 0.3090164 -0.95105666 0
vn 0.3090164 -0.95105666 0
vn 0.3090164 -0.95105666 0
vn -0.3090169 0.95105654 0
vn -0.3090169 0.95105654 0
vn -0.3090169 0.95105654 0
vn -0.3090169 0.95105654 0
vn 0.809018 -0.5877839 0
vn 0.809018 -0.5877839 0
vn 0.809018 -0.5877839 0
vn 0.809018 -0.5877839 0
vn -0.80901605 0.5877867 0
vn -0.80901605 0.5877867 0
vn -0.80901605 0.5877867 0
vn -0.80901605 0.5877867 0
vn 1 0 0
vn 1 0 0
vn 1 0 0
vn 1 0 0
vn -1 0 0
vn -1 0 0
vn -1 0 0
vn -1 0 0
vn -0 0.01590652 -0.9998735
vn -0 0.01590652 -0.9998735
vn -0 0.01590652 -0.9998735
vn -0 0.01590652 -0.9998735
vn -0 -1 0
vn -0 -1 0
vn -0 -1 0
vn -0 -1 0
vn 0.9999913 -0.0041707437 0
vn 0.9999913 -0.0041707437 0
vn 0.9999913 -0.0041707437 0
vn 0.9999913 -0.0041707437 0
vn 0.7856904 -0.6186198 0
vn 0.7856904 -0.6186198 0
vn 0.7856904 -0.6186198 0
vn 0.7856904 -0.6186198 0
vn 0.29408178 -0.95578027 0
vn 0.29408178 -0.95578027 0
vn 0.29408178 -0.95578027 0
vn 0.29408178 -0.95578027 0
vn -0.30203444 -0.9532971 0
vn -0.30203444 -0.9532971 0
vn -0.30203444 -0.9532971 0
vn -0.30203444 -0.9532971 0
vn -0.8146331 -0.5799767 0
vn -0.8146331 -0.5799767 0
vn -0.8146331 -0.5799767 0
vn -0.8146331 -0.5799767 0
vn -0.99912506 -0.04182309 0
vn -0.99912506 -0.04182309 0
vn -0.99912506 -0.04182309 0
vn -0.99912506 -0.04182309 0
vn -0 -1 0
vn -0 -1 0
vn -0 -1 0
vn -0 -1 0
vn 0.77361435 0.0051406245 0.6336359
vn 0.77361435 0.0051406245 0.6336359
vn 0.77361435 0.0051406245 0.6336359
vn 0.77361435 0.0051406245 0.6336359
vn -0.7736141 0.0051406263 0.6336361
vn -0.7736141 0.0051406263 0.6336361
vn -0.7736141 0.0051406263 0.6336361
vn -0.7736141 0.0051406263 0.6336361
vn 0.63063437 0.77608 0
vn 0.63063437 0.77608 0
vn 0.63063437 0.77608 0
vn 0.63063437 0.77608 0
vn -0.63063407 0.77608025 0
vn -0.63063407 0.77608025 0
vn -0.63063407 0.77608025 0
vn -0.63063407 0.77608025 0
vn 0.7736142 0.0051406235 -0.6336359
vn 0.7736142 0.0051406235 -0.6336359
vn 0.7736142 0.0051406235 -0.6336359
vn 0.7736142 0.0051406235 -0.6336359
vn -0 -1 0
vn -0 -1 0
vn -0 -1 0
vn -0 -1 0
vn -0.77361405 0.0051406254 -0.63363624
vn -0.77361405 0.0051406254 -0.63363624
vn -0.77361405 0.0051406254 -0.63363624
vn -0.77361405 0.0051406254 -0.63363624
g SM_Env_StormCanal_Flat_Hole_01_0
f 3/3/3 2/2/2 1/1/1
f 6/6/6 5/5/5 4/4/4
f 6/6/6 8/8/8 7/7/7
f 11/11/11 10/10/10 9/9/9
f 14/14/14 13/13/13 12/12/12
f 12/12/12 15/15/15 14/14/14
f 12/12/12 16/16/16 15/15/15
f 19/19/19 18/18/18 17/17/17
f 19/19/19 20/20/20 18/18/18
f 23/23/23 22/22/22 21/21/21
f 24/24/24 23/23/23 21/21/21
f 27/27/27 26/26/26 25/25/25
f 25/25/25 28/28/28 27/27/27
f 28/28/28 29/29/29 27/27/27
f 29/29/29 30/30/30 27/27/27
f 30/30/30 31/31/31 27/27/27
f 34/34/34 33/33/33 32/32/32
f 35/35/35 34/34/34 32/32/32
f 38/38/38 37/37/37 36/36/36
f 39/39/39 38/38/38 36/36/36
f 42/42/42 41/41/41 40/40/40
f 43/43/43 42/42/42 40/40/40
f 46/46/46 45/45/45 44/44/44
f 47/47/47 46/46/46 44/44/44
f 50/50/50 49/49/49 48/48/48
f 51/51/51 50/50/50 48/48/48
f 54/54/54 53/53/53 52/52/52
f 55/55/55 54/54/54 52/52/52
f 58/58/58 57/57/57 56/56/56
f 59/59/59 58/58/58 56/56/56
f 62/62/62 61/61/61 60/60/60
f 63/63/63 62/62/62 60/60/60
f 66/66/66 65/65/65 64/64/64
f 67/67/67 66/66/66 64/64/64
f 70/70/70 69/69/69 68/68/68
f 71/71/71 70/70/70 68/68/68
f 74/74/74 73/73/73 72/72/72
f 75/75/75 74/74/74 72/72/72
f 78/78/78 77/77/77 76/76/76
f 79/79/79 78/78/78 76/76/76
f 82/82/82 81/81/81 80/80/80
f 83/83/83 82/82/82 80/80/80
f 86/86/86 85/85/85 84/84/84
f 87/87/87 86/86/86 84/84/84
f 90/90/90 89/89/89 88/88/88
f 91/91/91 90/90/90 88/88/88
f 94/94/94 93/93/93 92/92/92
f 95/95/95 94/94/94 92/92/92
f 98/98/98 97/97/97 96/96/96
f 99/99/99 98/98/98 96/96/96
f 102/102/102 101/101/101 100/100/100
f 103/103/103 102/102/102 100/100/100
f 106/106/106 105/105/105 104/104/104
f 107/107/107 106/106/106 104/104/104
f 110/110/110 109/109/109 108/108/108
f 111/111/111 110/110/110 108/108/108
f 114/114/114 113/113/113 112/112/112
f 115/115/115 114/114/114 112/112/112
f 118/118/118 117/117/117 116/116/116
f 119/119/119 118/118/118 116/116/116
f 122/122/122 121/121/121 120/120/120
f 123/123/123 122/122/122 120/120/120
f 126/126/126 125/125/125 124/124/124
f 127/127/127 126/126/126 124/124/124
f 130/130/130 129/129/129 128/128/128
f 131/131/131 130/130/130 128/128/128
f 134/134/134 133/133/133 132/132/132
f 135/135/135 134/134/134 132/132/132
f 138/138/138 137/137/137 136/136/136
f 139/139/139 138/138/138 136/136/136
f 142/142/142 141/141/141 140/140/140
f 143/143/143 142/142/142 140/140/140
f 146/146/146 145/145/145 144/144/144
f 147/147/147 146/146/146 144/144/144
f 150/150/150 149/149/149 148/148/148
f 151/151/151 150/150/150 148/148/148
f 154/154/154 153/153/153 152/152/152
f 155/155/155 154/154/154 152/152/152
f 158/158/158 157/157/157 156/156/156
f 159/159/159 158/158/158 156/156/156
f 162/162/162 161/161/161 160/160/160
f 163/163/163 162/162/162 160/160/160
f 166/166/166 165/165/165 164/164/164
f 167/167/167 166/166/166 164/164/164
f 170/170/170 169/169/169 168/168/168
f 171/171/171 170/170/170 168/168/168
f 174/174/174 173/173/173 172/172/172
f 175/175/175 174/174/174 172/172/172
f 178/178/178 177/177/177 176/176/176
f 179/179/179 178/178/178 176/176/176
f 182/182/182 181/181/181 180/180/180
f 183/183/183 182/182/182 180/180/180
f 186/186/186 185/185/185 184/184/184
f 187/187/187 186/186/186 184/184/184
f 190/190/190 189/189/189 188/188/188
f 191/191/191 190/190/190 188/188/188
f 194/194/194 193/193/193 192/192/192
f 195/195/195 194/194/194 192/192/192
