g SM_Env_StormCanal_Straight_01
v 0.08333311 0.10305921 -5.062161
v 2.5 0.10305921 -3.9166021
v 0.083333135 0.10305921 -3.9166021
v 2.5 0.10305921 -5.012031
v 4.916667 0.10305921 -3.9166021
v 4.916667 0.10305921 -5.062162
v 0.08333311 0.10305921 -5.062161
v 0.08333311 -2.4094038 -5.1350846
v 2.5 -2.4094038 -5.135085
v 2.5 0.10305921 -5.012031
v 4.916667 0.10305921 -5.062162
v 4.916667 -2.4094038 -5.135085
v -2.682209E-07 -1.156505E-08 -4.000006
v 0.083333135 0.10305921 -3.9166021
v 0.1986523 -0.88663137 -2.367722
v -2.8015285E-07 -1.0009235 -2.3985262
v -2.9802322E-07 -2.5 -7.748604E-07
v 0.08333311 -2.3688846 -0.04797474
v 2.441568 -2.3688846 -0.04797474
v 2.4999998 -2.5 -7.748604E-07
v 4.799803 -2.3688846 -0.04797474
v 5 -2.5 -7.748604E-07
v 5 -1.0009235 -2.3985262
v 4.916667 -0.88663137 -2.367722
v 4.916667 0.10305921 -3.9166021
v 5 -1.156505E-08 -4.000006
v -2.9802322E-07 -1.156505E-08 -5
v 0.08333311 0.10305921 -5.062161
v 0.083333135 0.10305921 -3.9166021
v -2.682209E-07 -1.156505E-08 -4.000006
v 5 -1.156505E-08 -4.000006
v 4.916667 0.10305921 -3.9166021
v 4.916667 0.10305921 -5.062162
v 5 -1.156505E-08 -5.0000005
v 5 -1.156505E-08 -5.0000005
v 4.916667 0.10305921 -5.062162
v 4.916667 -2.4094038 -5.135085
v 5 -2.5 -5.0000005
v 2.4999998 -2.5 -5
v 0.08333311 -2.4094038 -5.1350846
v -2.9802322E-07 -2.5 -5
v 2.5 -2.4094038 -5.135085
v 5 -2.5 -5.0000005
v 4.916667 -2.4094038 -5.135085
v -2.9802322E-07 -2.5 -5
v 0.08333311 -2.4094038 -5.1350846
v 0.08333311 0.10305921 -5.062161
v -2.9802322E-07 -1.156505E-08 -5
v 5 -2.5 -7.748604E-07
v 4.799803 -2.3688846 -0.04797474
v 4.916667 -0.88663137 -2.367722
v 5 -1.0009235 -2.3985262
v 0.1986523 -0.88663137 -2.367722
v 0.08333311 -2.3688846 -0.04797474
v -2.9802322E-07 -2.5 -7.748604E-07
v -2.8015285E-07 -1.0009235 -2.3985262
v 4.916667 -0.88663137 -2.367722
v 4.799803 -2.3688846 -0.04797474
v 2.441568 -2.3688846 -0.04797474
v 1.6125735 -0.75904465 -2.585804
v 0.08333311 -2.3688846 -0.04797474
v 0.1986523 -0.88663137 -2.367722
v 0.083333135 0.10305921 -3.9166021
v 2.5 0.10305921 -3.9166021
v 4.916667 0.10305921 -3.9166021
vt 0.10125373 0.30871078
vt 0.10125373 0.30871078
vt 0.10125373 0.30871078
vt 0.10125373 0.30871078
vt 0.10125373 0.30871078
vt 0.10125373 0.30871078
vt 0.10125373 0.30871078
vt 0.10125373 0.2747694
vt 0.10125373 0.2747694
vt 0.10125373 0.30871078
vt 0.10125373 0.30871078
vt 0.10125373 0.2747694
vt 0.10125373 0.30871078
vt 0.10125373 0.30871078
vt 0.10125373 0.30871078
vt 0.10125373 0.30871078
vt 0.10125373 0.2747694
vt 0.10125373 0.2747694
vt 0.10125373 0.2747694
vt 0.10125373 0.2747694
vt 0.10125373 0.2747694
vt 0.10125373 0.2747694
vt 0.10125373 0.30871078
vt 0.10125373 0.30871078
vt 0.10125373 0.30871078
vt 0.10125373 0.30871078
vt 0.10125373 0.30871078
vt 0.10125373 0.30871078
vt 0.10125373 0.30871078
vt 0.10125373 0.30871078
vt 0.10125373 0.30871078
vt 0.10125373 0.30871078
vt 0.10125373 0.30871078
vt 0.10125373 0.30871078
vt 0.10125373 0.30871078
vt 0.10125373 0.30871078
vt 0.10125373 0.2747694
vt 0.10125373 0.2747694
vt 0.10125373 0.2747694
vt 0.10125373 0.2747694
vt 0.10125373 0.2747694
vt 0.10125373 0.2747694
vt 0.10125373 0.2747694
vt 0.10125373 0.2747694
vt 0.10125373 0.2747694
vt 0.10125373 0.2747694
vt 0.10125373 0.30871078
vt 0.10125373 0.30871078
vt 0.10125373 0.2747694
vt 0.10125373 0.2747694
vt 0.10125373 0.30871078
vt 0.10125373 0.30871078
vt 0.10125373 0.30871078
vt 0.10125373 0.2747694
vt 0.10125373 0.2747694
vt 0.10125373 0.30871078
vt 0.10125373 0.30871078
vt 0.10125373 0.2747694
vt 0.10125373 0.2747694
vt 0.10125373 0.30871078
vt 0.10125373 0.2747694
vt 0.10125373 0.30871078
vt 0.10125373 0.30871078
vt 0.10125373 0.30871078
vt 0.10125373 0.30871078
vn -0 1 0
vn -0 1 0
vn -0 1 0
vn -0 1 0
vn -0 1 0
vn -0 1 0
vn 0.010363164 0.03896941 -0.9991867
vn 0.010363164 0.03896941 -0.9991867
vn -0 0.038971495 -0.9992403
vn -0 0.038971495 -0.9992403
vn -0.010363415 0.038969405 -0.9991867
vn -0.010363415 0.038969405 -0.9991867
vn -0.654549 0.6280735 0.42081988
vn -0.654549 0.6280735 0.42081988
vn -0.654549 0.6280735 0.42081988
vn -0.654549 0.6280735 0.42081988
vn -0 0.34361258 0.93911153
vn -0 0.34361258 0.93911153
vn -0 0.34361258 0.93911153
vn -0 0.34361258 0.93911153
vn -0 0.34361258 0.93911153
vn -0 0.34361258 0.93911153
vn 0.8265558 0.4758253 0.30065915
vn 0.8265558 0.4758253 0.30065915
vn 0.8265558 0.4758253 0.30065915
vn 0.8265558 0.4758253 0.30065915
vn -0.7775971 0.62876284 0
vn -0.7775971 0.62876284 0
vn -0.7775971 0.62876284 0
vn -0.7775971 0.62876284 0
vn 0.777598 0.62876165 0
vn 0.777598 0.62876165 0
vn 0.777598 0.62876165 0
vn 0.777598 0.62876165 0
vn 0.7682887 0.009311533 -0.64003587
vn 0.7682887 0.009311533 -0.64003587
vn 0.7682887 0.009311533 -0.64003587
vn 0.7682887 0.009311533 -0.64003587
vn -0 -0.8305163 -0.55699444
vn -0 -0.8305163 -0.55699444
vn -0 -0.8305163 -0.55699444
vn -0 -0.8305163 -0.55699444
vn -0 -0.8305163 -0.5569944
vn -0 -0.8305163 -0.5569944
vn -0.76828754 0.00931155 -0.6400371
vn -0.76828754 0.00931155 -0.6400371
vn -0.76828754 0.00931155 -0.6400371
vn -0.76828754 0.00931155 -0.6400371
vn 0.5689554 0.68877566 0.44930804
vn 0.5689554 0.68877566 0.44930804
vn 0.5689554 0.68877566 0.44930804
vn 0.5689554 0.68877566 0.44930804
vn -0.5793007 0.69539887 0.4252422
vn -0.5793007 0.69539887 0.4252422
vn -0.5793007 0.69539887 0.4252422
vn -0.5793007 0.69539887 0.4252422
vn -0.0015486485 0.8426824 0.53840864
vn -0 0.8426646 0.5384389
vn -0.0009355886 0.8437074 0.53680253
vn 0.0010472705 0.8426185 0.53850996
vn 0.0035311356 0.8434665 0.5371701
vn 0.004941134 0.8416225 0.5400436
vn 0.0028200177 0.84075487 0.54140866
vn 0.0004904239 0.84105915 0.54094297
vn -0.001839173 0.8413586 0.5404741
g SM_Env_StormCanal_Straight_01_0
f 3/3/3 2/2/2 1/1/1
f 2/2/2 4/4/4 1/1/1
f 2/2/2 5/5/5 4/4/4
f 5/5/5 6/6/6 4/4/4
f 9/9/9 8/8/8 7/7/7
f 10/10/10 9/9/9 7/7/7
f 10/10/10 11/11/11 9/9/9
f 11/11/11 12/12/12 9/9/9
f 15/15/15 14/14/14 13/13/13
f 16/16/16 15/15/15 13/13/13
f 19/19/19 18/18/18 17/17/17
f 20/20/20 19/19/19 17/17/17
f 21/21/21 19/19/19 20/20/20
f 22/22/22 21/21/21 20/20/20
f 25/25/25 24/24/24 23/23/23
f 26/26/26 25/25/25 23/23/23
f 29/29/29 28/28/28 27/27/27
f 30/30/30 29/29/29 27/27/27
f 33/33/33 32/32/32 31/31/31
f 34/34/34 33/33/33 31/31/31
f 37/37/37 36/36/36 35/35/35
f 38/38/38 37/37/37 35/35/35
f 41/41/41 40/40/40 39/39/39
f 40/40/40 42/42/42 39/39/39
f 39/39/39 42/42/42 43/43/43
f 42/42/42 44/44/44 43/43/43
f 47/47/47 46/46/46 45/45/45
f 48/48/48 47/47/47 45/45/45
f 51/51/51 50/50/50 49/49/49
f 52/52/52 51/51/51 49/49/49
f 55/55/55 54/54/54 53/53/53
f 56/56/56 55/55/55 53/53/53
f 59/59/59 58/58/58 57/57/57
f 59/59/59 57/57/57 60/60/60
f 61/61/61 59/59/59 60/60/60
f 61/61/61 60/60/60 62/62/62
f 62/62/62 60/60/60 63/63/63
f 60/60/60 64/64/64 63/63/63
f 60/60/60 57/57/57 64/64/64
f 57/57/57 65/65/65 64/64/64
