g SM_Prop_Lockers_05
v 0.58231926 0.2267597 0.2641182
v 0.58231926 0.61215204 0.2641182
v 1.0621402 0.61215204 0.2641182
v 1.0621402 0.2267597 0.2641182
v 0.41073346 2.9771986 0.2641182
v 1.2331355 2.9771986 -0.36000443
v 1.2331355 2.9771986 0.2641182
v 0.41073346 2.9771986 -0.36000443
v -0.4114964 2.9771986 0.2641182
v -0.4114964 2.9771986 -0.36000443
v 0.41073346 0 -0.36000443
v 1.2331355 0 0.2641182
v 1.2331355 0 -0.36000443
v 0.41073346 0 0.2641182
v -0.4114964 1.1368684E-13 -0.36000443
v -0.4114964 1.1368684E-13 0.2641182
v 1.2331355 0 0.2641182
v 1.2331355 1.4885988 -0.36000443
v 1.2331355 0 -0.36000443
v 1.2331355 1.4885988 0.2641182
v 1.2331355 2.9771986 -0.36000443
v 1.2331355 2.9771986 0.2641182
v 0.6691334 2.1902275 0.2641182
v 0.82565546 2.3495991 0.2641182
v 0.98254323 2.1927114 0.2641182
v 0.82602143 2.0333395 0.2641182
v 0.41073346 2.9771986 -0.36000443
v 1.2331355 1.4885988 -0.36000443
v 1.2331355 2.9771986 -0.36000443
v 0.41073346 1.4885988 -0.36000443
v -0.4114964 2.9771986 -0.36000443
v 1.2331355 0 -0.36000443
v -0.4114964 1.4885988 -0.36000443
v 0.41073346 0 -0.36000443
v -0.4114964 1.1368684E-13 -0.36000443
v 0.5795491 1.3172048 0.31798935
v 0.5795491 1.669112 0.31798935
v 0.63341546 1.669112 0.31798935
v 0.63341546 1.3172048 0.31798935
v 0.5795491 1.669112 0.31798935
v 0.5795491 1.669112 0.26412582
v 0.63341546 1.669112 0.26412582
v 0.63341546 1.669112 0.31798935
v 0.5795491 1.669112 0.26412582
v 0.5795491 1.3172048 0.26412582
v 0.63341546 1.3172048 0.26412582
v 0.63341546 1.669112 0.26412582
v 0.5795491 1.3172048 0.26412582
v 0.5795491 1.3172048 0.31798935
v 0.63341546 1.3172048 0.31798935
v 0.63341546 1.3172048 0.26412582
v 0.63341546 1.3172048 0.31798935
v 0.63341546 1.669112 0.31798935
v 0.63341546 1.669112 0.26412582
v 0.63341546 1.3172048 0.26412582
v 0.5795491 1.3172048 0.26412582
v 0.5795491 1.669112 0.26412582
v 0.5795491 1.669112 0.31798935
v 0.5795491 1.3172048 0.31798935
v -0.24067402 0.2267597 0.2641182
v -0.24067402 0.61215204 0.2641182
v 0.23914707 0.61215204 0.2641182
v 0.23914707 0.2267597 0.2641182
v -0.16100085 2.187687 0.2641182
v 0.0008355379 2.3495233 0.2641182
v 0.1594739 2.1908848 0.2641182
v -0.0023624897 2.0290484 0.2641182
v -0.24344444 1.3172048 0.31798935
v -0.24344444 1.669112 0.31798935
v -0.18957782 1.669112 0.31798935
v -0.18957782 1.3172048 0.31798935
v -0.24344444 1.669112 0.31798935
v -0.24344444 1.669112 0.26412582
v -0.18957782 1.669112 0.26412582
v -0.18957782 1.669112 0.31798935
v -0.24344444 1.669112 0.26412582
v -0.24344444 1.3172048 0.26412582
v -0.18957782 1.3172048 0.26412582
v -0.18957782 1.669112 0.26412582
v -0.24344444 1.3172048 0.26412582
v -0.24344444 1.3172048 0.31798935
v -0.18957782 1.3172048 0.31798935
v -0.18957782 1.3172048 0.26412582
v -0.18957782 1.3172048 0.31798935
v -0.18957782 1.669112 0.31798935
v -0.18957782 1.669112 0.26412582
v -0.18957782 1.3172048 0.26412582
v -0.24344444 1.3172048 0.26412582
v -0.24344444 1.669112 0.26412582
v -0.24344444 1.669112 0.31798935
v -0.24344444 1.3172048 0.31798935
v -0.4114964 1.4885988 0.2641182
v -0.4114964 2.9771986 -0.36000443
v -0.4114964 2.9771986 0.2641182
v -0.4114964 1.4885988 -0.36000443
v -0.4114964 1.1368684E-13 0.2641182
v -0.4114964 1.1368684E-13 -0.36000443
v 1.1626575 2.9017687 0.2641182
v 1.1230769 2.8560746 0.2641182
v 0.52138245 2.8560746 0.2641182
v 1.1230769 1.488599 0.2641182
v 0.48180246 2.9017687 0.2641182
v 1.1626575 1.488599 0.2641182
v 0.52138245 1.488599 0.2641182
v 1.1626575 0.07542865 0.2641182
v 0.48180246 1.488599 0.2641182
v 1.1230769 0.12112289 0.2641182
v 0.52138245 0.12112289 0.2641182
v 0.48180246 0.07542865 0.2641182
v 1.1230769 2.8560746 0.2641182
v 1.0621402 2.3819816 0.2641182
v 0.58231926 2.3819816 0.2641182
v 1.0621402 1.9965901 0.2641182
v 0.52138245 2.8560746 0.2641182
v 0.58231926 1.9965901 0.2641182
v 1.1230769 1.488599 0.2641182
v 0.52138245 1.488599 0.2641182
v 1.0621402 0.61215204 0.2641182
v 1.1230769 0.12112289 0.2641182
v 1.0621402 0.2267597 0.2641182
v 0.52138245 0.12112289 0.2641182
v 0.58231926 0.2267597 0.2641182
v 0.58231926 0.61215204 0.2641182
v 0.33966422 2.9017687 0.2641182
v 0.30008388 2.8560746 0.2641182
v -0.30161095 2.8560746 0.2641182
v 0.30008388 1.488599 0.2641182
v -0.3411907 2.9017687 0.2641182
v 0.33966422 1.488599 0.2641182
v -0.30161095 1.488599 0.2641182
v 0.33966422 0.07542865 0.2641182
v -0.3411907 1.488599 0.2641182
v 0.30008388 0.12112289 0.2641182
v -0.30161095 0.12112289 0.2641182
v -0.3411907 0.07542865 0.2641182
v 0.30008388 2.8560746 0.2641182
v 0.23914707 2.3819816 0.2641182
v -0.24067402 2.3819816 0.2641182
v 0.23914707 1.9965901 0.2641182
v -0.30161095 2.8560746 0.2641182
v -0.24067402 1.9965901 0.2641182
v 0.30008388 1.488599 0.2641182
v -0.30161095 1.488599 0.2641182
v 0.23914707 0.61215204 0.2641182
v 0.30008388 0.12112289 0.2641182
v 0.23914707 0.2267597 0.2641182
v -0.30161095 0.12112289 0.2641182
v -0.24067402 0.2267597 0.2641182
v -0.24067402 0.61215204 0.2641182
v 0.41073346 0 0.2641182
v 0.48180246 0.07542865 0.2641182
v 1.1626575 0.07542865 0.2641182
v 1.2331355 0 0.2641182
v 1.1626575 1.488599 0.2641182
v 1.2331355 1.4885988 0.2641182
v 1.1626575 2.9017687 0.2641182
v 1.2331355 2.9771986 0.2641182
v 0.48180246 2.9017687 0.2641182
v 0.41073346 2.9771986 0.2641182
v 0.48180246 1.488599 0.2641182
v 0.41073346 1.4885988 0.2641182
v 0.33966422 1.488599 0.2641182
v 0.33966422 0.07542865 0.2641182
v 0.33966422 2.9017687 0.2641182
v -0.4114964 1.1368684E-13 0.2641182
v -0.3411907 2.9017687 0.2641182
v -0.3411907 0.07542865 0.2641182
v -0.4114964 2.9771986 0.2641182
v -0.4114964 1.4885988 0.2641182
v -0.3411907 1.488599 0.2641182
v 0.58231926 1.9965901 0.2641182
v 0.6691334 2.1902275 0.2641182
v 0.82602143 2.0333395 0.2641182
v 1.0621402 1.9965901 0.2641182
v 0.58231926 2.3819816 0.2641182
v 0.98254323 2.1927114 0.2641182
v 0.82565546 2.3495991 0.2641182
v 1.0621402 2.3819816 0.2641182
v -0.24067402 1.9965901 0.2641182
v -0.16100085 2.187687 0.2641182
v -0.0023624897 2.0290484 0.2641182
v 0.23914707 1.9965901 0.2641182
v -0.24067402 2.3819816 0.2641182
v 0.1594739 2.1908848 0.2641182
v 0.0008355379 2.3495233 0.2641182
v 0.23914707 2.3819816 0.2641182
vt 0.26745093 0.06359506
vt 0.26745093 0.06359506
vt 0.26745093 0.06359506
vt 0.26745093 0.06359506
vt 0.35834375 0.06251776
vt 0.35834372 0.06251776
vt 0.35834372 0.06251776
vt 0.35834375 0.06251776
vt 0.35834375 0.06251776
vt 0.35834375 0.06251776
vt 0.32858032 0.06197357
vt 0.3285803 0.06197357
vt 0.3285803 0.06197357
vt 0.32858032 0.06197357
vt 0.32858032 0.06197357
vt 0.32858032 0.06197357
vt 0.29446122 0.06251776
vt 0.29446116 0.06251776
vt 0.29446116 0.06251776
vt 0.29446122 0.06251776
vt 0.29446116 0.06251776
vt 0.29446122 0.06251776
vt 0.29512 0.22021437
vt 0.29512 0.22021437
vt 0.29512006 0.22021437
vt 0.29512006 0.22021437
vt 0.32858032 0.06197357
vt 0.3285803 0.06197357
vt 0.3285803 0.06197357
vt 0.32858032 0.06197357
vt 0.32858032 0.06197357
vt 0.3285803 0.06197357
vt 0.32858032 0.06197357
vt 0.32858032 0.06197357
vt 0.32858032 0.06197357
vt 0.36563814 0.265206
vt 0.36563814 0.26520604
vt 0.3656381 0.26520604
vt 0.3656381 0.265206
vt 0.38886812 0.2681098
vt 0.38886812 0.2681098
vt 0.3888681 0.2681098
vt 0.3888681 0.2681098
vt 0.36563814 0.26520604
vt 0.36563814 0.265206
vt 0.3656381 0.265206
vt 0.3656381 0.26520604
vt 0.36563814 0.265206
vt 0.36563814 0.26520598
vt 0.3656381 0.26520598
vt 0.3656381 0.265206
vt 0.33151904 0.26810977
vt 0.33151904 0.2681098
vt 0.331519 0.2681098
vt 0.331519 0.26810977
vt 0.33151904 0.26810977
vt 0.33151904 0.2681098
vt 0.33151907 0.2681098
vt 0.33151907 0.26810977
vt 0.26745093 0.06359506
vt 0.26745093 0.06359506
vt 0.26745093 0.06359506
vt 0.26745093 0.06359506
vt 0.29512 0.22021437
vt 0.29512 0.22021437
vt 0.29512 0.22021437
vt 0.29512 0.22021437
vt 0.36563814 0.265206
vt 0.36563814 0.26520604
vt 0.3656381 0.26520604
vt 0.3656381 0.265206
vt 0.38886812 0.2681098
vt 0.38886812 0.2681098
vt 0.3888681 0.2681098
vt 0.3888681 0.2681098
vt 0.36563814 0.26520604
vt 0.36563814 0.265206
vt 0.3656381 0.265206
vt 0.3656381 0.26520604
vt 0.36563814 0.265206
vt 0.36563814 0.26520598
vt 0.3656381 0.26520598
vt 0.3656381 0.265206
vt 0.33151904 0.26810977
vt 0.33151904 0.2681098
vt 0.331519 0.2681098
vt 0.331519 0.26810977
vt 0.33151904 0.26810977
vt 0.33151904 0.2681098
vt 0.33151907 0.2681098
vt 0.33151907 0.26810977
vt 0.32514882 0.062931776
vt 0.32514882 0.062932014
vt 0.32514882 0.062932014
vt 0.32514882 0.062931776
vt 0.32514882 0.062931836
vt 0.32514882 0.062931836
vt 0.10653925 0.46990824
vt 0.10653925 0.46990824
vt 0.10653925 0.46990824
vt 0.10653925 0.46990833
vt 0.10653925 0.46990824
vt 0.10653925 0.46990833
vt 0.10653925 0.46990833
vt 0.10653925 0.4699084
vt 0.10653925 0.46990833
vt 0.10653925 0.4699084
vt 0.10653925 0.4699084
vt 0.10653925 0.4699084
vt 0.3285803 0.06197357
vt 0.3285803 0.06197357
vt 0.32858032 0.06197357
vt 0.3285803 0.06197357
vt 0.32858032 0.06197357
vt 0.32858032 0.06197357
vt 0.3285803 0.06197357
vt 0.32858032 0.06197357
vt 0.3285803 0.06197357
vt 0.3285803 0.06197357
vt 0.3285803 0.06197357
vt 0.32858032 0.06197357
vt 0.32858032 0.06197357
vt 0.32858032 0.06197357
vt 0.10653925 0.46990824
vt 0.10653925 0.46990824
vt 0.10653925 0.46990824
vt 0.10653925 0.46990833
vt 0.10653925 0.46990824
vt 0.10653925 0.46990833
vt 0.10653925 0.46990833
vt 0.10653925 0.4699084
vt 0.10653925 0.46990833
vt 0.10653925 0.4699084
vt 0.10653925 0.4699084
vt 0.10653925 0.4699084
vt 0.3285803 0.06197357
vt 0.3285803 0.06197357
vt 0.32858032 0.06197357
vt 0.3285803 0.06197357
vt 0.32858032 0.06197357
vt 0.32858032 0.06197357
vt 0.3285803 0.06197357
vt 0.32858032 0.06197357
vt 0.3285803 0.06197357
vt 0.3285803 0.06197357
vt 0.3285803 0.06197357
vt 0.32858032 0.06197357
vt 0.32858032 0.06197357
vt 0.32858032 0.06197357
vt 0.32858032 0.06197357
vt 0.32858032 0.06197357
vt 0.3285803 0.06197357
vt 0.3285803 0.06197357
vt 0.3285803 0.06197357
vt 0.3285803 0.06197357
vt 0.3285803 0.06197357
vt 0.3285803 0.06197357
vt 0.32858032 0.06197357
vt 0.32858032 0.06197357
vt 0.32858032 0.06197357
vt 0.32858032 0.06197357
vt 0.3285803 0.06197357
vt 0.3285803 0.06197357
vt 0.3285803 0.06197357
vt 0.32858032 0.06197357
vt 0.32858032 0.06197357
vt 0.32858032 0.06197357
vt 0.32858032 0.06197357
vt 0.32858032 0.06197357
vt 0.32858032 0.06197357
vt 0.2647947 0.18127513
vt 0.2647947 0.18127513
vt 0.2647947 0.18127513
vt 0.2647947 0.18127513
vt 0.2647947 0.18127513
vt 0.2647947 0.18127513
vt 0.2647947 0.18127513
vt 0.2647947 0.18127513
vt 0.2647947 0.18127513
vt 0.2647947 0.18127513
vt 0.2647947 0.18127513
vt 0.2647947 0.18127513
vt 0.2647947 0.18127513
vt 0.2647947 0.18127513
vt 0.2647947 0.18127513
vt 0.2647947 0.18127513
vn -0 0 1
vn -0 0 1
vn -0 0 1
vn -0 0 1
vn -0 1 0
vn -0 1 0
vn -0 1 0
vn -0 1 0
vn -0 1 0
vn -0 1 0
vn -0 -1 0
vn -0 -1 0
vn -0 -1 0
vn -0 -1 0
vn -0 -1 0
vn -0 -1 0
vn 1 0 0
vn 1 0 0
vn 1 0 0
vn 1 0 0
vn 1 0 0
vn 1 0 0
vn -0 0 1
vn -0 0 1
vn -0 0 1
vn -0 0 1
vn -0 0 -1
vn -0 0 -1
vn -0 0 -1
vn -0 0 -1
vn -0 0 -1
vn -0 0 -1
vn -0 0 -1
vn -0 0 -1
vn -0 0 -1
vn -0 0 1
vn -0 0 1
vn -0 0 1
vn -0 0 1
vn -0 1 0
vn -0 1 0
vn -0 1 0
vn -0 1 0
vn -0 0 -1
vn -0 0 -1
vn -0 0 -1
vn -0 0 -1
vn -0 -1 0
vn -0 -1 0
vn -0 -1 0
vn -0 -1 0
vn 1 0 0
vn 1 0 0
vn 1 0 0
vn 1 0 0
vn -1 0 0
vn -1 0 0
vn -1 0 0
vn -1 0 0
vn -0 0 1
vn -0 0 1
vn -0 0 1
vn -0 0 1
vn -0 0 1
vn -0 0 1
vn -0 0 1
vn -0 0 1
vn -0 0 1
vn -0 0 1
vn -0 0 1
vn -0 0 1
vn -0 1 0
vn -0 1 0
vn -0 1 0
vn -0 1 0
vn -0 0 -1
vn -0 0 -1
vn -0 0 -1
vn -0 0 -1
vn -0 -1 0
vn -0 -1 0
vn -0 -1 0
vn -0 -1 0
vn 1 0 0
vn 1 0 0
vn 1 0 0
vn 1 0 0
vn -1 0 0
vn -1 0 0
vn -1 0 0
vn -1 0 0
vn -1 0 0
vn -1 0 0
vn -1 0 0
vn -1 0 0
vn -1 0 0
vn -1 0 0
vn -0 0 1
vn -0 0 1
vn -0 0 1
vn -0 0 1
vn -0 0 1
vn -0 0 1
vn -0 0 1
vn -0 0 1
vn -0 0 1
vn -0 0 1
vn -0 0 1
vn -0 0 1
vn -0 0 1
vn -0 0 1
vn -0 0 1
vn -0 0 1
vn -0 0 1
vn -0 0 1
vn -0 0 1
vn -0 0 1
vn -0 0 1
vn -0 0 1
vn -0 0 1
vn -0 0 1
vn -0 0 1
vn -0 0 1
vn -0 0 1
vn -0 0 1
vn -0 0 1
vn -0 0 1
vn -0 0 1
vn -0 0 1
vn -0 0 1
vn -0 0 1
vn -0 0 1
vn -0 0 1
vn -0 0 1
vn -0 0 1
vn -0 0 1
vn -0 0 1
vn -0 0 1
vn -0 0 1
vn -0 0 1
vn -0 0 1
vn -0 0 1
vn -0 0 1
vn -0 0 1
vn -0 0 1
vn -0 0 1
vn -0 0 1
vn -0 0 1
vn -0 0 1
vn -0 0 1
vn -0 0 1
vn -0 0 1
vn -0 0 1
vn -0 0 1
vn -0 0 1
vn -0 0 1
vn -0 0 1
vn -0 0 1
vn -0 0 1
vn -0 0 1
vn -0 0 1
vn -0 0 1
vn -0 0 1
vn -0 0 1
vn -0 0 1
vn -0 0 1
vn -0 0 1
vn -0 0 1
vn -0 0 1
vn -0 0 1
vn -0 0 1
vn -0 0 1
vn -0 0 1
vn -0 0 1
vn -0 0 1
vn -0 0 1
vn -0 0 1
vn -0 0 1
vn -0 0 1
vn -0 0 1
vn -0 0 1
vn -0 0 1
vn -0 0 1
vn -0 0 1
vn -0 0 1
vn -0 0 1
g SM_Prop_Lockers_05_0
f 3/3/3 2/2/2 1/1/1
f 4/4/4 3/3/3 1/1/1
f 7/7/7 6/6/6 5/5/5
f 6/6/6 8/8/8 5/5/5
f 5/5/5 8/8/8 9/9/9
f 8/8/8 10/10/10 9/9/9
f 13/13/13 12/12/12 11/11/11
f 12/12/12 14/14/14 11/11/11
f 11/11/11 14/14/14 15/15/15
f 14/14/14 16/16/16 15/15/15
f 19/19/19 18/18/18 17/17/17
f 18/18/18 20/20/20 17/17/17
f 18/18/18 21/21/21 20/20/20
f 21/21/21 22/22/22 20/20/20
f 25/25/25 24/24/24 23/23/23
f 26/26/26 25/25/25 23/23/23
f 29/29/29 28/28/28 27/27/27
f 28/28/28 30/30/30 27/27/27
f 27/27/27 30/30/30 31/31/31
f 28/28/28 32/32/32 30/30/30
f 30/30/30 33/33/33 31/31/31
f 32/32/32 34/34/34 30/30/30
f 30/30/30 34/34/34 33/33/33
f 34/34/34 35/35/35 33/33/33
f 38/38/38 37/37/37 36/36/36
f 39/39/39 38/38/38 36/36/36
f 42/42/42 41/41/41 40/40/40
f 43/43/43 42/42/42 40/40/40
f 46/46/46 45/45/45 44/44/44
f 47/47/47 46/46/46 44/44/44
f 50/50/50 49/49/49 48/48/48
f 51/51/51 50/50/50 48/48/48
f 54/54/54 53/53/53 52/52/52
f 55/55/55 54/54/54 52/52/52
f 58/58/58 57/57/57 56/56/56
f 59/59/59 58/58/58 56/56/56
f 62/62/62 61/61/61 60/60/60
f 63/63/63 62/62/62 60/60/60
f 66/66/66 65/65/65 64/64/64
f 67/67/67 66/66/66 64/64/64
f 70/70/70 69/69/69 68/68/68
f 71/71/71 70/70/70 68/68/68
f 74/74/74 73/73/73 72/72/72
f 75/75/75 74/74/74 72/72/72
f 78/78/78 77/77/77 76/76/76
f 79/79/79 78/78/78 76/76/76
f 82/82/82 81/81/81 80/80/80
f 83/83/83 82/82/82 80/80/80
f 86/86/86 85/85/85 84/84/84
f 87/87/87 86/86/86 84/84/84
f 90/90/90 89/89/89 88/88/88
f 91/91/91 90/90/90 88/88/88
f 94/94/94 93/93/93 92/92/92
f 93/93/93 95/95/95 92/92/92
f 96/96/96 92/92/92 95/95/95
f 97/97/97 96/96/96 95/95/95
f 100/100/100 99/99/99 98/98/98
f 98/98/98 99/99/99 101/101/101
f 102/102/102 100/100/100 98/98/98
f 103/103/103 98/98/98 101/101/101
f 104/104/104 100/100/100 102/102/102
f 103/103/103 101/101/101 105/105/105
f 106/106/106 104/104/104 102/102/102
f 101/101/101 107/107/107 105/105/105
f 108/108/108 104/104/104 106/106/106
f 105/105/105 107/107/107 109/109/109
f 109/109/109 108/108/108 106/106/106
f 107/107/107 108/108/108 109/109/109
f 112/112/112 111/111/111 110/110/110
f 110/110/110 111/111/111 113/113/113
f 114/114/114 112/112/112 110/110/110
f 115/115/115 112/112/112 114/114/114
f 116/116/116 110/110/110 113/113/113
f 117/117/117 115/115/115 114/114/114
f 116/116/116 113/113/113 118/118/118
f 116/116/116 118/118/118 119/119/119
f 118/118/118 120/120/120 119/119/119
f 119/119/119 120/120/120 121/121/121
f 120/120/120 122/122/122 121/121/121
f 121/121/121 122/122/122 117/117/117
f 118/118/118 113/113/113 123/123/123
f 113/113/113 115/115/115 123/123/123
f 122/122/122 123/123/123 117/117/117
f 123/123/123 115/115/115 117/117/117
f 126/126/126 125/125/125 124/124/124
f 124/124/124 125/125/125 127/127/127
f 128/128/128 126/126/126 124/124/124
f 129/129/129 124/124/124 127/127/127
f 130/130/130 126/126/126 128/128/128
f 129/129/129 127/127/127 131/131/131
f 132/132/132 130/130/130 128/128/128
f 127/127/127 133/133/133 131/131/131
f 134/134/134 130/130/130 132/132/132
f 131/131/131 133/133/133 135/135/135
f 135/135/135 134/134/134 132/132/132
f 133/133/133 134/134/134 135/135/135
f 138/138/138 137/137/137 136/136/136
f 136/136/136 137/137/137 139/139/139
f 140/140/140 138/138/138 136/136/136
f 141/141/141 138/138/138 140/140/140
f 142/142/142 136/136/136 139/139/139
f 143/143/143 141/141/141 140/140/140
f 142/142/142 139/139/139 144/144/144
f 142/142/142 144/144/144 145/145/145
f 144/144/144 146/146/146 145/145/145
f 145/145/145 146/146/146 147/147/147
f 146/146/146 148/148/148 147/147/147
f 147/147/147 148/148/148 143/143/143
f 144/144/144 139/139/139 149/149/149
f 139/139/139 141/141/141 149/149/149
f 148/148/148 149/149/149 143/143/143
f 149/149/149 141/141/141 143/143/143
f 152/152/152 151/151/151 150/150/150
f 153/153/153 152/152/152 150/150/150
f 154/154/154 152/152/152 153/153/153
f 155/155/155 154/154/154 153/153/153
f 156/156/156 154/154/154 155/155/155
f 157/157/157 156/156/156 155/155/155
f 158/158/158 156/156/156 157/157/157
f 159/159/159 158/158/158 157/157/157
f 160/160/160 158/158/158 159/159/159
f 151/151/151 160/160/160 161/161/161
f 150/150/150 151/151/151 161/161/161
f 161/161/161 160/160/160 159/159/159
f 161/161/161 162/162/162 150/150/150
f 162/162/162 163/163/163 150/150/150
f 164/164/164 162/162/162 161/161/161
f 159/159/159 164/164/164 161/161/161
f 150/150/150 163/163/163 165/165/165
f 166/166/166 164/164/164 159/159/159
f 163/163/163 167/167/167 165/165/165
f 168/168/168 166/166/166 159/159/159
f 165/165/165 167/167/167 169/169/169
f 170/170/170 166/166/166 168/168/168
f 167/167/167 170/170/170 169/169/169
f 169/169/169 170/170/170 168/168/168
f 173/173/173 172/172/172 171/171/171
f 174/174/174 173/173/173 171/171/171
f 171/171/171 172/172/172 175/175/175
f 176/176/176 173/173/173 174/174/174
f 172/172/172 177/177/177 175/175/175
f 178/178/178 176/176/176 174/174/174
f 175/175/175 177/177/177 178/178/178
f 177/177/177 176/176/176 178/178/178
f 181/181/181 180/180/180 179/179/179
f 182/182/182 181/181/181 179/179/179
f 179/179/179 180/180/180 183/183/183
f 184/184/184 181/181/181 182/182/182
f 180/180/180 185/185/185 183/183/183
f 186/186/186 184/184/184 182/182/182
f 183/183/183 185/185/185 186/186/186
f 185/185/185 184/184/184 186/186/186
