g SM_Prop_Light_01
v -0.17236519 -4.3330173 0.1723404
v -0.17236519 -2.9802322E-07 0.1723404
v 0.17237186 -2.9802322E-07 0.1723404
v 0.17237186 -4.3330173 0.1723404
v -0.17236519 -2.9802322E-07 0.1723404
v -0.17236519 -2.9802322E-07 -0.17235565
v 0.17237186 -2.9802322E-07 -0.17235565
v 0.17237186 -2.9802322E-07 0.1723404
v -0.17236519 -2.9802322E-07 -0.17235565
v -0.17236519 -4.333018 -0.17235565
v 0.17237186 -4.333018 -0.17235565
v 0.17237186 -2.9802322E-07 -0.17235565
v -0.11681938 -5.0733023 -0.11682129
v -0.11681938 -5.0733023 0.11682892
v 0.1168232 -5.0733023 0.11682892
v 0.1168232 -5.0733023 -0.11682129
v 0.17237186 -4.3330173 0.1723404
v 0.17237186 -2.9802322E-07 0.1723404
v 0.17237186 -2.9802322E-07 -0.17235565
v 0.17237186 -4.333018 -0.17235565
v -0.17236519 -4.333018 -0.17235565
v -0.17236519 -2.9802322E-07 -0.17235565
v -0.17236519 -2.9802322E-07 0.1723404
v -0.17236519 -4.3330173 0.1723404
v -1.1802979 -5.0153136 -1.1802979
v -0.17236519 -4.333018 -0.17235565
v -0.17236519 -4.3330173 0.1723404
v -1.1802979 -5.0153136 1.1802979
v -1.1802979 -5.0153136 1.1802979
v -0.17236519 -4.3330173 0.1723404
v 0.17237186 -4.3330173 0.1723404
v 1.1802988 -5.0153136 1.1802979
v 1.1802988 -5.0153136 1.1802979
v 0.17237186 -4.3330173 0.1723404
v 0.17237186 -4.333018 -0.17235565
v 1.1802988 -5.0153136 -1.1802979
v -0.17236519 -4.333018 -0.17235565
v -1.1802979 -5.0153136 -1.1802979
v 1.1802988 -5.0153136 -1.1802979
v 0.17237186 -4.333018 -0.17235565
v -1.1802979 -5.0153136 -1.1802979
v -1.1802979 -5.2089734 -1.1802979
v 1.1802988 -5.2089734 -1.1802979
v 1.1802988 -5.0153136 -1.1802979
v 1.1802988 -5.0153136 -1.1802979
v 1.1802988 -5.2089734 -1.1802979
v 1.1802988 -5.2089734 1.1802979
v 1.1802988 -5.0153136 1.1802979
v 1.1802988 -5.0153136 1.1802979
v 1.1802988 -5.2089734 1.1802979
v -1.1802979 -5.2089734 1.1802979
v -1.1802979 -5.0153136 1.1802979
v -1.1802979 -5.0153136 1.1802979
v -1.1802979 -5.2089734 1.1802979
v -1.1802979 -5.2089734 -1.1802979
v -1.1802979 -5.0153136 -1.1802979
v -0.95662165 -5.2089734 -0.95661926
v -0.11681938 -4.66775 -0.11682129
v 0.1168232 -4.66775 -0.11682129
v 0.95662785 -5.2089734 -0.95661926
v 0.95662785 -5.2089734 -0.95661926
v 0.1168232 -4.66775 -0.11682129
v 0.1168232 -4.66775 0.11682892
v 0.95662785 -5.2089734 0.95661926
v 0.95662785 -5.2089734 0.95661926
v 0.1168232 -4.66775 0.11682892
v -0.11681938 -4.66775 0.11682892
v -0.95662165 -5.2089734 0.95661926
v -0.95662165 -5.2089734 0.95661926
v -0.11681938 -4.66775 0.11682892
v -0.11681938 -4.66775 -0.11682129
v -0.95662165 -5.2089734 -0.95661926
v -0.11681938 -4.66775 -0.11682129
v -0.11681938 -5.0733023 -0.11682129
v 0.1168232 -5.0733023 -0.11682129
v 0.1168232 -4.66775 -0.11682129
v 0.1168232 -4.66775 -0.11682129
v 0.1168232 -5.0733023 -0.11682129
v 0.1168232 -5.0733023 0.11682892
v 0.1168232 -4.66775 0.11682892
v 0.1168232 -4.66775 0.11682892
v 0.1168232 -5.0733023 0.11682892
v -0.11681938 -5.0733023 0.11682892
v -0.11681938 -4.66775 0.11682892
v -0.11681938 -4.66775 0.11682892
v -0.11681938 -5.0733023 0.11682892
v -0.11681938 -5.0733023 -0.11682129
v -0.11681938 -4.66775 -0.11682129
v -1.1802979 -5.2089734 -1.1802979
v -0.95662165 -5.2089734 -0.95661926
v 0.95662785 -5.2089734 -0.95661926
v 1.1802988 -5.2089734 -1.1802979
v -1.1802979 -5.2089734 1.1802979
v 0.95662785 -5.2089734 0.95661926
v -0.95662165 -5.2089734 0.95661926
v 1.1802988 -5.2089734 1.1802979
vt 0.26518697 0.061667044
vt 0.26518694 0.06166705
vt 0.26518694 0.06166705
vt 0.26518697 0.061667044
vt 0.3000524 0.06166705
vt 0.3000524 0.061667047
vt 0.3000524 0.061667047
vt 0.3000524 0.06166705
vt 0.26518694 0.061667047
vt 0.26518694 0.061667047
vt 0.26518694 0.061667047
vt 0.26518694 0.061667047
vt 0.48138824 0.08546633
vt 0.48138824 0.08546632
vt 0.48138824 0.08546632
vt 0.48138824 0.08546633
vt 0.2331484 0.061667044
vt 0.2331484 0.06166705
vt 0.23314834 0.06166705
vt 0.23314834 0.061667044
vt 0.2331484 0.061667044
vt 0.2331484 0.06166705
vt 0.2331484 0.06166705
vt 0.2331484 0.061667044
vt 0.36173537 0.085466325
vt 0.36173537 0.085466325
vt 0.36173537 0.085466325
vt 0.36173537 0.085466325
vt 0.39377388 0.085466325
vt 0.39377394 0.085466325
vt 0.39377394 0.085466325
vt 0.39377388 0.085466325
vt 0.36173537 0.085466325
vt 0.36173537 0.085466325
vt 0.3617353 0.085466325
vt 0.3617353 0.085466325
vt 0.39377388 0.085466325
vt 0.39377388 0.085466325
vt 0.39377388 0.085466325
vt 0.39377388 0.085466325
vt 0.3606149 0.085466325
vt 0.3606149 0.085466325
vt 0.3606149 0.085466325
vt 0.3606149 0.085466325
vt 0.3287545 0.085466325
vt 0.3287545 0.085466325
vt 0.3287545 0.085466325
vt 0.3287545 0.085466325
vt 0.3606149 0.085466325
vt 0.3606149 0.085466325
vt 0.3606149 0.085466325
vt 0.3606149 0.085466325
vt 0.3287545 0.085466325
vt 0.3287545 0.085466325
vt 0.3287545 0.085466325
vt 0.3287545 0.085466325
vt 0.42330793 0.085466325
vt 0.42330793 0.085466325
vt 0.42330793 0.085466325
vt 0.42330793 0.085466325
vt 0.3965863 0.085466325
vt 0.3965863 0.085466325
vt 0.3965863 0.085466325
vt 0.3965863 0.085466325
vt 0.42330793 0.085466325
vt 0.42330793 0.085466325
vt 0.42330793 0.085466325
vt 0.42330793 0.085466325
vt 0.3965863 0.085466325
vt 0.3965863 0.085466325
vt 0.3965863 0.085466325
vt 0.3965863 0.085466325
vt 0.48138824 0.08546633
vt 0.48138824 0.08546633
vt 0.48138824 0.08546633
vt 0.48138824 0.08546633
vt 0.48138824 0.08546633
vt 0.48138824 0.08546633
vt 0.48138824 0.08546632
vt 0.48138824 0.08546632
vt 0.48138824 0.08546632
vt 0.48138824 0.08546632
vt 0.48138824 0.08546632
vt 0.48138824 0.08546632
vt 0.48138824 0.08546632
vt 0.48138824 0.08546632
vt 0.48138824 0.08546633
vt 0.48138824 0.08546633
vt 0.3020329 0.085466325
vt 0.3020329 0.085466325
vt 0.3020329 0.085466325
vt 0.3020329 0.085466325
vt 0.3020329 0.085466325
vt 0.3020329 0.085466325
vt 0.3020329 0.085466325
vt 0.3020329 0.085466325
vn -0 0 1
vn -0 0 1
vn -0 0 1
vn -0 0 1
vn -0 1 0
vn -0 1 0
vn -0 1 0
vn -0 1 0
vn -0 0 -1
vn -0 0 -1
vn -0 0 -1
vn -0 0 -1
vn -0 -1 0
vn -0 -1 0
vn -0 -1 0
vn -0 -1 0
vn 1 0 0
vn 1 0 0
vn 1 0 0
vn 1 0 0
vn -1 0 0
vn -1 0 0
vn -1 0 0
vn -1 0 0
vn -0.5605682 0.82810825 0
vn -0.5605682 0.82810825 0
vn -0.5605682 0.82810825 0
vn -0.5605682 0.82810825 0
vn -0 0.8281146 0.5605589
vn -0 0.8281146 0.5605589
vn -0 0.8281146 0.5605589
vn -0 0.8281146 0.5605589
vn 0.5605703 0.82810676 0
vn 0.5605703 0.82810676 0
vn 0.5605703 0.82810676 0
vn 0.5605703 0.82810676 0
vn -0 0.8281109 -0.56056446
vn -0 0.8281109 -0.56056446
vn -0 0.8281109 -0.56056446
vn -0 0.8281109 -0.56056446
vn -0 0 -1
vn -0 0 -1
vn -0 0 -1
vn -0 0 -1
vn 1 0 0
vn 1 0 0
vn 1 0 0
vn 1 0 0
vn -0 0 1
vn -0 0 1
vn -0 0 1
vn -0 0 1
vn -1 0 0
vn -1 0 0
vn -1 0 0
vn -1 0 0
vn -0 -0.84056175 0.5417157
vn -0 -0.84056175 0.5417157
vn -0 -0.84056175 0.5417157
vn -0 -0.84056175 0.5417157
vn -0.54171276 -0.8405637 0
vn -0.54171276 -0.8405637 0
vn -0.54171276 -0.8405637 0
vn -0.54171276 -0.8405637 0
vn -0 -0.8405595 -0.5417192
vn -0 -0.8405595 -0.5417192
vn -0 -0.8405595 -0.5417192
vn -0 -0.8405595 -0.5417192
vn 0.54171383 -0.84056294 0
vn 0.54171383 -0.84056294 0
vn 0.54171383 -0.84056294 0
vn 0.54171383 -0.84056294 0
vn -0 0 -1
vn -0 0 -1
vn -0 0 -1
vn -0 0 -1
vn 1 0 0
vn 1 0 0
vn 1 0 0
vn 1 0 0
vn -0 0 1
vn -0 0 1
vn -0 0 1
vn -0 0 1
vn -1 0 0
vn -1 0 0
vn -1 0 0
vn -1 0 0
vn -0 -1 0
vn -0 -1 0
vn -0 -1 0
vn -0 -1 0
vn -0 -1 0
vn -0 -1 0
vn -0 -1 0
vn -0 -1 0
g SM_Prop_Light_01_0
f 3/3/3 2/2/2 1/1/1
f 4/4/4 3/3/3 1/1/1
f 7/7/7 6/6/6 5/5/5
f 8/8/8 7/7/7 5/5/5
f 11/11/11 10/10/10 9/9/9
f 12/12/12 11/11/11 9/9/9
f 15/15/15 14/14/14 13/13/13
f 16/16/16 15/15/15 13/13/13
f 19/19/19 18/18/18 17/17/17
f 20/20/20 19/19/19 17/17/17
f 23/23/23 22/22/22 21/21/21
f 24/24/24 23/23/23 21/21/21
f 27/27/27 26/26/26 25/25/25
f 28/28/28 27/27/27 25/25/25
f 31/31/31 30/30/30 29/29/29
f 32/32/32 31/31/31 29/29/29
f 35/35/35 34/34/34 33/33/33
f 36/36/36 35/35/35 33/33/33
f 39/39/39 38/38/38 37/37/37
f 40/40/40 39/39/39 37/37/37
f 43/43/43 42/42/42 41/41/41
f 44/44/44 43/43/43 41/41/41
f 47/47/47 46/46/46 45/45/45
f 48/48/48 47/47/47 45/45/45
f 51/51/51 50/50/50 49/49/49
f 52/52/52 51/51/51 49/49/49
f 55/55/55 54/54/54 53/53/53
f 56/56/56 55/55/55 53/53/53
f 59/59/59 58/58/58 57/57/57
f 60/60/60 59/59/59 57/57/57
f 63/63/63 62/62/62 61/61/61
f 64/64/64 63/63/63 61/61/61
f 67/67/67 66/66/66 65/65/65
f 68/68/68 67/67/67 65/65/65
f 71/71/71 70/70/70 69/69/69
f 72/72/72 71/71/71 69/69/69
f 75/75/75 74/74/74 73/73/73
f 76/76/76 75/75/75 73/73/73
f 79/79/79 78/78/78 77/77/77
f 80/80/80 79/79/79 77/77/77
f 83/83/83 82/82/82 81/81/81
f 84/84/84 83/83/83 81/81/81
f 87/87/87 86/86/86 85/85/85
f 88/88/88 87/87/87 85/85/85
f 91/91/91 90/90/90 89/89/89
f 92/92/92 91/91/91 89/89/89
f 89/89/89 90/90/90 93/93/93
f 94/94/94 91/91/91 92/92/92
f 90/90/90 95/95/95 93/93/93
f 96/96/96 94/94/94 92/92/92
f 93/93/93 95/95/95 96/96/96
f 95/95/95 94/94/94 96/96/96
