g SM_Prop_Powerpole_Single_01
v 0.08177368 6.2711816 -0.08178711
v -0 6.3031793 -9.765625E-06
v -0 6.2711816 -0.1156543
v -0 6.2711816 -0.1156543
v -0 6.3031793 -9.765625E-06
v -0.08177368 6.3031793 -0.08178711
v -0 6.3031793 0.11563476
v -0 6.3031793 -9.765625E-06
v 0.08177368 6.2741013 0.081767574
v 0.08177368 6.2741013 0.081767574
v -0 6.3031793 -9.765625E-06
v 0.11564697 6.3031793 -9.765625E-06
v 0.11564697 6.3031793 -9.765625E-06
v -0 6.3031793 -9.765625E-06
v 0.08177368 6.2711816 -0.08178711
v 0.08177368 0 -0.08178711
v 0.09322388 1.0862952 -0.07743164
v 0.011225586 1.0831051 -0.12065429
v -0 0 -0.1156543
v -0 0 -0.1156543
v 0.011225586 1.0831051 -0.12065429
v -0.077348635 1.1417012 -0.09320312
v -0.08177368 0 -0.08178711
v -0.08177368 0 -0.08178711
v -0.077348635 1.1417012 -0.09320312
v -0.12061523 1.0817277 -0.011162109
v -0.11564697 0 -9.765625E-06
v -0.11564697 0 -9.765625E-06
v -0.12061523 1.0817277 -0.011162109
v -0.09322388 1.1448354 0.077412106
v -0.08177368 0 0.081767574
v -0.08177368 0 0.081767574
v -0.09322388 1.1448354 0.077412106
v -0.011225586 1.0875376 0.120634764
v -0 0 0.11563476
v -0 0 0.11563476
v -0.011225586 1.0875376 0.120634764
v 0.087687984 1.1499175 0.086162105
v 0.08177368 0 0.081767574
v 0.08177368 0 0.081767574
v 0.087687984 1.1499175 0.086162105
v 0.12061523 1.2052468 0.011142578
v 0.11564697 0 -9.765625E-06
v 0.11564697 0 -9.765625E-06
v 0.12061523 1.2052468 0.011142578
v 0.09322388 1.0862952 -0.07743164
v 0.08177368 0 -0.08178711
v -0.08177368 6.3031793 -0.08178711
v -0 6.3031793 -9.765625E-06
v -0.11564697 6.3031793 -9.765625E-06
v -0.08177368 6.3031793 0.081767574
v -0 6.3031793 0.11563476
v -0.09322388 1.1448354 0.077412106
v 0.0019189452 3.6156633 0.115244135
v -0.011225586 1.0875376 0.120634764
v -0.07485962 3.5998905 0.10097656
v -0 6.3031793 0.11563476
v -0.08177368 6.3031793 0.081767574
v -0.12061523 1.0817277 -0.011162109
v -0.07485962 3.5998905 0.10097656
v -0.09322388 1.1448354 0.077412106
v -0.12328247 3.62867 0.010830078
v -0.08177368 6.3031793 0.081767574
v -0.11564697 6.3031793 -9.765625E-06
v -0.077348635 1.1417012 -0.09320312
v -0.12328247 3.62867 0.010830078
v -0.12061523 1.0817277 -0.011162109
v -0.09677002 3.632531 -0.07352539
v -0.11564697 6.3031793 -9.765625E-06
v -0.08177368 6.3031793 -0.08178711
v 0.011225586 1.0831051 -0.12065429
v -0.09677002 3.632531 -0.07352539
v -0.077348635 1.1417012 -0.09320312
v -0.018397216 3.631005 -0.11463867
v -0.08177368 6.3031793 -0.08178711
v -0 6.2711816 -0.1156543
v 0.09322388 1.0862952 -0.07743164
v -0.018397216 3.631005 -0.11463867
v 0.011225586 1.0831051 -0.12065429
v 0.07371093 3.6249852 -0.0840918
v -0 6.2711816 -0.1156543
v 0.08177368 6.2711816 -0.08178711
v 0.12061523 1.2052468 0.011142578
v 0.07371093 3.6249852 -0.0840918
v 0.09322388 1.0862952 -0.07743164
v 0.1068042 3.6179984 -0.010214844
v 0.08177368 6.2711816 -0.08178711
v 0.11564697 6.3031793 -9.765625E-06
v 0.087687984 1.1499175 0.086162105
v 0.1068042 3.6179984 -0.010214844
v 0.12061523 1.2052468 0.011142578
v 0.08029175 3.6141372 0.07414062
v 0.11564697 6.3031793 -9.765625E-06
v 0.08177368 6.2741013 0.081767574
v -0.011225586 1.0875376 0.120634764
v 0.08029175 3.6141372 0.07414062
v 0.087687984 1.1499175 0.086162105
v 0.0019189452 3.6156633 0.115244135
v 0.08177368 6.2741013 0.081767574
v -0 6.3031793 0.11563476
v 0.054840088 5.3606267 -0.07371093
v 0.038345948 5.351105 -0.21520507
v 0.038344726 5.299397 -0.21520507
v 0.054842528 5.28988 -0.07371093
v 0.054842528 5.28988 -0.07371093
v 0.038344726 5.299397 -0.21520507
v -0.0064318846 5.2735434 -0.21521483
v -0.006429443 5.2545037 -0.07371093
v -0.006429443 5.2545037 -0.07371093
v -0.0064318846 5.2735434 -0.21521483
v -0.051204834 5.299397 -0.21520507
v -0.06769897 5.2898774 -0.07371093
v -0.06769897 5.2898774 -0.07371093
v -0.051204834 5.299397 -0.21520507
v -0.051203612 5.351105 -0.21520507
v -0.06769897 5.3606243 -0.07371093
v -0.06769897 5.3606243 -0.07371093
v -0.051203612 5.351105 -0.21520507
v -0.0064270017 5.3769555 -0.21520507
v -0.006429443 5.3959994 -0.0737207
v -0.006429443 5.3959994 -0.0737207
v -0.0064270017 5.3769555 -0.21520507
v 0.038345948 5.351105 -0.21520507
v 0.054840088 5.3606267 -0.07371093
v -0.06769897 5.2898774 -0.07371093
v -0.006429443 5.3252506 -0.07371093
v -0.006429443 5.2545037 -0.07371093
v 0.054842528 5.28988 -0.07371093
v 0.054840088 5.3606267 -0.07371093
v -0.006429443 5.3959994 -0.0737207
v -0.06769897 5.3606243 -0.07371093
v -0.006429443 5.3252506 -0.07371093
v -0.06769897 5.2898774 -0.07371093
v -0.006429443 5.3959994 -0.0737207
v 0.054840088 5.3606267 0.073691405
v 0.054842528 5.28988 0.073691405
v 0.038344726 5.299397 0.21518554
v 0.038345948 5.351105 0.21518554
v 0.054842528 5.28988 0.073691405
v -0.006429443 5.2545037 0.073691405
v -0.0064318846 5.2735434 0.21519531
v 0.038344726 5.299397 0.21518554
v -0.006429443 5.2545037 0.073691405
v -0.06769897 5.2898774 0.073691405
v -0.051204834 5.299397 0.21518554
v -0.0064318846 5.2735434 0.21519531
v -0.06769897 5.2898774 0.073691405
v -0.06769897 5.3606243 0.073691405
v -0.051203612 5.351105 0.21518554
v -0.051204834 5.299397 0.21518554
v -0.06769897 5.3606243 0.073691405
v -0.006429443 5.3959994 0.07370117
v -0.0064270017 5.3769555 0.21518554
v -0.051203612 5.351105 0.21518554
v -0.006429443 5.3959994 0.07370117
v 0.054840088 5.3606267 0.073691405
v 0.038345948 5.351105 0.21518554
v -0.0064270017 5.3769555 0.21518554
v -0.06769897 5.2898774 0.073691405
v -0.006429443 5.2545037 0.073691405
v -0.006429443 5.3252506 0.073691405
v 0.054842528 5.28988 0.073691405
v 0.054840088 5.3606267 0.073691405
v -0.006429443 5.3959994 0.07370117
v -0.06769897 5.3606243 0.073691405
v -0.06769897 5.2898774 0.073691405
v -0.006429443 5.3252506 0.073691405
v -0.006429443 5.3959994 0.07370117
v -0 0 -0.1156543
v -0 0 -9.765625E-06
v 0.08177368 0 -0.08178711
v -0.08177368 0 -0.08178711
v 0.11564697 0 -9.765625E-06
v -0.11564697 0 -9.765625E-06
v 0.08177368 0 0.081767574
v -0.08177368 0 0.081767574
v -0 0 0.11563476
v 0.038345948 5.351105 -0.21520507
v -0.006429443 5.325252 -0.21521483
v 0.038344726 5.299397 -0.21520507
v -0.0064270017 5.3769555 -0.21520507
v -0.0064318846 5.2735434 -0.21521483
v -0.051203612 5.351105 -0.21520507
v -0.051204834 5.299397 -0.21520507
v 0.038345948 5.351105 0.21518554
v 0.038344726 5.299397 0.21518554
v -0.006429443 5.325252 0.21519531
v -0.0064270017 5.3769555 0.21518554
v -0.0064318846 5.2735434 0.21519531
v -0.051203612 5.351105 0.21518554
v -0.051204834 5.299397 0.21518554
vt 0.03788299 0.2776377
vt 0.03788299 0.2776377
vt 0.03788299 0.2776377
vt 0.03788299 0.2776377
vt 0.03788299 0.2776377
vt 0.03788299 0.2776377
vt 0.03788299 0.2776377
vt 0.03788299 0.2776377
vt 0.03788299 0.2776377
vt 0.03788299 0.2776377
vt 0.03788299 0.2776377
vt 0.03788299 0.2776377
vt 0.03788299 0.2776377
vt 0.03788299 0.2776377
vt 0.03788299 0.2776377
vt 0.03863094 0.22692758
vt 0.03863094 0.22692761
vt 0.03863094 0.22692761
vt 0.03863094 0.22692758
vt 0.03863094 0.22692758
vt 0.03863094 0.22692761
vt 0.03863094 0.22692761
vt 0.03863094 0.22692758
vt 0.03863094 0.22692758
vt 0.03863094 0.22692761
vt 0.03863094 0.22692761
vt 0.03863094 0.22692758
vt 0.03863094 0.22692758
vt 0.03863094 0.22692761
vt 0.03863094 0.22692761
vt 0.03863094 0.22692758
vt 0.03863094 0.22692758
vt 0.03863094 0.22692761
vt 0.03863094 0.22692761
vt 0.03863094 0.22692758
vt 0.03863094 0.22692758
vt 0.03863094 0.22692761
vt 0.03863094 0.22692761
vt 0.03863094 0.22692758
vt 0.03863094 0.22692758
vt 0.03863094 0.22692761
vt 0.03863094 0.22692761
vt 0.03863094 0.22692758
vt 0.03863094 0.22692758
vt 0.03863094 0.22692761
vt 0.03863094 0.22692761
vt 0.03863094 0.22692758
vt 0.03788299 0.2776377
vt 0.03788299 0.2776377
vt 0.03788299 0.2776377
vt 0.03788299 0.2776377
vt 0.03788299 0.2776377
vt 0.03788299 0.2493659
vt 0.03788299 0.2776377
vt 0.03788299 0.2493659
vt 0.03788299 0.2776377
vt 0.03788299 0.2776377
vt 0.03788299 0.2776377
vt 0.03788299 0.2493659
vt 0.03788299 0.2776377
vt 0.03788299 0.2493659
vt 0.03788299 0.2776377
vt 0.03788299 0.2776377
vt 0.03788299 0.2776377
vt 0.03788299 0.2493659
vt 0.03788299 0.2776377
vt 0.03788299 0.2493659
vt 0.03788299 0.2776377
vt 0.03788299 0.2776377
vt 0.03788299 0.2776377
vt 0.03788299 0.2493659
vt 0.03788299 0.2776377
vt 0.03788299 0.2493659
vt 0.03788299 0.2776377
vt 0.03788299 0.2776377
vt 0.03788299 0.2776377
vt 0.03788299 0.2493659
vt 0.03788299 0.2776377
vt 0.03788299 0.2493659
vt 0.03788299 0.2776377
vt 0.03788299 0.2776377
vt 0.03788299 0.2776377
vt 0.03788299 0.2493659
vt 0.03788299 0.2776377
vt 0.03788299 0.2493659
vt 0.03788299 0.2776377
vt 0.03788299 0.2776377
vt 0.03788299 0.2776377
vt 0.03788299 0.2493659
vt 0.03788299 0.2776377
vt 0.03788299 0.2493659
vt 0.03788299 0.2776377
vt 0.03788299 0.2776377
vt 0.03788299 0.2776377
vt 0.03788299 0.2493659
vt 0.03788299 0.2776377
vt 0.03788299 0.2493659
vt 0.03788299 0.2776377
vt 0.03788299 0.2776377
vt 0.03788299 0.2776377
vt 0.08054587 0.27418137
vt 0.08054587 0.27418134
vt 0.08054584 0.27418134
vt 0.08054584 0.27418137
vt 0.08054584 0.27418137
vt 0.08054584 0.27418134
vt 0.08054581 0.27418134
vt 0.08054581 0.27418137
vt 0.08054581 0.27418137
vt 0.08054581 0.27418134
vt 0.08054584 0.27418134
vt 0.08054584 0.27418137
vt 0.08054584 0.27418137
vt 0.08054584 0.27418134
vt 0.08054584 0.27418134
vt 0.08054584 0.27418137
vt 0.08054584 0.27418137
vt 0.08054584 0.27418134
vt 0.08054578 0.27418134
vt 0.08054578 0.27418137
vt 0.08054578 0.27418137
vt 0.08054578 0.27418134
vt 0.08054584 0.27418134
vt 0.08054584 0.27418137
vt 0.08054587 0.27418134
vt 0.08054587 0.2741813
vt 0.08054587 0.2741813
vt 0.08054584 0.27418134
vt 0.08054578 0.27418134
vt 0.08054584 0.2741813
vt 0.08054584 0.27418137
vt 0.08054587 0.2741813
vt 0.08054587 0.27418134
vt 0.08054584 0.2741813
vt 0.08054587 0.27418137
vt 0.08054584 0.27418137
vt 0.08054584 0.27418134
vt 0.08054587 0.27418134
vt 0.08054584 0.27418137
vt 0.08054581 0.27418137
vt 0.08054581 0.27418134
vt 0.08054584 0.27418134
vt 0.08054581 0.27418137
vt 0.08054584 0.27418137
vt 0.08054584 0.27418134
vt 0.08054581 0.27418134
vt 0.08054584 0.27418137
vt 0.08054584 0.27418137
vt 0.08054584 0.27418134
vt 0.08054584 0.27418134
vt 0.08054584 0.27418137
vt 0.08054578 0.27418137
vt 0.08054578 0.27418134
vt 0.08054584 0.27418134
vt 0.08054578 0.27418137
vt 0.08054584 0.27418137
vt 0.08054584 0.27418134
vt 0.08054578 0.27418134
vt 0.08054587 0.27418134
vt 0.08054587 0.2741813
vt 0.08054587 0.2741813
vt 0.08054584 0.27418134
vt 0.08054578 0.27418134
vt 0.08054584 0.2741813
vt 0.08054584 0.27418137
vt 0.08054587 0.27418134
vt 0.08054587 0.2741813
vt 0.08054584 0.2741813
vt 0.03863094 0.22692758
vt 0.03863094 0.22692758
vt 0.03863094 0.22692758
vt 0.03863094 0.22692758
vt 0.03863094 0.22692758
vt 0.03863094 0.22692758
vt 0.03863094 0.22692758
vt 0.03863094 0.22692758
vt 0.03863094 0.22692758
vt 0.08054584 0.2741813
vt 0.08054587 0.2741813
vt 0.08054587 0.2741813
vt 0.08054584 0.2741813
vt 0.08054587 0.2741813
vt 0.08054578 0.27418134
vt 0.08054584 0.27418134
vt 0.08054584 0.2741813
vt 0.08054587 0.2741813
vt 0.08054587 0.2741813
vt 0.08054584 0.2741813
vt 0.08054587 0.2741813
vt 0.08054578 0.27418134
vt 0.08054584 0.27418134
vn 0.10977609 0.957963 -0.26505876
vn 0.10977609 0.957963 -0.26505876
vn 0.10977609 0.957963 -0.26505876
vn 0.2576768 0.93124187 -0.25766528
vn 0.2576768 0.93124187 -0.25766528
vn 0.2576768 0.93124187 -0.25766528
vn 0.33503705 0.94220495 0
vn 0.33503705 0.94220495 0
vn 0.33503705 0.94220495 0
vn -0 0.9422097 0.3350237
vn -0 0.9422097 0.3350237
vn -0 0.9422097 0.3350237
vn -0 0.93125117 -0.36437812
vn -0 0.93125117 -0.36437812
vn -0 0.93125117 -0.36437812
vn 0.4259611 -0.0047211777 -0.9047291
vn 0.40815112 -0.0005345024 -0.91291434
vn 0.40815112 -0.0005345024 -0.91291434
vn 0.4259611 -0.0047211777 -0.9047291
vn -0.3400665 -0.0045465566 -0.9403904
vn -0.35990983 -0.0017622716 -0.9329855
vn -0.35990983 -0.0017622716 -0.9329855
vn -0.3400665 -0.0045465566 -0.9403904
vn -0.90406096 -0.00455888 -0.42737934
vn -0.9132948 -0.002701042 -0.40729025
vn -0.9132948 -0.002701042 -0.40729025
vn -0.90406096 -0.00455888 -0.42737934
vn -0.9404465 -0.0045673097 0.33991095
vn -0.9308444 -0.0026190889 0.36540648
vn -0.9308444 -0.0026190889 0.36540648
vn -0.9404465 -0.0045673097 0.33991095
vn -0.4272032 -0.0046004467 0.904144
vn -0.38439694 -0.0029405667 0.92316324
vn -0.38439694 -0.0029405667 0.92316324
vn -0.4272032 -0.0046004467 0.904144
vn 0.35469344 -0.0030837713 0.93497753
vn 0.37309402 -0.00016243223 0.9277935
vn 0.37309402 -0.00016243223 0.9277935
vn 0.35469344 -0.0030837713 0.93497753
vn 0.9208339 -0.006828691 0.38989532
vn 0.92870945 -0.00017596428 0.37080815
vn 0.92870945 -0.00017596428 0.37080815
vn 0.9208339 -0.006828691 0.38989532
vn 0.9419785 -0.004477657 -0.33564332
vn 0.9391153 -8.311826E-05 -0.34360212
vn 0.9391153 -8.311826E-05 -0.34360212
vn 0.9419785 -0.004477657 -0.33564332
vn -0 1 0
vn -0 1 0
vn -0 1 0
vn -0 1 0
vn -0 1 0
vn -0.38439694 -0.0029405667 0.92316324
vn -0.31586188 0.0007949548 0.9488049
vn -0.38439694 -0.0029405667 0.92316324
vn -0.31586188 0.0007949548 0.9488049
vn -0.29075685 0.0028635818 0.95679265
vn -0.29075685 0.0028635818 0.95679265
vn -0.9308444 -0.0026190889 0.36540648
vn -0.91142076 0.00093348604 0.4114746
vn -0.9308444 -0.0026190889 0.36540648
vn -0.91142076 0.00093348604 0.4114746
vn -0.9018195 0.0025354 0.43210557
vn -0.9018195 0.0025354 0.43210557
vn -0.9132948 -0.002701042 -0.40729025
vn -0.93124735 0.0009587751 -0.36438656
vn -0.9132948 -0.002701042 -0.40729025
vn -0.93124735 0.0009587751 -0.36438656
vn -0.939858 0.0027588508 -0.34155425
vn -0.939858 0.0027588508 -0.34155425
vn -0.35990983 -0.0017622716 -0.9329855
vn -0.40183115 0.0010531245 -0.91571313
vn -0.35990983 -0.0017622716 -0.9329855
vn -0.40183115 0.0010531245 -0.91571313
vn -0.42383876 0.0010828163 -0.905737
vn -0.42383876 0.0010828163 -0.905737
vn 0.40815112 -0.0005345024 -0.91291434
vn 0.3688535 0.0010715629 -0.929487
vn 0.40815112 -0.0005345024 -0.91291434
vn 0.3688535 0.0010715629 -0.929487
vn 0.34733146 -0.0015098385 -0.9377412
vn 0.34733146 -0.0015098385 -0.9377412
vn 0.9391153 -8.311826E-05 -0.34360212
vn 0.92769575 0.0011627943 -0.37333533
vn 0.9391153 -8.311826E-05 -0.34360212
vn 0.92769575 0.0011627943 -0.37333533
vn 0.9187078 -0.0019864873 -0.39493293
vn 0.9187078 -0.0019864873 -0.39493293
vn 0.92870945 -0.00017596428 0.37080815
vn 0.93811136 0.0017616278 0.34632912
vn 0.92870945 -0.00017596428 0.37080815
vn 0.93811136 0.0017616278 0.34632912
vn 0.94002473 -0.0029536835 0.34109333
vn 0.94002473 -0.0029536835 0.34109333
vn 0.37309402 -0.00016243223 0.9277935
vn 0.4076239 0.0007178989 0.91314965
vn 0.37309402 -0.00016243223 0.9277935
vn 0.4076239 0.0007178989 0.91314965
vn 0.4237718 -0.0013234033 0.9057681
vn 0.4237718 -0.0013234033 0.9057681
vn 0.99327254 0 -0.115799814
vn 0.99327254 0 -0.115799814
vn 0.99327254 0 -0.115799814
vn 0.99327254 0 -0.115799814
vn 0.4966592 -0.86019146 -0.11575908
vn 0.4966592 -0.86019146 -0.11575908
vn 0.4966592 -0.86019146 -0.11575908
vn 0.4966592 -0.86019146 -0.11575908
vn -0.4966663 -0.8601884 -0.11575161
vn -0.4966663 -0.8601884 -0.11575161
vn -0.4966663 -0.8601884 -0.11575161
vn -0.4966663 -0.8601884 -0.11575161
vn -0.9932735 0 -0.11579137
vn -0.9932735 0 -0.11579137
vn -0.9932735 0 -0.11579137
vn -0.9932735 0 -0.11579137
vn -0.4966443 0.86019725 -0.11578106
vn -0.4966443 0.86019725 -0.11578106
vn -0.4966443 0.86019725 -0.11578106
vn -0.4966443 0.86019725 -0.11578106
vn 0.49664253 0.86019874 -0.11577784
vn 0.49664253 0.86019874 -0.11577784
vn 0.49664253 0.86019874 -0.11577784
vn 0.49664253 0.86019874 -0.11577784
vn -0 0 1
vn -0 4.6010726E-05 1
vn -0 0 1
vn -0 0 1
vn -3.984871E-05 6.901609E-05 1
vn -0 0.00013803218 1
vn 3.9845956E-05 6.901609E-05 1
vn -0 4.6010726E-05 1
vn -0 0 1
vn -0 0.00013803218 1
vn 0.99327254 0 0.115799814
vn 0.99327254 0 0.115799814
vn 0.99327254 0 0.115799814
vn 0.99327254 0 0.115799814
vn 0.4966592 -0.86019146 0.11575908
vn 0.4966592 -0.86019146 0.11575908
vn 0.4966592 -0.86019146 0.11575908
vn 0.4966592 -0.86019146 0.11575908
vn -0.4966663 -0.8601884 0.11575161
vn -0.4966663 -0.8601884 0.11575161
vn -0.4966663 -0.8601884 0.11575161
vn -0.4966663 -0.8601884 0.11575161
vn -0.9932735 0 0.11579137
vn -0.9932735 0 0.11579137
vn -0.9932735 0 0.11579137
vn -0.9932735 0 0.11579137
vn -0.4966443 0.86019725 0.11578106
vn -0.4966443 0.86019725 0.11578106
vn -0.4966443 0.86019725 0.11578106
vn -0.4966443 0.86019725 0.11578106
vn 0.49664253 0.86019874 0.11577784
vn 0.49664253 0.86019874 0.11577784
vn 0.49664253 0.86019874 0.11577784
vn 0.49664253 0.86019874 0.11577784
vn -0 0 -1
vn -0 0 -1
vn -0 4.6010726E-05 -1
vn -0 0 -1
vn -3.984871E-05 6.901609E-05 -1
vn -0 0.00013803218 -1
vn 3.9845956E-05 6.901609E-05 -1
vn -0 0 -1
vn -0 4.6010726E-05 -1
vn -0 0.00013803218 -1
vn -0 -1 0
vn -0 -1 0
vn -0 -1 0
vn -0 -1 0
vn -0 -1 0
vn -0 -1 0
vn -0 -1 0
vn -0 -1 0
vn -0 -1 0
vn 0.00016357662 9.443617E-05 -1
vn -0 6.295916E-05 -1
vn 0.00021810399 0 -1
vn -0 0.00018887749 -1
vn -0 0 -1
vn -0.00016357513 9.444132E-05 -1
vn -0.00021810696 0 -1
vn 0.00016357662 9.443617E-05 1
vn 0.00021810399 0 1
vn -0 6.295916E-05 1
vn -0 0.00018887749 1
vn -0 0 1
vn -0.00016357513 9.444132E-05 1
vn -0.00021810696 0 1
g SM_Prop_Powerpole_Single_01_0
f 3/3/3 2/2/2 1/1/1
f 6/6/6 5/5/5 4/4/4
f 9/9/9 8/8/8 7/7/7
f 12/12/12 11/11/11 10/10/10
f 15/15/15 14/14/14 13/13/13
f 18/18/18 17/17/17 16/16/16
f 19/19/19 18/18/18 16/16/16
f 22/22/22 21/21/21 20/20/20
f 23/23/23 22/22/22 20/20/20
f 26/26/26 25/25/25 24/24/24
f 27/27/27 26/26/26 24/24/24
f 30/30/30 29/29/29 28/28/28
f 31/31/31 30/30/30 28/28/28
f 34/34/34 33/33/33 32/32/32
f 35/35/35 34/34/34 32/32/32
f 38/38/38 37/37/37 36/36/36
f 39/39/39 38/38/38 36/36/36
f 42/42/42 41/41/41 40/40/40
f 43/43/43 42/42/42 40/40/40
f 46/46/46 45/45/45 44/44/44
f 47/47/47 46/46/46 44/44/44
f 50/50/50 49/49/49 48/48/48
f 51/51/51 49/49/49 50/50/50
f 52/52/52 49/49/49 51/51/51
f 55/55/55 54/54/54 53/53/53
f 54/54/54 56/56/56 53/53/53
f 54/54/54 57/57/57 56/56/56
f 57/57/57 58/58/58 56/56/56
f 61/61/61 60/60/60 59/59/59
f 60/60/60 62/62/62 59/59/59
f 60/60/60 63/63/63 62/62/62
f 63/63/63 64/64/64 62/62/62
f 67/67/67 66/66/66 65/65/65
f 66/66/66 68/68/68 65/65/65
f 66/66/66 69/69/69 68/68/68
f 69/69/69 70/70/70 68/68/68
f 73/73/73 72/72/72 71/71/71
f 72/72/72 74/74/74 71/71/71
f 72/72/72 75/75/75 74/74/74
f 75/75/75 76/76/76 74/74/74
f 79/79/79 78/78/78 77/77/77
f 78/78/78 80/80/80 77/77/77
f 78/78/78 81/81/81 80/80/80
f 81/81/81 82/82/82 80/80/80
f 85/85/85 84/84/84 83/83/83
f 84/84/84 86/86/86 83/83/83
f 84/84/84 87/87/87 86/86/86
f 87/87/87 88/88/88 86/86/86
f 91/91/91 90/90/90 89/89/89
f 90/90/90 92/92/92 89/89/89
f 90/90/90 93/93/93 92/92/92
f 93/93/93 94/94/94 92/92/92
f 97/97/97 96/96/96 95/95/95
f 96/96/96 98/98/98 95/95/95
f 96/96/96 99/99/99 98/98/98
f 99/99/99 100/100/100 98/98/98
f 103/103/103 102/102/102 101/101/101
f 104/104/104 103/103/103 101/101/101
f 107/107/107 106/106/106 105/105/105
f 108/108/108 107/107/107 105/105/105
f 111/111/111 110/110/110 109/109/109
f 112/112/112 111/111/111 109/109/109
f 115/115/115 114/114/114 113/113/113
f 116/116/116 115/115/115 113/113/113
f 119/119/119 118/118/118 117/117/117
f 120/120/120 119/119/119 117/117/117
f 123/123/123 122/122/122 121/121/121
f 124/124/124 123/123/123 121/121/121
f 127/127/127 126/126/126 125/125/125
f 128/128/128 126/126/126 127/127/127
f 129/129/129 126/126/126 128/128/128
f 130/130/130 126/126/126 129/129/129
f 133/133/133 132/132/132 131/131/131
f 131/131/131 132/132/132 134/134/134
f 137/137/137 136/136/136 135/135/135
f 138/138/138 137/137/137 135/135/135
f 141/141/141 140/140/140 139/139/139
f 142/142/142 141/141/141 139/139/139
f 145/145/145 144/144/144 143/143/143
f 146/146/146 145/145/145 143/143/143
f 149/149/149 148/148/148 147/147/147
f 150/150/150 149/149/149 147/147/147
f 153/153/153 152/152/152 151/151/151
f 154/154/154 153/153/153 151/151/151
f 157/157/157 156/156/156 155/155/155
f 158/158/158 157/157/157 155/155/155
f 161/161/161 160/160/160 159/159/159
f 161/161/161 162/162/162 160/160/160
f 161/161/161 163/163/163 162/162/162
f 161/161/161 164/164/164 163/163/163
f 167/167/167 166/166/166 165/165/165
f 167/167/167 165/165/165 168/168/168
f 171/171/171 170/170/170 169/169/169
f 169/169/169 170/170/170 172/172/172
f 173/173/173 170/170/170 171/171/171
f 172/172/172 170/170/170 174/174/174
f 175/175/175 170/170/170 173/173/173
f 174/174/174 170/170/170 176/176/176
f 177/177/177 170/170/170 175/175/175
f 176/176/176 170/170/170 177/177/177
f 180/180/180 179/179/179 178/178/178
f 178/178/178 179/179/179 181/181/181
f 182/182/182 179/179/179 180/180/180
f 181/181/181 179/179/179 183/183/183
f 184/184/184 179/179/179 182/182/182
f 183/183/183 179/179/179 184/184/184
f 187/187/187 186/186/186 185/185/185
f 187/187/187 185/185/185 188/188/188
f 187/187/187 189/189/189 186/186/186
f 187/187/187 188/188/188 190/190/190
f 187/187/187 191/191/191 189/189/189
f 187/187/187 190/190/190 191/191/191
