g SM_Prop_Pipe_02
v -0.15115547 15.828995 -1.0645657
v -0.15115547 15.929945 -1.0645657
v -0.15115547 15.929945 -1.683979
v -0.15115547 15.828995 -1.683979
v -0.77057266 15.929947 -1.0645657
v -0.77057457 15.828993 -1.0645657
v -0.77057457 15.828993 -1.683979
v -0.77057266 15.929947 -1.683979
v -0.77057457 15.828993 -1.683979
v -0.15115547 15.828995 -1.683979
v -0.15115547 15.929945 -1.683979
v -0.77057266 15.929947 -1.683979
v -0.77057266 15.929947 -1.0645657
v -0.15115547 15.929945 -1.0645657
v -0.15115547 15.828995 -1.0645657
v -0.77057457 15.828993 -1.0645657
v 1.1410847 0 1.767353
v 0.970665 4.7683716E-07 1.767353
v 1.0132523 0.44476318 1.767353
v 1.1807499 0.44476175 1.767353
v 1.0021172 4.7683716E-07 1.3225899
v 1.1703434 0 1.3225899
v 1.2170467 0.44476175 1.3225899
v 1.0519352 0.44476318 1.3225899
v 1.1703434 0 1.3225899
v 1.1410847 0 1.767353
v 1.1807499 0.44476175 1.767353
v 1.2170467 0.44476175 1.3225899
v 1.1807499 0.44476175 1.767353
v 1.0132523 0.44476318 1.767353
v 1.0519352 0.44476318 1.3225899
v 1.2170467 0.44476175 1.3225899
v 1.1703434 0 1.3225899
v 1.0021172 4.7683716E-07 1.3225899
v 0.970665 4.7683716E-07 1.767353
v 1.1410847 0 1.767353
v 0.9858341 0.09094119 1.6764107
v 0.56438065 0.1316557 1.6184654
v 0.5567913 0.390656 1.6044044
v 1.0119686 0.35382318 1.6764107
v 1.0119686 0.35382318 1.6764107
v 0.5567913 0.390656 1.6044044
v 0.6572304 0.39080477 1.3549461
v 1.0340195 0.35382318 1.4135323
v 1.0340195 0.35382318 1.4135323
v 0.6572304 0.39080477 1.3549461
v 0.662796 0.131809 1.3690071
v 1.0053558 0.09094119 1.4135323
v 1.0053558 0.09094119 1.4135323
v 0.662796 0.131809 1.3690071
v 0.56438065 0.1316557 1.6184654
v 0.9858341 0.09094119 1.6764107
v 0.56438065 0.1316557 1.6184654
v -0.12727737 0.31293535 1.2813396
v 0.5567913 0.390656 1.6044044
v -0.20480347 0.053408146 1.2716713
v -0.8366432 0.6552291 1.0006828
v -0.8377762 0.39639616 1.0067978
v 0.5567913 0.390656 1.6044044
v -0.12727737 0.31293535 1.2813396
v -0.03561783 0.3114624 1.0278244
v 0.6572304 0.39080477 1.3549461
v 0.6572304 0.39080477 1.3549461
v -0.115039825 0.05193925 1.018158
v 0.662796 0.131809 1.3690071
v -0.03561783 0.3114624 1.0278244
v -0.7275295 0.40536833 0.75798035
v -0.72424126 0.6641998 0.7518654
v 0.662796 0.131809 1.3690071
v -0.115039825 0.05193925 1.018158
v -0.20480347 0.053408146 1.2716713
v 0.56438065 0.1316557 1.6184654
v -0.12727737 0.31293535 1.2813396
v -0.8366432 0.6552291 1.0006828
v -0.72424126 0.6641998 0.7518654
v -0.03561783 0.3114624 1.0278244
v -0.115039825 0.05193925 1.018158
v -0.7275295 0.40536833 0.75798035
v -0.8377762 0.39639616 1.0067978
v -0.20480347 0.053408146 1.2716713
v -0.8377762 0.39639616 1.0067978
v -1.2170477 1.2388439 -0.13223648
v -1.1172905 1.4879346 0.08550072
v -0.8366432 0.6552291 1.0006828
v -0.8366432 0.6552291 1.0006828
v -1.1172905 1.4879346 0.08550072
v -0.84599686 1.4879823 0.045200348
v -0.72424126 0.6641998 0.7518654
v -0.72424126 0.6641998 0.7518654
v -0.84599686 1.4879823 0.045200348
v -0.94701576 1.2380829 -0.17419434
v -0.7275295 0.40536833 0.75798035
v -0.7275295 0.40536833 0.75798035
v -0.94701576 1.2380829 -0.17419434
v -1.2170477 1.2388439 -0.13223648
v -0.8377762 0.39639616 1.0067978
v -1.2170477 1.2388439 -0.13223648
v -0.75644493 2.9229121 -0.9821949
v -0.5822048 3.146253 -0.8042507
v -1.1172905 1.4879346 0.08550072
v -1.1172905 1.4879346 0.08550072
v -0.5822048 3.146253 -0.8042507
v -0.388937 3.0928726 -0.97036743
v -0.84599686 1.4879823 0.045200348
v -0.84599686 1.4879823 0.045200348
v -0.388937 3.0928726 -0.97036743
v -0.5617409 2.8710113 -1.1476345
v -0.94701576 1.2380829 -0.17419434
v -0.94701576 1.2380829 -0.17419434
v -0.5617409 2.8710113 -1.1476345
v -0.75644493 2.9229121 -0.9821949
v -1.2170477 1.2388439 -0.13223648
v -0.75644493 2.9229121 -0.9821949
v -0.92229843 5.8495946 -1.2919884
v -0.64380074 5.756595 -0.9369774
v -0.5822048 3.146253 -0.8042507
v -0.5822048 3.146253 -0.8042507
v -0.64380074 5.756595 -0.9369774
v -0.47807884 5.7456813 -1.1559391
v -0.388937 3.0928726 -0.97036743
v -0.388937 3.0928726 -0.97036743
v -0.47807884 5.7456813 -1.1559391
v -0.7546749 5.8378873 -1.5079632
v -0.5617409 2.8710113 -1.1476345
v -0.5617409 2.8710113 -1.1476345
v -0.7546749 5.8378873 -1.5079632
v -0.92229843 5.8495946 -1.2919884
v -0.75644493 2.9229121 -0.9821949
v -0.92229843 5.8495946 -1.2919884
v -0.5253849 8.918367 -1.5380306
v -0.27308846 9.093935 -1.2778015
v -0.64380074 5.756595 -0.9369774
v -0.64380074 5.756595 -0.9369774
v -0.27308846 9.093935 -1.2778015
v -0.1343422 9.139353 -1.4964714
v -0.47807884 5.7456813 -1.1559391
v -0.47807884 5.7456813 -1.1559391
v -0.1343422 9.139353 -1.4964714
v -0.39288902 8.959234 -1.7673512
v -0.7546749 5.8378873 -1.5079632
v -0.7546749 5.8378873 -1.5079632
v -0.39288902 8.959234 -1.7673512
v -0.5253849 8.918367 -1.5380306
v -0.92229843 5.8495946 -1.2919884
v -0.5253849 8.918367 -1.5380306
v -0.7269459 11.037939 -1.3340416
v -0.41264343 11.11693 -1.3129692
v -0.27308846 9.093935 -1.2778015
v -0.27308846 9.093935 -1.2778015
v -0.41264343 11.11693 -1.3129692
v -0.43057823 11.160725 -1.5628147
v -0.1343422 9.139353 -1.4964714
v -0.1343422 9.139353 -1.4964714
v -0.43057823 11.160725 -1.5628147
v -0.7446823 11.0818405 -1.5837975
v -0.39288902 8.959234 -1.7673512
v -0.39288902 8.959234 -1.7673512
v -0.7446823 11.0818405 -1.5837975
v -0.7269459 11.037939 -1.3340416
v -0.5253849 8.918367 -1.5380306
v -0.7269459 11.037939 -1.3340416
v -0.6373043 15.828993 -1.197834
v -0.28442383 15.828991 -1.197834
v -0.41264343 11.11693 -1.3129692
v -0.41264343 11.11693 -1.3129692
v -0.28442383 15.828991 -1.197834
v -0.28442383 15.828991 -1.5507126
v -0.43057823 11.160725 -1.5628147
v -0.43057823 11.160725 -1.5628147
v -0.28442383 15.828991 -1.5507126
v -0.6373043 15.828993 -1.5507126
v -0.7446823 11.0818405 -1.5837975
v -0.7446823 11.0818405 -1.5837975
v -0.6373043 15.828993 -1.5507126
v -0.6373043 15.828993 -1.197834
v -0.7269459 11.037939 -1.3340416
v -0.77057457 15.828993 -1.0645657
v -0.6373043 15.828993 -1.197834
v -0.6373043 15.828993 -1.5507126
v -0.77057457 15.828993 -1.683979
v -0.15115547 15.828995 -1.0645657
v -0.28442383 15.828991 -1.5507126
v -0.28442383 15.828991 -1.197834
v -0.15115547 15.828995 -1.683979
v 0.970665 4.7683716E-07 1.767353
v 0.9858341 0.09094119 1.6764107
v 1.0119686 0.35382318 1.6764107
v 1.0132523 0.44476318 1.767353
v 1.0021172 4.7683716E-07 1.3225899
v 1.0340195 0.35382318 1.4135323
v 1.0053558 0.09094119 1.4135323
v 1.0519352 0.44476318 1.3225899
vt 0.2674917 0.06166705
vt 0.2674917 0.061667047
vt 0.2674917 0.061667047
vt 0.2674917 0.06166705
vt 0.16760683 0.061667047
vt 0.16760683 0.061667036
vt 0.16760683 0.061667036
vt 0.16760683 0.061667047
vt 0.20058769 0.061667044
vt 0.20058769 0.06166705
vt 0.20058763 0.06166705
vt 0.20058763 0.061667044
vt 0.20058769 0.061667044
vt 0.20058769 0.06166705
vt 0.20058769 0.06166705
vt 0.20058769 0.061667044
vt 0.23262623 0.061667044
vt 0.23262623 0.06166705
vt 0.23262623 0.06166705
vt 0.23262623 0.061667044
vt 0.23262623 0.061667047
vt 0.23262623 0.061667047
vt 0.23262623 0.061667047
vt 0.23262623 0.061667047
vt 0.16760683 0.061667047
vt 0.16760683 0.061667036
vt 0.16760683 0.061667036
vt 0.16760683 0.061667047
vt 0.20058769 0.061667044
vt 0.20058769 0.06166705
vt 0.20058763 0.06166705
vt 0.20058763 0.061667044
vt 0.20058769 0.061667044
vt 0.20058769 0.06166705
vt 0.20058769 0.06166705
vt 0.20058769 0.061667044
vt 0.20282868 0.22104968
vt 0.20282868 0.22104968
vt 0.20282868 0.22104968
vt 0.20282868 0.22104968
vt 0.26504567 0.22104968
vt 0.26504567 0.22104968
vt 0.26504567 0.22104967
vt 0.26504567 0.22104967
vt 0.20282868 0.22104967
vt 0.20282868 0.22104967
vt 0.20282868 0.22104967
vt 0.20282868 0.22104967
vt 0.17573684 0.22104967
vt 0.17573684 0.22104967
vt 0.17573684 0.22104968
vt 0.17573684 0.22104968
vt 0.20282868 0.22104968
vt 0.20282868 0.22104968
vt 0.20282868 0.22104968
vt 0.20282868 0.22104968
vt 0.20282868 0.22104968
vt 0.20282868 0.22104968
vt 0.26504567 0.22104968
vt 0.26504567 0.22104968
vt 0.26504567 0.22104967
vt 0.26504567 0.22104967
vt 0.20282868 0.22104967
vt 0.20282868 0.22104967
vt 0.20282868 0.22104967
vt 0.20282868 0.22104967
vt 0.20282868 0.22104967
vt 0.20282868 0.22104967
vt 0.17573684 0.22104967
vt 0.17573684 0.22104967
vt 0.17573684 0.22104968
vt 0.17573684 0.22104968
vt 0.26504567 0.22104968
vt 0.26504567 0.22104968
vt 0.26504567 0.22104967
vt 0.26504567 0.22104967
vt 0.17573684 0.22104967
vt 0.17573684 0.22104967
vt 0.17573684 0.22104968
vt 0.17573684 0.22104968
vt 0.20282868 0.22104968
vt 0.20282868 0.22104968
vt 0.20282868 0.22104968
vt 0.20282868 0.22104968
vt 0.26504567 0.22104968
vt 0.26504567 0.22104968
vt 0.26504567 0.22104967
vt 0.26504567 0.22104967
vt 0.20282868 0.22104967
vt 0.20282868 0.22104967
vt 0.20282868 0.22104967
vt 0.20282868 0.22104967
vt 0.17573684 0.22104967
vt 0.17573684 0.22104967
vt 0.17573684 0.22104968
vt 0.17573684 0.22104968
vt 0.20282868 0.22104968
vt 0.20282868 0.22104968
vt 0.20282868 0.22104968
vt 0.20282868 0.22104968
vt 0.26504567 0.22104968
vt 0.26504567 0.22104968
vt 0.26504567 0.22104967
vt 0.26504567 0.22104967
vt 0.20282868 0.22104967
vt 0.20282868 0.22104967
vt 0.20282868 0.22104967
vt 0.20282868 0.22104967
vt 0.17573684 0.22104967
vt 0.17573684 0.22104967
vt 0.17573684 0.22104968
vt 0.17573684 0.22104968
vt 0.20282868 0.22104968
vt 0.20282868 0.22104968
vt 0.20282868 0.22104968
vt 0.20282868 0.22104968
vt 0.26504567 0.22104968
vt 0.26504567 0.22104968
vt 0.26504567 0.22104967
vt 0.26504567 0.22104967
vt 0.20282868 0.22104967
vt 0.20282868 0.22104967
vt 0.20282868 0.22104967
vt 0.20282868 0.22104967
vt 0.17573684 0.22104967
vt 0.17573684 0.22104967
vt 0.17573684 0.22104968
vt 0.17573684 0.22104968
vt 0.20282868 0.22104968
vt 0.20282868 0.22104968
vt 0.20282868 0.22104968
vt 0.20282868 0.22104968
vt 0.26504567 0.22104968
vt 0.26504567 0.22104968
vt 0.26504567 0.22104967
vt 0.26504567 0.22104967
vt 0.20282868 0.22104967
vt 0.20282868 0.22104967
vt 0.20282868 0.22104967
vt 0.20282868 0.22104967
vt 0.17573684 0.22104967
vt 0.17573684 0.22104967
vt 0.17573684 0.22104968
vt 0.17573684 0.22104968
vt 0.20282868 0.22104968
vt 0.20282868 0.22104968
vt 0.20282868 0.22104968
vt 0.20282868 0.22104968
vt 0.26504567 0.22104968
vt 0.26504567 0.22104968
vt 0.26504567 0.22104967
vt 0.26504567 0.22104967
vt 0.20282868 0.22104967
vt 0.20282868 0.22104967
vt 0.20282868 0.22104967
vt 0.20282868 0.22104967
vt 0.17573684 0.22104967
vt 0.17573684 0.22104967
vt 0.17573684 0.22104968
vt 0.17573684 0.22104968
vt 0.20282868 0.22104968
vt 0.20282868 0.22104968
vt 0.20282868 0.22104968
vt 0.20282868 0.22104968
vt 0.26504567 0.22104968
vt 0.26504567 0.22104968
vt 0.26504567 0.22104967
vt 0.26504567 0.22104967
vt 0.20282868 0.22104967
vt 0.20282868 0.22104967
vt 0.20282868 0.22104967
vt 0.20282868 0.22104967
vt 0.17573684 0.22104967
vt 0.17573684 0.22104967
vt 0.17573684 0.22104968
vt 0.17573684 0.22104968
vt 0.23262623 0.061667044
vt 0.23262623 0.061667044
vt 0.23262623 0.061667044
vt 0.23262623 0.061667044
vt 0.23262623 0.06166705
vt 0.23262623 0.06166705
vt 0.23262623 0.06166705
vt 0.23262623 0.06166705
vt 0.2674917 0.06166705
vt 0.2674917 0.06166705
vt 0.2674917 0.06166705
vt 0.2674917 0.06166705
vt 0.2674917 0.061667047
vt 0.2674917 0.061667047
vt 0.2674917 0.061667047
vt 0.2674917 0.061667047
vn 1 0 0
vn 1 0 0
vn 1 0 0
vn 1 0 0
vn -1 0 0
vn -1 0 0
vn -1 0 0
vn -1 0 0
vn -0 0 -1
vn -0 0 -1
vn -0 0 -1
vn -0 0 -1
vn -0 0 1
vn -0 0 1
vn -0 0 1
vn -0 0 1
vn -0 0 1
vn -0 0 1
vn -0 0 1
vn -0 0 1
vn -0 0 -1
vn -0 0 -1
vn -0 0 -1
vn -0 0 -1
vn 0.9926524 -0.09638189 0.07315567
vn 0.9926524 -0.09638189 0.07315567
vn 0.9926524 -0.09638189 0.07315567
vn 0.9926524 -0.09638189 0.07315567
vn -0 1 0
vn -0 1 0
vn -0 1 0
vn -0 1 0
vn -0 -1 0
vn -0 -1 0
vn -0 -1 0
vn -0 -1 0
vn -0.14381368 0.031759445 0.98909503
vn -0.14381368 0.031759445 0.98909503
vn -0.14381368 0.031759445 0.98909503
vn -0.14381368 0.031759445 0.98909503
vn 0.08514108 0.99615496 0.02064487
vn 0.08514108 0.99615496 0.02064487
vn 0.08514108 0.99615496 0.02064487
vn 0.08514108 0.99615496 0.02064487
vn 0.13833492 -0.032791983 -0.9898425
vn 0.13833492 -0.032791983 -0.9898425
vn 0.13833492 -0.032791983 -0.9898425
vn 0.13833492 -0.032791983 -0.9898425
vn -0.10296399 -0.9943955 -0.023999289
vn -0.10296399 -0.9943955 -0.023999289
vn -0.10296399 -0.9943955 -0.023999289
vn -0.10296399 -0.9943955 -0.023999289
vn -0.42345405 0.06476837 0.90359926
vn -0.38959688 0.056173127 0.9192708
vn -0.42345405 0.06476837 0.90359926
vn -0.38959688 0.056173127 0.9192708
vn -0.35516864 0.047495548 0.93359494
vn -0.35516864 0.047495548 0.93359494
vn -0.09508081 0.99470794 -0.03893258
vn -0.09508081 0.99470794 -0.03893258
vn -0.09508081 0.99470794 -0.03893258
vn -0.09508081 0.99470794 -0.03893258
vn 0.42374116 -0.0680115 -0.9032263
vn 0.39060387 -0.059327465 -0.91864514
vn 0.42374116 -0.0680115 -0.9032263
vn 0.39060387 -0.059327465 -0.91864514
vn 0.3569153 -0.050559703 -0.93276745
vn 0.3569153 -0.050559703 -0.93276745
vn 0.08607007 -0.9956809 0.034806114
vn 0.08607007 -0.9956809 0.034806114
vn 0.08607007 -0.9956809 0.034806114
vn 0.08607007 -0.9956809 0.034806114
vn 0.38381606 0.90772605 0.16946544
vn 0.38381606 0.90772605 0.16946544
vn 0.38381606 0.90772605 0.16946544
vn 0.38381606 0.90772605 0.16946544
vn -0.42082486 -0.8889348 -0.18083546
vn -0.42082486 -0.8889348 -0.18083546
vn -0.42082486 -0.8889348 -0.18083546
vn -0.42082486 -0.8889348 -0.18083546
vn -0.93971044 0.045441058 0.33893865
vn -0.93971044 0.045441058 0.33893865
vn -0.93971044 0.045441058 0.33893865
vn -0.93971044 0.045441058 0.33893865
vn 0.42928535 0.68294317 0.59101844
vn 0.42928535 0.68294317 0.59101844
vn 0.42928535 0.68294317 0.59101844
vn 0.42928535 0.68294317 0.59101844
vn 0.9569526 -0.079136565 -0.2792474
vn 0.9569526 -0.079136565 -0.2792474
vn 0.9569526 -0.079136565 -0.2792474
vn 0.9569526 -0.079136565 -0.2792474
vn -0.37661123 -0.7704973 -0.5142935
vn -0.37661123 -0.7704973 -0.5142935
vn -0.37661123 -0.7704973 -0.5142935
vn -0.37661123 -0.7704973 -0.5142935
vn -0.90984863 0.3694066 0.18898205
vn -0.90984863 0.3694066 0.18898205
vn -0.90984863 0.3694066 0.18898205
vn -0.90984863 0.3694066 0.18898205
vn 0.41287914 0.36235774 0.8356002
vn 0.41287914 0.36235774 0.8356002
vn 0.41287914 0.36235774 0.8356002
vn 0.41287914 0.36235774 0.8356002
vn 0.91106695 -0.36020306 -0.20052652
vn 0.91106695 -0.36020306 -0.20052652
vn 0.91106695 -0.36020306 -0.20052652
vn 0.91106695 -0.36020306 -0.20052652
vn -0.4142341 -0.35505784 -0.8380597
vn -0.4142341 -0.35505784 -0.8380597
vn -0.4142341 -0.35505784 -0.8380597
vn -0.4142341 -0.35505784 -0.8380597
vn -0.76439923 0.020103034 0.6444298
vn -0.76439923 0.020103034 0.6444298
vn -0.76439923 0.020103034 0.6444298
vn -0.76439923 0.020103034 0.6444298
vn 0.73518056 0.06188003 0.675041
vn 0.73518056 0.06188003 0.675041
vn 0.73518056 0.06188003 0.675041
vn 0.73518056 0.06188003 0.675041
vn 0.76497865 -0.024122607 -0.64360374
vn 0.76497865 -0.024122607 -0.64360374
vn 0.76497865 -0.024122607 -0.64360374
vn 0.76497865 -0.024122607 -0.64360374
vn -0.7296862 -0.1209448 -0.67300117
vn -0.7296862 -0.1209448 -0.67300117
vn -0.7296862 -0.1209448 -0.67300117
vn -0.7296862 -0.1209448 -0.67300117
vn -0.7585076 0.14900737 0.6343997
vn -0.7585076 0.14900737 0.6343997
vn -0.7585076 0.14900737 0.6343997
vn -0.7585076 0.14900737 0.6343997
vn 0.8216126 -0.029582301 0.56927824
vn 0.8216126 -0.029582301 0.56927824
vn 0.8216126 -0.029582301 0.56927824
vn 0.8216126 -0.029582301 0.56927824
vn 0.7607007 -0.14072709 -0.63366425
vn 0.7607007 -0.14072709 -0.63366425
vn 0.7607007 -0.14072709 -0.63366425
vn 0.7607007 -0.14072709 -0.63366425
vn -0.8296303 0.05633036 -0.55546415
vn -0.8296303 0.05633036 -0.55546415
vn -0.8296303 0.05633036 -0.55546415
vn -0.8296303 0.05633036 -0.55546415
vn -0.41766846 -0.07130634 0.90579724
vn -0.41766846 -0.07130634 0.90579724
vn -0.41766846 -0.07130634 0.90579724
vn -0.41766846 -0.07130634 0.90579724
vn 0.9572059 0.10986165 0.26774463
vn 0.9572059 0.10986165 0.26774463
vn 0.9572059 0.10986165 0.26774463
vn 0.9572059 0.10986165 0.26774463
vn 0.4191885 0.09110197 -0.9033169
vn 0.4191885 0.09110197 -0.9033169
vn 0.4191885 0.09110197 -0.9033169
vn 0.4191885 0.09110197 -0.9033169
vn -0.9630502 -0.102883466 -0.2488963
vn -0.9630502 -0.102883466 -0.2488963
vn -0.9630502 -0.102883466 -0.2488963
vn -0.9630502 -0.102883466 -0.2488963
vn -0.028509198 -0.025775338 0.9992611
vn -0.028509198 -0.025775338 0.9992611
vn -0.028509198 -0.025775338 0.9992611
vn -0.028509198 -0.025775338 0.9992611
vn 0.99907887 -0.028791368 -0.03182084
vn 0.99907887 -0.028791368 -0.03182084
vn 0.99907887 -0.028791368 -0.03182084
vn 0.99907887 -0.028791368 -0.03182084
vn 0.030975096 0.003962837 -0.9995123
vn 0.030975096 0.003962837 -0.9995123
vn 0.030975096 0.003962837 -0.9995123
vn 0.030975096 0.003962837 -0.9995123
vn -0.9993212 0.02009381 0.030875346
vn -0.9993212 0.02009381 0.030875346
vn -0.9993212 0.02009381 0.030875346
vn -0.9993212 0.02009381 0.030875346
vn -0 -1 0
vn -0 -1 0
vn -0 -1 0
vn -0 -1 0
vn -0 -1 0
vn -0 -1 0
vn -0 -1 0
vn -0 -1 0
vn -0.99241877 0.098408766 -0.07362534
vn -0.99241877 0.098408766 -0.07362534
vn -0.9916836 0.10049091 -0.08040568
vn -0.9916836 0.10049091 -0.08040568
vn -0.99156886 0.105158485 -0.07571666
vn -0.99080515 0.10723768 -0.08249476
vn -0.99156886 0.105158485 -0.07571666
vn -0.99080515 0.10723768 -0.08249476
g SM_Prop_Pipe_02_0
f 3/3/3 2/2/2 1/1/1
f 4/4/4 3/3/3 1/1/1
f 7/7/7 6/6/6 5/5/5
f 8/8/8 7/7/7 5/5/5
f 11/11/11 10/10/10 9/9/9
f 12/12/12 11/11/11 9/9/9
f 15/15/15 14/14/14 13/13/13
f 16/16/16 15/15/15 13/13/13
f 19/19/19 18/18/18 17/17/17
f 20/20/20 19/19/19 17/17/17
f 23/23/23 22/22/22 21/21/21
f 24/24/24 23/23/23 21/21/21
f 27/27/27 26/26/26 25/25/25
f 28/28/28 27/27/27 25/25/25
f 31/31/31 30/30/30 29/29/29
f 32/32/32 31/31/31 29/29/29
f 35/35/35 34/34/34 33/33/33
f 36/36/36 35/35/35 33/33/33
f 39/39/39 38/38/38 37/37/37
f 40/40/40 39/39/39 37/37/37
f 43/43/43 42/42/42 41/41/41
f 44/44/44 43/43/43 41/41/41
f 47/47/47 46/46/46 45/45/45
f 48/48/48 47/47/47 45/45/45
f 51/51/51 50/50/50 49/49/49
f 52/52/52 51/51/51 49/49/49
f 55/55/55 54/54/54 53/53/53
f 54/54/54 56/56/56 53/53/53
f 54/54/54 57/57/57 56/56/56
f 57/57/57 58/58/58 56/56/56
f 61/61/61 60/60/60 59/59/59
f 62/62/62 61/61/61 59/59/59
f 65/65/65 64/64/64 63/63/63
f 64/64/64 66/66/66 63/63/63
f 64/64/64 67/67/67 66/66/66
f 67/67/67 68/68/68 66/66/66
f 71/71/71 70/70/70 69/69/69
f 72/72/72 71/71/71 69/69/69
f 75/75/75 74/74/74 73/73/73
f 76/76/76 75/75/75 73/73/73
f 79/79/79 78/78/78 77/77/77
f 80/80/80 79/79/79 77/77/77
f 83/83/83 82/82/82 81/81/81
f 84/84/84 83/83/83 81/81/81
f 87/87/87 86/86/86 85/85/85
f 88/88/88 87/87/87 85/85/85
f 91/91/91 90/90/90 89/89/89
f 92/92/92 91/91/91 89/89/89
f 95/95/95 94/94/94 93/93/93
f 96/96/96 95/95/95 93/93/93
f 99/99/99 98/98/98 97/97/97
f 100/100/100 99/99/99 97/97/97
f 103/103/103 102/102/102 101/101/101
f 104/104/104 103/103/103 101/101/101
f 107/107/107 106/106/106 105/105/105
f 108/108/108 107/107/107 105/105/105
f 111/111/111 110/110/110 109/109/109
f 112/112/112 111/111/111 109/109/109
f 115/115/115 114/114/114 113/113/113
f 116/116/116 115/115/115 113/113/113
f 119/119/119 118/118/118 117/117/117
f 120/120/120 119/119/119 117/117/117
f 123/123/123 122/122/122 121/121/121
f 124/124/124 123/123/123 121/121/121
f 127/127/127 126/126/126 125/125/125
f 128/128/128 127/127/127 125/125/125
f 131/131/131 130/130/130 129/129/129
f 132/132/132 131/131/131 129/129/129
f 135/135/135 134/134/134 133/133/133
f 136/136/136 135/135/135 133/133/133
f 139/139/139 138/138/138 137/137/137
f 140/140/140 139/139/139 137/137/137
f 143/143/143 142/142/142 141/141/141
f 144/144/144 143/143/143 141/141/141
f 147/147/147 146/146/146 145/145/145
f 148/148/148 147/147/147 145/145/145
f 151/151/151 150/150/150 149/149/149
f 152/152/152 151/151/151 149/149/149
f 155/155/155 154/154/154 153/153/153
f 156/156/156 155/155/155 153/153/153
f 159/159/159 158/158/158 157/157/157
f 160/160/160 159/159/159 157/157/157
f 163/163/163 162/162/162 161/161/161
f 164/164/164 163/163/163 161/161/161
f 167/167/167 166/166/166 165/165/165
f 168/168/168 167/167/167 165/165/165
f 171/171/171 170/170/170 169/169/169
f 172/172/172 171/171/171 169/169/169
f 175/175/175 174/174/174 173/173/173
f 176/176/176 175/175/175 173/173/173
f 179/179/179 178/178/178 177/177/177
f 180/180/180 179/179/179 177/177/177
f 177/177/177 178/178/178 181/181/181
f 182/182/182 179/179/179 180/180/180
f 178/178/178 183/183/183 181/181/181
f 184/184/184 182/182/182 180/180/180
f 181/181/181 183/183/183 184/184/184
f 183/183/183 182/182/182 184/184/184
f 187/187/187 186/186/186 185/185/185
f 188/188/188 187/187/187 185/185/185
f 185/185/185 186/186/186 189/189/189
f 190/190/190 187/187/187 188/188/188
f 186/186/186 191/191/191 189/189/189
f 192/192/192 190/190/190 188/188/188
f 189/189/189 191/191/191 192/192/192
f 191/191/191 190/190/190 192/192/192
