g SM_Prop_Detail_01
v 0.7240152 0 -0.19672203
v 0.7240152 0.1460796 -0.19672203
v 0.52865505 0.1460796 -0.5323734
v 0.52865505 0 -0.5323734
v 0.52865505 0 -0.5323734
v 0.52865505 0.1460796 -0.5323734
v 0.19164181 0.1460796 -0.7253761
v 0.19164181 0 -0.7253761
v 0.19164181 0 -0.7253761
v 0.19164181 0.1460796 -0.7253761
v -0.19672203 0.1460796 -0.7240143
v -0.19672203 0 -0.7240143
v -0.19672203 0 -0.7240143
v -0.19672203 0.1460796 -0.7240143
v -0.5323734 0.1460796 -0.5286541
v -0.5323734 0 -0.5286541
v -0.5323734 0 -0.5286541
v -0.5323734 0.1460796 -0.5286541
v -0.7253761 0.1460796 -0.19164085
v -0.7253761 0 -0.19164085
v -0.7253761 0 -0.19164085
v -0.7253761 0.1460796 -0.19164085
v -0.7240152 0.1460796 0.196722
v -0.7240152 0 0.196722
v -0.7240152 0 0.196722
v -0.7240152 0.1460796 0.196722
v -0.52865505 0.1460796 0.5323734
v -0.52865505 0 0.5323734
v -0.52865505 0 0.5323734
v -0.52865505 0.1460796 0.5323734
v -0.19164181 0.1460796 0.7253761
v -0.19164181 0 0.7253761
v -0.19164181 0 0.7253761
v -0.19164181 0.1460796 0.7253761
v 0.19672203 0.1460796 0.7240143
v 0.19672203 0 0.7240143
v 0.19672203 0 0.7240143
v 0.19672203 0.1460796 0.7240143
v 0.5323734 0.1460796 0.5286541
v 0.5323734 0 0.5286541
v 0.5323734 0 0.5286541
v 0.5323734 0.1460796 0.5286541
v 0.7253761 0.1460796 0.19164082
v 0.7253761 0 0.19164082
v 0.7253761 0 0.19164082
v 0.7253761 0.1460796 0.19164082
v 0.7240152 0.1460796 -0.19672203
v 0.7240152 0 -0.19672203
v 0.7240152 0.1460796 -0.19672203
v 0.5989351 0.22373281 -0.1627369
v 0.43732452 0.22373281 -0.44040108
v 0.52865505 0.1460796 -0.5323734
v 0.52865505 0.1460796 -0.5323734
v 0.43732452 0.22373281 -0.44040108
v 0.15853404 0.22373281 -0.6000614
v 0.19164181 0.1460796 -0.7253761
v 0.19164181 0.1460796 -0.7253761
v 0.15853404 0.22373281 -0.6000614
v -0.16273594 0.22373281 -0.5989342
v -0.19672203 0.1460796 -0.7240143
v -0.19672203 0.1460796 -0.7240143
v -0.16273594 0.22373281 -0.5989342
v -0.44040108 0.22373281 -0.43732452
v -0.5323734 0.1460796 -0.5286541
v -0.5323734 0.1460796 -0.5286541
v -0.44040108 0.22373281 -0.43732452
v -0.60006046 0.22373281 -0.1585331
v -0.7253761 0.1460796 -0.19164085
v -0.7253761 0.1460796 -0.19164085
v -0.60006046 0.22373281 -0.1585331
v -0.5989351 0.22373281 0.16273691
v -0.7240152 0.1460796 0.196722
v -0.7240152 0.1460796 0.196722
v -0.5989351 0.22373281 0.16273691
v -0.43732452 0.22373281 0.44040108
v -0.52865505 0.1460796 0.5323734
v -0.52865505 0.1460796 0.5323734
v -0.43732452 0.22373281 0.44040108
v -0.15853405 0.22373281 0.6000614
v -0.19164181 0.1460796 0.7253761
v -0.19164181 0.1460796 0.7253761
v -0.15853405 0.22373281 0.6000614
v 0.16273594 0.22373281 0.5989341
v 0.19672203 0.1460796 0.7240143
v 0.19672203 0.1460796 0.7240143
v 0.16273594 0.22373281 0.5989341
v 0.44040108 0.22373281 0.43732452
v 0.5323734 0.1460796 0.5286541
v 0.5323734 0.1460796 0.5286541
v 0.44040108 0.22373281 0.43732452
v 0.60006046 0.22373281 0.15853311
v 0.7253761 0.1460796 0.19164082
v 0.7253761 0.1460796 0.19164082
v 0.60006046 0.22373281 0.15853311
v 0.5989351 0.22373281 -0.1627369
v 0.7240152 0.1460796 -0.19672203
v -0.47622204 0.2007196 -0.02908516
v -0.28113937 0.2007196 -0.028562546
v -0.28092098 0.2007196 0.03042984
v -0.47569084 0.2007196 0.030395508
v 0.47622204 0.2007196 0.02908516
v 0.28113937 0.2007196 0.028562546
v 0.28092098 0.2007196 -0.03042984
v 0.47569084 0.2007196 -0.030395508
v -0.49159718 0.22373281 -0.039295197
v -0.47622204 0.2007196 -0.02908516
v -0.47569084 0.2007196 0.030395508
v -0.4910488 0.22373281 0.041065216
v -0.4910488 0.22373281 0.041065216
v -0.47569084 0.2007196 0.030395508
v -0.28092098 0.2007196 0.03042984
v -0.26419353 0.22373281 0.041110992
v -0.26419353 0.22373281 0.041110992
v -0.28092098 0.2007196 0.03042984
v -0.28113937 0.2007196 -0.028562546
v -0.26439857 0.22373281 -0.038589478
v -0.26439857 0.22373281 -0.038589478
v -0.28113937 0.2007196 -0.028562546
v -0.47622204 0.2007196 -0.02908516
v -0.49159718 0.22373281 -0.039295197
v 0.49159718 0.22373281 0.039295197
v 0.47622204 0.2007196 0.02908516
v 0.47569084 0.2007196 -0.030395508
v 0.4910488 0.22373281 -0.041065216
v 0.4910488 0.22373281 -0.041065216
v 0.47569084 0.2007196 -0.030395508
v 0.28092098 0.2007196 -0.03042984
v 0.26419353 0.22373281 -0.041110992
v 0.26419353 0.22373281 -0.041110992
v 0.28092098 0.2007196 -0.03042984
v 0.28113937 0.2007196 0.028562546
v 0.26439857 0.22373281 0.038589478
v 0.26439857 0.22373281 0.038589478
v 0.28113937 0.2007196 0.028562546
v 0.47622204 0.2007196 0.02908516
v 0.49159718 0.22373281 0.039295197
v 0.25184536 0.22373281 -0.06842804
v -0 0.22373281 0
v 0.18389034 0.22373281 -0.18518448
v 0.25231934 0.22373281 0.066661835
v 0.066661835 0.22373281 -0.25231934
v 0.18518448 0.22373281 0.1838913
v -0.06842899 0.22373281 -0.2518463
v 0.068429 0.22373281 0.2518463
v -0.18518448 0.22373281 -0.1838913
v -0.066661835 0.22373281 0.25231934
v -0.25231934 0.22373281 -0.066661835
v -0.18389034 0.22373281 0.18518448
v -0.25184536 0.22373281 0.06842804
v 0.52865505 0 -0.5323734
v -0 0 0
v 0.7240152 0 -0.19672203
v 0.19164181 0 -0.7253761
v 0.7253761 0 0.19164082
v -0.19672203 0 -0.7240143
v 0.5323734 0 0.5286541
v -0.5323734 0 -0.5286541
v 0.19672203 0 0.7240143
v -0.7253761 0 -0.19164085
v -0.19164181 0 0.7253761
v -0.7240152 0 0.196722
v -0.52865505 0 0.5323734
v 0.5989351 0.22373281 -0.1627369
v 0.56381035 0.22373281 -0.15319252
v 0.41167736 0.22373281 -0.41457367
v 0.43732452 0.22373281 -0.44040108
v 0.60006046 0.22373281 0.15853311
v 0.14923668 0.22373281 -0.56487083
v 0.5648699 0.22373281 0.14923665
v 0.15853404 0.22373281 -0.6000614
v 0.44040108 0.22373281 0.43732452
v -0.15319252 0.22373281 -0.56381035
v 0.41457367 0.22373281 0.4116783
v -0.16273594 0.22373281 -0.5989342
v 0.16273594 0.22373281 0.5989341
v -0.41457367 0.22373281 -0.4116783
v 0.15319252 0.22373281 0.56381035
v -0.44040108 0.22373281 -0.43732452
v -0.15853405 0.22373281 0.6000614
v -0.5648699 0.22373281 -0.14923668
v -0.14923668 0.22373281 0.56487083
v -0.60006046 0.22373281 -0.1585331
v -0.43732452 0.22373281 0.44040108
v -0.56381035 0.22373281 0.15319254
v -0.41167736 0.22373281 0.41457367
v -0.5989351 0.22373281 0.16273691
v -0.5648699 0.22373281 -0.14923668
v -0.49159718 0.22373281 -0.039295197
v -0.4910488 0.22373281 0.041065216
v -0.56381035 0.22373281 0.15319254
v -0.26419353 0.22373281 0.041110992
v -0.25231934 0.22373281 -0.066661835
v -0.41457367 0.22373281 -0.4116783
v -0.26439857 0.22373281 -0.038589478
v -0.18518448 0.22373281 -0.1838913
v -0.15319252 0.22373281 -0.56381035
v -0.06842899 0.22373281 -0.2518463
v 0.14923668 0.22373281 -0.56487083
v 0.066661835 0.22373281 -0.25231934
v 0.41167736 0.22373281 -0.41457367
v 0.18389034 0.22373281 -0.18518448
v -0.25184536 0.22373281 0.06842804
v -0.18389034 0.22373281 0.18518448
v -0.41167736 0.22373281 0.41457367
v -0.066661835 0.22373281 0.25231934
v -0.14923668 0.22373281 0.56487083
v 0.068429 0.22373281 0.2518463
v 0.15319252 0.22373281 0.56381035
v 0.18518448 0.22373281 0.1838913
v 0.41457367 0.22373281 0.4116783
v 0.56381035 0.22373281 -0.15319252
v 0.25231934 0.22373281 0.066661835
v 0.25184536 0.22373281 -0.06842804
v 0.5648699 0.22373281 0.14923665
v 0.4910488 0.22373281 -0.041065216
v 0.49159718 0.22373281 0.039295197
v 0.26419353 0.22373281 -0.041110992
v 0.26439857 0.22373281 0.038589478
vt 0.9942965 0.30340758
vt 0.9942965 0.30340758
vt 0.9942965 0.30340758
vt 0.9942965 0.30340758
vt 0.9942965 0.30340758
vt 0.9942965 0.30340758
vt 0.9942965 0.30340758
vt 0.9942965 0.30340758
vt 0.9942965 0.30340758
vt 0.9942965 0.30340758
vt 0.9942965 0.30340758
vt 0.9942965 0.30340758
vt 0.9942965 0.30340758
vt 0.9942965 0.30340758
vt 0.9942965 0.30340758
vt 0.9942965 0.30340758
vt 0.9942965 0.30340758
vt 0.9942965 0.30340758
vt 0.9942965 0.30340758
vt 0.9942965 0.30340758
vt 0.9942965 0.30340758
vt 0.9942965 0.30340758
vt 0.9942965 0.30340758
vt 0.9942965 0.30340758
vt 0.9942965 0.30340758
vt 0.9942965 0.30340758
vt 0.9942965 0.30340758
vt 0.9942965 0.30340758
vt 0.9942965 0.30340758
vt 0.9942965 0.30340758
vt 0.9942965 0.30340758
vt 0.9942965 0.30340758
vt 0.9942965 0.30340758
vt 0.9942965 0.30340758
vt 0.9942965 0.30340758
vt 0.9942965 0.30340758
vt 0.9942965 0.30340758
vt 0.9942965 0.30340758
vt 0.9942965 0.30340758
vt 0.9942965 0.30340758
vt 0.9942965 0.30340758
vt 0.9942965 0.30340758
vt 0.9942965 0.30340758
vt 0.9942965 0.30340758
vt 0.9942965 0.30340758
vt 0.9942965 0.30340758
vt 0.9942965 0.30340758
vt 0.9942965 0.30340758
vt 0.9942965 0.30340758
vt 0.9942965 0.30340758
vt 0.9942965 0.30340758
vt 0.9942965 0.30340758
vt 0.9942965 0.30340758
vt 0.9942965 0.30340758
vt 0.9942965 0.30340758
vt 0.9942965 0.30340758
vt 0.9942965 0.30340758
vt 0.9942965 0.30340758
vt 0.9942965 0.30340758
vt 0.9942965 0.30340758
vt 0.9942965 0.30340758
vt 0.9942965 0.30340758
vt 0.9942965 0.30340758
vt 0.9942965 0.30340758
vt 0.9942965 0.30340758
vt 0.9942965 0.30340758
vt 0.9942965 0.30340758
vt 0.9942965 0.30340758
vt 0.9942965 0.30340758
vt 0.9942965 0.30340758
vt 0.9942965 0.30340758
vt 0.9942965 0.30340758
vt 0.9942965 0.30340758
vt 0.9942965 0.30340758
vt 0.9942965 0.30340758
vt 0.9942965 0.30340758
vt 0.9942965 0.30340758
vt 0.9942965 0.30340758
vt 0.9942965 0.30340758
vt 0.9942965 0.30340758
vt 0.9942965 0.30340758
vt 0.9942965 0.30340758
vt 0.9942965 0.30340758
vt 0.9942965 0.30340758
vt 0.9942965 0.30340758
vt 0.9942965 0.30340758
vt 0.9942965 0.30340758
vt 0.9942965 0.30340758
vt 0.9942965 0.30340758
vt 0.9942965 0.30340758
vt 0.9942965 0.30340758
vt 0.9942965 0.30340758
vt 0.9942965 0.30340758
vt 0.9942965 0.30340758
vt 0.9942965 0.30340758
vt 0.9942965 0.30340758
vt 0.2343795 0.27126884
vt 0.23437953 0.27126884
vt 0.23437953 0.27126884
vt 0.2343795 0.27126884
vt 0.23437953 0.27126884
vt 0.23437953 0.27126884
vt 0.23437953 0.27126884
vt 0.23437953 0.27126884
vt 0.2343795 0.27126884
vt 0.2343795 0.27126884
vt 0.2343795 0.27126884
vt 0.23437956 0.27126884
vt 0.23437956 0.27126884
vt 0.2343795 0.27126884
vt 0.23437953 0.27126884
vt 0.23437953 0.27126884
vt 0.23437953 0.27126884
vt 0.23437953 0.27126884
vt 0.23437953 0.27126884
vt 0.23437953 0.27126884
vt 0.23437953 0.27126884
vt 0.23437953 0.27126884
vt 0.2343795 0.27126884
vt 0.2343795 0.27126884
vt 0.23437953 0.27126884
vt 0.23437953 0.27126884
vt 0.23437953 0.27126884
vt 0.23437953 0.27126884
vt 0.23437953 0.27126884
vt 0.23437953 0.27126884
vt 0.23437953 0.27126884
vt 0.23437953 0.27126884
vt 0.23437953 0.27126884
vt 0.23437953 0.27126884
vt 0.23437953 0.27126884
vt 0.23437953 0.27126884
vt 0.23437953 0.27126884
vt 0.23437953 0.27126884
vt 0.23437953 0.27126884
vt 0.23437953 0.27126884
vt 0.99430496 0.28130403
vt 0.99430496 0.28130403
vt 0.99430496 0.28130403
vt 0.99430496 0.28130403
vt 0.99430496 0.28130403
vt 0.99430496 0.28130403
vt 0.99430496 0.28130403
vt 0.99430496 0.28130403
vt 0.99430496 0.28130403
vt 0.99430496 0.28130403
vt 0.99430496 0.28130403
vt 0.99430496 0.28130403
vt 0.99430496 0.28130403
vt 0.9942965 0.30340758
vt 0.9942965 0.30340758
vt 0.9942965 0.30340758
vt 0.9942965 0.30340758
vt 0.9942965 0.30340758
vt 0.9942965 0.30340758
vt 0.9942965 0.30340758
vt 0.9942965 0.30340758
vt 0.9942965 0.30340758
vt 0.9942965 0.30340758
vt 0.9942965 0.30340758
vt 0.9942965 0.30340758
vt 0.9942965 0.30340758
vt 0.23481262 0.2565447
vt 0.23481262 0.2565447
vt 0.23481256 0.2565447
vt 0.23481256 0.2565447
vt 0.23481262 0.2565447
vt 0.23481259 0.2565447
vt 0.23481262 0.2565447
vt 0.23481259 0.2565447
vt 0.23481256 0.2565447
vt 0.23481259 0.2565447
vt 0.23481256 0.2565447
vt 0.2348126 0.2565447
vt 0.23481259 0.2565447
vt 0.23481259 0.2565447
vt 0.23481259 0.2565447
vt 0.23481259 0.2565447
vt 0.23481259 0.2565447
vt 0.23481256 0.2565447
vt 0.2348126 0.2565447
vt 0.23481262 0.2565447
vt 0.23481259 0.2565447
vt 0.23481262 0.2565447
vt 0.23481259 0.2565447
vt 0.23481262 0.2565447
vt 0.9942965 0.30340758
vt 0.9942965 0.30340758
vt 0.9942965 0.30340758
vt 0.9942965 0.30340758
vt 0.9942965 0.30340758
vt 0.9942965 0.30340758
vt 0.9942965 0.30340758
vt 0.9942965 0.30340758
vt 0.9942965 0.30340758
vt 0.9942965 0.30340758
vt 0.9942965 0.30340758
vt 0.9942965 0.30340758
vt 0.9942965 0.30340758
vt 0.9942965 0.30340758
vt 0.9942965 0.30340758
vt 0.9942965 0.30340758
vt 0.9942965 0.30340758
vt 0.9942965 0.30340758
vt 0.9942965 0.30340758
vt 0.9942965 0.30340758
vt 0.9942965 0.30340758
vt 0.9942965 0.30340758
vt 0.9942965 0.30340758
vt 0.9942965 0.30340758
vt 0.9942965 0.30340758
vt 0.9942965 0.30340758
vt 0.9942965 0.30340758
vt 0.9942965 0.30340758
vt 0.9942965 0.30340758
vt 0.9942965 0.30340758
vt 0.9942965 0.30340758
vt 0.9942965 0.30340758
vn 0.86426765 0 -0.5030322
vn 0.86426765 0 -0.5030322
vn 0.86426765 0 -0.5030322
vn 0.86426765 0 -0.5030322
vn 0.49696118 0 -0.86777276
vn 0.49696118 0 -0.86777276
vn 0.49696118 0 -0.86777276
vn 0.49696118 0 -0.86777276
vn -0.003506605 0 -0.9999939
vn -0.003506605 0 -0.9999939
vn -0.003506605 0 -0.9999939
vn -0.003506605 0 -0.9999939
vn -0.50303227 0 -0.8642676
vn -0.50303227 0 -0.8642676
vn -0.50303227 0 -0.8642676
vn -0.50303227 0 -0.8642676
vn -0.86777276 0 -0.49696118
vn -0.86777276 0 -0.49696118
vn -0.86777276 0 -0.49696118
vn -0.86777276 0 -0.49696118
vn -0.9999939 0 0.0035042563
vn -0.9999939 0 0.0035042563
vn -0.9999939 0 0.0035042563
vn -0.9999939 0 0.0035042563
vn -0.86426765 0 0.5030322
vn -0.86426765 0 0.5030322
vn -0.86426765 0 0.5030322
vn -0.86426765 0 0.5030322
vn -0.49696118 0 0.86777276
vn -0.49696118 0 0.86777276
vn -0.49696118 0 0.86777276
vn -0.49696118 0 0.86777276
vn 0.003506605 0 0.9999939
vn 0.003506605 0 0.9999939
vn 0.003506605 0 0.9999939
vn 0.003506605 0 0.9999939
vn 0.50303227 0 0.8642676
vn 0.50303227 0 0.8642676
vn 0.50303227 0 0.8642676
vn 0.50303227 0 0.8642676
vn 0.86777276 0 0.49696118
vn 0.86777276 0 0.49696118
vn 0.86777276 0 0.49696118
vn 0.86777276 0 0.49696118
vn 0.9999939 0 -0.0035042563
vn 0.9999939 0 -0.0035042563
vn 0.9999939 0 -0.0035042563
vn 0.9999939 0 -0.0035042563
vn 0.45554385 0.8498114 -0.26514217
vn 0.45554385 0.8498114 -0.26514217
vn 0.45554385 0.8498114 -0.26514217
vn 0.45554385 0.8498114 -0.26514217
vn 0.26194265 0.84981084 -0.45739198
vn 0.26194265 0.84981084 -0.45739198
vn 0.26194265 0.84981084 -0.45739198
vn 0.26194265 0.84981084 -0.45739198
vn -0.0018487835 0.8498104 -0.5270852
vn -0.0018487835 0.8498104 -0.5270852
vn -0.0018487835 0.8498104 -0.5270852
vn -0.0018487835 0.8498104 -0.5270852
vn -0.26514158 0.84981114 -0.45554477
vn -0.26514158 0.84981114 -0.45554477
vn -0.26514158 0.84981114 -0.45554477
vn -0.26514158 0.84981114 -0.45554477
vn -0.4573921 0.8498112 -0.26194158
vn -0.4573921 0.8498112 -0.26194158
vn -0.4573921 0.8498112 -0.26194158
vn -0.4573921 0.8498112 -0.26194158
vn -0.5270838 0.8498113 0.0018466867
vn -0.5270838 0.8498113 0.0018466867
vn -0.5270838 0.8498113 0.0018466867
vn -0.5270838 0.8498113 0.0018466867
vn -0.45554385 0.8498114 0.26514217
vn -0.45554385 0.8498114 0.26514217
vn -0.45554385 0.8498114 0.26514217
vn -0.45554385 0.8498114 0.26514217
vn -0.26194265 0.84981084 0.45739198
vn -0.26194265 0.84981084 0.45739198
vn -0.26194265 0.84981084 0.45739198
vn -0.26194265 0.84981084 0.45739198
vn 0.0018488127 0.84981054 0.5270851
vn 0.0018488127 0.84981054 0.5270851
vn 0.0018488127 0.84981054 0.5270851
vn 0.0018488127 0.84981054 0.5270851
vn 0.26514155 0.84981114 0.45554468
vn 0.26514155 0.84981114 0.45554468
vn 0.26514155 0.84981114 0.45554468
vn 0.26514155 0.84981114 0.45554468
vn 0.4573921 0.8498112 0.2619416
vn 0.4573921 0.8498112 0.2619416
vn 0.4573921 0.8498112 0.2619416
vn 0.4573921 0.8498112 0.2619416
vn 0.52708393 0.8498113 -0.0018467162
vn 0.52708393 0.8498113 -0.0018467162
vn 0.52708393 0.8498113 -0.0018467162
vn 0.52708393 0.8498113 -0.0018467162
vn -0 1 0
vn -0 1 0
vn -0 1 0
vn -0 1 0
vn -0 1 0
vn -0 1 0
vn -0 1 0
vn -0 1 0
vn 0.83159614 0.55534375 -0.0064198384
vn 0.83159614 0.55534375 -0.0064198384
vn 0.83159614 0.55534375 -0.0064198384
vn 0.83159614 0.55534375 -0.0064198384
vn 0.00017235745 0.4208063 -0.90715057
vn 0.00017235745 0.4208063 -0.90715057
vn 0.00017235745 0.4208063 -0.90715057
vn 0.00017235745 0.4208063 -0.90715057
vn -0.80879647 0.58808357 0.0024692642
vn -0.80879647 0.58808357 0.0024692642
vn -0.80879647 0.58808357 0.0024692642
vn -0.80879647 0.58808357 0.0024692642
vn -0.0026626894 0.40255916 0.9153902
vn -0.0026626894 0.40255916 0.9153902
vn -0.0026626894 0.40255916 0.9153902
vn -0.0026626894 0.40255916 0.9153902
vn -0.83159614 0.55534375 0.0064198384
vn -0.83159614 0.55534375 0.0064198384
vn -0.83159614 0.55534375 0.0064198384
vn -0.83159614 0.55534375 0.0064198384
vn -0.00017235745 0.4208063 0.90715057
vn -0.00017235745 0.4208063 0.90715057
vn -0.00017235745 0.4208063 0.90715057
vn -0.00017235745 0.4208063 0.90715057
vn 0.8087965 0.5880833 -0.0024693792
vn 0.8087965 0.5880833 -0.0024693792
vn 0.8087965 0.5880833 -0.0024693792
vn 0.8087965 0.5880833 -0.0024693792
vn 0.00266269 0.40255916 -0.9153902
vn 0.00266269 0.40255916 -0.9153902
vn 0.00266269 0.40255916 -0.9153902
vn 0.00266269 0.40255916 -0.9153902
vn -0 1 0
vn -0 1 0
vn -0 1 0
vn -0 1 0
vn -0 1 0
vn -0 1 0
vn -0 1 0
vn -0 1 0
vn -0 1 0
vn -0 1 0
vn -0 1 0
vn -0 1 0
vn -0 1 0
vn -0 -1 0
vn -0 -1 0
vn -0 -1 0
vn -0 -1 0
vn -0 -1 0
vn -0 -1 0
vn -0 -1 0
vn -0 -1 0
vn -0 -1 0
vn -0 -1 0
vn -0 -1 0
vn -0 -1 0
vn -0 -1 0
vn -0 1 0
vn -0 1 0
vn -0 1 0
vn -0 1 0
vn -0 1 0
vn -0 1 0
vn -0 1 0
vn -0 1 0
vn -0 1 0
vn -0 1 0
vn -0 1 0
vn -0 1 0
vn -0 1 0
vn -0 1 0
vn -0 1 0
vn -0 1 0
vn -0 1 0
vn -0 1 0
vn -0 1 0
vn -0 1 0
vn -0 1 0
vn -0 1 0
vn -0 1 0
vn -0 1 0
vn -0 1 0
vn -0 1 0
vn -0 1 0
vn -0 1 0
vn -0 1 0
vn -0 1 0
vn -0 1 0
vn -0 1 0
vn -0 1 0
vn -0 1 0
vn -0 1 0
vn -0 1 0
vn -0 1 0
vn -0 1 0
vn -0 1 0
vn -0 1 0
vn -0 1 0
vn -0 1 0
vn -0 1 0
vn -0 1 0
vn -0 1 0
vn -0 1 0
vn -0 1 0
vn -0 1 0
vn -0 1 0
vn -0 1 0
vn -0 1 0
vn -0 1 0
vn -0 1 0
vn -0 1 0
vn -0 1 0
vn -0 1 0
g SM_Prop_Detail_01_0
f 3/3/3 2/2/2 1/1/1
f 4/4/4 3/3/3 1/1/1
f 7/7/7 6/6/6 5/5/5
f 8/8/8 7/7/7 5/5/5
f 11/11/11 10/10/10 9/9/9
f 12/12/12 11/11/11 9/9/9
f 15/15/15 14/14/14 13/13/13
f 16/16/16 15/15/15 13/13/13
f 19/19/19 18/18/18 17/17/17
f 20/20/20 19/19/19 17/17/17
f 23/23/23 22/22/22 21/21/21
f 24/24/24 23/23/23 21/21/21
f 27/27/27 26/26/26 25/25/25
f 28/28/28 27/27/27 25/25/25
f 31/31/31 30/30/30 29/29/29
f 32/32/32 31/31/31 29/29/29
f 35/35/35 34/34/34 33/33/33
f 36/36/36 35/35/35 33/33/33
f 39/39/39 38/38/38 37/37/37
f 40/40/40 39/39/39 37/37/37
f 43/43/43 42/42/42 41/41/41
f 44/44/44 43/43/43 41/41/41
f 47/47/47 46/46/46 45/45/45
f 48/48/48 47/47/47 45/45/45
f 51/51/51 50/50/50 49/49/49
f 52/52/52 51/51/51 49/49/49
f 55/55/55 54/54/54 53/53/53
f 56/56/56 55/55/55 53/53/53
f 59/59/59 58/58/58 57/57/57
f 60/60/60 59/59/59 57/57/57
f 63/63/63 62/62/62 61/61/61
f 64/64/64 63/63/63 61/61/61
f 67/67/67 66/66/66 65/65/65
f 68/68/68 67/67/67 65/65/65
f 71/71/71 70/70/70 69/69/69
f 72/72/72 71/71/71 69/69/69
f 75/75/75 74/74/74 73/73/73
f 76/76/76 75/75/75 73/73/73
f 79/79/79 78/78/78 77/77/77
f 80/80/80 79/79/79 77/77/77
f 83/83/83 82/82/82 81/81/81
f 84/84/84 83/83/83 81/81/81
f 87/87/87 86/86/86 85/85/85
f 88/88/88 87/87/87 85/85/85
f 91/91/91 90/90/90 89/89/89
f 92/92/92 91/91/91 89/89/89
f 95/95/95 94/94/94 93/93/93
f 96/96/96 95/95/95 93/93/93
f 99/99/99 98/98/98 97/97/97
f 100/100/100 99/99/99 97/97/97
f 103/103/103 102/102/102 101/101/101
f 104/104/104 103/103/103 101/101/101
f 107/107/107 106/106/106 105/105/105
f 108/108/108 107/107/107 105/105/105
f 111/111/111 110/110/110 109/109/109
f 112/112/112 111/111/111 109/109/109
f 115/115/115 114/114/114 113/113/113
f 116/116/116 115/115/115 113/113/113
f 119/119/119 118/118/118 117/117/117
f 120/120/120 119/119/119 117/117/117
f 123/123/123 122/122/122 121/121/121
f 124/124/124 123/123/123 121/121/121
f 127/127/127 126/126/126 125/125/125
f 128/128/128 127/127/127 125/125/125
f 131/131/131 130/130/130 129/129/129
f 132/132/132 131/131/131 129/129/129
f 135/135/135 134/134/134 133/133/133
f 136/136/136 135/135/135 133/133/133
f 139/139/139 138/138/138 137/137/137
f 137/137/137 138/138/138 140/140/140
f 141/141/141 138/138/138 139/139/139
f 140/140/140 138/138/138 142/142/142
f 143/143/143 138/138/138 141/141/141
f 142/142/142 138/138/138 144/144/144
f 145/145/145 138/138/138 143/143/143
f 144/144/144 138/138/138 146/146/146
f 147/147/147 138/138/138 145/145/145
f 146/146/146 138/138/138 148/148/148
f 149/149/149 138/138/138 147/147/147
f 148/148/148 138/138/138 149/149/149
f 152/152/152 151/151/151 150/150/150
f 150/150/150 151/151/151 153/153/153
f 154/154/154 151/151/151 152/152/152
f 153/153/153 151/151/151 155/155/155
f 156/156/156 151/151/151 154/154/154
f 155/155/155 151/151/151 157/157/157
f 158/158/158 151/151/151 156/156/156
f 157/157/157 151/151/151 159/159/159
f 160/160/160 151/151/151 158/158/158
f 159/159/159 151/151/151 161/161/161
f 162/162/162 151/151/151 160/160/160
f 161/161/161 151/151/151 162/162/162
f 165/165/165 164/164/164 163/163/163
f 166/166/166 165/165/165 163/163/163
f 163/163/163 164/164/164 167/167/167
f 168/168/168 165/165/165 166/166/166
f 164/164/164 169/169/169 167/167/167
f 170/170/170 168/168/168 166/166/166
f 167/167/167 169/169/169 171/171/171
f 172/172/172 168/168/168 170/170/170
f 169/169/169 173/173/173 171/171/171
f 174/174/174 172/172/172 170/170/170
f 171/171/171 173/173/173 175/175/175
f 176/176/176 172/172/172 174/174/174
f 173/173/173 177/177/177 175/175/175
f 178/178/178 176/176/176 174/174/174
f 175/175/175 177/177/177 179/179/179
f 180/180/180 176/176/176 178/178/178
f 177/177/177 181/181/181 179/179/179
f 182/182/182 180/180/180 178/178/178
f 179/179/179 181/181/181 183/183/183
f 184/184/184 180/180/180 182/182/182
f 181/181/181 185/185/185 183/183/183
f 186/186/186 184/184/184 182/182/182
f 183/183/183 185/185/185 186/186/186
f 185/185/185 184/184/184 186/186/186
f 189/189/189 188/188/188 187/187/187
f 190/190/190 189/189/189 187/187/187
f 191/191/191 189/189/189 190/190/190
f 187/187/187 188/188/188 192/192/192
f 187/187/187 192/192/192 193/193/193
f 188/188/188 194/194/194 192/192/192
f 192/192/192 195/195/195 193/193/193
f 193/193/193 195/195/195 196/196/196
f 195/195/195 197/197/197 196/196/196
f 196/196/196 197/197/197 198/198/198
f 197/197/197 199/199/199 198/198/198
f 198/198/198 199/199/199 200/200/200
f 199/199/199 201/201/201 200/200/200
f 192/192/192 194/194/194 202/202/202
f 194/194/194 191/191/191 202/202/202
f 202/202/202 191/191/191 190/190/190
f 203/203/203 202/202/202 190/190/190
f 204/204/204 203/203/203 190/190/190
f 205/205/205 203/203/203 204/204/204
f 206/206/206 205/205/205 204/204/204
f 207/207/207 205/205/205 206/206/206
f 208/208/208 207/207/207 206/206/206
f 209/209/209 207/207/207 208/208/208
f 210/210/210 209/209/209 208/208/208
f 200/200/200 201/201/201 211/211/211
f 212/212/212 209/209/209 210/210/210
f 201/201/201 213/213/213 211/211/211
f 214/214/214 212/212/212 210/210/210
f 211/211/211 215/215/215 214/214/214
f 215/215/215 216/216/216 214/214/214
f 214/214/214 216/216/216 212/212/212
f 217/217/217 215/215/215 211/211/211
f 213/213/213 217/217/217 211/211/211
f 216/216/216 218/218/218 212/212/212
f 218/218/218 217/217/217 213/213/213
f 212/212/212 218/218/218 213/213/213
