g SM_Prop_Fence_02
v 0.98263365 1.0561744 0
v -0.03739662 0.95500654 0
v 0.98263365 0.15401658 0
v 2.553513E-16 0.15401658 0
v -0.98263335 0.15401658 0
v -0.98263335 1.0561744 0
v 0.98263365 1.0561744 0
v 0.98263365 0.15401658 0
v -0.03739662 0.95500654 0
v 2.553513E-16 0.15401658 0
v -0.98263335 0.15401658 0
v -0.98263335 1.0561744 0
v -0.98263335 0 0.016040038
v -0.98263335 1.0942792 0.016040038
v -0.9826334 1.0942792 -0.016040038
v -0.9826334 0 -0.016040038
v -0.98263335 1.0942792 0.016040038
v -1.0147133 1.0942792 0.016040038
v -1.0147132 1.0942792 -0.016040038
v -0.9826334 1.0942792 -0.016040038
v -1.0147133 1.0942792 0.016040038
v -1.0147133 0 0.016040038
v -1.0147132 0 -0.016040038
v -1.0147132 1.0942792 -0.016040038
v -1.0147133 0 0.016040038
v -0.98263335 0 0.016040038
v -0.9826334 0 -0.016040038
v -1.0147132 0 -0.016040038
v -0.9826334 0 -0.016040038
v -0.9826334 1.0942792 -0.016040038
v -1.0147132 1.0942792 -0.016040038
v -1.0147132 0 -0.016040038
v -1.0147133 0 0.016040038
v -1.0147133 1.0942792 0.016040038
v -0.98263335 1.0942792 0.016040038
v -0.98263335 0 0.016040038
v 1.0147133 0 0.016040038
v 1.0147133 1.0942792 0.016040038
v 1.0147133 1.0942792 -0.016040038
v 1.0147133 0 -0.016040038
v 1.0147133 1.0942792 0.016040038
v 0.9826332 1.0942792 0.016040038
v 0.9826336 1.0942792 -0.016040038
v 1.0147133 1.0942792 -0.016040038
v 0.9826332 1.0942792 0.016040038
v 0.9826332 0 0.016040038
v 0.9826336 0 -0.016040038
v 0.9826336 1.0942792 -0.016040038
v 0.9826332 0 0.016040038
v 1.0147133 0 0.016040038
v 1.0147133 0 -0.016040038
v 0.9826336 0 -0.016040038
v 1.0147133 0 -0.016040038
v 1.0147133 1.0942792 -0.016040038
v 0.9826336 1.0942792 -0.016040038
v 0.9826336 0 -0.016040038
v 0.9826332 0 0.016040038
v 0.9826332 1.0942792 0.016040038
v 1.0147133 1.0942792 0.016040038
v 1.0147133 0 0.016040038
vt -2.0270033 -0.62164485
vt 0.5 -0.62164485
vt -2.0270033 1.6216449
vt 0.5 1.6216449
vt 3.0270033 1.6216449
vt 3.0270033 -0.62164485
vt -2.0270033 -0.62164485
vt -2.0270033 1.6216449
vt 0.5 -0.62164485
vt 0.5 1.6216449
vt 3.0270033 1.6216449
vt 3.0270033 -0.62164485
vt 0.08002002 0.32891092
vt 0.08002002 0.32891092
vt 0.08001996 0.32891092
vt 0.08001996 0.32891092
vt 0.08002002 0.32891092
vt 0.08002002 0.32891092
vt 0.08001996 0.32891092
vt 0.08001996 0.32891092
vt 0.08002002 0.32891092
vt 0.08002002 0.32891092
vt 0.08001996 0.32891092
vt 0.08001996 0.32891092
vt 0.08002002 0.32891092
vt 0.08002002 0.32891086
vt 0.08001996 0.32891086
vt 0.08001996 0.32891092
vt 0.08001996 0.32891092
vt 0.08001996 0.32891092
vt 0.08001996 0.32891092
vt 0.08001996 0.32891092
vt 0.08001997 0.32891092
vt 0.08001997 0.32891092
vt 0.08002002 0.32891092
vt 0.08002002 0.32891092
vt 0.08002001 0.32891092
vt 0.08002001 0.32891095
vt 0.08001995 0.32891095
vt 0.08001995 0.32891092
vt 0.08002001 0.32891095
vt 0.08002001 0.32891092
vt 0.08001995 0.32891092
vt 0.08001995 0.32891095
vt 0.08002001 0.32891092
vt 0.08002001 0.32891092
vt 0.08001995 0.32891092
vt 0.08001995 0.32891092
vt 0.08002001 0.32891092
vt 0.08002001 0.32891083
vt 0.08001995 0.32891083
vt 0.08001995 0.32891092
vt 0.08001995 0.32891092
vt 0.08001995 0.32891095
vt 0.08001995 0.32891095
vt 0.08001995 0.32891092
vt 0.08001997 0.32891092
vt 0.08001997 0.32891095
vt 0.08002001 0.32891095
vt 0.08002001 0.32891092
vn -0 0 -1
vn -0 0 -1
vn -0 0 -1
vn -0 0 -1
vn -0 0 -1
vn -0 0 -1
vn -0 0 1
vn -0 0 1
vn -0 0 1
vn -0 0 1
vn -0 0 1
vn -0 0 1
vn 1 0 0
vn 1 0 0
vn 1 0 0
vn 1 0 0
vn -0 1 0
vn -0 1 0
vn -0 1 0
vn -0 1 0
vn -1 0 0
vn -1 0 0
vn -1 0 0
vn -1 0 0
vn -0 -1 0
vn -0 -1 0
vn -0 -1 0
vn -0 -1 0
vn -0 0 -1
vn -0 0 -1
vn -0 0 -1
vn -0 0 -1
vn -0 0 1
vn -0 0 1
vn -0 0 1
vn -0 0 1
vn 1 0 0
vn 1 0 0
vn 1 0 0
vn 1 0 0
vn -0 1 0
vn -0 1 0
vn -0 1 0
vn -0 1 0
vn -1 0 -1.1891172E-05
vn -1 0 -1.1891172E-05
vn -1 0 -1.1891172E-05
vn -1 0 -1.1891172E-05
vn -0 -1 0
vn -0 -1 0
vn -0 -1 0
vn -0 -1 0
vn -0 0 -1
vn -0 0 -1
vn -0 0 -1
vn -0 0 -1
vn -0 0 1
vn -0 0 1
vn -0 0 1
vn -0 0 1
g SM_Prop_Fence_02_0
f 3/3/3 2/2/2 1/1/1
f 4/4/4 2/2/2 3/3/3
f 5/5/5 2/2/2 4/4/4
f 6/6/6 2/2/2 5/5/5
f 9/9/9 8/8/8 7/7/7
f 9/9/9 10/10/10 8/8/8
f 9/9/9 11/11/11 10/10/10
f 9/9/9 12/12/12 11/11/11
g SM_Prop_Fence_02_1
f 15/15/15 14/14/14 13/13/13
f 16/16/16 15/15/15 13/13/13
f 19/19/19 18/18/18 17/17/17
f 20/20/20 19/19/19 17/17/17
f 23/23/23 22/22/22 21/21/21
f 24/24/24 23/23/23 21/21/21
f 27/27/27 26/26/26 25/25/25
f 28/28/28 27/27/27 25/25/25
f 31/31/31 30/30/30 29/29/29
f 32/32/32 31/31/31 29/29/29
f 35/35/35 34/34/34 33/33/33
f 36/36/36 35/35/35 33/33/33
f 39/39/39 38/38/38 37/37/37
f 40/40/40 39/39/39 37/37/37
f 43/43/43 42/42/42 41/41/41
f 44/44/44 43/43/43 41/41/41
f 47/47/47 46/46/46 45/45/45
f 48/48/48 47/47/47 45/45/45
f 51/51/51 50/50/50 49/49/49
f 52/52/52 51/51/51 49/49/49
f 55/55/55 54/54/54 53/53/53
f 56/56/56 55/55/55 53/53/53
f 59/59/59 58/58/58 57/57/57
f 60/60/60 59/59/59 57/57/57
