g SM_Prop_WallAttach_Electronics_04
v -0.38249397 0.31324503 -0.11233495
v -0.38249397 0.3824941 -0.11233495
v -0.36870837 0.36870846 0.15290931
v -0.36870837 0.31324503 0.15290931
v -0.32802963 0.44612536 -0.11233493
v 0.3280294 0.44612536 -0.11233495
v 0.3162069 0.43004653 0.15290926
v -0.31620693 0.43004653 0.15290931
v 0.38249397 0.3824941 -0.11233502
v 0.38249397 1.1920929E-07 -0.11233502
v 0.36870837 1.1920929E-07 0.15290928
v 0.36870837 0.36870846 0.15290928
v 0.3381214 -0.4748159 -0.11233495
v -0.33812168 -0.4748159 -0.11233497
v -0.32432795 -0.45479843 0.18014786
v 0.32432795 -0.45479843 0.18014789
v -0.22122502 0.36870846 0.15290925
v -0.06230688 1.1920929E-07 0.15290922
v -0.22122502 0.13337076 0.15290928
v 0.36870837 0.36870846 0.15290928
v 0.36870837 1.1920929E-07 0.15290928
v -0.31620693 0.43004653 0.15290931
v 0.3162069 0.43004653 0.15290926
v -0.36870837 0.36870846 0.15290931
v -0.38249397 0.3824941 -0.11233495
v -0.32802963 0.44612536 -0.11233493
v -0.31620693 0.43004653 0.15290931
v -0.36870837 0.36870846 0.15290931
v 0.36870837 0.36870846 0.15290928
v 0.3162069 0.43004653 0.15290926
v 0.3280294 0.44612536 -0.11233495
v 0.38249397 0.3824941 -0.11233502
v 0.38249397 0.3824941 -0.11233502
v 0.3280294 0.44612536 -0.11233495
v -0.32802963 0.44612536 -0.11233493
v -0.38249397 0.3824941 -0.11233495
v 0.38249397 1.1920929E-07 -0.11233502
v -0.38249397 0.31324503 -0.11233495
v -0.40593478 -0.39785957 -0.11233495
v -0.40919158 0.30651748 -0.11233494
v 0.38249397 -0.06355357 -0.11233502
v 0.40593478 -0.39785957 -0.11233497
v 0.40919158 -0.081635356 -0.11233497
v 0.3381214 -0.4748159 -0.11233495
v -0.33812168 -0.4748159 -0.11233497
v 0.40593478 -0.39785957 -0.11233497
v 0.3381214 -0.4748159 -0.11233495
v 0.32432795 -0.45479843 0.18014789
v 0.38716623 -0.38197556 0.18014775
v 0.38716623 -0.38197556 0.18014775
v 0.32432795 -0.45479843 0.18014789
v -0.32432795 -0.45479843 0.18014786
v -0.3935318 -0.38423067 0.18014789
v 0.3329513 -0.3489981 0.18014789
v 0.32909057 -0.122051835 0.18014789
v 0.3820572 -0.081635356 0.18014789
v -0.021398783 -0.122051835 0.18014781
v -0.081779964 -0.081635356 0.18014787
v -0.021398783 -0.35070208 0.18014781
v -0.28826734 0.086888194 0.18014792
v -0.3820572 0.30651748 0.18014789
v -0.28724384 0.30651748 0.18014792
v -0.3935318 -0.38423067 0.18014789
v -0.32432795 -0.45479843 0.18014786
v -0.33812168 -0.4748159 -0.11233497
v -0.40593478 -0.39785957 -0.11233495
v -0.40593478 -0.39785957 -0.11233495
v -0.40919158 0.30651748 -0.11233494
v -0.3820572 0.30651748 0.18014789
v -0.3935318 -0.38423067 0.18014789
v 0.38249397 1.1920929E-07 -0.11233502
v 0.38249397 -0.06355357 -0.11233502
v 0.36870837 -0.06355357 0.15290928
v 0.36870837 1.1920929E-07 0.15290928
v 0.2771697 -0.25685495 0.2280914
v 0.2777736 -0.3067496 0.2280914
v 0.22234201 -0.30712426 0.22809142
v 0.22234201 -0.25685495 0.22809142
v 0.40919158 -0.081635356 -0.11233497
v 0.40593478 -0.39785957 -0.11233497
v 0.38716623 -0.38197556 0.18014775
v 0.3820572 -0.081635356 0.18014789
v 0.36870837 1.1920929E-07 0.15290928
v 0.36870837 -0.06355357 0.15290928
v -0.08177996 -0.06355357 0.15290925
v -0.06230688 1.1920929E-07 0.15290922
v -0.273802 0.09361564 0.15290931
v -0.22122502 0.13337076 0.15290928
v -0.22122502 0.36870846 0.15290925
v -0.2727785 0.31324503 0.15290934
v -0.36870837 0.31324503 0.15290931
v -0.36870837 0.36870846 0.15290931
v -0.36870837 0.31324503 0.15290931
v -0.3820572 0.30651748 0.18014789
v -0.40919158 0.30651748 -0.11233494
v -0.38249397 0.31324503 -0.11233495
v -0.08177996 -0.06355357 0.15290925
v -0.081779964 -0.081635356 0.18014787
v -0.28826734 0.086888194 0.18014792
v -0.273802 0.09361564 0.15290931
v -0.273802 0.09361564 0.15290931
v -0.28826734 0.086888194 0.18014792
v -0.28724384 0.30651748 0.18014792
v -0.2727785 0.31324503 0.15290934
v -0.2727785 0.31324503 0.15290934
v -0.28724384 0.30651748 0.18014792
v -0.3820572 0.30651748 0.18014789
v -0.36870837 0.31324503 0.15290931
v 0.36870837 -0.06355357 0.15290928
v 0.3820572 -0.081635356 0.18014789
v -0.081779964 -0.081635356 0.18014787
v -0.08177996 -0.06355357 0.15290925
v 0.38249397 -0.06355357 -0.11233502
v 0.40919158 -0.081635356 -0.11233497
v 0.3820572 -0.081635356 0.18014789
v 0.36870837 -0.06355357 0.15290928
v 0.32909057 -0.122051835 0.18014789
v 0.30944777 -0.13500915 0.22809148
v -0.0013182163 -0.13500915 0.22809142
v -0.021398783 -0.122051835 0.18014781
v -0.021398783 -0.122051835 0.18014781
v -0.0013182163 -0.13500915 0.22809142
v -0.0013182163 -0.33774483 0.22809142
v -0.021398783 -0.35070208 0.18014781
v -0.021398783 -0.35070208 0.18014781
v -0.0013182163 -0.33774483 0.22809142
v 0.3128707 -0.33623388 0.22809148
v 0.3329513 -0.3489981 0.18014789
v 0.3329513 -0.3489981 0.18014789
v 0.3128707 -0.33623388 0.22809148
v 0.30944777 -0.13500915 0.22809148
v 0.32909057 -0.122051835 0.18014789
v 0.30944777 -0.13500915 0.22809148
v 0.2771697 -0.25685495 0.2280914
v 0.22234201 -0.25685495 0.22809142
v -0.0013182163 -0.13500915 0.22809142
v 0.3128707 -0.33623388 0.22809148
v 0.22234201 -0.30712426 0.22809142
v 0.2777736 -0.3067496 0.2280914
v -0.0013182163 -0.33774483 0.22809142
vt 0.4556839 0.028588474
vt 0.4556839 0.028588474
vt 0.4556839 0.028588474
vt 0.4556839 0.028588474
vt 0.99434334 0.30341303
vt 0.99434334 0.30341303
vt 0.99434334 0.30341303
vt 0.99434334 0.30341303
vt 0.99434334 0.30341303
vt 0.99434334 0.30341303
vt 0.99434334 0.30341303
vt 0.99434334 0.30341303
vt 0.24535613 0.32735223
vt 0.24535613 0.32735223
vt 0.24535613 0.32735223
vt 0.24535613 0.32735223
vt 0.99434334 0.30341303
vt 0.99434334 0.30341303
vt 0.99434334 0.30341303
vt 0.99434334 0.30341303
vt 0.99434334 0.30341303
vt 0.99434334 0.30341303
vt 0.99434334 0.30341303
vt 0.99434334 0.30341303
vt 0.99434334 0.30341303
vt 0.99434334 0.30341303
vt 0.99434334 0.30341303
vt 0.99434334 0.30341303
vt 0.99434334 0.30341303
vt 0.99434334 0.30341303
vt 0.99434334 0.30341303
vt 0.99434334 0.30341303
vt 0.24535613 0.32735223
vt 0.24535613 0.32735223
vt 0.24535613 0.32735223
vt 0.24535613 0.32735223
vt 0.24535613 0.32735223
vt 0.24535613 0.32735223
vt 0.24535613 0.32735223
vt 0.24535613 0.32735223
vt 0.24535613 0.32735223
vt 0.24535613 0.32735223
vt 0.24535613 0.32735223
vt 0.24535613 0.32735223
vt 0.24535613 0.32735223
vt 0.24535613 0.32735223
vt 0.24535613 0.32735223
vt 0.24535613 0.32735223
vt 0.24535613 0.32735223
vt 0.24535613 0.32735223
vt 0.24535613 0.32735223
vt 0.24535613 0.32735223
vt 0.24535613 0.32735223
vt 0.24535613 0.32735223
vt 0.24535613 0.32735223
vt 0.24535613 0.32735223
vt 0.24535613 0.32735223
vt 0.24535613 0.32735223
vt 0.24535613 0.32735223
vt 0.24535613 0.32735223
vt 0.24535613 0.32735223
vt 0.24535613 0.32735223
vt 0.24535613 0.32735223
vt 0.24535613 0.32735223
vt 0.24535613 0.32735223
vt 0.24535613 0.32735223
vt 0.24535613 0.32735223
vt 0.24535613 0.32735223
vt 0.24535613 0.32735223
vt 0.24535613 0.32735223
vt 0.4556839 0.028588474
vt 0.4556839 0.028588474
vt 0.4556839 0.028588474
vt 0.4556839 0.028588474
vt 0.36019516 0.026688576
vt 0.36019516 0.026688576
vt 0.36019516 0.026688576
vt 0.36019516 0.026688576
vt 0.24535613 0.32735223
vt 0.24535613 0.32735223
vt 0.24535613 0.32735223
vt 0.24535613 0.32735223
vt 0.4556839 0.028588474
vt 0.4556839 0.028588474
vt 0.4556839 0.028588474
vt 0.4556839 0.028588474
vt 0.4556839 0.028588474
vt 0.4556839 0.028588474
vt 0.4556839 0.028588474
vt 0.4556839 0.028588474
vt 0.4556839 0.028588474
vt 0.4556839 0.028588474
vt 0.24535613 0.32735223
vt 0.24535613 0.32735223
vt 0.24535613 0.32735223
vt 0.24535613 0.32735223
vt 0.24535613 0.32735223
vt 0.24535613 0.32735223
vt 0.24535613 0.32735223
vt 0.24535613 0.32735223
vt 0.24535613 0.32735223
vt 0.24535613 0.32735223
vt 0.24535613 0.32735223
vt 0.24535613 0.32735223
vt 0.24535613 0.32735223
vt 0.24535613 0.32735223
vt 0.24535613 0.32735223
vt 0.24535613 0.32735223
vt 0.24535613 0.32735223
vt 0.24535613 0.32735223
vt 0.24535613 0.32735223
vt 0.24535613 0.32735223
vt 0.24535613 0.32735223
vt 0.24535613 0.32735223
vt 0.24535613 0.32735223
vt 0.24535613 0.32735223
vt 0.24535613 0.32735223
vt 0.24535613 0.32735223
vt 0.24535613 0.32735223
vt 0.24535613 0.32735223
vt 0.24535613 0.32735223
vt 0.24535613 0.32735223
vt 0.24535613 0.32735223
vt 0.24535613 0.32735223
vt 0.24535613 0.32735223
vt 0.24535613 0.32735223
vt 0.24535613 0.32735223
vt 0.24535613 0.32735223
vt 0.24535613 0.32735223
vt 0.24535613 0.32735223
vt 0.24535613 0.32735223
vt 0.24535613 0.32735223
vt 0.24535613 0.32735223
vt 0.24535613 0.32735223
vt 0.24535613 0.32735223
vt 0.24535613 0.32735223
vt 0.24535613 0.32735223
vt 0.24535613 0.32735223
vt 0.24535613 0.32735223
vt 0.24535613 0.32735223
vn -0.99865216 0 0.051903144
vn -0.99865216 0 0.051903144
vn -0.99865216 0 0.051903144
vn -0.99865216 0 0.051903144
vn -0 0.99816775 0.060507912
vn -0 0.99816775 0.060507912
vn -0 0.99816775 0.060507912
vn -0 0.99816775 0.060507912
vn 0.99865216 0 0.05190313
vn 0.99865216 0 0.05190313
vn 0.99865216 0 0.05190313
vn 0.99865216 0 0.05190313
vn -0 -0.99766624 0.068280086
vn -0 -0.99766624 0.068280086
vn -0 -0.99766624 0.068280086
vn -0 -0.99766624 0.068280086
vn -0 0 1
vn -0 0 1
vn -0 0 1
vn -0 0 1
vn -0 0 1
vn -0 0 1
vn -0 0 1
vn -0 0 1
vn -0.75767773 0.6485237 0.0730848
vn -0.75767773 0.6485237 0.0730848
vn -0.75767773 0.6485237 0.0730848
vn -0.75767773 0.6485237 0.0730848
vn 0.7576771 0.64852464 0.07308452
vn 0.7576771 0.64852464 0.07308452
vn 0.7576771 0.64852464 0.07308452
vn 0.7576771 0.64852464 0.07308452
vn -0 0 -1
vn -0 0 -1
vn -0 0 -1
vn -0 0 -1
vn -0 0 -1
vn -0 0 -1
vn -0 0 -1
vn -0 0 -1
vn -0 0 -1
vn -0 0 -1
vn -0 0 -1
vn -0 0 -1
vn -0 0 -1
vn 0.7510473 -0.65513486 0.082014926
vn 0.7510473 -0.65513486 0.082014926
vn 0.7510473 -0.65513486 0.082014926
vn 0.7510473 -0.65513486 0.082014926
vn -0 0 1
vn -0 0 1
vn -0 0 1
vn -0 0 1
vn -0 0 1
vn -0 0 1
vn -0 0 1
vn -0 0 1
vn -0 0 1
vn -0 0 1
vn -0 0 1
vn -0 0 1
vn -0 0 1
vn -0.7308288 -0.678777 0.07177119
vn -0.7308288 -0.678777 0.07177119
vn -0.7308288 -0.678777 0.07177119
vn -0.7308288 -0.678777 0.07177119
vn -0.9977156 0.0058769183 0.06729792
vn -0.9977156 0.0058769183 0.06729792
vn -0.9977156 0.0058769183 0.06729792
vn -0.9977156 0.0058769183 0.06729792
vn 0.99865216 0 0.05190313
vn 0.99865216 0 0.051903132
vn 0.99865216 0 0.051903132
vn 0.99865216 0 0.05190313
vn -0 0 1
vn -0 0 1
vn -0 0 1
vn -0 0 1
vn 0.99693716 0.0029949488 0.07814952
vn 0.99693716 0.0029949488 0.07814952
vn 0.99693716 0.0029949488 0.07814952
vn 0.99693716 0.0029949488 0.07814952
vn -0 0 1
vn -0 0 1
vn -0 0 1
vn -0 0 1
vn -0 0 1
vn -0 0 1
vn -0 0 1
vn -0 0 1
vn -0 0 1
vn -0 0 1
vn -0.30471513 0.9521811 0.022356702
vn -0.30471513 0.9521811 0.022356702
vn -0.30471513 0.9521811 0.022356702
vn -0.30471513 0.9521811 0.022356702
vn 0.56129694 0.6867886 0.4618086
vn 0.56129694 0.6867886 0.4618086
vn 0.56129694 0.6867886 0.4618086
vn 0.56129694 0.6867886 0.4618086
vn 0.88359874 -0.004117758 0.4682268
vn 0.88359874 -0.004117758 0.4682268
vn 0.88359874 -0.004117758 0.4682268
vn 0.88359874 -0.004117758 0.4682268
vn -0 0.970827 0.23978113
vn -0 0.970827 0.23978113
vn -0 0.970827 0.23978113
vn -0 0.970827 0.23978113
vn -0 0.8331398 0.55306244
vn -0 0.8331398 0.55306244
vn -0 0.8331398 0.55306244
vn -0 0.8331398 0.55306244
vn 0.6513457 0.75727475 0.04778871
vn 0.6513457 0.75727475 0.04778871
vn 0.6513457 0.75727475 0.04778871
vn 0.6513457 0.75727475 0.04778871
vn -0 0.96536547 0.2609014
vn -0 0.96536547 0.2609014
vn -0 0.96536547 0.2609014
vn -0 0.96536547 0.2609014
vn -0.9223646 0 0.38632056
vn -0.9223646 0 0.38632056
vn -0.9223646 0 0.38632056
vn -0.9223646 0 0.38632056
vn 0.0046445564 -0.96584344 0.25908482
vn 0.0046445564 -0.96584344 0.25908482
vn 0.0046445564 -0.96584344 0.25908482
vn 0.0046445564 -0.96584344 0.25908482
vn 0.92373514 0.015713852 0.38270944
vn 0.92373514 0.015713852 0.38270944
vn 0.92373514 0.015713852 0.38270944
vn 0.92373514 0.015713852 0.38270944
vn -0 0 1
vn -0 0 1
vn -0 0 1
vn -0 0 1
vn -0 0 1
vn -0 0 1
vn -0 0 1
vn -0 0 1
g SM_Prop_WallAttach_Electronics_04_0
f 3/3/3 2/2/2 1/1/1
f 4/4/4 3/3/3 1/1/1
f 7/7/7 6/6/6 5/5/5
f 8/8/8 7/7/7 5/5/5
f 11/11/11 10/10/10 9/9/9
f 12/12/12 11/11/11 9/9/9
f 15/15/15 14/14/14 13/13/13
f 16/16/16 15/15/15 13/13/13
f 19/19/19 18/18/18 17/17/17
f 18/18/18 20/20/20 17/17/17
f 18/18/18 21/21/21 20/20/20
f 17/17/17 20/20/20 22/22/22
f 20/20/20 23/23/23 22/22/22
f 17/17/17 22/22/22 24/24/24
f 27/27/27 26/26/26 25/25/25
f 28/28/28 27/27/27 25/25/25
f 31/31/31 30/30/30 29/29/29
f 32/32/32 31/31/31 29/29/29
f 35/35/35 34/34/34 33/33/33
f 36/36/36 35/35/35 33/33/33
f 36/36/36 33/33/33 37/37/37
f 38/38/38 36/36/36 37/37/37
f 39/39/39 38/38/38 37/37/37
f 39/39/39 40/40/40 38/38/38
f 39/39/39 37/37/37 41/41/41
f 41/41/41 42/42/42 39/39/39
f 41/41/41 43/43/43 42/42/42
f 42/42/42 44/44/44 39/39/39
f 44/44/44 45/45/45 39/39/39
f 48/48/48 47/47/47 46/46/46
f 49/49/49 48/48/48 46/46/46
f 52/52/52 51/51/51 50/50/50
f 53/53/53 52/52/52 50/50/50
f 50/50/50 54/54/54 53/53/53
f 55/55/55 54/54/54 50/50/50
f 56/56/56 55/55/55 50/50/50
f 57/57/57 55/55/55 56/56/56
f 58/58/58 57/57/57 56/56/56
f 59/59/59 57/57/57 58/58/58
f 54/54/54 59/59/59 53/53/53
f 53/53/53 59/59/59 58/58/58
f 58/58/58 60/60/60 53/53/53
f 60/60/60 61/61/61 53/53/53
f 60/60/60 62/62/62 61/61/61
f 65/65/65 64/64/64 63/63/63
f 66/66/66 65/65/65 63/63/63
f 69/69/69 68/68/68 67/67/67
f 70/70/70 69/69/69 67/67/67
f 73/73/73 72/72/72 71/71/71
f 74/74/74 73/73/73 71/71/71
f 77/77/77 76/76/76 75/75/75
f 78/78/78 77/77/77 75/75/75
f 81/81/81 80/80/80 79/79/79
f 82/82/82 81/81/81 79/79/79
f 85/85/85 84/84/84 83/83/83
f 86/86/86 85/85/85 83/83/83
f 87/87/87 85/85/85 86/86/86
f 88/88/88 87/87/87 86/86/86
f 87/87/87 88/88/88 89/89/89
f 90/90/90 87/87/87 89/89/89
f 90/90/90 89/89/89 91/91/91
f 89/89/89 92/92/92 91/91/91
f 95/95/95 94/94/94 93/93/93
f 96/96/96 95/95/95 93/93/93
f 99/99/99 98/98/98 97/97/97
f 100/100/100 99/99/99 97/97/97
f 103/103/103 102/102/102 101/101/101
f 104/104/104 103/103/103 101/101/101
f 107/107/107 106/106/106 105/105/105
f 108/108/108 107/107/107 105/105/105
f 111/111/111 110/110/110 109/109/109
f 112/112/112 111/111/111 109/109/109
f 115/115/115 114/114/114 113/113/113
f 116/116/116 115/115/115 113/113/113
f 119/119/119 118/118/118 117/117/117
f 120/120/120 119/119/119 117/117/117
f 123/123/123 122/122/122 121/121/121
f 124/124/124 123/123/123 121/121/121
f 127/127/127 126/126/126 125/125/125
f 128/128/128 127/127/127 125/125/125
f 131/131/131 130/130/130 129/129/129
f 132/132/132 131/131/131 129/129/129
f 135/135/135 134/134/134 133/133/133
f 136/136/136 135/135/135 133/133/133
f 133/133/133 134/134/134 137/137/137
f 138/138/138 135/135/135 136/136/136
f 134/134/134 139/139/139 137/137/137
f 140/140/140 138/138/138 136/136/136
f 137/137/137 139/139/139 140/140/140
f 139/139/139 138/138/138 140/140/140
