g SM_Prop_Cables_03
v 1.0000076 1.3277069 0.099624634
v -1.3149109 4.1131 0.099624634
v -1.3149109 4.1131 0
v 1.0000076 1.3277069 0
v -2.2404175 5 0
v -1.3894043 5 0
v -1.3894043 5 0.07688904
v -2.2404175 5 0.07688904
v -2.314911 3.7643006 0.099624634
v 7.6293945E-06 0.97890747 0.099624634
v 7.6293945E-06 0.97890747 0
v -2.314911 3.7643006 0
v 0.07450104 0 0.07688904
v 0.9255142 0 0.07688904
v 0.9255142 0 0
v 0.07450104 0 0
v -2.314911 5 0.099624634
v -2.314911 5 0
v -2.2404175 5 0
v -2.2404175 5 0.07688904
v -2.2404175 5 0.099624634
v 0.07450104 0 0.07688904
v 0.07450104 0 0
v 7.6293945E-06 0 0
v 7.6293945E-06 0 0.099624634
v 0.07450104 0 0.099624634
v -2.2404175 3.7643006 0.07688904
v 0.07450104 0.9789074 0.07688904
v 0.07450104 0.9789074 0.099624634
v -2.2404175 3.7643006 0.099624634
v -1.3894043 5 0.07688904
v -1.3894043 5 0
v -1.3149109 5 0
v -1.3149109 5 0.099624634
v -1.3894043 5 0.099624634
v 1.0000076 0 0.099624634
v 1.0000076 0 0
v 0.9255142 0 0
v 0.9255142 0 0.07688904
v 0.9255142 0 0.099624634
v 0.9255142 1.327707 0.07688904
v -1.3894043 4.1131 0.07688904
v -1.3894043 4.1131 0.099624634
v 0.9255142 1.327707 0.099624634
v -1.3149109 4.1131 0.099624634
v -1.3149109 5 0.099624634
v -1.3149109 5 0
v -1.3149109 4.1131 0
v -1.3894043 5 0.099624634
v -1.3149109 5 0.099624634
v -1.3149109 4.1131 0.099624634
v -1.3894043 4.1131 0.099624634
v 0.9255142 1.327707 0.099624634
v 1.0000076 1.3277069 0.099624634
v 0.9255142 0 0.099624634
v 1.0000076 0 0.099624634
v -1.3894043 4.1131 0.07688904
v -1.3894043 5 0.07688904
v -1.3894043 5 0.099624634
v -1.3894043 4.1131 0.099624634
v -2.2404175 5 0.07688904
v -1.3894043 5 0.07688904
v -1.3894043 4.1131 0.07688904
v -2.2404175 3.7643006 0.07688904
v 0.07450104 0.9789074 0.07688904
v 0.9255142 1.327707 0.07688904
v 0.07450104 0 0.07688904
v 0.9255142 0 0.07688904
v -2.2404175 5 0.099624634
v -2.2404175 5 0.07688904
v -2.2404175 3.7643006 0.07688904
v -2.2404175 3.7643006 0.099624634
v -2.314911 3.7643006 0.099624634
v -2.314911 5 0.099624634
v -2.2404175 5 0.099624634
v -2.2404175 3.7643006 0.099624634
v 7.6293945E-06 0.97890747 0.099624634
v 0.07450104 0.9789074 0.099624634
v 7.6293945E-06 0 0.099624634
v 0.07450104 0 0.099624634
v -2.314911 5 0.099624634
v -2.314911 3.7643006 0.099624634
v -2.314911 3.7643006 0
v -2.314911 5 0
v 7.6293945E-06 0.97890747 0.099624634
v 7.6293945E-06 0 0.099624634
v 7.6293945E-06 0 0
v 7.6293945E-06 0.97890747 0
v 0.07450104 0.9789074 0.07688904
v 0.07450104 0 0.07688904
v 0.07450104 0 0.099624634
v 0.07450104 0.9789074 0.099624634
v 0.9255142 0 0.099624634
v 0.9255142 0 0.07688904
v 0.9255142 1.327707 0.07688904
v 0.9255142 1.327707 0.099624634
v 1.0000076 0 0.099624634
v 1.0000076 1.3277069 0.099624634
v 1.0000076 1.3277069 0
v 1.0000076 0 0
vt 0.3615949 0.061667047
vt 0.36159486 0.06166705
vt 0.36159486 0.06166705
vt 0.3615949 0.061667047
vt 0.2991597 0.0866617
vt 0.2991597 0.0866617
vt 0.2991597 0.0866617
vt 0.2991597 0.0866617
vt 0.3615949 0.061667047
vt 0.3615949 0.061667047
vt 0.3615949 0.061667047
vt 0.3615949 0.061667047
vt 0.19927484 0.0866617
vt 0.19927484 0.0866617
vt 0.19927484 0.0866617
vt 0.19927484 0.0866617
vt 0.39646032 0.061667047
vt 0.39646032 0.061667047
vt 0.39646032 0.061667047
vt 0.39646032 0.061667047
vt 0.39646032 0.061667047
vt 0.29657546 0.061667044
vt 0.29657546 0.061667044
vt 0.29657546 0.061667047
vt 0.29657546 0.061667047
vt 0.29657546 0.061667044
vt 0.269081 0.06166705
vt 0.269081 0.061667047
vt 0.269081 0.061667047
vt 0.269081 0.06166705
vt 0.39646032 0.061667047
vt 0.39646032 0.061667047
vt 0.39646032 0.06166705
vt 0.39646032 0.06166705
vt 0.39646032 0.061667047
vt 0.29657546 0.061667036
vt 0.29657546 0.061667036
vt 0.29657546 0.06166704
vt 0.29657546 0.06166704
vt 0.29657546 0.06166704
vt 0.26908097 0.061667047
vt 0.26908097 0.06166705
vt 0.26908097 0.06166705
vt 0.26908097 0.061667047
vt 0.36159486 0.06166705
vt 0.3615949 0.06166705
vt 0.3615949 0.06166705
vt 0.36159486 0.06166705
vt 0.32955635 0.06166705
vt 0.32955635 0.06166705
vt 0.32955635 0.06166705
vt 0.32955635 0.06166705
vt 0.32955635 0.061667047
vt 0.32955635 0.061667047
vt 0.32955635 0.061667044
vt 0.32955635 0.061667044
vt 0.26908097 0.06166705
vt 0.26908097 0.06166705
vt 0.26908097 0.06166705
vt 0.26908097 0.06166705
vt 0.5773698 0.5049578
vt 0.6455302 0.5049578
vt 0.6455302 0.5044459
vt 0.5773698 0.5042446
vt 0.57731235 0.5026368
vt 0.6455408 0.5028382
vt 0.57731235 0.50207186
vt 0.6455408 0.50207186
vt 0.26908097 0.06166705
vt 0.26908097 0.06166705
vt 0.269081 0.06166705
vt 0.269081 0.06166705
vt 0.32955635 0.06166705
vt 0.32955635 0.06166705
vt 0.32955635 0.06166705
vt 0.32955635 0.06166705
vt 0.32955635 0.061667047
vt 0.32955635 0.061667047
vt 0.32955635 0.061667044
vt 0.32955635 0.061667044
vt 0.3615949 0.061667047
vt 0.3615949 0.061667047
vt 0.3615949 0.061667047
vt 0.3615949 0.061667047
vt 0.3615949 0.061667047
vt 0.3615949 0.061667047
vt 0.3615949 0.061667047
vt 0.3615949 0.061667047
vt 0.269081 0.061667047
vt 0.26908097 0.061667044
vt 0.26908097 0.061667044
vt 0.269081 0.061667047
vt 0.26908097 0.061667044
vt 0.26908097 0.061667044
vt 0.26908097 0.061667047
vt 0.26908097 0.061667047
vt 0.3615949 0.061667044
vt 0.3615949 0.061667047
vt 0.3615949 0.061667047
vt 0.3615949 0.061667044
vn 0.7690683 0.63916665 0
vn 0.7690683 0.63916665 0
vn 0.7690683 0.63916665 0
vn 0.7690683 0.63916665 0
vn -0 1 0
vn -0 1 0
vn -0 1 0
vn -0 1 0
vn -0.7690683 -0.63916665 0
vn -0.7690683 -0.63916665 0
vn -0.7690683 -0.63916665 0
vn -0.7690683 -0.63916665 0
vn -0 -1 0
vn -0 -1 0
vn -0 -1 0
vn -0 -1 0
vn -0 1 0
vn -0 1 0
vn -0 1 0
vn -0 1 0
vn -0 1 0
vn -0 -1 0
vn -0 -1 0
vn -0 -1 0
vn -0 -1 0
vn -0 -1 0
vn 0.7690683 0.63916665 0
vn 0.7690683 0.63916665 0
vn 0.7690683 0.63916665 0
vn 0.7690683 0.63916665 0
vn -0 1 0
vn -0 1 0
vn -0 1 0
vn -0 1 0
vn -0 1 0
vn -0 -1 0
vn -0 -1 0
vn -0 -1 0
vn -0 -1 0
vn -0 -1 0
vn -0.76906824 -0.6391667 0
vn -0.76906824 -0.6391667 0
vn -0.76906824 -0.6391667 0
vn -0.76906824 -0.6391667 0
vn 1 0 0
vn 1 0 0
vn 1 0 0
vn 1 0 0
vn -0 0 1
vn -0 0 1
vn -0 0 1
vn -0 0 1
vn -0 0 1
vn -0 0 1
vn -0 0 1
vn -0 0 1
vn -1 0 0
vn -1 0 0
vn -1 0 0
vn -1 0 0
vn -0 0 1
vn -0 0 1
vn -0 0 1
vn -0 0 1
vn -0 0 1
vn -0 0 1
vn -0 0 1
vn -0 0 1
vn 1 0 0
vn 1 0 0
vn 1 0 0
vn 1 0 0
vn -0 0 1
vn -0 0 1
vn -0 0 1
vn -0 0 1
vn -0 0 1
vn -0 0 1
vn -0 0 1
vn -0 0 1
vn -1 0 0
vn -1 0 0
vn -1 0 0
vn -1 0 0
vn -1 0 0
vn -1 0 0
vn -1 0 0
vn -1 0 0
vn 1 0 0
vn 1 0 0
vn 1 0 0
vn 1 0 0
vn -1 0 0
vn -1 0 0
vn -1 0 0
vn -1 0 0
vn 1 0 0
vn 1 0 0
vn 1 0 0
vn 1 0 0
g SM_Prop_Cables_03_0
f 3/3/3 2/2/2 1/1/1
f 4/4/4 3/3/3 1/1/1
f 7/7/7 6/6/6 5/5/5
f 8/8/8 7/7/7 5/5/5
f 11/11/11 10/10/10 9/9/9
f 12/12/12 11/11/11 9/9/9
f 15/15/15 14/14/14 13/13/13
f 16/16/16 15/15/15 13/13/13
f 19/19/19 18/18/18 17/17/17
f 17/17/17 20/20/20 19/19/19
f 17/17/17 21/21/21 20/20/20
f 24/24/24 23/23/23 22/22/22
f 22/22/22 25/25/25 24/24/24
f 22/22/22 26/26/26 25/25/25
f 29/29/29 28/28/28 27/27/27
f 30/30/30 29/29/29 27/27/27
f 33/33/33 32/32/32 31/31/31
f 31/31/31 34/34/34 33/33/33
f 31/31/31 35/35/35 34/34/34
f 38/38/38 37/37/37 36/36/36
f 36/36/36 39/39/39 38/38/38
f 36/36/36 40/40/40 39/39/39
f 43/43/43 42/42/42 41/41/41
f 44/44/44 43/43/43 41/41/41
f 47/47/47 46/46/46 45/45/45
f 48/48/48 47/47/47 45/45/45
f 51/51/51 50/50/50 49/49/49
f 52/52/52 51/51/51 49/49/49
f 52/52/52 53/53/53 51/51/51
f 53/53/53 54/54/54 51/51/51
f 53/53/53 55/55/55 54/54/54
f 55/55/55 56/56/56 54/54/54
f 59/59/59 58/58/58 57/57/57
f 60/60/60 59/59/59 57/57/57
f 63/63/63 62/62/62 61/61/61
f 64/64/64 63/63/63 61/61/61
f 64/64/64 65/65/65 63/63/63
f 65/65/65 66/66/66 63/63/63
f 65/65/65 67/67/67 66/66/66
f 67/67/67 68/68/68 66/66/66
f 71/71/71 70/70/70 69/69/69
f 72/72/72 71/71/71 69/69/69
f 75/75/75 74/74/74 73/73/73
f 76/76/76 75/75/75 73/73/73
f 76/76/76 73/73/73 77/77/77
f 78/78/78 76/76/76 77/77/77
f 78/78/78 77/77/77 79/79/79
f 80/80/80 78/78/78 79/79/79
f 83/83/83 82/82/82 81/81/81
f 84/84/84 83/83/83 81/81/81
f 87/87/87 86/86/86 85/85/85
f 88/88/88 87/87/87 85/85/85
f 91/91/91 90/90/90 89/89/89
f 92/92/92 91/91/91 89/89/89
f 95/95/95 94/94/94 93/93/93
f 96/96/96 95/95/95 93/93/93
f 99/99/99 98/98/98 97/97/97
f 100/100/100 99/99/99 97/97/97
