g SM_Prop_Sign_01
v -0.33983892 1.3596345 -0.008011556
v -0.33983892 1.3710562 -0.11668117
v 0.34092078 1.3710562 -0.11668117
v 0.34092078 1.3596345 -0.008011556
v -0.13561155 0.11979061 -0.1383244
v 0.1366934 0.11979061 -0.1383244
v 0.1366934 0.13121225 -0.246994
v -0.13561155 0.13121225 -0.246994
v 0.34092078 0.11979061 -0.1383244
v 0.34092078 1.3596345 -0.008011556
v 0.34092078 1.3710562 -0.11668117
v 0.34092078 0.13121225 -0.246994
v -0.33983892 0.13121225 -0.246994
v -0.33983892 1.3710562 -0.11668117
v -0.33983892 1.3596345 -0.008011556
v -0.33983892 0.11979061 -0.1383244
v -0.33983892 0.005710819 -0.26018474
v -0.33983892 -0.005710819 -0.15151513
v -0.13561155 -0.005710819 -0.15151513
v -0.13561155 0.005710819 -0.26018474
v 0.1366934 -0.005710819 -0.15151513
v 0.34092078 -0.005710819 -0.15151513
v 0.34092078 0.005710819 -0.26018474
v 0.1366934 0.005710819 -0.26018474
v -0.33983892 0.13121225 -0.246994
v -0.33983892 0.005710819 -0.26018474
v -0.13561155 0.005710819 -0.26018474
v -0.13561155 0.13121225 -0.246994
v -0.13561155 0.13121225 -0.246994
v -0.13561155 0.005710819 -0.26018474
v -0.13561155 -0.005710819 -0.15151513
v -0.13561155 0.11979061 -0.1383244
v -0.13561155 0.11979061 -0.1383244
v -0.13561155 -0.005710819 -0.15151513
v -0.33983892 -0.005710819 -0.15151513
v -0.33983892 0.11979061 -0.1383244
v -0.33983892 0.11979061 -0.1383244
v -0.33983892 -0.005710819 -0.15151513
v -0.33983892 0.005710819 -0.26018474
v -0.33983892 0.13121225 -0.246994
v 0.1366934 0.11979061 -0.1383244
v 0.1366934 -0.005710819 -0.15151513
v 0.1366934 0.005710819 -0.26018474
v 0.1366934 0.13121225 -0.246994
v 0.1366934 0.13121225 -0.246994
v 0.1366934 0.005710819 -0.26018474
v 0.34092078 0.005710819 -0.26018474
v 0.34092078 0.13121225 -0.246994
v 0.34092078 0.13121225 -0.246994
v 0.34092078 0.005710819 -0.26018474
v 0.34092078 -0.005710819 -0.15151513
v 0.34092078 0.11979061 -0.1383244
v 0.34092078 0.11979061 -0.1383244
v 0.34092078 -0.005710819 -0.15151513
v 0.1366934 -0.005710819 -0.15151513
v 0.1366934 0.11979061 -0.1383244
v 0.34092078 0.11979061 -0.1383244
v 0.253786 1.2808119 -0.01629614
v 0.34092078 1.3596345 -0.008011556
v 0.253786 1.14127 -0.030962586
v 0.1366934 0.11979061 -0.1383244
v -0.25270414 1.14127 -0.030962586
v -0.13561155 0.11979061 -0.1383244
v -0.33983892 0.11979061 -0.1383244
v -0.33983892 1.3596345 -0.008011556
v -0.25270414 1.2808119 -0.01629614
v 0.34092078 1.3596345 -0.008011556
v 0.253786 1.2808119 -0.01629614
v -0.25270414 1.2808119 -0.01629614
v -0.33983892 1.3596345 -0.008011556
v 0.26116443 0.89146703 -0.16708802
v -0.2600826 0.89146703 -0.16708802
v -0.2600826 0.39243683 -0.2195382
v 0.26116443 0.39243683 -0.2195382
v 0.253786 1.2808119 -0.01629614
v 0.253786 1.2922336 -0.12496574
v -0.25270414 1.2922336 -0.12496574
v -0.25270414 1.2808119 -0.01629614
v -0.25270414 1.2808119 -0.01629614
v -0.25270414 1.2922336 -0.12496574
v -0.25270414 1.1526917 -0.1396322
v -0.25270414 1.14127 -0.030962586
v 0.253786 1.2808119 -0.01629614
v 0.253786 1.14127 -0.030962586
v 0.253786 1.1526917 -0.1396322
v 0.253786 1.2922336 -0.12496574
v 0.253786 1.14127 -0.030962586
v -0.25270414 1.14127 -0.030962586
v -0.25270414 1.1526917 -0.1396322
v 0.253786 1.1526917 -0.1396322
v -0.34037954 1.3710562 0.07073638
v -0.34037954 1.3596345 -0.037933227
v 0.34038013 1.3596345 -0.037933227
v 0.34038013 1.3710562 0.07073638
v -0.13615218 0.13121225 0.20104922
v 0.13615277 0.13121225 0.20104922
v 0.13615277 0.11979061 0.09237961
v -0.13615218 0.11979061 0.09237961
v 0.34038013 0.13121225 0.20104922
v 0.34038013 1.3710562 0.07073638
v 0.34038013 1.3596345 -0.037933227
v 0.34038013 0.11979061 0.09237961
v -0.34037954 0.11979061 0.09237961
v -0.34037954 1.3596345 -0.037933227
v -0.34037954 1.3710562 0.07073638
v -0.34037954 0.13121225 0.20104922
v -0.34037954 -0.005710819 0.10557035
v -0.34037954 0.005710819 0.21423995
v -0.13615218 0.005710819 0.21423995
v -0.13615218 -0.005710819 0.10557035
v 0.13615277 0.005710819 0.21423995
v 0.34038013 0.005710819 0.21423995
v 0.34038013 -0.005710819 0.10557035
v 0.13615277 -0.005710819 0.10557035
v -0.34037954 0.11979061 0.09237961
v -0.34037954 -0.005710819 0.10557035
v -0.13615218 -0.005710819 0.10557035
v -0.13615218 0.11979061 0.09237961
v -0.13615218 0.11979061 0.09237961
v -0.13615218 -0.005710819 0.10557035
v -0.13615218 0.005710819 0.21423995
v -0.13615218 0.13121225 0.20104922
v -0.13615218 0.13121225 0.20104922
v -0.13615218 0.005710819 0.21423995
v -0.34037954 0.005710819 0.21423995
v -0.34037954 0.13121225 0.20104922
v -0.34037954 0.13121225 0.20104922
v -0.34037954 0.005710819 0.21423995
v -0.34037954 -0.005710819 0.10557035
v -0.34037954 0.11979061 0.09237961
v 0.13615277 0.13121225 0.20104922
v 0.13615277 0.005710819 0.21423995
v 0.13615277 -0.005710819 0.10557035
v 0.13615277 0.11979061 0.09237961
v 0.13615277 0.11979061 0.09237961
v 0.13615277 -0.005710819 0.10557035
v 0.34038013 -0.005710819 0.10557035
v 0.34038013 0.11979061 0.09237961
v 0.34038013 0.11979061 0.09237961
v 0.34038013 -0.005710819 0.10557035
v 0.34038013 0.005710819 0.21423995
v 0.34038013 0.13121225 0.20104922
v 0.34038013 0.13121225 0.20104922
v 0.34038013 0.005710819 0.21423995
v 0.13615277 0.005710819 0.21423995
v 0.13615277 0.13121225 0.20104922
v -0.26062322 0.89146703 0.12114323
v 0.2606238 0.89146703 0.12114323
v 0.2606238 0.39243683 0.17359342
v -0.26062322 0.39243683 0.17359342
v -0.34037954 1.3596345 -0.037933227
v -0.25324476 1.2808119 -0.029648643
v 0.25324535 1.2808119 -0.029648643
v 0.34038013 1.3596345 -0.037933227
v 0.34038013 1.3596345 -0.037933227
v 0.25324535 1.2808119 -0.029648643
v 0.25324535 1.14127 -0.014982197
v 0.34038013 0.11979061 0.09237961
v 0.13615277 0.11979061 0.09237961
v -0.25324476 1.14127 -0.014982197
v -0.13615218 0.11979061 0.09237961
v -0.34037954 0.11979061 0.09237961
v -0.25324476 1.2808119 -0.029648643
v -0.34037954 1.3596345 -0.037933227
v 0.25324535 1.2922336 0.07902096
v 0.25324535 1.2808119 -0.029648643
v -0.25324476 1.2808119 -0.029648643
v -0.25324476 1.2922336 0.07902096
v -0.25324476 1.2922336 0.07902096
v -0.25324476 1.2808119 -0.029648643
v -0.25324476 1.14127 -0.014982197
v -0.25324476 1.1526917 0.09368741
v 0.25324535 1.2922336 0.07902096
v 0.25324535 1.1526917 0.09368741
v 0.25324535 1.14127 -0.014982197
v 0.25324535 1.2808119 -0.029648643
v 0.25324535 1.1526917 0.09368741
v -0.25324476 1.1526917 0.09368741
v -0.25324476 1.14127 -0.014982197
v 0.25324535 1.14127 -0.014982197
v -0.33983892 1.3710562 -0.11668117
v -0.25270414 1.2922336 -0.12496574
v 0.253786 1.2922336 -0.12496574
v -0.25270414 1.1526917 -0.1396322
v 0.34092078 1.3710562 -0.11668117
v 0.253786 1.1526917 -0.1396322
v 0.26116443 0.89146703 -0.16708802
v -0.2600826 0.89146703 -0.16708802
v 0.26116443 0.39243683 -0.2195382
v 0.34092078 0.13121225 -0.246994
v 0.1366934 0.13121225 -0.246994
v -0.2600826 0.39243683 -0.2195382
v -0.33983892 0.13121225 -0.246994
v -0.13561155 0.13121225 -0.246994
v 0.34038013 1.3710562 0.07073638
v 0.25324535 1.2922336 0.07902096
v -0.25324476 1.2922336 0.07902096
v 0.25324535 1.1526917 0.09368741
v -0.34037954 1.3710562 0.07073638
v -0.25324476 1.1526917 0.09368741
v -0.26062322 0.89146703 0.12114323
v 0.2606238 0.89146703 0.12114323
v -0.26062322 0.39243683 0.17359342
v 0.2606238 0.39243683 0.17359342
v 0.34038013 0.13121225 0.20104922
v 0.13615277 0.13121225 0.20104922
v -0.34037954 0.13121225 0.20104922
v -0.13615218 0.13121225 0.20104922
vt 0.33137366 0.21847326
vt 0.33137366 0.21847326
vt 0.3313736 0.21847326
vt 0.3313736 0.21847326
vt 0.23717651 0.2184732
vt 0.23717651 0.2184732
vt 0.23717651 0.2184732
vt 0.23717651 0.2184732
vt 0.27132294 0.21847323
vt 0.27132294 0.21847326
vt 0.2713229 0.21847326
vt 0.2713229 0.21847323
vt 0.27132297 0.21847323
vt 0.27132297 0.21847326
vt 0.271323 0.21847326
vt 0.271323 0.21847323
vt 0.23717654 0.21847323
vt 0.23717654 0.2184732
vt 0.23717651 0.2184732
vt 0.23717651 0.2184732
vt 0.23717651 0.2184732
vt 0.23717648 0.2184732
vt 0.23717648 0.21847323
vt 0.23717651 0.2184732
vt 0.29801857 0.21847323
vt 0.29801857 0.21847323
vt 0.29801854 0.2184732
vt 0.29801854 0.2184732
vt 0.26857883 0.2184732
vt 0.26857883 0.2184732
vt 0.26857883 0.2184732
vt 0.26857883 0.2184732
vt 0.17705172 0.2184732
vt 0.17705172 0.2184732
vt 0.17705175 0.2184732
vt 0.17705175 0.2184732
vt 0.2646536 0.2184732
vt 0.2646536 0.2184732
vt 0.2646536 0.21847323
vt 0.2646536 0.21847323
vt 0.26465356 0.2184732
vt 0.26465356 0.2184732
vt 0.26465356 0.2184732
vt 0.26465356 0.2184732
vt 0.29801854 0.2184732
vt 0.29801854 0.2184732
vt 0.29801852 0.21847323
vt 0.29801852 0.21847323
vt 0.26465353 0.21847323
vt 0.26465353 0.21847323
vt 0.26465353 0.2184732
vt 0.26465353 0.2184732
vt 0.1770517 0.2184732
vt 0.1770517 0.2184732
vt 0.17705172 0.2184732
vt 0.17705172 0.2184732
vt 0.17508286 0.21847323
vt 0.17508286 0.21847326
vt 0.17508286 0.21847326
vt 0.17508286 0.21847323
vt 0.17508289 0.2184732
vt 0.17508292 0.21847323
vt 0.17508289 0.2184732
vt 0.17508292 0.21847323
vt 0.17508292 0.21847326
vt 0.17508292 0.21847326
vt 0.29604968 0.21847326
vt 0.29604968 0.21847326
vt 0.29604974 0.21847326
vt 0.29604974 0.21847326
vt 0.86368716 0.15718614
vt 0.996976 0.15718614
vt 0.996976 0.028022332
vt 0.86368716 0.028022332
vt 0.099842355 0.21847326
vt 0.099842355 0.21847326
vt 0.099842414 0.21847326
vt 0.099842414 0.21847326
vt 0.099842414 0.21847326
vt 0.099842414 0.21847326
vt 0.099842414 0.21847323
vt 0.099842414 0.21847323
vt 0.099842355 0.21847326
vt 0.099842355 0.21847323
vt 0.099842355 0.21847323
vt 0.099842355 0.21847326
vt 0.19503067 0.21847323
vt 0.19503073 0.21847323
vt 0.19503073 0.21847323
vt 0.19503067 0.21847323
vt 0.33137366 0.21847326
vt 0.33137366 0.21847326
vt 0.3313736 0.21847326
vt 0.3313736 0.21847326
vt 0.23717651 0.2184732
vt 0.23717651 0.2184732
vt 0.23717651 0.2184732
vt 0.23717651 0.2184732
vt 0.27132294 0.21847323
vt 0.27132294 0.21847326
vt 0.2713229 0.21847326
vt 0.2713229 0.21847323
vt 0.27132297 0.21847323
vt 0.27132297 0.21847326
vt 0.271323 0.21847326
vt 0.271323 0.21847323
vt 0.23717654 0.21847323
vt 0.23717654 0.2184732
vt 0.23717651 0.2184732
vt 0.23717651 0.2184732
vt 0.23717651 0.2184732
vt 0.23717648 0.2184732
vt 0.23717648 0.21847323
vt 0.23717651 0.2184732
vt 0.17705175 0.21847323
vt 0.17705175 0.21847323
vt 0.17705172 0.2184732
vt 0.17705172 0.2184732
vt 0.26857883 0.2184732
vt 0.26857883 0.2184732
vt 0.26857883 0.2184732
vt 0.26857883 0.2184732
vt 0.29801854 0.2184732
vt 0.29801854 0.2184732
vt 0.29801857 0.2184732
vt 0.29801857 0.2184732
vt 0.2646536 0.2184732
vt 0.2646536 0.2184732
vt 0.2646536 0.21847323
vt 0.2646536 0.21847323
vt 0.26465356 0.2184732
vt 0.26465356 0.2184732
vt 0.26465356 0.2184732
vt 0.26465356 0.2184732
vt 0.17705172 0.2184732
vt 0.17705172 0.2184732
vt 0.1770517 0.21847323
vt 0.1770517 0.21847323
vt 0.26465353 0.21847323
vt 0.26465353 0.21847323
vt 0.26465353 0.2184732
vt 0.26465353 0.2184732
vt 0.29801852 0.2184732
vt 0.29801852 0.2184732
vt 0.29801854 0.2184732
vt 0.29801854 0.2184732
vt 0.8636869 0.15718614
vt 0.996976 0.15718614
vt 0.996976 0.028022332
vt 0.8636869 0.028022332
vt 0.29604974 0.21847326
vt 0.29604974 0.21847326
vt 0.29604968 0.21847326
vt 0.29604968 0.21847326
vt 0.17508286 0.21847326
vt 0.17508286 0.21847326
vt 0.17508286 0.21847323
vt 0.17508286 0.21847323
vt 0.17508289 0.2184732
vt 0.17508292 0.21847323
vt 0.17508289 0.2184732
vt 0.17508292 0.21847323
vt 0.17508292 0.21847326
vt 0.17508292 0.21847326
vt 0.099842355 0.21847326
vt 0.099842355 0.21847326
vt 0.099842414 0.21847326
vt 0.099842414 0.21847326
vt 0.099842414 0.21847326
vt 0.099842414 0.21847326
vt 0.099842414 0.21847323
vt 0.099842414 0.21847323
vt 0.099842355 0.21847326
vt 0.099842355 0.21847323
vt 0.099842355 0.21847323
vt 0.099842355 0.21847326
vt 0.19503067 0.21847323
vt 0.19503073 0.21847323
vt 0.19503073 0.21847323
vt 0.19503067 0.21847323
vt 0.29604974 0.21847326
vt 0.29604974 0.21847326
vt 0.29604968 0.21847326
vt 0.29604974 0.21847323
vt 0.29604968 0.21847326
vt 0.29604968 0.21847323
vt 0.29604968 0.21847323
vt 0.29604974 0.21847323
vt 0.29604968 0.21847323
vt 0.29604968 0.21847323
vt 0.2960497 0.2184732
vt 0.29604974 0.21847323
vt 0.29604974 0.21847323
vt 0.2960497 0.2184732
vt 0.29604968 0.21847326
vt 0.29604968 0.21847326
vt 0.29604974 0.21847326
vt 0.29604968 0.21847323
vt 0.29604974 0.21847326
vt 0.29604974 0.21847323
vt 0.29604974 0.21847323
vt 0.29604968 0.21847323
vt 0.29604974 0.21847323
vt 0.29604968 0.21847323
vt 0.29604968 0.21847323
vt 0.2960497 0.2184732
vt 0.29604974 0.21847323
vt 0.2960497 0.2184732
vn -0 0.99452186 0.10452885
vn -0 0.99452186 0.10452885
vn -0 0.99452186 0.10452885
vn -0 0.99452186 0.10452885
vn -0 -0.99452186 -0.10452846
vn -0 -0.99452186 -0.10452846
vn -0 -0.99452186 -0.10452846
vn -0 -0.99452186 -0.10452846
vn 1 0 0
vn 1 0 0
vn 1 0 0
vn 1 0 0
vn -1 0 0
vn -1 0 0
vn -1 0 0
vn -1 0 0
vn -0 -0.99452186 -0.10452847
vn -0 -0.99452186 -0.10452847
vn -0 -0.99452186 -0.10452847
vn -0 -0.99452186 -0.10452847
vn -0 -0.99452186 -0.10452847
vn -0 -0.99452186 -0.10452847
vn -0 -0.99452186 -0.10452847
vn -0 -0.99452186 -0.10452847
vn -0 0.10452846 -0.99452186
vn -0 0.104528464 -0.99452186
vn -0 0.104528464 -0.99452186
vn -0 0.10452846 -0.99452186
vn 1 0 0
vn 1 0 0
vn 1 0 0
vn 1 0 0
vn -0 -0.10452846 0.99452186
vn -0 -0.10452845 0.99452186
vn -0 -0.10452845 0.99452186
vn -0 -0.10452846 0.99452186
vn -1 0 0
vn -1 0 0
vn -1 0 0
vn -1 0 0
vn -1 0 0
vn -1 0 0
vn -1 0 0
vn -1 0 0
vn -0 0.10452846 -0.99452186
vn -0 0.104528464 -0.99452186
vn -0 0.104528464 -0.99452186
vn -0 0.10452846 -0.99452186
vn 1 0 0
vn 1 0 0
vn 1 0 0
vn 1 0 0
vn -0 -0.10452846 0.99452186
vn -0 -0.10452845 0.99452186
vn -0 -0.10452845 0.99452186
vn -0 -0.10452846 0.99452186
vn -0 -0.10452846 0.99452186
vn -0 -0.10452843 0.99452186
vn -0 -0.10452843 0.99452186
vn -0 -0.10452847 0.99452186
vn -0 -0.10452846 0.99452186
vn -0 -0.10452846 0.99452186
vn -0 -0.10452846 0.99452186
vn -0 -0.10452846 0.99452186
vn -0 -0.10452843 0.99452186
vn -0 -0.10452843 0.99452186
vn -0 -0.10452843 0.99452186
vn -0 -0.10452843 0.99452186
vn -0 -0.10452843 0.99452186
vn -0 -0.10452843 0.99452186
vn -0 0.10452846 -0.99452186
vn -0 0.10452845 -0.99452186
vn -0 0.10452844 -0.99452186
vn -0 0.10452845 -0.99452186
vn -0 -0.99452186 -0.10452887
vn -0 -0.99452186 -0.10452887
vn -0 -0.99452186 -0.10452887
vn -0 -0.99452186 -0.10452887
vn 1 0 0
vn 1 0 0
vn 1 0 0
vn 1 0 0
vn -1 0 0
vn -1 0 0
vn -1 0 0
vn -1 0 0
vn -0 0.99452186 0.10452886
vn -0 0.99452186 0.10452886
vn -0 0.99452186 0.10452886
vn -0 0.99452186 0.10452886
vn -0 0.99452186 -0.10452886
vn -0 0.99452186 -0.10452886
vn -0 0.99452186 -0.10452886
vn -0 0.99452186 -0.10452886
vn -0 -0.99452186 0.10452845
vn -0 -0.99452186 0.10452845
vn -0 -0.99452186 0.10452845
vn -0 -0.99452186 0.10452845
vn 1 0 0
vn 1 0 0
vn 1 0 0
vn 1 0 0
vn -1 0 0
vn -1 0 0
vn -1 0 0
vn -1 0 0
vn -0 -0.99452186 0.10452848
vn -0 -0.99452186 0.10452848
vn -0 -0.99452186 0.10452848
vn -0 -0.99452186 0.10452848
vn -0 -0.99452186 0.10452848
vn -0 -0.99452186 0.10452848
vn -0 -0.99452186 0.10452848
vn -0 -0.99452186 0.10452848
vn -0 -0.1045285 -0.99452186
vn -0 -0.10452857 -0.99452186
vn -0 -0.10452857 -0.99452186
vn -0 -0.1045285 -0.99452186
vn 1 0 0
vn 1 0 0
vn 1 0 0
vn 1 0 0
vn -0 0.10452846 0.99452186
vn -0 0.104528464 0.99452186
vn -0 0.104528464 0.99452186
vn -0 0.10452846 0.99452186
vn -1 0 0
vn -1 0 0
vn -1 0 0
vn -1 0 0
vn -1 0 0
vn -1 0 0
vn -1 0 0
vn -1 0 0
vn -0 -0.10452849 -0.99452186
vn -0 -0.10452857 -0.99452186
vn -0 -0.10452857 -0.99452186
vn -0 -0.1045285 -0.99452186
vn 1 0 0
vn 1 0 0
vn 1 0 0
vn 1 0 0
vn -0 0.10452846 0.99452186
vn -0 0.104528464 0.99452186
vn -0 0.104528464 0.99452186
vn -0 0.10452846 0.99452186
vn -0 0.10452846 0.99452186
vn -0 0.10452846 0.99452186
vn -0 0.10452845 0.99452186
vn -0 0.10452844 0.99452186
vn -0 -0.10452841 -0.99452186
vn -0 -0.10452841 -0.99452186
vn -0 -0.10452841 -0.99452186
vn -0 -0.10452841 -0.99452186
vn -0 -0.10452841 -0.99452186
vn -0 -0.10452841 -0.99452186
vn -0 -0.10452846 -0.99452186
vn -0 -0.1045285 -0.99452186
vn -0 -0.10452849 -0.99452186
vn -0 -0.10452846 -0.99452186
vn -0 -0.1045285 -0.99452186
vn -0 -0.1045285 -0.99452186
vn -0 -0.10452841 -0.99452186
vn -0 -0.10452841 -0.99452186
vn -0 -0.99452186 0.10452886
vn -0 -0.99452186 0.10452886
vn -0 -0.99452186 0.10452886
vn -0 -0.99452186 0.10452886
vn 1 0 0
vn 1 0 0
vn 1 0 0
vn 1 0 0
vn -1 0 0
vn -1 0 0
vn -1 0 0
vn -1 0 0
vn -0 0.99452186 -0.10452886
vn -0 0.99452186 -0.10452886
vn -0 0.99452186 -0.10452886
vn -0 0.99452186 -0.10452886
vn -0 0.10452841 -0.99452186
vn -0 0.10452837 -0.99452186
vn -0 0.10452837 -0.99452186
vn -0 0.10452849 -0.99452186
vn -0 0.10452843 -0.99452186
vn -0 0.1045285 -0.99452186
vn -0 0.10452846 -0.99452186
vn -0 0.10452845 -0.99452186
vn -0 0.10452845 -0.99452186
vn -0 0.10452846 -0.99452186
vn -0 0.10452846 -0.99452186
vn -0 0.10452844 -0.99452186
vn -0 0.10452846 -0.99452186
vn -0 0.10452846 -0.99452186
vn -0 0.10452845 0.99452186
vn -0 0.10452843 0.99452186
vn -0 0.10452843 0.99452186
vn -0 0.10452847 0.99452186
vn -0 0.10452845 0.99452186
vn -0 0.10452847 0.99452186
vn -0 0.10452846 0.99452186
vn -0 0.10452846 0.99452186
vn -0 0.10452844 0.99452186
vn -0 0.10452845 0.99452186
vn -0 0.10452846 0.99452186
vn -0 0.10452846 0.99452186
vn -0 0.10452846 0.99452186
vn -0 0.10452846 0.99452186
g SM_Prop_Sign_01_0
f 3/3/3 2/2/2 1/1/1
f 4/4/4 3/3/3 1/1/1
f 7/7/7 6/6/6 5/5/5
f 8/8/8 7/7/7 5/5/5
f 11/11/11 10/10/10 9/9/9
f 12/12/12 11/11/11 9/9/9
f 15/15/15 14/14/14 13/13/13
f 16/16/16 15/15/15 13/13/13
f 19/19/19 18/18/18 17/17/17
f 20/20/20 19/19/19 17/17/17
f 23/23/23 22/22/22 21/21/21
f 24/24/24 23/23/23 21/21/21
f 27/27/27 26/26/26 25/25/25
f 28/28/28 27/27/27 25/25/25
f 31/31/31 30/30/30 29/29/29
f 32/32/32 31/31/31 29/29/29
f 35/35/35 34/34/34 33/33/33
f 36/36/36 35/35/35 33/33/33
f 39/39/39 38/38/38 37/37/37
f 40/40/40 39/39/39 37/37/37
f 43/43/43 42/42/42 41/41/41
f 44/44/44 43/43/43 41/41/41
f 47/47/47 46/46/46 45/45/45
f 48/48/48 47/47/47 45/45/45
f 51/51/51 50/50/50 49/49/49
f 52/52/52 51/51/51 49/49/49
f 55/55/55 54/54/54 53/53/53
f 56/56/56 55/55/55 53/53/53
f 59/59/59 58/58/58 57/57/57
f 58/58/58 60/60/60 57/57/57
f 61/61/61 57/57/57 60/60/60
f 60/60/60 62/62/62 61/61/61
f 62/62/62 63/63/63 61/61/61
f 62/62/62 64/64/64 63/63/63
f 64/64/64 62/62/62 65/65/65
f 62/62/62 66/66/66 65/65/65
f 69/69/69 68/68/68 67/67/67
f 70/70/70 69/69/69 67/67/67
f 73/73/73 72/72/72 71/71/71
f 74/74/74 73/73/73 71/71/71
f 77/77/77 76/76/76 75/75/75
f 78/78/78 77/77/77 75/75/75
f 81/81/81 80/80/80 79/79/79
f 82/82/82 81/81/81 79/79/79
f 85/85/85 84/84/84 83/83/83
f 86/86/86 85/85/85 83/83/83
f 89/89/89 88/88/88 87/87/87
f 90/90/90 89/89/89 87/87/87
f 93/93/93 92/92/92 91/91/91
f 94/94/94 93/93/93 91/91/91
f 97/97/97 96/96/96 95/95/95
f 98/98/98 97/97/97 95/95/95
f 101/101/101 100/100/100 99/99/99
f 102/102/102 101/101/101 99/99/99
f 105/105/105 104/104/104 103/103/103
f 106/106/106 105/105/105 103/103/103
f 109/109/109 108/108/108 107/107/107
f 110/110/110 109/109/109 107/107/107
f 113/113/113 112/112/112 111/111/111
f 114/114/114 113/113/113 111/111/111
f 117/117/117 116/116/116 115/115/115
f 118/118/118 117/117/117 115/115/115
f 121/121/121 120/120/120 119/119/119
f 122/122/122 121/121/121 119/119/119
f 125/125/125 124/124/124 123/123/123
f 126/126/126 125/125/125 123/123/123
f 129/129/129 128/128/128 127/127/127
f 130/130/130 129/129/129 127/127/127
f 133/133/133 132/132/132 131/131/131
f 134/134/134 133/133/133 131/131/131
f 137/137/137 136/136/136 135/135/135
f 138/138/138 137/137/137 135/135/135
f 141/141/141 140/140/140 139/139/139
f 142/142/142 141/141/141 139/139/139
f 145/145/145 144/144/144 143/143/143
f 146/146/146 145/145/145 143/143/143
f 149/149/149 148/148/148 147/147/147
f 150/150/150 149/149/149 147/147/147
f 153/153/153 152/152/152 151/151/151
f 154/154/154 153/153/153 151/151/151
f 157/157/157 156/156/156 155/155/155
f 158/158/158 157/157/157 155/155/155
f 157/157/157 158/158/158 159/159/159
f 159/159/159 160/160/160 157/157/157
f 159/159/159 161/161/161 160/160/160
f 161/161/161 162/162/162 160/160/160
f 163/163/163 160/160/160 162/162/162
f 164/164/164 163/163/163 162/162/162
f 167/167/167 166/166/166 165/165/165
f 168/168/168 167/167/167 165/165/165
f 171/171/171 170/170/170 169/169/169
f 172/172/172 171/171/171 169/169/169
f 175/175/175 174/174/174 173/173/173
f 176/176/176 175/175/175 173/173/173
f 179/179/179 178/178/178 177/177/177
f 180/180/180 179/179/179 177/177/177
f 183/183/183 182/182/182 181/181/181
f 181/181/181 182/182/182 184/184/184
f 185/185/185 183/183/183 181/181/181
f 183/183/183 185/185/185 186/186/186
f 186/186/186 187/187/187 184/184/184
f 186/186/186 185/185/185 187/187/187
f 187/187/187 188/188/188 184/184/184
f 181/181/181 184/184/184 188/188/188
f 187/187/187 185/185/185 189/189/189
f 189/189/189 185/185/185 190/190/190
f 189/189/189 190/190/190 191/191/191
f 181/181/181 188/188/188 192/192/192
f 191/191/191 192/192/192 189/189/189
f 181/181/181 192/192/192 193/193/193
f 191/191/191 194/194/194 192/192/192
f 194/194/194 193/193/193 192/192/192
f 197/197/197 196/196/196 195/195/195
f 195/195/195 196/196/196 198/198/198
f 199/199/199 197/197/197 195/195/195
f 197/197/197 199/199/199 200/200/200
f 200/200/200 201/201/201 198/198/198
f 200/200/200 199/199/199 201/201/201
f 201/201/201 202/202/202 198/198/198
f 195/195/195 198/198/198 202/202/202
f 201/201/201 199/199/199 203/203/203
f 195/195/195 202/202/202 204/204/204
f 195/195/195 204/204/204 205/205/205
f 206/206/206 205/205/205 204/204/204
f 204/204/204 203/203/203 206/206/206
f 203/203/203 199/199/199 207/207/207
f 203/203/203 208/208/208 206/206/206
f 203/203/203 207/207/207 208/208/208
