g SM_Veh_Plane_Flap_rr
v 3.754552 -0.0966097 -0.016702576
v -3.7154167 -0.048334856 0.014156799
v 3.7626045 0.096609905 -9.155273E-07
v -3.7001238 0.04526988 0.0038955687
v 3.662757 0.07484049 -1.8408712
v -3.7626042 0.01343913 -0.7225741
v 3.662757 0.030652875 -1.8408712
v -3.7626042 -0.020821428 -0.7225741
v 3.7626045 0.096609905 -9.155273E-07
v -3.7001238 0.04526988 0.0038955687
v 3.662757 0.07484049 -1.8408712
v -3.7626042 0.01343913 -0.7225741
v 3.662757 0.030652875 -1.8408712
v -3.7626042 -0.020821428 -0.7225741
v -3.7154167 -0.048334856 0.014156799
v 3.754552 -0.0966097 -0.016702576
v -3.7154167 -0.048334856 0.014156799
v -3.7626042 -0.020821428 -0.7225741
v -3.7626042 0.01343913 -0.7225741
v -3.7001238 0.04526988 0.0038955687
v 3.662757 0.030652875 -1.8408712
v 3.754552 -0.0966097 -0.016702576
v 3.7626045 0.096609905 -9.155273E-07
v 3.662757 0.07484049 -1.8408712
vt 0.4998518 0.8110783
vt 0.99865544 0.80901754
vt 0.49931395 0.809963
vt 0.99763393 0.8097029
vt 0.5059812 0.9328861
vt 1.001806 0.85821253
vt 0.5059812 0.9328861
vt 1.001806 0.85821253
vt 0.49931395 0.809963
vt 0.99763393 0.8097029
vt 0.5059812 0.9328861
vt 1.001806 0.85821253
vt 0.46479356 0.2312575
vt 0.46479353 0.23125756
vt 0.46479353 0.23125756
vt 0.46479356 0.23125756
vt 0.99865544 0.80901754
vt 1.001806 0.85821253
vt 1.001806 0.85821253
vt 0.99763393 0.8097029
vt 0.5059812 0.9328861
vt 0.4998518 0.8110783
vt 0.49931395 0.809963
vt 0.5059812 0.9328861
vn 0.0023315446 -0.022638222 0.999741
vn 0.0023315446 -0.022638222 0.999741
vn 0.0023315446 -0.022638222 0.999741
vn 0.0023315446 -0.022638222 0.999741
vn -0.009100618 0.9997526 -0.02029712
vn -0.009100618 0.9997526 -0.02029712
vn -0.1489256 0 -0.98884845
vn -0.1489256 0 -0.98884845
vn -0.009100618 0.9997526 -0.02029712
vn -0.009100618 0.9997526 -0.02029712
vn -0.1489256 0 -0.98884845
vn -0.1489256 0 -0.98884845
vn -0.004421339 -0.9981832 -0.06008838
vn -0.004421339 -0.9981832 -0.06008838
vn -0.004421339 -0.9981832 -0.06008838
vn -0.004421339 -0.9981832 -0.06008838
vn -0.98950046 0.12426864 0.07379712
vn -0.98950046 0.12426864 0.07379712
vn -0.98950046 0.12426864 0.07379712
vn -0.98950046 0.12426864 0.07379712
vn 0.9981369 -0.030123314 -0.053059056
vn 0.9981369 -0.030123314 -0.053059056
vn 0.9981369 -0.030123314 -0.053059056
vn 0.9981369 -0.030123314 -0.053059056
g SM_Veh_Plane_Flap_rr_0
f 4/4/4 2/2/2 1/1/1
f 3/3/3 4/4/4 1/1/1
f 6/6/6 10/10/10 9/9/9
f 5/5/5 6/6/6 9/9/9
f 8/8/8 12/12/12 11/11/11
f 7/7/7 8/8/8 11/11/11
f 15/15/15 14/14/14 13/13/13
f 16/16/16 15/15/15 13/13/13
f 19/19/19 18/18/18 17/17/17
f 20/20/20 19/19/19 17/17/17
f 23/23/23 22/22/22 21/21/21
f 24/24/24 23/23/23 21/21/21
