g SM_Veh_Snowmobile_Tread_01
v -0.16787149 0.026753113 -0.76938343
v 0.16787149 -0.040316362 -0.81362796
v 0.16787149 0.026753113 -0.76938343
v -0.16787149 -0.040316362 -0.81362796
v 0.16787149 -0.11297377 -0.8197634
v -0.16787149 -0.11297377 -0.8197634
v 0.16787149 0.026753113 -0.76938343
v 0.16787149 0.22119538 -0.3548941
v -0.16787149 0.22119538 -0.3548941
v -0.16787149 0.026753113 -0.76938343
v -0.16787149 -0.11297377 -0.8197634
v 0.16787149 -0.17405123 -0.7908686
v 0.16787149 -0.11297377 -0.8197634
v -0.16787149 -0.17405123 -0.7908686
v 0.16787149 -0.2164517 -0.7381329
v -0.16787149 -0.2164517 -0.7381329
v -0.16787149 -0.2164517 -0.7381329
v -0.16787149 -0.22119538 0.37840188
v 0.16787149 -0.22119538 0.37840188
v 0.16787149 -0.2164517 -0.7381329
v -0.16787149 -0.22119538 0.37840188
v -0.16787149 -0.19732563 0.44857424
v 0.16787149 -0.19732563 0.44857424
v 0.16787149 -0.22119538 0.37840188
v -0.16787149 -0.19732563 0.44857424
v -0.16787149 0.1023581 0.8197634
v 0.16787149 0.1023581 0.8197634
v 0.16787149 -0.19732563 0.44857424
v -0.16787149 0.00798156 -0.75459975
v 0.16787149 0.00798156 -0.75459975
v 0.16787149 -0.045407645 -0.7921716
v -0.16787149 -0.045407645 -0.7921716
v -0.16787149 -0.10773114 -0.7950987
v 0.16787149 -0.10773114 -0.7950987
v 0.16787149 0.00798156 -0.75459975
v -0.16787149 0.00798156 -0.75459975
v -0.16787149 0.20406991 -0.31991044
v 0.16787149 0.20406991 -0.31991044
v -0.16787149 -0.10773114 -0.7950987
v 0.16787149 -0.10773114 -0.7950987
v 0.16787149 -0.16066056 -0.7729254
v -0.16787149 -0.16066056 -0.7729254
v 0.16787149 -0.19491301 -0.7269111
v -0.16787149 -0.19491301 -0.7269111
v -0.16787149 -0.19491301 -0.7269111
v 0.16787149 -0.19491301 -0.7269111
v 0.16787149 -0.19491301 0.3730178
v -0.16787149 -0.19491301 0.3730178
v -0.16787149 -0.19491301 0.3730178
v 0.16787149 -0.19491301 0.3730178
v 0.16787149 -0.17382276 0.4349203
v -0.16787149 -0.17382276 0.4349203
v -0.16787149 -0.17382276 0.4349203
v 0.16787149 -0.17382276 0.4349203
v 0.16787149 0.12418442 0.8032236
v -0.16787149 0.12418442 0.8032236
v -0.16787149 0.00798156 -0.75459975
v -0.16787149 0.22119538 -0.3548941
v -0.16787149 0.20406991 -0.31991044
v -0.16787149 0.026753113 -0.76938343
v -0.16787149 -0.045407645 -0.7921716
v -0.16787149 -0.040316362 -0.81362796
v -0.16787149 -0.10773114 -0.7950987
v -0.16787149 -0.11297377 -0.8197634
v -0.16787149 -0.17405123 -0.7908686
v -0.16787149 -0.16066056 -0.7729254
v -0.16787149 -0.19491301 -0.7269111
v -0.16787149 -0.2164517 -0.7381329
v -0.16787149 -0.19491301 0.3730178
v -0.16787149 -0.22119538 0.37840188
v -0.16787149 -0.17382276 0.4349203
v -0.16787149 -0.19732563 0.44857424
v -0.16787149 0.12418442 0.8032236
v -0.16787149 0.1023581 0.8197634
v -0.16787149 0.20406991 -0.31991044
v -0.16787149 0.22119538 -0.3548941
v 0.16787149 0.22119538 -0.3548941
v 0.16787149 0.20406991 -0.31991044
v 0.16787149 0.20406991 -0.31991044
v 0.16787149 0.22119538 -0.3548941
v 0.16787149 0.026753113 -0.76938343
v 0.16787149 0.00798156 -0.75459975
v 0.16787149 -0.040316362 -0.81362796
v 0.16787149 -0.045407645 -0.7921716
v 0.16787149 -0.10773114 -0.7950987
v 0.16787149 -0.11297377 -0.8197634
v 0.16787149 -0.17405123 -0.7908686
v 0.16787149 -0.16066056 -0.7729254
v 0.16787149 -0.19491301 -0.7269111
v 0.16787149 -0.2164517 -0.7381329
v 0.16787149 -0.22119538 0.37840188
v 0.16787149 -0.19491301 0.3730178
v 0.16787149 -0.19732563 0.44857424
v 0.16787149 -0.17382276 0.4349203
v 0.16787149 0.1023581 0.8197634
v 0.16787149 0.12418442 0.8032236
v 0.16787149 0.12418442 0.8032236
v 0.16787149 0.1023581 0.8197634
v -0.16787149 0.1023581 0.8197634
v -0.16787149 0.12418442 0.8032236
vt 0.039287895 -1.782255
vt 0.9607121 -1.5333122
vt 0.9607121 -1.782255
vt 0.039287895 -1.5333122
vt 0.9607121 -1.3073968
vt 0.039287895 -1.3073968
vt 0.9607121 -1.782255
vt 0.9607121 -3.0412536
vt 0.039287895 -3.0412536
vt 0.039287895 -1.782255
vt 0.039287895 -1.3073968
vt 0.9607121 -1.0980458
vt 0.9607121 -1.3073968
vt 0.039287895 -1.0980458
vt 0.9607121 -0.88838387
vt 0.039287895 -0.88838387
vt 0.039287895 -0.88838387
vt 0.039287895 2.5710728
vt 0.9607121 2.5710728
vt 0.9607121 -0.88838387
vt 0.039287895 2.5710728
vt 0.039287895 2.800726
vt 0.9607121 2.800726
vt 0.9607121 2.5710728
vt 0.039287895 2.800726
vt 0.039287895 4.278848
vt 0.9607121 4.278848
vt 0.9607121 2.800726
vt 0.053315572 0.29186863
vt 0.053315572 0.29186863
vt 0.053315572 0.29186863
vt 0.053315572 0.29186863
vt 0.053315572 0.29186863
vt 0.053315572 0.29186863
vt 0.053315572 0.29186863
vt 0.053315572 0.29186863
vt 0.053315572 0.29186863
vt 0.053315572 0.29186863
vt 0.053315572 0.29186863
vt 0.053315572 0.29186863
vt 0.053315572 0.29186863
vt 0.053315572 0.29186863
vt 0.053315572 0.29186863
vt 0.053315572 0.29186863
vt 0.053315572 0.29186863
vt 0.053315572 0.29186863
vt 0.053315572 0.29186863
vt 0.053315572 0.29186863
vt 0.053315572 0.29186863
vt 0.053315572 0.29186863
vt 0.053315572 0.29186863
vt 0.053315572 0.29186863
vt 0.053315572 0.29186863
vt 0.053315572 0.29186863
vt 0.053315572 0.29186863
vt 0.053315572 0.29186863
vt 0.053315572 0.29186863
vt 0.053315572 0.29186863
vt 0.053315572 0.29186863
vt 0.053315572 0.29186863
vt 0.053315572 0.29186863
vt 0.053315572 0.29186863
vt 0.053315572 0.29186863
vt 0.053315572 0.29186863
vt 0.053315572 0.29186863
vt 0.053315572 0.29186863
vt 0.053315572 0.29186863
vt 0.053315572 0.29186863
vt 0.053315572 0.29186863
vt 0.053315572 0.29186863
vt 0.053315572 0.29186863
vt 0.053315572 0.29186863
vt 0.053315572 0.29186863
vt 0.053315572 0.29186863
vt 0.053315572 0.29186863
vt 0.053315572 0.29186863
vt 0.053315572 0.29186863
vt 0.053315572 0.29186863
vt 0.053315572 0.29186863
vt 0.053315572 0.29186863
vt 0.053315572 0.29186863
vt 0.053315572 0.29186863
vt 0.053315572 0.29186863
vt 0.053315572 0.29186863
vt 0.053315572 0.29186863
vt 0.053315572 0.29186863
vt 0.053315572 0.29186863
vt 0.053315572 0.29186863
vt 0.053315572 0.29186863
vt 0.053315572 0.29186863
vt 0.053315572 0.29186863
vt 0.053315572 0.29186863
vt 0.053315572 0.29186863
vt 0.053315572 0.29186863
vt 0.053315572 0.29186863
vt 0.053315572 0.29186863
vt 0.053315572 0.29186863
vt 0.053315572 0.29186863
vt 0.053315572 0.29186863
vt 0.053315572 0.29186863
vn -0 0.55065745 -0.8347313
vn -0 0.33918592 -0.94071937
vn -0 0.55065745 -0.8347313
vn -0 0.33918592 -0.94071937
vn -0 0.0841435 -0.99645364
vn -0 0.0841435 -0.99645364
vn -0 0.9053327 -0.42470315
vn -0 0.9053327 -0.42470315
vn -0 0.9053327 -0.42470315
vn -0 0.9053327 -0.42470315
vn -0 -0.4276436 -0.9039475
vn -0 -0.6193515 -0.7851138
vn -0 -0.4276436 -0.9039475
vn -0 -0.6193515 -0.7851138
vn -0 -0.7793387 -0.62660295
vn -0 -0.7793387 -0.62660295
vn -0 -0.99999106 -0.004248539
vn -0 -0.99999106 -0.004248539
vn -0 -0.99999106 -0.004248539
vn -0 -0.99999106 -0.004248539
vn -0 -0.946727 0.32203737
vn -0 -0.946727 0.32203737
vn -0 -0.946727 0.32203737
vn -0 -0.946727 0.32203737
vn -0 -0.77806705 0.62818116
vn -0 -0.77806705 0.62818116
vn -0 -0.77806705 0.62818116
vn -0 -0.77806705 0.62818116
vn -0 -0.57551074 0.81779426
vn -0 -0.57551074 0.81779426
vn -0 -0.33034694 0.94385964
vn -0 -0.33034694 0.94385964
vn -0 -0.046914417 0.99889886
vn -0 -0.046914417 0.99889886
vn -0 -0.91154593 0.41119835
vn -0 -0.91154593 0.41119835
vn -0 -0.91154593 0.41119835
vn -0 -0.91154593 0.41119835
vn -0 0.38638723 0.9223367
vn -0 0.38638723 0.9223367
vn -0 0.61607426 0.787688
vn -0 0.61607426 0.787688
vn -0 0.80215555 0.5971151
vn -0 0.80215555 0.5971151
vn -0 1 0
vn -0 1 0
vn -0 1 0
vn -0 1 0
vn -0 0.9465703 -0.32249764
vn -0 0.9465703 -0.32249764
vn -0 0.9465703 -0.32249764
vn -0 0.9465703 -0.32249764
vn -0 0.7773925 -0.62901574
vn -0 0.7773925 -0.62901574
vn -0 0.7773925 -0.62901574
vn -0 0.7773925 -0.62901574
vn -1 0 0
vn -1 0 0
vn -1 0 0
vn -1 0 0
vn -1 1.2798492E-07 0
vn -1 1.1245294E-07 0
vn -1 1.2427925E-07 0
vn -1 1.2987962E-07 0
vn -1 1.353542E-07 0
vn -1 1.3113328E-07 0
vn -1 -3.8554134E-07 0
vn -1 -3.77573E-07 0
vn -1 -3.7118716E-07 0
vn -1 -3.6804224E-07 0
vn -1 0 0
vn -1 0 0
vn -1 0 0
vn -1 0 0
vn -0 0.8981576 0.4396737
vn -0 0.8981576 0.4396737
vn -0 0.8981576 0.4396737
vn -0 0.8981576 0.4396737
vn 1 1.834039E-07 0
vn 1 1.834039E-07 0
vn 1 1.76798E-07 0
vn 1 1.7620444E-07 0
vn 1 0 0
vn 1 0 0
vn 1 0 0
vn 1 0 0
vn 1 0 0
vn 1 0 0
vn 1 -1.1703932E-07 0
vn 1 -1.1462037E-07 0
vn 1 -1.3693614E-07 0
vn 1 -1.3562179E-07 0
vn 1 2.4480386E-07 0
vn 1 2.4062362E-07 0
vn 1 3.2549192E-07 0
vn 1 3.254919E-07 0
vn -0 0.60396576 0.79701024
vn -0 0.60396576 0.79701024
vn -0 0.60396576 0.79701024
vn -0 0.60396576 0.79701024
g SM_Veh_Snowmobile_Tread_01_0
f 3/3/3 2/2/2 1/1/1
f 2/2/2 4/4/4 1/1/1
f 2/2/2 5/5/5 4/4/4
f 5/5/5 6/6/6 4/4/4
f 9/9/9 8/8/8 7/7/7
f 10/10/10 9/9/9 7/7/7
f 13/13/13 12/12/12 11/11/11
f 12/12/12 14/14/14 11/11/11
f 12/12/12 15/15/15 14/14/14
f 15/15/15 16/16/16 14/14/14
f 19/19/19 18/18/18 17/17/17
f 20/20/20 19/19/19 17/17/17
f 23/23/23 22/22/22 21/21/21
f 24/24/24 23/23/23 21/21/21
f 27/27/27 26/26/26 25/25/25
f 28/28/28 27/27/27 25/25/25
f 31/31/31 30/30/30 29/29/29
f 32/32/32 31/31/31 29/29/29
f 32/32/32 33/33/33 31/31/31
f 33/33/33 34/34/34 31/31/31
f 37/37/37 36/36/36 35/35/35
f 38/38/38 37/37/37 35/35/35
f 41/41/41 40/40/40 39/39/39
f 42/42/42 41/41/41 39/39/39
f 43/43/43 41/41/41 42/42/42
f 44/44/44 43/43/43 42/42/42
f 47/47/47 46/46/46 45/45/45
f 48/48/48 47/47/47 45/45/45
f 51/51/51 50/50/50 49/49/49
f 52/52/52 51/51/51 49/49/49
f 55/55/55 54/54/54 53/53/53
f 56/56/56 55/55/55 53/53/53
f 59/59/59 58/58/58 57/57/57
f 58/58/58 60/60/60 57/57/57
f 57/57/57 60/60/60 61/61/61
f 60/60/60 62/62/62 61/61/61
f 61/61/61 62/62/62 63/63/63
f 62/62/62 64/64/64 63/63/63
f 63/63/63 64/64/64 65/65/65
f 66/66/66 63/63/63 65/65/65
f 66/66/66 65/65/65 67/67/67
f 65/65/65 68/68/68 67/67/67
f 67/67/67 68/68/68 69/69/69
f 68/68/68 70/70/70 69/69/69
f 69/69/69 70/70/70 71/71/71
f 70/70/70 72/72/72 71/71/71
f 71/71/71 72/72/72 73/73/73
f 72/72/72 74/74/74 73/73/73
f 77/77/77 76/76/76 75/75/75
f 78/78/78 77/77/77 75/75/75
f 81/81/81 80/80/80 79/79/79
f 82/82/82 81/81/81 79/79/79
f 83/83/83 81/81/81 82/82/82
f 84/84/84 83/83/83 82/82/82
f 84/84/84 85/85/85 83/83/83
f 85/85/85 86/86/86 83/83/83
f 87/87/87 86/86/86 85/85/85
f 88/88/88 87/87/87 85/85/85
f 88/88/88 89/89/89 87/87/87
f 89/89/89 90/90/90 87/87/87
f 91/91/91 90/90/90 89/89/89
f 92/92/92 91/91/91 89/89/89
f 93/93/93 91/91/91 92/92/92
f 94/94/94 93/93/93 92/92/92
f 95/95/95 93/93/93 94/94/94
f 96/96/96 95/95/95 94/94/94
f 99/99/99 98/98/98 97/97/97
f 100/100/100 99/99/99 97/97/97
