g SM_Veh_Shuttle_Door_01
v 0.9455261 2.8621216 5.178196
v 0.9455261 2.8621216 -3.0442314
v 0.009643555 2.8624268 -3.0442278
v 0.0096206665 2.8624268 5.178196
v 1.2046814 2.531189 -3.0442276
v 0.9455261 2.8621216 -3.0442314
v 0.9455261 2.8621216 5.178196
v 1.2047043 2.531189 5.178192
v 1.3146667 1.7405701 -3.0442276
v 1.2046814 2.531189 -3.0442276
v 1.2047043 2.531189 5.178192
v 1.3146515 1.7405701 5.178192
v 1.0083008 3.007904 5.178196
v 0.010253906 3.0118408 5.178195
v 0.010253906 3.0118408 -3.0442271
v 1.0083008 3.007904 -3.0442276
v 1.3469238 2.5946045 -3.0442276
v 1.3469391 2.5946045 5.178192
v 1.0083008 3.007904 5.178196
v 1.0083008 3.007904 -3.0442276
v 1.4742432 1.7650757 -3.0442276
v 1.4742432 1.7650757 5.178192
v 1.3469391 2.5946045 5.178192
v 1.3469238 2.5946045 -3.0442276
v 1.0083008 3.007904 -3.0442276
v 0.010253906 3.0118408 -3.0442271
v 0.009643555 2.8624268 -3.0442278
v 0.9455261 2.8621216 -3.0442314
v 1.3469238 2.5946045 -3.0442276
v 1.2046814 2.531189 -3.0442276
v 1.4742432 1.7650757 -3.0442276
v 1.3146667 1.7405701 -3.0442276
v 0.010253906 3.0118408 -3.0442271
v 0.010253906 3.0118408 5.178195
v 0.0096206665 2.8624268 5.178196
v 0.009643555 2.8624268 -3.0442278
v 0.010253906 3.0118408 5.178195
v 0.9455261 2.8621216 5.178196
v 0.0096206665 2.8624268 5.178196
v 1.0083008 3.007904 5.178196
v 1.2047043 2.531189 5.178192
v 1.3469391 2.5946045 5.178192
v 1.3146515 1.7405701 5.178192
v 1.4742432 1.7650757 5.178192
v 1.4742432 1.7650757 5.178192
v 1.4742432 1.7650757 -3.0442276
v 1.3146667 1.7405701 -3.0442276
v 1.3146515 1.7405701 5.178192
vt 0.29432678 0.4743042
vt 0.29434204 0.4743042
vt 0.29434204 0.4743042
vt 0.29432678 0.4743042
vt 0.29434204 0.4743042
vt 0.29434204 0.4743042
vt 0.29432678 0.4743042
vt 0.29432678 0.4743042
vt 0.29434204 0.4743042
vt 0.29434204 0.4743042
vt 0.29432678 0.4743042
vt 0.29432678 0.4743042
vt 0.36397746 0.4761436
vt 0.36397746 0.4761436
vt 0.36397746 0.4761436
vt 0.36397746 0.4761436
vt 0.3277872 0.48958564
vt 0.32778722 0.4895857
vt 0.32778722 0.4895857
vt 0.32778722 0.4895857
vt 0.32778722 0.48958567
vt 0.32778716 0.48958567
vt 0.32778716 0.48958567
vt 0.3277872 0.4895857
vt 0.13845825 0.4743042
vt 0.13845825 0.4743042
vt 0.13845825 0.4743042
vt 0.13845825 0.4743042
vt 0.13845825 0.4743042
vt 0.13845825 0.4743042
vt 0.13845825 0.4743042
vt 0.13845825 0.4743042
vt 0.13845825 0.4743042
vt 0.13845062 0.4743042
vt 0.13845062 0.4743042
vt 0.13845825 0.4743042
vt 0.13845062 0.4743042
vt 0.13845062 0.4743042
vt 0.13845062 0.4743042
vt 0.13845062 0.4743042
vt 0.13845062 0.4743042
vt 0.13845062 0.4743042
vt 0.13845062 0.4743042
vt 0.13845062 0.4743042
vt 0.13845062 0.4743042
vt 0.13845825 0.4743042
vt 0.13845825 0.4743042
vt 0.13845062 0.4743042
vn -0.00032607943 -1 0
vn -0.00032607943 -1 0
vn -0.00032607943 -1 0
vn -0.00032607943 -1 0
vn -0.7873017 -0.61656785 0
vn -0.7873017 -0.61656785 0
vn -0.7873017 -0.61656785 0
vn -0.7873017 -0.61656785 0
vn -0.9904653 -0.13776268 0
vn -0.9904653 -0.13776268 0
vn -0.9904653 -0.13776268 0
vn -0.9904653 -0.13776268 0
vn 0.003944441 0.99999225 0
vn 0.003944441 0.99999225 0
vn 0.003944441 0.99999225 0
vn 0.003944441 0.99999225 0
vn 0.7735201 0.63377184 0
vn 0.7735201 0.63377184 0
vn 0.7735201 0.63377184 0
vn 0.7735201 0.63377184 0
vn 0.98842686 0.15169853 0
vn 0.98842686 0.15169853 0
vn 0.98842686 0.15169853 0
vn 0.98842686 0.15169853 0
vn -0 0 -1
vn -0 0 -1
vn -0 0 -1
vn -0 0 -1
vn -0 0 -1
vn -0 0 -1
vn -0 0 -1
vn -0 0 -1
vn -0.9999914 0.004161524 0
vn -0.9999914 0.004161524 0
vn -0.9999914 0.004161524 0
vn -0.9999914 0.004161524 0
vn -0 0 1
vn -0 0 1
vn -0 0 1
vn -0 0 1
vn -0 0 1
vn -0 0 1
vn -0 0 1
vn -0 0 1
vn 0.15178022 -0.9884143 0
vn 0.15178022 -0.9884143 0
vn 0.15178022 -0.9884143 0
vn 0.15178022 -0.9884143 0
g SM_Veh_Shuttle_Door_01_0
f 3/3/3 2/2/2 1/1/1
f 4/4/4 3/3/3 1/1/1
f 7/7/7 6/6/6 5/5/5
f 8/8/8 7/7/7 5/5/5
f 11/11/11 10/10/10 9/9/9
f 12/12/12 11/11/11 9/9/9
f 15/15/15 14/14/14 13/13/13
f 16/16/16 15/15/15 13/13/13
f 19/19/19 18/18/18 17/17/17
f 20/20/20 19/19/19 17/17/17
f 23/23/23 22/22/22 21/21/21
f 24/24/24 23/23/23 21/21/21
f 27/27/27 26/26/26 25/25/25
f 28/28/28 27/27/27 25/25/25
f 28/28/28 25/25/25 29/29/29
f 30/30/30 28/28/28 29/29/29
f 30/30/30 29/29/29 31/31/31
f 32/32/32 30/30/30 31/31/31
f 35/35/35 34/34/34 33/33/33
f 36/36/36 35/35/35 33/33/33
f 39/39/39 38/38/38 37/37/37
f 38/38/38 40/40/40 37/37/37
f 38/38/38 41/41/41 40/40/40
f 41/41/41 42/42/42 40/40/40
f 41/41/41 43/43/43 42/42/42
f 43/43/43 44/44/44 42/42/42
f 47/47/47 46/46/46 45/45/45
f 48/48/48 47/47/47 45/45/45
