g SM_Veh_Plane_Flap_fr_02
v -3.8021524 -0.26393425 0.008662911
v 3.8012936 -0.08190912 0.0055205165
v -3.8021524 0.26393408 0.008662911
v 3.8012936 0.2412998 0.0055208215
v -3.891225 -0.011708927 1.4774557
v 3.7257063 0.025065364 1.1495445
v -3.891225 -0.10620478 1.4774557
v 3.7257063 -0.031130617 1.1495445
v -3.8021524 0.26393408 0.008662911
v 3.8012936 0.2412998 0.0055208215
v -3.891225 -0.011708927 1.4774557
v 3.7257063 0.025065364 1.1495445
v -3.891225 -0.10620478 1.4774557
v 3.7257063 -0.031130617 1.1495445
v 3.8012936 -0.08190912 0.0055205165
v -3.8021524 -0.26393425 0.008662911
v 3.8012936 -0.08190912 0.0055205165
v 3.7257063 -0.031130617 1.1495445
v 3.7257063 0.025065364 1.1495445
v 3.8012936 0.2412998 0.0055208215
v -3.891225 -0.10620478 1.4774557
v -3.8021524 -0.26393425 0.008662911
v -3.8021524 0.26393408 0.008662911
v -3.891225 -0.011708927 1.4774557
vt 0.18164285 0.5101812
vt 0.55544716 0.48735765
vt 0.18164285 0.5101812
vt 0.55544716 0.48735747
vt 0.18164285 0.58265823
vt 0.55514187 0.5438277
vt 0.18164285 0.58265823
vt 0.55514187 0.5438277
vt 0.18164285 0.5101812
vt 0.55544716 0.48735747
vt 0.18164285 0.58265823
vt 0.55514187 0.5438277
vt 0.078960426 0.1392444
vt 0.07896041 0.1392444
vt 0.07896041 0.1392444
vt 0.078960426 0.13924447
vt 0.55544716 0.48735765
vt 0.55514187 0.5438277
vt 0.55514187 0.5438277
vt 0.55544716 0.48735747
vt 0.18164285 0.58265823
vt 0.18164285 0.5101812
vt 0.18164285 0.5101812
vt 0.18164285 0.58265823
vn -0.00041326933 0 -1
vn -0.00041326933 0 -1
vn -0.00041326933 0 -1
vn -0.00041326933 0 -1
vn 0.0031151625 0.9826969 0.18519457
vn 0.0031151625 0.9826969 0.18519457
vn 0.043010477 0 0.9990746
vn 0.043010477 0 0.9990746
vn 0.0031151625 0.9826969 0.18519457
vn 0.0031151625 0.9826969 0.18519457
vn 0.043010477 0 0.9990746
vn 0.043010477 0 0.9990746
vn 0.018589025 -0.99656516 0.08069938
vn 0.018589025 -0.99656516 0.08069938
vn 0.018589025 -0.99656516 0.08069938
vn 0.018589025 -0.99656516 0.08069938
vn 0.99782443 0 0.065927565
vn 0.99782443 0 0.065927565
vn 0.99782443 0 0.065927565
vn 0.99782443 0 0.065927565
vn -0.99816626 0 -0.060532384
vn -0.99816626 0 -0.060532384
vn -0.99816626 0 -0.060532384
vn -0.99816626 0 -0.060532384
g SM_Veh_Plane_Flap_fr_02_0
f 4/4/4 2/2/2 1/1/1
f 3/3/3 4/4/4 1/1/1
f 6/6/6 10/10/10 9/9/9
f 5/5/5 6/6/6 9/9/9
f 8/8/8 12/12/12 11/11/11
f 7/7/7 8/8/8 11/11/11
f 15/15/15 14/14/14 13/13/13
f 16/16/16 15/15/15 13/13/13
f 19/19/19 18/18/18 17/17/17
f 20/20/20 19/19/19 17/17/17
f 23/23/23 22/22/22 21/21/21
f 24/24/24 23/23/23 21/21/21
