g SM_Veh_Buggy_Wheel_FL
v -0.29075992 0.6105613 0.35251704
v 0.1520673 0.6105613 0.35251704
v 0.15207303 0.35250708 0.61056036
v -0.29075992 0.35250708 0.61056036
v -0.29075992 0.35250708 0.61056036
v 0.15207303 0.35250708 0.61056036
v 0.1520673 2.7808467E-08 0.7050199
v -0.29076564 2.7808467E-08 0.7050199
v -0.29076564 2.7808467E-08 0.7050199
v 0.1520673 2.7808467E-08 0.7050199
v 0.15207303 -0.35250667 0.61056036
v -0.29075992 -0.35250667 0.61056036
v -0.29075992 -0.35250667 0.61056036
v 0.15207303 -0.35250667 0.61056036
v 0.1520673 -0.6105595 0.35251704
v -0.29075992 -0.6105595 0.35251132
v -0.29075992 -0.6105595 0.35251132
v 0.1520673 -0.6105595 0.35251704
v 0.1520673 -0.70501274 -4.849675E-06
v -0.29075992 -0.70501274 8.723708E-07
v -0.29075992 -0.70501274 8.723708E-07
v 0.1520673 -0.70501274 -4.849675E-06
v 0.15207303 -0.6105595 -0.35250768
v -0.29075992 -0.6105595 -0.35250768
v -0.29075992 -0.6105595 -0.35250768
v 0.15207303 -0.6105595 -0.35250768
v 0.15207303 -0.35250667 -0.61055666
v -0.29075992 -0.35250667 -0.6105643
v -0.29075992 -0.35250667 -0.6105643
v 0.15207303 -0.35250667 -0.61055666
v 0.15207303 2.7808467E-08 -0.70502
v -0.29075992 2.7808467E-08 -0.70502
v -0.29075992 2.7808467E-08 -0.70502
v 0.15207303 2.7808467E-08 -0.70502
v 0.15207303 0.35250708 -0.61055666
v -0.29075992 0.35250708 -0.6105643
v -0.29075992 0.35250708 -0.6105643
v 0.15207303 0.35250708 -0.61055666
v 0.15207303 0.6105613 -0.35250768
v -0.29075992 0.6105613 -0.35250768
v -0.29075992 0.6105613 -0.35250768
v 0.15207303 0.6105613 -0.35250768
v 0.1520673 0.7050126 -4.849675E-06
v -0.29075992 0.7050126 8.723708E-07
v -0.29075992 0.7050126 8.723708E-07
v 0.1520673 0.7050126 -4.849675E-06
v 0.1520673 0.6105613 0.35251704
v -0.29075992 0.6105613 0.35251704
v -0.29075992 0.35250708 0.61056036
v -0.29076564 2.7808467E-08 0.7050199
v -0.29075992 0.6105613 0.35251704
v -0.29075992 -0.35250667 0.61056036
v -0.29075992 -0.6105595 0.35251132
v -0.29075992 -0.70501274 8.723708E-07
v -0.29075992 -0.6105595 -0.35250768
v -0.29075992 -0.35250667 -0.6105643
v -0.29075992 2.7808467E-08 -0.70502
v -0.29075992 0.35250708 -0.6105643
v -0.29075992 0.6105613 -0.35250768
v -0.29075992 0.7050126 8.723708E-07
v 0.15206158 -0.10824594 0.108241
v 0.15206158 0.10824612 0.108241
v 0.29076588 0.0590789 0.05907146
v 0.29076588 -0.059078727 0.05907146
v 0.15206158 0.10824612 0.108241
v 0.15206158 0.10824612 -0.10825261
v 0.29076588 0.0590789 -0.059083067
v 0.29076588 0.0590789 0.05907146
v 0.15206158 0.10824612 -0.10825261
v 0.15206158 -0.10824594 -0.10825261
v 0.29076588 -0.059078727 -0.059083067
v 0.29076588 0.0590789 -0.059083067
v 0.15206158 -0.10824594 -0.10825261
v 0.15206158 -0.10824594 0.108241
v 0.29076588 -0.059078727 0.05907146
v 0.29076588 -0.059078727 -0.059083067
v 0.29076588 -0.059078727 0.05907146
v 0.29076588 0.0590789 0.05907146
v 0.29076588 0.0590789 -0.059083067
v 0.29076588 -0.059078727 -0.059083067
v 0.1520673 0.6105613 0.35251704
v 0.1520673 2.7808467E-08 -4.849675E-06
v 0.15207303 0.35250708 0.61056036
v 0.1520673 0.7050126 -4.849675E-06
v 0.1520673 2.7808467E-08 0.7050199
v 0.15207303 0.6105613 -0.35250768
v 0.15207303 -0.35250667 0.61056036
v 0.15207303 0.35250708 -0.61055666
v 0.1520673 -0.6105595 0.35251704
v 0.15207303 2.7808467E-08 -0.70502
v 0.1520673 -0.70501274 -4.849675E-06
v 0.15207303 -0.35250667 -0.61055666
v 0.15207303 -0.6105595 -0.35250768
vt 0.1339035 0.47379816
vt 0.1339035 0.47379816
vt 0.1339035 0.47379816
vt 0.1339035 0.47379816
vt 0.1339035 0.47379816
vt 0.1339035 0.47379816
vt 0.1339035 0.4737982
vt 0.1339035 0.4737982
vt 0.1339035 0.4737982
vt 0.1339035 0.4737982
vt 0.1339035 0.47379822
vt 0.1339035 0.47379822
vt 0.1339035 0.47379822
vt 0.1339035 0.47379822
vt 0.1339035 0.47379816
vt 0.1339035 0.47379816
vt 0.1339035 0.47379816
vt 0.1339035 0.47379816
vt 0.1339035 0.47379816
vt 0.1339035 0.47379816
vt 0.1339035 0.47379816
vt 0.1339035 0.47379816
vt 0.1339035 0.47379816
vt 0.1339035 0.47379816
vt 0.1339035 0.47379816
vt 0.1339035 0.47379816
vt 0.1339035 0.47379822
vt 0.1339035 0.47379822
vt 0.1339035 0.47379822
vt 0.1339035 0.47379822
vt 0.1339035 0.4737982
vt 0.1339035 0.4737982
vt 0.1339035 0.4737982
vt 0.1339035 0.4737982
vt 0.1339035 0.47379816
vt 0.1339035 0.47379816
vt 0.1339035 0.47379816
vt 0.1339035 0.47379816
vt 0.1339035 0.47379816
vt 0.1339035 0.47379816
vt 0.1339035 0.47379816
vt 0.1339035 0.47379816
vt 0.1339035 0.47379827
vt 0.1339035 0.47379827
vt 0.1339035 0.47379827
vt 0.1339035 0.47379827
vt 0.1339035 0.47379816
vt 0.1339035 0.47379816
vt 0.0017484889 0.9718405
vt 0.0017484889 0.97184056
vt 0.0017484889 0.9718406
vt 0.0017484889 0.9718406
vt 0.0017484889 0.97184056
vt 0.0017484889 0.9718406
vt 0.0017484889 0.97184056
vt 0.0017484889 0.9718406
vt 0.0017484889 0.97184056
vt 0.0017484889 0.9718405
vt 0.0017484889 0.9718406
vt 0.0017484889 0.97184056
vt 0.2951771 0.4728325
vt 0.2951771 0.47283253
vt 0.29517707 0.47283253
vt 0.29517707 0.4728325
vt 0.32801056 0.48924947
vt 0.32801056 0.48924947
vt 0.32801056 0.48924947
vt 0.32801056 0.48924947
vt 0.2951771 0.47283253
vt 0.2951771 0.4728325
vt 0.29517707 0.4728325
vt 0.29517707 0.47283253
vt 0.27006912 0.4718668
vt 0.27006912 0.4718668
vt 0.27006912 0.4718668
vt 0.27006912 0.4718668
vt 0.29517707 0.4728325
vt 0.29517707 0.47283253
vt 0.29517704 0.47283253
vt 0.29517704 0.4728325
vt 0.0017486181 0.93663055
vt 0.001748702 0.86066926
vt 0.001748702 0.93663055
vt 0.001748702 0.93663055
vt 0.001748702 0.93663055
vt 0.001748702 0.93663055
vt 0.001748702 0.93663055
vt 0.001748702 0.93663055
vt 0.001748702 0.93663055
vt 0.001748702 0.93663055
vt 0.001748702 0.93663055
vt 0.001748702 0.93663055
vt 0.001748702 0.93663055
vn -0 0.7070918 0.7071217
vn -0 0.7070918 0.7071217
vn -0 0.7070918 0.7071217
vn -0 0.7070918 0.7071217
vn -0 0.25883326 0.96592206
vn -0 0.25883326 0.96592206
vn -0 0.25883326 0.96592206
vn -0 0.25883326 0.96592206
vn -0 -0.2588335 0.96592194
vn -0 -0.2588335 0.96592194
vn -0 -0.2588335 0.96592194
vn -0 -0.2588335 0.96592194
vn -0 -0.7070976 0.7071159
vn -0 -0.7070976 0.7071159
vn -0 -0.7070976 0.7071159
vn -0 -0.7070976 0.7071159
vn -0 -0.9659281 0.25881088
vn -0 -0.9659281 0.25881088
vn -0 -0.9659281 0.25881088
vn -0 -0.9659281 0.25881088
vn -0 -0.96592605 -0.258818
vn -0 -0.96592605 -0.258818
vn -0 -0.96592605 -0.258818
vn -0 -0.96592605 -0.258818
vn -0 -0.70710665 -0.7071068
vn -0 -0.70710665 -0.7071068
vn -0 -0.70710665 -0.7071068
vn -0 -0.70710665 -0.7071068
vn -0 -0.2588335 -0.96592194
vn -0 -0.2588335 -0.96592194
vn -0 -0.2588335 -0.96592194
vn -0 -0.2588335 -0.96592194
vn -0 0.25883326 -0.96592206
vn -0 0.25883326 -0.96592206
vn -0 0.25883326 -0.96592206
vn -0 0.25883326 -0.96592206
vn -0 0.7071048 -0.70710874
vn -0 0.7071048 -0.70710874
vn -0 0.7071048 -0.70710874
vn -0 0.7071048 -0.70710874
vn -0 0.96592736 -0.25881314
vn -0 0.96592736 -0.25881314
vn -0 0.96592736 -0.25881314
vn -0 0.96592736 -0.25881314
vn -0 0.9659298 0.258804
vn -0 0.9659298 0.258804
vn -0 0.9659298 0.258804
vn -0 0.9659298 0.258804
vn -1 0 0
vn -1 0 0
vn -1 0 0
vn -1 0 0
vn -1 0 0
vn -1 0 0
vn -1 0 0
vn -1 0 0
vn -1 0 0
vn -1 0 0
vn -1 0 0
vn -1 0 0
vn 0.33411947 0 0.9425307
vn 0.33411947 0 0.9425307
vn 0.33411947 0 0.9425307
vn 0.33411947 0 0.9425307
vn 0.33410546 0.94253576 0
vn 0.33410546 0.94253576 0
vn 0.33410546 0.94253576 0
vn 0.33410546 0.94253576 0
vn 0.33411947 0 -0.9425307
vn 0.33411947 0 -0.9425307
vn 0.33411947 0 -0.9425307
vn 0.33411947 0 -0.9425307
vn 0.33410537 -0.94253576 0
vn 0.33410537 -0.94253576 0
vn 0.33410537 -0.94253576 0
vn 0.33410537 -0.94253576 0
vn 1 0 0
vn 1 0 0
vn 1 0 0
vn 1 0 0
vn 1 0 0
vn 1 0 0
vn 1 0 0
vn 1 0 0
vn 1 0 0
vn 1 0 0
vn 1 0 0
vn 1 0 0
vn 1 0 0
vn 1 0 0
vn 1 0 0
vn 1 0 0
vn 1 0 0
g SM_Veh_Buggy_Wheel_FL_0
f 3/3/3 2/2/2 1/1/1
f 4/4/4 3/3/3 1/1/1
f 7/7/7 6/6/6 5/5/5
f 8/8/8 7/7/7 5/5/5
f 11/11/11 10/10/10 9/9/9
f 12/12/12 11/11/11 9/9/9
f 15/15/15 14/14/14 13/13/13
f 16/16/16 15/15/15 13/13/13
f 19/19/19 18/18/18 17/17/17
f 20/20/20 19/19/19 17/17/17
f 23/23/23 22/22/22 21/21/21
f 24/24/24 23/23/23 21/21/21
f 27/27/27 26/26/26 25/25/25
f 28/28/28 27/27/27 25/25/25
f 31/31/31 30/30/30 29/29/29
f 32/32/32 31/31/31 29/29/29
f 35/35/35 34/34/34 33/33/33
f 36/36/36 35/35/35 33/33/33
f 39/39/39 38/38/38 37/37/37
f 40/40/40 39/39/39 37/37/37
f 43/43/43 42/42/42 41/41/41
f 44/44/44 43/43/43 41/41/41
f 47/47/47 46/46/46 45/45/45
f 48/48/48 47/47/47 45/45/45
f 51/51/51 50/50/50 49/49/49
f 51/51/51 52/52/52 50/50/50
f 51/51/51 53/53/53 52/52/52
f 51/51/51 54/54/54 53/53/53
f 51/51/51 55/55/55 54/54/54
f 51/51/51 56/56/56 55/55/55
f 51/51/51 57/57/57 56/56/56
f 51/51/51 58/58/58 57/57/57
f 51/51/51 59/59/59 58/58/58
f 51/51/51 60/60/60 59/59/59
f 63/63/63 62/62/62 61/61/61
f 64/64/64 63/63/63 61/61/61
f 67/67/67 66/66/66 65/65/65
f 68/68/68 67/67/67 65/65/65
f 71/71/71 70/70/70 69/69/69
f 72/72/72 71/71/71 69/69/69
f 75/75/75 74/74/74 73/73/73
f 76/76/76 75/75/75 73/73/73
f 79/79/79 78/78/78 77/77/77
f 80/80/80 79/79/79 77/77/77
f 83/83/83 82/82/82 81/81/81
f 81/81/81 82/82/82 84/84/84
f 85/85/85 82/82/82 83/83/83
f 84/84/84 82/82/82 86/86/86
f 87/87/87 82/82/82 85/85/85
f 86/86/86 82/82/82 88/88/88
f 89/89/89 82/82/82 87/87/87
f 88/88/88 82/82/82 90/90/90
f 91/91/91 82/82/82 89/89/89
f 90/90/90 82/82/82 92/92/92
f 93/93/93 82/82/82 91/91/91
f 92/92/92 82/82/82 93/93/93
