g SM_Veh_Truck_Wheel_RL
v -0.17933667 0.7109634 0.41047367
v 0.17933667 0.7109634 0.41047367
v 0.17933667 0.41047534 0.71095645
v -0.17933667 0.41047534 0.71095645
v -0.17933667 0.41047534 0.71095645
v 0.17933667 0.41047534 0.71095645
v 0.17933667 3.1766933E-07 0.820948
v -0.17933667 3.1766933E-07 0.820948
v -0.17933667 3.1766933E-07 0.820948
v 0.17933667 3.1766933E-07 0.820948
v 0.17933667 -0.41047463 0.71095645
v -0.17933667 -0.41047463 0.71095645
v -0.17933667 -0.41047463 0.71095645
v 0.17933667 -0.41047463 0.71095645
v 0.17933667 -0.7109627 0.41047367
v -0.17933667 -0.7109627 0.41047367
v -0.17933667 -0.7109627 0.41047367
v 0.17933667 -0.7109627 0.41047367
v 0.17933667 -0.82094955 -1.15813955E-05
v -0.17933667 -0.82094955 -1.15813955E-05
v -0.17933667 -0.82094955 -1.15813955E-05
v 0.17933667 -0.82094955 -1.15813955E-05
v 0.17933667 -0.7109627 -0.4104735
v -0.17933667 -0.7109627 -0.4104735
v -0.17933667 -0.7109627 -0.4104735
v 0.17933667 -0.7109627 -0.4104735
v 0.17933667 -0.41047463 -0.71096766
v -0.17933667 -0.41047463 -0.71096766
v -0.17933667 -0.41047463 -0.71096766
v 0.17933667 -0.41047463 -0.71096766
v 0.17933667 3.1766933E-07 -0.82094777
v -0.17933667 3.1766933E-07 -0.82094777
v -0.17933667 3.1766933E-07 -0.82094777
v 0.17933667 3.1766933E-07 -0.82094777
v 0.17933667 0.41047534 -0.71096766
v -0.17933667 0.41047534 -0.71096766
v -0.17933667 0.41047534 -0.71096766
v 0.17933667 0.41047534 -0.71096766
v 0.17933667 0.7109634 -0.4104735
v -0.17933667 0.7109634 -0.4104735
v -0.17933667 0.7109634 -0.4104735
v 0.17933667 0.7109634 -0.4104735
v 0.17933667 0.8209495 -1.15813955E-05
v -0.17933667 0.8209495 -1.15813955E-05
v -0.17933667 0.8209495 -1.15813955E-05
v 0.17933667 0.8209495 -1.15813955E-05
v 0.17933667 0.7109634 0.41047367
v -0.17933667 0.7109634 0.41047367
v -0.17933667 0.41047534 0.71095645
v -0.17933667 3.1766933E-07 0.820948
v -0.17933667 0.7109634 0.41047367
v -0.17933667 -0.41047463 0.71095645
v -0.17933667 -0.7109627 0.41047367
v -0.17933667 -0.82094955 -1.15813955E-05
v -0.17933667 -0.7109627 -0.4104735
v -0.17933667 -0.41047463 -0.71096766
v -0.17933667 3.1766933E-07 -0.82094777
v -0.17933667 0.41047534 -0.71096766
v -0.17933667 0.7109634 -0.4104735
v -0.17933667 0.8209495 -1.15813955E-05
v 0.17933667 0.7109634 0.41047367
v 0.17933667 3.1766933E-07 -1.15813955E-05
v 0.17933667 0.41047534 0.71095645
v 0.17933667 0.8209495 -1.15813955E-05
v 0.17933667 3.1766933E-07 0.820948
v 0.17933667 0.7109634 -0.4104735
v 0.17933667 -0.41047463 0.71095645
v 0.17933667 0.41047534 -0.71096766
v 0.17933667 -0.7109627 0.41047367
v 0.17933667 3.1766933E-07 -0.82094777
v 0.17933667 -0.82094955 -1.15813955E-05
v 0.17933667 -0.41047463 -0.71096766
v 0.17933667 -0.7109627 -0.4104735
vt 0.5292924 0.4945044
vt 0.5292924 0.4945044
vt 0.5292924 0.4945044
vt 0.5292924 0.4945044
vt 0.5292924 0.4945044
vt 0.5292924 0.4945044
vt 0.5292924 0.4945044
vt 0.5292924 0.4945044
vt 0.5292924 0.4945044
vt 0.5292924 0.4945044
vt 0.5292924 0.4945044
vt 0.5292924 0.4945044
vt 0.5292924 0.4945044
vt 0.5292924 0.4945044
vt 0.5292924 0.4945044
vt 0.5292924 0.4945044
vt 0.5292924 0.4945044
vt 0.5292924 0.4945044
vt 0.5292924 0.4945044
vt 0.5292924 0.4945044
vt 0.5292924 0.4945044
vt 0.5292924 0.4945044
vt 0.5292924 0.4945044
vt 0.5292924 0.4945044
vt 0.5292924 0.4945044
vt 0.5292924 0.4945044
vt 0.5292924 0.4945044
vt 0.5292924 0.4945044
vt 0.5292924 0.4945044
vt 0.5292924 0.4945044
vt 0.5292924 0.4945044
vt 0.5292924 0.4945044
vt 0.5292924 0.4945044
vt 0.5292924 0.4945044
vt 0.5292924 0.4945044
vt 0.5292924 0.4945044
vt 0.5292924 0.4945044
vt 0.5292924 0.4945044
vt 0.5292924 0.4945044
vt 0.5292924 0.4945044
vt 0.5292924 0.4945044
vt 0.5292924 0.4945044
vt 0.5292924 0.4945044
vt 0.5292924 0.4945044
vt 0.5292924 0.4945044
vt 0.5292924 0.4945044
vt 0.5292924 0.4945044
vt 0.5292924 0.4945044
vt 0.52353305 0.443178
vt 0.5133393 0.40513512
vt 0.5513821 0.47102723
vt 0.52353305 0.3670923
vt 0.5513821 0.3392431
vt 0.5894251 0.32904947
vt 0.6274674 0.3392431
vt 0.6553172 0.3670923
vt 0.6655103 0.40513512
vt 0.6553172 0.443178
vt 0.6274674 0.47102723
vt 0.5894251 0.48122072
vt 0.58960307 0.32856065
vt 0.58960307 0.4046519
vt 0.62764806 0.3387541
vt 0.55155665 0.33875543
vt 0.6555008 0.36660686
vt 0.52370393 0.36660686
vt 0.6656945 0.40465462
vt 0.51350904 0.40465462
vt 0.6555008 0.44269952
vt 0.52370393 0.44270086
vt 0.6276495 0.47054976
vt 0.55155665 0.4705523
vt 0.58960307 0.48074603
vn -0 0.7071005 0.707113
vn -0 0.7071005 0.707113
vn -0 0.7071005 0.707113
vn -0 0.7071005 0.707113
vn -0 0.25883025 0.96592283
vn -0 0.25883025 0.96592283
vn -0 0.25883025 0.96592283
vn -0 0.25883025 0.96592283
vn -0 -0.25883028 0.96592283
vn -0 -0.25883028 0.96592283
vn -0 -0.25883028 0.96592283
vn -0 -0.25883028 0.96592283
vn -0 -0.7071005 0.707113
vn -0 -0.7071005 0.707113
vn -0 -0.7071005 0.707113
vn -0 -0.7071005 0.707113
vn -0 -0.9659272 0.2588139
vn -0 -0.9659272 0.2588139
vn -0 -0.9659272 0.2588139
vn -0 -0.9659272 0.2588139
vn -0 -0.9659235 -0.2588276
vn -0 -0.9659235 -0.2588276
vn -0 -0.9659235 -0.2588276
vn -0 -0.9659235 -0.2588276
vn -0 -0.7071139 -0.7070996
vn -0 -0.7071139 -0.7070996
vn -0 -0.7071139 -0.7070996
vn -0 -0.7071139 -0.7070996
vn -0 -0.25880516 -0.9659295
vn -0 -0.25880516 -0.9659295
vn -0 -0.25880516 -0.9659295
vn -0 -0.25880516 -0.9659295
vn -0 0.25880513 -0.9659295
vn -0 0.25880513 -0.9659295
vn -0 0.25880513 -0.9659295
vn -0 0.25880513 -0.9659295
vn -0 0.7071139 -0.7070996
vn -0 0.7071139 -0.7070996
vn -0 0.7071139 -0.7070996
vn -0 0.7071139 -0.7070996
vn -0 0.965924 -0.25882593
vn -0 0.965924 -0.25882593
vn -0 0.965924 -0.25882593
vn -0 0.965924 -0.25882593
vn -0 0.9659276 0.25881216
vn -0 0.9659276 0.25881216
vn -0 0.9659276 0.25881216
vn -0 0.9659276 0.25881216
vn -1 0 0
vn -1 0 0
vn -1 0 0
vn -1 0 0
vn -1 0 0
vn -1 0 0
vn -1 0 0
vn -1 0 0
vn -1 0 0
vn -1 0 0
vn -1 0 0
vn -1 0 0
vn 1 0 0
vn 1 0 0
vn 1 0 0
vn 1 0 0
vn 1 0 0
vn 1 0 0
vn 1 0 0
vn 1 0 0
vn 1 0 0
vn 1 0 0
vn 1 0 0
vn 1 0 0
vn 1 0 0
g SM_Veh_Truck_Wheel_RL_0
f 3/3/3 2/2/2 1/1/1
f 4/4/4 3/3/3 1/1/1
f 7/7/7 6/6/6 5/5/5
f 8/8/8 7/7/7 5/5/5
f 11/11/11 10/10/10 9/9/9
f 12/12/12 11/11/11 9/9/9
f 15/15/15 14/14/14 13/13/13
f 16/16/16 15/15/15 13/13/13
f 19/19/19 18/18/18 17/17/17
f 20/20/20 19/19/19 17/17/17
f 23/23/23 22/22/22 21/21/21
f 24/24/24 23/23/23 21/21/21
f 27/27/27 26/26/26 25/25/25
f 28/28/28 27/27/27 25/25/25
f 31/31/31 30/30/30 29/29/29
f 32/32/32 31/31/31 29/29/29
f 35/35/35 34/34/34 33/33/33
f 36/36/36 35/35/35 33/33/33
f 39/39/39 38/38/38 37/37/37
f 40/40/40 39/39/39 37/37/37
f 43/43/43 42/42/42 41/41/41
f 44/44/44 43/43/43 41/41/41
f 47/47/47 46/46/46 45/45/45
f 48/48/48 47/47/47 45/45/45
f 51/51/51 50/50/50 49/49/49
f 51/51/51 52/52/52 50/50/50
f 51/51/51 53/53/53 52/52/52
f 51/51/51 54/54/54 53/53/53
f 51/51/51 55/55/55 54/54/54
f 51/51/51 56/56/56 55/55/55
f 51/51/51 57/57/57 56/56/56
f 51/51/51 58/58/58 57/57/57
f 51/51/51 59/59/59 58/58/58
f 51/51/51 60/60/60 59/59/59
f 63/63/63 62/62/62 61/61/61
f 61/61/61 62/62/62 64/64/64
f 65/65/65 62/62/62 63/63/63
f 64/64/64 62/62/62 66/66/66
f 67/67/67 62/62/62 65/65/65
f 66/66/66 62/62/62 68/68/68
f 69/69/69 62/62/62 67/67/67
f 68/68/68 62/62/62 70/70/70
f 71/71/71 62/62/62 69/69/69
f 70/70/70 62/62/62 72/72/72
f 73/73/73 62/62/62 71/71/71
f 72/72/72 62/62/62 73/73/73
