g SM_Wep_Pistol_Revolver_Bullet_03
v -0.0022817326 -0.003952067 0.027452042
v -0.0045634652 -2.30611E-09 0.027452042
v -0.0022817515 0.003952062 0.02745189
v 0.0022817135 0.003952062 0.02745189
v 0.0045634555 -2.30611E-09 0.02745189
v 0.0022817135 -0.003952076 0.02745189
v -0.003186302 -0.00551882 -0.027451979
v -0.0063725947 -2.30611E-09 -0.027451979
v -0.0031863211 0.0055188346 -0.027451979
v 0.0031862925 0.0055188346 -0.027451979
v 0.0063725947 -2.30611E-09 -0.027451979
v 0.0031862734 -0.005518839 -0.027451979
v -2.8610229E-08 -2.30611E-09 0.02745189
v -0.0031863211 0.0055188346 -0.025337111
v 0.0031862925 0.0055188346 -0.025337111
v 0.0063725947 -2.30611E-09 -0.025337111
v 0.0031862734 -0.005518839 -0.025337111
v -0.003186302 -0.00551882 -0.025337111
v -0.0063725947 -2.30611E-09 -0.025337111
v -0.0029856586 0.0051712776 -0.023253676
v 0.0029856395 0.0051712776 -0.023253676
v 0.0059712697 -2.30611E-09 -0.023253676
v 0.0029856204 -0.005171282 -0.023253676
v -0.0029856204 -0.005171263 -0.023253676
v -0.00597126 1.6767375E-08 -0.023253676
v -0.0026369668 0.0045673153 -0.023412978
v 0.0026369381 0.0045673344 -0.023412978
v 0.0026369381 0.0045673344 -0.025177963
v -0.0026369668 0.0045673153 -0.025178114
v 0.0052738856 -2.30611E-09 -0.023412978
v 0.0052738856 -2.30611E-09 -0.025177963
v 0.002636919 -0.0045673396 -0.023412978
v 0.002636919 -0.0045673396 -0.025178114
v -0.0026369381 -0.0045673107 -0.023412978
v -0.0026369381 -0.0045673107 -0.025177963
v -0.0052738762 1.6767375E-08 -0.023412978
v -0.0052738762 1.6767375E-08 -0.025177963
v -0.0029856586 0.0051712776 0.02211528
v 0.0029856395 0.0051712776 0.02211528
v 0.0059712697 -2.30611E-09 0.02211528
v 0.0029856204 -0.005171282 0.02211528
v -0.0029856204 -0.005171263 0.022115434
v -0.00597126 1.6767375E-08 0.022115434
v -0.001588831 -0.0027519534 -0.027451979
v -0.0031776903 1.6767375E-08 -0.027451979
v 9.536743E-09 1.6767375E-08 -0.027451979
v -0.0015888499 0.0027519774 -0.027451979
v 0.0015888499 0.0027519774 -0.027451979
v 0.0031777094 -2.30611E-09 -0.027451979
v 0.0015888499 -0.0027519534 -0.027451979
v -0.0063725947 -2.30611E-09 -0.025337111
v -0.0063725947 -2.30611E-09 -0.027451979
v -0.0031863211 0.0055188346 -0.025337111
v -0.0031863211 0.0055188346 -0.027451979
v 0.0031862925 0.0055188346 -0.025337111
v 0.0031862925 0.0055188346 -0.027451979
v 0.0063725947 -2.30611E-09 -0.025337111
v 0.0063725947 -2.30611E-09 -0.027451979
v 0.0031862734 -0.005518839 -0.025337111
v 0.0031862734 -0.005518839 -0.027451979
v -0.003186302 -0.00551882 -0.027451979
v -0.003186302 -0.00551882 -0.025337111
v 0.0026369381 0.0045673344 -0.023412978
v 0.0026369381 0.0045673344 -0.025177963
v 0.0052738856 -2.30611E-09 -0.023412978
v 0.0052738856 -2.30611E-09 -0.025177963
v 0.002636919 -0.0045673396 -0.023412978
v 0.002636919 -0.0045673396 -0.025178114
v -0.0026369381 -0.0045673107 -0.023412978
v -0.0026369381 -0.0045673107 -0.025177963
v -0.0052738762 1.6767375E-08 -0.023412978
v -0.0052738762 1.6767375E-08 -0.025177963
v -0.0026369668 0.0045673153 -0.025178114
v -0.0026369668 0.0045673153 -0.023412978
v 0.0029856395 0.0051712776 0.02211528
v 0.0029856395 0.0051712776 -0.023253676
v 0.0059712697 -2.30611E-09 0.02211528
v 0.0059712697 -2.30611E-09 -0.023253676
v 0.0029856204 -0.005171282 0.02211528
v 0.0029856204 -0.005171282 -0.023253676
v -0.0029856204 -0.005171263 0.022115434
v -0.0029856204 -0.005171263 -0.023253676
v -0.00597126 1.6767375E-08 0.022115434
v -0.00597126 1.6767375E-08 -0.023253676
v -0.0029856586 0.0051712776 -0.023253676
v -0.0029856586 0.0051712776 0.02211528
v -0.0029856586 0.0051712776 -0.023253676
v -0.0026369668 0.0045673153 -0.023412978
v 0.0026369381 0.0045673344 -0.023412978
v 0.0029856395 0.0051712776 -0.023253676
v 0.0031862925 0.0055188346 -0.025337111
v 0.0026369381 0.0045673344 -0.025177963
v -0.0026369668 0.0045673153 -0.025178114
v -0.0031863211 0.0055188346 -0.025337111
v 0.0029856395 0.0051712776 -0.023253676
v 0.0026369381 0.0045673344 -0.023412978
v 0.0052738856 -2.30611E-09 -0.023412978
v 0.0059712697 -2.30611E-09 -0.023253676
v 0.0063725947 -2.30611E-09 -0.025337111
v 0.0052738856 -2.30611E-09 -0.025177963
v 0.0026369381 0.0045673344 -0.025177963
v 0.0031862925 0.0055188346 -0.025337111
v 0.0059712697 -2.30611E-09 -0.023253676
v 0.0052738856 -2.30611E-09 -0.023412978
v 0.002636919 -0.0045673396 -0.023412978
v 0.0029856204 -0.005171282 -0.023253676
v 0.0031862734 -0.005518839 -0.025337111
v 0.002636919 -0.0045673396 -0.025178114
v 0.0052738856 -2.30611E-09 -0.025177963
v 0.0063725947 -2.30611E-09 -0.025337111
v 0.0029856204 -0.005171282 -0.023253676
v 0.002636919 -0.0045673396 -0.023412978
v -0.0026369381 -0.0045673107 -0.023412978
v -0.0029856204 -0.005171263 -0.023253676
v -0.003186302 -0.00551882 -0.025337111
v -0.0026369381 -0.0045673107 -0.025177963
v 0.002636919 -0.0045673396 -0.025178114
v 0.0031862734 -0.005518839 -0.025337111
v -0.0029856204 -0.005171263 -0.023253676
v -0.0026369381 -0.0045673107 -0.023412978
v -0.0052738762 1.6767375E-08 -0.023412978
v -0.00597126 1.6767375E-08 -0.023253676
v -0.0063725947 -2.30611E-09 -0.025337111
v -0.0052738762 1.6767375E-08 -0.025177963
v -0.0026369381 -0.0045673107 -0.025177963
v -0.003186302 -0.00551882 -0.025337111
v -0.00597126 1.6767375E-08 -0.023253676
v -0.0052738762 1.6767375E-08 -0.023412978
v -0.0026369668 0.0045673153 -0.023412978
v -0.0029856586 0.0051712776 -0.023253676
v -0.0031863211 0.0055188346 -0.025337111
v -0.0026369668 0.0045673153 -0.025178114
v -0.0052738762 1.6767375E-08 -0.025177963
v -0.0063725947 -2.30611E-09 -0.025337111
v -0.0022817515 0.003952062 0.02745189
v -0.0029856586 0.0051712776 0.02211528
v 0.0029856395 0.0051712776 0.02211528
v 0.0022817135 0.003952062 0.02745189
v 0.0022817135 0.003952062 0.02745189
v 0.0029856395 0.0051712776 0.02211528
v 0.0059712697 -2.30611E-09 0.02211528
v 0.0045634555 -2.30611E-09 0.02745189
v 0.0045634555 -2.30611E-09 0.02745189
v 0.0059712697 -2.30611E-09 0.02211528
v 0.0029856204 -0.005171282 0.02211528
v 0.0022817135 -0.003952076 0.02745189
v 0.0022817135 -0.003952076 0.02745189
v 0.0029856204 -0.005171282 0.02211528
v -0.0029856204 -0.005171263 0.022115434
v -0.0022817326 -0.003952067 0.027452042
v -0.0022817326 -0.003952067 0.027452042
v -0.0029856204 -0.005171263 0.022115434
v -0.00597126 1.6767375E-08 0.022115434
v -0.0045634652 -2.30611E-09 0.027452042
v -0.0045634652 -2.30611E-09 0.027452042
v -0.00597126 1.6767375E-08 0.022115434
v -0.0029856586 0.0051712776 0.02211528
v -0.0022817515 0.003952062 0.02745189
v -0.003186302 -0.00551882 -0.027451979
v -0.001588831 -0.0027519534 -0.027451979
v -0.0031776903 1.6767375E-08 -0.027451979
v -0.0063725947 -2.30611E-09 -0.027451979
v -0.0015888499 0.0027519774 -0.027451979
v -0.0031863211 0.0055188346 -0.027451979
v 0.0015888499 0.0027519774 -0.027451979
v 0.0031862925 0.0055188346 -0.027451979
v 0.0031777094 -2.30611E-09 -0.027451979
v 0.0063725947 -2.30611E-09 -0.027451979
v 0.0015888499 -0.0027519534 -0.027451979
v 0.0031862734 -0.005518839 -0.027451979
vt 0.09295103 0.3208124
vt 0.09295103 0.3208124
vt 0.09295103 0.3208124
vt 0.09295103 0.3208124
vt 0.09295103 0.3208124
vt 0.09295103 0.3208124
vt 0.09452562 0.34544978
vt 0.09452562 0.34544978
vt 0.09452562 0.34544978
vt 0.09452562 0.34544978
vt 0.09452562 0.34544978
vt 0.09452562 0.34544978
vt 0.09295103 0.3208124
vt 0.09452562 0.34544978
vt 0.09452562 0.34544978
vt 0.09452562 0.34544978
vt 0.09452562 0.34544978
vt 0.09452562 0.34544978
vt 0.09452562 0.34544978
vt 0.09452562 0.34544978
vt 0.09452562 0.34544978
vt 0.09452562 0.34544978
vt 0.09452562 0.34544978
vt 0.09452562 0.34544978
vt 0.09452562 0.34544978
vt 0.09452562 0.34544978
vt 0.09452562 0.34544978
vt 0.09452562 0.34544978
vt 0.09452562 0.34544978
vt 0.09452562 0.34544978
vt 0.09452562 0.34544978
vt 0.09452562 0.34544978
vt 0.09452562 0.34544978
vt 0.09452562 0.34544978
vt 0.09452562 0.34544978
vt 0.09452562 0.34544978
vt 0.09452562 0.34544978
vt 0.09452562 0.34544978
vt 0.09452562 0.34544978
vt 0.09452562 0.34544978
vt 0.09452562 0.34544978
vt 0.09452562 0.34544978
vt 0.09452562 0.34544978
vt 0.059369814 0.3218605
vt 0.059369814 0.3218605
vt 0.059369814 0.3218605
vt 0.059369814 0.3218605
vt 0.059369814 0.3218605
vt 0.059369814 0.3218605
vt 0.059369814 0.3218605
vt 0.09452562 0.34544978
vt 0.09452562 0.34544978
vt 0.09452562 0.34544978
vt 0.09452562 0.34544978
vt 0.09452562 0.34544978
vt 0.09452562 0.34544978
vt 0.09452562 0.34544978
vt 0.09452562 0.34544978
vt 0.09452562 0.34544978
vt 0.09452562 0.34544978
vt 0.09452562 0.34544978
vt 0.09452562 0.34544978
vt 0.09452562 0.34544978
vt 0.09452562 0.34544978
vt 0.09452562 0.34544978
vt 0.09452562 0.34544978
vt 0.09452562 0.34544978
vt 0.09452562 0.34544978
vt 0.09452562 0.34544978
vt 0.09452562 0.34544978
vt 0.09452562 0.34544978
vt 0.09452562 0.34544978
vt 0.09452562 0.34544978
vt 0.09452562 0.34544978
vt 0.09452562 0.34544978
vt 0.09452562 0.34544978
vt 0.09452562 0.34544978
vt 0.09452562 0.34544978
vt 0.09452562 0.34544978
vt 0.09452562 0.34544978
vt 0.09452562 0.34544978
vt 0.09452562 0.34544978
vt 0.09452562 0.34544978
vt 0.09452562 0.34544978
vt 0.09452562 0.34544978
vt 0.09452562 0.34544978
vt 0.09452562 0.34544978
vt 0.09452562 0.34544978
vt 0.09452562 0.34544978
vt 0.09452562 0.34544978
vt 0.09452562 0.34544978
vt 0.09452562 0.34544978
vt 0.09452562 0.34544978
vt 0.09452562 0.34544978
vt 0.09452562 0.34544978
vt 0.09452562 0.34544978
vt 0.09452562 0.34544978
vt 0.09452562 0.34544978
vt 0.09452562 0.34544978
vt 0.09452562 0.34544978
vt 0.09452562 0.34544978
vt 0.09452562 0.34544978
vt 0.09452562 0.34544978
vt 0.09452562 0.34544978
vt 0.09452562 0.34544978
vt 0.09452562 0.34544978
vt 0.09452562 0.34544978
vt 0.09452562 0.34544978
vt 0.09452562 0.34544978
vt 0.09452562 0.34544978
vt 0.09452562 0.34544978
vt 0.09452562 0.34544978
vt 0.09452562 0.34544978
vt 0.09452562 0.34544978
vt 0.09452562 0.34544978
vt 0.09452562 0.34544978
vt 0.09452562 0.34544978
vt 0.09452562 0.34544978
vt 0.09452562 0.34544978
vt 0.09452562 0.34544978
vt 0.09452562 0.34544978
vt 0.09452562 0.34544978
vt 0.09452562 0.34544978
vt 0.09452562 0.34544978
vt 0.09452562 0.34544978
vt 0.09452562 0.34544978
vt 0.09452562 0.34544978
vt 0.09452562 0.34544978
vt 0.09452562 0.34544978
vt 0.09452562 0.34544978
vt 0.09452562 0.34544978
vt 0.09452562 0.34544978
vt 0.09452562 0.34544978
vt 0.09452562 0.34544978
vt 0.09295103 0.3208124
vt 0.09295103 0.3208124
vt 0.09295103 0.3208124
vt 0.09295103 0.3208124
vt 0.09295103 0.3208124
vt 0.09295103 0.3208124
vt 0.09295103 0.3208124
vt 0.09295103 0.3208124
vt 0.09295103 0.3208124
vt 0.09295103 0.3208124
vt 0.09295103 0.3208124
vt 0.09295103 0.3208124
vt 0.09295103 0.3208124
vt 0.09295103 0.3208124
vt 0.09295103 0.3208124
vt 0.09295103 0.3208124
vt 0.09295103 0.3208124
vt 0.09295103 0.3208124
vt 0.09295103 0.3208124
vt 0.09295103 0.3208124
vt 0.09295103 0.3208124
vt 0.09295103 0.3208124
vt 0.09295103 0.3208124
vt 0.09295103 0.3208124
vt 0.09452562 0.34544978
vt 0.09452562 0.34544978
vt 0.09452562 0.34544978
vt 0.09452562 0.34544978
vt 0.09452562 0.34544978
vt 0.09452562 0.34544978
vt 0.09452562 0.34544978
vt 0.09452562 0.34544978
vt 0.09452562 0.34544978
vt 0.09452562 0.34544978
vt 0.09452562 0.34544978
vt 0.09452562 0.34544978
vn -0 0 1
vn -0 0 1
vn -0 0 1
vn -0 0 1
vn -0 0 1
vn -0 0 1
vn -0.86602527 -0.50000024 0
vn -0.86602527 -0.50000024 0
vn -0.8660273 0.49999663 0
vn -0 1 0
vn 0.86602545 0.50000006 0
vn 0.8660241 -0.5000022 0
vn -0 0 1
vn -0.8660273 0.49999663 0
vn -0 1 0
vn 0.86602545 0.50000006 0
vn 0.8660241 -0.5000022 0
vn -0.86602527 -0.50000024 0
vn -0.86602527 -0.50000024 0
vn -0 1 0
vn -0 1 0
vn 0.86602616 0.49999878 0
vn 0.86602473 -0.50000113 0
vn -0 -1 0
vn -0.86602545 -0.49999997 0
vn -0 1 0
vn -0 1 0
vn -0 1 0
vn -0 1 0
vn 0.86602587 0.49999917 0
vn 0.86602587 0.49999917 0
vn 0.86602426 -0.5000019 0
vn 0.86602426 -0.5000019 0
vn -0 -1 0
vn -0 -1 0
vn -0.8660262 -0.4999986 0
vn -0.8660262 -0.4999986 0
vn -0 1 0
vn -0 1 0
vn 0.86602616 0.49999878 0
vn 0.86602473 -0.50000113 0
vn -0 -1 0
vn -0.86602545 -0.49999997 0
vn -0 0 -1
vn -0 0 -1
vn -0 0 -1
vn -0 0 -1
vn -0 0 -1
vn -0 0 -1
vn -0 0 -1
vn -0.8660273 0.49999663 0
vn -0.8660273 0.49999663 0
vn -0 1 0
vn -0 1 0
vn 0.86602545 0.50000006 0
vn 0.86602545 0.50000006 0
vn 0.8660241 -0.5000022 0
vn 0.8660241 -0.5000022 0
vn -0 -1 0
vn -0 -1 0
vn -0 -1 0
vn -0 -1 0
vn 0.86602587 0.49999917 0
vn 0.86602587 0.49999917 0
vn 0.86602426 -0.5000019 0
vn 0.86602426 -0.5000019 0
vn -0 -1 0
vn -0 -1 0
vn -0.8660262 -0.4999986 0
vn -0.8660262 -0.4999986 0
vn -0.86602724 0.49999696 0
vn -0.86602724 0.49999696 0
vn -0.86602724 0.49999696 0
vn -0.86602724 0.49999696 0
vn 0.86602616 0.49999878 0
vn 0.86602616 0.49999878 0
vn 0.86602473 -0.50000113 0
vn 0.86602473 -0.50000113 0
vn -0 -1 0
vn -0 -1 0
vn -0.86602545 -0.49999997 0
vn -0.86602545 -0.49999997 0
vn -0.8660274 0.4999966 0
vn -0.8660274 0.4999966 0
vn -0.8660274 0.4999966 0
vn -0.8660274 0.4999966 0
vn -0 0.25504264 -0.9669298
vn -0 0.25504264 -0.9669298
vn -0 0.25504264 -0.9669298
vn -0 0.25504264 -0.9669298
vn -0 0.16489111 0.98631173
vn -0 0.16489111 0.98631173
vn -0 0.16489111 0.98631173
vn -0 0.16489111 0.98631173
vn 0.22087304 0.12752077 -0.96693
vn 0.22087304 0.12752077 -0.96693
vn 0.22087304 0.12752077 -0.96693
vn 0.22087304 0.12752077 -0.96693
vn 0.14286683 0.08248413 0.98629886
vn 0.14286683 0.08248413 0.98629886
vn 0.14286683 0.08248413 0.98629886
vn 0.14286683 0.08248413 0.98629886
vn 0.22087261 -0.1275214 -0.96693
vn 0.22087261 -0.1275214 -0.96693
vn 0.22087261 -0.1275214 -0.96693
vn 0.22087261 -0.1275214 -0.96693
vn 0.1427935 -0.08245725 0.98631173
vn 0.1427935 -0.08245725 0.98631173
vn 0.1427935 -0.08245725 0.98631173
vn 0.1427935 -0.08245725 0.98631173
vn -0 -0.25504458 -0.9669293
vn -0 -0.25504458 -0.9669293
vn -0 -0.25504458 -0.9669293
vn -0 -0.25504458 -0.9669293
vn -0 -0.16489188 0.9863116
vn -0 -0.16489188 0.9863116
vn -0 -0.16489188 0.9863116
vn -0 -0.16489188 0.9863116
vn -0.22087498 -0.12752199 -0.9669293
vn -0.22087498 -0.12752199 -0.9669293
vn -0.22087498 -0.12752199 -0.9669293
vn -0.22087498 -0.12752199 -0.9669293
vn -0.1428646 -0.08248281 0.98629934
vn -0.1428646 -0.08248281 0.98629934
vn -0.1428646 -0.08248281 0.98629934
vn -0.1428646 -0.08248281 0.98629934
vn -0.22087312 0.12752005 -0.96693
vn -0.22087312 0.12752005 -0.96693
vn -0.22087312 0.12752005 -0.96693
vn -0.22087312 0.12752005 -0.96693
vn -0.14279343 0.08245603 0.98631185
vn -0.14279343 0.08245603 0.98631185
vn -0.14279343 0.08245603 0.98631185
vn -0.14279343 0.08245603 0.98631185
vn -0 0.97488153 0.22272393
vn -0 0.97488153 0.22272393
vn -0 0.97488153 0.22272393
vn -0 0.97488153 0.22272393
vn 0.844272 0.48744133 0.22272374
vn 0.844272 0.48744133 0.22272374
vn 0.844272 0.48744133 0.22272374
vn 0.844272 0.48744133 0.22272374
vn 0.84427184 -0.48744243 0.22272187
vn 0.84427184 -0.48744243 0.22272187
vn 0.84427184 -0.48744243 0.22272187
vn 0.84427184 -0.48744243 0.22272187
vn -0 -0.9748821 0.22272144
vn -0 -0.9748821 0.22272144
vn -0 -0.9748821 0.22272144
vn -0 -0.9748821 0.22272144
vn -0.8442732 -0.48744202 0.22271778
vn -0.8442732 -0.48744202 0.22271778
vn -0.8442732 -0.48744202 0.22271778
vn -0.8442732 -0.48744202 0.22271778
vn -0.84427106 0.4874439 0.22272173
vn -0.84427106 0.4874439 0.22272173
vn -0.84427106 0.4874439 0.22272173
vn -0.84427106 0.4874439 0.22272173
vn -0 0 -1
vn -0 0 -1
vn -0 0 -1
vn -0 0 -1
vn -0 0 -1
vn -0 0 -1
vn -0 0 -1
vn -0 0 -1
vn -0 0 -1
vn -0 0 -1
vn -0 0 -1
vn -0 0 -1
g SM_Wep_Pistol_Revolver_Bullet_03_0
f 8/8/8 7/7/7 18/18/18
f 19/19/19 8/8/8 18/18/18
f 9/9/9 52/52/52 51/51/51
f 14/14/14 9/9/9 51/51/51
f 10/10/10 54/54/54 53/53/53
f 15/15/15 10/10/10 53/53/53
f 11/11/11 56/56/56 55/55/55
f 16/16/16 11/11/11 55/55/55
f 12/12/12 58/58/58 57/57/57
f 17/17/17 12/12/12 57/57/57
f 61/61/61 60/60/60 59/59/59
f 62/62/62 61/61/61 59/59/59
f 28/28/28 29/29/29 26/26/26
f 27/27/27 28/28/28 26/26/26
f 31/31/31 64/64/64 63/63/63
f 30/30/30 31/31/31 63/63/63
f 33/33/33 66/66/66 65/65/65
f 32/32/32 33/33/33 65/65/65
f 35/35/35 68/68/68 67/67/67
f 34/34/34 35/35/35 67/67/67
f 37/37/37 70/70/70 69/69/69
f 36/36/36 37/37/37 69/69/69
f 73/73/73 72/72/72 71/71/71
f 74/74/74 73/73/73 71/71/71
f 21/21/21 20/20/20 38/38/38
f 39/39/39 21/21/21 38/38/38
f 22/22/22 76/76/76 75/75/75
f 40/40/40 22/22/22 75/75/75
f 23/23/23 78/78/78 77/77/77
f 41/41/41 23/23/23 77/77/77
f 24/24/24 80/80/80 79/79/79
f 42/42/42 24/24/24 79/79/79
f 25/25/25 82/82/82 81/81/81
f 43/43/43 25/25/25 81/81/81
f 85/85/85 84/84/84 83/83/83
f 86/86/86 85/85/85 83/83/83
f 89/89/89 88/88/88 87/87/87
f 90/90/90 89/89/89 87/87/87
f 93/93/93 92/92/92 91/91/91
f 94/94/94 93/93/93 91/91/91
f 97/97/97 96/96/96 95/95/95
f 98/98/98 97/97/97 95/95/95
f 101/101/101 100/100/100 99/99/99
f 102/102/102 101/101/101 99/99/99
f 105/105/105 104/104/104 103/103/103
f 106/106/106 105/105/105 103/103/103
f 109/109/109 108/108/108 107/107/107
f 110/110/110 109/109/109 107/107/107
f 113/113/113 112/112/112 111/111/111
f 114/114/114 113/113/113 111/111/111
f 117/117/117 116/116/116 115/115/115
f 118/118/118 117/117/117 115/115/115
f 121/121/121 120/120/120 119/119/119
f 122/122/122 121/121/121 119/119/119
f 125/125/125 124/124/124 123/123/123
f 126/126/126 125/125/125 123/123/123
f 129/129/129 128/128/128 127/127/127
f 130/130/130 129/129/129 127/127/127
f 133/133/133 132/132/132 131/131/131
f 134/134/134 133/133/133 131/131/131
f 137/137/137 136/136/136 135/135/135
f 138/138/138 137/137/137 135/135/135
f 141/141/141 140/140/140 139/139/139
f 142/142/142 141/141/141 139/139/139
f 145/145/145 144/144/144 143/143/143
f 146/146/146 145/145/145 143/143/143
f 149/149/149 148/148/148 147/147/147
f 150/150/150 149/149/149 147/147/147
f 153/153/153 152/152/152 151/151/151
f 154/154/154 153/153/153 151/151/151
f 157/157/157 156/156/156 155/155/155
f 158/158/158 157/157/157 155/155/155
f 1/1/1 13/13/13 2/2/2
f 2/2/2 13/13/13 3/3/3
f 6/6/6 13/13/13 1/1/1
f 3/3/3 13/13/13 4/4/4
f 5/5/5 13/13/13 6/6/6
f 4/4/4 13/13/13 5/5/5
f 45/45/45 46/46/46 44/44/44
f 44/44/44 46/46/46 50/50/50
f 47/47/47 46/46/46 45/45/45
f 50/50/50 46/46/46 49/49/49
f 48/48/48 46/46/46 47/47/47
f 49/49/49 46/46/46 48/48/48
f 161/161/161 160/160/160 159/159/159
f 162/162/162 161/161/161 159/159/159
f 159/159/159 160/160/160 170/170/170
f 163/163/163 161/161/161 162/162/162
f 160/160/160 169/169/169 170/170/170
f 164/164/164 163/163/163 162/162/162
f 170/170/170 169/169/169 168/168/168
f 165/165/165 163/163/163 164/164/164
f 169/169/169 167/167/167 168/168/168
f 166/166/166 165/165/165 164/164/164
f 168/168/168 167/167/167 166/166/166
f 167/167/167 165/165/165 166/166/166
