g SM_Wep_Pistol_Heavy_Mag_01
v -0.01376566 -0.07385388 -0.027603546
v -0.01376566 -0.07318997 0.023637602
v -0.01376566 -0.068549804 -0.027579285
v -0.01376566 -0.0678859 0.023661863
v 0.013765655 -0.068549804 -0.027579285
v 0.01376566 -0.0678859 0.023661863
v 0.013765655 -0.07385388 -0.027603546
v 0.01376566 -0.07318997 0.023637602
v 0.008955606 -0.07320885 0.031524334
v -0.008955606 -0.07320885 0.031524334
v 0.008955606 -0.06790482 0.031548597
v -0.008955606 -0.06790482 0.031548597
v -0.009177109 -0.068558045 -0.030274827
v -0.009177108 -0.06787766 0.019186996
v 0.009177109 -0.06787766 0.019186996
v 0.009177109 -0.068558045 -0.030274827
v -0.009177108 0.07168357 -0.012972198
v -0.0091771055 0.065091014 0.0350939
v 0.009177109 0.065091014 0.0350939
v 0.009177107 0.07168357 -0.012972198
v -0.0068727797 0.07099208 -0.00901178
v -0.004413112 0.06578254 0.031133482
v 0.004413116 0.06578254 0.031133482
v 0.0068727816 0.07099208 -0.009011704
v -0.0044492004 0.07385385 -0.008512055
v -0.002856892 0.06864433 0.03163313
v 0.0028568937 0.06864433 0.03163313
v 0.004449198 0.07385385 -0.008512055
v -0.0068727764 0.066824146 0.02516783
v -0.004449198 0.069654614 0.025846846
v 0.0044491976 0.069662504 0.025801603
v 0.0068727797 0.06683639 0.025097791
v 0.0056103906 -0.07385388 -0.03509401
v -0.00561039 -0.07385388 -0.03509401
v -0.00561039 -0.068549804 -0.03506975
v 0.0056103906 -0.068549804 -0.03506975
v 0.013765655 -0.07385388 -0.027603546
v -0.01376566 -0.07385388 -0.027603546
v -0.01376566 -0.07318997 0.023637602
v 0.01376566 -0.07318997 0.023637602
v -0.008955606 -0.07320885 0.031524334
v 0.008955606 -0.07320885 0.031524334
v 0.01376566 -0.07318997 0.023637602
v 0.008955606 -0.07320885 0.031524334
v 0.008955606 -0.06790482 0.031548597
v 0.01376566 -0.0678859 0.023661863
v 0.01376566 -0.0678859 0.023661863
v 0.008955606 -0.06790482 0.031548597
v -0.008955606 -0.06790482 0.031548597
v -0.01376566 -0.0678859 0.023661863
v -0.01376566 -0.0678859 0.023661863
v -0.008955606 -0.06790482 0.031548597
v -0.008955606 -0.07320885 0.031524334
v -0.01376566 -0.07318997 0.023637602
v -0.01376566 -0.068549804 -0.027579285
v 0.01376566 -0.0678859 0.023661863
v 0.009177109 -0.06787766 0.019186996
v 0.013765655 -0.068549804 -0.027579285
v 0.013765655 -0.068549804 -0.027579285
v 0.009177109 -0.068558045 -0.030274827
v -0.009177109 -0.068558045 -0.030274827
v -0.01376566 -0.068549804 -0.027579285
v -0.009177109 -0.068558045 -0.030274827
v -0.009177108 -0.06787766 0.019186996
v -0.009177108 -0.06787766 0.019186996
v -0.0091771055 0.065091014 0.0350939
v 0.009177109 -0.06787766 0.019186996
v 0.009177109 -0.06787766 0.019186996
v 0.009177109 0.065091014 0.0350939
v 0.009177109 -0.068558045 -0.030274827
v 0.009177109 -0.068558045 -0.030274827
v 0.009177107 0.07168357 -0.012972198
v -0.009177108 0.07168357 -0.012972198
v -0.009177109 -0.068558045 -0.030274827
v -0.0091771055 0.065091014 0.0350939
v 0.009177109 0.065091014 0.0350939
v 0.009177107 0.07168357 -0.012972198
v 0.009177107 0.07168357 -0.012972198
v 0.0068727816 0.07099208 -0.009011704
v -0.009177108 0.07168357 -0.012972198
v -0.0068727797 0.07099208 -0.00901178
v -0.0044492004 0.07385385 -0.008512055
v -0.004449198 0.069654614 0.025846846
v -0.0068727764 0.066824146 0.02516783
v -0.004413112 0.06578254 0.031133482
v 0.004413116 0.06578254 0.031133482
v 0.0044491976 0.069662504 0.025801603
v 0.004449198 0.07385385 -0.008512055
v 0.0068727816 0.07099208 -0.009011704
v 0.0068727797 0.06683639 0.025097791
v 0.0068727816 0.07099208 -0.009011704
v 0.004449198 0.07385385 -0.008512055
v -0.0044492004 0.07385385 -0.008512055
v -0.0068727797 0.07099208 -0.00901178
v -0.004449198 0.069654614 0.025846846
v -0.002856892 0.06864433 0.03163313
v -0.004413112 0.06578254 0.031133482
v -0.0068727764 0.066824146 0.02516783
v 0.0044491976 0.069662504 0.025801603
v 0.0028568937 0.06864433 0.03163313
v -0.002856892 0.06864433 0.03163313
v -0.004449198 0.069654614 0.025846846
v 0.004413116 0.06578254 0.031133482
v 0.0028568937 0.06864433 0.03163313
v 0.0044491976 0.069662504 0.025801603
v 0.0068727797 0.06683639 0.025097791
v -0.0068727764 0.066824146 0.02516783
v -0.0091771055 0.065091014 0.0350939
v 0.0056103906 -0.07385388 -0.03509401
v -0.00561039 -0.07385388 -0.03509401
v -0.01376566 -0.07385388 -0.027603546
v -0.00561039 -0.07385388 -0.03509401
v -0.00561039 -0.068549804 -0.03506975
v -0.01376566 -0.068549804 -0.027579285
v -0.01376566 -0.068549804 -0.027579285
v -0.00561039 -0.068549804 -0.03506975
v 0.0056103906 -0.068549804 -0.03506975
v 0.013765655 -0.068549804 -0.027579285
v 0.013765655 -0.068549804 -0.027579285
v 0.0056103906 -0.068549804 -0.03506975
v 0.0056103906 -0.07385388 -0.03509401
v 0.013765655 -0.07385388 -0.027603546
vt 0.8411156 0.23104602
vt 0.7119272 0.23274732
vt 0.84105456 0.24463761
vt 0.71186596 0.24633884
vt 0.84105456 0.24463761
vt 0.71186596 0.24633884
vt 0.8411156 0.23104602
vt 0.7119272 0.23274732
vt 0.692043 0.23269892
vt 0.692043 0.23269892
vt 0.6919818 0.24629033
vt 0.6919818 0.24629033
vt 0.84785044 0.24461651
vt 0.7231479 0.24635994
vt 0.7231479 0.24635994
vt 0.84785044 0.24461651
vt 0.80422735 0.6039822
vt 0.6830437 0.58708894
vt 0.6830437 0.58708894
vt 0.80422735 0.6039822
vt 0.7942424 0.6022103
vt 0.69302857 0.58886087
vt 0.69302857 0.58886087
vt 0.79424214 0.6022103
vt 0.092214435 0.3454361
vt 0.09362197 0.32291508
vt 0.09362197 0.32291508
vt 0.092214406 0.3454361
vt 0.7080692 0.5915301
vt 0.092214435 0.3454361
vt 0.092214406 0.3454361
vt 0.70824575 0.5915613
vt 0.8600005 0.23104602
vt 0.8600005 0.23104602
vt 0.8599394 0.24463761
vt 0.8599394 0.24463761
vt 0.8411156 0.23104602
vt 0.8411156 0.23104602
vt 0.7119272 0.23274732
vt 0.7119272 0.23274732
vt 0.692043 0.23269892
vt 0.692043 0.23269892
vt 0.7119272 0.23274732
vt 0.692043 0.23269892
vt 0.6919818 0.24629033
vt 0.71186596 0.24633884
vt 0.71186596 0.24633884
vt 0.6919818 0.24629033
vt 0.6919818 0.24629033
vt 0.71186596 0.24633884
vt 0.71186596 0.24633884
vt 0.6919818 0.24629033
vt 0.692043 0.23269892
vt 0.7119272 0.23274732
vt 0.84105456 0.24463761
vt 0.71186596 0.24633884
vt 0.7231479 0.24635994
vt 0.84105456 0.24463761
vt 0.84105456 0.24463761
vt 0.84785044 0.24461651
vt 0.84785044 0.24461651
vt 0.84105456 0.24463761
vt 0.84785044 0.24461651
vt 0.7231479 0.24635994
vt 0.7231479 0.24635994
vt 0.6830437 0.58708894
vt 0.7231479 0.24635994
vt 0.7231479 0.24635994
vt 0.6830437 0.58708894
vt 0.84785044 0.24461651
vt 0.84785044 0.24461651
vt 0.80422735 0.6039822
vt 0.80422735 0.6039822
vt 0.84785044 0.24461651
vt 0.6830437 0.58708894
vt 0.6830437 0.58708894
vt 0.80422735 0.6039822
vt 0.80422735 0.6039822
vt 0.79424214 0.6022103
vt 0.80422735 0.6039822
vt 0.092214465 0.3454361
vt 0.092214435 0.3454361
vt 0.092214435 0.3454361
vt 0.092214406 0.3454361
vt 0.09362197 0.32291508
vt 0.09362197 0.32291508
vt 0.092214406 0.3454361
vt 0.092214406 0.3454361
vt 0.092214346 0.3454361
vt 0.092214465 0.3454361
vt 0.092214346 0.3454361
vt 0.092214406 0.3454361
vt 0.092214435 0.3454361
vt 0.092214465 0.3454361
vt 0.09362197 0.32291508
vt 0.09362197 0.32291508
vt 0.09362197 0.32291508
vt 0.09362194 0.32291508
vt 0.09362197 0.32291508
vt 0.09362197 0.32291508
vt 0.09362197 0.32291508
vt 0.09362197 0.32291508
vt 0.09362197 0.32291508
vt 0.09362197 0.32291508
vt 0.09362197 0.32291508
vt 0.09362197 0.32291508
vt 0.7080692 0.5915301
vt 0.6830437 0.58708894
vt 0.8600005 0.23104602
vt 0.8600005 0.23104602
vt 0.8411156 0.23104602
vt 0.8600005 0.23104602
vt 0.8599394 0.24463761
vt 0.84105456 0.24463761
vt 0.84105456 0.24463761
vt 0.8599394 0.24463761
vt 0.8599394 0.24463761
vt 0.84105456 0.24463761
vt 0.84105456 0.24463761
vt 0.8599394 0.24463761
vt 0.8600005 0.23104602
vt 0.8411156 0.23104602
vn -1 0 0
vn -1 0 0
vn -1 0 0
vn -1 0 0
vn 1 0 0
vn 1 0 0
vn 1 0 0
vn 1 0 0
vn -0 -0.0045741093 0.9999895
vn -0 -0.0045741093 0.9999895
vn -0 -0.0045741093 0.9999895
vn -0 -0.0045741093 0.9999895
vn -0.010428694 0.9998566 -0.013347238
vn -0.005214567 0.99996984 -0.0057531944
vn 0.0052145706 0.99996984 -0.0057531944
vn 0.0104287 0.9998566 -0.013347237
vn -1 0 0
vn -1 0 0
vn -0 -0.11878204 0.99292034
vn 1 0 0
vn -0.028064594 0.9881576 0.150854
vn -0 0.9850963 0.17200394
vn -0 0.98509616 0.17200492
vn 0.028420419 0.98815036 0.15083475
vn -0.0001321019 0.99261826 0.12128051
vn -0 -0.17199174 0.98509836
vn -0 -0.17199174 0.98509836
vn -0.0001321019 0.99261826 0.12128051
vn -0.028064596 0.98815733 0.1508559
vn -6.6072666E-05 0.989183 0.14668728
vn -6.6072666E-05 0.989183 0.14668728
vn 0.028420417 0.9881499 0.15083763
vn -0 0.004574077 -0.9999895
vn -0 0.004574077 -0.9999895
vn -0 0.004574077 -0.9999895
vn -0 0.004574077 -0.9999895
vn -0 -0.999979 0.0064778803
vn -0 -0.999979 0.0064778803
vn -0 -0.99998605 0.005280783
vn -0 -0.99998605 0.005280783
vn -0 -0.99999714 -0.002394236
vn -0 -0.99999714 -0.002394236
vn 0.8537448 -0.0023817108 0.5206862
vn 0.8537448 -0.0023817108 0.5206862
vn 0.8537448 -0.0023817108 0.5206862
vn 0.8537448 -0.0023817108 0.5206862
vn 0.003476368 0.9999894 -0.0030357274
vn -0 0.99999714 0.0023990725
vn -0 0.99999714 0.0023990725
vn -0.0034763657 0.9999894 -0.003035728
vn -0.8537448 -0.0023816808 0.52068627
vn -0.8537448 -0.0023816808 0.52068627
vn -0.8537448 -0.0023816808 0.52068627
vn -0.8537448 -0.0023816808 0.52068627
vn -0.005214533 0.9999641 -0.0066738585
vn 0.003476368 0.9999894 -0.0030357274
vn 0.0052145706 0.99996984 -0.0057531944
vn 0.0052145366 0.9999641 -0.006673858
vn -0 -0.99999535 0.0030567914
vn -0 -0.99999535 0.0030567914
vn -0 -0.99999535 0.0030567914
vn -0 -0.99999535 0.0030567914
vn -1 0 0
vn -1 0 0
vn -0 -0.11878204 0.99292034
vn -0 -0.11878204 0.99292034
vn -0 -0.11878204 0.99292034
vn 1 0 0
vn 1 0 0
vn 1 0 0
vn -0 0.12244884 -0.99247485
vn -0 0.12244884 -0.99247485
vn -0 0.12244884 -0.99247485
vn -0 0.12244884 -0.99247485
vn -0.018708438 0.9872729 0.15793116
vn 0.018945616 0.98727024 0.15791944
vn 0.028420419 0.98815036 0.15083475
vn 0.028420419 0.98815036 0.15083475
vn 0.028420419 0.98815036 0.15083475
vn -0.028064594 0.9881576 0.150854
vn -0.7669467 0.6369818 0.07776275
vn -0.7669467 0.6369818 0.07776275
vn -0.7669467 0.6369818 0.07776275
vn -0.7669467 0.6369818 0.07776275
vn -0 -0.17199174 0.98509836
vn -0 -0.17199174 0.98509836
vn 0.7668717 0.6370774 0.07771798
vn 0.7668717 0.6370774 0.07771798
vn 0.7668717 0.6370774 0.07771798
vn 0.7668717 0.6370774 0.07771798
vn -0 0.17200556 -0.98509604
vn -0 0.17200556 -0.98509604
vn -0 0.17200556 -0.98509604
vn -0 0.17200556 -0.98509604
vn -0.79806477 0.4835173 0.35958815
vn -0.79806477 0.4835173 0.35958815
vn -0.79806477 0.4835173 0.35958815
vn -0.79806477 0.4835173 0.35958815
vn -6.6072666E-05 0.989183 0.14668728
vn -0 0.9850973 0.17199758
vn -0 0.9850973 0.17199758
vn -6.6072666E-05 0.989183 0.14668728
vn 0.7990961 0.48353222 0.3572703
vn 0.7990961 0.48353222 0.3572703
vn 0.7990961 0.48353222 0.3572703
vn 0.7990961 0.48353222 0.3572703
vn -0.028064596 0.98815733 0.1508559
vn -0.018708438 0.9872729 0.15793116
vn -0 -1 0
vn -0 -1 0
vn -0.6764467 0.0033687982 -0.7364839
vn -0.6764467 0.0033687982 -0.7364839
vn -0.6764467 0.0033687982 -0.7364839
vn -0.6764467 0.0033687982 -0.7364839
vn -0.005214533 0.9999641 -0.0066738585
vn -0 1 0
vn -0 1 0
vn 0.0052145366 0.9999641 -0.006673858
vn 0.6764469 0.0033687998 -0.7364837
vn 0.6764469 0.0033687998 -0.7364837
vn 0.6764469 0.0033687998 -0.7364837
vn 0.6764469 0.0033687998 -0.7364837
g SM_Wep_Pistol_Heavy_Mag_01_0
f 4/4/4 3/3/3 1/1/1
f 2/2/2 4/4/4 1/1/1
f 31/31/31 28/28/28 25/25/25
f 30/30/30 31/31/31 25/25/25
f 8/8/8 7/7/7 5/5/5
f 6/6/6 8/8/8 5/5/5
f 11/11/11 12/12/12 10/10/10
f 9/9/9 11/11/11 10/10/10
f 35/35/35 36/36/36 33/33/33
f 34/34/34 35/35/35 33/33/33
f 42/42/42 41/41/41 39/39/39
f 40/40/40 42/42/42 39/39/39
f 40/40/40 39/39/39 37/37/37
f 39/39/39 38/38/38 37/37/37
f 38/38/38 110/110/110 37/37/37
f 110/110/110 109/109/109 37/37/37
f 45/45/45 44/44/44 43/43/43
f 46/46/46 45/45/45 43/43/43
f 49/49/49 48/48/48 47/47/47
f 50/50/50 49/49/49 47/47/47
f 47/47/47 15/15/15 50/50/50
f 15/15/15 14/14/14 50/50/50
f 50/50/50 14/14/14 55/55/55
f 14/14/14 13/13/13 55/55/55
f 53/53/53 52/52/52 51/51/51
f 54/54/54 53/53/53 51/51/51
f 16/16/16 57/57/57 56/56/56
f 58/58/58 16/16/16 56/56/56
f 61/61/61 60/60/60 59/59/59
f 62/62/62 61/61/61 59/59/59
f 18/18/18 17/17/17 63/63/63
f 64/64/64 18/18/18 63/63/63
f 19/19/19 66/66/66 65/65/65
f 67/67/67 19/19/19 65/65/65
f 20/20/20 69/69/69 68/68/68
f 70/70/70 20/20/20 68/68/68
f 73/73/73 72/72/72 71/71/71
f 74/74/74 73/73/73 71/71/71
f 75/75/75 22/22/22 29/29/29
f 23/23/23 22/22/22 75/75/75
f 76/76/76 23/23/23 75/75/75
f 32/32/32 23/23/23 76/76/76
f 24/24/24 32/32/32 76/76/76
f 77/77/77 24/24/24 76/76/76
f 21/21/21 79/79/79 78/78/78
f 80/80/80 21/21/21 78/78/78
f 107/107/107 21/21/21 80/80/80
f 108/108/108 107/107/107 80/80/80
f 83/83/83 82/82/82 81/81/81
f 84/84/84 83/83/83 81/81/81
f 27/27/27 26/26/26 85/85/85
f 86/86/86 27/27/27 85/85/85
f 89/89/89 88/88/88 87/87/87
f 90/90/90 89/89/89 87/87/87
f 93/93/93 92/92/92 91/91/91
f 94/94/94 93/93/93 91/91/91
f 97/97/97 96/96/96 95/95/95
f 98/98/98 97/97/97 95/95/95
f 101/101/101 100/100/100 99/99/99
f 102/102/102 101/101/101 99/99/99
f 105/105/105 104/104/104 103/103/103
f 106/106/106 105/105/105 103/103/103
f 113/113/113 112/112/112 111/111/111
f 114/114/114 113/113/113 111/111/111
f 117/117/117 116/116/116 115/115/115
f 118/118/118 117/117/117 115/115/115
f 121/121/121 120/120/120 119/119/119
f 122/122/122 121/121/121 119/119/119
