g SM_Wep_RPG_Trigger_01
v -0.007410637 -0.008107453 0.03754913
v -0.007410637 -0.0034242247 0.042962037
v -0.0074106394 -0.007022247 0.030064696
v -0.007410637 0.004679718 0.041045226
v 0.0069819163 -0.007022247 0.030064696
v 0.0069819163 0.004679718 0.041045226
v 0.0069819163 -0.008107453 0.03754883
v 0.0069819163 -0.0034242247 0.04296173
v -0.0074106394 0.013867035 0.026170349
v -0.007410637 0.01399559 0.041304015
v 0.0069819163 0.01399559 0.04130432
v 0.0069819163 0.013867035 0.026170654
v -0.0074106394 0.034275435 0.022565918
v -0.007410637 0.03408478 0.04811981
v 0.0069819163 0.03408478 0.048120115
v 0.006981914 0.034275435 0.022565918
v 0.0060547227 -0.012106552 0.04234802
v 0.0060547227 -0.008015671 0.046507567
v -0.006483645 -0.008015671 0.046507873
v -0.006483645 -0.012106552 0.042348325
v 0.0054701534 -0.014924545 0.04777954
v 0.0054701534 -0.012294235 0.050686035
v -0.0058993036 -0.012294235 0.050686035
v -0.0058993036 -0.014924545 0.04777954
v -0.007410637 -0.0034242247 0.042962037
v -0.007410637 0.004679718 0.041045226
v 0.0069819163 0.004679718 0.041045226
v 0.0069819163 -0.0034242247 0.04296173
v 0.0069819163 -0.008107453 0.03754883
v 0.0069819163 -0.007022247 0.030064696
v -0.0074106394 -0.007022247 0.030064696
v -0.007410637 -0.008107453 0.03754913
v -0.007410637 0.004679718 0.041045226
v -0.007410637 0.01399559 0.041304015
v 0.0069819163 0.004679718 0.041045226
v 0.0069819163 0.01399559 0.04130432
v 0.0069819163 -0.007022247 0.030064696
v 0.0069819163 0.013867035 0.026170654
v -0.0074106394 0.013867035 0.026170349
v -0.0074106394 -0.007022247 0.030064696
v -0.0074106394 0.034275435 0.022565918
v -0.007410637 0.03408478 0.04811981
v -0.007410637 0.01399559 0.041304015
v -0.007410637 0.03408478 0.04811981
v 0.0069819163 0.03408478 0.048120115
v 0.0069819163 0.01399559 0.04130432
v 0.0069819163 0.03408478 0.048120115
v 0.006981914 0.034275435 0.022565918
v 0.006981914 0.034275435 0.022565918
v -0.0074106394 0.034275435 0.022565918
v 0.0069819163 -0.008107453 0.03754883
v 0.0069819163 -0.0034242247 0.04296173
v 0.0069819163 -0.0034242247 0.04296173
v 0.0060547227 -0.008015671 0.046507567
v -0.007410637 -0.0034242247 0.042962037
v -0.007410637 -0.0034242247 0.042962037
v -0.006483645 -0.008015671 0.046507873
v -0.007410637 -0.008107453 0.03754913
v -0.007410637 -0.008107453 0.03754913
v -0.006483645 -0.012106552 0.042348325
v 0.0060547227 -0.012106552 0.04234802
v 0.0069819163 -0.008107453 0.03754883
v -0.006483645 -0.008015671 0.046507873
v -0.0058993036 -0.012294235 0.050686035
v -0.0058993036 -0.014924545 0.04777954
v -0.006483645 -0.012106552 0.042348325
v -0.006483645 -0.012106552 0.042348325
v -0.0058993036 -0.014924545 0.04777954
v 0.0054701534 -0.014924545 0.04777954
v 0.0060547227 -0.012106552 0.04234802
v 0.0060547227 -0.008015671 0.046507567
v 0.0060547227 -0.012106552 0.04234802
v 0.0054701534 -0.014924545 0.04777954
v 0.0054701534 -0.012294235 0.050686035
v -0.006483645 -0.008015671 0.046507873
v 0.0060547227 -0.008015671 0.046507567
v 0.0054701534 -0.012294235 0.050686035
v -0.0058993036 -0.012294235 0.050686035
vt 0.059866086 0.07405728
vt 0.059866086 0.07405728
vt 0.059866086 0.07405728
vt 0.059866086 0.07405728
vt 0.059866086 0.07405728
vt 0.059866086 0.07405728
vt 0.059866086 0.07405728
vt 0.059866086 0.07405728
vt 0.059866086 0.07405728
vt 0.059866086 0.07405728
vt 0.059866086 0.07405728
vt 0.059866086 0.07405728
vt 0.059866086 0.07405728
vt 0.059866086 0.07405728
vt 0.059866086 0.07405728
vt 0.059866086 0.07405728
vt 0.059866086 0.07405728
vt 0.059866086 0.07405728
vt 0.059866086 0.07405728
vt 0.059866086 0.07405728
vt 0.059866086 0.07405728
vt 0.059866086 0.07405728
vt 0.059866086 0.07405728
vt 0.059866086 0.07405728
vt 0.059866086 0.07405728
vt 0.059866086 0.07405728
vt 0.059866086 0.07405728
vt 0.059866086 0.07405728
vt 0.059866086 0.07405728
vt 0.059866086 0.07405728
vt 0.059866086 0.07405728
vt 0.059866086 0.07405728
vt 0.059866086 0.07405728
vt 0.059866086 0.07405728
vt 0.059866086 0.07405728
vt 0.059866086 0.07405728
vt 0.059866086 0.07405728
vt 0.059866086 0.07405728
vt 0.059866086 0.07405728
vt 0.059866086 0.07405728
vt 0.059866086 0.07405728
vt 0.059866086 0.07405728
vt 0.059866086 0.07405728
vt 0.059866086 0.07405728
vt 0.059866086 0.07405728
vt 0.059866086 0.07405728
vt 0.059866086 0.07405728
vt 0.059866086 0.07405728
vt 0.059866086 0.07405728
vt 0.059866086 0.07405728
vt 0.059866086 0.07405728
vt 0.059866086 0.07405728
vt 0.059866086 0.07405728
vt 0.059866086 0.07405728
vt 0.059866086 0.07405728
vt 0.059866086 0.07405728
vt 0.059866086 0.07405728
vt 0.059866086 0.07405728
vt 0.059866086 0.07405728
vt 0.059866086 0.07405728
vt 0.059866086 0.07405728
vt 0.059866086 0.07405728
vt 0.059866086 0.07405728
vt 0.059866086 0.07405728
vt 0.059866086 0.07405728
vt 0.059866086 0.07405728
vt 0.059866086 0.07405728
vt 0.059866086 0.07405728
vt 0.059866086 0.07405728
vt 0.059866086 0.07405728
vt 0.059866086 0.07405728
vt 0.059866086 0.07405728
vt 0.059866086 0.07405728
vt 0.059866086 0.07405728
vt 0.059866086 0.07405728
vt 0.059866086 0.07405728
vt 0.059866086 0.07405728
vt 0.059866086 0.07405728
vn -1 -1.5650275E-07 2.0012273E-07
vn -1 -1.5650275E-07 2.0012273E-07
vn -1 0 1.8680416E-07
vn -1 0 1.8097094E-07
vn 1 0 0
vn 1 0 0
vn 1 0 0
vn 1 0 0
vn -1 0 1.421107E-07
vn -1 0 1.4214338E-07
vn -1.0665036E-05 -0.027785024 0.99961394
vn 1 0 0
vn -0 0.9999722 0.007460854
vn -0 0.9999722 0.007460854
vn -0 0.9999722 0.007460854
vn -0 0.9999722 0.007460854
vn 0.9882146 -0.11284346 0.103432365
vn 0.9882146 -0.11284346 0.103432365
vn 1.8007371E-05 0.6112211 0.7914599
vn -0.9882196 -0.11281945 0.10341031
vn -0 -0.74145645 0.67100096
vn -0 -0.74145645 0.67100096
vn -0 -0.74145645 0.67100096
vn -0 -0.74145645 0.67100096
vn 1.0145119E-05 0.23015954 0.9731529
vn 1.0145119E-05 0.23015954 0.9731529
vn 1.0145119E-05 0.23015954 0.9731529
vn 1.0145119E-05 0.23015954 0.9731529
vn -1.5333171E-06 -0.9896507 -0.14349724
vn -1.5333171E-06 -0.9896507 -0.14349724
vn -1.5333171E-06 -0.9896507 -0.14349724
vn -1.5333171E-06 -0.9896507 -0.14349724
vn -1.0665036E-05 -0.027785024 0.99961394
vn -1.0665036E-05 -0.027785024 0.99961394
vn -1.0665036E-05 -0.027785024 0.99961394
vn 1 0 0
vn 1.0290448E-05 -0.18326347 -0.98306376
vn 1.0340943E-05 -0.17859897 -0.9839219
vn 1.0340944E-05 -0.17859896 -0.9839219
vn 1.0290448E-05 -0.18326347 -0.98306376
vn -1 0 1.1718063E-07
vn -1 0 1.1718063E-07
vn -1.999039E-05 -0.32128882 0.94698125
vn -1.999039E-05 -0.32128882 0.94698125
vn -1.999039E-05 -0.32128882 0.94698125
vn -1.999039E-05 -0.32128882 0.94698125
vn 1 0 0
vn 1 0 0
vn 1.0391207E-05 -0.1739304 -0.9847579
vn 1.0391207E-05 -0.1739304 -0.9847579
vn 0.9882146 -0.11284346 0.103432365
vn 0.9882146 -0.11284346 0.103432365
vn 1.8007371E-05 0.6112211 0.7914599
vn 1.8007371E-05 0.6112211 0.7914599
vn 1.8007371E-05 0.6112211 0.7914599
vn -0.9882196 -0.11281945 0.10341031
vn -0.9882196 -0.11281945 0.10341031
vn -0.9882196 -0.11281945 0.10341031
vn -1.4596686E-05 -0.76823926 -0.6401629
vn -1.4596686E-05 -0.76823926 -0.6401629
vn -1.4596686E-05 -0.76823926 -0.6401629
vn -1.4596686E-05 -0.76823926 -0.6401629
vn -0.99510217 -0.07162433 0.06812869
vn -0.99510217 -0.07162433 0.06812869
vn -0.99510217 -0.07162433 0.06812869
vn -0.99510217 -0.07162433 0.06812869
vn -5.867186E-06 -0.88763905 -0.46053985
vn -5.867186E-06 -0.88763905 -0.46053985
vn -5.867186E-06 -0.88763905 -0.46053985
vn -5.867186E-06 -0.88763905 -0.46053985
vn 0.99509877 -0.07164928 0.0681525
vn 0.99509877 -0.07164928 0.0681525
vn 0.99509877 -0.07164928 0.0681525
vn 0.99509877 -0.07164928 0.0681525
vn 9.004678E-06 0.6986754 0.7154387
vn 9.004678E-06 0.6986754 0.7154387
vn 9.004678E-06 0.6986754 0.7154387
vn 9.004678E-06 0.6986754 0.7154387
g SM_Wep_RPG_Trigger_01_0
f 2/2/2 4/4/4 1/1/1
f 4/4/4 3/3/3 1/1/1
f 4/4/4 10/10/10 3/3/3
f 10/10/10 9/9/9 3/3/3
f 10/10/10 42/42/42 9/9/9
f 42/42/42 41/41/41 9/9/9
f 15/15/15 16/16/16 13/13/13
f 14/14/14 15/15/15 13/13/13
f 8/8/8 7/7/7 5/5/5
f 6/6/6 8/8/8 5/5/5
f 5/5/5 12/12/12 6/6/6
f 12/12/12 36/36/36 6/6/6
f 12/12/12 48/48/48 36/36/36
f 48/48/48 47/47/47 36/36/36
f 23/23/23 24/24/24 21/21/21
f 22/22/22 23/23/23 21/21/21
f 27/27/27 26/26/26 25/25/25
f 28/28/28 27/27/27 25/25/25
f 31/31/31 30/30/30 29/29/29
f 32/32/32 31/31/31 29/29/29
f 11/11/11 34/34/34 33/33/33
f 35/35/35 11/11/11 33/33/33
f 40/40/40 39/39/39 37/37/37
f 39/39/39 38/38/38 37/37/37
f 39/39/39 50/50/50 38/38/38
f 50/50/50 49/49/49 38/38/38
f 45/45/45 44/44/44 43/43/43
f 46/46/46 45/45/45 43/43/43
f 18/18/18 17/17/17 51/51/51
f 52/52/52 18/18/18 51/51/51
f 19/19/19 54/54/54 53/53/53
f 55/55/55 19/19/19 53/53/53
f 20/20/20 57/57/57 56/56/56
f 58/58/58 20/20/20 56/56/56
f 61/61/61 60/60/60 59/59/59
f 62/62/62 61/61/61 59/59/59
f 65/65/65 64/64/64 63/63/63
f 66/66/66 65/65/65 63/63/63
f 69/69/69 68/68/68 67/67/67
f 70/70/70 69/69/69 67/67/67
f 73/73/73 72/72/72 71/71/71
f 74/74/74 73/73/73 71/71/71
f 77/77/77 76/76/76 75/75/75
f 78/78/78 77/77/77 75/75/75
