g SM_Wep_MachinePistol_Gen2_Slide_01
v 0.0023270638 0.014896855 -0.037384868
v 0.0023270638 0.014896855 0.03738526
v -0.013878652 0.0021486038 0.03738526
v -0.013878652 0.0021486038 -0.037384868
v -0.013878652 0.0021486038 -0.037384868
v -0.013878652 0.0021486038 0.03738526
v -0.014874582 -0.014897246 0.03738526
v -0.014874582 -0.014897246 -0.037384868
v -0.013878652 0.0021486038 -0.037384868
v 0.01487458 -0.012870364 -0.037384868
v 0.0023270638 0.014896855 -0.037384868
v -0.014874582 -0.014897246 -0.037384868
v 0.0023270638 0.014896855 0.03738526
v 0.01487458 -0.012870364 0.03738526
v -0.013878652 0.0021486038 0.03738526
v -0.014874582 -0.014897246 0.03738526
vt 0.24385318 0.3027897
vt 0.24385318 0.3027897
vt 0.24385321 0.3027897
vt 0.24385321 0.3027897
vt 0.24385321 0.3027897
vt 0.24385321 0.3027897
vt 0.24385321 0.3027897
vt 0.24385321 0.3027897
vt 0.24385321 0.3027897
vt 0.24385315 0.3027897
vt 0.24385318 0.3027897
vt 0.24385321 0.3027897
vt 0.24385318 0.3027897
vt 0.24385315 0.3027897
vt 0.24385321 0.3027897
vt 0.24385321 0.3027897
vn -0.6182769 0.7859603 0
vn -0.6182769 0.7859603 0
vn -0.6182769 0.7859603 0
vn -0.6182769 0.7859603 0
vn -0.9982975 0.058327094 0
vn -0.9982975 0.058327094 0
vn -0.9982975 0.058327094 0
vn -0.9982975 0.058327094 0
vn -0 0 -1
vn -0 0 -1
vn -0 0 -1
vn -0 0 -1
vn -0 0 1
vn -0 0 1
vn -0 0 1
vn -0 0 1
g SM_Wep_MachinePistol_Gen2_Slide_01_0
f 3/3/3 2/2/2 1/1/1
f 4/4/4 3/3/3 1/1/1
f 7/7/7 6/6/6 5/5/5
f 8/8/8 7/7/7 5/5/5
f 11/11/11 10/10/10 9/9/9
f 9/9/9 10/10/10 12/12/12
f 15/15/15 14/14/14 13/13/13
f 16/16/16 14/14/14 15/15/15
