g SM_Wep_SubMGun_Mag_01
v -0.02981336 -0.01392425 0.1735067
v 0.02981336 -0.01392425 0.1735067
v -0.02981336 0.013924248 0.1735067
v 0.02981336 0.013924248 0.1735067
v -0.02981336 0.013924248 -0.13973606
v 0.02981336 0.013924248 -0.13973606
v -0.02981336 -0.01392425 -0.13973606
v 0.02981336 -0.01392425 -0.13973606
v -0.03255931 0.013924248 -0.15255976
v 0.03255931 0.013924248 -0.15255976
v 0.03255931 -0.01392425 -0.15255976
v -0.03255931 -0.01392425 -0.15255976
v -0.029385023 0.013924248 -0.16663988
v 0.029385023 0.013924248 -0.16663988
v 0.029385023 -0.01392425 -0.16663988
v -0.029385023 -0.01392425 -0.16663988
v -0.01784827 0.013924248 -0.1789651
v 0.01784827 0.013924248 -0.1789651
v 0.01784827 -0.01392425 -0.1789651
v -0.01784827 -0.01392425 -0.1789651
v -0 0.013924248 -0.18528263
v -0 -0.01392425 -0.18528263
v 0.02981336 -0.008433207 -0.13447134
v 0.02981336 -0.008433207 0.1626153
v 0.02981336 0.00843321 -0.13447134
v 0.02981336 0.00843321 0.1626153
v -0.02981336 -0.008433207 -0.13447134
v -0.02981336 -0.008433207 0.1626153
v -0.02981336 0.00843321 0.1626153
v -0.02981336 0.00843321 -0.13447134
v 0.025368337 -0.00593499 -0.1314072
v 0.025368337 -0.00593499 0.15955111
v 0.025368337 0.005934984 -0.1314072
v 0.025368337 0.005934984 0.15955111
v -0.025368337 -0.00593499 -0.1314072
v -0.025368337 -0.00593499 0.15955111
v -0.025368337 0.005934984 0.15955111
v -0.025368337 0.005934984 -0.1314072
v -0.02981336 -0.01392425 0.18528265
v 0.02981336 -0.01392425 0.18528265
v 0.02981336 0.013924248 0.18528265
v -0.02981336 0.013924248 0.18528265
v -0.02981336 -0.02041573 0.17619598
v 0.02981336 -0.02041573 0.17619598
v 0.02981336 -0.02041573 0.18259338
v -0.02981336 -0.02041573 0.18259338
v -0.02981336 0.020415727 0.17619598
v 0.02981336 0.020415727 0.17619598
v -0.02981336 0.020415727 0.18259338
v 0.02981336 0.020415727 0.18259338
v 0.015412697 0.013924248 0.15704982
v 0.010391882 0.013924248 0.15704982
v 0.015412697 0.013924248 -0.13974783
v 0.010391882 0.013924248 -0.13972428
v 0.015296487 0.013924248 -0.153059
v 0.010284184 0.013924248 -0.15206048
v 0.009760418 0.013924248 -0.16781646
v 0.0052563 0.013924248 -0.16546327
v -4.70501E-10 0.013924248 -0.16997904
v 6.540535E-11 0.013924248 -0.17780276
v -0.015412698 0.013924248 0.15704982
v -0.010391884 0.013924248 0.15704982
v -0.010391884 0.013924248 -0.13972428
v -0.015412698 0.013924248 -0.13974783
v -0.015296492 0.013924248 -0.153059
v -0.010284187 0.013924248 -0.15206048
v -0.00976042 0.013924248 -0.16781646
v -0.005256302 0.013924248 -0.16546327
v 0.01402084 0.016025279 0.15704982
v 0.011815232 0.016025279 0.15704982
v 0.01402084 0.016025279 -0.13974783
v 0.011815232 0.016025279 -0.13972428
v 0.013915126 0.016025279 -0.153059
v 0.011692785 0.016025279 -0.15206048
v 0.008481798 0.016025279 -0.16749446
v 0.00637344 0.016025279 -0.16578527
v -2.0738503E-11 0.016025279 -0.17567788
v -3.5239936E-10 0.016025279 -0.17210388
v -0.0083903875 0.016025279 -0.16742034
v -0.006464856 0.016025279 -0.16585939
v -0.011815235 0.016025279 0.15704982
v -0.014020842 0.016025279 0.15704982
v -0.011815235 0.016025279 -0.13972428
v -0.014020842 0.016025279 -0.13974783
v -0.011692788 0.016025279 -0.15206048
v -0.013915131 0.016025279 -0.153059
v 0.02981336 -0.01392425 -0.13973606
v 0.03255931 -0.01392425 -0.15255976
v -0.02981336 -0.01392425 -0.13973606
v -0.03255931 -0.01392425 -0.15255976
v 0.03255931 0.013924248 -0.15255976
v 0.03255931 -0.01392425 -0.15255976
v 0.029385023 -0.01392425 -0.16663988
v -0.03255931 -0.01392425 -0.15255976
v -0.029385023 -0.01392425 -0.16663988
v -0.03255931 0.013924248 -0.15255976
v 0.029385023 0.013924248 -0.16663988
v 0.029385023 -0.01392425 -0.16663988
v 0.01784827 -0.01392425 -0.1789651
v -0.029385023 -0.01392425 -0.16663988
v -0.01784827 -0.01392425 -0.1789651
v -0.029385023 0.013924248 -0.16663988
v 0.01784827 0.013924248 -0.1789651
v 0.01784827 -0.01392425 -0.1789651
v -0 -0.01392425 -0.18528263
v -0.01784827 -0.01392425 -0.1789651
v -0 -0.01392425 -0.18528263
v -0 0.013924248 -0.18528263
v -0.01784827 0.013924248 -0.1789651
v 0.02981336 -0.01392425 -0.13973606
v 0.02981336 -0.01392425 0.1735067
v 0.02981336 0.013924248 -0.13973606
v -0.02981336 -0.01392425 0.1735067
v -0.02981336 -0.01392425 -0.13973606
v -0.02981336 0.013924248 -0.13973606
v 0.025368337 -0.00593499 0.15955111
v 0.025368337 -0.00593499 -0.1314072
v 0.02981336 -0.008433207 -0.13447134
v 0.02981336 -0.008433207 0.1626153
v 0.02981336 -0.008433207 -0.13447134
v 0.025368337 -0.00593499 -0.1314072
v 0.025368337 0.005934984 -0.1314072
v 0.02981336 0.00843321 -0.13447134
v 0.02981336 0.00843321 0.1626153
v 0.02981336 0.00843321 -0.13447134
v 0.025368337 0.005934984 -0.1314072
v 0.025368337 0.005934984 0.15955111
v 0.02981336 0.00843321 0.1626153
v 0.025368337 0.005934984 0.15955111
v 0.025368337 -0.00593499 0.15955111
v 0.02981336 -0.008433207 0.1626153
v -0.02981336 -0.008433207 0.1626153
v -0.02981336 -0.008433207 -0.13447134
v -0.025368337 -0.00593499 -0.1314072
v -0.025368337 -0.00593499 0.15955111
v -0.02981336 -0.008433207 0.1626153
v -0.025368337 -0.00593499 0.15955111
v -0.025368337 0.005934984 0.15955111
v -0.02981336 0.00843321 0.1626153
v -0.025368337 0.005934984 0.15955111
v -0.025368337 0.005934984 -0.1314072
v -0.02981336 0.00843321 -0.13447134
v -0.02981336 0.00843321 0.1626153
v -0.02981336 0.00843321 -0.13447134
v -0.025368337 0.005934984 -0.1314072
v -0.025368337 -0.00593499 -0.1314072
v -0.02981336 -0.008433207 -0.13447134
v -0.02981336 -0.02041573 0.17619598
v 0.02981336 -0.02041573 0.17619598
v 0.02981336 -0.01392425 0.1735067
v -0.02981336 -0.01392425 0.1735067
v 0.02981336 -0.02041573 0.17619598
v 0.02981336 -0.02041573 0.18259338
v 0.02981336 -0.01392425 0.18528265
v 0.02981336 -0.02041573 0.18259338
v -0.02981336 -0.02041573 0.18259338
v -0.02981336 -0.01392425 0.18528265
v -0.02981336 -0.02041573 0.18259338
v -0.02981336 -0.02041573 0.17619598
v -0.02981336 0.013924248 0.18528265
v 0.02981336 0.013924248 0.18528265
v 0.02981336 -0.01392425 0.18528265
v -0.02981336 -0.01392425 0.18528265
v -0.029385023 0.013924248 -0.16663988
v -0.01784827 0.013924248 -0.1789651
v 0.01784827 0.013924248 -0.1789651
v 0.029385023 0.013924248 -0.16663988
v -0.02981336 0.013924248 0.18528265
v -0.02981336 0.020415727 0.18259338
v 0.02981336 0.020415727 0.18259338
v 0.02981336 0.013924248 0.18528265
v -0.02981336 0.020415727 0.18259338
v -0.02981336 0.020415727 0.17619598
v 0.02981336 0.020415727 0.17619598
v 0.02981336 0.020415727 0.18259338
v -0.02981336 0.020415727 0.17619598
v -0.02981336 0.013924248 0.1735067
v 0.02981336 0.013924248 0.1735067
v 0.02981336 0.020415727 0.17619598
v -0.02981336 0.013924248 -0.13973606
v 0.02981336 0.013924248 -0.13973606
v 0.02981336 0.013924248 0.1735067
v -0.02981336 0.013924248 0.1735067
v -0.03255931 0.013924248 -0.15255976
v 0.03255931 0.013924248 -0.15255976
v -0 0.013924248 -0.18528263
v 0.01402084 0.016025279 0.15704982
v 0.01402084 0.016025279 -0.13974783
v 0.011815232 0.016025279 -0.13972428
v 0.011815232 0.016025279 0.15704982
v 0.013915126 0.016025279 -0.153059
v 0.011692785 0.016025279 -0.15206048
v 0.015296487 0.013924248 -0.153059
v 0.013915126 0.016025279 -0.153059
v 0.008481798 0.016025279 -0.16749446
v 0.00637344 0.016025279 -0.16578527
v 0.011692785 0.016025279 -0.15206048
v 0.010284184 0.013924248 -0.15206048
v 0.009760418 0.013924248 -0.16781646
v 0.008481798 0.016025279 -0.16749446
v -2.0738503E-11 0.016025279 -0.17567788
v -3.5239936E-10 0.016025279 -0.17210388
v 0.00637344 0.016025279 -0.16578527
v 0.0052563 0.013924248 -0.16546327
v 6.540535E-11 0.013924248 -0.17780276
v -2.0738503E-11 0.016025279 -0.17567788
v -0.0083903875 0.016025279 -0.16742034
v -0.006464856 0.016025279 -0.16585939
v -3.5239936E-10 0.016025279 -0.17210388
v -4.70501E-10 0.013924248 -0.16997904
v -0.011815235 0.016025279 0.15704982
v -0.011815235 0.016025279 -0.13972428
v -0.014020842 0.016025279 -0.13974783
v -0.014020842 0.016025279 0.15704982
v -0.011692788 0.016025279 -0.15206048
v -0.013915131 0.016025279 -0.153059
v -0.010284187 0.013924248 -0.15206048
v -0.011692788 0.016025279 -0.15206048
v -0.006464856 0.016025279 -0.16585939
v -0.005256302 0.013924248 -0.16546327
v -0.00976042 0.013924248 -0.16781646
v -0.0083903875 0.016025279 -0.16742034
v -0.013915131 0.016025279 -0.153059
v -0.015296492 0.013924248 -0.153059
v -0.010391884 0.013924248 0.15704982
v -0.015412698 0.013924248 0.15704982
v -0.014020842 0.016025279 0.15704982
v -0.011815235 0.016025279 0.15704982
v 0.011815232 0.016025279 0.15704982
v 0.01402084 0.016025279 0.15704982
v 0.015412697 0.013924248 0.15704982
v 0.010391882 0.013924248 0.15704982
vt 0.14330247 0.12163171
vt 0.14330247 0.12163171
vt 0.14330247 0.12163171
vt 0.14330247 0.12163171
vt 0.14330247 0.12163171
vt 0.14330247 0.12163171
vt 0.14330247 0.12163171
vt 0.14330247 0.12163171
vt 0.14330247 0.12163171
vt 0.14330247 0.12163171
vt 0.14330247 0.12163171
vt 0.14330247 0.12163171
vt 0.14330247 0.12163171
vt 0.14330247 0.12163171
vt 0.14330247 0.12163171
vt 0.14330247 0.12163171
vt 0.14330247 0.12163171
vt 0.14330247 0.12163171
vt 0.14330247 0.12163171
vt 0.14330247 0.12163171
vt 0.14330247 0.12163171
vt 0.14330247 0.12163171
vt 0.14330247 0.12163171
vt 0.14330247 0.12163171
vt 0.14330247 0.12163171
vt 0.14330247 0.12163171
vt 0.14330247 0.12163171
vt 0.14330247 0.12163171
vt 0.14330247 0.12163171
vt 0.14330247 0.12163171
vt 0.09109378 0.32042694
vt 0.09109378 0.32042694
vt 0.09109378 0.32042646
vt 0.09109378 0.32042646
vt 0.09109378 0.32042694
vt 0.09109378 0.32042694
vt 0.09109378 0.32042646
vt 0.09109378 0.32042646
vt 0.14330247 0.12163171
vt 0.14330247 0.12163171
vt 0.14330247 0.12163171
vt 0.14330247 0.12163171
vt 0.14330247 0.12163171
vt 0.14330247 0.12163171
vt 0.14330247 0.12163171
vt 0.14330247 0.12163171
vt 0.14330247 0.12163171
vt 0.14330247 0.12163171
vt 0.14330247 0.12163171
vt 0.14330247 0.12163171
vt 0.14330247 0.12163171
vt 0.14330247 0.12163171
vt 0.14330247 0.12163171
vt 0.14330247 0.12163171
vt 0.14330247 0.12163171
vt 0.14330247 0.12163171
vt 0.14330247 0.12163171
vt 0.14330247 0.12163171
vt 0.14330247 0.12163171
vt 0.14330247 0.12163171
vt 0.14330247 0.12163171
vt 0.14330247 0.12163171
vt 0.14330247 0.12163171
vt 0.14330247 0.12163171
vt 0.14330247 0.12163171
vt 0.14330247 0.12163171
vt 0.14330247 0.12163171
vt 0.14330247 0.12163171
vt 0.14330247 0.12163171
vt 0.14330247 0.12163171
vt 0.14330247 0.12163171
vt 0.14330247 0.12163171
vt 0.14330247 0.12163171
vt 0.14330247 0.12163171
vt 0.14330247 0.12163171
vt 0.14330247 0.12163171
vt 0.14330247 0.12163171
vt 0.14330247 0.12163171
vt 0.14330247 0.12163171
vt 0.14330247 0.12163171
vt 0.14330247 0.12163171
vt 0.14330247 0.12163171
vt 0.14330247 0.12163171
vt 0.14330247 0.12163171
vt 0.14330247 0.12163171
vt 0.14330247 0.12163171
vt 0.14330247 0.12163171
vt 0.14330247 0.12163171
vt 0.14330247 0.12163171
vt 0.14330247 0.12163171
vt 0.14330247 0.12163171
vt 0.14330247 0.12163171
vt 0.14330247 0.12163171
vt 0.14330247 0.12163171
vt 0.14330247 0.12163171
vt 0.14330247 0.12163171
vt 0.14330247 0.12163171
vt 0.14330247 0.12163171
vt 0.14330247 0.12163171
vt 0.14330247 0.12163171
vt 0.14330247 0.12163171
vt 0.14330247 0.12163171
vt 0.14330247 0.12163171
vt 0.14330247 0.12163171
vt 0.14330247 0.12163171
vt 0.14330247 0.12163171
vt 0.14330247 0.12163171
vt 0.14330247 0.12163171
vt 0.14330247 0.12163171
vt 0.14330247 0.12163171
vt 0.14330247 0.12163171
vt 0.14330247 0.12163171
vt 0.14330247 0.12163171
vt 0.14330247 0.12163171
vt 0.14330247 0.12163171
vt 0.14330247 0.12163171
vt 0.14330247 0.12163171
vt 0.14330247 0.12163171
vt 0.14330247 0.12163171
vt 0.14330247 0.12163171
vt 0.14330247 0.12163171
vt 0.14330247 0.12163171
vt 0.14330247 0.12163171
vt 0.14330247 0.12163171
vt 0.14330247 0.12163171
vt 0.14330247 0.12163171
vt 0.14330247 0.12163171
vt 0.14330247 0.12163171
vt 0.14330247 0.12163171
vt 0.14330247 0.12163171
vt 0.14330247 0.12163171
vt 0.14330247 0.12163171
vt 0.14330247 0.12163171
vt 0.14330247 0.12163171
vt 0.14330247 0.12163171
vt 0.14330247 0.12163171
vt 0.14330247 0.12163171
vt 0.14330247 0.12163171
vt 0.14330247 0.12163171
vt 0.14330247 0.12163171
vt 0.14330247 0.12163171
vt 0.14330247 0.12163171
vt 0.14330247 0.12163171
vt 0.14330247 0.12163171
vt 0.14330247 0.12163171
vt 0.14330247 0.12163171
vt 0.14330247 0.12163171
vt 0.14330247 0.12163171
vt 0.14330247 0.12163171
vt 0.14330247 0.12163171
vt 0.14330247 0.12163171
vt 0.14330247 0.12163171
vt 0.14330247 0.12163171
vt 0.14330247 0.12163171
vt 0.14330247 0.12163171
vt 0.14330247 0.12163171
vt 0.14330247 0.12163171
vt 0.14330247 0.12163171
vt 0.14330247 0.12163171
vt 0.14330247 0.12163171
vt 0.14330247 0.12163171
vt 0.14330247 0.12163171
vt 0.14330247 0.12163171
vt 0.14330247 0.12163171
vt 0.14330247 0.12163171
vt 0.14330247 0.12163171
vt 0.14330247 0.12163171
vt 0.14330247 0.12163171
vt 0.14330247 0.12163171
vt 0.14330247 0.12163171
vt 0.14330247 0.12163171
vt 0.14330247 0.12163171
vt 0.14330247 0.12163171
vt 0.14330247 0.12163171
vt 0.14330247 0.12163171
vt 0.14330247 0.12163171
vt 0.14330247 0.12163171
vt 0.14330247 0.12163171
vt 0.14330247 0.12163171
vt 0.14330247 0.12163171
vt 0.14330247 0.12163171
vt 0.14330247 0.12163171
vt 0.14330247 0.12163171
vt 0.14330247 0.12163171
vt 0.14330247 0.12163171
vt 0.14330247 0.12163171
vt 0.14330247 0.12163171
vt 0.14330247 0.12163171
vt 0.14330247 0.12163171
vt 0.14330247 0.12163171
vt 0.14330247 0.12163171
vt 0.14330247 0.12163171
vt 0.14330247 0.12163171
vt 0.14330247 0.12163171
vt 0.14330247 0.12163171
vt 0.14330247 0.12163171
vt 0.14330247 0.12163171
vt 0.14330247 0.12163171
vt 0.14330247 0.12163171
vt 0.14330247 0.12163171
vt 0.14330247 0.12163171
vt 0.14330247 0.12163171
vt 0.14330247 0.12163171
vt 0.14330247 0.12163171
vt 0.14330247 0.12163171
vt 0.14330247 0.12163171
vt 0.14330247 0.12163171
vt 0.14330247 0.12163171
vt 0.14330247 0.12163171
vt 0.14330247 0.12163171
vt 0.14330247 0.12163171
vt 0.14330247 0.12163171
vt 0.14330247 0.12163171
vt 0.14330247 0.12163171
vt 0.14330247 0.12163171
vt 0.14330247 0.12163171
vt 0.14330247 0.12163171
vt 0.14330247 0.12163171
vt 0.14330247 0.12163171
vt 0.14330247 0.12163171
vt 0.14330247 0.12163171
vt 0.14330247 0.12163171
vt 0.14330247 0.12163171
vt 0.14330247 0.12163171
vt 0.14330247 0.12163171
vt 0.14330247 0.12163171
vt 0.14330247 0.12163171
vt 0.14330247 0.12163171
vt 0.14330247 0.12163171
vt 0.14330247 0.12163171
vt 0.14330247 0.12163171
vt 0.14330247 0.12163171
vn -0 -1 0
vn -0 -1 0
vn -1 0 0
vn 1 0 0
vn -0.9778334 0 0.2093844
vn 0.9778334 0 0.2093844
vn -0 -1 0
vn -0 -1 0
vn -0.9778334 0 0.2093844
vn 0.9778334 0 0.2093844
vn 0.9778334 0 0.2093844
vn -0 -1 0
vn -0.97551674 0 -0.21992503
vn 0.97551674 0 -0.21992503
vn 0.97551674 0 -0.21992503
vn -0 -1 0
vn -0.7300734 0 -0.68336874
vn 0.7300734 0 -0.68336874
vn 0.7300734 0 -0.68336874
vn -0 -1 0
vn 0.33367154 0 -0.9426895
vn 0.33367154 0 -0.9426895
vn 1 0 0
vn 1 0 0
vn 1 0 0
vn 1 0 0
vn -1 0 0
vn -1 0 0
vn -1 0 0
vn -1 0 0
vn 1 0 0
vn 1 0 0
vn 1 0 0
vn 1 0 0
vn -1 0 0
vn -1 0 0
vn -1 0 0
vn -1 0 0
vn -1 0 0
vn 1 0 0
vn 1 0 0
vn -1 0 0
vn -0 -1 0
vn -0 -1 0
vn -0 -1 0
vn -0 -1 0
vn -1 0 0
vn 1 0 0
vn -1 0 0
vn 1 0 0
vn 0.8336638 0.5522722 0
vn -0.82790554 0.5608676 0
vn 0.8341384 0.55154425 -0.0034786202
vn -0.82857454 0.5598654 0.0038675645
vn 0.8346022 0.55080926 -0.0069571966
vn -0.82922995 0.5588541 0.0077350657
vn 0.795762 0.5266448 -0.29901186
vn -0.8051002 0.5074549 0.30708823
vn -0.58262616 0.51906085 0.62539786
vn 0.59781134 0.53139925 -0.60019696
vn -0.8336642 0.55227184 0
vn 0.8279053 0.56086797 0
vn 0.82857436 0.55986565 0.0038675445
vn -0.8341386 0.55154395 -0.0034785278
vn -0.83460224 0.550809 -0.0069570113
vn 0.8292298 0.55885416 0.0077350256
vn -0.5932229 0.54749656 -0.5901983
vn 0.57051796 0.53692555 0.6214661
vn -0 1 0
vn -0 1 0
vn -0 1 0
vn -0 1 0
vn -0 1 0
vn -0 1 0
vn -0 1 0
vn -0 1 0
vn -0 1 0
vn -0 1 0
vn -0 1 0
vn -0 1 0
vn -0 1 0
vn -0 1 0
vn -0 1 0
vn -0 1 0
vn -0 1 0
vn -0 1 0
vn 0.9778334 0 0.2093844
vn -0 -1 0
vn -0.9778334 0 0.2093844
vn -0.9778334 0 0.2093844
vn 0.97551674 0 -0.21992503
vn 0.97551674 0 -0.21992503
vn -0 -1 0
vn -0.97551674 0 -0.21992503
vn -0.97551674 0 -0.21992503
vn -0.97551674 0 -0.21992503
vn 0.7300734 0 -0.68336874
vn 0.7300734 0 -0.68336874
vn -0 -1 0
vn -0.7300734 0 -0.68336874
vn -0.7300734 0 -0.68336874
vn -0.7300734 0 -0.68336874
vn 0.33367154 0 -0.9426895
vn 0.33367154 0 -0.9426895
vn -0 -1 0
vn -0.33367154 0 -0.9426895
vn -0.33367154 0 -0.9426895
vn -0.33367154 0 -0.9426895
vn -0.33367154 0 -0.9426895
vn 1 0 0
vn 1 0 0
vn 1 0 0
vn -1 0 0
vn -1 0 0
vn -1 0 0
vn 0.48994702 0.8717522 0
vn 0.48994702 0.8717522 0
vn 0.48994702 0.8717522 0
vn 0.48994702 0.8717522 0
vn 0.5675576 0 0.82333374
vn 0.5675576 0 0.82333374
vn 0.5675576 0 0.82333374
vn 0.5675576 0 0.82333374
vn 0.48994842 -0.8717515 0
vn 0.48994842 -0.8717515 0
vn 0.48994842 -0.8717515 0
vn 0.48994842 -0.8717515 0
vn 0.56756234 0 -0.8233304
vn 0.56756234 0 -0.8233304
vn 0.56756234 0 -0.8233304
vn 0.56756234 0 -0.8233304
vn -0.48994702 0.8717522 0
vn -0.48994702 0.8717522 0
vn -0.48994702 0.8717522 0
vn -0.48994702 0.8717522 0
vn -0.56756234 0 -0.8233304
vn -0.56756234 0 -0.8233304
vn -0.56756234 0 -0.8233304
vn -0.56756234 0 -0.8233304
vn -0.48994842 -0.8717515 0
vn -0.48994842 -0.8717515 0
vn -0.48994842 -0.8717515 0
vn -0.48994842 -0.8717515 0
vn -0.5675576 0 0.82333374
vn -0.5675576 0 0.82333374
vn -0.5675576 0 0.82333374
vn -0.5675576 0 0.82333374
vn -0 -0.38273293 -0.92385906
vn -0 -0.38273293 -0.92385906
vn -0 -0.38273293 -0.92385906
vn -0 -0.38273293 -0.92385906
vn 1 0 0
vn 1 0 0
vn -0 -0.38273293 0.92385906
vn -0 -0.38273293 0.92385906
vn -0 -0.38273293 0.92385906
vn -0 -0.38273293 0.92385906
vn -1 0 0
vn -1 0 0
vn -0 0 1
vn -0 0 1
vn -0 0 1
vn -0 0 1
vn -0 1 0
vn -0 1 0
vn -0 1 0
vn -0 1 0
vn -0 0.38273293 0.92385906
vn -0 0.38273293 0.92385906
vn -0 0.38273293 0.92385906
vn -0 0.38273293 0.92385906
vn -0 1 0
vn -0 1 0
vn -0 1 0
vn -0 1 0
vn -0 0.38273293 -0.92385906
vn -0 0.38273293 -0.92385906
vn -0 0.38273293 -0.92385906
vn -0 0.38273293 -0.92385906
vn -0 1 0
vn -0 1 0
vn -0 1 0
vn -0 1 0
vn -0 1 0
vn -0 1 0
vn -0 1 0
vn 0.8336638 0.5522722 0
vn 0.8341384 0.55154425 -0.0034786202
vn -0.82857454 0.5598654 0.0038675645
vn -0.82790554 0.5608676 0
vn 0.8346022 0.55080926 -0.0069571966
vn -0.82922995 0.5588541 0.0077350657
vn 0.795762 0.5266448 -0.29901186
vn 0.795762 0.5266448 -0.29901186
vn 0.795762 0.5266448 -0.29901186
vn -0.8051002 0.5074549 0.30708823
vn -0.8051002 0.5074549 0.30708823
vn -0.8051002 0.5074549 0.30708823
vn 0.59781134 0.53139925 -0.60019696
vn 0.59781134 0.53139925 -0.60019696
vn 0.59781134 0.53139925 -0.60019696
vn -0.58262616 0.51906085 0.62539786
vn -0.58262616 0.51906085 0.62539786
vn -0.58262616 0.51906085 0.62539786
vn -0.5932229 0.54749656 -0.5901983
vn -0.5932229 0.54749656 -0.5901983
vn -0.5932229 0.54749656 -0.5901983
vn 0.57051796 0.53692555 0.6214661
vn 0.57051796 0.53692555 0.6214661
vn 0.57051796 0.53692555 0.6214661
vn 0.8279053 0.56086797 0
vn 0.82857436 0.55986565 0.0038675445
vn -0.8341386 0.55154395 -0.0034785278
vn -0.8336642 0.55227184 0
vn 0.8292298 0.55885416 0.0077350256
vn -0.83460224 0.550809 -0.0069570113
vn 0.7966675 0.5245004 0.30036652
vn 0.7966675 0.5245004 0.30036652
vn 0.7966675 0.5245004 0.30036652
vn 0.7966675 0.5245004 0.30036652
vn -0.7853862 0.5423723 -0.29832995
vn -0.7853862 0.5423723 -0.29832995
vn -0.7853862 0.5423723 -0.29832995
vn -0.7853862 0.5423723 -0.29832995
vn -0 0 1
vn -0 0 1
vn -0 0 1
vn -0 0 1
vn -0 0 1
vn -0 0 1
vn -0 0 1
vn -0 0 1
g SM_Wep_SubMGun_Mag_01_0
f 1/1/1 7/7/7 2/2/2
f 7/7/7 8/8/8 2/2/2
f 88/88/88 8/8/8 7/7/7
f 12/12/12 88/88/88 7/7/7
f 93/93/93 88/88/88 12/12/12
f 16/16/16 93/93/93 12/12/12
f 99/99/99 93/93/93 16/16/16
f 20/20/20 99/99/99 16/16/16
f 20/20/20 105/105/105 99/99/99
f 31/31/31 33/33/33 34/34/34
f 32/32/32 31/31/31 34/34/34
f 38/38/38 35/35/35 36/36/36
f 37/37/37 38/38/38 36/36/36
f 11/11/11 10/10/10 6/6/6
f 87/87/87 11/11/11 6/6/6
f 9/9/9 90/90/90 89/89/89
f 5/5/5 9/9/9 89/89/89
f 15/15/15 14/14/14 91/91/91
f 92/92/92 15/15/15 91/91/91
f 13/13/13 95/95/95 94/94/94
f 96/96/96 13/13/13 94/94/94
f 19/19/19 18/18/18 97/97/97
f 98/98/98 19/19/19 97/97/97
f 17/17/17 101/101/101 100/100/100
f 102/102/102 17/17/17 100/100/100
f 22/22/22 21/21/21 103/103/103
f 104/104/104 22/22/22 103/103/103
f 108/108/108 107/107/107 106/106/106
f 109/109/109 108/108/108 106/106/106
f 118/118/118 117/117/117 116/116/116
f 119/119/119 118/118/118 116/116/116
f 122/122/122 121/121/121 120/120/120
f 123/123/123 122/122/122 120/120/120
f 126/126/126 125/125/125 124/124/124
f 127/127/127 126/126/126 124/124/124
f 130/130/130 129/129/129 128/128/128
f 131/131/131 130/130/130 128/128/128
f 134/134/134 133/133/133 132/132/132
f 135/135/135 134/134/134 132/132/132
f 138/138/138 137/137/137 136/136/136
f 139/139/139 138/138/138 136/136/136
f 142/142/142 141/141/141 140/140/140
f 143/143/143 142/142/142 140/140/140
f 146/146/146 145/145/145 144/144/144
f 147/147/147 146/146/146 144/144/144
f 44/44/44 45/45/45 46/46/46
f 43/43/43 44/44/44 46/46/46
f 150/150/150 149/149/149 148/148/148
f 151/151/151 150/150/150 148/148/148
f 153/153/153 152/152/152 111/111/111
f 40/40/40 153/153/153 111/111/111
f 41/41/41 40/40/40 111/111/111
f 4/4/4 41/41/41 111/111/111
f 4/4/4 48/48/48 41/41/41
f 48/48/48 50/50/50 41/41/41
f 111/111/111 24/24/24 4/4/4
f 111/111/111 110/110/110 24/24/24
f 24/24/24 26/26/26 4/4/4
f 110/110/110 23/23/23 24/24/24
f 26/26/26 25/25/25 4/4/4
f 25/25/25 23/23/23 110/110/110
f 25/25/25 112/112/112 4/4/4
f 112/112/112 25/25/25 110/110/110
f 156/156/156 155/155/155 154/154/154
f 157/157/157 156/156/156 154/154/154
f 159/159/159 158/158/158 39/39/39
f 113/113/113 159/159/159 39/39/39
f 113/113/113 39/39/39 3/3/3
f 39/39/39 42/42/42 3/3/3
f 42/42/42 49/49/49 3/3/3
f 49/49/49 47/47/47 3/3/3
f 3/3/3 29/29/29 113/113/113
f 3/3/3 115/115/115 29/29/29
f 29/29/29 28/28/28 113/113/113
f 115/115/115 30/30/30 29/29/29
f 28/28/28 27/27/27 113/113/113
f 27/27/27 30/30/30 115/115/115
f 27/27/27 114/114/114 113/113/113
f 114/114/114 27/27/27 115/115/115
f 162/162/162 161/161/161 160/160/160
f 163/163/163 162/162/162 160/160/160
f 170/170/170 169/169/169 168/168/168
f 171/171/171 170/170/170 168/168/168
f 174/174/174 173/173/173 172/172/172
f 175/175/175 174/174/174 172/172/172
f 178/178/178 177/177/177 176/176/176
f 179/179/179 178/178/178 176/176/176
f 183/183/183 182/182/182 180/180/180
f 182/182/182 181/181/181 180/180/180
f 181/181/181 185/185/185 180/180/180
f 185/185/185 184/184/184 180/180/180
f 185/185/185 167/167/167 184/184/184
f 167/167/167 164/164/164 184/184/184
f 167/167/167 166/166/166 164/164/164
f 166/166/166 165/165/165 164/164/164
f 165/165/165 166/166/166 186/186/186
f 69/69/69 71/71/71 70/70/70
f 71/71/71 72/72/72 70/70/70
f 71/71/71 73/73/73 72/72/72
f 73/73/73 74/74/74 72/72/72
f 73/73/73 75/75/75 74/74/74
f 75/75/75 76/76/76 74/74/74
f 75/75/75 77/77/77 76/76/76
f 77/77/77 78/78/78 76/76/76
f 77/77/77 79/79/79 78/78/78
f 79/79/79 80/80/80 78/78/78
f 80/80/80 79/79/79 86/86/86
f 85/85/85 80/80/80 86/86/86
f 85/85/85 86/86/86 84/84/84
f 83/83/83 85/85/85 84/84/84
f 83/83/83 84/84/84 82/82/82
f 81/81/81 83/83/83 82/82/82
f 188/188/188 187/187/187 51/51/51
f 53/53/53 188/188/188 51/51/51
f 191/191/191 188/188/188 53/53/53
f 55/55/55 191/191/191 53/53/53
f 52/52/52 190/190/190 54/54/54
f 190/190/190 189/189/189 54/54/54
f 54/54/54 189/189/189 56/56/56
f 189/189/189 192/192/192 56/56/56
f 195/195/195 194/194/194 193/193/193
f 57/57/57 195/195/195 193/193/193
f 197/197/197 196/196/196 58/58/58
f 198/198/198 197/197/197 58/58/58
f 201/201/201 200/200/200 199/199/199
f 60/60/60 201/201/201 199/199/199
f 203/203/203 202/202/202 59/59/59
f 204/204/204 203/203/203 59/59/59
f 207/207/207 206/206/206 205/205/205
f 67/67/67 207/207/207 205/205/205
f 209/209/209 208/208/208 68/68/68
f 210/210/210 209/209/209 68/68/68
f 212/212/212 211/211/211 62/62/62
f 63/63/63 212/212/212 62/62/62
f 215/215/215 212/212/212 63/63/63
f 66/66/66 215/215/215 63/63/63
f 61/61/61 214/214/214 64/64/64
f 214/214/214 213/213/213 64/64/64
f 64/64/64 213/213/213 65/65/65
f 213/213/213 216/216/216 65/65/65
f 219/219/219 218/218/218 217/217/217
f 220/220/220 219/219/219 217/217/217
f 223/223/223 222/222/222 221/221/221
f 224/224/224 223/223/223 221/221/221
f 227/227/227 226/226/226 225/225/225
f 228/228/228 227/227/227 225/225/225
f 231/231/231 230/230/230 229/229/229
f 232/232/232 231/231/231 229/229/229
