g SM_Wep_RPG_Back
v 0.029122977 0.09929382 -0.8039201
v 0.012056505 0.11635345 -0.80392104
v -0.01206331 0.11635345 -0.80392104
v -0.029123003 0.09929382 -0.80392194
v -0.029123003 0.07516708 -0.80392194
v -0.01206331 0.058104094 -0.80392104
v 0.012056505 0.058104094 -0.80392104
v 0.029122977 0.07516708 -0.8039201
v 0.048902277 0.10748795 -0.89085644
v 0.020244865 0.13613388 -0.8908583
v -0.020256294 0.13613388 -0.8908583
v -0.0489023 0.10748795 -0.89086014
v -0.0489023 0.06697525 -0.89086014
v -0.020256294 0.038323592 -0.8908583
v 0.020244865 0.038323592 -0.8908583
v 0.048902277 0.06697525 -0.89085644
v 0.052305296 0.1088977 -0.97609574
v 0.021653669 0.13953705 -0.9760978
v -0.021665892 0.13953705 -0.9760978
v -0.052305322 0.1088977 -0.97609967
v -0.052305322 0.065565795 -0.97609967
v -0.021665892 0.03492035 -0.9760978
v 0.021653669 0.03492035 -0.9760978
v 0.052305296 0.065565795 -0.97609574
v 0.08291071 0.12157684 -0.985637
v 0.034323864 0.17014419 -0.9856404
v -0.034343265 0.17014419 -0.9856404
v -0.08291078 0.12157684 -0.98564315
v -0.08291078 0.052890167 -0.98564315
v -0.034343265 0.0043131257 -0.9856404
v 0.034323864 0.0043131257 -0.9856404
v 0.08291071 0.052890167 -0.985637
v 0.08291071 0.12157684 -0.9951799
v 0.034323864 0.17014419 -0.99518293
v -0.034343265 0.17014419 -0.99518293
v -0.08291078 0.12157684 -0.995186
v -0.08291078 0.052890167 -0.995186
v -0.034343265 0.0043131257 -0.99518293
v 0.034323864 0.0043131257 -0.99518293
v 0.08291071 0.052890167 -0.9951799
v 0.07015497 0.11629242 -0.9951805
v 0.029043166 0.15738769 -0.99518293
v -0.029059594 0.15738769 -0.99518293
v -0.07015504 0.11629242 -0.9951854
v -0.07015504 0.058173064 -0.9951854
v -0.029059594 0.017069625 -0.99518293
v 0.029043166 0.017069625 -0.99518293
v 0.07015497 0.058173064 -0.9951805
v 0.043918237 0.10542312 -0.9753697
v 0.018181508 0.13114944 -0.97537094
v -0.01819182 0.13114944 -0.97537094
v -0.043918304 0.10542312 -0.97537273
v -0.043918304 0.06903931 -0.97537273
v -0.01819182 0.043307874 -0.97537094
v 0.018181508 0.043307874 -0.97537094
v 0.043918237 0.06903931 -0.9753697
v 0.025067993 0.09761383 -0.8039198
v 0.010377782 0.11229812 -0.80392075
v -0.0103837 0.11229812 -0.80392075
v -0.025068058 0.09761383 -0.80392224
v -0.025068058 0.076846465 -0.80392224
v -0.0103837 0.06215927 -0.80392075
v 0.010377782 0.06215927 -0.80392075
v 0.025067993 0.076846465 -0.8039198
v 0.020244865 0.13613388 -0.8908583
v 0.012056505 0.11635345 -0.80392104
v -0.020256294 0.13613388 -0.8908583
v -0.01206331 0.11635345 -0.80392104
v -0.020256294 0.038323592 -0.8908583
v -0.01206331 0.058104094 -0.80392104
v 0.020244865 0.038323592 -0.8908583
v 0.012056505 0.058104094 -0.80392104
v -0.029123003 0.07516708 -0.80392194
v -0.0489023 0.06697525 -0.89086014
v -0.0489023 0.10748795 -0.89086014
v -0.029123003 0.09929382 -0.80392194
v 0.029122977 0.09929382 -0.8039201
v 0.048902277 0.10748795 -0.89085644
v 0.048902277 0.06697525 -0.89085644
v 0.029122977 0.07516708 -0.8039201
v 0.020244865 0.13613388 -0.8908583
v 0.048902277 0.10748795 -0.89085644
v -0.020256294 0.13613388 -0.8908583
v 0.021653669 0.13953705 -0.9760978
v 0.020244865 0.13613388 -0.8908583
v -0.0489023 0.10748795 -0.89086014
v -0.021665892 0.13953705 -0.9760978
v -0.020256294 0.13613388 -0.8908583
v -0.020256294 0.038323592 -0.8908583
v -0.0489023 0.06697525 -0.89086014
v 0.020244865 0.038323592 -0.8908583
v -0.021665892 0.03492035 -0.9760978
v -0.020256294 0.038323592 -0.8908583
v 0.048902277 0.06697525 -0.89085644
v 0.021653669 0.03492035 -0.9760978
v 0.020244865 0.038323592 -0.8908583
v -0.0489023 0.06697525 -0.89086014
v -0.052305322 0.065565795 -0.97609967
v -0.052305322 0.1088977 -0.97609967
v -0.0489023 0.10748795 -0.89086014
v 0.048902277 0.10748795 -0.89085644
v 0.052305296 0.1088977 -0.97609574
v 0.052305296 0.065565795 -0.97609574
v 0.048902277 0.06697525 -0.89085644
v 0.021653669 0.13953705 -0.9760978
v 0.052305296 0.1088977 -0.97609574
v -0.021665892 0.13953705 -0.9760978
v 0.034323864 0.17014419 -0.9856404
v 0.021653669 0.13953705 -0.9760978
v -0.052305322 0.1088977 -0.97609967
v -0.034343265 0.17014419 -0.9856404
v -0.021665892 0.13953705 -0.9760978
v -0.021665892 0.03492035 -0.9760978
v -0.052305322 0.065565795 -0.97609967
v 0.021653669 0.03492035 -0.9760978
v -0.034343265 0.0043131257 -0.9856404
v -0.021665892 0.03492035 -0.9760978
v 0.052305296 0.065565795 -0.97609574
v 0.034323864 0.0043131257 -0.9856404
v 0.021653669 0.03492035 -0.9760978
v -0.052305322 0.065565795 -0.97609967
v -0.08291078 0.052890167 -0.98564315
v -0.08291078 0.12157684 -0.98564315
v -0.052305322 0.1088977 -0.97609967
v 0.052305296 0.1088977 -0.97609574
v 0.08291071 0.12157684 -0.985637
v 0.08291071 0.052890167 -0.985637
v 0.052305296 0.065565795 -0.97609574
v 0.034323864 0.17014419 -0.9856404
v 0.08291071 0.12157684 -0.985637
v -0.034343265 0.17014419 -0.9856404
v 0.034323864 0.17014419 -0.99518293
v 0.034323864 0.17014419 -0.9856404
v -0.08291078 0.12157684 -0.98564315
v -0.034343265 0.17014419 -0.99518293
v -0.034343265 0.17014419 -0.9856404
v -0.034343265 0.0043131257 -0.9856404
v -0.08291078 0.052890167 -0.98564315
v 0.034323864 0.0043131257 -0.9856404
v -0.034343265 0.0043131257 -0.99518293
v -0.034343265 0.0043131257 -0.9856404
v 0.08291071 0.052890167 -0.985637
v 0.034323864 0.0043131257 -0.99518293
v 0.034323864 0.0043131257 -0.9856404
v -0.08291078 0.052890167 -0.98564315
v -0.08291078 0.052890167 -0.995186
v -0.08291078 0.12157684 -0.995186
v -0.08291078 0.12157684 -0.98564315
v 0.08291071 0.12157684 -0.985637
v 0.08291071 0.12157684 -0.9951799
v 0.08291071 0.052890167 -0.9951799
v 0.08291071 0.052890167 -0.985637
v 0.034323864 0.17014419 -0.99518293
v 0.08291071 0.12157684 -0.9951799
v -0.034343265 0.17014419 -0.99518293
v -0.08291078 0.12157684 -0.995186
v -0.034343265 0.0043131257 -0.99518293
v -0.08291078 0.052890167 -0.995186
v 0.034323864 0.0043131257 -0.99518293
v 0.08291071 0.052890167 -0.9951799
v 0.029043166 0.15738769 -0.99518293
v 0.07015497 0.11629242 -0.9951805
v -0.029059594 0.15738769 -0.99518293
v 0.018181508 0.13114944 -0.97537094
v 0.029043166 0.15738769 -0.99518293
v -0.07015504 0.11629242 -0.9951854
v -0.01819182 0.13114944 -0.97537094
v -0.029059594 0.15738769 -0.99518293
v -0.029059594 0.017069625 -0.99518293
v -0.07015504 0.058173064 -0.9951854
v 0.029043166 0.017069625 -0.99518293
v -0.01819182 0.043307874 -0.97537094
v -0.029059594 0.017069625 -0.99518293
v 0.07015497 0.058173064 -0.9951805
v 0.018181508 0.043307874 -0.97537094
v 0.029043166 0.017069625 -0.99518293
v -0.07015504 0.058173064 -0.9951854
v -0.043918304 0.06903931 -0.97537273
v -0.043918304 0.10542312 -0.97537273
v -0.07015504 0.11629242 -0.9951854
v 0.07015497 0.11629242 -0.9951805
v 0.043918237 0.10542312 -0.9753697
v 0.043918237 0.06903931 -0.9753697
v 0.07015497 0.058173064 -0.9951805
v 0.018181508 0.13114944 -0.97537094
v 0.043918237 0.10542312 -0.9753697
v -0.01819182 0.13114944 -0.97537094
v 0.010377782 0.11229812 -0.80392075
v 0.018181508 0.13114944 -0.97537094
v -0.043918304 0.10542312 -0.97537273
v -0.0103837 0.11229812 -0.80392075
v -0.01819182 0.13114944 -0.97537094
v -0.01819182 0.043307874 -0.97537094
v -0.043918304 0.06903931 -0.97537273
v 0.018181508 0.043307874 -0.97537094
v -0.0103837 0.06215927 -0.80392075
v -0.01819182 0.043307874 -0.97537094
v 0.043918237 0.06903931 -0.9753697
v 0.010377782 0.06215927 -0.80392075
v 0.018181508 0.043307874 -0.97537094
v -0.043918304 0.06903931 -0.97537273
v -0.025068058 0.076846465 -0.80392224
v -0.025068058 0.09761383 -0.80392224
v -0.043918304 0.10542312 -0.97537273
v 0.043918237 0.10542312 -0.9753697
v 0.025067993 0.09761383 -0.8039198
v 0.025067993 0.076846465 -0.8039198
v 0.043918237 0.06903931 -0.9753697
vt 0.4340053 0.63367105
vt 0.4340081 0.71003234
vt 0.4340081 0.71003234
vt 0.43401077 0.63367105
vt 0.43401077 0.5256766
vt 0.4340081 0.44930056
vt 0.4340081 0.44930056
vt 0.4340053 0.5256766
vt 0.6933051 0.67034906
vt 0.6933105 0.798572
vt 0.6933105 0.798572
vt 0.69331586 0.67034906
vt 0.69331586 0.48900887
vt 0.6933105 0.36076027
vt 0.6933105 0.36076027
vt 0.6933051 0.48900887
vt 0.94754297 0.6766593
vt 0.9475493 0.813805
vt 0.9475493 0.813805
vt 0.94755495 0.6766593
vt 0.94755495 0.48269996
vt 0.9475493 0.34552726
vt 0.9475493 0.34552726
vt 0.94754297 0.48269996
vt 0.3780716 0.7251094
vt 0.30045015 0.8026996
vt 0.19074877 0.8026996
vt 0.11315806 0.7251094
vt 0.11315806 0.6153769
vt 0.19074877 0.53777117
vt 0.30045015 0.53777117
vt 0.3780716 0.6153769
vt 0.5210788 0.7001415
vt 0.5885196 0.76744276
vt 0.70696425 0.76740044
vt 0.77420664 0.70148575
vt 0.77444077 0.5802695
vt 0.7082155 0.5140317
vt 0.5871496 0.51402897
vt 0.5208206 0.5817255
vt 0.06547117 0.07800293
vt 0.06547141 0.07800293
vt 0.06547141 0.07800293
vt 0.06547117 0.07800293
vt 0.06547117 0.07800293
vt 0.06547141 0.07800293
vt 0.06547141 0.07800293
vt 0.06547117 0.07800293
vt 0.06547117 0.07800293
vt 0.06547141 0.07800293
vt 0.06547129 0.07800293
vt 0.06547141 0.07800293
vt 0.06547141 0.07800293
vt 0.06547129 0.07800293
vt 0.06547141 0.07800293
vt 0.06547117 0.07800293
vt 0.057026148 0.073783875
vt 0.05702603 0.073783875
vt 0.05702603 0.073783875
vt 0.057026148 0.073783875
vt 0.057026148 0.073783875
vt 0.05702603 0.073783875
vt 0.05702603 0.073783875
vt 0.057026148 0.073783875
vt 0.6933105 0.798572
vt 0.4340081 0.71003234
vt 0.6933105 0.798572
vt 0.4340081 0.71003234
vt 0.6933105 0.36076027
vt 0.4340081 0.44930056
vt 0.6933105 0.36076027
vt 0.4340081 0.44930056
vt 0.43401077 0.5256766
vt 0.69331586 0.48900887
vt 0.69331586 0.67034906
vt 0.43401077 0.63367105
vt 0.4340053 0.63367105
vt 0.6933051 0.67034906
vt 0.6933051 0.48900887
vt 0.4340053 0.5256766
vt 0.6933105 0.798572
vt 0.6933051 0.67034906
vt 0.6933105 0.798572
vt 0.9475493 0.813805
vt 0.6933105 0.798572
vt 0.69331586 0.67034906
vt 0.9475493 0.813805
vt 0.6933105 0.798572
vt 0.6933105 0.36076027
vt 0.69331586 0.48900887
vt 0.6933105 0.36076027
vt 0.9475493 0.34552726
vt 0.6933105 0.36076027
vt 0.6933051 0.48900887
vt 0.9475493 0.34552726
vt 0.6933105 0.36076027
vt 0.69331586 0.48900887
vt 0.94755495 0.48269996
vt 0.94755495 0.6766593
vt 0.69331586 0.67034906
vt 0.6933051 0.67034906
vt 0.94754297 0.6766593
vt 0.94754297 0.48269996
vt 0.6933051 0.48900887
vt 0.2802084 0.75380236
vt 0.32917696 0.7048534
vt 0.21100171 0.75380236
vt 0.30045015 0.8026996
vt 0.2802084 0.75380236
vt 0.1620527 0.7048534
vt 0.19074877 0.8026996
vt 0.21100171 0.75380236
vt 0.21100171 0.58666867
vt 0.1620527 0.6356271
vt 0.2802084 0.58666867
vt 0.19074877 0.53777117
vt 0.21100171 0.58666867
vt 0.32917696 0.6356271
vt 0.30045015 0.53777117
vt 0.2802084 0.58666867
vt 0.1620527 0.6356271
vt 0.11315806 0.6153769
vt 0.11315806 0.7251094
vt 0.1620527 0.7048534
vt 0.32917696 0.7048534
vt 0.3780716 0.7251094
vt 0.3780716 0.6153769
vt 0.32917696 0.6356271
vt 0.57979035 0.77743834
vt 0.5080588 0.70437837
vt 0.71116745 0.78041846
vt 0.5885196 0.76744276
vt 0.57979035 0.77743834
vt 0.78716505 0.7069298
vt 0.70696425 0.76740044
vt 0.71116745 0.78041846
vt 0.7136054 0.50101995
vt 0.78745365 0.5748795
vt 0.5817603 0.5010165
vt 0.7082155 0.5140317
vt 0.7136054 0.50101995
vt 0.5106576 0.5731189
vt 0.5871496 0.51402897
vt 0.5817603 0.5010165
vt 0.78745365 0.5748795
vt 0.77444077 0.5802695
vt 0.77420664 0.70148575
vt 0.78716505 0.7069298
vt 0.5080588 0.70437837
vt 0.5210788 0.7001415
vt 0.5208206 0.5817255
vt 0.5106576 0.5731189
vt 0.06547141 0.07800293
vt 0.06547165 0.07800293
vt 0.06547141 0.07800293
vt 0.06547117 0.07800293
vt 0.06547141 0.07800293
vt 0.06547117 0.07800293
vt 0.06547141 0.07800293
vt 0.06547165 0.07800293
vt 0.06547141 0.07800293
vt 0.06547117 0.07800293
vt 0.06547141 0.07800293
vt 0.06547141 0.07800293
vt 0.06547141 0.07800293
vt 0.06547117 0.07800293
vt 0.06547129 0.07800293
vt 0.06547141 0.07800293
vt 0.06547141 0.07800293
vt 0.06547117 0.07800293
vt 0.06547141 0.07800293
vt 0.06547129 0.07800293
vt 0.06547141 0.07800293
vt 0.06547117 0.07800293
vt 0.06547141 0.07800293
vt 0.06547141 0.07800293
vt 0.06547117 0.07800293
vt 0.06547141 0.07800293
vt 0.06547141 0.07800293
vt 0.06547117 0.07800293
vt 0.06547117 0.07800293
vt 0.06547117 0.07800293
vt 0.06547117 0.07800293
vt 0.06547117 0.07800293
vt 0.057026148 0.073783875
vt 0.057026386 0.073783875
vt 0.05702603 0.073783875
vt 0.05702603 0.073783875
vt 0.057026148 0.073783875
vt 0.057026148 0.073783875
vt 0.05702603 0.073783875
vt 0.05702603 0.073783875
vt 0.05702603 0.073783875
vt 0.057026148 0.073783875
vt 0.057026148 0.073783875
vt 0.05702603 0.073783875
vt 0.05702603 0.073783875
vt 0.057026386 0.073783875
vt 0.05702603 0.073783875
vt 0.057026148 0.073783875
vt 0.057026148 0.073783875
vt 0.057026148 0.073783875
vt 0.057026148 0.073783875
vt 0.057026148 0.073783875
vt 0.057026386 0.073783875
vt 0.057026148 0.073783875
vt 0.057026148 0.073783875
vt 0.057026386 0.073783875
vn 0.6893435 0.68963325 0.22183652
vn 0.6893435 0.68963325 0.22183652
vn -0 0.9750796 0.22185527
vn -0.6894916 0.6894804 0.22185166
vn -0.6895617 -0.68941283 0.22184323
vn -0.6895617 -0.68941283 0.22184323
vn -0 -0.9750794 0.22185615
vn 0.6894135 -0.68956614 0.2218281
vn 0.6893435 0.68963325 0.22183652
vn 0.6893435 0.68963325 0.22183652
vn -0 0.9750796 0.22185527
vn -0.6894916 0.6894804 0.22185166
vn -0.6895617 -0.68941283 0.22184323
vn -0.6895617 -0.68941283 0.22184323
vn -0 -0.9750794 0.22185615
vn 0.6894135 -0.68956614 0.2218281
vn 0.7064009 0.70668703 0.03988944
vn 0.7064009 0.70668703 0.03988944
vn -0 0.999204 0.039892886
vn -0.7065439 0.7065439 0.039892636
vn -0.70661473 -0.70647305 0.03989175
vn -0.70661473 -0.70647305 0.03989175
vn -0 -0.999204 0.039893873
vn 0.70647126 -0.7066167 0.039888512
vn 0.210398 0.21054745 0.954674
vn 0.210398 0.21054745 0.954674
vn -0 0.29764423 0.95467687
vn -0.21050352 0.21045046 0.9546721
vn -0.21053419 -0.21043694 0.9546684
vn -0.21053419 -0.21043694 0.9546684
vn -0 -0.29764363 0.95467705
vn 0.21042709 -0.210534 0.95467055
vn 0.7069656 0.7072479 0
vn 0.7069656 0.7072479 0
vn -0 1 0
vn -0.70710623 0.70710725 0
vn -0.7071761 -0.70703745 0
vn -0.7071761 -0.70703745 0
vn -0 -1 0
vn 0.70703554 -0.7071781 0
vn 5.093777E-05 -6.850746E-06 -1
vn 2.4525341E-05 -6.850988E-06 -1
vn 2.2640286E-05 6.85734E-06 -1
vn 4.528058E-05 6.8570976E-06 -1
vn 4.5279277E-05 -6.856887E-06 -1
vn 2.2639557E-05 -6.857119E-06 -1
vn 2.4524581E-05 6.850775E-06 -1
vn 5.0936338E-05 6.850543E-06 -1
vn -0.42600647 -0.42622203 -0.7980309
vn -0.42600647 -0.42622203 -0.7980309
vn -0 -0.60259235 -0.79804915
vn 0.4261302 -0.42607984 -0.7980407
vn 0.42618275 0.42604885 -0.79802924
vn 0.42618275 0.42604885 -0.79802924
vn -0 0.60259205 -0.79804933
vn -0.426059 0.42619112 -0.7980193
vn -0.70272684 -0.7030166 -0.10928343
vn -0.70272684 -0.7030166 -0.10928343
vn -0 -0.9940095 -0.109293506
vn 0.70287335 -0.7028685 -0.10929225
vn 0.7029436 0.70279896 -0.10928801
vn 0.7029436 0.70279896 -0.10928801
vn -0 0.9940095 -0.10929393
vn -0.70279664 0.7029472 -0.10927934
vn -0 0.9750796 0.22185527
vn -0 0.9750796 0.22185527
vn -0.6894916 0.6894804 0.22185166
vn -0.6894916 0.6894804 0.22185166
vn -0 -0.9750794 0.22185615
vn -0 -0.9750794 0.22185615
vn 0.6894135 -0.68956614 0.2218281
vn 0.6894135 -0.68956614 0.2218281
vn -0.97508293 0 0.2218408
vn -0.97508293 0 0.2218408
vn -0.97508293 0 0.2218408
vn -0.97508293 0 0.2218408
vn 0.97508186 0 0.22184539
vn 0.97508186 0 0.22184539
vn 0.97508186 0 0.22184539
vn 0.97508186 0 0.22184539
vn 0.7064009 0.70668703 0.03988944
vn 0.7064009 0.70668703 0.03988944
vn -0 0.999204 0.039892886
vn -0 0.999204 0.039892886
vn -0 0.999204 0.039892886
vn -0.7065439 0.7065439 0.039892636
vn -0.7065439 0.7065439 0.039892636
vn -0.7065439 0.7065439 0.039892636
vn -0.70661473 -0.70647305 0.03989175
vn -0.70661473 -0.70647305 0.03989175
vn -0 -0.999204 0.039893873
vn -0 -0.999204 0.039893873
vn -0 -0.999204 0.039893873
vn 0.70647126 -0.7066167 0.039888512
vn 0.70647126 -0.7066167 0.039888512
vn 0.70647126 -0.7066167 0.039888512
vn -0.9992041 0 0.039891254
vn -0.9992041 0 0.039891254
vn -0.9992041 0 0.039891254
vn -0.9992041 0 0.039891254
vn 0.9992041 0 0.039891385
vn 0.9992041 0 0.039891385
vn 0.9992041 0 0.039891385
vn 0.9992041 0 0.039891385
vn 0.210398 0.21054745 0.954674
vn 0.210398 0.21054745 0.954674
vn -0 0.29764423 0.95467687
vn -0 0.29764423 0.95467687
vn -0 0.29764423 0.95467687
vn -0.21050352 0.21045046 0.9546721
vn -0.21050352 0.21045046 0.9546721
vn -0.21050352 0.21045046 0.9546721
vn -0.21053419 -0.21043694 0.9546684
vn -0.21053419 -0.21043694 0.9546684
vn -0 -0.29764363 0.95467705
vn -0 -0.29764363 0.95467705
vn -0 -0.29764363 0.95467705
vn 0.21042709 -0.210534 0.95467055
vn 0.21042709 -0.210534 0.95467055
vn 0.21042709 -0.210534 0.95467055
vn -0.29768482 0 0.9546641
vn -0.29768482 0 0.9546641
vn -0.29768482 0 0.9546641
vn -0.29768482 0 0.9546641
vn 0.29762653 0 0.9546824
vn 0.29762653 0 0.9546824
vn 0.29762653 0 0.9546824
vn 0.29762653 0 0.9546824
vn 0.7069656 0.7072479 0
vn 0.7069656 0.7072479 0
vn -0 1 0
vn -0 1 0
vn -0 1 0
vn -0.70710623 0.70710725 0
vn -0.70710623 0.70710725 0
vn -0.70710623 0.70710725 0
vn -0.7071761 -0.70703745 0
vn -0.7071761 -0.70703745 0
vn -0 -1 0
vn -0 -1 0
vn -0 -1 0
vn 0.70703554 -0.7071781 0
vn 0.70703554 -0.7071781 0
vn 0.70703554 -0.7071781 0
vn -1 0 0
vn -1 0 0
vn -1 0 0
vn -1 0 0
vn 1 0 0
vn 1 0 0
vn 1 0 0
vn 1 0 0
vn 2.4521512E-05 -6.8499185E-06 -1
vn 5.0937884E-05 -6.8503246E-06 -1
vn 2.2639813E-05 6.857196E-06 -1
vn 4.5280587E-05 6.857602E-06 -1
vn 2.2637552E-05 -6.8565114E-06 -1
vn 4.5279285E-05 -6.8569034E-06 -1
vn 2.4519095E-05 6.8492427E-06 -1
vn 5.0936582E-05 6.8496356E-06 -1
vn -0.42600647 -0.42622203 -0.7980309
vn -0.42600647 -0.42622203 -0.7980309
vn -0 -0.60259235 -0.79804915
vn -0 -0.60259235 -0.79804915
vn -0 -0.60259235 -0.79804915
vn 0.4261302 -0.42607984 -0.7980407
vn 0.4261302 -0.42607984 -0.7980407
vn 0.4261302 -0.42607984 -0.7980407
vn 0.42618275 0.42604885 -0.79802924
vn 0.42618275 0.42604885 -0.79802924
vn -0 0.60259205 -0.79804933
vn -0 0.60259205 -0.79804933
vn -0 0.60259205 -0.79804933
vn -0.426059 0.42619112 -0.7980193
vn -0.426059 0.42619112 -0.7980193
vn -0.426059 0.42619112 -0.7980193
vn 0.6026265 0 -0.7980234
vn 0.6026265 0 -0.7980234
vn 0.6026265 0 -0.7980234
vn 0.6026265 0 -0.7980234
vn -0.60259145 0 -0.79804987
vn -0.60259145 0 -0.79804987
vn -0.60259145 0 -0.79804987
vn -0.60259145 0 -0.79804987
vn -0.70272684 -0.7030166 -0.10928343
vn -0.70272684 -0.7030166 -0.10928343
vn -0 -0.9940095 -0.109293506
vn -0 -0.9940095 -0.109293506
vn -0 -0.9940095 -0.109293506
vn 0.70287335 -0.7028685 -0.10929225
vn 0.70287335 -0.7028685 -0.10929225
vn 0.70287335 -0.7028685 -0.10929225
vn 0.7029436 0.70279896 -0.10928801
vn 0.7029436 0.70279896 -0.10928801
vn -0 0.9940095 -0.10929393
vn -0 0.9940095 -0.10929393
vn -0 0.9940095 -0.10929393
vn -0.70279664 0.7029472 -0.10927934
vn -0.70279664 0.7029472 -0.10927934
vn -0.70279664 0.7029472 -0.10927934
vn 0.9940102 0 -0.10928717
vn 0.9940102 0 -0.10928717
vn 0.9940102 0 -0.10928717
vn 0.9940102 0 -0.10928717
vn -0.9940102 0 -0.109287485
vn -0.9940102 0 -0.109287485
vn -0.9940102 0 -0.109287485
vn -0.9940102 0 -0.109287485
g SM_Wep_RPG_Back_0
f 9/9/9 10/10/10 2/2/2
f 1/1/1 9/9/9 2/2/2
f 65/65/65 11/11/11 3/3/3
f 66/66/66 65/65/65 3/3/3
f 67/67/67 12/12/12 4/4/4
f 68/68/68 67/67/67 4/4/4
f 13/13/13 14/14/14 6/6/6
f 5/5/5 13/13/13 6/6/6
f 69/69/69 15/15/15 7/7/7
f 70/70/70 69/69/69 7/7/7
f 71/71/71 16/16/16 8/8/8
f 72/72/72 71/71/71 8/8/8
f 75/75/75 74/74/74 73/73/73
f 76/76/76 75/75/75 73/73/73
f 79/79/79 78/78/78 77/77/77
f 80/80/80 79/79/79 77/77/77
f 17/17/17 18/18/18 81/81/81
f 82/82/82 17/17/17 81/81/81
f 84/84/84 19/19/19 83/83/83
f 85/85/85 84/84/84 83/83/83
f 87/87/87 20/20/20 86/86/86
f 88/88/88 87/87/87 86/86/86
f 21/21/21 22/22/22 89/89/89
f 90/90/90 21/21/21 89/89/89
f 92/92/92 23/23/23 91/91/91
f 93/93/93 92/92/92 91/91/91
f 95/95/95 24/24/24 94/94/94
f 96/96/96 95/95/95 94/94/94
f 99/99/99 98/98/98 97/97/97
f 100/100/100 99/99/99 97/97/97
f 103/103/103 102/102/102 101/101/101
f 104/104/104 103/103/103 101/101/101
f 25/25/25 26/26/26 105/105/105
f 106/106/106 25/25/25 105/105/105
f 108/108/108 27/27/27 107/107/107
f 109/109/109 108/108/108 107/107/107
f 111/111/111 28/28/28 110/110/110
f 112/112/112 111/111/111 110/110/110
f 29/29/29 30/30/30 113/113/113
f 114/114/114 29/29/29 113/113/113
f 116/116/116 31/31/31 115/115/115
f 117/117/117 116/116/116 115/115/115
f 119/119/119 32/32/32 118/118/118
f 120/120/120 119/119/119 118/118/118
f 123/123/123 122/122/122 121/121/121
f 124/124/124 123/123/123 121/121/121
f 127/127/127 126/126/126 125/125/125
f 128/128/128 127/127/127 125/125/125
f 33/33/33 34/34/34 129/129/129
f 130/130/130 33/33/33 129/129/129
f 132/132/132 35/35/35 131/131/131
f 133/133/133 132/132/132 131/131/131
f 135/135/135 36/36/36 134/134/134
f 136/136/136 135/135/135 134/134/134
f 37/37/37 38/38/38 137/137/137
f 138/138/138 37/37/37 137/137/137
f 140/140/140 39/39/39 139/139/139
f 141/141/141 140/140/140 139/139/139
f 143/143/143 40/40/40 142/142/142
f 144/144/144 143/143/143 142/142/142
f 147/147/147 146/146/146 145/145/145
f 148/148/148 147/147/147 145/145/145
f 151/151/151 150/150/150 149/149/149
f 152/152/152 151/151/151 149/149/149
f 49/49/49 50/50/50 161/161/161
f 162/162/162 49/49/49 161/161/161
f 164/164/164 51/51/51 163/163/163
f 165/165/165 164/164/164 163/163/163
f 167/167/167 52/52/52 166/166/166
f 168/168/168 167/167/167 166/166/166
f 53/53/53 54/54/54 169/169/169
f 170/170/170 53/53/53 169/169/169
f 172/172/172 55/55/55 171/171/171
f 173/173/173 172/172/172 171/171/171
f 175/175/175 56/56/56 174/174/174
f 176/176/176 175/175/175 174/174/174
f 179/179/179 178/178/178 177/177/177
f 180/180/180 179/179/179 177/177/177
f 183/183/183 182/182/182 181/181/181
f 184/184/184 183/183/183 181/181/181
f 57/57/57 58/58/58 185/185/185
f 186/186/186 57/57/57 185/185/185
f 188/188/188 59/59/59 187/187/187
f 189/189/189 188/188/188 187/187/187
f 191/191/191 60/60/60 190/190/190
f 192/192/192 191/191/191 190/190/190
f 61/61/61 62/62/62 193/193/193
f 194/194/194 61/61/61 193/193/193
f 196/196/196 63/63/63 195/195/195
f 197/197/197 196/196/196 195/195/195
f 199/199/199 64/64/64 198/198/198
f 200/200/200 199/199/199 198/198/198
f 203/203/203 202/202/202 201/201/201
f 204/204/204 203/203/203 201/201/201
f 207/207/207 206/206/206 205/205/205
f 208/208/208 207/207/207 205/205/205
f 41/41/41 42/42/42 153/153/153
f 154/154/154 41/41/41 153/153/153
f 153/153/153 42/42/42 155/155/155
f 48/48/48 41/41/41 154/154/154
f 42/42/42 43/43/43 155/155/155
f 160/160/160 48/48/48 154/154/154
f 155/155/155 43/43/43 156/156/156
f 47/47/47 48/48/48 160/160/160
f 43/43/43 44/44/44 156/156/156
f 159/159/159 47/47/47 160/160/160
f 156/156/156 44/44/44 158/158/158
f 46/46/46 47/47/47 159/159/159
f 44/44/44 45/45/45 158/158/158
f 157/157/157 46/46/46 159/159/159
f 158/158/158 45/45/45 157/157/157
f 45/45/45 46/46/46 157/157/157
