g SM_Wep_Rifle_Laser_Mag_01
v -0.035659008 -0.044379063 -0.044379428
v -0.035659008 5.708574E-08 -0.06276184
v -0.048656277 5.708574E-08 -0.054991916
v -0.048656277 -0.03888483 -0.038884893
v -0.035659008 5.708574E-08 -0.06276184
v -0.035659008 0.04437948 -0.044379428
v -0.048656277 0.038884945 -0.038884893
v -0.048656277 5.708574E-08 -0.054991916
v -0.035659008 0.04437948 -0.044379428
v -0.035659008 0.06276175 -1.5692949E-07
v -0.048656277 0.054991663 -1.5692949E-07
v -0.048656277 0.038884945 -0.038884893
v -0.035659008 0.06276175 -1.5692949E-07
v -0.035659008 0.04437948 0.04437942
v -0.048656277 0.038884945 0.03888473
v -0.048656277 0.054991663 -1.5692949E-07
v -0.035659008 0.04437948 0.04437942
v -0.035659008 5.708574E-08 0.06276168
v -0.048656277 5.708574E-08 0.05499145
v -0.048656277 0.038884945 0.03888473
v -0.035659008 5.708574E-08 0.06276168
v -0.035659008 -0.044379063 0.04437942
v -0.048656277 -0.03888483 0.03888473
v -0.048656277 5.708574E-08 0.05499145
v -0.035659008 -0.044379063 0.04437942
v -0.035659008 -0.06276178 -1.5692949E-07
v -0.048656277 -0.05499155 -1.5692949E-07
v -0.048656277 -0.03888483 0.03888473
v -0.035659008 -0.06276178 -1.5692949E-07
v -0.035659008 -0.044379063 -0.044379428
v -0.048656277 -0.03888483 -0.038884893
v -0.048656277 -0.05499155 -1.5692949E-07
v -0.048656277 -0.033408906 -0.03340897
v -0.048656277 5.708574E-08 -0.047247622
v -0.041918244 5.708574E-08 -0.03243622
v -0.041918244 -0.02293558 -0.022935947
v -0.048656277 5.708574E-08 -0.047247622
v -0.048656277 0.033409633 -0.03340897
v -0.041918244 0.022936458 -0.022935947
v -0.041918244 5.708574E-08 -0.03243622
v -0.048656277 0.033409633 -0.03340897
v -0.048656277 0.047248285 -1.5692949E-07
v -0.041918244 0.03243658 -1.5692949E-07
v -0.041918244 0.022936458 -0.022935947
v -0.048656277 0.047248285 -1.5692949E-07
v -0.048656277 0.033409633 0.03340957
v -0.041918244 0.022936458 0.022936244
v -0.041918244 0.03243658 -1.5692949E-07
v -0.048656277 0.033409633 0.03340957
v -0.048656277 5.708574E-08 0.04724792
v -0.041918244 5.708574E-08 0.032436516
v -0.041918244 0.022936458 0.022936244
v -0.048656277 5.708574E-08 0.04724792
v -0.048656277 -0.033408906 0.03340957
v -0.041918244 -0.02293558 0.022936244
v -0.041918244 5.708574E-08 0.032436516
v -0.048656277 -0.033408906 0.03340957
v -0.048656277 -0.047247868 -1.5692949E-07
v -0.041918244 -0.032435857 -1.5692949E-07
v -0.041918244 -0.02293558 0.022936244
v -0.048656277 -0.047247868 -1.5692949E-07
v -0.048656277 -0.033408906 -0.03340897
v -0.041918244 -0.02293558 -0.022935947
v -0.041918244 -0.032435857 -1.5692949E-07
v 0.035659008 -0.044379063 -0.044379428
v 0.048656277 -0.03888483 -0.038884893
v 0.048656277 5.708574E-08 -0.054991916
v 0.035659008 5.708574E-08 -0.06276184
v 0.035659008 5.708574E-08 -0.06276184
v 0.048656277 5.708574E-08 -0.054991916
v 0.048656277 0.038884945 -0.038884893
v 0.035659008 0.04437948 -0.044379428
v 0.035659008 0.04437948 -0.044379428
v 0.048656277 0.038884945 -0.038884893
v 0.048656277 0.054991663 -1.5692949E-07
v 0.035659008 0.06276175 -1.5692949E-07
v 0.035659008 0.06276175 -1.5692949E-07
v 0.048656277 0.054991663 -1.5692949E-07
v 0.048656277 0.038884945 0.03888473
v 0.035659008 0.04437948 0.04437942
v 0.035659008 0.04437948 0.04437942
v 0.048656277 0.038884945 0.03888473
v 0.048656277 5.708574E-08 0.05499145
v 0.035659008 5.708574E-08 0.06276168
v 0.035659008 5.708574E-08 0.06276168
v 0.048656277 5.708574E-08 0.05499145
v 0.048656277 -0.03888483 0.03888473
v 0.035659008 -0.044379063 0.04437942
v 0.035659008 -0.044379063 0.04437942
v 0.048656277 -0.03888483 0.03888473
v 0.048656277 -0.05499155 -1.5692949E-07
v 0.035659008 -0.06276178 -1.5692949E-07
v 0.035659008 -0.06276178 -1.5692949E-07
v 0.048656277 -0.05499155 -1.5692949E-07
v 0.048656277 -0.03888483 -0.038884893
v 0.035659008 -0.044379063 -0.044379428
v 0.048656277 -0.033408906 -0.03340897
v 0.041918244 -0.02293558 -0.022935947
v 0.041918244 5.708574E-08 -0.03243622
v 0.048656277 5.708574E-08 -0.047247622
v 0.048656277 5.708574E-08 -0.047247622
v 0.041918244 5.708574E-08 -0.03243622
v 0.041918244 0.022936458 -0.022935947
v 0.048656277 0.033409633 -0.03340897
v 0.048656277 0.033409633 -0.03340897
v 0.041918244 0.022936458 -0.022935947
v 0.041918244 0.03243658 -1.5692949E-07
v 0.048656277 0.047248285 -1.5692949E-07
v 0.048656277 0.047248285 -1.5692949E-07
v 0.041918244 0.03243658 -1.5692949E-07
v 0.041918244 0.022936458 0.022936244
v 0.048656277 0.033409633 0.03340957
v 0.048656277 0.033409633 0.03340957
v 0.041918244 0.022936458 0.022936244
v 0.041918244 5.708574E-08 0.032436516
v 0.048656277 5.708574E-08 0.04724792
v 0.048656277 5.708574E-08 0.04724792
v 0.041918244 5.708574E-08 0.032436516
v 0.041918244 -0.02293558 0.022936244
v 0.048656277 -0.033408906 0.03340957
v 0.048656277 -0.033408906 0.03340957
v 0.041918244 -0.02293558 0.022936244
v 0.041918244 -0.032435857 -1.5692949E-07
v 0.048656277 -0.047247868 -1.5692949E-07
v 0.048656277 -0.047247868 -1.5692949E-07
v 0.041918244 -0.032435857 -1.5692949E-07
v 0.041918244 -0.02293558 -0.022935947
v 0.048656277 -0.033408906 -0.03340897
v -0.035659008 5.708574E-08 -0.06276184
v -0.035659008 -0.044379063 -0.044379428
v 0.035659008 -0.044379063 -0.044379428
v 0.035659008 5.708574E-08 -0.06276184
v -0.035659008 0.04437948 -0.044379428
v -0.035659008 5.708574E-08 -0.06276184
v 0.035659008 5.708574E-08 -0.06276184
v 0.035659008 0.04437948 -0.044379428
v -0.035659008 0.06276175 -1.5692949E-07
v -0.035659008 0.04437948 -0.044379428
v 0.035659008 0.04437948 -0.044379428
v 0.035659008 0.06276175 -1.5692949E-07
v -0.035659008 0.04437948 0.04437942
v -0.035659008 0.06276175 -1.5692949E-07
v 0.035659008 0.06276175 -1.5692949E-07
v 0.035659008 0.04437948 0.04437942
v -0.035659008 5.708574E-08 0.06276168
v -0.035659008 0.04437948 0.04437942
v 0.035659008 0.04437948 0.04437942
v 0.035659008 5.708574E-08 0.06276168
v -0.035659008 -0.044379063 0.04437942
v -0.035659008 5.708574E-08 0.06276168
v 0.035659008 5.708574E-08 0.06276168
v 0.035659008 -0.044379063 0.04437942
v -0.035659008 -0.06276178 -1.5692949E-07
v -0.035659008 -0.044379063 0.04437942
v 0.035659008 -0.044379063 0.04437942
v 0.035659008 -0.06276178 -1.5692949E-07
v -0.035659008 -0.044379063 -0.044379428
v -0.035659008 -0.06276178 -1.5692949E-07
v 0.035659008 -0.06276178 -1.5692949E-07
v 0.035659008 -0.044379063 -0.044379428
v -0.041918244 -0.02293558 -0.022935947
v -0.041918244 5.708574E-08 -0.03243622
v -0.041918244 5.708574E-08 -1.5692949E-07
v -0.041918244 -0.032435857 -1.5692949E-07
v -0.041918244 0.022936458 -0.022935947
v -0.041918244 -0.02293558 0.022936244
v -0.041918244 0.03243658 -1.5692949E-07
v -0.041918244 5.708574E-08 0.032436516
v -0.041918244 0.022936458 0.022936244
v 0.041918244 -0.02293558 -0.022935947
v 0.041918244 5.708574E-08 -1.5692949E-07
v 0.041918244 5.708574E-08 -0.03243622
v 0.041918244 -0.032435857 -1.5692949E-07
v 0.041918244 0.022936458 -0.022935947
v 0.041918244 -0.02293558 0.022936244
v 0.041918244 0.03243658 -1.5692949E-07
v 0.041918244 5.708574E-08 0.032436516
v 0.041918244 0.022936458 0.022936244
v -0.048656277 -0.03888483 -0.038884893
v -0.048656277 5.708574E-08 -0.047247622
v -0.048656277 -0.033408906 -0.03340897
v -0.048656277 5.708574E-08 -0.054991916
v -0.048656277 -0.05499155 -1.5692949E-07
v -0.048656277 0.033409633 -0.03340897
v -0.048656277 -0.047247868 -1.5692949E-07
v -0.048656277 0.038884945 -0.038884893
v -0.048656277 -0.03888483 0.03888473
v -0.048656277 0.047248285 -1.5692949E-07
v -0.048656277 -0.033408906 0.03340957
v -0.048656277 0.054991663 -1.5692949E-07
v -0.048656277 5.708574E-08 0.05499145
v -0.048656277 0.033409633 0.03340957
v -0.048656277 5.708574E-08 0.04724792
v -0.048656277 0.038884945 0.03888473
v 0.048656277 -0.03888483 -0.038884893
v 0.048656277 -0.033408906 -0.03340897
v 0.048656277 5.708574E-08 -0.047247622
v 0.048656277 5.708574E-08 -0.054991916
v 0.048656277 -0.05499155 -1.5692949E-07
v 0.048656277 0.033409633 -0.03340897
v 0.048656277 -0.047247868 -1.5692949E-07
v 0.048656277 0.038884945 -0.038884893
v 0.048656277 -0.03888483 0.03888473
v 0.048656277 0.047248285 -1.5692949E-07
v 0.048656277 -0.033408906 0.03340957
v 0.048656277 0.054991663 -1.5692949E-07
v 0.048656277 5.708574E-08 0.05499145
v 0.048656277 0.033409633 0.03340957
v 0.048656277 5.708574E-08 0.04724792
v 0.048656277 0.038884945 0.03888473
vt 0.993801 0.32474422
vt 0.993801 0.32474422
vt 0.993801 0.32474422
vt 0.993801 0.32474422
vt 0.993801 0.32474422
vt 0.993801 0.32474422
vt 0.993801 0.32474422
vt 0.993801 0.32474422
vt 0.993801 0.32474422
vt 0.993801 0.32474422
vt 0.993801 0.32474422
vt 0.993801 0.32474422
vt 0.993801 0.32474422
vt 0.993801 0.32474428
vt 0.993801 0.32474428
vt 0.993801 0.32474422
vt 0.993801 0.32474428
vt 0.993801 0.32474428
vt 0.993801 0.32474428
vt 0.993801 0.32474428
vt 0.993801 0.32474428
vt 0.993801 0.32474428
vt 0.993801 0.32474428
vt 0.993801 0.32474428
vt 0.993801 0.32474428
vt 0.993801 0.32474422
vt 0.993801 0.32474422
vt 0.993801 0.32474428
vt 0.993801 0.32474422
vt 0.993801 0.32474422
vt 0.993801 0.32474422
vt 0.993801 0.32474422
vt 0.45139027 0.029483795
vt 0.45139027 0.029483795
vt 0.45139027 0.029483795
vt 0.45139027 0.029483795
vt 0.45139027 0.029483795
vt 0.45139027 0.029483795
vt 0.45139027 0.029483795
vt 0.45139027 0.029483795
vt 0.45139027 0.029483795
vt 0.45139027 0.029483795
vt 0.45139027 0.029483795
vt 0.45139027 0.029483795
vt 0.45139027 0.029483795
vt 0.45139027 0.029483795
vt 0.45139027 0.029483795
vt 0.45139027 0.029483795
vt 0.45139027 0.029483795
vt 0.45139027 0.029483795
vt 0.45139027 0.029483795
vt 0.45139027 0.029483795
vt 0.45139027 0.029483795
vt 0.45139027 0.029483795
vt 0.45139027 0.029483795
vt 0.45139027 0.029483795
vt 0.45139027 0.029483795
vt 0.45139027 0.029483795
vt 0.45139027 0.029483795
vt 0.45139027 0.029483795
vt 0.45139027 0.029483795
vt 0.45139027 0.029483795
vt 0.45139027 0.029483795
vt 0.45139027 0.029483795
vt 0.993801 0.32474422
vt 0.993801 0.32474422
vt 0.993801 0.32474422
vt 0.993801 0.32474422
vt 0.993801 0.32474422
vt 0.993801 0.32474422
vt 0.993801 0.32474422
vt 0.993801 0.32474422
vt 0.993801 0.32474422
vt 0.993801 0.32474422
vt 0.993801 0.32474422
vt 0.993801 0.32474422
vt 0.993801 0.32474422
vt 0.993801 0.32474422
vt 0.993801 0.32474428
vt 0.993801 0.32474428
vt 0.993801 0.32474428
vt 0.993801 0.32474428
vt 0.993801 0.32474428
vt 0.993801 0.32474428
vt 0.993801 0.32474428
vt 0.993801 0.32474428
vt 0.993801 0.32474428
vt 0.993801 0.32474428
vt 0.993801 0.32474428
vt 0.993801 0.32474428
vt 0.993801 0.32474422
vt 0.993801 0.32474422
vt 0.993801 0.32474422
vt 0.993801 0.32474422
vt 0.993801 0.32474422
vt 0.993801 0.32474422
vt 0.45139027 0.029483795
vt 0.45139027 0.029483795
vt 0.45139027 0.029483795
vt 0.45139027 0.029483795
vt 0.45139027 0.029483795
vt 0.45139027 0.029483795
vt 0.45139027 0.029483795
vt 0.45139027 0.029483795
vt 0.45139027 0.029483795
vt 0.45139027 0.029483795
vt 0.45139027 0.029483795
vt 0.45139027 0.029483795
vt 0.45139027 0.029483795
vt 0.45139027 0.029483795
vt 0.45139027 0.029483795
vt 0.45139027 0.029483795
vt 0.45139027 0.029483795
vt 0.45139027 0.029483795
vt 0.45139027 0.029483795
vt 0.45139027 0.029483795
vt 0.45139027 0.029483795
vt 0.45139027 0.029483795
vt 0.45139027 0.029483795
vt 0.45139027 0.029483795
vt 0.45139027 0.029483795
vt 0.45139027 0.029483795
vt 0.45139027 0.029483795
vt 0.45139027 0.029483795
vt 0.45139027 0.029483795
vt 0.45139027 0.029483795
vt 0.45139027 0.029483795
vt 0.45139027 0.029483795
vt 0.993801 0.32474422
vt 0.993801 0.32474422
vt 0.993801 0.32474422
vt 0.993801 0.32474422
vt 0.993801 0.32474422
vt 0.993801 0.32474422
vt 0.993801 0.32474422
vt 0.993801 0.32474422
vt 0.993801 0.32474422
vt 0.993801 0.32474422
vt 0.993801 0.32474422
vt 0.993801 0.32474422
vt 0.993801 0.32474428
vt 0.993801 0.32474422
vt 0.993801 0.32474422
vt 0.993801 0.32474428
vt 0.993801 0.32474428
vt 0.993801 0.32474428
vt 0.993801 0.32474428
vt 0.993801 0.32474428
vt 0.993801 0.32474428
vt 0.993801 0.32474428
vt 0.993801 0.32474428
vt 0.993801 0.32474428
vt 0.993801 0.32474422
vt 0.993801 0.32474428
vt 0.993801 0.32474428
vt 0.993801 0.32474422
vt 0.993801 0.32474422
vt 0.993801 0.32474422
vt 0.993801 0.32474422
vt 0.993801 0.32474422
vt 0.2426704 0.24894051
vt 0.24267043 0.24894051
vt 0.24267043 0.24894051
vt 0.2426704 0.24894051
vt 0.24267043 0.24894051
vt 0.2426704 0.24894057
vt 0.24267043 0.24894051
vt 0.24267043 0.24894057
vt 0.24267043 0.24894057
vt 0.2426704 0.24894051
vt 0.24267043 0.24894051
vt 0.24267043 0.24894051
vt 0.2426704 0.24894051
vt 0.24267043 0.24894051
vt 0.2426704 0.24894057
vt 0.24267043 0.24894051
vt 0.24267043 0.24894057
vt 0.24267043 0.24894057
vt 0.993801 0.32474422
vt 0.993801 0.32474422
vt 0.993801 0.32474422
vt 0.993801 0.32474422
vt 0.993801 0.32474422
vt 0.993801 0.32474422
vt 0.993801 0.32474422
vt 0.993801 0.32474422
vt 0.993801 0.32474428
vt 0.993801 0.32474422
vt 0.993801 0.32474428
vt 0.993801 0.32474422
vt 0.993801 0.32474428
vt 0.993801 0.32474428
vt 0.993801 0.32474428
vt 0.993801 0.32474428
vt 0.993801 0.32474422
vt 0.993801 0.32474422
vt 0.993801 0.32474422
vt 0.993801 0.32474422
vt 0.993801 0.32474422
vt 0.993801 0.32474422
vt 0.993801 0.32474422
vt 0.993801 0.32474422
vt 0.993801 0.32474428
vt 0.993801 0.32474422
vt 0.993801 0.32474428
vt 0.993801 0.32474422
vt 0.993801 0.32474428
vt 0.993801 0.32474428
vt 0.993801 0.32474428
vt 0.993801 0.32474428
vn -0.4834775 -0.3349875 -0.80872303
vn -0.4834775 -0.3349875 -0.80872303
vn -0.4834775 -0.3349875 -0.80872303
vn -0.4834775 -0.3349875 -0.80872303
vn -0.48348057 0.3349858 -0.80872184
vn -0.48348057 0.3349858 -0.80872184
vn -0.48348057 0.3349858 -0.80872184
vn -0.48348057 0.3349858 -0.80872184
vn -0.48348427 0.8087211 -0.33498228
vn -0.48348427 0.8087211 -0.33498228
vn -0.48348427 0.8087211 -0.33498228
vn -0.48348427 0.8087211 -0.33498228
vn -0.48348573 0.80872107 0.33498043
vn -0.48348573 0.80872107 0.33498043
vn -0.48348573 0.80872107 0.33498043
vn -0.48348573 0.80872107 0.33498043
vn -0.4834915 0.33497968 0.80871785
vn -0.4834915 0.33497968 0.80871785
vn -0.4834915 0.33497968 0.80871785
vn -0.4834915 0.33497968 0.80871785
vn -0.48348847 -0.33498138 0.808719
vn -0.48348847 -0.33498138 0.808719
vn -0.48348847 -0.33498138 0.808719
vn -0.48348847 -0.33498138 0.808719
vn -0.48348206 -0.8087213 0.334985
vn -0.48348206 -0.8087213 0.334985
vn -0.48348206 -0.8087213 0.334985
vn -0.48348206 -0.8087213 0.334985
vn -0.4834806 -0.80872136 -0.33498687
vn -0.4834806 -0.80872136 -0.33498687
vn -0.4834806 -0.80872136 -0.33498687
vn -0.4834806 -0.80872136 -0.33498687
vn -0.8971353 0.16905408 0.40812862
vn -0.8971353 0.16905408 0.40812862
vn -0.8971353 0.16905408 0.40812862
vn -0.8971353 0.16905408 0.40812862
vn -0.8971349 -0.16905084 0.40813076
vn -0.8971349 -0.16905084 0.40813076
vn -0.8971349 -0.16905084 0.40813076
vn -0.8971349 -0.16905084 0.40813076
vn -0.8971372 -0.40812534 0.16905162
vn -0.8971372 -0.40812534 0.16905162
vn -0.8971372 -0.40812534 0.16905162
vn -0.8971372 -0.40812534 0.16905162
vn -0.897138 -0.40812552 -0.1690471
vn -0.897138 -0.40812552 -0.1690471
vn -0.897138 -0.40812552 -0.1690471
vn -0.897138 -0.40812552 -0.1690471
vn -0.89713675 -0.16904753 -0.40812817
vn -0.89713675 -0.16904753 -0.40812817
vn -0.89713675 -0.16904753 -0.40812817
vn -0.89713675 -0.16904753 -0.40812817
vn -0.8971371 0.16905078 -0.40812603
vn -0.8971371 0.16905078 -0.40812603
vn -0.8971371 0.16905078 -0.40812603
vn -0.8971371 0.16905078 -0.40812603
vn -0.89714074 0.4081193 -0.16904783
vn -0.89714074 0.4081193 -0.16904783
vn -0.89714074 0.4081193 -0.16904783
vn -0.89714074 0.4081193 -0.16904783
vn -0.89714 0.40811914 0.16905235
vn -0.89714 0.40811914 0.16905235
vn -0.89714 0.40811914 0.16905235
vn -0.89714 0.40811914 0.16905235
vn 0.4834775 -0.3349875 -0.80872303
vn 0.4834775 -0.3349875 -0.80872303
vn 0.4834775 -0.3349875 -0.80872303
vn 0.4834775 -0.3349875 -0.80872303
vn 0.48348057 0.3349858 -0.80872184
vn 0.48348057 0.3349858 -0.80872184
vn 0.48348057 0.3349858 -0.80872184
vn 0.48348057 0.3349858 -0.80872184
vn 0.48348427 0.8087211 -0.33498228
vn 0.48348427 0.8087211 -0.33498228
vn 0.48348427 0.8087211 -0.33498228
vn 0.48348427 0.8087211 -0.33498228
vn 0.48348573 0.80872107 0.33498043
vn 0.48348573 0.80872107 0.33498043
vn 0.48348573 0.80872107 0.33498043
vn 0.48348573 0.80872107 0.33498043
vn 0.4834915 0.33497968 0.80871785
vn 0.4834915 0.33497968 0.80871785
vn 0.4834915 0.33497968 0.80871785
vn 0.4834915 0.33497968 0.80871785
vn 0.48348847 -0.33498138 0.808719
vn 0.48348847 -0.33498138 0.808719
vn 0.48348847 -0.33498138 0.808719
vn 0.48348847 -0.33498138 0.808719
vn 0.48348206 -0.8087213 0.334985
vn 0.48348206 -0.8087213 0.334985
vn 0.48348206 -0.8087213 0.334985
vn 0.48348206 -0.8087213 0.334985
vn 0.4834806 -0.80872136 -0.33498687
vn 0.4834806 -0.80872136 -0.33498687
vn 0.4834806 -0.80872136 -0.33498687
vn 0.4834806 -0.80872136 -0.33498687
vn 0.8971353 0.16905408 0.40812862
vn 0.8971353 0.16905408 0.40812862
vn 0.8971353 0.16905408 0.40812862
vn 0.8971353 0.16905408 0.40812862
vn 0.8971349 -0.16905084 0.40813076
vn 0.8971349 -0.16905084 0.40813076
vn 0.8971349 -0.16905084 0.40813076
vn 0.8971349 -0.16905084 0.40813076
vn 0.8971372 -0.40812534 0.16905162
vn 0.8971372 -0.40812534 0.16905162
vn 0.8971372 -0.40812534 0.16905162
vn 0.8971372 -0.40812534 0.16905162
vn 0.897138 -0.40812552 -0.1690471
vn 0.897138 -0.40812552 -0.1690471
vn 0.897138 -0.40812552 -0.1690471
vn 0.897138 -0.40812552 -0.1690471
vn 0.89713675 -0.16904753 -0.40812817
vn 0.89713675 -0.16904753 -0.40812817
vn 0.89713675 -0.16904753 -0.40812817
vn 0.89713675 -0.16904753 -0.40812817
vn 0.8971371 0.16905078 -0.40812603
vn 0.8971371 0.16905078 -0.40812603
vn 0.8971371 0.16905078 -0.40812603
vn 0.8971371 0.16905078 -0.40812603
vn 0.89714074 0.4081193 -0.16904783
vn 0.89714074 0.4081193 -0.16904783
vn 0.89714074 0.4081193 -0.16904783
vn 0.89714074 0.4081193 -0.16904783
vn 0.89714 0.40811914 0.16905235
vn 0.89714 0.40811914 0.16905235
vn 0.89714 0.40811914 0.16905235
vn 0.89714 0.40811914 0.16905235
vn -0 -0.38268313 -0.9238796
vn -0 -0.38268313 -0.9238796
vn -0 -0.38268313 -0.9238796
vn -0 -0.38268313 -0.9238796
vn -0 0.38268086 -0.92388064
vn -0 0.38268086 -0.92388064
vn -0 0.38268086 -0.92388064
vn -0 0.38268086 -0.92388064
vn -0 0.92388123 -0.38267925
vn -0 0.92388123 -0.38267925
vn -0 0.92388123 -0.38267925
vn -0 0.92388123 -0.38267925
vn -0 0.9238822 0.382677
vn -0 0.9238822 0.382677
vn -0 0.9238822 0.382677
vn -0 0.9238822 0.382677
vn -0 0.3826782 0.92388177
vn -0 0.3826782 0.92388177
vn -0 0.3826782 0.92388177
vn -0 0.3826782 0.92388177
vn -0 -0.3826804 0.92388076
vn -0 -0.3826804 0.92388076
vn -0 -0.3826804 0.92388076
vn -0 -0.3826804 0.92388076
vn -0 -0.9238788 0.38268515
vn -0 -0.9238788 0.38268515
vn -0 -0.9238788 0.38268515
vn -0 -0.9238788 0.38268515
vn -0 -0.9238779 -0.38268748
vn -0 -0.9238779 -0.38268748
vn -0 -0.9238779 -0.38268748
vn -0 -0.9238779 -0.38268748
vn -1 0 0
vn -1 0 0
vn -1 0 0
vn -1 0 0
vn -1 0 0
vn -1 0 0
vn -1 0 0
vn -1 0 0
vn -1 0 0
vn 1 0 0
vn 1 0 0
vn 1 0 0
vn 1 0 0
vn 1 0 0
vn 1 0 0
vn 1 0 0
vn 1 0 0
vn 1 0 0
vn -1 0 0
vn -1 0 0
vn -1 0 0
vn -1 0 0
vn -1 0 0
vn -1 0 0
vn -1 0 0
vn -1 0 0
vn -1 0 0
vn -1 0 0
vn -1 0 0
vn -1 0 0
vn -1 0 0
vn -1 0 0
vn -1 0 0
vn -1 0 0
vn 1 0 0
vn 1 0 0
vn 1 0 0
vn 1 0 0
vn 1 0 0
vn 1 0 0
vn 1 0 0
vn 1 0 0
vn 1 0 0
vn 1 0 0
vn 1 0 0
vn 1 0 0
vn 1 0 0
vn 1 0 0
vn 1 0 0
vn 1 0 0
g SM_Wep_Rifle_Laser_Mag_01_0
f 3/3/3 2/2/2 1/1/1
f 4/4/4 3/3/3 1/1/1
f 7/7/7 6/6/6 5/5/5
f 8/8/8 7/7/7 5/5/5
f 11/11/11 10/10/10 9/9/9
f 12/12/12 11/11/11 9/9/9
f 15/15/15 14/14/14 13/13/13
f 16/16/16 15/15/15 13/13/13
f 19/19/19 18/18/18 17/17/17
f 20/20/20 19/19/19 17/17/17
f 23/23/23 22/22/22 21/21/21
f 24/24/24 23/23/23 21/21/21
f 27/27/27 26/26/26 25/25/25
f 28/28/28 27/27/27 25/25/25
f 31/31/31 30/30/30 29/29/29
f 32/32/32 31/31/31 29/29/29
f 35/35/35 34/34/34 33/33/33
f 36/36/36 35/35/35 33/33/33
f 39/39/39 38/38/38 37/37/37
f 40/40/40 39/39/39 37/37/37
f 43/43/43 42/42/42 41/41/41
f 44/44/44 43/43/43 41/41/41
f 47/47/47 46/46/46 45/45/45
f 48/48/48 47/47/47 45/45/45
f 51/51/51 50/50/50 49/49/49
f 52/52/52 51/51/51 49/49/49
f 55/55/55 54/54/54 53/53/53
f 56/56/56 55/55/55 53/53/53
f 59/59/59 58/58/58 57/57/57
f 60/60/60 59/59/59 57/57/57
f 63/63/63 62/62/62 61/61/61
f 64/64/64 63/63/63 61/61/61
f 67/67/67 66/66/66 65/65/65
f 68/68/68 67/67/67 65/65/65
f 71/71/71 70/70/70 69/69/69
f 72/72/72 71/71/71 69/69/69
f 75/75/75 74/74/74 73/73/73
f 76/76/76 75/75/75 73/73/73
f 79/79/79 78/78/78 77/77/77
f 80/80/80 79/79/79 77/77/77
f 83/83/83 82/82/82 81/81/81
f 84/84/84 83/83/83 81/81/81
f 87/87/87 86/86/86 85/85/85
f 88/88/88 87/87/87 85/85/85
f 91/91/91 90/90/90 89/89/89
f 92/92/92 91/91/91 89/89/89
f 95/95/95 94/94/94 93/93/93
f 96/96/96 95/95/95 93/93/93
f 99/99/99 98/98/98 97/97/97
f 100/100/100 99/99/99 97/97/97
f 103/103/103 102/102/102 101/101/101
f 104/104/104 103/103/103 101/101/101
f 107/107/107 106/106/106 105/105/105
f 108/108/108 107/107/107 105/105/105
f 111/111/111 110/110/110 109/109/109
f 112/112/112 111/111/111 109/109/109
f 115/115/115 114/114/114 113/113/113
f 116/116/116 115/115/115 113/113/113
f 119/119/119 118/118/118 117/117/117
f 120/120/120 119/119/119 117/117/117
f 123/123/123 122/122/122 121/121/121
f 124/124/124 123/123/123 121/121/121
f 127/127/127 126/126/126 125/125/125
f 128/128/128 127/127/127 125/125/125
f 131/131/131 130/130/130 129/129/129
f 132/132/132 131/131/131 129/129/129
f 135/135/135 134/134/134 133/133/133
f 136/136/136 135/135/135 133/133/133
f 139/139/139 138/138/138 137/137/137
f 140/140/140 139/139/139 137/137/137
f 143/143/143 142/142/142 141/141/141
f 144/144/144 143/143/143 141/141/141
f 147/147/147 146/146/146 145/145/145
f 148/148/148 147/147/147 145/145/145
f 151/151/151 150/150/150 149/149/149
f 152/152/152 151/151/151 149/149/149
f 155/155/155 154/154/154 153/153/153
f 156/156/156 155/155/155 153/153/153
f 159/159/159 158/158/158 157/157/157
f 160/160/160 159/159/159 157/157/157
f 163/163/163 162/162/162 161/161/161
f 163/163/163 161/161/161 164/164/164
f 163/163/163 165/165/165 162/162/162
f 163/163/163 164/164/164 166/166/166
f 163/163/163 167/167/167 165/165/165
f 163/163/163 166/166/166 168/168/168
f 163/163/163 169/169/169 167/167/167
f 163/163/163 168/168/168 169/169/169
f 172/172/172 171/171/171 170/170/170
f 170/170/170 171/171/171 173/173/173
f 174/174/174 171/171/171 172/172/172
f 173/173/173 171/171/171 175/175/175
f 176/176/176 171/171/171 174/174/174
f 175/175/175 171/171/171 177/177/177
f 178/178/178 171/171/171 176/176/176
f 177/177/177 171/171/171 178/178/178
f 181/181/181 180/180/180 179/179/179
f 180/180/180 182/182/182 179/179/179
f 181/181/181 179/179/179 183/183/183
f 180/180/180 184/184/184 182/182/182
f 185/185/185 181/181/181 183/183/183
f 184/184/184 186/186/186 182/182/182
f 185/185/185 183/183/183 187/187/187
f 184/184/184 188/188/188 186/186/186
f 189/189/189 185/185/185 187/187/187
f 188/188/188 190/190/190 186/186/186
f 189/189/189 187/187/187 191/191/191
f 188/188/188 192/192/192 190/190/190
f 193/193/193 189/189/189 191/191/191
f 192/192/192 194/194/194 190/190/190
f 193/193/193 191/191/191 194/194/194
f 192/192/192 193/193/193 194/194/194
f 197/197/197 196/196/196 195/195/195
f 198/198/198 197/197/197 195/195/195
f 195/195/195 196/196/196 199/199/199
f 200/200/200 197/197/197 198/198/198
f 196/196/196 201/201/201 199/199/199
f 202/202/202 200/200/200 198/198/198
f 199/199/199 201/201/201 203/203/203
f 204/204/204 200/200/200 202/202/202
f 201/201/201 205/205/205 203/203/203
f 206/206/206 204/204/204 202/202/202
f 203/203/203 205/205/205 207/207/207
f 208/208/208 204/204/204 206/206/206
f 205/205/205 209/209/209 207/207/207
f 210/210/210 208/208/208 206/206/206
f 207/207/207 209/209/209 210/210/210
f 209/209/209 208/208/208 210/210/210
