g stone05
v -0.08860862 0.04327217 0.22153784
v -0.2820423 0.055848595 0.13813424
v -0.18278481 0.12927637 0.24244842
v -0.10934275 0.030681426 -0.32032323
v -0.13548653 0.0063252016 -0.28184152
v -0.07469105 0.017802708 -0.30454433
v -0.180898 0.4769259 0.0001514128
v -0.2928241 0.31131315 0.161049
v -0.15787904 0.39273235 -0.18180463
v 0.20723411 0.0064522945 -0.06984845
v -0.13548653 0.0063252016 -0.28184152
v -0.08860862 0.04327217 0.22153784
v 0.25676268 0.07411769 -0.11914331
v 0.33648193 0.33482128 -0.01365535
v -0.15787904 0.39273235 -0.18180463
v 0.17540628 0.013081805 -0.20029768
v -0.07469105 0.017802708 -0.30454433
v -0.10934275 0.030681426 -0.32032323
v 0.3430664 0.34056678 0.024576746
v 0.33648193 0.33482128 -0.01365535
v 0.25676268 0.07411769 -0.11914331
v 0.299735 0.024913736 0.10444029
v -0.29243794 0.04629407 0.012704626
v -0.13548653 0.0063252016 -0.28184152
v -0.10934275 0.030681426 -0.32032323
v -0.15787904 0.39273235 -0.18180463
v -0.2928241 0.31131315 0.161049
v 0.10638796 0.34996238 0.2476798
v 0.14029853 0.022185449 0.26333266
v -0.08860862 0.04327217 0.22153784
v 0.026227998 0.4628887 0.23700577
v -0.14407067 0.35610336 0.23314913
v -0.18278481 0.12927637 0.24244842
v -0.180898 0.4769259 0.0001514128
v -0.15787904 0.39273235 -0.18180463
v 0.33648193 0.33482128 -0.01365535
v 0.3430664 0.34056678 0.024576746
v 0.1441036 0.4685754 0.15719205
v 0.07477825 0.513178 0.2033997
v -0.2928241 0.31131315 0.161049
v -0.180898 0.4769259 0.0001514128
v 0.07477825 0.513178 0.2033997
v -0.14407067 0.35610336 0.23314913
v 0.026227998 0.4628887 0.23700577
v 0.17540628 0.013081805 -0.20029768
v 0.20723411 0.0064522945 -0.06984845
v 0.299735 0.024913736 0.10444029
v 0.25676268 0.07411769 -0.11914331
v 0.20723411 0.0064522945 -0.06984845
v 0.17540628 0.013081805 -0.20029768
v -0.07469105 0.017802708 -0.30454433
v -0.13548653 0.0063252016 -0.28184152
v 0.07477825 0.513178 0.2033997
v 0.1441036 0.4685754 0.15719205
v 0.10638796 0.34996238 0.2476798
v 0.026227998 0.4628887 0.23700577
v 0.1441036 0.4685754 0.15719205
v 0.3430664 0.34056678 0.024576746
v 0.299735 0.024913736 0.10444029
v 0.14029853 0.022185449 0.26333266
v 0.10638796 0.34996238 0.2476798
v -0.2820423 0.055848595 0.13813424
v -0.29243794 0.04629407 0.012704626
v -0.2928241 0.31131315 0.161049
v -0.18278481 0.12927637 0.24244842
v -0.14407067 0.35610336 0.23314913
v -0.08860862 0.04327217 0.22153784
v -0.13548653 0.0063252016 -0.28184152
v -0.29243794 0.04629407 0.012704626
v -0.2820423 0.055848595 0.13813424
v 0.299735 0.024913736 0.10444029
v 0.20723411 0.0064522945 -0.06984845
v -0.08860862 0.04327217 0.22153784
v 0.14029853 0.022185449 0.26333266
vt 0.17288367 0.78819484
vt 0.15457833 0.8118669
vt 0.17344642 0.8000849
vt 0.18977992 0.8213125
vt 0.18871377 0.82479346
vt 0.19069368 0.82112586
vt 0.18551631 0.81168294
vt 0.18018897 0.8105438
vt 0.1865303 0.8151069
vt 0.20268792 0.8159046
vt 0.18871377 0.82479346
vt 0.23014927 0.83604205
vt 0.19821182 0.81333715
vt 0.19310142 0.8096734
vt 0.1865303 0.8151069
vt 0.19681147 0.8168809
vt 0.19069368 0.82112586
vt 0.18977992 0.8213125
vt 0.19309096 0.8090579
vt 0.19310142 0.8096734
vt 0.19821182 0.81333715
vt 0.21082495 0.8005657
vt 0.15457833 0.8339209
vt 0.18871377 0.82479346
vt 0.18977992 0.8213125
vt 0.1865303 0.8151069
vt 0.18018897 0.8105438
vt 0.1884179 0.80525506
vt 0.19587457 0.7879444
vt 0.17288367 0.78819484
vt 0.18686928 0.8076981
vt 0.18327121 0.80699676
vt 0.17344642 0.8000849
vt 0.18551631 0.81168294
vt 0.1865303 0.8151069
vt 0.19310142 0.8096734
vt 0.19309096 0.8090579
vt 0.1887971 0.8085945
vt 0.187524 0.80848074
vt 0.18018897 0.8105438
vt 0.18551631 0.81168294
vt 0.187524 0.80848074
vt 0.18327121 0.80699676
vt 0.18686928 0.8076981
vt 0.19681147 0.8168809
vt 0.20268792 0.8159046
vt 0.21082495 0.8005657
vt 0.19821182 0.81333715
vt 0.20268792 0.8159046
vt 0.19681147 0.8168809
vt 0.19069368 0.82112586
vt 0.18871377 0.82479346
vt 0.187524 0.80848074
vt 0.1887971 0.8085945
vt 0.1884179 0.80525506
vt 0.18686928 0.8076981
vt 0.1887971 0.8085945
vt 0.19309096 0.8090579
vt 0.21082495 0.8005657
vt 0.19587457 0.7879444
vt 0.1884179 0.80525506
vt 0.15457833 0.8118669
vt 0.15457833 0.8339209
vt 0.18018897 0.8105438
vt 0.17344642 0.8000849
vt 0.18327121 0.80699676
vt 0.23014927 0.83604205
vt 0.18871377 0.82479346
vt 0.20757778 0.8461184
vt 0.21786577 0.84902626
vt 0.21082495 0.8005657
vt 0.20268792 0.8159046
vt 0.23014927 0.83604205
vt 0.23154385 0.811422
vn -0.35626626 -0.57011116 0.7403025
vn -0.35626626 -0.57011116 0.7403025
vn -0.35626626 -0.57011116 0.7403025
vn -0.052723404 -0.8272235 -0.5593938
vn -0.052723404 -0.8272235 -0.5593938
vn -0.052723404 -0.8272235 -0.5593938
vn -0.89899963 0.3429212 -0.27240533
vn -0.89899963 0.3429212 -0.27240533
vn -0.89899963 0.3429212 -0.27240533
vn -0.04758449 -0.99585426 0.07752496
vn -0.04758449 -0.99585426 0.07752496
vn -0.04758449 -0.99585426 0.07752496
vn 0.37753284 0.334185 -0.86359096
vn 0.37753284 0.334185 -0.86359096
vn 0.37753284 0.334185 -0.86359096
vn 0.37753284 0.334185 -0.86359096
vn 0.37753284 0.334185 -0.86359096
vn 0.37753284 0.334185 -0.86359096
vn 0.95729667 -0.19488616 -0.21354721
vn 0.95729667 -0.19488616 -0.21354721
vn 0.95729667 -0.19488616 -0.21354721
vn 0.95729667 -0.19488616 -0.21354721
vn -0.9013323 0.12045095 -0.41604286
vn -0.9013323 0.12045095 -0.41604286
vn -0.9013323 0.12045095 -0.41604286
vn -0.9013323 0.12045095 -0.41604286
vn -0.9013323 0.12045095 -0.41604286
vn -0.06828828 0.00012948112 0.99766564
vn -0.06828828 0.00012948112 0.99766564
vn -0.06828828 0.00012948112 0.99766564
vn -0.06828828 0.00012948112 0.99766564
vn -0.06828828 0.00012948112 0.99766564
vn -0.06828828 0.00012948112 0.99766564
vn 0.24180663 0.8820906 -0.404284
vn 0.24180663 0.8820906 -0.404284
vn 0.24180663 0.8820906 -0.404284
vn 0.24180663 0.8820906 -0.404284
vn 0.24180663 0.8820906 -0.404284
vn 0.24180663 0.8820906 -0.404284
vn -0.46808425 0.7531817 0.46218443
vn -0.46808425 0.7531817 0.46218443
vn -0.46808425 0.7531817 0.46218443
vn -0.46808425 0.7531817 0.46218443
vn -0.46808425 0.7531817 0.46218443
vn 0.68390507 -0.6845031 -0.2524466
vn 0.68390507 -0.6845031 -0.2524466
vn 0.68390507 -0.6845031 -0.2524466
vn 0.68390507 -0.6845031 -0.2524466
vn 0.049893554 -0.9929032 -0.10795297
vn 0.049893554 -0.9929032 -0.10795297
vn 0.049893554 -0.9929032 -0.10795297
vn 0.049893554 -0.9929032 -0.10795297
vn 0.52143425 0.3160202 0.79261434
vn 0.52143425 0.3160202 0.79261434
vn 0.52143425 0.3160202 0.79261434
vn 0.52143425 0.3160202 0.79261434
vn 0.68799466 0.1376692 0.7125381
vn 0.68799466 0.1376692 0.7125381
vn 0.68799466 0.1376692 0.7125381
vn 0.68799466 0.1376692 0.7125381
vn 0.68799466 0.1376692 0.7125381
vn -0.77017754 -0.008534314 0.63777244
vn -0.77017754 -0.008534314 0.63777244
vn -0.77017754 -0.008534314 0.63777244
vn -0.77017754 -0.008534314 0.63777244
vn -0.77017754 -0.008534314 0.63777244
vn -0.09908412 -0.9916648 0.08236015
vn -0.09908412 -0.9916648 0.08236015
vn -0.09908412 -0.9916648 0.08236015
vn -0.09908412 -0.9916648 0.08236015
vn -0.035115317 -0.9985784 0.040099274
vn -0.035115317 -0.9985784 0.040099274
vn -0.035115317 -0.9985784 0.040099274
vn -0.035115317 -0.9985784 0.040099274
g stone05_0
f 3/3/3 2/2/2 1/1/1
f 6/6/6 5/5/5 4/4/4
f 9/9/9 8/8/8 7/7/7
f 12/12/12 11/11/11 10/10/10
f 15/15/15 14/14/14 13/13/13
f 13/13/13 16/16/16 15/15/15
f 16/16/16 17/17/17 15/15/15
f 17/17/17 18/18/18 15/15/15
f 21/21/21 20/20/20 19/19/19
f 22/22/22 21/21/21 19/19/19
f 25/25/25 24/24/24 23/23/23
f 23/23/23 26/26/26 25/25/25
f 23/23/23 27/27/27 26/26/26
f 30/30/30 29/29/29 28/28/28
f 28/28/28 31/31/31 30/30/30
f 31/31/31 32/32/32 30/30/30
f 32/32/32 33/33/33 30/30/30
f 36/36/36 35/35/35 34/34/34
f 34/34/34 37/37/37 36/36/36
f 34/34/34 38/38/38 37/37/37
f 34/34/34 39/39/39 38/38/38
f 42/42/42 41/41/41 40/40/40
f 40/40/40 43/43/43 42/42/42
f 43/43/43 44/44/44 42/42/42
f 47/47/47 46/46/46 45/45/45
f 48/48/48 47/47/47 45/45/45
f 51/51/51 50/50/50 49/49/49
f 52/52/52 51/51/51 49/49/49
f 55/55/55 54/54/54 53/53/53
f 56/56/56 55/55/55 53/53/53
f 59/59/59 58/58/58 57/57/57
f 57/57/57 60/60/60 59/59/59
f 57/57/57 61/61/61 60/60/60
f 64/64/64 63/63/63 62/62/62
f 62/62/62 65/65/65 64/64/64
f 65/65/65 66/66/66 64/64/64
f 69/69/69 68/68/68 67/67/67
f 70/70/70 69/69/69 67/67/67
f 73/73/73 72/72/72 71/71/71
f 74/74/74 73/73/73 71/71/71
