g Support7
v -1.4984282E-06 -0.10833502 1.2223616
v 0.5121998 -0.10833496 1.2223606
v 0.5122008 -0.8214276 1.2223606
v -5.4475385E-07 -0.8214276 1.2223616
v 4.0892044E-07 0 0.8128805
v 0.5122008 -5.9604645E-08 0.81287956
v 0.5121998 -0.10833496 1.2223606
v -1.4984282E-06 -0.10833502 1.2223616
v 0.5122008 0.7819844 0.81287956
v 0.5122008 -5.9604645E-08 0.81287956
v 4.0892044E-07 0 0.8128805
v 4.0892044E-07 0.7819844 0.8128805
v 0.5122008 8.396172 0.81287956
v 4.0892044E-07 8.396172 0.8128805
v 0.51220363 10.007157 0.81287956
v 1.3625947E-06 10.007157 0.8128805
v -1.4984282E-06 -0.10833502 -8.996697E-09
v -5.4475385E-07 -0.8214276 1.2223616
v -5.4475385E-07 -0.8214276 -8.996697E-09
v -1.4984282E-06 -0.10833502 1.2223616
v 4.0892044E-07 0 -8.996697E-09
v 4.0892044E-07 0 0.8128805
v 4.0892044E-07 0.7819844 -8.996697E-09
v 4.0892044E-07 0.7819844 0.8128805
v 4.0892044E-07 8.396172 -8.996697E-09
v 4.0892044E-07 8.396172 0.8128805
v 1.3625947E-06 10.007157 -8.996697E-09
v 1.3625947E-06 10.007157 0.8128805
v 2.1375585 -0.8214276 -8.996697E-09
v 2.1375585 -0.8214276 1.2223577
v 2.1375585 -0.10833496 1.2223577
v 2.1375585 -0.10833496 -8.996697E-09
v 2.1375585 0 0.8128767
v 2.1375585 0 -3.823694E-06
v 2.1375585 0.7819844 0.8128767
v 2.1375585 0.7819844 -3.823694E-06
v 2.1375585 8.396172 -3.823694E-06
v 2.1375585 8.396172 0.8128767
v 2.1375585 10.007157 0.8128767
v 2.1375585 10.007157 -3.823694E-06
v 1.625357 -0.10833496 1.2223597
v 2.1375585 -0.10833496 1.2223577
v 2.1375585 -0.8214276 1.2223577
v 1.6253589 -0.8214276 1.2223597
v 1.6253589 -5.9604645E-08 0.8128786
v 2.1375585 0 0.8128767
v 2.1375585 -0.10833496 1.2223577
v 1.625357 -0.10833496 1.2223597
v 2.1375585 0.7819844 0.8128767
v 2.1375585 0 0.8128767
v 1.6253589 -5.9604645E-08 0.8128786
v 1.6253589 0.7819844 0.8128786
v 1.6253589 8.396172 0.8128786
v 2.1375585 8.396172 0.8128767
v 2.1375585 10.007157 0.8128767
v 1.6253599 10.007157 0.8128786
v 0.680859 -0.10833496 0.82744503
v 1.4566978 -0.10833496 0.8274441
v 1.4566997 -0.8214276 0.8274441
v 0.680859 -0.8214276 0.82744503
v 0.68086 -5.9604645E-08 0.41796398
v 1.4566997 -5.9604645E-08 0.41796303
v 1.4566978 -0.10833496 0.8274441
v 0.680859 -0.10833496 0.82744503
v 1.4566997 0.7819844 0.41796303
v 1.4566997 -5.9604645E-08 0.41796303
v 0.68086 -5.9604645E-08 0.41796398
v 0.680859 0.7819844 0.41796398
v 0.680859 8.396172 0.41796398
v 1.4566997 8.396172 0.41796303
v 1.4567007 10.007157 0.41796303
v 0.6808619 10.007157 0.41796398
v 0.5121998 -0.10833496 1.2223606
v 0.680859 -0.10833496 0.82744503
v 0.680859 -0.8214276 0.82744503
v 0.5122008 -0.8214276 1.2223606
v 1.6253589 -0.8214276 1.2223597
v 1.4566997 -0.8214276 0.8274441
v 1.4566978 -0.10833496 0.8274441
v 1.625357 -0.10833496 1.2223597
v 0.5122008 -5.9604645E-08 0.81287956
v 0.68086 -5.9604645E-08 0.41796398
v 0.680859 -0.10833496 0.82744503
v 0.5121998 -0.10833496 1.2223606
v 1.625357 -0.10833496 1.2223597
v 1.4566978 -0.10833496 0.8274441
v 1.4566997 -5.9604645E-08 0.41796303
v 1.6253589 -5.9604645E-08 0.8128786
v 0.5122008 0.7819844 0.81287956
v 0.68086 -5.9604645E-08 0.41796398
v 0.5122008 -5.9604645E-08 0.81287956
v 0.680859 0.7819844 0.41796398
v 0.5122008 8.396172 0.81287956
v 0.680859 8.396172 0.41796398
v 0.51220363 10.007157 0.81287956
v 0.6808619 10.007157 0.41796398
v 1.6253589 -5.9604645E-08 0.8128786
v 1.4566997 -5.9604645E-08 0.41796303
v 1.4566997 0.7819844 0.41796303
v 1.6253589 0.7819844 0.8128786
v 1.6253589 8.396172 0.8128786
v 1.4566997 8.396172 0.41796303
v 1.4567007 10.007157 0.41796303
v 1.6253599 10.007157 0.8128786
v 1.6253599 10.007157 0.8128786
v 1.4567007 10.007157 0.41796303
v 0.6808619 10.007157 0.41796398
v 0.51220363 10.007157 0.81287956
vt 0.2639481 0.13764746
vt 0.26473317 0.13764746
vt 0.26473317 0.1365545
vt 0.2639481 0.1365545
vt 0.2629607 0.13785656
vt 0.2629607 0.13707145
vt 0.26233307 0.13707145
vt 0.26233307 0.13785656
vt 0.25951782 0.1365151
vt 0.25951782 0.13531654
vt 0.25873277 0.13531654
vt 0.25873277 0.1365151
vt 0.25951782 0.14818563
vt 0.25873277 0.14818563
vt 0.25951782 0.1506549
vt 0.25873277 0.1506549
vt 0.2630224 0.13640954
vt 0.2642683 0.13531654
vt 0.2630224 0.13531654
vt 0.2642683 0.13640954
vt 0.26239476 0.13657553
vt 0.26364067 0.13657553
vt 0.26239476 0.13777412
vt 0.26364067 0.13777412
vt 0.26239476 0.14944468
vt 0.26364067 0.14944468
vt 0.26239476 0.15191399
vt 0.26364067 0.15191399
vt 0.2584153 0.13531654
vt 0.2571694 0.13531654
vt 0.2571694 0.13640954
vt 0.2584153 0.13640954
vt 0.25779697 0.13657553
vt 0.25904295 0.13657553
vt 0.25779697 0.13777412
vt 0.25904295 0.13777412
vt 0.25904295 0.14944468
vt 0.25779697 0.14944468
vt 0.25779697 0.15191399
vt 0.25904295 0.15191399
vt 0.26306185 0.13764746
vt 0.26384696 0.13764746
vt 0.26384696 0.1365545
vt 0.26306185 0.1365545
vt 0.26223186 0.15148877
vt 0.26223186 0.15070365
vt 0.26160428 0.15070365
vt 0.26160428 0.15148877
vt 0.26042286 0.1365151
vt 0.26042286 0.13531654
vt 0.25963774 0.13531654
vt 0.25963774 0.1365151
vt 0.25963774 0.14818563
vt 0.26042286 0.14818563
vt 0.26042286 0.1506549
vt 0.25963774 0.1506549
vt 0.36037484 0.46416023
vt 0.36037484 0.46281156
vt 0.35913518 0.46281153
vt 0.35913518 0.46416023
vt 0.36125162 0.4641603
vt 0.36125162 0.46281156
vt 0.36053976 0.46281156
vt 0.36053976 0.4641603
vt 0.3604413 0.46610582
vt 0.3604413 0.4647464
vt 0.3590925 0.4647464
vt 0.3590925 0.46610582
vt 0.3590925 0.47934267
vt 0.3604413 0.47934267
vt 0.36044124 0.4821433
vt 0.3590925 0.4821433
vt 0.2564954 0.13640954
vt 0.25710067 0.13640954
vt 0.25710067 0.13531654
vt 0.2564954 0.13531654
vt 0.26493695 0.13531654
vt 0.26433167 0.13531654
vt 0.26433167 0.13640954
vt 0.26493695 0.13640954
vt 0.25712302 0.13657553
vt 0.2577283 0.13657553
vt 0.25710067 0.13640954
vt 0.2564954 0.13640954
vt 0.26493695 0.13640954
vt 0.26433167 0.13640954
vt 0.26370403 0.13657553
vt 0.26430938 0.13657553
vt 0.25712302 0.13777412
vt 0.2577283 0.13657553
vt 0.25712302 0.13657553
vt 0.2577283 0.13777412
vt 0.25712302 0.14944468
vt 0.2577283 0.14944468
vt 0.25712302 0.15191399
vt 0.2577283 0.15191399
vt 0.26430938 0.13657553
vt 0.26370403 0.13657553
vt 0.26370403 0.13777412
vt 0.26430938 0.13777412
vt 0.26430938 0.14944468
vt 0.26370403 0.14944468
vt 0.26370403 0.15191399
vt 0.26430938 0.15191399
vt 0.26248172 0.13531654
vt 0.26187643 0.13557504
vt 0.26187643 0.13676418
vt 0.26248172 0.13702269
vn -0 0 1
vn -0 0 1
vn -0 0 1
vn -0 0 1
vn -0 0.9667386 0.2557666
vn -0 0.9667386 0.2557666
vn -0 0.9667386 0.25576654
vn -0 0.9667386 0.25576657
vn -0 0 1
vn -0 0 1
vn -0 0 1
vn -0 0 1
vn -0 0 1
vn -0 0 1
vn -0 0 1
vn -0 0 1
vn -1 0 0
vn -1 0 0
vn -1 0 0
vn -1 0 0
vn -1 2.5951753E-05 0
vn -1 2.5951753E-05 0
vn -1 0 0
vn -1 0 0
vn -1 0 0
vn -1 0 0
vn -1 0 0
vn -1 0 0
vn 1 0 0
vn 1 0 0
vn 1 0 0
vn 1 0 0
vn 1 0 0
vn 1 0 0
vn 1 0 0
vn 1 0 0
vn 1 0 0
vn 1 0 0
vn 1 0 0
vn 1 0 0
vn -0 0 1
vn -0 0 1
vn -0 0 1
vn -0 0 1
vn -0 0.9667387 0.25576648
vn -0 0.9667387 0.25576648
vn -0 0.9667386 0.25576648
vn -0 0.9667387 0.25576648
vn -0 0 1
vn -0 0 1
vn -0 0 1
vn -0 0 1
vn -0 0 1
vn -0 0 1
vn -0 0 1
vn -0 0 1
vn -0 0 1
vn -0 0 1
vn -0 0 1
vn -0 0 1
vn -0 0.9667387 0.25576633
vn -0 0.9667387 0.25576636
vn -0 0.9667387 0.25576633
vn -0 0.9667387 0.25576633
vn -0 0 1
vn -0 0 1
vn -0 0 1
vn -0 0 1
vn -0 0 1
vn -0 0 1
vn -0 0 1
vn -0 0 1
vn 0.91964245 0 0.39275658
vn 0.91964245 0 0.3927566
vn 0.91964245 0 0.3927566
vn 0.91964245 0 0.39275658
vn -0.9196421 0 0.39275756
vn -0.9196421 0 0.3927575
vn -0.9196421 0 0.39275756
vn -0.9196421 0 0.3927575
vn 0.5137901 0.82938 0.2194277
vn 0.51378995 0.82938015 0.21942769
vn 0.5137901 0.82938 0.2194277
vn 0.51378995 0.82938015 0.21942769
vn -0.5137827 0.82938546 0.21942455
vn -0.5137827 0.82938546 0.21942453
vn -0.5137827 0.82938546 0.21942455
vn -0.5137827 0.82938546 0.21942453
vn 0.91964245 0 0.3927567
vn 0.91964245 0 0.39275673
vn 0.91964245 0 0.3927567
vn 0.91964245 0 0.39275667
vn 0.9196427 0 0.3927561
vn 0.9196427 0 0.3927561
vn 0.919643 0 0.39275545
vn 0.919643 0 0.39275545
vn -0.9196421 0 0.39275762
vn -0.9196421 0 0.39275762
vn -0.9196421 0 0.39275762
vn -0.9196421 0 0.39275762
vn -0.91964227 0 0.39275712
vn -0.91964227 0 0.39275712
vn -0.9196421 0 0.39275748
vn -0.9196421 0 0.39275745
vn -0 -1 0
vn -0 -1 0
vn -0 -1 0
vn -0 -1 0
g Support7_0
f 3/3/3 2/2/2 1/1/1
f 4/4/4 3/3/3 1/1/1
f 7/7/7 6/6/6 5/5/5
f 8/8/8 7/7/7 5/5/5
f 11/11/11 10/10/10 9/9/9
f 12/12/12 11/11/11 9/9/9
f 12/12/12 9/9/9 13/13/13
f 14/14/14 12/12/12 13/13/13
f 14/14/14 13/13/13 15/15/15
f 16/16/16 14/14/14 15/15/15
f 19/19/19 18/18/18 17/17/17
f 18/18/18 20/20/20 17/17/17
f 17/17/17 20/20/20 21/21/21
f 20/20/20 22/22/22 21/21/21
f 21/21/21 22/22/22 23/23/23
f 22/22/22 24/24/24 23/23/23
f 25/25/25 23/23/23 24/24/24
f 26/26/26 25/25/25 24/24/24
f 25/25/25 26/26/26 27/27/27
f 26/26/26 28/28/28 27/27/27
f 31/31/31 30/30/30 29/29/29
f 32/32/32 31/31/31 29/29/29
f 33/33/33 31/31/31 32/32/32
f 34/34/34 33/33/33 32/32/32
f 35/35/35 33/33/33 34/34/34
f 36/36/36 35/35/35 34/34/34
f 36/36/36 37/37/37 35/35/35
f 37/37/37 38/38/38 35/35/35
f 39/39/39 38/38/38 37/37/37
f 40/40/40 39/39/39 37/37/37
f 43/43/43 42/42/42 41/41/41
f 44/44/44 43/43/43 41/41/41
f 47/47/47 46/46/46 45/45/45
f 48/48/48 47/47/47 45/45/45
f 51/51/51 50/50/50 49/49/49
f 52/52/52 51/51/51 49/49/49
f 53/53/53 52/52/52 49/49/49
f 54/54/54 53/53/53 49/49/49
f 53/53/53 54/54/54 55/55/55
f 56/56/56 53/53/53 55/55/55
f 59/59/59 58/58/58 57/57/57
f 60/60/60 59/59/59 57/57/57
f 63/63/63 62/62/62 61/61/61
f 64/64/64 63/63/63 61/61/61
f 67/67/67 66/66/66 65/65/65
f 68/68/68 67/67/67 65/65/65
f 69/69/69 68/68/68 65/65/65
f 70/70/70 69/69/69 65/65/65
f 69/69/69 70/70/70 71/71/71
f 72/72/72 69/69/69 71/71/71
f 75/75/75 74/74/74 73/73/73
f 76/76/76 75/75/75 73/73/73
f 79/79/79 78/78/78 77/77/77
f 80/80/80 79/79/79 77/77/77
f 83/83/83 82/82/82 81/81/81
f 84/84/84 83/83/83 81/81/81
f 87/87/87 86/86/86 85/85/85
f 88/88/88 87/87/87 85/85/85
f 91/91/91 90/90/90 89/89/89
f 90/90/90 92/92/92 89/89/89
f 93/93/93 89/89/89 92/92/92
f 94/94/94 93/93/93 92/92/92
f 93/93/93 94/94/94 95/95/95
f 94/94/94 96/96/96 95/95/95
f 99/99/99 98/98/98 97/97/97
f 100/100/100 99/99/99 97/97/97
f 100/100/100 101/101/101 99/99/99
f 101/101/101 102/102/102 99/99/99
f 103/103/103 102/102/102 101/101/101
f 104/104/104 103/103/103 101/101/101
f 107/107/107 106/106/106 105/105/105
f 108/108/108 107/107/107 105/105/105
