g Wall_002
v 0.10002641 -2 0.9999998
v -0.23420434 -0.00041946428 1.119969
v 0.046722144 0.0004192684 1.119969
v 0.10002641 -2 0.9999998
v -0.42312127 -1.298136E-07 1
v -0.23420434 -0.00041946428 1.119969
v -1 -2 0.9999998
v -1 -1.298136E-07 1
v -0.42312127 -1.298136E-07 1
v 0.10002641 -2 0.9999998
v 1 -2 0.9999998
v 0.10002641 -2 0.9999998
v 0.046722144 0.0004192684 1.119969
v 1 -1.298136E-07 1
v -0.42312127 -1.298136E-07 1
v 1 -1.298136E-07 1
v 0.046722144 0.0004192684 1.119969
v -0.23420434 -0.00041946428 1.119969
vt 0.3827632 0.3007674
vt 0.34379146 0.5339212
vt 0.37632862 0.5340192
vt 0.3827632 0.3007674
vt 0.32176358 0.5339701
vt 0.34379146 0.5339212
vt 0.25449866 0.3007674
vt 0.25449866 0.5339701
vt 0.32176358 0.5339701
vt 0.3827632 0.3007674
vt 0.48770133 0.3007674
vt 0.3827632 0.3007674
vt 0.37632862 0.5340192
vt 0.48792058 0.53397
vt 0.32350963 0.554762
vt 0.48792058 0.53397
vt 0.37632862 0.5340192
vt 0.34361127 0.53812367
vn 0.00017876425 -0.059859738 0.99820685
vn 0.00017876421 -0.059859734 0.99820685
vn 0.00017876424 -0.059859738 0.99820685
vn -0.5310991 -0.13892174 0.83584356
vn -0.531099 -0.13892174 0.83584356
vn -0.5310991 -0.13892174 0.83584356
vn -0 0 1
vn -0 0 1
vn -0 0 1
vn -0 0 1
vn 0.06456534 -0.029053645 0.9974905
vn 0.06456534 -0.029053643 0.9974905
vn 0.06456534 -0.029053645 0.9974905
vn 0.06456534 -0.029053647 0.9974905
vn -0.0004921996 0.9999987 -0.001568246
vn -0.0004921997 0.9999987 -0.0015682462
vn -0.0004921996 0.9999987 -0.001568246
vn -0.0004921997 0.9999987 -0.0015682462
g Wall_002_0
f 3/3/3 2/2/2 1/1/1
f 6/6/6 5/5/5 4/4/4
f 9/9/9 8/8/8 7/7/7
f 10/10/10 9/9/9 7/7/7
f 13/13/13 12/12/12 11/11/11
f 14/14/14 13/13/13 11/11/11
f 17/17/17 16/16/16 15/15/15
f 18/18/18 17/17/17 15/15/15
