g Wall_005
v 0.3333336 -1.9999998 1.0000013
v 0.6099516 -2 1.0710264
v 1.0000002 -1.9999998 1.0000011
v 1.0000002 1.0636372E-07 1.0000013
v 0.5128729 -1.9896174E-07 1.1675267
v 0.3333336 1.0636372E-07 1.0000014
v 0.3333336 1.0636372E-07 1.0000014
v 0.5128729 -1.9896174E-07 1.1675267
v 0.3333336 -1.9999998 1.0000013
v 0.3333336 -1.9999998 1.0000013
v 0.5128729 -1.9896174E-07 1.1675267
v 0.6099516 -2 1.0710264
v -0.33333296 -1.0808939 1.1023805
v -0.43795118 -1.0000001 1.0628386
v -0.10404531 -1.0000006 1.1113912
v -0.10404531 -1.0000006 1.1113912
v -0.43795118 -1.0000001 1.0628386
v -0.33333296 -0.9191071 1.1204021
v -0.57334816 -0.9999998 1.0000018
v -0.333333 -1.9999998 1.0000014
v -0.9999997 -1.9999998 1.0000017
v -0.81336313 1.0636368E-07 1.0000018
v -0.9999997 1.0636368E-07 1.0000018
v 0.18653806 -1.0000006 1.1113911
v 0.3333336 -1.9999998 1.0000013
v -0.333333 -1.9999998 1.0000014
v -0.10404531 -1.0000006 1.1113912
v -0.33333296 -1.0808939 1.1023805
v 0.03974242 -1.075832E-06 1.2227808
v -0.33333293 -1.075832E-06 1.222781
v -0.33333296 -0.9191071 1.1204021
v 0.6099516 -2 1.0710264
v 0.5128729 -1.9896174E-07 1.1675267
v 1.0000002 1.0636372E-07 1.0000013
v 1.0000002 -1.9999998 1.0000011
v 0.3333336 1.0636372E-07 1.0000014
v 0.3333336 -1.9999998 1.0000013
v 0.18653806 -1.0000006 1.1113911
v 0.03974242 -1.075832E-06 1.2227808
v 0.3333336 1.0636372E-07 1.0000014
v 0.03974242 -1.075832E-06 1.2227808
v -0.33333293 -1.075832E-06 1.222781
v -0.81336313 1.0636368E-07 1.0000018
v -0.81336313 1.0636368E-07 1.0000018
v -0.33333293 -1.075832E-06 1.222781
v -0.33333296 -0.9191071 1.1204021
v -0.43795118 -1.0000001 1.0628386
v -0.57334816 -0.9999998 1.0000018
v -0.333333 -1.9999998 1.0000014
v -0.33333296 -1.0808939 1.1023805
vt 0.16470411 0.005093534
vt 0.19581655 0.0193293
vt 0.24269077 0.0193293
vt 0.24333403 0.2577199
vt 0.18360195 0.25771978
vt 0.16902453 0.28356215
vt 0.1630362 0.2577199
vt 0.18360195 0.25771978
vt 0.1630362 0.0193293
vt 0.1630362 0.0193293
vt 0.18360195 0.25771978
vt 0.19581655 0.0193293
vt 0.08357264 0.12888242
vt 0.07110266 0.13852459
vt 0.11090262 0.1385245
vt 0.11090262 0.1385245
vt 0.07110266 0.13852459
vt 0.08357264 0.14816667
vt 0.054964036 0.13852459
vt 0.08357264 0.0193293
vt 0.0041092318 0.0193293
vt 0.026355349 0.2577199
vt 0.0041092318 0.2577199
vt 0.14553884 0.1385245
vt 0.1630362 0.0193293
vt 0.08357264 0.0193293
vt 0.11090262 0.1385245
vt 0.08357264 0.12888242
vt 0.1280415 0.25771973
vt 0.08357264 0.25771973
vt 0.08357264 0.14816667
vt 0.19581655 0.0193293
vt 0.18360195 0.25771978
vt 0.24333403 0.2577199
vt 0.24269077 0.0193293
vt 0.1630362 0.2577199
vt 0.1630362 0.0193293
vt 0.14553884 0.1385245
vt 0.1280415 0.25771973
vt 0.16303614 0.28427416
vt 0.1280415 0.25771973
vt 0.08357264 0.25771973
vt 0.026355349 0.28427383
vt 0.026355349 0.2577199
vt 0.08357264 0.25771973
vt 0.08357264 0.14816667
vt 0.07110266 0.13852459
vt 0.054964036 0.13852459
vt 0.08357264 0.0193293
vt 0.08357264 0.12888242
vn -0 -1 -2.7284168E-06
vn -0 -1 -2.7284168E-06
vn -0 -1 -2.728417E-06
vn -0 1 1.8225636E-06
vn -0 1 1.8225636E-06
vn -0 1 1.8225636E-06
vn -0.68222094 0 0.7311461
vn -0.682221 0 0.73114604
vn -0.68222094 0 0.7311461
vn -0.24826688 -0.058704298 0.96691126
vn -0.24826688 -0.058704298 0.96691126
vn -0.2482669 -0.058704298 0.96691126
vn -0.13791554 0.2852648 0.94847417
vn -0.13791552 0.28526476 0.94847417
vn -0.13791552 0.28526476 0.94847417
vn -0.12776609 -0.4600215 0.8786671
vn -0.12776609 -0.4600215 0.8786671
vn -0.12776609 -0.46002153 0.8786671
vn -0 0 1
vn -0 0 1
vn -0 0 1
vn -0 0 1
vn -0 0 1
vn 3.6676542E-07 -0.11070515 0.99385333
vn 3.2983112E-07 -0.11070519 0.99385333
vn 3.2983112E-07 -0.11070519 0.99385333
vn 3.7051785E-07 -0.11070514 0.99385333
vn 3.2983112E-07 -0.11070519 0.99385333
vn 4.1120455E-07 -0.11070508 0.99385333
vn 4.1120455E-07 -0.11070508 0.99385333
vn 4.112046E-07 -0.11070509 0.99385333
vn 0.2623846 -0.016908273 0.9648152
vn 0.26238456 -0.016908271 0.9648152
vn 0.2623846 -0.016908273 0.9648152
vn 0.26238456 -0.016908271 0.9648152
vn 0.60448134 0 0.79661936
vn 0.60448134 0 0.79661936
vn 0.6044814 0 0.7966193
vn 0.60448134 0 0.79661936
vn -0 1 5.3065773E-06
vn -0 1 5.3065773E-06
vn -0 1 5.3065773E-06
vn -0 1 5.306578E-06
vn -0.418836 -0.10052704 0.90248024
vn -0.4188359 -0.10052705 0.90248036
vn -0.41883594 -0.10052705 0.90248036
vn -0.41883582 -0.10052706 0.90248036
vn -0.41883588 -0.10052706 0.90248036
vn -0.41883573 -0.10052708 0.9024804
vn -0.41883573 -0.10052708 0.9024804
g Wall_005_0
f 3/3/3 2/2/2 1/1/1
f 6/6/6 5/5/5 4/4/4
f 9/9/9 8/8/8 7/7/7
f 12/12/12 11/11/11 10/10/10
f 15/15/15 14/14/14 13/13/13
f 18/18/18 17/17/17 16/16/16
f 21/21/21 20/20/20 19/19/19
f 19/19/19 22/22/22 21/21/21
f 22/22/22 23/23/23 21/21/21
f 26/26/26 25/25/25 24/24/24
f 24/24/24 27/27/27 26/26/26
f 27/27/27 28/28/28 26/26/26
f 27/27/27 24/24/24 29/29/29
f 29/29/29 30/30/30 27/27/27
f 30/30/30 31/31/31 27/27/27
f 34/34/34 33/33/33 32/32/32
f 35/35/35 34/34/34 32/32/32
f 38/38/38 37/37/37 36/36/36
f 39/39/39 38/38/38 36/36/36
f 42/42/42 41/41/41 40/40/40
f 43/43/43 42/42/42 40/40/40
f 46/46/46 45/45/45 44/44/44
f 44/44/44 47/47/47 46/46/46
f 44/44/44 48/48/48 47/47/47
f 47/47/47 48/48/48 49/49/49
f 50/50/50 47/47/47 49/49/49
