g Wire Deformed
v 4.516003 0.90099996 5.159001
v 4.5161047 0.8819619 5.113039
v 4.516147 0.83599997 5.094001
v 4.5161047 0.790038 5.113039
v 4.516003 0.77099997 5.159001
v 4.5159016 0.79003805 5.2049627
v 4.515859 0.83599997 5.224001
v 4.5159016 0.88196194 5.2049627
v 4.887811 0.9044295 5.1569576
v 4.8877697 0.88539374 5.110995
v 4.88835 0.8394375 5.091952
v 4.889212 0.7934812 5.110984
v 4.889851 0.7744455 5.1569424
v 4.8898926 0.79348123 5.202905
v 4.8893123 0.8394375 5.221948
v 4.88845 0.8853938 5.202916
v 5.2781143 0.9119841 5.1570134
v 5.279148 0.89295065 5.111061
v 5.280414 0.8469998 5.092038
v 5.281171 0.801049 5.1110883
v 5.2809744 0.78201556 5.1570516
v 5.2799406 0.80104905 5.203004
v 5.2786746 0.8469998 5.222027
v 5.277918 0.89295065 5.2029767
v 5.6120667 0.91954666 5.170723
v 5.6164885 0.90051323 5.1249723
v 5.6191525 0.85456234 5.106095
v 5.6184993 0.80861145 5.1251483
v 5.6149106 0.789578 5.170972
v 5.610489 0.8086115 5.2167225
v 5.607825 0.85456234 5.2356
v 5.608478 0.90051323 5.2165465
v 5.8160005 0.923 5.2100015
v 5.836477 0.9039619 5.168853
v 5.8449583 0.858 5.1518083
v 5.836477 0.812038 5.168853
v 5.8160005 0.793 5.2100015
v 5.795524 0.81203806 5.25115
v 5.7870426 0.858 5.2681947
v 5.795524 0.90396196 5.25115
v 4.516003 0.90099996 5.159001
v 4.5161047 0.8819619 5.113039
v 4.516147 0.83599997 5.094001
v 4.5161047 0.790038 5.113039
v 4.516003 0.77099997 5.159001
v 4.5159016 0.79003805 5.2049627
v 4.515859 0.83599997 5.224001
v 4.5159016 0.88196194 5.2049627
v 5.8160005 0.923 5.2100015
v 5.836477 0.9039619 5.168853
v 5.8449583 0.858 5.1518083
v 5.836477 0.812038 5.168853
v 5.8160005 0.793 5.2100015
v 5.795524 0.81203806 5.25115
v 5.7870426 0.858 5.2681947
v 5.795524 0.90396196 5.25115
v 4.516003 0.83599997 5.159001
v 5.8160005 0.858 5.2100015
vt 0.49999997 1
vt 0.14644662 0.8535534
vt 0 0.49999997
vt 0.14644668 0.14644656
vt 0.5 0
vt 0.8535535 0.14644672
vt 1 0.50000006
vt 0.85355324 0.85355353
vt 0.49999997 1
vt 0.14644662 0.8535534
vt 0 0.49999997
vt 0.14644668 0.14644656
vt 0.5 0
vt 0.8535535 0.14644672
vt 1 0.50000006
vt 0.85355324 0.85355353
vt 0.49999997 1
vt 0.14644662 0.8535534
vt 0 0.49999997
vt 0.14644668 0.14644656
vt 0.5 0
vt 0.8535535 0.14644672
vt 1 0.50000006
vt 0.85355324 0.85355353
vt 0.49999997 1
vt 0.14644662 0.8535534
vt 0 0.49999997
vt 0.14644668 0.14644656
vt 0.5 0
vt 0.8535535 0.14644672
vt 1 0.50000006
vt 0.85355324 0.85355353
vt 0.49999997 1
vt 0.14644662 0.8535534
vt 0 0.49999997
vt 0.14644668 0.14644656
vt 0.5 0
vt 0.8535535 0.14644672
vt 1 0.50000006
vt 0.85355324 0.85355353
vt 0.49999997 1
vt 0.14644662 0.8535534
vt 0 0.49999997
vt 0.14644668 0.14644656
vt 0.5 0
vt 0.8535535 0.14644672
vt 1 0.50000006
vt 0.85355324 0.85355353
vt 0.49999997 1
vt 0.14644662 0.8535534
vt 0 0.49999997
vt 0.14644668 0.14644656
vt 0.5 0
vt 0.8535535 0.14644672
vt 1 0.50000006
vt 0.85355324 0.85355353
vt 0.5 0.5
vt 0.5 0.5
vn -0.24484496 0.9694768 -0.012873172
vn -0.17549734 0.6959097 -0.69635504
vn 0.0019027903 -0.000990121 -0.99999774
vn 0.16030182 -0.6982932 -0.69763154
vn 0.21657042 -0.97615093 0.015055839
vn 0.1614885 -0.6976971 0.69795424
vn -0.03145841 0.046555467 0.99842024
vn -0.1848556 0.6949503 0.6948902
vn -0.012708458 0.9999192 0.00022566931
vn -0.012523123 0.7067467 -0.7073558
vn -0.003528578 -0.00020968103 -0.99999374
vn 0.010221126 -0.70691496 -0.7072246
vn 0.012698892 -0.99991935 9.644278E-05
vn 0.012524891 -0.7071938 0.7069088
vn 0.0035466389 -0.0003157666 0.9999937
vn -0.010208834 0.70715374 0.70698607
vn -0.020332688 0.9997931 -0.00048636593
vn 0.0035123928 0.70601314 -0.7081901
vn 0.012674473 2.0550977E-05 -0.9999198
vn 0.033731773 -0.7063526 -0.707056
vn 0.020333108 -0.99979323 -0.0002225435
vn -0.003252545 -0.7073368 0.7068692
vn -0.012384672 -0.00023077568 0.9999232
vn -0.033545416 0.7076821 0.7057342
vn -0.02110884 0.99977314 -0.0028179386
vn 0.07982586 0.69925004 -0.7104065
vn 0.08149703 0.0004827356 -0.9966735
vn 0.10589899 -0.6991339 -0.7071049
vn 0.02130422 -0.99977297 -0.00039557475
vn -0.06853978 -0.7078965 0.70298296
vn -0.071109064 -0.0002820708 0.9974685
vn -0.096341565 0.70917726 0.69841665
vn -0.25302023 0.9581306 -0.13403875
vn 0.035685666 0.65641135 -0.7535587
vn 0.3006351 0.0010604667 -0.95373875
vn 0.3811657 -0.7040585 -0.59917796
vn 0.22320084 -0.9696987 0.09932691
vn -0.027963884 -0.68580246 0.7272502
vn -0.29255247 2.5889474E-05 0.9562495
vn -0.3907138 0.6685635 0.63274455
vn -0.99999756 0 -0.0022097903
vn -0.99999756 -2.8305158E-06 -0.0022126208
vn -0.9999975 0 -0.0022154516
vn -0.9999976 2.8305142E-06 -0.002212621
vn -0.99999756 0 -0.0022097903
vn -0.99999756 -2.8305158E-06 -0.0022126208
vn -0.9999975 0 -0.0022154516
vn -0.9999976 2.8305142E-06 -0.002212621
vn 0.8952783 0 0.44550717
vn 0.895279 -1.2274656E-06 0.4455061
vn 0.89527947 0 0.44550493
vn 0.8952789 1.2274646E-06 0.44550607
vn 0.8952783 0 0.44550717
vn 0.895279 -1.2274656E-06 0.4455061
vn 0.89527947 0 0.44550493
vn 0.8952789 1.2274646E-06 0.44550607
vn -0.9999975 0 -0.0022126208
vn 0.89527893 0 0.4455061
g Wire Deformed_0
f 1/1/1 9/9/9 2/2/2
f 10/10/10 2/2/2 9/9/9
f 10/10/10 11/11/11 2/2/2
f 3/3/3 2/2/2 11/11/11
f 3/3/3 11/11/11 4/4/4
f 12/12/12 4/4/4 11/11/11
f 12/12/12 13/13/13 4/4/4
f 5/5/5 4/4/4 13/13/13
f 5/5/5 13/13/13 6/6/6
f 14/14/14 6/6/6 13/13/13
f 14/14/14 15/15/15 6/6/6
f 7/7/7 6/6/6 15/15/15
f 7/7/7 15/15/15 8/8/8
f 16/16/16 8/8/8 15/15/15
f 16/16/16 9/9/9 8/8/8
f 1/1/1 8/8/8 9/9/9
f 9/9/9 17/17/17 10/10/10
f 18/18/18 10/10/10 17/17/17
f 18/18/18 19/19/19 10/10/10
f 11/11/11 10/10/10 19/19/19
f 11/11/11 19/19/19 12/12/12
f 20/20/20 12/12/12 19/19/19
f 20/20/20 21/21/21 12/12/12
f 13/13/13 12/12/12 21/21/21
f 13/13/13 21/21/21 14/14/14
f 22/22/22 14/14/14 21/21/21
f 22/22/22 23/23/23 14/14/14
f 15/15/15 14/14/14 23/23/23
f 15/15/15 23/23/23 16/16/16
f 24/24/24 16/16/16 23/23/23
f 24/24/24 17/17/17 16/16/16
f 9/9/9 16/16/16 17/17/17
f 17/17/17 25/25/25 18/18/18
f 26/26/26 18/18/18 25/25/25
f 26/26/26 27/27/27 18/18/18
f 19/19/19 18/18/18 27/27/27
f 19/19/19 27/27/27 20/20/20
f 28/28/28 20/20/20 27/27/27
f 28/28/28 29/29/29 20/20/20
f 21/21/21 20/20/20 29/29/29
f 21/21/21 29/29/29 22/22/22
f 30/30/30 22/22/22 29/29/29
f 30/30/30 31/31/31 22/22/22
f 23/23/23 22/22/22 31/31/31
f 23/23/23 31/31/31 24/24/24
f 32/32/32 24/24/24 31/31/31
f 32/32/32 25/25/25 24/24/24
f 17/17/17 24/24/24 25/25/25
f 25/25/25 33/33/33 26/26/26
f 34/34/34 26/26/26 33/33/33
f 34/34/34 35/35/35 26/26/26
f 27/27/27 26/26/26 35/35/35
f 27/27/27 35/35/35 28/28/28
f 36/36/36 28/28/28 35/35/35
f 36/36/36 37/37/37 28/28/28
f 29/29/29 28/28/28 37/37/37
f 29/29/29 37/37/37 30/30/30
f 38/38/38 30/30/30 37/37/37
f 38/38/38 39/39/39 30/30/30
f 31/31/31 30/30/30 39/39/39
f 31/31/31 39/39/39 32/32/32
f 40/40/40 32/32/32 39/39/39
f 40/40/40 33/33/33 32/32/32
f 25/25/25 32/32/32 33/33/33
f 41/41/41 42/42/42 57/57/57
f 42/42/42 43/43/43 57/57/57
f 43/43/43 44/44/44 57/57/57
f 44/44/44 45/45/45 57/57/57
f 45/45/45 46/46/46 57/57/57
f 46/46/46 47/47/47 57/57/57
f 47/47/47 48/48/48 57/57/57
f 48/48/48 41/41/41 57/57/57
f 50/50/50 49/49/49 58/58/58
f 51/51/51 50/50/50 58/58/58
f 52/52/52 51/51/51 58/58/58
f 53/53/53 52/52/52 58/58/58
f 54/54/54 53/53/53 58/58/58
f 55/55/55 54/54/54 58/58/58
f 56/56/56 55/55/55 58/58/58
f 49/49/49 56/56/56 58/58/58
