g Wire Deformed
v -18.564957 -16.437977 5.541446
v -18.488552 -16.44 5.6149874
v -18.41504 -16.442024 5.5385566
v -18.491444 -16.44 5.4650154
v -18.56457 -16.954142 5.4691424
v -18.567568 -16.960964 5.5749464
v -18.461752 -16.967787 5.5775056
v -18.458754 -16.960964 5.4717016
v -18.596445 -17.430904 5.414712
v -18.613142 -17.443647 5.518677
v -18.508944 -17.45639 5.5338507
v -18.492247 -17.443647 5.4298854
v -18.647573 -17.869917 5.3347344
v -18.669937 -17.888958 5.436652
v -18.567331 -17.907999 5.4556108
v -18.544968 -17.888958 5.353693
v -18.713802 -18.272251 5.2286444
v -18.739748 -18.29781 5.3282614
v -18.638721 -18.323368 5.3480167
v -18.612776 -18.29781 5.2483997
v -18.793169 -18.638956 5.098163
v -18.822023 -18.671104 5.195034
v -18.72273 -18.703253 5.21394
v -18.693876 -18.671104 5.1170692
v -18.88423 -18.971119 4.9454193
v -18.915815 -19.009764 5.0390086
v -18.818495 -19.048409 5.055896
v -18.78691 -19.009764 4.9623065
v -18.985703 -19.26982 4.772606
v -19.020044 -19.314697 4.862364
v -18.924957 -19.359575 4.8763056
v -18.890615 -19.314697 4.7865477
v -19.09639 -19.536114 4.5819297
v -19.133589 -19.586805 4.667349
v -19.040985 -19.637497 4.6775937
v -19.003786 -19.586805 4.5921745
v -19.21514 -19.771051 4.3755875
v -19.255306 -19.827007 4.456244
v -19.1654 -19.882963 4.4621983
v -19.125233 -19.827007 4.3815417
v -19.340824 -19.975622 4.1557565
v -19.384047 -20.036205 4.2313304
v -19.296993 -20.096788 4.232551
v -19.25377 -20.036205 4.156977
v -19.472336 -20.150795 3.9246323
v -19.518665 -20.215324 3.9949145
v -19.434574 -20.279854 3.9910967
v -19.388245 -20.215324 3.9208145
v -19.608526 -20.297478 3.684423
v -19.657972 -20.365267 3.7493045
v -19.576899 -20.433056 3.7402625
v -19.527452 -20.365267 3.675381
v -19.748287 -20.416553 3.437339
v -19.800833 -20.48694 3.4967923
v -19.722797 -20.557327 3.4824326
v -19.670252 -20.48694 3.4229794
v -19.890467 -20.508896 3.1856487
v -19.946074 -20.581257 3.2397017
v -19.871069 -20.653618 3.2199943
v -19.815462 -20.581257 3.1659412
v -20.03391 -20.575377 2.9316287
v -20.092535 -20.649136 2.980342
v -20.020548 -20.722895 2.9552922
v -19.961924 -20.649136 2.906579
v -20.177452 -20.61685 2.6775725
v -20.239046 -20.691473 2.7210162
v -20.170063 -20.766096 2.6906407
v -20.108469 -20.691473 2.647197
v -20.319916 -20.634205 2.4258175
v -20.384455 -20.70919 2.4640539
v -20.318478 -20.784176 2.428358
v -20.253939 -20.70919 2.3901217
v -20.460108 -20.628332 2.1786838
v -20.52758 -20.703192 2.2117531
v -20.464636 -20.778051 2.1707163
v -20.397163 -20.703192 2.137647
v -20.59683 -20.600155 1.9385333
v -20.667255 -20.674393 1.9664454
v -20.607405 -20.74863 1.9200069
v -20.53698 -20.674393 1.8920947
v -20.728895 -20.55062 1.7077178
v -20.802326 -20.623703 1.7304479
v -20.745668 -20.696787 1.678498
v -20.672237 -20.623703 1.6557679
v -20.85507 -20.480705 1.4885865
v -20.931597 -20.552032 1.5060791
v -20.878286 -20.62336 1.4484568
v -20.80176 -20.552032 1.4309642
v -20.974161 -20.391428 1.2834883
v -21.053911 -20.460287 1.2956727
v -21.004156 -20.529146 1.2321681
v -20.924406 -20.460287 1.2199837
v -21.084946 -20.283865 1.0947413
v -21.168076 -20.349384 1.1015667
v -21.12215 -20.414904 1.0319382
v -21.03902 -20.349384 1.025113
v -21.186224 -20.159136 0.92461795
v -21.272911 -20.220234 0.92612296
v -21.231169 -20.281332 0.85013306
v -21.144482 -20.220234 0.84862804
v -21.276766 -20.018402 0.77527666
v -21.36718 -20.073744 0.77172107
v -21.330061 -20.129086 0.68920225
v -21.239647 -20.073744 0.6927579
v -21.355381 -19.86283 0.64871407
v -21.449638 -19.910824 0.64081746
v -21.417738 -19.958818 0.5517728
v -21.323483 -19.910824 0.5596693
v -21.420744 -19.693502 0.54664844
v -21.518854 -19.732388 0.53605586
v -21.493155 -19.771273 0.44077983
v -21.395044 -19.732388 0.45137244
v -21.471128 -19.511265 0.47015116
v -21.572962 -19.539345 0.4605832
v -21.555746 -19.567425 0.35976085
v -21.453913 -19.539345 0.3693288
v -21.50257 -19.316496 0.41759282
v -21.607382 -19.332607 0.41980287
v -21.607115 -19.348719 0.31496793
v -21.502302 -19.332607 0.3127579
v -21.505264 -19.107557 0.346895
v -21.576883 -19.113083 0.4249347
v -21.654728 -19.118608 0.35310355
v -21.583109 -19.113083 0.27506387
v -18.564957 -16.437977 5.541446
v -18.488552 -16.44 5.6149874
v -18.41504 -16.442024 5.5385566
v -18.491444 -16.44 5.4650154
v -21.505264 -19.107557 0.346895
v -21.576883 -19.113083 0.4249347
v -21.654728 -19.118608 0.35310355
v -21.583109 -19.113083 0.27506387
v -18.489998 -16.44 5.5400014
v -21.579996 -19.113083 0.34999928
vt 0.49999997 1
vt 0 0.49999997
vt 0.5 0
vt 1 0.50000006
vt 0.49999997 1
vt 0 0.49999997
vt 0.5 0
vt 1 0.50000006
vt 0.49999997 1
vt 0 0.49999997
vt 0.5 0
vt 1 0.50000006
vt 0.49999997 1
vt 0 0.49999997
vt 0.5 0
vt 1 0.50000006
vt 0.49999997 1
vt 0 0.49999997
vt 0.5 0
vt 1 0.50000006
vt 0.49999997 1
vt 0 0.49999997
vt 0.5 0
vt 1 0.50000006
vt 0.49999997 1
vt 0 0.49999997
vt 0.5 0
vt 1 0.50000006
vt 0.49999997 1
vt 0 0.49999997
vt 0.5 0
vt 1 0.50000006
vt 0.49999997 1
vt 0 0.49999997
vt 0.5 0
vt 1 0.50000006
vt 0.49999997 1
vt 0 0.49999997
vt 0.5 0
vt 1 0.50000006
vt 0.49999997 1
vt 0 0.49999997
vt 0.5 0
vt 1 0.50000006
vt 0.49999997 1
vt 0 0.49999997
vt 0.5 0
vt 1 0.50000006
vt 0.49999997 1
vt 0 0.49999997
vt 0.5 0
vt 1 0.50000006
vt 0.49999997 1
vt 0 0.49999997
vt 0.5 0
vt 1 0.50000006
vt 0.49999997 1
vt 0 0.49999997
vt 0.5 0
vt 1 0.50000006
vt 0.49999997 1
vt 0 0.49999997
vt 0.5 0
vt 1 0.50000006
vt 0.49999997 1
vt 0 0.49999997
vt 0.5 0
vt 1 0.50000006
vt 0.49999997 1
vt 0 0.49999997
vt 0.5 0
vt 1 0.50000006
vt 0.49999997 1
vt 0 0.49999997
vt 0.5 0
vt 1 0.50000006
vt 0.49999997 1
vt 0 0.49999997
vt 0.5 0
vt 1 0.50000006
vt 0.49999997 1
vt 0 0.49999997
vt 0.5 0
vt 1 0.50000006
vt 0.49999997 1
vt 0 0.49999997
vt 0.5 0
vt 1 0.50000006
vt 0.49999997 1
vt 0 0.49999997
vt 0.5 0
vt 1 0.50000006
vt 0.49999997 1
vt 0 0.49999997
vt 0.5 0
vt 1 0.50000006
vt 0.49999997 1
vt 0 0.49999997
vt 0.5 0
vt 1 0.50000006
vt 0.49999997 1
vt 0 0.49999997
vt 0.5 0
vt 1 0.50000006
vt 0.49999997 1
vt 0 0.49999997
vt 0.5 0
vt 1 0.50000006
vt 0.49999997 1
vt 0 0.49999997
vt 0.5 0
vt 1 0.50000006
vt 0.49999997 1
vt 0 0.49999997
vt 0.5 0
vt 1 0.50000006
vt 0.49999997 1
vt 0 0.49999997
vt 0.5 0
vt 1 0.50000006
vt 0.49999997 1
vt 0 0.49999997
vt 0.5 0
vt 1 0.50000006
vt 0.49999997 1
vt 0 0.49999997
vt 0.5 0
vt 1 0.50000006
vt 0.49999997 1
vt 0 0.49999997
vt 0.5 0
vt 1 0.50000006
vt 0.5 0.5
vt 0.5 0.5
vn -0.99504566 0.014709549 0.09832426
vn -0.18490538 0.00014480669 0.98275626
vn 0.99332005 -0.061547127 -0.09760773
vn 0.18958776 0.0063640405 -0.98184305
vn -0.8591902 0.07987767 -0.5053827
vn -0.7489493 0.017749509 0.6623895
vn 0.8558321 -0.08099619 0.5108728
vn 0.75632626 0.013812841 -0.6540488
vn -0.6191816 0.15544413 -0.76970863
vn -0.8121545 0.00082811416 0.58344203
vn 0.6176291 -0.15585819 0.7708712
vn 0.8174788 -0.0019567301 -0.57595557
vn -0.55068016 0.2385795 -0.79989445
vn -0.83460766 -0.00043257137 0.55084467
vn 0.5496262 -0.23895858 0.800506
vn 0.84006363 -0.0025467572 -0.5424819
vn -0.51063365 0.32504255 -0.7959903
vn -0.84602994 -0.0013870283 0.53313357
vn 0.5097855 -0.32544157 0.79637086
vn 0.85167396 -0.0030301155 -0.52406335
vn -0.47769478 0.41286397 -0.7754682
vn -0.8528968 -0.0023143645 0.5220745
vn 0.47695628 -0.41328147 0.7757004
vn 0.8586361 -0.0036213344 -0.51257294
vn -0.44567537 0.4998545 -0.7426433
vn -0.8574716 -0.0032269522 0.5145213
vn 0.44500685 -0.500278 0.74275887
vn 0.8631579 -0.0042631133 -0.5049161
vn -0.41227713 0.58376104 -0.69946456
vn -0.86074686 -0.0040915636 0.50901693
vn 0.41166222 -0.58416945 0.69948566
vn 0.8662129 -0.004887913 -0.49965128
vn -0.3767498 0.6624263 -0.6474959
vn -0.8632207 -0.004846869 0.50480354
vn 0.376184 -0.6628029 0.64743954
vn 0.8683041 -0.005455312 -0.4960023
vn -0.3391198 0.73404515 -0.58836687
vn -0.8651554 -0.005468421 0.5014739
vn 0.33860454 -0.7343787 0.5882474
vn 0.8697281 -0.005910766 -0.49349582
vn -0.29978853 0.79735154 -0.5237913
vn -0.8666758 -0.0059295967 0.4988364
vn 0.29932582 -0.7976332 0.5236272
vn 0.8706528 -0.0062561966 -0.49185815
vn -0.259354 0.85162354 -0.4554919
vn -0.86789113 -0.006259218 0.49671492
vn 0.2589475 -0.85185546 0.45528948
vn 0.8712301 -0.0064695873 -0.49083218
vn -0.21838154 0.89672893 -0.38495037
vn -0.86882454 -0.006476305 0.49507782
vn 0.2180333 -0.8969131 0.38471878
vn 0.871524 -0.006581852 -0.49030876
vn -0.17734085 0.9329221 -0.31337926
vn -0.8695083 -0.006592996 0.49387425
vn 0.17705104 -0.9330641 0.31312013
vn 0.8715887 -0.006640415 -0.49019283
vn -0.13656959 0.9606969 -0.24168207
vn -0.8699585 -0.0066615567 0.4930799
vn 0.13633595 -0.960802 0.24139585
vn 0.8714539 -0.006671737 -0.49043205
vn -0.0962042 0.9806757 -0.17035249
vn -0.87019926 -0.0067084013 0.49265411
vn 0.09602756 -0.98074806 0.17003523
vn 0.87113637 -0.0067096427 -0.49099535
vn -0.056222238 0.9934412 -0.09956736
vn -0.8702115 -0.0067816614 0.49263176
vn 0.056103263 -0.99348366 0.09920904
vn 0.8706117 -0.0067779603 -0.49192408
vn -0.016477553 0.9994356 -0.029273093
vn -0.8700199 -0.0068806247 0.49296856
vn 0.016418373 -0.9994482 0.028873539
vn 0.8698791 -0.006919644 -0.49321643
vn 0.023327768 0.9988935 0.04083478
vn -0.869607 -0.0070495256 0.49369434
vn -0.023325555 -0.99887455 -0.04129971
vn 0.8688881 -0.007142723 -0.4949569
vn 0.06358057 0.99176276 0.11119418
vn -0.86893153 -0.0072995694 0.49487823
vn -0.0635114 -0.99170554 -0.111742966
vn 0.8675621 -0.0074715815 -0.4972727
vn 0.10477086 0.9776342 0.18235809
vn -0.8679918 -0.0076299915 0.49652
vn -0.10462744 -0.9775268 -0.18301459
vn 0.8658385 -0.007937004 -0.5002606
vn 0.14746694 0.95566016 0.25488654
vn -0.8666927 -0.008027683 0.49877772
vn -0.14723459 -0.9554811 -0.25569096
vn 0.8635518 -0.0085539855 -0.50418764
vn 0.19228263 0.92446285 0.32923532
vn -0.86493194 -0.008468663 0.50181764
vn -0.19193828 -0.9241805 -0.3302276
vn 0.86049664 -0.00931079 -0.5093709
vn 0.23985301 0.882045 0.40554553
vn -0.86248773 -0.008884193 0.5059998
vn -0.2393621 -0.88160414 -0.40679222
vn 0.85632616 -0.010160842 -0.51633525
vn 0.29080382 0.8257072 0.48336405
vn -0.85898465 -0.009043905 0.5119215
vn -0.29010624 -0.8250297 -0.4849375
vn 0.8505299 -0.011074614 -0.5258101
vn 0.34566644 0.7521534 0.56105256
vn -0.85354537 -0.008693491 0.5209461
vn -0.34465986 -0.75114167 -0.56302387
vn 0.8421212 -0.011844668 -0.5391583
vn 0.40499485 0.6579319 0.63490534
vn -0.8442144 -0.007312851 0.5359557
vn -0.4035013 -0.6564737 -0.63736105
vn 0.82913196 -0.012314202 -0.5589172
vn 0.4701514 0.54046386 0.6977509
vn -0.82563573 -0.004153177 0.56418836
vn -0.46789 -0.53841686 -0.7008468
vn 0.8063787 -0.012563419 -0.5912661
vn 0.54670453 0.40064663 0.7352527
vn -0.7772569 0.002553714 0.62917817
vn -0.54346853 -0.39674985 -0.7397511
vn 0.75344175 -0.014236283 -0.65736043
vn 0.6575637 0.27640635 0.7008635
vn -0.50278926 0.024522996 0.86406106
vn -0.66277945 -0.2070654 -0.7196162
vn 0.4738193 -0.031118227 -0.88007206
vn 0.9838126 0.09807496 0.14998008
vn -0.037029926 -0.01626496 0.9991818
vn -0.98159134 -0.085212864 -0.1709307
vn 0.038236808 -0.08891956 -0.99530447
vn 0.026977602 0.99963593 -0.0005201427
vn 0.026977602 0.99963593 -0.0005201427
vn 0.026977602 0.99963593 -0.0005201427
vn 0.026977602 0.99963593 -0.0005201427
vn -0.07361095 0.9972824 0.0030577753
vn -0.07361095 0.9972824 0.0030577753
vn -0.07361095 0.9972824 0.0030577753
vn -0.07361095 0.9972824 0.0030577753
vn 0.026977602 0.99963593 -0.0005201427
vn -0.07361095 0.9972824 0.0030577753
g Wire Deformed_0
f 1/1/1 5/5/5 2/2/2
f 6/6/6 2/2/2 5/5/5
f 6/6/6 7/7/7 2/2/2
f 3/3/3 2/2/2 7/7/7
f 3/3/3 7/7/7 4/4/4
f 8/8/8 4/4/4 7/7/7
f 8/8/8 5/5/5 4/4/4
f 1/1/1 4/4/4 5/5/5
f 5/5/5 9/9/9 6/6/6
f 10/10/10 6/6/6 9/9/9
f 10/10/10 11/11/11 6/6/6
f 7/7/7 6/6/6 11/11/11
f 7/7/7 11/11/11 8/8/8
f 12/12/12 8/8/8 11/11/11
f 12/12/12 9/9/9 8/8/8
f 5/5/5 8/8/8 9/9/9
f 9/9/9 13/13/13 10/10/10
f 14/14/14 10/10/10 13/13/13
f 14/14/14 15/15/15 10/10/10
f 11/11/11 10/10/10 15/15/15
f 11/11/11 15/15/15 12/12/12
f 16/16/16 12/12/12 15/15/15
f 16/16/16 13/13/13 12/12/12
f 9/9/9 12/12/12 13/13/13
f 13/13/13 17/17/17 14/14/14
f 18/18/18 14/14/14 17/17/17
f 18/18/18 19/19/19 14/14/14
f 15/15/15 14/14/14 19/19/19
f 15/15/15 19/19/19 16/16/16
f 20/20/20 16/16/16 19/19/19
f 20/20/20 17/17/17 16/16/16
f 13/13/13 16/16/16 17/17/17
f 17/17/17 21/21/21 18/18/18
f 22/22/22 18/18/18 21/21/21
f 22/22/22 23/23/23 18/18/18
f 19/19/19 18/18/18 23/23/23
f 19/19/19 23/23/23 20/20/20
f 24/24/24 20/20/20 23/23/23
f 24/24/24 21/21/21 20/20/20
f 17/17/17 20/20/20 21/21/21
f 21/21/21 25/25/25 22/22/22
f 26/26/26 22/22/22 25/25/25
f 26/26/26 27/27/27 22/22/22
f 23/23/23 22/22/22 27/27/27
f 23/23/23 27/27/27 24/24/24
f 28/28/28 24/24/24 27/27/27
f 28/28/28 25/25/25 24/24/24
f 21/21/21 24/24/24 25/25/25
f 25/25/25 29/29/29 26/26/26
f 30/30/30 26/26/26 29/29/29
f 30/30/30 31/31/31 26/26/26
f 27/27/27 26/26/26 31/31/31
f 27/27/27 31/31/31 28/28/28
f 32/32/32 28/28/28 31/31/31
f 32/32/32 29/29/29 28/28/28
f 25/25/25 28/28/28 29/29/29
f 29/29/29 33/33/33 30/30/30
f 34/34/34 30/30/30 33/33/33
f 34/34/34 35/35/35 30/30/30
f 31/31/31 30/30/30 35/35/35
f 31/31/31 35/35/35 32/32/32
f 36/36/36 32/32/32 35/35/35
f 36/36/36 33/33/33 32/32/32
f 29/29/29 32/32/32 33/33/33
f 33/33/33 37/37/37 34/34/34
f 38/38/38 34/34/34 37/37/37
f 38/38/38 39/39/39 34/34/34
f 35/35/35 34/34/34 39/39/39
f 35/35/35 39/39/39 36/36/36
f 40/40/40 36/36/36 39/39/39
f 40/40/40 37/37/37 36/36/36
f 33/33/33 36/36/36 37/37/37
f 37/37/37 41/41/41 38/38/38
f 42/42/42 38/38/38 41/41/41
f 42/42/42 43/43/43 38/38/38
f 39/39/39 38/38/38 43/43/43
f 39/39/39 43/43/43 40/40/40
f 44/44/44 40/40/40 43/43/43
f 44/44/44 41/41/41 40/40/40
f 37/37/37 40/40/40 41/41/41
f 41/41/41 45/45/45 42/42/42
f 46/46/46 42/42/42 45/45/45
f 46/46/46 47/47/47 42/42/42
f 43/43/43 42/42/42 47/47/47
f 43/43/43 47/47/47 44/44/44
f 48/48/48 44/44/44 47/47/47
f 48/48/48 45/45/45 44/44/44
f 41/41/41 44/44/44 45/45/45
f 45/45/45 49/49/49 46/46/46
f 50/50/50 46/46/46 49/49/49
f 50/50/50 51/51/51 46/46/46
f 47/47/47 46/46/46 51/51/51
f 47/47/47 51/51/51 48/48/48
f 52/52/52 48/48/48 51/51/51
f 52/52/52 49/49/49 48/48/48
f 45/45/45 48/48/48 49/49/49
f 49/49/49 53/53/53 50/50/50
f 54/54/54 50/50/50 53/53/53
f 54/54/54 55/55/55 50/50/50
f 51/51/51 50/50/50 55/55/55
f 51/51/51 55/55/55 52/52/52
f 56/56/56 52/52/52 55/55/55
f 56/56/56 53/53/53 52/52/52
f 49/49/49 52/52/52 53/53/53
f 53/53/53 57/57/57 54/54/54
f 58/58/58 54/54/54 57/57/57
f 58/58/58 59/59/59 54/54/54
f 55/55/55 54/54/54 59/59/59
f 55/55/55 59/59/59 56/56/56
f 60/60/60 56/56/56 59/59/59
f 60/60/60 57/57/57 56/56/56
f 53/53/53 56/56/56 57/57/57
f 57/57/57 61/61/61 58/58/58
f 62/62/62 58/58/58 61/61/61
f 62/62/62 63/63/63 58/58/58
f 59/59/59 58/58/58 63/63/63
f 59/59/59 63/63/63 60/60/60
f 64/64/64 60/60/60 63/63/63
f 64/64/64 61/61/61 60/60/60
f 57/57/57 60/60/60 61/61/61
f 61/61/61 65/65/65 62/62/62
f 66/66/66 62/62/62 65/65/65
f 66/66/66 67/67/67 62/62/62
f 63/63/63 62/62/62 67/67/67
f 63/63/63 67/67/67 64/64/64
f 68/68/68 64/64/64 67/67/67
f 68/68/68 65/65/65 64/64/64
f 61/61/61 64/64/64 65/65/65
f 65/65/65 69/69/69 66/66/66
f 70/70/70 66/66/66 69/69/69
f 70/70/70 71/71/71 66/66/66
f 67/67/67 66/66/66 71/71/71
f 67/67/67 71/71/71 68/68/68
f 72/72/72 68/68/68 71/71/71
f 72/72/72 69/69/69 68/68/68
f 65/65/65 68/68/68 69/69/69
f 69/69/69 73/73/73 70/70/70
f 74/74/74 70/70/70 73/73/73
f 74/74/74 75/75/75 70/70/70
f 71/71/71 70/70/70 75/75/75
f 71/71/71 75/75/75 72/72/72
f 76/76/76 72/72/72 75/75/75
f 76/76/76 73/73/73 72/72/72
f 69/69/69 72/72/72 73/73/73
f 73/73/73 77/77/77 74/74/74
f 78/78/78 74/74/74 77/77/77
f 78/78/78 79/79/79 74/74/74
f 75/75/75 74/74/74 79/79/79
f 75/75/75 79/79/79 76/76/76
f 80/80/80 76/76/76 79/79/79
f 80/80/80 77/77/77 76/76/76
f 73/73/73 76/76/76 77/77/77
f 77/77/77 81/81/81 78/78/78
f 82/82/82 78/78/78 81/81/81
f 82/82/82 83/83/83 78/78/78
f 79/79/79 78/78/78 83/83/83
f 79/79/79 83/83/83 80/80/80
f 84/84/84 80/80/80 83/83/83
f 84/84/84 81/81/81 80/80/80
f 77/77/77 80/80/80 81/81/81
f 81/81/81 85/85/85 82/82/82
f 86/86/86 82/82/82 85/85/85
f 86/86/86 87/87/87 82/82/82
f 83/83/83 82/82/82 87/87/87
f 83/83/83 87/87/87 84/84/84
f 88/88/88 84/84/84 87/87/87
f 88/88/88 85/85/85 84/84/84
f 81/81/81 84/84/84 85/85/85
f 85/85/85 89/89/89 86/86/86
f 90/90/90 86/86/86 89/89/89
f 90/90/90 91/91/91 86/86/86
f 87/87/87 86/86/86 91/91/91
f 87/87/87 91/91/91 88/88/88
f 92/92/92 88/88/88 91/91/91
f 92/92/92 89/89/89 88/88/88
f 85/85/85 88/88/88 89/89/89
f 89/89/89 93/93/93 90/90/90
f 94/94/94 90/90/90 93/93/93
f 94/94/94 95/95/95 90/90/90
f 91/91/91 90/90/90 95/95/95
f 91/91/91 95/95/95 92/92/92
f 96/96/96 92/92/92 95/95/95
f 96/96/96 93/93/93 92/92/92
f 89/89/89 92/92/92 93/93/93
f 93/93/93 97/97/97 94/94/94
f 98/98/98 94/94/94 97/97/97
f 98/98/98 99/99/99 94/94/94
f 95/95/95 94/94/94 99/99/99
f 95/95/95 99/99/99 96/96/96
f 100/100/100 96/96/96 99/99/99
f 100/100/100 97/97/97 96/96/96
f 93/93/93 96/96/96 97/97/97
f 97/97/97 101/101/101 98/98/98
f 102/102/102 98/98/98 101/101/101
f 102/102/102 103/103/103 98/98/98
f 99/99/99 98/98/98 103/103/103
f 99/99/99 103/103/103 100/100/100
f 104/104/104 100/100/100 103/103/103
f 104/104/104 101/101/101 100/100/100
f 97/97/97 100/100/100 101/101/101
f 101/101/101 105/105/105 102/102/102
f 106/106/106 102/102/102 105/105/105
f 106/106/106 107/107/107 102/102/102
f 103/103/103 102/102/102 107/107/107
f 103/103/103 107/107/107 104/104/104
f 108/108/108 104/104/104 107/107/107
f 108/108/108 105/105/105 104/104/104
f 101/101/101 104/104/104 105/105/105
f 105/105/105 109/109/109 106/106/106
f 110/110/110 106/106/106 109/109/109
f 110/110/110 111/111/111 106/106/106
f 107/107/107 106/106/106 111/111/111
f 107/107/107 111/111/111 108/108/108
f 112/112/112 108/108/108 111/111/111
f 112/112/112 109/109/109 108/108/108
f 105/105/105 108/108/108 109/109/109
f 109/109/109 113/113/113 110/110/110
f 114/114/114 110/110/110 113/113/113
f 114/114/114 115/115/115 110/110/110
f 111/111/111 110/110/110 115/115/115
f 111/111/111 115/115/115 112/112/112
f 116/116/116 112/112/112 115/115/115
f 116/116/116 113/113/113 112/112/112
f 109/109/109 112/112/112 113/113/113
f 113/113/113 117/117/117 114/114/114
f 118/118/118 114/114/114 117/117/117
f 118/118/118 119/119/119 114/114/114
f 115/115/115 114/114/114 119/119/119
f 115/115/115 119/119/119 116/116/116
f 120/120/120 116/116/116 119/119/119
f 120/120/120 117/117/117 116/116/116
f 113/113/113 116/116/116 117/117/117
f 117/117/117 121/121/121 118/118/118
f 122/122/122 118/118/118 121/121/121
f 122/122/122 123/123/123 118/118/118
f 119/119/119 118/118/118 123/123/123
f 119/119/119 123/123/123 120/120/120
f 124/124/124 120/120/120 123/123/123
f 124/124/124 121/121/121 120/120/120
f 117/117/117 120/120/120 121/121/121
f 125/125/125 126/126/126 133/133/133
f 126/126/126 127/127/127 133/133/133
f 127/127/127 128/128/128 133/133/133
f 128/128/128 125/125/125 133/133/133
f 130/130/130 129/129/129 134/134/134
f 131/131/131 130/130/130 134/134/134
f 132/132/132 131/131/131 134/134/134
f 129/129/129 132/132/132 134/134/134
