g Wire Deformed
v 5.8160005 0.923 5.2100015
v 5.836477 0.9039619 5.168853
v 5.8449583 0.858 5.1518083
v 5.836477 0.812038 5.168853
v 5.8160005 0.793 5.2100015
v 5.795524 0.81203806 5.25115
v 5.7870426 0.858 5.2681947
v 5.795524 0.90396196 5.25115
v 5.8827305 0.9694381 5.241815
v 5.9119797 0.95643616 5.203731
v 5.9501147 0.92504674 5.1977835
v 5.974797 0.8936573 5.227456
v 5.971567 0.8806554 5.2753673
v 5.942318 0.8936573 5.3134513
v 5.904183 0.92504674 5.319399
v 5.879501 0.95643616 5.2897263
v 5.971723 1.114071 5.2767506
v 5.999095 1.1054465 5.236114
v 6.0434127 1.0846248 5.227319
v 6.078715 1.0638031 5.255517
v 6.0843225 1.0551785 5.3041906
v 6.0569506 1.0638032 5.344827
v 6.012633 1.0846248 5.3536224
v 5.9773307 1.1054465 5.325424
v 6.043853 1.2949659 5.3019705
v 6.061833 1.2889395 5.2559776
v 6.105399 1.2743906 5.236865
v 6.14903 1.2598417 5.2558284
v 6.1671677 1.2538153 5.3017597
v 6.1491876 1.2598417 5.3477526
v 6.1056213 1.2743906 5.366865
v 6.0619903 1.2889395 5.3479013
v 6.1104712 1.4486715 5.3404675
v 6.0833735 1.4437884 5.2990327
v 6.0932574 1.4319999 5.251722
v 6.134332 1.4202114 5.2262497
v 6.1825366 1.4153284 5.2375364
v 6.2096343 1.4202114 5.278971
v 6.1997504 1.4319999 5.326282
v 6.1586757 1.4437884 5.3517547
v 5.8160005 0.923 5.2100015
v 5.836477 0.9039619 5.168853
v 5.8449583 0.858 5.1518083
v 5.836477 0.812038 5.168853
v 5.8160005 0.793 5.2100015
v 5.795524 0.81203806 5.25115
v 5.7870426 0.858 5.2681947
v 5.795524 0.90396196 5.25115
v 6.1104712 1.4486715 5.3404675
v 6.0833735 1.4437884 5.2990327
v 6.0932574 1.4319999 5.251722
v 6.134332 1.4202114 5.2262497
v 6.1825366 1.4153284 5.2375364
v 6.2096343 1.4202114 5.278971
v 6.1997504 1.4319999 5.326282
v 6.1586757 1.4437884 5.3517547
v 5.8160005 0.858 5.2100015
v 6.146504 1.4319999 5.289002
vt 0.49999997 1
vt 0.14644662 0.8535534
vt 0 0.49999997
vt 0.14644668 0.14644656
vt 0.5 0
vt 0.8535535 0.14644672
vt 1 0.50000006
vt 0.85355324 0.85355353
vt 0.49999997 1
vt 0.14644662 0.8535534
vt 0 0.49999997
vt 0.14644668 0.14644656
vt 0.5 0
vt 0.8535535 0.14644672
vt 1 0.50000006
vt 0.85355324 0.85355353
vt 0.49999997 1
vt 0.14644662 0.8535534
vt 0 0.49999997
vt 0.14644668 0.14644656
vt 0.5 0
vt 0.8535535 0.14644672
vt 1 0.50000006
vt 0.85355324 0.85355353
vt 0.49999997 1
vt 0.14644662 0.8535534
vt 0 0.49999997
vt 0.14644668 0.14644656
vt 0.5 0
vt 0.8535535 0.14644672
vt 1 0.50000006
vt 0.85355324 0.85355353
vt 0.49999997 1
vt 0.14644662 0.8535534
vt 0 0.49999997
vt 0.14644668 0.14644656
vt 0.5 0
vt 0.8535535 0.14644672
vt 1 0.50000006
vt 0.85355324 0.85355353
vt 0.49999997 1
vt 0.14644662 0.8535534
vt 0 0.49999997
vt 0.14644668 0.14644656
vt 0.5 0
vt 0.8535535 0.14644672
vt 1 0.50000006
vt 0.85355324 0.85355353
vt 0.49999997 1
vt 0.14644662 0.8535534
vt 0 0.49999997
vt 0.14644668 0.14644656
vt 0.5 0
vt 0.8535535 0.14644672
vt 1 0.50000006
vt 0.85355324 0.85355353
vt 0.5 0.5
vt 0.5 0.5
vn -0.25302023 0.9581306 -0.13403875
vn 0.035685666 0.65641135 -0.7535587
vn 0.3006351 0.0010604667 -0.95373875
vn 0.3811657 -0.7040585 -0.59917796
vn 0.22320084 -0.9696987 0.09932691
vn -0.027963884 -0.68580246 0.7272502
vn -0.29255247 2.5889474E-05 0.9562495
vn -0.3907138 0.6685635 0.63274455
vn -0.63985044 0.7260763 -0.2518026
vn -0.29877165 0.4486218 -0.8423028
vn 0.37998673 -0.03152176 -0.9244547
vn 0.72820103 -0.4663806 -0.5022076
vn 0.5698823 -0.78751713 0.23462951
vn 0.27461845 -0.4873649 0.8288909
vn -0.35429585 -0.030623391 0.9346318
vn -0.73973215 0.4346276 0.5137074
vn -0.83686376 0.49430016 -0.2352157
vn -0.5140941 0.31992504 -0.7958361
vn 0.27708134 -0.010327764 -0.96079093
vn 0.74548113 -0.30012956 -0.59513044
vn 0.8350731 -0.49489224 0.2402803
vn 0.5124566 -0.32474625 0.7949391
vn -0.25980523 0.004965021 0.96564823
vn -0.7399495 0.2937235 0.6051455
vn -0.9193642 0.38655096 -0.073128775
vn -0.83229226 0.25918669 -0.49001202
vn 0.10016846 0.032015588 -0.9944553
vn 0.46663606 -0.19374178 -0.8629687
vn 0.9486422 -0.30540818 0.08248536
vn 0.8306091 -0.25899565 0.4929604
vn -0.057192806 0.05495319 0.9968496
vn -0.43885624 0.18294472 0.87973654
vn -0.7212574 0.24949045 0.64617497
vn -0.9310752 0.09996832 0.3508638
vn -0.6557921 0.014866718 -0.754795
vn -0.36059594 -0.17361352 -0.9164218
vn 0.7422031 -0.18176796 -0.6450542
vn 0.9121736 -0.25859898 -0.3179088
vn 0.6702244 0.054973226 0.74011964
vn 0.34492844 0.017973892 0.93845695
vn -0.8952783 0 -0.44550717
vn -0.895279 1.2274656E-06 -0.4455061
vn -0.89527947 0 -0.44550493
vn -0.8952789 -1.2274646E-06 -0.44550607
vn -0.8952783 0 -0.44550717
vn -0.895279 1.2274656E-06 -0.4455061
vn -0.89527947 0 -0.44550493
vn -0.8952789 -1.2274646E-06 -0.44550607
vn 0.14710438 0.9665481 -0.2101073
vn 0.14710224 0.9665487 -0.21010672
vn 0.14710349 0.96654856 -0.21010539
vn 0.14710477 0.9665482 -0.21010663
vn 0.14710349 0.9665481 -0.21010791
vn 0.14710224 0.9665487 -0.21010672
vn 0.1471029 0.9665489 -0.21010454
vn 0.14710508 0.9665486 -0.21010517
vn -0.89527893 0 -0.4455061
vn 0.14710356 0.96654844 -0.21010627
g Wire Deformed_0
f 1/1/1 9/9/9 2/2/2
f 10/10/10 2/2/2 9/9/9
f 10/10/10 11/11/11 2/2/2
f 3/3/3 2/2/2 11/11/11
f 3/3/3 11/11/11 4/4/4
f 12/12/12 4/4/4 11/11/11
f 12/12/12 13/13/13 4/4/4
f 5/5/5 4/4/4 13/13/13
f 5/5/5 13/13/13 6/6/6
f 14/14/14 6/6/6 13/13/13
f 14/14/14 15/15/15 6/6/6
f 7/7/7 6/6/6 15/15/15
f 7/7/7 15/15/15 8/8/8
f 16/16/16 8/8/8 15/15/15
f 16/16/16 9/9/9 8/8/8
f 1/1/1 8/8/8 9/9/9
f 9/9/9 17/17/17 10/10/10
f 18/18/18 10/10/10 17/17/17
f 18/18/18 19/19/19 10/10/10
f 11/11/11 10/10/10 19/19/19
f 11/11/11 19/19/19 12/12/12
f 20/20/20 12/12/12 19/19/19
f 20/20/20 21/21/21 12/12/12
f 13/13/13 12/12/12 21/21/21
f 13/13/13 21/21/21 14/14/14
f 22/22/22 14/14/14 21/21/21
f 22/22/22 23/23/23 14/14/14
f 15/15/15 14/14/14 23/23/23
f 15/15/15 23/23/23 16/16/16
f 24/24/24 16/16/16 23/23/23
f 24/24/24 17/17/17 16/16/16
f 9/9/9 16/16/16 17/17/17
f 17/17/17 25/25/25 18/18/18
f 26/26/26 18/18/18 25/25/25
f 26/26/26 27/27/27 18/18/18
f 19/19/19 18/18/18 27/27/27
f 19/19/19 27/27/27 20/20/20
f 28/28/28 20/20/20 27/27/27
f 28/28/28 29/29/29 20/20/20
f 21/21/21 20/20/20 29/29/29
f 21/21/21 29/29/29 22/22/22
f 30/30/30 22/22/22 29/29/29
f 30/30/30 31/31/31 22/22/22
f 23/23/23 22/22/22 31/31/31
f 23/23/23 31/31/31 24/24/24
f 32/32/32 24/24/24 31/31/31
f 32/32/32 25/25/25 24/24/24
f 17/17/17 24/24/24 25/25/25
f 25/25/25 33/33/33 26/26/26
f 34/34/34 26/26/26 33/33/33
f 34/34/34 35/35/35 26/26/26
f 27/27/27 26/26/26 35/35/35
f 27/27/27 35/35/35 28/28/28
f 36/36/36 28/28/28 35/35/35
f 36/36/36 37/37/37 28/28/28
f 29/29/29 28/28/28 37/37/37
f 29/29/29 37/37/37 30/30/30
f 38/38/38 30/30/30 37/37/37
f 38/38/38 39/39/39 30/30/30
f 31/31/31 30/30/30 39/39/39
f 31/31/31 39/39/39 32/32/32
f 40/40/40 32/32/32 39/39/39
f 40/40/40 33/33/33 32/32/32
f 25/25/25 32/32/32 33/33/33
f 41/41/41 42/42/42 57/57/57
f 42/42/42 43/43/43 57/57/57
f 43/43/43 44/44/44 57/57/57
f 44/44/44 45/45/45 57/57/57
f 45/45/45 46/46/46 57/57/57
f 46/46/46 47/47/47 57/57/57
f 47/47/47 48/48/48 57/57/57
f 48/48/48 41/41/41 57/57/57
f 50/50/50 49/49/49 58/58/58
f 51/51/51 50/50/50 58/58/58
f 52/52/52 51/51/51 58/58/58
f 53/53/53 52/52/52 58/58/58
f 54/54/54 53/53/53 58/58/58
f 55/55/55 54/54/54 58/58/58
f 56/56/56 55/55/55 58/58/58
f 49/49/49 56/56/56 58/58/58
