g Wire Deformed
v 0.029999295 0.0800001 1.3699979
v 0.07242569 0.062426504 1.3699981
v 0.08999929 0.020000095 1.3699981
v 0.07242569 -0.02242631 1.3699981
v 0.029999293 -0.0399999 1.3699979
v -0.012427125 -0.022426292 1.3699976
v -0.030000705 0.020000111 1.3699976
v -0.012427092 0.062426526 1.3699976
v -0.036433328 0.0800001 1.4753753
v -0.0076562357 0.062426504 1.5065503
v 0.0042636283 0.020000095 1.5194634
v -0.0076562385 -0.02242631 1.5065503
v -0.036433328 -0.0399999 1.4753753
v -0.06521043 -0.022426292 1.4442003
v -0.07713028 0.020000111 1.4312872
v -0.06521041 0.062426526 1.4442004
v -0.19569749 0.0800001 1.60213
v -0.16983719 0.062426504 1.635764
v -0.15912549 0.020000095 1.6496956
v -0.16983719 -0.02242631 1.635764
v -0.19569749 -0.0399999 1.60213
v -0.2215578 -0.022426292 1.5684961
v -0.23226948 0.020000111 1.5545645
v -0.22155778 0.062426526 1.5684961
v -0.38774505 0.0800001 1.7661932
v -0.35777637 0.062426504 1.7962245
v -0.34536293 0.020000095 1.8086638
v -0.35777637 -0.02242631 1.7962245
v -0.38774505 -0.0399999 1.7661932
v -0.41771376 -0.022426292 1.7361618
v -0.43012717 0.020000111 1.7237225
v -0.41771373 0.062426526 1.736162
v -0.5525288 0.0800001 1.9835011
v -0.514982 0.062426504 2.0032554
v -0.49942958 0.020000095 2.011438
v -0.514982 -0.02242631 2.0032554
v -0.5525288 -0.0399999 1.9835011
v -0.5900756 -0.022426292 1.9637467
v -0.605628 0.020000111 1.9555641
v -0.5900756 0.062426526 1.9637467
v -0.6300006 0.0800001 2.2699997
v -0.58761203 0.062426504 2.271792
v -0.5700542 0.020000095 2.2725344
v -0.58761203 -0.02242631 2.271792
v -0.6300006 -0.0399999 2.2699997
v -0.67238915 -0.022426292 2.2682076
v -0.689947 0.020000111 2.267465
v -0.6723891 0.062426526 2.2682076
v 0.029999295 0.0800001 1.3699979
v 0.07242569 0.062426504 1.3699981
v 0.08999929 0.020000095 1.3699981
v 0.07242569 -0.02242631 1.3699981
v 0.029999293 -0.0399999 1.3699979
v -0.012427125 -0.022426292 1.3699976
v -0.030000705 0.020000111 1.3699976
v -0.012427092 0.062426526 1.3699976
v -0.6300006 0.0800001 2.2699997
v -0.58761203 0.062426504 2.271792
v -0.5700542 0.020000095 2.2725344
v -0.58761203 -0.02242631 2.271792
v -0.6300006 -0.0399999 2.2699997
v -0.67238915 -0.022426292 2.2682076
v -0.689947 0.020000111 2.267465
v -0.6723891 0.062426526 2.2682076
v 0.029999293 0.0200001 1.3699979
v -0.6300006 0.0200001 2.2699997
vt 0.49999997 1
vt 0.14644663 0.85355335
vt 0 0.49999997
vt 0.14644666 0.14644657
vt 0.5 0
vt 0.8535535 0.14644672
vt 1 0.50000006
vt 0.85355324 0.85355353
vt 0.49999997 1
vt 0.14644663 0.85355335
vt 0 0.49999997
vt 0.14644666 0.14644657
vt 0.5 0
vt 0.8535535 0.14644672
vt 1 0.50000006
vt 0.85355324 0.85355353
vt 0.49999997 1
vt 0.14644663 0.85355335
vt 0 0.49999997
vt 0.14644666 0.14644657
vt 0.5 0
vt 0.8535535 0.14644672
vt 1 0.50000006
vt 0.85355324 0.85355353
vt 0.49999997 1
vt 0.14644663 0.85355335
vt 0 0.49999997
vt 0.14644666 0.14644657
vt 0.5 0
vt 0.8535535 0.14644672
vt 1 0.50000006
vt 0.85355324 0.85355353
vt 0.49999997 1
vt 0.14644663 0.85355335
vt 0 0.49999997
vt 0.14644666 0.14644657
vt 0.5 0
vt 0.8535535 0.14644672
vt 1 0.50000006
vt 0.85355324 0.85355353
vt 0.49999997 1
vt 0.14644663 0.85355335
vt 0 0.49999997
vt 0.14644666 0.14644657
vt 0.5 0
vt 0.8535535 0.14644672
vt 1 0.50000006
vt 0.85355324 0.85355353
vt 0.49999997 1
vt 0.14644663 0.85355335
vt 0 0.49999997
vt 0.14644666 0.14644657
vt 0.5 0
vt 0.8535535 0.14644672
vt 1 0.50000006
vt 0.85355324 0.85355353
vt 0.49999997 1
vt 0.14644663 0.85355335
vt 0 0.49999997
vt 0.14644666 0.14644657
vt 0.5 0
vt 0.8535535 0.14644672
vt 1 0.50000006
vt 0.85355324 0.85355353
vt 0.5 0.5
vt 0.5 0.5
vn 0.0010682204 0.9999989 -1.7905577E-05
vn 0.6964753 0.69236356 0.18855916
vn 0.9691179 2.1608477E-08 0.24659798
vn 0.6964753 -0.6923637 0.18855916
vn 0.0010677511 -0.99999887 -1.8041663E-05
vn -0.65860724 -0.7247703 -0.20234679
vn -0.9503414 4.0496846E-07 -0.31120932
vn -0.6586072 0.7247705 -0.20234668
vn 0.03010722 0.9994597 0.013182009
vn 0.49489427 0.70589054 0.50675255
vn 0.7843431 -4.65338E-08 0.6203272
vn 0.49489418 -0.70589066 0.50675255
vn 0.030106891 -0.99945974 0.013181691
vn -0.4668315 -0.709007 -0.5285616
vn -0.71220404 1.110152E-06 -0.7019725
vn -0.46683148 0.7090071 -0.5285615
vn 0.0015462912 0.99999714 0.0018341868
vn 0.45301613 0.70820206 0.54150367
vn 0.6329319 -6.641169E-08 0.7742074
vn 0.4530161 -0.70820206 0.54150367
vn 0.0015459529 -0.9999971 0.001833815
vn -0.45543072 -0.7050019 -0.54364985
vn -0.63323313 4.586425E-07 -0.7739612
vn -0.45543066 0.705002 -0.54364973
vn -0.0019272742 0.9999957 -0.0021978216
vn 0.5307374 0.7091972 0.46406582
vn 0.703029 -2.9552755E-08 0.71116126
vn 0.53073734 -0.70919734 0.46406576
vn -0.001927585 -0.9999958 -0.0021981641
vn -0.5373297 -0.70252234 -0.4666252
vn -0.7065791 9.069001E-07 -0.70763403
vn -0.5373296 0.7025225 -0.46662518
vn -0.0051358063 0.9999797 -0.0037871494
vn 0.65234995 0.7100176 0.26516923
vn 0.8690652 2.132646E-08 0.4946975
vn 0.6523498 -0.7100177 0.2651692
vn -0.0051362677 -0.9999797 -0.0037873832
vn -0.66149634 -0.7010049 -0.26648554
vn -0.87239105 3.4758764E-07 -0.48880857
vn -0.6614962 0.70100516 -0.2664855
vn -0.0064247716 0.99997795 -0.0017318759
vn 0.70270807 0.71147674 -0.0015285909
vn 0.99999815 -1.6494573E-08 -0.0019571483
vn 0.70270795 -0.71147686 -0.0015283972
vn -0.0064231334 -0.9999779 -0.0017313109
vn -0.7130313 -0.7011117 0.0053697973
vn -0.9999917 5.369884E-07 0.0040777028
vn -0.7130311 0.70111185 0.005369991
vn 5.619582E-06 -1.7445478E-13 -1
vn 4.7966123E-06 8.2296856E-07 -1
vn 3.9736433E-06 0 -1
vn 4.7966123E-06 -8.229686E-07 -1
vn 5.6195795E-06 0 -1
vn 4.796611E-06 8.229678E-07 -1
vn 3.973643E-06 -1.5700925E-12 -1
vn 4.7966128E-06 -8.229696E-07 -1
vn -0.04224239 0 0.99910736
vn -0.04224309 7.2742864E-07 0.9991074
vn -0.042243816 0 0.99910736
vn -0.042243093 -7.274287E-07 0.9991074
vn -0.04224236 0 0.9991074
vn -0.04224309 7.2742876E-07 0.9991074
vn -0.042243816 2.8582672E-08 0.99910736
vn -0.04224312 -6.988464E-07 0.9991074
vn 4.796612E-06 -4.3613683E-13 -1
vn -0.042243093 7.145666E-09 0.9991074
g Wire Deformed_0
f 1/1/1 9/9/9 2/2/2
f 10/10/10 2/2/2 9/9/9
f 10/10/10 11/11/11 2/2/2
f 3/3/3 2/2/2 11/11/11
f 3/3/3 11/11/11 4/4/4
f 12/12/12 4/4/4 11/11/11
f 12/12/12 13/13/13 4/4/4
f 5/5/5 4/4/4 13/13/13
f 5/5/5 13/13/13 6/6/6
f 14/14/14 6/6/6 13/13/13
f 14/14/14 15/15/15 6/6/6
f 7/7/7 6/6/6 15/15/15
f 7/7/7 15/15/15 8/8/8
f 16/16/16 8/8/8 15/15/15
f 16/16/16 9/9/9 8/8/8
f 1/1/1 8/8/8 9/9/9
f 9/9/9 17/17/17 10/10/10
f 18/18/18 10/10/10 17/17/17
f 18/18/18 19/19/19 10/10/10
f 11/11/11 10/10/10 19/19/19
f 11/11/11 19/19/19 12/12/12
f 20/20/20 12/12/12 19/19/19
f 20/20/20 21/21/21 12/12/12
f 13/13/13 12/12/12 21/21/21
f 13/13/13 21/21/21 14/14/14
f 22/22/22 14/14/14 21/21/21
f 22/22/22 23/23/23 14/14/14
f 15/15/15 14/14/14 23/23/23
f 15/15/15 23/23/23 16/16/16
f 24/24/24 16/16/16 23/23/23
f 24/24/24 17/17/17 16/16/16
f 9/9/9 16/16/16 17/17/17
f 17/17/17 25/25/25 18/18/18
f 26/26/26 18/18/18 25/25/25
f 26/26/26 27/27/27 18/18/18
f 19/19/19 18/18/18 27/27/27
f 19/19/19 27/27/27 20/20/20
f 28/28/28 20/20/20 27/27/27
f 28/28/28 29/29/29 20/20/20
f 21/21/21 20/20/20 29/29/29
f 21/21/21 29/29/29 22/22/22
f 30/30/30 22/22/22 29/29/29
f 30/30/30 31/31/31 22/22/22
f 23/23/23 22/22/22 31/31/31
f 23/23/23 31/31/31 24/24/24
f 32/32/32 24/24/24 31/31/31
f 32/32/32 25/25/25 24/24/24
f 17/17/17 24/24/24 25/25/25
f 25/25/25 33/33/33 26/26/26
f 34/34/34 26/26/26 33/33/33
f 34/34/34 35/35/35 26/26/26
f 27/27/27 26/26/26 35/35/35
f 27/27/27 35/35/35 28/28/28
f 36/36/36 28/28/28 35/35/35
f 36/36/36 37/37/37 28/28/28
f 29/29/29 28/28/28 37/37/37
f 29/29/29 37/37/37 30/30/30
f 38/38/38 30/30/30 37/37/37
f 38/38/38 39/39/39 30/30/30
f 31/31/31 30/30/30 39/39/39
f 31/31/31 39/39/39 32/32/32
f 40/40/40 32/32/32 39/39/39
f 40/40/40 33/33/33 32/32/32
f 25/25/25 32/32/32 33/33/33
f 33/33/33 41/41/41 34/34/34
f 42/42/42 34/34/34 41/41/41
f 42/42/42 43/43/43 34/34/34
f 35/35/35 34/34/34 43/43/43
f 35/35/35 43/43/43 36/36/36
f 44/44/44 36/36/36 43/43/43
f 44/44/44 45/45/45 36/36/36
f 37/37/37 36/36/36 45/45/45
f 37/37/37 45/45/45 38/38/38
f 46/46/46 38/38/38 45/45/45
f 46/46/46 47/47/47 38/38/38
f 39/39/39 38/38/38 47/47/47
f 39/39/39 47/47/47 40/40/40
f 48/48/48 40/40/40 47/47/47
f 48/48/48 41/41/41 40/40/40
f 33/33/33 40/40/40 41/41/41
f 49/49/49 50/50/50 65/65/65
f 50/50/50 51/51/51 65/65/65
f 51/51/51 52/52/52 65/65/65
f 52/52/52 53/53/53 65/65/65
f 53/53/53 54/54/54 65/65/65
f 54/54/54 55/55/55 65/65/65
f 55/55/55 56/56/56 65/65/65
f 56/56/56 49/49/49 65/65/65
f 58/58/58 57/57/57 66/66/66
f 59/59/59 58/58/58 66/66/66
f 60/60/60 59/59/59 66/66/66
f 61/61/61 60/60/60 66/66/66
f 62/62/62 61/61/61 66/66/66
f 63/63/63 62/62/62 66/66/66
f 64/64/64 63/63/63 66/66/66
f 57/57/57 64/64/64 66/66/66
