g Wire Deformed
v 2.5899968 0.06 4.3600006
v 2.5695217 0.042426404 4.322842
v 2.5610406 -5.2453664E-09 4.3074503
v 2.5695217 -0.04242641 4.322842
v 2.5899968 -0.06 4.3600006
v 2.610472 -0.042426392 4.397159
v 2.618953 1.0490733E-08 4.412551
v 2.610472 0.042426426 4.397159
v 2.9001622 0.06 4.195921
v 2.8811886 0.042426404 4.157974
v 2.8733294 -5.2453664E-09 4.1422553
v 2.8811886 -0.04242641 4.157974
v 2.9001622 -0.06 4.195921
v 2.9191358 -0.042426392 4.233868
v 2.926995 1.0490733E-08 4.2495866
v 2.9191358 0.042426426 4.233868
v 3.225678 0.06 4.0481606
v 3.2099764 0.042426404 4.0087466
v 3.2034726 -5.2453664E-09 3.9924207
v 3.2099764 -0.04242641 4.0087466
v 3.225678 -0.06 4.0481606
v 3.2413795 -0.042426392 4.0875745
v 3.2478833 1.0490733E-08 4.1039004
v 3.2413795 0.042426426 4.0875745
v 3.5411227 0.06 3.9474404
v 3.5319364 0.042426404 3.9060204
v 3.5281315 -5.2453664E-09 3.8888638
v 3.5319364 -0.04242641 3.9060204
v 3.5411227 -0.06 3.9474404
v 3.550309 -0.042426392 3.9888604
v 3.5541139 1.0490733E-08 4.006017
v 3.550309 0.042426426 3.9888604
v 3.8210375 0.06 3.9244802
v 3.8253896 0.042426404 3.8822775
v 3.8271923 -5.2453664E-09 3.8647966
v 3.8253896 -0.04242641 3.8822775
v 3.8210375 -0.06 3.9244802
v 3.8166854 -0.042426392 3.966683
v 3.8148828 1.0490733E-08 3.9841638
v 3.8166854 0.042426426 3.9666827
v 4.0400014 0.06 4.01
v 4.067162 0.042426404 3.9774072
v 4.0784125 -5.2453664E-09 3.963907
v 4.067162 -0.04242641 3.9774075
v 4.0400014 -0.06 4.01
v 4.0128407 -0.042426392 4.042593
v 4.0015903 1.0490733E-08 4.0560937
v 4.0128407 0.042426426 4.042593
v 2.5899968 0.06 4.3600006
v 2.5695217 0.042426404 4.322842
v 2.5610406 -5.2453664E-09 4.3074503
v 2.5695217 -0.04242641 4.322842
v 2.5899968 -0.06 4.3600006
v 2.610472 -0.042426392 4.397159
v 2.618953 1.0490733E-08 4.412551
v 2.610472 0.042426426 4.397159
v 4.0400014 0.06 4.01
v 4.067162 0.042426404 3.9774072
v 4.0784125 -5.2453664E-09 3.963907
v 4.067162 -0.04242641 3.9774075
v 4.0400014 -0.06 4.01
v 4.0128407 -0.042426392 4.042593
v 4.0015903 1.0490733E-08 4.0560937
v 4.0128407 0.042426426 4.042593
v 2.5899968 0 4.3600006
v 4.0400014 0 4.01
vt 0.49999997 1
vt 0.14644663 0.85355335
vt 0 0.49999997
vt 0.14644666 0.14644657
vt 0.5 0
vt 0.8535535 0.14644672
vt 1 0.50000006
vt 0.85355324 0.85355353
vt 0.49999997 1
vt 0.14644663 0.85355335
vt 0 0.49999997
vt 0.14644666 0.14644657
vt 0.5 0
vt 0.8535535 0.14644672
vt 1 0.50000006
vt 0.85355324 0.85355353
vt 0.49999997 1
vt 0.14644663 0.85355335
vt 0 0.49999997
vt 0.14644666 0.14644657
vt 0.5 0
vt 0.8535535 0.14644672
vt 1 0.50000006
vt 0.85355324 0.85355353
vt 0.49999997 1
vt 0.14644663 0.85355335
vt 0 0.49999997
vt 0.14644666 0.14644657
vt 0.5 0
vt 0.8535535 0.14644672
vt 1 0.50000006
vt 0.85355324 0.85355353
vt 0.49999997 1
vt 0.14644663 0.85355335
vt 0 0.49999997
vt 0.14644666 0.14644657
vt 0.5 0
vt 0.8535535 0.14644672
vt 1 0.50000006
vt 0.85355324 0.85355353
vt 0.49999997 1
vt 0.14644663 0.85355335
vt 0 0.49999997
vt 0.14644666 0.14644657
vt 0.5 0
vt 0.8535535 0.14644672
vt 1 0.50000006
vt 0.85355324 0.85355353
vt 0.49999997 1
vt 0.14644663 0.85355335
vt 0 0.49999997
vt 0.14644666 0.14644657
vt 0.5 0
vt 0.8535535 0.14644672
vt 1 0.50000006
vt 0.85355324 0.85355353
vt 0.49999997 1
vt 0.14644663 0.85355335
vt 0 0.49999997
vt 0.14644666 0.14644657
vt 0.5 0
vt 0.8535535 0.14644672
vt 1 0.50000006
vt 0.85355324 0.85355353
vt 0.5 0.5
vt 0.5 0.5
vn 0.0012939505 0.9999396 0.010913069
vn -0.19455725 0.6974502 -0.68971777
vn -0.27550793 -4.15415E-08 -0.96129876
vn -0.19455713 -0.6974504 -0.6897177
vn 0.0012940902 -0.9999396 0.010913587
vn 0.19721118 -0.69831496 0.68808717
vn 0.2802467 0 0.95992804
vn 0.19721097 0.69831496 0.6880871
vn -0.00030864243 0.99999976 -0.000587629
vn -0.30530512 0.7063123 -0.6386797
vn -0.4493461 -3.5969464E-08 -0.8933579
vn -0.3053051 -0.70631236 -0.6386797
vn -0.00030842476 -0.99999976 -0.0005871988
vn 0.30483896 -0.7077063 0.6373579
vn 0.44960842 0 0.89322567
vn 0.3048389 0.7077064 0.6373577
vn -0.0005816854 0.999999 -0.0012976652
vn -0.24281576 0.70539945 -0.665922
vn -0.37882704 -1.0327161E-08 -0.9254675
vn -0.24281572 -0.70539945 -0.665922
vn -0.00058150286 -0.999999 -0.0012972081
vn 0.2424469 -0.70817137 0.6631085
vn 0.37987402 -5.3472617E-09 0.9250382
vn 0.24244685 0.7081715 0.66310835
vn -0.00088559545 0.9999954 -0.0028762904
vn -0.11601612 0.7027019 -0.70196176
vn -0.23666203 -2.8191213E-08 -0.971592
vn -0.116016105 -0.702702 -0.70196176
vn -0.0008854821 -0.9999954 -0.0028758284
vn 0.11817428 -0.70901144 0.69522476
vn 0.24198155 -6.079005E-09 0.9702809
vn 0.11817445 0.7090116 0.6952246
vn -0.0004150913 0.9999742 -0.0071811504
vn 0.15025304 0.69704384 -0.7011091
vn 0.060689405 -1.2984551E-08 -0.9981567
vn 0.15025322 -0.697044 -0.70110893
vn -0.0004151749 -0.99997413 -0.007180657
vn -0.13579907 -0.7109906 0.6899645
vn -0.039052345 1.7898625E-06 0.9992372
vn -0.13579902 0.7109907 0.68996435
vn 0.0044270265 0.99993503 -0.010507417
vn 0.3628803 0.70237625 -0.61236054
vn 0.5117511 -1.7593457E-06 -0.8591337
vn 0.36288035 -0.7023763 -0.61236036
vn 0.004426397 -0.999935 -0.010505837
vn -0.3609455 -0.7025413 0.613314
vn -0.5087904 6.286717E-07 0.86089045
vn -0.3609457 0.7025415 0.6133138
vn -0.8758376 0 0.48260584
vn -0.87583834 -1.5549003E-06 0.48260447
vn -0.8758391 0 0.4826032
vn -0.87583834 1.5549003E-06 0.48260447
vn -0.8758376 0 0.48260584
vn -0.8758384 -1.5549006E-06 0.48260456
vn -0.8758391 0 0.48260325
vn -0.87583834 1.5549002E-06 0.48260453
vn 0.7682224 0 0.640183
vn 0.7682219 2.5610043E-06 0.6401836
vn 0.76822037 1.806424E-06 0.6401856
vn 0.76822084 -7.545833E-07 0.640185
vn 0.7682213 0 0.6401844
vn 0.7682216 -5.030548E-07 0.640184
vn 0.76822186 0 0.6401836
vn 0.76822156 5.0305465E-07 0.640184
vn -0.87583834 0 0.48260447
vn 0.7682215 4.5160607E-07 0.6401841
g Wire Deformed_0
f 1/1/1 9/9/9 2/2/2
f 10/10/10 2/2/2 9/9/9
f 10/10/10 11/11/11 2/2/2
f 3/3/3 2/2/2 11/11/11
f 3/3/3 11/11/11 4/4/4
f 12/12/12 4/4/4 11/11/11
f 12/12/12 13/13/13 4/4/4
f 5/5/5 4/4/4 13/13/13
f 5/5/5 13/13/13 6/6/6
f 14/14/14 6/6/6 13/13/13
f 14/14/14 15/15/15 6/6/6
f 7/7/7 6/6/6 15/15/15
f 7/7/7 15/15/15 8/8/8
f 16/16/16 8/8/8 15/15/15
f 16/16/16 9/9/9 8/8/8
f 1/1/1 8/8/8 9/9/9
f 9/9/9 17/17/17 10/10/10
f 18/18/18 10/10/10 17/17/17
f 18/18/18 19/19/19 10/10/10
f 11/11/11 10/10/10 19/19/19
f 11/11/11 19/19/19 12/12/12
f 20/20/20 12/12/12 19/19/19
f 20/20/20 21/21/21 12/12/12
f 13/13/13 12/12/12 21/21/21
f 13/13/13 21/21/21 14/14/14
f 22/22/22 14/14/14 21/21/21
f 22/22/22 23/23/23 14/14/14
f 15/15/15 14/14/14 23/23/23
f 15/15/15 23/23/23 16/16/16
f 24/24/24 16/16/16 23/23/23
f 24/24/24 17/17/17 16/16/16
f 9/9/9 16/16/16 17/17/17
f 17/17/17 25/25/25 18/18/18
f 26/26/26 18/18/18 25/25/25
f 26/26/26 27/27/27 18/18/18
f 19/19/19 18/18/18 27/27/27
f 19/19/19 27/27/27 20/20/20
f 28/28/28 20/20/20 27/27/27
f 28/28/28 29/29/29 20/20/20
f 21/21/21 20/20/20 29/29/29
f 21/21/21 29/29/29 22/22/22
f 30/30/30 22/22/22 29/29/29
f 30/30/30 31/31/31 22/22/22
f 23/23/23 22/22/22 31/31/31
f 23/23/23 31/31/31 24/24/24
f 32/32/32 24/24/24 31/31/31
f 32/32/32 25/25/25 24/24/24
f 17/17/17 24/24/24 25/25/25
f 25/25/25 33/33/33 26/26/26
f 34/34/34 26/26/26 33/33/33
f 34/34/34 35/35/35 26/26/26
f 27/27/27 26/26/26 35/35/35
f 27/27/27 35/35/35 28/28/28
f 36/36/36 28/28/28 35/35/35
f 36/36/36 37/37/37 28/28/28
f 29/29/29 28/28/28 37/37/37
f 29/29/29 37/37/37 30/30/30
f 38/38/38 30/30/30 37/37/37
f 38/38/38 39/39/39 30/30/30
f 31/31/31 30/30/30 39/39/39
f 31/31/31 39/39/39 32/32/32
f 40/40/40 32/32/32 39/39/39
f 40/40/40 33/33/33 32/32/32
f 25/25/25 32/32/32 33/33/33
f 33/33/33 41/41/41 34/34/34
f 42/42/42 34/34/34 41/41/41
f 42/42/42 43/43/43 34/34/34
f 35/35/35 34/34/34 43/43/43
f 35/35/35 43/43/43 36/36/36
f 44/44/44 36/36/36 43/43/43
f 44/44/44 45/45/45 36/36/36
f 37/37/37 36/36/36 45/45/45
f 37/37/37 45/45/45 38/38/38
f 46/46/46 38/38/38 45/45/45
f 46/46/46 47/47/47 38/38/38
f 39/39/39 38/38/38 47/47/47
f 39/39/39 47/47/47 40/40/40
f 48/48/48 40/40/40 47/47/47
f 48/48/48 41/41/41 40/40/40
f 33/33/33 40/40/40 41/41/41
f 49/49/49 50/50/50 65/65/65
f 50/50/50 51/51/51 65/65/65
f 51/51/51 52/52/52 65/65/65
f 52/52/52 53/53/53 65/65/65
f 53/53/53 54/54/54 65/65/65
f 54/54/54 55/55/55 65/65/65
f 55/55/55 56/56/56 65/65/65
f 56/56/56 49/49/49 65/65/65
f 58/58/58 57/57/57 66/66/66
f 59/59/59 58/58/58 66/66/66
f 60/60/60 59/59/59 66/66/66
f 61/61/61 60/60/60 66/66/66
f 62/62/62 61/61/61 66/66/66
f 63/63/63 62/62/62 66/66/66
f 64/64/64 63/63/63 66/66/66
f 57/57/57 64/64/64 66/66/66
