g Wire Deformed
v 5.3300023 0.06 7.25
v 5.3702517 0.042426404 7.2365837
v 5.3869233 -5.2453664E-09 7.231026
v 5.3702517 -0.04242641 7.2365837
v 5.3300023 -0.06 7.25
v 5.289753 -0.042426392 7.263417
v 5.2730813 1.0490733E-08 7.268974
v 5.289753 0.042426426 7.2634163
v 5.3671527 0.07084021 7.397346
v 5.4095163 0.053457037 7.3938875
v 5.4277954 0.011490339 7.397563
v 5.411282 -0.030476354 7.406219
v 5.3696494 -0.047859523 7.414786
v 5.327286 -0.030476335 7.4182444
v 5.3090067 0.011490355 7.414569
v 5.32552 0.05345706 7.4059124
v 5.3741603 0.0929584 7.508844
v 5.416196 0.07582791 7.5157976
v 5.4330454 0.03447127 7.5265007
v 5.4148383 -0.0068853744 7.5346837
v 5.3722396 -0.024015851 7.5355525
v 5.330204 -0.0068853563 7.528599
v 5.3133545 0.034471285 7.5178957
v 5.3315616 0.075827934 7.5097127
v 5.360331 0.111365095 7.6040854
v 5.401082 0.09389165 7.616039
v 5.4170666 0.051707026 7.6246285
v 5.398921 0.009522401 7.6248226
v 5.3572755 -0.007951038 7.616508
v 5.3165245 0.009522419 7.6045547
v 5.30054 0.05170704 7.595965
v 5.3186855 0.09389167 7.595771
v 5.3350983 0.10296175 7.70045
v 5.3776 0.08626686 7.7053175
v 5.3978424 0.045961853 7.6966805
v 5.383967 0.005656843 7.679598
v 5.344102 -0.011038034 7.664077
v 5.3016 0.0056568603 7.6592093
v 5.281358 0.045961868 7.667846
v 5.2952332 0.08626688 7.684929
v 5.3300023 0.04175305 7.7930894
v 5.372429 0.029523863 7.7804685
v 5.3900023 -3.6501675E-09 7.75
v 5.372429 -0.029523868 7.719531
v 5.3300023 -0.04175305 7.7069106
v 5.2875757 -0.029523855 7.7195315
v 5.2700024 7.300335E-09 7.75
v 5.2875757 0.029523877 7.780469
v 5.3300023 0.06 7.25
v 5.3702517 0.042426404 7.2365837
v 5.3869233 -5.2453664E-09 7.231026
v 5.3702517 -0.04242641 7.2365837
v 5.3300023 -0.06 7.25
v 5.289753 -0.042426392 7.263417
v 5.2730813 1.0490733E-08 7.268974
v 5.289753 0.042426426 7.2634163
v 5.3300023 0.04175305 7.7930894
v 5.372429 0.029523863 7.7804685
v 5.3900023 -3.6501675E-09 7.75
v 5.372429 -0.029523868 7.719531
v 5.3300023 -0.04175305 7.7069106
v 5.2875757 -0.029523855 7.7195315
v 5.2700024 7.300335E-09 7.75
v 5.2875757 0.029523877 7.780469
v 5.3300023 0 7.25
v 5.3300023 0 7.75
vt 0.49999997 1
vt 0.14644663 0.85355335
vt 0 0.49999997
vt 0.14644666 0.14644657
vt 0.5 0
vt 0.8535535 0.14644672
vt 1 0.50000006
vt 0.85355324 0.85355353
vt 0.49999997 1
vt 0.14644663 0.85355335
vt 0 0.49999997
vt 0.14644666 0.14644657
vt 0.5 0
vt 0.8535535 0.14644672
vt 1 0.50000006
vt 0.85355324 0.85355353
vt 0.49999997 1
vt 0.14644663 0.85355335
vt 0 0.49999997
vt 0.14644666 0.14644657
vt 0.5 0
vt 0.8535535 0.14644672
vt 1 0.50000006
vt 0.85355324 0.85355353
vt 0.49999997 1
vt 0.14644663 0.85355335
vt 0 0.49999997
vt 0.14644666 0.14644657
vt 0.5 0
vt 0.8535535 0.14644672
vt 1 0.50000006
vt 0.85355324 0.85355353
vt 0.49999997 1
vt 0.14644663 0.85355335
vt 0 0.49999997
vt 0.14644666 0.14644657
vt 0.5 0
vt 0.8535535 0.14644672
vt 1 0.50000006
vt 0.85355324 0.85355353
vt 0.49999997 1
vt 0.14644663 0.85355335
vt 0 0.49999997
vt 0.14644666 0.14644657
vt 0.5 0
vt 0.8535535 0.14644672
vt 1 0.50000006
vt 0.85355324 0.85355353
vt 0.49999997 1
vt 0.14644663 0.85355335
vt 0 0.49999997
vt 0.14644666 0.14644657
vt 0.5 0
vt 0.8535535 0.14644672
vt 1 0.50000006
vt 0.85355324 0.85355353
vt 0.49999997 1
vt 0.14644663 0.85355335
vt 0 0.49999997
vt 0.14644666 0.14644657
vt 0.5 0
vt 0.8535535 0.14644672
vt 1 0.50000006
vt 0.85355324 0.85355353
vt 0.5 0.5
vt 0.5 0.5
vn -0.010401095 0.9993613 -0.034189273
vn 0.6741763 0.70010614 -0.23523971
vn 0.9549347 -1.9334493E-08 -0.29681608
vn 0.6810287 -0.7084491 -0.18520212
vn 0.012232728 -0.9993567 0.033714216
vn -0.6652788 -0.70899737 0.23393777
vn -0.9547012 1.0624608E-06 0.2975659
vn -0.6799943 0.70934 0.18559273
vn -0.012155873 0.9944403 -0.104597375
vn 0.70263284 0.6868531 -0.18584874
vn 0.98288774 -0.0065965983 -0.18408717
vn 0.71078515 -0.70322114 0.016264707
vn 0.026110943 -0.9945376 0.10106025
vn -0.68935466 -0.6993271 0.18902837
vn -0.9817709 -0.004579717 0.19001296
vn -0.70487213 0.70912987 -0.01703433
vn 0.010586994 0.98121566 -0.19262333
vn 0.7213172 0.68880147 -0.072484456
vn 0.9998663 -0.0017779464 0.016253084
vn 0.69639844 -0.6919898 0.19020844
vn 0.012823635 -0.9811483 0.19283065
vn -0.71881765 -0.6905757 0.08003866
vn -0.9999009 -0.006140152 -0.012666634
vn -0.67854226 0.7077224 -0.19674686
vn 0.022524353 0.995333 -0.093834534
vn 0.67809665 0.7209544 0.14286192
vn 0.9826111 0.012198932 0.18527396
vn 0.6954518 -0.69301003 0.18995799
vn -0.0065014735 -0.9907774 0.13534379
vn -0.71267766 -0.68832153 -0.13529292
vn -0.9813306 0.0038836156 -0.1922893
vn -0.67040575 0.72486395 -0.15851964
vn -0.06314342 0.9647152 0.25561228
vn 0.6380141 0.6502538 0.4124416
vn 0.97160196 0.041203592 0.23300593
vn 0.74655336 -0.64522487 -0.16230485
vn 0.05827879 -0.97026944 -0.23490584
vn -0.69247776 -0.5958471 -0.40674427
vn -0.97662556 0.020549126 -0.21396294
vn -0.72636926 0.66174614 0.18568693
vn -0.042438697 0.7126912 0.700193
vn 0.7031908 0.47526595 0.5288148
vn 0.9970339 0.0105063245 0.07624403
vn 0.7128613 -0.5163321 -0.47458413
vn 0.01963528 -0.7012309 -0.7126639
vn -0.712883 -0.4603844 -0.5290027
vn -0.99825585 0.034294277 -0.04805363
vn -0.70225173 0.5347241 0.47001332
vn -0.31622437 0 -0.9486844
vn -0.3162273 3.0297579E-06 -0.94868344
vn -0.31623018 0 -0.9486825
vn -0.3162273 -3.0297579E-06 -0.94868344
vn -0.31622943 0 -0.9486828
vn -0.31623232 -2.2980387E-06 -0.94868183
vn -0.31623015 -5.3278027E-06 -0.94868255
vn -0.3162273 -3.0297574E-06 -0.94868344
vn 3.7728887E-06 -0.7181552 0.6958829
vn 2.7220892E-06 -0.7181533 0.6958849
vn -4.3689752E-08 -0.7181541 0.69588405
vn 1.0985902E-06 -0.71815604 0.69588214
vn 3.7957545E-06 -0.7181552 0.6958829
vn 2.631646E-06 -0.7181533 0.6958849
vn -8.7379505E-08 -0.7181541 0.69588405
vn 9.852812E-07 -0.71815604 0.69588214
vn -0.31622857 -1.3319498E-06 -0.94868314
vn 1.8594001E-06 -0.71815467 0.6958835
g Wire Deformed_0
f 1/1/1 9/9/9 2/2/2
f 10/10/10 2/2/2 9/9/9
f 10/10/10 11/11/11 2/2/2
f 3/3/3 2/2/2 11/11/11
f 3/3/3 11/11/11 4/4/4
f 12/12/12 4/4/4 11/11/11
f 12/12/12 13/13/13 4/4/4
f 5/5/5 4/4/4 13/13/13
f 5/5/5 13/13/13 6/6/6
f 14/14/14 6/6/6 13/13/13
f 14/14/14 15/15/15 6/6/6
f 7/7/7 6/6/6 15/15/15
f 7/7/7 15/15/15 8/8/8
f 16/16/16 8/8/8 15/15/15
f 16/16/16 9/9/9 8/8/8
f 1/1/1 8/8/8 9/9/9
f 9/9/9 17/17/17 10/10/10
f 18/18/18 10/10/10 17/17/17
f 18/18/18 19/19/19 10/10/10
f 11/11/11 10/10/10 19/19/19
f 11/11/11 19/19/19 12/12/12
f 20/20/20 12/12/12 19/19/19
f 20/20/20 21/21/21 12/12/12
f 13/13/13 12/12/12 21/21/21
f 13/13/13 21/21/21 14/14/14
f 22/22/22 14/14/14 21/21/21
f 22/22/22 23/23/23 14/14/14
f 15/15/15 14/14/14 23/23/23
f 15/15/15 23/23/23 16/16/16
f 24/24/24 16/16/16 23/23/23
f 24/24/24 17/17/17 16/16/16
f 9/9/9 16/16/16 17/17/17
f 17/17/17 25/25/25 18/18/18
f 26/26/26 18/18/18 25/25/25
f 26/26/26 27/27/27 18/18/18
f 19/19/19 18/18/18 27/27/27
f 19/19/19 27/27/27 20/20/20
f 28/28/28 20/20/20 27/27/27
f 28/28/28 29/29/29 20/20/20
f 21/21/21 20/20/20 29/29/29
f 21/21/21 29/29/29 22/22/22
f 30/30/30 22/22/22 29/29/29
f 30/30/30 31/31/31 22/22/22
f 23/23/23 22/22/22 31/31/31
f 23/23/23 31/31/31 24/24/24
f 32/32/32 24/24/24 31/31/31
f 32/32/32 25/25/25 24/24/24
f 17/17/17 24/24/24 25/25/25
f 25/25/25 33/33/33 26/26/26
f 34/34/34 26/26/26 33/33/33
f 34/34/34 35/35/35 26/26/26
f 27/27/27 26/26/26 35/35/35
f 27/27/27 35/35/35 28/28/28
f 36/36/36 28/28/28 35/35/35
f 36/36/36 37/37/37 28/28/28
f 29/29/29 28/28/28 37/37/37
f 29/29/29 37/37/37 30/30/30
f 38/38/38 30/30/30 37/37/37
f 38/38/38 39/39/39 30/30/30
f 31/31/31 30/30/30 39/39/39
f 31/31/31 39/39/39 32/32/32
f 40/40/40 32/32/32 39/39/39
f 40/40/40 33/33/33 32/32/32
f 25/25/25 32/32/32 33/33/33
f 33/33/33 41/41/41 34/34/34
f 42/42/42 34/34/34 41/41/41
f 42/42/42 43/43/43 34/34/34
f 35/35/35 34/34/34 43/43/43
f 35/35/35 43/43/43 36/36/36
f 44/44/44 36/36/36 43/43/43
f 44/44/44 45/45/45 36/36/36
f 37/37/37 36/36/36 45/45/45
f 37/37/37 45/45/45 38/38/38
f 46/46/46 38/38/38 45/45/45
f 46/46/46 47/47/47 38/38/38
f 39/39/39 38/38/38 47/47/47
f 39/39/39 47/47/47 40/40/40
f 48/48/48 40/40/40 47/47/47
f 48/48/48 41/41/41 40/40/40
f 33/33/33 40/40/40 41/41/41
f 49/49/49 50/50/50 65/65/65
f 50/50/50 51/51/51 65/65/65
f 51/51/51 52/52/52 65/65/65
f 52/52/52 53/53/53 65/65/65
f 53/53/53 54/54/54 65/65/65
f 54/54/54 55/55/55 65/65/65
f 55/55/55 56/56/56 65/65/65
f 56/56/56 49/49/49 65/65/65
f 58/58/58 57/57/57 66/66/66
f 59/59/59 58/58/58 66/66/66
f 60/60/60 59/59/59 66/66/66
f 61/61/61 60/60/60 66/66/66
f 62/62/62 61/61/61 66/66/66
f 63/63/63 62/62/62 66/66/66
f 64/64/64 63/63/63 66/66/66
f 57/57/57 64/64/64 66/66/66
