g Wire Deformed
v 4.5437145 3.5929995 11.199051
v 4.553503 3.5739615 11.243958
v 4.557683 3.5279999 11.262533
v 4.5538054 3.4820383 11.243894
v 4.544142 3.4630003 11.198959
v 4.5343533 3.4820383 11.154052
v 4.5301733 3.5279999 11.135477
v 4.534051 3.5739615 11.154117
v 4.4183006 3.6033082 11.168822
v 4.3930326 3.584408 11.207283
v 4.37862 3.5387795 11.220895
v 4.383506 3.493151 11.201682
v 4.404828 3.4742508 11.160901
v 4.430096 3.493151 11.12244
v 4.4445086 3.5387795 11.108829
v 4.439623 3.584408 11.128041
v 4.2739687 3.6273704 11.063687
v 4.2429585 3.6085165 11.097714
v 4.226011 3.5629992 11.1084795
v 4.2330527 3.517482 11.089678
v 4.25996 3.4986281 11.052321
v 4.2909703 3.517482 11.018294
v 4.307918 3.5629992 11.007529
v 4.300876 3.6085165 11.026331
v 4.1291018 3.6517482 10.955106
v 4.103833 3.6328483 10.9935665
v 4.089421 3.5872197 11.007177
v 4.094307 3.5415912 10.987966
v 4.115629 3.5226912 10.947185
v 4.1408978 3.5415912 10.908724
v 4.15531 3.5872197 10.895113
v 4.150424 3.6328483 10.914325
v 3.9897883 3.6629994 10.9170475
v 3.9995768 3.6439614 10.961955
v 4.003756 3.5979998 10.98053
v 3.9998784 3.5520382 10.96189
v 3.990215 3.5330002 10.916956
v 3.9804265 3.5520382 10.872048
v 3.9762473 3.5979998 10.853474
v 3.980125 3.6439614 10.872113
v 4.5437145 3.5929995 11.199051
v 4.553503 3.5739615 11.243958
v 4.557683 3.5279999 11.262533
v 4.5538054 3.4820383 11.243894
v 4.544142 3.4630003 11.198959
v 4.5343533 3.4820383 11.154052
v 4.5301733 3.5279999 11.135477
v 4.534051 3.5739615 11.154117
v 3.9897883 3.6629994 10.9170475
v 3.9995768 3.6439614 10.961955
v 4.003756 3.5979998 10.98053
v 3.9998784 3.5520382 10.96189
v 3.990215 3.5330002 10.916956
v 3.9804265 3.5520382 10.872048
v 3.9762473 3.5979998 10.853474
v 3.980125 3.6439614 10.872113
v 4.543928 3.5279999 11.199005
v 3.9900017 3.5979998 10.917002
vt 0.49999997 1
vt 0.14644662 0.8535534
vt 0 0.49999997
vt 0.14644668 0.14644656
vt 0.5 0
vt 0.8535535 0.14644672
vt 1 0.50000006
vt 0.85355324 0.85355353
vt 0.49999997 1
vt 0.14644662 0.8535534
vt 0 0.49999997
vt 0.14644668 0.14644656
vt 0.5 0
vt 0.8535535 0.14644672
vt 1 0.50000006
vt 0.85355324 0.85355353
vt 0.49999997 1
vt 0.14644662 0.8535534
vt 0 0.49999997
vt 0.14644668 0.14644656
vt 0.5 0
vt 0.8535535 0.14644672
vt 1 0.50000006
vt 0.85355324 0.85355353
vt 0.49999997 1
vt 0.14644662 0.8535534
vt 0 0.49999997
vt 0.14644668 0.14644656
vt 0.5 0
vt 0.8535535 0.14644672
vt 1 0.50000006
vt 0.85355324 0.85355353
vt 0.49999997 1
vt 0.14644662 0.8535534
vt 0 0.49999997
vt 0.14644668 0.14644656
vt 0.5 0
vt 0.8535535 0.14644672
vt 1 0.50000006
vt 0.85355324 0.85355353
vt 0.49999997 1
vt 0.14644662 0.8535534
vt 0 0.49999997
vt 0.14644668 0.14644656
vt 0.5 0
vt 0.8535535 0.14644672
vt 1 0.50000006
vt 0.85355324 0.85355353
vt 0.49999997 1
vt 0.14644662 0.8535534
vt 0 0.49999997
vt 0.14644668 0.14644656
vt 0.5 0
vt 0.8535535 0.14644672
vt 1 0.50000006
vt 0.85355324 0.85355353
vt 0.5 0.5
vt 0.5 0.5
vn 0.061102375 0.9979984 -0.016299596
vn -0.045212556 0.6776426 0.7340002
vn -0.10598589 -0.00042179454 0.99436754
vn -0.118269175 -0.6862247 0.7177104
vn -0.061777484 -0.9980757 0.0053361477
vn 0.047682803 -0.7100447 -0.70254034
vn 0.1382945 0.002892889 -0.99038696
vn 0.13300562 0.70857334 -0.69298863
vn 0.08926152 0.99364996 0.06849902
vn -0.2810788 0.69344693 0.66342
vn -0.36385375 -0.011657393 0.9313831
vn -0.4131145 -0.7072246 0.5737332
vn -0.09773757 -0.99520195 -0.0045289234
vn 0.2966995 -0.70224863 -0.64716005
vn 0.43851078 -0.0036113777 -0.8987186
vn 0.4481958 0.7076457 -0.5462217
vn 0.10473516 0.9910198 0.08312768
vn -0.3429426 0.7030075 0.62303346
vn -0.5940859 -0.00045491089 0.8044014
vn -0.49574283 -0.70204943 0.5112394
vn -0.11074243 -0.99105006 -0.07453773
vn 0.34657055 -0.6973273 -0.6273942
vn 0.59455365 -0.00050550455 -0.80405575
vn 0.49763325 0.6973728 -0.5157832
vn 0.10174148 0.99289525 0.06170735
vn -0.22917245 0.71415824 0.66140604
vn -0.538872 -0.0022147123 0.8423848
vn -0.37333307 -0.7060031 0.60181564
vn -0.096701294 -0.99268574 -0.07227651
vn 0.20984294 -0.6754412 -0.7069266
vn 0.4827048 0.010525647 -0.87571985
vn 0.32635328 0.684605 -0.6517741
vn 0.041786656 0.9989426 -0.01917389
vn 0.029397309 0.70431644 0.7092773
vn 0.0028880239 -0.0022126816 0.9999934
vn -0.031610936 -0.6984408 0.7149694
vn -0.034002505 -0.9988209 -0.034650724
vn -0.04393317 -0.70046216 -0.71233594
vn -0.03229989 0.012424642 -0.99940103
vn 0.005749531 0.6962156 -0.7178098
vn 0.97734827 0.003361112 -0.21161042
vn 0.97734845 0.0033629038 -0.21160981
vn 0.9773481 0.003363575 -0.21161154
vn 0.97734785 0.0033617832 -0.21161218
vn 0.97734827 0.003361112 -0.21161042
vn 0.97734845 0.0033629038 -0.21160981
vn 0.9773481 0.003363575 -0.21161154
vn 0.97734785 0.0033617832 -0.21161218
vn -0.9773488 -0.003357527 0.21160796
vn -0.9773491 -0.0033549962 0.21160704
vn -0.9773495 -0.003355962 0.21160452
vn -0.97734934 -0.0033584933 0.21160547
vn -0.9773488 -0.003357527 0.21160796
vn -0.9773491 -0.0033549962 0.21160704
vn -0.9773495 -0.003355962 0.21160452
vn -0.97734934 -0.0033584933 0.21160547
vn 0.9773482 0.0033623434 -0.21161097
vn -0.97734916 -0.0033567443 0.21160623
g Wire Deformed_0
f 1/1/1 9/9/9 2/2/2
f 10/10/10 2/2/2 9/9/9
f 10/10/10 11/11/11 2/2/2
f 3/3/3 2/2/2 11/11/11
f 3/3/3 11/11/11 4/4/4
f 12/12/12 4/4/4 11/11/11
f 12/12/12 13/13/13 4/4/4
f 5/5/5 4/4/4 13/13/13
f 5/5/5 13/13/13 6/6/6
f 14/14/14 6/6/6 13/13/13
f 14/14/14 15/15/15 6/6/6
f 7/7/7 6/6/6 15/15/15
f 7/7/7 15/15/15 8/8/8
f 16/16/16 8/8/8 15/15/15
f 16/16/16 9/9/9 8/8/8
f 1/1/1 8/8/8 9/9/9
f 9/9/9 17/17/17 10/10/10
f 18/18/18 10/10/10 17/17/17
f 18/18/18 19/19/19 10/10/10
f 11/11/11 10/10/10 19/19/19
f 11/11/11 19/19/19 12/12/12
f 20/20/20 12/12/12 19/19/19
f 20/20/20 21/21/21 12/12/12
f 13/13/13 12/12/12 21/21/21
f 13/13/13 21/21/21 14/14/14
f 22/22/22 14/14/14 21/21/21
f 22/22/22 23/23/23 14/14/14
f 15/15/15 14/14/14 23/23/23
f 15/15/15 23/23/23 16/16/16
f 24/24/24 16/16/16 23/23/23
f 24/24/24 17/17/17 16/16/16
f 9/9/9 16/16/16 17/17/17
f 17/17/17 25/25/25 18/18/18
f 26/26/26 18/18/18 25/25/25
f 26/26/26 27/27/27 18/18/18
f 19/19/19 18/18/18 27/27/27
f 19/19/19 27/27/27 20/20/20
f 28/28/28 20/20/20 27/27/27
f 28/28/28 29/29/29 20/20/20
f 21/21/21 20/20/20 29/29/29
f 21/21/21 29/29/29 22/22/22
f 30/30/30 22/22/22 29/29/29
f 30/30/30 31/31/31 22/22/22
f 23/23/23 22/22/22 31/31/31
f 23/23/23 31/31/31 24/24/24
f 32/32/32 24/24/24 31/31/31
f 32/32/32 25/25/25 24/24/24
f 17/17/17 24/24/24 25/25/25
f 25/25/25 33/33/33 26/26/26
f 34/34/34 26/26/26 33/33/33
f 34/34/34 35/35/35 26/26/26
f 27/27/27 26/26/26 35/35/35
f 27/27/27 35/35/35 28/28/28
f 36/36/36 28/28/28 35/35/35
f 36/36/36 37/37/37 28/28/28
f 29/29/29 28/28/28 37/37/37
f 29/29/29 37/37/37 30/30/30
f 38/38/38 30/30/30 37/37/37
f 38/38/38 39/39/39 30/30/30
f 31/31/31 30/30/30 39/39/39
f 31/31/31 39/39/39 32/32/32
f 40/40/40 32/32/32 39/39/39
f 40/40/40 33/33/33 32/32/32
f 25/25/25 32/32/32 33/33/33
f 41/41/41 42/42/42 57/57/57
f 42/42/42 43/43/43 57/57/57
f 43/43/43 44/44/44 57/57/57
f 44/44/44 45/45/45 57/57/57
f 45/45/45 46/46/46 57/57/57
f 46/46/46 47/47/47 57/57/57
f 47/47/47 48/48/48 57/57/57
f 48/48/48 41/41/41 57/57/57
f 50/50/50 49/49/49 58/58/58
f 51/51/51 50/50/50 58/58/58
f 52/52/52 51/51/51 58/58/58
f 53/53/53 52/52/52 58/58/58
f 54/54/54 53/53/53 58/58/58
f 55/55/55 54/54/54 58/58/58
f 56/56/56 55/55/55 58/58/58
f 49/49/49 56/56/56 58/58/58
