g Wire Deformed
v -2.6536751E-08 0.075 0.50000006
v 0.052826177 0.05303301 0.49532118
v 0.07470751 -6.5567085E-09 0.4933831
v 0.05282617 -0.05303302 0.49532118
v -3.06932E-08 -0.075 0.50000006
v -0.052826256 -0.05303299 0.50467896
v -0.07470757 1.3113417E-08 0.506617
v -0.05282621 0.053033035 0.50467896
v 0.08132815 0.075 0.6951397
v 0.12404074 0.05303301 0.6637051
v 0.14173287 -6.5567085E-09 0.6506844
v 0.12404073 -0.05303302 0.6637051
v 0.08132815 -0.075 0.6951397
v 0.038615555 -0.05303299 0.72657436
v 0.020923436 1.3113417E-08 0.739595
v 0.03861559 0.053033035 0.7265743
v 0.25006413 0.075 0.87070096
v 0.28517288 0.05303301 0.8309533
v 0.2997154 -6.5567085E-09 0.8144893
v 0.28517288 -0.05303302 0.8309533
v 0.25006413 -0.075 0.87070096
v 0.21495537 -0.05303299 0.9104486
v 0.20041287 1.3113417E-08 0.9269126
v 0.2149554 0.053033035 0.9104486
v 0.4491361 0.075 1.0418955
v 0.48443237 0.05303301 1.0023143
v 0.49905258 -6.5567085E-09 0.9859192
v 0.48443237 -0.05303302 1.0023143
v 0.4491361 -0.075 1.0418955
v 0.41383982 -0.05303299 1.0814768
v 0.39921963 1.3113417E-08 1.0978718
v 0.41383985 0.053033035 1.0814767
v 0.62147194 0.075 1.2239368
v 0.6643703 0.05303301 1.1927562
v 0.6821394 -6.5567085E-09 1.1798407
v 0.6643703 -0.05303302 1.1927562
v 0.62147194 -0.075 1.2239368
v 0.5785736 -0.05303299 1.2551174
v 0.5608045 1.3113417E-08 1.2680329
v 0.57857364 0.053033035 1.2551174
v 0.7099999 0.075 1.4320364
v 0.7626425 0.05303301 1.4256132
v 0.7844478 -6.5567085E-09 1.4229525
v 0.7626425 -0.05303302 1.4256132
v 0.7099999 -0.075 1.4320364
v 0.65735734 -0.05303299 1.4384596
v 0.63555205 1.3113417E-08 1.4411203
v 0.65735734 0.053033035 1.4384596
v -2.6536751E-08 0.075 0.50000006
v 0.052826177 0.05303301 0.49532118
v 0.07470751 -6.5567085E-09 0.4933831
v 0.05282617 -0.05303302 0.49532118
v -3.06932E-08 -0.075 0.50000006
v -0.052826256 -0.05303299 0.50467896
v -0.07470757 1.3113417E-08 0.506617
v -0.05282621 0.053033035 0.50467896
v 0.7099999 0.075 1.4320364
v 0.7626425 0.05303301 1.4256132
v 0.7844478 -6.5567085E-09 1.4229525
v 0.7626425 -0.05303302 1.4256132
v 0.7099999 -0.075 1.4320364
v 0.65735734 -0.05303299 1.4384596
v 0.63555205 1.3113417E-08 1.4411203
v 0.65735734 0.053033035 1.4384596
v -2.9802322E-08 0 0.50000006
v 0.7099999 0 1.4320364
vt 0.49999997 1
vt 0.14644662 0.85355335
vt 0 0.49999997
vt 0.14644668 0.14644654
vt 0.5 0
vt 0.85355353 0.14644675
vt 1 0.50000006
vt 0.85355324 0.85355353
vt 0.49999997 1
vt 0.14644662 0.85355335
vt 0 0.49999997
vt 0.14644668 0.14644654
vt 0.5 0
vt 0.85355353 0.14644675
vt 1 0.50000006
vt 0.85355324 0.85355353
vt 0.49999997 1
vt 0.14644662 0.85355335
vt 0 0.49999997
vt 0.14644668 0.14644654
vt 0.5 0
vt 0.85355353 0.14644675
vt 1 0.50000006
vt 0.85355324 0.85355353
vt 0.49999997 1
vt 0.14644662 0.85355335
vt 0 0.49999997
vt 0.14644668 0.14644654
vt 0.5 0
vt 0.85355353 0.14644675
vt 1 0.50000006
vt 0.85355324 0.85355353
vt 0.49999997 1
vt 0.14644662 0.85355335
vt 0 0.49999997
vt 0.14644668 0.14644654
vt 0.5 0
vt 0.85355353 0.14644675
vt 1 0.50000006
vt 0.85355324 0.85355353
vt 0.49999997 1
vt 0.14644662 0.85355335
vt 0 0.49999997
vt 0.14644668 0.14644654
vt 0.5 0
vt 0.85355353 0.14644675
vt 1 0.50000006
vt 0.85355324 0.85355353
vt 0.49999997 1
vt 0.14644662 0.85355335
vt 0 0.49999997
vt 0.14644668 0.14644654
vt 0.5 0
vt 0.85355353 0.14644675
vt 1 0.50000006
vt 0.85355324 0.85355353
vt 0.49999997 1
vt 0.14644662 0.85355335
vt 0 0.49999997
vt 0.14644668 0.14644654
vt 0.5 0
vt 0.85355353 0.14644675
vt 1 0.50000006
vt 0.85355324 0.85355353
vt 0.5 0.5
vt 0.5 0.5
vn -0.0014225738 0.999998 9.4228046E-05
vn 0.6819286 0.7130152 -0.16304201
vn 0.97221017 -8.8514284E-08 -0.23410958
vn 0.6819285 -0.7130153 -0.16304201
vn -0.0014231045 -0.999998 9.435348E-05
vn -0.6961721 -0.698578 0.16532764
vn -0.9737587 4.0871075E-07 0.22758289
vn -0.6961718 0.69857806 0.16532773
vn -0.017090775 0.9998331 0.0064602457
vn 0.553605 0.71125704 -0.43316835
vn 0.8555371 -8.4407574E-08 -0.5177414
vn 0.55360496 -0.7112571 -0.43316832
vn -0.017091263 -0.99983305 0.0064605228
vn -0.5668586 -0.7045402 0.4269595
vn -0.86847836 5.1060744E-07 0.49572703
vn -0.5668585 0.70454025 0.42695943
vn -0.0046115834 0.9999805 0.0042181197
vn 0.47634375 0.70698667 -0.5227489
vn 0.69596153 -2.4323032E-08 -0.71807915
vn 0.47634372 -0.70698684 -0.5227488
vn -0.0046119345 -0.99998045 0.004218506
vn -0.477644 -0.7071064 0.5213988
vn -0.6990123 3.4529333E-07 0.7151096
vn -0.47764382 0.70710665 0.52139866
vn 8.915638E-05 1 -0.000100426296
vn 0.4996873 0.70310414 -0.5059222
vn 0.67812574 1.6641165E-08 -0.73494583
vn 0.49968728 -0.70310414 -0.5059221
vn 8.877101E-05 -1 -0.00010004658
vn -0.49365756 -0.709274 0.5032223
vn -0.675351 6.947184E-07 0.7374965
vn -0.49365744 0.7092741 0.5032222
vn 0.004841381 0.9999787 -0.0043811626
vn 0.62253106 0.6963267 -0.35718945
vn 0.8032285 4.4960007E-08 -0.5956711
vn 0.622531 -0.69632673 -0.35718942
vn 0.0048409947 -0.99997866 -0.004380858
vn -0.6027513 -0.7123364 0.35953826
vn -0.79006183 6.777646E-07 0.6130272
vn -0.60275126 0.71233654 0.35953814
vn 0.011712819 0.9999208 -0.0046100095
vn 0.6898278 0.7034921 -0.1709864
vn 0.9709968 2.6247586E-09 -0.23909217
vn 0.68982786 -0.70349216 -0.17098653
vn 0.011712304 -0.9999208 -0.004609867
vn -0.6874005 -0.7053314 0.17317127
vn -0.9700414 1.2607553E-07 0.24293986
vn -0.68740046 0.7053315 0.17317106
vn -0.08822602 3.841444E-09 -0.9961005
vn -0.08822586 1.4460534E-07 -0.9961005
vn -0.088226 7.31716E-09 -0.9961005
vn -0.088225864 -1.3484349E-07 -0.9961005
vn -0.088225976 1.0479817E-09 -0.9961005
vn -0.08822612 -1.2020915E-07 -0.9961005
vn -0.088226005 3.6585806E-08 -0.9961005
vn -0.08822615 1.5923968E-07 -0.99610037
vn 0.12111768 0 0.9926381
vn 0.121117935 -2.597592E-07 0.9926381
vn 0.12111821 0 0.9926381
vn 0.12111795 2.597592E-07 0.9926381
vn 0.12111768 0 0.9926381
vn 0.12111794 -2.5975922E-07 0.9926381
vn 0.12111821 0 0.9926381
vn 0.12111794 2.5975916E-07 0.9926381
vn -0.08822599 1.21980985E-08 -0.9961005
vn 0.12111794 0 0.9926381
g Wire Deformed_0
f 1/1/1 9/9/9 2/2/2
f 10/10/10 2/2/2 9/9/9
f 10/10/10 11/11/11 2/2/2
f 3/3/3 2/2/2 11/11/11
f 3/3/3 11/11/11 4/4/4
f 12/12/12 4/4/4 11/11/11
f 12/12/12 13/13/13 4/4/4
f 5/5/5 4/4/4 13/13/13
f 5/5/5 13/13/13 6/6/6
f 14/14/14 6/6/6 13/13/13
f 14/14/14 15/15/15 6/6/6
f 7/7/7 6/6/6 15/15/15
f 7/7/7 15/15/15 8/8/8
f 16/16/16 8/8/8 15/15/15
f 16/16/16 9/9/9 8/8/8
f 1/1/1 8/8/8 9/9/9
f 9/9/9 17/17/17 10/10/10
f 18/18/18 10/10/10 17/17/17
f 18/18/18 19/19/19 10/10/10
f 11/11/11 10/10/10 19/19/19
f 11/11/11 19/19/19 12/12/12
f 20/20/20 12/12/12 19/19/19
f 20/20/20 21/21/21 12/12/12
f 13/13/13 12/12/12 21/21/21
f 13/13/13 21/21/21 14/14/14
f 22/22/22 14/14/14 21/21/21
f 22/22/22 23/23/23 14/14/14
f 15/15/15 14/14/14 23/23/23
f 15/15/15 23/23/23 16/16/16
f 24/24/24 16/16/16 23/23/23
f 24/24/24 17/17/17 16/16/16
f 9/9/9 16/16/16 17/17/17
f 17/17/17 25/25/25 18/18/18
f 26/26/26 18/18/18 25/25/25
f 26/26/26 27/27/27 18/18/18
f 19/19/19 18/18/18 27/27/27
f 19/19/19 27/27/27 20/20/20
f 28/28/28 20/20/20 27/27/27
f 28/28/28 29/29/29 20/20/20
f 21/21/21 20/20/20 29/29/29
f 21/21/21 29/29/29 22/22/22
f 30/30/30 22/22/22 29/29/29
f 30/30/30 31/31/31 22/22/22
f 23/23/23 22/22/22 31/31/31
f 23/23/23 31/31/31 24/24/24
f 32/32/32 24/24/24 31/31/31
f 32/32/32 25/25/25 24/24/24
f 17/17/17 24/24/24 25/25/25
f 25/25/25 33/33/33 26/26/26
f 34/34/34 26/26/26 33/33/33
f 34/34/34 35/35/35 26/26/26
f 27/27/27 26/26/26 35/35/35
f 27/27/27 35/35/35 28/28/28
f 36/36/36 28/28/28 35/35/35
f 36/36/36 37/37/37 28/28/28
f 29/29/29 28/28/28 37/37/37
f 29/29/29 37/37/37 30/30/30
f 38/38/38 30/30/30 37/37/37
f 38/38/38 39/39/39 30/30/30
f 31/31/31 30/30/30 39/39/39
f 31/31/31 39/39/39 32/32/32
f 40/40/40 32/32/32 39/39/39
f 40/40/40 33/33/33 32/32/32
f 25/25/25 32/32/32 33/33/33
f 33/33/33 41/41/41 34/34/34
f 42/42/42 34/34/34 41/41/41
f 42/42/42 43/43/43 34/34/34
f 35/35/35 34/34/34 43/43/43
f 35/35/35 43/43/43 36/36/36
f 44/44/44 36/36/36 43/43/43
f 44/44/44 45/45/45 36/36/36
f 37/37/37 36/36/36 45/45/45
f 37/37/37 45/45/45 38/38/38
f 46/46/46 38/38/38 45/45/45
f 46/46/46 47/47/47 38/38/38
f 39/39/39 38/38/38 47/47/47
f 39/39/39 47/47/47 40/40/40
f 48/48/48 40/40/40 47/47/47
f 48/48/48 41/41/41 40/40/40
f 33/33/33 40/40/40 41/41/41
f 49/49/49 50/50/50 65/65/65
f 50/50/50 51/51/51 65/65/65
f 51/51/51 52/52/52 65/65/65
f 52/52/52 53/53/53 65/65/65
f 53/53/53 54/54/54 65/65/65
f 54/54/54 55/55/55 65/65/65
f 55/55/55 56/56/56 65/65/65
f 56/56/56 49/49/49 65/65/65
f 58/58/58 57/57/57 66/66/66
f 59/59/59 58/58/58 66/66/66
f 60/60/60 59/59/59 66/66/66
f 61/61/61 60/60/60 66/66/66
f 62/62/62 61/61/61 66/66/66
f 63/63/63 62/62/62 66/66/66
f 64/64/64 63/63/63 66/66/66
f 57/57/57 64/64/64 66/66/66
