g Wire Deformed
v 6.1166754 2.7312205 5.1504006
v 6.06779 2.7296917 5.1413
v 6.0397215 2.7260005 5.100392
v 6.0489125 2.7223094 5.051639
v 6.089979 2.7207806 5.0236
v 6.1388645 2.7223094 5.0327005
v 6.166933 2.7260005 5.073609
v 6.157742 2.7296917 5.1223617
v 6.1340413 2.933216 5.1114955
v 6.088269 2.9302032 5.1307516
v 6.042697 2.9229298 5.112171
v 6.02402 2.9156563 5.066639
v 6.043179 2.9126434 5.020826
v 6.088951 2.9156563 5.0015697
v 6.1345234 2.9229298 5.02015
v 6.1532 2.9302032 5.0656824
v 6.123016 3.1386197 5.0685797
v 6.0904126 3.1359668 5.106062
v 6.0411973 3.1295621 5.1094894
v 6.004199 3.1231575 5.076854
v 6.0010915 3.1205046 5.027273
v 6.0336947 3.1231575 4.989791
v 6.08291 3.1295621 4.9863634
v 6.1199083 3.1359668 5.0189986
v 6.066095 3.3246057 4.997354
v 6.1010284 3.3208883 5.032579
v 6.1008306 3.3119137 5.081511
v 6.065616 3.3029392 5.115487
v 6.0160146 3.2992218 5.1146045
v 5.981081 3.3029392 5.0793796
v 5.981279 3.3119137 5.0304475
v 6.0164933 3.3208883 4.9964714
v 6.034005 3.484312 5.071456
v 6.081608 3.470162 5.07441
v 6.1065946 3.4360003 5.1005554
v 6.0943284 3.4018388 5.1345773
v 6.0519953 3.3876886 5.1565456
v 6.0043926 3.4018388 5.1535916
v 5.979406 3.4360003 5.127446
v 5.991672 3.470162 5.0934243
v 6.1166754 2.7312205 5.1504006
v 6.06779 2.7296917 5.1413
v 6.0397215 2.7260005 5.100392
v 6.0489125 2.7223094 5.051639
v 6.089979 2.7207806 5.0236
v 6.1388645 2.7223094 5.0327005
v 6.166933 2.7260005 5.073609
v 6.157742 2.7296917 5.1223617
v 6.034005 3.484312 5.071456
v 6.081608 3.470162 5.07441
v 6.1065946 3.4360003 5.1005554
v 6.0943284 3.4018388 5.1345773
v 6.0519953 3.3876886 5.1565456
v 6.0043926 3.4018388 5.1535916
v 5.979406 3.4360003 5.127446
v 5.991672 3.470162 5.0934243
v 6.1033273 2.7260005 5.0870004
v 6.043 3.4360003 5.114001
vt 0.49999997 1
vt 0.14644662 0.8535534
vt 0 0.49999997
vt 0.14644668 0.14644656
vt 0.5 0
vt 0.8535535 0.14644672
vt 1 0.50000006
vt 0.85355324 0.85355353
vt 0.49999997 1
vt 0.14644662 0.8535534
vt 0 0.49999997
vt 0.14644668 0.14644656
vt 0.5 0
vt 0.8535535 0.14644672
vt 1 0.50000006
vt 0.85355324 0.85355353
vt 0.49999997 1
vt 0.14644662 0.8535534
vt 0 0.49999997
vt 0.14644668 0.14644656
vt 0.5 0
vt 0.8535535 0.14644672
vt 1 0.50000006
vt 0.85355324 0.85355353
vt 0.49999997 1
vt 0.14644662 0.8535534
vt 0 0.49999997
vt 0.14644668 0.14644656
vt 0.5 0
vt 0.8535535 0.14644672
vt 1 0.50000006
vt 0.85355324 0.85355353
vt 0.49999997 1
vt 0.14644662 0.8535534
vt 0 0.49999997
vt 0.14644668 0.14644656
vt 0.5 0
vt 0.8535535 0.14644672
vt 1 0.50000006
vt 0.85355324 0.85355353
vt 0.49999997 1
vt 0.14644662 0.8535534
vt 0 0.49999997
vt 0.14644668 0.14644656
vt 0.5 0
vt 0.8535535 0.14644672
vt 1 0.50000006
vt 0.85355324 0.85355353
vt 0.49999997 1
vt 0.14644662 0.8535534
vt 0 0.49999997
vt 0.14644668 0.14644656
vt 0.5 0
vt 0.8535535 0.14644672
vt 1 0.50000006
vt 0.85355324 0.85355353
vt 0.5 0.5
vt 0.5 0.5
vn 0.2367821 0.14887738 0.96008843
vn -0.41910365 0.07959733 0.90444255
vn -0.97110337 -0.0023613467 0.2386477
vn -0.90462005 -0.10357231 -0.41344336
vn -0.23864496 -0.096652865 -0.9662851
vn 0.42371252 -0.081197366 -0.90215003
vn 0.9680582 0.054480016 -0.24473536
vn 0.90466315 0.101256795 0.41392252
vn 0.55800486 0.14800423 0.8165325
vn 0.14983973 0.09429872 0.9842031
vn -0.8242911 -0.008208886 0.5661067
vn -0.9807794 -0.112551846 0.15938577
vn -0.559079 -0.12644848 -0.8194154
vn -0.14479347 -0.12819666 -0.981122
vn 0.8245511 0.030898059 -0.56494325
vn 0.98457474 0.07732402 -0.15695083
vn 0.8623852 0.2320718 0.44992724
vn 0.76373684 0.104573086 0.6370011
vn -0.47637987 0.08365331 0.875251
vn -0.6431825 -0.099163964 0.75926465
vn -0.88282204 -0.035889942 -0.46833444
vn -0.75899124 -0.1293397 -0.63812506
vn 0.44643006 0.11659216 -0.8871902
vn 0.61802393 0.07161114 -0.7828909
vn 0.7346997 0.27150548 -0.6216921
vn 0.8304057 0.089934096 -0.54985285
vn 0.6208525 -0.02981954 0.7833601
vn 0.5116735 -0.3204283 0.7971926
vn -0.8198407 -0.1681325 0.5473507
vn -0.84134346 -0.3197006 0.43581265
vn -0.6131066 0.085090294 -0.78540426
vn -0.52387595 0.12233014 -0.84296465
vn 0.0069218576 0.7637246 -0.6455052
vn 0.61782295 0.54498655 -0.56681967
vn 0.9994556 0.031449936 -0.009977162
vn 0.7970275 -0.5134499 0.31798804
vn -0.040028274 -0.7730136 0.6331254
vn -0.64332575 -0.5915901 0.48595607
vn -0.9995452 -0.0067911753 -0.029381648
vn -0.7840877 0.49204084 -0.37828854
vn 0.016545068 -0.9967702 0.07858377
vn 0.016543683 -0.99677 0.078585714
vn 0.016545642 -0.99676985 0.078587085
vn 0.016547026 -0.99677 0.07858514
vn 0.016545068 -0.9967702 0.07858377
vn 0.016543683 -0.99677 0.078585714
vn 0.016545642 -0.99676985 0.078587085
vn 0.016547026 -0.99677 0.07858514
vn 0.15374212 0.6690056 0.7271829
vn 0.1537421 0.6690039 0.72718436
vn 0.15374427 0.66900367 0.7271841
vn 0.15374425 0.66900533 0.7271827
vn 0.15374212 0.6690056 0.7271829
vn 0.1537421 0.6690039 0.72718436
vn 0.15374427 0.66900367 0.7271841
vn 0.15374425 0.66900533 0.7271827
vn 0.016545355 -0.9967701 0.07858542
vn 0.1537432 0.6690046 0.72718346
g Wire Deformed_0
f 1/1/1 9/9/9 2/2/2
f 10/10/10 2/2/2 9/9/9
f 10/10/10 11/11/11 2/2/2
f 3/3/3 2/2/2 11/11/11
f 3/3/3 11/11/11 4/4/4
f 12/12/12 4/4/4 11/11/11
f 12/12/12 13/13/13 4/4/4
f 5/5/5 4/4/4 13/13/13
f 5/5/5 13/13/13 6/6/6
f 14/14/14 6/6/6 13/13/13
f 14/14/14 15/15/15 6/6/6
f 7/7/7 6/6/6 15/15/15
f 7/7/7 15/15/15 8/8/8
f 16/16/16 8/8/8 15/15/15
f 16/16/16 9/9/9 8/8/8
f 1/1/1 8/8/8 9/9/9
f 9/9/9 17/17/17 10/10/10
f 18/18/18 10/10/10 17/17/17
f 18/18/18 19/19/19 10/10/10
f 11/11/11 10/10/10 19/19/19
f 11/11/11 19/19/19 12/12/12
f 20/20/20 12/12/12 19/19/19
f 20/20/20 21/21/21 12/12/12
f 13/13/13 12/12/12 21/21/21
f 13/13/13 21/21/21 14/14/14
f 22/22/22 14/14/14 21/21/21
f 22/22/22 23/23/23 14/14/14
f 15/15/15 14/14/14 23/23/23
f 15/15/15 23/23/23 16/16/16
f 24/24/24 16/16/16 23/23/23
f 24/24/24 17/17/17 16/16/16
f 9/9/9 16/16/16 17/17/17
f 17/17/17 25/25/25 18/18/18
f 26/26/26 18/18/18 25/25/25
f 26/26/26 27/27/27 18/18/18
f 19/19/19 18/18/18 27/27/27
f 19/19/19 27/27/27 20/20/20
f 28/28/28 20/20/20 27/27/27
f 28/28/28 29/29/29 20/20/20
f 21/21/21 20/20/20 29/29/29
f 21/21/21 29/29/29 22/22/22
f 30/30/30 22/22/22 29/29/29
f 30/30/30 31/31/31 22/22/22
f 23/23/23 22/22/22 31/31/31
f 23/23/23 31/31/31 24/24/24
f 32/32/32 24/24/24 31/31/31
f 32/32/32 25/25/25 24/24/24
f 17/17/17 24/24/24 25/25/25
f 25/25/25 33/33/33 26/26/26
f 34/34/34 26/26/26 33/33/33
f 34/34/34 35/35/35 26/26/26
f 27/27/27 26/26/26 35/35/35
f 27/27/27 35/35/35 28/28/28
f 36/36/36 28/28/28 35/35/35
f 36/36/36 37/37/37 28/28/28
f 29/29/29 28/28/28 37/37/37
f 29/29/29 37/37/37 30/30/30
f 38/38/38 30/30/30 37/37/37
f 38/38/38 39/39/39 30/30/30
f 31/31/31 30/30/30 39/39/39
f 31/31/31 39/39/39 32/32/32
f 40/40/40 32/32/32 39/39/39
f 40/40/40 33/33/33 32/32/32
f 25/25/25 32/32/32 33/33/33
f 41/41/41 42/42/42 57/57/57
f 42/42/42 43/43/43 57/57/57
f 43/43/43 44/44/44 57/57/57
f 44/44/44 45/45/45 57/57/57
f 45/45/45 46/46/46 57/57/57
f 46/46/46 47/47/47 57/57/57
f 47/47/47 48/48/48 57/57/57
f 48/48/48 41/41/41 57/57/57
f 50/50/50 49/49/49 58/58/58
f 51/51/51 50/50/50 58/58/58
f 52/52/52 51/51/51 58/58/58
f 53/53/53 52/52/52 58/58/58
f 54/54/54 53/53/53 58/58/58
f 55/55/55 54/54/54 58/58/58
f 56/56/56 55/55/55 58/58/58
f 49/49/49 56/56/56 58/58/58
