g Wire Deformed
v -0.21200009 0.19700001 5.8777666
v -0.15896708 0.17503302 5.8777666
v -0.13700008 0.122 5.8777666
v -0.1589671 0.068966985 5.8777666
v -0.21200009 0.047000006 5.8777666
v -0.26503313 0.068967015 5.8777666
v -0.2870001 0.12200002 5.8777666
v -0.26503307 0.17503305 5.8777666
v -0.22052322 0.18913369 5.9771833
v -0.16748296 0.16757978 5.9813313
v -0.1441801 0.11554404 5.974675
v -0.16426516 0.0635083 5.9611135
v -0.21597256 0.041954406 5.9485903
v -0.26901284 0.06350833 5.9444423
v -0.2923157 0.115544066 5.9510984
v -0.27223063 0.16757981 5.96466
v -0.24439886 0.15373467 6.0653806
v -0.19025394 0.13507661 6.069286
v -0.16125686 0.09003208 6.0486655
v -0.17439376 0.044987552 6.015598
v -0.22196916 0.026329508 5.989454
v -0.2761141 0.044987578 5.9855485
v -0.30511114 0.0900321 6.006169
v -0.29197425 0.13507663 6.0392365
v -0.26725832 0.085312076 6.139484
v -0.2116897 0.070941515 6.1386685
v -0.17920466 0.036247905 6.1064796
v -0.18883249 0.0015542969 6.061773
v -0.23493335 -0.012816258 6.0307364
v -0.29050198 0.0015543172 6.031552
v -0.32298702 0.036247917 6.0637407
v -0.31335914 0.07094153 6.1084476
v -0.27643475 -0.014105369 6.2117467
v -0.2211229 -0.02609021 6.2021546
v -0.19225855 -0.05502418 6.1618466
v -0.20675007 -0.08395815 6.114435
v -0.2561085 -0.09594298 6.0876927
v -0.31142035 -0.083958134 6.097285
v -0.3402847 -0.05502417 6.137593
v -0.32579318 -0.026090197 6.185004
v -0.27338374 -0.15396619 6.299041
v -0.22023928 -0.16539891 6.2806015
v -0.19800134 -0.19299991 6.2354493
v -0.21969661 -0.22060093 6.1900344
v -0.27261627 -0.23203364 6.1709595
v -0.32576072 -0.22060092 6.189399
v -0.34799865 -0.19299991 6.234551
v -0.3263034 -0.1653989 6.279966
v -0.21200009 0.19700001 5.8777666
v -0.15896708 0.17503302 5.8777666
v -0.13700008 0.122 5.8777666
v -0.1589671 0.068966985 5.8777666
v -0.21200009 0.047000006 5.8777666
v -0.26503313 0.068967015 5.8777666
v -0.2870001 0.12200002 5.8777666
v -0.26503307 0.17503305 5.8777666
v -0.27338374 -0.15396619 6.299041
v -0.22023928 -0.16539891 6.2806015
v -0.19800134 -0.19299991 6.2354493
v -0.21969661 -0.22060093 6.1900344
v -0.27261627 -0.23203364 6.1709595
v -0.32576072 -0.22060092 6.189399
v -0.34799865 -0.19299991 6.234551
v -0.3263034 -0.1653989 6.279966
v -0.21200009 0.12200001 5.8777666
v -0.273 -0.19299991 6.235
vt 0.49999997 1
vt 0.14644662 0.85355335
vt 0 0.49999997
vt 0.14644668 0.14644654
vt 0.5 0
vt 0.85355353 0.14644675
vt 1 0.50000006
vt 0.85355324 0.85355353
vt 0.49999997 1
vt 0.14644662 0.85355335
vt 0 0.49999997
vt 0.14644668 0.14644654
vt 0.5 0
vt 0.85355353 0.14644675
vt 1 0.50000006
vt 0.85355324 0.85355353
vt 0.49999997 1
vt 0.14644662 0.85355335
vt 0 0.49999997
vt 0.14644668 0.14644654
vt 0.5 0
vt 0.85355353 0.14644675
vt 1 0.50000006
vt 0.85355324 0.85355353
vt 0.49999997 1
vt 0.14644662 0.85355335
vt 0 0.49999997
vt 0.14644668 0.14644654
vt 0.5 0
vt 0.85355353 0.14644675
vt 1 0.50000006
vt 0.85355324 0.85355353
vt 0.49999997 1
vt 0.14644662 0.85355335
vt 0 0.49999997
vt 0.14644668 0.14644654
vt 0.5 0
vt 0.85355353 0.14644675
vt 1 0.50000006
vt 0.85355324 0.85355353
vt 0.49999997 1
vt 0.14644662 0.85355335
vt 0 0.49999997
vt 0.14644668 0.14644654
vt 0.5 0
vt 0.85355353 0.14644675
vt 1 0.50000006
vt 0.85355324 0.85355353
vt 0.49999997 1
vt 0.14644662 0.85355335
vt 0 0.49999997
vt 0.14644668 0.14644654
vt 0.5 0
vt 0.85355353 0.14644675
vt 1 0.50000006
vt 0.85355324 0.85355353
vt 0.49999997 1
vt 0.14644662 0.85355335
vt 0 0.49999997
vt 0.14644668 0.14644654
vt 0.5 0
vt 0.85355353 0.14644675
vt 1 0.50000006
vt 0.85355324 0.85355353
vt 0.5 0.5
vt 0.5 0.5
vn -0.0012703281 0.9995807 -0.02892421
vn 0.7032303 0.71076846 0.016594768
vn 0.9986263 0.017623525 0.04934465
vn 0.7194446 -0.69211924 0.058055542
vn -0.0079095615 -0.9995357 0.029426835
vn -0.70564497 -0.7084272 -0.014012411
vn -0.99829394 0.021098215 -0.05444379
vn -0.6970855 0.71474487 -0.056671806
vn -0.0115414765 0.98468655 0.17395176
vn 0.64582306 0.7001173 0.3045462
vn 0.9927126 0.01763844 0.11920864
vn 0.7559178 -0.6536338 -0.036760025
vn 0.035506774 -0.9901229 -0.13563122
vn -0.67592233 -0.6799513 -0.28424513
vn -0.99335074 0.017806914 -0.113742046
vn -0.7158258 0.6945946 0.07163597
vn -0.11089928 0.8803025 0.46126887
vn 0.55357724 0.59539586 0.5822852
vn 0.96455264 0.035205733 0.2615314
vn 0.80936307 -0.5576687 -0.18421997
vn 0.1394478 -0.8753538 -0.46293643
vn -0.5800392 -0.55474865 -0.59649676
vn -0.97016174 0.033056974 -0.24019466
vn -0.7858774 0.5820646 0.20879975
vn -0.20545523 0.6913222 0.6927206
vn 0.5476848 0.4529118 0.70350003
vn 0.9547667 0.024387766 0.2963543
vn 0.8185891 -0.4453216 -0.36276773
vn 0.20967864 -0.676404 -0.70605403
vn -0.5663278 -0.43405113 -0.7006229
vn -0.9645716 0.0094767995 -0.2636507
vn -0.8148022 0.45497176 0.35930213
vn -0.1677015 0.56275374 0.80943465
vn 0.6380161 0.38129237 0.668993
vn 0.9806852 0.016675225 0.1948807
vn 0.7628617 -0.387644 -0.5174689
vn 0.15773557 -0.56223685 -0.8117938
vn -0.64496565 -0.3763928 -0.6650924
vn -0.9833935 -0.0100642815 -0.18120715
vn -0.7659954 0.39022473 0.5108577
vn -0.077040516 0.52699 0.84637237
vn 0.7032992 0.352195 0.6175183
vn 0.9964837 0.003322872 0.083722025
vn 0.71036386 -0.39106876 -0.585191
vn 0.06578128 -0.5268638 -0.84740037
vn -0.7031467 -0.34524357 -0.6216041
vn -0.9967568 -0.00097032794 -0.080467284
vn -0.710144 0.3983334 0.5805394
vn -0 0 -1
vn -0 0 -1
vn -0 0 -1
vn -0 0 -1
vn -0 0 -1
vn -0 0 -1
vn -0 0 -1
vn -0 0 -1
vn -0.0031190317 -0.8538919 0.520441
vn -0.0031178799 -0.8538923 0.5204402
vn -0.003117017 -0.85389173 0.52044123
vn -0.0031181688 -0.8538913 0.520442
vn -0.0031190317 -0.8538919 0.520441
vn -0.0031178803 -0.8538923 0.5204403
vn -0.0031170177 -0.8538918 0.52044123
vn -0.003118169 -0.85389125 0.520442
vn -0 0 -1
vn -0.0031180244 -0.85389185 0.52044106
g Wire Deformed_0
f 1/1/1 9/9/9 2/2/2
f 10/10/10 2/2/2 9/9/9
f 10/10/10 11/11/11 2/2/2
f 3/3/3 2/2/2 11/11/11
f 3/3/3 11/11/11 4/4/4
f 12/12/12 4/4/4 11/11/11
f 12/12/12 13/13/13 4/4/4
f 5/5/5 4/4/4 13/13/13
f 5/5/5 13/13/13 6/6/6
f 14/14/14 6/6/6 13/13/13
f 14/14/14 15/15/15 6/6/6
f 7/7/7 6/6/6 15/15/15
f 7/7/7 15/15/15 8/8/8
f 16/16/16 8/8/8 15/15/15
f 16/16/16 9/9/9 8/8/8
f 1/1/1 8/8/8 9/9/9
f 9/9/9 17/17/17 10/10/10
f 18/18/18 10/10/10 17/17/17
f 18/18/18 19/19/19 10/10/10
f 11/11/11 10/10/10 19/19/19
f 11/11/11 19/19/19 12/12/12
f 20/20/20 12/12/12 19/19/19
f 20/20/20 21/21/21 12/12/12
f 13/13/13 12/12/12 21/21/21
f 13/13/13 21/21/21 14/14/14
f 22/22/22 14/14/14 21/21/21
f 22/22/22 23/23/23 14/14/14
f 15/15/15 14/14/14 23/23/23
f 15/15/15 23/23/23 16/16/16
f 24/24/24 16/16/16 23/23/23
f 24/24/24 17/17/17 16/16/16
f 9/9/9 16/16/16 17/17/17
f 17/17/17 25/25/25 18/18/18
f 26/26/26 18/18/18 25/25/25
f 26/26/26 27/27/27 18/18/18
f 19/19/19 18/18/18 27/27/27
f 19/19/19 27/27/27 20/20/20
f 28/28/28 20/20/20 27/27/27
f 28/28/28 29/29/29 20/20/20
f 21/21/21 20/20/20 29/29/29
f 21/21/21 29/29/29 22/22/22
f 30/30/30 22/22/22 29/29/29
f 30/30/30 31/31/31 22/22/22
f 23/23/23 22/22/22 31/31/31
f 23/23/23 31/31/31 24/24/24
f 32/32/32 24/24/24 31/31/31
f 32/32/32 25/25/25 24/24/24
f 17/17/17 24/24/24 25/25/25
f 25/25/25 33/33/33 26/26/26
f 34/34/34 26/26/26 33/33/33
f 34/34/34 35/35/35 26/26/26
f 27/27/27 26/26/26 35/35/35
f 27/27/27 35/35/35 28/28/28
f 36/36/36 28/28/28 35/35/35
f 36/36/36 37/37/37 28/28/28
f 29/29/29 28/28/28 37/37/37
f 29/29/29 37/37/37 30/30/30
f 38/38/38 30/30/30 37/37/37
f 38/38/38 39/39/39 30/30/30
f 31/31/31 30/30/30 39/39/39
f 31/31/31 39/39/39 32/32/32
f 40/40/40 32/32/32 39/39/39
f 40/40/40 33/33/33 32/32/32
f 25/25/25 32/32/32 33/33/33
f 33/33/33 41/41/41 34/34/34
f 42/42/42 34/34/34 41/41/41
f 42/42/42 43/43/43 34/34/34
f 35/35/35 34/34/34 43/43/43
f 35/35/35 43/43/43 36/36/36
f 44/44/44 36/36/36 43/43/43
f 44/44/44 45/45/45 36/36/36
f 37/37/37 36/36/36 45/45/45
f 37/37/37 45/45/45 38/38/38
f 46/46/46 38/38/38 45/45/45
f 46/46/46 47/47/47 38/38/38
f 39/39/39 38/38/38 47/47/47
f 39/39/39 47/47/47 40/40/40
f 48/48/48 40/40/40 47/47/47
f 48/48/48 41/41/41 40/40/40
f 33/33/33 40/40/40 41/41/41
f 49/49/49 50/50/50 65/65/65
f 50/50/50 51/51/51 65/65/65
f 51/51/51 52/52/52 65/65/65
f 52/52/52 53/53/53 65/65/65
f 53/53/53 54/54/54 65/65/65
f 54/54/54 55/55/55 65/65/65
f 55/55/55 56/56/56 65/65/65
f 56/56/56 49/49/49 65/65/65
f 58/58/58 57/57/57 66/66/66
f 59/59/59 58/58/58 66/66/66
f 60/60/60 59/59/59 66/66/66
f 61/61/61 60/60/60 66/66/66
f 62/62/62 61/61/61 66/66/66
f 63/63/63 62/62/62 66/66/66
f 64/64/64 63/63/63 66/66/66
f 57/57/57 64/64/64 66/66/66
