g Wire
v 2.6226832E-09 0.06 0
v 0.042426404 0.042426404 0
v 0.06 -5.2453664E-09 0
v 0.0424264 -0.04242641 0
v -7.1549283E-10 -0.06 0
v -0.04242642 -0.042426392 0
v -0.06 1.0490733E-08 0
v -0.042426385 0.042426426 0
v 2.6226832E-09 0.06 0.1
v 0.042426404 0.042426404 0.1
v 0.06 -5.2453664E-09 0.1
v 0.0424264 -0.04242641 0.1
v -7.1549283E-10 -0.06 0.1
v -0.04242642 -0.042426392 0.1
v -0.06 1.0490733E-08 0.1
v -0.042426385 0.042426426 0.1
v 2.6226832E-09 0.06 0.2
v 0.042426404 0.042426404 0.2
v 0.06 -5.2453664E-09 0.2
v 0.0424264 -0.04242641 0.2
v -7.1549283E-10 -0.06 0.2
v -0.04242642 -0.042426392 0.2
v -0.06 1.0490733E-08 0.2
v -0.042426385 0.042426426 0.2
v 2.6226832E-09 0.06 0.3
v 0.042426404 0.042426404 0.3
v 0.06 -5.2453664E-09 0.3
v 0.0424264 -0.04242641 0.3
v -7.1549283E-10 -0.06 0.3
v -0.04242642 -0.042426392 0.3
v -0.06 1.0490733E-08 0.3
v -0.042426385 0.042426426 0.3
v 2.6226832E-09 0.06 0.4
v 0.042426404 0.042426404 0.4
v 0.06 -5.2453664E-09 0.4
v 0.0424264 -0.04242641 0.4
v -7.1549283E-10 -0.06 0.4
v -0.04242642 -0.042426392 0.4
v -0.06 1.0490733E-08 0.4
v -0.042426385 0.042426426 0.4
v 2.6226832E-09 0.06 0.5
v 0.042426404 0.042426404 0.5
v 0.06 -5.2453664E-09 0.5
v 0.0424264 -0.04242641 0.5
v -7.1549283E-10 -0.06 0.5
v -0.04242642 -0.042426392 0.5
v -0.06 1.0490733E-08 0.5
v -0.042426385 0.042426426 0.5
v 2.6226832E-09 0.06 0
v 0.042426404 0.042426404 0
v 0.06 -5.2453664E-09 0
v 0.0424264 -0.04242641 0
v -7.1549283E-10 -0.06 0
v -0.04242642 -0.042426392 0
v -0.06 1.0490733E-08 0
v -0.042426385 0.042426426 0
v 2.6226832E-09 0.06 0.5
v 0.042426404 0.042426404 0.5
v 0.06 -5.2453664E-09 0.5
v 0.0424264 -0.04242641 0.5
v -7.1549283E-10 -0.06 0.5
v -0.04242642 -0.042426392 0.5
v -0.06 1.0490733E-08 0.5
v -0.042426385 0.042426426 0.5
v -0 0 0
v -0 0 0.5
vt 0.49999997 1
vt 0.14644663 0.85355335
vt 0 0.49999997
vt 0.14644666 0.14644657
vt 0.5 0
vt 0.8535535 0.14644672
vt 1 0.50000006
vt 0.85355324 0.85355353
vt 0.49999997 1
vt 0.14644663 0.85355335
vt 0 0.49999997
vt 0.14644666 0.14644657
vt 0.5 0
vt 0.8535535 0.14644672
vt 1 0.50000006
vt 0.85355324 0.85355353
vt 0.49999997 1
vt 0.14644663 0.85355335
vt 0 0.49999997
vt 0.14644666 0.14644657
vt 0.5 0
vt 0.8535535 0.14644672
vt 1 0.50000006
vt 0.85355324 0.85355353
vt 0.49999997 1
vt 0.14644663 0.85355335
vt 0 0.49999997
vt 0.14644666 0.14644657
vt 0.5 0
vt 0.8535535 0.14644672
vt 1 0.50000006
vt 0.85355324 0.85355353
vt 0.49999997 1
vt 0.14644663 0.85355335
vt 0 0.49999997
vt 0.14644666 0.14644657
vt 0.5 0
vt 0.8535535 0.14644672
vt 1 0.50000006
vt 0.85355324 0.85355353
vt 0.49999997 1
vt 0.14644663 0.85355335
vt 0 0.49999997
vt 0.14644666 0.14644657
vt 0.5 0
vt 0.8535535 0.14644672
vt 1 0.50000006
vt 0.85355324 0.85355353
vt 0.49999997 1
vt 0.14644663 0.85355335
vt 0 0.49999997
vt 0.14644666 0.14644657
vt 0.5 0
vt 0.8535535 0.14644672
vt 1 0.50000006
vt 0.85355324 0.85355353
vt 0.49999997 1
vt 0.14644663 0.85355335
vt 0 0.49999997
vt 0.14644666 0.14644657
vt 0.5 0
vt 0.8535535 0.14644672
vt 1 0.50000006
vt 0.85355324 0.85355353
vt 0.5 0.5
vt 0.5 0.5
vn 2.6067394E-07 1 0
vn 0.7071069 0.7071067 0
vn 0.99999994 -5.4878704E-08 0
vn 0.7071067 -0.7071067 0
vn -2.1951482E-07 -0.99999994 0
vn -0.7071068 -0.7071067 0
vn -0.99999994 3.8415092E-07 0
vn -0.70710665 0.7071069 0
vn 2.6067394E-07 1 0
vn 0.7071069 0.70710677 0
vn 1 -5.487871E-08 0
vn 0.7071068 -0.7071068 0
vn -2.1951482E-07 -0.99999994 0
vn -0.7071068 -0.7071067 0
vn -0.99999994 3.8415092E-07 0
vn -0.7071067 0.7071069 0
vn 2.6524717E-07 1 0
vn 0.7071068 0.7071067 0
vn 1 -5.0305484E-08 0
vn 0.7071067 -0.70710677 0
vn -2.1951482E-07 -0.99999994 0
vn -0.7071069 -0.7071067 0
vn -0.99999994 3.8872415E-07 0
vn -0.7071066 0.7071068 0
vn 2.6982036E-07 0.99999994 0
vn 0.7071068 0.70710677 0
vn 1 -4.5732257E-08 0
vn 0.7071068 -0.7071068 0
vn -2.1951482E-07 -1 0
vn -0.7071068 -0.7071066 0
vn -1 3.9329737E-07 0
vn -0.70710677 0.7071068 0
vn 2.6067397E-07 1 0
vn 0.7071068 0.70710677 0
vn 1 -5.4878715E-08 0
vn 0.70710677 -0.7071068 0
vn -2.1951485E-07 -1 0
vn -0.7071069 -0.70710677 0
vn -0.99999994 3.8415092E-07 0
vn -0.70710677 0.7071069 0
vn 2.6067397E-07 1 0
vn 0.7071068 0.7071067 0
vn 1 -5.487871E-08 0
vn 0.7071068 -0.7071068 0
vn -2.1951485E-07 -1 0
vn -0.7071069 -0.7071067 0
vn -0.99999994 3.8415092E-07 0
vn -0.70710677 0.7071069 0
vn -0 0 -1
vn -0 0 -1
vn -0 0 -1
vn -0 0 -1
vn -0 0 -1
vn -0 0 -1
vn -0 0 -1
vn -0 0 -1
vn -0 0 1
vn -0 0 1
vn -0 0 1
vn -0 0 1
vn -0 0 1
vn -0 0 1
vn -0 0 1
vn -0 0 1
vn -0 0 -1
vn -0 0 1
g Wire_0
f 1/1/1 9/9/9 2/2/2
f 10/10/10 2/2/2 9/9/9
f 10/10/10 11/11/11 2/2/2
f 3/3/3 2/2/2 11/11/11
f 3/3/3 11/11/11 4/4/4
f 12/12/12 4/4/4 11/11/11
f 12/12/12 13/13/13 4/4/4
f 5/5/5 4/4/4 13/13/13
f 5/5/5 13/13/13 6/6/6
f 14/14/14 6/6/6 13/13/13
f 14/14/14 15/15/15 6/6/6
f 7/7/7 6/6/6 15/15/15
f 7/7/7 15/15/15 8/8/8
f 16/16/16 8/8/8 15/15/15
f 16/16/16 9/9/9 8/8/8
f 1/1/1 8/8/8 9/9/9
f 9/9/9 17/17/17 10/10/10
f 18/18/18 10/10/10 17/17/17
f 18/18/18 19/19/19 10/10/10
f 11/11/11 10/10/10 19/19/19
f 11/11/11 19/19/19 12/12/12
f 20/20/20 12/12/12 19/19/19
f 20/20/20 21/21/21 12/12/12
f 13/13/13 12/12/12 21/21/21
f 13/13/13 21/21/21 14/14/14
f 22/22/22 14/14/14 21/21/21
f 22/22/22 23/23/23 14/14/14
f 15/15/15 14/14/14 23/23/23
f 15/15/15 23/23/23 16/16/16
f 24/24/24 16/16/16 23/23/23
f 24/24/24 17/17/17 16/16/16
f 9/9/9 16/16/16 17/17/17
f 17/17/17 25/25/25 18/18/18
f 26/26/26 18/18/18 25/25/25
f 26/26/26 27/27/27 18/18/18
f 19/19/19 18/18/18 27/27/27
f 19/19/19 27/27/27 20/20/20
f 28/28/28 20/20/20 27/27/27
f 28/28/28 29/29/29 20/20/20
f 21/21/21 20/20/20 29/29/29
f 21/21/21 29/29/29 22/22/22
f 30/30/30 22/22/22 29/29/29
f 30/30/30 31/31/31 22/22/22
f 23/23/23 22/22/22 31/31/31
f 23/23/23 31/31/31 24/24/24
f 32/32/32 24/24/24 31/31/31
f 32/32/32 25/25/25 24/24/24
f 17/17/17 24/24/24 25/25/25
f 25/25/25 33/33/33 26/26/26
f 34/34/34 26/26/26 33/33/33
f 34/34/34 35/35/35 26/26/26
f 27/27/27 26/26/26 35/35/35
f 27/27/27 35/35/35 28/28/28
f 36/36/36 28/28/28 35/35/35
f 36/36/36 37/37/37 28/28/28
f 29/29/29 28/28/28 37/37/37
f 29/29/29 37/37/37 30/30/30
f 38/38/38 30/30/30 37/37/37
f 38/38/38 39/39/39 30/30/30
f 31/31/31 30/30/30 39/39/39
f 31/31/31 39/39/39 32/32/32
f 40/40/40 32/32/32 39/39/39
f 40/40/40 33/33/33 32/32/32
f 25/25/25 32/32/32 33/33/33
f 33/33/33 41/41/41 34/34/34
f 42/42/42 34/34/34 41/41/41
f 42/42/42 43/43/43 34/34/34
f 35/35/35 34/34/34 43/43/43
f 35/35/35 43/43/43 36/36/36
f 44/44/44 36/36/36 43/43/43
f 44/44/44 45/45/45 36/36/36
f 37/37/37 36/36/36 45/45/45
f 37/37/37 45/45/45 38/38/38
f 46/46/46 38/38/38 45/45/45
f 46/46/46 47/47/47 38/38/38
f 39/39/39 38/38/38 47/47/47
f 39/39/39 47/47/47 40/40/40
f 48/48/48 40/40/40 47/47/47
f 48/48/48 41/41/41 40/40/40
f 33/33/33 40/40/40 41/41/41
f 49/49/49 50/50/50 65/65/65
f 50/50/50 51/51/51 65/65/65
f 51/51/51 52/52/52 65/65/65
f 52/52/52 53/53/53 65/65/65
f 53/53/53 54/54/54 65/65/65
f 54/54/54 55/55/55 65/65/65
f 55/55/55 56/56/56 65/65/65
f 56/56/56 49/49/49 65/65/65
f 58/58/58 57/57/57 66/66/66
f 59/59/59 58/58/58 66/66/66
f 60/60/60 59/59/59 66/66/66
f 61/61/61 60/60/60 66/66/66
f 62/62/62 61/61/61 66/66/66
f 63/63/63 62/62/62 66/66/66
f 64/64/64 63/63/63 66/66/66
f 57/57/57 64/64/64 66/66/66
