g Wire Deformed
v 5.3300023 0.04175305 7.7930894
v 5.372429 0.029523863 7.7804685
v 5.3900023 -3.6501675E-09 7.75
v 5.372429 -0.029523868 7.719531
v 5.3300023 -0.04175305 7.7069106
v 5.2875757 -0.029523855 7.7195315
v 5.2700024 7.300335E-09 7.75
v 5.2875757 0.029523877 7.780469
v 5.3300023 -0.07472632 7.8724494
v 5.372429 -0.08304015 7.856967
v 5.3900023 -0.103111506 7.8195887
v 5.372429 -0.12318287 7.7822104
v 5.3300023 -0.1314967 7.766728
v 5.2875757 -0.123182856 7.7822104
v 5.2700024 -0.1031115 7.8195887
v 5.2875757 -0.08304014 7.856967
v 5.3300023 -0.22543313 7.9441147
v 5.372429 -0.23249851 7.928024
v 5.3900023 -0.24955583 7.8891773
v 5.372429 -0.26661316 7.850331
v 5.3300023 -0.2736785 7.83424
v 5.2875757 -0.26661313 7.850331
v 5.2700024 -0.24955583 7.8891773
v 5.2875757 -0.2324985 7.928024
v 5.3300023 -0.3863218 8.013703
v 5.372429 -0.39338717 7.9976125
v 5.3900023 -0.4104445 7.958766
v 5.372429 -0.42750183 7.9199195
v 5.3300023 -0.43456718 7.9038286
v 5.2875757 -0.4275018 7.9199195
v 5.2700024 -0.4104445 7.958766
v 5.2875757 -0.39338717 7.9976125
v 5.330003 -0.52850366 8.081216
v 5.3724294 -0.53681743 8.065733
v 5.3900027 -0.5568888 8.028355
v 5.3724294 -0.5769602 7.9909763
v 5.330003 -0.585274 7.975494
v 5.287576 -0.57696015 7.9909763
v 5.270003 -0.5568888 8.028355
v 5.287576 -0.53681743 8.065733
v 5.330003 -0.61824703 8.141031
v 5.3724294 -0.63047624 8.128411
v 5.3900027 -0.6600001 8.097942
v 5.3724294 -0.68952394 8.067473
v 5.330003 -0.70175314 8.054853
v 5.287576 -0.68952394 8.067473
v 5.270003 -0.6600001 8.097942
v 5.287576 -0.63047624 8.128411
v 5.3300023 0.04175305 7.7930894
v 5.372429 0.029523863 7.7804685
v 5.3900023 -3.6501675E-09 7.75
v 5.372429 -0.029523868 7.719531
v 5.3300023 -0.04175305 7.7069106
v 5.2875757 -0.029523855 7.7195315
v 5.2700024 7.300335E-09 7.75
v 5.2875757 0.029523877 7.780469
v 5.330003 -0.61824703 8.141031
v 5.3724294 -0.63047624 8.128411
v 5.3900027 -0.6600001 8.097942
v 5.3724294 -0.68952394 8.067473
v 5.330003 -0.70175314 8.054853
v 5.287576 -0.68952394 8.067473
v 5.270003 -0.6600001 8.097942
v 5.287576 -0.63047624 8.128411
v 5.3300023 0 7.75
v 5.330003 -0.6600001 8.097942
vt 0.49999997 1
vt 0.14644663 0.85355335
vt 0 0.49999997
vt 0.14644666 0.14644657
vt 0.5 0
vt 0.8535535 0.14644672
vt 1 0.50000006
vt 0.85355324 0.85355353
vt 0.49999997 1
vt 0.14644663 0.85355335
vt 0 0.49999997
vt 0.14644666 0.14644657
vt 0.5 0
vt 0.8535535 0.14644672
vt 1 0.50000006
vt 0.85355324 0.85355353
vt 0.49999997 1
vt 0.14644663 0.85355335
vt 0 0.49999997
vt 0.14644666 0.14644657
vt 0.5 0
vt 0.8535535 0.14644672
vt 1 0.50000006
vt 0.85355324 0.85355353
vt 0.49999997 1
vt 0.14644663 0.85355335
vt 0 0.49999997
vt 0.14644666 0.14644657
vt 0.5 0
vt 0.8535535 0.14644672
vt 1 0.50000006
vt 0.85355324 0.85355353
vt 0.49999997 1
vt 0.14644663 0.85355335
vt 0 0.49999997
vt 0.14644666 0.14644657
vt 0.5 0
vt 0.8535535 0.14644672
vt 1 0.50000006
vt 0.85355324 0.85355353
vt 0.49999997 1
vt 0.14644663 0.85355335
vt 0 0.49999997
vt 0.14644666 0.14644657
vt 0.5 0
vt 0.8535535 0.14644672
vt 1 0.50000006
vt 0.85355324 0.85355353
vt 0.49999997 1
vt 0.14644663 0.85355335
vt 0 0.49999997
vt 0.14644666 0.14644657
vt 0.5 0
vt 0.8535535 0.14644672
vt 1 0.50000006
vt 0.85355324 0.85355353
vt 0.49999997 1
vt 0.14644663 0.85355335
vt 0 0.49999997
vt 0.14644666 0.14644657
vt 0.5 0
vt 0.8535535 0.14644672
vt 1 0.50000006
vt 0.85355324 0.85355353
vt 0.5 0.5
vt 0.5 0.5
vn -0.042438697 0.7126912 0.700193
vn 0.7031908 0.47526595 0.5288148
vn 0.9970339 0.0105063245 0.07624403
vn 0.7128613 -0.5163321 -0.47458413
vn 0.01963528 -0.7012309 -0.7126639
vn -0.712883 -0.4603844 -0.5290027
vn -0.99825585 0.034294277 -0.04805363
vn -0.70225173 0.5347241 0.47001332
vn 1.6921232E-06 0.51395327 0.85781825
vn 0.70570403 0.33241543 0.62568516
vn 0.9999294 0.007011132 0.0095914
vn 0.70879674 -0.326801 -0.6251466
vn -1.2737969E-06 -0.50403756 -0.8636817
vn -0.70879674 -0.3268004 -0.6251469
vn -0.9999295 0.0070111332 0.0095914
vn -0.7057039 0.3324149 0.62568545
vn 1.2973919E-07 0.41827312 0.9083213
vn 0.7071019 0.28809595 0.64576125
vn 0.9999961 0.0012179761 0.0025003767
vn 0.7071028 -0.2878095 -0.64588803
vn -9.492522E-08 -0.41762146 -0.9086211
vn -0.7071028 -0.28780952 -0.64588815
vn -0.9999961 0.0012179735 0.002500388
vn -0.7071018 0.28809598 0.6457613
vn 4.3218527E-08 0.40693688 0.91345626
vn 0.70837176 0.294816 0.6413212
vn 1 8.5907436E-07 -3.8537917E-07
vn 0.7055897 -0.29635724 -0.64367354
vn -1.3258403E-07 -0.4075093 -0.91320103
vn -0.70558965 -0.2963597 -0.6436724
vn -1 -8.537219E-07 3.746742E-07
vn -0.70837176 0.29481354 0.6413223
vn 6.4838686E-09 0.4618429 0.88696176
vn 0.7119014 0.35459748 0.60618234
vn 0.99999523 -0.0013562121 -0.0027890606
vn 0.7000781 -0.3665407 -0.6128118
vn -2.499039E-07 -0.4703761 -0.8824661
vn -0.7000782 -0.36654207 -0.61281115
vn -0.9999952 -0.0013600456 -0.0027871896
vn -0.7119015 0.35459593 0.6061831
vn 1.24414345E-08 0.55540824 0.83157784
vn 0.7013312 0.39645654 0.592416
vn 0.9998061 -0.011620258 -0.015897263
vn 0.7017836 -0.4004185 -0.5892068
vn -2.07992E-07 -0.5625751 -0.8267461
vn -0.7017836 -0.40041837 -0.58920693
vn -0.9998061 -0.0116202645 -0.015897313
vn -0.7013312 0.39645657 0.592416
vn -3.7728887E-06 0.7181552 -0.6958829
vn -2.7220892E-06 0.7181533 -0.6958849
vn 4.3689752E-08 0.7181541 -0.69588405
vn -1.0985902E-06 0.71815604 -0.69588214
vn -3.7957545E-06 0.7181552 -0.6958829
vn -2.631646E-06 0.7181533 -0.6958849
vn 8.7379505E-08 0.7181541 -0.69588405
vn -9.852812E-07 0.71815604 -0.69588214
vn -0 -0.71815133 0.69588697
vn -4.0701643E-06 -0.7181542 0.69588405
vn -0 -0.718157 0.69588107
vn 4.0701643E-06 -0.7181542 0.69588405
vn -0 -0.71815133 0.69588697
vn -4.0701643E-06 -0.7181542 0.69588405
vn -0 -0.718157 0.69588107
vn 4.0701643E-06 -0.7181542 0.69588405
vn -1.8594001E-06 0.71815467 -0.6958835
vn -0 -0.7181542 0.69588405
g Wire Deformed_0
f 1/1/1 9/9/9 2/2/2
f 10/10/10 2/2/2 9/9/9
f 10/10/10 11/11/11 2/2/2
f 3/3/3 2/2/2 11/11/11
f 3/3/3 11/11/11 4/4/4
f 12/12/12 4/4/4 11/11/11
f 12/12/12 13/13/13 4/4/4
f 5/5/5 4/4/4 13/13/13
f 5/5/5 13/13/13 6/6/6
f 14/14/14 6/6/6 13/13/13
f 14/14/14 15/15/15 6/6/6
f 7/7/7 6/6/6 15/15/15
f 7/7/7 15/15/15 8/8/8
f 16/16/16 8/8/8 15/15/15
f 16/16/16 9/9/9 8/8/8
f 1/1/1 8/8/8 9/9/9
f 9/9/9 17/17/17 10/10/10
f 18/18/18 10/10/10 17/17/17
f 18/18/18 19/19/19 10/10/10
f 11/11/11 10/10/10 19/19/19
f 11/11/11 19/19/19 12/12/12
f 20/20/20 12/12/12 19/19/19
f 20/20/20 21/21/21 12/12/12
f 13/13/13 12/12/12 21/21/21
f 13/13/13 21/21/21 14/14/14
f 22/22/22 14/14/14 21/21/21
f 22/22/22 23/23/23 14/14/14
f 15/15/15 14/14/14 23/23/23
f 15/15/15 23/23/23 16/16/16
f 24/24/24 16/16/16 23/23/23
f 24/24/24 17/17/17 16/16/16
f 9/9/9 16/16/16 17/17/17
f 17/17/17 25/25/25 18/18/18
f 26/26/26 18/18/18 25/25/25
f 26/26/26 27/27/27 18/18/18
f 19/19/19 18/18/18 27/27/27
f 19/19/19 27/27/27 20/20/20
f 28/28/28 20/20/20 27/27/27
f 28/28/28 29/29/29 20/20/20
f 21/21/21 20/20/20 29/29/29
f 21/21/21 29/29/29 22/22/22
f 30/30/30 22/22/22 29/29/29
f 30/30/30 31/31/31 22/22/22
f 23/23/23 22/22/22 31/31/31
f 23/23/23 31/31/31 24/24/24
f 32/32/32 24/24/24 31/31/31
f 32/32/32 25/25/25 24/24/24
f 17/17/17 24/24/24 25/25/25
f 25/25/25 33/33/33 26/26/26
f 34/34/34 26/26/26 33/33/33
f 34/34/34 35/35/35 26/26/26
f 27/27/27 26/26/26 35/35/35
f 27/27/27 35/35/35 28/28/28
f 36/36/36 28/28/28 35/35/35
f 36/36/36 37/37/37 28/28/28
f 29/29/29 28/28/28 37/37/37
f 29/29/29 37/37/37 30/30/30
f 38/38/38 30/30/30 37/37/37
f 38/38/38 39/39/39 30/30/30
f 31/31/31 30/30/30 39/39/39
f 31/31/31 39/39/39 32/32/32
f 40/40/40 32/32/32 39/39/39
f 40/40/40 33/33/33 32/32/32
f 25/25/25 32/32/32 33/33/33
f 33/33/33 41/41/41 34/34/34
f 42/42/42 34/34/34 41/41/41
f 42/42/42 43/43/43 34/34/34
f 35/35/35 34/34/34 43/43/43
f 35/35/35 43/43/43 36/36/36
f 44/44/44 36/36/36 43/43/43
f 44/44/44 45/45/45 36/36/36
f 37/37/37 36/36/36 45/45/45
f 37/37/37 45/45/45 38/38/38
f 46/46/46 38/38/38 45/45/45
f 46/46/46 47/47/47 38/38/38
f 39/39/39 38/38/38 47/47/47
f 39/39/39 47/47/47 40/40/40
f 48/48/48 40/40/40 47/47/47
f 48/48/48 41/41/41 40/40/40
f 33/33/33 40/40/40 41/41/41
f 49/49/49 50/50/50 65/65/65
f 50/50/50 51/51/51 65/65/65
f 51/51/51 52/52/52 65/65/65
f 52/52/52 53/53/53 65/65/65
f 53/53/53 54/54/54 65/65/65
f 54/54/54 55/55/55 65/65/65
f 55/55/55 56/56/56 65/65/65
f 56/56/56 49/49/49 65/65/65
f 58/58/58 57/57/57 66/66/66
f 59/59/59 58/58/58 66/66/66
f 60/60/60 59/59/59 66/66/66
f 61/61/61 60/60/60 66/66/66
f 62/62/62 61/61/61 66/66/66
f 63/63/63 62/62/62 66/66/66
f 64/64/64 63/63/63 66/66/66
f 57/57/57 64/64/64 66/66/66
