g Wire Deformed
v 6.1288385 3.468743 9.140772
v 6.17483 3.4497802 9.140375
v 6.1939754 3.404 9.13683
v 6.17506 3.3582199 9.132215
v 6.1291637 3.339257 9.1292305
v 6.0831723 3.3582199 9.129627
v 6.064027 3.404 9.133172
v 6.0829425 3.4497805 9.137788
v 6.1389303 3.4627707 9.432468
v 6.184841 3.4437327 9.430305
v 6.20385 3.3977714 9.429224
v 6.184821 3.35181 9.429858
v 6.1389017 3.332772 9.431837
v 6.092991 3.35181 9.434001
v 6.0739822 3.3977714 9.4350815
v 6.093011 3.4437327 9.434447
v 6.160843 3.4632428 9.935507
v 6.206774 3.444205 9.933831
v 6.2258058 3.3982434 9.9333
v 6.206789 3.3522818 9.934224
v 6.160864 3.333244 9.936062
v 6.1149325 3.3522818 9.937737
v 6.095901 3.3982434 9.938269
v 6.1149178 3.444205 9.937345
v 6.172619 3.4658418 10.4372015
v 6.2185807 3.446804 10.437373
v 6.2376184 3.4008427 10.4376335
v 6.21858 3.3548813 10.437829
v 6.172618 3.3358436 10.437846
v 6.126656 3.3548813 10.4376745
v 6.1076183 3.4008427 10.437414
v 6.126657 3.446804 10.437219
v 6.151524 3.465986 10.730262
v 6.194654 3.446952 10.746152
v 6.2127976 3.401 10.751996
v 6.1953273 3.355048 10.744371
v 6.152477 3.336014 10.727744
v 6.109347 3.355048 10.711854
v 6.091203 3.401 10.70601
v 6.1086736 3.446952 10.7136345
v 6.1288385 3.468743 9.140772
v 6.17483 3.4497802 9.140375
v 6.1939754 3.404 9.13683
v 6.17506 3.3582199 9.132215
v 6.1291637 3.339257 9.1292305
v 6.0831723 3.3582199 9.129627
v 6.064027 3.404 9.133172
v 6.0829425 3.4497805 9.137788
v 6.151524 3.465986 10.730262
v 6.194654 3.446952 10.746152
v 6.2127976 3.401 10.751996
v 6.1953273 3.355048 10.744371
v 6.152477 3.336014 10.727744
v 6.109347 3.355048 10.711854
v 6.091203 3.401 10.70601
v 6.1086736 3.446952 10.7136345
v 6.129001 3.404 9.135001
v 6.1520004 3.401 10.729003
vt 0.49999997 1
vt 0.14644662 0.8535534
vt 0 0.49999997
vt 0.14644668 0.14644656
vt 0.5 0
vt 0.8535535 0.14644672
vt 1 0.50000006
vt 0.85355324 0.85355353
vt 0.49999997 1
vt 0.14644662 0.8535534
vt 0 0.49999997
vt 0.14644668 0.14644656
vt 0.5 0
vt 0.8535535 0.14644672
vt 1 0.50000006
vt 0.85355324 0.85355353
vt 0.49999997 1
vt 0.14644662 0.8535534
vt 0 0.49999997
vt 0.14644668 0.14644656
vt 0.5 0
vt 0.8535535 0.14644672
vt 1 0.50000006
vt 0.85355324 0.85355353
vt 0.49999997 1
vt 0.14644662 0.8535534
vt 0 0.49999997
vt 0.14644668 0.14644656
vt 0.5 0
vt 0.8535535 0.14644672
vt 1 0.50000006
vt 0.85355324 0.85355353
vt 0.49999997 1
vt 0.14644662 0.8535534
vt 0 0.49999997
vt 0.14644668 0.14644656
vt 0.5 0
vt 0.8535535 0.14644672
vt 1 0.50000006
vt 0.85355324 0.85355353
vt 0.49999997 1
vt 0.14644662 0.8535534
vt 0 0.49999997
vt 0.14644668 0.14644656
vt 0.5 0
vt 0.8535535 0.14644672
vt 1 0.50000006
vt 0.85355324 0.85355353
vt 0.49999997 1
vt 0.14644662 0.8535534
vt 0 0.49999997
vt 0.14644668 0.14644656
vt 0.5 0
vt 0.8535535 0.14644672
vt 1 0.50000006
vt 0.85355324 0.85355353
vt 0.5 0.5
vt 0.5 0.5
vn -5.0843948E-05 0.99985236 0.01718422
vn 0.7056937 0.7085169 -0.00045073498
vn 0.999834 0.0041802484 -0.017730469
vn 0.7061109 -0.70767 -0.024707638
vn 0.0006909643 -0.9998492 -0.017354155
vn -0.7055299 -0.7086802 3.366545E-05
vn -0.99984425 -0.002614047 0.017453428
vn -0.70863247 0.70514613 0.024672648
vn -0.0012036116 0.9999429 0.010614241
vn 0.706751 0.706963 -0.02657676
vn 0.9992672 -4.8498673E-06 -0.038275167
vn 0.7063632 -0.70712626 -0.03199337
vn -0.0013345928 -0.99993646 -0.011192157
vn -0.7065438 -0.7071923 0.025976844
vn -0.99928486 -0.0029047 0.037700523
vn -0.7063966 0.7070928 0.031993534
vn -5.4988705E-06 0.9999972 -0.0023499888
vn 0.7070208 0.7067866 -0.023969313
vn 0.99932194 -0.000105312574 -0.036817677
vn 0.7071244 -0.7068429 -0.018657472
vn 0.00017804398 -0.9999972 0.0023395095
vn -0.70650715 -0.7072991 0.023994505
vn -0.99931985 -0.00012488542 0.036876068
vn -0.70662856 0.70733833 0.018673291
vn 0.00051281974 0.9999913 -0.0041295537
vn 0.7127938 0.7010602 0.020966964
vn 0.9999996 5.5711145E-05 0.00091442687
vn 0.7143506 -0.6993699 0.024187045
vn 0.00066044927 -0.99999124 0.0041386527
vn -0.707404 -0.7066787 -0.013599122
vn -0.9999846 -4.6126603E-05 0.0055487673
vn -0.70798236 0.70599777 -0.018111536
vn 0.017344054 0.99941504 -0.0294773
vn 0.6918369 0.69920623 0.18020071
vn 0.9597207 0.0005889884 0.280955
vn 0.67281795 -0.7071726 0.21730837
vn -0.005265619 -0.99951357 0.03074103
vn -0.68404084 -0.7093558 -0.17000689
vn -0.9612464 0.0002287324 -0.27569082
vn -0.67074764 0.7098901 -0.21483386
vn 0.02803531 0.0888151 -0.99565345
vn 0.028030233 0.08881583 -0.99565357
vn 0.02802951 0.088811 -0.99565405
vn 0.028034355 0.08881027 -0.9956539
vn 0.028035076 0.0888151 -0.99565345
vn 0.028030233 0.08881583 -0.99565357
vn 0.028029513 0.08881078 -0.9956541
vn 0.02803459 0.08881004 -0.995654
vn -0.35366687 -0.02070718 0.9351422
vn -0.35366616 -0.020708777 0.93514246
vn -0.35366467 -0.020708004 0.9351431
vn -0.35366538 -0.02070641 0.9351428
vn -0.35366687 -0.02070718 0.9351422
vn -0.35366616 -0.020708777 0.93514246
vn -0.35366467 -0.020708004 0.9351431
vn -0.35366538 -0.02070641 0.9351428
vn 0.028032353 0.08881299 -0.99565375
vn -0.35366574 -0.020707594 0.93514264
g Wire Deformed_0
f 1/1/1 9/9/9 2/2/2
f 10/10/10 2/2/2 9/9/9
f 10/10/10 11/11/11 2/2/2
f 3/3/3 2/2/2 11/11/11
f 3/3/3 11/11/11 4/4/4
f 12/12/12 4/4/4 11/11/11
f 12/12/12 13/13/13 4/4/4
f 5/5/5 4/4/4 13/13/13
f 5/5/5 13/13/13 6/6/6
f 14/14/14 6/6/6 13/13/13
f 14/14/14 15/15/15 6/6/6
f 7/7/7 6/6/6 15/15/15
f 7/7/7 15/15/15 8/8/8
f 16/16/16 8/8/8 15/15/15
f 16/16/16 9/9/9 8/8/8
f 1/1/1 8/8/8 9/9/9
f 9/9/9 17/17/17 10/10/10
f 18/18/18 10/10/10 17/17/17
f 18/18/18 19/19/19 10/10/10
f 11/11/11 10/10/10 19/19/19
f 11/11/11 19/19/19 12/12/12
f 20/20/20 12/12/12 19/19/19
f 20/20/20 21/21/21 12/12/12
f 13/13/13 12/12/12 21/21/21
f 13/13/13 21/21/21 14/14/14
f 22/22/22 14/14/14 21/21/21
f 22/22/22 23/23/23 14/14/14
f 15/15/15 14/14/14 23/23/23
f 15/15/15 23/23/23 16/16/16
f 24/24/24 16/16/16 23/23/23
f 24/24/24 17/17/17 16/16/16
f 9/9/9 16/16/16 17/17/17
f 17/17/17 25/25/25 18/18/18
f 26/26/26 18/18/18 25/25/25
f 26/26/26 27/27/27 18/18/18
f 19/19/19 18/18/18 27/27/27
f 19/19/19 27/27/27 20/20/20
f 28/28/28 20/20/20 27/27/27
f 28/28/28 29/29/29 20/20/20
f 21/21/21 20/20/20 29/29/29
f 21/21/21 29/29/29 22/22/22
f 30/30/30 22/22/22 29/29/29
f 30/30/30 31/31/31 22/22/22
f 23/23/23 22/22/22 31/31/31
f 23/23/23 31/31/31 24/24/24
f 32/32/32 24/24/24 31/31/31
f 32/32/32 25/25/25 24/24/24
f 17/17/17 24/24/24 25/25/25
f 25/25/25 33/33/33 26/26/26
f 34/34/34 26/26/26 33/33/33
f 34/34/34 35/35/35 26/26/26
f 27/27/27 26/26/26 35/35/35
f 27/27/27 35/35/35 28/28/28
f 36/36/36 28/28/28 35/35/35
f 36/36/36 37/37/37 28/28/28
f 29/29/29 28/28/28 37/37/37
f 29/29/29 37/37/37 30/30/30
f 38/38/38 30/30/30 37/37/37
f 38/38/38 39/39/39 30/30/30
f 31/31/31 30/30/30 39/39/39
f 31/31/31 39/39/39 32/32/32
f 40/40/40 32/32/32 39/39/39
f 40/40/40 33/33/33 32/32/32
f 25/25/25 32/32/32 33/33/33
f 41/41/41 42/42/42 57/57/57
f 42/42/42 43/43/43 57/57/57
f 43/43/43 44/44/44 57/57/57
f 44/44/44 45/45/45 57/57/57
f 45/45/45 46/46/46 57/57/57
f 46/46/46 47/47/47 57/57/57
f 47/47/47 48/48/48 57/57/57
f 48/48/48 41/41/41 57/57/57
f 50/50/50 49/49/49 58/58/58
f 51/51/51 50/50/50 58/58/58
f 52/52/52 51/51/51 58/58/58
f 53/53/53 52/52/52 58/58/58
f 54/54/54 53/53/53 58/58/58
f 55/55/55 54/54/54 58/58/58
f 56/56/56 55/55/55 58/58/58
f 49/49/49 56/56/56 58/58/58
