g Wire Deformed
v 0.49999985 0.07500018 5.312
v 0.5530329 0.053033188 5.312
v 0.57499987 1.7225723E-07 5.312
v 0.5530329 -0.05303284 5.312
v 0.49999985 -0.074999824 5.312
v 0.44696683 -0.05303281 5.312
v 0.42499983 1.9192736E-07 5.312
v 0.44696686 0.053033214 5.312
v 0.5717438 0.07500018 5.66864
v 0.6204781 0.053033188 5.647724
v 0.64066446 1.7225723E-07 5.639061
v 0.6204781 -0.05303284 5.647724
v 0.5717438 -0.074999824 5.66864
v 0.5230095 -0.05303281 5.689556
v 0.5028231 1.9192736E-07 5.6982193
v 0.52300954 0.053033214 5.689556
v 0.75523186 0.07500018 5.9491997
v 0.7946311 0.053033188 5.9137006
v 0.8109508 1.7225723E-07 5.898996
v 0.79463106 -0.05303284 5.9137006
v 0.75523186 -0.074999824 5.9491997
v 0.7158326 -0.05303281 5.984699
v 0.6995129 1.9192736E-07 5.9994035
v 0.71583265 0.053033214 5.984699
v 1.0028481 0.07500018 6.1702404
v 1.034559 0.053033188 6.1277323
v 1.0476941 1.7225723E-07 6.110125
v 1.034559 -0.05303284 6.1277323
v 1.0028481 -0.074999824 6.1702404
v 0.9711373 -0.05303281 6.2127485
v 0.95800227 1.9192736E-07 6.2303557
v 0.97113734 0.053033214 6.2127485
v 1.266976 0.07500018 6.34832
v 1.2953093 0.053033188 6.30349
v 1.3070453 1.7225723E-07 6.2849207
v 1.2953093 -0.05303284 6.30349
v 1.266976 -0.074999824 6.34832
v 1.2386427 -0.05303281 6.39315
v 1.2269067 1.9192736E-07 6.4117193
v 1.2386427 0.053033214 6.39315
v 1.5000004 0.07500018 6.5
v 1.5308251 0.053033188 6.4568453
v 1.5435933 1.7225723E-07 6.43897
v 1.5308251 -0.05303284 6.4568453
v 1.5000004 -0.074999824 6.5
v 1.4691756 -0.05303281 6.5431547
v 1.4564074 1.9192736E-07 6.56103
v 1.4691756 0.053033214 6.5431547
v 0.49999985 0.07500018 5.312
v 0.5530329 0.053033188 5.312
v 0.57499987 1.7225723E-07 5.312
v 0.5530329 -0.05303284 5.312
v 0.49999985 -0.074999824 5.312
v 0.44696683 -0.05303281 5.312
v 0.42499983 1.9192736E-07 5.312
v 0.44696686 0.053033214 5.312
v 1.5000004 0.07500018 6.5
v 1.5308251 0.053033188 6.4568453
v 1.5435933 1.7225723E-07 6.43897
v 1.5308251 -0.05303284 6.4568453
v 1.5000004 -0.074999824 6.5
v 1.4691756 -0.05303281 6.5431547
v 1.4564074 1.9192736E-07 6.56103
v 1.4691756 0.053033214 6.5431547
v 0.49999985 1.7881393E-07 5.312
v 1.5000004 1.7881393E-07 6.5
vt 0.49999997 1
vt 0.14644662 0.85355335
vt 0 0.49999997
vt 0.14644668 0.14644654
vt 0.5 0
vt 0.85355353 0.14644675
vt 1 0.50000006
vt 0.85355324 0.85355353
vt 0.49999997 1
vt 0.14644662 0.85355335
vt 0 0.49999997
vt 0.14644668 0.14644654
vt 0.5 0
vt 0.85355353 0.14644675
vt 1 0.50000006
vt 0.85355324 0.85355353
vt 0.49999997 1
vt 0.14644662 0.85355335
vt 0 0.49999997
vt 0.14644668 0.14644654
vt 0.5 0
vt 0.85355353 0.14644675
vt 1 0.50000006
vt 0.85355324 0.85355353
vt 0.49999997 1
vt 0.14644662 0.85355335
vt 0 0.49999997
vt 0.14644668 0.14644654
vt 0.5 0
vt 0.85355353 0.14644675
vt 1 0.50000006
vt 0.85355324 0.85355353
vt 0.49999997 1
vt 0.14644662 0.85355335
vt 0 0.49999997
vt 0.14644668 0.14644654
vt 0.5 0
vt 0.85355353 0.14644675
vt 1 0.50000006
vt 0.85355324 0.85355353
vt 0.49999997 1
vt 0.14644662 0.85355335
vt 0 0.49999997
vt 0.14644668 0.14644654
vt 0.5 0
vt 0.85355353 0.14644675
vt 1 0.50000006
vt 0.85355324 0.85355353
vt 0.49999997 1
vt 0.14644662 0.85355335
vt 0 0.49999997
vt 0.14644668 0.14644654
vt 0.5 0
vt 0.85355353 0.14644675
vt 1 0.50000006
vt 0.85355324 0.85355353
vt 0.49999997 1
vt 0.14644662 0.85355335
vt 0 0.49999997
vt 0.14644668 0.14644654
vt 0.5 0
vt 0.85355353 0.14644675
vt 1 0.50000006
vt 0.85355324 0.85355353
vt 0.5 0.5
vt 0.5 0.5
vn -0.0006071673 0.9999996 -2.072902E-05
vn 0.7031206 0.7091601 -0.052091144
vn 0.99727505 -3.016046E-09 -0.073773056
vn 0.70312035 -0.70916003 -0.052091315
vn -0.0006076895 -0.9999996 -2.0688749E-05
vn -0.70910525 -0.70306754 0.053532645
vn -0.99724066 2.554315E-07 0.074237
vn -0.7091051 0.70306766 0.053532302
vn -0.008307144 0.99996406 0.0017072855
vn 0.6342944 0.7108447 -0.30392516
vn 0.9499656 -4.5199284E-09 -0.31235453
vn 0.63429433 -0.7108447 -0.30392504
vn -0.0083076395 -0.99996406 0.0017074486
vn -0.641128 -0.70386 0.30583665
vn -0.94986224 4.4640188E-07 0.3126687
vn -0.6411278 0.7038601 0.30583656
vn -0.006092541 0.99997383 0.0038999626
vn 0.51286834 0.709507 -0.48328662
vn 0.7852409 -3.1806385E-07 -0.61919034
vn 0.5128682 -0.70950705 -0.48328653
vn -0.006092951 -0.9999738 0.0039003072
vn -0.51755387 -0.7051842 0.48461667
vn -0.7872433 4.804504E-07 0.6166424
vn -0.5175538 0.70518434 0.48461655
vn -0.0029659334 0.99999034 0.0032533947
vn 0.42104134 0.708082 -0.5668721
vn 0.6318214 -1.5719812E-07 -0.7751141
vn 0.42104128 -0.7080821 -0.5668721
vn -0.0029662682 -0.9999902 0.0032537829
vn -0.4229451 -0.70632523 0.5676462
vn -0.6332236 3.8203714E-07 0.773969
vn -0.42294502 0.70632535 0.5676461
vn -0.0010513179 0.9999983 0.0015294005
vn 0.38969752 0.70623606 -0.59107214
vn 0.55482954 0 -0.83196396
vn 0.38969755 -0.7062362 -0.59107214
vn -0.0010516201 -0.9999983 0.0015298466
vn -0.3889489 -0.7076577 0.58986384
vn -0.55505234 1.001295E-07 0.83181536
vn -0.3889489 0.7076578 0.5898637
vn 0.0006243653 0.99999875 -0.00092859054
vn 0.461359 0.70403296 -0.53989404
vn 0.64854705 3.9291104E-09 -0.7611746
vn 0.46135893 -0.704033 -0.539894
vn 0.0006240144 -0.99999875 -0.00092818827
vn -0.45788136 -0.71034503 0.53456026
vn -0.6510406 1.5864853E-08 0.759043
vn -0.45788127 0.7103452 0.5345601
vn -0 0 -1
vn -0 0 -1
vn -0 0 -1
vn -0 0 -1
vn -0 0 -1
vn -0 0 -1
vn -0 0 -1
vn -0 0 -1
vn 0.8137337 0 0.581238
vn 0.8137331 8.6342544E-07 0.5812387
vn 0.8137326 0 0.5812394
vn 0.8137331 -8.6342544E-07 0.5812387
vn 0.8137337 0 0.581238
vn 0.8137331 8.6342556E-07 0.5812386
vn 0.8137326 0 0.5812394
vn 0.8137331 -8.634253E-07 0.5812386
vn -0 0 -1
vn 0.8137331 0 0.5812387
g Wire Deformed_0
f 1/1/1 9/9/9 2/2/2
f 10/10/10 2/2/2 9/9/9
f 10/10/10 11/11/11 2/2/2
f 3/3/3 2/2/2 11/11/11
f 3/3/3 11/11/11 4/4/4
f 12/12/12 4/4/4 11/11/11
f 12/12/12 13/13/13 4/4/4
f 5/5/5 4/4/4 13/13/13
f 5/5/5 13/13/13 6/6/6
f 14/14/14 6/6/6 13/13/13
f 14/14/14 15/15/15 6/6/6
f 7/7/7 6/6/6 15/15/15
f 7/7/7 15/15/15 8/8/8
f 16/16/16 8/8/8 15/15/15
f 16/16/16 9/9/9 8/8/8
f 1/1/1 8/8/8 9/9/9
f 9/9/9 17/17/17 10/10/10
f 18/18/18 10/10/10 17/17/17
f 18/18/18 19/19/19 10/10/10
f 11/11/11 10/10/10 19/19/19
f 11/11/11 19/19/19 12/12/12
f 20/20/20 12/12/12 19/19/19
f 20/20/20 21/21/21 12/12/12
f 13/13/13 12/12/12 21/21/21
f 13/13/13 21/21/21 14/14/14
f 22/22/22 14/14/14 21/21/21
f 22/22/22 23/23/23 14/14/14
f 15/15/15 14/14/14 23/23/23
f 15/15/15 23/23/23 16/16/16
f 24/24/24 16/16/16 23/23/23
f 24/24/24 17/17/17 16/16/16
f 9/9/9 16/16/16 17/17/17
f 17/17/17 25/25/25 18/18/18
f 26/26/26 18/18/18 25/25/25
f 26/26/26 27/27/27 18/18/18
f 19/19/19 18/18/18 27/27/27
f 19/19/19 27/27/27 20/20/20
f 28/28/28 20/20/20 27/27/27
f 28/28/28 29/29/29 20/20/20
f 21/21/21 20/20/20 29/29/29
f 21/21/21 29/29/29 22/22/22
f 30/30/30 22/22/22 29/29/29
f 30/30/30 31/31/31 22/22/22
f 23/23/23 22/22/22 31/31/31
f 23/23/23 31/31/31 24/24/24
f 32/32/32 24/24/24 31/31/31
f 32/32/32 25/25/25 24/24/24
f 17/17/17 24/24/24 25/25/25
f 25/25/25 33/33/33 26/26/26
f 34/34/34 26/26/26 33/33/33
f 34/34/34 35/35/35 26/26/26
f 27/27/27 26/26/26 35/35/35
f 27/27/27 35/35/35 28/28/28
f 36/36/36 28/28/28 35/35/35
f 36/36/36 37/37/37 28/28/28
f 29/29/29 28/28/28 37/37/37
f 29/29/29 37/37/37 30/30/30
f 38/38/38 30/30/30 37/37/37
f 38/38/38 39/39/39 30/30/30
f 31/31/31 30/30/30 39/39/39
f 31/31/31 39/39/39 32/32/32
f 40/40/40 32/32/32 39/39/39
f 40/40/40 33/33/33 32/32/32
f 25/25/25 32/32/32 33/33/33
f 33/33/33 41/41/41 34/34/34
f 42/42/42 34/34/34 41/41/41
f 42/42/42 43/43/43 34/34/34
f 35/35/35 34/34/34 43/43/43
f 35/35/35 43/43/43 36/36/36
f 44/44/44 36/36/36 43/43/43
f 44/44/44 45/45/45 36/36/36
f 37/37/37 36/36/36 45/45/45
f 37/37/37 45/45/45 38/38/38
f 46/46/46 38/38/38 45/45/45
f 46/46/46 47/47/47 38/38/38
f 39/39/39 38/38/38 47/47/47
f 39/39/39 47/47/47 40/40/40
f 48/48/48 40/40/40 47/47/47
f 48/48/48 41/41/41 40/40/40
f 33/33/33 40/40/40 41/41/41
f 49/49/49 50/50/50 65/65/65
f 50/50/50 51/51/51 65/65/65
f 51/51/51 52/52/52 65/65/65
f 52/52/52 53/53/53 65/65/65
f 53/53/53 54/54/54 65/65/65
f 54/54/54 55/55/55 65/65/65
f 55/55/55 56/56/56 65/65/65
f 56/56/56 49/49/49 65/65/65
f 58/58/58 57/57/57 66/66/66
f 59/59/59 58/58/58 66/66/66
f 60/60/60 59/59/59 66/66/66
f 61/61/61 60/60/60 66/66/66
f 62/62/62 61/61/61 66/66/66
f 63/63/63 62/62/62 66/66/66
f 64/64/64 63/63/63 66/66/66
f 57/57/57 64/64/64 66/66/66
