g Wire Deformed
v 1.8159642E-07 0.075 0.5
v 0.045011748 0.05303301 0.52804387
v 0.06365615 -6.5567085E-09 0.53966004
v 0.045011744 -0.05303302 0.52804387
v 1.7805485E-07 -0.075 0.5
v -0.04501141 -0.05303299 0.47195613
v -0.06365579 1.3113417E-08 0.46034
v -0.045011368 0.053033035 0.47195613
v -0.12358451 0.075 0.65151983
v -0.084593 0.05303301 0.6874665
v -0.06844218 -6.5567085E-09 0.7023561
v -0.084593 -0.05303302 0.6874665
v -0.12358451 -0.075 0.65151983
v -0.16257603 -0.05303299 0.61557317
v -0.17872684 1.3113417E-08 0.60068357
v -0.162576 0.053033035 0.6155732
v -0.325072 0.075 0.85704005
v -0.28795812 0.05303301 0.8949222
v -0.27258503 -6.5567085E-09 0.91061354
v -0.28795812 -0.05303302 0.8949222
v -0.325072 -0.075 0.85704005
v -0.3621859 -0.05303299 0.81915784
v -0.37755895 1.3113417E-08 0.80346656
v -0.36218587 0.053033035 0.8191579
v -0.56476843 0.075 1.0868003
v -0.52835184 0.05303301 1.1253533
v -0.5132676 -6.5567085E-09 1.1413225
v -0.52835184 -0.05303302 1.1253533
v -0.56476843 -0.075 1.0868003
v -0.601185 -0.05303299 1.0482473
v -0.6162693 1.3113417E-08 1.0322782
v -0.601185 0.053033035 1.0482473
v -0.80297613 0.075 1.3110397
v -0.76658195 0.05303301 1.3496138
v -0.751507 -6.5567085E-09 1.3655918
v -0.76658195 -0.05303302 1.3496138
v -0.80297613 -0.075 1.3110397
v -0.8393703 -0.05303299 1.2724656
v -0.8544453 1.3113417E-08 1.2564876
v -0.8393703 0.053033035 1.2724656
v -1 0.075 1.4999999
v -0.96270853 0.05303301 1.5377072
v -0.94726187 -6.5567085E-09 1.5533261
v -0.96270853 -0.05303302 1.5377072
v -1 -0.075 1.4999999
v -1.0372915 -0.05303299 1.4622926
v -1.0527382 1.3113417E-08 1.4466736
v -1.0372915 0.053033035 1.4622926
v 1.8159642E-07 0.075 0.5
v 0.045011748 0.05303301 0.52804387
v 0.06365615 -6.5567085E-09 0.53966004
v 0.045011744 -0.05303302 0.52804387
v 1.7805485E-07 -0.075 0.5
v -0.04501141 -0.05303299 0.47195613
v -0.06365579 1.3113417E-08 0.46034
v -0.045011368 0.053033035 0.47195613
v -1 0.075 1.4999999
v -0.96270853 0.05303301 1.5377072
v -0.94726187 -6.5567085E-09 1.5533261
v -0.96270853 -0.05303302 1.5377072
v -1 -0.075 1.4999999
v -1.0372915 -0.05303299 1.4622926
v -1.0527382 1.3113417E-08 1.4466736
v -1.0372915 0.053033035 1.4622926
v 1.7881393E-07 0 0.5
v -1 0 1.4999999
vt 0.49999997 1
vt 0.14644662 0.85355335
vt 0 0.49999997
vt 0.14644668 0.14644654
vt 0.5 0
vt 0.85355353 0.14644675
vt 1 0.50000006
vt 0.85355324 0.85355353
vt 0.49999997 1
vt 0.14644662 0.85355335
vt 0 0.49999997
vt 0.14644668 0.14644654
vt 0.5 0
vt 0.85355353 0.14644675
vt 1 0.50000006
vt 0.85355324 0.85355353
vt 0.49999997 1
vt 0.14644662 0.85355335
vt 0 0.49999997
vt 0.14644668 0.14644654
vt 0.5 0
vt 0.85355353 0.14644675
vt 1 0.50000006
vt 0.85355324 0.85355353
vt 0.49999997 1
vt 0.14644662 0.85355335
vt 0 0.49999997
vt 0.14644668 0.14644654
vt 0.5 0
vt 0.85355353 0.14644675
vt 1 0.50000006
vt 0.85355324 0.85355353
vt 0.49999997 1
vt 0.14644662 0.85355335
vt 0 0.49999997
vt 0.14644668 0.14644654
vt 0.5 0
vt 0.85355353 0.14644675
vt 1 0.50000006
vt 0.85355324 0.85355353
vt 0.49999997 1
vt 0.14644662 0.85355335
vt 0 0.49999997
vt 0.14644668 0.14644654
vt 0.5 0
vt 0.85355353 0.14644675
vt 1 0.50000006
vt 0.85355324 0.85355353
vt 0.49999997 1
vt 0.14644662 0.85355335
vt 0 0.49999997
vt 0.14644668 0.14644654
vt 0.5 0
vt 0.85355353 0.14644675
vt 1 0.50000006
vt 0.85355324 0.85355353
vt 0.49999997 1
vt 0.14644662 0.85355335
vt 0 0.49999997
vt 0.14644668 0.14644654
vt 0.5 0
vt 0.85355353 0.14644675
vt 1 0.50000006
vt 0.85355324 0.85355353
vt 0.5 0.5
vt 0.5 0.5
vn 0.014835469 0.99987185 0.006029835
vn 0.60869825 0.7050451 0.36386508
vn 0.858659 -2.3712044E-08 0.51254725
vn 0.6086983 -0.7050453 0.36386493
vn 0.014834162 -0.9998718 0.0060292133
vn -0.60331905 -0.7103908 -0.36242384
vn -0.85646576 3.7906358E-07 -0.5162039
vn -0.6033188 0.71039087 -0.36242375
vn 0.004836726 0.9999815 0.0036844688
vn 0.51730347 0.70642275 0.48307765
vn 0.751335 -1.2438656E-08 0.659921
vn 0.51730335 -0.70642287 0.48307762
vn 0.004836361 -0.9999815 0.0036841366
vn -0.5151083 -0.70786726 -0.48330876
vn -0.74831957 5.1972233E-07 -0.6633385
vn -0.5151082 0.7078674 -0.4833087
vn 0.0008836563 0.9999993 0.00085724995
vn 0.49425605 0.7069007 0.5059666
vn 0.7061401 1.4387648E-08 0.70807207
vn 0.49425605 -0.70690095 0.5059666
vn 0.0008832928 -0.9999992 0.0008568671
vn -0.49390024 -0.7073218 -0.5057256
vn -0.70600945 5.4654515E-07 -0.7082025
vn -0.4939001 0.70732194 -0.50572556
vn 0.00028051593 0.9999999 0.00029157606
vn 0.48624828 0.7071001 0.5133927
vn 0.6898382 -3.093065E-08 0.7239636
vn 0.48624822 -0.70710015 0.51339257
vn 0.00028013941 -0.99999994 0.00029120396
vn -0.48623177 -0.7071131 -0.5133906
vn -0.68982214 2.1311669E-07 -0.72397894
vn -0.48623163 0.7071133 -0.5133905
vn 9.587573E-06 1 1.0188867E-05
vn 0.48745885 0.7073902 0.5118428
vn 0.6874143 -1.8972953E-08 0.7262655
vn 0.48745883 -0.70739025 0.5118427
vn 9.237212E-06 -1 9.810099E-06
vn -0.48788786 -0.7067982 -0.51225144
vn -0.68744254 4.7259814E-09 -0.72623867
vn -0.4878878 0.7067985 -0.51225144
vn -0.00032863082 0.99999976 -0.00034024936
vn 0.53066635 0.7105069 0.46213987
vn 0.75439894 0 0.65641624
vn 0.53066623 -0.71050704 0.46213982
vn -0.00032902608 -0.99999976 -0.00034058664
vn -0.5366838 -0.7027103 -0.46708536
vn -0.7537771 2.703284E-08 -0.6571302
vn -0.5366837 0.70271045 -0.4670853
vn 0.52880037 -1.9618389E-08 -0.8487463
vn 0.5288003 -1.2688376E-07 -0.84874624
vn 0.52880037 -2.9268637E-08 -0.84874624
vn 0.5288003 8.5129884E-08 -0.84874624
vn 0.5288002 -5.3520712E-09 -0.84874636
vn 0.5288001 -3.194468E-08 -0.84874636
vn 0.52880013 -2.0488051E-07 -0.84874636
vn 0.52880025 -1.8542106E-07 -0.84874624
vn -0.71101636 0 0.70317537
vn -0.71101665 0 0.70317507
vn -0.71101665 0 0.70317507
vn -0.71101665 0 0.70317507
vn -0.71101636 0 0.70317537
vn -0.71101624 1.1707455E-07 0.7031756
vn -0.71101636 0 0.70317554
vn -0.71101624 -1.17074535E-07 0.70317566
vn 0.52880025 -6.47799E-08 -0.8487463
vn -0.7110165 0 0.70317537
g Wire Deformed_0
f 1/1/1 9/9/9 2/2/2
f 10/10/10 2/2/2 9/9/9
f 10/10/10 11/11/11 2/2/2
f 3/3/3 2/2/2 11/11/11
f 3/3/3 11/11/11 4/4/4
f 12/12/12 4/4/4 11/11/11
f 12/12/12 13/13/13 4/4/4
f 5/5/5 4/4/4 13/13/13
f 5/5/5 13/13/13 6/6/6
f 14/14/14 6/6/6 13/13/13
f 14/14/14 15/15/15 6/6/6
f 7/7/7 6/6/6 15/15/15
f 7/7/7 15/15/15 8/8/8
f 16/16/16 8/8/8 15/15/15
f 16/16/16 9/9/9 8/8/8
f 1/1/1 8/8/8 9/9/9
f 9/9/9 17/17/17 10/10/10
f 18/18/18 10/10/10 17/17/17
f 18/18/18 19/19/19 10/10/10
f 11/11/11 10/10/10 19/19/19
f 11/11/11 19/19/19 12/12/12
f 20/20/20 12/12/12 19/19/19
f 20/20/20 21/21/21 12/12/12
f 13/13/13 12/12/12 21/21/21
f 13/13/13 21/21/21 14/14/14
f 22/22/22 14/14/14 21/21/21
f 22/22/22 23/23/23 14/14/14
f 15/15/15 14/14/14 23/23/23
f 15/15/15 23/23/23 16/16/16
f 24/24/24 16/16/16 23/23/23
f 24/24/24 17/17/17 16/16/16
f 9/9/9 16/16/16 17/17/17
f 17/17/17 25/25/25 18/18/18
f 26/26/26 18/18/18 25/25/25
f 26/26/26 27/27/27 18/18/18
f 19/19/19 18/18/18 27/27/27
f 19/19/19 27/27/27 20/20/20
f 28/28/28 20/20/20 27/27/27
f 28/28/28 29/29/29 20/20/20
f 21/21/21 20/20/20 29/29/29
f 21/21/21 29/29/29 22/22/22
f 30/30/30 22/22/22 29/29/29
f 30/30/30 31/31/31 22/22/22
f 23/23/23 22/22/22 31/31/31
f 23/23/23 31/31/31 24/24/24
f 32/32/32 24/24/24 31/31/31
f 32/32/32 25/25/25 24/24/24
f 17/17/17 24/24/24 25/25/25
f 25/25/25 33/33/33 26/26/26
f 34/34/34 26/26/26 33/33/33
f 34/34/34 35/35/35 26/26/26
f 27/27/27 26/26/26 35/35/35
f 27/27/27 35/35/35 28/28/28
f 36/36/36 28/28/28 35/35/35
f 36/36/36 37/37/37 28/28/28
f 29/29/29 28/28/28 37/37/37
f 29/29/29 37/37/37 30/30/30
f 38/38/38 30/30/30 37/37/37
f 38/38/38 39/39/39 30/30/30
f 31/31/31 30/30/30 39/39/39
f 31/31/31 39/39/39 32/32/32
f 40/40/40 32/32/32 39/39/39
f 40/40/40 33/33/33 32/32/32
f 25/25/25 32/32/32 33/33/33
f 33/33/33 41/41/41 34/34/34
f 42/42/42 34/34/34 41/41/41
f 42/42/42 43/43/43 34/34/34
f 35/35/35 34/34/34 43/43/43
f 35/35/35 43/43/43 36/36/36
f 44/44/44 36/36/36 43/43/43
f 44/44/44 45/45/45 36/36/36
f 37/37/37 36/36/36 45/45/45
f 37/37/37 45/45/45 38/38/38
f 46/46/46 38/38/38 45/45/45
f 46/46/46 47/47/47 38/38/38
f 39/39/39 38/38/38 47/47/47
f 39/39/39 47/47/47 40/40/40
f 48/48/48 40/40/40 47/47/47
f 48/48/48 41/41/41 40/40/40
f 33/33/33 40/40/40 41/41/41
f 49/49/49 50/50/50 65/65/65
f 50/50/50 51/51/51 65/65/65
f 51/51/51 52/52/52 65/65/65
f 52/52/52 53/53/53 65/65/65
f 53/53/53 54/54/54 65/65/65
f 54/54/54 55/55/55 65/65/65
f 55/55/55 56/56/56 65/65/65
f 56/56/56 49/49/49 65/65/65
f 58/58/58 57/57/57 66/66/66
f 59/59/59 58/58/58 66/66/66
f 60/60/60 59/59/59 66/66/66
f 61/61/61 60/60/60 66/66/66
f 62/62/62 61/61/61 66/66/66
f 63/63/63 62/62/62 66/66/66
f 64/64/64 63/63/63 66/66/66
f 57/57/57 64/64/64 66/66/66
