g Wire
v 3.2783543E-09 0.075 0
v 0.075 -6.5567085E-09 0
v -8.943661E-10 -0.075 0
v -0.075 1.3113417E-08 0
v 3.2783543E-09 0.075 0.016666668
v 0.075 -6.5567085E-09 0.016666668
v -8.943661E-10 -0.075 0.016666668
v -0.075 1.3113417E-08 0.016666668
v 3.2783543E-09 0.075 0.033333335
v 0.075 -6.5567085E-09 0.033333335
v -8.943661E-10 -0.075 0.033333335
v -0.075 1.3113417E-08 0.033333335
v 3.2783543E-09 0.075 0.05
v 0.075 -6.5567085E-09 0.05
v -8.943661E-10 -0.075 0.05
v -0.075 1.3113417E-08 0.05
v 3.2783543E-09 0.075 0.06666667
v 0.075 -6.5567085E-09 0.06666667
v -8.943661E-10 -0.075 0.06666667
v -0.075 1.3113417E-08 0.06666667
v 3.2783543E-09 0.075 0.083333336
v 0.075 -6.5567085E-09 0.083333336
v -8.943661E-10 -0.075 0.083333336
v -0.075 1.3113417E-08 0.083333336
v 3.2783543E-09 0.075 0.1
v 0.075 -6.5567085E-09 0.1
v -8.943661E-10 -0.075 0.1
v -0.075 1.3113417E-08 0.1
v 3.2783543E-09 0.075 0.11666667
v 0.075 -6.5567085E-09 0.11666667
v -8.943661E-10 -0.075 0.11666667
v -0.075 1.3113417E-08 0.11666667
v 3.2783543E-09 0.075 0.13333334
v 0.075 -6.5567085E-09 0.13333334
v -8.943661E-10 -0.075 0.13333334
v -0.075 1.3113417E-08 0.13333334
v 3.2783543E-09 0.075 0.15
v 0.075 -6.5567085E-09 0.15
v -8.943661E-10 -0.075 0.15
v -0.075 1.3113417E-08 0.15
v 3.2783543E-09 0.075 0.16666667
v 0.075 -6.5567085E-09 0.16666667
v -8.943661E-10 -0.075 0.16666667
v -0.075 1.3113417E-08 0.16666667
v 3.2783543E-09 0.075 0.18333334
v 0.075 -6.5567085E-09 0.18333334
v -8.943661E-10 -0.075 0.18333334
v -0.075 1.3113417E-08 0.18333334
v 3.2783543E-09 0.075 0.2
v 0.075 -6.5567085E-09 0.2
v -8.943661E-10 -0.075 0.2
v -0.075 1.3113417E-08 0.2
v 3.2783543E-09 0.075 0.21666667
v 0.075 -6.5567085E-09 0.21666667
v -8.943661E-10 -0.075 0.21666667
v -0.075 1.3113417E-08 0.21666667
v 3.2783543E-09 0.075 0.23333333
v 0.075 -6.5567085E-09 0.23333333
v -8.943661E-10 -0.075 0.23333333
v -0.075 1.3113417E-08 0.23333333
v 3.2783543E-09 0.075 0.25
v 0.075 -6.5567085E-09 0.25
v -8.943661E-10 -0.075 0.25
v -0.075 1.3113417E-08 0.25
v 3.2783543E-09 0.075 0.26666668
v 0.075 -6.5567085E-09 0.26666668
v -8.943661E-10 -0.075 0.26666668
v -0.075 1.3113417E-08 0.26666668
v 3.2783543E-09 0.075 0.28333333
v 0.075 -6.5567085E-09 0.28333333
v -8.943661E-10 -0.075 0.28333333
v -0.075 1.3113417E-08 0.28333333
v 3.2783543E-09 0.075 0.3
v 0.075 -6.5567085E-09 0.3
v -8.943661E-10 -0.075 0.3
v -0.075 1.3113417E-08 0.3
v 3.2783543E-09 0.075 0.31666666
v 0.075 -6.5567085E-09 0.31666666
v -8.943661E-10 -0.075 0.31666666
v -0.075 1.3113417E-08 0.31666666
v 3.2783543E-09 0.075 0.33333334
v 0.075 -6.5567085E-09 0.33333334
v -8.943661E-10 -0.075 0.33333334
v -0.075 1.3113417E-08 0.33333334
v 3.2783543E-09 0.075 0.35
v 0.075 -6.5567085E-09 0.35
v -8.943661E-10 -0.075 0.35
v -0.075 1.3113417E-08 0.35
v 3.2783543E-09 0.075 0.36666667
v 0.075 -6.5567085E-09 0.36666667
v -8.943661E-10 -0.075 0.36666667
v -0.075 1.3113417E-08 0.36666667
v 3.2783543E-09 0.075 0.38333333
v 0.075 -6.5567085E-09 0.38333333
v -8.943661E-10 -0.075 0.38333333
v -0.075 1.3113417E-08 0.38333333
v 3.2783543E-09 0.075 0.4
v 0.075 -6.5567085E-09 0.4
v -8.943661E-10 -0.075 0.4
v -0.075 1.3113417E-08 0.4
v 3.2783543E-09 0.075 0.41666666
v 0.075 -6.5567085E-09 0.41666666
v -8.943661E-10 -0.075 0.41666666
v -0.075 1.3113417E-08 0.41666666
v 3.2783543E-09 0.075 0.43333334
v 0.075 -6.5567085E-09 0.43333334
v -8.943661E-10 -0.075 0.43333334
v -0.075 1.3113417E-08 0.43333334
v 3.2783543E-09 0.075 0.45
v 0.075 -6.5567085E-09 0.45
v -8.943661E-10 -0.075 0.45
v -0.075 1.3113417E-08 0.45
v 3.2783543E-09 0.075 0.46666667
v 0.075 -6.5567085E-09 0.46666667
v -8.943661E-10 -0.075 0.46666667
v -0.075 1.3113417E-08 0.46666667
v 3.2783543E-09 0.075 0.48333332
v 0.075 -6.5567085E-09 0.48333332
v -8.943661E-10 -0.075 0.48333332
v -0.075 1.3113417E-08 0.48333332
v 3.2783543E-09 0.075 0.5
v 0.075 -6.5567085E-09 0.5
v -8.943661E-10 -0.075 0.5
v -0.075 1.3113417E-08 0.5
v 3.2783543E-09 0.075 0
v 0.075 -6.5567085E-09 0
v -8.943661E-10 -0.075 0
v -0.075 1.3113417E-08 0
v 3.2783543E-09 0.075 0.5
v 0.075 -6.5567085E-09 0.5
v -8.943661E-10 -0.075 0.5
v -0.075 1.3113417E-08 0.5
v -0 0 0
v -0 0 0.5
vt 0.49999997 1
vt 0 0.49999997
vt 0.5 0
vt 1 0.50000006
vt 0.49999997 1
vt 0 0.49999997
vt 0.5 0
vt 1 0.50000006
vt 0.49999997 1
vt 0 0.49999997
vt 0.5 0
vt 1 0.50000006
vt 0.49999997 1
vt 0 0.49999997
vt 0.5 0
vt 1 0.50000006
vt 0.49999997 1
vt 0 0.49999997
vt 0.5 0
vt 1 0.50000006
vt 0.49999997 1
vt 0 0.49999997
vt 0.5 0
vt 1 0.50000006
vt 0.49999997 1
vt 0 0.49999997
vt 0.5 0
vt 1 0.50000006
vt 0.49999997 1
vt 0 0.49999997
vt 0.5 0
vt 1 0.50000006
vt 0.49999997 1
vt 0 0.49999997
vt 0.5 0
vt 1 0.50000006
vt 0.49999997 1
vt 0 0.49999997
vt 0.5 0
vt 1 0.50000006
vt 0.49999997 1
vt 0 0.49999997
vt 0.5 0
vt 1 0.50000006
vt 0.49999997 1
vt 0 0.49999997
vt 0.5 0
vt 1 0.50000006
vt 0.49999997 1
vt 0 0.49999997
vt 0.5 0
vt 1 0.50000006
vt 0.49999997 1
vt 0 0.49999997
vt 0.5 0
vt 1 0.50000006
vt 0.49999997 1
vt 0 0.49999997
vt 0.5 0
vt 1 0.50000006
vt 0.49999997 1
vt 0 0.49999997
vt 0.5 0
vt 1 0.50000006
vt 0.49999997 1
vt 0 0.49999997
vt 0.5 0
vt 1 0.50000006
vt 0.49999997 1
vt 0 0.49999997
vt 0.5 0
vt 1 0.50000006
vt 0.49999997 1
vt 0 0.49999997
vt 0.5 0
vt 1 0.50000006
vt 0.49999997 1
vt 0 0.49999997
vt 0.5 0
vt 1 0.50000006
vt 0.49999997 1
vt 0 0.49999997
vt 0.5 0
vt 1 0.50000006
vt 0.49999997 1
vt 0 0.49999997
vt 0.5 0
vt 1 0.50000006
vt 0.49999997 1
vt 0 0.49999997
vt 0.5 0
vt 1 0.50000006
vt 0.49999997 1
vt 0 0.49999997
vt 0.5 0
vt 1 0.50000006
vt 0.49999997 1
vt 0 0.49999997
vt 0.5 0
vt 1 0.50000006
vt 0.49999997 1
vt 0 0.49999997
vt 0.5 0
vt 1 0.50000006
vt 0.49999997 1
vt 0 0.49999997
vt 0.5 0
vt 1 0.50000006
vt 0.49999997 1
vt 0 0.49999997
vt 0.5 0
vt 1 0.50000006
vt 0.49999997 1
vt 0 0.49999997
vt 0.5 0
vt 1 0.50000006
vt 0.49999997 1
vt 0 0.49999997
vt 0.5 0
vt 1 0.50000006
vt 0.49999997 1
vt 0 0.49999997
vt 0.5 0
vt 1 0.50000006
vt 0.49999997 1
vt 0 0.49999997
vt 0.5 0
vt 1 0.50000006
vt 0.49999997 1
vt 0 0.49999997
vt 0.5 0
vt 1 0.50000006
vt 0.5 0.5
vt 0.5 0.5
vn 1.3969837E-07 1 0
vn 1 0 0
vn -1.3969837E-07 -1 0
vn -1 0 0
vn 1.3969836E-07 0.99999994 0
vn 1 0 0
vn -1.3969836E-07 -0.99999994 0
vn -1 0 0
vn 1.3969839E-07 1 0
vn 1 0 0
vn -1.3969839E-07 -1 0
vn -1 0 0
vn 1.3969839E-07 1 0
vn 0.99999994 0 0
vn -1.5522042E-07 -1 0
vn -1 0 0
vn 1.3969839E-07 1 0
vn 1 0 0
vn -1.7074247E-07 -1 0
vn -1 0 0
vn 1.396984E-07 1 0
vn 1 0 0
vn -1.396984E-07 -1 0
vn -1 0 0
vn 1.396984E-07 1 0
vn 1 0 0
vn -1.396984E-07 -1 0
vn -1 0 0
vn 1.3969836E-07 1 0
vn 1 0 0
vn -1.3969836E-07 -1 0
vn -0.99999994 0 0
vn 1.3969834E-07 1 0
vn 0.99999994 0 0
vn -1.3969834E-07 -1 0
vn -1 0 0
vn 1.396984E-07 1 0
vn 1 0 0
vn -1.396984E-07 -1 0
vn -1 0 0
vn 1.396984E-07 1 0
vn 1 0 0
vn -1.396984E-07 -1 0
vn -1 0 0
vn 1.396984E-07 1 0
vn 1 0 0
vn -1.396984E-07 -1 0
vn -1 0 0
vn 1.396984E-07 1 0
vn 1 0 0
vn -1.396984E-07 -1 0
vn -1 0 0
vn 1.396984E-07 1 0
vn 1 0 0
vn -1.396984E-07 -1 0
vn -1 0 0
vn 1.396984E-07 1 0
vn 1 0 0
vn -1.396984E-07 -1 0
vn -1 0 0
vn 1.5522039E-07 1 0
vn 1 0 0
vn -1.3969834E-07 -1 0
vn -1 0 0
vn 1.7074242E-07 1 0
vn 1 0 0
vn -1.5522039E-07 -1 0
vn -1 0 0
vn 1.5522048E-07 1 0
vn 1 0 0
vn -1.7074252E-07 -1 0
vn -0.99999994 0 0
vn 1.7074242E-07 1 0
vn 1 0 0
vn -1.5522039E-07 -1 0
vn -1 0 0
vn 1.5522048E-07 1 0
vn 1 0 0
vn -1.7074252E-07 -1 0
vn -0.99999994 0 0
vn 1.7074242E-07 1 0
vn 1 0 0
vn -1.5522039E-07 -1 0
vn -1 0 0
vn 1.5522048E-07 1 0
vn 1 0 0
vn -1.7074252E-07 -1 0
vn -0.99999994 0 0
vn 1.7074242E-07 1 0
vn 1 0 0
vn -1.5522039E-07 -1 0
vn -1 0 0
vn 1.5522048E-07 1 0
vn 1 0 0
vn -1.7074252E-07 -1 0
vn -0.99999994 0 0
vn 1.7074242E-07 1 0
vn 1 0 0
vn -1.5522039E-07 -1 0
vn -1 0 0
vn 1.5522048E-07 1 0
vn 1 0 0
vn -1.7074252E-07 -1 0
vn -0.99999994 0 0
vn 1.7074242E-07 1 0
vn 1 0 0
vn -1.5522039E-07 -1 0
vn -1 0 0
vn 1.5522048E-07 1 0
vn 1 0 0
vn -1.7074252E-07 -1 0
vn -0.99999994 0 0
vn 1.7074242E-07 1 0
vn 1 0 0
vn -1.5522039E-07 -1 0
vn -1 0 0
vn 1.5522048E-07 1 0
vn 1 0 0
vn -1.7074252E-07 -1 0
vn -0.99999994 0 0
vn 1.8626434E-07 1 0
vn 1 0 0
vn -1.3969826E-07 -1 0
vn -1 0 0
vn -0 0 -1
vn -0 0 -1
vn -0 0 -1
vn -0 0 -1
vn -0 0 1
vn -0 0 1
vn -0 0 1
vn -0 0 1
vn -0 0 -1
vn -0 0 1
g Wire_0
f 1/1/1 5/5/5 2/2/2
f 6/6/6 2/2/2 5/5/5
f 6/6/6 7/7/7 2/2/2
f 3/3/3 2/2/2 7/7/7
f 3/3/3 7/7/7 4/4/4
f 8/8/8 4/4/4 7/7/7
f 8/8/8 5/5/5 4/4/4
f 1/1/1 4/4/4 5/5/5
f 5/5/5 9/9/9 6/6/6
f 10/10/10 6/6/6 9/9/9
f 10/10/10 11/11/11 6/6/6
f 7/7/7 6/6/6 11/11/11
f 7/7/7 11/11/11 8/8/8
f 12/12/12 8/8/8 11/11/11
f 12/12/12 9/9/9 8/8/8
f 5/5/5 8/8/8 9/9/9
f 9/9/9 13/13/13 10/10/10
f 14/14/14 10/10/10 13/13/13
f 14/14/14 15/15/15 10/10/10
f 11/11/11 10/10/10 15/15/15
f 11/11/11 15/15/15 12/12/12
f 16/16/16 12/12/12 15/15/15
f 16/16/16 13/13/13 12/12/12
f 9/9/9 12/12/12 13/13/13
f 13/13/13 17/17/17 14/14/14
f 18/18/18 14/14/14 17/17/17
f 18/18/18 19/19/19 14/14/14
f 15/15/15 14/14/14 19/19/19
f 15/15/15 19/19/19 16/16/16
f 20/20/20 16/16/16 19/19/19
f 20/20/20 17/17/17 16/16/16
f 13/13/13 16/16/16 17/17/17
f 17/17/17 21/21/21 18/18/18
f 22/22/22 18/18/18 21/21/21
f 22/22/22 23/23/23 18/18/18
f 19/19/19 18/18/18 23/23/23
f 19/19/19 23/23/23 20/20/20
f 24/24/24 20/20/20 23/23/23
f 24/24/24 21/21/21 20/20/20
f 17/17/17 20/20/20 21/21/21
f 21/21/21 25/25/25 22/22/22
f 26/26/26 22/22/22 25/25/25
f 26/26/26 27/27/27 22/22/22
f 23/23/23 22/22/22 27/27/27
f 23/23/23 27/27/27 24/24/24
f 28/28/28 24/24/24 27/27/27
f 28/28/28 25/25/25 24/24/24
f 21/21/21 24/24/24 25/25/25
f 25/25/25 29/29/29 26/26/26
f 30/30/30 26/26/26 29/29/29
f 30/30/30 31/31/31 26/26/26
f 27/27/27 26/26/26 31/31/31
f 27/27/27 31/31/31 28/28/28
f 32/32/32 28/28/28 31/31/31
f 32/32/32 29/29/29 28/28/28
f 25/25/25 28/28/28 29/29/29
f 29/29/29 33/33/33 30/30/30
f 34/34/34 30/30/30 33/33/33
f 34/34/34 35/35/35 30/30/30
f 31/31/31 30/30/30 35/35/35
f 31/31/31 35/35/35 32/32/32
f 36/36/36 32/32/32 35/35/35
f 36/36/36 33/33/33 32/32/32
f 29/29/29 32/32/32 33/33/33
f 33/33/33 37/37/37 34/34/34
f 38/38/38 34/34/34 37/37/37
f 38/38/38 39/39/39 34/34/34
f 35/35/35 34/34/34 39/39/39
f 35/35/35 39/39/39 36/36/36
f 40/40/40 36/36/36 39/39/39
f 40/40/40 37/37/37 36/36/36
f 33/33/33 36/36/36 37/37/37
f 37/37/37 41/41/41 38/38/38
f 42/42/42 38/38/38 41/41/41
f 42/42/42 43/43/43 38/38/38
f 39/39/39 38/38/38 43/43/43
f 39/39/39 43/43/43 40/40/40
f 44/44/44 40/40/40 43/43/43
f 44/44/44 41/41/41 40/40/40
f 37/37/37 40/40/40 41/41/41
f 41/41/41 45/45/45 42/42/42
f 46/46/46 42/42/42 45/45/45
f 46/46/46 47/47/47 42/42/42
f 43/43/43 42/42/42 47/47/47
f 43/43/43 47/47/47 44/44/44
f 48/48/48 44/44/44 47/47/47
f 48/48/48 45/45/45 44/44/44
f 41/41/41 44/44/44 45/45/45
f 45/45/45 49/49/49 46/46/46
f 50/50/50 46/46/46 49/49/49
f 50/50/50 51/51/51 46/46/46
f 47/47/47 46/46/46 51/51/51
f 47/47/47 51/51/51 48/48/48
f 52/52/52 48/48/48 51/51/51
f 52/52/52 49/49/49 48/48/48
f 45/45/45 48/48/48 49/49/49
f 49/49/49 53/53/53 50/50/50
f 54/54/54 50/50/50 53/53/53
f 54/54/54 55/55/55 50/50/50
f 51/51/51 50/50/50 55/55/55
f 51/51/51 55/55/55 52/52/52
f 56/56/56 52/52/52 55/55/55
f 56/56/56 53/53/53 52/52/52
f 49/49/49 52/52/52 53/53/53
f 53/53/53 57/57/57 54/54/54
f 58/58/58 54/54/54 57/57/57
f 58/58/58 59/59/59 54/54/54
f 55/55/55 54/54/54 59/59/59
f 55/55/55 59/59/59 56/56/56
f 60/60/60 56/56/56 59/59/59
f 60/60/60 57/57/57 56/56/56
f 53/53/53 56/56/56 57/57/57
f 57/57/57 61/61/61 58/58/58
f 62/62/62 58/58/58 61/61/61
f 62/62/62 63/63/63 58/58/58
f 59/59/59 58/58/58 63/63/63
f 59/59/59 63/63/63 60/60/60
f 64/64/64 60/60/60 63/63/63
f 64/64/64 61/61/61 60/60/60
f 57/57/57 60/60/60 61/61/61
f 61/61/61 65/65/65 62/62/62
f 66/66/66 62/62/62 65/65/65
f 66/66/66 67/67/67 62/62/62
f 63/63/63 62/62/62 67/67/67
f 63/63/63 67/67/67 64/64/64
f 68/68/68 64/64/64 67/67/67
f 68/68/68 65/65/65 64/64/64
f 61/61/61 64/64/64 65/65/65
f 65/65/65 69/69/69 66/66/66
f 70/70/70 66/66/66 69/69/69
f 70/70/70 71/71/71 66/66/66
f 67/67/67 66/66/66 71/71/71
f 67/67/67 71/71/71 68/68/68
f 72/72/72 68/68/68 71/71/71
f 72/72/72 69/69/69 68/68/68
f 65/65/65 68/68/68 69/69/69
f 69/69/69 73/73/73 70/70/70
f 74/74/74 70/70/70 73/73/73
f 74/74/74 75/75/75 70/70/70
f 71/71/71 70/70/70 75/75/75
f 71/71/71 75/75/75 72/72/72
f 76/76/76 72/72/72 75/75/75
f 76/76/76 73/73/73 72/72/72
f 69/69/69 72/72/72 73/73/73
f 73/73/73 77/77/77 74/74/74
f 78/78/78 74/74/74 77/77/77
f 78/78/78 79/79/79 74/74/74
f 75/75/75 74/74/74 79/79/79
f 75/75/75 79/79/79 76/76/76
f 80/80/80 76/76/76 79/79/79
f 80/80/80 77/77/77 76/76/76
f 73/73/73 76/76/76 77/77/77
f 77/77/77 81/81/81 78/78/78
f 82/82/82 78/78/78 81/81/81
f 82/82/82 83/83/83 78/78/78
f 79/79/79 78/78/78 83/83/83
f 79/79/79 83/83/83 80/80/80
f 84/84/84 80/80/80 83/83/83
f 84/84/84 81/81/81 80/80/80
f 77/77/77 80/80/80 81/81/81
f 81/81/81 85/85/85 82/82/82
f 86/86/86 82/82/82 85/85/85
f 86/86/86 87/87/87 82/82/82
f 83/83/83 82/82/82 87/87/87
f 83/83/83 87/87/87 84/84/84
f 88/88/88 84/84/84 87/87/87
f 88/88/88 85/85/85 84/84/84
f 81/81/81 84/84/84 85/85/85
f 85/85/85 89/89/89 86/86/86
f 90/90/90 86/86/86 89/89/89
f 90/90/90 91/91/91 86/86/86
f 87/87/87 86/86/86 91/91/91
f 87/87/87 91/91/91 88/88/88
f 92/92/92 88/88/88 91/91/91
f 92/92/92 89/89/89 88/88/88
f 85/85/85 88/88/88 89/89/89
f 89/89/89 93/93/93 90/90/90
f 94/94/94 90/90/90 93/93/93
f 94/94/94 95/95/95 90/90/90
f 91/91/91 90/90/90 95/95/95
f 91/91/91 95/95/95 92/92/92
f 96/96/96 92/92/92 95/95/95
f 96/96/96 93/93/93 92/92/92
f 89/89/89 92/92/92 93/93/93
f 93/93/93 97/97/97 94/94/94
f 98/98/98 94/94/94 97/97/97
f 98/98/98 99/99/99 94/94/94
f 95/95/95 94/94/94 99/99/99
f 95/95/95 99/99/99 96/96/96
f 100/100/100 96/96/96 99/99/99
f 100/100/100 97/97/97 96/96/96
f 93/93/93 96/96/96 97/97/97
f 97/97/97 101/101/101 98/98/98
f 102/102/102 98/98/98 101/101/101
f 102/102/102 103/103/103 98/98/98
f 99/99/99 98/98/98 103/103/103
f 99/99/99 103/103/103 100/100/100
f 104/104/104 100/100/100 103/103/103
f 104/104/104 101/101/101 100/100/100
f 97/97/97 100/100/100 101/101/101
f 101/101/101 105/105/105 102/102/102
f 106/106/106 102/102/102 105/105/105
f 106/106/106 107/107/107 102/102/102
f 103/103/103 102/102/102 107/107/107
f 103/103/103 107/107/107 104/104/104
f 108/108/108 104/104/104 107/107/107
f 108/108/108 105/105/105 104/104/104
f 101/101/101 104/104/104 105/105/105
f 105/105/105 109/109/109 106/106/106
f 110/110/110 106/106/106 109/109/109
f 110/110/110 111/111/111 106/106/106
f 107/107/107 106/106/106 111/111/111
f 107/107/107 111/111/111 108/108/108
f 112/112/112 108/108/108 111/111/111
f 112/112/112 109/109/109 108/108/108
f 105/105/105 108/108/108 109/109/109
f 109/109/109 113/113/113 110/110/110
f 114/114/114 110/110/110 113/113/113
f 114/114/114 115/115/115 110/110/110
f 111/111/111 110/110/110 115/115/115
f 111/111/111 115/115/115 112/112/112
f 116/116/116 112/112/112 115/115/115
f 116/116/116 113/113/113 112/112/112
f 109/109/109 112/112/112 113/113/113
f 113/113/113 117/117/117 114/114/114
f 118/118/118 114/114/114 117/117/117
f 118/118/118 119/119/119 114/114/114
f 115/115/115 114/114/114 119/119/119
f 115/115/115 119/119/119 116/116/116
f 120/120/120 116/116/116 119/119/119
f 120/120/120 117/117/117 116/116/116
f 113/113/113 116/116/116 117/117/117
f 117/117/117 121/121/121 118/118/118
f 122/122/122 118/118/118 121/121/121
f 122/122/122 123/123/123 118/118/118
f 119/119/119 118/118/118 123/123/123
f 119/119/119 123/123/123 120/120/120
f 124/124/124 120/120/120 123/123/123
f 124/124/124 121/121/121 120/120/120
f 117/117/117 120/120/120 121/121/121
f 125/125/125 126/126/126 133/133/133
f 126/126/126 127/127/127 133/133/133
f 127/127/127 128/128/128 133/133/133
f 128/128/128 125/125/125 133/133/133
f 130/130/130 129/129/129 134/134/134
f 131/131/131 130/130/130 134/134/134
f 132/132/132 131/131/131 134/134/134
f 129/129/129 132/132/132 134/134/134
