g Wire Deformed
v 0.71000034 0.075 2.2099998
v 0.76303333 0.05303301 2.2099998
v 0.7850003 -6.5567085E-09 2.2099996
v 0.76303333 -0.05303302 2.2099998
v 0.71000034 -0.075 2.2099998
v 0.6569673 -0.05303299 2.2099998
v 0.63500035 1.3113417E-08 2.21
v 0.65696734 0.053033035 2.2099998
v 0.7013522 0.075 2.3871202
v 0.7542944 0.05303301 2.3902218
v 0.7762238 -6.5567085E-09 2.3915064
v 0.7542944 -0.05303302 2.3902218
v 0.7013522 -0.075 2.3871202
v 0.6484099 -0.05303299 2.3840187
v 0.6264806 1.3113417E-08 2.382734
v 0.64840996 0.053033035 2.3840187
v 0.68737626 0.075 2.6781604
v 0.7403813 0.05303301 2.6798832
v 0.7623367 -6.5567085E-09 2.6805968
v 0.7403813 -0.05303302 2.6798832
v 0.68737626 -0.075 2.6781604
v 0.6343712 -0.05303299 2.6764376
v 0.61241585 1.3113417E-08 2.675724
v 0.6343713 0.053033035 2.6764376
v 0.68602395 0.075 3.0226402
v 0.7390312 0.05303301 3.0209877
v 0.7609875 -6.5567085E-09 3.0203032
v 0.7390312 -0.05303302 3.0209877
v 0.68602395 -0.075 3.0226402
v 0.63301665 -0.05303299 3.0242927
v 0.6110604 1.3113417E-08 3.0249772
v 0.6330167 0.053033035 3.0242927
v 0.71524787 0.075 3.3600807
v 0.76760715 0.05303301 3.351654
v 0.7892951 -6.5567085E-09 3.3481636
v 0.76760715 -0.05303302 3.351654
v 0.71524787 -0.075 3.3600807
v 0.6628886 -0.05303299 3.3685074
v 0.64120066 1.3113417E-08 3.3719978
v 0.66288865 0.053033035 3.3685074
v 0.793 0.075 3.63
v 0.84043413 0.05303301 3.606283
v 0.86008203 -6.5567085E-09 3.5964592
v 0.84043413 -0.05303302 3.606283
v 0.793 -0.075 3.63
v 0.7455658 -0.05303299 3.6537173
v 0.72591794 1.3113417E-08 3.663541
v 0.74556583 0.053033035 3.6537173
v 0.71000034 0.075 2.2099998
v 0.76303333 0.05303301 2.2099998
v 0.7850003 -6.5567085E-09 2.2099996
v 0.76303333 -0.05303302 2.2099998
v 0.71000034 -0.075 2.2099998
v 0.6569673 -0.05303299 2.2099998
v 0.63500035 1.3113417E-08 2.21
v 0.65696734 0.053033035 2.2099998
v 0.793 0.075 3.63
v 0.84043413 0.05303301 3.606283
v 0.86008203 -6.5567085E-09 3.5964592
v 0.84043413 -0.05303302 3.606283
v 0.793 -0.075 3.63
v 0.7455658 -0.05303299 3.6537173
v 0.72591794 1.3113417E-08 3.663541
v 0.74556583 0.053033035 3.6537173
v 0.71000034 0 2.2099998
v 0.793 0 3.63
vt 0.49999997 1
vt 0.14644662 0.85355335
vt 0 0.49999997
vt 0.14644668 0.14644654
vt 0.5 0
vt 0.85355353 0.14644675
vt 1 0.50000006
vt 0.85355324 0.85355353
vt 0.49999997 1
vt 0.14644662 0.85355335
vt 0 0.49999997
vt 0.14644668 0.14644654
vt 0.5 0
vt 0.85355353 0.14644675
vt 1 0.50000006
vt 0.85355324 0.85355353
vt 0.49999997 1
vt 0.14644662 0.85355335
vt 0 0.49999997
vt 0.14644668 0.14644654
vt 0.5 0
vt 0.85355353 0.14644675
vt 1 0.50000006
vt 0.85355324 0.85355353
vt 0.49999997 1
vt 0.14644662 0.85355335
vt 0 0.49999997
vt 0.14644668 0.14644654
vt 0.5 0
vt 0.85355353 0.14644675
vt 1 0.50000006
vt 0.85355324 0.85355353
vt 0.49999997 1
vt 0.14644662 0.85355335
vt 0 0.49999997
vt 0.14644668 0.14644654
vt 0.5 0
vt 0.85355353 0.14644675
vt 1 0.50000006
vt 0.85355324 0.85355353
vt 0.49999997 1
vt 0.14644662 0.85355335
vt 0 0.49999997
vt 0.14644668 0.14644654
vt 0.5 0
vt 0.85355353 0.14644675
vt 1 0.50000006
vt 0.85355324 0.85355353
vt 0.49999997 1
vt 0.14644662 0.85355335
vt 0 0.49999997
vt 0.14644668 0.14644654
vt 0.5 0
vt 0.85355353 0.14644675
vt 1 0.50000006
vt 0.85355324 0.85355353
vt 0.49999997 1
vt 0.14644662 0.85355335
vt 0 0.49999997
vt 0.14644668 0.14644654
vt 0.5 0
vt 0.85355353 0.14644675
vt 1 0.50000006
vt 0.85355324 0.85355353
vt 0.5 0.5
vt 0.5 0.5
vn -0.003301886 0.9999946 -0.00010797986
vn 0.7075449 0.70596087 0.0316141
vn 0.999005 5.2465245E-09 0.044597343
vn 0.7075448 -0.70596087 0.03161407
vn -0.003297905 -0.99999446 -0.00010785747
vn -0.7057327 -0.70777357 -0.03158846
vn -0.99899715 5.560921E-07 -0.044774055
vn -0.7057311 0.707775 -0.031592406
vn 0.001989578 0.99999803 5.8233698E-05
vn 0.7059415 0.7074543 0.03398463
vn 0.99883795 1.3475921E-08 0.048194785
vn 0.7059415 -0.70745444 0.033984635
vn 0.0019890605 -0.9999981 5.8211157E-05
vn -0.7066877 -0.7067026 -0.03411625
vn -0.99881727 5.6206727E-07 -0.048621174
vn -0.7066875 0.7067027 -0.034116246
vn -0.0006157977 0.9999998 -2.804983E-05
vn 0.7063531 0.70775664 0.012074487
vn 0.9994968 -4.7776663E-09 0.031721298
vn 0.70635295 -0.70775676 0.012074487
vn -0.0006163278 -0.9999998 -2.8066666E-05
vn -0.7077809 -0.7063301 -0.011996181
vn -0.99950373 5.5868963E-07 -0.031502575
vn -0.70778066 0.70633024 -0.011996174
vn -0.001361355 0.9999991 -9.0805315E-07
vn 0.70485866 0.7082618 -0.039236758
vn 0.9996779 8.702304E-09 -0.025379974
vn 0.7048586 -0.7082618 -0.039236754
vn -0.0013618843 -0.999999 -8.9522547E-07
vn -0.70758593 -0.70550174 0.039868794
vn -0.9996551 5.674449E-07 0.026261872
vn -0.70758575 0.7055019 0.039868787
vn -0.002938459 0.9999956 0.00028106835
vn 0.6900368 0.7094792 -0.14313799
vn 0.9902342 1.9176511E-08 -0.13941394
vn 0.69003665 -0.7094793 -0.14313798
vn -0.002938968 -0.99999565 0.00028114408
vn -0.6964092 -0.70208144 0.14864679
vn -0.9893296 5.5244516E-07 0.14569424
vn -0.69640917 0.70208156 0.14864674
vn -0.0057060667 0.99998194 0.0018379028
vn 0.63937736 0.70988417 -0.29539979
vn 0.9074234 -9.882947E-09 -0.42021775
vn 0.63937736 -0.7098843 -0.29539976
vn -0.00570656 -0.99998206 0.0018381277
vn -0.6434472 -0.70453924 0.29933298
vn -0.90672845 4.6149066E-07 0.42171517
vn -0.643447 0.7045393 0.29933327
vn -0 0 -1
vn -1.5894574E-06 1.5894569E-06 -1
vn -3.1789148E-06 0 -1
vn -1.589458E-06 -1.5894572E-06 -1
vn -0 0 -1
vn -1.5894562E-06 1.5894582E-06 -1
vn -3.1789145E-06 1.7864163E-12 -1
vn -1.589458E-06 -1.5894567E-06 -1
vn 0.44721496 0 0.8944265
vn 0.44721398 1.097574E-06 0.89442706
vn 0.44721293 0 0.89442754
vn 0.447214 -1.097574E-06 0.89442706
vn 0.44721475 0 0.8944267
vn 0.44721374 8.487902E-07 0.8944271
vn 0.44721293 -2.4878352E-07 0.89442754
vn 0.44721395 -1.0975739E-06 0.89442706
vn -1.5894576E-06 4.4660413E-13 -1
vn 0.4472139 -6.219585E-08 0.8944271
g Wire Deformed_0
f 1/1/1 9/9/9 2/2/2
f 10/10/10 2/2/2 9/9/9
f 10/10/10 11/11/11 2/2/2
f 3/3/3 2/2/2 11/11/11
f 3/3/3 11/11/11 4/4/4
f 12/12/12 4/4/4 11/11/11
f 12/12/12 13/13/13 4/4/4
f 5/5/5 4/4/4 13/13/13
f 5/5/5 13/13/13 6/6/6
f 14/14/14 6/6/6 13/13/13
f 14/14/14 15/15/15 6/6/6
f 7/7/7 6/6/6 15/15/15
f 7/7/7 15/15/15 8/8/8
f 16/16/16 8/8/8 15/15/15
f 16/16/16 9/9/9 8/8/8
f 1/1/1 8/8/8 9/9/9
f 9/9/9 17/17/17 10/10/10
f 18/18/18 10/10/10 17/17/17
f 18/18/18 19/19/19 10/10/10
f 11/11/11 10/10/10 19/19/19
f 11/11/11 19/19/19 12/12/12
f 20/20/20 12/12/12 19/19/19
f 20/20/20 21/21/21 12/12/12
f 13/13/13 12/12/12 21/21/21
f 13/13/13 21/21/21 14/14/14
f 22/22/22 14/14/14 21/21/21
f 22/22/22 23/23/23 14/14/14
f 15/15/15 14/14/14 23/23/23
f 15/15/15 23/23/23 16/16/16
f 24/24/24 16/16/16 23/23/23
f 24/24/24 17/17/17 16/16/16
f 9/9/9 16/16/16 17/17/17
f 17/17/17 25/25/25 18/18/18
f 26/26/26 18/18/18 25/25/25
f 26/26/26 27/27/27 18/18/18
f 19/19/19 18/18/18 27/27/27
f 19/19/19 27/27/27 20/20/20
f 28/28/28 20/20/20 27/27/27
f 28/28/28 29/29/29 20/20/20
f 21/21/21 20/20/20 29/29/29
f 21/21/21 29/29/29 22/22/22
f 30/30/30 22/22/22 29/29/29
f 30/30/30 31/31/31 22/22/22
f 23/23/23 22/22/22 31/31/31
f 23/23/23 31/31/31 24/24/24
f 32/32/32 24/24/24 31/31/31
f 32/32/32 25/25/25 24/24/24
f 17/17/17 24/24/24 25/25/25
f 25/25/25 33/33/33 26/26/26
f 34/34/34 26/26/26 33/33/33
f 34/34/34 35/35/35 26/26/26
f 27/27/27 26/26/26 35/35/35
f 27/27/27 35/35/35 28/28/28
f 36/36/36 28/28/28 35/35/35
f 36/36/36 37/37/37 28/28/28
f 29/29/29 28/28/28 37/37/37
f 29/29/29 37/37/37 30/30/30
f 38/38/38 30/30/30 37/37/37
f 38/38/38 39/39/39 30/30/30
f 31/31/31 30/30/30 39/39/39
f 31/31/31 39/39/39 32/32/32
f 40/40/40 32/32/32 39/39/39
f 40/40/40 33/33/33 32/32/32
f 25/25/25 32/32/32 33/33/33
f 33/33/33 41/41/41 34/34/34
f 42/42/42 34/34/34 41/41/41
f 42/42/42 43/43/43 34/34/34
f 35/35/35 34/34/34 43/43/43
f 35/35/35 43/43/43 36/36/36
f 44/44/44 36/36/36 43/43/43
f 44/44/44 45/45/45 36/36/36
f 37/37/37 36/36/36 45/45/45
f 37/37/37 45/45/45 38/38/38
f 46/46/46 38/38/38 45/45/45
f 46/46/46 47/47/47 38/38/38
f 39/39/39 38/38/38 47/47/47
f 39/39/39 47/47/47 40/40/40
f 48/48/48 40/40/40 47/47/47
f 48/48/48 41/41/41 40/40/40
f 33/33/33 40/40/40 41/41/41
f 49/49/49 50/50/50 65/65/65
f 50/50/50 51/51/51 65/65/65
f 51/51/51 52/52/52 65/65/65
f 52/52/52 53/53/53 65/65/65
f 53/53/53 54/54/54 65/65/65
f 54/54/54 55/55/55 65/65/65
f 55/55/55 56/56/56 65/65/65
f 56/56/56 49/49/49 65/65/65
f 58/58/58 57/57/57 66/66/66
f 59/59/59 58/58/58 66/66/66
f 60/60/60 59/59/59 66/66/66
f 61/61/61 60/60/60 66/66/66
f 62/62/62 61/61/61 66/66/66
f 63/63/63 62/62/62 66/66/66
f 64/64/64 63/63/63 66/66/66
f 57/57/57 64/64/64 66/66/66
