g Wire Deformed
v 6.1104712 1.4486715 5.3404675
v 6.0833735 1.4437884 5.2990327
v 6.0932574 1.4319999 5.251722
v 6.134332 1.4202114 5.2262497
v 6.1825366 1.4153284 5.2375364
v 6.2096343 1.4202114 5.278971
v 6.1997504 1.4319999 5.326282
v 6.1586757 1.4437884 5.3517547
v 6.159258 1.6794306 5.3087926
v 6.111194 1.6761466 5.296381
v 6.08625 1.6682186 5.254074
v 6.0990367 1.6602906 5.2066545
v 6.142064 1.6570066 5.1819005
v 6.190128 1.6602906 5.194312
v 6.215072 1.6682186 5.236619
v 6.2022853 1.6761466 5.2840385
v 6.154327 2.0597324 5.243317
v 6.104885 2.0565891 5.2387805
v 6.0734396 2.0490003 5.200985
v 6.07841 2.0414114 5.15207
v 6.1168857 2.038268 5.12069
v 6.1663275 2.0414114 5.1252265
v 6.197773 2.0490003 5.163022
v 6.1928024 2.0565891 5.211937
v 6.136965 2.4545085 5.1821322
v 6.087344 2.4516594 5.1799793
v 6.054046 2.4447815 5.143663
v 6.056576 2.4379036 5.094457
v 6.0934515 2.4350545 5.0611854
v 6.143072 2.4379036 5.0633383
v 6.17637 2.4447815 5.0996547
v 6.1738405 2.4516597 5.1488605
v 6.1166754 2.7312205 5.1504006
v 6.06779 2.7296917 5.1413
v 6.0397215 2.7260005 5.100392
v 6.0489125 2.7223094 5.051639
v 6.089979 2.7207806 5.0236
v 6.1388645 2.7223094 5.0327005
v 6.166933 2.7260005 5.073609
v 6.157742 2.7296917 5.1223617
v 6.1104712 1.4486715 5.3404675
v 6.0833735 1.4437884 5.2990327
v 6.0932574 1.4319999 5.251722
v 6.134332 1.4202114 5.2262497
v 6.1825366 1.4153284 5.2375364
v 6.2096343 1.4202114 5.278971
v 6.1997504 1.4319999 5.326282
v 6.1586757 1.4437884 5.3517547
v 6.1166754 2.7312205 5.1504006
v 6.06779 2.7296917 5.1413
v 6.0397215 2.7260005 5.100392
v 6.0489125 2.7223094 5.051639
v 6.089979 2.7207806 5.0236
v 6.1388645 2.7223094 5.0327005
v 6.166933 2.7260005 5.073609
v 6.157742 2.7296917 5.1223617
v 6.146504 1.4319999 5.289002
v 6.1033273 2.7260005 5.0870004
vt 0.49999997 1
vt 0.14644662 0.8535534
vt 0 0.49999997
vt 0.14644668 0.14644656
vt 0.5 0
vt 0.8535535 0.14644672
vt 1 0.50000006
vt 0.85355324 0.85355353
vt 0.49999997 1
vt 0.14644662 0.8535534
vt 0 0.49999997
vt 0.14644668 0.14644656
vt 0.5 0
vt 0.8535535 0.14644672
vt 1 0.50000006
vt 0.85355324 0.85355353
vt 0.49999997 1
vt 0.14644662 0.8535534
vt 0 0.49999997
vt 0.14644668 0.14644656
vt 0.5 0
vt 0.8535535 0.14644672
vt 1 0.50000006
vt 0.85355324 0.85355353
vt 0.49999997 1
vt 0.14644662 0.8535534
vt 0 0.49999997
vt 0.14644668 0.14644656
vt 0.5 0
vt 0.8535535 0.14644672
vt 1 0.50000006
vt 0.85355324 0.85355353
vt 0.49999997 1
vt 0.14644662 0.8535534
vt 0 0.49999997
vt 0.14644668 0.14644656
vt 0.5 0
vt 0.8535535 0.14644672
vt 1 0.50000006
vt 0.85355324 0.85355353
vt 0.49999997 1
vt 0.14644662 0.8535534
vt 0 0.49999997
vt 0.14644668 0.14644656
vt 0.5 0
vt 0.8535535 0.14644672
vt 1 0.50000006
vt 0.85355324 0.85355353
vt 0.49999997 1
vt 0.14644662 0.8535534
vt 0 0.49999997
vt 0.14644668 0.14644656
vt 0.5 0
vt 0.8535535 0.14644672
vt 1 0.50000006
vt 0.85355324 0.85355353
vt 0.5 0.5
vt 0.5 0.5
vn -0.7212574 0.24949045 0.64617497
vn -0.9310752 0.09996832 0.3508638
vn -0.6557921 0.014866718 -0.754795
vn -0.36059594 -0.17361352 -0.9164218
vn 0.7422031 -0.18176796 -0.6450542
vn 0.9121736 -0.25859898 -0.3179088
vn 0.6702244 0.054973226 0.74011964
vn 0.34492844 0.017973892 0.93845695
vn -0.0588865 0.178232 0.98222494
vn -0.5564869 0.108997405 0.8236759
vn -0.9981024 -0.021380922 -0.057743203
vn -0.82878166 -0.13169806 -0.54385346
vn 0.06943395 -0.1771298 -0.9817352
vn 0.55883473 -0.1426915 -0.81691056
vn 0.99794745 0.021025743 0.060488567
vn 0.83016187 0.099321626 0.54860425
vn 0.23790044 0.16538501 0.95710564
vn -0.45812917 0.115830354 0.8813064
vn -0.9704408 -0.0035009787 0.24131417
vn -0.88750297 -0.113198824 -0.44668165
vn -0.23709626 -0.16525155 -0.9573282
vn 0.45805752 -0.11723514 -0.8811579
vn 0.97040135 0.0035683678 -0.2414714
vn 0.8877961 0.11176873 0.44645917
vn 0.31779867 0.15185015 0.9359197
vn -0.4651847 0.09798086 0.87977433
vn -0.947023 0.00043206866 0.3211656
vn -0.88402 -0.10203983 -0.456176
vn -0.31773373 -0.15046221 -0.9361658
vn 0.46322113 -0.09820135 -0.8807853
vn 0.9468113 0.0006047257 -0.3217886
vn 0.8848756 0.10201972 0.4545186
vn 0.2367821 0.14887738 0.96008843
vn -0.41910365 0.07959733 0.90444255
vn -0.97110337 -0.0023613467 0.2386477
vn -0.90462005 -0.10357231 -0.41344336
vn -0.23864496 -0.096652865 -0.9662851
vn 0.42371252 -0.081197366 -0.90215003
vn 0.9680582 0.054480016 -0.24473536
vn 0.90466315 0.101256795 0.41392252
vn -0.14710438 -0.9665481 0.2101073
vn -0.14710224 -0.9665487 0.21010672
vn -0.14710349 -0.96654856 0.21010539
vn -0.14710477 -0.9665482 0.21010663
vn -0.14710349 -0.9665481 0.21010791
vn -0.14710224 -0.9665487 0.21010672
vn -0.1471029 -0.9665489 0.21010454
vn -0.14710508 -0.9665486 0.21010517
vn -0.016545068 0.9967702 -0.07858377
vn -0.016543683 0.99677 -0.078585714
vn -0.016545642 0.99676985 -0.078587085
vn -0.016547026 0.99677 -0.07858514
vn -0.016545068 0.9967702 -0.07858377
vn -0.016543683 0.99677 -0.078585714
vn -0.016545642 0.99676985 -0.078587085
vn -0.016547026 0.99677 -0.07858514
vn -0.14710356 -0.96654844 0.21010627
vn -0.016545355 0.9967701 -0.07858542
g Wire Deformed_0
f 1/1/1 9/9/9 2/2/2
f 10/10/10 2/2/2 9/9/9
f 10/10/10 11/11/11 2/2/2
f 3/3/3 2/2/2 11/11/11
f 3/3/3 11/11/11 4/4/4
f 12/12/12 4/4/4 11/11/11
f 12/12/12 13/13/13 4/4/4
f 5/5/5 4/4/4 13/13/13
f 5/5/5 13/13/13 6/6/6
f 14/14/14 6/6/6 13/13/13
f 14/14/14 15/15/15 6/6/6
f 7/7/7 6/6/6 15/15/15
f 7/7/7 15/15/15 8/8/8
f 16/16/16 8/8/8 15/15/15
f 16/16/16 9/9/9 8/8/8
f 1/1/1 8/8/8 9/9/9
f 9/9/9 17/17/17 10/10/10
f 18/18/18 10/10/10 17/17/17
f 18/18/18 19/19/19 10/10/10
f 11/11/11 10/10/10 19/19/19
f 11/11/11 19/19/19 12/12/12
f 20/20/20 12/12/12 19/19/19
f 20/20/20 21/21/21 12/12/12
f 13/13/13 12/12/12 21/21/21
f 13/13/13 21/21/21 14/14/14
f 22/22/22 14/14/14 21/21/21
f 22/22/22 23/23/23 14/14/14
f 15/15/15 14/14/14 23/23/23
f 15/15/15 23/23/23 16/16/16
f 24/24/24 16/16/16 23/23/23
f 24/24/24 17/17/17 16/16/16
f 9/9/9 16/16/16 17/17/17
f 17/17/17 25/25/25 18/18/18
f 26/26/26 18/18/18 25/25/25
f 26/26/26 27/27/27 18/18/18
f 19/19/19 18/18/18 27/27/27
f 19/19/19 27/27/27 20/20/20
f 28/28/28 20/20/20 27/27/27
f 28/28/28 29/29/29 20/20/20
f 21/21/21 20/20/20 29/29/29
f 21/21/21 29/29/29 22/22/22
f 30/30/30 22/22/22 29/29/29
f 30/30/30 31/31/31 22/22/22
f 23/23/23 22/22/22 31/31/31
f 23/23/23 31/31/31 24/24/24
f 32/32/32 24/24/24 31/31/31
f 32/32/32 25/25/25 24/24/24
f 17/17/17 24/24/24 25/25/25
f 25/25/25 33/33/33 26/26/26
f 34/34/34 26/26/26 33/33/33
f 34/34/34 35/35/35 26/26/26
f 27/27/27 26/26/26 35/35/35
f 27/27/27 35/35/35 28/28/28
f 36/36/36 28/28/28 35/35/35
f 36/36/36 37/37/37 28/28/28
f 29/29/29 28/28/28 37/37/37
f 29/29/29 37/37/37 30/30/30
f 38/38/38 30/30/30 37/37/37
f 38/38/38 39/39/39 30/30/30
f 31/31/31 30/30/30 39/39/39
f 31/31/31 39/39/39 32/32/32
f 40/40/40 32/32/32 39/39/39
f 40/40/40 33/33/33 32/32/32
f 25/25/25 32/32/32 33/33/33
f 41/41/41 42/42/42 57/57/57
f 42/42/42 43/43/43 57/57/57
f 43/43/43 44/44/44 57/57/57
f 44/44/44 45/45/45 57/57/57
f 45/45/45 46/46/46 57/57/57
f 46/46/46 47/47/47 57/57/57
f 47/47/47 48/48/48 57/57/57
f 48/48/48 41/41/41 57/57/57
f 50/50/50 49/49/49 58/58/58
f 51/51/51 50/50/50 58/58/58
f 52/52/52 51/51/51 58/58/58
f 53/53/53 52/52/52 58/58/58
f 54/54/54 53/53/53 58/58/58
f 55/55/55 54/54/54 58/58/58
f 56/56/56 55/55/55 58/58/58
f 49/49/49 56/56/56 58/58/58
