g Wire Deformed
v 0.2699964 0.06 2.7200003
v 0.3124228 0.042426404 2.7200003
v 0.3299964 -5.2453664E-09 2.7200003
v 0.3124228 -0.04242641 2.7200003
v 0.2699964 -0.06 2.7200003
v 0.22756998 -0.042426392 2.7200003
v 0.2099964 1.0490733E-08 2.7200003
v 0.22757003 0.042426426 2.7200003
v 0.1970365 0.06 3.0699196
v 0.23647131 0.042426404 3.0855687
v 0.25280577 -5.2453664E-09 3.0920508
v 0.23647131 -0.04242641 3.0855687
v 0.1970365 -0.06 3.0699196
v 0.15760168 -0.042426392 3.0542705
v 0.14126725 1.0490733E-08 3.0477884
v 0.15760171 0.042426426 3.0542705
v 0.007919075 0.06 3.41216
v 0.042702064 0.042426404 3.4364529
v 0.057109654 -5.2453664E-09 3.4465153
v 0.042702064 -0.04242641 3.4364529
v 0.007919072 -0.06 3.41216
v -0.02686393 -0.042426392 3.387867
v -0.041271508 1.0490733E-08 3.3778045
v -0.026863905 0.042426426 3.387867
v -0.25272393 0.06 3.7294397
v -0.22183268 0.042426404 3.758521
v -0.2090371 -5.2453664E-09 3.7705672
v -0.22183268 -0.04242641 3.758521
v -0.25272393 -0.06 3.7294397
v -0.2836152 -0.042426392 3.7003584
v -0.29641077 1.0490733E-08 3.6883123
v -0.28361517 0.042426426 3.7003584
v -0.5402379 0.06 4.0044804
v -0.5124372 0.042426404 4.036529
v -0.5009218 -5.2453664E-09 4.049804
v -0.5124372 -0.04242641 4.036529
v -0.5402379 -0.06 4.0044804
v -0.56803864 -0.042426392 3.9724317
v -0.579554 1.0490733E-08 3.9591565
v -0.5680386 0.042426426 3.9724317
v -0.80999804 0.06 4.2199993
v -0.78494483 0.042426404 4.2542386
v -0.7745675 -5.2453664E-09 4.268421
v -0.78494483 -0.04242641 4.2542386
v -0.80999804 -0.06 4.2199993
v -0.83505124 -0.042426392 4.18576
v -0.8454286 1.0490733E-08 4.1715775
v -0.8350512 0.042426426 4.18576
v 0.2699964 0.06 2.7200003
v 0.3124228 0.042426404 2.7200003
v 0.3299964 -5.2453664E-09 2.7200003
v 0.3124228 -0.04242641 2.7200003
v 0.2699964 -0.06 2.7200003
v 0.22756998 -0.042426392 2.7200003
v 0.2099964 1.0490733E-08 2.7200003
v 0.22757003 0.042426426 2.7200003
v -0.80999804 0.06 4.2199993
v -0.78494483 0.042426404 4.2542386
v -0.7745675 -5.2453664E-09 4.268421
v -0.78494483 -0.04242641 4.2542386
v -0.80999804 -0.06 4.2199993
v -0.83505124 -0.042426392 4.18576
v -0.8454286 1.0490733E-08 4.1715775
v -0.8350512 0.042426426 4.18576
v 0.2699964 0 2.7200003
v -0.80999804 0 4.2199993
vt 0.49999997 1
vt 0.14644663 0.85355335
vt 0 0.49999997
vt 0.14644666 0.14644657
vt 0.5 0
vt 0.8535535 0.14644672
vt 1 0.50000006
vt 0.85355324 0.85355353
vt 0.49999997 1
vt 0.14644663 0.85355335
vt 0 0.49999997
vt 0.14644666 0.14644657
vt 0.5 0
vt 0.8535535 0.14644672
vt 1 0.50000006
vt 0.85355324 0.85355353
vt 0.49999997 1
vt 0.14644663 0.85355335
vt 0 0.49999997
vt 0.14644666 0.14644657
vt 0.5 0
vt 0.8535535 0.14644672
vt 1 0.50000006
vt 0.85355324 0.85355353
vt 0.49999997 1
vt 0.14644663 0.85355335
vt 0 0.49999997
vt 0.14644666 0.14644657
vt 0.5 0
vt 0.8535535 0.14644672
vt 1 0.50000006
vt 0.85355324 0.85355353
vt 0.49999997 1
vt 0.14644663 0.85355335
vt 0 0.49999997
vt 0.14644666 0.14644657
vt 0.5 0
vt 0.8535535 0.14644672
vt 1 0.50000006
vt 0.85355324 0.85355353
vt 0.49999997 1
vt 0.14644663 0.85355335
vt 0 0.49999997
vt 0.14644666 0.14644657
vt 0.5 0
vt 0.8535535 0.14644672
vt 1 0.50000006
vt 0.85355324 0.85355353
vt 0.49999997 1
vt 0.14644663 0.85355335
vt 0 0.49999997
vt 0.14644666 0.14644657
vt 0.5 0
vt 0.8535535 0.14644672
vt 1 0.50000006
vt 0.85355324 0.85355353
vt 0.49999997 1
vt 0.14644663 0.85355335
vt 0 0.49999997
vt 0.14644666 0.14644657
vt 0.5 0
vt 0.8535535 0.14644672
vt 1 0.50000006
vt 0.85355324 0.85355353
vt 0.5 0.5
vt 0.5 0.5
vn 0.0020843225 0.9999956 -0.00016650662
vn 0.7081046 0.7047564 0.043660577
vn 0.9981716 2.5029563E-09 0.060443923
vn 0.7081046 -0.7047565 0.043660592
vn 0.0020838405 -0.9999956 -0.00016654156
vn -0.70346683 -0.70941484 -0.04318585
vn -0.9981133 4.809655E-07 -0.061400816
vn -0.7034668 0.70941496 -0.04318553
vn 0.0059473105 0.99998164 0.0011369694
vn 0.6500712 0.7054915 0.28229284
vn 0.9525832 -2.3934314E-08 0.30427846
vn 0.65007114 -0.70549154 0.2822928
vn 0.0059468444 -0.9999816 0.0011368154
vn -0.6458553 -0.7090507 -0.28305146
vn -0.9513684 3.8417681E-07 -0.30805546
vn -0.6458552 0.7090508 -0.2830514
vn 0.0030188542 0.99999404 0.001624667
vn 0.57290006 0.70609784 0.41618663
vn 0.84346133 0 0.5371897
vn 0.5729001 -0.70609784 0.4161867
vn 0.0030184372 -0.99999416 0.0016243937
vn -0.57074136 -0.7082045 -0.41557267
vn -0.84277904 2.7063246E-07 -0.5382596
vn -0.57074124 0.7082047 -0.41557258
vn 0.0016307913 0.99999785 0.0013254336
vn 0.5098156 0.7063774 0.4910388
vn 0.74739873 2.4378645E-07 0.6643758
vn 0.5098156 -0.7063773 0.49103877
vn 0.0016304344 -0.99999774 0.0013250994
vn -0.50860476 -0.70784825 -0.49017566
vn -0.7471991 3.624147E-07 -0.6646002
vn -0.5086045 0.7078483 -0.4901755
vn 0.0010785789 0.99999875 0.001123387
vn 0.45957515 0.7064244 0.5382892
vn 0.6715145 1.899918E-08 0.7409914
vn 0.4595751 -0.7064245 0.5382891
vn 0.001078256 -0.9999988 0.0011230113
vn -0.45869288 -0.70776165 -0.53728426
vn -0.67153513 4.147152E-07 -0.74097264
vn -0.45869285 0.70776176 -0.5372841
vn 0.00065767893 0.99999887 0.00082494394
vn 0.36853907 0.70468956 0.6062933
vn 0.5204259 -6.1706665E-08 0.8539068
vn 0.368539 -0.7046896 0.6062933
vn 0.00065742614 -0.9999989 0.0008245128
vn -0.3656726 -0.7093339 -0.6026019
vn -0.518528 3.369755E-07 -0.85506064
vn -0.3656722 0.709334 -0.6026019
vn -0 0 -1
vn -0 0 -1
vn -0 0 -1
vn -0 0 -1
vn -0 0 -1
vn -0 0 -1
vn -0 0 -1
vn -0 0 -1
vn -0.80702996 0 0.5905105
vn -0.8070303 1.1433077E-06 0.5905101
vn -0.80703104 0 0.5905092
vn -0.8070303 -1.1433077E-06 0.5905101
vn -0.80702955 0 0.5905109
vn -0.8070303 1.1433077E-06 0.5905101
vn -0.807031 5.716531E-07 0.5905091
vn -0.8070307 -5.716541E-07 0.59050965
vn -0 0 -1
vn -0.80703044 1.4291348E-07 0.5905099
g Wire Deformed_0
f 1/1/1 9/9/9 2/2/2
f 10/10/10 2/2/2 9/9/9
f 10/10/10 11/11/11 2/2/2
f 3/3/3 2/2/2 11/11/11
f 3/3/3 11/11/11 4/4/4
f 12/12/12 4/4/4 11/11/11
f 12/12/12 13/13/13 4/4/4
f 5/5/5 4/4/4 13/13/13
f 5/5/5 13/13/13 6/6/6
f 14/14/14 6/6/6 13/13/13
f 14/14/14 15/15/15 6/6/6
f 7/7/7 6/6/6 15/15/15
f 7/7/7 15/15/15 8/8/8
f 16/16/16 8/8/8 15/15/15
f 16/16/16 9/9/9 8/8/8
f 1/1/1 8/8/8 9/9/9
f 9/9/9 17/17/17 10/10/10
f 18/18/18 10/10/10 17/17/17
f 18/18/18 19/19/19 10/10/10
f 11/11/11 10/10/10 19/19/19
f 11/11/11 19/19/19 12/12/12
f 20/20/20 12/12/12 19/19/19
f 20/20/20 21/21/21 12/12/12
f 13/13/13 12/12/12 21/21/21
f 13/13/13 21/21/21 14/14/14
f 22/22/22 14/14/14 21/21/21
f 22/22/22 23/23/23 14/14/14
f 15/15/15 14/14/14 23/23/23
f 15/15/15 23/23/23 16/16/16
f 24/24/24 16/16/16 23/23/23
f 24/24/24 17/17/17 16/16/16
f 9/9/9 16/16/16 17/17/17
f 17/17/17 25/25/25 18/18/18
f 26/26/26 18/18/18 25/25/25
f 26/26/26 27/27/27 18/18/18
f 19/19/19 18/18/18 27/27/27
f 19/19/19 27/27/27 20/20/20
f 28/28/28 20/20/20 27/27/27
f 28/28/28 29/29/29 20/20/20
f 21/21/21 20/20/20 29/29/29
f 21/21/21 29/29/29 22/22/22
f 30/30/30 22/22/22 29/29/29
f 30/30/30 31/31/31 22/22/22
f 23/23/23 22/22/22 31/31/31
f 23/23/23 31/31/31 24/24/24
f 32/32/32 24/24/24 31/31/31
f 32/32/32 25/25/25 24/24/24
f 17/17/17 24/24/24 25/25/25
f 25/25/25 33/33/33 26/26/26
f 34/34/34 26/26/26 33/33/33
f 34/34/34 35/35/35 26/26/26
f 27/27/27 26/26/26 35/35/35
f 27/27/27 35/35/35 28/28/28
f 36/36/36 28/28/28 35/35/35
f 36/36/36 37/37/37 28/28/28
f 29/29/29 28/28/28 37/37/37
f 29/29/29 37/37/37 30/30/30
f 38/38/38 30/30/30 37/37/37
f 38/38/38 39/39/39 30/30/30
f 31/31/31 30/30/30 39/39/39
f 31/31/31 39/39/39 32/32/32
f 40/40/40 32/32/32 39/39/39
f 40/40/40 33/33/33 32/32/32
f 25/25/25 32/32/32 33/33/33
f 33/33/33 41/41/41 34/34/34
f 42/42/42 34/34/34 41/41/41
f 42/42/42 43/43/43 34/34/34
f 35/35/35 34/34/34 43/43/43
f 35/35/35 43/43/43 36/36/36
f 44/44/44 36/36/36 43/43/43
f 44/44/44 45/45/45 36/36/36
f 37/37/37 36/36/36 45/45/45
f 37/37/37 45/45/45 38/38/38
f 46/46/46 38/38/38 45/45/45
f 46/46/46 47/47/47 38/38/38
f 39/39/39 38/38/38 47/47/47
f 39/39/39 47/47/47 40/40/40
f 48/48/48 40/40/40 47/47/47
f 48/48/48 41/41/41 40/40/40
f 33/33/33 40/40/40 41/41/41
f 49/49/49 50/50/50 65/65/65
f 50/50/50 51/51/51 65/65/65
f 51/51/51 52/52/52 65/65/65
f 52/52/52 53/53/53 65/65/65
f 53/53/53 54/54/54 65/65/65
f 54/54/54 55/55/55 65/65/65
f 55/55/55 56/56/56 65/65/65
f 56/56/56 49/49/49 65/65/65
f 58/58/58 57/57/57 66/66/66
f 59/59/59 58/58/58 66/66/66
f 60/60/60 59/59/59 66/66/66
f 61/61/61 60/60/60 66/66/66
f 62/62/62 61/61/61 66/66/66
f 63/63/63 62/62/62 66/66/66
f 64/64/64 63/63/63 66/66/66
f 57/57/57 64/64/64 66/66/66
